<svg height="276.721" viewBox="0 0 368.83 340.21" width="300" xmlns="http://www.w3.org/2000/svg"><g transform="matrix(1.9714247 0 0 1.9714247 -402.35762 -561.39011)"><path d="m297.61 457.34c-18.02-17.3-31.43-10.46-49.56-28.02l-5.03 4.25c-15.22-10.57-25.11-23.98-31.33-39.47-11.91-2.07-9.01-15.17 3.11-14.19l20.61-39.36-17.61-9.27 23.72-42.88c23.15 5.02 25.9-13 56.09 3.47 30.3-16.47 32.99 1.55 56.19-3.47l23.67 42.88-17.61 9.27 20.62 39.36c12.11-.98 15.02 12.12 3.11 14.19-6.22 15.49-16.11 28.9-31.34 39.47l-4.97-4.25c-18.13 17.56-31.59 10.72-49.67 28.02z"/><path d="m213.4 384.31h5.75l24.19-46.3-17.46-9.17 18.7-33.92c8.18 1.61 17.24-1.7 25.01-3.73 5.13-.88 9.01-.46 13.93.88 4.88 1.45 9.58 4.04 14.04 6.37 7.3-3.72 14.81-7.82 23.15-7.82 7.98.78 15.23 4.1 23.25 4.56 1.97 0 4.72.1 6.63-.26l18.7 33.92-17.45 9.17 24.18 46.3h5.44c5.13 0 4.56 5.8 0 5.8h-2.59c-3.47 8.03-7.51 16.11-13.15 22.95-4.1 4.87-8.45 8.96-13.21 12.94l-5.54-4.76c-5.54 5.38-10.88 10.36-18.07 13.36-4.15 1.86-8.66 3.11-12.9 4.71-6.63 2.13-13.1 5.7-18.44 10.1-5.28-4.4-11.86-8.02-18.38-10.1-6.17-2.38-12.64-4.09-18.34-7.51-4.76-2.84-8.65-6.68-12.64-10.56l-5.48 4.76c-8.86-7.3-15.6-14.86-21.24-24.96-1.76-3.47-3.47-7.35-5.02-11.03h-3.06c-4.25 0-4.46-5.7 0-5.7z" fill="#fff"/><path d="m291.31 358.68v6.94h4.43v-6.94z"/><path d="m289.87 333.14v6.94h10.55v-6.94z"/><path d="m290.95 347.44v6.94h10.79v-6.94z"/><path d="m288.43 322.11v6.94h18.34v-6.94z"/><path d="m282.81 405.34h-.09v6.94h29.09v-6.94z"/><path d="m288.79 390.11v6.95h16.91v-6.95z"/><path d="m291.67 368.36v6.94h10.79v-6.94z"/><path d="m225.21 384.31h2.59c1.76 0 3.21 1.3 3.21 2.85 0 1.66-1.45 2.95-3.21 2.95l-5.65-.05c4.67 11.08 11.4 20.82 20.51 28.9l5.65-4.82 4.29 3.99c2.08 2.07 8.24 9.07 12.69 9.12 37.24.77 35.33-107.93 14.3-129.53-1.76-1.86-6.42-1.81-9.17-1.24-7.61 2.12-14.97 4.4-22.89 4.19l-14.4 26 17.35 9.11z"/><path d="m369.81 384.31h-2.7c-1.75 0-3.15 1.3-3.15 2.85 0 1.66 1.4 2.95 3.15 2.95l5.75-.05c-4.61 11.08-11.34 20.82-20.45 28.9l-5.65-4.82-4.35 3.99c-2.07 2.07-8.23 9.07-12.64 9.12-37.29.77-35.32-107.88-14.29-129.53 1.76-1.86 6.42-1.81 9.17-1.24 7.61 2.12 14.96 4.4 22.89 4.19l14.4 26-17.35 9.11z" fill="#d00"/><g fill="#fff"><path d="m299.43 334.15h-16.47v4.92h16.47z"/><path d="m268.32 340.07c.08-.34.7-.93 1.05-1h4.57v-4.92h-4.6c-2.94 0-5.93 2.97-5.93 5.88v6.47h4.91z"/><path d="m321.33 348.45h-4.19v4.92h4.19z"/><path d="m307.4 348.45h-24.29v4.92h24.29z"/><path d="m261.62 353.37h12.52v-4.92h-12.52c-5.56 0-9.71 5.09-10.08 12.37-.01.34-.02.67-.02 1 0 6.85 4.12 11.91 9.53 12.46l-.01-4.9c-3.21-.32-4.6-4.05-4.6-7.62 0-.23 0-.46.02-.69.19-3.83 2.02-7.7 5.16-7.7z"/><path d="m270.53 374.29h3.31v-4.92h-3.31z"/><path d="m307.4 369.37h-23.88v4.92h23.88z"/><path d="m319.47 391.12h-2.33v4.92h2.33c5.84 0 9-7.27 9-14.1 0-2.23-.33-5.46-1.89-8.21-1.6-2.81-4.12-4.36-7.11-4.36h-2.33v4.92h2.33c.76 0 1.88.19 2.83 1.87.8 1.41 1.25 3.46 1.25 5.78 0 4.81-1.95 9.18-4.08 9.18z"/><path d="m283.11 396.04h24.29v-4.92h-24.29z"/><path d="m270.68 396.04h2.75v-4.92h-2.75z"/><path d="m257.94 396.04h3v-4.92h-3z"/><path d="m280.91 328.95c0-.41.14-.91.8-.91h35.01c.74 0 1.37 0 1.37 2.15h4.93c0-4.42-2.36-7.07-6.3-7.07h-35.01c-3.26 0-5.72 2.51-5.72 5.83v27.71h4.92z"/><path d="m318.39 404.02c.02.08.02.53.02.63 0 .49-.19 1.1-.5 1.46-.19.24-.32.24-.36.24h-35.84c-.49 0-.8-.35-.8-.91v-39.04h-4.92v39.04c0 3.27 2.51 5.83 5.72 5.83h35.84c1.59 0 3.06-.71 4.14-2 1.04-1.25 1.64-2.98 1.64-4.63 0-.39-.03-.19-.1-.56z"/><path d="m334.51 347.34v-9.28c0-3.18-2.42-5.77-5.41-5.77h-14.19c-3.01 0-5.47 2.59-5.47 5.77v58.27c0 3.18 2.46 5.77 5.47 5.77h14.19c3.24 0 5.41-2.32 5.41-5.77v-6.11h-4.92v6.11c0 .51-.11.75-.15.81-.01.01-.1.04-.34.04h-14.19c-.22 0-.54-.34-.54-.85v-58.27c0-.51.32-.85.54-.85h14.19c.17 0 .49.36.49.85v9.28z"/><path d="m294.66 364.6v-4.91h-26.34v-4.22h-4.91v46.19h4.91v-37.06z"/></g></g></svg>