<svg enable-background="new 0 0 211.7 336.7" height="336.7" viewBox="0 0 211.7 336.7" width="211.7" xmlns="http://www.w3.org/2000/svg"><path clip-rule="evenodd" d="m1 1h209.7v92.9c-25.3 0-25.3 38.5 0 38.5v132.2c0 28.7-23.5 52.2-52.2 52.2h-32.9c-10.9.1-19.7 8.9-19.7 19.9 0-10.9-8.8-19.8-19.7-19.9h-32.9c-28.8 0-52.3-23.4-52.3-52.1v-132.3c25.3 0 25.3-38.5 0-38.5z" fill="#fff" fill-rule="evenodd"/><path d="m106.8 336.7h-2c0-10.3-8.4-18.8-18.8-18.9h-32.9c-29.2 0-53.1-23.8-53.1-53.1v-133.3h1c5.6 0 10.2-2 13.5-5.7 2.9-3.3 4.5-7.8 4.5-12.6 0-8.8-5.6-18.3-18-18.3h-1v-94.8h211.7v94.9h-1c-5.6 0-10.2 2-13.5 5.7-2.9 3.3-4.5 7.8-4.5 12.6 0 8.8 5.6 18.3 18 18.3h1v133.2c0 29.3-23.9 53.2-53.2 53.2h-32.9c-10.4 0-18.8 8.4-18.8 18.8zm-104.8-203.3v131.3c0 28.2 23 51.2 51.2 51.2h32.9c9.2 0 17.1 6.1 19.7 14.5 2.7-8.4 10.5-14.4 19.7-14.5h32.9c28.2 0 51.2-23 51.2-51.2v-131.3c-13-.5-19-10.7-19-20.2s6-19.7 19-20.2v-91h-207.6v90.9c13 .5 19 10.7 19 20.2s-6 19.8-19 20.3" fill="#03227c"/><g clip-rule="evenodd" fill-rule="evenodd"><path d="m26.8 27.3h158v47.7c-11.9 8.1-19.8 22-19.8 37.8s7.9 29.7 19.8 37.7v112c0 15.5-12.6 28.1-28.1 28.1h-30.9c-11.1 0-20 9-20 20 0 .4-.8-20-20-20h-30.9c-15.5 0-28.1-12.6-28.1-28.1v-112c11.9-8.1 19.8-21.9 19.8-37.7s-7.9-29.7-19.8-37.7z" fill="#d62628"/><path d="m53.2 44.8h11.6c2.1 0 3.8 1.7 3.8 3.8v17c0 2.1-1.7 3.8-3.8 3.8h-4.8v18.6h-6.8zm33.4 43.2h-11.6c-2.1 0-3.8-1.7-3.8-3.8v-17c0-2.1 1.7-3.8 3.8-3.8h4.3c.4 0 .8-.4.8-.8v-2.3-6.2-2.3c0-.4-.4-.8-.8-.8h-.9c-.4 0-.8.4-.8.8v8.5h-6.5v-11.7c0-2.1 1.7-3.8 3.8-3.8h7.9c2.1 0 3.8 1.7 3.8 3.8zm71.9 0h-11.6c-2.1 0-3.8-1.7-3.8-3.8v-17c0-2.1 1.7-3.8 3.8-3.8h4.3c.4 0 .8-.4.8-.8v-2.3-6.2-2.3c0-.4-.4-.8-.8-.8h-.9c-.4 0-.8.4-.8.8v8.5h-6.5v-11.7c0-2.1 1.7-3.8 3.8-3.8h7.9c2.1 0 3.8 1.7 3.8 3.8zm0-47.3h-15.4v2.5h15.4zm-7.3 41.1h-.8c-.4 0-.8-.4-.8-.8v-10.7c0-.4.4-.8.8-.8h.8c.4 0 .8.4.8.8v10.7c0 .4-.4.8-.8.8m-26.1-37h11.6c2.1 0 3.8 1.7 3.8 3.8v39.4h-6.5v-36.2c0-.4-.4-.8-.8-.8h-.8c-.4 0-.8.4-.8.8 0 13.2.3 22.1.3 36.2h-6.8zm-2.6 43.2h-11.6c-2.1 0-3.8-1.7-3.8-3.8v-17c0-2.1 1.7-3.8 3.8-3.8h4.3c.4 0 .8-.4.8-.8v-2.3-6.2-2.3c0-.4-.4-.8-.8-.8h-.9c-.4 0-.8.4-.8.8v8.5h-6.5v-11.7c0-2.1 1.7-3.8 3.8-3.8h7.9c2.1 0 3.8 1.7 3.8 3.8zm-7.3-6.2h-.8c-.4 0-.8-.4-.8-.8v-10.7c0-.4.4-.8.8-.8h.8c.4 0 .8.4.8.8v10.7c0 .4-.3.8-.8.8m-26.1-37h11.6c2.1 0 3.8 1.7 3.8 3.8v11.6h-6.5v-8.5c0-.4-.4-.8-.8-.8h-.8c-.4 0-.8.4-.8.8 0 13.2.3 22.1.3 36.2h-6.8zm-9.8 37h-.8c-.4 0-.8-.4-.8-.8v-10.7c0-.4.4-.8.8-.8h.8c.4 0 .8.4.8.8v10.7c0 .4-.4.8-.8.8m-18.8-30.8h.8c.4 0 .8.4.8.8v10.7c0 .4-.4.8-.8.8h-.8c-.4 0-.8-.4-.8-.8v-10.7c0-.5.4-.8.8-.8" fill="#03227c"/><path d="m184.8 202-38.1-37.8s-34.3-41.1-85.8 0c-33 26.4-51.3 40.3-60.1 46.9h49.2c8.8 0 18.8 7.2 22.1 16.1l24.9 66.5c8.4 5.7 8.8 17.2 8.8 16.9 0-11.1 9-20 20-20h30.9c15.5 0 28.1-12.6 28.1-28.1zm-87-25.5c4.4 0 8 3.6 8 8s-3.6 8-8 8-8-3.6-8-8 3.6-8 8-8" fill="#03227c"/><path d="m87.9 91.8 1.2 1s14.4-14.4 9.4-19.6-17.7 10.7-21.2 15.9-9.2 13.2-8.5 22 8.9 8.9 16 .9c0 0-.8 7.7 7.5 1.2 0 0 1.5 6.9 10.4.6 0 0 2.1 6.3 11.3-2.2 0 0 .6 9.3 8.6-.3 0 0 2.2-3 4-6 0 0-2.1 5.8 1.5 9s7.9-.8 8.8-2.5l-.7-.8s-4.4 3.6-6.3.6-.5-6.6 1.1-8.2c0 0 3.5.3 8.9-3s2.5-7.9.3-7.9-4.7.3-10.5 7.6c0 0 1.3-2.1-1.1-2.7s-4 2-2.9 3.5c0 0-5 9.3-7.1 10.9-2.1 1.5-1.8-3.5-1.8-3.5l16.3-19.9s8.3-10.2 4.6-12.2-10 6.9-15.9 13.9-8.1 15.2-8.1 17.2c0 0-5.6 7.3-7.8 5.8 0 0-1.2-.6 2.6-5.8s7.3-10 7.3-10 .8-.7-.2-1.7-1.7-.6-2.3.3c-.6.8-14.2 21.4-18.1 16.9 0 0-1.2-1.8 3.2-6.8s8.4-10.9 8.4-10.9.8-.7-.4-1.7-2 0-2 0-15.1 20.3-16.6 18.8c0 0-.4-1.1.1-3.9 0 0 5.4-4.9 13.3-14.1s10.4-16.8 8.4-18.4c-1.9-1.6-5.6-.2-14.9 12.2s-9.8 19-9.8 19-8.4 10.2-12 7.1-.2-14.6 8-25.1c8.2-10.4 13.6-14.9 15.3-13.9 1.6 1-2.4 11-8.3 16.7m24.5 139.6c-3.6 0-6.6 2.9-6.6 6.6 0 3.6 2.9 6.6 6.6 6.6 3.6 0 6.6-2.9 6.6-6.6 0-3.6 2.9-6.6 6.6-6.6 3.6 0 6.6 2.9 6.6 6.6 0 3.2 2.3 5.8 5.2 6.4v46.2h2.7v-46.2c3-.6 5.2-3.3 5.2-6.4 0-3.6 2.9-6.6 6.6-6.6 3.6 0 6.6 2.9 6.6 6.6 0 3.6 2.9 6.6 6.6 6.6 3.6 0 6.6-2.9 6.6-6.6 0-3.6-2.9-6.6-6.6-6.6-3.6 0-6.6 2.9-6.6 6.6 0 3.6-2.9 6.6-6.6 6.6-3.6 0-6.6-2.9-6.6-6.6 0-3.6-2.9-6.6-6.6-6.6-3.6 0-6.6 2.9-6.6 6.6 0 3.6-2.9 6.6-6.6 6.6-3.6 0-6.6-2.9-6.6-6.6.1-3.7-2.9-6.6-6.5-6.6m21.4-131.5s4-5.3 6.2-4.3c0 .1 0 2.7-6.2 4.3m-15.5 1.9s5-11.2 16.8-22c0 0-4.4 8.2-16.8 22m-28.7.7s6.8-15.1 17.8-23.7c0-.1-5.6 12.8-17.8 23.7" fill="#fff"/><path d="m55.9 123.8h-2.3v8.8h2.7s1.6.2 2.3-1.7-.8-3-1.2-3c0 0 1.3-.8.8-2.5s-2.3-1.6-2.3-1.6m98.1 0h1.3v7.5h2.9v1.3h-4.2zm-17 0h1.3v8.8h-1.3zm-20.6 6.2h1.1s0 1.5 1.5 1.5 1.3-1.8 1.3-1.8.1-1-2-1.4-1.8-3.1-1.2-3.8c.6-.6 1.3-1.2 2.7-.9s1.6 1.9 1.6 2.2h-1.2s-.1-1.2-1.2-1.2-1.2 1.1-1.2 1.3-.2 1 2 1.4 2.8 4.8-.6 5.3c.1.1-2.7.5-2.8-2.6m-22.3 2.6h1.4l1-2.6h3.5l1 2.6h1.4l-3.4-8.8h-1.3zm2.8-3.8 1.3-3.3 1.3 3.3zm-21.5 3.8h-1.3v-8.8h2.5s2.4-.2 3.1 1.8-.8 3.6-2.3 3.6l2.5 3.4h-1.6l-2.9-4zm0-7.6v3.4h1.2s2.1 0 2.1-1.7-2.1-1.6-2.1-1.6h-1.2zm-20.6 0h1.1c.6 0 1.1.5 1.1 1.1v.2c0 .6-.5 1.1-1.1 1.1h-1.1zm0 3.5h1.3c.7 0 1.3.6 1.3 1.3v.2c0 .7-.6 1.3-1.3 1.3h-1.3z" fill="#03227c"/></g></svg>