<svg height="1400" width="2000" xmlns="http://www.w3.org/2000/svg"><path d="m0-.000043h666v1400h-666z" fill="#fc0"/><path d="m666.66669 0h1333.3334v1400h-1333.3334z" fill="#06c"/><path d="m690.95721-1000.4692h.810266v15.800179h-.810266z" fill="#ff0"/><g transform="translate(-246.8864 963.7456)"><path d="m322.61549-706.78756 123.66762-96.95809 126.11691 92.37453-65.66558 2.18956 1.49584 252.97314-38.02416 35.9511-31.05614 145.51309-30.71951.22971 30.49261-132.37877-55.37899-24.74306-32.21342 157.37204-28.66206.33109 36.6153-188.00463 7.52614-243.81346z"/><path d="m492.69881-427.86087 27.498-28.58605-.7065-248.17112 69.0072-1.15142-72.4541-61.96994 32.1351-34.5058 112.393 92.49574-48.7203-1.45523-1.6817 271.14895-49.0803 38.66711 25.92605 127.82024-30.776-.96432-6.21765-46.80689-8.0495-2.81835-10.3131 50.4191h-32.6578l32.56-131.20025z"/><path d="m607.28761-768.7628 32.085-33.2307 122.0373 101.98404-40.7046 2.26967 1.7737 244.09314 44.4074 179.33659-30.1131-.09358-33.433-168.68071-48.0171 41.27092 24.1553 127.40347-34.0669-.0108-21.0508-139.1017-25.36177-2.88583 24.87237-26.36963.0301-261.3396 59.5877.67041z"/></g></svg>