<svg enable-background="new 0 0 193 193" height="193" viewBox="0 0 193 193" width="193" xmlns="http://www.w3.org/2000/svg"><path d="m96.712402 184.25195 2.099121-5.80078c4.679687-9.31836 11.294927-18.92187 20.635747-28.50781 9.48535-9.73242 21.78613-19.45508 37.73144-28.85547l1.61816-.95508-.86914-1.65625-.003-.008-.008-.006c-2.11621-4.00977-3.97851-8.04102-5.57129-12.08984-1.58593-4.0293-2.90722-8.087894-3.95019-12.17139-5.33399-20.881348-3.25879-42.205078 8-63.692383l.76562-1.461426-1.31445-1.01123-24.02122-18.470373-1.35059-1.0395508-1.22168 1.1787109c-11.98828 11.5600589-23.47852 16.3525389-34.580078 15.8627929-11.136231-.491211-22.030762-6.294922-32.750977-15.9169921l-1.277832-1.1469727-1.318359 1.1079102-21.976563 18.4711916-1.146484.963867.628418 1.369629c7.485351 16.307617 10.601074 31.606933 10.037109 46.058105-.562012 14.419434-4.795898 28.009771-12.012207 40.927731l-.896973 1.60547 1.530762 1.00586c15.874023 10.42578 29.35791 20.67578 39.586914 30.55469 10.107422 9.75977 17.034668 19.13672 19.933594 27.92773z" fill="#fff"/><g clip-rule="evenodd" fill-rule="evenodd"><path d="m0 0h192.7558594v192.7558594h-192.7558594z" fill="#fff" opacity="0"/><g fill="#f00"><path d="m67.7558594 87.7519531c0 2.4853516-.2910156 4.6416016-.8730469 6.4658203-.5820313 1.8276367-1.9672852 2.7421875-4.1518555 2.7421875-2.3901367 0-3.9467773-.7583008-4.6704102-2.2666016-.7231445-1.512207-1.0844727-4.25-1.0844727-8.2050781v-5.3496094c0-3.453125.4384766-5.9008789 1.3085938-7.3242188.8701172-1.4277344 2.2304688-2.144043 4.0693359-2.144043 1.9643555 0 3.3583984.6699219 4.1733398 2.0087891.8183594 1.3398438 1.2285156 3.3110352 1.2285156 5.9057617h-3.3491211c0-1.4912109-.1376953-2.590332-.4135742-3.2895508-.2753906-.7036133-.6987305-1.0576172-1.262207-1.0576172-.784668 0-1.3603516.3540039-1.722168 1.0532227-.3618164.7036133-.5913086 1.8027344-.6831055 3.2939453v8.4282227c0 1.878418.1806641 3.2470703.5419922 4.0981445.3618164.8510742.9194336 1.2807617 1.6733398 1.2807617.7075195 0 1.1982422-.4589844 1.4643555-1.3774414.2666016-.918457.4013672-2.3417969.4013672-4.2626953h3.3491213z"/><path d="m138.1679688 89.190918c.0439453.28125.078125.625.09375 1.0195313.015625.3979492.0244141.6123047.0244141.6289063 0 1.9794922-.5634766 3.5693359-1.6875 4.7602539-1.1240234 1.1914063-2.4453125 1.7910156-3.9550781 1.7910156-1.5253906 0-2.8369141-.6416016-3.9267578-1.9165039-1.0898438-1.2792969-1.6376953-3.1499023-1.6376953-5.5996094 0-.4526367.0244141-.9394531.0712891-1.4550781h3.4228516c-.015625.515625-.0244141 1.0024414-.0244141 1.4511719 0 1.3125.2089844 2.2900391.6289063 2.9189453.4199219.6333008.9433594.9521484 1.5625.9521484.5546875 0 1.0458984-.2392578 1.4658203-.7084961.4199219-.4697266.6328125-1.078125.6328125-1.8081055 0-.5786133-.1376953-1.1572266-.4101563-1.7236328-.2724609-.5703125-.8017578-1.2246094-1.5791016-1.9545898-.7792969-.7299805-1.6494141-1.5556641-2.6015625-2.4702148-.9550781-.9140625-1.7128906-1.9042969-2.2646484-2.9697266-.5537109-1.0649414-.8330078-2.3525391-.8330078-3.8540039 0-1.9375.4921875-3.4599609 1.46875-4.5673828.9775391-1.1069336 2.1542969-1.6645508 3.5205078-1.6645508 1.5253906 0 2.8496094.7128906 3.9648438 2.1298828 1.1142578 1.4179688 1.6748047 3.46875 1.6748047 6.1362305h-3.2285156c0-1.4633789-.2099609-2.5541992-.6269531-3.2626953-.4189453-.7089844-.9199219-1.0654297-1.4960938-1.0654297-.4980469 0-.9365234.230957-1.3125.6918945-.3759766.4614258-.5664063 1.0107422-.5664063 1.6357422 0 .4277344.0869141.8515625.2626953 1.2583008s.4228516.7758789.7363281 1.0947266c.3125.3227539 1.1210938 1.0185547 2.4208984 2.0839844 1.3027344 1.0654297 2.2822266 2.0634766 2.9404297 2.9863281.6572266.9228516 1.0800781 2.0883789 1.2548828 3.4853516z"/><path d="m102.390625 153.3261719c.0439453.28125.078125.625.09375 1.0195313.015625.3984375.0253906.6132813.0253906.6289063 0 1.9804688-.5634766 3.5703125-1.6875 4.7597656-1.125 1.1914063-2.4462891 1.7910156-3.9555664 1.7910156-1.5249023 0-2.8374023-.640625-3.9272461-1.9160156-1.0898438-1.2792969-1.6376953-3.1503906-1.6376953-5.5996094 0-.453125.0249023-.9394531.0717773-1.4550781h3.4228516c-.0151367.515625-.0249023 1.0019531-.0249023 1.4511719 0 1.3125.2099609 2.2910156.6298828 2.9199219.4194336.6328125.9423828.9511719 1.5625.9511719.5541992 0 1.0458984-.2382813 1.4658203-.7089844.4189453-.46875.6318359-1.078125.6318359-1.8066406 0-.5800781-.1367188-1.1582031-.4101563-1.7246094-.2724609-.5703125-.8017578-1.2246094-1.578125-1.9550781-.7797852-.7285156-1.6503906-1.5546875-2.6020508-2.46875-.9555664-.9160156-1.7133789-1.9042969-2.2641602-2.9707031-.5546875-1.0644531-.8334961-2.3515625-.8334961-3.8535156 0-1.9375.4921875-3.4609375 1.46875-4.5683594.9775391-1.1054688 2.1547852-1.6640625 3.5200195-1.6640625 1.5253906 0 2.8496094.7128906 3.9648438 2.1308594s1.6757813 3.46875 1.6757813 6.1347656h-3.2294922c0-1.4628906-.2089844-2.5527344-.6259766-3.2617188-.4194336-.7089844-.9208984-1.0664063-1.496582-1.0664063-.4980469 0-.9365234.2304688-1.3125.6933594-.3754883.4609375-.5668945 1.0097656-.5668945 1.6347656 0 .4277344.0878906.8515625.2631836 1.2578125.175293.4082031.4228516.7773438.7358398 1.0957031.3134766.3222656 1.1210938 1.0195313 2.4208984 2.0839844 1.3027344 1.0644531 2.2832031 2.0625 2.9404297 2.9863281.6582031.921875 1.0810547 2.0878906 1.2558594 3.484375z"/><path d="m49.0600586 36.2597656 10.5126953-8.6347656 14.5253906 19.3793945.3823242 6.5234375 11.8496094 15.1577148-3.6313477 4.2211914-12.614746-16.1171874-6.3066406-2.3022461s-15.2905274-18.8027344-14.7172852-18.2275391z"/><path d="m144.8154297 36.2597656-10.5126953-8.6347656-14.5253906 19.3793945-.3818359 6.5234375-11.8496094 15.1577148 3.6308594 4.2211914 12.6152344-16.1171875 6.3066406-2.3022461c-.0000001.0000001 15.290039-18.8027343 14.7167968-18.227539z"/><path d="m96.7724609 36.4516602c3.7519531 0 6.8115234 3.0595703 6.8115234 6.8110352s-3.0595703 6.8115234-6.8115234 6.8115234c-3.7514648 0-6.8110352-3.0600586-6.8110352-6.8115234s3.0595704-6.8110352 6.8110352-6.8110352z"/></g><path d="m96.7231445 40.1831055c1.7426758 0 3.1655273 1.4223633 3.1655273 3.1660156s-1.4228516 3.1660156-3.1655273 3.1660156c-1.7441406 0-3.1660156-1.4223633-3.1660156-3.1660156s1.421875-3.1660156 3.1660156-3.1660156z" fill="#fff"/><g fill="#f00"><path d="m94.3129883 49.0917969v3.6665039h-7.9760742l.0161133 6.453125h7.9599609v6.8544922l4.8227539.8930664.0146484-7.7475586h8.3945313l-.0068359-6.453125h-8.3876953v-3.7255859c-.0000001-.0000001-4.8374024.2509765-4.8374024.059082z"/><path d="m82.6523438 101.3203125 4.395996 3.2636719-8.5195312 11.1992187-4.7524414-2.5507812z"/><path d="m69.296875 119.1347656 4.6650391 2.6523438-7.1870118 9.4472656-4.328125-3.4980469z"/><path d="m106.7353516 104.5761719 4.0234375-3.5957031 8.6875 12.0390625-4.2509766 2.7871093z"/><path d="m119.9892578 121.7265625 4.6494141-2.6445313 7.1464844 8.8222656-4.4179688 3.3828125c0 .0000001-7.4677734-9.6777343-7.3779297-9.5605468z"/></g></g><g fill="#f00"><path d="m96.7124023 184.2519531 2.0991211-5.8007813c4.6796875-9.3183594 11.2949219-18.921875 20.6357422-28.5078125 9.4853516-9.7324219 21.7861328-19.4550781 37.7314453-28.8554688l1.6181641-.9550781-.8691406-1.65625-.0029297-.0078125-.0078125-.0058594c-2.1162109-4.0097656-3.9785156-8.0410156-5.5712891-12.0898438-1.5859375-4.0292969-2.9072266-8.0878906-3.9501953-12.1713867-5.3339844-20.8813477-3.2587891-42.2050781 8-63.6923828l.765625-1.4614258-1.3144531-1.0112305-24.0214844-18.4707029-1.3505859-1.0395508-1.2216797 1.1787109c-11.9882813 11.5600586-23.4785156 16.3525391-34.5800781 15.862793-11.1362305-.4912109-22.0307618-6.2949219-32.7509766-15.9169922l-1.277832-1.1469727-1.3183594 1.1079102-21.9765625 18.4711914-1.1464844.9638672.628418 1.3696289c7.4853516 16.3076172 10.6010742 31.6069336 10.0371094 46.0581055-.5620117 14.4194336-4.7958984 28.0097656-12.012207 40.9277344l-.8969727 1.6054688 1.5307617 1.0058594c15.8740234 10.4257813 29.3579102 20.6757813 39.5869141 30.5546875 10.1074219 9.7597656 17.034668 19.1367188 19.9335938 27.9277344zm-36.1445312-170.512207c10.9780273 9.5366211 22.2529297 15.2695313 33.9350586 15.7841797 11.7841797.5200195 23.8427734-4.2675781 36.2509766-15.8071289l21.3779297 16.4389648c-11.0742188 21.9111328-13.0205078 43.6762695-7.5693359 65.019043 1.078125 4.2197266 2.4511719 8.4326172 4.1044922 12.6357422 1.4267578 3.625 3.0625 7.2363281 4.8964844 10.8320313-15.4794922 9.2871094-27.5429688 18.9042969-36.9433594 28.5507813-8.4746094 8.6953125-14.78125 17.4101563-19.4707031 25.9296875-3.675293-8.1699219-10.3032227-16.6757813-19.3378906-25.3984375-10.1176758-9.7714844-23.253418-19.8339844-38.6264648-30.0175781 6.9829102-12.9824219 11.0756836-26.6318359 11.6396484-41.0932617.5703125-14.621582-2.4726563-30.0585938-9.7861328-46.4594727z"/><path clip-rule="evenodd" d="m96.7446289 134.6054688c1.4223633-7.7890625 22.4243164-11.0742188 34.4536133-22.421875l2.4912109 2.3535156 2.3447266-13.5332031-10.1103516 6.03125 2.1972656 1.6171875c-10.4111328 9.6152344-24.9580078 16.6796875-29.0126953-1.4707031.1464844 0-2.1982422-.1464844-2.3637695-.2304688-.1655273-.0820313-2.5097656.0644531-2.362793.0644531-4.0551758 18.1503906-18.6015625 11.0839844-29.0136719 1.4707031l2.1977539-1.6171875-10.1103516-6.03125 2.3442383 13.5332031 2.4912109-2.3535156c12.0302736 11.3476563 33.0317384 14.6308594 34.4536134 22.5878907z" fill-rule="evenodd"/><path d="m96.9648438 65.550293h.0009766c5.7832031.0004883 11.0332031 2.3583984 14.8369141 6.1625977 3.8037109 3.8032227 6.1611328 9.0527344 6.1621094 14.8359375v.0009766.0004883c0 5.7832031-2.3583984 11.0336914-6.1630859 14.8364258-3.8027344 3.8046875-9.0527344 6.1621094-14.8354492 6.1621094h-.0014648c-5.7836914 0-11.0336914-2.3574219-14.8369141-6.1621094-3.8037109-3.8027344-6.1616211-9.0527344-6.1621094-14.8359375v-.0009766-.0004883c0-5.7832031 2.3583984-11.0332031 6.1621094-14.8369141s9.0532227-6.1616211 14.8364258-6.1621094zm-4.3510743 2.5034179-.0029297.0019531-.0073242.0078125c-.6826172.6489258-1.3291016 1.3413086-1.9365234 2.0712891-.6035156.7260742-1.1435547 1.4580078-1.6171875 2.190918-2.2128906 3.4257813-3.2851563 7.1918945-3.0683594 10.7763672l5.1196289-.5507813c.7255859-1.5986328 1.6645508-2.9873047 2.8154297-4.1660156 1.1445313-1.1713867 2.4936523-2.1323242 4.0473633-2.8818359.0888672-1.5874023.4541016-3.0654297 1.0957031-4.434082.5185547-1.105957 1.2148438-2.1313477 2.0878906-3.0751953-1.3466797-.3041992-2.7460938-.465332-4.1816406-.465332h-.0009766-.0004883c-1.5019531.0004883-2.9638672.1762695-4.3666992.5078125zm10.7006836.5683594c-1.0849609.9897461-1.9082031 2.0839844-2.4697266 3.2822266-.5341797 1.1391602-.8369141 2.3881836-.9072266 3.7456055 1.2626953.9238281 2.4199219 1.8955078 3.4755859 2.9023438 1.1835938 1.1298828 2.2353516 2.2978516 3.1601563 3.4882813 4.0048828 5.1533203 5.7666016 10.8525391 5.6630859 15.8266602 2.3535156-3.1669922 3.75-7.0844727 3.75-11.3168945v-.0004883-.0009766c0-5.2373047-2.1367188-9.9916992-5.5820313-13.4375-1.9824217-1.982422-4.3984373-3.5312502-7.0898436-4.489258zm6.7070313 31.7373047c.8935547-5.0454102-.5800781-11.4057617-5.0087891-17.1054688-.8769531-1.128418-1.8623047-2.2246094-2.9599609-3.2719727-.9824219-.9370117-2.0576172-1.8417969-3.2294922-2.7026367-1.3466797.6499023-2.5107422 1.4770508-3.4921875 2.4814453-.9609375.9833984-1.7519531 2.1401367-2.3730469 3.4711914.2983398.2924805.578125.5854492.8398438.8779297.4106445.4599609.8046875.9501953 1.1811523 1.4707031 1.8828125 2.6005859 3.0170898 5.6240234 3.4018555 9.0703125l.0380859.3486328c1.2050781 1.4975586 1.9863281 3.105957 2.4208984 4.8344727.4169922 1.6523438.5117188 3.4023438.3583984 5.2597656 3.3652345-.7695311 6.3945313-2.4374999 8.8232423-4.7343749zm-10.8369141 5.0820313c.1972656-1.8378906.1386719-3.5449219-.2607422-5.1289063-.4023438-1.5976563-1.1601563-3.0810547-2.3603516-4.4550781l-14.9956055 1.8359375c.5922852.8164063 1.2475586 1.5839844 1.9584961 2.2949219 3.4458008 3.4453125 8.2011719 5.5820313 13.4384766 5.5820313h.0014648c.7500001-.0000001 1.4897462-.0429688 2.2182618-.1289063zm-18.8022461-9.59375 15.9033203-1.9482422c-.4355469-2.6982422-1.4038086-5.0849609-2.90625-7.159668-.315918-.4365234-.668457-.8725586-1.0576172-1.3081055-.2919922-.3271484-.5898438-.637207-.8920898-.9301758l-13.4755859 1.4487305c-.0058594.1992188-.0097656.3989258-.0097656.5991211v.0004883.0009766c-.0000001 3.3725585.8867187 6.5449218 2.4379882 9.296875zm-2.2597656-11.9003907 5.8920898-.6337891c-.265625-4.0317383.9140625-8.246582 3.3740234-12.0541992.4067383-.6298828.8413086-1.2407227 1.3022461-1.8295898-1.9228516.9350586-3.6674805 2.1845703-5.1640625 3.6816406-2.8657226 2.8652344-4.8251952 6.6352539-5.4042968 10.8359375zm20.2436523-6.9980468c-.0068359-.0053711-.0048828-.003418.0029297.0019531-.0009765-.0004883-.0019531-.0014649-.0029297-.0019531zm.0048829.0029296c0 .0004883.0009766.0014648.0019531.0019531-.0009766-.0004882-.0009766-.0014648-.0019531-.0019531z"/></g></svg>