<svg enable-background="new 0 0 1000 700" height="700" viewBox="0 0 1000 700" width="1000" xmlns="http://www.w3.org/2000/svg"><path d="m0 210v17.5 17.5 245h1000v-245-17.5-17.5z" fill="#fff"/><path d="m0 245h1000v210h-1000z" fill="#f2e701"/><path d="m0 490h1000v210h-1000z" fill="#014335"/><path d="m0 0h1000v210h-1000z" fill="#de1700"/><path d="m579.25 329 2.49-11h6.426v-17.666h-11.832v-60.667c0-35.738-26.662-65.229-61.176-69.72l-9.158-119.613-9.158 119.613c-34.514 4.491-61.175 33.982-61.175 69.72v60.667h-11.834v17.666h6.425l2.491 11h2.918v126h-2.918l-2.491 11h-6.425v17.666h11.834v60.667c0 33.336 23.2 61.234 54.329 68.481v10.848c0 8.838 7.166 16.004 16.004 16.004s16.004-7.166 16.004-16.004v-10.848c31.129-7.247 54.33-35.146 54.33-68.481v-60.667h11.832v-17.666h-6.426l-2.49-11h-2.916v-126z" fill="#262626"/><g fill="#aaa" stroke="#545454" stroke-width="4"><path d="m500 174.334c-38.844 0-70.333 31.489-70.333 70.333v304.666c0 38.844 31.489 70.333 70.333 70.333 38.843 0 70.333-31.489 70.333-70.333v-304.666c.001-38.844-31.489-70.333-70.333-70.333z"/><path d="m577.25 477.666h-154.5l4-17.666h146.5z"/><path d="m417.833 471h164.333v17.666h-164.333z"/><path d="m516.004 628.662c0 8.838-7.166 16.004-16.003 16.004-8.839 0-16.004-7.166-16.004-16.004v-20.662h32.008v20.662z"/><path d="m577.25 316.334h-154.5l4 17.666h146.5z"/><path d="m417.833 305.334h164.333v17.666h-164.333z"/></g><path d="m500 361c-6.25 0-14.75 3.334-14.75 36s8.499 36 14.75 36c6.25 0 14.75-3.334 14.75-36s-8.5-36-14.75-36z"/><path d="m500 55.334-10.004 130.666h20.008z" fill="#aaa" stroke="#545454" stroke-width="4"/></svg>