<svg clip-rule="evenodd" fill-rule="evenodd" height="127.4mm" image-rendering="optimizeQuality" shape-rendering="geometricPrecision" text-rendering="geometricPrecision" viewBox="0 0 200 127.4" width="200mm" xmlns="http://www.w3.org/2000/svg"><path d="m0 0h200v127.4h-200z" fill="#1f1a17"/><path d="m103.322 124.855.524-.03.519-.034.516-.039.512-.044.509-.049.505-.054.502-.059.499-.063.495-.069.493-.074.49-.079.487-.084.484-.089.481-.094.479-.1.477-.105.474-.11.472-.116.469-.121.468-.126.466-.132.463-.138.463-.143.46-.148.459-.154.981-.343 1-4.6.165-.825 1.283-5.388-2.422-.775 3.816-19.9893-1.031-.3616-.22-.076-.222-.0752-.223-.0744-.223-.0734-.225-.0727-.227-.0717-.227-.071-.228-.0696-.23-.0692-.231-.0681-.231-.0675-.233-.0662-.234-.0655-.235-.0645-.237-.0637-.237-.0627-.238-.0619-.239-.0608-.241-.0599-.241-.0591-.242-.058-.244-.0572-.245-.0563-.245-.0551-.246-.0543-.247-.0533-.249-.0525-.249-.0513-.251-.0504-.25-.0494-1.28-.2468-.798 5.4642-.949-.1264.366-5.5554-1.144-.1479-.213-.0271-.214-.0263-.215-.0258-.215-.0248-.215-.0245-.216-.0235-.217-.0231-.217-.0221-.217-.0216-.218-.0207-.218-.0203-.219-.0194-.22-.0187-.219-.0181-.221-.0174-.221-.0165-.221-.0159-.221-.0151-.223-.0145-.222-.0135-.223-.013-.223-.0122-.224-.0117-.225-.0106-.224-.01-.225-.0092-.225-.0087-.226-.0077-.227-.0073-.226-.0062-1.252-.0314v5.5356h-1.0458v-5.5356l-1.252.0314-.2267.0062-.2262.0073-.2256.0077-.2252.0087-.2249.0092-.2246.01-.2244.0106-.2239.0117-.2233.0122-.2225.013-.2228.0135-.2223.0145-.2214.0151-.2209.0159-.2212.0163-.2205.0175-.2198.0181-.2192.0188-.2191.0193-.2184.0203-.2178.0207-.2173.0216-.2174.0222-.2166.0231-.2159.0234-.2153.0244-.215.025-.2147.0257-.214.0263-.2135.0271-1.1439.1482.3662 5.5552-.9489.1264-.7982-5.4644-1.2795.247-.2507.0495-.25.0503-.2496.0513-.2485.0525-.2473.0533-.246.0543-.2457.0551-.2445.0563-.2435.0572-.242.058-.2416.0589-.2401.06-.2394.0608-.2383.0619-.2376.0627-.2363.0637-.2348.0645-.2341.0656-.2332.0664-.2313.0673-.2306.0681-.2296.0692-.2285.0696-.2275.071-.2263.0717-.2246.0727-.2241.0734-.2226.0744-.2216.0751-.2199.0761-1.0313.3612 3.8153 19.9897-2.422.775 1.2835 5.39.1667.834 1.1099 4.604.9805.324.4581.147.4601.141.4621.137.4648.133.4667.127.4693.124.4714.118.4742.114.4767.109.4793.105.4819.1.4849.095.4875.09.4905.086.4932.081.4966.076.4996.071.5026.067.5058.061.5093.057.5127.052.516.047.5193.042.5231.037.5266.033.5304.027.5341.022.5378.018.5418.012.546.008.5493.002.549-.002.544-.007.54-.011.535-.016.532-.02z" fill="#dededd"/><path d="m100.095 123.934c5.7893 0 10.7638-.7466 15.5134-2.4375l.8794-4.0435-2.0968-.6672.2859-1.4295 2.0969.7625.9529-4.003-2.3826-.7624 3.8198-20.0127c-2.278-.8067-4.7663-1.4739-7.4143-1.9767l-.7896 5.4058-2.8593-.3813.366-5.5516c-2.2321-.2948-4.5549-.476-6.9421-.5303v5.5101h-1.5249-.3813-1.1436v-5.5101c-2.3872.0544-4.7101.2352-6.9423.5303l.3661 5.5516-2.8593.3813-.7896-5.4058c-2.6479.5029-5.1364 1.1699-7.4143 1.9767l3.8198 20.0127-2.3827.7624.953 4.003 2.0969-.7625.2859 1.4295-2.0967.6672.9745 4.0435c4.7498 1.5957 9.8194 2.4375 15.6089 2.4375z" fill="#1f1a17"/><path d="m86.6286 120.385.1306.0386.4374.1248.4394.1203.4417.1159.444.1116.4466.1074.4491.1027.4514.0987.4541.0939.457.0898.4597.0852.4626.0808.4657.0763.4689.0718.472.0674.475.0629.4784.0581.4822.054.4853.049.489.0447.4927.0398.4967.0355.5001.0307.5043.026.508.0214.5125.0166.5166.012.5205.0071.5257.0023.5262-.0022.5214-.0063.5165-.0107.5118-.0152.5072-.0194.5022-.0239.4979-.0281.4939-.033.4897-.0371.4852-.0418.4812-.0461.4774-.051.4742-.0555.4698-.0598.4665-.0648.4635-.0695.4604-.0741.4566-.0787.4538-.0836.451-.0884.4483-.0932.4456-.0983.4431-.103.4409-.1082.4389-.1128.436-.118.4345-.1231.433-.1283.1293-.0401c-3.4275-1.3567-8.1942-2.2006-13.4518-2.2006-5.217 0-9.9499.8309-13.3714 2.1695z" fill="#dededd"/><path d="m87.5592 117.852.019.0947-1.5617.4969c-.1577.0677-.3123.1367-.4636.2066l.1495.6199c8.0463-3.6334 20.6048-3.6361 28.6421.0221l.1364-.6268c-.1604-.0747-.3247-.1479-.4925-.2201l-1.5668-.4986.0155-.0961c-7.5361-2.5762-17.3422-2.5764-24.8779.0014z" fill="#dededd"/><path d="m86.9516 114.814.3265 1.6328c3.3593-1.1956 7.8276-1.9266 12.7219-1.9266 4.867 0 9.3123.7231 12.665 1.907l.2645-1.6527c-3.3817-1.1091-7.9337-1.7906-12.9295-1.7906-5.0549 0-9.655.6976-13.0484 1.8301z" fill="#dededd"/><path d="m86.6005 112.456.0113.0598-1.05.3359c-.1048.0435-.2085.0874-.3102.1316l-.0096-.0292-.9461.3027.2399 1.0837 1.5726-.572c.1762-.0668.3561-.1322.5399-.1963l.0513-.0186.0002.0009c3.4158-1.1828 8.1195-1.9155 13.3002-1.9155 6.2835 0 11.8652 1.0783 15.2981 2.7294l.4059-1.1116-.8624-.2759-.0158.036c-.1255-.0554-.2541-.1101-.3846-.1641l-1.0532-.337.0114-.0601c-3.4235-1.2029-8.1684-1.9501-13.3994-1.9501-5.2315 0-9.9759.7473-13.3995 1.9504z" fill="#dededd"/><path d="m93.4004 90.3319-.0613.0068.3645 5.5281-2.2978.3063.1939 1.9084c.8158-.1282 1.6468-.2382 2.4912-.3292v1.3363c-1.8804.204-3.6943.5031-5.4224.8871l.4809 2.8057c1.5871-.3176 3.2387-.5676 4.9415-.7432v1.3924c-.6146.0638-1.2224.1371-1.823.2201l.252 2.4797c.5185-.0686 1.0422-.1302 1.571-.1847v1.3924c-1.4081.1463-2.7812.3436-4.1118.5881l.2231 2.1932c1.7365-.369 3.6563-.6433 5.6995-.8016v-6.7326c0-2.4115 1.7822-4.3843 4.1936-4.3843h.1906c2.4113 0 4.0028 1.9728 4.0028 4.3843v6.7801c2.3854.2126 4.7707.5842 6.8103 1.0802l.4498-2.2126c-1.6818-.3643-3.4399-.6514-5.2586-.8533v-1.3924c.7778.0858 1.5443.187 2.2987.3033l.342-2.4592c-.8645-.1399-1.7451-.2598-2.6407-.3592v-1.3925c2.236.2468 4.3806.6219 6.404 1.1099l.3876-2.7879c-2.1265-.5632-4.4038-.9935-6.7916-1.2702v-1.3366c1.2953.1492 2.5581.3433 3.7821.5792l.2735-1.9672-4.0496-.54.3644-5.5281-.0609-.0066-.207-.0211-.2088-.0207-.2091-.0199-.2094-.0194-.2095-.0186-.2107-.0179-.2105-.0174-.2111-.0166-.2111-.0158-.2122-.0153-.2129-.0144-.2129-.014-.2128-.0129-.2145-.0126-.2144-.0116-.2042-.0107v5.4473h-6.4573v-5.4472l-.2036.0106-.2145.0116-.2142.0126-.2133.0129-.2127.014-.2129.0144-.2128.0153-.2112.0156-.2102.0167-.2107.0173-.2107.0181-.2098.0185-.2091.0194-.2091.0199-.2087.0208z" fill="#dededd"/><path d="m89.8214 96.3844-2.2244.2967-.7716-5.2823-.1527.0342-.2317.0534-.2315.0544-.2306.0554-.2294.0559-.228.0569-.2273.0576-.226.0587-.2244.0592-.2235.0604-.2228.0611-.2214.0621-.22.0626-.2195.064-.2183.0643-.217.0654-.2156.0658-.214.0668-.0834.0263.6724 3.5228c.5165-.1757 1.0434-.3432 1.5812-.5027l.2464 1.3299c-.5355.1563-1.0609.3208-1.5756.4932l.4859 2.5457c1.8386-.622 3.8223-1.1393 5.9184-1.5345z" fill="#dededd"/><path d="m87.0934 100.355c-.9128.2377-1.7983.5-2.6529.7846l.5119 2.6813c.8887-.2657 1.8065-.5088 2.7495-.7275z" fill="#dededd"/><path d="m90.6904 103.893c-1.9193.325-3.7549.7477-5.4846 1.2564l.4533 2.3748c1.7083-.4796 3.5161-.8767 5.4024-1.1799z" fill="#dededd"/><path d="m88.4118 108.24c-.8532.1855-1.687.391-2.4987.615l.4471 2.3422c.7346-.2677 1.5337-.5142 2.3879-.7359z" fill="#dededd"/><path d="m111.535 98.6799c1.4915.3369 2.918.7368 4.2664 1.1932l.4857-2.5448c-.395-.1324-.7964-.2601-1.2038-.3831l.2689-1.3203c.4017.1235.7974.2514 1.1868.3839l.6729-3.5255-.0828-.0263-.2145-.0668-.2157-.066-.2168-.0652-.2177-.0643-.2195-.0638-.2203-.0626-.2216-.0622-.2227-.0611-.2238-.0604-.2243-.0593-.2262-.0585-.2271-.0578-.2283-.057-.2288-.056-.2306-.0552-.2314-.0543-.232-.0535-.1532-.0342-.7715 5.2823-.4779-.0638z" fill="#dededd"/><path d="m114.128 103.56c.3097.0853.6164.1736.9195.2642l.5124-2.6839c-.3023-.1006-.6085-.1987-.9185-.2936z" fill="#dededd"/><path d="m110.043 106.536c1.4894.2733 2.9252.6056 4.297.9909l.4535-2.3757c-1.368-.4025-2.802-.7512-4.2917-1.0403z" fill="#dededd"/><path d="m112.526 110.831c.3915.1174.7638.24 1.1134.3674l.4468-2.3411c-.3266-.0902-.6571-.1775-.9908-.2617z" fill="#dededd"/><path d="m103.322 82.7831.524-.0298.519-.0346.516-.039.512-.0442.509-.0487.505-.054.502-.0587.499-.0636.495-.0688.493-.0739.49-.0787.487-.084.484-.0892.481-.0944.479-.0996.477-.1051.474-.1103.472-.1155.469-.1209.468-.1265.466-.132.463-.1375.463-.1427.46-.1488.459-.154.981-.3429 1-4.5998.165-.8249 1.283-5.3885-2.422-.775 3.816-19.9888-1.031-.3616-.22-.076-.222-.0752-.223-.0744-.223-.0735-.225-.0726-.227-.0717-.227-.071-.228-.0697-.23-.0691-.231-.0681-.231-.0675-.233-.0662-.234-.0655-.235-.0645-.237-.0637-.237-.0627-.238-.0619-.239-.0608-.241-.0599-.241-.0591-.242-.058-.244-.0572-.245-.0563-.245-.0551-.246-.0543-.247-.0534-.249-.0524-.249-.0513-.251-.0504-.25-.0494-1.28-.2468-.798 5.4642-.949-.1264.366-5.5554-1.144-.1479-.213-.0271-.214-.0263-.215-.0258-.215-.0248-.215-.0245-.216-.0235-.217-.0231-.217-.0221-.217-.0216-.218-.0207-.218-.0203-.219-.0194-.22-.0187-.219-.0181-.221-.0175-.221-.0164-.221-.0159-.221-.0151-.223-.0145-.222-.0135-.223-.013-.223-.0122-.224-.0117-.225-.0106-.224-.0101-.225-.0091-.225-.0087-.226-.0078-.227-.0072-.226-.0062-1.252-.0314v5.5356h-1.0458v-5.5356l-1.252.0314-.2267.0062-.2262.0072-.2256.0078-.2252.0087-.2249.0091-.2246.0101-.2244.0106-.2239.0117-.2233.0122-.2225.013-.2228.0135-.2223.0145-.2214.0151-.2209.0159-.2212.0163-.2205.0175-.2198.0181-.2192.0188-.2191.0193-.2184.0203-.2178.0207-.2173.0215-.2174.0223-.2166.0231-.2159.0234-.2153.0244-.215.025-.2147.0257-.214.0262-.2135.0272-1.1439.1482.3662 5.5552-.9489.1264-.7982-5.4644-1.2795.247-.2507.0495-.25.0503-.2496.0513-.2485.0524-.2473.0534-.246.0543-.2457.0551-.2445.0563-.2435.0572-.242.058-.2416.0589-.2401.06-.2394.0608-.2383.0619-.2376.0627-.2363.0637-.2348.0645-.2341.0656-.2332.0663-.2313.0674-.2306.0681-.2296.0691-.2285.0697-.2275.071-.2263.0717-.2246.0726-.2241.0735-.2226.0744-.2216.0751-.2199.0761-1.0313.3612 3.8153 19.9892-2.422.775 1.2835 5.3904.1667.8339 1.1099 4.6045.9805.324.4581.1462.4601.1416.4621.1368.4648.1326.4667.1279.4693.1232.4714.1183.4742.114.4767.1093.4793.1045.4819.0999.4849.0952.4875.0903.4905.0857.4932.0808.4966.0761.4996.0712.5026.0666.5058.0615.5093.057.5127.0517.516.0472.5193.042.5231.0374.5266.0323.5304.0274.5341.0223.5378.0175.5418.0125.546.0075.5493.0025.549-.0022.544-.0067.54-.0111.535-.0159.532-.0203z" fill="#dededd"/><path d="m100.095 81.8621c5.7893 0 10.7638-.7466 15.5134-2.4375l.8794-4.0435-2.0968-.6672.2859-1.4295 2.0969.7624.9529-4.0029-2.3826-.7624 3.8198-20.0128c-2.278-.8066-4.7663-1.4738-7.4143-1.9766l-.7896 5.4058-2.8593-.3813.366-5.5516c-2.2321-.2948-4.5549-.476-6.9421-.5303v5.5101h-1.5249-.3813-1.1436v-5.5101c-2.3872.0544-4.7101.2352-6.9423.5303l.3661 5.5516-2.8593.3813-.7896-5.4058c-2.6479.5029-5.1364 1.1698-7.4143 1.9766l3.8198 20.0128-2.3827.7624.953 4.0029 2.0969-.7624.2859 1.4295-2.0967.6672.9745 4.0435c4.7498 1.5956 9.8194 2.4375 15.6089 2.4375z" fill="#1f1a17"/><path d="m86.6286 78.3131.1306.0386.4374.1247.4394.1204.4417.1159.444.1116.4466.1074.4491.1027.4514.0986.4541.094.457.0898.4597.0852.4626.0808.4657.0763.4689.0718.472.0674.475.0629.4784.058.4822.0541.4853.049.489.0447.4927.0398.4967.0355.5001.0307.5043.0259.508.0215.5125.0165.5166.0121.5205.0071.5257.0023.5262-.0022.5214-.0063.5165-.0108.5118-.0151.5072-.0194.5022-.0239.4979-.0282.4939-.0329.4897-.0371.4852-.0418.4812-.0461.4774-.0511.4742-.0554.4698-.0599.4665-.0647.4635-.0695.4604-.0741.4566-.0787.4538-.0836.451-.0885.4483-.0931.4456-.0983.4431-.103.4409-.1082.4389-.1128.436-.118.4345-.1231.433-.1283.1293-.0401c-3.4275-1.3567-8.1942-2.2006-13.4518-2.2006-5.217 0-9.9499.8309-13.3714 2.1695z" fill="#dededd"/><path d="m87.5592 75.7804.019.0947-1.5617.4969c-.1577.0677-.3123.1367-.4636.2066l.1495.6199c8.0463-3.6334 20.6048-3.6361 28.6421.0221l.1364-.6268c-.1604-.0748-.3247-.1479-.4925-.2202l-1.5668-.4985.0155-.0961c-7.5361-2.5762-17.3422-2.5764-24.8779.0014z" fill="#dededd"/><path d="m86.9516 72.7421.3265 1.6328c3.3593-1.1956 7.8276-1.9266 12.7219-1.9266 4.867 0 9.3123.7231 12.665 1.9069l.2645-1.6526c-3.3817-1.1091-7.9337-1.7906-12.9295-1.7906-5.0549 0-9.655.6975-13.0484 1.8301z" fill="#dededd"/><path d="m86.6005 70.3844.0113.0598-1.05.3359c-.1048.0435-.2085.0874-.3102.1316l-.0096-.0292-.9461.3027.2399 1.0837 1.5726-.572c.1762-.0668.3561-.1322.5399-.1963l.0513-.0186.0002.0009c3.4158-1.1828 8.1195-1.9155 13.3002-1.9155 6.2835 0 11.8652 1.0783 15.2981 2.7294l.4059-1.1116-.8624-.2759-.0158.036c-.1255-.0554-.2541-.1101-.3846-.1641l-1.0532-.337.0114-.0601c-3.4235-1.2029-8.1684-1.9501-13.3994-1.9501-5.2315 0-9.9759.7473-13.3995 1.9504z" fill="#dededd"/><path d="m93.4004 48.2599-.0613.0068.3645 5.5281-2.2978.3063.1939 1.9084c.8158-.1282 1.6468-.2382 2.4912-.3292v1.3363c-1.8804.204-3.6943.5031-5.4224.8871l.4809 2.8056c1.5871-.3175 3.2387-.5675 4.9415-.7432v1.3925c-.6146.0638-1.2224.1371-1.823.2201l.252 2.4797c.5185-.0686 1.0422-.1302 1.571-.1847v1.3924c-1.4081.1463-2.7812.3436-4.1118.5881l.2231 2.1932c1.7365-.3691 3.6563-.6433 5.6995-.8017v-6.7326c0-2.4114 1.7822-4.3842 4.1936-4.3842h.1906c2.4113 0 4.0028 1.9728 4.0028 4.3842v6.7802c2.3854.2126 4.7707.5842 6.8103 1.0802l.4498-2.2126c-1.6818-.3643-3.4399-.6514-5.2586-.8533v-1.3924c.7778.0858 1.5443.187 2.2987.3033l.342-2.4592c-.8645-.1399-1.7451-.2598-2.6407-.3592v-1.3925c2.236.2468 4.3806.6219 6.404 1.1099l.3876-2.7879c-2.1265-.5632-4.4038-.9935-6.7916-1.2702v-1.3366c1.2953.1492 2.5581.3433 3.7821.5792l.2735-1.9672-4.0496-.54.3644-5.5281-.0609-.0066-.207-.0211-.2088-.0207-.2091-.0199-.2094-.0194-.2095-.0186-.2107-.018-.2105-.0173-.2111-.0167-.2111-.0157-.2122-.0153-.2129-.0145-.2129-.0139-.2128-.0129-.2145-.0126-.2144-.0116-.2042-.0107v5.4473h-6.4573v-5.4472l-.2036.0106-.2145.0116-.2142.0126-.2133.0129-.2127.0139-.2129.0145-.2128.0153-.2112.0156-.2102.0167-.2107.0173-.2107.0181-.2098.0185-.2091.0194-.2091.0199-.2087.0208z" fill="#dededd"/><path d="m89.8214 54.3124-2.2244.2966-.7716-5.2822-.1527.0342-.2317.0534-.2315.0544-.2306.0553-.2294.056-.228.0569-.2273.0576-.226.0587-.2244.0592-.2235.0604-.2228.0611-.2214.062-.22.0627-.2195.064-.2183.0642-.217.0654-.2156.0658-.214.0669-.0834.0263.6724 3.5228c.5165-.1757 1.0434-.3432 1.5812-.5027l.2464 1.3299c-.5355.1563-1.0609.3208-1.5756.4932l.4859 2.5456c1.8386-.6219 3.8223-1.1392 5.9184-1.5344z" fill="#dededd"/><path d="m87.0934 58.2834c-.9128.2377-1.7983.5-2.6529.7846l.5119 2.6813c.8887-.2657 1.8065-.5089 2.7495-.7276z" fill="#dededd"/><path d="m90.6904 61.8209c-1.9193.3249-3.7549.7477-5.4846 1.2563l.4533 2.3749c1.7083-.4796 3.5161-.8767 5.4024-1.1799z" fill="#dededd"/><path d="m88.4118 66.1683c-.8532.1855-1.687.391-2.4987.615l.4471 2.3422c.7346-.2677 1.5337-.5142 2.3879-.7359z" fill="#dededd"/><path d="m111.535 56.6079c1.4915.3369 2.918.7368 4.2664 1.1931l.4857-2.5447c-.395-.1324-.7964-.2601-1.2038-.3831l.2689-1.3203c.4017.1235.7974.2514 1.1868.3839l.6729-3.5255-.0828-.0263-.2145-.0669-.2157-.0659-.2168-.0653-.2177-.0642-.2195-.0638-.2203-.0626-.2216-.0622-.2227-.0611-.2238-.0604-.2243-.0593-.2262-.0585-.2271-.0578-.2283-.057-.2288-.056-.2306-.0552-.2314-.0543-.232-.0535-.1532-.0342-.7715 5.2822-.4779-.0637z" fill="#dededd"/><path d="m114.128 61.4876c.3097.0853.6164.1736.9195.2642l.5124-2.684c-.3023-.1005-.6085-.1986-.9185-.2935z" fill="#dededd"/><path d="m110.043 64.4637c1.4894.2733 2.9252.6056 4.297.9909l.4535-2.3757c-1.368-.4025-2.802-.7512-4.2917-1.0403z" fill="#dededd"/><path d="m112.526 68.7585c.3915.1174.7638.24 1.1134.3673l.4468-2.341c-.3266-.0902-.6571-.1776-.9908-.2617z" fill="#dededd"/><path d="m103.322 40.4076.524-.0298.519-.0346.516-.039.512-.0442.509-.0487.505-.054.502-.0587.499-.0636.495-.0688.493-.0739.49-.0787.487-.084.484-.0892.481-.0944.479-.0996.477-.1051.474-.1103.472-.1155.469-.1209.468-.1265.466-.132.463-.1375.463-.1427.46-.1488.459-.154.981-.3429 1-4.5998.165-.8249 1.283-5.3885-2.422-.775 3.816-19.9888-1.031-.3616-.22-.076-.222-.0752-.223-.0744-.223-.0735-.225-.0726-.227-.0717-.227-.071-.228-.0697-.23-.0691-.231-.0681-.231-.0675-.233-.0662-.234-.0655-.235-.0645-.237-.0637-.237-.0627-.238-.0619-.239-.0608-.241-.0599-.241-.0591-.242-.058-.244-.0572-.245-.0563-.245-.0551-.246-.0543-.247-.0533-.249-.0525-.249-.0513-.251-.0504-.25-.0494-1.28-.2468-.798 5.4642-.949-.1264.366-5.5554-1.144-.1479-.213-.0271-.214-.0263-.215-.0258-.215-.0248-.215-.0245-.216-.0235-.217-.0231-.217-.0221-.217-.0216-.218-.0207-.218-.0203-.219-.0194-.22-.0187-.219-.0181-.221-.0175-.221-.0164-.221-.0159-.221-.0151-.223-.0145-.222-.0135-.223-.013-.223-.0122-.224-.0117-.225-.0106-.224-.0101-.225-.0091-.225-.0087-.226-.0077-.227-.0073-.226-.0062-1.252-.0314v5.5356h-1.0458v-5.5356l-1.252.0314-.2267.0062-.2262.0073-.2256.0077-.2252.0087-.2249.0091-.2246.0101-.2244.0106-.2239.0117-.2233.0122-.2225.013-.2228.0135-.2223.0145-.2214.0151-.2209.0159-.2212.0163-.2205.0175-.2198.0181-.2192.0188-.2191.0193-.2184.0203-.2178.0207-.2173.0215-.2174.0223-.2166.0231-.2159.0234-.2153.0244-.215.025-.2147.0257-.214.0262-.2135.0272-1.1439.1482.3662 5.5552-.9489.1264-.7982-5.4644-1.2795.247-.2507.0495-.25.0503-.2496.0513-.2485.0525-.2473.0533-.246.0543-.2457.0551-.2445.0563-.2435.0572-.242.058-.2416.0589-.2401.06-.2394.0608-.2383.0619-.2376.0627-.2363.0637-.2348.0645-.2341.0656-.2332.0663-.2313.0674-.2306.0681-.2296.0691-.2285.0697-.2275.071-.2263.0717-.2246.0726-.2241.0735-.2226.0744-.2216.0751-.2199.0761-1.0313.3612 3.8153 19.9892-2.422.775 1.2835 5.3904.1667.8339 1.1099 4.6045.9805.324.4581.1462.4601.1416.4621.1368.4648.1326.4667.1279.4693.1232.4714.1184.4742.114.4767.1092.4793.1045.4819.0999.4849.0952.4875.0903.4905.0857.4932.0808.4966.0761.4996.0712.5026.0666.5058.0615.5093.057.5127.0517.516.0472.5193.042.5231.0374.5266.0323.5304.0274.5341.0223.5378.0175.5418.0125.546.0075.5493.0025.549-.0022.544-.0067.54-.0111.535-.0159.532-.0203z" fill="#dededd"/><path d="m100.095 39.4866c5.7893 0 10.7638-.7466 15.5134-2.4375l.8794-4.0435-2.0968-.6672.2859-1.4295 2.0969.7625.9529-4.003-2.3826-.7624 3.8198-20.0128c-2.278-.8066-4.7663-1.4738-7.4143-1.9766l-.7896 5.4058-2.8593-.3813.366-5.5516c-2.2321-.2948-4.5549-.476-6.9421-.5303v5.5101h-1.5249-.3813-1.1436v-5.5101c-2.3872.0544-4.7101.2352-6.9423.5303l.3661 5.5516-2.8593.3813-.7896-5.4058c-2.6479.5029-5.1364 1.1699-7.4143 1.9766l3.8198 20.0128-2.3827.7624.953 4.003 2.0969-.7625.2859 1.4295-2.0967.6672.9745 4.0435c4.7498 1.5957 9.8194 2.4375 15.6089 2.4375z" fill="#1f1a17"/><path d="m86.6286 35.9376.1306.0386.4374.1247.4394.1204.4417.1159.444.1116.4466.1074.4491.1027.4514.0986.4541.094.457.0898.4597.0852.4626.0808.4657.0763.4689.0718.472.0674.475.0629.4784.058.4822.0541.4853.049.489.0447.4927.0398.4967.0355.5001.0307.5043.0259.508.0215.5125.0165.5166.0121.5205.0071.5257.0023.5262-.0022.5214-.0063.5165-.0108.5118-.0151.5072-.0194.5022-.0239.4979-.0282.4939-.0329.4897-.0371.4852-.0418.4812-.0461.4774-.0511.4742-.0554.4698-.0599.4665-.0647.4635-.0695.4604-.0741.4566-.0787.4538-.0836.451-.0885.4483-.0931.4456-.0983.4431-.103.4409-.1082.4389-.1128.436-.118.4345-.1231.433-.1283.1293-.0401c-3.4275-1.3567-8.1942-2.2006-13.4518-2.2006-5.217 0-9.9499.8309-13.3714 2.1695z" fill="#dededd"/><path d="m87.5592 33.4049.019.0947-1.5617.4969c-.1577.0677-.3123.1367-.4636.2066l.1495.6199c8.0463-3.6334 20.6048-3.6361 28.6421.0221l.1364-.6268c-.1604-.0747-.3247-.1479-.4925-.2202l-1.5668-.4985.0155-.0961c-7.5361-2.5762-17.3422-2.5764-24.8779.0014z" fill="#dededd"/><path d="m86.9516 30.3666.3265 1.6328c3.3593-1.1956 7.8276-1.9266 12.7219-1.9266 4.867 0 9.3123.7231 12.665 1.9069l.2645-1.6526c-3.3817-1.1091-7.9337-1.7906-12.9295-1.7906-5.0549 0-9.655.6975-13.0484 1.8301z" fill="#dededd"/><path d="m86.6005 28.0089.0113.0598-1.05.3359c-.1048.0435-.2085.0874-.3102.1316l-.0096-.0292-.9461.3027.2399 1.0837 1.5726-.572c.1762-.0668.3561-.1322.5399-.1963l.0513-.0186.0002.0009c3.4158-1.1828 8.1195-1.9155 13.3002-1.9155 6.2835 0 11.8652 1.0783 15.2981 2.7294l.4059-1.1116-.8624-.2759-.0158.036c-.1255-.0554-.2541-.1101-.3846-.1641l-1.0532-.337.0114-.0601c-3.4235-1.2029-8.1684-1.9501-13.3994-1.9501-5.2315 0-9.9759.7473-13.3995 1.9504z" fill="#dededd"/><path d="m93.4004 5.8844-.0613.0068.3645 5.5281-2.2978.3063.1939 1.9084c.8158-.1282 1.6468-.2382 2.4912-.3292v1.3363c-1.8804.204-3.6943.5031-5.4224.8871l.4809 2.8056c1.5871-.3175 3.2387-.5675 4.9415-.7432v1.3925c-.6146.0638-1.2224.1371-1.823.2201l.252 2.4797c.5185-.0686 1.0422-.1302 1.571-.1847v1.3924c-1.4081.1463-2.7812.3436-4.1118.5881l.2231 2.1932c1.7365-.369 3.6563-.6433 5.6995-.8017v-6.7326c0-2.4114 1.7822-4.3842 4.1936-4.3842h.1906c2.4113 0 4.0028 1.9728 4.0028 4.3842v6.7802c2.3854.2126 4.7707.5842 6.8103 1.0802l.4498-2.2126c-1.6818-.3643-3.4399-.6514-5.2586-.8533v-1.3924c.7778.0858 1.5443.187 2.2987.3033l.342-2.4592c-.8645-.1399-1.7451-.2598-2.6407-.3592v-1.3925c2.236.2468 4.3806.6219 6.404 1.1099l.3876-2.7879c-2.1265-.5632-4.4038-.9935-6.7916-1.2702v-1.3366c1.2953.1492 2.5581.3433 3.7821.5792l.2735-1.9672-4.0496-.54.3644-5.5281-.0609-.0066-.207-.0211-.2088-.0207-.2091-.0199-.2094-.0194-.2095-.0186-.2107-.018-.2105-.0173-.2111-.0167-.2111-.0157-.2122-.0153-.2129-.0144-.2129-.014-.2128-.0129-.2145-.0126-.2144-.0116-.2042-.0107v5.4473h-6.4573v-5.4472l-.2036.0106-.2145.0116-.2142.0126-.2133.0129-.2127.014-.2129.0144-.2128.0153-.2112.0156-.2102.0167-.2107.0173-.2107.0181-.2098.0185-.2091.0194-.2091.0199-.2087.0208z" fill="#dededd"/><path d="m89.8214 11.9369-2.2244.2966-.7716-5.2822-.1527.0342-.2317.0534-.2315.0544-.2306.0553-.2294.056-.228.0569-.2273.0576-.226.0587-.2244.0592-.2235.0604-.2228.0611-.2214.062-.22.0627-.2195.064-.2183.0642-.217.0655-.2156.0657-.214.0669-.0834.0263.6724 3.5228c.5165-.1757 1.0434-.3432 1.5812-.5027l.2464 1.3299c-.5355.1563-1.0609.3208-1.5756.4932l.4859 2.5456c1.8386-.6219 3.8223-1.1392 5.9184-1.5344z" fill="#dededd"/><path d="m87.0934 15.9079c-.9128.2377-1.7983.5-2.6529.7846l.5119 2.6813c.8887-.2657 1.8065-.5089 2.7495-.7276z" fill="#dededd"/><path d="m90.6904 19.4454c-1.9193.325-3.7549.7477-5.4846 1.2563l.4533 2.3749c1.7083-.4796 3.5161-.8767 5.4024-1.1799z" fill="#dededd"/><path d="m88.4118 23.7928c-.8532.1855-1.687.391-2.4987.615l.4471 2.3422c.7346-.2677 1.5337-.5142 2.3879-.7359z" fill="#dededd"/><path d="m111.535 14.2324c1.4915.3369 2.918.7368 4.2664 1.1931l.4857-2.5447c-.395-.1324-.7964-.2601-1.2038-.3831l.2689-1.3203c.4017.1235.7974.2514 1.1868.3839l.6729-3.5255-.0828-.0263-.2145-.0669-.2157-.0659-.2168-.0653-.2177-.0642-.2195-.0638-.2203-.0626-.2216-.0622-.2227-.0611-.2238-.0604-.2243-.0593-.2262-.0585-.2271-.0578-.2283-.057-.2288-.056-.2306-.0552-.2314-.0543-.232-.0535-.1532-.0342-.7715 5.2822-.4779-.0637z" fill="#dededd"/><path d="m114.128 19.1121c.3097.0853.6164.1736.9195.2642l.5124-2.684c-.3023-.1005-.6085-.1986-.9185-.2935z" fill="#dededd"/><path d="m110.043 22.0882c1.4894.2733 2.9252.6056 4.297.9909l.4535-2.3757c-1.368-.4025-2.802-.7512-4.2917-1.0403z" fill="#dededd"/><path d="m112.526 26.383c.3915.1174.7638.24 1.1134.3673l.4468-2.341c-.3266-.0902-.6571-.1776-.9908-.2617z" fill="#dededd"/><g stroke-width=".0762"><path d="m0 0h75v17.2h-75z" fill="#fff" stroke="#1f1a17"/><path d="m125 0h75v17.2h-75z" fill="#fff" stroke="#1f1a17"/><path d="m0 19.1999h75v17.2001h-75z" fill="#da251d" stroke="#1f1a17"/><path d="m125 19.1999h75v17.2001h-75z" fill="#da251d" stroke="#1f1a17"/><path d="m0 55.6h75v16.2h-75z" fill="#da251d" stroke="#1f1a17"/><path d="m125 55.6h75v16.2h-75z" fill="#da251d" stroke="#1f1a17"/><path d="m0 92h75v16.2h-75z" fill="#da251d" stroke="#1f1a17"/><path d="m125 92h75v16.2h-75z" fill="#da251d" stroke="#1f1a17"/><path d="m0 38.4h75v15.2h-75z" fill="#fff" stroke="#1f1a17"/><path d="m125 38.4h75v15.2h-75z" fill="#fff" stroke="#1f1a17"/><path d="m0 73.8h75v16.2h-75z" fill="#fff" stroke="#1f1a17"/><path d="m125 73.8h75v16.2h-75z" fill="#fff" stroke="#1f1a17"/><path d="m0 110.2h75v17.2h-75z" fill="#fff" stroke="#1f1a17"/><path d="m125 110.2h75v17.2h-75z" fill="#fff" stroke="#1f1a17"/><path d="m0 0h200v127.4h-200z" fill="none" stroke="#dededd"/></g></svg>