<svg enable-background="new -13.156 -11.003 1467.305 1629" height="1629" viewBox="-13.156 -11.003 1467.305 1629" width="1467.305" xmlns="http://www.w3.org/2000/svg"><path d="m720.014 1602.997c-.19 0-.496-.338-.679-.75-.184-.412-2.727-2.213-5.65-4s-5.497-3.25-5.719-3.25-3.904-2.245-8.184-4.989c-4.279-2.745-8.324-5.445-8.989-6-.664-.556-1.451-1.011-1.748-1.011-.298 0-8.754-5.54-18.792-12.31-10.038-6.771-22.077-14.976-26.752-18.232s-12.325-8.749-17-12.205-11.586-8.64-15.357-11.519-9.438-7.26-12.591-9.734-7.21-5.622-9.016-6.993c-1.805-1.372-6.96-5.422-11.457-9-4.496-3.579-10.841-8.757-14.099-11.507s-7.061-5.968-8.452-7.149c-1.391-1.183-8.153-6.979-15.028-12.882s-15.858-13.711-19.963-17.351-13.967-12.693-21.916-20.118c-7.948-7.425-24.614-23.667-37.036-36.093s-28.435-28.879-35.585-36.563c-7.149-7.684-16.375-17.742-20.5-22.352s-9.116-10.206-11.092-12.437c-1.975-2.231-4.675-5.367-6-6.968-1.324-1.602-5.783-6.801-9.908-11.554-4.125-4.754-9.075-10.621-11-13.04-1.925-2.418-4.661-5.769-6.08-7.446s-7.963-9.799-14.542-18.049-17.389-22.2-24.021-31-16.725-22.525-22.427-30.5c-5.702-7.976-18.481-26.712-28.398-41.638s-19.82-30.001-22.009-33.5c-2.188-3.499-7.528-12.213-11.869-19.362-4.34-7.15-8.669-14.351-9.618-16-.95-1.65-4.345-7.5-7.544-13-3.198-5.5-9.136-15.973-13.193-23.272-4.058-7.299-9.839-17.874-12.847-23.5-3.008-5.625-10.767-20.803-17.242-33.728-6.477-12.925-14.089-28.45-16.918-34.5s-6.691-14.375-8.584-18.5c-1.894-4.125-5.107-11.325-7.143-16s-4.994-11.425-6.574-15c-1.581-3.575-4.526-10.55-6.545-15.5-2.02-4.95-6.368-15.75-9.664-24s-8.256-21.075-11.021-28.5-6.563-17.775-8.439-23c-1.875-5.226-6.59-18.95-10.477-30.5s-7.876-23.7-8.865-27-4.114-13.65-6.944-23c-2.83-9.351-7.54-25.775-10.467-36.5-2.927-10.726-5.672-20.851-6.101-22.5-.429-1.65-.883-3.45-1.009-4-.127-.55-1.444-5.726-2.927-11.5-1.483-5.775-2.898-11.543-3.146-12.818-.247-1.274-1.578-6.899-2.959-12.5-1.381-5.6-3.845-16.481-5.476-24.182-1.632-7.7-3.837-18.275-4.901-23.5-1.063-5.226-3.293-16.7-4.954-25.5s-3.505-18.925-4.098-22.5-1.548-9.2-2.121-12.5c-.574-3.3-1.204-7.125-1.401-8.5-.196-1.375-1.093-7.226-1.991-13-.898-5.775-2.033-13.2-2.521-16.5-.489-3.3-1.131-7.575-1.427-9.5-.295-1.925-1.244-9.351-2.108-16.5-.864-7.15-1.981-16.15-2.482-20-.501-3.851-1.596-13.488-2.433-21.419-.836-7.931-1.749-16.705-2.027-19.5-.279-2.795-.956-10.031-1.506-16.081-.549-6.051-1.65-20.676-2.447-32.5-.798-11.825-1.703-25.101-2.012-29.5-.309-4.4-1.014-19.926-1.566-34.5-.553-14.575-1.286-38.538-1.631-53.25l-.625-26.75 23.901.013 23.9.013 19-1.104c10.45-.607 33.4-2.219 51-3.582 17.601-1.363 35.15-2.851 39-3.306 3.851-.455 15.101-1.797 25-2.981 9.9-1.185 20.25-2.527 23-2.982 2.75-.456 10.176-1.566 16.5-2.468 6.325-.901 13.525-2.058 16-2.569 2.476-.512 8.775-1.675 14-2.585 5.226-.909 17.375-3.214 27-5.122 9.625-1.907 26.275-5.512 37-8.011 10.726-2.499 20.851-4.912 22.5-5.363 1.65-.451 5.925-1.56 9.5-2.463s7.175-1.819 8-2.035c.825-.217 6.45-1.794 12.5-3.505s12.351-3.487 14-3.948c1.65-.46 6.15-1.811 10-3.001 3.851-1.191 8.351-2.525 10-2.966 1.65-.44 10.498-3.289 19.662-6.332 9.164-3.042 25.589-8.774 36.5-12.737 10.911-3.964 20.288-7.543 20.838-7.955s2.8-1.323 5-2.024 6.334-2.335 9.187-3.631c2.852-1.295 5.464-2.354 5.805-2.354.34 0 2.507-.854 4.813-1.896 2.308-1.043 7.12-3.12 10.695-4.615s8.3-3.53 10.5-4.521 10.976-5.022 19.5-8.958c8.525-3.935 24.5-11.792 35.5-17.459s27.425-14.565 36.5-19.774 21.129-12.352 26.786-15.873 11.058-6.862 12-7.423c.943-.562 3.562-2.214 5.819-3.672 2.259-1.458 9.684-6.575 16.5-11.372 6.817-4.797 15.77-11.245 19.895-14.329s8.4-6.356 9.5-7.272c1.101-.916 3.955-3.278 6.345-5.25s4.711-3.584 5.159-3.584 4.118 2.729 8.155 6.063c4.038 3.335 8.016 6.602 8.841 7.259s7.575 5.501 15 10.765 17.128 12.011 21.562 14.992 8.934 5.954 10 6.604 7.339 4.532 13.938 8.627c6.601 4.094 18.525 11.15 26.5 15.682 7.976 4.531 23.05 12.655 33.5 18.055 10.45 5.398 26.425 13.251 35.5 17.449s18.3 8.452 20.5 9.453c2.2 1.002 6.925 3.044 10.5 4.538s8.876 3.796 11.78 5.115c2.903 1.319 5.851 2.398 6.55 2.398.698 0 1.697.395 2.22.876.523.482 3.65 1.852 6.95 3.044 3.3 1.191 7.351 2.768 9 3.503 1.65.734 8.851 3.468 16 6.073 7.15 2.605 16.375 5.954 20.5 7.442 4.125 1.487 14.7 5.018 23.5 7.845s20.5 6.508 26 8.181 14.05 4.211 19 5.641 10.351 2.959 12 3.399c1.65.44 9.3 2.397 17 4.35s19.625 4.903 26.5 6.557 20.105 4.604 29.401 6.556c9.295 1.951 22.12 4.497 28.5 5.657 6.379 1.161 13.624 2.459 16.099 2.886 2.476.426 10.575 1.71 18 2.853s16.425 2.555 20 3.139 14.15 1.965 23.5 3.068c9.351 1.104 20.601 2.431 25 2.949 4.4.519 12.726 1.386 18.5 1.927 5.775.54 14.101 1.223 18.5 1.516 4.4.293 14.525.979 22.5 1.527 7.976.547 22.15 1.455 31.5 2.017l17 1.022 24.395-.013 24.394-.014-.6 25.25c-.33 13.887-1.071 38.524-1.648 54.75-.577 16.225-1.482 34.899-2.012 41.5-.529 6.6-1.243 17.399-1.585 24-.342 6.6-.802 13.125-1.021 14.5s-.867 8.574-1.438 16c-.571 7.425-1.229 14.85-1.462 16.5-.232 1.649-.898 8.175-1.479 14.5s-1.521 15.1-2.091 19.5c-.568 4.399-1.471 11.375-2.004 15.5s-1.872 14.475-2.976 23c-1.104 8.524-2.442 17.975-2.977 21-.533 3.024-1.474 9.1-2.089 13.5-.614 4.399-1.302 8.899-1.527 10-.226 1.1-.829 4.7-1.343 8-.513 3.3-1.605 9.825-2.428 14.5s-2.195 12.212-3.052 16.75c-.856 4.537-2.209 11.737-3.007 16-.797 4.263-2.87 14.5-4.605 22.75s-3.799 17.925-4.585 21.5-1.811 8.075-2.275 10-1.782 7.55-2.927 12.5-4.521 18.45-7.502 30-6.627 25.5-8.1 31c-1.474 5.5-3.313 12.024-4.087 14.5-.774 2.475-3.713 12.149-6.53 21.5-2.817 9.35-5.573 18.575-6.123 20.5s-4.143 12.95-7.983 24.5-7.353 21.899-7.804 23c-.451 1.1-2.253 6.05-4.003 11s-4.003 11.25-5.005 14c-1.003 2.75-4.614 12.2-8.025 21s-7.982 20.5-10.158 26c-2.175 5.5-6.471 15.85-9.547 23s-8.275 19.075-11.556 26.5c-3.279 7.425-7.763 17.325-9.962 22s-9.547 19.75-16.327 33.5c-6.781 13.75-14.97 29.95-18.197 36s-7.938 14.825-10.468 19.5-6.363 11.65-8.521 15.5c-2.156 3.85-6.532 11.5-9.725 17s-10.841 18.325-16.997 28.5-14.083 23-17.614 28.5c-3.532 5.5-11.979 18.325-18.772 28.5s-16.919 24.951-22.501 32.836c-5.583 7.885-17.3 23.859-26.038 35.5s-17.509 23.189-19.489 25.664c-1.979 2.475-5.855 7.226-8.611 10.557-2.757 3.331-6.587 8.032-8.512 10.447s-8.213 10.04-13.974 16.943c-5.762 6.904-11.387 13.647-12.5 14.986-1.114 1.338-4.276 4.974-7.026 8.079-2.75 3.104-8.6 9.651-13 14.548-4.399 4.896-14.3 15.621-22 23.832-7.699 8.211-22.584 23.519-33.076 34.019-10.493 10.499-26.018 25.623-34.5 33.61-8.483 7.986-19.725 18.336-24.981 23-5.256 4.663-12.646 11.179-16.423 14.479s-7.351 6.46-7.942 7.021c-.592.563-6.505 5.512-13.139 11-6.635 5.488-14.037 11.554-16.451 13.479-2.413 1.925-5.761 4.661-7.438 6.081-1.678 1.42-6.199 5.012-10.05 7.982-3.85 2.97-15.111 11.482-25.026 18.918s-20.94 15.527-24.5 17.981c-3.561 2.455-7.068 5.043-7.795 5.75-.727.708-1.707 1.287-2.179 1.287-.471 0-1.451.579-2.179 1.286-.727.708-8.851 6.333-18.054 12.5-9.203 6.168-17.153 11.214-17.667 11.214s-1.084.345-1.267.767c-.184.421-3.483 2.694-7.334 5.051-3.85 2.357-7.888 4.824-8.974 5.484-1.086.659-4.605 2.886-7.821 4.948-3.216 2.06-6.003 3.748-6.193 3.748z" fill="#fff" stroke="#fff" stroke-miterlimit="10" stroke-width="30"/><path d="m720.014 1602.997c-.19 0-.496-.338-.679-.75-.184-.412-2.727-2.213-5.65-4s-5.497-3.25-5.719-3.25-3.904-2.245-8.184-4.989c-4.279-2.745-8.324-5.445-8.989-6-.664-.556-1.451-1.011-1.748-1.011-.298 0-8.754-5.54-18.792-12.31-10.038-6.771-22.077-14.976-26.752-18.232s-12.325-8.749-17-12.205-11.586-8.64-15.357-11.519-9.438-7.26-12.591-9.734-7.21-5.622-9.016-6.993c-1.805-1.372-6.96-5.422-11.457-9-4.496-3.579-10.841-8.757-14.099-11.507s-7.061-5.968-8.452-7.149c-1.391-1.183-8.153-6.979-15.028-12.882s-15.858-13.711-19.963-17.351-13.967-12.693-21.916-20.118c-7.948-7.425-24.614-23.667-37.036-36.093s-28.435-28.879-35.585-36.563c-7.149-7.684-16.375-17.742-20.5-22.352s-9.116-10.206-11.092-12.437c-1.975-2.231-4.675-5.367-6-6.968-1.324-1.602-5.783-6.801-9.908-11.554-4.125-4.754-9.075-10.621-11-13.04-1.925-2.418-4.661-5.769-6.08-7.446s-7.963-9.799-14.542-18.049-17.389-22.2-24.021-31-16.725-22.525-22.427-30.5c-5.702-7.976-18.481-26.712-28.398-41.638s-19.82-30.001-22.009-33.5c-2.188-3.499-7.528-12.213-11.869-19.362-4.34-7.15-8.669-14.351-9.618-16-.95-1.65-4.345-7.5-7.544-13-3.198-5.5-9.136-15.973-13.193-23.272-4.058-7.299-9.839-17.874-12.847-23.5-3.008-5.625-10.767-20.803-17.242-33.728-6.477-12.925-14.089-28.45-16.918-34.5s-6.691-14.375-8.584-18.5c-1.894-4.125-5.107-11.325-7.143-16s-4.994-11.425-6.574-15c-1.581-3.575-4.526-10.55-6.545-15.5-2.02-4.95-6.368-15.75-9.664-24s-8.256-21.075-11.021-28.5-6.563-17.775-8.439-23c-1.875-5.226-6.59-18.95-10.477-30.5s-7.876-23.7-8.865-27-4.114-13.65-6.944-23c-2.83-9.351-7.54-25.775-10.467-36.5-2.927-10.726-5.672-20.851-6.101-22.5-.429-1.65-.883-3.45-1.009-4-.127-.55-1.444-5.726-2.927-11.5-1.483-5.775-2.898-11.543-3.146-12.818-.247-1.274-1.578-6.899-2.959-12.5-1.381-5.6-3.845-16.481-5.476-24.182-1.632-7.7-3.837-18.275-4.901-23.5-1.063-5.226-3.293-16.7-4.954-25.5s-3.505-18.925-4.098-22.5-1.548-9.2-2.121-12.5c-.574-3.3-1.204-7.125-1.401-8.5-.196-1.375-1.093-7.226-1.991-13-.898-5.775-2.033-13.2-2.521-16.5-.489-3.3-1.131-7.575-1.427-9.5-.295-1.925-1.244-9.351-2.108-16.5-.864-7.15-1.981-16.15-2.482-20-.501-3.851-1.596-13.488-2.433-21.419-.836-7.931-1.749-16.705-2.027-19.5-.279-2.795-.956-10.031-1.506-16.081-.549-6.051-1.65-20.676-2.447-32.5-.798-11.825-1.703-25.101-2.012-29.5-.309-4.4-1.014-19.926-1.566-34.5-.553-14.575-1.286-38.538-1.631-53.25l-.625-26.75 23.901.013 23.9.013 19-1.104c10.45-.607 33.4-2.219 51-3.582 17.601-1.363 35.15-2.851 39-3.306 3.851-.455 15.101-1.797 25-2.981 9.9-1.185 20.25-2.527 23-2.982 2.75-.456 10.176-1.566 16.5-2.468 6.325-.901 13.525-2.058 16-2.569 2.476-.512 8.775-1.675 14-2.585 5.226-.909 17.375-3.214 27-5.122 9.625-1.907 26.275-5.512 37-8.011 10.726-2.499 20.851-4.912 22.5-5.363 1.65-.451 5.925-1.56 9.5-2.463s7.175-1.819 8-2.035c.825-.217 6.45-1.794 12.5-3.505s12.351-3.487 14-3.948c1.65-.46 6.15-1.811 10-3.001 3.851-1.191 8.351-2.525 10-2.966 1.65-.44 10.498-3.289 19.662-6.332 9.164-3.042 25.589-8.774 36.5-12.737 10.911-3.964 20.288-7.543 20.838-7.955s2.8-1.323 5-2.024 6.334-2.335 9.187-3.631c2.852-1.295 5.464-2.354 5.805-2.354.34 0 2.507-.854 4.813-1.896 2.308-1.043 7.12-3.12 10.695-4.615s8.3-3.53 10.5-4.521 10.976-5.022 19.5-8.958c8.525-3.935 24.5-11.792 35.5-17.459s27.425-14.565 36.5-19.774 21.129-12.352 26.786-15.873 11.058-6.862 12-7.423c.943-.562 3.562-2.214 5.819-3.672 2.259-1.458 9.684-6.575 16.5-11.372 6.817-4.797 15.77-11.245 19.895-14.329s8.4-6.356 9.5-7.272c1.101-.916 3.955-3.278 6.345-5.25s4.711-3.584 5.159-3.584 4.118 2.729 8.155 6.063c4.038 3.335 8.016 6.602 8.841 7.259s7.575 5.501 15 10.765 17.128 12.011 21.562 14.992 8.934 5.954 10 6.604 7.339 4.532 13.938 8.627c6.601 4.094 18.525 11.15 26.5 15.682 7.976 4.531 23.05 12.655 33.5 18.055 10.45 5.398 26.425 13.251 35.5 17.449s18.3 8.452 20.5 9.453c2.2 1.002 6.925 3.044 10.5 4.538s8.876 3.796 11.78 5.115c2.903 1.319 5.851 2.398 6.55 2.398.698 0 1.697.395 2.22.876.523.482 3.65 1.852 6.95 3.044 3.3 1.191 7.351 2.768 9 3.503 1.65.734 8.851 3.468 16 6.073 7.15 2.605 16.375 5.954 20.5 7.442 4.125 1.487 14.7 5.018 23.5 7.845s20.5 6.508 26 8.181 14.05 4.211 19 5.641 10.351 2.959 12 3.399c1.65.44 9.3 2.397 17 4.35s19.625 4.903 26.5 6.557 20.105 4.604 29.401 6.556c9.295 1.951 22.12 4.497 28.5 5.657 6.379 1.161 13.624 2.459 16.099 2.886 2.476.426 10.575 1.71 18 2.853s16.425 2.555 20 3.139 14.15 1.965 23.5 3.068c9.351 1.104 20.601 2.431 25 2.949 4.4.519 12.726 1.386 18.5 1.927 5.775.54 14.101 1.223 18.5 1.516 4.4.293 14.525.979 22.5 1.527 7.976.547 22.15 1.455 31.5 2.017l17 1.022 24.395-.013 24.394-.014-.6 25.25c-.33 13.887-1.071 38.524-1.648 54.75-.577 16.225-1.482 34.899-2.012 41.5-.529 6.6-1.243 17.399-1.585 24-.342 6.6-.802 13.125-1.021 14.5s-.867 8.574-1.438 16c-.571 7.425-1.229 14.85-1.462 16.5-.232 1.649-.898 8.175-1.479 14.5s-1.521 15.1-2.091 19.5c-.568 4.399-1.471 11.375-2.004 15.5s-1.872 14.475-2.976 23c-1.104 8.524-2.442 17.975-2.977 21-.533 3.024-1.474 9.1-2.089 13.5-.614 4.399-1.302 8.899-1.527 10-.226 1.1-.829 4.7-1.343 8-.513 3.3-1.605 9.825-2.428 14.5s-2.195 12.212-3.052 16.75c-.856 4.537-2.209 11.737-3.007 16-.797 4.263-2.87 14.5-4.605 22.75s-3.799 17.925-4.585 21.5-1.811 8.075-2.275 10-1.782 7.55-2.927 12.5-4.521 18.45-7.502 30-6.627 25.5-8.1 31c-1.474 5.5-3.313 12.024-4.087 14.5-.774 2.475-3.713 12.149-6.53 21.5-2.817 9.35-5.573 18.575-6.123 20.5s-4.143 12.95-7.983 24.5-7.353 21.899-7.804 23c-.451 1.1-2.253 6.05-4.003 11s-4.003 11.25-5.005 14c-1.003 2.75-4.614 12.2-8.025 21s-7.982 20.5-10.158 26c-2.175 5.5-6.471 15.85-9.547 23s-8.275 19.075-11.556 26.5c-3.279 7.425-7.763 17.325-9.962 22s-9.547 19.75-16.327 33.5c-6.781 13.75-14.97 29.95-18.197 36s-7.938 14.825-10.468 19.5-6.363 11.65-8.521 15.5c-2.156 3.85-6.532 11.5-9.725 17s-10.841 18.325-16.997 28.5-14.083 23-17.614 28.5c-3.532 5.5-11.979 18.325-18.772 28.5s-16.919 24.951-22.501 32.836c-5.583 7.885-17.3 23.859-26.038 35.5s-17.509 23.189-19.489 25.664c-1.979 2.475-5.855 7.226-8.611 10.557-2.757 3.331-6.587 8.032-8.512 10.447s-8.213 10.04-13.974 16.943c-5.762 6.904-11.387 13.647-12.5 14.986-1.114 1.338-4.276 4.974-7.026 8.079-2.75 3.104-8.6 9.651-13 14.548-4.399 4.896-14.3 15.621-22 23.832-7.699 8.211-22.584 23.519-33.076 34.019-10.493 10.499-26.018 25.623-34.5 33.61-8.483 7.986-19.725 18.336-24.981 23-5.256 4.663-12.646 11.179-16.423 14.479s-7.351 6.46-7.942 7.021c-.592.563-6.505 5.512-13.139 11-6.635 5.488-14.037 11.554-16.451 13.479-2.413 1.925-5.761 4.661-7.438 6.081-1.678 1.42-6.199 5.012-10.05 7.982-3.85 2.97-15.111 11.482-25.026 18.918s-20.94 15.527-24.5 17.981c-3.561 2.455-7.068 5.043-7.795 5.75-.727.708-1.707 1.287-2.179 1.287-.471 0-1.451.579-2.179 1.286-.727.708-8.851 6.333-18.054 12.5-9.203 6.168-17.153 11.214-17.667 11.214s-1.084.345-1.267.767c-.184.421-3.483 2.694-7.334 5.051-3.85 2.357-7.888 4.824-8.974 5.484-1.086.659-4.605 2.886-7.821 4.948-3.216 2.06-6.003 3.748-6.193 3.748zm.49-120c.376 0 4.017-2.314 8.091-5.144 4.073-2.829 11.906-8.338 17.406-12.242s16.525-12.028 24.5-18.054c7.976-6.025 19-14.552 24.5-18.947 5.5-4.396 16.525-13.417 24.5-20.048 7.976-6.63 16.075-13.452 18-15.16s8-7.102 13.5-11.984c5.5-4.884 12.68-11.363 15.954-14.4 3.275-3.036 10.7-9.989 16.5-15.451 5.801-5.462 19.715-19.187 30.92-30.5s28.152-29.119 37.659-39.569 23.445-26.2 30.975-35c7.528-8.8 19.638-23.425 26.91-32.5s18.187-23.025 24.254-31 16.365-21.925 22.883-31 20.014-28.875 29.991-44 22.65-34.95 28.162-44.056c5.513-9.106 13.662-22.889 18.11-30.629 4.448-7.739 12.148-21.523 17.111-30.632s14.914-28.338 22.114-42.733 16.9-34.51 21.556-44.697c4.655-10.188 12.11-27.125 16.565-37.639 4.455-10.513 11.367-27.439 15.358-37.614 3.992-10.175 10.272-26.825 13.957-37 3.684-10.175 9.315-26.375 12.514-36s7.642-23.35 9.873-30.5c2.232-7.15 6.948-23.125 10.48-35.5 3.531-12.375 8.695-31.5 11.476-42.5 2.779-11 6.43-25.898 8.11-33.108 1.681-7.209 4.422-19.584 6.091-27.5 1.669-7.915 4.176-20.241 5.569-27.392 1.395-7.15 3.172-16.375 3.949-20.5s2.781-15.717 4.453-25.76 4.588-29.168 6.479-42.5 4.573-34.365 5.959-46.74c1.385-12.375 2.988-27.45 3.563-33.5s1.482-16.625 2.02-23.5 1.662-22.593 2.501-34.928l1.525-22.428-1.271-.807-1.271-.808-5.211-.015c-2.866-.009-9.616-.447-15-.975s-15.189-1.449-21.789-2.047c-6.601-.599-15.825-1.514-20.5-2.033-4.675-.521-15.925-1.866-25-2.991s-19.65-2.493-23.5-3.041c-3.851-.548-9.7-1.417-13-1.933-3.3-.515-11.851-1.885-19-3.044-7.15-1.159-17.726-2.998-23.5-4.086-5.775-1.088-18.375-3.547-28-5.463s-20.2-4.115-23.5-4.886-10.05-2.355-15-3.521-12.825-3.03-17.5-4.143-11.425-2.837-15-3.83c-3.575-.994-11.9-3.241-18.5-4.994-6.601-1.752-16.5-4.534-22-6.184-5.5-1.648-19.226-5.935-30.5-9.524-11.275-3.591-27.476-8.999-36-12.019-8.525-3.02-22.476-8.169-31-11.444-8.525-3.275-19.101-7.461-23.5-9.3-4.4-1.839-12.05-5.036-17-7.104s-12.757-5.491-17.35-7.607c-4.592-2.116-8.487-3.848-8.657-3.848s-4.737-2.069-10.15-4.599c-5.414-2.53-17.731-8.543-27.373-13.362s-20.666-10.465-24.5-12.547c-3.833-2.081-11.92-6.494-17.97-9.807s-17.525-9.942-25.5-14.733-19.225-11.688-25-15.325c-5.775-3.639-10.764-6.618-11.086-6.621-.323-.003-5.272 2.979-11 6.625-5.728 3.647-16.939 10.547-24.914 15.332s-19.675 11.54-26 15.012c-6.325 3.471-13.765 7.556-16.532 9.077-2.768 1.521-11.992 6.245-20.5 10.499-8.507 4.253-21.936 10.819-29.841 14.591s-14.512 6.858-14.681 6.858-3.15 1.3-6.627 2.889c-3.476 1.59-9.47 4.249-13.319 5.91s-11.05 4.683-16 6.714c-4.95 2.032-12.375 5.007-16.5 6.612-4.125 1.604-8.4 3.313-9.5 3.799-1.1.484-4.7 1.869-8 3.076s-6.9 2.57-8 3.03c-1.1.459-5.883 2.225-10.629 3.923-4.745 1.698-19.37 6.649-32.5 11.001-13.129 4.353-33.321 10.621-44.871 13.929-11.55 3.309-25.275 7.162-30.5 8.563s-15.8 4.077-23.5 5.945-19.056 4.576-25.234 6.018-21.254 4.613-33.5 7.049-30.365 5.786-40.266 7.446c-9.899 1.661-27.45 4.365-39 6.01-11.55 1.646-26.625 3.688-33.5 4.539s-24.649 2.669-39.5 4.041c-14.85 1.371-29.25 2.503-32 2.515l-5 .022-1.288.817-1.287.817 1.036 15.917c.569 8.755 1.51 22.218 2.09 29.918.579 7.7 1.722 21.425 2.538 30.5s2.383 24.6 3.48 34.499c1.099 9.899 3.574 29.475 5.501 43.5 1.928 14.025 5.305 36.301 7.505 49.501s4.698 27.601 5.553 32c.854 4.4 2.892 14.75 4.529 23s4.969 23.886 7.403 34.745 6.426 27.734 8.87 37.5c2.443 9.766 6.225 24.28 8.402 32.255 2.179 7.976 6.025 21.53 8.55 30.124 2.524 8.593 6.187 20.743 8.138 27 1.952 6.257 6.73 20.826 10.618 32.376 3.889 11.55 11.038 31.575 15.889 44.5s10.376 27.325 12.278 32c1.903 4.675 5.805 14.125 8.67 21s6.571 15.65 8.236 19.5c1.664 3.851 6.625 14.875 11.022 24.5 4.398 9.625 14.226 29.968 21.839 45.205s15.511 30.763 17.551 34.5c2.039 3.737 8.07 14.67 13.402 24.295 5.333 9.625 15.961 27.851 23.618 40.5 7.657 12.65 17.957 29.223 22.889 36.828s14.093 21.331 20.358 30.5c6.266 9.17 16.56 23.801 22.875 32.514s16.901 22.888 23.524 31.5 17.908 22.858 25.077 31.658 13.294 16.225 13.612 16.5 4.165 4.761 8.549 9.969 14.462 16.683 22.396 25.5c7.933 8.817 18.508 20.304 23.5 25.524 4.991 5.222 17.625 18.046 28.075 28.5s25.525 25.049 33.5 32.434 16.524 15.273 19 17.529c2.475 2.256 10.8 9.498 18.5 16.094 7.7 6.597 19.171 16.258 25.49 21.472 6.319 5.213 12.17 10.014 13 10.667s3.984 3.152 7.01 5.553c3.025 2.401 10.225 7.953 16 12.338 5.775 4.386 16.125 12.061 23 17.055 6.875 4.995 16.509 11.846 21.409 15.225 4.904 3.378 9.22 6.142 9.597 6.142zm0-125c-.432 0-6.795-4.815-14.142-10.7-7.348-5.885-17.634-14.295-22.858-18.688-5.226-4.393-13.095-11.166-17.488-15.05-4.394-3.885-9.759-8.638-11.923-10.563-2.163-1.925-6.892-6.2-10.507-9.5s-12.606-11.85-19.98-19-20.439-20.2-29.033-29c-8.595-8.8-19.23-19.825-23.635-24.5s-11.399-12.325-15.544-17-11.786-13.45-16.98-19.5-13.521-15.95-18.504-22-13.774-17.075-19.538-24.5-13.193-17.1-16.512-21.5-10.688-14.525-16.377-22.5-15.337-21.925-21.438-31-13.953-20.983-17.449-26.464c-3.495-5.479-9.375-14.93-13.065-21s-9.859-16.437-13.71-23.036c-3.85-6.6-8.808-15.15-11.018-19s-7.682-13.776-12.158-22.058c-4.478-8.281-8.14-15.369-8.14-15.75v-.692h350 350v.662c0 .364-4.805 9.478-10.676 20.25-5.871 10.773-15.166 27.237-20.656 36.588-5.49 9.35-14.48 24.2-19.978 33s-13.353 21.112-17.457 27.36-11.076 16.598-15.494 23c-4.419 6.401-12.766 18.164-18.55 26.14-5.783 7.975-15.717 21.25-22.073 29.5-6.357 8.25-16.705 21.3-22.995 29-6.291 7.7-15.304 18.467-20.029 23.927s-12.814 14.686-17.975 20.5c-5.16 5.815-12.32 13.724-15.91 17.573s-12.914 13.525-20.722 21.5c-7.807 7.975-20.673 20.808-28.59 28.518-7.918 7.71-19.121 18.345-24.896 23.633-5.774 5.288-14.565 13.155-19.535 17.482s-11.479 9.893-14.464 12.367-7.02 5.886-8.965 7.579c-1.944 1.693-9.547 7.881-16.895 13.75-7.347 5.87-13.71 10.672-14.141 10.672zm-244.5-466.17c-4.4-.071-9.351-.303-11-.515-1.65-.212-6.15-1.075-10-1.919-3.851-.844-9.903-2.694-13.45-4.114-3.548-1.419-8.948-4.049-12-5.844l-5.55-3.264-6.276-5.695-6.276-5.695-4.435-6.214-4.435-6.214-4.038-8.428-4.038-8.429-2.477-9.78-2.477-9.781-1.137-11.219-1.137-11.22.675-12.695.675-12.695 2.328-10.305 2.329-10.305 3.141-8.145 3.141-8.145 4.097-6.355c2.254-3.495 5.845-8.449 7.98-11.009l3.884-4.654 7.237-5.534 7.238-5.534 7.201-3.552 7.201-3.552 7.799-2.235 7.799-2.235 18-.024 18-.025 5 1.374c2.75.756 6.992 2.015 9.427 2.798 2.436.784 7.61 3.02 11.5 4.969l7.073 3.544 4.5 3.616c2.475 1.989 6.666 5.886 9.313 8.658l4.814 5.041 4.017 6.694 4.017 6.694 2.508 7.21 2.507 7.21.552 5.346.552 5.346h-19.69-19.691l-1.512-3.75c-.832-2.063-2.666-6.162-4.077-9.11l-2.564-5.361-3.08-3.508c-1.694-1.929-4.895-4.653-7.113-6.054l-4.033-2.546-6.009-1.828-6.009-1.827-8.847-.009-8.846-.008-5.322 1.547-5.321 1.548-5.902 3.814-5.901 3.814-3.513 4.388c-1.933 2.414-4.503 6.041-5.713 8.06-1.211 2.02-3.257 6.776-4.547 10.57-1.291 3.795-2.946 10.243-3.678 14.329l-1.332 7.43.08 13.5.08 13.5 1.695 7.867c.932 4.327 2.804 10.853 4.159 14.5l2.465 6.633 4.946 6.724 4.945 6.724 5.404 3.588 5.404 3.588 4.87 1.47 4.871 1.469 7 .572 7 .573 6.771-1.594 6.771-1.594 4.024-2.054c2.213-1.129 5.802-3.659 7.975-5.622l3.951-3.569 3.396-5.638 3.396-5.637 1.79-5.75 1.79-5.75h19.817 19.817v1.948c0 1.072-1.172 5.685-2.604 10.25l-2.604 8.302-4.397 8.558-4.398 8.559-5.372 6.513-5.372 6.512-6.376 4.831-6.376 4.831-7.203 3.357c-3.962 1.847-9.813 4.02-13 4.83-3.188.81-8.947 1.922-12.797 2.471l-7 1zm243.5.011c-4.676-.056-11.426-.45-15-.876-3.575-.426-9.65-1.499-13.5-2.385-3.851-.885-9.476-2.587-12.5-3.783-3.025-1.195-7.075-3.032-9-4.083-1.926-1.051-5.832-3.697-8.682-5.88l-5.182-3.969-4.015-5.204-4.015-5.203-3.022-6.478-3.022-6.478-1.531-7.315c-.843-4.023-1.531-8.636-1.531-10.25v-2.934h19.5 19.5v1.818c0 1 .684 4.121 1.519 6.935l1.52 5.116 3.811 4.821 3.811 4.82 4.42 2.118c2.432 1.165 5.674 2.623 7.205 3.239l2.784 1.12 9.216 1.051 9.216 1.052 9-1.158 9-1.158 5-1.867 5-1.866 3.626-2.991 3.626-2.991 2.124-4.519 2.124-4.519v-4.543-4.543l-1.352-3.233-1.351-3.233-3.534-3.104-3.534-3.103-6.865-2.547c-3.775-1.401-12.489-3.911-19.364-5.577-6.875-1.667-16.55-3.956-21.5-5.087-4.95-1.132-10.8-2.552-13-3.156s-6.7-2.006-10-3.116c-3.3-1.109-8.82-3.364-12.268-5.011l-6.268-2.994-5.008-4.503-5.009-4.503-2.47-4.214c-1.358-2.318-3.389-6.879-4.512-10.135l-2.043-5.92-.563-9-.563-9 1.581-7.5 1.582-7.5 4.003-8.121 4.004-8.12 6.508-6.089 6.508-6.088 7.343-3.531 7.343-3.531 7.915-2.058 7.915-2.058 14.5-.586 14.5-.587 8.199 1.106 8.199 1.105 8.202 2.711 8.201 2.711 7.099 4.642 7.1 4.642 5.313 5.824 5.312 5.825 3.309 6.601c1.819 3.631 4.006 9.076 4.858 12.102.854 3.025 1.649 7.3 1.77 9.5s.155 4.563.079 5.25l-.14 1.25h-18.9-18.9l-1.146-4.75-1.146-4.75-2.704-4.947-2.704-4.947-4.637-3.314-4.636-3.314-7.773-1.988-7.775-1.989h-7.291-7.29l-5.3 1.125c-2.914.619-7.183 2.005-9.484 3.08l-4.185 1.954-3.156 3.016-3.156 3.017-1.408 3.372-1.409 3.372.021 4.782.022 4.782 1.861 4.099 1.861 4.099 2.925 2.083c1.607 1.145 4.698 2.758 6.866 3.584s17.68 4.89 34.469 9.03l30.526 7.526 6.974 2.609c3.836 1.436 8.942 3.755 11.348 5.154 2.406 1.4 6.157 4.155 8.335 6.123s5.299 5.523 6.936 7.902l2.975 4.323 2.092 5.733 2.092 5.733.066 12.5.066 12.5-2.176 7-2.177 7-3.606 6c-1.983 3.3-5.04 7.508-6.792 9.351s-5.806 5.145-9.008 7.337l-5.823 3.986-6.762 2.788c-3.719 1.533-9.691 3.522-13.273 4.421-3.581.898-9.843 2.065-13.915 2.595l-7.404.961zm241-4.838h-74v-98-98h71.421 71.421l.329 7.549c.181 4.152.186 11.802.01 17l-.318 9.451h-51.932-51.931v21 21h48 48v17 17h-48-48v25.384 25.383l2.25.604 2.25.603 52.25.014 52.25.015v17 17z" fill="#dd341d"/><path d="m1072.11 642.251c-59.513-.119-267.618-.334-462.456-.476-194.838-.143-354.25-.444-354.25-.671s-2.217-9.338-4.928-20.248c-2.71-10.911-6.096-25.237-7.523-31.838-1.429-6.6-3.042-13.8-3.585-16-.544-2.199-2.568-12.1-4.499-22-1.931-9.899-5.27-28.35-7.419-41-2.149-12.649-4.826-29.3-5.948-37-1.121-7.699-3.169-23.225-4.549-34.5-1.381-11.274-2.734-22.406-3.009-24.736l-.498-4.236 2.229-.449c1.226-.247 4.479-.701 7.229-1.009 2.75-.307 8.038-1.011 11.75-1.563 3.713-.553 9.563-1.436 13-1.962 3.438-.525 9.176-1.445 12.75-2.044 3.575-.598 9.2-1.514 12.5-2.034s8.25-1.381 11-1.912 7.588-1.436 10.75-2.01 8.338-1.539 11.5-2.145c3.162-.604 7.775-1.484 10.25-1.954 2.475-.469 6.525-1.274 9-1.79 2.475-.515 6.975-1.48 10-2.146s7.3-1.617 9.5-2.115 6.025-1.311 8.5-1.805c2.475-.495 7.425-1.644 11-2.552 3.575-.909 10.325-2.553 15-3.653s9.4-2.226 10.5-2.501c1.1-.276 5.263-1.375 9.25-2.442s10.737-2.871 15-4.01c4.263-1.138 9.1-2.448 10.75-2.911 1.65-.464 7.05-2.017 12-3.45 4.95-1.435 13.5-3.998 19-5.697 5.5-1.7 12.925-4 16.5-5.112s7.4-2.375 8.5-2.808c1.1-.432 2.9-1.001 4-1.265s4.25-1.268 7-2.23 5.9-2.116 7-2.563c1.1-.445 5.375-1.928 9.5-3.292 4.125-1.365 10.875-3.666 15-5.113s8.625-3.109 10-3.694c1.375-.584 3.4-1.408 4.5-1.831s4.7-1.765 8-2.981 7.907-3.061 10.239-4.098c2.331-1.036 4.7-1.885 5.264-1.885s1.806-.397 2.761-.883 2.861-1.341 4.236-1.898c1.375-.559 4.075-1.7 6-2.539 1.925-.838 5.975-2.494 9-3.68s6.85-2.743 8.5-3.462c1.65-.718 5.25-2.317 8-3.555 2.75-1.236 6.8-3.034 9-3.994s6.7-2.973 10-4.474c3.3-1.5 8.925-4.085 12.5-5.744 3.575-1.658 15.5-7.469 26.5-12.911s22.925-11.503 26.5-13.466 9.2-5.05 12.5-6.859 9.075-4.92 12.833-6.912l6.833-3.623h1.815 1.815l5.352 2.846c2.943 1.564 7.151 3.886 9.352 5.156 2.2 1.271 7.825 4.335 12.5 6.809 4.675 2.473 17.726 9.107 29 14.743 11.275 5.636 24.101 11.915 28.5 13.953 4.4 2.039 10.25 4.731 13 5.983 2.75 1.251 7.25 3.281 10 4.511 2.75 1.229 7.025 3.134 9.5 4.233 2.476 1.099 5.851 2.584 7.5 3.3 1.65.716 5.025 2.081 7.5 3.034 2.476.953 4.928 2.115 5.45 2.582.522.468 1.54.85 2.261.85.722 0 3.443.945 6.05 2.1 2.606 1.155 5.64 2.471 6.739 2.924 1.101.452 7.851 3.049 15 5.77 7.15 2.721 13.9 5.29 15 5.711 1.101.42 5.601 2.067 10 3.661 4.4 1.594 11.375 4.027 15.5 5.408s8.4 2.912 9.5 3.402c1.101.491 3.575 1.368 5.5 1.95s5.75 1.779 8.5 2.66c2.75.882 9.275 2.951 14.5 4.6 5.226 1.647 12.2 3.813 15.5 4.812s11.496 3.434 18.214 5.412 14.817 4.302 18 5.162 17.036 4.401 30.786 7.869 29.05 7.24 34 8.383 15.75 3.464 24 5.158 17.025 3.509 19.5 4.033c2.476.523 11.925 2.281 21 3.906 9.075 1.626 22.125 3.861 29 4.969s19.25 2.959 27.5 4.114c8.25 1.154 15.984 2.303 17.187 2.551l2.187.452-.409 3.246c-.226 1.786-.903 7.973-1.507 13.747-.603 5.775-1.994 17.025-3.09 25-1.097 7.976-3.102 21.926-4.456 31-1.354 9.075-4.267 26.625-6.472 39s-4.847 26.775-5.869 32c-1.022 5.226-3.675 17.841-5.894 28.035-2.22 10.194-6.329 27.695-9.134 38.891-2.804 11.194-5.33 20.73-5.614 21.189l-.516.835z" fill="#00923f"/></svg>