<svg enable-background="new 0 0 193 193" height="193" viewBox="0 0 193 193" width="193" xmlns="http://www.w3.org/2000/svg"><path clip-rule="evenodd" d="m0 0h192.7558594v192.7558594h-192.7558594z" fill="#fff" fill-rule="evenodd" opacity="0"/><path clip-rule="evenodd" d="m43.512207 10.2602539-13.9682617 20.7001953v14.6899414c24.3330078-2.1474609 24.3330078 29.6640625 0 27.2900391 3.0498047 47.4794922 27.6435547 82.6142578 67.1796875 109.2041016 39.9199219-26.5898438 64.0410156-61.7246094 66.5146484-109.2041016-23.7568359 2.3740234-23.7568359-29.4379883 0-27.2900391v-14.6899414l-13.3037109-20.7001953z" fill="#fe1108" fill-rule="evenodd"/><path d="m44.4433594 12.0170898-13.1430664 19.4770508v12.2954102c8.0102539-.1689453 13.4057617 3.2705078 16.1518555 7.9072266 1.4072266 2.3759766 2.1069336 5.0576172 2.0981445 7.7275391-.0087891 2.6811523-.7260742 5.3583984-2.1513672 7.7143555-2.7451172 4.5366211-8.074707 7.8681641-15.9575195 7.6723633 1.7539063 22.6049805 8.5 42.3374023 19.4921875 59.6245117 11.1503906 17.5390625 26.6743164 32.5898438 45.7929688 45.5957031 19.3046875-13.0097656 34.8066406-28.0585938 45.8144531-45.5878906 10.8535156-17.2832031 17.3476563-37.0175781 18.8242188-59.6313477-7.6855469.1894531-12.8867188-3.1230469-15.578125-7.640625-1.40625-2.3613281-2.1142578-5.0507813-2.1230469-7.7446289-.0087891-2.6791992.6806641-5.3706055 2.0683594-7.753418 2.6875-4.6118164 7.9462891-8.0288086 15.7490234-7.871582v-12.3325196l-12.5009766-19.4521484h-104.5371094zm-16.3540039 17.9619141 13.9682617-20.699707.5229492-.7753906h.9316406 106.4223633.9550781l.5205078.8095703 13.3027344 20.699707.28125.4379883v.5092773 14.6899414 1.9155273l-1.9140625-.1728516c-7.2832031-.6582031-12.0429688 2.1376953-14.3144531 6.0366211-1.0664063 1.8295898-1.5957031 3.9121094-1.5888672 5.9970703.0078125 2.0698242.5507813 4.1352539 1.6298828 5.9472656 2.2851563 3.8359375 7.0263672 6.5463867 14.2597656 5.8237305l2.0341797-.203125-.1064453 2.0351563c-1.2519531 24.0424805-7.9960938 44.9760742-19.4892578 63.2788086-11.4667969 18.2636719-27.6503906 33.8671875-47.8139648 47.296875l-.9702148.6464844-.9711914-.6523438c-19.9716797-13.4316406-36.1757813-29.03125-47.7797852-47.2832031-11.6313477-18.2929687-18.6376953-39.2226562-20.1821289-63.2661132l-.1318359-2.0527344 2.0532227.2001953c7.4648438.7280273 12.3466797-2.0068359 14.6845703-5.8706055 1.0888672-1.7998047 1.6367188-3.8486328 1.6435547-5.902832.0068359-2.0644531-.527832-4.1269531-1.6035156-5.9438477-2.3227539-3.9208984-7.2216797-6.7368164-14.7387695-6.0737305l-1.9072266.1689453v-1.925293-14.6899413-.5336914z"/><path d="m29.7563477 73.2773438h133.3725586v3.1245117h-133.3725586z"/><path d="m29.7563477 43.8398438h133.8461914v3.1245117h-133.8461914z"/><g clip-rule="evenodd" fill-rule="evenodd"><path d="m68.1655273 9.9272461 22.6660156.0830078-19.355957 35.590332-22.6728516-.0991211c.0000001 0 19.3281251-35.5107421 19.362793-35.5742187z"/><path d="m55.6181641 74.7583008-22.6655273-.1357422-3.7666016.4819336c1.0883789 12.0844727 3.7319336 23.5439453 7.4389648 34.5771484z"/><path d="m115.5029297 9.7319336 23.4150391.3364258-19.3251954 35.5073242-23.46875-.2109375z"/><path d="m80.1381836 74.7578125 23.6655273-.1738281-42.2509766 77.6269531-13.8168945-17.8730469s32.4111329-59.5957031 32.4023438-59.5800781z"/><path d="m156.8896484 20.6787109 6.1298829 9.4140625.4951171 14.9174805h-19.868164z"/><path d="m127.6464844 74.4067383 23.9638672-.1230469-57.9814453 106.612793-16.7597657-13.1992188z"/><path d="m69.0117188 114.2480469h55.3349609v22.3144531h-55.3349609z" fill="#fe1108"/></g><path d="m69.0117188 113.1699219h55.3349609 1.0771484l.0009766 1.078125v22.3144531l-.0009766 1.078125h-1.0771484-55.3349609-1.0771484v-1.078125-22.3144531-1.078125zm54.2578125 2.15625h-53.1806641v20.1601563h53.1806641z"/><path clip-rule="evenodd" d="m69.6577148 62.7827148v-2.5146484l9.0825195-.015625v7.9609375c-1.394043 1.109375-2.8344727 1.9462891-4.3134766 2.5073242-1.4833984.5605469-3.0092773.8408203-4.5664063.8408203-2.1064453 0-4.0214844-.4516602-5.7421875-1.3510742-1.7207031-.9033203-3.0214844-2.2070313-3.8969727-3.9125977-.8798828-1.7050781-1.3198242-3.6162109-1.3198242-5.7226563 0-2.0864258.4360352-4.0371094 1.3081055-5.8427734.8720703-1.8105469 2.1333008-3.1572266 3.7685547-4.0336914 1.6386719-.8754883 3.5307617-1.3154297 5.6640625-1.3154297 1.5493164 0 2.9506836.2529297 4.2041016.7514648 1.2539063.5019531 2.2387695 1.2026367 2.9472656 2.0981445.7124023.8955078 1.2573242 2.0712891 1.6269531 3.515625l-2.5610352.7001953c-.3198242-1.0898438-.7246094-1.949707-1.1992188-2.5732422-.4750977-.6225586-1.1601563-1.125-2.0478516-1.4985352s-1.87207-.5644529-2.9545896-.5644529c-1.2963867 0-2.4213867.1987305-3.3632813.5917969-.9462891.3930664-1.7133789.9145508-2.2929688 1.5571289-.5805664.6420898-1.0356445 1.3510742-1.3549805 2.121582-.5449219 1.3232422-.8173828 2.7680664-.8173828 4.3173828 0 1.9072266.3305664 3.5112305.9848633 4.7958984.6577148 1.2885742 1.6191406 2.246582 2.8769531 2.8691406 1.2573242.6230469 2.5966797.9384766 4.0097656.9384766 1.2260742 0 2.4291992-.237793 3.5966797-.7084961 1.1679688-.4750977 2.0595703-.9814453 2.6630859-1.5185547v-3.9941406zm21.5786133 8.4125977-.0039063-21.4462891h15.5097656v2.5307617h-12.671875v6.5668945h11.8652344v2.519043h-11.8652343v7.2993164h13.1699219v2.5302734h-16.0039063zm27.2109375-6.890625 2.6748047-.2333984c.125 1.0742188.4248047 1.9584961.8837891 2.6435547.4628906.6850586 1.1875 1.2456055 2.1611328 1.6660156.9726563.4243164 2.0742188.6381836 3.2890625.6381836 1.0820313 0 2.0439453-.1630859 2.8691406-.4824219.8251953-.3232422 1.4443359-.7666016 1.8486328-1.3276367.4052734-.5605469.6074219-1.171875.6074219-1.8334961 0-.6738281-.1943359-1.2651367-.5839844-1.7636719-.3886719-.5024414-1.0351563-.9267578-1.9306641-1.2651367-.5761719-.2260742-1.8486328-.5761719-3.8183594-1.0473633s-3.3525391-.918457-4.1425781-1.3388672c-1.0195313-.5375977-1.7871094-1.203125-2.2851563-1.9975586-.5019531-.7939453-.7548828-1.6855469-.7548828-2.6699219 0-1.0825195.3076172-2.0947266.9179688-3.0327148.6152344-.9423828 1.5146484-1.6586914 2.6943359-2.1455078 1.1796875-.4863281 2.4951172-.7314453 3.9355469-.7314453 1.5888672 0 2.9941406.2568359 4.2050781.7666016 1.2138672.5102539 2.1484375 1.265625 2.8027344 2.2583008.6533203.996582 1.0078125 2.1254883 1.0546875 3.3828125l-2.7216797.206543c-.1474609-1.3549805-.6455078-2.3828125-1.4863281-3.0717773-.8408203-.6928711-2.0908203-1.0395508-3.7373047-1.0395508-1.7128906 0-2.9667969.3154297-3.7490234.9423828-.7861328.6269531-1.1796875 1.3857422-1.1796875 2.2734375 0 .7705078.2802734 1.4052734.8330078 1.9033203.5449219.4985352 1.9736328 1.0083008 4.2783203 1.5297852 2.3046875.5219727 3.8935547.9770508 4.75 1.3666992 1.2451172.5761719 2.171875 1.3081055 2.7636719 2.1879883s.8916016 1.8999023.8916016 3.0517578c0 1.137207-.3271484 2.215332-.9775391 3.2236328-.6542969 1.0083008-1.5957031 1.7944336-2.8183594 2.3554688-1.2226563.5605469-2.6044922.8408203-4.1337891.8408203-1.9394531 0-3.5703125-.2841797-4.8779297-.8486328-1.3125-.5644531-2.34375-1.4174805-3.0878906-2.5498047-.7470703-1.137207-1.140625-2.425293-1.1796875-3.8583984h.0039063z" fill="#fff" fill-rule="evenodd"/><path clip-rule="evenodd" d="m81.7124023 132.9746094h-1.8110352v-11.53125c-.4360352.4160156-1.0087891.8320313-1.7148438 1.2480469-.7060547.4140625-1.3427734.7265625-1.9047852.9335938v-1.75c1.0112305-.4765625 1.8969727-1.0546875 2.6513672-1.7285156.7568359-.6757813 1.2944336-1.3339844 1.6103516-1.9707031h1.1665039zm4.90625-3.4082031 1.7392578-.1621094c.144043.8203125.4277344 1.4140625.8422852 1.7792969.4145508.3691406.949707.5546875 1.5996094.5546875.5566406 0 1.0463867-.1289063 1.4633789-.3808594.4174805-.2539063.7626953-.5957031 1.0302734-1.0214844s.4921875-1.0019531.6713867-1.7246094c.1816406-.7226563.2729492-1.4609375.2729492-2.2109375 0-.0800781-.0053711-.203125-.0107422-.3632813-.3583984.5761719-.8535156 1.0429688-1.4794922 1.4023438-.6259766.3574219-1.3081055.5390625-2.0385742.5390625-1.2197266 0-2.2524414-.4433594-3.0952148-1.3261719-.8452148-.8847656-1.2680664-2.0546875-1.2680664-3.4980469 0-1.4941406.4414063-2.6992188 1.3217773-3.609375.8798828-.9121094 1.987793-1.3691406 3.3144531-1.3691406.9580078 0 1.8354492.2578125 2.6269531.7714844.7944336.5175781 1.3989258 1.2558594 1.8115234 2.2070313.4116211.9550781.6176758 2.3417969.6176758 4.1503906 0 1.8828125-.2060547 3.3828125-.612793 4.5-.4091797 1.1152344-1.019043 1.9648438-1.8242188 2.546875-.8081055.5820313-1.7548828.8730469-2.8413086.8730469-1.152832 0-2.097168-.3203125-2.824707-.9570313-.7304688-.6386719-1.171875-1.5410156-1.3188477-2.7011719h.0024416zm7.4101563-6.5058594c0-1.0390625-.2807617-1.8632813-.8320313-2.4726563-.5507813-.609375-1.2197266-.9140625-1.9956055-.9140625-.8022461 0-1.5058594.328125-2.1000977.984375-.5961914.6582031-.8959961 1.5117188-.8959961 2.5546875 0 .9355469.2836914 1.7011719.8481445 2.2871094.5668945.5859375 1.2680664.8789063 2.097168.8789063.8374023 0 1.5273438-.2929688 2.0654297-.8789063.5405273-.5859375.8105469-1.4003906.8105469-2.4375zm9.5717773 9.9140625v-3.5292969h-6.3964844v-1.6582031l6.7285156-9.5507813h1.4765625v9.5507813h1.9902344v1.6582031h-1.9902344v3.5292969zm0-5.1875v-6.6445313l-4.6171875 6.6445313zm12.4697266 5.1875h-1.8115234v-11.53125c-.4365234.4160156-1.0087891.8320313-1.7148438 1.2480469-.7060547.4140625-1.3427734.7265625-1.9052734.9335938v-1.75c1.0117188-.4765625 1.8974609-1.0546875 2.6513672-1.7285156.7578125-.6757813 1.2949219-1.3339844 1.6103516-1.9707031h1.1669922z" fill="#fff" fill-rule="evenodd"/></svg>