<svg height="862pt" viewBox="0 0 1000 862" width="1000pt" xmlns="http://www.w3.org/2000/svg"><g stroke-miterlimit="10" stroke-width=".09375" transform="matrix(1 0 0 -1 0 862)"><path d="m159.699219 800.300781h685.699219c.101562-104.300781 0-208.601562.101562-312.902343.101563-2.097657 2.601563-2.097657 4.101563-2.898438 16.796875-6.300781 30.199218-18.699219 46.097656-26.898437 6.199219-3.601563 13.902344-5 20.800781-3 3.601563 1.398437 7.101563 5.097656 6.199219 9.097656-1 4.199219-2.898438 8.101562-5.597656 11.402344-8.5 10.199218-19.800782 17.898437-26.703125 29.296875-3.898438 6.800781-5.199219 15.5-1.796875 22.800781 4 9.402344 13 15.5 22.199218 19.199219 6.398438 2.902343 13.597657 3.402343 20.199219 5.703125 4.300781 1.398437 6.5 6.097656 11.101563 7 4.5 1.097656 9.199218-1.902344 10.796875-6.101563 1.902343-5.101562 1.703125-10.601562 1.601562-16-.601562-11.699219-7.699219-23.101562-18.601562-27.898437-2.296875-1-4.796875-1.601563-6.898438-2.902344 1.101563-2.5 3.300781-4.199219 5.101563-6.097656 9.296875-9.300782 16.898437-21 19-34.203125 2-12.097657-3.300782-24.597657-12.101563-32.898438-10.101562-10.101562-25.199219-14.199219-39.199219-12.300781 1.398438-9.800781-.300781-19.699219-4-28.800781 3.300782-2.699219 7.800782-1.296875 11.699219-2.199219 4.300781-.398438 8.398438-2.699219 10.800781-6.398438 4.097657-5.699218 4.300782-13 7.300782-19.199218 3.898437 2.898437 8.199218 6.296875 13.398437 6 5-.703125 8.800781-4.5 12.898438-7.203125 4.203125-2.796875 7.703125-6.597657 9.601562-11.296875 5-1.300782 9.5-5 11-10 1.5-4.300782.898438-9 3-13.101563 2.398438-4.699219 2.800781-11.601562-1.800781-15.199219-3.699219-2.902343-8.800781-3.300781-13.097656-5-3.203125-1.300781-6.5 0-9.5 1.199219-8-.800781-16.703125-2.199219-24.203125 1.300781-5.097657 2.5-8.296875 7.398438-11.699219 11.699219-5-2.5-10.898438-3.601562-16.300781-1.699219-6.296875 1.5-10.5 6.898438-16 10.097657-8.699219 5.703125-19.699219 8.402343-30 6.101562-3.097657-.5-6.296875-.5-9.398438-.398437-.101562-21.5.101563-43.101563-.101562-64.601563-.398438-16.5-2.199219-33.300781-8.5-48.699219-4.398438-10.699218-10.097657-20.902343-17.097657-30.101562-28.902343-40.898438-65.800781-76.097656-107.902343-103.097656-57.097657-36.703125-123.898438-58.203125-191.699219-61-11.800781-.203125-23.597656-.203125-35.398438 0-78.101562 3.199218-154.800781 31.398437-216.902343 78.796875-29.199219 22.203125-55.296875 48.5-77.199219 77.902343-6.199219 8.5-12.699219 17-17.300781 26.597657-10.199219 18.402343-13.296875 39.800781-13.597657 60.601562-.199218 21.699219 0 43.300781-.199218 65-4.800782-.601562-9.703125-1.101562-14.5 0-5.800782 1.199219-11.800782 2.5-17.800782 1.699219-4.199218-.800781-6.800781-4.597656-9.902343-7.097656-8-7-19.398438-11.902344-30-8-2.898438-4.300782-5.296875-9.203125-9.5-12.5-4.796875-3.601563-11-5.203125-16.898438-4.5-4.398437.296875-8.699219 1.699218-13 2.199218-3 .398438-5.699219-1.601562-8.601562-.699218-5.398438 1.199218-11 2.5-15.296875 6-3.300782 3.796875-3.203125 10.199218-.300782 14.199218 2.398438 2.898438 1.300782 7 2.199219 10.5 1.5 5.800782 6.300781 10.199219 11.699219 12.5 2.800781 1 2.601562 4.5 4.699219 6.398438 3.601562 3.800781 8.203125 6.5 12.5 9.402344 3.101562 2.199218 7.203125 3 10.800781 1.898437 4.101562-1.5 7.101562-4.800781 9.800781-8.101562 6.300781 6.300781 5.800781 16.800781 12.800781 22.800781 5.300782 4.601562 12.800782 1.902344 19 4.300781 2.097657.800781 4.199219 1.800781 6.097657 3.101563.300781 3.796875-1.699219 7.199218-2.699219 10.699218-2.097656 5.597657-2.097656 11.597657-2.199219 17.5-3.601562-.300781-7.199219-.699218-10.800781-1.101562-14-.398438-28.398438 5.199219-37.898438 15.601562-8.800781 9.300782-11.902343 22.800782-10.199218 35.300782.898437 7.699218 4.097656 15.199218 9.398437 20.898437 4.800781 6 10.800781 10.800781 16.199219 16.300781-6.398438 1.800782-12.800781 4.5-17.699219 9.199219-8.101562 7.398438-14.199219 18.199219-12.800781 29.5.5 6.699219 4.800781 12.199219 8.300781 17.699219 4.898438-2.597656 9.800781-5.097656 14.300781-8.398438 3.5-2.199218 6.898438-4.902343 11.097657-5.601562 10.5-1.699219 21.101562-4.300781 30-10.300781 11.601562-8.199219 13.5-26.5 4.601562-37.5-7.699219-9.796875-18.398437-16.796875-27.300781-25.699219-3.699219-3.699219-6-8.898438-5.300781-14.199219 0-4.101562 3.101562-7.199219 6.203125-9.300781 4.199218-2.699219 9.398437-2.097656 14-1.199219 7.898437 2.199219 15.097656 6.5 22 10.898438 11.699218 8.402343 22.597656 18.800781 37 22.402343.199218 105.097657 0 210.300782.097656 315.5m8-7.601562c-.097656-102.097656-.097656-204.300781-.097656-306.398438 3.5.199219 6.898437.5 10.296875 1.097657-.097657 98.300781 0 196.601562 0 295 216.402343.101562 432.902343 0 649.300781 0 .101562-97.097657-.097656-194.296875.101562-291.398438 3.398438-.5 6.800782-1.398437 10.199219-2.101562.101563 101.203125 0 202.5 0 303.800781-223.199219-.097656-446.5-.097656-669.800781 0m14.699219-14.5c-.097657-96.699219-.097657-193.398438 0-290.097656 6.800781 3.199218 13.402343 7.5 18.203125 13.199218.296875 86 .097656 172 .097656 258h603.699219c0-85.601562 0-171.199218 0-256.902343 5.800781-3.898438 11.300781-8.796875 18.402343-10.398438.300782 40.699219 0 81.300781.097657 122-.097657 54.699219.101562 109.5-.097657 164.199219-213.5 0-427 .101562-640.402343 0m280.300781-36.5c-.097656-21 .101562-41.898438-.097656-62.898438-6.800782 5.800782-15.402344 10.300782-24.601563 10-10.800781.800782-21.5-4.199218-28.601562-12.199218-13.597657-14.300782-15-38-3.898438-54.101563 6.898438-10.300781 18.898438-17.800781 31.5-17.101562 2.101563 1.402343 3.800781 3.300781 5.699219 4.902343 12.902344 11.097657 29 18.5 45.902344 20.699219.199218 36.898438 0 73.800781.097656 110.800781-8.699219-.101562-17.398438-.101562-26-.101562m255.800781-.898438c-.101562-45 0-90 0-135 8.398438 0 16.699219-.101562 25 .097657.101563 44.902343 0 89.902343.101563 134.800781-8.402344 0-16.703125 0-25.101563.101562m42.199219-.101562c-.097656-44.898438-.097656-89.898438 0-134.898438h25v135c-8.398438-.101562-16.699219-.101562-25-.101562m-541.300781-3.097656c.101562-43.800782 0-87.601563 0-131.402344 9 .101562 17.902343 0 26.800781.101562.101562 36.097657 0 72.300782 0 108.398438 5.601562 0 11.199219.101562 16.902344 0 7.296875.101562 14-5.699219 15.5-12.800781 1.898437-6.796875-1.402344-14.5-7.402344-18.296875-4.597656-3.203125-10.5-3.203125-16-3.101563 0-8.800781 0-17.699219 0-26.5 0-2.300781-.300781-4.898437 1.199219-6.800781 8.300781-13.699219 16.902343-27.097656 25.101562-40.898438 10.5-.101562 21-.101562 31.5 0-12 18.300782-24.398437 36.398438-36.5 54.597657 14 3.800781 25.199219 15.800781 27.800781 30 .699219 5 .699219 10.101562.097657 15.101562-2.398438 14.300781-13.5 26.898438-27.699219 30.398438-4.699219 1.601562-9.800781 1.101562-14.699219 1.203125-14.199219 0-28.398437 0-42.601562 0m300.203125-.203125c-.101563-35.796875 0-71.5 0-107.296875 16.699218-3.5 32-12.101563 44.398437-23.703125 5.300781-.5 10.699219-.199219 16 0 13 1.800781 24.699219 10.703125 29.898438 22.703125 3.601562 7.398437 3.101562 16 2.402343 24-1.699218 11.5-10.902343 20-20.902343 25 3 3.296875 5.800781 6.898437 7.601562 11.097656 6.300781 13.199219 2.898438 30.101562-7.699219 40.101562-6.902343 6.097657-16.402343 7.597657-25.300781 8.097657-15.5.101562-30.898437 0-46.398437 0m-203.5-63.398438c-8.5-11.199219-11-26.5-6.902344-39.898437 3.300781-11.402344 11.601562-21.402344 22.300781-26.601563 19.699219-9.5 46.699219-2.699219 57.300781 17.101563-7 3-13.601562 6.796875-20.699218 9.398437-2.203125-2.5-4-5.601562-7.101563-7.101562-6.898437-4.296875-16.601562-2.898438-22.101562 3-3.296875 2.902343-4.398438 7.402343-4.699219 11.601562 18.800781.101563 37.699219.101563 56.5 0 .199219 4.199219.199219 8.300781 0 12.5-.800781 13.199219-8.199219 26.300781-20.300781 32.300781-8.597657 4.898438-18.796875 5.097657-28.296875 4.097657-10.402344-1.796875-19.800782-8-26-16.398438m360.296875 12.601563c0-15.5 0-31.101563 0-46.601563 0-3.101562-.796875-6.300781-2.597657-8.800781-4.800781-7.199219-16.5-8.097656-22.402343-1.800781-2.597657 2.402343-4.097657 6-4 9.601562-.097657 15.800781 0 31.699219-.097657 47.5-8.5.199219-17.101562.101563-25.699218.101563.097656-17.902344 0-35.800782.097656-53.601563.5-11.398437 8.699219-20.898437 18.5-25.898437 14.5-7.300782 32.800781-6.703125 46.601562 2.097656 9.5 5.699219 16 16.5 14.898438 27.800781-.097656 16.5 0 33.101563 0 49.601563-8.5 0-16.898438 0-25.300781 0m-201.699219-65.5c4.699219-4.203125 9.699219-7.902344 14.601562-11.800782 1.5-1.601562 3.699219-.902343 5.699219-.902343 10.699219.5 21.601563.601562 32.300781-.796875 1.898438 3.597656 3.800782 7.398437 4.898438 11.398437-8.5 3.898438-18 5.398438-27.199219 6.199219-10.199219.601562-20.5-1.300781-30.300781-4.097656m-53.699219-57.101563c3.699219 5.300781 7.800781 10.398438 11.300781 15.800781 3.5 7.699219 7.699219 15 11.800782 22.398438-11.300782-10.097656-19.101563-23.699219-23.101563-38.199219m148.898438 36.199219c7.800781-10.097656 14.601562-21.300781 17.601562-33.800781 3.800781-11.398438 3.398438-23.597657 2.800781-35.398438-2.402343-20-11.800781-39-26.199218-53-22.300782-22.5-57-31.398437-87.203125-22.5-32.296875 8.601563-58.796875 37.199219-63.699219 70.300781-.199219-.601562-.398438-1.101562-.597656-1.699218-.101563 2.597656-.203125 5.296875-.601563 7.898437-2 18.601563 1.5 37.898438 10.898438 54.199219 2.402343 4.300781 5.5 8.199219 7.800781 12.601562-3.699219-.800781-7-2.5-10.300781-4.300781-16.898438-8.898437-32.898438-20-46.097657-33.800781-4.199218-4.5-8.902343-8.699219-12.300781-13.898438 1.199219-2 3.199219-3.402343 4.898438-4.902343 9.101562-7.199219 17.800781-14.898438 26.800781-22.199219 9.601562-7.5 16.902344-17.199219 24.402344-26.597656 5.398437-6.703125 10.5-13.601563 15.097656-20.902344 3.300781-5 5.601562-10.597656 6.699219-16.5 1.300781-8 1.800781-16.199219 3.800781-24.097656 2.300781-10.402344 5.5-20.703125 9.101562-30.703125 1.398438-4.199219 5.300782-6.796875 7.898438-10.199219 4.800781-5.699219 7.300781-13.097656 12.601562-18.300781 2.800782-2.796875 6.5-4.296875 9.699219-6.296875 4.300781-2.5 6.101563-8.601563 3.699219-13-1.800781-4.101563-6.300781-5.601563-10.097656-7.203125-.300782-3-.5-6.398438-3-8.5-5.402344-4.796875-13.402344-3.296875-19.902344-2.097657-9.800781 1.398438-18.398438 6.898438-25.800781 13.199219-4.699219-1-8.097657-5.300781-12.898438-6.398437-7.199219-1.5-14.5.398437-21.800781-.5-6.5-1.5-12.398438-4.800782-19-6-5.597656-1.601563-11.800781-2.203125-17.097656.5-4.101563 1.5-6.703125 5.296875-8.300782 9.199218-.800781.097657-1.699218.097657-2.5.199219 1.699219-3.800781 4-7.398437 6.398438-10.898437 15.601562-23 36.402344-42.703125 60.699219-56.300782 21.601562-12.402343 45.800781-19.902343 70.601562-22.402343 12.300781-.597657 24.699219-.699219 37.101563.203125 55 5.5 106.398437 38.699218 134.398437 86.398437.898438 2.199219 0 4.699219-.300781 6.898438-3.800781-3.796875-6.398438-8.898438-11.199219-11.597657-3.898437-2.699218-9.101562-2.699218-13.398437-1.101562-6.300782 2.300781-12.5 4.699219-18.800782 7-7.101562 1.800781-14.5-1.097656-21.699218.199219-4.101563 1-7.203125 4.203125-10.902344 6-3.898438-3.5-7.597656-7.296875-12.199219-10-7.699219-5.398438-17.5-7.796875-26.699219-5.796875-4.101562 1.296875-6.199218 5.398437-7 9.296875-3.699218.402343-7.902343.300781-10.800781 3.101562-3.699219 2.800781-5.300781 8-3.300781 12.300781.902344 2.800782 3.5 4.398438 5.800781 6 4.800781 3.199219 8.699219 7.5 12.398438 11.800782 9.101562 11.296875 12.902343 25.597656 16.601562 39.398437 3.699219 15.199219 7.699219 30.300781 12.800781 45.101563 3.699219 10.097656 8.699219 20 15.898438 28.097656 18 20.699219 41.300781 35.402344 63 51.800781-8.597656 12.398438-19.398438 23.101563-30.898438 32.699219-13.699218 10.800781-28.601562 20.300781-44.902343 26.5m1.402343-14.800781c0-5.597657 3.199219-11.5.398438-16.796875-7.5 5.199218-15.597656 9.699218-24 13.5-5.597656-8.203125-10.699219-16.800782-15-25.703125-1.199219-1.699219-.097656-3.597657.699219-5.199219 4.800781-9.597656 10.101562-18.898438 15.300781-28.199219 5 .601563 9.699219 2.5 14.300781 4.300781.398438-.199218 1.199219-.402343 1.601563-.5-4.402344-7.5-8.902344-15.101562-15-21.402343-5.402344-6-12.203125-10.5-18.203125-15.796875-.5 1.199218-1 2.5-1.398438 3.699218-11.898437-.402343-23.898437-.902343-35.800781-.902343-3.800781-5.296875-7.597656-10.597657-11.398438-15.796875-6 1.398437-12.199218 1.5-18.199218 3-5 1.296875-10 2.898437-15.101563 4.097656-5.898437 8.5-11.398437 17.300781-16.398437 26.402344-4 4.699218-8.402344 9.097656-12.902344 13.398437 3.902344-17.699219 13.902344-34 28-45.398437 25.902344-22.402344 66.101562-25.300782 95.300781-7.601563 13.601563 8 24.699219 20.101563 31.898438 34.101563 8.902343 18.097656 11.5 39.296875 6 58.796875-2.296875 7.703125-4.699219 15.800781-10.097657 22m-127.5-17.199219c-1.5-12.398438-.699218-24.800781.097657-37.199219 5.402343-2.699219 11.703125-3.800781 17.5-5.699219 5.101562-1.199218 10.203125-3.300781 15.402343-3.699218 6.597657 10.699218 13.5 21.199218 19.097657 32.398437-6.097657 10.199219-13.398438 19.699219-21 28.800781-10.398438-4.699218-21-9.199218-31.097657-14.601562m-386.402343-38.800781c4.902343-7 12.402343-13.699219 21.5-13.199219 3.703125-.097656 7.703125.601562 11-1.199219 2.300781-1.199219 2.800781-4.898437.601562-6.5-9.898437-8.300781-20.5-16.199219-28.101562-26.898437-6.398438-10.203125-6.199219-23.601563-1.097657-34.300782 5.597657-11 17.5-18 29.597657-19.199218 8.601562-1.402344 17.101562 1.5 25.5 2.796875 0-6.898438.703125-13.796875 1.203125-20.699219.796875-6.398438 4.398437-12 5.898437-18.199219.601563-2.898437-2-4.898437-4.101562-6.300781-5.597657-3.5-11.796875-6.199219-18.5-6.199219-2.898438-.300781-6.898438.300781-8.5-2.800781-3.097657-5.300781-4.296875-11.398438-7.5-16.699219-3.199219-4.5-8.199219-7.300781-12.898438-10.101562-4.699219-2.5-6-8.597657-10.800781-11.097657-2.398438-1.300781-5.800781-1.101562-7.199219-3.800781-3.199219-5-4.300781-10.898437-5-16.699219 4.300781-.800781 8.601563-1.902343 13-2.402343 5.5-.796875 11.398438 2.101562 14.199219 6.902343 2.601562 3.699219 4.300781 8.699219 8.800781 10.5 4.101563 0 7.898438-2.101562 12-1.601562 4.398438.5 8.5 2.601562 12.101563 5.199219 4.898437 3.300781 8.398437 8.800781 14.199218 10.601562 8.300782 2.398438 16.898438-.101562 25.199219-1.398437 5.800781-1.101563 11.800781.597656 16.800781 3.699218 4.898438 3 10.597657 5.097657 15.199219 8.699219 6.398438 6.101563 9.800781 14.5 13 22.5-2.101562 1.601563-4.199219 3.101563-6.300781 4.699219-4.898438-8.097656-10.5-16.300781-19-20.800781-11-6-24-6.296875-36.199219-6.296875-12.601562-.101563-25.398437-4.203125-34.898437-12.703125-2.101563-1.796875-3.703125-4.398438-6.601563-5.097657.300781 4.800782 4.300781 8.097657 7.5 11.199219 9.898438 8.601563 23.300781 10.800781 36 11.300781 8.601563.097657 17.199219 1.597657 25.199219 4.597657 9.601562 3.601562 16.902344 11.800781 21 21 4.800781 10.703125 4.402344 22.703125 7.5 33.902343 1-.101562 2-.101562 3.101562-.199218-1.300781-8.800782-2.300781-17.703125-1.101562-26.5.699219-4 2.800781-8.300782 7-9.5 9.402344-2.703125 18.902344 1.597656 28.300781 1.199218 10.898438.800782 21.199219-3.699218 32-3.601562 4.199219-.097656 9.300781-.800781 12.199219 2.902344 0 4.398437-2.800781 8.597656-1.597656 13.097656.796875.402344 1.699218.800781 2.5 1.101562 1.199218-3.800781 2.097656-7.699218 4-11.199218 2.699218-4.203125 6.699218-7.402344 10.597656-10.402344 4.800781-3.597656 10.601562-5.800781 14.800781-10.199219 4.101563-4 7.300781-9.601562 6.898438-15.5-1-3.800781-4.5-6-7.796875-7.699219-4.703125-2-9.5-4.300781-14.703125-4-4.796875.300782-8 4.699219-9.898438 8.699219-2.898437 5.300781-5.601562 11.699219-11.601562 14.199219-6.199219 1.402344-12.597657-.398438-18.699219-1.699219-1.898438-.199219-4.199219-2.199219-2.800781-4.300781 3-5.597656 6.101562-11.300781 9.800781-16.5 3.101562-.597656 6.199219 0 9.199219-.5 4.101562-3.398438 5.300781-9.300781 9.5-12.800781 4.703125-4.796875 12.101562-4.898438 18.101562-3 8.398438 2.800781 16.800781 5.300781 24.800781 9.101562 3.398438 1.5 6.800782 3.699219 10.699219 3.699219 4.199219.300781 9.300781-.097656 12.5 3.300781 3.398438 4.398438 6 9.5 8.699219 14.398438 2.199219 4 3.402344 9.203125 1.101562 13.402343-3.199218 5.800782-7.101562 11.199219-9.5 17.398438-.800781 1.800781-1.199218 4-2.699218 5.300781-3.703125 2.101563-8 2-12 1.300781.199218-1.699218.398437-3.300781 1.199218-4.800781 3.5-6.898437 7.097657-13.800781 10.5-20.699219 1.5-2.800781 2.5-6.300781.898438-9.300781-2.300781-4.601562-4.800781-9.5-9.097656-12.601562.597656 6.5 2.898437 13.101562 1.796875 19.601562-3.296875 8.199219-8.296875 15.5-12.597657 23.199219-1.300781 2.300781-2.101562 5-1.101562 7.601562 5.300781 3.300782 12.800781 2 17.402344 6.597657 5.296875 6.902343 8 15.402343 9.796875 23.703125.300781 1.796875 1 3.398437 2.203125 4.796875 1.5-8.5 1.097656-17.699219-3-25.398438-1.203125-2.5-2.902344-4.601562-3.703125-7.101562-.597657-1.5.703125-2.398438 1.703125-3.199219 5.898437-1.398438 11.597656 1.199219 17.199218 2.800781 6.199219.300781 12.300782 2.101563 18.5 2.300781-3.5-4.5-5.800781-9.800781-7.402343-15.199218-4.597657-5.601563-12.5-10.101563-11.796875-18.300782 2.5 0 5.097656.199219 7.699218.300782-1.902343-3.300782-4.601562-6.203125-5.800781-9.902344-.398437-3.398438.5-6.800781 1.199219-10.199219.699219-3.199219 4-5.300781 7.300781-5.300781 8-.597656 15.5 3.101562 22.898438 5.601562 6.800781 2.5 14.101562 1.699219 21.101562 1 7.800781 0 13.101563 6.199219 19.101563 10.097657 4.796875-1.296875 7.398437-5.898438 11.199218-8.597657 8.199219-6.601562 19.300782-9.5 29.699219-7.601562.300781 3.300781-3.300781 4.300781-5.601562 5.601562-6.898438 3.699219-14.597657 8.398438-16.898438 16.398438-2.300781 7.601562-7.199219 14-10.898437 21 3.597656-1.5 6.796875-3.800781 9.398437-6.699219 4.898438-5.601562 7-13.300781 13-17.898437 5.898438-5.203125 13.898438-8 21.601563-6.300782.097656.800782.097656 2.300782.097656 3.097657-3.398438 1.703125-7.097656 3.203125-10 5.800781-6.800781 5.902344-10.097656 14.601562-15.398438 21.601562-2.402343 3.199219-6.300781 5.300782-7.699218 9.199219-5.203125 14.699219-10.101563 29.601563-12.300782 45.199219-1.101562 5.601562-.902343 11.5-2.800781 17-2 7.101562-6.5 13.101562-10.800781 19.101562-5.699219 7.800782-11.898438 15.398438-18 22.800782-3.300781 4.097656-6.800781 8-10.800781 11.296875-7.5 6.101562-14.898438 12.5-22.398438 18.601562-7.398437 6-14.398437 12.800781-23.300781 16.601563-9.300781 4.199218-20.300781 4.5-29.699219.5-8.300781-4.203125-15.5-10.402344-24.398437-13.5-10.300782-4.300782-21.601563-6-31.203125-11.902344-5.898438-3.597656-10.199219-9.199219-15.597657-13.398438-2.699218-2.199218-6.199218-2-9.300781-2-6.398437 0-12.699219-1.601562-18.5-4.402343-8.199219-4-14-11.398438-21.601562-16.296875-5.898438-4.203125-13-6.203125-20.097657-6.800782-6.5-.601562-13.199218-1.199218-19.300781-3.800781-10.398437-4.601562-18.800781-12.5-28-19-6-3.800781-12.199219-7.5-18.800781-10.199219-7.300781-2.800781-15.597656-4.601562-23.097656-1.5-7.5 2.800782-13.203125 10.097657-13.800782 18.199219-.402343 7.199219 2.5 14.5 7.5 19.699219 7.097657 7.300781 15.398438 13.199219 22.597657 20.402344 2.902343 3 6 6.296875 7.300781 10.398437 2.902344 7.800781-.5 17.699219-8.097656 21.5-7.703125 4.5-16.703125 5.898438-25.300782 7.699219-7.699218 1.601562-13.402343 7.300781-20 11-4.300781-7.199219-3.199218-16.597656 1.597657-23.300781m614.800781 21.203125c-5.300781-2.703125-9.398438-7.101563-14.097656-10.703125-22.703125-18.597657-48.703125-33.5-68.300782-55.699219-6.101562-6.699219-10.601562-14.800781-13.800781-23.199219-6.898437-18.699219-11.101562-38.199219-16.398437-57.398437-4.800782-16.402344-12.601563-33-26.601563-43.5-2.398437-2.101563-6.5-3.5-5.699219-7.300782 4.898438-.699218 10.300782-1.300781 14.800782 1.097657 5.597656 2.5 9 7.800781 12.398437 12.703125 3.398438 5.199218 7.199219 10.097656 11 15 .699219 0 2 0 2.601563.097656-1.5-4.097656-3.902344-7.800781-6.402344-11.398438-2.699219-3.800781-3.800781-8.601562-6.5-12.402343-3.199219-4.5-7.5-8-11.5-11.699219-1.097656-.898438-1.300781-2.300781-1.800781-3.597656 5.203125-2 10.800781-.300782 15.703125 1.898437 7.097656 3.398438 13 8.898438 18.398437 14.5 1.101563 1.199219 2.800781 2.5 4.398438 1.5 4.101562-2.601562 7.101562-6.898437 11.902343-8.199219 6.5-.402343 13.097657 1.199219 19.597657.199219 8-1.898437 15.402343-5.898437 23.300781-8.101562 4.402344-.699219 7.800781 3.203125 9.902344 6.601562 2.796875 3.898438.398437 8.800781.199218 13.199219 2.699219 0 5.398438.101562 8.097657.199219.203125 2.402343.300781 4.902343-1 7-2.796875 5.5-6.898438 10.300781-9.097657 16.101562-3.5 8.898438-14.101562 13.699219-15.199218 23.699219 7.796875-4.199219 13.597656-12.199219 22.796875-13.597656 7.101562-.300782 14.300781-1.101563 21.300781.097656-1.097656 4.199219-3.097656 8-4.597656 11.902344-4.101563 11-6.902344 23.296875-3.800782 34.898437 1 .101563 1.898438.101563 2.898438.101563 1.601562-7.800782 1.101562-16 3.300781-23.800782 2.199219-8.101562 6.398438-16.5 14-20.800781 2.5-1.699219 5.800781-2.800781 7.199219-5.699219.902344-2.300781.902344-5-.398438-7.101562-4.199218-6.800781-9.300781-13-13-20-2.402343-4.300781-1.402343-9.398438-1.800781-14-3.199219 5-5.199219 11.699219-2.699219 17.402344 3.5 7.199218 9.097657 13.097656 12.5 20.398437-3.101562 1.5-6.199218 3.800781-9.699218 3.5-3.5-3-5.101563-7.398437-7.402344-11.300781-2.5-5-5.699219-9.597656-7.898438-14.800781-1.699218-5 .597657-10.097657 1.898438-14.898438 1.199219-3.898437 1.902344-8.101562 4.402344-11.5 2.097656-2.800781 6-1.101562 8.898437-1.398437 4.898438.699218 6.800781-5.101563 10.898438-6.402344 7.902343-2.800781 16.203125-4.097656 24-7.097656 4.101562-1.601563 8.703125-2.300782 13.101562-1.800782 3.199219.300782 5.699219 2.699219 7.699219 5 2.800781 3.199219 3.101562 7.699219 4.800781 11.5 2.699219 1.398438 6.398438.800782 8.601563 3.097657 3.296875 3.203125 5.597656 7.203125 7.796875 11.203125 1 1.597656.800781 3.597656.902343 5.398437-5.199218 1.101563-10.601562.699219-15.800781.800781-2.898437 0-6.101562 0-8.199219-2.199218-4.101562-3.601563-4.5-9.800782-8.101562-13.800782-2.699219-3.199218-7.398438-2.101562-11-1.402343-6.097656 1.601562-13.398438 3.800781-15.800781 10.300781-1.296875 3.300781 1.800781 5.902344 3.703125 8.199219 4 4 7.5 9.203125 13.199218 11.101562 5.800782 2.101563 11 6 14.300782 11.300781 2.097656 3.300782 2.398437 7.800782 6 9.898438.296875-.398438.898437-1.199219 1.199218-1.699219.5-4.398437-1.699218-8.398437-3-12.5 12.398438-1.101562 24.5 1.699219 36.699219 3.601563 9.300781 1.5 18.699219.199218 28-.5 7.300781-.203125 16.199219 1.398437 20.101563 8.398437 3.597656 7.699219 2.199218 16.5 1.199218 24.699219-.300781 2.902344-1.699218 6.199219.597657 8.699219 5.5-11.097657 5.800781-24 8.902343-35.898438 3.398438-9.398437 8.398438-19.101562 17.097657-24.699219 7.601562-5.101562 17.300781-6.300781 26.101562-4.5 16.199219 1.800782 34-5.699218 42.300781-20-5.699218 2.597657-10 7.398438-15.601562 10.398438-8.5 5.300781-18.898438 6.800781-28.699219 5.5-7.601562-1.199219-15.898437-1.800781-22.898437 1.902344-11.5 5.296875-18.800782 16.296875-24.101563 27.296875-2.898437.300781-4.300781-3-3.398437-5.398438 1.398437-6.601562 2.199218-13.699219 5.597656-19.699219 2.800781-5.402343 8.101562-8.800781 13.199219-12 3.5-2.199218 7.402343-3.800781 11.601562-4 5-.402343 10 1.199219 15 1.097657 12.300781.101562 24.199219-5.097657 33.601563-12.796875 3.199218-2.703125 7-5.402344 11.398437-5.203125 4.601563-.199219 8.300781 4.300781 13 3.101562 5.601563-3.5 7.398438-11.398437 14.101563-13.699219 5.796875-1.199218 11.796875-.300781 17.597656-.199218-.800781 6.199218-2 12.5-5 18-2.398438 1-5.097656 1.199218-7.199219 2.898437-4.699219 3.699219-7.5 9.101563-11.800781 13.199219-2.597656 2.699219-6 4.699219-7.800781 8.101562-2.597657 6.300782-3.097657 13.398438-6.898438 19.199219-2.601562 3.398438-7.300781 2.300781-11 2.800781-4.601562.300782-9.898437 1.5-12.199219 6-1.699218 4.199219.800782 8.398438 2 12.398438 1.898438 5.902344 2.300782 12.300781 1.597657 18.5-.898438 4-2.398438 7.902344-2.097657 12.101562 4.300782.097657 8.398438-1.300781 12.699219-1.5 7.101563-.402343 14.5-.402343 21 2.699219 9.101563 4.199219 16.699219 12.300781 19.300781 22.101563 1.097657 6.398437.699219 13.199218-1.902343 19.199218-5.398438 13.300782-16.097657 23.300782-26.796875 32.398438-1.703125 1.199219-2.300782 3.300781-2.402344 5.300781 8.402344 3.101563 18.199219 3.398438 25.101562 9.699219 8.398438 7.5 9.5 20.199219 6.300782 30.402344-3.601563-2.300782-6.601563-5.601563-10.703125-7-6.5-2.300782-13.398438-2.902344-19.796875-5.5-6.902344-2.703125-13.703125-6.800782-17.203125-13.5-3.199219-5.800782-1.796875-13 1.902343-18.203125 7.800782-11.097657 19.597657-18.597657 27.199219-29.898438 2.800781-4.199219 4.699219-9 5.300781-14 .199219-8.398437-6.902343-15.601562-14.800781-17.300781-7.101562-.898438-14.5-.5-21.101562 2.601562-18.296875 8.5-33.097657 23.300782-52.398438 29.699219-10 4.300781-21.300781 4-31 8.898438-9.300781 5-16.601562 13.203125-26.800781 16.402343-6.097656 2.097657-13.097656 1.398438-18.5 5.300782-6.5 4.597656-12.699219 9.699218-19.898438 13.097656-6.902343 3.300781-14.300781 5.601562-21.800781 7.199219-3.5.902343-7.5 1.101562-10.398437 3.601562-3.101563 2.699219-5.203125 6.199219-8.402344 8.699219-6.199219 5-13.199219 9.699219-21.199219 11-4.300781.5-8.898437.5-12.800781-1.597656m-326.800781-163c.902343-2.101563 2-4.101563 3.402343-5.902344 3.199219 3.300781 6.398438 6.5 9.199219 10.101562-4.101562-1.601562-8.398437-2.800781-12.601562-4.199218m307 .796875c1.203125-2.796875 2.800781-5.398438 5.203125-7.296875 1.296875 2.199218 2.5 4.5 3.597656 6.796875-2.898438.300781-5.898438.5-8.800781.5m152-11.699219c0-33.898438.101562-67.800781-.097657-101.699219-.5-14.300781-1.300781-29.199219-8.199218-42.101562-3-6.296875-7.101563-12.097657-11.203125-17.796875-38.097657-52.800782-91.097657-95-151.398438-119.601563-34.199219-14.101562-70.699219-22.199219-107.5-24.898437-11.699219-.300782-23.300781-1.703125-35-.5-28.101562.699218-56 5.398437-83.101562 12.898437-74.199219 20.898438-140.597657 67.699219-186 130-6.097657 8.199219-12.097657 16.699219-15.699219 26.398438-3.699219 10.101562-5 20.902343-5 31.601562-.199219 35-.097656 70 0 105-3.300781-6.398437-5.898438-13.199219-10.398438-18.800781-2.300781-3.300781-5.601562-5.699219-8.402343-8.5-.199219-19.898438 0-39.800781-.097657-59.699219 0-17.199219-.199218-34.699219 4.800782-51.300781 3.398437-10.300781 8.5-20 14.796875-28.800781 12-17.097657 25.203125-33.296875 40-48 56.902343-58.296875 133.800781-96.699219 214.601562-106.699219 35.398438-4.5 71.300781-3.800781 106.5 2 35.699219 6 70.5 17.5 102.898438 33.699219 50.902343 25.402343 95.601562 62.902343 129.703125 108.402343 7.597656 10.097657 15.097656 20.398438 19.898437 32.199219 6.101563 14.300781 7 30.101563 7.300781 45.5.199219 22.699219 0 45.398438.097657 68.101563-.097657 1.296875.402343 3-.898438 4-2.898437 2.796875-5.800781 5.796875-7.601562 9.398437-3.597657 6.199219-4.5 13.398438-6.097657 20.199219-1.300781-.300781-2.601562-.597656-3.902343-1m-530.296875-9.398438c-.402344-.601562-1-1.601562-1.300782-2.199218 1.800782-2.5 4.398438-4.601563 5.800782-7.5 1.5-3.101563 3-6.300782 4.796875-9.203125 5.703125-.796875 11.101562 1.800781 15.203125 5.402343-1.800782 3.597657-3.203125 7.398438-4.5 11.097657-.5 1.902343-1.902344 4-4.101563 3.402343-5.300781-.800781-10.601562-.699218-15.898437-1m432.296875-2.601562c-2.5-3.597656-4.597657-8.699219-2.398438-12.800781 3.101563-2.898438 7.800781-3.597657 11.898438-3.5 2-.097657 3.5 1.703125 4.101562 3.5 1.5 4.101562 3.101563 8.5 2.800781 13l-.800781.5c-5 .101562-10 0-15-.199219zm-645.898438-3.199219c-4.300781-2.5-8.800781-5.199219-12.199219-9-3.402343-5.300781 4.597657-12 9.5-8.300781 4.300782 3.300781 7.898438 7.800781 9.898438 12.800781-.398438 2.898438-4.199219 5.898438-7.199219 4.5m876.898438-.699219c-2.296875-1.199218-5.199219-3.800781-3.398438-6.5 2.699219-4.300781 5.800781-8.800781 10.300781-11.5 4.199219-1.699218 8.398438 2.097657 10.199219 5.699219 1 2.199219-1.101562 4-2.601562 5.398438-3.296875 2.601562-6.699219 4.902343-10.199219 7.203125-1.300781.898437-3.097656.5-4.300781-.300782m-769.796875-19.601562c0-17.097656 0-34.097656 0-51.199219 0-20.800781-.101563-42.300781 7.296875-62.199219 6.300781-16.902343 17.5-31.300781 28.402343-45.5 24.800782-31.402343 54.398438-59 87.699219-81.300781 67.101563-45.300781 149.101563-68.199219 230-64 64.5 2.898438 128.101563 23 182.699219 57.300781 43.699219 27.199219 81.800781 63.5 111.300781 105.699219 8 11.101563 14.5 23.398438 18.101563 36.699219 3 10.5 3.597656 21.402344 4.296875 32.300781.300781 23.101563 0 46.199219.203125 69.398438-3.601563 1.703125-7.101563 3.703125-10.402344 5.902343 0-23.101562 0-46.199218 0-69.300781-.597656-14.101562-1-28.601562-6-41.898437-5.097656-14.703125-14.5-27.203125-23.699219-39.601563-28-36.601562-62.601562-68.101562-101.898437-92.101562-55-33.796875-119-52.898438-183.601563-54.296875-6.601562-.601563-13.398437-.5-20 .097656-73.199219 1.601562-145.398437 26.402344-204.800781 69.101562-29.597656 21.199219-56 46.800782-78.199219 75.597657-10.199219 13.402343-20.5 27.203125-25.800781 43.402343-2.800781 8.300782-3.800781 17-4.597656 25.699219-1.402344 28.601563-.5 57.199219-.800782 85.898438-3.402343-1.898438-6.800781-3.796875-10.199218-5.699219m-130.601563.800781c-3.398437-2.601562-3.101562-7.199219-3.5-10.898437-.101562-3.601563-2.601562-6.402344-4.199219-9.5 3.800782-2.101563 8.097657-4.101563 12.597657-4.101563 2.402343 5.5 3.402343 11.398438 5.402343 17 2 4-2.300781 6.800781-4.902343 9.101563-1.699219 2.097656-3.898438-.5-5.398438-1.601563m918.101563-1.101562c-2.5-1.796875-2.101563-5.296875-1.203125-7.898438 1.902343-5.601562 2.601562-11.398437 4.601562-17 4.199219 1.101563 8.601563 2.101563 12.300781 4.398438.097657 4.203125-2.902343 7.703125-3.199218 11.800781-.601563 3.699219-.5 8.402344-4.203125 10.402344-2.699219 2.097656-6.097657.097656-8.296875-1.703125m-732-103.796875c4.796875-5.800782 9.5-11.800782 14.398437-17.601563 2-2.398437 4.398438-4.800781 7.601563-5.398437 4.097656-1.300782 8.398437.5 11.597656 3.199218 7.800781 6.5 15.699219 12.898438 23.699219 19.300782 2.5 2.097656 5.101562 4.199218 7.101562 6.796875 1.5 1.703125 1 4.203125 1.199219 6.300781 2.300781 0 4.601562-.597656 6.800781 0 2.101563 1 3.898438 2.5 5.800781 4 8.898438 7.402344 18.097657 14.601562 26.898438 22.101562 5 4 5.699219 12 1.601562 16.898438-5.199218 6.300781-10.300781 12.800781-15.601562 19-30.300781-25-60.898438-49.597656-91.097656-74.597656m463.296875 71.199218c-7.296875-1.902343-13.398438-8.699218-13.296875-16.402343-.601563-6.296875 2.296875-12.597657 7.5-16.296875 21-16.300782 42-32.601563 63.097656-48.902344 3.199219-2.597656 7-5 11.300781-5.199219 8.199219-.800781 16.800781 4.5 19.101563 12.5 1.296875 5.101563 1 10.800781-1.703125 15.300781-2.296875 3.699219-6 6.199219-9.296875 8.800782-20.300782 15.597656-40.5 31.5-60.902344 47.097656-4.398438 3.699219-10.398438 4.300781-15.800781 3.101562m-37-36.699218c10.402343-12.902344 20.800781-25.902344 31.800781-38.402344 5.601562-6.398438 11.5-12.5 17-19-4.5 3.902344-8.898438 7.699219-13.300781 11.699219-13.597657 11.703125-28.097657 22.5-41.597657 34.402343-1.300781.898438-2.5 2.398438-4.101562 2.699219-3.199219-2-5.898438-4.601562-8.800781-6.898437 25-30.402344 49.703125-60.800782 74.601562-91.203125 3.199219 2.601562 6.300781 5.203125 9.5 7.902343-6.101562 7.097657-11.898437 14.5-17.898437 21.800782-9.800782 12.199218-20.402344 23.597656-30.800782 35.199218 7.800782-6.5 15.199219-13.5 23.097657-19.902343 11.902343-9.597657 23.902343-19.097657 35.402343-29.199219 2.898438 2.5 6.097657 4.601562 8.800782 7.300781-4 5.898438-9 11.199219-13.300782 16.800781-20.402343 24.699219-40.402343 49.699219-60.902343 74.300782-3.5-2-6.296875-5-9.5-7.5m-376.796875-88.601563c3.097656-2.5 6.5-4.898437 9.5-7.601562 11.097656 13.800781 21.5 27.902343 32.597656 41.601562 3.199219-2.398437 6.300781-4.898437 9.601562-7.300781-8.800781-11.5-17.902343-22.800781-26.699218-34.300781-2.203125-2.597657-3.101563-5.796875-3.601563-9.097657 3.199219-2.5 6.398438-5 9.601563-7.601562.898437 3.199219 1.398437 6.601562 3.597656 9.101562 6.699219 8.597657 13.5 17.199219 20.199219 25.898438 2.5 3.300781 5.402343 6.5 7 10.402344.203125 2-.097657 4.097656-.199219 6.097656 1.902344.199219 3.800781-.097656 5.601562.699219 3.5 2.601562 5.898438 6.300781 8.597657 9.703125 5.902343 7.699218 12 15.296875 17.902343 23 2.699219 3.296875 3.097657 7.898437 2 11.796875-1.101562 3.300781-3.902343 5.402343-6.402343 7.402343-5.699219 4.300782-11.296875 8.800782-16.898438 13.097657-24.199219-30.898438-48.199219-61.898438-72.398437-92.898438m335.699218 60.398438c19.597657-33.898438 38.300782-68.398438 57.898438-102.296875 3.699219 1.597656 7 3.796875 10.5 5.796875-19 34.402343-38.5 68.402343-57.699219 102.703125-3.601562-2-7.300781-4-10.699219-6.203125m-231.300781-9.398438c-2.5-4-4.199219-8.398437-6.300781-12.601562-12.898438-26.597657-25.300781-53.398438-38.398438-79.898438 3.699219-1.898437 7.300782-4 11.300782-5.199219 7.699218 15.699219 14.898437 31.800782 22.796875 47.398438 3.601562-1.800781 7.203125-3.5 10.703125-5.300781-7.402344-15.898438-15.203125-31.699219-22.601563-47.5 3.601563-1.898438 7.300781-3.699219 11.101563-5.296875 14.296875 30.199218 28.898437 60.398437 43.199218 90.597656 4.398438 8.800781.097657 20.601562-8.902343 24.601562-7.898438 3.800782-18.296875.5-22.898438-6.800781m188.699219-8.300781c1.402344-3.800781 3-7.597656 4.300781-11.398438 3.800781 1.300782 7.601563 2.597657 11.300781 4.300782 12.699219-32.800782 24.800782-65.800782 37.300782-98.703125 3.898437 1.203125 7.597656 2.800781 11.5 4.101562-12 33-25.101563 65.601563-36.902344 98.699219 3.402344 2 7.300781 3.101562 11.101562 4.402344-1.402343 3.796875-2.902343 7.597656-4.300781 11.5-11.5-4.203125-22.898437-8.5-34.300781-12.902344m-142.097656-12.199219c-1.101563-3.101562-1.703125-6.300781-2.5-9.5-5.601563-23.699219-11.402344-47.300781-17.101563-70.898437-.699219-3.5-1.800781-7.101563-.699219-10.601563 1.800782-9.5 12.097657-16.898437 21.597657-14.300781 6.800781 1.5 12.601562 6.902344 14.203125 13.800781 3.5 15.398438 7.699218 30.699219 10.898437 46.199219-5.699219 1.101562-11.199219 3.101562-17 3.699219-.898437-3.796875-1.898437-7.597657-2.800781-11.5 1.601562-.398438 3.199219-.898438 4.800781-1.296875-.398437-3.601563-1.300781-7.203125-2.199219-10.800782-2.5-9.402343-4.402343-18.902343-6.902343-28.300781-4 .601563-7.898438 1.601563-11.796875 2.601563 7.296875 30.199218 14.5 60.398437 21.699218 90.597656 4-.898438 8-1.800781 11.898438-2.898438-1.5-5.902343-2.699219-11.902343-4.300781-17.699218 3.902343-1.300782 7.902343-2 11.800781-3.101563 1.300781 6.800781 4.402344 13.398438 3.402344 20.398438-1.5 9-10.300782 16.300781-19.5 15.402343-6.703125-.902343-13.101563-5.300781-15.5-11.800781m122.699218 8c3.699219-20.300781 6.5-40.800781 11.5-60.800781.898438-3.597656 1.699219-7.199219 2-10.898438-7.800781 23.5-17.601562 46.199219-26.101562 69.398438-3.800781.199219-7.597656-1.199219-11.398438-1.800781 6.398438-37.296875 12.800782-74.5 19.097657-111.699219.402343-1.398438.300781-3.097656 1.402343-4.300781 3.699219.703125 7.5 1.402343 11.199219 2.101562-.800781 7.898438-2.699219 15.601563-3.800781 23.398438-2.5 16.902343-6.398438 33.5-10 50.101562.902344-2 1.601562-4.101562 2.300781-6.199219 7.101563-22.199218 16.800781-43.300781 24.398438-65.199218 3.703125.796875 7.601562 1.296875 11.402343 1.898437-6.601562 38.800781-13.300781 77.5-19.902343 116.300781-4-.699218-8.097657-1.402343-12.097657-2.300781m-72.800781-19.699219c-.699219-13.902343-1-27.902343-1.300781-41.800781-.898438-11-.597656-22-1-33-.898438-8.800781-.5-17.699219-.898438-26.601562 4.097657 0 8.097657-.597657 12.097657-.699219.203125 7.101562 0 14.199219.800781 21.300781.402344 10.601563 0 21.101563 1.101562 31.601563 4-.101563 8-.203125 12.097657-.300782-.597657-17.402343-1.296875-34.800781-1.699219-52.199218l.601562-.601563c3.800782-.199219 7.597657-.101562 11.398438-.300781 1 11.601562.699219 23.199219 1.101562 34.800781 1.199219 12.300781.199219 24.699219 1.398438 37 .199219 9.699219.402344 19.398438.601562 29.101563.5 9.296875-7.699218 17.5-16.800781 18.296875-9.5.703125-18.699219-7.097657-19.5-16.597657zm0 0" fill="#fff" stroke="#fff"/><path d="m167.699219 792.699219c223.300781-.097656 446.601562-.097656 669.800781 0 0-101.300781.101563-202.597656 0-303.800781-3.398437.703125-6.800781 1.601562-10.199219 2.101562-.199218 97.101563 0 194.300781-.101562 291.398438-216.398438 0-432.898438.101562-649.300781 0 0-98.398438-.097657-196.699219 0-295-3.398438-.597657-6.796875-.898438-10.296875-1.097657 0 102.097657 0 204.300782.097656 306.398438zm0 0" fill="#011a43" stroke="#011a43"/><path d="m182.398438 778.199219c213.402343.101562 426.902343 0 640.402343 0 .199219-54.699219 0-109.5.097657-164.199219-.097657-40.699219.203125-81.300781-.097657-122-7.101562 1.601563-12.601562 6.5-18.402343 10.398438v256.902343c-201.199219 0-402.398438 0-603.699219 0 0-86 .199219-172-.097656-258-4.800782-5.699218-11.402344-10-18.203125-13.199218-.097657 96.699218-.097657 193.398437 0 290.097656zm0 0" fill="#001c44" stroke="#001c44"/><g fill="#d2013b" stroke="#d2013b"><path d="m462.699219 741.699219c8.601562 0 17.300781 0 26 .101562-.097656-37 .101562-73.902343-.097656-110.800781-16.902344-2.199219-33-9.601562-45.902344-20.699219-1.898438-1.601562-3.597656-3.5-5.699219-4.902343-12.601562-.699219-24.601562 6.800781-31.5 17.101562-11.101562 16.101563-9.699219 39.800781 3.898438 54.101563 7.101562 8 17.800781 13 28.601562 12.199218 9.199219.300782 17.800781-4.199218 24.601563-10 .199218 21 0 41.898438.097656 62.898438m-22.300781-75.300781c-9.199219-1.898438-15.597657-11.199219-15.097657-20.398438-.5-11.300781 10.300782-22 21.699219-20 9.699219 1.5 16.800781 11.199219 15.898438 20.800781.902343 11.699219-10.898438 22.398438-22.5 19.597657zm0 0"/><path d="m718.5 740.800781c8.398438-.101562 16.699219-.101562 25.101563-.101562-.101563-44.898438 0-89.898438-.101563-134.800781-8.300781-.199219-16.601562-.097657-25-.097657 0 45-.101562 90 0 135zm0 0"/><path d="m760.699219 740.699219c8.300781 0 16.601562 0 25 .101562 0-45 0-90 0-135-8.398438 0-16.699219 0-25 0-.097656 45-.097656 90 0 134.898438zm0 0"/><path d="m219.398438 737.601563h42.601562c4.898438-.101563 10 .398437 14.699219-1.203125 14.199219-3.5 25.300781-16.097657 27.699219-30.398438.601562-5 .601562-10.101562-.097657-15.101562-2.601562-14.199219-13.800781-26.199219-27.800781-30 12.101563-18.199219 24.5-36.296875 36.5-54.597657-10.5-.101562-21-.101562-31.5 0-8.199219 13.800782-16.800781 27.199219-25.101562 40.898438-1.5 1.902344-1.199219 4.5-1.199219 6.800781v26.5c5.5-.101562 11.402344-.101562 16 3.101563 6 3.796875 9.300781 11.5 7.402344 18.296875-1.5 7.101562-8.203125 12.902343-15.5 12.800781-5.703125.101562-11.300782 0-16.902344 0 0-36.097656.101562-72.300781 0-108.398438-8.898438-.101562-17.800781 0-26.800781-.101562 0 43.800781.101562 87.601562 0 131.402344zm0 0"/><path d="m519.601563 737.398438c15.5 0 30.898437.101562 46.398437 0 8.898438-.5 18.398438-2 25.300781-8.097657 10.597657-10 14-26.902343 7.699219-40.101562-1.800781-4.199219-4.601562-7.800781-7.601562-11.097656 10-5 19.203125-13.5 20.902343-25 .699219-8 1.199219-16.601563-2.402343-24-5.199219-12-16.898438-20.902344-29.898438-22.703125-5.300781-.199219-10.699219-.5-16 0-12.398437 11.601562-27.699219 20.203125-44.398437 23.703125 0 35.796875-.101563 71.5 0 107.296875m26.097656-21.898438c6.5-.5 13.101562-.699219 19.601562.101563-6.5.699218-13.101562.796875-19.601562-.101563m.601562-1c.097657-28.398437 0-56.800781 0-85.300781 9 .300781 18.097657-.398438 27.097657.402344 10.800781 2.097656 15.300781 15.898437 10.300781 24.898437-2.398438 4.199219-6.597656 8-11.699219 8.101563-5.898437.199218-11.800781.097656-17.601562.097656-.199219 8-.097657 15.902344-.097657 23.902344 4.597657.199218 9.5-.703125 13.898438 1.296875 4 1.902343 7.101562 5.800781 7.699219 10.203125 1.601562 7.097656-3.398438 15.296875-10.898438 16.296875-6.199219.402343-12.5.101562-18.699219.101562zm0 0"/></g><path d="m545.699219 715.5c6.5.898438 13.101562.800781 19.601562.101563-6.5-.800782-13.101562-.601563-19.601562-.101563zm0 0" fill="#b3274d" stroke="#b3274d"/><path d="m546.300781 714.5c6.199219 0 12.5.300781 18.699219-.101562 7.5-1 12.5-9.199219 10.898438-16.296875-.597657-4.402344-3.699219-8.300782-7.699219-10.203125-4.398438-2-9.300781-1.097657-13.898438-1.296875 0-8-.101562-15.902344.097657-23.902344 5.800781 0 11.703125.101562 17.601562-.097656 5.101563-.101563 9.300781-3.902344 11.699219-8.101563 5-9 .5-22.800781-10.300781-24.898437-9-.800782-18.097657-.101563-27.097657-.402344 0 28.5.097657 56.902344 0 85.300781zm0 0" fill="#fefefe" stroke="#fefefe"/><path d="m316.101563 674c6.199218 8.398438 15.597656 14.601563 26 16.398438 9.5 1 19.699218.800781 28.296875-4.097657 12.101562-6 19.5-19.101562 20.300781-32.300781.199219-4.199219.199219-8.300781 0-12.5-18.800781.101563-37.699219.101563-56.5 0 .300781-4.199219 1.402344-8.699219 4.699219-11.601562 5.5-5.898438 15.203125-7.296875 22.101562-3 3.101563 1.5 4.898438 4.601562 7.101563 7.101562 7.097656-2.601562 13.699218-6.398437 20.699218-9.398437-10.601562-19.800782-37.601562-26.601563-57.300781-17.101563-10.699219 5.199219-19 15.199219-22.300781 26.601563-4.097656 13.398437-1.597656 28.699218 6.902344 39.898437m25-4.101562c-4.402344-2.898438-6.601563-8-6.902344-13.097657 10.5-.101562 21.101562-.101562 31.601562 0-.402343 3.398438-1.300781 6.800782-3.402343 9.5-4.597657 6.699219-14.796875 8.597657-21.296875 3.597657zm0 0" fill="#d2013b" stroke="#d2013b"/><path d="m676.398438 686.601563h25.300781c0-16.5-.097656-33.101563 0-49.601563 1.101562-11.300781-5.398438-22.101562-14.898438-27.800781-13.800781-8.800781-32.101562-9.398438-46.601562-2.097656-9.800781 5-18 14.5-18.5 25.898437-.097656 17.800781 0 35.699219-.097656 53.601563 8.597656 0 17.199218.097656 25.699218-.101563.097657-15.800781 0-31.699219.097657-47.5-.097657-3.601562 1.402343-7.199219 4-9.601562 5.902343-6.296875 17.601562-5.398438 22.402343 1.800781 1.800782 2.5 2.597657 5.699219 2.597657 8.800781zm0 0" fill="#d2013b" stroke="#d2013b"/><path d="m341.101563 669.898438c6.5 5 16.699218 3.101562 21.296875-3.597657 2.101562-2.699218 3-6.101562 3.402343-9.5-10.5-.101562-21.101562-.101562-31.601562 0 .300781 5.097657 2.5 10.199219 6.902344 13.097657zm0 0" fill="#fcfdfd" stroke="#fcfdfd"/><path d="m440.398438 666.398438c11.601562 2.800781 23.402343-7.898438 22.5-19.597657.902343-9.601562-6.199219-19.300781-15.898438-20.800781-11.398437-2-22.199219 8.699219-21.699219 20-.5 9.199219 5.898438 18.5 15.097657 20.398438zm0 0" fill="#fefefe" stroke="#fefefe"/><path d="m474.699219 621.101563c9.800781 2.796875 20.101562 4.699218 30.300781 4.097656 9.199219-.800781 18.699219-2.300781 27.199219-6.199219-1.097656-4-3-7.800781-4.898438-11.398437-10.699218 1.398437-21.601562 1.296875-32.300781.796875-2 0-4.199219-.699219-5.699219.902343-4.902343 3.898438-9.902343 7.597657-14.601562 11.800782zm0 0" fill="#021b43" stroke="#021b43"/><path d="m421 564c4 14.5 11.800781 28.101563 23.101563 38.199219-4.101563-7.398438-8.300782-14.699219-11.800782-22.398438-3.5-5.402343-7.601562-10.5-11.300781-15.800781zm0 0" fill="#03163d" stroke="#03163d"/><path d="m569.898438 600.199219c16.300781-6.199219 31.203125-15.699219 44.902343-26.5 11.5-9.597656 22.300782-20.300781 30.898438-32.699219-21.699219-16.398437-45-31.101562-63-51.800781-7.199219-8.097656-12.199219-18-15.898438-28.097656-5.101562-14.800782-9.101562-29.902344-12.800781-45.101563-3.699219-13.800781-7.5-28.101562-16.601562-39.398437-3.699219-4.300782-7.597657-8.601563-12.398438-11.800782-2.300781-1.601562-4.898437-3.199218-5.800781-6-2-4.300781-.398438-9.5 3.300781-12.300781 2.898438-2.800781 7.101563-2.699219 10.800781-3.101562.800782-3.898438 2.898438-8 7-9.296875 9.199219-2 19 .398437 26.699219 5.796875 4.601563 2.703125 8.300781 6.5 12.199219 10 3.699219-1.796875 6.800781-5 10.902344-6 7.199218-1.296875 14.597656 1.601562 21.699218-.199219 6.300782-2.300781 12.5-4.699219 18.800782-7 4.296875-1.597656 9.5-1.597656 13.398437 1.101562 4.800781 2.699219 7.398438 7.800782 11.199219 11.597657.300781-2.199219 1.199219-4.699219.300781-6.898438-28-47.699219-79.398437-80.898437-134.398437-86.398437-12.402344-.902344-24.800782-.800782-37.101563-.203125-24.800781 2.5-49 10-70.601562 22.402343-24.296875 13.597657-45.097657 33.300782-60.699219 56.300782-2.398438 3.5-4.699219 7.097656-6.398438 10.898437.800782-.101562 1.699219-.101562 2.5-.199219 1.597657-3.902343 4.199219-7.699218 8.300782-9.199218 5.296875-2.703125 11.5-2.101563 17.097656-.5 6.601562 1.199218 12.5 4.5 19 6 7.300781.898437 14.601562-1 21.800781.5 4.800781 1.097656 8.199219 5.398437 12.898438 6.398437 7.402343-6.300781 16-11.800781 25.800781-13.199219 6.5-1.199218 14.5-2.699218 19.902344 2.097657 2.5 2.101562 2.699218 5.5 3 8.5 3.796875 1.601562 8.296875 3.101562 10.097656 7.203125 2.402344 4.398437.601562 10.5-3.699219 13-3.199219 2-6.898437 3.5-9.699219 6.296875-5.300781 5.203125-7.800781 12.601562-12.601562 18.300781-2.597656 3.402344-6.5 6-7.898438 10.199219-3.601562 10-6.800781 20.300781-9.101562 30.703125-2 7.898437-2.5 16.097656-3.800781 24.097656-1.097657 5.902344-3.398438 11.5-6.699219 16.5-4.597656 7.300781-9.699219 14.199219-15.097656 20.902344-7.5 9.398437-14.800782 19.097656-24.402344 26.597656-9 7.300781-17.699219 15-26.800781 22.199219-1.699219 1.5-3.699219 2.902343-4.898438 4.902343 3.398438 5.199219 8.101563 9.398438 12.300781 13.898438 13.199219 13.800781 29.199219 24.902344 46.097657 33.800781 3.300781 1.800781 6.601562 3.5 10.300781 4.300781-2.300781-4.402343-5.398438-8.300781-7.800781-12.601562-9.398438-16.300781-12.898438-35.597656-10.898438-54.199219.398438-2.601562.5-5.300781.601563-7.898437.199218.597656.398437 1.097656.597656 1.699218 4.902344-33.101562 31.402344-61.699218 63.699219-70.300781 30.203125-8.898437 64.902343 0 87.203125 22.5 14.398437 14 23.796875 33 26.199218 53 .597657 11.800781 1 24-2.800781 35.398438-3 12.5-9.800781 23.703125-17.601562 33.800781zm0 0" fill="#ffca00" stroke="#ffca00"/><path d="m571.300781 585.398438c5.398438-6.199219 7.800782-14.296875 10.097657-22 5.5-19.5 2.902343-40.699219-6-58.796875-7.199219-14-18.296875-26.101563-31.898438-34.101563-29.199219-17.699219-69.398437-14.800781-95.300781 7.601563 1 1 2 2 3.101562 2.898437-.601562.898438-1.199218 1.800781-1.800781 2.699219 5.101563-1.199219 10.101563-2.800781 15.101563-4.097656 6-1.5 12.199218-1.601563 18.199218-3-1-1.402344-1.902343-2.902344-2.800781-4.300782 7.800781-4.699218 16.300781-8.5 25.199219-10.601562 1.800781-.5 3.699219.101562 5.5.601562 9.101562 2.898438 18 6.5 26.300781 11.398438-1.898437 5.300781-3.699219 10.601562-5.601562 15.902344 6 5.296875 12.800781 9.796875 18.203125 15.796875 6.097656 6.300781 10.597656 13.902343 15 21.402343-.402344.097657-1.203125.300782-1.601563.5 3.601563 1.300782 7.101563 3 10.601563 4.800782.699218 9.5 1.199218 19.097656.199218 28.597656-.300781 2.699219-.699218 5.5-2.101562 7.902344 2.800781 5.296875-.398438 11.199218-.398438 16.796875zm0 0" fill="#dadada" stroke="#dadada"/><path d="m443.800781 568.199219c10.097657 5.402344 20.699219 9.902344 31.097657 14.601562 7.601562-9.101562 14.902343-18.601562 21-28.800781-5.597657-11.199219-12.5-21.699219-19.097657-32.398437-5.199218.398437-10.300781 2.5-15.402343 3.699218-5.796875 1.898438-12.097657 3-17.5 5.699219-.796875 12.398438-1.597657 24.800781-.097657 37.199219zm0 0" fill="#001c44" stroke="#001c44"/><path d="m547.699219 582.101563c8.402344-3.800782 16.5-8.300782 24-13.5 1.402344-2.402344 1.800781-5.203125 2.101562-7.902344 1-9.5.5-19.097656-.199218-28.597656-3.5-1.800782-7-3.5-10.601563-4.800782-4.601562-1.800781-9.300781-3.699218-14.300781-4.300781-5.199219 9.300781-10.5 18.601563-15.300781 28.199219-.796875 1.601562-1.898438 3.5-.699219 5.199219 4.300781 8.902343 9.402344 17.5 15 25.703125zm0 0" fill="#011c44" stroke="#011c44"/><path d="m57.398438 529.398438c-4.796875 6.703125-5.898438 16.101562-1.597657 23.300781 6.597657-3.699219 12.300782-9.398438 20-11 8.597657-1.800781 17.597657-3.199219 25.300782-7.699219 7.597656-3.800781 11-13.699219 8.097656-21.5-1.300781-4.101562-4.398438-7.398437-7.300781-10.398437-7.199219-7.203125-15.5-13.101563-22.597657-20.402344-5-5.199219-7.902343-12.5-7.5-19.699219.597657-8.101562 6.300782-15.398437 13.800782-18.199219 7.5-3.101562 15.796875-1.300781 23.097656 1.5 6.601562 2.699219 12.800781 6.398438 18.800781 10.199219 9.199219 6.5 17.601563 14.398438 28 19 6.101563 2.601563 12.800781 3.199219 19.300781 3.800781 7.097657.597657 14.199219 2.597657 20.097657 6.800782 7.601562 4.898437 13.402343 12.296875 21.601562 16.296875 5.800781 2.800781 12.101563 4.402343 18.5 4.402343 3.101563 0 6.601563-.199218 9.300781 2 5.398438 4.199219 9.699219 9.800782 15.597657 13.398438 9.601562 5.902344 20.902343 7.601562 31.203125 11.902344 8.898437 3.097656 16.097656 9.296875 24.398437 13.5 9.398438 4 20.398438 3.699218 29.699219-.5 8.902344-3.800782 15.902344-10.601563 23.300781-16.601563 7.5-6.101562 14.898438-12.5 22.398438-18.601562 4-3.296875 7.5-7.199219 10.800781-11.296875 6.101562-7.402344 12.300781-15 18-22.800782 4.300781-6 8.800781-12 10.800781-19.101562 1.898438-5.5 1.699219-11.398438 2.800781-17 2.199219-15.597656 7.097657-30.5 12.300782-45.199219 1.398437-3.898437 5.296875-6 7.699218-9.199219 5.300782-7 8.597657-15.699218 15.398438-21.601562 2.902344-2.597656 6.601562-4.097656 10-5.800781 0-.796875 0-2.296875-.097656-3.097657-7.703125-1.699218-15.703125 1.097657-21.601563 6.300782-6 4.597656-8.101562 12.296875-13 17.898437-2.601562 2.898438-5.800781 5.199219-9.398437 6.699219 3.699218-7 8.597656-13.398438 10.898437-21 2.300781-8 10-12.699219 16.898438-16.398438 2.300781-1.300781 5.902343-2.300781 5.601562-5.601562-10.398437-1.898438-21.5 1-29.699219 7.601562-3.800781 2.699219-6.402343 7.300782-11.199218 8.597657-6-3.898438-11.300782-10.097657-19.101563-10.097657-7 .699219-14.300781 1.5-21.101562-1-7.398438-2.5-14.898438-6.199218-22.898438-5.601562-3.300781 0-6.601562 2.101562-7.300781 5.300781-.699219 3.398438-1.597656 6.800781-1.199219 10.199219 1.199219 3.699219 3.898438 6.601562 5.800781 9.902344-2.601562-.101563-5.199218-.300782-7.699218-.300782-.703125 8.199219 7.199218 12.699219 11.796875 18.300782 1.601562 5.398437 3.902343 10.699218 7.402343 15.199218-6.199218-.199218-12.300781-2-18.5-2.300781-5.601562-1.601562-11.300781-4.199219-17.199218-2.800781-1 .800781-2.300782 1.699219-1.703125 3.199219.800781 2.5 2.5 4.601562 3.703125 7.101562 4.097656 7.699219 4.5 16.898438 3 25.398438-1.203125-1.398438-1.902344-3-2.203125-4.796875-1.796875-8.300782-4.5-16.800782-9.796875-23.703125-4.601563-4.597657-12.101563-3.296875-17.402344-6.597657-1-2.601562-.199219-5.300781 1.101562-7.601562 4.300782-7.699219 9.300782-15 12.597657-23.199219 1.101562-6.5-1.199219-13.101562-1.796875-19.601562 4.296875 3.101562 6.796875 8 9.097656 12.601562 1.601562 3 .601562 6.5-.898438 9.300781-3.402343 6.898438-7 13.800782-10.5 20.699219-.800781 1.5-1 3.101563-1.199218 4.800781 4 .699219 8.296875.800782 12-1.300781 1.5-1.300781 1.898437-3.5 2.699218-5.300781 2.398438-6.199219 6.300782-11.597656 9.5-17.398438 2.300782-4.199218 1.097657-9.402343-1.101562-13.402343-2.699219-4.898438-5.300781-10-8.699219-14.398438-3.199219-3.398437-8.300781-3-12.5-3.300781-3.898437 0-7.300781-2.199219-10.699219-3.699219-8-3.800781-16.402343-6.300781-24.800781-9.101562-6-1.898438-13.398437-1.796875-18.101562 3-4.199219 3.5-5.398438 9.402343-9.5 12.800781-3 .5-6.097657-.097656-9.199219.5-3.699219 5.199219-6.800781 10.902344-9.800781 16.5-1.398438 2.101562.902343 4.101562 2.800781 4.300781 6.101562 1.300781 12.5 3.101563 18.699219 1.699219 6-2.5 8.703125-8.898438 11.601562-14.199219 1.898438-4 5.101563-8.398437 9.898438-8.699219 5.203125-.300781 10 2 14.703125 4 3.296875 1.699219 6.796875 3.898438 7.796875 7.699219.402343 5.898438-2.796875 11.5-6.898438 15.5-4.199219 4.398438-10 6.601563-14.800781 10.199219-3.898438 3-7.898438 6.199219-10.597656 10.402344-1.902344 3.5-2.800782 7.398437-4 11.199218-.800782-.300781-1.703125-.699218-2.5-1.101562-1.203125-4.5 1.597656-8.699219 1.597656-13.097656-2.898438-3.703125-8-3-12.199219-2.902344-10.800781-.097656-21.101562 4.402344-32 3.601562-9.398437.398438-18.898437-3.902343-28.300781-1.199218-4.199219 1.199218-6.300781 5.5-7 9.5-1.199219 8.796875-.199219 17.699218 1.101562 26.5-1.101562.097656-2.101562.097656-3.101562.199218-3.097656-11.199218-2.699219-23.199218-7.5-33.902343-4.097656-9.199219-11.398438-17.398438-21-21-8-3-16.597656-4.5-25.199219-4.597657-12.699219-.5-26.101562-2.699218-36-11.300781-3.199219-3.101562-7.199219-6.398437-7.5-11.199219 2.898438.699219 4.5 3.300782 6.601563 5.097657 9.5 8.5 22.296875 12.601562 34.898437 12.703125 12.199219 0 25.199219.296875 36.199219 6.296875 8.5 4.5 14.101562 12.703125 19 20.800781 2.101562-1.597656 4.199219-3.097656 6.300781-4.699219-3.199219-8-6.601562-16.398437-13-22.5-4.601562-3.601562-10.300781-5.699219-15.199219-8.699219-5-3.101562-11-4.800781-16.800781-3.699218-8.300781 1.296875-16.898437 3.796875-25.199219 1.398437-5.800781-1.800781-9.300781-7.300781-14.199218-10.601562-3.601563-2.597657-7.703125-4.699219-12.101563-5.199219-4.101562-.5-7.898437 1.601562-12 1.601562-4.5-1.800781-6.199219-6.800781-8.800781-10.5-2.800781-4.800781-8.699219-7.699218-14.199219-6.902343-4.398437.5-8.699219 1.601562-13 2.402343.699219 5.800782 1.800781 11.699219 5 16.699219 1.398438 2.699219 4.800781 2.5 7.199219 3.800781 4.800781 2.5 6.101562 8.597657 10.800781 11.097657 4.699219 2.800781 9.699219 5.601562 12.898438 10.101562 3.203125 5.300781 4.402343 11.398438 7.5 16.699219 1.601562 3.101562 5.601562 2.5 8.5 2.800781 6.703125 0 12.902343 2.699219 18.5 6.199219 2.101562 1.402344 4.703125 3.402344 4.101562 6.300781-1.5 6.199219-5.101562 11.800781-5.898437 18.199219-.5 6.902344-1.203125 13.800781-1.203125 20.699219-8.398438-1.296875-16.898438-4.199219-25.5-2.796875-12.097657 1.199218-24 8.199218-29.597657 19.199218-5.101562 10.699219-5.300781 24.097657 1.097657 34.300782 7.601562 10.699218 18.203125 18.597656 28.101562 26.898437 2.199219 1.601563 1.699219 5.300781-.601562 6.5-3.296875 1.800781-7.296875 1.101563-11 1.199219-9.097657-.5-16.597657 6.199219-21.5 13.199219m276.203125-28.796875c-2.5-4.101563 1.296875-7.5 3.199218-10.902344 3.699219-6.300781 4.300782-13.800781 6.097657-20.699219.402343.101563 1.300781.300781 1.703125.398438 2.796875 9.800781 2.699218 21.703125-4.5 29.601562-1.5 2.199219-4.300782 1.601563-6.5 1.601563m67.699218-64.902344c-2.601562-5.5-6.5-11.699219-3.601562-17.898438 2.699219 2.699219 4.601562 6.597657 8.402344 7.898438 3.898437-.398438 6.398437-4.097656 8.796875-6.800781 3.703125-4 3.601562-9.699219 3.902343-14.796875 4.398438-.402344 5.300782 4.5 5.5 7.898437.398438 6.5-3 12.398438-7.101562 17.199219-2.898438 3.199219-4.5 7.800781-8.398438 10.101562-3.101562 1.597657-6.300781-.699218-7.5-3.601562m-8.800781-69.898438c4.199219-.5 8.800781-1.199218 12.699219.898438 2.199219 2.800781 3.5 7.800781.601562 10.601562-6.601562.699219-11.800781-5.5-13.300781-11.5zm0 0" fill="#d2013b" stroke="#d2013b"/><path d="m672.199219 550.601563c3.902344 2.097656 8.5 2.097656 12.800781 1.597656 8-1.300781 15-6 21.199219-11 3.199219-2.5 5.300781-6 8.402344-8.699219 2.898437-2.5 6.898437-2.699219 10.398437-3.601562 7.5-1.597657 14.898438-3.898438 21.800781-7.199219 7.199219-3.398438 13.398438-8.5 19.898438-13.097656 5.402344-3.902344 12.402344-3.203125 18.5-5.300782 10.199219-3.199218 17.5-11.402343 26.800781-16.402343 9.699219-4.898438 21-4.597657 31-8.898438 19.300781-6.398437 34.101563-21.199219 52.398438-29.699219 6.601562-3.101562 14-3.5 21.101562-2.601562 7.898438 1.699219 15 8.902344 14.800781 17.300781-.601562 5-2.5 9.800781-5.300781 14-7.601562 11.300781-19.398437 18.800781-27.199219 29.898438-3.699218 5.203125-5.101562 12.402343-1.902343 18.203125 3.5 6.699218 10.300781 10.796875 17.203125 13.5 6.398437 2.597656 13.296875 3.199218 19.796875 5.5 4.101562 1.398437 7.101562 4.699218 10.703125 7 3.199218-10.203125 2.097656-22.902344-6.300782-30.402344-6.902343-6.300781-16.699218-6.597656-25.101562-9.699219.101562-2 .699219-4.101562 2.402344-5.300781 10.699218-9.097656 21.398437-19.097656 26.796875-32.398438 2.601562-6 3-12.800781 1.902343-19.199218-2.601562-9.800782-10.199218-17.902344-19.300781-22.101563-6.5-3.101562-13.898437-3.101562-21-2.699219-4.300781.199219-8.398437 1.597657-12.699219 1.5-.300781-4.199218 1.199219-8.101562 2.097657-12.101562.703125-6.199219.300781-12.597656-1.597657-18.5-1.199218-4-3.699218-8.199219-2-12.398438 2.300782-4.5 7.597657-5.699218 12.199219-6 3.699219-.5 8.398438.597657 11-2.800781 3.800781-5.800781 4.300781-12.898437 6.898438-19.199219 1.800781-3.402343 5.203125-5.402343 7.800781-8.101562 4.300781-4.097656 7.101562-9.5 11.800781-13.199219 2.101563-1.699219 4.800781-1.898437 7.199219-2.898437 3-5.5 4.199219-11.800782 5-18-5.800781-.101563-11.800781-1-17.597656.199218-6.703125 2.300782-8.5 10.199219-14.101563 13.699219-4.699219 1.199219-8.398437-3.300781-13-3.101562-4.398437-.199219-8.199219 2.5-11.398437 5.203125-9.402344 7.699218-21.300782 12.898437-33.601563 12.796875-5 .101562-10-1.5-15-1.097657-4.199219.199219-8.101562 1.800782-11.601562 4-5.097657 3.199219-10.398438 6.597657-13.199219 12-3.398438 6-4.199219 13.097657-5.597656 19.699219-.902344 2.398438.5 5.699219 3.398437 5.398438 5.300781-11 12.601563-22 24.101563-27.296875 7-3.703125 15.296875-3.101563 22.898437-1.902344 9.800781 1.300781 20.199219-.199219 28.699219-5.5 5.601562-3 9.902344-7.800781 15.601562-10.398438-8.300781 14.300782-26.101562 21.800782-42.300781 20-8.800781-1.800781-18.5-.601562-26.101562 4.5-8.699219 5.597657-13.699219 15.300782-17.097657 24.699219-3.101562 11.898438-3.402343 24.800781-8.902343 35.898438-2.296875-2.5-.898438-5.796875-.597657-8.699219 1-8.199219 2.398438-17-1.199218-24.699219-3.902344-7-12.800782-8.601562-20.101563-8.398437-9.300781.699218-18.699219 2-28 .5-12.199219-1.902344-24.300781-4.703125-36.699219-3.601563 1.300782 4.101563 3.5 8.101563 3 12.5-.300781.5-.902343 1.300781-1.199218 1.699219-3.601563-2.097656-3.902344-6.597656-6-9.898438-3.300782-5.300781-8.5-9.199218-14.300782-11.300781-5.699218-1.898437-9.199218-7.101562-13.199218-11.101562-1.902344-2.296875-5-4.898438-3.703125-8.199219 2.402343-6.5 9.703125-8.699219 15.800781-10.300781 3.601562-.699219 8.300781-1.796875 11 1.402343 3.601562 4 4 10.199219 8.101562 13.800782 2.097657 2.199218 5.300782 2.199218 8.199219 2.199218 5.199219-.101562 10.601563.300782 15.800781-.800781-.101562-1.800781.097657-3.800781-.902343-5.398437-2.199219-4-4.5-8-7.796875-11.203125-2.203125-2.296875-5.902344-1.699219-8.601563-3.097657-1.699219-3.800781-2-8.300781-4.800781-11.5-2-2.300781-4.5-4.699218-7.699219-5-4.398437-.5-9 .199219-13.101562 1.800782-7.796875 3-16.097657 4.296875-24 7.097656-4.097657 1.300781-6 7.101562-10.898438 6.402344-2.898437.296875-6.800781-1.402344-8.898437 1.398437-2.5 3.398438-3.203125 7.601563-4.402344 11.5-1.300781 4.800781-3.597656 9.898438-1.898438 14.898438 2.199219 5.203125 5.398438 9.800781 7.898438 14.800781 2.300781 3.902344 3.902344 8.300781 7.402344 11.300781 3.5.300781 6.597656-2 9.699218-3.5-3.402343-7.300781-9-13.199219-12.5-20.398437-2.5-5.703125-.5-12.402344 2.699219-17.402344.398438 4.601562-.601562 9.699219 1.800781 14 3.699219 7 8.800782 13.199219 13 20 1.300782 2.101562 1.300782 4.800781.398438 7.101562-1.398438 2.898438-4.699219 4-7.199219 5.699219-7.601562 4.300781-11.800781 12.699219-14 20.800781-2.199219 7.800782-1.699219 16-3.300781 23.800782-1 0-1.898438 0-2.898438-.101563-3.101562-11.601562-.300781-23.898437 3.800782-34.898437 1.5-3.902344 3.5-7.703125 4.597656-11.902344-7-1.199219-14.199219-.398438-21.300781-.097656-9.199219 1.398437-15 9.398437-22.796875 13.597656 1.097656-10 11.699218-14.800781 15.199218-23.699219 2.199219-5.800781 6.300782-10.601562 9.097657-16.101562 1.300781-2.097657 1.203125-4.597657 1-7-2.699219-.097657-5.398438-.199219-8.097657-.199219.199219-4.398438 2.597657-9.300781-.199218-13.199219-2.101563-3.398437-5.5-7.300781-9.902344-6.601562-7.898438 2.203125-15.300781 6.203125-23.300781 8.101562-6.5 1-13.097657-.601562-19.597657-.199219-4.800781 1.300782-7.800781 5.597657-11.902343 8.199219-1.597657 1-3.296875-.300781-4.398438-1.5-5.398437-5.601562-11.300781-11.101562-18.398437-14.5-4.902344-2.199219-10.5-3.898437-15.703125-1.898437.5 1.296875.703125 2.699218 1.800781 3.597656 4 3.699219 8.300781 7.199219 11.5 11.699219 2.699219 3.800781 3.800781 8.601562 6.5 12.402343 2.5 3.597657 4.902344 7.300782 6.402344 11.398438-.601563-.097656-1.902344-.097656-2.601563-.097656-3.800781-4.902344-7.601562-9.800782-11-15-3.398437-4.902344-6.800781-10.203125-12.398437-12.703125-4.5-2.398438-9.902344-1.796875-14.800782-1.097657-.800781 3.800782 3.300782 5.199219 5.699219 7.300782 14 10.5 21.800781 27.097656 26.601563 43.5 5.296875 19.199218 9.5 38.699218 16.398437 57.398437 3.199219 8.398438 7.699219 16.5 13.800781 23.199219 19.597657 22.199219 45.597657 37.101562 68.300782 55.699219 4.699218 3.601562 8.796875 8 14.097656 10.703125m1-37.703125c-6.898438-5-12.800781-11.699219-16.800781-19.296875-2.097657-4.902344-4.199219-10.703125-1.796875-15.902344 2.296875 3.699219 4.097656 7.601562 6.699218 11 4.898438 6.699219 11.398438 11.902344 17.300782 17.699219 1.398437 1.300781 2.699218 3.402343 1.5 5.402343-1 2.699219-4.902344 2.5-6.902344 1.097657m-68.5-75.796875c-4.597656-5.300782-8.597656-11.203125-13.898438-16-4.800781-4.203125-7.101562-10.703125-7.101562-17.101563.101562-1.800781.902344-4.398437 3.300781-3.601562 2.5 3.703125 2.101563 8.800781 5.398438 12.203125 3.703125 3.796875 7.800781 7.597656 12.703125 9.898437 4.597656 1.800781 5-6.199219 9.398437-5.199219 2.601563.300782 2.398438 3.699219 1.398438 5.398438-2.796875 5.402344-5.296875 11.800781-11.199219 14.402344m-3.300781-61.402344c-1.597657-2.300781-.097657-5.300781.902343-7.5 1.800782-4.097656 9.300782-6.199219 11.097657-1.097656-.199219 4.296875-3.398438 7.898437-7.5 9.097656-1.398438.101562-3.699219 1.101562-4.5-.5m-2.699219-22.199219c4.902344-.601562 9.800781-.699219 14.601562 0-4.800781.898438-9.800781.800781-14.601562 0zm0 0" fill="#d2013b" stroke="#d2013b"/><path d="m420.199219 523.5c4.5-4.300781 8.902344-8.699219 12.902344-13.398437 5-9.101563 10.5-17.902344 16.398437-26.402344.601563-.898438 1.199219-1.800781 1.800781-2.699219-1.101562-.898437-2.101562-1.898437-3.101562-2.898437-14.097656 11.398437-24.097656 27.699218-28 45.398437zm0 0" fill="#021a44" stroke="#021a44"/><path d="m673.199219 512.898438c2 1.402343 5.902344 1.601562 6.902344-1.097657 1.199218-2-.101563-4.101562-1.5-5.402343-5.902344-5.796875-12.402344-11-17.300782-17.699219-2.601562-3.398438-4.402343-7.300781-6.699218-11-2.402344 5.199219-.300782 11 1.796875 15.902344 4 7.597656 9.902343 14.296875 16.800781 19.296875zm0 0" fill="#fbfcfc" stroke="#fbfcfc"/><path d="m333.601563 500.601563c2.199218 0 5 .597656 6.5-1.601563 7.199218-7.898437 7.296875-19.800781 4.5-29.601562-.402344-.097657-1.300782-.296875-1.703125-.398438-1.796875 6.898438-2.398438 14.398438-6.097657 20.699219-1.902343 3.402344-5.699218 6.800781-3.199218 10.902344zm0 0" fill="#fdfcfd" stroke="#fdfcfd"/><path d="m494.199219 492.398438c11.902344 0 23.902344.5 35.800781.902343.398438-1.199218.898438-2.5 1.398438-3.699218 1.902343-5.300782 3.703125-10.601563 5.601562-15.902344-8.300781-4.898438-17.199219-8.5-26.300781-11.398438-1.800781-.5-3.699219-1.101562-5.5-.601562-8.898438 2.101562-17.398438 5.902344-25.199219 10.601562.898438 1.398438 1.800781 2.898438 2.800781 4.300782 3.800782 5.199218 7.597657 10.5 11.398438 15.796875zm0 0" fill="#011b44" stroke="#011b44"/><path d="m401.300781 435.699219c1.199219 2.902344 4.398438 5.199219 7.5 3.601562 3.898438-2.300781 5.5-6.902343 8.398438-10.101562 4.101562-4.800781 7.5-10.699219 7.101562-17.199219-.199218-3.398437-1.101562-8.300781-5.5-7.898437-.300781 5.097656-.199218 10.796875-3.902343 14.796875-2.398438 2.703125-4.898438 6.402343-8.796875 6.800781-3.800782-1.300781-5.703125-5.199219-8.402344-7.898438-2.898438 6.199219 1 12.398438 3.601562 17.898438zm0 0" fill="#fcfcfd" stroke="#fcfcfd"/><path d="m604.699219 437.101563c5.902344-2.601563 8.402344-9 11.199219-14.402344 1-1.699219 1.203125-5.097656-1.398438-5.398438-4.398437-1-4.800781 7-9.398437 5.199219-4.902344-2.300781-9-6.101562-12.703125-9.898437-3.296875-3.402344-2.898438-8.5-5.398438-12.203125-2.398437-.796875-3.199219 1.800781-3.300781 3.601562 0 6.398438 2.300781 12.898438 7.101562 17.101563 5.300782 4.796875 9.300782 10.699218 13.898438 16zm0 0" fill="#fbfcfc" stroke="#fbfcfc"/><path d="m345.398438 387.601563c4.203125 1.398437 8.5 2.597656 12.601562 4.199218-2.800781-3.601562-6-6.800781-9.199219-10.101562-1.402343 1.800781-2.5 3.800781-3.402343 5.902344zm0 0" fill="#fcc906" stroke="#fcc906"/><path d="m652.398438 388.398438c2.902343 0 5.902343-.199219 8.800781-.5-1.097656-2.296875-2.300781-4.597657-3.597656-6.796875-2.402344 1.898437-4 4.5-5.203125 7.296875zm0 0" fill="#fcca04" stroke="#fcca04"/><path d="m392.5 365.800781c1.5 6 6.699219 12.199219 13.300781 11.5 2.898438-2.800781 1.597657-7.800781-.601562-10.601562-3.898438-2.097656-8.5-1.398438-12.699219-.898438zm0 0" fill="#fcfcfc" stroke="#fcfcfc"/><path d="m804.398438 376.699219c1.300781.402344 2.601562.699219 3.902343 1 1.597657-6.800781 2.5-14 6.097657-20.199219 1.800781-3.601562 4.703125-6.601562 7.601562-9.398437 1.300781-1 .800781-2.703125.898438-4-.097657-22.703125.101562-45.402344-.097657-68.101563-.300781-15.398437-1.199218-31.199219-7.300781-45.5-4.800781-11.800781-12.300781-22.101562-19.898437-32.199219-34.101563-45.5-78.800782-83-129.703125-108.402343-32.398438-16.199219-67.199219-27.699219-102.898438-33.699219-35.199219-5.800781-71.101562-6.5-106.5-2-80.800781 10-157.699219 48.402344-214.601562 106.699219-14.796875 14.703125-28 30.902343-40 48-6.296875 8.800781-11.398438 18.5-14.796875 28.800781-5 16.601562-4.800782 34.101562-4.800782 51.300781.097657 19.898438-.101562 39.800781.097657 59.699219 2.800781 2.800781 6.101562 5.199219 8.402343 8.5 4.5 5.601562 7.097657 12.402344 10.398438 18.800781-.097656-35-.199219-70 0-105 0-10.699219 1.300781-21.5 5-31.601562 3.601562-9.699219 9.601562-18.199219 15.699219-26.398438 45.402343-62.300781 111.800781-109.101562 186-130 27.101562-7.5 55-12.199219 83.101562-12.898437 11.699219-1.203125 23.300781.199218 35 .5 36.800781 2.699218 73.300781 10.796875 107.5 24.898437 60.300781 24.601563 113.300781 66.800781 151.398438 119.601563 4.101562 5.699218 8.203125 11.5 11.203125 17.796875 6.898437 12.902343 7.699218 27.800781 8.199218 42.101562.199219 33.898438.097657 67.800781.097657 101.699219zm0 0" fill="#011b44" stroke="#011b44"/><path d="m601.398438 375.699219c.800781 1.601562 3.101562.601562 4.5.5 4.101562-1.199219 7.300781-4.800781 7.5-9.097656-1.796875-5.101563-9.296875-3-11.097657 1.097656-1 2.199219-2.5 5.199219-.902343 7.5zm0 0" fill="#fcfcfb" stroke="#fcfcfb"/><path d="m274.101563 367.300781c5.296875.300782 10.597656.199219 15.898437 1 2.199219.597657 3.601563-1.5 4.101563-3.402343 1.296875-3.699219 2.699218-7.5 4.5-11.097657-4.101563-3.601562-9.5-6.199218-15.203125-5.402343-1.796875 2.902343-3.296875 6.101562-4.796875 9.203125-1.402344 2.898437-4 5-5.800782 7.5.300782.597656.898438 1.597656 1.300782 2.199218zm0 0" fill="#d2023a" stroke="#d2023a"/><path d="m706.398438 364.699219.601562.5c5 .199219 10 .300781 15 .199219l.800781-.5c.300782-4.5-1.300781-8.898438-2.800781-13-.601562-1.796875-2.101562-3.597657-4.101562-3.5-4.097657-.097657-8.796875.601562-11.898438 3.5-2.199219 4.101562-.101562 9.203125 2.398438 12.800781zm0 0" fill="#d2023b" stroke="#d2023b"/><path d="m60.5 361.5c3 1.398438 6.800781-1.601562 7.199219-4.5-2-5-5.597656-9.5-9.898438-12.800781-4.902343-3.699219-12.902343 3-9.5 8.300781 3.398438 3.800781 7.898438 6.5 12.199219 9zm0 0" fill="#d2023a" stroke="#d2023a"/><path d="m937.398438 360.800781c1.203125.800782 3 1.199219 4.300781.300782 3.5-2.300782 6.902344-4.601563 10.199219-7.203125 1.5-1.398438 3.601562-3.199219 2.601562-5.398438-1.800781-3.601562-6-7.398437-10.199219-5.699219-4.5 2.699219-7.601562 7.199219-10.300781 11.5-1.800781 2.699219 1.101563 5.300782 3.398438 6.5zm0 0" fill="#d2023b" stroke="#d2023b"/><path d="m598.699219 353.5c4.800781.800781 9.800781.898438 14.601562 0-4.800781-.699219-9.699218-.601562-14.601562 0zm0 0" fill="#a12749" stroke="#a12749"/><path d="m167.601563 341.199219c3.398437 1.902344 6.796875 3.800781 10.199218 5.699219.300782-28.699219-.601562-57.296875.800782-85.898438.796875-8.699219 1.796875-17.398437 4.597656-25.699219 5.300781-16.199218 15.601562-30 25.800781-43.402343 22.199219-28.796875 48.601563-54.398438 78.199219-75.597657 59.402344-42.699218 131.601562-67.5 204.800781-69.101562 6.601563-.597656 13.398438-.699219 20-.097656 64.601563 1.398437 128.601563 20.5 183.601563 54.296875 39.296875 24 73.898437 55.5 101.898437 92.101562 9.199219 12.398438 18.601563 24.898438 23.699219 39.601563 5 13.296875 5.402344 27.796875 6 41.898437v69.300781c3.300781-2.199218 6.800781-4.199218 10.402344-5.902343-.203125-23.199219.097656-46.296875-.203125-69.398438-.699219-10.898437-1.296875-21.800781-4.296875-32.300781-3.601563-13.300781-10.101563-25.597656-18.101563-36.699219-29.5-42.199219-67.601562-78.5-111.300781-105.699219-54.597656-34.300781-118.199219-54.402343-182.699219-57.300781-80.898437-4.199219-162.898437 18.699219-230 64-33.300781 22.300781-62.898437 49.898438-87.699219 81.300781-10.902343 14.199219-22.101562 28.597657-28.402343 45.5-7.398438 19.898438-7.296875 41.398438-7.296875 62.199219zm0 0" fill="#021b43" stroke="#021b43"/><path d="m37 342c1.5 1.101563 3.699219 3.699219 5.398438 1.601563 2.601562-2.300782 6.902343-5.101563 4.902343-9.101563-2-5.601562-3-11.5-5.402343-17-4.5 0-8.796875 2-12.597657 4.101563 1.597657 3.097656 4.097657 5.898437 4.199219 9.5.398438 3.699218.101563 8.296875 3.5 10.898437zm0 0" fill="#d2023a" stroke="#d2023a"/><path d="m955.101563 340.898438c2.199218 1.800781 5.597656 3.800781 8.296875 1.703125 3.703125-2 3.601562-6.703125 4.203125-10.402344.296875-4.097656 3.296875-7.597656 3.199218-11.800781-3.699218-2.296875-8.101562-3.296875-12.300781-4.398438-2 5.601563-2.699219 11.398438-4.601562 17-.898438 2.601563-1.296875 6.101563 1.203125 7.898438zm0 0" fill="#d2023a" stroke="#d2023a"/><path d="m223.101563 237.101563c30.199218 25 60.796875 49.597656 91.097656 74.597656 5.300781-6.199219 10.402344-12.699219 15.601562-19 4.097657-4.898438 3.398438-12.898438-1.601562-16.898438-8.800781-7.5-18-14.699218-26.898438-22.101562-1.902343-1.5-3.699218-3-5.800781-4-2.199219-.597656-4.5 0-6.800781 0-.199219-2.097656.300781-4.597656-1.199219-6.300781-2-2.597657-4.601562-4.699219-7.101562-6.796875-8-6.402344-15.898438-12.800782-23.699219-19.300782-3.199219-2.699218-7.5-4.5-11.597656-3.199218-3.203125.597656-5.601563 3-7.601563 5.398437-4.898437 5.800781-9.601562 11.800781-14.398437 17.601563m58.296875 31.796875c2.101562-3.5 4.902343-6.398438 7.601562-9.398438 10.199219 8.5 20.800781 16.800781 31 25.5-2.199219 3.398438-5 6.199219-7.300781 9.398438-10.398438-8.5-21.097656-16.796875-31.300781-25.5m-41.097657-33.5c2.597657-3.097657 5.097657-6.199219 7.597657-9.296875 10.5 8.5 21 16.898437 31.300781 25.597656-2.398438 3.199219-5 6.199219-7.5 9.300781-10.5-8.398437-21-17-31.398438-25.601562zm0 0" fill="#021b44" stroke="#021b44"/><path d="m686.398438 308.300781c5.402343 1.199219 11.402343.597657 15.800781-3.101562 20.402344-15.597656 40.601562-31.5 60.902344-47.097656 3.296875-2.601563 7-5.101563 9.296875-8.800782 2.703125-4.5 3-10.199218 1.703125-15.300781-2.300782-8-10.902344-13.300781-19.101563-12.5-4.300781.199219-8.101562 2.601563-11.300781 5.199219-21.097656 16.300781-42.097656 32.601562-63.097656 48.902344-5.203125 3.699218-8.101563 10-7.5 16.296875-.101563 7.703125 6 14.5 13.296875 16.402343m-3-19.300781c24.5-19.101562 49.101562-38.199219 73.601562-57.199219 2.398438 3.097657 5 6 7.101563 9.300782-.703125 1-1.601563 1.796875-2.5 2.5-23.5 18.398437-47.203125 36.5-70.703125 55-2.5-3.203125-5-6.402344-7.5-9.601563zm0 0" fill="#021b44" stroke="#021b44"/><path d="m683.398438 289c2.5 3.199219 5 6.398438 7.5 9.601563 23.5-18.5 47.203125-36.601563 70.703125-55 .898437-.703125 1.796875-1.5 2.5-2.5-2.101563-3.300782-4.703125-6.203125-7.101563-9.300782-24.5 19-49.101562 38.097657-73.601562 57.199219zm0 0" fill="#fdfdfd" stroke="#fdfdfd"/><path d="m281.398438 268.898438c10.203125 8.703125 20.902343 17 31.300781 25.5 2.300781-3.199219 5.101562-6 7.300781-9.398438-10.199219-8.699219-20.800781-17-31-25.5-2.699219 3-5.5 5.898438-7.601562 9.398438zm0 0" fill="#fdfdfc" stroke="#fdfdfc"/><path d="m649.398438 271.601563c3.203125 2.5 6 5.5 9.5 7.5 20.5-24.601563 40.5-49.601563 60.902343-74.300782 4.300782-5.601562 9.300782-10.902343 13.300782-16.800781-2.703125-2.699219-5.902344-4.800781-8.800782-7.300781-11.5 10.101562-23.5 19.601562-35.402343 29.199219-7.898438 6.402343-15.296875 13.402343-23.097657 19.902343 10.398438-11.601562 21-23 30.800782-35.199218 6-7.300782 11.796875-14.703125 17.898437-21.800782-3.199219-2.699218-6.300781-5.300781-9.5-7.902343-24.898437 30.402343-49.601562 60.800781-74.601562 91.203125 2.902343 2.296875 5.601562 4.898437 8.800781 6.898437 1.601562-.300781 2.800781-1.800781 4.101562-2.699219 13.5-11.902343 28-22.699218 41.597657-34.402343 4.402343-4 8.800781-7.796875 13.300781-11.699219-5.5 6.5-11.398438 12.601562-17 19-11 12.5-21.398438 25.5-31.800781 38.402344zm0 0" fill="#021b44" stroke="#021b44"/><path d="m272.601563 183c24.199218 31 48.199218 62 72.398437 92.898438 5.601563-4.296875 11.199219-8.796875 16.898438-13.097657 2.5-2 5.300781-4.101562 6.402343-7.402343 1.097657-3.898438.699219-8.5-2-11.796875-5.902343-7.703125-12-15.300782-17.902343-23-2.699219-3.402344-5.097657-7.101563-8.597657-9.703125-1.800781-.796875-3.699218-.5-5.601562-.699219.101562-2 .402344-4.097656.199219-6.097656-1.597657-3.902344-4.5-7.101563-7-10.402344-6.699219-8.699219-13.5-17.300781-20.199219-25.898438-2.199219-2.5-2.699219-5.902343-3.597656-9.101562-3.203125 2.601562-6.402344 5.101562-9.601563 7.601562.5 3.300782 1.398438 6.5 3.601563 9.097657 8.796875 11.5 17.898437 22.800781 26.699218 34.300781-3.300781 2.402344-6.402343 4.902344-9.601562 7.300781-11.097656-13.699219-21.5-27.800781-32.597656-41.601562-3 2.703125-6.402344 5.101562-9.5 7.601562m49.699218 43.800781c3.097657-2.5 6.199219-5.101562 9.5-7.402343 8.398438 10.5 16.5 21.300781 24.898438 31.800781-3.199219 2.5-6.300781 5.101562-9.597656 7.5-8.300782-10.699219-16.601563-21.199219-24.800782-31.898438zm0 0" fill="#021b44" stroke="#021b44"/><path d="m240.300781 235.398438c10.398438 8.601562 20.898438 17.203125 31.398438 25.601562 2.5-3.101562 5.101562-6.101562 7.5-9.300781-10.300781-8.699219-20.800781-17.097656-31.300781-25.597656-2.5 3.097656-5 6.199218-7.597657 9.296875zm0 0" fill="#fdfdfc" stroke="#fdfdfc"/><path d="m322.300781 226.800781c8.199219 10.699219 16.5 21.199219 24.800782 31.898438 3.296875-2.398438 6.398437-5 9.597656-7.5-8.398438-10.5-16.5-21.300781-24.898438-31.800781-3.300781 2.300781-6.402343 4.902343-9.5 7.402343zm0 0" fill="#fdfdfc" stroke="#fdfdfc"/><path d="m608.300781 243.398438c3.398438 2.203125 7.097657 4.203125 10.699219 6.203125 19.199219-34.300782 38.699219-68.300782 57.699219-102.703125-3.5-2-6.800781-4.199219-10.5-5.796875-19.597656 33.898437-38.300781 68.398437-57.898438 102.296875zm0 0" fill="#021b44" stroke="#021b44"/><path d="m377 234c4.601563 7.300781 15 10.601563 22.898438 6.800781 9-4 13.300781-15.800781 8.902343-24.601562-14.300781-30.199219-28.902343-60.398438-43.199218-90.597656-3.800782 1.597656-7.5 3.398437-11.101563 5.296875 7.398438 15.800781 15.199219 31.601562 22.601563 47.5-3.5 1.800781-7.101563 3.5-10.703125 5.300781-7.898438-15.597656-15.097657-31.699219-22.796875-47.398438-4 1.199219-7.601563 3.300782-11.300782 5.199219 13.097657 26.5 25.5 53.300781 38.398438 79.898438 2.101562 4.203125 3.800781 8.601562 6.300781 12.601562m11.898438-2.800781c-5.796875-12.097656-11.5-24.300781-17.398438-36.398438 3.601563-1.800781 7.199219-3.601562 10.800781-5.402343 6 12.203125 11.898438 24.402343 17.597657 36.703125-3.699219 1.699218-7.199219 3.597656-11 5.097656zm0 0" fill="#021b44" stroke="#021b44"/><path d="m565.699219 225.699219c11.402344 4.402344 22.800781 8.699219 34.300781 12.902344 1.398438-3.902344 2.898438-7.703125 4.300781-11.5-3.800781-1.300782-7.699218-2.402344-11.101562-4.402344 11.800781-33.097656 24.902344-65.699219 36.902344-98.699219-3.902344-1.300781-7.601563-2.898437-11.5-4.101562-12.5 32.902343-24.601563 65.902343-37.300782 98.703125-3.699218-1.703125-7.5-3-11.300781-4.300782-1.300781 3.800782-2.898437 7.597657-4.300781 11.398438zm0 0" fill="#021b44" stroke="#021b44"/><path d="m388.898438 231.199219c3.800781-1.5 7.300781-3.398438 11-5.097656-5.699219-12.300782-11.597657-24.5-17.597657-36.703125-3.601562 1.800781-7.199218 3.601562-10.800781 5.402343 5.898438 12.097657 11.601563 24.300782 17.398438 36.398438zm0 0" fill="#fdfdfd" stroke="#fdfdfd"/><path d="m423.601563 213.5c2.398437 6.5 8.796875 10.898438 15.5 11.800781 9.199218.898438 18-6.402343 19.5-15.402343 1-7-2.101563-13.597657-3.402344-20.398438-3.898438 1.101563-7.898438 1.800781-11.800781 3.101563 1.601562 5.796875 2.800781 11.796875 4.300781 17.699218-3.898438 1.097657-7.898438 2-11.898438 2.898438-7.199218-30.199219-14.402343-60.398438-21.699218-90.597656 3.898437-1 7.796875-2 11.796875-2.601563 2.5 9.398438 4.402343 18.898438 6.902343 28.300781.898438 3.597657 1.800782 7.199219 2.199219 10.800782-1.601562.398437-3.199219.898437-4.800781 1.296875.902344 3.902343 1.902344 7.703125 2.800781 11.5 5.800781-.597657 11.300781-2.597657 17-3.699219-3.199219-15.5-7.398437-30.800781-10.898437-46.199219-1.601563-6.898437-7.402344-12.300781-14.203125-13.800781-9.5-2.597656-19.796875 4.800781-21.597657 14.300781-1.101562 3.5 0 7.101563.699219 10.601563 5.699219 23.597656 11.5 47.199218 17.101563 70.898437.796875 3.199219 1.398437 6.398438 2.5 9.5zm0 0" fill="#021b44" stroke="#021b44"/><path d="m546.300781 221.5c4 .898438 8.097657 1.601563 12.097657 2.300781 6.601562-38.800781 13.300781-77.5 19.902343-116.300781-3.800781-.601562-7.699218-1.101562-11.402343-1.898437-7.597657 21.898437-17.296875 43-24.398438 65.199218-.699219 2.097657-1.398437 4.199219-2.300781 6.199219 3.601562-16.601562 7.5-33.199219 10-50.101562 1.101562-7.796875 3-15.5 3.800781-23.398438-3.699219-.699219-7.5-1.398437-11.199219-2.101562-1.101562 1.203125-1 2.902343-1.402343 4.300781-6.296875 37.199219-12.699219 74.402344-19.097657 111.699219 3.800782.601562 7.597657 2 11.398438 1.800781 8.5-23.199219 18.300781-45.898438 26.101562-69.398438-.300781 3.699219-1.101562 7.300782-2 10.898438-5 20-7.800781 40.5-11.5 60.800781zm0 0" fill="#011b44" stroke="#011b44"/><path d="m473.5 201.800781c.800781 9.5 10 17.300782 19.5 16.597657 9.101563-.796875 17.300781-9 16.800781-18.296875-.199218-9.703125-.402343-19.402344-.601562-29.101563-1.199219-12.300781-.199219-24.699219-1.398438-37-.402343-11.601562-.101562-23.199219-1.101562-34.800781-3.800781.199219-7.597656.101562-11.398438.300781l-.601562.601563c.402344 17.398437 1.101562 34.796875 1.699219 52.199218-4.097657.097657-8.097657.199219-12.097657.300782-1.101562-10.5-.699218-21-1.101562-31.601563-.800781-7.101562-.597656-14.199219-.800781-21.300781-4 .101562-8 .699219-12.097657.699219.398438 8.902343 0 17.800781.898438 26.601562.402344 11 .101562 22 1 33 .300781 13.898438.601562 27.898438 1.300781 41.800781m12.199219 3.5c0-13.5-.898438-27.101562-1.199219-40.699218 4.101563 0 8.101563-.101563 12.101563-.203125.898437 13.5.898437 27 1.199218 40.5-4 .5-8.101562.402343-12.101562.402343zm0 0" fill="#011b44" stroke="#011b44"/><path d="m485.699219 205.300781c4 0 8.101562.097657 12.101562-.402343-.300781-13.5-.300781-27-1.199218-40.5-4 .101562-8 .203125-12.101563.203125.300781 13.597656 1.199219 27.199218 1.199219 40.699218zm0 0" fill="#fefefe" stroke="#fefefe"/><path d="m484.800781 29.101563c11.800782-.203125 23.597657-.203125 35.398438 0-11.800781-.703125-23.597656-.703125-35.398438 0zm0 0" fill="#001c44" stroke="#001c44"/></g></svg>