<svg enable-background="new 520 -420 2000 1400" viewBox="520 -420 2000 1400" xmlns="http://www.w3.org/2000/svg"><path d="m520-420h2000v1400h-2000z" fill="#1d29d2"/><path d="m520-420v1400l900-700z" fill="#fff"/><path d="m978.4 325.9c10.8 17.6 17.8 39.5 14 73.5l-10.2 5.6c4.6-18.3 1.5-37.2-5.1-56.3z" fill="#00a651"/><path d="m990.2 356.7c-2.4-10.9-6.3-20-11.1-28.2l-1.2 20.2c3.3 9.6 5.7 19.1 6.8 28.5 1 8.9.7 17.7-1.3 26.4l8.3-4.5c1.8-16.9 1-30.6-1.5-42.4m-11.1-31.2c5.5 8.9 10 18.8 12.6 30.9 2.6 12 3.4 26.1 1.5 43.2v.4l-.4.2-10.2 5.6-1.6.9.4-1.7c2.3-9 2.7-18.3 1.6-27.6-1-9.3-3.4-18.8-6.7-28.3l-.1-.2v-.2l1.4-22.8.2-2.5z"/><path d="m980.7 341.7c4.4 6.6 6.8 16.1 8.1 26.1 1.3 9.9 1.4 20.3 1.4 28.8h-1.6c0-8.4-.2-18.8-1.4-28.6s-3.5-19-7.8-25.4z"/><path d="m1014 405.6 12 3.9c14-11 32.6-18.8 54.4-24.6-23.7-1.4-46.2 3.1-66.4 20.7" fill="#00a651"/><path d="m1025.7 410.2-12-3.9-1.3-.4 1-.9c10.2-8.9 21-14.5 32.2-17.7s22.8-4 34.7-3.3l4.9.3-4.7 1.3c-10.8 2.9-20.9 6.3-30 10.3s-17.2 8.7-24.1 14.2l-.3.3zm-10.1-4.9 10.3 3.3c7-5.4 15.1-10.1 24.1-14.1 7.8-3.5 16.3-6.5 25.4-9.1-10-.2-19.8.7-29.2 3.4-10.7 3.1-20.9 8.3-30.6 16.5z"/><path d="m1005 401.8c40.7-23.4 61.9-61.3 77.7-103.3-22.5 39.7-48.2 76.4-85.6 102.4z" fill="#00a651"/><path d="m1053.8 357.6c-12.4 17.8-28 33.2-48.4 44.9l-.2.1h-.3l-7.9-.9-2-.2 1.7-1.2c18.6-13 34.4-28.6 48.3-45.9s25.9-36.4 37.2-56.2l4.9-8.7-3.5 9.4c-8.1 20.9-17.4 40.9-29.8 58.7m-49 43.4c20.1-11.6 35.4-26.8 47.7-44.3 10.4-14.9 18.7-31.5 25.7-48.9-9.8 16.7-20.3 32.7-32.1 47.5-13.6 16.9-28.9 32.2-46.9 45z"/><path d="m1066.2 330.9c-3 6.3-7.6 13.7-12.7 20.8-5.2 7.2-10.9 14.1-16.3 19.5-1.3 1.3-3 3.2-5.1 5.4-6.5 7.1-15.7 17.2-19.2 17.2v-1.6c2.8 0 11.7-9.7 18.1-16.6 2.1-2.3 3.9-4.3 5.1-5.5 5.3-5.3 11-12.2 16.1-19.3 5.1-7 9.6-14.3 12.6-20.6z"/><path d="m999.8 399.8c55.2-76.2 51.1-168.2 12.8-242.8-1.6-3-5.5-2.8-7.2-5.8 10.2 25.3 21.6 51.5 25 77.1 8.2 60.5-5.2 120.8-38.3 169.2z" fill="#fff200"/><path d="m1041.8 283.8c-2.1 40-15 80-41.4 116.4l-.3.4-.5-.2-7.8-2.2-1-.3.6-.9c16.5-24 28-51 34.5-79.5 6.5-28.7 7.8-58.9 3.7-89.1-3.1-22.8-12.5-46.2-21.8-69-1.1-2.7-2.1-5.3-3.2-7.9l-4.5-11.3 5.9 10.6c.7 1.3 2 1.9 3.3 2.5 1.5.8 3 1.5 4 3.3 20.1 39.2 30.8 83.2 28.5 127.2m-42.3 115.1c26-36 38.7-75.6 40.8-115.2 2.3-43.7-8.3-87.4-28.4-126.3-.7-1.3-2-1.9-3.3-2.6-.4-.2-.8-.4-1.2-.6.6 1.6 1.3 3.2 1.9 4.7 9.3 22.9 18.8 46.4 21.9 69.4 4.1 30.5 2.8 60.8-3.7 89.7-6.4 28.3-17.9 55.2-34.1 79.2z"/><path d="m1014.1 380.2c4.6-51.2-13-101.5-36.2-118.7v18.1c19.4 18.1 30.2 64.5 30.1 108.3z" fill="#00a651"/><path d="m1007.7 309.8c6.4 20.8 9.4 45.6 7.1 70.5v.2l-.1.2-6.2 7.7-1.4 1.8v-2.2c.1-22.7-2.8-46-8.3-65.8-5-18.2-12.3-33.3-21.5-41.9l-.3-.3v-.3-18.1-1.6l1.3.9c12.1 8.9 22.7 26.7 29.4 48.9m5.6 70.1c2.2-24.6-.8-49.1-7.1-69.7-6.4-21.1-16.3-38.1-27.6-47.1v16.2c9.3 8.8 16.6 24.1 21.7 42.4 5.3 19.2 8.2 41.9 8.3 64z"/><path d="m1022.2 335.1 3.5-15.8c-1-38.8-22.1-76.3-49.9-110l.6 8.3c25.8 33.1 41.4 72.1 45.8 117.5" fill="#00a651"/><path d="m1026.4 319.5-3.5 15.8-1.1 4.9-.5-5c-2.2-22.6-7.1-43.7-14.8-63.2s-18-37.5-30.9-53.9l-.1-.2v-.2l-.6-8.3-.2-2.4 1.5 1.9c13.9 16.9 26.2 34.8 35.1 53.3s14.5 37.7 15 57.3zm-4 10.7 2.4-11c-.5-19.3-6-38.2-14.8-56.5-8.5-17.7-20.1-34.8-33.3-51l.4 5.6c12.9 16.6 23.3 34.6 31 54.1 7.1 18.3 11.9 37.8 14.3 58.8z"/><path d="m1039.9 291.9h5c-2.8-29.7-29.5-48.2-68.2-62.4v5.4c33.9 11.8 55 30.8 63.2 57" fill="#00a651"/><path d="m1044.9 292.7h-5-.6l-.2-.5c-4.1-13-11.3-24.2-21.7-33.6-10.5-9.4-24.1-17.1-41-23l-.5-.2v-.5-5.4-1.1l1 .4c19.5 7.2 35.9 15.4 47.8 25.6 12 10.2 19.5 22.5 20.9 37.5l.1.8zm-4.5-1.6h3.6c-1.6-14.2-8.8-25.8-20.3-35.6-11.6-9.9-27.5-17.9-46.3-24.9v3.7c16.8 5.9 30.5 13.6 41 23.1s17.9 20.7 22 33.7z"/><path d="m1024.8 324.7-1.2 5.4c8.7-2.7 16.7-7.7 24.3-13.9 10.7-27.2 18.5-55.2 24.7-83.6l3-30.8-22.3 78.5c-9.5 28.2-19 41.4-28.5 44.4" fill="#00a651"/><path d="m1022.9 329.9 1.2-5.4.1-.5.4-.1c4.6-1.4 9.2-5.4 13.8-12.4 4.7-7.1 9.4-17.4 14.1-31.4l22.3-78.5 2.4-8.3-.8 8.6-3 30.8v.1c-3.1 14.2-6.6 28.3-10.6 42.3-4.1 14-8.7 27.8-14.1 41.4l-.1.2-.2.1c-3.8 3.1-7.7 5.9-11.8 8.3s-8.3 4.4-12.7 5.7l-1.3.4zm2.6-4.6-.8 3.6c3.8-1.3 7.5-3.1 11.1-5.2 3.9-2.3 7.7-5 11.5-8 5.3-13.5 9.9-27.3 13.9-41.1 4-13.9 7.5-28 10.6-42.2l2.1-22.1-19.9 70.2c-4.8 14.2-9.6 24.5-14.3 31.8-4.7 7.2-9.4 11.3-14.2 13z"/><path d="m1014.1 363.2.4 3.5c15.2-4.5 28.7-18.1 40.5-40.8l30-63.6-33.5 46.2-9.9 14.4c-3.7 18.4-12.5 32.2-27.5 40.3" fill="#00a651"/><path d="m1013.7 366.8-.4-3.5-.1-.5.5-.3c7.4-4 13.3-9.4 17.8-16 4.5-6.7 7.6-14.6 9.4-23.7v-.2l.1-.1 9.9-14.4 33.5-46.2 4.9-6.8-3.6 7.6-30 63.6c-5.9 11.5-12.3 20.6-19.1 27.5s-14.1 11.5-21.8 13.8l-.9.3zm1.2-3.1.2 2c7.1-2.3 13.9-6.6 20.3-13.1 6.7-6.8 13-15.8 18.8-27.1l26.5-56-28.6 39.4-9.8 14.3c-1.8 9.2-5 17.3-9.6 24.1-4.5 6.8-10.4 12.2-17.8 16.4z"/><path d="m1030.3 297.5 1.3-15c-1.9-16.7-6.4-31.4-12.9-44.6-11.2-24.6-28.3-33.8-42.5-50.7l42.1 61.8 6.4 18c.2 10.2 2 20.4 5.6 30.5" fill="#00a651"/><path d="m1032.4 282.6-1.3 15-.3 3.6-1.2-3.4c-1.8-5.1-3.2-10.2-4.1-15.4-.9-5.1-1.4-10.2-1.5-15.2l-6.4-17.8-42-61.7-8.8-12.9 10 11.9c4.7 5.6 9.7 10.3 14.8 15.1 10.2 9.6 20.3 19.2 27.8 35.7 3.2 6.7 6 13.7 8.2 21.1 2.2 7.5 3.8 15.3 4.8 23.7zm-2.6 11.1 1-11.2c-.9-8.3-2.5-16-4.7-23.4s-4.9-14.3-8.1-20.9c-7.4-16.3-17.4-25.8-27.5-35.2-2.6-2.4-5.1-4.8-7.7-7.4l36.1 53 .1.1v.1l6.4 18v.1.1c.1 5 .6 10.1 1.5 15.1.8 3.9 1.8 7.7 2.9 11.6z"/><path d="m1044.9 286.6c3.4-7.3 5.7-15.4 6.8-24.3l4.5-49.1c.4-19 4.4-37.4 11.9-55.3-8.3 13.2-14.2 28-18.4 45.2-1.5 26.2-4 52.2-7.5 77.3z" fill="#00a651"/><path d="m1049.9 275.3c-1.1 4.1-2.6 8-4.3 11.7l-.7 1.6-.7-1.6-2.8-6.2-.1-.2v-.2c1.7-12.3 3.2-24.8 4.4-37.4 1.3-13.2 2.3-26.5 3.1-39.9v-.1-.1c2.1-8.6 4.7-16.7 7.8-24.2s6.6-14.6 10.8-21.2l5-7.9-3.6 8.6c-3.7 8.9-6.6 18-8.5 27.2-2 9.2-3.1 18.5-3.3 27.9l-4.5 49.1c-.6 4.5-1.4 8.8-2.6 12.9m-5 9.4c1.4-3.2 2.5-6.4 3.5-9.9 1.1-4 2-8.2 2.5-12.6l4.5-49.1c.2-9.5 1.3-18.9 3.3-28.2 1.3-6.1 3-12.2 5.1-18.2-2.1 4-4 8.1-5.8 12.4-3 7.5-5.6 15.4-7.7 23.9-.8 13.3-1.8 26.7-3.1 39.9-1.2 12.6-2.7 25-4.4 37.2z"/><path d="m1029.1 224c-12-24.5-32.2-41-56.5-53.6l-.6 4c24.7 15.2 44.6 34 58.2 57.6z" fill="#00a651"/><path d="m1006 192.1c9.7 8.8 17.8 19.2 23.8 31.5l.1.1v.1l1.1 7.9.6 4-2-3.5c-6.8-11.7-15.1-22.3-24.8-31.8s-20.8-18-33.1-25.5l-.4-.3.1-.5.6-4 .2-1.1 1 .5c12 6.4 23.2 13.8 32.8 22.6m22.3 32.1c-6-12.1-13.9-22.2-23.4-30.9-9.3-8.5-20-15.6-31.7-21.7l-.3 2.3c12.2 7.5 23.3 16 32.9 25.5 8.9 8.7 16.6 18.2 23 28.7z"/><path d="m1027.2 192.4c-15.5-18.6-35.4-20.1-55.1-2.3 20.7-8.5 40.9-6.9 55.1 2.3" fill="#00a651"/><path d="m1023.3 189.2c-6.8-6.8-14.2-10.5-22-10.9-8.1-.4-16.6 2.6-25.2 9.4 8.8-3 17.4-4.3 25.5-3.9 7.9.3 15.2 2.2 21.7 5.4m3 1c.5.5 1 1.1 1.5 1.7l3.3 3.9-4.3-2.8c-7.2-4.6-15.8-7.3-25.3-7.7-9.1-.4-19 1.3-29.1 5.4l-4.1 1.7 3.3-3c.7-.6 1.3-1.2 2-1.8 9.4-7.8 18.8-11.4 27.8-10.9 8.9.6 17.4 5.1 24.9 13.5z"/><path d="m1040 229.4c7.8-39.2 2.6-81.6-9.8-118.8 4.6 35.8 7.8 72.2 6.4 109z" fill="#00a651"/><path d="m1043.7 171.7c1.6 19.4.9 39-2.9 57.8l-.6 2.8-.9-2.7-3.4-9.8v-.1-.1c.7-18.4.3-36.7-.9-54.8-1.2-18.2-3.2-36.2-5.5-54.1l-1-8 2.5 7.7c6.4 19.4 10.9 40.3 12.7 61.3m-3.9 54.7c3.2-17.8 3.8-36.3 2.3-54.5-1.5-18-5-35.8-10-52.8 1.8 15.1 3.4 30.3 4.4 45.6 1.2 18.1 1.7 36.4.9 54.8z"/><path d="m1028.3 191.3c-1.2-29.9-8.2-59.8-15.5-89.8l7.5 71.3z" fill="#00a651"/><path d="m1023.6 146.3c2.8 15 4.9 30 5.5 45l.2 4.2-1.7-3.9-7.9-18.5v-.1-.1l-7.5-71.3-1.2-11.7 2.8 11.5c3.4 14.9 7 29.9 9.8 44.9m3.7 40.7c-.8-13.5-2.7-27-5.2-40.5-2.1-11.1-4.6-22.1-7.2-33.2l6.3 59.3z"/><path d="m1020 169.8c-16-11.6-28.7-16.8-46.6-20.5 20.3 13.4 38.1 24 47.2 26.3 2.2.5-2.1-5.7-.6-5.8" fill="#00a651"/><path d="m997.7 155.9c7.5 3.2 14.7 7.5 22.7 13.3l1.8 1.3-1.7.1c.1.5.4 1.1.7 1.8.5 1.2 1 2.4.8 3.2-.2.7-.6 1-1.5.8-4.7-1.2-11.4-4.4-19.6-9.1-8.1-4.6-17.7-10.6-27.8-17.3l-3.5-2.3 4 .9c8.9 1.8 16.7 4.1 24.1 7.3m21.2 14.1c-7.7-5.5-14.6-9.5-21.8-12.7-6.2-2.7-12.5-4.7-19.7-6.4 8.8 5.7 17 10.8 24.2 14.9 7.8 4.4 14.3 7.6 18.8 8.8-.1-.4-.4-1.1-.7-1.7-.4-1-.8-1.9-.8-2.6 0-.1 0-.2 0-.3z"/><path d="m1009.8 153.6c-9.4-18.1-14-40.5-17-64.5-1.5 14.2-.9 28.8 4.2 44.1l-16.2-15.1v5.3c8.9 8 15.3 16.1 20 24.1-8.3-7.4-17-12.6-26.4-14.7l-1.5 4.5c12.8 3.4 24.8 9.2 34.7 21.5z" fill="#00a651"/><path d="m999.7 123.4c2.7 10.8 6.2 20.9 10.9 29.9l.2.3-.1.3-2.3 5.3-.5 1.2-.8-1c-4.9-6.1-10.3-10.5-16-13.9-5.8-3.4-11.9-5.7-18.3-7.3l-.8-.2.3-.8 1.5-4.5.2-.7.7.2c4.8 1.1 9.4 2.9 13.9 5.5 3.1 1.8 6.1 3.8 9 6.2-1.7-2.6-3.6-5.2-5.7-7.7-3.3-4-7.1-8-11.5-12l-.3-.2v-.3-5.3-1.8l1.3 1.2 14.1 13.1c-2-6.8-3.2-13.4-3.7-19.9-.6-7.4-.4-14.6.4-21.8l.7-6.9.8 6.9c1.4 11.8 3.3 23.4 6 34.2m9.3 30.2c-4.6-9-8.1-19.1-10.8-29.9-2.1-8.6-3.8-17.7-5.1-27-.2 4.6-.2 9.2.2 13.9.6 7.3 2 14.7 4.5 22.3l.9 2.9-2.2-2.1-14.9-13.7v3.1c4.3 4 8.1 7.9 11.4 11.9 3.3 4.1 6.1 8.1 8.5 12.2l2.5 4.3-3.7-3.3c-4.1-3.7-8.3-6.8-12.6-9.3-4.1-2.3-8.3-4.1-12.7-5.1l-1 3.1c6.2 1.7 12.2 4 17.9 7.3 5.6 3.3 10.9 7.5 15.6 13.3z"/><path d="m997.5 132.2c1.1 1.8 5.3 9.5 8.3 15.8 1.9 3.9 3.3 7.4 3.3 8.7h-1.6c0-1.1-1.3-4.3-3.1-8.1-3-6.3-7.2-13.9-8.3-15.6z"/><path d="m981.6 272.3 20.1 34 .1.1v.2l12.6 69.2-1.5.3-12.6-69.1-20-33.9z"/><path d="m1065.8 295.9c-3.5 4-8.9 14.2-14.6 25-8.5 16-17.6 33.2-22.5 33.2v-1.6c4 0 12.9-16.7 21.1-32.4 5.7-10.8 11.2-21.1 14.8-25.3z"/><path d="m1038 260.2h46.8v1.6h-46.8z" transform="matrix(-.2425 .9701 -.9701 -.2425 1572.0377 -705.3829)"/><path d="m1021.2 232.6h59.8v1.6h-59.8z" transform="matrix(-.08300409 .9965 -.9965 -.08300409 1370.8846 -794.7595)"/><path d="m1038.1 150.9 3.5 41.2-1.5.1-3.6-41.1z"/><path d="m990.5 180h19.9v1.6h-19.9z"/><path d="m992.6 156.6c1.2 0 6.9 2.6 11.9 5.3 4.6 2.5 8.8 5.2 8.8 6.1h-1.6c0-.3-3.8-2.5-8-4.8-4.8-2.6-10.1-5.1-11.1-5.1z"/><path d="m1019.6 145.3c0 4.1 1 7.9 2 11.7 1.1 4.1 2.2 8.3 2.2 13.1h-1.6c0-4.6-1.1-8.7-2.2-12.7-1.1-4-2.1-7.8-2.1-12.1z"/><path d="m986.5 223.7h39.2v1.6h-39.2z" transform="matrix(.5795 .815 -.815 .5795 606.0062 -725.5574)"/><path d="m1006.8 260 .7 1.4c6.3 12.6 14.3 28.5 14.3 45.8h-1.6c0-16.9-7.9-32.6-14.1-45.1l-.7-1.4z"/><path d="m720.8 398c2.6 0 4.7 2.5 4.7 5.5 0 3.1-2.1 5.5-4.7 5.5s-4.7-2.5-4.7-5.5 2.1-5.5 4.7-5.5" fill="#ed1c24"/><path d="m723.4 400.3c-.7-.8-1.6-1.3-2.6-1.3s-1.9.5-2.6 1.3-1.1 2-1.1 3.2c0 1.3.4 2.4 1.1 3.2s1.6 1.3 2.6 1.3 1.9-.5 2.6-1.3 1.1-2 1.1-3.2-.4-2.3-1.1-3.2m-2.6-3.3c1.6 0 3.1.8 4.1 2s1.6 2.8 1.6 4.6-.6 3.4-1.6 4.6-2.5 2-4.1 2-3.1-.8-4.1-2-1.6-2.8-1.6-4.6.6-3.4 1.6-4.6 2.5-2 4.1-2z"/><path d="m765.2 432.5c-3.2-10.3-4-20.3-1.3-29.8l-21.8-41.1c-2.1 4-4.5 9.8-5.6 14.3-2.2 8.7-9.9 12.6-8.4 27.7z" fill="#00a651"/><path d="m763.4 417.3c.3 4.9 1.2 9.9 2.8 14.9l1 3.2-2.6-2-37.2-29-.4-.4v-.4c-1-10.2 2-15.5 4.9-20.3 1.4-2.5 2.8-4.8 3.5-7.7.5-2.2 1.4-4.7 2.3-7.1 1.1-2.7 2.3-5.3 3.4-7.4l.9-1.7.9 1.7 21.8 41.1.2.4-.1.4c-1.2 4.7-1.6 9.4-1.4 14.3m-.1 12.4c-1.1-4.2-1.8-8.3-2-12.3-.3-5 .2-9.8 1.5-14.6l-20.7-39c-.8 1.7-1.6 3.5-2.4 5.4-.9 2.4-1.8 4.8-2.3 6.8-.8 3.1-2.3 5.6-3.8 8.2-2.7 4.5-5.5 9.4-4.7 18.7z"/><path d="m739.2 373.8c.3-.3 1-.8 1.8-1 .7-.2 1.5-.2 2.3.2.8.3 1.5 1 2.1 2.2.7 1.5 1.2 3.9 1.2 7.5 0 1 .8 1.8 1.3 2.3.4.4.7.7.7 1.2h-1.6c0-.2-.1.1-.3-.1-.7-.7-1.8-1.7-1.8-3.5 0-3.4-.4-5.6-1-6.8-.4-.8-.8-1.2-1.3-1.4-.4-.2-.9-.2-1.3-.1-.5.1-.9.4-1 .5z"/><path d="m730 395.7h21.5v1.6h-21.5z" transform="matrix(.3988 .917 -.917 .3988 808.8918 -440.9371)"/><path d="m748.9 381c0 4.6-.9 8.7-1.7 12.8-.8 3.9-1.6 7.8-1.6 12 0 .7.5 1.6 1 2.4.5.7.9 1.5 1 2.2l1 5.7-1.5.3-1-5.7c-.1-.4-.4-1-.8-1.6-.6-1-1.2-2-1.2-3.2 0-4.4.8-8.3 1.7-12.3.8-4 1.7-8 1.7-12.5h1.4z"/><path d="m753.3 390.2c.7 3.1 1.1 6.1.8 8.7-.4 2.8-1.7 5.1-4.5 6.9-.9.6-.8 10.1-.8 10.1h-1.6s-.1-10.5 1.5-11.5c2.3-1.5 3.4-3.5 3.7-5.8.4-2.4-.1-5.2-.7-8.2z"/><path d="m757 405.6-2.2 10.6 4.4 5.7-1.3 1-4.6-6-.2-.3.1-.4 2.3-10.9z"/><path d="m734 394.3c0 .1 1.1 1.6 2.5 3.3 2.2 2.8 5 6.3 5.4 8.2.5 1.8.3 3.6.2 4.8 0 .4-.1.8-.1 1.1h-.4v1.6c-.9 0-1.2-.6-1.2-1.6 0-.3 0-.7.1-1.2.1-1.2.2-2.8-.2-4.3-.4-1.6-3.1-5-5.2-7.6-1.6-2-2.9-3.7-2.9-4.3z"/><path d="m743.2 381.3s.1.3.2.9c.5 3 2.1 11.7 2.1 16.5 0 2.4-.5 4-1.7 4v-1.6c.1 0 .1-1 .1-2.4 0-4.7-1.5-13.2-2.1-16.2-.1-.7-.2-1.1-.2-1.2z"/><path d="m676.6 421.1c1.9-5.3 17.7-7.2 34.2-9.6-6.2-9.3-14.5-17.9-21.4-23.5-13.5-.1-24.6-3.7-34.5-11.8-4.8.6-6.6 2.7-5.5 6.3 6.4 16.5 14.9 30.1 27.2 38.6" fill="#00a651"/><path d="m707.9 413c-15.1 2.1-28.8 4.1-30.4 8.5l-.5 1.3-1.1-.8c-6.2-4.3-11.5-9.9-16-16.6-4.5-6.6-8.3-14.2-11.5-22.5v-.1c-.7-2.2-.4-3.9.8-5.2 1.1-1.3 3-2 5.6-2.4l.5-.1.3.3c4.8 4 10 6.8 15.6 8.7s11.6 2.8 18.3 2.8h.4l.3.2c3.7 3 7.8 6.9 11.8 11.3 3.5 3.8 6.9 8.1 9.8 12.5l.9 1.4-1.6.2zm-31.7 6.6c3.5-4.7 16.8-6.6 31.4-8.7l1.4-.2c-2.6-3.8-5.6-7.5-8.7-10.9-3.8-4.2-7.7-7.9-11.3-10.8-6.7-.1-12.9-1-18.6-2.9s-10.9-4.8-15.9-8.8c-1.9.3-3.1.8-3.8 1.6s-.8 1.8-.4 3.2c3.2 8.2 6.8 15.6 11.2 22.1 4.3 6.1 9.1 11.3 14.7 15.4z"/><path d="m653.3 380.3c2.9 0 5.2 1.5 7.2 3.7 1.9 2 3.4 4.7 4.5 6.9 1.4 2.7 5.5 4.4 9.4 6 2.7 1.1 5.4 2.2 7.3 3.6l12 9.2-.9 1.2-12-9.2c-1.7-1.3-4.3-2.4-7-3.4-4.3-1.7-8.6-3.5-10.3-6.7-1.1-2.1-2.5-4.6-4.2-6.5-1.7-1.8-3.7-3.2-6-3.2z"/><path d="m687.5 391.8c0 .8 1.5 6.1 3.1 10.7 1.2 3.5 2.1 6.7 2.1 6.7v1.6c-.8 0-2.3-3.6-3.6-7.7-1.6-4.7-3.1-10.3-3.1-11.2z"/><path d="m701.2 401.1c0 1.1.3 4.6 1 7.2.4 1.5.8 2.8 1.2 2.9l-.7 1.4c-.9-.4-1.5-2.1-2-4-.6-2.8-1-6.4-1-7.6h1.5z"/><path d="m692.3 409.8v.2h.3zm-24.5-2c2.7-1.1 6.2-2.2 9.4-2.2 2.5 0 4.8.6 6.5 2.3.2.2 2.9 1.1 5.4 1.6.9.2 1.8.3 2.5.3h.8l.2.2h1.3c0 .3-.1.5-.2.7-.4.5-1.1.8-2.1.8-.8 0-1.8-.2-2.8-.3-2.7-.5-5.8-1.6-6.2-2-1.4-1.4-3.3-1.9-5.4-1.9-3 0-6.2 1-8.8 2z"/><path d="m668.9 401.2c1 .4 1.9 1.3 2.7 2.2.9 1 1.9 2 2.7 2v1.6c-1.4 0-2.6-1.2-3.8-2.4-.8-.8-1.5-1.6-2.2-1.9z"/><path d="m664.4 385.6c.2.3.5.9.9 1.5 1.6 2.8 3.3 5.7 5.3 8.2.1.1.2.3.2.5v2.2l-1.4-1.7c-.1-.2-.3-.3-.4-.5-.2.1-.4.3-.6.2-1-.3-2.2-.5-2.5-.5-2.7 0-3.8-.9-5.3-2.2-.4-.3-.8-.6-1.2-1l.9-1.3c.5.4.9.7 1.3 1 1.3 1 2.2 1.8 4.3 1.8.3 0 1.1.2 2 .4-1.4-2.1-2.7-4.3-3.9-6.4-.2-.4-.5-.8-.9-1.5z"/><path d="m667.1 361.1c4.6 10.1 17.2 13.5 27.6 16.3 1.6.4 3.1.8 4.7 1.3 1.2.3 2.3 1 3.3 1.8s1.8 1.6 2.5 2.3l2.5 2.7-1.2 1-2.4-2.7c-.7-.7-1.5-1.5-2.4-2.2-.8-.7-1.8-1.2-2.8-1.5-1.4-.4-3-.8-4.7-1.3-10.8-2.9-23.8-6.4-28.6-17.2z"/><ellipse cx="707.1" cy="393.3" fill="#ed1c24" rx="4.7" ry="5.5"/><ellipse cx="707.1" cy="393.3" fill="none" rx="4.7" ry="5.5" stroke="#000" stroke-miterlimit="22.9256" stroke-width=".3736"/><path d="m707.1 387.8c2.6 0 4.7 2.5 4.7 5.5 0 3.1-2.1 5.5-4.7 5.5s-4.7-2.5-4.7-5.5 2.1-5.5 4.7-5.5" fill="#ed1c24"/><path d="m709.7 390.1c-.7-.8-1.6-1.3-2.6-1.3s-1.9.5-2.6 1.3-1.1 2-1.1 3.2c0 1.3.4 2.4 1.1 3.2s1.6 1.3 2.6 1.3 1.9-.5 2.6-1.3 1.1-2 1.1-3.2-.4-2.4-1.1-3.2m-2.6-3.3c1.6 0 3.1.8 4.2 2 1 1.2 1.6 2.8 1.6 4.6s-.6 3.4-1.6 4.6c-1.1 1.2-2.5 2-4.2 2s-3.1-.8-4.1-2-1.6-2.8-1.6-4.6.6-3.4 1.6-4.6c1-1.3 2.5-2 4.1-2z"/><path d="m713.8 381.1c2.6 0 4.7 2.5 4.7 5.5 0 3.1-2.1 5.5-4.7 5.5s-4.7-2.5-4.7-5.5c-.1-3 2.1-5.5 4.7-5.5" fill="#ed1c24"/><path d="m716.3 383.4c-.7-.8-1.6-1.3-2.6-1.3s-1.9.5-2.6 1.3-1.1 2-1.1 3.2c0 1.3.4 2.4 1.1 3.2s1.6 1.3 2.6 1.3 1.9-.5 2.6-1.3 1.1-2 1.1-3.2c.1-1.2-.4-2.4-1.1-3.2m-2.5-3.3c1.6 0 3.1.8 4.2 2 1 1.2 1.6 2.8 1.6 4.6s-.6 3.4-1.6 4.6-2.5 2-4.2 2-3.1-.8-4.1-2-1.6-2.8-1.6-4.6.6-3.4 1.6-4.6c1-1.3 2.5-2 4.1-2z"/><path d="m718.5 390.2c2.6 0 4.7 2.5 4.7 5.5 0 3.1-2.1 5.5-4.7 5.5s-4.7-2.5-4.7-5.5 2.1-5.5 4.7-5.5" fill="#ed1c24"/><path d="m721 392.5c-.7-.8-1.6-1.3-2.6-1.3s-1.9.5-2.6 1.3-1.1 2-1.1 3.2c0 1.3.4 2.4 1.1 3.2s1.6 1.3 2.6 1.3 1.9-.5 2.6-1.3 1.1-2 1.1-3.2-.3-2.4-1.1-3.2m-2.5-3.4c1.6 0 3.1.8 4.2 2 1 1.2 1.6 2.8 1.6 4.6s-.6 3.4-1.6 4.6c-1.1 1.2-2.5 2-4.2 2s-3.1-.8-4.1-2-1.6-2.8-1.6-4.6.6-3.4 1.6-4.6 2.5-2 4.1-2z"/><path d="m711.8 396.8c2.6 0 4.7 2.5 4.7 5.5s-2.1 5.5-4.7 5.5-4.7-2.5-4.7-5.5 2.1-5.5 4.7-5.5" fill="#ed1c24"/><path d="m714.4 399.2c-.7-.8-1.6-1.3-2.6-1.3s-1.9.5-2.6 1.3-1.1 2-1.1 3.2c0 1.3.4 2.4 1.1 3.2s1.6 1.3 2.6 1.3 1.9-.5 2.6-1.3 1.1-2 1.1-3.2c0-1.3-.4-2.4-1.1-3.2m-2.6-3.4c1.6 0 3.1.8 4.1 2s1.6 2.8 1.6 4.6-.6 3.4-1.6 4.6-2.5 2-4.1 2-3.1-.8-4.1-2-1.6-2.8-1.6-4.6.6-3.4 1.6-4.6 2.5-2 4.1-2z"/><path d="m920 524.2c-35.3-7.3-70.5-14.8-104.1-30.3-9.5-2.2-18.9-2.7-27.8 0-20.3 13.8-36.7 12.1-50.1-1.4l-21.9-2.8-24.8-16.3c-3.7-3.6-2.1-5.9 3.1-6.2l16.9-2c32.9 8.9 65.8 17.9 98.6 26.8l29.6 3.8c19.6 8.1 40 12.2 60.5 15.7z" fill="#00a651"/><path d="m801.8 491.1h.8l-91.4-24.9-16.7 2h-.1c-1.4.1-2.5.3-3.3.7-.4.2-.7.4-.8.7-.1.2-.1.5.1.9.2.6.7 1.3 1.5 2l24.5 16.1 21.7 2.8h.4l.3.3c6.5 6.5 13.7 10.2 21.8 10.6s17.1-2.6 27-9.3l.1-.1h.2c4.4-1.3 9.1-1.9 13.9-1.8m65.7 20c15.6 4.2 31.3 7.6 47 10.9l-15-9.5c-10.2-1.8-20.4-3.7-30.5-6.1-10.1-2.5-20.1-5.5-29.9-9.6l-20.2-2.6c16 7.1 32.2 12.5 48.6 16.9zm52.3 14.2c-17.7-3.7-35.4-7.4-52.8-12.1s-34.6-10.5-51.4-18.2c-4.7-1.1-9.3-1.7-13.8-1.8s-8.9.5-13.3 1.7c-10.3 7-19.6 10-28.1 9.6s-16.1-4.2-22.9-11l-21.5-2.8h-.2l-.2-.1-24.8-16.3-.1-.1-.1-.1c-1.1-1-1.8-2-2.1-2.9s-.3-1.7 0-2.5c.3-.7.9-1.3 1.7-1.7 1-.5 2.4-.8 4.1-.9l16.9-2h.2.2l98.6 26.8 29.5 3.8h.1.1c9.8 4 19.7 7.1 29.8 9.5 10.1 2.5 20.3 4.4 30.5 6.1h.2l.2.1 20 12.7 4.8 3z"/><path d="m694.9 470.7c7.2 1.2 11.8 3.3 16.4 5.5 2.9 1.3 5.7 2.7 9.2 3.8.6.2 2.5.3 4.6.5 4.9.3 11.5.8 11.5 3.2h-1.6c0-1-5.7-1.4-10-1.7-2.3-.2-4.2-.3-5-.5-3.6-1.2-6.5-2.5-9.4-3.9-4.6-2.1-9-4.2-16-5.3z"/><path d="m768.4 490.4c4.9 3.1 8.5 1.6 12.2.2 2.2-.9 4.5-1.8 7-1.8v1.6c-2.3 0-4.3.8-6.4 1.7-4 1.6-8 3.2-13.6-.3z"/><path d="m749.2 495.1 24 .7v1.6l-24.1-.8z"/><path d="m712.2 480.3c0 .1 3.1 1 6.9 2 6.3 1.7 14.6 3.5 15.7 3.5v1.6c-1.2 0-9.6-1.8-16-3.5-4.5-1.2-8-2.5-8-3.5z"/><path d="m808.7 527.3c7.5-4 14.2-8.4 17.8-14.4l57-15.9 4.4-1.1 45.9-10 71.4-4.1 42.2-11.8c-12.6 5.9-25.7 11.3-40.3 15.2-19.9 10.1-40.2 12.8-61 8.1l-31.4-2.2-13.8 6.1c-9.7 3.1-16.5 4.9-20.3 9l-44 15.2c-7.8.4-17.4 3.5-27.9 5.9" fill="#00a651"/><path d="m734.1 474c4.5 3.3 9.5 6.5 14.5 8.8s10.2 3.8 15.3 3.8v1.6c-5.3 0-10.7-1.5-15.9-3.9s-10.2-5.6-14.8-8.9z"/><path d="m833.5 514.4c7.2 1.1 14.5-2.1 21.8-5.4 5.5-2.4 11.1-4.9 16.7-5.5l.2 1.6c-5.4.6-10.8 3-16.3 5.4-7.5 3.3-15 6.6-22.7 5.5z"/><path d="m819.7 521.6c-1.3 1-2.7 2-4.2 2.9.8-.2 1.7-.4 2.5-.6 6.8-1.7 12.9-3.3 18.2-3.6l43.6-15c3.6-3.8 9.5-5.7 17.7-8.2l2.8-.9 8.8-3.9-21 4.6-4.4 1.1-56.5 15.8c-1.9 2.9-4.5 5.5-7.5 7.8m102.2-32.1h21.9l.1-.7c14 1.1 25.9-.6 36.8-2.1 7.5-1 14.5-2 21.4-2v1.6c-6.8 0-13.8 1-21.2 2-3.3.5-6.7.9-10.2 1.3h15.8v1.6l-57-.1 16.4 1.2h.1.1c20.6 4.6 40.7 2 60.3-8h.1.1c7.3-1.9 14.1-4.3 20.8-6.8 2-.8 4-1.6 5.9-2.4l-28 7.9h-.1-.1l-71.3 4.1zm-113.7 36.9c3.7-2 7.2-4.1 10.2-6.4 2.9-2.3 5.4-4.8 7.1-7.7l.2-.4.4-.1 56.9-15.9 4.4-1.1 45.9-10h.1.1l71.3-4.1 42.1-11.8 12.5-3.5-11.8 5.5c-6.3 2.9-12.8 5.8-19.5 8.3-6.7 2.6-13.6 4.9-20.9 6.8-20 10.2-40.5 12.9-61.5 8.2l-31.1-2.2-13.5 6h-.1c-1.7.6-2.3.7-2.8.9-8.1 2.5-13.8 4.3-17 7.8l-.2.2-.2.1-44 15.2h-.1-.2c-5.1.3-11.3 1.8-18 3.5-3 .8-6.2 1.6-9.6 2.3l-7.5 1.7z"/><path d="m704.5 389.3-23.8-8.8c-11.6-2.8-18.9-12.4-22.5-27.7-10.3-7.4-18.3-16.8-22.7-29.3 1.3-9 1.1-17.9.3-26.8 3.1-1.2 5.8-.5 8.2 1.9l11 10.1c8.6 2.6 14.3 8.5 17.1 17.7 6.5 10.6 14.3 19 23.7 24.5 2.9-6 7.9-10.1 8.6-18 6.3-5.3 10-13.2 11.2-23.6l26.6-20.8-3 36.7-7.4 13.2c.7 14.1-2.2 22.3-8.8 24.7-4.3 6.3-7.9 12.6-9.3 18.9l-5.5 6.6z" fill="#00a651"/><path d="m681 379.6 23.5 8.7 2.9-.7 5.1-6.1c.7-3.2 2-6.3 3.6-9.5s3.6-6.4 5.8-9.6l.2-.3.3-.1c3-1.1 5.1-3.5 6.5-7.3 1.4-4 1.9-9.4 1.6-16.3v-.3l.1-.3 7.3-13 2.8-34.1-24.3 19.1c-.6 5.1-1.8 9.7-3.7 13.6s-4.3 7.3-7.4 9.9c-.6 5.3-3 8.9-5.3 12.5-1.2 1.8-2.4 3.5-3.3 5.5l-.5 1-1-.6c-4.8-2.8-9.2-6.3-13.2-10.5s-7.6-9-10.9-14.3l-.1-.1v-.1c-1.3-4.4-3.4-8.1-6.1-10.9s-6.2-4.8-10.3-6.1l-.2-.1-.2-.2-11-10.1c-1-1.1-2.2-1.8-3.3-2-1-.2-2-.2-3 .1.4 4.2.6 8.5.6 12.7 0 4.5-.3 8.9-.9 13.3 2.2 6 5.2 11.3 8.9 16 3.8 4.8 8.3 8.9 13.3 12.5l.3.2.1.4c1.8 7.5 4.4 13.5 8 18.1s8.2 7.6 13.8 9zm23.1 10.7-23.8-8.8c-6-1.5-10.9-4.7-14.7-9.5-3.8-4.7-6.5-10.9-8.3-18.5-5.1-3.7-9.6-7.9-13.5-12.7-3.9-4.9-7.1-10.5-9.3-16.9l-.1-.3v-.3c.7-4.4.9-8.9 1-13.3 0-4.4-.3-8.9-.7-13.3l-.1-.8.7-.3c1.8-.7 3.4-.8 5-.5 1.6.4 3 1.2 4.4 2.6l10.7 9.9c4.4 1.4 8 3.5 11 6.6 2.9 3 5.1 6.9 6.6 11.6 3.2 5.2 6.7 9.8 10.6 13.9 3.6 3.8 7.5 7 11.8 9.6.9-1.7 1.9-3.2 2.9-4.7 2.3-3.5 4.6-7 5-12v-.4l.3-.3c3-2.6 5.4-5.7 7.2-9.5s3-8.3 3.6-13.4v-.4l.4-.3 26.6-20.8 1.9-1.5-.2 2.4-3 36.7v.2l-.1.2-7.3 12.9c.3 7-.2 12.6-1.7 16.8-1.5 4.3-4 7.1-7.4 8.5-2.1 3-4 6.1-5.5 9.1-1.6 3.1-2.8 6.1-3.5 9.2l-.1.2-.2.2-5.5 6.6-.2.3-.3.1-3.6.8-.3.1z"/><path d="m857.2 450c59.1-1 117.1-47 120.7-95.6l-.9-185.5h-119.8-119.8l-.9 185.5c3.6 48.6 61.7 94.6 120.7 95.6" style="fill:#0093d0;stroke:#000;stroke-width:3.4593;stroke-linecap:round;stroke-linejoin:round;stroke-miterlimit:10"/><path d="m676.5 422.1c5.3-6.2 15.7-9.2 52.5-17.7 85.7 78.1 175.4 72.1 263.1-5 16.3 3.3 32.6 9.5 48.9 14.2 5 3.8 4.3 9.7-2.1 19.9l29.1 15.5c-34.4-6-65.1 4.8-90.1 40.4-6.6 6.6-14.2 6.6-22.7 0l-5-12c-59.3 24-118.7 28-178 2.8-1.2 4.7-3.7 6.9-7.8 6.4-.8 7.9-6.4 8.1-14.2 5-31.4-30.3-63.9-41.4-97.1-37.6l27.7-17.7c-2.7-4.6-4.1-9.4-4.3-14.2" fill="#0093d0"/><path d="m694 166c2.5 0 4.6 1.8 4.6 4s-2.1 4-4.6 4-4.6-1.8-4.6-4 2.1-4 4.6-4" fill="#ed1c24"/><path d="m696.6 168c-.7-.6-1.6-.9-2.6-.9s-1.9.3-2.6.9c-.6.5-1 1.2-1 2s.4 1.5 1 2c.7.6 1.6.9 2.6.9s1.9-.3 2.6-.9c.6-.5 1-1.2 1-2s-.4-1.5-1-2m-2.6-3c1.5 0 2.9.5 3.9 1.4 1.1.9 1.7 2.2 1.7 3.6s-.7 2.7-1.7 3.6-2.4 1.4-3.9 1.4-2.9-.5-3.9-1.4c-1.1-.9-1.7-2.2-1.7-3.6s.7-2.7 1.7-3.6 2.4-1.4 3.9-1.4z"/><path d="m709 77.5-8-6-3.5-8.5 10.5-3 2.5 6 8-2.5-4-7 11-3 3.5 7.5-5.5 8.5 16.1 27.5 3-1-2.5-6 5.5-1.5 2.5 6.5 5-1-2.2-7.5 6.4-2 2.7 8.1 1.2-.6-2-31.6-11.6-5.5-3.4-8 10.5-3.6 2.9 8.2 7.5-1.5-2.3-7.6 9.3-1.7 2.1 7.4 4.8-1.1-1.5-7.8 8.9-1.3.5 7.5 8.2-1.3-.9-8.4 10.6-.6.3 6.9-8.4 9.3 11 31.1 3.5-1-1-7.9h6.6l.8 7 3.6-.2-.7-8.2 5.6-.4.7 7.5 2.9.5 2-33.6-8-6.5v-7.5l8.9-.1.3 7.1 6.7-.4v-7.8h9.4l.5 7.5 6.5.1.1-7.7 9.9.2-.3 7 7.8.1.1-7.1 9.9.5.2 6.8-9.4 6.8 4 33.3 2.8.2-.5-8.2 6.1.3-.2 8.5 5-.1v-8.8l6.2.2v9.4l3 .5 1.3-6.8 6.5-23-7-8.1.5-10.3 9.5 1.7-.3 6.9 7.5 1.3.3-7 9.5 1.9-.9 6.7 7.1 1.5 1-7.6 9.6 2.1-1.3 7.5 7.2 1.7 1.6-7.9 9.5 2.8-1.9 7.6-12 4.8-1.6 31 4 .7 1.5-6.9 5.1 2.3-1.5 7.3 4.2 1.4 1.9-7.5 5.6 1.7-.6 7.8 13.9-28.8-4.4-9.4 2.8-9 10.4 3.9-3.4 8.4 9.1 3.9 3-8.8 11.2 6-3.3 8-6.9 3.3-27.7 77c-76.7-25.6-153.2-28.5-231.1 3.1z" fill="#e6e7e8"/><path d="m742.2 150.3 11.5-4.9c-3.8-6.7-8.1-12.6-13-17.9-4.3-4.6-9-8.8-14.1-12.7z" fill="#f58220"/><path d="m960.5 143.3 11.4 4.3 12.7-37.9c-10.5 8.6-17 20.5-24 33.2z" fill="#f58220"/><path d="m782.3 137.5c4.5-1.3 9.1-2.5 13.8-3.6s9.4-2 14.3-2.8c-2.8-6.6-6.1-12.7-10-18.5-3.8-5.7-8.1-11.1-13-16.3-2.1 6.8-3.5 13.6-4.3 20.4-.9 6.9-1.1 13.8-.8 20.8" fill="#f58220"/><path d="m903.7 130.6 26.6 5c.3-6.9-.1-13.8-1.4-20.9-1.2-6.9-3.2-14-5.9-21.1-9.2 9.9-15.6 22.2-19.3 37" fill="#f58220"/><path d="m841 128 28.9-.7c-1-6.8-2.9-13.1-5.5-19.4-2.6-6.2-6-12.4-10-19.1-3.7 6.3-6.5 12.4-8.7 18.7-2.1 6.5-3.6 13.2-4.7 20.5" fill="#f58220"/><path d="m757.1 402.5c27.4 30.7 64.8 47.9 102 47.6 36-.3 71.8-17.1 98.3-47.9-62.2-17-95.5-57.8-99.7-116-4.2 58.2-38.7 93.2-100.6 116.3" style="fill:#fed09e;stroke:#000;stroke-width:3.4593;stroke-linecap:round;stroke-linejoin:round;stroke-miterlimit:10"/><path d="m720.4 307.2c.2.4.7 3.5.6 6.9 0 2-.3 4-.8 5.7-.5 1.6-1.6 2.2-2.7 2.7-.8.4-1.6.8-1.8 1.9-.7 3.8.1 7.2.5 8.7.1.5.2.8.2.9h-1.6s0-.2-.1-.6c-.4-1.6-1.3-5.2-.5-9.3.3-1.8 1.5-2.4 2.7-3 .8-.4 1.6-.8 2-1.8.5-1.5.7-3.4.7-5.2.1-3.1-.3-5.9-.5-6.2z"/><path d="m644.3 318.9c1 1.7 4 6.1 7 10.5 2.9 4.3 5.9 8.4 7.1 9.9l-.1.1c.2.2.3.4.3.4v2.2l-1.4-1.7c-.3-.3-.6-.8-1-1.3-1.3-1.2-3.8-3.7-6-5.9l-4.3-4.3c-2.6 0-3.8-.9-5.3-2.2-.4-.3-.8-.7-1.2-1l.9-1.3c.5.4.9.7 1.3 1 1.3 1 2.2 1.8 4.3 1.8.5 0 2.7 2 5.2 4.5-.3-.5-.7-1-1-1.4-3.1-4.4-6.1-9-7.1-10.6z"/><path d="m640.6 300.9c1.7 4.8 4.3 8.4 6.7 11.9 1.8 2.6 3.6 5.1 5 8l-1.4.7c-1.4-2.8-3.1-5.3-4.9-7.8-2.5-3.6-5.1-7.3-6.9-12.3z"/><path d="m642.2 314c.8 1.7 3.6 5.5 6.5 8.4 2 2 4 3.4 5.3 3.4 1.5 0 2.6 2.3 3.7 4.5.8 1.6 1.5 3.2 1.8 3.2v1.6c-1.3 0-2.2-2-3.2-4.1-.8-1.8-1.7-3.6-2.2-3.6-1.8 0-4.2-1.7-6.4-3.9-3.1-3-6-7.1-6.9-8.9z"/><path d="m656.8 311c1 3.4 2.7 7.5 4.4 11.8 3.2 7.8 6.7 16.3 6.7 22.4h-1.6c0-5.8-3.4-14.1-6.5-21.8-1.8-4.4-3.5-8.5-4.5-12z"/><path d="m707.2 385.9c-.1.1-.3.3-.4.4h.4zm-47.7-39.9c3.4 2.4 7.7 3.7 12 4.9 5.4 1.6 10.7 3.2 14.2 7l14.8 16.1c2.2 2.2 4.8 7 6.3 9.8.5 1 .2 1.8.6 1.8.2 0 .1.2 0 .3v.4h.8c0 .5-.3.8-.8.8-.6 0-1.1-1-2-2.6-1.5-2.7-3.9-7.4-6-9.5l-14.8-16.2c-3.2-3.5-8.3-5-13.5-6.5-4.4-1.3-8.9-2.6-12.4-5.2z"/><path d="m686.9 345.5c0 2.5.2 9.8 1.6 14.8.8 2.7 1.8 4.7 3.3 4.7v1.6c-2.4 0-3.9-2.5-4.8-5.8-1.5-5.2-1.7-12.6-1.7-15.2z"/><path d="m705.8 373.8c-.1.1-.3.3-.4.4h.4zm-8.2-24.2c0 3.6.5 7.9 1.7 11.7.9 3.1 2.3 5.9 4.1 7.7.7.7 1.6 2.3 2.3 3.5.3.6-.2 1 .2 1 .2 0 .1.2 0 .3v.4h.8c0 .6-.3.8-.8.8s-1-.8-1.5-1.8c-.6-1.1-1.5-2.6-2-3.1-2.1-2.1-3.5-5.1-4.5-8.4-1.2-4-1.7-8.5-1.7-12.2z"/><path d="m712.4 334.3-1.9 28.2c0 1.8.1 3.6.3 5.4.1 1.9.3 3.7.3 5.5v.1l-.8 6-1.5-.2.8-6c0-1.8-.1-3.6-.3-5.4-.1-1.9-.3-3.7-.3-5.5l1.9-28.2z"/><path d="m737.9 302.1c-.8 5.2-3.7 8.1-6.6 11.1s-5.8 6-6.6 11.3c-.8 4.8-3.2 8.8-5.7 12.8-2.1 3.4-4.1 6.8-5 10.5-.3 1.3-.8 2.4-1.4 3.5-.7 1.4-1.4 2.8-1.4 4.3l-.3 8.5h-1.6l.3-8.5c0-1.9.8-3.5 1.5-5 .5-1 1-2 1.2-3.1.9-4 3.1-7.5 5.2-11 2.4-3.8 4.8-7.8 5.5-12.2.9-5.8 4-9 7-12.2 2.7-2.8 5.4-5.6 6.2-10.3z"/><path d="m727.9 302.3c-2.4 4.2-3.8 9.4-4.6 14.8s-1 11-1 15.8h-1.6c0-4.8.2-10.5 1-16 .8-5.6 2.3-11 4.8-15.4z"/><path d="m737.5 312.2-11.8 21.4c-.9 1.6-2.9 2.6-5 3.6-2.6 1.3-5.4 2.6-5.4 5.2h-1.6c0-3.6 3.2-5.1 6.2-6.6 1.8-.9 3.6-1.8 4.3-3l11.8-21.4z"/><path d="m725.6 351.6c-.9.7-1.6 1.3-2.2 1.8-3.9 3-5.9 4.7-8 8.9-.2.4-.6 1-1.3 1.9-1.4 1.8-3.4 4.7-3.4 5.7h-.1v1.4c-1 0-1.5-.5-1.5-1.4 0-1.5 2.3-4.6 3.7-6.6.6-.8 1.1-1.4 1.1-1.5v-.1c2.2-4.6 4.3-6.3 8.4-9.5.7-.6 1.5-1.2 2.2-1.7z"/><path d="m684.3 328.1c2.6 0 4.7 2.5 4.7 5.5 0 3.1-2.1 5.5-4.7 5.5s-4.7-2.5-4.7-5.5 2.1-5.5 4.7-5.5" fill="#ed1c24"/><path d="m686.9 330.4c-.7-.8-1.6-1.3-2.6-1.3s-1.9.5-2.6 1.3-1.1 2-1.1 3.2c0 1.3.4 2.4 1.1 3.2s1.6 1.3 2.6 1.3 1.9-.5 2.6-1.3 1.1-2 1.1-3.2-.4-2.4-1.1-3.2m-2.6-3.3c1.6 0 3.1.8 4.1 2s1.6 2.8 1.6 4.6-.6 3.4-1.6 4.6-2.5 2-4.1 2-3.1-.8-4.1-2-1.6-2.8-1.6-4.6.6-3.4 1.6-4.6c1-1.3 2.5-2 4.1-2z"/><path d="m694.5 326.1c2.6 0 4.7 2.5 4.7 5.5 0 3.1-2.1 5.5-4.7 5.5s-4.7-2.5-4.7-5.5 2.1-5.5 4.7-5.5" fill="#ed1c24"/><path d="m697.1 328.4c-.7-.8-1.6-1.3-2.6-1.3s-1.9.5-2.6 1.3-1.1 2-1.1 3.2c0 1.3.4 2.4 1.1 3.2s1.6 1.3 2.6 1.3 1.9-.5 2.6-1.3 1.1-2 1.1-3.2-.4-2.3-1.1-3.2m-2.6-3.3c1.6 0 3.1.8 4.1 2s1.6 2.8 1.6 4.6-.6 3.4-1.6 4.6-2.5 2-4.1 2-3.1-.8-4.2-2c-1-1.2-1.6-2.8-1.6-4.6s.6-3.4 1.6-4.6c1.1-1.3 2.6-2 4.2-2z"/><path d="m693.8 334.4c2.6 0 4.7 2.5 4.7 5.5 0 3.1-2.1 5.5-4.7 5.5s-4.7-2.5-4.7-5.5 2-5.5 4.7-5.5" fill="#ed1c24"/><path d="m696.3 336.7c-.7-.8-1.6-1.3-2.6-1.3s-1.9.5-2.6 1.3-1.1 2-1.1 3.2c0 1.3.4 2.4 1.1 3.2s1.6 1.3 2.6 1.3 1.9-.5 2.6-1.3 1.1-2 1.1-3.2c.1-1.2-.4-2.4-1.1-3.2m-2.5-3.4c1.6 0 3.1.8 4.1 2s1.6 2.8 1.6 4.6-.6 3.4-1.6 4.6-2.5 2-4.1 2-3.1-.8-4.2-2c-1-1.2-1.6-2.8-1.6-4.6s.6-3.4 1.6-4.6c1.1-1.2 2.5-2 4.2-2z"/><path d="m709.4 294.5v-3.4c5.7-1.1 9.3-7.1 10.6-17.8l11.8-16.3 3.8-33h-5.7l-20.9 16.6c-7.9 5.3-14.5 13-18 26.2l-8.2 13.3-1.9-18.2-6.2.7-.3 4.3-3.4-4.6-6.8-23.2-10.3-14.8-5.7-9.9c-2-2.7-5-2.1-6.1.8l-4.9 23.2c0 7.8 1.8 14.8 5.3 20.9-1.9 10.5-1.4 20 4.6 27l8.7 11c9.8 6.5 17.7 13.5 24.9 23.6l9-.5c3.4-12.8 7.5-18.9 19.7-25.9" fill="#00a651"/><path d="m710.4 291.9v2.6.6l-.5.3c-6 3.4-9.9 6.6-12.8 10.5s-4.7 8.5-6.4 14.7l-.2.7h-.8l-9 .5h-.6l-.3-.5c-3.5-5-7.3-9.2-11.3-13-4.1-3.8-8.4-7.1-13.3-10.4l-.1-.1-.1-.1-8.7-11c-3.1-3.7-4.8-7.9-5.5-12.7-.6-4.6-.3-9.5.6-14.8-1.7-3-3-6.3-3.9-9.7-.9-3.6-1.4-7.3-1.4-11.4v-.1-.1l4.9-23.2v-.1c.4-1.1 1-1.9 1.7-2.4.5-.4 1.1-.7 1.8-.8s1.3 0 1.9.2c.9.3 1.7 1 2.5 1.9v.1l5.7 9.8 10.2 14.8.1.1v.2l6.8 23 1.6 2.1.1-1.4v-.9l.9-.1 6.2-.7 1-.1.1 1 1.6 15.2 6.5-10.6c1.8-6.7 4.4-12 7.5-16.3s6.9-7.7 10.9-10.4l20.8-16.7.3-.2h.4 5.7 1.2l-.1 1.2-3.8 33v.3l-.2.2-11.4 16.5c-.7 5.4-2 9.6-3.8 12.7-1.7 3-4 4.9-6.8 5.6m-2.1 2v-2.8-.9l.9-.2c2.6-.5 4.7-2.1 6.3-4.8 1.7-2.8 2.9-6.9 3.5-12.2v-.3l.2-.2 11.6-16.1 3.6-31.6h-4.2l-20.6 16.5h-.1c-3.9 2.6-7.4 5.7-10.4 9.9-3 4.1-5.5 9.3-7.2 15.7v.1l-.1.1-8.2 13.3-1.6 2.6-.3-3.1-1.7-16.9-4.3.5-.2 3.4-.2 2.8-1.7-2.3-3.4-4.6-.1-.2-.1-.2-6.8-23-10.2-14.7v-.1l-5.6-9.8c-.5-.6-1-1-1.5-1.2-.3-.1-.6-.1-.9-.1s-.6.2-.8.4c-.4.3-.7.8-1 1.4l-4.9 23c0 3.8.5 7.4 1.3 10.7.9 3.4 2.2 6.6 3.9 9.5l.2.3-.1.4c-1 5.2-1.3 10-.7 14.5.6 4.4 2.2 8.3 5 11.6l8.6 10.9c4.9 3.3 9.3 6.7 13.4 10.5 4 3.8 7.7 7.9 11.3 12.8l7.6-.4c1.7-6.1 3.6-10.7 6.6-14.7 3-3.7 7-7 12.9-10.5z"/><path d="m647.7 216.1c2.1 6.6 3.2 12.2 2.7 16.5-.5 4.5-2.7 7.5-7.2 8.3l-.3-1.5c3.7-.7 5.5-3.1 6-6.9.4-4-.6-9.5-2.6-15.8z"/><path d="m651.9 239c1.3 2.6 2.5 6.4 3.3 10.2.9 4.1 1.4 8.3 1.4 11.6 0 5 1.4 10.6 3.7 15.9 2.4 5.5 5.7 10.6 9.3 14.2 2.6 2.6 4 6.2 5.4 9.7.6 1.6 1.3 3.2 2 4.7l3.3 6.6-1.4.7-3.3-6.6c-.8-1.5-1.4-3.1-2-4.8-1.3-3.4-2.7-6.8-5.1-9.2-3.8-3.8-7.2-9-9.6-14.7-2.3-5.4-3.8-11.2-3.8-16.5 0-3.2-.5-7.3-1.4-11.2-.8-3.8-1.9-7.3-3.2-9.8z"/><path d="m646.8 248.5c1.3 1.5 4.4 6.3 6.9 10.5 2 3.4 3.6 6.6 3.6 7.8h-1.6c0-.9-1.5-3.8-3.3-7-2.4-4.2-5.4-8.8-6.7-10.3z"/><path d="m649.7 276.6c.6 6 6.6 10.4 12.1 14.4 3.2 2.3 6.2 4.5 8.1 6.9l7.2 9.2c.4.5.8 1.3 1.1 2.2.3.8.6 1.5.8 1.7l.1.1.1.2 1.3 3.6-1.5.5-1.3-3.5c-.4-.5-.7-1.3-1-2.1s-.6-1.5-.8-1.7l-7.3-9.2c-1.8-2.2-4.7-4.4-7.8-6.6-5.8-4.2-12.1-8.8-12.8-15.5z"/><path d="m667.5 261.7 4.3 26.7-1.6.3-4.2-26.7z"/><path d="m659.5 242.3c-1 3.1-1.8 6.1-2.4 9.1s-.9 6.1-.9 9.5h-1.6c0-3.5.3-6.7.9-9.8s1.4-6.1 2.4-9.2z"/><path d="m685.5 311.6s.1 0 0 0zm48.6-84.6c-1.4 6.6-6 11.9-10.5 17.2-3.2 3.7-6.3 7.4-8.3 11.4-2 4.2-5.2 9-8.6 13.7-4 5.4-8.3 10.5-11.7 13.9-2.1 2.1-3.4 5.9-4.5 9.5-.6 1.8-1.2 3.6-1.9 5.1-.1.3-.2 1.7-.4 3.5-.4 4.6-1 11.6-2.3 11.9-.7.2-1.2-.3-1.5-1.6l1.2-.3c.2-1.5.7-6.5 1-10.1.2-2 .3-3.6.4-3.9v-.1c.6-1.4 1.2-3.1 1.8-4.9 1.3-3.8 2.6-7.8 4.9-10.1 3.3-3.3 7.6-8.4 11.5-13.7 3.4-4.6 6.5-9.4 8.4-13.4 2.1-4.2 5.3-8 8.5-11.7 4.4-5.2 8.9-10.3 10.2-16.5z"/><path d="m693.7 284.3h.2s-.1-.1-.1-.2m-.2 0c-.1 0-.1 0-.2-.1zm.2 0s-.1 0-.2 0l.1.1m-.1-.1-.1.1zm0 .1-.2.1zm11-19.6c-.6.9-1.2 1.6-1.7 2.3-2.1 2.8-3.6 4.8-4.1 8.9-.1.6-2.2 5.1-3.7 7.6-.3.5-.6 1-.9 1.3-.6.7-1.1.9-1.6.4-.2-.2-.3-.5-.3-.8h1.1l.1-.1-.1-.1c-.2-.1-.4-.2-.4-.3.2-.3.5-.7.8-1.1 1.4-2.3 3.4-6.5 3.5-7 .6-4.4 2.2-6.6 4.4-9.6.5-.7 1.1-1.5 1.7-2.3z"/><path d="m725.5 253.6c-.5.4-1.2.8-2.1 1.4-5.2 3.5-16.4 10.8-16.4 14.1h-1.6c0-4.1 11.6-11.8 17.1-15.4.9-.6 1.7-1.1 2.1-1.4z"/><path d="m679.6 290.3h15.5v1.6h-15.5z" transform="matrix(.02119947 .9998 -.9998 .02119947 963.7726 -402.3247)"/><path d="m692.7 296.8c1.2-2.3 5-4.9 8.7-7.3 3.9-2.6 7.8-5.2 7.8-6.8h1.6c0 2.5-4.2 5.3-8.5 8.1-3.5 2.3-7.1 4.8-8.1 6.7z"/><path d="m683.3 280.3.7 28.7h-1.6l-.6-28.7z"/><path d="m674.7 266.9c.8 3.5 1.8 7 2.8 10.4 1.5 5.2 3 10.4 3.8 15.3l2.3 15.2-1.6.2-2.3-15.2c-.7-4.8-2.2-10-3.7-15.1-1-3.5-2.1-7.1-2.9-10.5z"/><path d="m704.8 249.2.6 4.9c.3-.9.6-1.8.9-2.7.6-1.7 1.2-3.4 1.5-5.2l1.5.2c-.3 2-.9 3.8-1.6 5.6-.9 2.3-1.7 4.6-1.7 7.5v12.2l-1.6-12.1-1.3-10.2z"/><path d="m725.6 230.8c0 2.3-2.7 8.8-5.2 14.6-2 4.6-3.7 8.8-3.7 9.8h-1.6c0-1.3 1.8-5.7 3.9-10.4 2.4-5.7 5.1-12 5.1-14z"/><path d="m712.7 248.3h21.2v1.6h-21.2z" transform="matrix(-.7943 .6075 -.6075 -.7943 1449.1592 7.5307)"/><path d="m688.6 317.5c2.6 0 4.7 2.5 4.7 5.5s-2.1 5.5-4.7 5.5-4.7-2.5-4.7-5.5 2.1-5.5 4.7-5.5" fill="#ed1c24"/><path d="m691.2 319.8c-.7-.8-1.6-1.3-2.6-1.3s-1.9.5-2.6 1.3-1.1 2-1.1 3.2c0 1.3.4 2.4 1.1 3.2s1.6 1.3 2.6 1.3 1.9-.5 2.6-1.3 1.1-2 1.1-3.2-.4-2.4-1.1-3.2m-2.6-3.4c1.6 0 3.1.8 4.2 2 1 1.2 1.6 2.8 1.6 4.6s-.6 3.4-1.6 4.6c-1.1 1.2-2.5 2-4.2 2s-3.1-.8-4.2-2c-1-1.2-1.6-2.8-1.6-4.6s.6-3.4 1.6-4.6c1.1-1.2 2.6-2 4.2-2z"/><path d="m678 320.3c2.6 0 4.7 2.5 4.7 5.5 0 3.1-2.1 5.5-4.7 5.5s-4.7-2.5-4.7-5.5 2.1-5.5 4.7-5.5" fill="#ed1c24"/><path d="m680.6 322.5c-.7-.8-1.6-1.3-2.6-1.3s-1.9.5-2.6 1.3-1.1 2-1.1 3.2c0 1.3.4 2.4 1.1 3.2s1.6 1.3 2.6 1.3 1.9-.5 2.6-1.3 1.1-2 1.1-3.2-.4-2.3-1.1-3.2m-2.6-3.3c1.6 0 3.1.8 4.2 2 1 1.2 1.6 2.8 1.6 4.6s-.6 3.4-1.6 4.6c-1.1 1.2-2.5 2-4.2 2s-3.1-.8-4.1-2-1.6-2.8-1.6-4.6.6-3.4 1.6-4.6 2.5-2 4.1-2z"/><path d="m681.4 242.5c3 0 5.4 2.1 5.4 4.8s-2.4 4.8-5.4 4.8-5.4-2.1-5.4-4.8 2.4-4.8 5.4-4.8" fill="#ed1c24"/><path d="m684.6 244.6c-.8-.7-1.9-1.1-3.1-1.1s-2.4.4-3.2 1.1-1.2 1.6-1.2 2.6.5 1.9 1.2 2.6c.8.7 1.9 1.1 3.2 1.1s2.3-.4 3.1-1.1 1.2-1.6 1.2-2.6-.5-1.9-1.2-2.6m-3.2-3.2c1.8 0 3.4.6 4.5 1.7 1.2 1.1 2 2.5 2 4.2 0 1.6-.7 3.1-2 4.2-1.2 1-2.8 1.7-4.5 1.7-1.8 0-3.4-.6-4.5-1.7-1.2-1.1-2-2.5-2-4.2 0-1.6.7-3.1 2-4.2 1.1-1.1 2.7-1.7 4.5-1.7z"/><path d="m680.4 236c3.6-6.2 12-12.3 25.1-18.5 6.4-4.2 10.7-9.7 13-16.6 4.4-3.7 7.7-8 8.7-13.7 1.2-2.8 2.3-6 2.2-10.8 3.3-3.5 5.3-8.2 6.5-13.7l-22.4 9.4c-5 4.2-8.6 8.7-10.8 15.6-5.5-.5-11.1 7.2-16.6 19.8l.7-13.7 8.7-15.9-5.8-2.9-5 12.3c0-13.6 1-27.2-4.3-34.6-.6-8.3-3.4-10.9-10.8-.7-4.1 7.5-6.4 14.6-4.4 20l-2.8 14.6c-3.8 6-3.8 12 0 18l10.1 18 1.4 13.7z" fill="#00a651"/><path d="m689.8 227.4c-4.1 3-7 6-8.8 9l-.2.4h-.4l-6.6.3h-.7l-.1-.7-1.4-13.5-10-17.9c-2-3.1-2.9-6.3-2.9-9.4s1-6.2 2.9-9.3l2.8-14.3c-1-2.8-.9-6-.1-9.5.9-3.5 2.5-7.2 4.6-11 3.9-5.4 6.8-7.3 8.8-6.9 2.1.5 3.1 3.4 3.4 7.8 4.7 6.7 4.5 17.7 4.4 29.4v1.5l3.5-8.5.3-.8.8.4 5.8 2.9.7.4-.4.7-8.6 15.7-.5 9.5c2.2-4.6 4.5-8.4 6.7-11.2 2.7-3.4 5.5-5.3 8.3-5.3 1.1-3.3 2.6-6 4.3-8.5 1.9-2.6 4-4.8 6.6-6.9l.1-.1h.1l22.4-9.4 1.4-.6-.3 1.5c-.6 2.8-1.4 5.4-2.5 7.8-1 2.3-2.3 4.3-3.9 6 .1 2.4-.2 4.3-.6 6.1s-1 3.3-1.6 4.7c-.5 2.9-1.6 5.5-3.1 7.8s-3.4 4.3-5.6 6.1c-1.2 3.5-2.8 6.6-5 9.3-2.2 2.8-5 5.3-8.2 7.5h-.1c-6.8 2.9-12.1 6-16.3 9m-9.8 7.9c1.9-3 4.9-6.1 9-9.1 4.2-3.1 9.6-6.2 16.2-9.3 3.1-2 5.7-4.4 7.8-7.1s3.7-5.7 4.8-9.1l.1-.2.2-.2c2.1-1.8 4-3.7 5.5-5.9 1.4-2.2 2.5-4.6 2.9-7.3v-.1-.1c.6-1.4 1.2-2.8 1.6-4.5s.6-3.6.5-6v-.3l.2-.2c1.6-1.7 2.8-3.7 3.9-5.9.8-1.8 1.5-3.8 2.1-6l-20.8 8.7c-2.4 2-4.5 4.1-6.2 6.5-1.8 2.4-3.2 5.2-4.3 8.6l-.2.6h-.6c-2.5-.2-5 1.5-7.6 4.7-2.7 3.4-5.4 8.4-8.2 14.6l-1.7 3.9.2-4.3.7-13.7v-.2l.1-.2 8.3-15.2-4.3-2.2-4.7 11.5-1.5 3.7v-4c0-1.8 0-3.7.1-5.5.1-11.5.3-22.4-4.2-28.7l-.1-.2v-.2c-.3-3.8-1-6.3-2.3-6.6-1.4-.3-3.6 1.5-7.1 6.2-2 3.7-3.6 7.2-4.4 10.5-.8 3.2-.9 6.2.1 8.8l.1.2v.2l-2.8 14.6v.2l-.1.1c-1.8 2.9-2.7 5.8-2.7 8.6s.9 5.7 2.7 8.6l10.1 18 .1.1v.2l1.4 13z"/><path d="m678.2 149.1c0 .7-.2 10-1 16.4-.4 3.7-1.2 6.5-2.4 6.5v-1.6c.2 0 .5-2.2.8-5.1.7-6.3.9-15.5.9-16.2z"/><path d="m673.7 233.8c2.6 0 4.7 2.1 4.7 4.8s-2.1 4.8-4.7 4.8-4.7-2.1-4.7-4.8 2.1-4.8 4.7-4.8" fill="#ed1c24"/><path d="m676.3 235.9c-.7-.7-1.6-1.1-2.6-1.1s-2 .4-2.6 1.1c-.7.7-1.1 1.6-1.1 2.7 0 1 .4 2 1.1 2.6.7.7 1.6 1.1 2.6 1.1s2-.4 2.6-1.1c.7-.7 1.1-1.6 1.1-2.6 0-1.1-.4-2-1.1-2.7m-2.6-3.1c1.6 0 3 .7 4.1 1.7s1.7 2.5 1.7 4.1-.7 3.1-1.7 4.1-2.5 1.7-4.1 1.7-3-.7-4.1-1.7c-1-1.1-1.7-2.5-1.7-4.1s.6-3.1 1.7-4.1c1.1-1.1 2.5-1.7 4.1-1.7z"/><path d="m673.4 252.1c2.6 0 4.7 2.1 4.7 4.8s-2.1 4.8-4.7 4.8-4.7-2.1-4.7-4.8c-.1-2.7 2.1-4.8 4.7-4.8" fill="#ed1c24"/><path d="m676 254.2c-.7-.7-1.6-1.1-2.6-1.1s-1.9.4-2.6 1.1-1.1 1.6-1.1 2.7c0 1 .4 2 1.1 2.7s1.6 1.1 2.6 1.1 2-.4 2.6-1.1c.7-.7 1.1-1.6 1.1-2.7s-.4-2-1.1-2.7m-2.6-3.2c1.6 0 3 .7 4.1 1.7 1.1 1.1 1.7 2.5 1.7 4.1s-.6 3.1-1.7 4.1c-1 1.1-2.5 1.7-4.1 1.7s-3-.7-4.1-1.7c-1.1-1.1-1.7-2.5-1.7-4.1s.6-3.1 1.7-4.1c1-1 2.5-1.7 4.1-1.7z"/><path d="m682.4 252.5c3 0 5.4 2.8 5.4 6.2s-2.4 6.2-5.4 6.2-5.4-2.8-5.4-6.2 2.4-6.2 5.4-6.2" fill="#ed1c24"/><path d="m685.5 255c-.8-.9-1.9-1.4-3.1-1.4s-2.3.5-3.1 1.4-1.3 2.2-1.3 3.7.5 2.7 1.3 3.7c.8.9 1.9 1.5 3.1 1.5s2.3-.5 3.1-1.5c.8-.9 1.3-2.2 1.3-3.7s-.5-2.8-1.3-3.7m-3.1-3.5c1.8 0 3.4.8 4.6 2.2 1.1 1.3 1.9 3.1 1.9 5 0 2-.7 3.7-1.9 5s-2.8 2.2-4.6 2.2-3.5-.8-4.6-2.2c-1.2-1.3-1.9-3.1-1.9-5 0-2 .7-3.7 1.9-5 1.2-1.4 2.8-2.2 4.6-2.2z"/><path d="m671.1 242.1c2.6 0 4.7 2.1 4.7 4.8s-2.1 4.8-4.7 4.8-4.7-2.1-4.7-4.8c-.1-2.6 2.1-4.8 4.7-4.8" fill="#ed1c24"/><path d="m673.7 244.3c-.7-.7-1.6-1.1-2.6-1.1s-2 .4-2.6 1.1c-.7.7-1.1 1.6-1.1 2.7 0 1 .4 2 1.1 2.7s1.6 1.1 2.6 1.1 2-.4 2.6-1.1c.7-.7 1.1-1.6 1.1-2.7s-.5-2.1-1.1-2.7m-2.6-3.2c1.6 0 3 .7 4.1 1.7 1 1.1 1.7 2.5 1.7 4.1s-.6 3.1-1.7 4.1c-1.1 1.1-2.5 1.7-4.1 1.7s-3-.7-4.1-1.7c-1-1.1-1.7-2.5-1.7-4.1s.6-3.1 1.7-4.1c1-1.1 2.5-1.7 4.1-1.7z"/><path d="m671 161.1 1.5 29.2c.1 2.6 1 5.8 1.9 8.8 1 3.4 2 6.8 2 9.7v1.9c0 3.7-.1 7.5 1 10.7v.1c.3.8.6 1.8.8 2.5l1.5 7.2-1.5.3-1.5-7.2c-.2-.7-.5-1.7-.7-2.4v-.1c-1.1-3.4-1.1-7.3-1.1-11.2 0-.5 0-.9 0-1.9 0-2.7-.9-5.9-1.9-9.2-.9-3.2-1.8-6.4-2-9.2l-1.5-29.2z"/><path d="m651.8 204.4h55.2v1.6h-55.2z" transform="matrix(-.0279003 .9996 -.9996 -.0279003 903.422 -468.2882)"/><path d="m664.9 197.8c1.2.2 3.7 5.3 6.3 11.7 4.2 10.3 9 24.3 9 25.2l-1.6.1c0-.9-4.8-14.5-8.9-24.7-2.4-5.9-4.5-10.7-5-10.7z"/><path d="m731 167.8c0 6.9-4.8 11-9.5 15.2-4.5 3.9-9 7.8-9 14h-1.5c0-6.9 4.8-11 9.5-15.2 4.5-3.9 9-7.8 9-14z"/><path d="m711.2 185.6c-.5 3.2-3.6 5.7-6.8 8.3-3.3 2.7-6.8 5.5-7.8 9.5-.2.6-.4 1.7-.8 3-.3 1-.7 2.2-1.1 3.5.3-.3.5-.7.8-1 2.8-3.1 6.8-5.9 11-8.7 5.9-4 11.8-8.2 14-13.1l1.4.6c-2.4 5.4-8.5 9.6-14.6 13.8-4 2.8-8 5.5-10.7 8.5-2.3 2.5-3.6 5-4.6 7.5-.3.9-.7 1.8-1 2.7-.5 1.2-1 2.4-1.4 3.4-.1.2-.2.3-.2.5s0 .1-.1.2c-1.4 2.8-2.8 4.7-3.9 4.4l-.9-.3.4-.8c.4-.8 1.3-1.9 2-2.8.5-.6 1-1.2 1-1.2v-.1c.7-1.4 1.2-2.8 1.7-4.2.3-.8.6-1.6.9-2.3 1.4-3.9 2.8-8.1 3.7-11 .4-1.3.7-2.3.8-2.9 1.1-4.4 4.9-7.4 8.4-10.3 3-2.4 5.8-4.7 6.2-7.4z"/><path d="m686.6 207.6c0 3.7-1.9 9.3-3.7 14.7-1.7 5-3.3 9.9-3.3 12.7h-1.6c0-3.1 1.6-8.1 3.3-13.2 1.8-5.3 3.6-10.8 3.6-14.2z"/><path d="m684.3 233.1c2.6 0 4.7 2.1 4.7 4.8s-2.1 4.8-4.7 4.8-4.7-2.1-4.7-4.8 2.1-4.8 4.7-4.8" fill="#ed1c24"/><path d="m687 235.3c-.7-.7-1.6-1.1-2.6-1.1s-2 .4-2.6 1.1c-.7.7-1.1 1.6-1.1 2.7 0 1 .4 2 1.1 2.7s1.6 1.1 2.6 1.1 2-.4 2.6-1.1c.7-.7 1.1-1.6 1.1-2.7-.1-1.1-.5-2.1-1.1-2.7m-2.7-3.2c1.6 0 3 .7 4.1 1.7s1.7 2.5 1.7 4.1-.7 3.1-1.7 4.1-2.5 1.7-4.1 1.7-3-.7-4.1-1.7-1.7-2.5-1.7-4.1.7-3.1 1.7-4.1c1.1-1.1 2.5-1.7 4.1-1.7z"/><path d="m695 172.9c3.8 0 6.8 2.6 6.8 5.8s-3 5.8-6.8 5.8-6.8-2.6-6.8-5.8 3-5.8 6.8-5.8" fill="#ed1c24"/><path d="m699.1 175.4c-1-.9-2.5-1.4-4.1-1.4s-3.1.5-4.1 1.4c-1 .8-1.6 2-1.6 3.3s.6 2.4 1.6 3.3 2.5 1.4 4.1 1.4 3.1-.5 4.1-1.4c1-.8 1.6-2 1.6-3.3s-.6-2.4-1.6-3.3m-4.1-3.5c2.1 0 4.1.7 5.5 1.9 1.5 1.2 2.4 3 2.4 4.9s-.9 3.6-2.4 4.9c-1.4 1.2-3.4 1.9-5.5 1.9s-4.1-.7-5.5-1.9c-1.5-1.2-2.4-3-2.4-4.9s.9-3.6 2.4-4.9c1.4-1.2 3.3-1.9 5.5-1.9z"/><path d="m701.5 162.9c2.1 0 3.8 2.4 3.8 5.4s-1.7 5.4-3.8 5.4-3.8-2.4-3.8-5.4 1.7-5.4 3.8-5.4" fill="#ed1c24"/><path d="m703.3 165.1c-.5-.7-1.2-1.1-1.9-1.1s-1.4.4-1.9 1.1c-.6.8-.9 1.9-.9 3.2s.4 2.4.9 3.2c.5.7 1.2 1.1 1.9 1.1s1.4-.4 1.9-1.1c.6-.8.9-1.9.9-3.2s-.3-2.4-.9-3.2m-1.8-3.2c1.4 0 2.7.8 3.6 2 .8 1.1 1.3 2.7 1.3 4.4s-.5 3.3-1.3 4.4c-.9 1.3-2.1 2-3.6 2-1.4 0-2.7-.8-3.6-2-.8-1.1-1.3-2.7-1.3-4.4s.5-3.3 1.3-4.4c.9-1.2 2.2-2 3.6-2z"/><path d="m694 159.3c2.5 0 4.6 1.8 4.6 4s-2.1 4-4.6 4-4.6-1.8-4.6-4 2.1-4 4.6-4" fill="#ed1c24"/><path d="m696.6 161.3c-.7-.6-1.6-.9-2.6-.9s-1.9.3-2.6.9c-.6.5-1 1.2-1 2s.4 1.5 1 2c.7.6 1.6.9 2.6.9s1.9-.3 2.6-.9c.6-.5 1-1.2 1-2s-.4-1.5-1-2m-2.6-3c1.5 0 2.9.5 3.9 1.4 1.1.9 1.7 2.2 1.7 3.6s-.7 2.7-1.7 3.6-2.4 1.4-3.9 1.4-2.9-.5-3.9-1.4c-1.1-.9-1.7-2.2-1.7-3.6s.7-2.7 1.7-3.6 2.4-1.4 3.9-1.4z"/><path d="m694 159.2 10 5.2c4.6-2.9 9.2-4.1 13.8-8.7 3.7-5.3 9.3-8.3 11.1-15.9l1-12.5c-2.7.4-5.3 2.3-8 5.5 1.5-5.7 1.8-11.3 1-17-2.9 2.2-6.4 3.6-10.4 4.2 1.1-4.3.7-8.5-1-12.8l-8.6 6.6c-6.3 3.1-9 10.5-8 22.2-4.5 4.3-5.4 11.6-.9 23.2" fill="#00a651"/><path d="m703.7 165.1-10-5.2-.3-.1-.1-.3c-2.3-5.9-3.2-10.8-2.9-14.7s1.6-6.8 3.9-9.1c-.5-5.8 0-10.5 1.3-14.2 1.4-3.9 3.7-6.6 7.1-8.3l8.6-6.5.8-.6.4.9c.9 2.2 1.5 4.4 1.6 6.6.2 1.8.1 3.7-.3 5.5 1.5-.3 3-.7 4.3-1.2 1.7-.7 3.2-1.5 4.6-2.6l1.1-.8.2 1.3c.7 4.8.5 9.6-.4 14.3.7-.7 1.4-1.3 2.1-1.8 1.4-1 2.9-1.6 4.3-1.8l1-.2-.1 1-1 12.5v.1c-1.2 5.3-4.2 8.4-7.2 11.5-1.4 1.5-2.8 3-4 4.7l-.1.1c-3.2 3.1-6.3 4.7-9.4 6.3-1.5.8-3 1.5-4.5 2.5l-.4.2zm-9.1-6.5 9.4 4.8c1.4-.9 2.9-1.6 4.3-2.3 3-1.5 6-3 9-6 1.3-1.8 2.7-3.3 4.2-4.8 2.8-2.9 5.6-5.9 6.8-10.7l.9-11.3c-.9.3-1.8.7-2.7 1.3-1.3.9-2.5 2.1-3.8 3.7l-2.3 2.8.9-3.5c1.3-5.1 1.7-10.2 1.2-15.4-1.2.8-2.5 1.5-3.9 2-1.8.7-3.7 1.2-5.8 1.5l-1.1.2.3-1.1c.5-2 .7-4.1.5-6.2-.1-1.7-.5-3.5-1.1-5.2l-7.8 6h-.1-.1c-3 1.5-5.1 4-6.4 7.5-1.3 3.6-1.7 8.2-1.2 13.9v.4l-.3.3c-2.1 2-3.4 4.7-3.7 8.3-.1 3.7.7 8.3 2.8 13.8z"/><path d="m701.2 125.1c-.1 1-.8 4.5-1.5 7.8-.6 2.7-1.2 5.3-1.6 6.6-2 6.4-.3 13.9 1.1 18.2 2.4-5.1 8-13.4 9-14.9l.1-.2c1.6-3.2 1.1-6.9.5-10.7-.4-2.6-.8-5.2-.5-7.9l1.6.2c-.2 2.5.1 5 .5 7.5.6 4 1.2 8-.7 11.7l-.2.2c-1.1 1.6-8.2 12-9.6 16 .1.3.2.6.3.9.1.2.1.4.2.6l.3.7-.7.3c-1 .3-1.5 0-1.8-.7-.1-.3 0-.8.2-1.5-1.4-3.9-4.2-13.1-1.7-20.9.4-1.2 1-3.8 1.5-6.5.7-3.3 1.3-6.6 1.4-7.6z"/><path d="m699.4 161h.5c-.1-.1-.1-.3-.2-.4zm28.5-27.9c0 8.6-4.2 12-8.6 15.8-2.9 2.4-5.9 4.9-7.8 9-.7 1.5-4.8 3.1-8 3.8-1 .2-2 .4-2.7.4-.9.1-1.6 0-2-.3-.3-.2-.4-.5-.4-.8h1.1l.3-.4h.9c.7 0 1.5-.2 2.5-.4 2.9-.6 6.5-1.9 7-2.9 2.1-4.4 5.2-7 8.2-9.5 4.2-3.5 8-6.7 8-14.6z"/><path d="m718.4 125.5c0 5.8-1.3 9.3-2.9 13.9-.4 1.2-.9 2.5-1.4 4-.3 1.2-1.3 2.4-2.3 3.7s-2 2.5-2 3.3h-1.6c0-1.3 1.2-2.8 2.3-4.2.9-1.1 1.8-2.3 2.1-3.2.5-1.5.9-2.8 1.4-4 1.6-4.4 2.8-7.9 2.8-13.4h1.6z"/><path d="m763.1 485.1c-1.5-2.4-4-4.8-7.4-7.1-5.2-3.6-12.5-7.1-21.5-10.5h-.1c-9.1-3.9-18.3-8.3-27.4-13.3-8.7-4.8-17.3-10.2-25.7-16.2l-21.7 13.9c14.7-.8 29.3 1.3 43.7 6.7 16.3 6.1 32.4 16.5 48.2 31.7 3.5 1.4 6.4 2 8.4 1.5 1.8-.5 3-2.1 3.3-5.3zm-12.7-13.8c-3.5-2-6.8-4.1-10.1-6.3-9.7-6.5-18.6-13.9-27.2-21.8l-.2-.1-.1-.2c-4.2-6.4-9.3-11.3-15.1-14.7-5.7-3.4-12.1-5.4-19-6-.2.2-.4.4-.6.6.1 2.1.5 4.1 1.1 6.2.6 2 1.4 4 2.5 5.9 8.6 6.3 17.5 11.8 26.4 16.8 9 5 18.1 9.3 27 13.1 5.9 2 11 4.2 15.3 6.5zm20 9.8c-5.5-2.3-10.7-4.8-15.8-7.5 1 .6 1.9 1.2 2.8 1.8 4.5 3.1 7.6 6.3 9.1 9.6.8-.1 1.4-.4 1.9-.9.9-.6 1.5-1.6 2-3zm180.5-5.7c7.5-4.2 14.8-9 21.7-13.7 7.1-4.8 13.8-9.9 19.8-15.3 2.5-2.3 5-4.7 7.3-6.9 13.2-12.6 25-23.8 35.8-26-3.8-1.2-7.6-2.4-11.3-3.6-10.6-3.4-21.2-6.8-31.7-8.9-44.5 39-89.6 59.7-134.5 60.6-43.7.8-87.1-17.2-129.4-55.6-17.9 4.1-29.4 7-37.1 9.5-3.9 1.3-6.8 2.5-9 3.8 6 1 11.7 3 16.9 6 6.2 3.7 11.6 8.8 16 15.5 8.4 7.8 17.2 15 26.7 21.4 9 6.1 18.6 11.4 29.2 15.8l1.7.7c29.5 12.5 58.9 17.8 88.4 16.9 29.5-.8 58.9-7.8 88.5-19.7zm5.2 12.1c5.4-7.9 12.4-15.6 19.8-21.3 7.7-5.9 16.2-10.8 25.4-15.1l.1-.1h.2c6.6-1.7 13-4.1 19-7.3s12.8-8.3 18.2-13.3c2.3-3.9 3.5-7 3.8-9.6.2-1.8-.1-3.2-1-4.5-10.9-1.4-24.8 11.1-39.7 25.3-2.4 2.3-4.9 4.7-7.4 7-6.2 5.6-13 10.8-20.2 15.6-7 4.7-14.5 9.7-22.1 13.9zm82.6-52.5c-5.2 4.6-10.7 8.4-16.5 11.5-6.2 3.3-12.8 5.8-19.5 7.5-8.9 4.2-17.3 9-24.7 14.7-7.3 5.6-14.3 13.3-19.5 21 3.2 2 6.1 3.1 8.9 3.1 3.3 0 6.5-1.5 9.5-4.4 12.6-18 26.8-29.7 42.1-36.2 12.8-5.5 26.5-7.2 40.8-5.9zm-363.3-14c2.8-3.3 7-5.8 15.1-8.5 7.9-2.6 19.7-5.5 38.2-9.8l.8-.2.6.5c42 38.2 84.8 56.2 127.9 55.3 44.3-.8 88.9-21.5 133.1-60.3l.6-.5.8.2c11 2.2 21.9 5.7 32.8 9.2 5.4 1.7 10.8 3.5 16.3 5l.3.1.2.2c2.9 2.3 4.2 5.1 3.8 9-.3 3.2-1.9 6.9-4.7 11.5l27.6 14.8 8.6 4.6-9.6-1.7c-16.9-3-32.9-1.8-47.7 4.5s-28.5 17.7-40.8 35.3l-.1.1-.1.1c-3.6 3.6-7.5 5.4-11.8 5.4-4.1 0-8.5-1.8-13-5.3l-.3-.3-.2-.4-4.4-10.6c-29.3 11.7-58.7 18.5-88.1 19.4-29.4.8-58.7-4.3-88.1-16.5-.7 1.8-1.6 3.2-2.8 4.3-1.3 1.1-2.8 1.7-4.7 1.7-.7 3.7-2.6 5.8-5.4 6.5-2.8.8-6.5 0-10.7-1.7l-.3-.1-.2-.2c-15.5-15-31.3-25.2-47.3-31.2s-32.2-7.8-48.6-5.9l-6.7.8 5.7-3.6 26.4-16.9c-1.1-2-1.9-4-2.5-6-.8-2.5-1.1-5-1.2-7.6v-.6z"/><path d="m990 427.8 1.9-1.5c1.2-1 1.9-1.6 2.1-2 .2-.3.3-.7.3-1.1s-.2-.8-.5-1.1c-.3-.4-.7-.7-1.1-.7s-.9 0-1.3.3c-.2.1-.8.6-1.9 1.4l-1.9 1.6zm3.3 9.2-10-12.4 5.3-4.3c1.3-1.1 2.4-1.7 3.2-2s1.6-.3 2.4 0 1.5.8 2.1 1.5c.8.9 1.1 1.9 1 3-.1 1-.6 2.1-1.5 3.1.8-.1 1.5-.1 2.2 0s1.7.4 3 .9l3.5 1.2-3 2.4-4-1.2c-1.4-.4-2.4-.7-2.8-.8s-.8 0-1.2.1c-.3.1-.8.4-1.4.9l-.5.4 4.2 5.2zm-11.7 9.2-9.6-12.7 9.4-7.1 1.6 2.2-6.9 5.2 2.1 2.8 6.4-4.8 1.6 2.1-6.4 4.8 2.6 3.5 7.1-5.3 1.6 2.1zm-16.9-4.5 2.5 3.8 1.5-1c1.1-.7 1.7-1.2 2-1.6s.4-.8.4-1.2-.1-.8-.4-1.2c-.3-.5-.7-.8-1.2-.9s-1-.1-1.5.1c-.4.2-1 .5-2 1.2zm4.5 12.8-8.7-13.4 4.3-2.8c1.6-1.1 2.8-1.7 3.3-1.9.9-.3 1.8-.3 2.8.1 1 .3 1.8 1 2.5 2.1.5.8.8 1.6.9 2.4s0 1.4-.3 2.1c-.3.6-.6 1.1-1 1.5-.6.5-1.4 1.2-2.7 2l-1.8 1.1 3.3 5zm-15.8 9.4-8-13.8 4.2-2.4 7.9 8-3-10.8 4.2-2.4 8 13.8-2.6 1.5-6.3-10.9 3.5 12.4-2.7 1.5-9-9.3 6.3 10.9zm-13.2 6.8-7-14.3 10.6-5.2 1.2 2.4-7.7 3.8 1.5 3.2 7.2-3.5 1.2 2.4-7.2 3.5 1.9 3.9 8-3.9 1.2 2.4zm-16.5 1.4 2.8-1.5c.6.9 1.2 1.5 2 1.7s1.5.2 2.4-.2c1-.4 1.6-.9 1.9-1.5s.4-1.2.1-1.7c-.2-.3-.4-.6-.7-.8s-.8-.2-1.3-.2c-.4 0-1.3.2-2.6.4-1.8.3-3.1.3-4 0-1.2-.4-2.1-1.2-2.6-2.4-.3-.8-.4-1.5-.3-2.4.2-.8.6-1.6 1.2-2.3s1.5-1.3 2.7-1.7c1.8-.8 3.4-1 4.7-.6s2.2 1.3 2.8 2.6l-2.9 1.4c-.5-.7-1-1.1-1.5-1.3-.6-.2-1.3 0-2.1.3-.9.4-1.5.8-1.8 1.4-.2.4-.3.7-.1 1.1.1.3.4.6.8.7.5.2 1.6.1 3.1-.2 1.6-.3 2.8-.4 3.6-.3s1.6.3 2.3.8 1.2 1.2 1.6 2.1c.4.8.5 1.7.3 2.7s-.6 1.8-1.3 2.5-1.7 1.3-3 1.9c-1.8.8-3.5 1-4.8.5-1.3-.4-2.4-1.4-3.3-3zm-25 4.7c.5 1.7 1.2 3 2.3 3.6 1 .7 2.2.9 3.4.5 1.2-.3 2.1-1 2.7-2.2.5-1.1.6-2.5.1-4.3s-1.2-3-2.2-3.6c-1-.7-2.2-.8-3.4-.5-1.3.3-2.2 1.1-2.8 2.2-.5 1.1-.5 2.6-.1 4.3zm-3.2 1c-.4-1.6-.5-3-.4-4.1.1-.9.4-1.7.9-2.5.4-.8 1-1.4 1.6-1.9.9-.7 1.9-1.2 3.1-1.5 2.3-.6 4.3-.4 6 .7 1.7 1 2.9 2.8 3.6 5.3s.5 4.6-.5 6.4-2.6 3-4.8 3.5c-2.3.6-4.3.4-6-.6s-2.8-2.9-3.5-5.3zm-15.8 10.3-2.5-15.7 4.8-.8 4.5 10.3 1.1-11.2 4.8-.8 2.5 15.7-3 .5-2-12.4-1.2 12.9-3.1.5-5.1-11.9 2 12.4zm-6.2.4-.8-15.9 3.2-.2.8 15.9zm-15.6-4.7 3.1-.3c.2 1 .6 1.8 1.1 2.3.6.5 1.4.7 2.3.7 1 0 1.8-.2 2.3-.7.5-.4.8-1 .8-1.5 0-.4-.1-.7-.3-1s-.6-.5-1.2-.7c-.4-.1-1.2-.4-2.6-.7-1.7-.4-2.9-1-3.6-1.6-1-.9-1.5-1.9-1.5-3.2 0-.8.2-1.6.7-2.3s1.1-1.2 2-1.6 1.9-.5 3.1-.5c2 0 3.5.4 4.5 1.3s1.5 2 1.6 3.5l-3.2.1c-.1-.8-.4-1.4-.9-1.8-.4-.4-1.1-.5-2-.5s-1.7.2-2.2.6c-.3.2-.5.6-.5 1s.2.7.5 1c.4.3 1.4.7 3 1.1s2.7.8 3.5 1.2 1.3.9 1.8 1.6c.4.7.6 1.5.6 2.5 0 .9-.3 1.8-.8 2.6s-1.2 1.4-2.2 1.8-2.1.6-3.5.6c-2 0-3.6-.5-4.6-1.4-.9-1-1.6-2.3-1.8-4.1zm-14.4-.6 3.1-.2c.2 1.1.5 1.8 1.1 2.4.6.5 1.3.8 2.3.8s1.8-.2 2.4-.6c.5-.4.8-.9.8-1.5 0-.4-.1-.7-.3-1s-.6-.5-1.1-.7c-.4-.2-1.2-.4-2.5-.8-1.7-.5-2.9-1-3.6-1.7-1-.9-1.4-2-1.4-3.3 0-.8.3-1.6.8-2.3s1.2-1.2 2-1.5c.9-.3 1.9-.5 3.1-.4 2 .1 3.5.6 4.5 1.5s1.5 2.1 1.5 3.6h-3.2c-.1-.8-.4-1.4-.8-1.8s-1.1-.6-2-.6-1.7.1-2.2.5c-.3.2-.5.6-.5 1s.1.7.4 1c.4.3 1.4.8 2.9 1.2s2.7.8 3.4 1.3c.7.4 1.3 1 1.7 1.7s.6 1.5.5 2.6c0 .9-.3 1.8-.8 2.5-.5.8-1.3 1.3-2.2 1.7s-2.1.5-3.5.5c-2-.1-3.5-.6-4.6-1.6-1.1-1.2-1.7-2.5-1.8-4.3zm-5.7 4.3 1.4-15.9 3.2.3-1.4 15.9zm-9.9-1.4 1.8-13.1-4.7-.7.4-2.7 12.5 1.8-.4 2.7-4.7-.7-1.8 13.1zm-15-3.6 3.8-15.3 3.1.8-3.2 12.7 7.8 1.9-.7 2.6zm-5.6-8.2-.4-6.3-3.8 5zm3.8 7.8-3.3-1-.3-3.9-6.1-1.9-2.3 3.1-3.3-1 10.6-13.4 3.3 1zm-32.2-22.1 2.1 1c1.4.7 2.3 1 2.7 1s.8 0 1.1-.2.6-.5.8-.9c.2-.5.3-.9.2-1.4s-.4-.8-.8-1.1c-.2-.1-.9-.5-2.1-1l-2.3-1.1zm-6.8 7 6.7-14.4 6.1 2.9c1.5.7 2.6 1.4 3.2 2s.9 1.3 1 2.2 0 1.7-.4 2.6c-.5 1.1-1.2 1.8-2.2 2.2s-2.1.4-3.5 0c.5.7.8 1.3 1 1.9s.4 1.7.6 3.1l.5 3.6-3.5-1.6-.6-4.1c-.2-1.5-.4-2.4-.5-2.8s-.3-.8-.6-1-.7-.5-1.4-.8l-.6-.3-2.8 6zm-8.9-14.1c-.9 1.6-1.2 3-.9 4.2s1 2.1 2.1 2.8 2.3.7 3.4.3c1.2-.4 2.2-1.4 3.1-3s1.2-3 .9-4.2-1-2.1-2.1-2.7c-1.2-.6-2.3-.8-3.5-.4-1.1.4-2.1 1.4-3 3zm-3-1.5c.8-1.4 1.7-2.5 2.6-3.2.7-.5 1.5-.9 2.4-1.2s1.7-.3 2.5-.3c1.1.1 2.2.5 3.3 1.1 2 1.1 3.3 2.7 3.9 4.6.5 2 .2 4.1-1.1 6.3-1.3 2.3-2.8 3.7-4.8 4.3-1.9.6-3.9.3-6-.8-2.1-1.2-3.4-2.7-3.9-4.6s-.1-4 1.1-6.2zm-8.6 3.9 8.4-13.5 2.7 1.7-8.4 13.5zm-8.4-5.2 7.4-11-3.9-2.6 1.5-2.2 10.5 7.1-1.5 2.2-3.9-2.6-7.4 11zm-12.6-8.8 9.3-12.8 2.6 1.9-7.7 10.6 6.5 4.7-1.6 2.2zm-2.3-9.8 1.9-6-5.3 3.3zm.7 8.6-2.8-2.2 1.1-3.7-5-3.9-3.3 2-2.7-2.1 14.7-8.7 2.7 2.1z" fill="#fed09e"/><path d="m955.8 427.3c4.1-8.8 6.6-17.6 5.6-26.4l10.2-18.6c1 12 .9 23.9-3.3 35.8z" fill="#00a651"/><path d="m961.3 414.2c-.8 3.6-2 7.1-3.6 10.7l10-7.3c2-5.8 3-11.7 3.5-17.5.4-5.1.2-10.1-.1-15.2l-8.9 16.1c.5 4.4.1 8.8-.9 13.2m-6.2 12.8c2-4.3 3.7-8.7 4.7-13.1 1-4.3 1.3-8.6.8-13v-.3l.1-.2 10.2-18.6 1.3-2.3.2 2.6c.5 6 .7 12 .3 18s-1.5 12.1-3.6 18.1l-.1.2-.2.1-12.6 9.2-2.5 1.8z"/><path d="m957.2 404.7h20.1v1.6h-20.1z" transform="matrix(-.1775 .9841 -.9841 -.1775 1537.9409 -474.4483)"/><path d="m996.7 63 9.2 3.9 2.6-6.2-9.3-5zm-18.6-7.8 7.7 3.2 2.8-7-8.3-3.1zm3.6 8.6 17.3 6.8.3-.1 4.7-2.2-25.1-10.5zm6.4 11.3 8.5 1.9 1.6-4.5-8.4-3.3zm-9.5-2 7.4 1.6 1.8-6.2-5.9-2.3zm11.9 10.3 3.5.9 1.9-5.2-3.8-.8zm-9.2-2.3 7.2 1.8 1.5-5.2-7.3-1.6zm-5.9-1.4 3.8.9 1.4-5-3-.7zm6.7 10 9.1 2.2 2.1-5.7-9.3-2.3zm-10.3-2.5 8.3 2 1.9-5.8-7.5-1.8zm1 8.4c2.8 1 5.7 2 8.5 3.1l2.2-6.5-8.3-2zm-4.4-1.5c.8.3 1.6.5 2.4.8l2.3-5.3-2.3-.5zm-6.9-2.2 4.8 1.5.5-6.4-3.8-1.2zm-9.6-2.8c1.1.3 2.3.6 3.4.9l1.2-6-3.2-1.4-1.2 5.6zm-59.1-10.4c1.4.1 2.8.2 4.1.4v-7.4l-4.1-.1zm-10.4-.8c1.1.1 2.3.1 3.4.2l.1-6.3-3.9-.2zm-60.1 1.9c1.2-.1 2.4-.3 3.7-.4l-.6-6.3-3.6.3zm-10 1.2c1.4-.2 2.9-.4 4.3-.6l-.6-5.7h-4.5zm-58.3 12.4c1.6-.5 3.1-.9 4.7-1.3l-2.1-6.3-4.4 1.4zm-10.1 3c1.1-.3 2.2-.7 3.3-1l-2.2-5.6-3.5.9 2 4.9zm208.7-47.4c2.3.6 4.6 1.3 6.9 2l.4-.1 1.5-6.1-7.5-2.2zm-16.5-4.2c2.4.6 4.9 1.1 7.3 1.7l1-5.9-7.5-1.6zm-16-3.3c2.3.4 4.6.9 6.9 1.3l.7-4.9-7.4-1.5zm-17.1-2.8c2.5.4 5 .7 7.5 1.1l.2-5-7.4-1.3zm5.9 10.5c6.2.9 10.5 1.3 14.1 1.6 7.6.7 12.5 1.2 24.7 4.8l.6-.2 8-3.2c-8.3-2.4-16.7-4.5-25.2-6.4-9.4-2-18.8-3.7-28.1-5.1l-.1 1.5zm34.6 13.9c1.2.3 2.4.7 3.7 1.1l.3-6.4c-1.4-.4-2.7-.8-3.9-1.1zm-15.1-3.5c3.9.6 7.8 1.5 13.1 2.9l.1-6.5c-5.5-1.4-9.3-2.1-13.1-2.5zm-14.5-2c1.5.2 2.8.4 4.1.5 3.1.4 5.8.7 8.3 1.1l.1-6c-1.1-.1-2.3-.2-3.5-.3-2.2-.2-4.6-.4-7.5-.8zm-5.7-.7c1.3.2 2.5.3 3.6.5l1.5-5.4c-1.1-.1-2.3-.3-3.6-.5zm27.8 11c3.2.7 6.7 1.5 10.9 2.7l.2-4.4c-4.4-1.3-8-2.3-11.1-3zm-16.7-2.4h.4c5 .5 9.3 1 14.2 1.9l.1-4.7c-4.9-1.1-8.9-1.6-13.9-2.3zm-13.1-1.6c4.3.6 7.8 1 11 1.4l.8-5.1h-.3c-2.9-.4-6.2-.8-10.1-1.3zm36.6 14.2c1.2.3 2.4.7 3.6 1.1l.3-6.4c-1.4-.4-2.6-.8-3.9-1.1zm-16.3-4.1c4.4.9 8.8 2 14.3 3.5l.1-6.4c-5.5-1.4-9.9-2.1-14.3-2.7zm-17.1-2.8c5.9.9 10.6 1.5 15 2.4l.1-5.4c-1.6-.2-3.3-.4-5-.6-2.7-.3-5.5-.6-8.8-1zm-5.1-.7 2.9.4 1.3-4.5c-1-.1-1.9-.3-3-.4zm8.8 10.5 2.1-6.9c-3.3-.5-6.9-1-11.2-1.6h-.3l-.4 1.5-1.1 5.6c3.7.4 7.3.9 10.9 1.4zm20.1 3.6.1-6.9c-5.6-1.4-10.3-2.3-16-3.2l-2.1 6.9c6 .9 12 2 18 3.2zm2.1-6.4-.1 6.9c3.6.8 7.2 1.6 10.8 2.5v-.3l.3-6c-4.2-1.3-7.7-2.3-11-3.1zm30.6 21.9c2.8.9 5.5 1.8 8.3 2.8l2-3.9c-2.8-1-5.6-2-8.4-2.9zm-4.1-1.3c.7.2 1.3.4 2 .6l1.9-4c-.9-.3-1.7-.6-2.6-.8zm-8.6-2.5c2.2.6 4.4 1.3 6.6 1.9l1.3-4.3c-2.2-.7-4.4-1.3-6.6-2zm-5.1-1.3c1 .3 2.1.5 3.1.8l1.4-4.3c-1.4-.4-2.9-.8-4.3-1.2zm-5-1.3c1 .2 2 .5 3 .7l.1-4.7c-1-.3-2-.5-3-.8zm-41.6-12-1.3 4.6c1.1.1 2.2.2 3.3.4l1.5-4.7c-1.1-.1-2.1-.3-3.2-.4v.1zm35.4 21.4c2.9.7 5.8 1.4 8.8 2.2l.3-8.8c-3.1-.8-6.1-1.5-9.2-2.2zm-39.6-6.9c3.4.4 6.8.8 10.2 1.3l2.8-7.9c-3.6-.5-7.2-.9-10.8-1.3zm50.2 18.2c2.7.7 5.4 1.5 8.1 2.3l2.7-5.5c-3.5-1.1-7-2.1-10.5-3.1zm-5.2-1.4c1 .3 2 .5 3.1.8l.2-6.3c-1.1-.3-2.2-.6-3.4-.9zm-47.3-8.5c1 .1 1.9.2 2.9.3l1.2-6.3c-.8-.1-1.5-.2-2.3-.3zm52.9 28.1-1-.3-.1 2.5zm-1-2.4c.6.2 1.2.3 1.9.5l2.2-4.5c-1.3-.4-2.6-.7-3.9-1.1zm-4.6-6.5.1 5.4c.8.2 1.7.4 2.5.6l.2-5.2c-1-.3-1.9-.5-2.8-.8zm-48.6-2.5 1.2-6.3c-1-.1-1.9-.2-2.9-.3l-1.8 6.3c1.2.1 2.3.2 3.5.3zm55.9 19.4 3.4-6.7c-1-.3-2.1-.5-3.1-.8l-3.2 6.7c1 .2 1.9.5 2.9.8zm7.5-14.8 2.8-5.6c-1.1-.3-2.2-.7-3.3-1l-2.7 5.7c1.1.3 2.1.6 3.2.9zm-7.9-2.3 1.2-6.1c-1-.3-2-.6-3-.8l-.2 6.4c.6.1 1.3.3 2 .5zm3.2-5.6-1.2 6.1.7.2 2.7-5.7c-.7-.1-1.5-.3-2.2-.6zm1.2-10.3 1.7-8.5c-2.4-.7-4.8-1.3-7.2-2l-.3 8.8c1.9.6 3.8 1.1 5.8 1.7zm3.6-7.9-1.7 8.5c1.2.3 2.4.7 3.6 1.1l3.8-7.9c-1.9-.6-3.8-1.2-5.7-1.7zm5.5 10.7 4.3-7.7c-.7-.2-1.4-.5-2.1-.7l-3.8 7.9c.6.1 1.1.3 1.6.5zm-76 12.3.3 1.9.5-1.9zm-1.4-8.7 1.1 6.6c.6 0 1.2.1 1.8.1l1.8-6.4c-1.6-.1-3.2-.2-4.7-.3zm-2.8-17 1 6.5c3.1.2 6.2.5 9.3.8l1.8-6.2c-4-.5-8-.9-12.1-1.1zm4.3 15 .6-6.2c-1.2-.1-2.4-.2-3.5-.3l1 6.3c.6.1 1.3.1 1.9.2zm2.7-6-.6 6.2c.6 0 1.1.1 1.7.2l1.8-6c-1.1-.2-2-.3-2.9-.4zm6.4-25-.5 4.8 2.7.3 1.4-4.7c-1.2-.1-2.4-.2-3.6-.4zm-11.5 4 .5-4.8c-1.7-.1-3.4-.2-5.1-.3l.8 4.9c1.2 0 2.5.1 3.8.2zm2.6-4.6-.5 4.7c2.3.1 4.6.3 6.9.5l.5-4.8c-1.9-.2-3.7-.3-5.6-.5zm.9 14.9.8-7.9c-2.6-.2-5.2-.3-7.7-.5l1.3 8c1.8.1 3.7.2 5.6.4zm2.8-7.8-.8 8c1.8.2 3.5.3 5.3.5l2.3-7.9c-2.2-.2-4.5-.4-6.8-.6zm-21.6-1 .9 7.8c3.3.1 6.7.2 10 .4l-1.3-8c-3.1-.1-6.4-.2-9.6-.2zm8.9 10.2.9 6.5c.9 0 1.7.1 2.6.2l-1-6.5c-.9-.1-1.7-.2-2.5-.2zm2.8 17 .8 6.6c.9 0 1.8.1 2.6.2l-1.1-6.6c-.8-.1-1.6-.2-2.3-.2zm-6-34-.5 4.8c1.4 0 2.8.1 4.1.1l-.8-4.9c-.9.1-1.9 0-2.8 0zm1.9-8.3h-11.3l-.6 6c4.2 0 8.5.1 12.7.3zm-5.5-2h5.2l-.8-6.4h-3.8zm-15.9-6.3-.7 6.3h14.5l.7-6.4zm19.5-7.2h-11.6l-.5 5 12.8-.1zm-20.9-8.7-.7 6.6h14.1l.7-6.7zm25.8-6.9-53.1.3 5.7 4.6 41.3-.2v-.2l.5-.4zm-4.9-2h7.8l.2-.2-.2-5.2-7.8-.4zm-17.5.1h7.7v-.1l.2-6-7.8-.1zm-16.6.1h7.9l-.5-6.3h-7.4zm-15.8.1h7l-.2-5.3-6.8.1zm10.7 15.2.7-6.5h-3.4l-.4 6.5zm2.8-6.5-.7 6.5h13.5l.7-6.6zm5.6 13.7.5-5.1h-12.1l-.3 5.2zm2.6-5.1-.5 5.1 14.5-.1.5-5zm-12 13.5.6-6.3h-3.3l-.4 6.3zm2.7-6.2-.6 6.3h15.9l.6-6.3zm5.2 14.8.7-6.5h-11.7l-.4 7.3c3.7-.3 7.6-.5 11.4-.8zm2.7-6.5-.7 6.4c5.1-.3 10.1-.4 15.2-.5h2.9l.6-6zm-16.9 43.6-.5 6.6c.8-.1 1.5-.2 2.3-.2l.6-6.6c-.8.1-1.6.1-2.4.2zm1.4-17.4-.5 6.5c1-.1 2-.2 3-.3l.7-6.5c-1.1.1-2.2.2-3.2.3zm.7-9.6-.6 7.6c3.3-.3 6.7-.6 10-.8l.8-7.6c-3.3.2-6.8.5-10.2.8zm.6-7-.4 4.9 3.3-.3.5-5c-1.2.1-2.3.2-3.4.4zm-6.5 43 .8 2.3.2-2.4zm-3.1-8.1 2.3 6.2c.7-.1 1.3-.2 2-.2l.5-6.5c-1.6.1-3.2.3-4.8.5zm-6.2-16.6 2.3 6.2c3.2-.4 6.4-.8 9.5-1.1l.5-6.5c-4 .3-8.2.8-12.3 1.4zm7.3 14.3-.5-6.6c-1.2.1-2.4.3-3.7.5l2.4 6.4c.6-.1 1.2-.2 1.8-.3zm1.5-6.8.5 6.6c.6-.1 1.2-.2 1.9-.2l.5-6.7c-1 .1-1.9.2-2.9.3zm-3.8-10.2-.6-7.4c-2.6.3-5.2.7-7.8 1l2.7 7.1c1.8-.3 3.8-.5 5.7-.7zm1.5-7.7.6 7.4c1.8-.2 3.6-.4 5.5-.6l.6-7.5c-2.3.2-4.5.4-6.7.7zm4.4-7.6.5 4.9c.6-.1 1.3-.1 2-.2l.4-5c-1 .2-2 .2-2.9.3zm-12.9 6.6-.4-5c-1.2.2-2.4.3-3.6.5l1.8 4.8c.7-.1 1.5-.2 2.2-.3zm1.7-5.2.4 5c3.1-.4 6.1-.8 9.2-1.1l-.5-4.9c-3 .2-6.1.6-9.1 1zm2 33.8 2.7 6c.7-.1 1.4-.2 2.1-.3l-2.3-6.1c-.9.2-1.7.3-2.5.4zm-6.9-16.5 1.7 6.3c1.2-.2 2.5-.3 3.7-.5l-2.3-6.2c-1.1.1-2.1.3-3.1.4zm-10.4-7.8 1.9 7.1c3.6-.6 7.2-1.2 10.8-1.7l-2.7-7.1c-3.3.5-6.6 1.1-10 1.7zm3.9-7.9 1.3 4.8c1.4-.2 2.7-.4 4.1-.6l-1.8-4.8c-1.2.2-2.4.4-3.6.6zm1-8.3c-4 .6-7.5 1.1-10.6 1.5l1.7 6.1c3.7-.7 7.4-1.3 11-1.9zm-29.6 11.9h-.4l-.3-6.5c-3.7.9-7.6 2-12.4 3.4l.4 6.3c4.2-1.2 8.4-2.2 12.7-3.2zm-8.1 39.4.4 5c1-.3 2.1-.5 3.1-.7l-.1-5.2c-1.1.2-2.3.5-3.4.9zm-1.6-18 .6 6.4c.9-.2 1.8-.5 2.7-.7l-.1-6.5c-1.1.2-2.1.5-3.2.8zm-.8-9.4.6 7.3c3.5-.9 7-1.8 10.5-2.6v-7.5c-3.7.9-7.4 1.8-11.1 2.8zm-.6-7.1.4 5c.9-.2 1.8-.5 2.7-.7l-.1-5.1c-1 .2-2 .5-3 .8zm-5.3 1.4.7 5c1-.3 2-.5 3-.8l-.4-5c-.8.2-1.5.4-2.3.6zm-10.2 2.9.6 4.9c2.7-.8 5.4-1.6 8.1-2.3l-.7-5c-2.6.8-5.3 1.6-8 2.4zm7.1 5.3 1.3 7.1c2.1-.6 4.2-1.2 6.3-1.7l-.6-7.3c-2.4.6-4.7 1.2-7 1.9zm5.7 16.7 1.4 7.2c.7-.2 1.4-.4 2-.6l-.6-7.4c-.9.3-1.9.5-2.8.8zm2.9 16 1.6 2.6-.3-2.9zm-3.7-6 2.6 4.2c.8-.2 1.5-.4 2.3-.6l-.4-4.9c-1.5.4-3 .9-4.5 1.3zm-5.1-8.4 4 6.5 1.3-.4-1.4-7.2c-1.3.4-2.6.8-3.9 1.1zm-4.5-7.3 3.4 5.5c3.3-.9 6.5-1.8 9.7-2.7l-.5-6.4c-4.3 1.1-8.5 2.3-12.6 3.6zm-5-8.2 3.9 6.3c1.7-.5 3.4-1 5.1-1.5l-1.3-7.1c-2.6.8-5.2 1.5-7.7 2.3zm-3.8-6.1 2.6 4.3c.8-.3 1.6-.5 2.4-.7l-.7-4.9c-1.4.4-2.8.8-4.3 1.3zm17.8 37.1 3.5 6.1c.8-.3 1.5-.5 2.3-.7l-3.6-5.9c-.8.1-1.5.3-2.2.5zm-8.9-14.2 3.8 6.6c.9-.3 1.7-.5 2.5-.8l-4-6.5c-.8.3-1.6.5-2.3.7zm50.7-54.5-1.4.2-2.4.3 1.8 6.5c1.3-.2 2.8-.4 4.3-.6zm-36.3 14.1.3-7c-1.3.4-2.8.8-4.3 1.2l.4 6.8c1.3-.3 2.4-.7 3.6-1zm2.4-7.6-.3 7c5.7-1.6 10.3-2.7 15-3.6 4.6-.9 9.3-1.7 15.1-2.5l-1.8-6.5c-5.1.7-9.2 1.4-13.1 2.1l1.4 6.5-2 .4-1.3-6.5c-4.1.8-8 1.7-13 3.1zm4.8-8.9c-3.3.8-7 1.9-11.7 3.3l.3 5.3c4.5-1.3 8.3-2.4 11.6-3.2zm14.2-2.8c-4.5.7-8 1.3-12.2 2.3l.3 5.4c4.6-1.1 8.6-1.8 13.3-2.6zm12.4-1.8c-1.4.2-2.7.4-3.9.5-2.4.3-4.4.6-6.4.9l1.4 5.1c2.9-.4 6-.9 9.7-1.4l1-.1zm-35.2-.8-.6.2-3 .9.3 5.4c1.2-.4 2.3-.7 3.3-1zm13-3.7c-3.1.8-6.3 1.7-10.9 3.1l.1 5.5c4.8-1.3 8.4-2.2 12-3zm12.8-2.4c-4.5.7-7.7 1.3-10.8 2l1.2 5.7c3.5-.7 7.2-1.2 12.1-1.9zm6.6-.9c-1.6.2-3.1.4-4.4.6l2.5 5.8.5-.1 3.5-.5zm-.2-10c2.7-.4 5.4-.9 8.1-1.2l-.2-5.4-8.5.5zm-16.2 3c2-.4 4-.8 6-1.2l-.4-5.6-6.7.9zm-13.9 3.2c2.3-.6 4.7-1.1 7-1.7l-1.6-5.6-7.3 1.3zm-17.7 4.8c2.8-.8 5.5-1.6 8.3-2.4l-2.5-6.9-8.5 2.9zm53.8-9.9c-1.9.3-3.9.6-5.8.9v.1l-1 .1-3.4.5c-5.1.9-10.1 1.9-15.2 3-8.7 1.9-17.3 4.1-26 6.6l8.2 3.9 3.7-1.1c14.5-4.3 16.5-4.9 33.4-7.3zm-82.3 19.5 8-3-2.7-5.8-8.9 2.4 3.4 5.9zm-18.1 6.9 8.3-3.1-.3-.8-2.2-5.2-8.5 2.4zm5.8 4.7 14.9-5.6.3-.5 3.7-5.8-23.2 8.8zm12.4 3.4 6.3-2.4-2.8-4.8-6 2.3zm-8 3 6-2.3-2.4-5-6 2.3.2.1.2.2.2.3zm15.4 2.3 2.8-1-2.8-4.8-2.4.9zm-8.3 3.1 6.4-2.4-2.4-4.9-6.4 2.4zm-4.1 1.6 2.1-.8-2.4-4.9-1.9.7zm12.3 5.2 7.6-2.9-3.7-6.3-7.1 2.7zm-8.6 3.3 6.7-2.5-3.2-6.5-6.3 2.4zm14.5-3.3 2.6 5.4c1.1-.4 2.2-.7 3.3-1.1l-.2-.4-2.9-5zm-9.1 3.5 2.5 5.1c2.4-.8 4.8-1.7 7.3-2.5l-2.6-5.3zm7.7 5.5 2.2 4.4c2.9-1 5.8-1.9 8.7-2.8l-2.6-4.3c-2.8.8-5.5 1.7-8.3 2.7zm9.4 4.2 3.2 6.5c1.1-.3 2.2-.7 3.3-1l-3.8-6.3c-1 .2-1.8.5-2.7.8zm52.3-13.4c2 2 4 4.2 5.9 6.3l.4-.1-1.9-7.1c-1.6.4-3 .6-4.4.9zm-6.4-5.9c1.6 1.4 3.1 2.7 4.6 4.2 3.8-.7 7.5-1.4 11.3-2l-1.3-4.8c-4.9.7-9.8 1.6-14.6 2.6zm-2.1-1.7c2.9-.6 5.8-1.2 8.7-1.7l-1.7-6.1c-3.2.5-6.1 1-9.1 1.6-2.1.4-4.3.9-6.5 1.4l.3 6.6c2.8-.6 5.5-1.2 8.3-1.8zm-3 7.9c.7-1.8 1.4-3.7 2.1-5.5-5 1-10 2.2-15 3.5l.1 5.1c4.3-1.2 8.6-2.2 12.8-3.1zm-3.4 10.3c.8-2.7 1.6-5.3 2.6-8-1.3.3-2.6.6-3.8.9h.5v7.3zm-2 9.2v-.1c.4-2.3.8-4.5 1.4-6.8-2.5.6-5 1.2-7.5 1.8h.1l.1 6.5c2-.5 3.9-1 5.9-1.4zm-1.2 9.8c.2-2.5.4-5 .8-7.6-3.3.8-6.7 1.6-10.1 2.5l.6 7.3c3-.7 5.9-1.5 8.7-2.2zm-.2 7.5c0-1.4 0-2.7.1-4.1 0-.4 0-.8 0-1.3-.9.2-1.9.5-2.8.7l.1 5.2c.8-.1 1.7-.3 2.6-.5zm.4 8.2c-.2-2-.3-4-.3-6-2.5.6-5.1 1.2-7.6 1.8l.6 6.5c2.3-.9 4.8-1.6 7.3-2.3zm39.4-13.4c.7 1.6 1.3 3.2 1.9 4.8 2.5-.3 5-.6 7.5-.9l-1.8-4.9c-2.5.4-5 .7-7.6 1zm-3.7-7.8c1 1.9 2 3.8 2.8 5.8 1.1-.2 2.3-.3 3.4-.5l-2.6-6c-1.1.3-2.4.5-3.6.7zm-4.8-8.2c1.3 2 2.6 4.1 3.8 6.3 2.8-.5 5.7-.9 8.5-1.3l-2.4-6.4c-3.3.4-6.6.9-9.9 1.4zm-1.9-2.8c.2.3.4.6.6.9 1.5-.3 3.1-.5 4.6-.7l-1.7-6.3c-2.4.4-4.8.8-7.2 1.2 1.3 1.6 2.5 3.2 3.7 4.9zm-24.2 31.2c-.3-7.1-.1-14.2.7-21.3.9-7.5 2.5-15 5-22.5l.5-1.7 1.2 1.3c5.4 5.7 10.2 11.6 14.4 17.9 4.1 6.1 7.5 12.5 10.5 19.4.7-.1 1.4-.2 2.1-.3-3.1-8.4-7.1-16-12-22.8-4.8-6.8-10.5-12.9-17-18.5-3.1 8.3-5.9 15.9-7.3 24.2-.7 4.4-1.2 8.8-1.3 13.1-.1 4 0 7.9.3 11.9 1.1-.2 2-.4 2.9-.7zm11.1-2.7 4.8-1.2c4.7-1.1 9.4-2 14.3-2.8-2.8-6.6-6.1-12.7-10-18.5-3.8-5.7-8.1-11.1-13-16.3-2.1 6.8-3.5 13.6-4.3 20.4s-1 13.7-.8 20.5c3-.6 6-1.4 9-2.1zm174.6 10.3 6.1 2 12.6-37.6c-10.5 8.6-17 20.5-24 33.2l-.2.3zm19-45.3c1.5-1.1 3-2.2 4.5-3.2h.1l1-2.9-5-1.2-2.3 6.7c.6.2 1.1.4 1.7.6zm-5.6 4.7c1.2-1.1 2.4-2.2 3.7-3.2-1.6-.6-3.2-1.2-4.8-1.8l-2 3.9c1 .3 2 .7 3.1 1.1zm-8.1 8.5c2-2.4 4.2-4.7 6.4-6.9-2.8-1-5.7-2-8.5-3l-4.3 7.7c2.1.7 4.2 1.4 6.4 2.2zm-5.2 6.8c.9-1.3 1.9-2.6 2.8-3.9.3-.4.6-.8.9-1.1-3.2-1.1-6.4-2.2-9.6-3.2l-2.7 5.5c3 .8 5.8 1.7 8.6 2.7zm-4.5 7.2c1.1-1.8 2.2-3.7 3.3-5.4-1-.3-1.9-.6-2.9-.9l-2.8 5.6c.8.2 1.6.4 2.4.7zm-3.2 5.9c.7-1.4 1.4-2.7 2.1-4.1-2.5-.8-5-1.5-7.5-2.3l-2.1 4.4c2.5.7 5 1.3 7.5 2zm-3.8 8.8c.9-2.3 1.9-4.7 3-6.9-.8-.2-1.5-.4-2.3-.6l-3.5 6.7c.9.3 1.8.6 2.8.8zm3.9 1 .5-.9c7.6-13.9 14.7-26.9 27.1-35.8l2-5.8c-6.5 4.6-12.3 10.4-17.4 17-5.7 7.4-10.4 15.8-14 24.9zm-28-49.9c1.3 3 2.5 6.1 3.6 9.4l.9.2-.1-8.7c-1.5-.3-3-.6-4.4-.9zm-3.8-7.6c1 1.7 1.9 3.5 2.7 5.3 3.9.8 7.8 1.6 11.7 2.5l.1-4.7c-4.8-1.1-9.7-2.2-14.5-3.1zm-8.5 3.3c1.5-1.5 3.1-2.8 4.8-3.9-5.2-.9-10.4-1.7-15.7-2.4l-1.5 4.6c4.1.4 8.2 1 12.4 1.7zm-7.8 9.2c1.9-2.8 3.9-5.2 6-7.4-1.3-.2-2.5-.4-3.7-.6l-2.8 7.9zm-4.7 7.9c.8-1.4 1.5-2.8 2.3-4.2.4-.6.7-1.2 1.1-1.8-2.6-.4-5.2-.8-7.8-1.1l-1.2 6.3c1.8.2 3.7.5 5.6.8zm-3.7 7.8c.9-2 1.8-4 2.7-5.9-3.4-.5-6.8-.9-10.2-1.2l-1.8 6c3.1.3 6.2.7 9.3 1.1zm-3.1 8.1c.7-2.1 1.5-4.2 2.3-6.1-1.4-.2-2.7-.3-4-.5l-1.2 6.3c.9.1 1.9.2 2.9.3zm-2.6 8.2c.6-2.1 1.2-4.2 1.9-6.2-2.8-.3-5.6-.6-8.5-.8l-1.8 6.1zm42.5.5c.1 2.4.2 4.8.2 7.4 1.9.5 3.8 1 5.7 1.4l.3-7.4c-2.2-.5-4.2-.9-6.2-1.4zm-.6-7.7c.2 1.8.4 3.7.5 5.6.6.1 1.1.3 1.7.4l-.1-5.4c-.7-.3-1.4-.5-2.1-.6zm-1.3-8.9c.4 2.1.7 4.3 1 6.6 2.4.6 4.9 1.2 7.3 1.9l.2-6.4c-2.8-.7-5.7-1.4-8.5-2.1zm-1.6-7c.4 1.6.8 3.2 1.1 4.8 1.3.3 2.6.6 3.9 1l-.1-6.4c-1.8-.5-3.7-.9-5.5-1.3.2.5.4 1.2.6 1.9zm1.5 30.3c0-11.8-1.4-21.5-3.5-29.8-2.2-8.2-5.2-15-8.6-21.2-5.6 3.8-10.5 9.4-14.9 16.6-4.5 7.4-8.3 16.6-11.4 27.5 1.1.1 2.2.3 3.2.4 3.9-16 11-29.2 21.1-39.6l1.1-1.2.6 1.5c3 7.7 5.3 15.4 6.6 23 1.3 7.3 1.8 14.5 1.4 21.7 1.5.4 3 .7 4.4 1.1zm-33-6.5 7.6 1.4c2.1.3 4.1.7 6.2 1 4.3.7 8.5 1.6 12.8 2.5.3-6.9-.1-13.8-1.4-20.9-1.2-6.9-3.2-14-5.9-21.1-9.2 10-15.6 22.3-19.3 37.1zm-42.4-44.1c1.8 2.5 3.4 5.1 4.9 7.7h1.7l-.9-7.8c-1.9.1-3.8.1-5.7.1zm-5.2-6.9c1.3 1.6 2.5 3.2 3.7 4.8 4.1 0 8.3 0 12.4.1l.5-4.8c-4.3-.1-8.6-.1-12.9-.1-1.2-.1-2.5 0-3.7 0zm-7.1 5.1c1.3-1.7 2.6-3.4 4-5-5.5.2-11 .4-16.5.9l-.5 5c4.3-.4 8.7-.7 13-.9zm-6.3 10c1.5-2.7 3-5.3 4.8-7.8-1.6.1-3.1.2-4.7.3l-.8 7.6zm-4 8.8c.3-.8.6-1.6.9-2.4.6-1.5 1.3-2.9 2-4.3-2.2.1-4.4.3-6.6.5l-.7 6.5c1.4-.1 2.9-.2 4.4-.3zm-2.8 8.8c.6-2.3 1.2-4.5 2-6.7-2.9.2-5.9.5-8.9.8l-.5 6.6c2.5-.3 4.9-.5 7.4-.7zm-1.7 8.8c.3-2.3.7-4.5 1.2-6.7-.9.1-1.7.2-2.6.3l-.6 6.6c.6-.1 1.3-.2 2-.2zm-.7 7.3c.1-1.8.3-3.5.5-5.2-2.1.2-4.2.4-6.3.6l-.4 5.2c2-.2 4.1-.4 6.2-.6zm42.4-6.3c.3 2 .5 4 .6 6 3 .2 6 .4 9 .7l-1-6.3c-2.8-.1-5.7-.3-8.6-.4zm-1.7-8.8c.6 2.2 1.1 4.4 1.4 6.7 1.3 0 2.6.1 3.8.2l-.8-6.7c-1.4 0-2.9-.1-4.4-.2zm-2.8-8.4c.8 2 1.5 4.2 2.2 6.3 3.1.1 6.1.3 9.2.5l-1-6.3c-3.5-.2-7-.4-10.4-.5zm-1.4-3.3c.2.4.3.8.5 1.2 2.1.1 4.1.1 6.2.2l-.9-6.5c-2.8-.1-5.6-.2-8.5-.3 1 1.8 1.9 3.6 2.7 5.4zm-139.5 8.7c2.2 1.7 4.4 3.5 6.5 5.3 1.7-.6 3.4-1.1 5.1-1.7l-3.2-6.5c-2.7.9-5.6 1.9-8.4 2.9zm-6.7-5c1.6 1.1 3.2 2.3 4.7 3.4 1.1-.4 2.2-.8 3.3-1.1l-2.1-4.4c-2 .7-4 1.4-5.9 2.1zm-2.4-1.7.3.2c.9-.3 1.8-.7 2.7-1l-2.5-5.1-2.6 1zm34.8 33.6c1.3 2 2.5 4.1 3.6 6.3.5-.2.9-.3 1.4-.5l-3.6-6.2zm-3.9-5.6c.9 1.2 1.8 2.5 2.7 3.8 1.9-.5 3.8-1 5.7-1.5l-2.5-4.1c-2 .6-3.9 1.2-5.9 1.8zm-6.7-7.9c1.9 2 3.7 4 5.3 6.1l1.6-.5-3.8-6.6c-1 .3-2.1.7-3.1 1zm-1.7-1.7c2.7-.8 5.4-1.6 8-2.4l-3.4-5.5c-3.2 1-6.5 2-9.8 3 1.9 1.6 3.6 3.2 5.2 4.9zm13.7 21.8c-4-7.6-9.2-14.3-15.2-20.4-5.5-5.5-11.7-10.6-18.4-15.4l1.5 3.4c6.1 4.4 11.7 9.2 16.7 14.7 5.1 5.5 9.5 11.6 13.4 18.5zm-12.5 24.8c40-14.5 78.4-21.1 115.3-21.1 37 0 72.5 6.6 106.8 18.5.1 0 .1 0 .2-.1.3-.2.5-.5.7-.8.2-.5.2-1 .1-1.6 0-.3-.2-.7-.3-1.1-36.4-13.2-73.2-19.9-110.5-19.5-37.3.3-75.1 7.7-113.5 22.6-.5.9-.7 1.6-.5 2.1.2.4.8.7 1.7 1zm218-10.1 1.6-4.3c-33.5-11.7-68-18.1-103.8-18.1-36.4 0-74.1 6.5-113.7 20.8l1.9 4.5c36.6-13.5 72.8-20.2 108.5-20.5 35.5-.4 70.7 5.6 105.5 17.6zm-220.9-8.9c2.6-1 5.3-1.9 8-2.8l3.6-1.4c-3.8-6.7-8.1-12.6-13-17.8-4.1-4.4-8.6-8.5-13.5-12.2zm224.4 5.3-1.5 4.3c1.3.5 2.7.9 4 1.4l.4.1.2.3c.4.7.6 1.4.7 2.1.1.9 0 1.8-.3 2.6s-.8 1.5-1.6 2c-.3.2-.7.3-1.1.4h-.3l-.2-.1c-34.2-12-69.6-18.5-106.4-18.5s-75.1 6.6-114.9 21.1l-.3.1-.3-.1c-2-.4-3.1-1.3-3.4-2.5-.4-1.2 0-2.5 1-4.1l.2-.3.3-.1c1.4-.5 2.8-1.1 4.1-1.6l-1.9-4.5c-1.8.7-3.6 1.3-5.3 2l-.3.1-.3-.1c-.8-.2-1.5-.5-2.1-.9-.8-.5-1.4-1.2-1.7-2s-.4-1.7-.2-2.6c.2-.7.4-1.4.9-2l.2-.3.3-.1c.9-.3 1.9-.7 2.8-1l-31.2-72.5-7.8-5.9-.2-.2-.1-.3-3.5-8.5-.4-1.1 1.1-.3 10.5-3 .9-.3.4.9 2.1 5.1 5.9-1.8-3.4-5.9-.7-1.2 1.3-.4 11-3 .8-.2.4.8 3.5 7.5.2.5-.3.5-5.2 8 15.3 26.3 1.1-.4-2.1-5-.5-1.1 1.1-.3 5.5-1.5.9-.3.3.9 2.2 5.7 3-.6-1.9-6.4-.3-1 1-.3 6.4-2 1-.3.3 1 1.8 5-1.8-28-11.1-5.3-.4-.2-.2-.4-3.4-8-.4-1 1.1-.4 10.5-3.6 1-.3.3 1 2.6 7.3 5.5-1.1-2-6.5-.3-1.1 1.1-.2 9.3-1.7.9-.2.3.9 1.8 6.4 2.9-.6-1.3-6.8-.2-1.1 1.1-.1 8.9-1.3 1.1-.2.1 1.1.5 6.4 3.4-.5c.9-.2 1.8-.3 2.6-.5l-.8-7.3-.1-1.1 1.1-.1 10.6-.6 1-.1v1l.3 6.9v.4l-.3.3-7.9 8.9 10.5 29.6 1.7-.5-.8-7-.1-1.2h1.2 6.6.9l.1.9.6 6 1.6-.1-.6-7.1-.1-1 1.1-.1 5.6-.4 1-.1.1 1 .7 6.7 1 .2 1.9-31.9-7.6-6.2-.4-.3v-.5-7.5-1h1l8.9-.1h1v1l.2 6.1 4.6-.3v-6.8-1h1 9.4 1l.1 1 .5 6.6 4.6.1.1-6.6v-1h1l9.9.2h1.1v1.1l-.2 6 5.7.1.1-6v-1.1l1.1.1 9.8.5h1v1l.2 6.8v.5l-.5.3-8.9 6.4 3.8 31.8.7.1-.4-7-.1-1.1h1.1l6.1.3h1v1l-.2 7.4h.4 2.5v-7.8-1.1h1.1l6.2.2h1v1 8.5l1 .2.1-.4h.1l1-5.4v-.1l6.3-22.5-6.6-7.7-.3-.3v-.4l.5-10.3.1-1.2 1.2.2 9.5 1.7.9.2v.9l-.3 6 5.4.9.2-5.8v-1.2l1.2.2 9.5 1.9 1 .2-.1 1-.8 5.8 5.1 1.1.9-6.5.1-1.1 1.1.2 9.6 2.1 1 .2-.2 1-1.1 6.5 5.2 1.2 1.4-6.9.2-1.1 1.1.3 9.5 2.8 1 .3-.2 1-1.9 7.6-.1.5-.5.2-11 4.7-1.2 22.6h.1l-.2 6.8 1.9.3 1.3-5.9.3-1.3 1.2.5 5.1 2.3.8.3-.2.8-1.3 6.4 2.3.8 1.7-6.5.3-1.1 1 .3 5.6 1.7.8.3-.1.8-.2 2.2 11.2-23.3-4.2-8.9-.2-.4.1-.4 2.8-9 .3-1 1 .4 10.4 3.9 1 .4-.4 1-3 7.5 7.1 3 2.7-7.8.4-1.2 1.1.6 11.2 6 .8.4-.4.9-3.3 8-.2.4-.4.2-6.5 3.1-14.3 39.7-12.5 37.2c.4.1.7.3 1.1.4l.4.1.2.3c.4.7.6 1.3.7 2 .1.9 0 1.8-.3 2.6s-.9 1.5-1.6 2c-.4.2-.8.4-1.3.5h-.3l-.2-.1c-2-.6-3.9-1.3-5.8-1.9zm-227.2 2.6c42.3-16.2 82.7-23.6 121.4-23.5s75.9 7.5 111.9 20.9c.1 0 .2-.1.3-.1.3-.2.6-.5.8-1s.3-1 .2-1.6c0-.3-.1-.6-.3-.9-38.4-13.6-77.2-20.6-116.5-20.4-34.7.1-69.7 5.9-105.2 17.6l-11.8 4.1c-.9.3-1.7.6-2.5.9-.2.3-.3.7-.4 1-.1.5-.1 1 .1 1.4s.5.8.9 1.1c.3.2.7.4 1.1.5zm99.5-29.2c1.1-7.7 2.6-14.7 4.9-21.4 2.3-6.9 5.5-13.6 9.8-20.6l.9-1.5.9 1.5c4.4 7.4 8.1 14.2 11 20.9 2.8 6.7 4.8 13.4 5.8 20.8h2.3c-.6-9.5-2.9-17.9-6.3-25.5s-8.1-14.6-13.5-21.5c-5.4 6.4-9.8 13.2-13.1 20.9-3.3 7.8-5.3 16.5-6 26.5zm2.1-.3 28.9-.7c-1-6.8-2.9-13.1-5.5-19.4-2.6-6.2-6-12.4-10-19.1-3.7 6.3-6.5 12.4-8.7 18.7-2.1 6.5-3.6 13.2-4.7 20.5zm29.1-80.9-.7 6.7h5.1l-.8-6.7z"/><path d="m858.5 392.3c4.1 0 7.4 3.3 7.4 7.4s-3.3 7.4-7.4 7.4-7.4-3.3-7.4-7.4 3.3-7.4 7.4-7.4" fill="#fed09e"/><path d="m894 402.3c.1-.9.1-1.7.1-2.6 0-1.8-.1-3.5-.4-5.3l-8.1.1c-.4-2.2-1-4.3-1.9-6.2l6.7-4.8c-1.2-2.4-2.6-4.6-4.2-6.7l-7 4.1c-1.4-1.7-3.1-3.2-4.8-4.5l3.4-7.4c-2.2-1.5-4.5-2.7-7-3.7l-4 7.1c-2.1-.7-4.2-1.2-6.5-1.4l-.8-8.1c-.7 0-1.4-.1-2.1-.1-2 0-3.9.2-5.7.5l.1 8.1c-2.2.4-4.3 1.1-6.3 2l-4.8-6.6c-2.2 1.1-4.2 2.4-6.1 3.9l4 7.1c-1.7 1.4-3.2 3.1-4.5 4.8l-7.4-3.5c-1.5 2.2-2.7 4.5-3.7 7l7 4.1c-.7 2-1.2 4.2-1.4 6.4l-8.1.7c0 .8-.1 1.6-.1 2.3 0 1.9.2 3.7.4 5.5h8.2c.4 2.1 1.1 4.2 1.9 6.1l-6.7 4.7c1.2 2.4 2.6 4.6 4.3 6.7l7.1-4.1c1.4 1.6 3 3 4.7 4.3l-3.4 7.4c2.2 1.5 4.5 2.7 7 3.7l4.1-7.1c2 .7 4 1.1 6.1 1.4l.7 8.1c.8.1 1.7.1 2.5.1 1.8 0 3.7-.1 5.4-.4v-8.1c2.1-.4 4.1-1 6-1.8l4.7 6.7c2.4-1.2 4.6-2.6 6.7-4.2l-4.1-7c1.6-1.4 3.1-2.9 4.3-4.6l7.4 3.4c1.5-2.2 2.7-4.5 3.7-7l-7.1-4c.7-2 1.2-4.1 1.5-6.3zm-39.5-20.9.1 7.1c-4.2 1-7.5 4.3-8.5 8.5h-7.1c1.1-8.1 7.5-14.4 15.5-15.6zm-15.5 21.5h7.2c1.2 4 4.5 7.2 8.6 8.1l.1 7.1c-8.1-1.1-14.5-7.3-15.9-15.2zm36.4 0c-1.3 7.6-7.2 13.5-14.8 15l-.1-7.2c3.7-1.2 6.6-4.1 7.7-7.8zm-7-5.9c-1-4-4-7.2-8-8.3v-7.2c7.8 1.4 13.9 7.6 15.1 15.5z" fill="#f58466"/><path d="m829 408.6c-.1-.4.1-.8.5-.9m29.2-44c-.1 0-.3 0-.4 0m0 0c-.3 0-.6 0-1.1 0-.9 0-1.9 0-2.8.1-.7.1-1.4.1-2.1.2l.1 7.4c0 .4-.2.8-.6.8-1.1.2-2.1.5-3.1.8s-2 .7-3 1.2c-.3.2-.7.1-1-.3l-4.4-6.1c-.9.5-1.7.9-2.5 1.5-.8.5-1.6 1.1-2.4 1.7l3.7 6.5c.2.3.1.7-.2 1-.8.7-1.6 1.5-2.3 2.2-.7.8-1.4 1.6-2 2.5-.2.3-.6.4-1 .3l-6.8-3.2c-.6.9-1.1 1.8-1.6 2.8-.5.9-.9 1.9-1.4 2.9l6.4 3.7c.4.2.5.6.4 1-.3 1-.6 2-.9 3-.2 1-.4 2-.5 3.1 0 .4-.3.7-.7.8l-7.4.6v.5 1.2c0 .9 0 1.8.1 2.7.1.7.1 1.4.2 2h7.4c.4 0 .8.2.8.6.2 1 .5 2 .8 3 .3 1 .7 2 1.1 2.9.2.3.1.8-.3 1l-6.1 4.3c.5 1 1 1.9 1.6 2.8s1.2 1.8 1.8 2.6l6.5-3.7c.3-.2.7-.1 1 .2.7.8 1.4 1.5 2.1 2.2.8.7 1.5 1.3 2.4 2 .3.2.4.6.3 1l-3.1 6.8c.9.6 1.8 1.1 2.8 1.6.9.5 1.9.9 2.9 1.4l3.7-6.4c.2-.4.6-.5 1-.4 1 .3 1.9.6 2.9.8s2 .4 3 .5c.4 0 .7.3.7.7l.7 7.5h.6 1.2c.9 0 1.8 0 2.6-.1.7 0 1.3-.1 2-.2v-7.4c0-.4.3-.7.6-.8 1-.2 2-.4 3-.7s1.9-.7 2.9-1.1c.3-.1.7 0 1 .3l4.3 6.1c1-.5 1.9-1 2.8-1.6s1.8-1.2 2.6-1.8l-3.8-6.4c-.2-.3-.1-.7.2-1 .8-.7 1.5-1.4 2.2-2.1.7-.8 1.4-1.5 2-2.3.2-.3.6-.4 1-.3l6.8 3.1c.6-.9 1.1-1.8 1.6-2.8.5-.9 1-1.9 1.4-2.9l-6.4-3.7c-.4-.2-.5-.6-.4-1 .3-1 .6-2 .9-3 .2-1 .4-2 .5-3.1 0-.4.3-.7.7-.7l7.5-.7c0-.2 0-.4 0-.6 0-.4 0-.8 0-1.3 0-.9 0-1.7-.1-2.6 0-.6-.1-1.3-.2-1.9h-7.4c-.4 0-.7-.3-.8-.6-.2-1-.4-2.1-.8-3.1-.3-1-.7-2-1.1-3-.2-.3-.1-.8.3-1l6.1-4.4c-.5-1-1-1.9-1.6-2.8s-1.2-1.8-1.8-2.6l-7.1 4c-.7-.8-1.7-2-2.5-2.7s-1.6-1.4-2.5-2c-.3-.2-.4-.6-.3-1l3.1-6.8c-.9-.6-1.8-1.1-2.8-1.6-.9-.5-1.9-.9-2.9-1.3l-3.7 6.5c-.2.3-.6.5-.9.4-1-.3-2-.7-3.1-.9-1-.2-2.1-.4-3.2-.5-.4 0-.7-.3-.7-.7l-.7-7.5m19.8 5.6-3.1 6.9c.7.6 1.4 1.2 2.1 1.8s1.3 1.3 1.9 2l6.5-3.8c.4-.2.8-.1 1 .2.8 1 1.6 2.2 2.3 3.3s1.4 2.3 2 3.5c.2.3.1.8-.3 1l-6.2 4.4c.3.8.7 1.7.9 2.6.3.9.5 1.7.7 2.6l7.5-.1c.4 0 .7.3.8.7.1.9.2 1.8.3 2.7s.1 1.8.1 2.7v1.3c0 .5 0 .9-.1 1.3 0 .4-.4.7-.8.7l-7.5.7c-.1.9-.3 1.8-.5 2.6-.2.9-.4 1.7-.7 2.5l6.5 3.7c.3.2.5.6.3 1-.5 1.3-1.1 2.5-1.7 3.7s-1.3 2.3-2.1 3.5c-.2.3-.6.4-1 .3l-6.9-3.2c-.5.7-1.1 1.4-1.7 2s-1.2 1.2-1.9 1.8l3.8 6.5c.2.4.1.8-.3 1-1 .8-2.1 1.6-3.3 2.3s-2.3 1.4-3.5 2c-.4.2-.8 0-1-.3l-4.3-6.1c-.8.3-1.6.6-2.5.9-.8.3-1.7.5-2.5.7v7.5c0 .4-.3.7-.7.8-.9.1-1.8.2-2.8.3-.9.1-1.8.1-2.8.1-.4 0-.8 0-1.3 0s-.9 0-1.3-.1c-.4 0-.7-.4-.7-.8l-.7-7.5c-.9-.1-1.7-.3-2.6-.5s-1.7-.4-2.5-.7l-3.7 6.5c-.2.3-.6.5-1 .3-1.3-.5-2.5-1-3.7-1.7-1.2-.6-2.4-1.3-3.5-2.1-.3-.2-.4-.6-.3-1l3.2-6.8c-.7-.5-1.4-1.1-2-1.7s-1.3-1.2-1.8-1.8l-6.5 3.8c-.3.2-.8.1-1-.2-.8-1-1.6-2.2-2.4-3.3-.7-1.1-1.4-2.3-2-3.5-.2-.4-.1-.8.3-1l6.1-4.3c-.4-.8-.6-1.7-.9-2.5-.3-.8-.5-1.7-.7-2.5h-7.5c-.4 0-.7-.3-.8-.7-.1-.9-.3-1.9-.3-2.8-.1-1-.1-1.9-.1-2.8 0-.3 0-.7 0-1.2 0-.4 0-.8 0-1.2s.3-.7.7-.7l7.5-.7c.1-.9.3-1.8.5-2.7s.4-1.8.7-2.6l-6.5-3.8c-.3-.2-.5-.6-.3-1 .5-1.3 1.1-2.5 1.7-3.7s1.3-2.4 2.1-3.5c.2-.3.7-.4 1-.3l6.8 3.2c.5-.7 1.2-1.4 1.8-2.1s1.3-1.3 1.9-1.9l-3.7-6.5c-.2-.4-.1-.8.3-1 1-.8 2-1.5 3-2.1 1-.7 2.1-1.3 3.2-1.8.4-.2.8-.1 1 .3l4.4 6c.9-.4 1.7-.7 2.6-1s1.8-.5 2.7-.7l-.1-7.5c0-.4.3-.7.7-.8 1-.2 1.9-.3 2.9-.3 1-.1 2-.1 2.9-.1h1.1 1.1c.4 0 .7.3.7.7l.7 7.5c.9.1 1.8.3 2.7.5s1.8.4 2.7.7l3.7-6.5c.2-.3.6-.5 1-.3 1.2.5 2.4 1 3.6 1.7 1.2.6 2.4 1.3 3.5 2 .7.2.8.6.6 1z"/><path d="m873.2 383.8c-4.1-4.1-9.7-6.6-16-6.6-6.2 0-11.9 2.5-16 6.6s-6.6 9.7-6.6 16c0 6.2 2.5 11.9 6.6 16s9.7 6.6 16 6.6c6.2 0 11.9-2.5 16-6.6s6.6-9.7 6.6-16-2.5-12-6.6-16m-16-8.2c6.7 0 12.7 2.7 17.1 7.1s7.1 10.4 7.1 17.1-2.7 12.7-7.1 17.1-10.4 7.1-17.1 7.1-12.7-2.7-17.1-7.1-7.1-10.4-7.1-17.1 2.7-12.7 7.1-17.1 10.5-7.1 17.1-7.1z"/><path d="m844.7 387.2c-2.4 2.4-4.1 5.5-4.8 9h5.6c.6-2 1.7-3.8 3.1-5.2s3.2-2.5 5.2-3.1v-5.5c-3.6.6-6.7 2.4-9.1 4.8m-6.5 9.6c.6-4.2 2.6-7.9 5.4-10.8 2.9-2.8 6.6-4.8 10.8-5.4.4-.1.8.2.9.7v.2l.1 7c0 .4-.3.7-.6.8-2 .5-3.7 1.5-5.1 2.8s-2.4 3.1-2.9 5.1c-.1.4-.4.6-.8.6h-7.1c-.4 0-.8-.3-.8-.8 0-.1.1-.1.1-.2zm6.8 15.7c2.5 2.3 5.6 4 9 4.6v-5.6c-2-.5-3.7-1.5-5.2-2.9s-2.6-3.1-3.2-5h-5.6c.7 3.5 2.5 6.5 5 8.9zm9.7 6.3c-4.2-.5-7.9-2.4-10.8-5.2s-4.9-6.5-5.7-10.6c-.1-.4.2-.8.6-.9h.1 7.2c.4 0 .7.3.8.6.5 1.9 1.6 3.5 3 4.8s3.1 2.2 5 2.7c.4.1.6.4.6.8l.1 7.1c0 .4-.3.8-.8.8 0-.1-.1-.1-.1-.1zm15.1-6.7c2.3-2.3 3.9-5.2 4.6-8.5h-5.6c-.6 1.8-1.6 3.3-2.9 4.6s-2.8 2.3-4.6 3v5.6c3.4-.7 6.3-2.4 8.5-4.7zm6.4-9c-.7 3.9-2.6 7.4-5.3 10.2-2.7 2.7-6.2 4.7-10.1 5.4-.4.1-.8-.2-.9-.6 0-.1 0-.1 0-.2l-.1-7.1c0-.3.2-.7.6-.8 1.7-.5 3.3-1.5 4.5-2.8s2.1-2.8 2.6-4.5c.1-.3.4-.6.8-.6h7.1c.4 0 .8.3.8.8zm-6.3-15.8c-2.3-2.4-5.3-4.1-8.7-4.9v5.6c1.9.7 3.5 1.7 4.9 3.1 1.3 1.4 2.3 3.1 2.9 5h5.6c-.7-3.3-2.4-6.4-4.7-8.8zm-9.4-6.6c4.1.7 7.7 2.7 10.5 5.5s4.7 6.5 5.3 10.6c.1.4-.2.8-.7.9h-.1-7.1c-.4 0-.7-.3-.8-.7-.5-1.8-1.4-3.5-2.7-4.8s-2.9-2.4-4.7-2.9c-.3-.1-.6-.4-.6-.8l-.1-7.1c0-.4.3-.8.8-.8.2.1.2.1.2.1z"/><path d="m861.9 395c-1.2-1.2-2.9-1.9-4.7-1.9s-3.5.7-4.7 2c-1.2 1.2-1.9 2.9-1.9 4.7s.7 3.5 2 4.7c1.2 1.2 2.9 2 4.7 2s3.5-.7 4.7-1.9c1.2-1.2 1.9-2.9 1.9-4.7 0-2-.8-3.7-2-4.9m-4.7-3.5c2.3 0 4.3.9 5.8 2.4 1.5 1.5 2.4 3.5 2.4 5.8s-.9 4.3-2.4 5.8c0 0 0 0-.1 0-1.5 1.5-3.5 2.4-5.8 2.4s-4.3-.9-5.8-2.4-2.4-3.5-2.4-5.8.9-4.3 2.4-5.8c1.6-1.5 3.7-2.4 5.9-2.4z"/><g stroke="#000" stroke-miterlimit="10"><path d="m893.4 239.9c-1.7-1.3-3.4-2.2-5.4-2.1s-3.6-.9-5-2.6c-1.1-1.4-3.4-3.3-5.4-4.3l22.3-3.5-23.1-3.6c1.6-1.4 4.7-2.3 6.7-2.2 4.8.1 5.7-3.8 8.9-5.4 2-1 3.3-2 3.9-3 2.1-3.1 1-6.4-1.2-9.7 1.4 4.4 0 6.6-3.4 7.1-2.1.3-4 .8-5.3 2.4-1.3 1.5-3.2 1.9-5.3 1.7-1.7-.2-4.7 0-6.9.8l13.3-18.2-19 13.7c.1-2.1 1.7-4.9 3.2-6.3 3.4-3.3 1.4-6.7 2.4-10.1.7-2.2.9-3.7.6-4.9-.8-3.7-3.8-5.2-7.7-6 4.1 2.1 4.7 4.7 2.6 7.4-1.3 1.7-2.2 3.4-2.1 5.4s-.9 3.6-2.6 5c-1.4 1.1-3.3 3.4-4.4 5.4l-3.5-22.3-3.6 23.1c-1.4-1.6-2.3-4.7-2.2-6.7.1-4.8-3.8-5.7-5.4-8.9-1-2-2-3.3-3-3.9-3.1-2.1-6.4-1-9.7 1.2 4.4-1.4 6.6 0 7.1 3.4.3 2.1.8 4 2.4 5.3 1.5 1.3 1.9 3.2 1.7 5.3-.2 1.7 0 4.7.8 6.9l-18.2-13.3 13.8 18.8c-2.1-.1-4.9-1.7-6.3-3.2-3.3-3.4-6.7-1.4-10.1-2.4-2.1-.7-3.7-.9-4.9-.6-3.7.8-5.2 3.8-6 7.7 2.1-4.1 4.7-4.7 7.4-2.6 1.7 1.3 3.4 2.2 5.4 2.1s3.6.9 5 2.6c1.1 1.4 3.4 3.3 5.4 4.3l-22.3 3.5 23.1 3.6c-1.6 1.4-4.7 2.3-6.7 2.2-4.8-.1-5.7 3.8-8.9 5.4-2 1-3.3 2-3.9 3-2.1 3.1-1 6.4 1.2 9.7-1.4-4.4 0-6.6 3.4-7.1 2.1-.3 4-.8 5.3-2.4 1.3-1.5 3.2-1.9 5.3-1.7 1.7.2 4.7 0 6.9-.8l-13 18.5 18.8-13.8c-.1 2.1-1.7 4.9-3.2 6.3-3.4 3.3-1.4 6.7-2.4 10.1-.7 2.2-.9 3.7-.6 4.9.8 3.7 3.8 5.2 7.7 6-4.1-2.1-4.7-4.7-2.6-7.4 1.3-1.7 2.2-3.4 2.1-5.4s.9-3.6 2.6-5c1.4-1.1 3.3-3.4 4.3-5.4l3.5 22.3 3.6-23.1c1.4 1.6 2.3 4.7 2.2 6.7-.1 4.8 3.8 5.7 5.4 8.9 1 2 2 3.3 3 3.9 3.1 2.1 6.4 1 9.7-1.2-4.4 1.4-6.6 0-7.1-3.4-.3-2.1-.8-4-2.4-5.3-1.5-1.3-1.9-3.2-1.7-5.3.2-1.7-.1-4.7-.8-6.9l18.2 13.3-13.8-18.8c2.1.1 4.9 1.7 6.3 3.2 3.3 3.4 6.7 1.4 10.1 2.4 2.1.7 3.7.9 4.9.6 3.7-.8 5.2-3.8 6-7.7-2.1 3.9-4.7 4.5-7.4 2.4z" fill="#ffcb05" stroke-linecap="round" stroke-linejoin="round" stroke-width="1.2972"/><path d="m854 230.1c.1-.1.3-.2.4 0 .1.1.2.3 0 .4-.5.6-.7 1.1-.7 1.6 0 .3 0 .5.1.7s.2.3.3.4.3.2.5.2h.5c.5 0 1 0 1.5.3.4.3.8.4 1.2.4s.7-.2 1.1-.4c.4-.3.8-.3 1.2-.3h.4c.4 0 .8-.2 1-.3s.3-.3.3-.4c.1-.2.1-.3.1-.5 0-.3-.2-.7-.5-1.2-1-1.4-1.6-2.7-1.8-4s-.1-2.7.4-4c.1-.2.3-.2.4-.2s.2.3.2.4c-.5 1.3-.6 2.5-.4 3.7s.8 2.5 1.7 3.8c.3.5.6 1 .6 1.5 0 .3 0 .6-.1.9s-.3.5-.5.7c-.3.2-.7.4-1.3.4-.2 0-.3 0-.5 0-.3 0-.7 0-.9.2-.4.3-.9.5-1.4.5s-1-.1-1.6-.5c-.3-.2-.7-.2-1.1-.2-.2 0-.4 0-.6 0-.4 0-.7-.1-.9-.3s-.4-.4-.5-.7-.2-.6-.1-.9c.2-.8.4-1.5 1-2.2" stroke-width=".4757"/><path d="m862.5 219.9c.2.1.4.1.8-.1 1.2-.7 2.6-1 4.1-1 1.4 0 2.8.3 4.3.9-1.4-.8-2.9-1.3-4.4-1.4-1.6-.1-3.1.3-4.5 1-.3.1-.4.3-.4.4.1.1.1.1.1.2zm1.2.4c-.6.3-1.1.3-1.4.1-.1-.1-.3-.2-.3-.3-.1-.1-.1-.3-.1-.4 0-.3.2-.7.7-.9 1.5-.8 3.1-1.2 4.8-1.1 1.6.1 3.3.6 4.9 1.6.4.3.7.5.8.7.1.1.1.3.1.4-.1.2-.2.3-.4.3s-.5-.1-1-.3c-1.5-.6-3-1-4.3-1-1.5.1-2.7.4-3.8.9z" stroke-width=".4757"/><path d="m853.2 220.7c-.3.2-.8.2-1.4-.1-1.1-.6-2.4-.9-3.8-.9s-2.8.3-4.3 1c-.5.2-.8.3-1 .3s-.3-.1-.4-.3c0-.1 0-.3.1-.4.1-.2.4-.5.8-.7 1.6-1 3.3-1.5 4.9-1.6 1.7-.1 3.3.3 4.8 1.1.5.3.7.6.7.9 0 .2 0 .3-.1.4s-.2.2-.3.3m-1.1-.7c.4.2.6.2.8.1 0 0 .1 0 .1-.1 0 0 0 0 0-.1s-.1-.3-.4-.4c-1.4-.7-2.9-1.1-4.5-1-1.5.1-2.9.5-4.4 1.4 1.5-.6 2.9-.9 4.3-.9 1.5.1 2.8.4 4.1 1z" stroke-width=".4757"/><path d="m869.1 222.4v.9c0 .2-.1.3-.1.5.7-.2 1.3-.4 2-.8h.1c-.6-.1-1.1-.3-1.5-.5-.3 0-.4-.1-.5-.1m-3.3 1.5c-.1-.3-.2-.6-.2-.8 0-.3 0-.5.1-.7-.5.2-1 .5-1.4.9-.1.1-.1 0-.1.1h.1c.5.1 1 .3 1.5.5zm.7-1.8c-.2.3-.3.6-.3.9s.1.7.3 1h1.1c.2 0 .4 0 .6-.1.2-.2.3-.5.3-.8.1-.3 0-.6 0-1-.7-.1-1.4-.1-2 0zm-2.5 1.7c-.3-.2-.4-.3-.4-.6 0-.2.1-.4.3-.5.6-.6 1.4-1 2.2-1.2s1.7-.2 2.6.1c.3.1.7.2 1 .3.5.2 1 .3 1.5.5.2 0 .4.1.5.2.1.1.2.2.2.3s0 .2-.1.3-.3.2-.5.3c-1.2.6-2.4 1-3.6 1.1-1.3.1-2.5-.1-3.7-.8z" stroke-width=".4757"/><path d="m851.9 223.5c0 .2-.1.4-.4.6-1.2.7-2.4.9-3.7.8-1.2-.1-2.4-.5-3.6-1.1-.2-.1-.4-.2-.5-.3s-.1-.2-.1-.3.1-.3.2-.3c.1-.1.3-.2.5-.2.5-.1 1-.3 1.5-.5.3-.1.7-.2 1-.3.9-.3 1.8-.3 2.6-.1s1.6.6 2.2 1.2c.2.2.3.3.3.5m-5.4.5c-.1-.2-.1-.3-.1-.5 0-.3-.1-.6 0-.9-.1 0-.2.1-.3.1-.5.2-1 .3-1.5.5h.1c.4.4 1.1.6 1.8.8zm.5-1.6c-.1.4-.1.7 0 1 0 .3.2.5.3.8.2 0 .4 0 .6.1h1.1c.2-.3.3-.7.3-1s-.1-.6-.3-.9c-.7-.2-1.3-.1-2 0zm4.2 1.1h.1-.1c-.4-.5-.9-.8-1.4-1 .1.2.1.5.1.7 0 .3-.1.6-.2.8.5 0 1-.2 1.5-.5z" stroke-width=".4757"/><path d="m853.1 238.9c-.3-.3-.7-.7-1-1.1-.1-.1-.1-.2 0-.3.1-.2.3-.2.4-.2.7.3 1.3.5 1.9.5s1.3-.1 2-.5c.8-.3 1.1 0 1.4.4 0 .1.1.1.2.2.1-.1.1-.2.2-.2.3-.4.7-.8 1.7-.4.6.2 1.3.3 2 .3s1.4-.2 2.1-.4c.1 0 .2 0 .3.1s.1.3 0 .5c-.5.5-1 .9-1.5 1.3-1.7 1.4-3.5 2-5.1 2-1.7-.1-3.2-.8-4.6-2.2m.3-.6s.1.1.1.1c1.3 1.3 2.7 1.9 4.2 2 1.5 0 3.1-.5 4.7-1.8.2-.1.4-.3.5-.4-.3.1-.7.1-1 .1-.8 0-1.5-.1-2.2-.3-.6-.3-.8 0-1 .2s-.3.4-.6.5c-.1 0-.2 0-.3 0-.2-.1-.3-.3-.5-.4-.2-.2-.3-.4-.6-.2-.8.4-1.6.5-2.3.5-.4-.1-.7-.2-1-.3z" stroke-width=".4757"/><path d="m2281.5 387.2c-14.3-11.1-28.9-19.1-46.7-18.1-17.2.9-30.9-7.5-42.8-22.1-9.5-11.6-28.9-28.2-46.7-37.3l191.3-29.6-198.1-30.7c13.8-12.2 40.1-19.3 57.5-18.9 40.9.9 49-32.5 76.1-46.6 17.2-8.9 28-17.3 33.6-25.8 17.7-27 8.8-54.8-10.6-83.1 11.8 37.8-.4 57-29.1 60.7-18 2.3-34 6.9-45.9 20.2-11.5 12.8-27.2 16.5-45.9 14.6-14.9-1.5-40.4.5-59.4 6.6l114.4-156.2-161.8 118.4c1.1-18.4 14.7-42 27.3-54.1 29.6-28.3 11.6-57.6 20.8-86.8 5.8-18.4 7.5-32 5.5-42-6.5-31.6-32.5-44.9-66.3-51.3 35.1 18.4 40 40.6 22.3 63.5-11.1 14.3-19.1 28.9-18.1 46.7.9 17.2-7.5 30.9-22.1 42.8-11.6 9.5-28.2 28.9-37.3 46.7l-29.5-191.5-30.7 198.1c-12.2-13.8-19.3-40.1-18.9-57.5.9-40.9-32.5-49-46.6-76.1-8.9-17.1-17.3-28-25.8-33.6-27-17.7-54.8-8.8-83.1 10.6 37.8-11.8 57 .4 60.7 29.1 2.3 18 6.9 34 20.2 45.9 12.8 11.5 16.5 27.2 14.6 45.9-1.5 14.9.4 40.4 6.6 59.4l-156.3-114.4 118.4 161.8c-18.4-1.1-42.1-14.7-54.1-27.3-28.3-29.6-57.6-11.6-86.8-20.8-18.4-5.8-32.1-7.5-42-5.5-31.6 6.5-44.9 32.5-51.3 66.3 18.4-35.1 40.6-40 63.5-22.3 14.3 11.1 28.9 19.1 46.7 18.1 17.2-.9 30.9 7.5 42.8 22.1 9.5 11.6 28.9 28.2 46.7 37.3l-191.3 29.6 198.1 30.7c-13.8 12.2-40.2 19.3-57.6 18.9-40.9-.9-49 32.5-76.1 46.6-17.2 8.9-28 17.3-33.6 25.8-17.7 27-8.8 54.8 10.6 83.1-11.8-37.8.4-57 29.1-60.7 18-2.3 34-6.9 45.9-20.2 11.5-12.8 27.2-16.5 45.9-14.6 14.9 1.5 40.4-.5 59.4-6.6l-114.4 156.2 161.8-118.4c-1.1 18.4-14.7 42-27.3 54.1-29.6 28.3-11.6 57.6-20.8 86.8-5.8 18.4-7.5 32-5.5 42 6.5 31.6 32.5 44.9 66.3 51.3-35.1-18.4-40-40.6-22.3-63.5 11.1-14.3 19.1-28.9 18.1-46.7-.9-17.2 7.5-30.9 22.1-42.8 11.6-9.5 28.2-28.9 37.3-46.7l29.6 191.3 30.7-198.1c12.2 13.8 19.3 40.2 18.9 57.5-.9 40.9 32.5 49 46.6 76.1 8.9 17.2 17.4 28 25.8 33.6 27 17.7 54.8 8.8 83.1-10.6-37.8 11.8-57-.4-60.7-29.1-2.3-18-6.9-34-20.2-45.9-12.8-11.5-16.5-27.2-14.6-45.9 1.5-14.9-.4-40.4-6.6-59.4l156.2 114.4-118.4-161.8c18.4 1.1 42.1 14.7 54.1 27.3 28.3 29.6 57.6 11.6 86.8 20.8 18.4 5.8 32 7.5 42 5.5 31.6-6.5 44.9-32.5 51.3-66.3-18.3 35.2-40.5 40.1-63.4 22.5z" fill="#ffcb05" stroke-linecap="round" stroke-linejoin="round" stroke-width="7"/><path d="m1942.7 303.2c.9-1.2 2.7-1.3 3.8-.4 1.2.9 1.3 2.7.4 3.8-3.9 4.9-5.8 9.8-6 14-.1 2.1.2 4 .9 5.7.6 1.6 1.5 2.9 2.7 3.8 1.3 1 2.9 1.7 4.7 1.8 1.6.1 3.1 0 4.5 0 4.5-.2 8.6-.3 12.6 2.6 3.6 2.6 7 3.5 10.2 3.3s6.3-1.5 9.2-3.4c3.2-2.1 6.8-2.2 10.4-2.2 1.2 0 2.4 0 3.5-.2 3.6-.4 6.4-1.3 8.4-2.7 1.3-1 2.3-2.1 2.9-3.4s.8-2.9.6-4.6c-.3-2.9-1.7-6.3-4.2-9.8-8.4-11.9-13.7-23.3-15.7-34.7-2-11.5-.8-22.9 3.9-34.8.6-1.4 2.1-2.1 3.5-1.5 1.4.5 2.1 2.1 1.5 3.5-4.3 10.9-5.4 21.4-3.6 31.8 1.9 10.6 6.8 21.2 14.8 32.5 3.1 4.3 4.8 8.6 5.2 12.4.3 2.7-.1 5.1-1 7.3-1 2.2-2.6 4.2-4.7 5.7-2.7 1.9-6.4 3.2-11 3.7-1.3.1-2.7.2-4 .2-2.8 0-5.6.1-7.5 1.3-3.6 2.4-7.6 4.1-11.8 4.3-4.3.3-8.9-.9-13.6-4.3-2.6-1.8-5.7-1.7-9.3-1.6-1.6.1-3.2.1-5 0-3.1-.1-5.8-1.2-7.9-3-1.9-1.5-3.4-3.6-4.3-6-.9-2.3-1.4-5-1.2-7.9.1-5.3 2.3-11.4 7.1-17.2" stroke-width="2.2281"/><path d="m2016.5 215.5c1.4.7 3.8.6 6.9-1.1 10.4-5.6 22.2-8.3 34.9-8.2 11.7.1 24.1 2.7 36.9 7.8-12.2-7.3-25-11.2-37.5-11.9-13.5-.8-26.7 2.1-38.5 8.5-2.3 1.2-3.3 2.6-3.4 3.7 0 .3 0 .5.2.7 0 .1.2.3.5.5m9.5 3.7c-5 2.7-9.3 2.6-12.1 1.1-1.2-.7-2.2-1.6-2.8-2.6-.7-1.1-1-2.4-.9-3.8.2-2.8 2.1-5.9 6.3-8.1 12.7-6.9 26.9-10 41.4-9.2 14.1.8 28.4 5.4 42 13.9 3.5 2.2 6 4.4 7.1 6 .8 1.2 1 2.4.6 3.5-.5 1.4-1.6 2.2-3.4 2.3-1.6.1-4.4-.6-8.7-2.4-12.9-5.5-25.5-8.2-37.3-8.3-11.7-.1-22.6 2.4-32.2 7.6z" stroke-width="2.2281"/><path d="m1935.8 222.4c-2.8 1.5-7.1 1.6-12-1.1-9.6-5.1-20.5-7.7-32.3-7.6-11.7.1-24.3 2.9-37.3 8.3-4.3 1.8-7.1 2.5-8.7 2.4-1.8-.1-2.9-.9-3.4-2.3-.4-1.1-.2-2.3.6-3.5 1-1.6 3.6-3.8 7.1-6 13.6-8.5 27.9-13.1 42-13.9 14.5-.8 28.7 2.3 41.4 9.2 4.2 2.2 6.1 5.3 6.3 8.1.1 1.4-.2 2.6-.9 3.8-.6 1-1.5 2-2.8 2.6m-9.5-5.9c3.2 1.7 5.6 1.8 6.9 1.1.3-.2.5-.4.7-.6.1-.2.2-.4.2-.7-.1-1.1-1.1-2.4-3.4-3.7-11.8-6.4-25.1-9.3-38.6-8.5-12.5.7-25.3 4.6-37.5 11.9 12.8-5.1 25.2-7.7 36.9-7.8 12.7 0 24.5 2.8 34.8 8.3z" stroke-width="2.2281"/><path d="m2073.1 236.8c.3 2.7.3 5.2-.2 7.6-.3 1.4-.7 2.8-1.2 4.2 5.6-1.5 11.3-3.7 16.9-6.5.2-.1.4-.2.6-.3-4.8-1-9.1-2.5-13.3-4-1-.3-1.9-.7-2.8-1m-29.1 12.5c-.9-2.4-1.4-4.8-1.5-7.2-.1-2.1.2-4.2.8-6.3-4.5 1.8-8.6 4.4-12.3 7.9-.5.5-.9.4-.9.6 0 .3.3-.3.9 0 4.4 2.4 8.7 4 13 5zm6.3-15.3c-1.8 2.6-2.5 5.3-2.4 8s1 5.6 2.5 8.5c3.1.3 6.2.4 9.3.2 1.6-.1 3.3-.3 4.9-.5 1.5-2 2.5-4.2 2.9-6.6.5-2.5.4-5.3-.3-8.4-5.9-1.8-11.6-2.1-16.9-1.2zm-21.8 15.3c-2.7-1.4-3.8-3-3.8-4.8 0-1.7 1-3 2.6-4.5 5.5-5.3 12-8.9 19.1-10.7 7-1.7 14.5-1.6 22.3.5 3 .8 5.9 1.8 8.9 2.9 4 1.4 8.2 2.9 12.7 3.9 1.9.4 3.3 1 4.2 1.7 1 .8 1.6 1.8 1.6 2.9.1 1-.3 2-1.1 2.9-.8 1-2.3 2-4.1 2.9-10.1 5-20.5 8.3-30.9 9.1-10.5.7-21-1.3-31.5-6.8z" stroke-width="2.2281"/><path d="m1925 246.6c0 1.9-1.1 3.4-3.8 4.8-10.5 5.6-21 7.5-31.5 6.8-10.4-.7-20.7-4-30.9-9.1-1.9-.9-3.3-1.9-4.2-2.9-.8-.9-1.1-1.9-1.1-2.9.1-1.2.6-2.1 1.6-2.9.9-.7 2.3-1.3 4.2-1.7 4.5-1 8.6-2.4 12.7-3.9 3-1.1 6-2.1 8.9-2.9 7.8-2.1 15.3-2.2 22.3-.5 7.2 1.8 13.7 5.4 19.1 10.7 1.7 1.4 2.7 2.7 2.7 4.5m-46.8 4.1c-.6-1.3-1-2.7-1.2-4.2-.5-2.4-.5-4.9-.2-7.6-.9.3-1.8.6-2.7 1-4.2 1.5-8.5 3-13.3 4 .2.1.4.2.6.3 5.5 2.8 11.1 5 16.8 6.5zm4.4-13.6c-.7 3.1-.8 5.9-.3 8.4.5 2.4 1.4 4.6 2.9 6.6 1.6.2 3.3.4 4.9.5 3.1.2 6.2.2 9.3-.2 1.4-2.9 2.4-5.8 2.5-8.5s-.6-5.3-2.4-8c-5.3-.7-11-.4-16.9 1.2zm36.1 9.5c.6-.3.9.3.9 0 0-.2-.3-.1-.9-.6-3.6-3.5-7.8-6.2-12.3-7.9.7 2.1.9 4.2.8 6.3-.1 2.4-.6 4.8-1.5 7.2 4.4-1.1 8.7-2.7 13-5z" stroke-width="2.2281"/><path d="m1934.9 378.8c-2.9-2.8-5.7-6-8.4-9.5-.6-.8-.8-1.8-.3-2.8.6-1.4 2.2-2 3.6-1.3 5.9 2.7 11.1 4.3 16.5 4.5 5.3.2 10.7-1 17-4 .1 0 .2-.1.3-.1 6.5-2.8 9.1.4 11.8 3.6.4.5.9 1.1 1.3 1.5.6-.5 1.2-1.3 1.8-1.9 3-3.7 6.1-7.3 14.6-3.3 5.5 2 11.1 2.8 16.8 2.5 5.8-.2 11.7-1.4 17.8-3.4.9-.3 2-.1 2.8.6 1.1 1.1 1.1 2.8 0 3.8-4.2 4.3-8.4 8.1-12.5 11.3-14.9 11.7-29.6 17.2-43.6 16.8-14.3-.3-27.5-6.6-39.5-18.3m2.8-5c.4.4.7.7 1.1 1.1 10.9 10.7 22.9 16.4 35.6 16.8s26.3-4.7 40.1-15.6c1.5-1.2 3-2.4 4.5-3.7-3 .6-6 .9-9 1-6.4.2-12.8-.6-18.9-2.9-.1 0-.2-.1-.3-.1-4.8-2.2-6.5-.2-8.2 1.9-1.4 1.7-2.8 3.3-5 4.3-.8.3-1.6.3-2.3-.1-1.8-1-3-2.4-4.1-3.8-1.3-1.6-2.6-3.2-5.4-2h-.1c-7.2 3.3-13.4 4.7-19.5 4.5-3-.2-5.8-.6-8.5-1.4z" stroke-width="2.2281"/></g></svg>