<svg height="500" viewBox="0 0 750.00001 500.00001" width="750" xmlns="http://www.w3.org/2000/svg"><g transform="translate(0 -552.36216)"><path d="m0 552.36218h750v500h-750z" fill="#0f47af"/><path d="m50 602.36218h650v400h-650z" fill="#fff"/><g clip-rule="evenodd" fill-rule="evenodd" image-rendering="optimizeQuality" shape-rendering="geometricPrecision" text-rendering="geometricPrecision" transform="matrix(1.0846842 0 0 1.0926496 298.46928 676.51932)"><g stroke="#000"><g transform="matrix(.39206758 0 0 .44380991 -55.642334 -103.38612)"><g stroke-width=".676569"><path d="m7.2765321 465.03964c11.8648969 13.69283 16.9726579 25.69638 23.8369159 38.13906l-2.00732-14.05123c-6.566443-9.52807-12.885889-21.03212-20.0731916-25.59332z" fill="#008f4c"/><path d="m8.4530239 430.80737 28.8212551.99816c3.810714-18.55073 8.674064-21.81728 19.572759-34.68086 10.849738-7.12399 2.811326-22.53059-3.53052-20.41791-5.050611-6.18118-11.511898-10.41208-19.77795-7.11548-8.985212-3.72383-16.030028-3.06006-20.701313 1.6896-7.4540449-1.81526-15.97041-.0589-18.1175273 6.87495-9.0622927.55947-11.8904627 7.7542-10.0691167 13.57559 7.0524854 10.35911 18.3981705 22.88851 23.8024129 39.07595z" fill="#e7e7e7"/><path d="m27.440924 448.46036c-.762548-4.6148 1.139874-5.8012 5.10508-8.56834l-.000002-.00003c15.163848-9.64335 6.073862-23.24439 21.384953-39.4225-13.907508 9.3303-16.122105 13.68936-20.873237 26.27156 3.298832-9.38251-1.16066-17.13426.5385-29.49035-4.205802 4.77489-5.641366 14.83737-7.660813 23.78538-.752728-11.61415-6.295885-19.35229-9.824293-28.7206-.920851 7.94226-4.572133 12.50663-1.596291 25.2696-3.540026-7.74896-4.8821671-17.11281-10.7085926-23.92567 3.0183123 8.15948-.4094204 16.58281 2.8448955 24.93972-5.2452992-12.33991-14.2568068-17.9289-21.5721959-26.55818 20.8387198 23.46985 9.4484354 40.43152 31.214456 49.48821 5.412206 1.76652 5.899557 2.59019 6.493271 7.25646l.252238-.0479c7.449527 90.0392 20.799657 178.37379 154.307007 231.99629 72.78936 28.9571 145.25333 69.21971 194.52349 124.85042l28.3644 18.20503-15.00207-31.07571c-49.13538-44.0899-139.17198-93.82553-205.20688-115.73026-147.435025-57.71069-145.75624-175.63767-152.699641-228.78156z" fill="#008f4c"/><path d="m111.90349 643.36487c6.74162-9.30543 14.30698-11.60916 22.13476-11.68223l-.40991-2.25447c-9.82354.18295-18.23407 2.72092-23.15951 11.06738z" fill="#008f4c"/><path d="m114.95437 598.25456-33.281001 8.81496c-4.634961-16.36784-5.961352-19.78213-16.55055-30.58254-10.164625-5.661-4.006295-20.0003 1.798972-18.52942 4.101503-5.87449 9.592551-10.09539 17.195243-7.69179 7.779281-3.93457 14.116365-3.80869 18.604316.13611 6.53815-2.12257 14.26225-1.11563 16.64032 4.95415 9.15966 1.03098 9.94695 4.45965 10.70407 8.89794-5.61253 9.75115-11.35792 19.13697-15.11137 34.00059z" fill="#e7e7e7"/><path d="m88.82119 619.36757c-15.836526-9.80253-7.779021-26.2336-24.246453-43.54465 14.560448 9.54962 17.091862 14.37731 22.761977 28.45247-3.984786-10.51667-.111763-19.81971-2.721541-33.89555 4.547951 5.13605 6.724956 16.59461 9.401686 26.72058-.109667-13.43153 4.845052-22.81155 7.669801-33.89555 1.50665 9.06232 5.48601 14.00348 3.46377 28.94729 2.95629-9.22122 3.60111-20.11318 8.90686-28.45247-2.4056 9.6491 1.63668 19.05079-.98965 28.9473 4.3168-14.6509 12.88954-21.85391 19.54561-32.41108-19.04292 28.7939-6.42748 47.34198-27.46282 59.62648-5.26648 2.49586-5.691478 3.48552-5.937903 8.90686l-4.665576.0235c.418608-5.37654-1.56647-6.57937-5.725761-9.4252z" fill="#008f4c"/><path d="m106.40177 657.47519c17.19999 7.61368 37.43581 11.21446 56.46697 15.53204l-11.90306-5.80637c-11.85685-.69464-29.5119-7.53535-43.98327-12.33854z" fill="#008f4c"/><path d="m198.36112 704.30811c27.27693-.0726 42.81062 5.44853 57.73821 9.80111l9.74921 6.10417c-11.48311-5.71791-53.80659-14.18222-68.06606-13.29198z" fill="#008f4c"/><path d="m84.413453 636.45734c-10.875734-26.91466-24.790342-16.51235-38.721767-21.42604-1.944814 3.35589-1.548916 6.71177-.774436 10.06766-14.336705-10.69854-26.031621-.69796-45.9498305.77444 14.6451975 7.02437 9.0296197 33.0816 44.6591055 20.39346-11.254268 12.27141-31.913205 2.77103-20.65161 77.44354 4.137945-24.22497 45.199521-18.90118 52.403459-52.66161-1.914446 34.82888 8.133622 9.58047 19.102739 43.62653 4.919523-27.72138 38.215387-77.91122-10.06766-78.21798z" fill="#008f4c"/><path d="m84.413453 636.45735c-33.535743 15.14066-45.815672 41.57348-57.824506 68.15031" fill="none"/><path d="m40.012493 678.01871c-7.133897 2.74121-10.651335 7.6523-14.456126 12.39097" fill="none"/><path d="m41.819509 674.14653c1.151837 8.13625.22138 15.43958-2.065161 22.20048" fill="none"/><path d="m52.661604 659.94855c-9.100317 3.78613-14.306151 7.57226-19.360884 11.35839" fill="none"/><path d="m55.684222 656.81803c1.112656 9.72347-1.55761 19.996-6.63665 29.71947" fill="none"/><path d="m13.939836 631.29445c18.742 11.81327 40.97689-4.85858 64.278134 3.87217" fill="none"/><path d="m24.265641 642.65283c11.208615-1.53357 17.047749-4.67798 21.426045-8.26064" fill="none"/><path d="m54.46862 623.0338c.29042 4.59572 11.823038 6.95102 13.939836 10.32581" fill="none"/><path d="m42.077654 655.30194c6.833807-3.40521 13.856338-6.62923 23.899598-7.92737.939435 4.9908.889415 10.16463-.924683 15.15543" fill="none"/><path d="m86.478614 638.26436c22.456206 14.82415 1.306348 39.0569 7.228063 58.59895" fill="none"/><path d="m96.513499 652.34487c-4.698266 3.71384-7.229403 7.1598-8.486014 12.2503" fill="none"/><path d="m97.062564 656.59267c2.227744 2.24057 3.612886 2.2342 7.744356 9.55137" fill="none"/><path d="m95.537352 670.47774c-4.605894 4.06529-5.37701 8.48402-7.137848 12.81153" fill="none"/><path d="m95.903396 667.73242c1.551455 5.0852 3.451425 9.00705 6.954824 11.16433" fill="none"/><path d="m173.10901 727.94203c28.41057 16.39773 33.08396 6.64459 49.96506 4.42169-18.00962-20.1379-27.69459-60.56167-67.87288-28.74096-12.96413-2.4146-25.42434-8.44063-41.78494 13.48614 5.83098-.23472 10.89118.68672 14.37048 3.97952-29.193454 6.86186-12.67127 33.70328-19.6765 52.61806 10.40335-10.61346 34.0724-5.27113 40.23734-32.27831-4.58979 42.79395 27.34971 31.67634 43.33253 50.40722-3.98576-20.43275 17.5951-41.38696-18.57109-63.89336z" fill="#008f4c"/><path d="m118.28011 755.57757c7.17738-19.88309 16.88678-38.50017 36.92107-51.95481 32.3313-.041 42.1198 13.58021 55.93434 24.76144" fill="none"/><path d="m155.64336 703.62275c1.06898 38.67478 16.57054 57.89697 30.73071 78.9271" fill="none"/><path d="m127.6197 734.29543c-6.79359 3.80712-10.72996 8.24918-14.01604 12.83574" fill="none"/><path d="m145.02909 712.01731c-4.87241.10204-9.41661-.12412-15.78648 1.47537" fill="none"/><path d="m142.37342 714.37791c.54617 4.37434.47409 9.0578-1.32783 14.60618" fill="none"/><path d="m129.83276 729.86932c1.67065 5.50806 1.22814 12.04887.59015 17.55693" fill="none"/><path d="m171.88086 704.93553c4.16414-1.91231 10.90277-2.74763 17.4094-3.09828" fill="none"/><path d="m189.29026 711.13209c2.02106-1.36094 6.00732-1.87965 10.77022-2.06552" fill="none"/><path d="m186.19198 709.50918c-.6929 7.04057 2.89895 13.16299 7.67193 19.0323" fill="none"/><path d="m170.84811 705.08306c.71336 4.96709 2.58325 9.93417 6.04902 14.90126" fill="none"/><path d="m160.66804 758.78661c-.29468-6.61452-.67308-13.24299 1.32783-19.47491 4.91842 1.50934 10.13704 3.71918 16.2291 7.96701" fill="none"/><path d="m171.43826 773.54034c-.57637-4.05944-.50041-7.9884.88522-11.65544 3.60294.42474 7.43573 1.34613 12.54066 5.01626" fill="none"/><path d="m134.06025 630.10202c15.93044-39.88853 38.05921 9.20898 64.53984-3.73542-10.78966 4.33585-11.44739 14.582-34.03387 12.03637 36.54174 8.33646 11.8062 33.64664 19.92226 49.59814-16.16008-14.42767-45.52472-4.97607-43.37243-37.35425-1.56183 12.85313-12.78516 22.48577-13.28151 35.69406-1.89872-17.90675-27.00617-51.38724 6.22571-56.2389z" fill="#008f4c"/><path d="m134.06025 629.8945c25.61086 10.02118 32.86542 27.63808 43.16491 43.995" fill="none"/><path d="m125.7593 647.11896c.90529-5.74149 2.47825-11.48297 8.30095-17.22446 5.41016-4.67478 12.74439-5.5014 20.33731-5.81066" fill="none"/><path d="m144.85148 635.08259c4.49634-2.03154 8.99269-1.77436 13.48903-1.66019" fill="none"/><path d="m166.2264 655.4199c-1.9717 5.81066-.63961 11.62133.62258 17.43199" fill="none"/><path d="m155.41769 642.96849c-1.9717 5.81066-1.67723 11.41381-.41504 17.22447" fill="none"/><path d="m164.09977 652.71379c6.13541-.0899 11.2552 2.96394 16.39646 5.95129" fill="none"/><path d="m-19.449898 569.4914c-9.65327 23.38415 6.854735 41.62724 21.1307534 42.02139 16.9058686 15.50204 48.9622016 1.42567 48.5046846-10.8055 25.792598-12.82493 16.35426-47.30096 4.3222-48.98493 9.206492-14.37437-25.13461-39.43154-41.301019-19.93015-31.281518-11.27807-43.918424 30.18563-32.656619 37.69919z" fill="#e7e7e7"/></g><path d="m14.16721 568.89111a10.805499 10.445315 0 0 1 -10.7057794 10.44487 10.805499 10.445315 0 0 1 -10.9033783-10.25208 10.805499 10.445315 0 0 1 10.5045329-10.6341 10.805499 10.445315 0 0 1 11.0972628 10.05581" fill="#ed1c24" stroke-linejoin="round" stroke-width=".432284" transform="matrix(1.5555556 0 0 1.5747127 15.661304 -322.62673)"/><path d="m-19.690021 569.25128c7.858677-10.12336 21.2917101-8.32595 26.6535649-4.80245" fill="none" stroke-width=".676569"/><path d="m12.966599 532.03234c10.659363 4.3394 10.072892 18.90014 7.68391 24.49246" fill="none" stroke-width=".676569"/><path d="m1.6808554 611.51279c-4.4582851-3.40102-5.6501277-22.48504 6.0030551-28.0943" fill="none" stroke-width=".676569"/><path d="m49.945418 600.70729c-14.211866 2.37898-22.520925-6.2208-22.571487-12.24624" fill="none" stroke-width=".676569"/><path d="m54.50774 551.72236c-4.792743 8.72909-9.437781 11.9051-17.769043 14.88757" fill="none" stroke-width=".676569"/><path d="m14.16721 568.89111a10.805499 10.445315 0 0 1 -10.7057794 10.44487 10.805499 10.445315 0 0 1 -10.9033783-10.25208 10.805499 10.445315 0 0 1 10.5045329-10.6341 10.805499 10.445315 0 0 1 11.0972628 10.05581" fill="#eac102" stroke-linejoin="round" stroke-width=".651598" transform="matrix(1.0319874 0 0 1.0446966 17.421389 -21.105281)"/><path d="m-6.2728725 451.49024c-53.7905995-13.42783-1.8462565 54.80667 2.7600639 68.24885-6.9543764-13.96704 45.9076586-87.10676-2.7600639-68.24885z" fill="#008f4c" stroke-width=".676569"/><path d="m-5.7710427 450.9884c-6.9938903 14.40381-4.4140303 31.89097-2.509149 43.91011" fill="none" stroke-width=".676569"/><path d="m-21.829596 463.53415c3.261894-5.10194 8.531106-9.20021 15.8076384-12.29483 5.19331278 2.74459 10.0890128 6.0844 13.2984897 12.79666" fill="none" stroke-width=".676569"/><path d="m61.474151 451.23932c-38.221229-23.0972-21.239007 27.27721-36.382661 46.16834l24.840575-12.04391c-11.215673 7.26575-10.640807 23.07338-17.564043 31.36436 13.724946 2.42154 26.068556-.48493 35.128086-16.05856-14.534075 20.15165 16.477206 27.88184 28.102469 40.89913-2.287985-14.64136 9.667323-30.87699-10.789341-46.92108 4.342788 6.35899 22.114194.86324 31.615274 9.28385-11.41368-5.25806 1.05343-19.78499-23.084167-29.35705 9.980227.64495 13.948737-1.28655 19.571367-2.50914-13.193743 1.79314-26.942307-56.63383-51.437559-20.82594z" fill="#008f4c" stroke-width=".676569"/><path d="m85.060151 517.98268-23.586-66.74336" fill="none" stroke-width=".676569"/><path d="m70.758002 476.33081c-9.997272 4.0343-16.815947 19.69449-16.058554 20.07319" fill="none" stroke-width=".676569"/><path d="m61.97598 451.23932c-9.925728 2.44593-15.918431 7.84164-17.814958 16.30947" fill="none" stroke-width=".676569"/><path d="m85.561981 455.75579c-6.86946-4.91943-14.311593-7.97768-23.836916-4.26556" fill="none" stroke-width=".676569"/><path d="m71.761661 480.09453c13.278115-2.4628 18.332452 5.42662 25.59332 10.53843" fill="none" stroke-width=".676569"/></g><g transform="matrix(-.31549883 0 0 .44321595 206.42396 -109.33639)"><g stroke-width=".754719"><path d="m148.40082 671.54946-3.12058-16.29635c-11.21857-11.98426-25.64561-22.82265-24.61789-39.18059-11.49541-10.15745-11.13925-23.2778-7.97481-37.10021-2.96101-21.02768 6.52892-39.98019 20.11039-58.25079 1.18124 21.18551 17.03971 31.49777 14.21596 47.1554 5.56121 10.09894 29.99649 14.62997 11.78885 50.96944 2.17781 11.75084-.15784 24.98335-10.05519 36.06001z" fill="#008f4c"/><path d="m147.70735 671.20273-19.07019-6.58789c-28.01398-.69671-55.42 35.08471-84.255608-14.90943-4.693927 3.08434-26.404165-20.3037-24.964623-30.85905-15.2656703-12.49271-16.6322841-33.92053-19.416929-54.43675 7.9218007 14.28394 22.30693 24.97715 38.487127 34.67309 15.124149-2.119 29.522186-1.33904 40.914244 11.44212 33.994379.8301 36.758049 31.53305 51.662899 50.62271z" fill="#008f4c"/><path d="m93.943017 603.27284-2.091741-15.96206c-9.785188-16.58318-27.306141-27.75133-11.949565-61.93375 1.066469-13.33687-1.507753-27.12883 13.038355-38.78075-.616265-15.79809 14.766074-25.6396 15.378574-46.47003 7.69298 32.69411 18.10639 41.73444 9.69518 55.49659 9.18976 9.03863 15.08376 19.50322 6.01771 36.44053 14.91834 34.93362-14.49173 40.31496-25.831175 57.74339z" fill="#008f4c"/><path d="m228.79432 733.48361c73.07821 27.72872 182.09164 21.99719 242.85586 79.13959 13.31301 9.20022 28.2339 28.46415 56.21663 26.04262-22.5655-13.78022-23.09941-31.93628-45.22478-46.02779-87.8833-42.09604-172.30201-37.71415-247.8162-62.95331-51.55608-14.78185-106.94053-80.58992-149.385053-142.78216l-2.933197 1.30605c43.6183 63.21383 87.77828 124.87036 146.28674 145.275z" fill="#a40"/><path d="m471.57704 812.8681c-9.66469-13.59534-2.76366-23.06388 10.7314-20.40478" fill="none"/><path d="m479.28551 808.63599c-1.02719-5.96415 4.77432-6.81262 7.40618-4.98783 9.66407 7.35351 12.31704 18.39982 22.97426 25.54376-12.74913-2.59467-27.54109-12.58124-30.38044-20.55593z"/><path d="m255.32489 740.00885-14.89684-15.93616c-15.05689-.66705-28.64924-4.08009-38.10819-15.24327-19.17152-7.21693-26.38169-22.10949-28.75436-33.95094-11.14368-20.0899-.86708-41.29889-7.2752-62.01242.82105 19.11728 36.71096 28.42678 40.18682 41.91901 28.57155 4.21055 28.22386 21.47738 29.79368 26.3293 19.85873 12.3952 7.80939 28.33573 10.73958 42.61188z" fill="#008f4c"/><path d="m175.70453 640.57347c8.23409 15.54167 19.20589 28.95401 33.76903 39.57309" fill="none"/><path d="m214.74998 684.63151c12.69787 9.62309 19.56129 20.04403 22.95239 30.33937" fill="none"/><path d="m183.88297 677.77218c8.44226 2.97415 16.88451 3.88513 25.32677 2.6382 2.53136-6.33169 1.99146-12.66339 1.05529-18.99508" fill="none"/><path d="m233.21742 688.325c1.29212 5.45229 3.64315 11.43223.79146 16.88452-7.09314 5.30854-17.48383 2.17563-25.85442 2.37438" fill="none"/><path d="m93.656316 682.52095c9.423744 11.74125 35.338234 13.34424 44.585684 29.81173 8.70608-1.36699 17.41216-3.84801 26.11824 2.90202 30.73504-8.80124 41.43541 16.90168 60.94256 27.43735l29.81173-3.42967-31.13083 7.12315c-26.2095 29.68885-53.11257 33.71581-80.72911 11.34429-12.23709-3.71927-24.78262-7.01993-27.43734-23.74385-14.94537-15.36989-18.963363-33.31094-22.160934-51.44502z" fill="#008f4c"/><path d="m104.20914 700.19693c34.54319 44.58541 61.62698 37.00496 113.17904 44.32186" fill="none"/><path d="m119.51074 732.64686c8.9699 2.66933 17.9398 2.40812 26.9097 1.58293.88313-5.71611-1.97117-11.16841-4.48495-16.88452" fill="none"/><path d="m175.44071 723.41314c4.81596 3.86097 11.30757 11.27193 11.08046 17.67598-9.441 11.26548-22.48055 12.2031-35.61578 14.77396" fill="none"/><path d="m13.175773 593.53501c29.959164 31.05063 68.072854 49.05401 107.139837 65.53213" fill="none"/><path d="m55.823671 649.35868c13.159538 2.9188 22.299027-1.19748 31.899241-4.5075" fill="none"/><path d="m27.391739 620.23329c7.842384 4.17643 12.875719 1.33025 19.070199 1.38692 2.456837-6.12558 2.162331-12.25116 0-18.37674" fill="none"/><path d="m144.93351 644.50445c.14887-34.41515-24.86207-71.60399-14.90943-110.95388" fill="none"/><path d="m131.411 621.96694c1.34521 4.51584 6.94561 8.18065 12.82905 11.78885 5.46321-4.39192 7.08349-8.78385 7.97481-13.17577" fill="none"/><path d="m147.70735 579.31904c-2.30068 6.93462-3.2029 13.86924-10.74865 20.80386-8.03383-2.47441-13.60352-6.35867-17.68328-11.09539" fill="none"/><path d="m128.63716 564.75635c6.03822-5.20661 5.83404-9.16474 7.62808-13.52251" fill="none"/><path d="m108.98727 467.54023c-4.34003 37.44348-3.71221 74.88696-14.37562 112.33044" fill="none"/><path d="m96.617551 488.60218c.04696 6.75449 3.171528 13.99826 8.692239 21.06196 4.92844-2.97651 9.45806-6.31314 10.0295-11.03245" fill="none"/><path d="m84.916463 528.38588c3.667441 7.53126 7.055048 15.00656 15.044256 23.40218 8.287461-2.89512 13.190741-7.82074 17.050151-13.37268" fill="none"/><path d="m88.948842 595.09566-9.895802-6.54238c-21.923197-5.4427-51.58829 17.75962-62.798429-27.3214-9.945821-6.53913-19.2918581-13.78709-16.254611-35.66984-6.8806836-20.63215-11.818945-41.39379-.90303392-63.21237.39487599 31.73086 39.76724892 34.73595 36.57287392 49.21535 1.77558-2.48581 27.526843 11.94202 24.833433 20.31826 20.863051 11.36997 25.801933 17.34893 23.478882 52.82749z" fill="#008f4c"/><path d="m.45151696 486.28007c21.25437704 37.26586 39.98473504 79.07495 72.69423104 95.72159" fill="none"/><path d="m35.66984 522.40142c-.199126 5.56871-1.030553 11.13742-4.51517 16.70613-9.356247-1.5888-15.561385-5.27833-21.6728138-9.03034" fill="none"/><path d="m63.663892 542.71969c-1.906405 9.03751-3.393975 18.13485-9.03034 26.6395-8.008529-.5467-15.774946-.36707-24.833432-4.06365" fill="none"/><path d="m72.087359 496.05118c9.860484-10.50618 17.849868-21.88554 16.117092-37.80191 3.879018-8.84357 11.885509-15.96736-2.051266-32.23418 1.012779-13.73992-13.841955-26.32925-2.344305-44.24875-11.505213 5.94456-23.231433 11.0051-30.182918 35.16457-6.818923 6.70334-9.455737 14.60156-10.842408 22.85697z" fill="#008f4c"/><path d="m73.552549 392.31571c-10.659356 29.4222 3.300951 56.28346-6.153799 77.94812" fill="none"/><path d="m66.226598 535.90436-4.981647-15.82406c-14.910168-13.90464-42.60064-10.93929-40.146212-47.7652-5.222315-9.90457-12.0286263-18.47526-2.93038-40.43925.889778-15.63491 10.148559-30.86041 21.977852-45.71393-7.70579 25.94299 3.777935 33.36381 5.860762 41.02532 12.643819 7.45298 20.371562 17.55307 22.856967 30.47596 11.148616 18.35844 11.892691 38.39503-1.172152 60.65887z" fill="#008f4c"/><path d="m33.113299 406.67458c-8.683089 39.06579 24.388165 72.08628 28.131652 104.90762" fill="none"/><path d="m21.098739 443.0113c6.479714 9.40914 13.297104 18.14293 22.856967 21.39177 3.92802-8.20506 4.307367-16.41013 4.395571-24.61519" fill="none"/><path d="m29.88988 481.39928c8.175744 5.2173 13.886654 10.74271 27.838614 15.23798 4.761803-8.20856 6.86195-16.79736 6.153799-25.78735" fill="none"/><path d="m60.658875 423.37775c-1.571209 9.59107 4.592037 13.9708 9.377217 19.63355 6.575747-4.00486 10.413842-8.30275 13.186712-12.3076" fill="none"/><path d="m124.8463 626.25378a14.927275 20.355375 0 0 1 -14.78951 20.35451 14.927275 20.355375 0 0 1 -15.062493-19.97882 14.927275 20.355375 0 0 1 14.511503-20.72326 14.927275 20.355375 0 0 1 15.33033 19.59633" fill="#ed1c24" transform="matrix(.69560168 -.71842765 .71842765 .69560168 -375.39339 328.51807)"/><path d="m124.8463 626.25378a14.927275 20.355375 0 0 1 -14.78951 20.35451 14.927275 20.355375 0 0 1 -15.062493-19.97882 14.927275 20.355375 0 0 1 14.511503-20.72326 14.927275 20.355375 0 0 1 15.33033 19.59633" fill="#ed1c24" transform="matrix(.69560168 -.71842765 .71842765 .69560168 -361.33024 318.08717)"/><path d="m124.8463 626.25378a14.927275 20.355375 0 0 1 -14.78951 20.35451 14.927275 20.355375 0 0 1 -15.062493-19.97882 14.927275 20.355375 0 0 1 14.511503-20.72326 14.927275 20.355375 0 0 1 15.33033 19.59633" fill="#ed1c24" transform="matrix(.69560168 -.71842765 .71842765 .69560168 -370.25337 334.86183)"/><path d="m124.8463 626.25378a14.927275 20.355375 0 0 1 -14.78951 20.35451 14.927275 20.355375 0 0 1 -15.062493-19.97882 14.927275 20.355375 0 0 1 14.511503-20.72326 14.927275 20.355375 0 0 1 15.33033 19.59633" fill="#ed1c24" transform="matrix(.69560168 -.71842765 .71842765 .69560168 -354.58583 320.50675)"/><path d="m124.8463 626.25378a14.927275 20.355375 0 0 1 -14.78951 20.35451 14.927275 20.355375 0 0 1 -15.062493-19.97882 14.927275 20.355375 0 0 1 14.511503-20.72326 14.927275 20.355375 0 0 1 15.33033 19.59633" fill="#ed1c24" transform="matrix(.69560168 -.71842765 .71842765 .69560168 -358.84246 329.54129)"/><path d="m124.8463 626.25378a14.927275 20.355375 0 0 1 -14.78951 20.35451 14.927275 20.355375 0 0 1 -15.062493-19.97882 14.927275 20.355375 0 0 1 14.511503-20.72326 14.927275 20.355375 0 0 1 15.33033 19.59633" fill="#ed1c24" transform="matrix(.88001 -.47495515 .47495515 .88001 -303.80677 115.03851)"/><path d="m124.8463 626.25378a14.927275 20.355375 0 0 1 -14.78951 20.35451 14.927275 20.355375 0 0 1 -15.062493-19.97882 14.927275 20.355375 0 0 1 14.511503-20.72326 14.927275 20.355375 0 0 1 15.33033 19.59633" fill="#ed1c24" transform="matrix(.88001 -.47495515 .47495515 .88001 -287.25106 109.33901)"/><path d="m124.8463 626.25378a14.927275 20.355375 0 0 1 -14.78951 20.35451 14.927275 20.355375 0 0 1 -15.062493-19.97882 14.927275 20.355375 0 0 1 14.511503-20.72326 14.927275 20.355375 0 0 1 15.33033 19.59633" fill="#ed1c24" transform="matrix(.88001 -.47495515 .47495515 .88001 -300.82131 122.63786)"/><path d="m124.8463 626.25378a14.927275 20.355375 0 0 1 -14.78951 20.35451 14.927275 20.355375 0 0 1 -15.062493-19.97882 14.927275 20.355375 0 0 1 14.511503-20.72326 14.927275 20.355375 0 0 1 15.33033 19.59633" fill="#ed1c24" transform="matrix(.88001 -.47495515 .47495515 .88001 -281.55156 113.68149)"/><path d="m124.8463 626.25378a14.927275 20.355375 0 0 1 -14.78951 20.35451 14.927275 20.355375 0 0 1 -15.062493-19.97882 14.927275 20.355375 0 0 1 14.511503-20.72326 14.927275 20.355375 0 0 1 15.33033 19.59633" fill="#ed1c24" transform="matrix(.88001 -.47495515 .47495515 .88001 -288.33667 121.0098)"/></g><path d="m124.8463 626.25378a14.927275 20.355375 0 0 1 -14.78951 20.35451 14.927275 20.355375 0 0 1 -15.062493-19.97882 14.927275 20.355375 0 0 1 14.511503-20.72326 14.927275 20.355375 0 0 1 15.33033 19.59633" fill="#ed1c24" stroke-width=".651955" transform="matrix(.49217289 -1.0477889 1.0477889 .49217289 -452.07699 559.30209)"/><path d="m124.8463 626.25378a14.927275 20.355375 0 0 1 -14.78951 20.35451 14.927275 20.355375 0 0 1 -15.062493-19.97882 14.927275 20.355375 0 0 1 14.511503-20.72326 14.927275 20.355375 0 0 1 15.33033 19.59633" fill="#ed1c24" stroke-width=".651955" transform="matrix(.49217289 -1.0477889 1.0477889 .49217289 -440.59042 542.60178)"/><path d="m124.8463 626.25378a14.927275 20.355375 0 0 1 -14.78951 20.35451 14.927275 20.355375 0 0 1 -15.062493-19.97882 14.927275 20.355375 0 0 1 14.511503-20.72326 14.927275 20.355375 0 0 1 15.33033 19.59633" fill="#ed1c24" stroke-width=".651955" transform="matrix(.49217289 -1.0477889 1.0477889 .49217289 -444.06753 564.32041)"/><path d="m124.8463 626.25378a14.927275 20.355375 0 0 1 -14.78951 20.35451 14.927275 20.355375 0 0 1 -15.062493-19.97882 14.927275 20.355375 0 0 1 14.511503-20.72326 14.927275 20.355375 0 0 1 15.33033 19.59633" fill="#ed1c24" stroke-width=".651955" transform="matrix(.49217289 -1.0477889 1.0477889 .49217289 -432.29655 542.72065)"/><path d="m124.8463 626.25378a14.927275 20.355375 0 0 1 -14.78951 20.35451 14.927275 20.355375 0 0 1 -15.062493-19.97882 14.927275 20.355375 0 0 1 14.511503-20.72326 14.927275 20.355375 0 0 1 15.33033 19.59633" fill="#ed1c24" stroke-width=".651955" transform="matrix(.49217289 -1.0477889 1.0477889 .49217289 -433.56781 554.21184)"/></g><path d="m.42914462 25.99624.00010612 81.99834h70.12608426v-81.99834z" fill="#e3e4e5" stroke-width=".282222"/><path d="m140.68194 107.99458h-70.126074-70.12608367l-.00010612 16.28685c0 38.76813 31.39659079 70.19576 70.12618979 70.19576 38.729274.00021 70.125964-31.42742 70.126074-70.19576z" fill="#e3e4e5" stroke-width=".282222"/><path d="m140.68194 25.99624h-70.126605v81.99834h70.126605z" fill="#e3e4e5" stroke-width=".282222"/></g><g transform="matrix(1.0630481 0 0 1.0641026 -24.06922 -11.457299)"><path d="m-183.42119 255.38386-27.33015-77.29603 2.18554 81.9563-14.90191-80.61975-10.66216 81.28917-2.10673-81.95836-23.24732 78.62044 10.74032-81.27889-35.26005 74.01582 23.3229-78.59806-46.40456 67.58867 35.3312-73.98188-56.40644 59.49727 46.46953-67.54402-65.01941 49.94084 56.46363-59.443-72.03139 39.15471 65.06741-49.8783-77.26971 27.40446 72.069-39.08543-80.60538 14.97942 77.29602-27.33015-81.9563 2.18554 80.61975-14.90191-81.28917-10.662157 81.95836-2.106736-78.62044-23.247316 81.27889 10.740315-74.01581-35.260051 78.59805 23.322904-67.58867-46.404565 73.98188 35.331204-59.49727-56.4064442 67.54402 46.4695332-49.94084-65.01941 59.443 56.463629-39.15471-72.031383 49.8783 65.067402-27.40446-77.269703 39.08543 72.069-14.97942-80.605388 27.33015 77.296021-2.18554-81.9563 14.90191 80.619756 10.66216-81.289175 2.10673 81.958365 23.24732-78.620442-10.74031 81.278888 35.26005-74.015813-23.32291 78.598055 46.40457-67.588668-35.33121 73.981876 56.40645-59.497266-46.46954 67.544019 65.01941-49.940845-56.46362 59.443003 72.031379-39.1547123-65.067399 49.8783033 77.2697-27.404462-72.069 39.085434 80.605387-14.979423-77.296017 27.330152 81.956296-2.185541-80.619756 14.901911 81.289176 10.66216-81.958366 2.10673 78.620443 23.24732-81.278893-10.74032 74.015817 35.26005-78.598057-23.3229 67.588671 46.40457-73.981881-35.33121 59.497271 56.40645-67.544021-46.46954 49.94085 65.01941-59.44301-56.46363 39.15472 72.03139-49.87831-65.06741 27.40446 77.26971-39.08543-72.069z" fill="#edc102" stroke="#000" stroke-width="1.861332" transform="matrix(.14263089 0 0 .14248954 155.70324 54.649889)"/><path d="m120.44 90.3142-2.8336-1.3388-.3417-.3876-.2696-.5375-.0563-.6039.1744-.4999.2086-.4496.3069-.5028.4904-.7816 4.2279-5.6723h-1.8848l-5.2903 3.396c-.3808.2473-.6816.4221-1.0925.688-.5026.3403-1.1435.7498-1.5808 1.0178l-1.1626.8384-1.4753 1.1649-1.366 1.1835-.5404.6531-.3857.6317-.3485.7794-.1067 1.1114.1067 1.1053.449.993.6509.8572 3.7109 2.5997.481.4758.239.5851-.0757.5131-.3344.5848-2.9681 2.4926-.2524.4129-.0523.5696.0652.391.2647.3889 1.4047.7247 1.2435.5947.3034.384.1739.5102-.1151.4443-.2942.376-2.2261 1.3859-.2347.2706-.1453.3067.0517.3678.1411.3489.2177.3557 1.0959 1.5711 1.2378 1.6417 23.5217-.0004-3.842-2.945c-.2949-.2632-.5735-.5475-.8498-.8409l-.4856-.688-.2153-.4696-.0322-.5191.0654-.4637.9104-1.2997.1445-.5971.0148-.722-.082-.5544-.2973-.4326-.509-.3966-3.4298-1.0163-3.8112-1.1556-.439-.2243c-.3803-.2493-.3972-.2981-.6665-.5411l-.3658-.4867-.1935-.2994-.151-.3419-.1593-.4699-.0151-.4967.0154-.3202.1017-.3672.4843-.7904 1.1429-1.7547.2286-.5044.1418-.5117-.0142-.6012-.2554-.5166-.3578-.4425z" fill="#0071bc"/><g stroke="#000"><path d="m120.463 79.5402h-31.45v32.7155h23.24l-1.2378-1.6417-1.0959-1.5711-.2177-.3557-.1411-.3489-.0517-.3678.1453-.3067.2347-.2706 2.2261-1.3859.2942-.376.1151-.4443-.1739-.5102-.3034-.384-1.2435-.5947-1.4047-.7247-.2647-.3889-.0652-.391.0523-.5696.2524-.4129 2.9681-2.4926.3344-.5848.0757-.5131-.239-.5851-.481-.4758-3.7109-2.5997-.6509-.8572-.449-.993-.1067-1.1053.1067-1.1114.3485-.7794.3857-.6317.5404-.6531 1.366-1.1835 1.4753-1.1649 1.1626-.8384c.4373-.268 1.0782-.6775 1.5808-1.0178.4109-.2659.7117-.4407 1.0925-.688z" fill="#008f4c" stroke-width=".265352"/><path d="m154.938 79.54-32.5906.0002-4.2279 5.6723-.4904.7816-.3069.5028-.2086.4496-.1744.4999.0563.6039.2696.5375.3417.3876 2.8336 1.3388 2.4119 1.1716.3578.4425.2554.5166.0142.6012-.1418.5117-.2286.5044-1.1429 1.7547-.4843.7904-.1017.3672-.0154.3202.0151.4967.1593.4699.151.3419.1935.2994.3658.4867c.2693.243.2862.2918.6665.5411l.439.2243 3.8112 1.1556 3.4298 1.0163.509.3966.2973.4326.082.5544-.0148.722-.1445.5971-.9104 1.2997-.0654.4637.0322.5191.2153.4696.4856.688c.2763.2934.5549.5777.8498.8409l3.842 2.945 19.2053.0004z" fill="#008f4c" stroke-width=".265352"/><path d="m134.796 68.7802-5.684 4.9513-5.556 4.6204-7.886-7.4392-4.012-3.6084-.404-.2706-.388-.2003-.371-.1584-.476-.1599-.532-.0995-.548-.0607-.541-.0061-.564.0449-.466.0888-.424.118-.448.1599-.422.1796-1.848 1.0378-2.556 1.704-4.1378 3.0427-3.9027 3.127-4.617 3.6888h31.4505 1.884l32.591-.0003v-6.0443l-8.662-8.0368-.674-.5475-.558-.3994-.631-.3783-.412-.22-.475-.1908-.546-.0961-.54.0206-.56.0965-.531.1636-.426.1897-.423.2497-1.382.9903z" fill="#008f4c" stroke-width=".265352"/><path d="m123.555 78.351898-1.106 1.010002" fill="none" stroke-width=".235056"/><path d="m154.938 73.495796v6.044205" fill="none" stroke-width=".235056"/><path d="m102.17 93.9263h4.483" fill="none" stroke-width=".16924"/><path d="m100.377 95.271004h8.57" fill="none" stroke-width=".16924"/><path d="m94.840103 96.773903h14.343897" fill="none" stroke-width=".16924"/><path d="m134.588 108.639h4.48201" fill="none" stroke-width=".16924"/><path d="m132.795 107.294h8.569" fill="none" stroke-width=".16924"/><path d="m132.32001 105.791h13.77699" fill="none" stroke-width=".16924"/><path d="m146.373 87.598297h4.483" fill="none" stroke-width=".16924"/><path d="m140.164 86.253601h12.98599" fill="none" stroke-width=".16924"/><path d="m138.582 84.750702h14.806" fill="none" stroke-width=".16924"/></g></g><g stroke="#000" stroke-width="1.224689" transform="matrix(.23317429 0 0 .22774551 -51.8872 -59.354512)"><g fill="#e3e4e5" stroke-linecap="round" stroke-linejoin="round"><path d="m401.88899 656.2163c5.88256-4.81903 58.21006-95.45598 85.75712-118.32645 3.65276-3.0326 31.01514-26.44341 36.85389-30.02321v120.45405c-27.63384 25.70333-85.49898 71.81349-123.90067 92.77259-3.35149-1.3249 1.28966-64.87698 1.28966-64.87698z"/><path d="m463.02183 565.90039 30.33251 26.30072c8.36844.59782 11.04859-12.94386 11.04859-12.94386-17.40629-21.77989-32.24556-25.13335-32.24556-25.13335s-7.76153 4.17736-9.13554 11.77649z"/><path d="m453.59519 578.95411 32.78332 26.77109c8.40333.14305 8.82928-12.96531 8.82928-12.96531-19.83854-22.94671-32.45485-26.80004-32.45485-26.80004s-8.75515 6.68756-9.15775 12.99426z"/><path d="m444.58868 591.69914 27.6867 26.97556c11.37355.68748 15.50084-10.9109 14.47747-12.37744-17.4063-21.7799-33.38073-27.40825-33.38073-27.40825s-7.40944 5.21102-8.78344 12.81013z"/><path d="m436.09534 604.4595 29.28903 25.41029c8.4033.14307 10.62952-12.01408 10.62952-12.01408-19.83854-22.9467-31.37471-26.2293-31.37471-26.2293s-8.14125 6.5264-8.54384 12.83309z"/><path d="m427.66356 616.93479 29.28487 26.18257c7.55966-2.1296 9.15819-12.82263 9.15819-12.82263-20.79445-23.62863-30.0909-26.00046-30.0909-26.00046-.26792.2851-6.63958 5.81314-8.35216 12.64052z"/><path d="m417.43447 633.33472-3.81434 5.69683c-.97079-1.17332-2.43821 1.01055-1.52416 2.57264 10.64411 18.19287 34.08293 37.10615 43.63813 42.23895 1.29272.69437 2.00594.46596 2.13886-.91424l5.46174-4.19214s4.40353 6.61999-.3778 11.11001c-4.81524 4.52146-17.06899.57441-39.51137-21.41363-14.88515-14.5838-25.70584-30.14803-16.95369-35.73599 4.87089-3.10965 10.94262.63757 10.94262.63757z"/><path d="m419.82454 629.59762 27.26106 27.09755c8.36844.5978 9.8835-13.23253 9.8835-13.23253-17.40629-21.7799-29.52882-26.57531-29.52882-26.57531s-6.24173 5.11117-7.61574 12.71029z"/><path d="m411.63297 640.03949c1.11642 7.83585 20.74181 26.64237 25.4786 29.8404 6.62238-1.24284 10.15172-13.05407 10.15172-13.05407-23.70554-27.24475-27.5434-26.98792-27.5434-26.98792-2.16943-.25633-6.22157 5.04226-8.08692 10.20159z"/><g fill-rule="evenodd"><path d="m440.9626 659.6517c-.12859 2.09918-1.99483 3.74832-4.16827 3.68346-2.17344-.0649-3.83108-1.81915-3.70246-3.91834.12859-2.09918 1.99482-3.74818 4.16827-3.68332 2.17343.0648 3.83109 1.81901 3.70246 3.9182z"/><path d="m452.00194 646.78078c-.1286 2.0992-1.99485 3.74833-4.16827 3.68347-2.17345-.0649-3.83109-1.81914-3.70246-3.91834.12859-2.09918 1.99482-3.74818 4.16825-3.68332 2.17343.0649 3.8311 1.819 3.70248 3.91819z"/><path d="m461.80711 632.60376c-.12859 2.09918-1.99483 3.74832-4.16825 3.68346-2.17346-.0649-3.83109-1.81915-3.70248-3.91832.12859-2.0992 1.99482-3.74819 4.16827-3.68334 2.17343.0648 3.8311 1.81901 3.70246 3.9182z"/><path d="m470.70101 620.43033c-.12859 2.0992-1.99483 3.74834-4.16827 3.68348-2.17344-.0649-3.83109-1.81915-3.70246-3.91835.12859-2.0992 1.99482-3.74817 4.16826-3.68331 2.17343.0648 3.83111 1.81899 3.70247 3.91818z"/><path d="m480.93773 607.78935c-.12859 2.0992-1.99483 3.74834-4.16826 3.68348-2.17344-.0649-3.83109-1.81915-3.70245-3.91834.12859-2.0992 1.9948-3.74818 4.16825-3.68332 2.17343.0648 3.8311 1.81899 3.70246 3.91818z"/><path d="m490.41845 594.61806c-.12859 2.09917-1.99483 3.74831-4.16826 3.68345-2.17345-.0648-3.83109-1.81915-3.70247-3.91832.1286-2.0992 1.99481-3.74819 4.16827-3.68334 2.17343.0648 3.83109 1.81901 3.70246 3.91821z"/><path d="m499.08103 581.93011c-.12859 2.09917-1.99482 3.74831-4.16826 3.68345-2.17345-.0648-3.83108-1.81914-3.70247-3.91832.12859-2.0992 1.99482-3.74819 4.16827-3.68335 2.17343.0649 3.8311 1.81902 3.70246 3.91822z"/></g><path d="m468.20929 543.47568c20.16643 14.65254 44.44277 21.88028 56.29071 22.29261v-78.14671c-9.15068 1.35269-18.31129 8.30129-24.96743 17.63306-8.43822 11.83022-19.04548 29.52754-31.32309 38.22095z"/><path d="m495.82073 469.32998 8.13939 34.02865 16.6623-12.91615z"/><path d="m501.73791 499.15978 17.20954-11.92193c1.53515-1.06349 3.6284-.68283 4.69338.85349l-.84867 4.69273-17.20953 11.92192c-1.53514 1.06349-3.6284.68282-4.69339-.85347-1.06503-1.53631-.6865-3.62929.84867-4.69274z" fill-rule="evenodd"/></g><g><path d="m297.20155 650.83518 18.312-29.90316c-10.05667-4.37794-18.03237-10.02891-22.27994-15.53766l-20.63039-24.14302-15.22288-.69571-20.02169 32.45621c-.45732 4.52923 3.92731 7.35172 4.82038 8.73076 2.24803 1.25209 14.50166 8.15435 20.02155 11.41655 3.17674 1.87742 6.81199 3.72498 14.10141 4.44811 4.57637 3.64485 13.59141 8.54748 20.89956 13.22792z" fill="#ffb380" fill-rule="evenodd" stroke-linecap="round" stroke-linejoin="round" stroke-width="1.224689"/><g stroke-width="1.504987" transform="matrix(.77148938 .21458346 -.20671996 .80083638 -34.569586 -161.40762)"><g fill-rule="evenodd" stroke-width="1.475478" transform="matrix(1.02 0 0 1.02 -12.124445 -5.779839)"><path d="m659.3512 619.67915c1.18479-11.18182-4.28507-15.64431.15408-26.44926-3.74764 1.64964-6.97235 4.74075-8.62725 7.35401-2.53836-11.55122-7.43983-22.63173-6.22746-33.62199-5.58046 1.2926-9.41059 9.87981-11.7622 13.95032-.47531-17.62691-9.16361-34.54348-4.72186-43.44345-5.66866.60809-8.81152 10.26635-12.64318 16.87054-6.59933-9.63445 2.82348-37.92213-10.9763-45.85726 0 27.24204-11.65914 25.14414-14.11246 46.94628-2.35834-4.54241-2.79724-9.49022-2.19181-15.74761-9.31273 4.80936-14.77805 23.15786-10.21536 42.85795-3.40215-1.47982-6.86986-8.43108-8.18288-15.04478-7.40502 9.32078-11.24678 16.55374-8.00427 31.60162.90847 4.21606 1.52657 8.97933-.0784 12.81832-3.14013-1.63503-4.18963-5.66081-6.02349-8.99063-1.30525 4.97156-3.6523 16.34025-2.51565 20.59329 3.76788 24.64404 42.76268 40.86792 53.96771 42.23848 27.0515-10.95737 49.93615-25.08027 52.16078-46.07583z" fill="#eac102"/><path d="m642.3198 639.77721c7.58861-15.73894-4.18649-36.83089-1.99859-43.43211-9.43418 9.39613-4.56094 20.76885-9.85103 21.70321 5.13795-7.25624-8.34475-22.36153-3.8812-33.25832-7.1949 3.73003-10.0773 14.74128-10.0612 20.01253-6.25332-12.36002-3.20718-27.34267-12.62708-36.81391 4.42764 15.00108-7.16003 25.16938-4.46772 32.47614-4.85054-4.34172-1.29504-15.04721-9.58285-18.50629.44251 13.64585-11.47312 22.9345-5.4714 33.63613-5.35518-3.55309-1.31966-14.96139-12.52404-17.40482 2.91772 21.95957-10.11677 27.45917 1.54413 48.07276 7.98324 10.95668 20.77179 19.38971 34.32902 19.49998 7.24574.11313 29.42288-16.41827 34.59196-25.9853z" fill="#ed1c24"/></g><g fill="#eac102" stroke-width="1.504987"><path d="m573.06543 670.18471 22.03125 213.3125h10.28125 10.28125l22.03125-213.3125h-32.3125z"/><path d="m568.70717 665.0894h36.6707 36.67069c2.62887 0 4.74525 2.11636 4.74525 4.74522v10.69728c0 2.62885-2.11638 4.74521-4.74525 4.74521h-73.34139c-2.62886 0-4.74524-2.11636-4.74524-4.74521v-10.69728c0-2.62886 2.12028-4.88838 4.74524-4.74522z"/><path d="m563.30558 651.6275h84.14458c3.60612 0 6.50924 2.90312 6.50924 6.50922v6.44346c0 3.60611-2.90312 6.50922-6.50924 6.50922h-84.14458c-3.60612 0-6.50924-2.90311-6.50924-6.50922v-6.44346c0-3.6061 2.90312-6.50922 6.50924-6.50922z"/><path d="m591.40102 854.4425h27.95372c3.06642 0 5.53505 2.46864 5.53505 5.53506v3.32103c0 3.06642-2.46863 5.53506-5.53505 5.53506h-27.95372c-3.06642 0-5.53505-2.46864-5.53505-5.53506v-3.32103c0-3.06642 2.46863-5.53506 5.53505-5.53506z"/></g></g><g fill="none" stroke-linecap="round" stroke-linejoin="round" stroke-width=".515931" transform="matrix(2.3929656 .54300412 -.77924658 2.1778612 -974.55675 -783.19234)"><g fill="#ffb380"><path d="m667.75047 476.87c2.78955.0798 2.36447-3.30736.21011-3.4144-3.522-.17498-4.14439-.14114-6.6945-1.34399-2.0084-.94733-1.6228 3.63303.23914 4.0455 2.4619.54538 3.58118.63665 6.24525.71289z"/><path d="m668.64347 473.66573c2.78955.0798 2.36712-3.40903.21011-3.4144-6.98893-.0174-6.04445-.93809-8.54203-2.45612-1.8976-1.15336-1.76226 3.01423-.15758 4.04475 2.56695 1.64849 5.82543 1.74953 8.4895 1.82577z"/><path d="m668.74853 470.35639c2.78827.11631 2.30385-3.46199.15758-3.67704-6.98893-.70028-5.20398-.49236-8.4895-2.64074-1.85854-1.21529-3.685 1.71594-.10505 4.35992 2.82011 2.0828 2.83127 1.72403 8.43697 1.95786z"/><path d="m668.59094 466.62681c2.76179.40064 2.55302-3.19708.42021-3.51945-5.6757-.85786-5.85753-1.15428-9.03656-3.0212-.96956-.56938-2.2613 2.02191.10507 3.7821 3.70322 2.75459 3.66582 2.05566 8.51128 2.75855z"/><path d="m682.04799 467.53752c-1.67848-3.88834-3.18735-6.25232-7.55551-8.5688-2.56999-1.36289-5.72504-3.40878-8.73474-2.9668-1.15167.16913-1.79607 1.28659-2.93841 1.53395-2.53533.54901-3.65297.72749-3.74778 1.11708-.34151 3.11981 3.25818 3.86501 6.97249 2.50441.94502.96663 3.12942 1.97598 4.66689 2.56283-.87113 4.03218 1.19344 6.51803 4.14065 8.61869" fill-rule="nonzero"/></g><path d="m661.70945 457.77557c.50997.67081.34442 1.37754.40475 1.69712-1.24898.39343-1.47369.67029-2.07164.28094-.53908-.35906-.66191-.79951-.77066-1.33126.6111-.28544 1.64821-.49088 2.43755-.6468z" fill="#e3e4e5" fill-rule="nonzero"/><path d="m679.49108 479.65773c.0152-2.32805.22507-5.19228 1.71958-6.80345" fill="none"/><path d="m666.97878 459.65006c.20087.66658-.42084 1.27743-.93474 1.5073" fill="none"/><path d="m670.19003 464.59302c.36272.69791-.12191 1.1847-.44776 1.45235-1.00411.0952-1.54788-.21896-1.82873-.52757.00026-.47103.12911-1.28528.52112-1.42809.61394-.01 1.16836.21845 1.75537.50331z" fill="#e3e4e5" fill-rule="nonzero"/><path d="m670.21816 468.22261c.45886.66455.0471 1.21088-.23826 1.51794-.98274.20893-1.56679-.0475-1.88921-.32781-.0665-.47603-.0542-1.31333.31449-1.50166.60776-.0788 1.19017.0896 1.81298.31153z" fill="#e3e4e5" fill-rule="nonzero"/><path d="m670.21281 471.66749c.51701.60669.1556 1.16053-.10125 1.47556-.96078.26938-1.56595.0637-1.91248-.18324-.10905-.45287-.17188-1.25849.17869-1.46521.59871-.11809 1.19434.003 1.83504.17289z" fill="#e3e4e5" fill-rule="nonzero"/><path d="m669.19316 474.87885c.42815.51732.15417 1.00722-.0425 1.28698-.7595.25491-1.2476.0886-1.53044-.11905-.0987-.39203-.1697-1.09218.10462-1.27962.47458-.1155.95288-.0226 1.46839.11169z" fill="#e3e4e5" fill-rule="nonzero"/></g></g><g fill="#e3e4e5" stroke-linecap="round" stroke-linejoin="round"><g><path d="m393.76817 655.82779 20.29675 62.48778c-18.46513-3.40526-35.89223-6.0108-53.94665-18.80483-29.14626-19.88539-45.02306-33.61221-80.18319-56.66408l19.39508-32.85139c20.14238 12.39743 69.71256 35.48079 94.43801 45.83252z"/><path d="m294.4415 617.85697c34.93698 21.41966 59.63586 30.7082 81.28442 47.53601"/><path d="m305.37792 613.56786s-1.41332-3.32892-5.03651.12353c-9.38195 7.47686-16.30372 22.09773-16.17796 32.02288.0176 1.38475.75103 1.83668 2.71773 1.77092l3.75745 2.58217c-2.57082 2.43825-5.98403 2.92731-8.89112 1.05547-3.61643-2.32859-6.00809-9.77992 2.38584-26.03592.97571-1.88959 13.88542-22.60671 21.84568-18.94994 5.5057 2.52908 3.68903 9.71251 3.68903 9.71251z"/><path d="m374.28734 647.30002 5.15561 2.26187c1.10352-.93345 2.25948.46763 1.86135 1.93561-4.63638 17.09492-18.77753 37.14679-25.02164 43.17699-.84471.81586-1.65816 1.72381-2.0149.60017l-4.49169-2.93003s-2.25522 5.80072 2.18149 8.65473c4.46824 2.87426 12.9657-2.66685 25.78458-25.09276 8.50224-14.87429 13.91742-30.75676 6.28513-33.79262-4.24764-1.68948-9.73993 5.18604-9.73993 5.18604z"/><path d="m365.21517 667.65122c-.79025 1.84463-2.91959 2.55702-4.75448 1.59567-1.83633-.96562-2.68425-3.2437-1.89397-5.08834.79034-1.84446 2.91961-2.55702 4.75449-1.59567 1.8363.96563 2.68431 3.24386 1.89396 5.08834z"/><path d="m352.38201 659.62704c-.79028 1.84463-2.91954 2.55718-4.75448 1.59566-1.83632-.96563-2.68425-3.24371-1.89398-5.08833.79033-1.84446 2.9196-2.55702 4.75451-1.59567 1.83628.96564 2.68421 3.24371 1.89389 5.08818z"/><path d="m339.19221 652.50672c-.79032 1.84448-2.91959 2.55703-4.75448 1.59567-1.83634-.96562-2.68426-3.2437-1.89401-5.08832.79036-1.84447 2.91964-2.55703 4.7545-1.59567 1.83632.96563 2.68432 3.24385 1.89405 5.08847z"/><path d="m325.63493 644.47726c-.75487 1.76184-2.78863 2.44257-4.5413 1.52411-1.75403-.92239-2.56399-3.09841-1.80911-4.86026.75486-1.76184 2.78869-2.44244 4.54134-1.52412 1.754.9224 2.56388 3.09827 1.80901 4.86012z"/><path d="m312.74285 637.28193c-.75486 1.76185-2.7887 2.44242-4.54125 1.52424-1.75403-.92239-2.56398-3.0984-1.80912-4.86026.75486-1.76184 2.78871-2.44243 4.54134-1.52412 1.75405.92256 2.56394 3.09843 1.80908 4.86027z"/></g><g fill-rule="evenodd"><path d="m437.29434 702.49736-23.76873 16.56837-7.34744 11.32824-8.74963-9.53355-25.92669-9.27406c12.66532-17.22646 19.61717-38.80218 22.60497-58.33644l7.10562-.43801c9.29571 18.32978 24.16459 36.79974 36.0819 49.68545z"/><path d="m394.6761 716.23446 20.81122-2.28169c1.85645-.20357 3.51541 1.12849 3.71963 2.98663.20421 1.85813-1.12585 3.51786-2.98229 3.72137l-20.81122 2.28168c-1.85643.20357-3.51538-1.1285-3.71963-2.98662-.20422-1.85815 1.12585-3.51789 2.98229-3.72137z"/></g></g></g><g fill="#edc102" fill-rule="evenodd" transform="matrix(2.92641731842 0 0 3.06093584461 -94.85755829599 -64.32050872838)"><path d="m57.175345 77.943726c0 .0387-.0033.0766-.0099.1134 4.8545-1.1784 9.8219-.4 14.7614-.0862l-4.0453-14.752-1.2923-1.5703c-3.6408-.1772-7.8618-.77-9.9948.3658v15.2881c.0543.0053.1066.0173.1561.0352.1175.0425.2191.1183.2934.2159.0589.0773.1006.1683.1197.2673.0076.0395.0116.0802.0116.1219z"/><path d="m56.453745 76.784226v-14.7698c-2.1333-1.1358-6.3543-.543-9.9949-.3658l-1.2923 1.5703-4.0452 14.752c4.9448-.3141 9.9175-1.0939 14.7771.09-.0069-.0377-.0105-.0766-.0106-.1163v-.001c0-.0406.0037-.0804.0109-.1189.0185-.0991.0596-.1902.1179-.2677.0732-.0975.1734-.1734.2895-.2168.0469-.0176.0963-.0298.1476-.036v-.221z"/><g stroke="#000"><g stroke-linejoin="round" stroke-width=".055129" transform="translate(-26.32226 -1.26377)"><g><path d="m82.776 63.2782v16.1906c-5.0356-1.3881-10.1991-.5603-15.3324-.2341l4.0452-14.752 1.2922-1.5703c3.6407-.1772 7.8617-.77 9.995.3658z"/><path d="m82.776 79.2445c-4.9543-1.4791-9.9981-.6326-15.0984-.2546l4.038-14.7266"/><path d="m82.776 78.9453c-4.8739-1.4598-9.7735-.4991-14.786-.2529l3.9595-14.6826"/><path d="m82.776 78.6462c-4.8054-1.3958-9.5052-.6688-14.3858-.2948l3.9203-14.8391"/><path d="m82.776 78.347c-4.7186-1.3687-9.2583-.6969-14.0348-.3159l3.8619-14.8407"/><path d="m82.776 78.048c-4.641-1.3746-9.013-.7466-13.645-.3548l3.6964-14.7661"/></g><g><path d="m82.9167 63.2782v16.1906c5.0356-1.3881 10.1991-.5603 15.3324-.2341l-4.0452-14.752-1.2924-1.5703c-3.6408-.1772-7.8618-.77-9.9948.3658z"/><path d="m82.9167 79.2445c4.9542-1.4791 9.9981-.6326 15.0983-.2546l-4.0379-14.7266"/><path d="m82.9167 78.9453c4.8739-1.4598 9.7735-.4991 14.7858-.2529l-3.9595-14.6826"/><path d="m82.9167 78.6462c4.8054-1.3958 9.5052-.6688 14.3858-.2948l-3.9203-14.8391"/><path d="m82.9167 78.347c4.7185-1.3687 9.2582-.6969 14.0346-.3159l-3.8618-14.8407"/><path d="m82.9167 78.048c4.6409-1.3746 9.0128-.7466 13.6448-.3548l-3.6964-14.7661"/></g></g><path d="m82.3155 65.0893-.3161-.0184-.353-.2078-.3667.1028-.3806-.1336-.3051-.1283-.3808.0697-.3695-.1212-.3825.0854-.381.0125-.2969-.1041-.366.1065-.359-.0137-.3806-.0914-.425.1679-.2878-.0841-.3856-.0751-.3639.188-.4884.0151-.302-.1059-.4383.1348-.6239-.1687-.3305.1258-.3074.1639-.3193-.1372-.2465.1647-.2585-.0276-.2075.077" stroke-linecap="round" stroke-linejoin="bevel" stroke-width=".076333" transform="translate(-26.322255 -1.263774)"/><path d="m82.2025 67.0666-.3266-.0184-.3647-.2079-.3789.1029-.3931-.1337-.3153-.1283-.3934.0697-.3818-.1211-.3951.0853-.3937.0125-.3067-.104-.3782.1064-.3709-.0137-.3931-.0913-.4391.1678-.2974-.084-.3984-.0752-.376.188-.5045.0151-.312-.1059-.4528.1348-.6446-.1686-.3415.1257-.3176.164-.3299-.1372-.2547.1646-.267-.0276-.2144.0771" stroke-linecap="round" stroke-linejoin="bevel" stroke-width=".076333" transform="translate(-26.322255 -1.263774)"/><path d="m82.2003 69.0562-.3415-.0184-.3811-.2079-.396.1029-.4109-.1336-.3296-.1283-.4112.0697-.399-.1212-.413.0854-.4115.0124-.3206-.104-.3952.1065-.3877-.0137-.4109-.0914-.459.1678-.3108-.084-.4164-.0751-.393.188-.5273.0151-.3261-.1059-.4733.1348-.6738-.1687-.3569.1258-.332.1639-.3448-.1372-.2661.1647-.2791-.0276-.2241.077" stroke-linecap="round" stroke-linejoin="bevel" stroke-width=".076333" transform="translate(-26.322255 -1.263774)"/><path d="m82.3058 70.9796-.3617-.0185-.4039-.2078-.4196.1028-.4353-.1336-.3492-.1283-.4357.0697-.4227-.1212-.4376.0854-.436.0125-.3397-.1041-.4187.1065-.4108-.0137-.4354-.0914-.4863.1679-.3293-.0841-.4411-.0751-.4164.188-.5588.0151-.3455-.1059-.5015.1348-.7138-.1686-.3782.1257-.3517.164-.3653-.1372-.2821.1646-.2956-.0276-.2375.077" stroke-linecap="round" stroke-linejoin="bevel" stroke-width=".076333" transform="translate(-26.322255 -1.263774)"/><path d="m82.1804 73.2816-.5559-.0042-.436-.2339-.3428.1173-.4345-.1391-.4511-.186-.3999.062-.2636-.1484-.4532.0854-.4515.0125-.3518-.1041-.4338.1065-.4254-.0137-.4509-.0914-.5037.1679-.3411-.0841-.4569-.0751-.4312.188-.5787.0151-.3579-.1059-.5194.1348-.7393-.1687-.3917.1258-.3643.164-.3784-.1373-.2921.1647-.3062-.0276-.2459.077" stroke-linecap="round" stroke-linejoin="bevel" stroke-width=".076333" transform="translate(-26.322255 -1.263774)"/><path d="m82.2322 75.5676-.4447-.1226-.4002-.2188-.4177.081-.5554-.1337-.4538-.2445-.4532.1092-.5522-.1441-.2406.0427-.4794.0125-.3735-.1041-.4606.1065-.4517-.0137-.4788-.0914-.5347.1678-.3622-.084-.4851-.0751-.458.188-.6144.0151-.38-.1059-.5515.1348-.785-.1687-.4159.1258-.3868.1639-.4017-.1372-.3102.1647-.3251-.0276-.2611.077" stroke-linecap="round" stroke-linejoin="bevel" stroke-width=".076333" transform="translate(-26.322255 -1.263774)"/><path d="m83.5064 65.0343.3162-.0184.353-.2079.3667.1029.3805-.1337.3052-.1282.3808.0697.3695-.1212.3825.0854.381.0124.2969-.104.366.1064.359-.0136.3806-.0914.425.1678.2878-.084.3856-.0752.3639.1881.4884.0151.302-.106.4383.1349.6239-.1687.3305.1257.3074.164.3193-.1372.2465.1647.2584-.0276.2076.077" stroke-linecap="round" stroke-linejoin="bevel" stroke-width=".076333" transform="translate(-26.322255 -1.263774)"/><path d="m83.6195 67.0116.3266-.0185.3646-.2078.379.1028.3931-.1336.3153-.1283.3934.0697.3817-.1212.3952.0854.3937.0125.3067-.1041.3781.1065.3709-.0137.3932-.0914.4391.1679.2974-.0841.3983-.0751.376.188.5046.0151.312-.1059.4528.1348.6446-.1686.3415.1257.3176.164.3299-.1372.2547.1646.267-.0276.2143.077" stroke-linecap="round" stroke-linejoin="bevel" stroke-width=".076333" transform="translate(-26.322255 -1.263774)"/><path d="m83.6217 69.0012.3415-.0184.3811-.2079.396.1029.4109-.1337.3296-.1283.4112.0697.399-.1211.413.0853.4115.0125.3205-.104.3953.1064.3877-.0137.4109-.0913.459.1678.3108-.084.4164-.0752.3929.1881.5274.0151.3261-.106.4733.1348.6737-.1686.357.1257.332.164.3448-.1372.2661.1647.2791-.0276.2241.077" stroke-linecap="round" stroke-linejoin="bevel" stroke-width=".076333" transform="translate(-26.322255 -1.263774)"/><path d="m83.5162 70.9245.3617-.0184.4038-.2079.4197.1029.4353-.1336.3492-.1283.4357.0697.4227-.1212.4376.0854.436.0125.3396-.1041.4188.1065.4108-.0137.4354-.0914.4862.1678.3294-.084.4411-.0751.4164.188.5587.0151.3456-.1059.5015.1348.7138-.1687.3782.1258.3517.1639.3653-.1372.282.1647.2957-.0276.2374.077" stroke-linecap="round" stroke-linejoin="bevel" stroke-width=".076333" transform="translate(-26.322255 -1.263774)"/><path d="m83.6416 73.2266.5559-.0042.4359-.2339.3429.1172.4345-.139.4511-.186.3999.062.2636-.1484.4532.0854.4515.0124.3518-.104.4338.1064.4254-.0136.4509-.0914.5037.1678.3411-.084.4569-.0752.4312.1881.5787.0151.3579-.106.5194.1349.7393-.1687.3917.1257.3643.164.3783-.1372.2921.1647.3063-.0276.2459.077" stroke-linecap="round" stroke-linejoin="bevel" stroke-width=".076333" transform="translate(-26.322255 -1.263774)"/><path d="m83.5898 75.5126.4447-.1226.4002-.2189.4177.081.5554-.1336.4538-.2445.4532.1092.5522-.1442.2405.0427.4795.0125.3735-.104.4605.1064.4518-.0137.4788-.0913.5347.1678.3622-.084.4851-.0752.4579.1881.6145.0151.38-.106.5515.1348.785-.1686.4159.1257.3868.164.4017-.1372.3101.1647.3252-.0276.2611.077" stroke-linecap="round" stroke-linejoin="bevel" stroke-width=".076333" transform="translate(-26.322255 -1.263774)"/></g></g><g transform="matrix(1.1855769 0 0 1.184979 -13.093523 -24.02172749166)"><g fill="#edc102" fill-rule="evenodd" stroke="#000" stroke-width=".824868" transform="matrix(-.28460653 -.04584658 -.05226856 .28435123 240.54817 -22.748113)"><path d="m515.63323 605.44657 31.46179 2.23439c6.3939.97478 14.5468-36.21887-4.19499-37.00725l-.14984.2793-17.67848 3.6309z" fill-rule="evenodd"/><path d="m547.54441 607.82062c-13.63144-.38591-8.57598-12.23134-7.94033-21.36646l-10.93674-1.25685"/><path d="m483.11957 717.02748c10.71541 6.68377 26.67048 2.9836 33.13013-7.04995 9.48716-24.15478 9.95395-51.68382 12.92026-77.35815l-7.62751-2.36993 7.20366-3.15993.63565-19.94698-11.22934-6.51734 11.01754 1.97494c1.61979-15.88961 3.91188-28.18491 13.98372-31.99418-33.57762 3.76453-61.36223 1.74695-84.32631-13.42966-11.17055 3.06846-9.3133 10.18482-11.01742 16.1946l9.74625 5.52985-9.74625 3.55492c-2.11874 17.64287-.64969 39.74487-6.35634 52.92863h5.50877l-6.56814 4.5424c-2.57838 11.08163-8.11636 21.74495-14.61937 30.21672z" fill-rule="evenodd"/><path d="m485.26156 718.39366c-10.99049-18.1433 2.49388-34.53014 12.66935-32.45305l-70.84037-20.16524c-16.84659.36633-18.09437 14.7252-15.58112 18.9924 2.43309 7.45411 50.48041 22.64008 73.75214 33.62589z" fill-rule="evenodd"/><path d="m496.82255 686.08111c11.47564.8526 8.2753 28.74525-7.28137 24.21442-6.57256-2.95436.008-17.41766 3.92365-17.16805"/><path d="m488.53974 709.97442-8.06518-3.08084"/><path d="m493.46483 692.93-6.63787-1.95515"/></g><g><path d="m64.127288 128.29555v-5.05051h.668348v4.45451h2.487359v.596z"/><path d="m68.096038 128.29555v-5.05051h3.651801v.596h-2.983453v1.54685h2.793973v.59255h-2.793973v1.71911h3.100586v.596z"/><path d="m72.281829 128.29555 1.953369-2.63206-1.722548-2.41845h.795818l.916395 1.29535q.285943.40308.406521.62012.16881-.27561.399631-.57533l1.016304-1.34014h.726915l-1.774225 2.38056 1.912029 2.66995h-.826823l-1.271241-1.80179q-.106798-.15503-.220486-.33762-.168809.27561-.241156.37896l-1.267796 1.76045z"/></g></g><g fill="none" stroke="#000" transform="matrix(1.0630481 0 0 1.0641026 -24.06922 -11.457299)"><path d="m23.0455 112.256h65.966997" stroke-linecap="round" stroke-linejoin="round" stroke-width=".37609"/><g stroke-linecap="round" stroke-linejoin="round" stroke-width=".796056"><path d="m23.045401 35.1973v92.3637"/><path d="m89.012497 35.1973h65.967503"/><path d="m89.012497 35.1973h-65.967096"/><path d="m154.98 35.1973v92.3637"/><path d="m23.0454 127.561c0 36.4327 29.5345 65.9671 65.9671 65.9671 36.4323.0002 65.9669-29.5342 65.9671-65.9667"/></g><g stroke-width=".37609"><path d="m89.012497 35.1973v77.0587"/><path d="m89.012497 112.256h65.967503" stroke-linecap="round" stroke-linejoin="round"/></g></g><path d="m480 65.216942 18.98808 60.010368 62.9409-.48548-51.20561 36.60296 19.91152 59.71033-50.63489-37.38849-50.63489 37.38849 19.91152-59.71033-51.20561-36.60296 62.9409.48548z" fill="#edc102" stroke="#000" stroke-width=".64715" transform="matrix(.42529427 0 0 .44718117 -133.5857 -73.673081)"/><g stroke="#000" transform="matrix(.28222223 0 0 .28222223 -67.733335 -40.011129)"><g fill="#0071bc" fill-rule="evenodd" stroke-width=".925408" transform="matrix(1.3174946 0 0 -.88628973 -11.784819 1900.2884)"><path d="m91.589638 982.74342 194.263482.091.0216-38.32174c-.99902-19.30177 35.78565 1.38003 36.41161-14.47047.43768-11.06835-13.77744-9.7698-30.80902-10.56961l-197.746065-.30733c-27.681937-.25591-51.678635-16.77665-66.515997-34.21556 3.4813 22.9104 18.192739 49.57549 41.104136 62.76154-7.735482 2.39375-32.731465 4.65298-46.949896-1.72444 14.318506 27.02273 45.94162 37.50023 70.220199 36.75631z"/><path d="m672.24945 982.74353-188.45353.091-.0209-38.32175c.96914-19.30177-34.71539 1.38003-35.32263-14.47047-.4246-11.06835 13.36538-9.7698 29.88759-10.56961l191.83197-.30733c26.85403-.25591 50.13305-16.77665 64.52667-34.21556-3.37719 22.9104-17.64864 49.57549-39.87481 62.76154 7.50413 2.39375 31.75255 4.65298 45.54573-1.72444-13.89028 27.02274-44.56762 37.50024-68.12009 36.75632z"/><path d="m236.36982 1007.9425c1.12884 14.2541 114.13254 16.0072 148.21082 16.0072 34.07752 0 147.08119-1.7531 148.2101-16.0072l-.022-25.10698-.033-38.32154c-.69656 8.78718-43.88796 12.77855-84.89934 14.54739-25.51469 1.10032-50.18591 1.34113-63.25574 1.34113-13.06984 0-37.74177-.24081-63.25648-1.34113-41.01135-1.76884-84.2027-5.76021-84.89939-14.54739l-.0331 38.32154-.0222 25.10698z"/><path d="m447.78129 930.04151.0548 29.01796c41.01139-1.76884 84.20283-5.76031 84.89938-14.54749 1.53066-19.30177-83.99529 1.38003-84.95441-14.47047z"/><path d="m321.32416 959.05947.0548-29.01796c-.95906 15.8505-86.48507-4.8313-84.95439 14.47047.69648 8.78718 43.88806 12.77865 84.89938 14.54749z"/></g><g fill="#e3e4e5" stroke-width=".5"><g><path d="m106.06934 1068.2155h-2.85645v-18.202q-1.03149.9839-2.71362 1.9678-1.666262.9839-2.99927 1.4759v-2.7613q2.39624-1.1267 4.18945-2.7295 1.79322-1.6028 2.53907-3.1103h1.84082z"/><path d="m121.74805 1068.2155h-2.85645v-18.202q-1.03149.9839-2.71362 1.9678-1.66626.9839-2.99927 1.4759v-2.7613q2.39624-1.1267 4.18945-2.7295 1.79322-1.6028 2.53907-3.1103h1.84082z"/><path d="m139.25171 1068.2155v-23.2642h8.01391q2.71363 0 4.14185.3332 1.99951.4603 3.41187 1.6663 1.84082 1.5552 2.74536 3.9832.92041 2.4121.92041 5.5224 0 2.6502-.6189 4.6973-.6189 2.0471-1.58691 3.396-.96802 1.333-2.12647 2.1106-1.14258.7617-2.7771 1.1584-1.61865.3968-3.72925.3968zm3.07861-2.7454h4.96704q2.30103 0 3.6023-.4285 1.31714-.4284 2.09472-1.206 1.09498-1.095 1.698-2.9358.6189-1.8567.6189-4.491 0-3.6499-1.20606-5.6018-1.19018-1.9678-2.90405-2.6343-1.23779-.476-3.98315-.476h-4.8877z"/><path d="m162.80151 1068.2155v-23.2642h16.82129v2.7454h-13.74267v7.1252h12.86987v2.7295h-12.86987v7.9187h14.28222v2.7454z"/><path d="m191.88965 1061.6139 2.7771-.3809q.11108 2.666.99975 3.6499.88868.9839 2.45972.9839 1.15845 0 1.99951-.5237.84107-.5395 1.15845-1.4441.31738-.9204.31738-2.9199v-16.0278h3.07862v15.8533q0 2.9199-.71412 4.5227-.69824 1.6028-2.23754 2.4438-1.52344.8411-3.58643.8411-3.06274 0-4.69727-1.7615-1.61865-1.7615-1.55517-5.2368z"/><path d="m224.97681 1044.9513h3.07861v13.4412q0 3.507-.79346 5.57-.79345 2.063-2.87231 3.3643-2.06299 1.2854-5.42725 1.2854-3.26904 0-5.3479-1.1267-2.07886-1.1267-2.96753-3.2532-.88867-2.1423-.88867-5.8398v-13.4412h3.07861v13.4253q0 3.031.55542 4.4751.57129 1.4282 1.93604 2.2058 1.38061.7776 3.36426.7776 3.39599 0 4.84008-1.5393 1.4441-1.5393 1.4441-5.9192z"/><path d="m233.07007 1068.2155v-23.2642h3.07861v20.5188h11.45752v2.7454z"/><path d="m251.38306 1068.2155v-23.2642h3.07861v9.5532h12.09229v-9.5532h3.07861v23.2642h-3.07861v-10.9656h-12.09229v10.9656z"/><path d="m273.83789 1056.8849q0-5.7922 3.11035-9.0613 3.11035-3.2849 8.02979-3.2849 3.22143 0 5.8081 1.5393 2.58667 1.5393 3.93555 4.3005 1.36475 2.7454 1.36475 6.2366 0 3.5388-1.42823 6.3318-1.42822 2.793-4.04663 4.2371-2.61841 1.4282-5.64941 1.4282-3.28491 0-5.87158-1.5869-2.58667-1.5869-3.91968-4.3323-1.33301-2.7454-1.33301-5.8081zm3.17383.048q0 4.2053 2.25342 6.6333 2.26928 2.4121 5.68115 2.4121 3.47534 0 5.71289-2.4438 2.25342-2.4439 2.25342-6.9349 0-2.8405-.96802-4.9511-.95215-2.1265-2.80884-3.2849-1.84082-1.1744-4.14184-1.1744-3.26905 0-5.63355 2.2535-2.34863 2.2375-2.34863 7.4902z"/></g><g transform="translate(-2.5)"><path d="m725 1068.1996v-23.2642h8.01392q2.71362 0 4.14184.3333 1.99951.4602 3.41187 1.6662 1.84082 1.5552 2.74536 3.9832.92041 2.4121.92041 5.5225 0 2.6501-.6189 4.6972-.61889 2.0471-1.58691 3.396-.96802 1.333-2.12647 2.1106-1.14258.7617-2.7771 1.1585-1.61865.3967-3.72924.3967zm3.07861-2.7454h4.96704q2.30103 0 3.6023-.4284 1.31714-.4285 2.09473-1.2061 1.09497-1.095 1.69799-2.9358.6189-1.8567.6189-4.491 0-3.6499-1.20605-5.6018-1.19019-1.9677-2.90406-2.6342-1.23779-.4761-3.98315-.4761h-4.8877z"/><path d="m748.5498 1068.1996v-23.2642h16.82129v2.7454h-13.74267v7.1252h12.86987v2.7295h-12.86987v7.9187h14.28222v2.7454z"/><path d="m788.80981 1068.1996h-2.85644v-18.2019q-1.0315.9839-2.71362 1.9678-1.66626.9838-2.99927 1.4758v-2.7612q2.39624-1.1268 4.18945-2.7295 1.79321-1.6028 2.53906-3.1104h1.84082z"/><path d="m796.56982 1062.8199 2.74537-.2539q.34912 1.9361 1.333 2.8089.98389.8728 2.5232.8728 1.31714 0 2.30102-.603.99976-.6031 1.63452-1.6028.63477-1.0157 1.06324-2.7295.42846-1.7139.42846-3.4912 0-.1905-.0159-.5713-.85693 1.3647-2.34863 2.2217-1.47583.841-3.20557.841-2.88818 0-4.88769-2.0947-1.99951-2.0947-1.99951-5.5225 0-3.5388 2.07885-5.697 2.09473-2.1582 5.23682-2.1582 2.26929 0 4.14185 1.2219 1.88842 1.222 2.85644 3.4912.98389 2.2535.98389 6.5381 0 4.4593-.96802 7.1094-.96802 2.6343-2.88818 4.0149-1.9043 1.3806-4.4751 1.3806-2.72949 0-4.45923-1.5076-1.72973-1.5234-2.07886-4.2688zm11.69556-10.2673q0-2.4597-1.31714-3.9038-1.30127-1.4441-3.14209-1.4441-1.90429 0-3.31665 1.5552-1.41235 1.5552-1.41235 4.0307 0 2.2217 1.33301 3.6182 1.34887 1.3806 3.31665 1.3806 1.98364 0 3.25317-1.3806 1.2854-1.3965 1.2854-3.8562z"/><path d="m814.24805 1062.0582 2.85644-.3808q.49195 2.4279 1.66626 3.507 1.19019 1.0633 2.88819 1.0633 2.01538 0 3.39599-1.3965 1.39649-1.3965 1.39649-3.4595 0-1.9677-1.2854-3.2373-1.2854-1.2854-3.26905-1.2854-.80932 0-2.01538.3174l.31738-2.5073q.28565.032.46021.032 1.82495 0 3.28491-.9521 1.45996-.9522 1.45996-2.9358 0-1.5711-1.06323-2.6026-1.06323-1.0315-2.74536-1.0315-1.66626 0-2.7771 1.0474-1.11084 1.0474-1.42822 3.1421l-2.85645-.5078q.52368-2.8723 2.38037-4.4434 1.85669-1.5869 4.61792-1.5869 1.9043 0 3.50708.8252 1.60279.8093 2.44385 2.2217.85693 1.4123.85693 2.9993 0 1.5075-.80932 2.7453-.80933 1.2378-2.39624 1.9678 2.06299.4761 3.20556 1.9836 1.14258 1.4917 1.14258 3.7451 0 3.0469-2.22168 5.1734-2.22168 2.1106-5.61767 2.1106-3.06275 0-5.094-1.825-2.01538-1.8249-2.30102-4.729z"/><path d="m832.51343 1047.9823v-2.7454h15.05981v2.2217q-2.22168 2.3645-4.41162 6.2842-2.17407 3.9197-3.36426 8.0615-.85693 2.9199-1.09497 6.3953h-2.93579q.0476-2.7454 1.0791-6.6333 1.0315-3.888 2.95166-7.4903 1.93604-3.6181 4.11011-6.0937z"/></g><g transform="translate(0 -14.26114)"><path d="m377.09199 1051.3577 9.61564-29.1255 4.07737-.195 13.07326 28.0403-4.31147.2062-3.75032-8.5024-11.95899.5719-2.72665 8.8122zm7.69057-12.1391 9.69594-.4638-3.3637-7.7778q-1.53824-3.5439-2.31258-5.8337-.41469 2.7769-1.27995 5.5362z"/><path d="m406.88603 1049.9895-.89246-28.6189 3.88483-.1211 15.73245 22.0007-.7007-22.4695 3.63105-.1132.89246 28.6189-3.88483.1211-15.73306-22.0203.70131 22.4891z"/><path d="m435.81826 1049.1391-.4965-28.6285 9.86179-.171q3.33935-.058 5.10401.3217 2.47039.5236 4.23414 1.9776 2.29848 1.8745 3.46341 4.843 1.18412 2.9487 1.2505 6.7763.0566 3.2612-.66135 5.7935-.71791 2.5324-1.88035 4.213-1.16278 1.661-2.57175 2.6426-1.38978.9618-3.39273 1.4849-1.98342.5227-4.58069.5678zm3.7299-3.4441 6.11236-.106q2.83161-.049 4.42379-.6041 1.6117-.5554 2.552-1.5289 1.32408-1.3708 2.02687-3.649.72198-2.298.66576-5.5397-.0779-4.4915-1.60371-6.8677-1.50662-2.3962-3.6299-3.1798-1.53337-.5594-4.91177-.5008l-6.01472.1043z"/><path d="m464.78108 1048.679-.15373-28.6324 12.69513-.068q3.82807-.021 5.82442.75 1.99625.751 3.19813 2.6977 1.20187 1.9467 1.21456 4.3099.0164 3.0469-1.94505 5.1473-1.9614 2.1004-6.0794 2.6889 1.50777.7146 2.29278 1.4135 1.66831 1.5145 3.16494 3.7916l5.02223 7.7662-4.76555.025-3.82099-5.9366q-1.67398-2.5691-2.75552-3.9305-1.08155-1.3614-1.94384-1.9037-.84277-.5423-1.72282-.7525-.64526-.1332-2.11008-.1254l-4.39447.024.0683 12.7147-3.78901.02zm3.70313-16.0162 8.14441-.044q2.59762-.014 4.05961-.5491 1.46189-.5548 2.2173-1.7307.75531-1.1955.74787-2.5822-.0109-2.0312-1.50229-3.3318-1.47185-1.3007-4.65539-1.2836l-9.06237.049.0509 9.4725z"/><path d="m490.48468 1048.5477 11.14943-28.5735 4.08197.022 11.56509 28.6952-4.31634-.023-3.29331-8.6897-11.97249-.064-3.19097 8.6549-4.02338-.021zm8.32463-11.7134 9.70689.052-2.94573-7.9456q-1.34779-3.6205-1.99939-5.9483-.56163 2.751-1.57226 5.4604z"/><path d="m520.34872 1048.7338.45949-28.6291 9.86201.1583q3.33942.054 5.09042.4919 2.45153.6058 4.16577 2.1179 2.23462 1.9502 3.2998 4.956 1.08503 2.9865 1.02359 6.8141-.0523 3.2613-.85439 5.7683-.80206 2.507-2.01995 4.1478-1.21758 1.6213-2.65854 2.5553-1.42111.9149-3.44041 1.3708-1.99976.4562-4.59709.4146zm3.8428-3.3176 6.1125.098q2.83166.045 4.44148-.4561 1.62935-.5013 2.60162-1.4429 1.3691-1.3258 2.14755-3.5792.7983-2.2727.85033-5.5144.0721-4.4916-1.37355-6.9175-1.42579-2.4451-3.52173-3.2991-1.51383-.6103-4.89231-.6646l-6.01485-.096-.35104 21.8722z"/><path d="m549.89492 1049.2724.68922-28.6245 3.78797.091-.68923 28.6245z"/><path d="m560.30212 1049.5078.94289-28.6173 3.88461.128 14.29062 22.9635.74029-22.4682 3.63084.1196-.94289 28.6173-3.88461-.128-14.28997-22.9831-.74094 22.4878z"/><path d="m586.0893 1050.3524 12.34159-28.0791 4.07744.1936 10.34769 29.1564-4.31155-.2047-2.92483-8.8206-11.95919-.5677-3.55224 8.513zm8.81002-11.3527 9.69611.4603-2.60886-8.0625q-1.1943-3.674-1.74739-6.0271-.67686 2.7248-1.80058 5.3894z"/></g></g></g></g></g></svg>