<svg enable-background="new 0 0 512 512" viewBox="0 0 512 512" xmlns="http://www.w3.org/2000/svg"><path d="m503.983 247.449c0 35.42-28.714 64.134-64.134 64.134s-64.134-28.714-64.134-64.134 28.714-64.134 64.134-64.134 64.134 28.714 64.134 64.134zm-64.133-29.929c-16.529 0-29.929 13.4-29.929 29.929s13.4 29.929 29.929 29.929 29.929-13.4 29.929-29.929-13.4-29.929-29.929-29.929z" fill="#009c3b"/><path d="m72.15 183.316c35.42 0 64.134 28.714 64.134 64.134s-28.714 64.134-64.134 64.134-64.133-28.715-64.133-64.135 28.713-64.133 64.133-64.133zm-29.929 64.133c0 16.529 13.4 29.929 29.929 29.929s29.929-13.4 29.929-29.929-13.399-29.929-29.929-29.929-29.929 13.4-29.929 29.929z" fill="#009c3b"/><path d="m277.378 441.252v-99.74h-42.756v99.74c-40.196 5.266-75.785 25.164-101.24 54.181h245.235c-25.455-29.018-61.043-48.916-101.239-54.181z" fill="#ffdf00"/><path d="m418.472 106.355h-324.944v89.787c0 90.056 72.415 162.472 162.472 162.472s162.472-72.415 162.472-162.472c0-2.603 0-89.787 0-89.787z" fill="#009c3b"/><path d="m67.875 106.355h376.251v47.031h-376.251z" fill="#ffdf00"/><path d="m324.409 234.623h-51.307l-17.102-47.032-17.102 47.032h-51.307l42.756 33.967-12.827 47.031 38.48-29.929 38.48 29.929-12.827-47.031z" fill="#fff"/><path d="m234.622 341.512v99.74c-40.196 5.266-75.785 25.164-101.24 54.181h122.618v-153.921z" fill="#009c3b"/><path d="m93.528 106.355v89.787c0 90.056 72.415 162.472 162.472 162.472v-252.259z" fill="#ffdf00"/><path d="m67.875 106.355h188.125v47.031h-188.125z" fill="#009c3b"/><path d="m238.898 234.623h-51.307l42.756 33.967-12.827 47.031 38.48-29.929v-98.101z" fill="#fff"/><path d="m324.417 315.399c-2.694 0-5.323-1.357-6.837-3.82-2.318-3.772-1.139-8.709 2.633-11.027 8.103-4.98 15.656-10.951 22.451-17.746 3.294-3.293 6.425-6.799 9.305-10.418 2.756-3.465 7.801-4.038 11.264-1.283 3.465 2.757 4.039 7.8 1.283 11.264-3.256 4.093-6.793 8.054-10.515 11.775-7.68 7.68-16.224 14.431-25.394 20.067-1.31.804-2.758 1.188-4.19 1.188z" fill="#ffdf00"/><path d="m376.059 255.468c-1.044 0-2.107-.205-3.13-.639-4.076-1.731-5.977-6.436-4.248-10.513 6.44-15.171 9.706-31.38 9.706-48.174 0-4.427 3.588-8.017 8.017-8.017 4.428 0 8.017 3.589 8.017 8.017 0 18.959-3.694 37.276-10.98 54.44-1.294 3.053-4.262 4.886-7.382 4.886z" fill="#ffdf00"/><g fill="#002776"><path d="m277.378 29.93h-13.361v-13.362c0-4.427-3.588-8.017-8.017-8.017-4.428 0-8.017 3.589-8.017 8.017v13.362h-13.361c-4.428 0-8.017 3.589-8.017 8.017s3.588 8.017 8.017 8.017h13.361v13.361c0 4.427 3.588 8.017 8.017 8.017 4.428 0 8.017-3.589 8.017-8.017v-13.362h13.361c4.428 0 8.017-3.589 8.017-8.017s-3.589-8.016-8.017-8.016z"/><path d="m397.094 29.93h-13.361v-13.362c0-4.427-3.588-8.017-8.017-8.017-4.428 0-8.017 3.589-8.017 8.017v13.362h-13.361c-4.428 0-8.017 3.589-8.017 8.017s3.588 8.017 8.017 8.017h13.361v13.361c0 4.427 3.588 8.017 8.017 8.017 4.428 0 8.017-3.589 8.017-8.017v-13.362h13.361c4.428 0 8.017-3.589 8.017-8.017s-3.589-8.016-8.017-8.016z"/><path d="m166.213 29.93h-13.361v-13.362c0-4.427-3.588-8.017-8.017-8.017-4.428 0-8.017 3.589-8.017 8.017v13.362h-13.361c-4.428 0-8.017 3.589-8.017 8.017s3.588 8.017 8.017 8.017h13.361v13.361c0 4.427 3.588 8.017 8.017 8.017 4.428 0 8.017-3.589 8.017-8.017v-13.362h13.361c4.428 0 8.017-3.589 8.017-8.017s-3.589-8.016-8.017-8.016z"/><path d="m439.85 175.299c-4.506 0-8.97.432-13.361 1.258v-15.154h17.637c4.428 0 8.017-3.589 8.017-8.017v-47.031c0-4.427-3.588-8.017-8.017-8.017h-25.653-324.945-25.653c-4.428 0-8.017 3.589-8.017 8.017v47.031c0 4.427 3.588 8.017 8.017 8.017h17.637v15.154c-4.391-.826-8.855-1.258-13.361-1.258-39.784 0-72.15 32.366-72.15 72.15s32.366 72.15 72.15 72.15c18.295 0 35.606-6.87 48.848-19.087 26.11 33.787 63.865 56.311 105.607 63.568v70.283c-38.349 6.652-73.374 26.285-99.25 55.782-2.076 2.365-2.575 5.727-1.276 8.594 1.3 2.867 4.156 4.708 7.303 4.708h245.236c3.147 0 6.003-1.842 7.303-4.708 1.299-2.867.8-6.228-1.276-8.594-25.876-29.497-60.9-49.131-99.25-55.782v-70.283c41.742-7.257 79.497-29.782 105.607-63.568 13.243 12.217 30.553 19.087 48.848 19.087 39.784 0 72.15-32.366 72.15-72.15s-32.367-72.15-72.151-72.15zm-17.692 59.236c4.129-5.657 10.649-8.998 17.691-8.998 12.083 0 21.912 9.83 21.912 21.912s-9.83 21.912-21.912 21.912c-11.476 0-20.808-8.678-21.793-19.965 1.573-4.824 2.949-9.806 4.102-14.861zm-346.267-120.163h17.637 324.944 17.637v30.998h-17.637-324.944-17.637zm13.95 120.163c1.154 5.055 2.529 10.036 4.101 14.862-.983 11.286-10.316 19.965-21.792 19.965-12.083 0-21.912-9.83-21.912-21.912s9.83-21.912 21.912-21.912c7.042-.001 13.562 3.341 17.691 8.997zm-17.691 69.031c-30.942 0-56.117-25.173-56.117-56.117s25.175-56.117 56.117-56.117c4.527 0 9 .552 13.361 1.62v3.19c0 5.369.266 10.737.764 16.079-4.419-1.769-9.197-2.718-14.125-2.718-20.924 0-37.946 17.022-37.946 37.946s17.022 37.946 37.946 37.946c12.388 0 23.346-5.839 30.261-14.969 2.78 5.762 5.875 11.376 9.298 16.804-10.48 10.439-24.601 16.336-39.559 16.336zm197.211 63.065v74.619c0 4.025 2.984 7.426 6.975 7.949 31.011 4.063 59.925 17.453 83.094 38.216h-206.86c23.169-20.763 52.084-34.153 83.094-38.216 3.99-.523 6.975-3.924 6.975-7.949v-74.619zm-13.361-16.033c-51.136 0-98.826-25.084-127.571-67.1-.002-.003-.005-.006-.007-.011-7.966-11.646-14.281-24.299-18.771-37.61-1.774-5.262-3.293-10.762-4.514-16.347 0-.002-.001-.004-.002-.006-2.381-10.919-3.589-22.151-3.589-33.382v-9.163-25.576h308.91v25.576 9.163c0 11.231-1.208 22.463-3.59 33.382 0 .002-.001.004-.002.006-1.221 5.585-2.74 11.084-4.514 16.347-4.489 13.311-10.804 25.964-18.771 37.61-.003.003-.005.006-.007.011-28.746 42.016-76.436 67.1-127.572 67.1zm183.85-47.032c-14.958 0-29.078-5.897-39.559-16.336 3.424-5.428 6.518-11.042 9.298-16.804 6.915 9.129 17.872 14.969 30.26 14.969 20.924 0 37.946-17.022 37.946-37.946s-17.022-37.946-37.946-37.946c-4.929 0-9.707.949-14.125 2.718.498-5.342.764-10.71.764-16.079v-3.19c4.362-1.07 8.834-1.62 13.361-1.62 30.942 0 56.117 25.174 56.117 56.117s-25.174 56.117-56.116 56.117z"/><path d="m324.409 226.606h-45.692l-15.183-41.754c-1.152-3.168-4.163-5.277-7.535-5.277s-6.382 2.109-7.535 5.277l-15.183 41.754h-45.692c-3.409 0-6.445 2.157-7.569 5.375-1.123 3.219-.088 6.797 2.582 8.918l38.617 30.68-11.435 41.933c-.909 3.329.416 6.866 3.287 8.779 2.871 1.915 6.646 1.778 9.369-.342l33.558-26.1 33.559 26.1c1.443 1.122 3.181 1.689 4.922 1.689 1.546 0 3.095-.446 4.446-1.347 2.872-1.914 4.195-5.45 3.287-8.779l-11.435-41.933 38.617-30.68c2.67-2.121 3.706-5.699 2.582-8.918-1.121-3.218-4.157-5.375-7.567-5.375zm-47.742 35.707c-2.511 1.995-3.591 5.293-2.747 8.387l6.498 23.829-19.496-15.163c-1.448-1.126-3.185-1.689-4.922-1.689s-3.474.563-4.922 1.689l-19.496 15.163 6.498-23.829c.844-3.093-.237-6.392-2.747-8.387l-24.764-19.674h28.329c3.37 0 6.382-2.109 7.535-5.277l9.567-26.313 9.568 26.313c1.152 3.168 4.163 5.277 7.535 5.277h28.329z"/></g></svg>