<svg clip-rule="evenodd" fill-rule="evenodd" height="136.36mm" image-rendering="optimizeQuality" shape-rendering="geometricPrecision" text-rendering="geometricPrecision" viewBox="0 0 200 136.36" width="200mm" xmlns="http://www.w3.org/2000/svg"><path d="m193.515 136.359-193.515-132.6103v-3.7475h6.485l193.515 132.6098v3.748z" fill="#fff500"/><path d="m197.193 136.359-197.193-135.1304v-1.2274h2.8069l197.1931 135.1298v1.228z" fill="#1f1a17"/><path d="m96.6213 136.359v-136.3578h6.7577v136.3578z" fill="#fff500"/><path d="m98.7005 136.359v-136.3578h2.5985v136.3578z" fill="#1f1a17"/><path d="m6.4851 136.359 193.5149-132.6103v-3.7475h-6.485l-193.515 132.6098v3.748z" fill="#fff500"/><path d="m2.807 136.359 197.193-135.1307v-1.2271h-2.807l-197.193 135.1308v1.227z" fill="#1f1a17"/><path d="m0 64.8013h200v6.7574h-200z" fill="#fff500"/><path d="m0 66.8805h200v2.599h-200z" fill="#1f1a17"/><path d="m11.4776.0012h82.5447v47.0578h-13.8746l-68.6701-47.0578zm57.4549 62.2011h-68.9325v-55.033l68.9325 47.2377zm37.0452-62.2011h82.5991l-68.6705 47.0578h-13.9286zm94.0223 7.1314v55.0697h-68.9325v-7.8323l68.9325-47.2374zm0 67.025v55.0329l-68.9325-47.2377v-7.7952zm-11.4776 62.2011h-82.5447v-47.0578h13.8746zm-94.5001 0h-82.5991l68.6705-47.0578h13.9286zm-94.0223-7.1314v-55.0697h68.9325v7.8323z" fill="#28166f" stroke="#28166f" stroke-width=".0762"/><path d="m68.9607 47.198h62.0787v41.9638h-62.0787z" fill="#fff"/><path d="m81.7337 82.712.5961-.0894.8345-.1192.6258-.1192h1.0133.7153l-.0894-.6556-.0298-.7749.2086-.6557.298-.7153.2683-.4172.6556-.2384.9239-.0596.6557-.0596.7153.0298 1.9968.2384 1.0729.3278 1.1921.2384 1.3651.3758 1.4715.4905.9959.327 1.204.1932 1.2188.1041.669-.0446.907-.0149h.52l.728-.104 1.055-.1933 1.442-.3864 1.739-.55 1.16-.3567 1.114-.2527 2.289-.3865.759-.0594.653-.0892h.402l.238.1486.52.5054.223.327.223.4608.163.3865.075.3567.029.3567-.014.6243-.075.4013-.044.223.817-.0149.937.0149.698.0594.684.1784.713.2675-.282.2379-1.323.7134.996 1.3378-1.085.1486-2.081.1486-1.486.1189-1.13.0149-1.843.0595-1.056-.1041-1.07-.2081-.877-.2675-.862-.3568-.609-.2526-.372-.1784-1.085.3419-1.278.2824-1.293.0892-.55.0297.52.4013.55.2973.52.1783.624.2081.075.4608.148.3419v.2824l-.059.0743-.223-.0743-.922-.4459-.743-.4757-.698-.5648-.387-.5648-.178-.0446-.2975.4311-.5351.431-.5053.3121-.6689.3419-.7432.3716-.5945.1635h-.1635l-.0892-.0743v-.1932l.104-.1635.0892-.119.0297-.1337.0298-.223.0148-.2229.8324-.2379.5202-.1337.5054-.1933.3567-.2229.2676-.1933-.8027-.0891-.8026-.0892-.9364-.1932-.7878-.2081-.4311-.1635-.4905-.1635-1.3526.6242-.981.3716-1.0256.2676-.8769.104-1.204.0595-2.2147.0446-1.2188-.0298-.9216-.104-1.1296-.0743-.9959-.0298-.7729-.0297.6243-.8769.3567-.3716.2378-.2379z" fill="#1f1a17"/><path d="m87.2525 52.5845.9378-.5712.5116.8866.6565-.3836-.4348-.827.9634-.5372.5115.9294.0171.7502 2.7283-1.0145-.529-.5142-.3918-.9949 1.0657-.3325.3496.9122.3069-.0426-.1961-1.0316 1.1169-.2217.1876.8782.2813.0085-.162-1.0231 1.0999-.1023.1705.9804-.2046.6395.0341.0852.4604-.0682.7758-.1193.8356-.0597.5201-.0341-.4775-.6053-.0938-1.1681 1.1851-.0085v.9805h.4008l.0255-1.0061 1.0831.0256-.026.9719.367-.0085.042-.9208 1.049.0767-.043 1.0828-.443.6224 1.16.0938.767.1023.853.2132-.188-.5201-.068-.2302.179-1.0743 1.1.2217-.179.9634.315.0768.316-.9464 1.065.3922-.315.8526.315.1364.401-.8952.895.4007-.383.9805-.529.52 2.524 1.1596.008-.8867.588-.9635.947.5457-.469.8185.691.4263.503-.8782.954.5712-.562 1.0658-.699.4007-1.475 3.0864.068.1364.042.1023.035.0767-.018.162-.042.0938-.077.0853-.102.0341-.085.017h-.111-.068l-.751 1.313.034.1109.017.1364.017.1534-.017.1109-.119.0682-.094.0597-.102.0426-.105-.0941-.298-.1605-.229-.1377-.408-.2471-.642-.3975-.763-.3909-.676-.2859-.603-.2269-.522-.1824-.563-.1875-.578-.1548-.547-.1351-.563-.1023-.586-.0945-.556-.0419-.904-.0171h-1.0573-.7161l-.631.0682-.8185.1364-1.1083.2558-.972.2439-.9549.3359-.7527.2911-.8947.4211-.467.2427-.5116.2728-.2898.1876-.1876.1193h-.2046l-.145-.0852-.0767-.0682-.0085-.1023.0085-.162.0853-.145-.7844-1.4323-.1109-.0171-.0938-.017-.0511-.0341-.0512-.0341-.0682-.0682-.0511-.0853v-.0682l.0085-.0938.0341-.0767.0682-.0938-1.1766-2.626-.2984-.5542-.6479-.4433z" fill="#605d5c"/><path d="m90.8241 53.732 1.1809-.5767.2335.4806-1.1672.5355z" fill="#c2c1c1"/><path d="m91.1948 54.2813.2472.4394.3357-.1393-.2533-.4512z" fill="#c2c1c1"/><path d="m91.7029 54.0616 1.1947-.4669.1785.5081-1.126.4119z" fill="#c2c1c1"/><path d="m93.0899 53.5123.563-.206.1098.6042-.4531.1099z" fill="#c2c1c1"/><path d="m91.5656 54.8855.975-.3982.206.5355-.8102.3708z" fill="#c2c1c1"/><path d="m92.7328 54.4049 1.0299-.3433.0961.6317-.92.2609z" fill="#c2c1c1"/><path d="m92.0325 55.5584.206.3982.0824-.0824-.1786-.3708z" fill="#c2c1c1"/><path d="m92.3209 55.3936.5492-.2609.5493-.1785.1373.4689-.4806.1902-.4943.2472z" fill="#c2c1c1"/><path d="m93.6117 54.8855.3021-.0275.0824.4257-.2335.0687z" fill="#c2c1c1"/><path d="m96.8662 53.3338.4531-.1099.4806-.059v.5452l-.3982.0768-.3845.1099z" fill="#c2c1c1"/><path d="m97.9922 53.1278.7827-.0137v.563l-.7278.0549z" fill="#c2c1c1"/><path d="m97.0584 54.0479.1923-.0138.0549.4257-.1785.0137z" fill="#c2c1c1"/><path d="m97.4429 53.9517.4944-.0824.4806.0061.0274.4334-.5355.0549-.4257.0824z" fill="#c2c1c1"/><path d="m98.6101 53.8281h.1099l.0274.4532h-.1373z" fill="#c2c1c1"/><path d="m101.937 53.2251.447.0175.451.0527-.028.5193-.463-.0562-.407-.0421z" fill="#c2c1c1"/><path d="m103.059 53.3234.59.0859.393.0913-.211.4964-.379-.0561-.435-.0562z" fill="#c2c1c1"/><path d="m101.965 53.9128.182-.014-.014.4911-.21-.014z" fill="#c2c1c1"/><path d="m102.33 53.9128.589.0842.533.114-.07.4649-.631-.0877-.435-.0702z" fill="#c2c1c1"/><path d="m103.607 54.1514.154.0421-.07.435-.196-.028.098-.5193" fill="none"/><g fill="#c2c1c1"><path d="m103.593 54.1514.21.028-.098.4772-.196-.0561z"/><path d="m109.669 53.2392.435.1824-.238.393-.449-.1544z"/><path d="m108.673 53.4637 1.066.4912-.294.435-.968-.435z"/><path d="m107.213 53.6602.337.1263-.224.5192-.253-.0842z"/><path d="m107.761 53.8567 1.193.5052-.267.4631-1.179-.4772z"/><path d="m109.08 54.4461.239.1122-.267.4491-.211-.1403z"/><path d="m107.017 54.3619.87.3087-.21.4631-.758-.2947z"/><path d="m108.098 54.7548.505.2105.323.1404-.267.4069-.379-.1403-.407-.1403z"/><path d="m106.849 54.9653.196.0983-.295.5192z"/><path d="m107.171 55.1337 1.0947.4491-.2526.4912-1.0806-.435s.2245-.5193.2385-.5053z"/><path d="m108.406 55.667.127.0421-.323.4631z"/><path d="m90.4197 57.7651.4424-.2939.5259-.295.1796.3463-.5003.2822-.4617.2693z"/><path d="m90.9775 57.9971.6799-.372.7311-.3848.2052.4361-.6926.3463-.7183.3848z"/><path d="m92.5937 57.1493.7121-.3058.7643-.3137.1348.4279-.6942.3047-.7516.315z"/><path d="m94.2558 56.4674.7378-.2369.7907-.2398.1143.4922-.7407.1841-.7781.2422z"/><path d="m95.9911 55.9589.7269-.1611.9101-.1322.0193.4637-.8004.1084-.7819.1746z"/><path d="m97.8269 55.644.5298-.0833 1.03-.0739.0217.5182-.7641.0441-.8004.0535z"/><path d="m99.5807 55.4831.7633.0045.761.0062.007.5527-.749-.0592-.7897.026z"/><path d="m101.329 55.5216.987.1026.731.1282-.102.449-1.655-.1796z"/><path d="m103.253 55.7781.859.1796.667.1795.295.1026-.167.4361-.744-.2052-.551-.1282-.436-.1027z"/><path d="m105.266 56.2783.885.3079.667.2308-.179.5131-.436-.2052-.616-.2309-.5-.1411z"/><path d="m106.844 57.4071.821.3591.436.2309.218-.4233-.526-.2694-.782-.3719z"/><path d="m108.512 57.6508.628.3591.423.295-.256.4233-.462-.295-.577-.3207z"/><path d="m109.461 58.8052.231-.3848.205.1539-.218.3591z"/><path d="m90.6569 58.2151.1796-.1026.2052.3976-.1796.1027z"/><path d="m90.9391 58.741.295-.2052.3206-.1796.372-.1795.2309.3976-.3592.2437-.3334.1796-.2951.1924z"/><path d="m92.1576 58.0869.4361-.2309.4233-.2052.3848-.154.2437.3977-.4874.218-.3848.2052-.3848.1924z"/><path d="m93.6198 57.4071.5387-.2437.4233-.154.4233-.1539.1283.4746-.4361.1283-.3848.1667-.4746.1924z"/><path d="m95.2103 56.817.4361-.1411.4105-.1154.3463-.0641.2822-.077.0898.4746-.4105.077-.5131.1154-.2565.077-.2309.0769s-.1539-.4489-.1539-.4233z"/><path d="m96.9034 56.4066.5259-.1026.3848-.0513.6157-.077.0385.4233-.5003.0641-.5387.0898-.4489.0898z"/><path d="m98.6607 56.1629.6413-.0385h.5772.3588l-.012.3848-.6162.0513h-.5515l-.3976.0257z"/><path d="m100.444 56.1372h.5002l.4233.0385.3848.0257.2052.0256-.0128.3848-.4233-.0385-.2565-.0256-.295-.0128h-.5388s.0257-.3977.0129-.3977z"/><path d="m102.15 56.227.628.0898.334.0513.59.1154-.103.4105-.436-.1026-.411-.0641-.423-.077-.218-.0257z"/><path d="m103.907 56.5605.5.1154.423.1411.372.1155.334.1282.295.1027-.116.3591-.461-.1667-.424-.1283-.384-.1283-.372-.1026-.257-.0641z"/><path d="m106.023 57.2403.616.2309.308.1539.372.1668-.167.3591-.385-.1924-.41-.1667-.462-.2053z"/><path d="m107.485 57.8688.449.2181.283.1667.295.1924-.154.3079-.385-.1924-.398-.2053-.243-.1282z"/><path d="m108.704 58.5358.3848.2309.2822.1667.1796.1283-.154.3207-.295-.1668-.2822-.1539-.3078-.1796s.1678-.361.1924-.3463z"/><path d="m91.5932 57.0736.449-.2309.5002-.2565.372-.1668.1539.3592-.3848.1667-.372.1796-.3335.1795-.2052.1027z"/><path d="m93.1196 56.3681.4233-.1796.4232-.1667.6029-.2309.1667.3592-.3848.1282-.3976.1283-.3591.1411-.3207.1154z"/><path d="m94.8127 55.714.4618-.1411.5258-.1283.4618-.1026.2181-.0385.0513.3848-.3977.0898-.4104.1026-.3335.0641-.3078.0898-.1155.0385z"/><path d="m96.6854 55.265.4104-.0898.5644-.1026.4105-.0513.2821-.0128-.0256.4233-.372.0384-.3463.0642-.3078.0385-.3079.0384-.2822.0513z"/><path d="m98.5196 55.0085.59-.0513.5131-.0128h.4361.1539l-.0128.3719-.4874.0257h-.3977-.3463l-.2693.0513-.1796.0128s.0128-.4104 0-.3976z"/><path d="m100.431 54.9572.526-.0128.474.0256.359.0385.283.0513-.026.372-.257-.0129-.333-.0256-.334-.0257h-.346l-.359-.0384z"/><path d="m102.265 55.0726.552.077.513.0641.384.1026.193.0898-.013.3592-.462-.1155-.372-.0769-.423-.0642-.385-.0385z"/><path d="m104.138 55.3805.5.1154.449.1411.513.1924.539.1924-.116.3463-.41-.1283-.513-.1411-.372-.1154-.321-.1154-.333-.077z"/><path d="m106.344 56.1116.538.1795.514.2309.449.2309-.219.3078-.346-.1539-.346-.1539-.295-.1283-.423-.1667z"/><path d="m108.024 56.817.398.2181.423.2309.257.1667-.18.2694-.372-.1796-.346-.1667-.385-.1796z"/><path d="m109.243 57.5225.526.295.372.2565-.142.3079-.243-.1411-.424-.2694-.256-.1924z"/><path d="m110.564 57.7021-1.078-.6157-1-.5387-.872-.4105-.873-.3719-.846-.3207-.962-.295-.962-.2437-1.154-.2309-.911-.1411-.885-.1026-.847-.0257-.7053.0129-.9491.0641-.8337.077-1.1031.1924-1.1416.2565-1.1416.3591-.9748.3592-.8979.3848-.8593.4104-.7311.4105-.5644.3206-.2181.1411-.0513.1026.0257.0898.0641.0513.0898.0513h.1154l.1796-.1026.8081-.4489.962-.5259.7183-.3335.8465-.3463.7696-.2822.744-.218.8722-.2309.8593-.1796.9236-.1283.8465-.1026.6927-.0256.6799-.0128.846.0256.911.1026.847.1283 1.103.1924.975.2565.923.2822.834.3207.821.3591.898.4233 1 .5259.924.6157h.128l.128-.0129.039-.1026z"/><path d="m109.316 59.5628-.7767-.4462-.5948-.38-.6444-.3305-.694-.3139-.7932-.3801-.694-.2478-.9088-.2809-.6444-.1653-1.0245-.2148-1.1731-.0991-1.388-.0496-1.2889.0826-.8922.0992-1.1402.2148-1.0244.2643-1.1567.3966-.8262.347-.9749.4627-.7766.3965-.5948.3305-.1157.1157-.0826.1322.033.1982.1157.0661.1652-.0661.2644-.1487.6114-.3635.7601-.38.9418-.4627.9749-.38 1.2062-.3636 1.041-.2313.8262-.1157.9419-.1156 1.074-.0661.9914.033.8427.0496.8427.0826.7601.1983.7271.1652.9088.2809.7766.314.7766.347.7766.38.6279.314.5288.3305.38.2643.1983.1653.1487-.0496.0991-.0826-.0165-.2148s-.0661-.0826-.1156-.0826z"/></g><path d="m91.6091 59.8305 17.5479.0876.091 12.3407-.057.9442-.159.9167-.197.7543-.241.7739-.421.6369-.482.7658-.612.6783-.832.8971-.831.744-.744.5251-.766.4157-.963.3282-1.159.197-1.051.1313-1.1375-.0219-.9846-.1532-1.0722-.2407-.919-.3938-.7001-.3501-.7002-.5689-.7658-.7221-.7221-.722-.5033-.5689-.6564-1.0284-.372-.8534-.3077-.9113-.2024-.7579-.072-.7307-.015-.6635z" fill="#125c82"/><path d="m87.4801 52.6787.6454-.3901.461.7022-.6525.461z" fill="#c2c1c1"/><path d="m89.1305 51.7521.6742-.3694.4046.7388-.6668.3317z" fill="#c2c1c1"/><path d="m92.4487 50.412.7468-.2514.2514.769-.7098.2662s-.281-.7838-.2884-.7838z" fill="#c2c1c1"/><path d="m93.9793 49.9388.7468-.1257.17.7764-.7024.1775z" fill="#c2c1c1"/><path d="m95.3911 49.5958.1643.8217.6872-.1195-.1344-.7918z" fill="#c2c1c1"/><path d="m98.4985 49.1925.7768-.015.0149.8067-.7619.015z" fill="#c2c1c1"/><path d="m100.037 49.1327.732.0448v.8067h-.717z" fill="#c2c1c1"/><path d="m101.546 49.2223.717.0598-.104.747-.703-.0299z" fill="#c2c1c1"/><path d="m104.668 50.3876.717.1643.165-.8067-.777-.1344z" fill="#c2c1c1"/><path d="m106.297 49.9693.702.239-.254.732-.717-.1792z" fill="#c2c1c1"/><path d="m107.701 50.4324.613.2241-.239.7768-.688-.224z" fill="#c2c1c1"/><path d="m110.375 52.4044.404-.7022.717.2988-.419.7022z" fill="#c2c1c1"/><path d="m112.511 52.6135.613.3436-.418.7619-.658-.4033z" fill="#c2c1c1"/><path d="m110.33 52.6434.777.3287.583.3137.418.254.478.3436-.523.3286-.328.5827-.613-.2988-.836 1.1204-.777 1.1205-1.121-.5379.762-1.0606.508-.7171.672-.9113z" fill="#c2c1c1"/><path d="m103.847 54.6154 1.165-3.2418-.329-.7619 3.212.9561-.433.4033-.896 3.4361-.493-.1793.597-2.7339-1.359-.4183-.882 2.6293z" fill="#c2c1c1"/><path d="m98.6743 50.1418 3.3677.0591-.296.5513.02 3.5447-.591-.0197-.157-2.7569h-1.3197l-.2166 2.6978-.5711.0394.2364-3.3674z" fill="#c2c1c1"/><path d="m92.8847 51.343.6105-.2363.7286-.1575.6696-.1576.512-.1181.4332-.0985.3348-.0788-.1773.6893.9453 3.3083-.5514.0985-.8665-2.5994-1.3391.2757.5317 2.7569-.5514.1576-.5908-3.3478z" fill="#c2c1c1"/><path d="m88.0206 53.588.8862-.5908.6302-.3348.6695-.3347v.8861l1.8314 2.757-1.024.5711-1.5163-2.3041-.6302.3545-.256-.6892z" fill="#c2c1c1"/><path d="m90.3847 53.0866.563-.3021.2746.5905-.5081.2609z" fill="#c2c1c1"/><path d="m91.1536 52.7296 1.2909-.5081.1785.5081-1.2359.563z" fill="#c2c1c1"/><path d="m92.6367 52.1528.7003-.2197.1236.5081-.6454.2335z" fill="#c2c1c1"/><path d="m92.2247 53.1003 1.2634-.4668.1373.5218-1.1809.4257z" fill="#c2c1c1"/><path d="m96.2208 51.2328.5767-.1099.0687.5081-.4532.1373z" fill="#c2c1c1"/><path d="m96.9953 51.0894.6536-.0763.6042-.0275-.0137.4944-.5768.0137-.5905.1099z" fill="#c2c1c1"/><path d="m98.4591 50.9719.4806-.0275v.5081l-.4806.0275z" fill="#c2c1c1"/><path d="m96.4679 51.8919.5081-.0961.4532-.0412.1785-.0275.0453.5575-.4298.0056-.3708.0961-.2471.0961z" fill="#c2c1c1"/><path d="m97.8274 51.6722.563-.0549h.5218l-.0137.5355-.4532.0275-.5965.0865z" fill="#c2c1c1"/><path d="m96.6739 52.606.3296-.0824.0686.5767-.2883.0824z" fill="#c2c1c1"/><path d="m97.2369 52.4824.5218-.0824.5926-.0137.0295.5905h-.5122l-.5829.0625z" fill="#c2c1c1"/><path d="m98.5689 52.3588h.2884l-.0137.6317h-.2884z" fill="#c2c1c1"/><path d="m101.895 50.9938.547.0753.016.5-.549-.0561z" fill="#c2c1c1"/><path d="m102.653 51.078 1.305.1824-.071.5333-1.192-.1544z" fill="#c2c1c1"/><path d="m104.133 51.2867.597.1842-.155.5193-.456-.1579z" fill="#c2c1c1"/><path d="m101.895 51.7376.6316.028.4911.0842-.014.5614-.5771-.0842-.5035-.0281s-.0281-.5894-.0281-.5613z" fill="#c2c1c1"/><path d="m103.214 51.8919.73.0983.561.1403-.196.5193-.534-.1123-.554-.1017z" fill="#c2c1c1"/><path d="m101.909 52.4392.3929.0474-.0105.5876-.3824-.0175s-.0441-.6227 0-.6175z" fill="#c2c1c1"/><path d="m102.47 52.4954 1.249.1824-.098.5754-.562-.0842-.603-.0702z" fill="#c2c1c1"/><path d="m103.93 52.762.308.0702-.14.5052-.267-.0596z" fill="#c2c1c1"/><path d="m107.564 52.327.477.1964-.196.4211-.379-.1123z" fill="#c2c1c1"/><path d="m108.266 52.5655 1.235.5614-.211.421-1.22-.4912z" fill="#c2c1c1"/><path d="m107.424 52.9866 1.067.435-.197.4351-1.024-.3228z" fill="#c2c1c1"/><path d="m102.255 80.2846-4.1433.0025.0936-.1449.1206-.1821.093-.1801.0821-.189.1853-3.9894-.1347-.0962-.1346-.0962-.077-.1924.0385-.1732.0769-.1539.0962-.1347.1155-.0769.0962-.0193.5002-10.3318-.1347-.0282-.0912-.0776-.0205-.115.0178-.1088.1273-.0568.1547-.0281 1.0911-2.6714.892 2.6857.104.0165.096.0287.058.0671.038.115v.1245l-.077.1055-.086.0479-.096.0383.24 10.1859.125.0575.134.0958.067.0958.038.0767v.1246l-.019.1629-.067.1245-.096.1533-.115.0671-.029.0863.192 3.8137.485.7536z" fill="#815239"/><path d="m99.4764 63.9281.9026-2.1959.75 2.1959z" fill="#fff500"/><path d="m99.3328 64.1025h1.98043v.092352h-1.98043z" fill="#fff500"/><path d="m99.8459 64.3796.8621-.0103.533 10.2716-2.1032-.0103z" fill="#fff500"/><path d="m98.9942 75.1745h2.29853v.184703h-2.29853z" fill="#fff500"/><path d="m99.3225 79.4637.0308-2.7193 1.6517-.0102-.02 2.709.513.0102-.185-3.7864-2.2367-.0308-.1642 3.8172z" fill="#fff500"/><path d="m98.6543 79.6102 3.0089.0096.3545.5078h-3.5742s.1973-.5174.2108-.5174z" fill="#fff500"/><path d="m98.8556 74.852h.057493v5.28607h-.057493z" fill="#815239"/><path d="m99.3264 66.8687h.057493v13.2706h-.057493z" fill="#815239"/><path d="m99.6584 64.3487h.057493v15.791h-.057493z" fill="#815239"/><path d="m99.9903 64.3487h.057493v15.791h-.057493z" fill="#815239"/><path d="m100.473 64.3487h.057493v15.791h-.057493z" fill="#815239"/><path d="m100.872 66.8687h.057493v13.2706h-.057493z" fill="#815239"/><path d="m101.391 74.852h.057493v5.28607h-.057493z" fill="#815239"/><path d="m99.4688 63.9241.9008-2.1847.7378 2.1751.1725.0288-.8816-2.6256-1.0732 2.5872s.1341.0192.1437.0192z" fill="#1f1a17"/><path d="m89.9679 79.0388-.2219-.0601-.1725-.0406-.1035-.0212-.0669-.1107.0214.0252-.0091-.0085-.0099.0262.0043.0094.0009-.0114.0114.0081-.0199-.001.0123-.0076-.0023-.0037-.0195-.0193.0263.009.013-.009-.0102.0181-.0086.0206.0207-.093v-.1344-.1033l.0413-.0517-.0413-.0724-.0724-.0827-.0413-.1033v-.0621l-.6202-.0206-.2894-.0827-.2791-.1137-.2481-.2998-.2171-.3308-.2894-.6409-.0414-.248.3928.2067.5376.124.2687.1448.2481.1447.0207-.3308v-.2274l.0413-.1654-.093-.062-.0517.031v.155l-.031.0931-.0414.062-.093.0207-.093-.0207-.0931-.062-.062-.0931.0207-.155v-.0724l-.093-.0206-.0827-.0621-.0104-.1137.0104-.093.0413-.093.0104-.0931-.1241-.0206h-.093l-.1034-.0517-.093-.0207-.1137-.0413-.0827-.1137.0103-.1241v-.0827l-.062-.062-.0413-.1034v-.0723-.093l-.0207-.0827-.0517-.0311-.0413-.093.0206-.062-.0103-.1447-.1137-.0104-.2274-.031-.2481-.0413-.2171-.1137-.186-.1034-.1241-.1447-.124-.1447-.1034-.1964-.186-.3204-.0827-.2171-.0724-.2378-.1137-.2791-.062-.2067.0103-.0517.2274.0931.3721.2274.3101.1137.2068.062.2067.0723v-.1137l.0517-.248.0517-.2171.062-.1861.0414-.1654.0413-.155.0517-.1241.0413-.0826-.0517-.0517-.1137-.0414-.1033-.0206v.1447.1033l-.062.0724-.0931.0413h-.1137-.0827l-.0827-.0413-.0517-.062-.031-.0621v-.0826-.0931l.031-.0517.0311-.0516.0516-.0414.0621-.0413.0206-.1551.031-.0827v-.062-.124l-.031-.0827-.062-.0621-.0517-.1137v-.0723l.0207-.0724.0517-.0723.0517-.0414.0103-.093-.2171-.0724-.3101-.062-.2067-.093-.2481-.093-.217-.2481-.1964-.3101-.1034-.1964-.1447-.2584-.062-.2895-.0724-.2067-.0414-.1964-.031-.2067-.0516-.2068-.0207-.1654v-.1343l-.0104-.0724.2585.2067.1653.1344.1448.1034.1757.124.1654.0827.1033.062.1654.0724.1241.0723.1343.0931.1241.0723.093.0724.0724.0724.1137.1137.093.124.0517.062v-.1654l-.031-.1654v-.124l.0517-.093.0206-.1034-.0413-.0517-.0103-.0517v-.062l.0413-.0827.0724-.1033v-.0724-.0724l-.0414-.0516-.0723-.0414-.0311-.0723-.0206-.0724v-.062l.031-.0517.0517-.031.0103-.1137-.0724-.0414c-.0413-.0723-.0516-.1447-.0516-.1447l-.0104-.062.0207-.0517.0517-.062c.0413-.0517.0517-.0414.0517-.093 0-.0517-.031-.0724-.031-.0724l-.0414-.0517c0-.0517-.031-.031.0207-.0723.0517-.0414.0723-.0724.0723-.0724l-.0827-.0207-.217-.0723-.1034-.062-.1034-.0724-.093-.0827-.093-.093-.0724-.1034-.0827-.1034-.031-.124-.031-.124-.0207-.1241.031-1.1577.1137.1551.0931.1757.0827.1137.1137.124.1137.1034.1654.124.124.1241.0827.0827.1344.0517.0723.062.0517-.0931.0414-.1343.0827-.1551.0723-.062.0931-.062.155-.0724.093-.0517.0414-.124-.031-.093c-.031-.0517-.1241-.0207-.1241-.0207l-.0827.031-.093-.0103-.0827-.0517-.0413-.0724v-.1033l.0103-.0621.0517-.0827.0827-.0723.0517-.0104.0516-.0827v-.1033l.0724-.1137.093-.0724.031-.0723-.1137-.1654-.124-.1964-.0827-.2068-.1137-.248-.0413-.2481-.0311-.1964-.0103-.2274v-.2171l.062-.1654.0724-.2274.1344-.2171.155-.2067.1137-.2067.1447-.1344.1241-.1654.0723-.1757.1034-.3411.0517.1757.0413.2998.0414.2687.0517.1137.0723.1654.0414.124.0723.1241.0414.093.093-.186.0827-.1861.093-.1344.1137-.1137.1757-.155.1344-.1344.1551-.062.2377-.1034.1137-.0827.0931-.1137.155-.124.031.0723.0104.1757.0103.2171-.0103.1344-.0207.1447-.0414.1551.0724.031.062-.0517v-.1551-.0827l.093-.155.1241-.0207.0723.0414c.0517.0413.1241.1033.1241.1033h.093l.0207-.0827.0207-.1033.0413-.0931.031-.0517.0827-.0103.0724-.0207.0827.0414.0723.062.0517.062.0724-.0517.0516-.0827.1861-.0103.0517.0517.0413.1034.031.1033-.0206.0827-.031.062-.0621.0414h-.093-.093l-.0517.0207v.093l.031.0517.031.0723v.0827l-.062.0827-.1137.031h-.0827-.1137l-.0724-.0206-.0516-.0414-.0517-.031c-.0517.031-.0724.031-.0724.031h-.0517l-.0723-.0413-.0724-.0207-.0413.0517c.0103.0517.0103.1137.0103.1137l-.0413.0827-.0621.0206v.0827l.0414.0621.0103.1137-.0103.0516-.1034.0517h-.1137-.0517-.0517l-.0516-.0517h-.0621l-.0827.0621-.0103.1033.0103.0621.0621.0516h.2687l.1757-.0516.1654-.0621.1654-.062.062-.0413-.1964.3721-.0827.2377-.1963.3411-.1861.3412-.2171.2584-.1654.1964-.2481.155-.2274.1034-.2067.0827-.2687.031-.2791.062-.1758.0414-.1033.0103.031.1034-.0104.093-.0206.1137-.031.062-.0621.0517.0414.0827.031.0724v.1033l-.1137.062-.074.0357h-.0872l-.036.041v.0718l.0154.0411.0257.0667.0424.0952.0207.0724.0827.0516.062-.0413.124-.093.1034-.0621.093-.0413.1241-.0414.062-.0206h.062v.1137.1964l-.031.2687-.0827.2068-.093.1653-.1034.1344-.1861.1447-.1343.0931-.0827.0827-.1137.031-.1241.0103-.0207.1034-.0206.124-.0104.062-.0517.0104-.0826.0207v.0826l.0413.0931v.0827l-.0413.0827-.0414.062v.1034l.0724.0516h.0723l.0414-.0827.062-.093.0723-.1137.0517-.1137.0414-.0827.0517-.062.062-.031.0413.062.0104.1137.0206.1447.031.0827.0207.1137.0724-.031.0207-.1137.031-.062.0516-.0207.0621.1137.093.1757.093.2998.0827.2791.0724.2791.0103.4341-.0517.2274-.1343.2895-.1861.3204-.2791.2894-.2481.1861-.186.1344-.1137.1137-.1964.0827.031.1137.1033.0517.0724.062.0413.0723.0104.0827-.0104.0827-.0723.062-.062.0414-.0724.0207-.0827.0206-.0207.0621v.0723l.1861.0517.0724.1137.0413.093-.031.0827-.0414.0517-.0826.1137v.1447l.6408.92 1.0957-1.3128.0724.0931.031.2584.0413.1964v.2067l.0414.5065-.031.2274-.0207.3928-.0517.3205-.1137.2067-.1757.1654-.1344.124-.155.1034-.0931.062.0197.0908.0513.0411.0052.0616v.0872l-.0052.0359-.0102.041-.0154.0308.0564.0359c.0205.0257.0411.0462.0411.0462l.0256.0616.0103.041v.077.0513l-.0103.0359-.0205.0257-.0103.0461.0462.0359s.0462.0103.0564.0462c.0103.0359.0206.0821.0206.0821v.0411.0461l-.0257.0308-.0308.0257-.0308.0308-.0205.041-.0102.0564.0307.0257.0565.0308.0102.041-.0051.1232-.0256.0307-.036.0206-.0359.0256-.0102.0616.0205.0256h.0564l.0308-.041.0462-.0308.0718-.041h.0359l.0411.0154.0359.0461.0102.0359.0565.0667c.0051.0257.041.077.041.077l.0103.0564.1231-.1744.1129-.1283.1129-.1436s.0821-.1283.0923-.1693c.0103-.0411.1745-.3746.1745-.3746l.082.3436.0517.3514.0413.1551.0414.2687-.0104.3101-.0103.2067.4961-.6305.1551-.2067.093-.1344.1137.1137.0104.2584.0517.2378.0413.3514-.031.2584-.1344.3618-.1447.1861-.1551.186-.1447.0931-.2274.093-.124.0827.0103.1137.0827.0827.1241.0103.1447.0207.062.1137.062.1447-.0517.093.0104.1034.1343-.0207h.1551l.093.1034.031.1344v.093l-.3477.1136-.338-.0715z" fill="#1f1a17"/><ellipse cx="89.9854" cy="78.4389" fill="#e77817" rx=".164784" ry=".149804"/><ellipse cx="89.6241" cy="78.222" fill="#e77817" rx=".164784" ry=".149804"/><ellipse cx="88.496" cy="76.4221" fill="#e77817" rx=".164784" ry=".149804"/><ellipse cx="88.7305" cy="76.0649" fill="#e77817" rx=".164784" ry=".149804"/><ellipse cx="88.3184" cy="76.0075" fill="#e77817" rx=".164784" ry=".149804"/><ellipse cx="88.426" cy="75.6567" fill="#e77817" rx=".164784" ry=".149804"/><ellipse cx="88.0963" cy="75.51" fill="#e77817" rx=".164784" ry=".149804"/><ellipse cx="87.7984" cy="75.3442" fill="#e77817" rx=".164784" ry=".149804"/><ellipse cx="88.4195" cy="75.2678" fill="#e77817" rx=".164784" ry=".149804"/><ellipse cx="88.0709" cy="75.0765" fill="#e77817" rx=".164784" ry=".149804"/><ellipse cx="88.3688" cy="74.8787" fill="#e77817" rx=".164784" ry=".149804"/><ellipse cx="88.2484" cy="74.496" fill="#e77817" rx=".164784" ry=".149804"/><ellipse cx="86.683" cy="71.7087" fill="#e77817" rx=".164784" ry=".149804"/><ellipse cx="87.697" cy="75.0066" fill="#e77817" rx=".164784" ry=".149804"/><ellipse cx="87.5829" cy="74.6814" fill="#e77817" rx=".164784" ry=".149804"/><ellipse cx="87.19" cy="71.428" fill="#e77817" rx=".164784" ry=".149804"/><ellipse cx="87.0252" cy="67.9549" fill="#e77817" rx=".164784" ry=".149804"/><ellipse cx="86.835" cy="67.6551" fill="#e77817" rx=".164784" ry=".149804"/><ellipse cx="87.1646" cy="67.5083" fill="#e77817" rx=".164784" ry=".149804"/><ellipse cx="87.1962" cy="67.0937" fill="#e77817" rx=".164784" ry=".149804"/><ellipse cx="86.8222" cy="66.8704" fill="#e77817" rx=".164784" ry=".149804"/><ellipse cx="87.7474" cy="64.7776" fill="#e77817" rx=".164784" ry=".149804"/><ellipse cx="87.3671" cy="64.6181" fill="#e77817" rx=".164784" ry=".149804"/><ellipse cx="87.4938" cy="64.2608" fill="#e77817" rx=".164784" ry=".149804"/><ellipse cx="87.8298" cy="64.4266" fill="#e77817" rx=".164784" ry=".149804"/><ellipse cx="89.925" cy="61.802" fill="#e77817" rx=".164784" ry=".149804"/><ellipse cx="90.8373" cy="61.2551" fill="#e77817" rx=".164784" ry=".149804"/><ellipse cx="90.0207" cy="61.4057" fill="#e77817" rx=".164784" ry=".149804"/><ellipse cx="90.1443" cy="61.0105" fill="#e77817" rx=".164784" ry=".149804"/><ellipse cx="90.4803" cy="61.1611" fill="#e77817" rx=".164784" ry=".149804"/><ellipse cx="90.695" cy="60.8113" fill="#e77817" rx=".164784" ry=".149804"/><ellipse cx="91.1978" cy="60.8559" fill="#e77817" rx=".164784" ry=".149804"/><ellipse cx="86.7904" cy="67.2659" fill="#e77817" rx=".164784" ry=".149804"/><ellipse cx="87.3101" cy="66.7556" fill="#e77817" rx=".164784" ry=".149804"/><ellipse cx="86.8223" cy="71.3387" fill="#e77817" rx=".164784" ry=".149804"/><ellipse cx="86.8857" cy="70.9877" fill="#e77817" rx=".164784" ry=".149804"/><ellipse cx="87.1772" cy="70.7644" fill="#e77817" rx=".164784" ry=".149804"/><ellipse cx="86.7144" cy="70.6878" fill="#e77817" rx=".164784" ry=".149804"/><ellipse cx="86.8601" cy="68.3043" fill="#e77817" rx=".164784" ry=".149804"/><ellipse cx="89.6559" cy="78.6814" fill="#e77817" rx=".164784" ry=".149804"/><ellipse cx="90.0425" cy="78.7962" fill="#e77817" rx=".164784" ry=".149804"/><ellipse cx="90.4291" cy="78.911" fill="#e77817" rx=".164784" ry=".149804"/><path d="m87.9622 60.9388-.3612.5031-.2581.3484-.129.2451-.0129.3871-.0129.4645.1419.3741.142.3097.1548.3096.0774-.3612-.0774-.1807-.1548-.1935-.0775-.1032.0775-.0387.0903.0645.1032.0774v-.4387l-.2193-.2838v-.1419l.2322.2193.0258-.4129-.0129-.129-.0516-.0903-.0516-.1161.0129-.1548.1161-.0129.0387.0774.0129.0645.129-.129v-.1549l.0129-.1806.0516-.1419.0387-.0774z" fill="#00923f"/><path d="m87.9106 63.5966-.0516-.5161.2581-.129v-.1807l-.2323.0258-.0387-.2838.1032-.0645.1033-.0645.0129-.1161-.1291-.0258v-.2065l.0258-.1548.142-.1548.0516-.129-.0774-.1291-.0258-.1548.2322.529.0645.4129v.5031l-.0258.2839-.1161.2064-.0903.1419z" fill="#00923f"/><path d="m88.2461 63.5837.2193-.1807.1419-.0645.1936-.1032.2451-.1419.2322-.1161.1162-.129.129-.1291.0645-.0774v-.1419l-.0258-.1161-.1419.1935-.142.2451-.3096.1807-.2193.1548-.1162.0645-.1806.0258-.1419.0645-.2193.3097z" fill="#00923f"/><path d="m88.6589 62.8999.1936-.2839.1677-.3225.1032-.2581.1419-.0774.1549-.129-.0903-.1032.0258-.1678.0645-.1806.0903-.3225.0645-.1807.0903-.1032.0129.2839v.2709l-.0774.1419-.0516.271v.1419.1161l-.0258.1419-.0645.142-.0645.1677-.1033.0774-.0903.1161-.0903.0774-.1806.0774-.0903.1162-.1032.0387-.142.0516z" fill="#00923f"/><path d="m88.5557 62.616-.0387-.258.0129-.2581.0516-.1806.0516-.1935.0387-.2065.1162-.1806.1419-.1419.1032-.1032.0645.1161v.2322.1549.1677.1032l-.0774.0774-.0258.0903c-.0645.0129-.1032.0129-.1032.0129l-.0387-.129-.0645-.0645-.0516.129.0129.129-.0129.142-.0387.258-.0388.129-.0774.1032z" fill="#00923f"/><path d="m89.2395 61.558.0775-.2967.129-.2838-.0774-.0646-.1162.0388v.0903l-.0258.1161v.1677z" fill="#00923f"/><path d="m88.0138 63.9062.1162-.0903.2193-.0516.0645-.1161.2064-.0645h.142.1032l.1806.0129h.1548l.1032-.0258.013-.1549-.1549-.0258-.1677.0129-.0516-.0774.129-.0258.1548-.0387.142-.0258.1032-.0258.0774-.0387.0774-.0129h.0774l.0387.1032-.1032.1419-.0903.0904-.0774.1032-.1936.1032-.2451.0903-.3354.129-.2452.0645-.2322.0774-.1936.0259-.0774-.0517v-.1032z" fill="#00923f"/><path d="m89.6782 62.887.1935-.1678.0904-.1161.1032-.0645.0774-.0903-.1161.0129-.1678.0774-.0645.0645-.0645-.0516-.0129-.0774v-.1419l.2064-.0258.142-.0258.1419-.0258h.1032l-.0516.1548-.0387.1032-.0516.1161-.0645.1161-.0516.0904-.0774.0645-.1033.0516h-.0645l-.0774-.0129s-.0258-.0645-.0516-.0516z" fill="#00923f"/><path d="m85.9495 65.6609.1032.0645.0903.0645.0646.0903.0387.0645-.0645.0775.0129.0774.129.0129c.0645.0258.1548.0774.1548.0774l.0645.0516.1161.1032.0903.0774.0258.1032-.1419-.0258-.1032-.0258-.129-.0774-.129-.0903-.142-.0774-.0516-.0645-.0774-.1032-.0387-.0904-.0258-.0645s.0387-.258.0129-.2451z" fill="#00923f"/><path d="m86.6849 65.906h-.129l-.1032-.1548-.0516-.129v-.1419c-.0645-.0387-.1677.0129-.2322-.0387-.0646-.0516-.1162-.1033-.1162-.1033l-.0516-.0774-.0387-.0774-.0258-.1032.129.0903.1678.0903.1032.0774.1806.0904.0516.1161.0903.0774.1032.0903.0388.0645c.0645 0 .129.0387.129.0387l.0129.1807v.1161.1032l.0903.1548.0903.129-.1161.0258-.0645-.1032-.0387-.1032-.0516-.1032c-.0258-.0903-.0387-.1032-.0516-.1806-.0129-.0775-.0517-.1162-.0517-.1162z" fill="#00923f"/><path d="m87.4074 66.3447-.0129-.2064.0129-.0903.0646-.0775.0903-.0516.0387.0646v.1161l-.0516.1161-.0258.0774-.0387.0774z" fill="#00923f"/><path d="m87.859 66.2028.0129-.1032.1161-.1936.1291-.0774.1161-.0903-.0129.2452-.0903.129-.0904.1032-.0903.0903-.0645.0387z" fill="#00923f"/><path d="m87.2655 65.777v-.1161l-.0387-.1161-.0645-.0903-.0774.0774-.0387.1032.0129.1032.0258.1032-.0129.1161.0516.1162.0129.1419.0516.0903.0774.0774.0129-.129-.0258-.1548-.0129-.0774-.0774-.0517v-.0903l.0645-.0387z" fill="#00923f"/><path d="m87.4978 65.7641-.0258-.1032v-.129l.1806-.0645.0774.0774.0516.0645v.129l-.1161.0387z" fill="#00923f"/><path d="m87.9364 65.7383v-.1548l.0516-.0903.0646-.0516.0774-.0258.0903-.0516-.0129.1548-.0516.0903-.0516.1032-.0516.0774c-.0646.0903-.1033.1161-.1033.1161l-.0645.0516-.0645.0517h-.0645v-.0775z" fill="#00923f"/><path d="m86.7365 70.125-.1935-.1161-.1935-.129-.0903-.0516-.0774-.0129h-.0646l-.1161-.0516-.0903-.0517.0645-.1032.0387-.0645-.0516-.0774h-.3096l-.0903-.129-.0775-.1032-.0516-.142-.0516-.1161-.1032-.1806c.0774-.0516.2064.0129.2064.0129l.1162.1161.129.1161.0903.0904.0645.0516.1032.0774.129-.0387-.0645-.142c.0774-.0516.1549.0258.1549.0258l.0258.0904.0645.1548.0258.1161.0129.1032.0903.0774c.0645.0387.1161.0774.1161.0774l.0258-.258-.0516-.2967-.3225-.3871-.2581-.1161-.2064-.1548-.1806-.1033-.1291-.0903-.1548-.1032-.1419-.0774-.1161-.0645.0645.1677.0129.2322.0129.3097.0645.1419.0774.2452.0645.1419.0903.1548.1032.2064.1549.142.2838.129.271.129.2193.1032.2451.0258.1291.0516z" fill="#00923f"/><path d="m87.2655 70.0863.0903-.1161.0775-.2323.0258-.0645.1548-.0645.0903-.0516s.1032-.0129.1032-.1032 0-.1935 0-.1935v-.0903l.1419-.1033c.0645-.1161.0774-.129.0774-.129l.0388-.129.0258-.1548s-.0129-.0387 0-.1032c.0129-.0646.0516-.1678.0516-.1678v-.1032l-.0129-.1419.0387-.0903v-.1032l.0645-.0387.0516.129.0387.1548.0258.1548v.1678l.0129.0774v.1677l-.0387.1806-.0774.1548-.0516.2323-.1032.1677-.0775.1032-.129.1161-.1935.1162-.1161.1032-.1032.1032-.0904.0645z" fill="#00923f"/><path d="m87.1752 69.5057-.0774-.258v-.1032l.0774-.0904.0903-.0516s.0387 0 .0774-.0774.1549-.1032.1549-.1032l.0258-.1419h-.1678c-.0516-.0774-.0387-.1419-.0387-.1419l.1291-.0517.129-.0774.0387-.1161c.0387-.0645.0645-.1161.0645-.1161v-.0903l-.0774-.0774-.0129-.0774s.0129-.0516.0387-.1162c.0258-.0645.0516-.0903.0516-.0903l.1032.0258.0387.1678v.3096.1161.2065.2064l-.1548.1677-.0903.129-.0903.1291-.1033.1548-.0774.1161-.0774.1032z" fill="#00923f"/><path d="m86.8269 69.9702-.0904-.1548v-.1549l.1807.0387v.2065z" fill="#00923f"/><path d="m86.8527 69.3638c0 .0129-.0129-.0258-.0387-.1032s-.0258-.2194-.0258-.2194l.0129-.0774.0774.1548.0387.1291v.1161s-.0645-.0129-.0645 0z" fill="#00923f"/><path d="m86.9301 68.7316-.0258-.1419.0903-.0774.0774-.0646v.0904.1677l-.0129.1032s-.1419-.0645-.129-.0774z" fill="#00923f"/><path d="m87.2526 68.1897-.0387-.258.1161-.0645.0774-.0517.013.0775v.1677l.0258.1161v.1161l-.1033.0774-.1032.0129s0-.1677.0129-.1935z" fill="#00923f"/><path d="m88.0655 72.8989v-.1677l.0903-.2193.1161-.1677.1419-.0904.1419-.0903s.0645-.1032.1032-.1806c.0388-.0774.0904-.129.0904-.129l.1419-.1032c.0645.0387.0129.2322.0129.2322l-.0903.1161-.0129.1548-.0387.1678-.0516.1419-.0904-.0516-.0516.0774-.0645.0774-.0129.1935-.0258.0904-.0258.1161h-.0903l-.1161-.0258-.0903.0774z" fill="#00923f"/><path d="m88.0784 74.1504c-.0258.0517 0-.1161.0645-.1935s.0516-.1032.129-.1419.2064-.1548.2064-.1548l.0645-.2065.1032-.0516.0904-.0645.1548-.0903-.129-.0645s-.1549 0-.0516-.1161c.1032-.1161.2322-.1419.2322-.1419l-.0129-.1291-.0645-.1548s.0903-.0903.0903-.1548-.0129-.2452-.0129-.2452l.0645-.0387.0387.4774v.4387c0 .0645-.0258.2967-.0258.2967l-.2709.2968-.3097.2322-.1419.1548s-.1935 0-.2193.0516z" fill="#00923f"/><path d="m87.2913 74.344-.2709-.0258-.3613-.1419-.2193-.1678-.2451-.2838-.1162-.2581-.1548-.3096-.1032-.2968s-.1032-.0645-.0129-.0645.3096.0903.3096.0903l.2323.0646.1419.1032.1419.129.0645.1032.0904.0645.0516.1548-.0646-.0903s-.0387-.0258-.1161-.0387-.2193-.0645-.2193-.0645l-.1032-.1032-.1548-.0903-.0904-.129-.0774-.0258.0774.2451.1162.1935.0903.1032.0774.1033.0645.0516.0903.0516.0774.0387.0774.0387-.0258.1032-.0258.1032c.1032.0129.1549-.0129.1549-.0129l.2322-.0387.0516.0645.0645.0774.0774.0645.0645.0775.0774.0774z" fill="#00923f"/><path d="m87.5494 74.1633-.1936-.1935-.0645-.2064-.1419-.0774-.0774-.2323-.0129-.2322v-.1935-.1549-.1032l.1806.142.0903.2193.0516.1161-.0645.0387-.0774-.0258-.0258.0903.0645.1032.1161.0258.0646.0904.0645.258.0516.129.0258.129z" fill="#00923f"/><path d="m87.6655 73.4537-.129-.2709.1032-.1419.1677-.1678.0774.1291v.2451l-.0258.1548-.0516.0903-.0258.1291-.0645.1032z" fill="#00923f"/><path d="m87.5236 72.9377-.0516-.2323s0-.0774-.0129-.1935-.0387-.2452-.0387-.2452l-.0646-.1161.0775.0258.1548.1549.0645.1419.0129.1161.0129.1548v.0774s-.1548.1033-.1548.1162z" fill="#00923f"/><path d="m88.0267 73.7634-.0129-.2323c.0388-.1032.0646-.1419.0646-.1419l.1806.0129.0903.0129.0387.1032-.0387.0646s-.0129-.0387-.0774 0-.0645.0903-.0645.0903l-.0516.0903-.0516.0774-.1033.0774-.1032.1032-.0387-.0774.0387-.1032z" fill="#00923f"/><path d="m88.2848 77.1566-.2322-.0774-.0775-.1161-.1032-.0645-.0516-.0774.271.0258.1419.1032.0903.0516z" fill="#00923f"/><path d="m88.8138 77.4792-.1549-.0903s-.0387.0258-.0645-.0646c-.0258-.0903-.0516-.1419-.0516-.1419l.1936-.0258.0387.1807s.0129.1677.0387.1419z" fill="#00923f"/><path d="m89.1363 77.9049s-.0774-.1032-.1677-.129-.1935-.0645-.1935-.0645l-.1291-.0387h-.129l-.0774-.0258v-.1161-.0903s-.0129-.0516-.1032-.0516-.1161-.0129-.1161-.0129l-.1419-.0775-.0646-.0645s0-.0258-.0645-.0774-.0258-.0516-.1032-.0774-.1806-.129-.1806-.129l.0903.1935.0645.0903.1161.1162.0129.129.0774.1032.0388.0774.1419.1032.1548.0645s.0516.0516.1419.0516.2194.0387.2194.0387l.1806.0258.1935.0259h.1032z" fill="#00923f"/><path d="m89.8072 77.8404.2581-.129.129-.129.1419-.1419.0903-.1936.0516-.129.0516-.1677v-.1161l-.0774.0258-.129.0387-.0387.0645.0774.0903v.0774l-.1032.0258-.0774.0129s.0129 0-.0258.0645-.0387.0645-.0387.0645l.0258.0646.0516.0774-.0774.0516s-.0645-.0645-.1419 0c-.0775.0645-.1033.1032-.1033.1032l-.0774.1032-.0774.0516-.0387.0903z" fill="#00923f"/><path d="m89.3428 77.3243.0774-.1806.1161-.1548.0387-.0903.0516-.1935s-.0258-.0259.0129-.1549.0387-.1677.0387-.1677v-.2193l-.0129-.1291v-.1548l-.0516-.0903-.2193.1419.0774.0645.0645.0645.0258.1162-.0258.0903-.0645.1161-.0258.0774-.0129.0903.129.0903-.0258.1162-.0903.0645c-.0516.0774-.0903.1548-.0903.1548l-.0129.129v.0903z" fill="#00923f"/><path d="m89.7556 77.3631-.1032-.1936.0258-.1677.0645-.1161.0516.129.0129.1419.0129.1419z" fill="#00923f"/><path d="m89.1492 77.3889-.1032-.0904-.0258-.1419-.0129-.129v-.1935s0-.0903 0-.1678c0-.0774.0258-.1935.0258-.1935s.0387-.0516.0645-.1161.0645-.1806.0645-.1806l.0645-.1032.0516-.1162.0517.0774v.1033l-.0388.0774-.0774.0516-.0387.0903-.0258.1419.0129.0774-.0129.0774-.0387.1033.0516.0774s.0129.0516.0129.1161-.0258.0903-.0258.0903l-.0258.1032.0516.1032c.0387.1291-.0258.142-.0258.142z" fill="#00923f"/><path d="m90.0524 76.9631-.0903-.0774-.0517-.1419.142-.1033.0258-.0774.0903.0516.0129.1549.0129.0903v.0903l-.0387.0774-.0645.0387z" fill="#00923f"/><path d="m90.2588 76.4986v-.1677l.1935-.129.0129.1161-.0516.1161-.0645.1419s-.0774-.0774-.0903-.0774z" fill="#00923f"/><path d="m90.4781 76.7051.0516-.1549.0129-.0903.0646.1032-.0129.1161-.0388.1162z" fill="#00923f"/><path d="m89.5234 77.6985-.0774-.1677.0258-.1032.1032.0258.0645.1935-.0129.1161z" fill="#00923f"/><path d="m89.3944 77.7888-.0774-.0903-.1033-.0774-.0645-.0258-.0645.0774.0774.0903.0645.0645.1291.0387z" fill="#00923f"/><path d="m87.1365 73.8666-.1677-.0903-.1419-.0903-.1162-.0645-.0903-.1033.1161.0129.1936.0517.2064.0774s0 .2193 0 .2064z" fill="#00923f"/><path d="m110.669 79.0388.2218-.0601.1726-.0406.1034-.0212.0669-.1107-.0213.0252.009-.0085.01.0262-.0044.0094-.0008-.0114-.0115.0081.0199-.001-.0123-.0076.0024-.0037.0194-.0193-.0262.009-.0131-.009.0102.0181.0086.0206-.0207-.093v-.1344-.1033l-.0413-.0517.0413-.0724.0724-.0827.0414-.1033v-.0621l.6202-.0206.2894-.0827.2791-.1137.2481-.2998.217-.3308.2895-.6409.0413-.248-.3928.2067-.5375.124-.2688.1448-.248.1447-.0207-.3308v-.2274l-.0414-.1654.0931-.062.0517.031v.155l.031.0931.0413.062.093.0207.0931-.0207.093-.062.062-.0931-.0206-.155v-.0724l.093-.0206.0827-.0621.0103-.1137-.0103-.093-.0414-.093-.0103-.0931.124-.0206h.0931l.1033-.0517.0931-.0207.1137-.0413.0827-.1137-.0104-.1241v-.0827l.062-.062.0414-.1034v-.0723-.093l.0207-.0827.0516-.0311.0414-.093-.0207-.062.0104-.1447.1137-.0104.2274-.031.2481-.0413.217-.1137.1861-.1034.124-.1447.1241-.1447.1033-.1964.1861-.3204.0827-.2171.0723-.2378.1137-.2791.0621-.2067-.0104-.0517-.2274.0931-.3721.2274-.3101.1137-.2067.062-.2068.0723v-.1137l-.0517-.248-.0516-.2171-.0621-.1861-.0413-.1654-.0414-.155-.0516-.1241-.0414-.0826.0517-.0517.1137-.0414.1034-.0206v.1447.1033l.062.0724.093.0413h.1137.0827l.0827-.0413.0517-.062.031-.0621v-.0826-.0931l-.031-.0517-.031-.0516-.0517-.0414-.062-.0413-.0207-.1551-.031-.0827v-.062-.124l.031-.0827.062-.0621.0517-.1137v-.0723l-.0207-.0724-.0516-.0723-.0517-.0414-.0104-.093.2171-.0724.3101-.062.2067-.093.2481-.093.2171-.2481.1964-.3101.1034-.1964.1447-.2584.062-.2895.0724-.2067.0413-.1964.031-.2067.0517-.2068.0207-.1654v-.1343l.0103-.0724-.2584.2067-.1654.1344-.1447.1034-.1757.124-.1654.0827-.1034.062-.1654.0724-.124.0723-.1344.0931-.124.0723-.0931.0724-.0723.0724-.1137.1137-.0931.124-.0516.062v-.1654l.031-.1654v-.124l-.0517-.093-.0207-.1034.0414-.0517.0103-.0517v-.062l-.0414-.0827-.0723-.1033v-.0724-.0724l.0413-.0516.0724-.0414.031-.0723.0207-.0724v-.062l-.031-.0517-.0517-.031-.0104-.1137.0724-.0414c.0413-.0723.0517-.1447.0517-.1447l.0103-.062-.0207-.0517-.0516-.062c-.0414-.0517-.0517-.0414-.0517-.093 0-.0517.031-.0724.031-.0724l.0413-.0517c0-.0517.031-.031-.0206-.0723-.0517-.0414-.0724-.0724-.0724-.0724l.0827-.0207.2171-.0723.1033-.062.1034-.0724.093-.0827.0931-.093.0723-.1034.0827-.1034.031-.124.031-.124.0207-.1241-.031-1.1577-.1137.1551-.093.1757-.0827.1137-.1137.124-.1137.1034-.1654.124-.1241.1241-.0827.0827-.1343.0517-.0724.062-.0517-.0931-.0413-.1343-.0827-.1551-.0724-.062-.093-.062-.1551-.0724-.093-.0517-.0413-.124.031-.093c.031-.0517.124-.0207.124-.0207l.0827.031.093-.0103.0827-.0517.0414-.0724v-.1033l-.0104-.0621-.0516-.0827-.0827-.0723-.0517-.0104-.0517-.0827v-.1033l-.0724-.1137-.093-.0724-.031-.0723.1137-.1654.1241-.1964.0826-.2068.1137-.248.0414-.2481.031-.1964.0103-.2274v-.2171l-.062-.1654-.0723-.2274-.1344-.2171-.1551-.2067-.1137-.2067-.1447-.1344-.124-.1654-.0724-.1757-.1033-.3411-.0517.1757-.0414.2998-.0413.2687-.0517.1137-.0724.1654-.0413.124-.0724.1241-.0413.093-.093-.186-.0827-.1861-.0931-.1344-.1137-.1137-.1757-.155-.1344-.1344-.155-.062-.2378-.1034-.1137-.0827-.093-.1137-.1551-.124-.031.0723-.0103.1757-.0103.2171.0103.1344.0207.1447.0413.1551-.0723.031-.0621-.0517v-.1551-.0827l-.093-.155-.124-.0207-.0724.0414c-.0517.0413-.124.1033-.124.1033h-.0931l-.0206-.0827-.0207-.1033-.0414-.0931-.031-.0517-.0827-.0103-.0723-.0207-.0827.0414-.0724.062-.0516.062-.0724-.0517-.0517-.0827-.1861-.0103-.0516.0517-.0414.1034-.031.1033.0207.0827.031.062.062.0414h.093.0931l.0517.0207v.093l-.0311.0517-.031.0723v.0827l.0621.0827.1137.031h.0827.1137l.0723-.0206.0517-.0414.0517-.031c.0517.031.0723.031.0723.031h.0517l.0724-.0413.0723-.0207.0414.0517c-.0104.0517-.0104.1137-.0104.1137l.0414.0827.062.0206v.0827l-.0413.0621-.0104.1137.0104.0516.1033.0517h.1137.0517.0517l.0517-.0517h.062l.0827.0621.0103.1033-.0103.0621-.062.0516h-.2688l-.1757-.0516-.1654-.0621-.1654-.062-.062-.0413.1964.3721.0827.2377.1964.3411.1861.3412.217.2584.1654.1964.2481.155.2274.1034.2067.0827.2688.031.2791.062.1757.0414.1034.0103-.031.1034.0103.093.0207.1137.031.062.062.0517-.0413.0827-.031.0724v.1033l.1137.062.074.0357h.0872l.0359.041v.0718l-.0154.0411-.0256.0667-.0424.0952-.0207.0724-.0827.0516-.062-.0413-.1241-.093-.1033-.0621-.0931-.0413-.124-.0414-.062-.0206h-.062v.1137.1964l.031.2687.0827.2068.093.1653.1034.1344.186.1447.1344.0931.0827.0827.1137.031.124.0103.0207.1034.0207.124.0103.062.0517.0104.0827.0207v.0826l-.0414.0931v.0827l.0414.0827.0413.062v.1034l-.0723.0516h-.0724l-.0413-.0827-.062-.093-.0724-.1137-.0517-.1137-.0413-.0827-.0517-.062-.062-.031-.0414.062-.0103.1137-.0207.1447-.031.0827-.0207.1137-.0723-.031-.0207-.1137-.031-.062-.0517-.0207-.062.1137-.093.1757-.0931.2998-.0827.2791-.0723.2791-.0104.4341.0517.2274.1344.2895.1861.3204.279.2894.2481.1861.1861.1344.1137.1137.1964.0827-.031.1137-.1034.0517-.0723.062-.0414.0723-.0103.0827.0103.0827.0724.062.062.0414.0723.0207.0827.0206.0207.0621v.0723l-.186.0517-.0724.1137-.0414.093.0311.0827.0413.0517.0827.1137v.1447l-.6409.92-1.0957-1.3128-.0723.0931-.031.2584-.0414.1964v.2067l-.0413.5065.031.2274.0207.3928.0516.3205.1137.2067.1758.1654.1343.124.1551.1034.093.062-.0197.0908-.0513.0411-.0051.0616v.0872l.0051.0359.0103.041.0154.0308-.0565.0359c-.0205.0257-.041.0462-.041.0462l-.0257.0616-.0102.041v.077.0513l.0102.0359.0206.0257.0102.0461-.0462.0359s-.0461.0103-.0564.0462c-.0102.0359-.0205.0821-.0205.0821v.0411.0461l.0256.0308.0308.0257.0308.0308.0205.041.0103.0564-.0308.0257-.0564.0308-.0103.041.0051.1232.0257.0307.0359.0206.0359.0256.0103.0616-.0205.0256h-.0565l-.0308-.041-.0461-.0308-.0719-.041h-.0359l-.041.0154-.0359.0461-.0103.0359-.0564.0667c-.0052.0257-.0411.077-.0411.077l-.0102.0564-.1232-.1744-.1128-.1283-.1129-.1436s-.0821-.1283-.0924-.1693c-.0102-.0411-.1744-.3746-.1744-.3746l-.082.3436-.0517.3514-.0414.1551-.0413.2687.0103.3101.0104.2067-.4962-.6305-.155-.2067-.0931-.1344-.1137.1137-.0103.2584-.0517.2378-.0414.3514.0311.2584.1343.3618.1448.1861.155.186.1447.0931.2274.093.1241.0827-.0104.1137-.0827.0827-.124.0103-.1447.0207-.062.1137-.0621.1447.0517.093-.0103.1034-.1344-.0207h-.155l-.0931.1034-.031.1344v.093l.3478.1136.338-.0715z" fill="#1f1a17"/><ellipse cx="110.652" cy="78.4389" fill="#e77817" rx=".164784" ry=".149804"/><ellipse cx="111.013" cy="78.222" fill="#e77817" rx=".164784" ry=".149804"/><ellipse cx="112.141" cy="76.4221" fill="#e77817" rx=".164784" ry=".149804"/><ellipse cx="111.907" cy="76.0649" fill="#e77817" rx=".164784" ry=".149804"/><ellipse cx="112.319" cy="76.0075" fill="#e77817" rx=".164784" ry=".149804"/><ellipse cx="112.211" cy="75.6567" fill="#e77817" rx=".164784" ry=".149804"/><ellipse cx="112.541" cy="75.51" fill="#e77817" rx=".164784" ry=".149804"/><ellipse cx="112.839" cy="75.3442" fill="#e77817" rx=".164784" ry=".149804"/><ellipse cx="112.218" cy="75.2678" fill="#e77817" rx=".164784" ry=".149804"/><ellipse cx="112.566" cy="75.0765" fill="#e77817" rx=".164784" ry=".149804"/><ellipse cx="112.268" cy="74.8787" fill="#e77817" rx=".164784" ry=".149804"/><ellipse cx="112.389" cy="74.496" fill="#e77817" rx=".164784" ry=".149804"/><ellipse cx="113.954" cy="71.7087" fill="#e77817" rx=".164784" ry=".149804"/><ellipse cx="112.94" cy="75.0066" fill="#e77817" rx=".164784" ry=".149804"/><ellipse cx="113.054" cy="74.6814" fill="#e77817" rx=".164784" ry=".149804"/><ellipse cx="113.447" cy="71.428" fill="#e77817" rx=".164784" ry=".149804"/><ellipse cx="113.612" cy="67.9549" fill="#e77817" rx=".164784" ry=".149804"/><ellipse cx="113.802" cy="67.6551" fill="#e77817" rx=".164784" ry=".149804"/><ellipse cx="113.473" cy="67.5083" fill="#e77817" rx=".164784" ry=".149804"/><ellipse cx="113.441" cy="67.0937" fill="#e77817" rx=".164784" ry=".149804"/><ellipse cx="113.815" cy="66.8704" fill="#e77817" rx=".164784" ry=".149804"/><ellipse cx="112.89" cy="64.7776" fill="#e77817" rx=".164784" ry=".149804"/><ellipse cx="113.27" cy="64.6181" fill="#e77817" rx=".164784" ry=".149804"/><ellipse cx="113.143" cy="64.2608" fill="#e77817" rx=".164784" ry=".149804"/><ellipse cx="112.807" cy="64.4266" fill="#e77817" rx=".164784" ry=".149804"/><ellipse cx="110.712" cy="61.802" fill="#e77817" rx=".164784" ry=".149804"/><ellipse cx="109.8" cy="61.2551" fill="#e77817" rx=".164784" ry=".149804"/><ellipse cx="110.617" cy="61.4057" fill="#e77817" rx=".164784" ry=".149804"/><ellipse cx="110.493" cy="61.0105" fill="#e77817" rx=".164784" ry=".149804"/><ellipse cx="110.157" cy="61.1611" fill="#e77817" rx=".164784" ry=".149804"/><ellipse cx="109.942" cy="60.8113" fill="#e77817" rx=".164784" ry=".149804"/><ellipse cx="109.439" cy="60.8559" fill="#e77817" rx=".164784" ry=".149804"/><ellipse cx="113.847" cy="67.2659" fill="#e77817" rx=".164784" ry=".149804"/><ellipse cx="113.327" cy="66.7556" fill="#e77817" rx=".164784" ry=".149804"/><ellipse cx="113.815" cy="71.3387" fill="#e77817" rx=".164784" ry=".149804"/><ellipse cx="113.752" cy="70.9877" fill="#e77817" rx=".164784" ry=".149804"/><ellipse cx="113.46" cy="70.7644" fill="#e77817" rx=".164784" ry=".149804"/><ellipse cx="113.923" cy="70.6878" fill="#e77817" rx=".164784" ry=".149804"/><ellipse cx="113.777" cy="68.3043" fill="#e77817" rx=".164784" ry=".149804"/><ellipse cx="110.981" cy="78.6814" fill="#e77817" rx=".164784" ry=".149804"/><ellipse cx="110.595" cy="78.7962" fill="#e77817" rx=".164784" ry=".149804"/><ellipse cx="110.208" cy="78.911" fill="#e77817" rx=".164784" ry=".149804"/><path d="m112.675 60.9388.361.5031.258.3484.129.2451.013.3871.013.4645-.142.3741-.142.3097-.154.3096-.078-.3612.078-.1807.154-.1935.078-.1032-.078-.0387-.09.0645-.103.0774v-.4387l.219-.2838v-.1419l-.232.2193-.026-.4129.013-.129.052-.0903.051-.1161-.013-.1548-.116-.0129-.039.0774-.012.0645-.129-.129v-.1549l-.013-.1806-.052-.1419-.039-.0774z" fill="#00923f"/><path d="m112.727 63.5966.051-.5161-.258-.129v-.1807l.232.0258.039-.2838-.103-.0645-.103-.0645-.013-.1161.129-.0258v-.2065l-.026-.1548-.142-.1548-.051-.129.077-.1291.026-.1548-.232.529-.065.4129v.5031l.026.2839.116.2064.09.1419z" fill="#00923f"/><path d="m112.391 63.5837-.219-.1807-.142-.0645-.194-.1032-.245-.1419-.232-.1161-.116-.129-.129-.1291-.065-.0774v-.1419l.026-.1161.142.1935.142.2451.31.1807.219.1548.116.0645.181.0258.142.0645.219.3097z" fill="#00923f"/><path d="m111.978 62.8999-.193-.2839-.168-.3225-.103-.2581-.142-.0774-.155-.129.09-.1032-.025-.1678-.065-.1806-.09-.3225-.065-.1807-.09-.1032-.013.2839v.2709l.078.1419.051.271v.1419.1161l.026.1419.064.142.065.1677.103.0774.09.1161.091.0774.18.0774.091.1162.103.0387.142.0516z" fill="#00923f"/><path d="m112.082 62.616.0387-.258-.0129-.2581-.0516-.1806-.0516-.1935-.0387-.2065-.1161-.1806-.1419-.1419-.1033-.1032-.0645.1161v.2322.1549.1677.1032l.0774.0774.0258.0903c.0646.0129.1033.0129.1033.0129l.0387-.129.0645-.0645.0516.129-.0129.129.0129.142.0387.258.0387.129.0774.1032z" fill="#00923f"/><path d="m111.398 61.558-.078-.2967-.129-.2838.078-.0646.116.0388v.0903l.026.1161v.1677z" fill="#00923f"/><path d="m112.623 63.9062-.116-.0903-.219-.0516-.065-.1161-.206-.0645h-.142-.103l-.181.0129h-.155l-.103-.0258-.013-.1549.155-.0258.168.0129.052-.0774-.13-.0258-.154-.0387-.142-.0258-.104-.0258-.077-.0387-.077-.0129h-.078l-.039.1032.104.1419.09.0904.077.1032.194.1032.245.0903.336.129.245.0645.232.0774.194.0259.077-.0517v-.1032z" fill="#00923f"/><path d="m110.959 62.887-.1935-.1678-.0903-.1161-.1032-.0645-.0774-.0903.1161.0129.1677.0774.0645.0645.0645-.0516.0129-.0774v-.1419l-.2064-.0258-.1419-.0258-.1419-.0258h-.1033l.0516.1548.0388.1032.0516.1161.0645.1161.0516.0904.0774.0645.1032.0516h.0645l.0774-.0129s.0258-.0645.0516-.0516z" fill="#00923f"/><path d="m114.688 65.6609-.1032.0645-.0903.0645-.0645.0903-.0387.0645.0645.0775-.0129.0774-.129.0129c-.0645.0258-.1549.0774-.1549.0774l-.0645.0516-.1161.1032-.0903.0774-.0258.1032.1419-.0258.1032-.0258.1291-.0774.129-.0903.1419-.0774.0516-.0645.0774-.1032.0387-.0904.0258-.0645s-.0387-.258-.0129-.2451z" fill="#00923f"/><path d="m113.952 65.906h.129l.1033-.1548.0516-.129v-.1419c.0645-.0387.1677.0129.2322-.0387s.1161-.1033.1161-.1033l.0516-.0774.0387-.0774.0258-.1032-.129.0903-.1677.0903-.1032.0774-.1807.0904-.0516.1161-.0903.0774-.1032.0903-.0387.0645c-.0645 0-.129.0387-.129.0387l-.0129.1807v.1161.1032l-.0903.1548-.0904.129.1162.0258.0645-.1032.0387-.1032.0516-.1032c.0258-.0903.0387-.1032.0516-.1806.0129-.0775.0516-.1162.0516-.1162z" fill="#00923f"/><path d="m113.23 66.3447.013-.2064-.013-.0903-.065-.0775-.09-.0516-.039.0646v.1161l.052.1161.026.0774.038.0774z" fill="#00923f"/><path d="m112.778 66.2028-.013-.1032-.116-.1936-.129-.0774-.116-.0903.013.2452.09.129.091.1032.09.0903.064.0387z" fill="#00923f"/><path d="m113.372 65.777v-.1161l.038-.1161.065-.0903.077.0774.039.1032-.013.1032-.026.1032.013.1161-.051.1162-.013.1419-.052.0903-.077.0774-.013-.129.026-.1548.013-.0774.077-.0517v-.0903l-.065-.0387z" fill="#00923f"/><path d="m113.14 65.7641.025-.1032v-.129l-.18-.0645-.078.0774-.051.0645v.129l.116.0387z" fill="#00923f"/><path d="m112.701 65.7383v-.1548l-.0516-.0903-.0645-.0516-.0774-.0258-.0903-.0516.0129.1548.0516.0903.0516.1032.0516.0774c.0645.0903.1032.1161.1032.1161l.0645.0516.0645.0517h.0645v-.0775z" fill="#00923f"/><path d="m113.901 70.125.1935-.1161.1936-.129.0903-.0516.0774-.0129h.0645l.1161-.0516.0903-.0517-.0645-.1032-.0387-.0645.0516-.0774h.3097l.0903-.129.0774-.1032.0516-.142.0516-.1161.1032-.1806c-.0774-.0516-.2064.0129-.2064.0129l-.1161.1161-.129.1161-.0903.0904-.0646.0516-.1032.0774-.129-.0387.0645-.142c-.0774-.0516-.1548.0258-.1548.0258l-.0258.0904-.0645.1548-.0258.1161-.0129.1032-.0903.0774c-.0646.0387-.1162.0774-.1162.0774l-.0258-.258.0516-.2967.3226-.3871.258-.1161.2065-.1548.1806-.1033.129-.0903.1548-.1032.142-.0774.1161-.0645-.0645.1677-.0129.2322-.0129.3097-.0645.1419-.0775.2452-.0645.1419-.0903.1548-.1032.2064-.1548.142-.2839.129-.2709.129-.2193.1032-.2452.0258-.129.0516z" fill="#00923f"/><path d="m113.372 70.0863-.0903-.1161-.0774-.2323-.0258-.0645-.1548-.0645-.0903-.0516s-.1033-.0129-.1033-.1032 0-.1935 0-.1935v-.0903l-.1419-.1033c-.0645-.1161-.0774-.129-.0774-.129l-.0387-.129-.0258-.1548s.0129-.0387 0-.1032c-.0129-.0646-.0516-.1678-.0516-.1678v-.1032l.0129-.1419-.0387-.0903v-.1032l-.0645-.0387-.0516.129-.0387.1548-.0258.1548v.1678l-.013.0774v.1677l.0388.1806.0774.1548.0516.2323.1032.1677.0774.1032.129.1161.1936.1162.1161.1032.1032.1032.0903.0645z" fill="#00923f"/><path d="m113.462 69.5057.0774-.258v-.1032l-.0774-.0904-.0903-.0516s-.0387 0-.0774-.0774-.1548-.1032-.1548-.1032l-.0258-.1419h.1677c.0516-.0774.0387-.1419.0387-.1419l-.129-.0517-.129-.0774-.0387-.1161c-.0387-.0645-.0645-.1161-.0645-.1161v-.0903l.0774-.0774.0129-.0774s-.0129-.0516-.0387-.1162c-.0258-.0645-.0516-.0903-.0516-.0903l-.1033.0258-.0387.1678v.3096.1161.2065.2064l.1549.1677.0903.129.0903.1291.1032.1548.0774.1161.0774.1032z" fill="#00923f"/><path d="m113.81 69.9702.091-.1548v-.1549l-.181.0387v.2065z" fill="#00923f"/><path d="m113.785 69.3638c0 .0129.0129-.0258.0387-.1032s.0258-.2194.0258-.2194l-.0129-.0774-.0774.1548-.0387.1291v.1161s.0645-.0129.0645 0z" fill="#00923f"/><path d="m113.707 68.7316.0258-.1419-.0903-.0774-.0774-.0646v.0904.1677l.0129.1032s.1419-.0645.129-.0774z" fill="#00923f"/><path d="m113.385 68.1897.0387-.258-.1161-.0645-.0774-.0517-.0129.0775v.1677l-.0258.1161v.1161l.1032.0774.1032.0129s0-.1677-.0129-.1935z" fill="#00923f"/><path d="m112.572 72.8989v-.1677l-.0903-.2193-.1161-.1677-.142-.0904-.1419-.0903s-.0645-.1032-.1032-.1806-.0903-.129-.0903-.129l-.1419-.1032c-.0645.0387-.0129.2322-.0129.2322l.0903.1161.0129.1548.0387.1678.0516.1419.0903-.0516.0516.0774.0645.0774.0129.1935.0258.0904.0258.1161h.0904l.1161-.0258.0903.0774z" fill="#00923f"/><path d="m112.559 74.1504c.0258.0517 0-.1161-.0645-.1935s-.0516-.1032-.129-.1419-.2065-.1548-.2065-.1548l-.0645-.2065-.1032-.0516-.0903-.0645-.1548-.0903.129-.0645s.1548 0 .0516-.1161-.2322-.1419-.2322-.1419l.0129-.1291.0645-.1548s-.0903-.0903-.0903-.1548.0129-.2452.0129-.2452l-.0646-.0387-.0387.4774v.4387c0 .0645.0258.2967.0258.2967l.271.2968.3096.2322.142.1548s.1935 0 .2193.0516z" fill="#00923f"/><path d="m113.346 74.344.271-.0258.3612-.1419.2194-.1678.2451-.2838.1161-.2581.1548-.3096.1033-.2968s.1032-.0645.0129-.0645c-.0904 0-.3097.0903-.3097.0903l-.2322.0646-.142.1032-.1419.129-.0645.1032-.0903.0645-.0516.1548.0645-.0903s.0387-.0258.1161-.0387.2194-.0645.2194-.0645l.1032-.1032.1548-.0903.0903-.129.0774-.0258-.0774.2451-.1161.1935-.0903.1032-.0774.1033-.0645.0516-.0904.0516-.0774.0387-.0774.0387.0258.1032.0258.1032c-.1032.0129-.1548-.0129-.1548-.0129l-.2322-.0387-.0516.0645-.0646.0774-.0774.0645-.0645.0775-.0774.0774z" fill="#00923f"/><path d="m113.088 74.1633.193-.1935.065-.2064.142-.0774.077-.2323.013-.2322v-.1935-.1549-.1032l-.18.142-.091.2193-.051.1161.064.0387.078-.0258.025.0903-.064.1032-.116.0258-.065.0904-.064.258-.052.129-.026.129z" fill="#00923f"/><path d="m112.972 73.4537.129-.2709-.103-.1419-.168-.1678-.078.1291v.2451l.026.1548.052.0903.026.1291.064.1032z" fill="#00923f"/><path d="m113.114 72.9377.0516-.2323s0-.0774.0129-.1935.0387-.2452.0387-.2452l.0645-.1161-.0774.0258-.1548.1549-.0645.1419-.0129.1161-.0129.1548v.0774s.1548.1033.1548.1162z" fill="#00923f"/><path d="m112.611 73.7634.0129-.2323c-.0387-.1032-.0645-.1419-.0645-.1419l-.1806.0129-.0903.0129-.0388.1032.0388.0646s.0129-.0387.0774 0 .0645.0903.0645.0903l.0516.0903.0516.0774.1032.0774.1032.1032.0387-.0774-.0387-.1032z" fill="#00923f"/><path d="m112.353 77.1566.232-.0774.077-.1161.103-.0645.052-.0774-.271.0258-.142.1032-.09.0516z" fill="#00923f"/><path d="m111.824 77.4792.1548-.0903s.0387.0258.0645-.0646c.0258-.0903.0516-.1419.0516-.1419l-.1935-.0258-.0387.1807s-.0129.1677-.0387.1419z" fill="#00923f"/><path d="m111.501 77.9049s.0774-.1032.1678-.129c.0903-.0258.1935-.0645.1935-.0645l.129-.0387h.129l.0774-.0258v-.1161-.0903s.0129-.0516.1033-.0516c.0903 0 .1161-.0129.1161-.0129l.1419-.0775.0645-.0645s0-.0258.0645-.0774.0258-.0516.1032-.0774.1807-.129.1807-.129l-.0904.1935-.0645.0903-.1161.1162-.0129.129-.0774.1032-.0387.0774-.1419.1032-.1549.0645s-.0516.0516-.1419.0516-.2193.0387-.2193.0387l-.1806.0258-.1936.0259h-.1032z" fill="#00923f"/><path d="m110.83 77.8404-.258-.129-.129-.129-.142-.1419-.0903-.1936-.0516-.129-.0516-.1677v-.1161l.0774.0258.129.0387.0387.0645-.0774.0903v.0774l.1032.0258.0775.0129s-.0129 0 .0258.0645.0387.0645.0387.0645l-.0258.0646-.0516.0774.0774.0516s.0645-.0645.1419 0 .1032.1032.1032.1032l.0774.1032.0774.0516.0387.0903z" fill="#00923f"/><path d="m111.295 77.3243-.0774-.1806-.1161-.1548-.0387-.0903-.0517-.1935s.0259-.0259-.0129-.1549c-.0387-.129-.0387-.1677-.0387-.1677v-.2193l.0129-.1291v-.1548l.0517-.0903.2193.1419-.0774.0645-.0645.0645-.0258.1162.0258.0903.0645.1161.0258.0774.0129.0903-.129.0903.0258.1162.0903.0645c.0516.0774.0903.1548.0903.1548l.0129.129v.0903z" fill="#00923f"/><path d="m110.882 77.3631.103-.1936-.026-.1677-.065-.1161-.051.129-.013.1419-.013.1419z" fill="#00923f"/><path d="m111.488 77.3889.1032-.0904.0258-.1419.0129-.129v-.1935s0-.0903 0-.1678c0-.0774-.0258-.1935-.0258-.1935s-.0387-.0516-.0645-.1161-.0645-.1806-.0645-.1806l-.0645-.1032-.0516-.1162-.0516.0774v.1033l.0387.0774.0774.0516.0387.0903.0258.1419-.0129.0774.0129.0774.0387.1033-.0516.0774s-.0129.0516-.0129.1161.0258.0903.0258.0903l.0258.1032-.0516.1032c-.0387.1291.0258.142.0258.142z" fill="#00923f"/><path d="m110.585 76.9631.09-.0774.052-.1419-.142-.1033-.026-.0774-.09.0516-.013.1549-.013.0903v.0903l.039.0774.064.0387z" fill="#00923f"/><path d="m110.378 76.4986v-.1677l-.1935-.129-.0129.1161.0516.1161.0645.1419s.0774-.0774.0903-.0774z" fill="#00923f"/><path d="m110.159 76.7051-.051-.1549-.013-.0903-.065.1032.013.1161.039.1162z" fill="#00923f"/><path d="m111.114 77.6985.077-.1677-.026-.1032-.103.0258-.064.1935.013.1161z" fill="#00923f"/><path d="m111.243 77.7888.077-.0903.104-.0774.064-.0258.064.0774-.077.0903-.064.0645-.129.0387z" fill="#00923f"/><path d="m113.501 73.8666.1678-.0903.1419-.0903.1161-.0645.0903-.1033-.1161.0129-.1935.0517-.2065.0774s0 .2193 0 .2064z" fill="#00923f"/><path d="m82.2799 82.8703.5855-.1171.688-.1171.7026-.0732 1.0831-.0439.2489.0292.3952.5416.0439.3806.0585.2781.1757.2635.2927.2488.3513.1171h.7026l.6148-.0878.805-.0878.7026-.1757.688-.2634.644-.2489.6587-.2488.4392-.1318.2634.044 2.3859.9075-.2927.2049-.8344.3513-.9514.3513-.7026.2049-.6733.1171-.6001.0732-.8636.0439-1.376.0439h-1.3027l-1.2588-.0585-.9953-.0732-1.0539-.0439-.9661-.0293.3659-.5855.2635-.2342.4538-.4391.0731-.1025-.2488-.1024-.4391-.2342-.483-.2781-.205-.1903-.2342-.1171z" fill="#125c82"/><path d="m107.921 83.5114.989.2789 1.065.3042 1.039.2789.888.1268.583-.1268.481-.3042.482-.3042.406-.355.253-.4056.102-.3042.988-.0253.761.0507.837.0507.481.1521.431.1014-1.445.8619.887 1.1155-.177.1521-.862.1014-1.369.1014-1.445.1014-1.876.1014-1.242-.0253-1.065-.0761-1.141-.2028-1.039-.3296-.837-.3295-.507-.2282z" fill="#125c82"/><path d="m86.3728 79.3232.9586-.2324.9283-.0195.8692-.0289.5794.0144.7968.087.7388.1159 1.1154.2607.9272.2753 1.0285.3042.9127.3042.8981.3187.8982.2463.9271.1883 1.0286.1304.9851.0289 1.0722.0145 1.086-.0869.826-.1304.985-.1883 1-.2752.883-.3043.783-.2462.695-.2318 1.029-.3042.767-.1159.985-.1739.899-.1014.898-.1159.666-.0869.594-.0289.275.2607.348.3622.333.507.188.507.073.5505-.015.536-.058.3332-.057.3622-.334-.1449-.912-.029-1.087.1159-.71.1449-.521.0869-.927.2028-.956.2608-.957.2752-.912.3187-.971.3622-.695.2318-.609.1883-1.593.4056-1.42.1304-.666.0579-.666.0145h-.4062l-.6519-.0579-1.043-.1449-.9706-.1593-.8547-.2173-.6084-.1739-.6229-.1883-.6085-.2318-1.1879-.4346-.7822-.2897-.6519-.1883-.5795-.1739-.7243-.1593-.7823-.0869-.565-.0145h-.4925l-.6084.0724-.6085.0869-.4056.1014-.5215.1449-.3911.1738-.4201-.5505-.087-.6663-.0144-.6664v-.2753l.0724-.3331.0869-.2608.1738-.3187.2029-.3911z" fill="#125c82"/><path d="m97.0083 86.2518.6036-.1358.6489-.1811.5734-.2263.3018-.166.2867-.1358.2415-.1962h.2263l-.0905.2113-.1358.2112-.2415.1962-.513.3169-.664.3923-.4527.2264-.4829.2112-.3471.1208-.181.015.0452-.1358.1207-.2414.1057-.166-.0453-.1811z" fill="#00923f"/><path d="m100.57 85.286.241.3169.407.3773.544.3772.573.3471.468.2867.317.1811.151.0604-.015-.1509-.091-.1057-.03-.1509-.045-.1961.03-.1811-.574-.2113-.528-.2263-.392-.166-.287-.1811-.241-.1884-.166-.1436-.073-.1187-.295.0076z" fill="#00923f"/><path d="m90.7342 80.2335-.255 1.2436-.3436-.0705.167-.8147c-.0641.0307-.125.0538-.1824.0693-.0572.0156-.1275.0273-.211.0351l.0572-.2787c.1235-.0135.2223-.0398.297-.0788.0745-.0393.1379-.0937.1897-.1629zm.4537.7039c-.0477-.0392-.0799-.079-.0972-.119-.0235-.0547-.029-.1131-.0163-.1754.021-.1022.0863-.1761.1958-.2215.0851-.0345.1896-.0392.3132-.0139.1634.0335.2777.0893.3432.1677.0652.0783.0882.1646.0688.2591-.0113.055-.0372.1034-.0783.1448-.0307.0308-.0744.0577-.1313.0807.0597.0455.1004.0974.1222.1565.022.0588.0264.1199.0134.1834-.0126.0612-.0383.1156-.0773.1627-.0391.0475-.0819.0814-.1285.1018-.047.0206-.1023.0316-.1657.0325-.0637.0012-.1301-.0053-.1993-.0195-.1295-.0265-.2252-.0618-.2875-.1066-.0621-.0445-.1046-.1004-.128-.1672-.0234-.0665-.0277-.1368-.0126-.2102.0147-.0718.0439-.129.0874-.172.0435-.0429.103-.0708.178-.0839zm.2018-.2087c-.0086.0421-.0025.0789.0186.1103.0212.031.0536.0513.0977.0603.0387.008.0735.0018.1038-.0187s.0496-.051.058-.0917c.0086-.0421.0026-.0792-.0183-.1108-.0207-.0319-.0513-.052-.092-.0604-.041-.0084-.0773-.0022-.1085.0184-.0311.0203-.0508.0513-.0593.0926zm-.1261.5223c-.0111.0541-.0039.1015.0219.1424.026.041.0598.0657.1022.0744.0404.0083.0804-.0016.12-.0297.0393-.0281.0645-.0689.0755-.1225.011-.0538.0036-.1012-.0218-.1424-.0253-.0413-.0594-.0662-.1024-.075-.0421-.0086-.0825.0003-.1208.0275-.0381.0269-.063.0687-.0746.1253z" fill="#fff" fill-rule="nonzero"/><path d="m92.9053 80.9322.5394.1936c.1062.0381.1868.0834.2422.1357.0549.0524.0943.1131.1176.1824.0232.0695.0317.1432.0253.2218-.0065.0785-.0241.1578-.0529.2379-.0451.1255-.0942.2178-.1478.2767-.0533.059-.1137.1028-.1813.131-.0674.0286-.133.0402-.1969.0349-.0872-.0072-.1632-.0225-.2278-.0456l-.5394-.1936zm.2675.3964-.2303.6417.0889.0319c.076.0273.1328.0384.1709.0329.038-.0051.0738-.0257.1071-.0609.0331-.0354.0666-.1003.1004-.1943.0446-.1245.0549-.2168.0309-.2773-.0243-.0606-.0833-.1078-.1774-.1415zm1.0036.0598.9726.3491-.09.2508-.6088-.2185-.0671.1868.5648.2027-.086.2396-.5648-.2027-.083.2314.6266.2249-.0955.2661-.9905-.3554z" fill="#fff" fill-rule="nonzero"/><path d="m104.293 82.0697.476-.1637c.0937-.0322.1733-.0435.2388-.0342.0654.0097.124.0353.1758.0772.0519.0422.0957.0966.1317.1637.0358.0671.0641.1413.0852.2229.0331.1279.0461.2313.039.3105-.0069.0791-.0266.1502-.0593.2129-.0324.063-.0722.1113-.1195.1449-.0647.0458-.1256.0786-.1826.0982l-.476.1638zm.3904.1608.1688.6534.0785-.027c.0671-.0231.1125-.0478.1362-.0748.0239-.0267.0383-.0644.0435-.1126.0049-.0481-.005-.1202-.0298-.2159-.0327-.1268-.073-.2072-.1208-.2417-.0481-.0345-.1135-.0374-.1965-.0089zm.7314-.5466.8584-.2953.066.2554-.5374.1849.0492.1902.4985-.1715.063.244-.4985.1714.0609.2356.5531-.1902.07.271-.8741.3006z" fill="#fff" fill-rule="nonzero"/><path d="m107.411 80.9509.0545 1.3215-.322.0387-.0357-.8659c-.0502.0511-.0991.0935-.1468.1271-.0474.0337-.1074.0677-.18.102l-.0122-.2963c.107-.0526.189-.1102.2468-.1728.0575-.0628.1016-.1372.1321-.2226zm.4.9139.3146-.0831c.0106.0492.0259.0829.0468.1011.0206.0185.0453.0259.0738.0224.051-.0061.0898-.0402.1159-.1021.0191-.0457.031-.139.0357-.2797-.0363.0491-.074.0861-.1131.1118-.0395.0254-.0855.0413-.138.0476-.1027.0124-.1909-.0184-.265-.0928-.0741-.0741-.1136-.1746-.1189-.301-.0035-.0862.0111-.167.0442-.2421.0331-.0755.0802-.135.142-.1789.0615-.0439.1399-.0715.2352-.083.1147-.0137.2077-.0024.2789.0337.0709.0362.1294.1006.1747.1928.0454.0921.0715.2181.0781.3776.0096.2345-.0268.4115-.1093.5312-.0824.1193-.2007.1883-.3553.2069-.0909.0109-.1635.0078-.217-.0098-.0535-.0179-.099-.0474-.1356-.0895-.0368-.0418-.0662-.096-.0877-.1631zm.5622-.6501c-.0029-.0702-.0206-.1234-.0537-.1595-.0329-.0362-.0716-.0516-.1164-.0462-.0425.0051-.0766.0274-.1029.0668-.0265.0393-.0382.0951-.0352.1671.003.0726.0197.1266.0501.1616.0307.0349.0675.0496.1107.0444.0448-.0054.0814-.0283.1095-.0694.028-.0407.0408-.0955.0379-.1648zm.7542-.2345-.3034-.0249c.0206-.1116.0651-.2009.134-.2672.0689-.0664.1683-.1075.2984-.1232.1497-.018.2591.0005.3284.0557s.1059.1308.1098.2264c.0024.0563-.0091.1087-.0342.1573-.0253.049-.0645.0938-.1178.1346.0448.0071.0793.0175.1034.031.039.0221.0701.0537.0929.0947.0229.0407.0358.0912.0383.1517.0031.0756-.0116.15-.0434.2238-.0321.0735-.0803.1331-.1444.1785-.0641.0453-.1495.0745-.2565.0873-.104.0126-.1868.0085-.2482-.0118-.0614-.0206-.1125-.0554-.1536-.104-.0409-.0489-.0736-.1125-.0977-.1911l.316-.086c.0156.0711.0371.1193.0647.1443.0273.0246.0615.0348.102.0299.0427-.0051.0778-.0272.1046-.066s.0392-.0881.0368-.1471c-.0025-.0602-.0183-.1051-.0469-.1351-.0288-.0297-.0666-.0418-.1135-.0362-.0248.003-.059.0144-.1022.0336l.0057-.2598c.018.0009.0317.0008.0416-.0004.0418-.0051.0759-.0243.1026-.058.0265-.0332.039-.0709.0373-.1121-.0017-.0396-.0134-.0701-.0352-.0912s-.0508-.0295-.0874-.0251c-.0376.0046-.0675.0212-.0899.0494-.0224.0286-.0363.0756-.0422.141zm.9875-.0019c-.0514-.0239-.0891-.0534-.1136-.0879-.0333-.0471-.0514-.1036-.0541-.1698-.0045-.1086.0369-.203.1242-.2831.068-.0614.16-.0992.2758-.1131.1532-.0184.2677.0009.3437.0584.0759.0575.1158.1362.12.2367.0024.0584-.0097.1149-.037.1692-.0203.0405-.0532.0812-.0987.1223.0636.0264.1115.0653.1443.1173.0329.0517.0507.1113.0534.1787.0027.0651-.0078.1275-.0319.1869-.0241.0597-.0546.1072-.0915.1424-.0371.0354-.0839.0638-.1402.0849-.0565.0214-.117.0359-.1819.0437-.1213.0146-.2146.0097-.2802-.0152-.0654-.0247-.1159-.067-.1519-.1262-.0359-.0589-.0557-.1276-.0589-.2057-.0031-.0763.01-.1426.039-.1993s.0756-.1033.1395-.1402zm.1325-.2722c.0018.0447.0156.0796.0416.1041.0259.0243.0593.0342.1007.0293.0362-.0044.0658-.0216.0882-.0517.0223-.03.0326-.0665.0309-.1098-.0019-.0448-.0157-.0799-.0414-.1048-.0257-.0252-.0575-.0357-.0956-.0311-.0385.0046-.0694.0224-.0925.0528-.0232.0302-.0337.0673-.0319.1112zm.006.5611c.0024.0575.0195.1026.0517.1352.0325.0326.0681.0465.1079.0417.0379-.0045.0713-.0271.1002-.0677.0286-.0405.0419-.0892.0395-.1461-.0023-.0572-.0198-.1022-.0517-.1352-.0319-.0332-.0679-.0471-.1082-.0422-.0394.0047-.0734.0264-.1013.0656-.0279.0389-.0406.0885-.0381.1487z" fill="#fff" fill-rule="nonzero"/><path d="m96.6909 82.2861.3476.0092-.0149.6628c-.0031.139-.017.2445-.0413.3166-.0244.0721-.0712.1325-.1411.1812-.0699.0484-.1583.0713-.2655.0685-.1135-.003-.2009-.0218-.2624-.0569-.0617-.0349-.1087-.0847-.141-.1497-.0325-.0648-.0509-.1445-.0548-.2389l.3326-.0403c-.0007.0536.0028.0938.0104.1201.0075.0263.0209.0477.0398.0641.0131.0111.0318.0167.0564.0174.0387.001.0675-.0139.0865-.0446.0188-.031.0291-.0836.0308-.1576z" fill="#fff" fill-rule="nonzero"/><path d="m97.8415 83.4652-.3696-.0105-.055.1998-.3314-.0094.42-1.2078.3536.01.3692 1.2302-.3395-.0096zm-.0624-.2656-.1069-.4415-.1246.4349z" fill="#fff" fill-rule="nonzero"/><path d="m98.3989 82.5434.3174.009.3992.7181.0148-.7064.3202.0091-.0268 1.2768-.3202-.0091-.3972-.7126-.0147.701-.3195-.0091z" fill="#fff" fill-rule="nonzero"/><path d="m99.5615 82.5419.9105-.0084.005.2726-.5703.0053.0033.2031.529-.0049.004.2604-.5286.0049.0041.2515.5865-.0054.005.2893-.9273.0086z" fill="#fff" fill-rule="nonzero"/><path d="m100.716 82.5744.341-.0032.021 1.277-.34.0031z" fill="#fff" fill-rule="nonzero"/><path d="m101.283 83.7537-.0211-1.2769.5665-.0053c.105-.0009.1855.0087.2412.0293.0559.0203.1014.0586.1364.115.035.0562.053.125.0543.2062.0012.0711-.0108.1321-.0358.1838-.0253.0516-.0605.0936-.1053.1262-.0288.0204-.0683.0377-.1185.0513.0407.0154.0704.0309.0894.0464.0125.0104.031.0325.0554.0664.0244.0343.0407.0603.049.079l.1705.3686-.3841.0036-.1881-.3887c-.0239-.0501-.0449-.0829-.0633-.0979-.0247-.0194-.0527-.0289-.0837-.0286l-.03.0002.0086.5183zm.3288-.7628.1434-.0013c.0154-.0001.0453-.0061.0896-.0181.0225-.0055.0407-.0191.0547-.0406.0137-.0216.0205-.0463.02-.0742-.0007-.0414-.0125-.0728-.0354-.0946-.0229-.0221-.0653-.0327-.1273-.0321l-.1493.0014z" fill="#fff" fill-rule="nonzero"/><path d="m102.378 83.0186c-.0032-.2084.0411-.3712.1325-.4881.0916-.1171.2207-.1764.3871-.1781.1708-.0017.3033.0541.3976.1674.0939.1129.1427.2724.1459.4779.0023.1492-.0161.2719-.055.3678-.0389.0958-.096.1707-.1714.2247-.0756.054-.1701.0813-.284.0825-.1156.0011-.2118-.0208-.2884-.0658-.0764-.0454-.139-.1173-.1878-.2162-.0486-.0988-.0742-.2228-.0765-.3721zm.3173-.0013c.002.129.0225.2213.0619.2774.0393.0558.0922.0835.1584.0828.0681-.0006.1205-.0288.1569-.0842.0364-.0556.0537-.1548.0515-.2975-.0018-.1205-.0228-.2079-.0626-.2632-.0398-.0549-.093-.082-.1599-.0813-.0637.0006-.1147.029-.1525.0859-.0378.0566-.0557.1502-.0537.2801z" fill="#fff" fill-rule="nonzero"/><path d="m98.5529 64.0901-.1982.1415-.0419-.0611.11-.1332-.1601.0603-.042-.0612.1982-.1414.026.0378-.156.1114.1836-.0712.027.0393-.1286.1513.156-.1114zm-.3708-.1198-.0237-.0436.1146-.0647c.0181-.0103.0297-.0176.0345-.0216.0076-.0068.0122-.0152.0136-.0251.0014-.01-.0012-.0211-.0078-.0332-.0067-.0124-.0143-.0204-.0226-.0238-.0083-.0035-.0165-.0038-.0244-.001s-.0202.0089-.037.0184l-.1171.0661-.0236-.0435.1111-.0628c.0254-.0144.044-.0234.0557-.027.0119-.0035.023-.0042.0337-.0019.0106.0023.021.0075.031.0156.0101.0082.0197.0208.029.0379.0112.0206.0173.0375.0185.0508.0011.0133-.0004.0251-.0045.0355s-.0097.0189-.0168.0255c-.0106.0097-.0277.0212-.0514.0346zm.0934-.3389-.2258.0884-.0171-.0452.1154-.1533-.1509.059-.0163-.0432.2259-.0884.0176.0467-.1124.1505.1473-.0577zm-.0853-.2293-.2301.0762-.0151-.0474.2301-.0762zm-.1544-.2251.0039-.0504c.0274.0012.0492.0087.0655.0225s.0274.0336.0332.0594c.0073.0319.0025.0607-.0142.0863-.0168.0255-.0437.0427-.0807.0514-.0393.0093-.0721.0061-.0985-.0095-.0264-.0155-.0434-.0401-.051-.0738-.0066-.0294-.0036-.0553.0093-.0776.0076-.0134.0202-.0249.0379-.0349l.0221.0455c-.0116.0056-.0199.0138-.0249.0246-.0051.0107-.0061.0225-.0032.0353.0041.0178.0136.0309.0286.039.0151.0081.0367.0088.0648.0022.0298-.007.0498-.0174.0599-.0314.0102-.0139.0133-.0296.0093-.047-.0029-.0129-.0093-.0231-.0195-.0304-.0102-.0075-.0244-.0112-.0425-.0112zm.073-.1099-.2382.0428-.0085-.049.2383-.0428zm-.2509.0509-.0525-.0142-.0091-.0522.0565.0369zm.2322-.1459-.2413.0173-.0055-.0797c-.002-.0302-.0022-.05-.0005-.0593.0027-.0144.0098-.0268.0213-.0372s.0268-.0162.0459-.0176c.0149-.001.0276.0008.038.0056.0105.0048.0189.0112.0253.0192.0063.0081.0107.0164.0131.0249.0032.0117.0056.0288.0071.0513l.0022.0324.091-.0065zm-.2039-.0353.0685-.0049-.0019-.0271c-.0013-.0196-.0035-.0327-.0064-.0391-.003-.0064-.0073-.0112-.013-.0146-.0056-.0034-.012-.0048-.0191-.0043-.0088.0006-.0159.0038-.0212.0094-.0054.0057-.0085.0126-.0094.0207-.0007.0061-.0004.018.0009.0359zm.1907-.194-.2419.0043-.0009-.0497.2419-.0043zm-.1248-.0984c-.0246-.0022-.0449-.0078-.0609-.0167-.0117-.0067-.0221-.0153-.0311-.0259-.0089-.0105-.0152-.0217-.0189-.0336-.0051-.0159-.0067-.0339-.005-.0539.0031-.0362.0166-.0641.0405-.0839.0239-.0197.0555-.0279.0947-.0244.0389.0034.0684.017.0885.0405s.0287.0533.0256.0894c-.0032.0365-.0166.0646-.0403.0842-.0237.0197-.0548.0277-.0931.0243zm.0028-.0513c.0272.0025.0485-.0021.0637-.0137s.0236-.0272.0253-.0471c.0016-.0197-.0039-.0365-.0168-.0505-.0129-.0139-.0333-.0221-.0613-.0246-.0276-.0025-.0487.0019-.0634.0129-.0146.0112-.0228.027-.0246.0474-.0018.0205.0037.0376.0165.0513.0126.0137.0328.0219.0606.0243zm-.0816-.3688.0217-.0883c.0048-.0199.0099-.0347.0155-.0444.0075-.013.0176-.0232.0305-.0305.0128-.0074.0273-.0119.0436-.0133s.0354.0007.0574.0063c.0193.0049.0354.0116.0482.02.0156.0104.0273.0224.0352.0362.0059.0104.0094.0234.0104.0388.0007.0114-.0011.0261-.0055.044l-.0222.0909zm.0516-.0382.1554.0395.0089-.036c.0032-.0136.0049-.0235.0048-.0299.0001-.0083-.0016-.0156-.0049-.022-.0033-.0063-.0099-.0124-.0196-.0184-.0097-.0059-.0237-.0112-.0418-.0158-.0182-.0046-.0324-.0065-.0429-.0057-.0106.0008-.0193.0035-.0262.0079-.0069.0045-.0124.0111-.0165.0196-.0031.0063-.0071.0194-.0119.0391zm.2434-.1429-.2287-.0803.0584-.1728.0387.0136-.0425.1258.0507.0178.0395-.1171.0386.0136-.0396.117.0623.0218.044-.1302.0385.0135zm.1075-.4869.0355-.0354c.0199.0192.0315.0394.0349.0608.0034.0212-.001.0436-.0131.067-.0151.0289-.0372.0475-.0663.0556-.0291.008-.0605.003-.0941-.0152-.0355-.0193-.0582-.0436-.0682-.073-.0098-.0293-.0069-.0593.009-.0898.0139-.0266.033-.0441.0571-.0523.0143-.0051.0312-.0053.051-.001l-.0126.0491c-.0124-.0035-.0239-.0028-.0346.0018-.0107.0047-.0191.0129-.0252.0246-.0084.0161-.0095.0324-.0034.0485.0061.0162.0219.0312.0474.0451.027.0146.0488.0201.0654.0164.0167-.0037.0291-.0135.0373-.0293.0061-.0117.0078-.0237.0048-.0361-.0028-.0124-.0112-.0246-.0249-.0368zm.0152-.1037c-.02-.0147-.0346-.0301-.0437-.0462-.0068-.0119-.0113-.0247-.0136-.0385-.0024-.0137-.0021-.0266.0007-.0388.0037-.0163.0114-.0325.023-.0487.0209-.0295.0466-.0463.0771-.0507s.0616.0051.0935.0287c.0316.0235.05.0505.0554.0813.0053.0307-.0024.0607-.0232.09-.0212.0296-.0469.0467-.0771.051-.0303.0044-.061-.005-.0921-.0281zm.0283-.0424c.0221.0164.0426.0236.0615.0217.0189-.002.034-.011.0454-.0271.0115-.016.0152-.0334.0112-.0521s-.0173-.0364-.04-.0533c-.0225-.0166-.0427-.024-.061-.0221-.0181.0018-.0332.0111-.045.0276-.0118.0167-.0157.0342-.0118.0527.004.0183.0171.0359.0397.0526zm.2273-.1099-.1826-.1618.0675-.0791c.0169-.0199.0309-.0329.0418-.039.011-.0061.023-.0082.036-.0062.0131.0021.0249.0078.0357.0174.0137.0122.0215.0263.0234.0424.002.0161-.0029.0334-.0145.0518.0116-.004.0224-.0062.0325-.0065.0101-.0004.026.0012.0479.0048l.055.0089-.0383.0449-.0629-.0081c-.0225-.0029-.037-.0042-.0438-.0039-.0067.0002-.0124.0018-.0172.0045-.0047.0028-.0108.0085-.0182.0171l-.0065.0076.0762.0676zm-.0734-.131.0237-.0278c.0154-.018.0243-.0299.0266-.0358.0024-.0057.0028-.0115.0013-.0173-.0016-.0058-.005-.0111-.0104-.0159-.0062-.0055-.0126-.0082-.0192-.0082s-.013.0025-.0193.0078c-.0029.0026-.011.0116-.024.0269l-.025.0293zm.2384-.0569-.165-.1804.0348-.033.1826.0516-.1101-.1204.0332-.0316.1649.1804-.0359.034-.1789-.0498.1077.1176zm.181-.1668-.149-.1944.1413-.1125.0253.0328-.1029.082.033.043.0957-.0762.0251.0327-.0957.0763.0405.0529.1065-.0849.0252.0328zm-.1086-.2444-.0125-.054.041-.0326-.0055.0682zm.2893.108-.1272-.2074.0414-.0264.1056.1722.103-.0656.0216.0353zm.1746-.1035-.1098-.2197.0435-.0226.1098.2197zm.0307-.16c-.0088-.0235-.0128-.0445-.0119-.0631.0008-.0137.0038-.027.0092-.0398s.0125-.0235.0213-.0322c.0118-.0116.0269-.0209.0454-.0281.0332-.0131.0637-.013.0917.0003.0279.0132.0489.0386.063.076.014.0373.015.0702.0031.0989-.012.0287-.0345.0496-.0676.0626-.0336.0132-.0643.0132-.0919 0-.0277-.0131-.0485-.038-.0623-.0746zm.0464-.0199c.0099.026.0232.0435.0401.0523s.0344.0096.0526.0025c.0181-.0071.0306-.0195.0372-.0375.0066-.0179.0049-.0402-.0052-.0669-.0099-.0264-.023-.0438-.0392-.0524-.0162-.0085-.0338-.0092-.0525-.0018-.0189.0074-.0315.0199-.0381.0375-.0065.0177-.0049.0397.0051.0663zm.3433.0023-.0544-.2402.0763-.018c.0289-.0068.0481-.01.0575-.0097.0143.0004.0274.0056.0392.0155.0119.01.02.0245.0243.0436.0033.0147.0035.0278.0005.039-.003.0113-.0078.0208-.0146.0285-.0068.0076-.0142.0134-.0221.0171-.0109.005-.0271.0101-.0487.0151l-.0309.0073.0205.0907zm.0024-.2108.0154.0682.026-.0061c.0188-.0044.0311-.0086.0368-.0126.0058-.004.0098-.0091.0122-.0153s.0027-.0129.0012-.02c-.002-.0087-.0062-.0154-.0125-.0198-.0063-.0045-.0135-.0066-.0215-.0062-.006.0002-.0176.0024-.0346.0064zm.2168.1583-.0294-.2447.102-.0129c.0257-.0031.0446-.0033.0568-.0004.0121.003.0224.0096.0307.0199.0084.0105.0134.0229.0151.0373.0022.0184-.0012.0343-.0104.0475-.0091.0134-.0241.0229-.0448.0286.0113.005.0208.0107.0285.0173s.0185.0187.0324.0363l.0351.0441-.058.0073-.0415-.049c-.0148-.0174-.0247-.0283-.0299-.0327s-.0104-.0072-.0158-.0084c-.0054-.0011-.0136-.0011-.0247.0003l-.0099.0013.0123.1021zm.0315-.1474.0359-.0044c.0232-.003.0377-.0058.0432-.0085s.0097-.0067.0124-.012c.0026-.0054.0035-.0116.0027-.019-.001-.0083-.004-.0146-.0089-.0191-.0049-.0046-.0114-.007-.0194-.0074-.004 0-.0159.0012-.0355.0036l-.0378.0048zm.1973-.0061c-.0005-.0251.0029-.0462.0099-.0634.0053-.0126.0126-.024.022-.0342s.0196-.0177.0309-.0227c.0149-.0069.0322-.0104.052-.0107.0356-.0006.0643.0101.0861.0323.0217.0221.033.0533.0337.0934.0007.0399-.0094.0711-.0303.094-.0208.0228-.049.0346-.0845.0352-.036.0007-.0648-.01-.0864-.032s-.0328-.0526-.0334-.0919zm.0502-.0024c.0005.0278.0073.0489.0201.0631.0129.0142.0291.0211.0486.0207.0194-.0004.0353-.0077.0476-.0223.0122-.0145.0181-.0361.0176-.0647-.0005-.0282-.0069-.0491-.0193-.0629-.0124-.0137-.0287-.0204-.0488-.02-.0202.0003-.0363.0077-.0484.022-.012.0143-.0178.0356-.0174.0641zm.3852.0433.0462.0187c-.0091.0264-.0225.0454-.0402.0572s-.0396.0169-.0655.015c-.032-.0023-.0576-.0153-.0767-.0391s-.0273-.055-.0247-.0937c.0028-.041.0154-.072.0376-.0932.0224-.0211.0504-.0306.0842-.0281.0295.002.0529.0126.0702.0318.0102.0113.0174.0269.0216.047l-.0492.0084c-.0018-.0131-.0072-.0235-.0157-.0316-.0086-.008-.0193-.0125-.0322-.0134-.0179-.0013-.033.0042-.0449.0165-.0121.0123-.0191.0332-.0211.0624-.0021.0312.0018.0537.0119.0677s.0239.0216.0414.0228c.013.001.0244-.0024.0343-.0102.01-.0077.0176-.0204.0228-.0382zm.1002-.0203c.0055-.0245.0137-.0442.0246-.0591.0082-.0109.018-.0202.0295-.0278.0115-.0075.0232-.0123.0353-.0144.0161-.003.0338-.0021.053.0025.0348.0081.06.0256.0759.0525s.0194.0599.0106.099c-.0088.0388-.0261.0667-.0517.0837-.0257.017-.0558.0215-.0904.0134-.035-.0082-.0605-.0258-.0763-.0524-.0157-.0267-.0192-.0592-.0105-.0974zm.0493.01c-.0061.0272-.0046.0492.0045.0662s.0232.0276.0422.032c.0189.0045.0361.0013.0515-.0099.0153-.011.0261-.0305.0324-.0583.0062-.0276.0049-.0495-.0038-.0659-.0088-.0163-.023-.0268-.0426-.0314s-.037-.0014-.0521.0094c-.0151.0109-.0258.0301-.0321.0579zm.0664-.1253.0333-.0438.0506.0119-.0553.0386zm.1226.2969.0747-.2345.0745.0246c.0282.0094.0463.0167.0541.0219.0121.0079.0207.0192.0259.0339.0051.0148.0047.0314-.0013.0501-.0045.0144-.0109.0257-.0192.0337-.0083.0081-.0172.0137-.027.0167-.0096.003-.0188.004-.0275.0031-.0118-.0014-.0283-.0055-.0493-.0125l-.0303-.0101-.0282.0885zm.1085-.1795-.0212.0665.0254.0085c.0183.006.0309.0089.0379.0085s.013-.0027.0182-.0068c.0051-.004.0088-.0095.0111-.0164.0026-.0085.0024-.0164-.0007-.0236s-.0083-.0127-.0153-.0166c-.0053-.0029-.0162-.0071-.033-.0126zm.1049.2561.0867-.2303.0455.0178-.0866.2303zm.1329-.0758c.0112-.0224.0239-.0395.038-.0512.0105-.0087.0222-.0153.0352-.0198.0129-.0044.0255-.0062.0377-.0052.0164.0011.0333.0063.0509.0154.0317.0165.0521.0397.0611.0697s.0047.0629-.0133.0986c-.0177.0355-.041.0583-.07.0686-.0289.0101-.0592.007-.0908-.0094-.0321-.0166-.0526-.0399-.0616-.0696-.0089-.0298-.0046-.0622.0128-.0971zm.0456.0218c-.0124.0249-.0162.0467-.0114.0654.0049.0187.016.0325.0334.0415.0173.009.0347.0101.0522.0031s.0326-.0232.0454-.0487c.0126-.0251.0165-.0467.0119-.0648-.0047-.018-.0159-.0317-.0338-.041-.018-.0093-.0356-.0105-.0529-.0037-.0172.0069-.0322.0229-.0448.0482zm.2526.2094.0266-.0387.0746.0533-.0266.0386zm.1355.183.1555-.189.1374.1176-.0262.0319-.1001-.0855-.0344.0419.093.0795-.0262.0319-.093-.0796-.0423.0514.1035.0886-.0263.0318zm.2176.0887.0364.0315c-.0095.0134-.0139.026-.0132.0377s.0062.023.0165.0339c.0109.0115.0216.0179.0319.019s.0187-.0014.0251-.0078c.0041-.004.0064-.0087.0069-.014.0007-.0053-.0009-.0121-.0046-.0203-.0025-.0056-.0091-.0177-.0196-.0361-.0135-.0239-.0205-.043-.021-.0574-.0008-.0203.0058-.0373.0195-.0508.0089-.0088.0196-.0144.0322-.0168.0126-.0025.0254-.0009.0386.0048.0131.0057.0262.0153.0391.0289.0211.0223.0322.0438.0334.0644.0009.0207-.0063.0392-.0217.0556l-.0355-.0344c.0076-.0103.0109-.02.01-.0288-.0009-.0089-.006-.0184-.0156-.0285-.0099-.0104-.0197-.0165-.0294-.0182-.0063-.0012-.0118.0004-.0163.0049-.004.004-.0059.0093-.0055.0157.0006.0082.0071.023.0196.0444.0124.0214.0205.0384.0241.0509.0035.0127.0038.025.0009.0371-.0031.0121-.0101.0235-.021.0344-.01.0098-.022.0162-.0361.0191s-.0281.0013-.0421-.0049c-.014-.0061-.0283-.017-.0429-.0323-.0213-.0225-.0325-.0447-.0338-.0667-.0011-.022.0068-.0438.0241-.0653zm.1357.2747.1562-.1289-.0451-.0569.0318-.0263.121.1523-.0318.0263-.0451-.0567-.1562.129zm.1963.2931-.0289-.0454.0346-.0486-.0527-.0827-.057.0134-.0282-.0443.2542-.0537.0282.0441zm.0313-.13.0572-.0784-.0932.0219zm.1907.0388.0419.0804c.0095.0181.0153.0326.0176.0436.003.0148.0021.0293-.0026.0435-.0046.0142-.0125.0274-.0237.0396-.0112.0121-.0268.0236-.0468.0344-.0176.0096-.034.0155-.049.018-.0183.003-.035.0021-.0499-.0029-.0112-.0036-.0223-.0109-.0332-.0216-.008-.0081-.0163-.0202-.0247-.0365l-.0432-.0827zm-.0132.0636-.1414.0767.017.0327c.0065.0123.0117.0209.016.0256.0054.0061.0114.0104.0181.0129.0066.0025.0155.0025.0266.0003s.025-.0078.0415-.0167.0283-.0173.0357-.0251c.0073-.0078.012-.0157.0142-.0237s.002-.0166-.0006-.0258c-.0018-.0069-.0074-.0192-.0168-.0372zm.0181.2252c.0233-.0082.0441-.0115.0623-.0099.0134.0012.0263.0047.0387.0107.0124.0059.0226.0135.0308.0229.011.0124.0196.0281.026.0471.0116.0344.0105.0655-.0035.0934-.0139.028-.0395.0485-.0768.0616-.0369.013-.0692.0129-.097-.0003-.0277-.0132-.0475-.0368-.059-.071-.0118-.0347-.0107-.066.0031-.0937.0139-.0278.0391-.048.0754-.0608zm.0179.048c-.0259.009-.0434.0221-.0527.0389-.0092.0169-.0107.0347-.0043.0535s.0181.0319.0355.0393c.0173.0073.0393.0064.0658-.0029.0262-.0092.0437-.022.0527-.0382s.0102-.0341.0036-.0535-.0184-.0328-.0355-.0401c-.017-.0072-.0387-.0063-.0651.003zm.2132.3029.0171.0893c.0039.0202.0053.0358.0043.0469-.0014.0151-.0064.0287-.015.0408-.0085.0123-.0198.0226-.034.0308-.0142.0083-.0324.0147-.0547.0191-.0195.0039-.0369.0047-.0519.0026-.0184-.0027-.0341-.0085-.0469-.0177-.0097-.0068-.0182-.017-.0255-.0305-.0054-.0102-.0099-.0242-.0133-.0423l-.0175-.092zm-.0308.0569-.1572.0311.0069.0364c.0026.0137.0052.0234.0079.0292.0034.0075.008.0134.0136.0178.0057.0043.0141.007.0254.0082.0112.0012.0261 0 .0444-.0037.0184-.0036.0321-.0081.0413-.0133.0093-.0052.0161-.0114.0204-.0184.0044-.0071.0067-.0154.0068-.0249.0003-.0071-.0015-.0206-.0053-.0405zm-.0463.2146c.0245-.0022.0455-.0003.0627.0057.0128.0045.0245.0111.0351.02.0105.0088.0187.0187.0243.0298.0078.0147.0125.0321.0141.0521.0032.0362-.0053.0661-.0255.0898s-.0499.0373-.0891.0408c-.039.0035-.0703-.0046-.0942-.0242-.0237-.0196-.0372-.0475-.0403-.0835-.0032-.0365.0053-.0666.0253-.0901s.0493-.0369.0876-.0404zm.006.051c-.0273.0024-.0474.0107-.0604.0248s-.0186.031-.0169.0508c.0017.0197.01.0354.0252.0468.015.0115.0365.0159.0644.0134.0277-.0024.0477-.0104.0603-.024.0125-.0135.0179-.0305.0161-.051-.0017-.0204-.0101-.0363-.0249-.0476-.0148-.0112-.036-.0157-.0638-.0132zm-.1126.3315.2414.0172-.0055.0797c-.0021.0302-.0047.0498-.0077.0588-.0046.0138-.0133.0251-.0261.0338-.0127.0086-.0287.0122-.0479.0109-.0148-.0011-.0271-.0047-.0368-.0109s-.0172-.0137-.0224-.0226-.0084-.0177-.0096-.0266c-.0015-.012-.0015-.0293 0-.0518l.0022-.0323-.091-.0066zm.1971.064-.0685-.0049-.0018.0272c-.0014.0195-.001.0327.001.0395.0021.0068.0057.0122.0108.0163.0052.0042.0113.0065.0184.007.0088.0006.0163-.0015.0223-.0063.006-.0049.0101-.0113.0121-.0192.0015-.0059.0028-.0178.0041-.0356zm-.2535.3614.0092-.0533.0579-.0115.0167-.0971-.0506-.0298.009-.052.2219.1374-.009.0518zm.1099-.0733.0942-.0176-.0828-.0487zm-.1208.0951.2337.0639-.0266.1012c-.0067.0255-.0137.0434-.0209.0538s-.0171.0176-.0296.0216c-.0126.004-.0258.0041-.0396.0003-.0175-.0048-.0307-.014-.0393-.0276-.0087-.0136-.0117-.0313-.0092-.053-.0087.0087-.0175.0156-.0264.0204s-.0239.0105-.0452.017l-.0532.0167.0151-.0576.06-.0209c.0215-.0074.0351-.0127.0411-.016.0059-.0032.0104-.0071.0135-.0118.0031-.0046.0061-.0124.009-.0235l.0026-.0097-.0976-.0266zm.1223.085-.0094.0356c-.006.023-.0089.0377-.0085.044s.0025.0116.0063.0162c.0039.0045.0093.0077.0163.0097.0079.0021.0147.0017.0207-.0013.0059-.0029.0106-.0081.014-.0156.0015-.0037.0049-.0154.01-.0349l.0099-.0375zm-.2815.3579.0216-.0495.0589.0031.0393-.09-.0421-.0414.0211-.0483.1827.1881-.0211.0481zm.1241-.044.0955.0061-.0687-.0676zm-.1382.0677.2116.1196-.023.0424-.1893.0084.1413.0799-.022.0405-.2116-.1196.0237-.0438.1854-.0089-.1381-.078zm-.2481.3974.0305-.0443.0572.0145.0555-.0808-.0336-.0488.0297-.0433.1441.2202-.0296.0431zm.1301-.0191.0927.0247-.0549-.0798zm.1663.0423.0274.0479-.0298.0434-.0144-.0668z" fill="#1f1a17" fill-rule="nonzero"/></svg>