<svg fill-rule="evenodd" height="345.272503" viewBox="0 0 45720 45720" width="289.626308" xmlns="http://www.w3.org/2000/svg"><g fill-rule="nonzero" transform="matrix(2.7257587 0 0 2.7257566 -38098.845 -39404.458)"><path d="m26875 13893c-1210 3355 39 4604 3757 3747 744 7430-2011 12495-8266 15201-6258-2706-9017-7772-8269-15201 3718 857 4971-392 3757-3747 1432-699 2935-1048 4512-1048 1573 0 3076 349 4509 1048z"/><path d="m18103 14000c267 776 402 1439 402 1991 0 598-156 1070-469 1423-638 720-1870 874-3760 470-64 697-97 1376-97 2033 0 2695 536 5042 1601 6999 1338 2459 3555 4378 6586 5705 3029-1327 5244-3246 6582-5705 1065-1959 1601-4308 1601-7006 0-655-33-1331-97-2026-1889 404-3119 250-3757-469-313-353-470-825-470-1425 0-552 135-1215 401-1990-1351-631-2783-955-4260-955-1479 0-2912 323-4264 954z" fill="#fefefe"/><path d="m18789 14312c185 634 276 1187 276 1679 0 734-205 1337-610 1794-704 794-1908 1045-3668 763-31 472-48 930-48 1368 0 2597 516 4862 1533 6732 1243 2285 3294 4085 6094 5357 2798-1272 4847-3072 6090-5357 1017-1871 1533-4138 1533-6738 0-436-16-892-47-1362-1759 281-2962 31-3666-762-405-457-611-1061-611-1796 0-492 92-1045 275-1678-1147-469-2347-707-3575-707-1229 0-2430 238-3578 707z"/><path d="m15789 25378c168 425 359 832 571 1223 357 657 783 1274 1274 1849l12214-9787c-1738 259-2933-5-3647-810-142-160-260-337-355-530l-10058 8055z" fill="#fefefe"/><path d="m18634 19795c695 2314 473 4075-667 5288 2508-356 4815-864 6992-466 977-1785 1235-3037 699-4822z" fill="#fff"/><path d="m25658 19760h-7071l14 45c344 1147 463 2170 353 3042-110 869-450 1613-1012 2212l-69 73 99-14c429-61 856-127 1269-191 2012-311 3913-605 5711-275l25 5 12-22c1029-1879 1212-3148 701-4850l-8-25h-26zm-27 71c178 599 265 1141 265 1661 0 240-19 475-55 709-111 705-390 1440-901 2378-1803-324-3700-32-5709 279-382 59-776 120-1172 177 667-747 1003-1702 1003-2855 0-709-127-1493-380-2348h6950z"/><g fill="#fff"><path d="m15953 19263c-4 49 14 85 64 109 63 25 116 99 159 226v1958c92 71 201 131 332 169v-631h180c92 0 176-11 254-32 191 219 328 494 406 833 71 282 190 459 360 540 60 21 123 39 194 42 226-4 282-131 176-381-11 0-18 4-18 7-88 46-159 56-212 28-71-32-131-141-180-321-85-342-222-639-413-893l106-95c152-145 247-307 282-497-95-78-198-141-314-187v14c0 166-63 310-191 437-42 42-106 81-194 120-99 35-183 56-258 56h-180v-1196c49-18 109-21 180-21 67 0 134 11 198 28 233 0 448 39 649 116-53-78-106-145-162-201-180-187-409-275-684-275-123 0-236 18-335 56-120-53-222-78-296-74-67 7-99 28-102 64z"/><path d="m16881 19651c-92 0-190 11-300 25v339c99-21 198-32 300-32 321 0 593 95 815 286l127 127h127v-596h-123c-46 64-95 78-148 49-236-131-504-198-797-198z"/><path d="m16097 20247v-399c-92 53-166 109-236 166-293 250-441 550-441 903 0 346 148 649 441 907 282 240 621 360 1020 360 159 0 314-18 462-60-25-53-49-123-71-212l-28-102c-109 32-233 46-363 46-321 0-593-95-804-282-215-191-325-409-325-656 0-254 109-469 325-649l21-21z"/><path d="m16683 22335c-85 0-141-32-176-95v-14c-113-25-226-60-332-106v120c-28 64-85 95-176 95v236h684z"/><path d="m17681 21584 102 335c49-32 92-63 127-95l113-113-141-353c-56 85-120 159-187 215z"/><path d="m21252 28922 71-67c63-56 127-109 194-152l-18-35c-32-88-4-134 88-138v-240h-681v240c95-7 173 39 233 138z"/><path d="m23590 28668c53-99 131-145 233-138v-240h-681v240c85 4 116 49 88 138l-441 977h360z"/><path d="m23509 29084-14-14-187 420 81 81 392-392-85-85c-78 35-138 32-187-11z"/><path d="m22730 30770-169 377c296-35 561-159 783-367l7-4 32-28c28-35 42-74 42-116v-744c0-42-14-81-49-116-32-32-71-49-113-49h-995c-21 226 169 339 572 332h258v501c-113 99-236 169-367 215z"/><path d="m20955 29846c0 360 141 670 416 935 229 212 497 335 801 370l-166-374c-148-49-286-127-413-240-205-198-310-427-310-691 0-272 106-501 310-688 215-201 469-300 766-300 229 0 434 60 617 183l134-307c-219-138-473-205-751-205-381 0-713 127-988 385-275 247-416 557-416 931z"/><path d="m21717 29151-71 64c-71 67-127 134-169 205l889 1968 568-1256h-95c-95 0-183-4-261-18l-212 469z"/><path d="m20557 16776c310 575 381 1150 208 1725 1274-822 2431-833 3468-39 226-586 226-1147 0-1686z"/></g><path d="m24233 16740h-3735l28 52c305 565 374 1137 205 1698l-28 92 80-52c1253-809 2406-822 3427-40l37 29 17-44c228-591 228-1167 0-1713l-9-22h-23zm-25 71c104 257 158 521 158 791 0 263-52 532-151 804-1017-756-2158-749-3393 20 46-178 71-357 71-537 0-359-93-720-278-1078h3594z"/><path d="m25993 18063h-4773c275 804 265 1598-35 2388 1556-399 2974-420 4262-56 409-448 593-1224 547-2332z" fill="#fff"/><path d="m25993 18028h-4822l16 47c271 793 260 1588-35 2364l-24 64 66-17c1546-396 2973-415 4243-57l21 6 15-16c415-454 602-1247 556-2357l-1-34h-34zm-35 71c4 97 6 192 6 284 0 913-179 1575-532 1973-1259-350-2670-335-4195 47 141-392 214-789 214-1188 0-371-63-744-185-1116h4691z"/><path d="m24342 25450c2073-1272 2734-3143 1887-5076h-6773c871 2424 607 4304-794 5634 2103-335 3665-639 5680-557z" fill="#fff"/><path d="m26229 20339h-6824l17 47c432 1201 584 2281 453 3210-131 927-547 1730-1238 2386l-83 79 780-126c1795-291 3213-521 5005-449h11l9-6c1018-625 1728-1423 2053-2308 322-878 270-1850-152-2813l-9-21h-23zm-24 71c234 541 350 1074 350 1588 0 1322-763 2519-2223 3418-1794-71-3212 159-5008 450 0 0-408 66-560 90 815-812 1225-1828 1225-3039 0-760-162-1597-484-2507z"/><path d="m23333 24116c-25 4-42 27-40 51 8 86-5 148-36 178-25 24-66 32-122 24-86-9-140-7-170-4-659 56-1336 326-2012 802-304 207-695 412-1162 609-18 8-29 25-29 44 0 3 0 5 1 8 19 111 89 215 206 311 21 112 94 216 217 309 42 130 150 203 308 203h2981c14 0 28-6 37-17 0 0 391-474 395-479 161-109 254-223 286-347 106-69 204-185 289-347 122-84 216-201 279-348 3-6 4-12 4-19 0-8-2-17-6-24-181-310-418-517-703-618 6-56 10-110 10-163 0-44-2-87-6-131-2-21-18-38-39-42-211-40-436-40-687 0z"/><path d="m23390 24205v10c0 89-23 156-68 199-47 45-104 50-200 50-75-8-122-6-148-3-643 55-1304 319-1967 785-300 205-684 407-1140 601 22 73 73 144 153 212 460-171 831-347 1132-539 546-355 1070-570 1602-660 26-4 50 13 55 39 0 3 1 5 1 8 0 23-17 43-40 47-518 87-1031 298-1566 646-304 194-677 371-1137 543 21 78 77 153 168 224 470-161 841-326 1133-502 613-379 1230-589 1834-625 13-101 21-187 23-264l15-33 34-13 33 15 13 34c-3 90-12 189-29 311-20 130-50 273-93 439 0 1-3 10-7 23 35-31 70-63 70-63 116-110 222-227 322-357 92-128 168-254 224-373 73-152 122-315 148-484 9-64 13-125 13-186 0 0-3-57-4-86-178-29-367-29-575 0z" fill="#ad3527"/><path d="m21418 25946c-294 177-663 341-1128 502 34 70 98 106 199 107 467-116 855-254 1154-410 456-246 938-399 1472-470 31-126 55-237 73-339-582 38-1177 242-1769 609z" fill="#ad3527"/><path d="m21687 26230c-230 120-514 229-842 326h2607c15-19 325-394 356-432-150-149-320-265-505-343-25 23-98 82-98 82-47 38-155 6-139-28 0 0 4-12 19-59-506 71-964 219-1398 453z" fill="#ad3527"/><path d="m23376 25711c183 83 352 199 501 348 122-87 195-175 221-268-135-147-291-270-464-367-81 102-166 197-258 287z" fill="#ad3527"/><path d="m23690 25347c173 99 330 222 467 369 82-58 158-152 228-279-145-154-317-285-514-390-49 97-110 198-181 300z" fill="#ad3527"/><path d="m23912 24960c205 109 385 245 537 406 91-68 161-156 213-269-164-272-373-456-623-549-26 143-68 281-127 412z" fill="#ad3527"/><path d="m21685 16529c32-18 67-35 102-49 11-7 25-14 42-21-7 162-60 296-159 409l102 95c120-120 187-310 201-564 63-25 123-46 183-63 14-4 32-11 49-14 14 268-11 473-71 621l131 127c78-229 102-487 74-776 74-14 148-25 222-28v642l162 106v-748c88 4 173 14 258 32-4 258 32 512 109 769l145-85c-85-219-123-434-116-649 7 4 18 7 25 11 81 25 159 56 240 95 4 219 53 434 145 653l127-64c-88-162-134-335-148-522 18 11 35 21 56 35s46 28 71 46c198-310 229-600 92-871h-1002v-874c-250-75-509 39-715 148-248 149-216 213-793 393 435 122 503 35 802-32 254-65 347-53 544-10v375h-1012c187 346 229 621 134 815z" fill="#fff"/><path d="m21781 20907c456 329 711 607 867 1058-459-184-814-488-1066-859v2626c252-371 607-676 1066-859-156 451-412 729-867 1059h2627c-459-329-710-608-867-1059 460 184 810 488 1066 859v-2626c-255 372-605 676-1066 859 158-451 408-729 867-1058z" fill="#e31e24"/><path d="m22881 18563c207 150 324 276 395 482-209-84-370-222-485-391v1195c115-169 276-307 485-391-71 205-187 332-395 482h1195c-209-150-323-276-395-482 210 84 369 222 485 391v-1195c-116 169-275 307-485 391 72-205 186-332 395-482z" fill="#e31e24"/><path d="m20098 26671c-4 0-9 0-18 0-142 0-346-40-612-120-271-80-470-120-608-115-235 0-466 75-679 226 120-22 235-36 346-36 155 0 386 53 692 155 302 93 533 138 688 138 67 0 129-4 191-13z"/><path d="m24856 26165c-240 27-466 124-683 302 124-35 240-62 346-71 160-18 391 9 692 75 302 62 533 80 692 67 200-27 386-89 564-195s311-231 399-386c-275 178-541 284-794 311-142 18-346 0-612-49-266-53-470-71-604-53z" fill="#fff"/><path d="m17964 27413c120-22 235-36 346-36 155 0 386 53 692 151 155 49 293 84 408 111v-293c-49-13-107-27-160-44-271-80-470-120-608-115-235-4-466 71-679 226z"/><path d="m24443 27368c115-67 204-155 266-257-182 115-359 182-524 200-98 13-235 4-408-22-178-36-311-49-404-36-155 13-306 80-448 200 80-27 155-40 226-49 107-9 257 4 462 49 200 40 351 53 457 44 133-18 257-58 373-129z" fill="#fff"/><path d="m25544 27009c-231 0-457 75-679 226 129-13 244-22 346-22 164 0 399 49 701 142s533 142 692 142c191-4 377-44 550-133 178-75 315-191 399-342-275 151-537 226-790 226-142 0-346-40-612-120-262-80-462-120-608-120z" fill="#fff"/><path d="m23729 26836c-98 9-235 0-408-27-178-31-311-44-404-35-155 18-306 84-448 200 80-22 155-40 226-44 107-13 257 4 462 49 200 40 351 53 457 40 133-13 257-58 373-124 115-71 204-155 266-257-182 115-359 182-524 200z" fill="#fff"/><path d="m22300 27621c182-75 315-191 404-342-275 151-541 226-790 226-146 0-351-40-617-120-257-80-462-120-604-120-231 0-457 75-683 226 129-13 244-22 346-22 164 0 399 49 706 142 302 93 533 142 688 142 195-4 377-44 550-133z" fill="#fff"/><path d="m21527 27026c102 0 209-22 315-67 107-44 213-124 324-240-249 98-439 151-577 160-75 0-186-13-328-44-142-35-253-49-324-44-129 4-249 53-364 138 67-13 124-27 186-27 84-4 204 18 368 62 160 44 293 62 399 62z" fill="#fff"/></g></svg>