<svg height="217" width="325" xmlns="http://www.w3.org/2000/svg"><g transform="translate(-223.214283 -266.719333)"><path d="m223.71428 267.21933h324v216h-324z" fill="#fff" stroke="#00f" stroke-linejoin="round"/><path d="m385.71428 469.75071c0-11.56934-.21181-13.38733-1.50203-12.89223-.82612.31701-3.18862-.0795-5.25-.88114-2.49374-.96978-5.95448-1.30483-10.34161-1.00123-4.8977.33893-7.42122.02833-9.81123-1.20758-2.68329-1.38759-3.80846-1.46888-6.77585-.48956-3.10362 1.02429-4.03913.90406-7.32199-.94101-2.69904-1.51694-4.66221-1.93565-6.93982-1.48012-3.02688.60537-3.16155.4996-2.86677-2.25165.26007-2.42737-.20799-3.11454-2.9407-4.31733-1.7875-.78675-3.25-1.78342-3.25-2.21481 0-1.6952 4.79484-3.18386 12.90149-4.00555 9.5789-.97092 17.09851-3.97673 17.09851-6.83478 0-2.43397-5.43717-7.02153-11.52379-9.7231-17.79402-7.89793-24.75888-9.4535-30.8785-6.89656-4.68177 1.95617-4.59771 1.95424-4.59771.10527 0-1.95502-2.40128-1.92634-4.04005.04826-1.42169 1.71303-5.09185 1.59459-5.6766-.18319-.20532-.62421 3.13444-3.06117 7.42167-5.41546 6.93846-3.81019 8.72897-4.34477 16.29498-4.86508 8.7716-.60321 11.0455-2.13684 4.69804-3.16859-4.55224-.73995-6.69804-2.51424-6.69804-5.53838 0-1.30766-.18032-2.37756-.4007-2.37756-.22039 0-2.80789 1.1206-5.75 2.49023-2.94212 1.36963-6.15092 2.49463-7.13068 2.5-2.59267.01422-3.24149-2.75499-1.17937-5.03361.98-1.08288 1.49384-2.25686 1.14186-2.60884-1.19835-1.19835-11.16757-2.35283-15.23841-1.76468-3.03217.43808-4.39365.18093-5.38849-1.01779-.96796-1.16631-2.24842-1.4319-4.6927-.97335-3.44092.64552-4.2819-.27157-2.17818-2.37529 1.82115-1.82115.12605-2.67866-2.72616-1.37911-1.4032.63934-3.2602 1.16244-4.12667 1.16244-1.32082 0-1.364-.2547-.26725-1.57622 1.08413-1.30629 1.06229-1.73178-.12755-2.48468-.78964-.49966-2.2232-.91537-3.1857-.92379-2.57247-.02251-2.13026-2.53614.78187-4.44423 3.8047-2.49294 2.11676-3.57108-5.59089-3.57108-3.81754 0-6.94098-.39152-6.94098-.87004 0-.89819 5.68056-2.57868 12.25-3.62393 2.47947-.3945 3.75-1.12625 3.75-2.15975 0-1.20048-.62904-1.40522-2.71155-.88254-3.25362.81661-19.28845-.38555-19.28845-1.44609 0-1.40765 8.60011-1.92344 15.54802-.93248 6.35033.90572 12.40868.5382 11.19156-.67892-.27303-.27303-4.08638-1.35386-8.47411-2.40184-8.26882-1.97495-15.14966-5.51967-15.22314-7.84231-.04891-1.54574 5.74914-.8526 12.35045 1.47648 2.15556.76053 4.13813 1.16384 4.40571.89626.7182-.71819-1.85137-3.53484-3.22477-3.53484-1.52658 0-7.57372-6.2259-7.57372-7.79761 0-1.86787 2.72563-1.43767 9.14573 1.4435 3.24271 1.45524 6.19474 2.34698 6.56007 1.98164.36534-.36533-.9451-2.34348-2.91209-4.39589-5.07659-5.29706-5.51045-7.55019-2.36814-12.29853 1.43154-2.16321 3.40037-3.93311 4.37516-3.93311.9748 0 3.41776 2.20395 5.42881 4.89767 3.37851 4.52538 5.4138 5.7843 26.77534 16.56181 34.21683 17.26336 44.64219 24.63746 57.61717 40.75398 3.44628 4.2807 5.91819 6.51646 6.82151 6.16982 2.25721-.86617 3.5607-5.88162 2.49466-9.59869-.51602-1.79926-.93822-4.49498-.93822-5.99048 0-3.92147 3.56177-12.81442 6.48823-16.19965l2.51177-2.90554v-45.34446-45.34446h81 81v108 108h-81-81zm26.45314-16.59495c4.1444-3.82018 4.47091-3.94686 5.45128-2.11503 1.67762 3.13467 5.70174 3.54767 10.75096 1.10338 3.3937-1.64286 5.43834-2.0055 8.52473-1.51197 3.98801.63771 7.07914-.31192 16.15093-4.96174 1.55707-.79809 4.36957-1.45107 6.25-1.45107 2.22317 0 4.19302-.78694 5.63212-2.25 1.21723-1.2375 3.72433-3.18077 5.57131-4.31837 2.64851-1.63128 3.07893-2.29531 2.03684-3.14229-2.31783-1.88385-17.7691-6.28869-22.12293-6.3068-2.30911-.0096-8.10443-.65783-12.87849-1.4405-14.99094-2.45767-23.81989-5.79581-23.81989-9.00608 0-2.19706 1.7301-2.80885 9.99926-3.53589 12.81264-1.12653 19.14612-5.84356 14.04476-10.46023-3.46577-3.13648-2.4887-3.87057 4.30705-3.23598 4.84886.4528 6.87307.22745 8.55801-.95273 2.06241-1.44457 2.09311-1.62905.46871-2.81683-1.62229-1.18625-1.59281-1.34886.44199-2.43785 2.89817-1.55105 2.76803-3.09645-.26076-3.09645-1.34254 0-2.70857-.43297-3.03563-.96215-.77181-1.24882 6.17007-8.2379 9.72661-9.79274 2.60677-1.13961 3.88697-4.24511 1.75-4.24511-2.38168 0-.7235-2.90182 2-3.5 3.26109-.71626 4.24456-4.08519 1.5-5.13837-2.69596-1.03454-1.57816-2.98959 2.25-3.93526 4.86565-1.20197 4.38226-2.63439-1.38556-4.10577-2.54278-.64867-5.12751-1.72239-5.74384-2.38604-.86089-.927-.55037-1.06818 1.33983-.60919 2.54128.61708 7.93535-.38366 16.44175-3.05038l4.90217-1.53681-2.40217-1.83465-2.40218-1.83464 4.25-1.68614c3.85282-1.52855 5.88959-4.38275 3.12756-4.38275-.77551 0-.73766-.46364.12244-1.5.68469-.825 1.61049-1.5 2.05735-1.5.44685 0 2.07925-.52816 3.62755-1.17369l2.8151-1.17369-3.5-.58382-3.5-.58381 4.5-2.512c5.19907-2.90224 5.58456-4.24593 1.4433-5.03087-2.67952-.50788-1.91268-1.0791 8.5567-6.3739 10.73775-5.43053 12.94614-6.9303 12.98469-8.81822.02858-1.39989-3.47132-.75067-6.75886 1.25374-3.31381 2.02043-6.27755 2.61969-6.16361 1.24626.03422-.4125 3.63422-3.33356 8-6.49124 4.36578-3.15769 7.93778-6.42019 7.93778-7.25 0-2.26719-1.05126-1.88638-6.87732 2.49124-2.92793 2.2-5.95332 4-6.72309 4-2.42059 0-1.53082-2.66877 2.10041-6.3 3.85595-3.85595 4.42308-5.70197 1.75-5.69626-2.21105.00472-6.284 2.58091-13.10619 8.28983-11.83877 9.90685-14.59933 8.80114-3.77774-1.51313 7.26801-6.92729 9.45138-10.78044 6.10871-10.78044-1.45738 0-14.10555 10.98409-15.77447 13.69908-.85162 1.3854-3.70114 1.80979-3.69909.55092.00067-.4125 1.12567-2.05749 2.5-3.65554s2.49878-3.28555 2.49878-3.75c0-2.16827-3.73376-.18148-14.6631 7.80245-13.5036 9.86444-36.4773 23.94331-53.3369 32.68622-12.61192 6.54018-16.37225 9.02993-22.75 15.06298l-4.25 4.02031v48.1848c0 42.89505.17262 48.25104 1.57244 48.78821.86485.33187 2.41026.15501 3.43426-.39302 2.58098-1.38129 6.03431-1.18792 8.9933.50359 4.3978 2.51401 7.67694 1.83897 12.45314-2.56357zm-157.02131-142.93173c.31163-1.09741.8201-2.89054 1.12993-3.98472.35972-1.2704-.40575-3.25996-2.11791-5.50471l-2.68123-3.51527h4.15008c3.07544 0 4.29304-.45315 4.70221-1.75 1.84875-5.85954 2.03432-5.95364 3.9441-2 1.63384 3.38238 2.19363 3.75 5.71023 3.75h3.89882l-3.13276 3.95543c-3.02768 3.82276-3.08081 4.05588-1.58403 6.95034 2.23578 4.32351 2.01748 4.45324-2.77122 1.64688l-4.31994-2.53166-3.37434 2.48951c-4.07334 3.00522-4.27495 3.03325-3.55394.4942z" fill="#00f"/></g></svg>