<svg height="258.66666" viewBox="0 0 258.66666 258.66666" width="258.66666" xmlns="http://www.w3.org/2000/svg"><g fill-rule="evenodd" transform="matrix(.13333333 0 0 -.13333333 0 258.66667)"><path d="m967.258 1845.47c514.262 0 934.552-393.68 934.552-876.032 0-482.325-420.29-876.0122-934.552-876.0122-516.047 0-936.3127 393.6872-936.3127 876.0122 0 482.352 420.2657 876.032 936.3127 876.032" fill="#31915c"/><path d="m967.258 1785.18c478.812 0 870.722-367.09 870.722-815.742 0-448.653-391.91-815.739-870.722-815.739-480.567 0-872.4767 367.086-872.4767 815.739 0 448.652 391.9097 815.742 872.4767 815.742" fill="#fff"/><g fill="#31915c"><path d="m818.301 1091.79c12.41 5.34 24.82 10.66 37.234 14.19 0-31.91 0-63.84 0-93.97 0-33.697 0-65.615 0-95.752 0-14.192-8.851-23.09-17.726-23.09-8.875-1.73-21.286 0-31.918 3.562-12.411 5.336-24.821 14.188-31.918 21.286-8.875 7.097-14.192 17.722-14.192 24.82v31.918c14.192 0 24.824-1.758 37.235-3.535 1.777-12.414 1.777-24.824 1.777-37.239 0-5.335 1.781-10.648 1.781-12.429 1.754-1.754 5.317-3.535 7.094-3.535 1.758 0 5.316-1.758 7.074 0 1.781 0 3.559 5.316 3.559 10.629v81.585zm117.039 44.35c12.41 3.54 23.043 7.07 35.476 10.63 1.754-42.57 1.754-85.11 1.754-127.66 0-42.579 0-83.372 0-125.942 0-17.703-7.093-31.891-15.941-35.453-8.879-3.559-21.289-3.559-33.699 0-10.633 1.781-23.067 8.851-31.918 17.75-8.875 7.07-14.192 21.265-14.192 35.453v102.852c0 33.69 0 67.39-1.781 101.09 12.41 3.53 24.824 8.85 37.258 12.41 0-35.48 0-74.49 0-109.94 0-37.236 0-72.713 0-109.971 0-7.074 0-12.41 1.758-14.191 1.777-3.512 5.312-5.293 8.875-5.293 1.777 0 7.093 0 8.851 1.781 1.778 0 3.559 7.074 3.559 12.41v117.044zm46.109 14.17c12.41 3.56 24.821 7.1 37.231 8.88 1.78-21.29 3.56-44.33 5.32-67.4 1.78-21.26 5.34-44.33 7.09-65.61 0-15.95 3.54-40.77 3.54-63.836 0-24.824 1.78-47.864 3.55-65.614h1.78c0 19.528 1.79 39.008 3.57 58.516 0 19.508 1.78 40.793 3.51 60.304 1.78 26.59 5.34 51.42 5.34 76.24 1.78 26.6 3.56 51.42 5.33 78.03 14.2 1.78 24.83 3.56 37.24 7.09-3.56-60.27-10.63-118.79-14.19-175.56-5.34-56.733-8.85-115.252-14.19-172.018-17.75 3.563-37.23 7.117-54.98 10.68-5.32 53.156-10.64 106.383-15.953 157.804-3.559 51.434-8.871 102.854-14.188 152.494zm209.231-331.607c-26.6 0-54.94 3.559-83.32 5.336v177.311 177.34c28.38 5.32 54.99 8.88 81.59 10.63 0-15.94 0-31.91 0-47.86-14.2-1.78-30.16-3.56-44.36-5.32 0-15.97 0-30.16 0-46.1 0-15.97 0-31.92 0-47.9 14.2 1.79 28.39 1.79 42.57 1.79 0-14.2 0-30.16 0-47.891-14.18 0-28.37 0-42.57 0 0-21.285 0-42.547 0-63.836 0-21.285 0-42.547 0-65.637 14.2 0 30.16-1.734 44.36-1.734 1.73-15.969 1.73-31.937 1.73-46.129zm14.19 372.407c17.75 1.77 37.23 3.55 54.99 3.55 1.77-17.75 3.55-37.25 5.33-54.98 0-17.73 1.78-39.01 3.52-56.74 1.77-15.97 5.34-33.69 7.11-49.67 1.79-17.72 3.57-37.231 3.57-53.176 1.72-17.75 3.5-35.477 5.29-54.981 0-15.972 1.77-35.457 1.77-53.211h1.78v19.536 54.957c0 19.507-1.78 37.234-1.78 54.955v97.54 95.77h30.17c0-62.08 0-124.13 0-187.99 0-62.053 0-125.912 0-187.967-17.76 0-35.51-1.781-53.21-1.781-1.78 30.16-5.34 62.055-8.85 93.996-1.78 30.16-5.34 63.836-8.9 94.002-1.78 21.26-5.29 46.1-7.07 67.37 0 19.5-3.55 42.57-5.34 63.85 0-7.09 0-17.75 0-23.06 0-7.1 0-17.73 0-24.83 0-46.11 0-90.434 0-134.758 0-46.133 0-92.215 0-136.57-8.85 0-19.48 0-28.38 0v187.998zm127.72 3.55c33.67-1.78 67.34-5.34 99.29-8.87 0-15.97 0-31.92 0-47.89-8.86 1.78-21.26 3.56-31.95 3.56 0-51.42 0-104.63 0-156.05 0-53.207 0-106.433 0-157.859-12.41-1.731-23.04-3.512-35.45-3.512v159.59 161.371c-10.63 0-21.26 0-33.68 0 0 15.96 1.79 33.69 1.79 49.66zm171.97-23.06c14.19-1.78 24.82-5.32 37.23-8.85 0-44.36 0-86.91 0-131.23 0-42.579 0-86.903 0-131.235 0-17.75-5.29-33.719-14.13-42.57-8.91-8.852-21.32-15.973-33.73-19.485-10.63 0-23.04 0-31.89 3.512-8.9 7.121-14.2 23.09-14.2 44.356 0 49.64-1.77 99.312-1.77 147.172v150.74c12.41-3.54 24.82-5.32 37.23-7.1 0-46.11 0-93.97 0-141.86 0-46.109 0-92.214 0-138.32 0-8.855 0-15.972 1.78-17.753 1.78-1.735 5.29-1.735 8.85-1.735s7.12 1.735 8.86 5.293c0 1.781 1.77 8.903 1.77 15.973v136.542zm56.77-312.104v148.954 148.96c15.97-3.54 31.94-8.86 44.35-12.41 17.7-5.32 31.89-15.95 40.74-26.61 7.12-10.63 12.42-26.6 12.42-46.1 0-23.04 0-46.11 0-70.94 0-21.256-1.74-46.104-1.74-69.147 0-10.652-3.56-23.062-10.68-33.695-5.29-8.852-19.48-17.75-31.89-21.266-17.75-5.34-33.72-12.41-53.2-17.746zm39.01 253.584c0-35.45-1.78-69.15-1.78-104.63 0-33.696 0-70.93 0-104.602 1.78 0 7.12 1.73 8.85 1.73 3.56 0 8.9 1.781 10.68 5.34 1.73 1.781 1.73 8.879 1.73 15.969v81.563 79.8c0 7.1 0 15.95-1.73 17.73-1.78 1.78-7.12 5.32-10.68 5.32-1.73 0-5.29 1.78-7.07 1.78zm161.39-180.877c-26.6-12.406-54.98-23.062-83.37-33.695v109.942 109.94c28.39-12.41 54.99-24.82 81.59-37.23 0-7.09 0-14.19 0-19.5-14.19 5.31-30.16 10.63-44.35 15.97 0-8.88 0-17.75 0-24.85 0-8.85 0-17.73 0-24.82 14.19-1.78 28.38-3.54 42.57-5.32 0-7.09 0-12.41 0-19.51-14.19 0-28.38 0-42.57 0 0-10.626 0-21.282 0-33.692 0-10.633 0-21.286 0-33.7 14.19 5.34 30.16 10.657 44.35 14.196 1.78-5.317 1.78-12.414 1.78-17.731"/><path d="m454.773 1123.71c65.618 0 122.356-54.96 122.356-124.136 0-65.594-56.738-122.332-122.356-122.332-69.175 0-124.136 56.738-124.136 122.332 0 69.176 54.961 124.136 124.136 124.136"/><path d="m692.387 620.074 7.093-8.847c-8.851-5.34-17.726-5.34-23.042-3.563-8.875 1.781-15.969 8.902-19.504 14.191-7.094 8.899-7.094 19.532-3.559 28.383 1.777 7.075 7.094 14.192 17.727 23.043 10.652 3.559 21.285 7.117 30.16 5.34 7.093-1.781 15.949-5.34 23.039-15.973 3.562-5.335 5.344-15.968 5.344-19.48-1.782-7.121-5.344-14.195-10.657-15.973l-5.316 5.289c1.781 3.563 5.316 8.903 5.316 12.414 0 1.782 0 8.903-5.316 14.196-1.781 5.336-8.875 8.894-14.192 8.894-7.093 0-15.945-1.777-21.285-5.34-8.851-5.335-15.945-10.628-17.726-17.75-1.781-3.511 0-12.414 1.781-17.703 5.313-5.34 8.852-7.121 14.188-8.847 3.539 0 12.414-1.782 15.949 1.726zm24.824-24.816 12.434-19.488 19.507 30.117zm-37.234-1.781 74.488 23.089 7.098-8.902-42.575-67.391-5.316 8.899 12.41 17.703-17.727 23.09-23.062-5.34zm37.234-54.938 42.57 10.633 10.629 44.305 7.098-8.852-5.317-33.676 31.918 8.856 7.094-7.075-40.793-10.679-7.094-46.086-10.628 8.855 7.093 35.453-33.699-8.855zm53.199-47.914 47.891 56.766 8.875-7.118-51.449-56.718zm47.891 0 15.945-15.922 8.875 33.672zm-37.231-12.41 65.614 42.57 8.851-5.34-23.043-78.023-8.875 7.121 8.875 23.043-23.066 17.75-21.262-14.188zm69.149-21.262 5.316-7.117c-1.781-3.516-3.535-7.074-1.781-12.414 0-3.512 3.559-8.852 8.875-10.633 5.316-3.559 10.652-3.559 12.41-3.559 3.563 0 10.656 0 10.656 3.559 3.535 5.34 0 10.633-8.875 19.531l-1.781 1.782c-7.094 7.07-10.629 14.144-10.629 17.703-1.781 3.558 0 8.898 1.781 14.187 3.536 5.344 8.848 8.856 14.164 10.633 5.34 0 12.415 0 21.286-7.07 7.097-3.563 10.656-10.629 10.656-14.192 1.758-7.117 1.758-14.191 0-21.261l-10.656 7.07c1.781 3.562 1.781 7.074 0 12.414 0 3.562-1.778 7.117-5.313 10.629-5.316 1.777-8.879 1.777-10.633 1.777-5.34 0-7.093-1.777-8.875-5.289-3.539-5.34-1.781-8.898 7.098-19.531 1.777 0 1.777-3.559 1.777-3.559l1.754-1.777c3.563-5.293 8.879-10.633 8.879-12.414 1.781 0 1.781-3.512 1.781-5.293 0-5.34-1.781-7.117-1.781-8.899-5.316-7.066-10.633-10.628-15.973-10.628-5.316 0-15.945 1.781-23.042 7.117-7.094 5.293-12.411 12.41-14.192 15.922-1.777 7.121 0 12.461 7.098 21.312zm120.597-24.824-14.187 5.293-24.848-49.641 14.192-7.07c7.093-1.781 12.41-3.563 15.968-1.781 7.094 1.781 10.629 8.851 17.723 17.746 3.563 7.074 3.563 15.926 3.563 19.488-1.778 7.066-5.34 12.406-12.411 15.965zm-54.984-46.129 33.695 65.613 26.606-12.41c7.094-3.562 14.191-12.414 15.945-17.703 1.781-8.898 1.781-19.531-3.535-30.164-5.316-10.625-12.41-15.969-19.508-21.258-8.875-1.781-19.508-1.781-26.597 3.508zm90.438 0c-1.78-10.633-3.54-19.484-1.78-26.602 0-3.515 7.1-8.851 12.41-12.414 7.1-1.777 14.19-1.777 19.51 0 5.34 3.563 12.41 8.899 15.97 17.754 5.33 8.848 5.33 15.973 1.78 21.262-1.78 7.117-5.34 14.191-12.41 15.969-7.12 3.562-15.97 3.562-19.51 0-5.34-3.559-10.65-10.633-15.97-15.969zm-7.098 3.559c3.558 10.632 12.418 19.531 17.728 23.043 8.88 1.781 19.51 1.781 28.41-1.778 8.85-5.293 15.92-12.414 17.7-19.488 5.34-10.625 5.34-21.258 0-31.938-5.3-8.851-12.41-17.703-21.26-19.484-7.12-5.34-17.75-5.34-28.39 0-8.87 3.559-17.723 10.633-19.501 17.707-3.535 7.117 0 19.527 5.313 31.938zm88.658-49.645 8.9-5.34c-1.78-5.293-1.78-10.633 1.73-12.41 0-3.559 5.34-5.289 10.68-8.851h14.19c3.51 0 7.08 5.292 7.08 7.07 3.55 7.117 0 12.41-12.42 15.972l-1.78 3.559c-8.85 3.559-15.97 10.633-17.75 12.414-1.73 3.555-1.73 7.07 0 14.188 1.78 3.562 7.12 10.632 10.68 12.414 5.29 1.781 12.41 1.781 21.27 1.781 8.84-3.563 14.18-7.125 14.18-12.414 5.34-3.559 7.07-14.192 7.07-17.75h-10.62c0 3.558-1.79 8.851-3.57 14.191-3.51 1.778-7.06 5.34-10.63 5.34-5.29 3.508-8.85 3.508-10.63 0-1.78 0-7.07-3.562-7.07-5.34-1.78-5.34 1.78-10.633 10.63-17.754 1.78-1.777 3.56-1.777 3.56-1.777h3.51c5.34-5.293 12.41-10.633 12.41-10.633 1.79-1.781 1.79-5.293 1.79-5.293 1.78-5.34 1.78-7.117 0-10.676 0-5.292-7.08-10.632-10.63-12.414-7.08-1.73-14.2-1.73-23.05 0-8.9 1.782-14.19 7.122-19.53 12.414-3.51 3.559-3.51 10.676 0 21.309zm69.17-15.973 15.98 42.575 10.63-1.778-15.97-46.133c-1.78-5.292-1.78-10.632 0-14.144 1.78-5.34 7.11-7.117 10.63-8.898 7.12-1.782 10.68-1.782 14.19 0 5.34 1.781 8.9 8.898 10.63 12.41l15.97 46.132 10.63-3.558-15.92-46.086c-1.78-7.117-7.12-15.969-14.19-17.75-7.12-1.781-15.97-1.781-23.09 0-10.63 1.781-14.14 7.07-19.49 10.633-1.77 7.117-1.77 15.969 0 24.82zm65.62-47.859 15.97 74.465 10.63-3.563-15.97-63.836 37.23-7.066-1.77-10.633z"/><path d="m516.828 1157.41c-19.508 8.87-40.793 10.65-62.055 10.65-28.382 0-54.984-5.31-79.804-19.51-21.289 132.99-8.879 257.13 51.422 386.58 133.007 104.62 292.597 180.89 477.031 191.52-177.34-148.95-319.199-324.51-386.594-569.24zm102.848-140.08c-3.535 35.45-15.946 67.37-39.016 93.97 205.723 232.32 464.65 422.07 847.66 482.35 168.46-106.39 274.87-264.22 329.85-450.44-407.88 179.13-785.6 125.92-1138.494-125.88zm-60.278-143.646c26.606 21.265 46.114 53.203 54.961 88.66 356.457-251.828 744.781-271.313 1154.441-88.66-37.23-186.211-124.11-370.645-273.09-484.125-398.98 39.011-757.214 209.254-936.312 484.125zm-65.613-33.672c-12.414-3.563-26.601-5.34-39.012-5.34-23.066 0-44.355 7.07-65.613 15.973-53.207-131.231-37.258-274.875-5.316-409.661 202.16-195.066 457.5-250.05 688.066-227.007-283.746 138.351-469.961 351.164-578.125 626.035zm-172.023 70.906c-21.285 26.602-31.918 60.301-31.918 92.212 0 21.29 5.32 40.8 10.633 58.53-37.231 40.79-74.465 79.8-113.481 122.35-39.012-124.13-44.328-264.213-10.652-391.912 35.476 53.207 83.363 95.777 145.418 118.82zm730.618 457.522 58.54 19.51-10.68 23.04-92.19-28.36 40.77-113.5 101.11 30.16-10.68 24.82-60.27-19.5-8.85 23.04 54.93 17.73-8.85 19.5-54.98-17.72zm131.23-33.69c-5.34-1.79-8.86-3.54-12.41-7.1-1.78-3.54-1.78-8.85 0-14.19 1.78-3.54 5.29-5.32 8.85-8.85 3.56-1.78 8.9-1.78 12.41-1.78 5.34 1.78 10.63 5.31 12.41 8.87 3.56 3.54 3.56 7.1 1.78 12.41 0 3.54-3.56 7.1-8.85 8.85-5.34 3.56-8.85 3.56-14.19 1.79zm166.68 42.57 1.78-1.78s0 0 0-1.78c0-3.54 0-7.1-1.78-8.88 0-3.53-3.56-5.31-5.29-5.31-1.78-1.76-7.12-3.54-12.41-3.54-7.12-1.78-12.46-1.78-15.97 0-3.56 0-5.34 1.78-7.12 5.32-1.78 3.53-3.52 7.09-3.52 14.19-1.77 1.78-1.77 5.32-1.77 8.87-1.78 3.54-1.78 7.07-3.57 10.64 0 1.77 0 5.31-1.78 7.09v7.09c0 1.76 1.78 5.32 1.78 5.32 1.79 1.78 5.34 5.32 7.08 5.32 1.78 1.77 5.34 1.77 8.9 3.56h5.29c3.56 1.75 8.89 1.75 10.68 0 3.51 0 5.29-1.79 8.85-5.34 0-1.76 1.78-3.54 1.78-8.86l39.01 7.1-1.78 1.76s0 3.55-1.77 5.34c0 1.75-1.79 5.31-1.79 7.07 0 1.78-1.78 5.34-1.78 7.09-1.78 1.79-3.51 5.32-5.29 5.32-5.34 5.34-10.68 7.09-19.53 8.88-5.29 0-14.19 0-24.82-1.79l-12.41-1.75c-14.2-1.78-26.61-5.34-33.67-8.87-8.91-5.33-14.2-12.42-15.98-19.51-1.78-7.1-1.78-17.73 1.78-31.92l1.78-15.97c1.74-7.1 3.51-14.17 5.3-19.51 1.78-5.31 5.34-8.85 8.84-14.17 3.57-3.55 8.91-7.09 14.2-8.87 5.33-1.78 12.41-1.78 21.31-1.78 14.18 1.78 24.82 1.78 30.11 3.56 14.19 1.75 26.6 5.31 33.72 10.63 3.56 3.54 5.3 7.1 7.07 10.63 1.78 3.56 3.56 8.88 3.56 12.41 0 3.56-1.78 8.88-1.78 15.98l-1.78 3.55zm95.78-12.44c-3.56 0-8.9-1.75-12.41-5.31-3.57-3.54-5.34-7.1-5.34-10.63 1.77-5.32 3.56-8.88 7.11-12.42 3.52-1.77 7.08-3.56 12.41-3.56 5.3 0 10.64 1.79 14.2 5.34 3.51 3.54 3.51 7.08 3.51 10.64 0 3.53-1.78 8.87-5.29 12.41-3.56 3.53-8.9 3.53-14.19 3.53"/></g><path d="m1369.82 568.656 1.78 21.309h10.63c5.29-1.781 8.85 0 12.41 0 3.51 0 5.29 3.512 5.29 7.07 1.78 5.34 0 8.852 0 10.629-1.78 1.781-7.07 3.563-12.41 5.344h-5.29c-5.34 0-10.63 0-12.41 0-1.78-1.781-5.34-3.563-5.34-5.344-1.78 0-1.78-5.289-3.56-8.851l-33.67 1.781v5.293c1.78 1.777 1.78 7.121 1.78 10.679 1.77 1.782 1.77 5.289 3.56 8.852 1.73 1.777 5.29 5.336 8.85 7.066 3.56 1.782 8.85 3.563 12.41 3.563 5.29 1.781 10.63 1.781 14.19 1.781h15.97c10.63-1.781 21.26-3.562 26.61-5.344 8.84-1.73 15.92-5.289 19.47-8.847 5.34-5.289 7.08-14.192 7.08-21.262 0-5.34-1.74-10.633-3.51-14.191-1.78-1.782-5.34-5.34-7.12-7.121-3.52-1.782-8.86-3.512-14.19-5.293 15.97-1.778 21.31-10.629 21.31-26.598-1.78-10.633-5.34-19.531-8.91-23.043-7.07-3.559-14.13-7.121-19.48-8.902-10.63 0-19.52-1.782-31.94 0-17.7 1.781-31.89 5.343-40.74 10.632-8.9 3.559-14.19 15.969-10.68 30.164v1.782 3.558l33.72-1.781s0-1.777 0-3.559c0-3.562 0-7.074 0-8.851 1.78-1.781 3.51-3.563 7.07-5.344 1.78 0 5.34-1.777 10.63-1.777h12.42c3.55 0 7.11 1.777 8.89 3.558 0 1.782 3.51 5.34 3.51 10.633 0 3.563 0 7.121-3.51 8.899-1.78 1.734-5.34 1.734-10.63 1.734zm-69.18 78.024-23.03-117.039-37.24 5.339 19.49 90.438-12.42-8.852-15.97 23.039 26.6 14.196zm-177.31 0c-1.78-5.293-1.78-8.852 0-10.633 1.73-1.781 5.29-1.781 12.41-3.563l1.73-1.73c5.35 0 8.9 0 12.46-1.781 1.73 1.781 5.3 1.781 5.3 3.511 1.77 1.782 3.56 3.563 5.34 7.121 0 5.293 0 8.856-1.78 8.856-1.79 3.559-5.34 5.34-8.86 5.34l-7.11 1.777c-5.35 0-7.08 0-8.86 0-3.55 0-5.34 0-8.9-1.777 0-1.781-1.73-5.34-1.73-7.121zm-47.91-40.793 33.72-5.293c0-3.559 0-7.117 0-8.852 1.78-3.558 5.29-5.34 7.07-5.34h8.85c5.35-1.777 10.68-1.777 12.41-1.777 1.78 0 5.35 0 7.12 1.777 1.78 1.782 3.56 7.075 5.34 10.633l5.3 19.531c-3.57-3.558-8.86-7.121-12.41-8.902-5.35 0-10.64 0-17.76 1.781-8.85 1.782-15.92 3.563-21.26 3.563-5.34 3.558-8.85 5.34-12.41 8.847-3.56 3.563-5.34 7.118-5.34 12.411-1.73 3.562 0 10.632 1.78 17.754 1.78 8.847 5.34 15.968 8.9 21.261 5.29 5.34 12.41 8.899 19.48 8.899 8.85 1.734 19.53 0 28.38-1.782 10.64-1.777 21.27-3.558 26.61-5.339 5.29-1.778 10.62-5.289 15.96-8.848 5.3-1.781 7.08-8.898 8.86-14.191 0-5.34 0-14.192-1.78-23.047l-3.56-15.965-5.29-19.531c-1.78-5.293-7.12-14.196-8.9-19.485-1.74-3.558-7.07-8.851-10.63-10.629-5.29-3.558-12.41-3.558-17.71-5.34-8.9 0-15.97 0-26.6 1.782l-7.12 1.777c-7.07 1.781-12.41 1.781-15.97 3.559-1.73 0-7.07 1.734-10.63 3.515-3.51 1.778-7.07 3.555-10.63 5.336-1.78 3.559-5.29 10.633-5.29 14.192 0 3.558 1.73 12.41 3.51 17.703zm-17.71 92.215-37.25-115.258-33.694 7.121 28.374 88.656-15.968-7.121-12.406 23.09 30.134 12.414z" fill="#fff"/></g></svg>