<svg height="200.24994" width="200.30151" xmlns="http://www.w3.org/2000/svg"><g fill-rule="evenodd" transform="matrix(.3 0 0 -.3 -20.32149 220.5972)"><path d="m401.574 735.324c183.836 0 333.836-149.914 333.836-333.75 0-183.832-150-333.7498-333.836-333.7498-183.832 0-333.8357 149.9178-333.8357 333.7498 0 183.836 150.0037 333.75 333.8357 333.75" fill="#ee1b28"/><path d="m401.574 708.191c168.91 0 306.617-137.707 306.617-306.617 0-168.906-137.707-306.6131-306.617-306.6131s-306.6131 137.7071-306.6131 306.6131c0 168.91 137.7031 306.617 306.6131 306.617" fill="#fff"/><path d="m239.023 401.574c0 24.508 11.024 59.781 44.18 81.656 29 19.165 50.281 29.254 92.594 29.426 42.144.086 89.711-4.832 129.566-12.886 36.801-7.379 83.692-21.2 105.907-27.391v102.43c-14.329-40.868-29.168-73.516-41.719-71.313-24.59 4.156-52.824 10.942-77.164 16.621-38.071 8.735-75.039 12.297-116.59 12.043-41.633-.258-62.578-3.394-110.149-16.789-55.031-15.601-112.437-53.848-112.437-113.797s57.406-98.191 112.437-113.793c47.571-13.398 68.516-16.535 110.149-16.789 41.551-.254 78.519 3.309 116.59 12.043 24.34 5.68 52.574 12.461 77.164 16.617 12.551 2.207 27.39-30.441 41.719-71.312v102.433c-22.215-6.191-69.106-20.011-105.907-27.39-39.855-8.055-87.422-12.973-129.566-12.887-42.313.168-63.594 10.258-92.594 29.422-33.156 21.879-44.18 57.152-44.18 81.656" fill="#ee1b28"/><path d="m392.164 401.574c0 61.649-.426 132.11 10.512 183.664 3.476 16.367 16.621 39.43 32.902 39.602 15.516.168 26.539-15.266 31.543-28.238 8.055-21.114 17.723-51.383 22.215-84.793h6.105v152.796h-9.074c-9.75-25.179-18.82-33.406-25.519-28.742-12.125 8.395-19.758 11.7-32.477 11.7-28.406 0-49.859-20.688-60.461-44.516-27.047-60.629-29.336-128.039-29.336-201.473 0-73.429 2.289-140.84 29.336-201.469 10.602-23.828 32.055-44.519 60.461-44.519 12.719 0 20.352 3.309 32.477 11.703 6.699 4.664 15.769-3.562 25.519-28.746h9.074v152.801h-6.105c-4.492-33.41-14.16-63.68-22.215-84.793-5.004-12.977-16.027-28.406-31.543-28.238-16.281.167-29.426 23.234-32.902 39.601-10.938 51.551-10.512 122.016-10.512 183.66" fill="#221e1f"/></g></svg>