<svg height="379.77798" viewBox="0 0 241.6 303.82239" width="302" xmlns="http://www.w3.org/2000/svg" xmlns:xlink="http://www.w3.org/1999/xlink"><clipPath id="a"><path d="m22 50.84375h49v38.984375h-49zm0 0"/></clipPath><g clip-path="url(#a)" transform="matrix(4.9108782 0 0 7.8087327 -107.71888 -397.26235)"><path d="m46.617188 50.976562c3.873788 2.476398 8.302595 4.55974 13.006021 4.371092 3.427487.0126 6.861749-.495816 10.13851-1.499994 1.658428 5.521704 1.718934 11.64791-.335941 17.082032-1.481005 3.89119-4.339069 7.083979-7.59768 9.600632-4.641899 3.692746-9.834451 6.665211-15.210913 9.149368-1.837691-.605032-3.519678-1.701401-5.279248-2.533025-4.711438-2.654027-9.387366-5.540009-13.236378-9.377132-3.098731-3.11611-5.108428-7.247024-5.714717-11.596726-.601215-4.076566-.299833-8.307741.892629-12.248586 1.159431.211697 2.449759.681351 3.692097.852189 3.455796.59524 7.040399.888245 10.508632.247701 3.219846-.747773 6.208834-2.259191 8.969011-4.047548l.124642-.000002.04333-.000001z" fill="#235e3a" fill-rule="evenodd"/></g><g fill-rule="evenodd"><path d="m221.96218 174.20877c-5.39027 18.26072-16.53429 34.03719-27.64287 49.23162-20.64537 26.67488-45.51931 49.91034-72.45857 70.11019-3.43348.53413-6.40939-4.10624-9.49586-5.76221-20.378412-15.94316-39.24602-33.8338-55.87627-53.67198 25.584961-19.74456 52.11763-39.4557 82.80048-50.46817 26.7028-8.47731 54.99666-8.16138 82.67309-9.43945zm-100.74973-164.196905c14.61819 13.264737 31.04746 26.961606 51.21357 29.87843 19.20588 1.824469 38.81014-.321496 57.1135-6.421794 6.14472 30.395222 7.21873 61.84278 3.79029 92.637389-1.47074 10.9058-3.27446 21.78457-6.24573 32.39385-15.51612-1.00475-31.10425-2.92908-46.5619-3.53017-18.53301 6.08314-37.31894 11.5563-55.69482 18.0184-18.20121 9.41543-36.402423 18.83087-54.603633 28.2463-6.758851 8.58147-13.517703 17.16295-20.276554 25.74442-18.265966-22.23414-31.452705-48.61502-37.501965-76.78684-8.4504818-38.08235-7.8690207-77.957512-.531723-116.148449 4.542767.24651 10.011106 3.008105 15.029062 3.7204 16.671753 2.982148 34.2669 4.824776 50.858533.524125 16.320549-5.59705 30.27341-16.457005 42.5865-28.276061h.72956.0953z" fill="#007f42"/><path d="m121.21245 43.107468s23.5778 20.210598 38.54672 23.868751c14.0147 1.814691 28.56228.576779 42.06874-3.603364 1.61459 1.751804 1.085 6.335277 1.61297 9.219094 2.35881 24.356169 1.59122 49.142761-3.21685 73.165031-3.80186 18.92246-10.58474 37.39746-21.19431 53.59183-15.60365 23.59768-35.72744 44.01332-57.81727 61.57956-8.68574-5.59148-15.97257-13.22745-23.728213-20.04836-21.540463-20.77596-40.961197-44.99952-50.414539-73.77841-9.928853-30.11572-11.820942-62.42223-8.906177-93.845826.365691-3.279371.702357-6.562168 1.13702-9.833396 13.527316 4.051585 27.945251 5.574095 41.961738 3.679616 16.463863-4.607373 28.034321-14.598653 39.950171-23.994526z" fill="#eba328"/><path d="m184.68939 175.67291c-8.02953 19.57783-21.70524 36.23064-36.2599 51.33574-8.64091 8.61887-17.39234 17.21388-27.21704 24.49437-4.17053-1.69858-7.38534-5.60353-11.11712-8.23293-10.497681-8.60734-20.125907-18.22262-28.822132-28.64503 18.856852-12.21002 39.276502-22.02817 60.567412-29.19005 13.90327-4.70125 28.22184-8.2749 42.84878-9.7621zm-63.47694-123.353573c8.15196 6.821611 16.89016 13.294513 26.60604 17.713958 10.53881 4.919749 22.50097 4.089964 33.79031 3.338447 5.12278-.415265 10.18673-1.614912 15.16595-2.628661 3.73256 28.447335 2.75364 57.727029-4.91087 85.469019-5.36175-.0956-10.94854-2.21319-16.01612.33408-17.19242 5.67619-34.55393 10.94586-51.64096 16.87539-17.72579 9.12857-35.451586 18.25714-53.177379 27.38571-13.348097-18.02224-21.436748-39.48855-25.177735-61.50791-3.79823-22.62482-4.028156-45.821274-1.026412-68.556305 13.214141 3.1917 27.072286 4.197946 40.553109 2.318171 13.388245-3.575716 24.686287-12.078375 35.220207-20.741946l.50607.000039z" fill="#f3c500"/><path d="m7.7634902 154.32091c14.2671528-11.19321 29.9493878-20.46811 46.1195448-28.6173 19.404706-9.69653 39.744132-17.4801 60.767565-22.86745 24.88952-6.916513 50.68059-10.176985 76.45102-11.251306 16.57857-.580371 33.2312-.07656 49.69839 2.004806-.23553 24.81047-3.40485 49.68952-10.43562 73.5119-36.40071-2.19961-72.94568 5.02696-106.87428 17.99593-25.594479 10.26057-50.511991 23.29167-71.087503 41.8812-2.135839 1.11637-4.762579 7.26393-6.747171 4.38838-15.545818-19.17436-27.812541-41.10219-34.671051-64.88147-1.3968518-3.97527-2.3129186-8.05646-3.2208948-12.16469z" fill="#ba2e2b"/><path d="m13.902088 156.82214c21.673813-16.37481 45.84526-29.31821 71.320195-38.70862 19.603937-7.12166 39.598457-13.43762 60.264287-16.6219 27.9193-4.490636 56.37491-5.667732 84.57152-3.469861 2.75907.277921 7.51065-.563869 5.89802 3.671991-.77766 20.43439-3.50779 40.95485-10.09976 60.37497-22.86528-1.29781-45.73185 1.9912-67.9447 7.21246-24.69727 5.86951-48.74131 14.61836-71.304928 26.26548-10.969503 5.91919-21.736417 12.51878-30.98027 20.92745-2.668461 2.58271-5.458033 5.04984-7.731879 8.00338-15.647595-20.00466-27.939015-42.8954-33.992485-67.65535z" fill="#d73828"/><path d="m82.309084 184.48824-16.190547-33.52265 27.029012-13.39075 4.50803 9.42538-14.943646 7.5342 1.630564 3.35532 14.962832-7.35119 4.508031 9.21186-14.962829 7.56471 5.524738 11.28607zm0 0" fill="#ba2e2b"/><path d="m76.573336 182.38354-16.190552-33.70567 27.029012-13.20774 4.508034 9.4254-14.94365 7.32068 1.630564 3.56883 14.962832-7.5342 4.508034 9.42538-14.962832 7.32069 5.543919 11.53008zm0 0" fill="#fff"/><path d="m136.1561 122.2624c.47958 3.42649.95915 6.85297 1.43873 10.27946-2.52746.60769-5.19415.55285-7.6151 1.6106-3.02257 1.22167-6.50362 2.24029-8.3853 5.11425-1.22966 2.1422-1.31655 4.80666-.37784 7.07114.55875 2.33577 2.06962 4.64533 4.61106 5.06048 1.76712.31812 5.32322.40222 5.90364-1.30125-.84622-2.92346-1.69244-5.84692-2.53866-8.77038 4.09879-1.25062 8.19759-2.50123 12.29638-3.75185 1.91192 6.28359 3.82383 12.56718 5.73575 18.85077-6.77918 2.85594-13.59614 6.07278-20.98673 6.89231-2.04141.0141-4.12182-.16288-6.10084-.63845-3.4637-.95295-6.45124-3.21396-8.73324-5.93845-1.49876-2.24116-2.7749-4.64033-3.37573-7.28557-1.01604-3.02391-1.28237-6.30349-.68621-9.43741.97603-4.76657 4.10538-8.94036 8.15503-11.57943 3.71992-2.26398 7.79317-3.98218 12.09198-4.76662 2.8237-.64394 5.68116-1.1493 8.56708-1.4096z" fill="#ba2e2b"/><path d="m130.63136 119.97468 1.22772 10.24896c-3.94782.59412-7.90351 1.43847-11.47332 3.29254-2.6374 1.15161-5.37889 3.33872-5.3233 6.49376-.20495 3.32122 1.02201 7.08396 4.09877 8.75143 2.26285.66303 5.28765 1.08721 6.9985-.92419-.7148-2.9619-2.49184-8.7983-2.49184-8.7983l12.29638-3.78237 5.52474 18.85078c-6.43064 2.8749-12.9909 5.84729-20.04086 6.75019-5.0634.43-10.51073-.92711-14.08506-4.72206-2.94071-2.81557-4.40148-6.7289-5.45977-10.56614-1.54732-6.42071.49409-13.79986 5.83481-17.89981 6.07109-4.73875 13.79766-6.61037 21.31047-7.49732.52731-.068 1.05495-.13346 1.58276-.19747z" fill="#fff"/><path d="m157.44936 154.74794-5.52474-37.09148 29.69547-4.39241 1.64975 10.46248-16.5934 2.53174.61386 3.75186 16.38238-2.50124 1.63057 10.27946-16.57422 2.50124 1.84158 12.56718zm0 0" fill="#ba2e2b"/><path d="m151.73279 152.85677-5.54392-37.06098 29.69547-4.63643 1.64975 10.7065-16.5934 2.50123.61386 3.78236 16.38238-2.53173 1.63056 10.27946-16.57421 2.50123 1.84158 12.56718zm0 0" fill="#fff"/></g></svg>