<svg height="2686.123" width="3596.2939" xmlns="http://www.w3.org/2000/svg" xmlns:xlink="http://www.w3.org/1999/xlink"><linearGradient id="a" gradientUnits="userSpaceOnUse" x1="182.813615" x2="280.237895" y1="383.783392" y2="383.783392"><stop offset="0" stop-color="#fff"/><stop offset="1" stop-color="#fff" stop-opacity="0"/></linearGradient><path d="m.5594.55938h3595.1753v2685.0044h-3595.1753z" fill="#fff" stroke="#000" stroke-width="1.118752"/><g transform="translate(1527.38895 538.56864)"><path d="m235.54532 53.182178h-8.1571l-66.16314 36.555894 26.28399-.30212v76.435048l-94.864055 58.91238 45.921455-.30211v36.25378l-138.06647 77.6435 40.483384-.90634v125.07552l380.664656-.30211.30212-125.98187 39.87915.90634-137.46224-77.03927-.30211-36.55589 45.61933 1.20845-95.16616-59.81873.60423-76.132928h25.98187z" fill="#fafa00" stroke="#000"/><path d="m162.24699 88.800602 65.67829-35.616941h7.60264l65.04474 35.830221z" fill="#fafa00" stroke="#000" stroke-width="1.99069"/><path d="m229.09947.5h5.36649l.13089 12.041884h11.78011v6.151833l-12.04189.26178.13089 32.853405h-5.49738l.26178-33.246075-12.30366.13089v-6.413613h12.17277z" stroke="#000"/><path d="m233.83412 140.13821 136.71001 85.316-46.85039-.3937-92.51968-55.90552-91.73229 56.29922-47.244094.7874 137.401574-86.12463z" fill="#fafa00" stroke="#000" stroke-width="2.3"/><path d="m210.79894 138.27641 40.67779.39752-.0691-31.40399c-6.09044-22.190898-35.31726-19.474248-40.60872 1.19256z" fill="#fefefe" stroke="#000" stroke-width="1.916308"/><path d="m229.25317 138.40141-.13831-24.99389h-3.66512l-.10471 25.34163-5.3406-.20943v-24.81805l-8.48212-.10472-.10471-4.92172 15.81234-.41887-8.79627-10.262308c.99798-2.20642 2.10976-3.0282 4.71229-2.9321l5.75946 7.853818v-9.948168l5.55003-.10472.20943 9.948168 6.07362-8.063248c2.01086.75808 4.02179 1.22813 4.50285 3.45568l-8.69155 9.948158 14.86989.41887v5.02644h-7.95854l.10472 24.82591-5.44531.0336-.10472-24.75479h-3.66511l.20944 24.23121z" fill="#161501" stroke="#000"/><path d="m211.91522 119.35655 38.60108-.18263v3.83523h-38.81088z" stroke="#000" stroke-width=".934604"/><path d="m211.8105 128.36226 38.60108-.18263v3.83523h-38.81088z" stroke="#000" stroke-width=".934604"/><path d="m212.22937 109.93197 38.60108-.18263v3.83523h-38.81088z" stroke="#000" stroke-width=".934604"/><path d="m231.34023 169.01306-91.96332 56.39834-.33563 236.27225 185.94045.33372-.33564-236.60597z" fill="#ff0" stroke="#000" stroke-width="1.794908"/><path d="m138.95637 260.8151-137.8641081 77.05265 39.9188611-1.63942v125.00565l98.356777.81971z" fill="#ff0" stroke="#000" stroke-width="1.995972"/><path d="m324.9606 261.02085 137.8641 77.05265-39.91886-1.63942v125.00566l-97.53372-.41486z" fill="#ff0" stroke="#000" stroke-width="1.995972"/><path d="m790.53499 248.97531c0 16.81855-14.92384 30.45268-33.33333 30.45268s-33.33333-13.63413-33.33333-30.45268 14.92384-30.45267 33.33333-30.45267 33.33333 13.63412 33.33333 30.45267z" fill="#fff" stroke="#000" stroke-width="2.085495" transform="matrix(1.1060115 0 0 1.2376612 -605.92679 -90.128346)"/><path d="m229.35068 181.77988 5.31579-.12863.25314 32.80244 26.579-15.951 2.78447 4.5023-27.08527 15.951 27.59154 16.20826-3.29074 4.75958-26.579-16.33691v31.38744l-5.6955-.25727.12657-31.90199-26.32586 16.3369-3.16417-4.75957 26.579-15.69372-27.88482-16.16542 2.91103-5.74582 27.75825 16.8944z" fill="#151515" stroke="#000" stroke-width="1.008022"/><path d="m174.82006 461.21468.28249-119.49153c14.42217-56.59142 95.54514-62.49867 112.99435-.56497l.56497 120.33898z" fill="#fff" stroke="#000" stroke-width="2.7"/><path d="m185.57312 458.69624.22807-109.18299c11.64312-51.70925 77.13424-57.10689 91.2211-.51622l.45611 109.95734z" fill="url(#a)" stroke="#000" stroke-width="5.519"/><path d="m184.74933 360.77304 92.64126-.65703v-4.73062l-36.92509-.13141 30.35479-25.22996-3.41655-4.86202-27.72668 23.52168 14.98029-34.42838-4.86202-2.62812-15.1117 35.74244.39422-37.97634h-6.17609l.26282 38.10775-15.1117-35.61104-6.04468 1.70828 16.03154 34.95401-27.98949-23.12747-3.41655 5.12484 31.01182 24.83574-38.76478.13141z" stroke="#000"/><path d="m229.39275 358.31849 5.37993-.00003.10346 100.03985-5.22296-.77407z" stroke="#000" stroke-width="1.554545"/><path d="m188.13588 361.23662 40.68548-.80949.17529 95.71232-40.87869.0881z"/><g fill="#fff" stroke="#fff" stroke-width="2.445014"><path d="m189.75562 362.29251h1.780353v1.574403h-1.780353z"/><path d="m207.67096 362.26132h1.780353v1.574403h-1.780353z"/><path d="m198.74652 362.30173h1.780353v1.574403h-1.780353z"/><path d="m216.57587 362.19559h1.780353v1.574403h-1.780353z"/><path d="m189.661927 453.039159h1.780353v1.574403h-1.780353z"/><path d="m225.491947 452.938579h1.780353v1.574403h-1.780353z"/><path d="m207.577277 453.007969h1.780353v1.574403h-1.780353z"/><path d="m198.652837 453.048379h1.780353v1.574403h-1.780353z"/><path d="m216.482177 452.942239h1.780353v1.574403h-1.780353z"/><path d="m189.698183 407.66908h1.780353v1.574403h-1.780353z"/><path d="m225.528203 407.5685h1.780353v1.574403h-1.780353z"/><path d="m207.613533 407.63789h1.780353v1.574403h-1.780353z"/><path d="m198.689093 407.6783h1.780353v1.574403h-1.780353z"/><path d="m216.518433 407.57216h1.780353v1.574403h-1.780353z"/><path d="m189.708649 416.63717h1.780353v1.574403h-1.780353z"/><path d="m225.538669 416.53659h1.780353v1.574403h-1.780353z"/><path d="m207.623999 416.60598h1.780353v1.574403h-1.780353z"/><path d="m198.699559 416.64639h1.780353v1.574403h-1.780353z"/><path d="m216.528899 416.54025h1.780353v1.574403h-1.780353z"/><path d="m189.876101 425.74025h1.780353v1.574403h-1.780353z"/><path d="m225.706121 425.63967h1.780353v1.574403h-1.780353z"/><path d="m207.791451 425.70906h1.780353v1.574403h-1.780353z"/><path d="m198.867011 425.74947h1.780353v1.574403h-1.780353z"/><path d="m216.696351 425.64333h1.780353v1.574403h-1.780353z"/><path d="m189.719114 434.53147h1.780353v1.574403h-1.780353z"/><path d="m225.549134 434.43089h1.780353v1.574403h-1.780353z"/><path d="m207.634464 434.50028h1.780353v1.574403h-1.780353z"/><path d="m198.710024 434.54069h1.780353v1.574403h-1.780353z"/><path d="m216.539364 434.43455h1.780353v1.574403h-1.780353z"/><path d="m189.719114 443.950617h1.780353v1.574403h-1.780353z"/><path d="m225.549134 443.850037h1.780353v1.574403h-1.780353z"/><path d="m207.634464 443.919427h1.780353v1.574403h-1.780353z"/><path d="m198.710024 443.959837h1.780353v1.574403h-1.780353z"/><path d="m216.539364 443.853697h1.780353v1.574403h-1.780353z"/><path d="m189.71912 371.86584h1.780353v1.574403h-1.780353z"/><path d="m225.54913 371.76523h1.780353v1.574403h-1.780353z"/><path d="m207.63446 371.83466h1.780353v1.574403h-1.780353z"/><path d="m198.71002 371.87506h1.780353v1.574403h-1.780353z"/><path d="m216.53937 371.76892h1.780353v1.574403h-1.780353z"/><path d="m189.71912 380.5618h1.780353v1.574403h-1.780353z"/><path d="m225.54913 380.46118h1.780353v1.574403h-1.780353z"/><path d="m207.63446 380.53061h1.780353v1.574403h-1.780353z"/><path d="m198.71002 380.57101h1.780353v1.574403h-1.780353z"/><path d="m216.53937 380.46487h1.780353v1.574403h-1.780353z"/><path d="m189.71912 389.20651h1.780353v1.574403h-1.780353z"/><path d="m225.54913 389.1059h1.780353v1.574403h-1.780353z"/><path d="m207.63446 389.17532h1.780353v1.574403h-1.780353z"/><path d="m198.71002 389.21573h1.780353v1.574403h-1.780353z"/><path d="m216.53937 389.10959h1.780353v1.574403h-1.780353z"/><path d="m189.64586 397.87317h1.780353v1.574403h-1.780353z"/><path d="m225.47588 397.77255h1.780353v1.574403h-1.780353z"/><path d="m207.5612 397.84198h1.780353v1.574403h-1.780353z"/><path d="m198.63676 397.88239h1.780353v1.574403h-1.780353z"/><path d="m216.46611 397.77625h1.780353v1.574403h-1.780353z"/><path d="m225.58563 362.19189h1.780353v1.574403h-1.780353z"/></g><path d="m233.4045 360.48584 42.073-.82372.18127 97.39427-42.27281.0896z"/><path d="m235.02362 362.2009h1.780353v1.574403h-1.780353z" fill="#fff" stroke="#fff" stroke-width="2.445014"/><path d="m252.93898 362.16971h1.780353v1.574403h-1.780353z" fill="#fff" stroke="#fff" stroke-width="2.445014"/><path d="m244.01451 362.21011h1.780353v1.574403h-1.780353z" fill="#fff" stroke="#fff" stroke-width="2.445014"/><path d="m261.84387 362.10397h1.780353v1.574403h-1.780353z" fill="#fff" stroke="#fff" stroke-width="2.445014"/><path d="m234.929923 452.947555h1.780353v1.574403h-1.780353z" fill="#fff" stroke="#fff" stroke-width="2.445014"/><path d="m270.759943 452.846975h1.780353v1.574403h-1.780353z" fill="#fff" stroke="#fff" stroke-width="2.445014"/><path d="m252.845273 452.916365h1.780353v1.574403h-1.780353z" fill="#fff" stroke="#fff" stroke-width="2.445014"/><path d="m243.920833 452.956775h1.780353v1.574403h-1.780353z" fill="#fff" stroke="#fff" stroke-width="2.445014"/><path d="m261.750173 452.850635h1.780353v1.574403h-1.780353z" fill="#fff" stroke="#fff" stroke-width="2.445014"/><path d="m234.966183 407.57747h1.780353v1.574403h-1.780353z" fill="#fff" stroke="#fff" stroke-width="2.445014"/><path d="m270.796203 407.47689h1.780353v1.574403h-1.780353z" fill="#fff" stroke="#fff" stroke-width="2.445014"/><path d="m252.881533 407.54628h1.780353v1.574403h-1.780353z" fill="#fff" stroke="#fff" stroke-width="2.445014"/><path d="m243.957093 407.58669h1.780353v1.574403h-1.780353z" fill="#fff" stroke="#fff" stroke-width="2.445014"/><path d="m261.786433 407.48055h1.780353v1.574403h-1.780353z" fill="#fff" stroke="#fff" stroke-width="2.445014"/><path d="m234.976643 416.54556h1.780353v1.574403h-1.780353z" fill="#fff" stroke="#fff" stroke-width="2.445014"/><path d="m270.806663 416.44498h1.780353v1.574403h-1.780353z" fill="#fff" stroke="#fff" stroke-width="2.445014"/><path d="m252.891993 416.51437h1.780353v1.574403h-1.780353z" fill="#fff" stroke="#fff" stroke-width="2.445014"/><path d="m243.967553 416.55478h1.780353v1.574403h-1.780353z" fill="#fff" stroke="#fff" stroke-width="2.445014"/><path d="m261.796893 416.44864h1.780353v1.574403h-1.780353z" fill="#fff" stroke="#fff" stroke-width="2.445014"/><path d="m235.144103 425.64864h1.780353v1.574403h-1.780353z" fill="#fff" stroke="#fff" stroke-width="2.445014"/><path d="m270.974123 425.54806h1.780353v1.574403h-1.780353z" fill="#fff" stroke="#fff" stroke-width="2.445014"/><path d="m253.059453 425.61745h1.780353v1.574403h-1.780353z" fill="#fff" stroke="#fff" stroke-width="2.445014"/><path d="m244.135013 425.65786h1.780353v1.574403h-1.780353z" fill="#fff" stroke="#fff" stroke-width="2.445014"/><path d="m261.964353 425.55172h1.780353v1.574403h-1.780353z" fill="#fff" stroke="#fff" stroke-width="2.445014"/><path d="m234.987113 434.43986h1.780353v1.574403h-1.780353z" fill="#fff" stroke="#fff" stroke-width="2.445014"/><path d="m270.817133 434.33928h1.780353v1.574403h-1.780353z" fill="#fff" stroke="#fff" stroke-width="2.445014"/><path d="m252.902463 434.40867h1.780353v1.574403h-1.780353z" fill="#fff" stroke="#fff" stroke-width="2.445014"/><path d="m243.978023 434.44908h1.780353v1.574403h-1.780353z" fill="#fff" stroke="#fff" stroke-width="2.445014"/><path d="m261.807363 434.34294h1.780353v1.574403h-1.780353z" fill="#fff" stroke="#fff" stroke-width="2.445014"/><path d="m234.987113 443.859005h1.780353v1.574403h-1.780353z" fill="#fff" stroke="#fff" stroke-width="2.445014"/><path d="m270.817133 443.758425h1.780353v1.574403h-1.780353z" fill="#fff" stroke="#fff" stroke-width="2.445014"/><path d="m252.902463 443.827815h1.780353v1.574403h-1.780353z" fill="#fff" stroke="#fff" stroke-width="2.445014"/><path d="m243.978023 443.868225h1.780353v1.574403h-1.780353z" fill="#fff" stroke="#fff" stroke-width="2.445014"/><path d="m261.807363 443.762085h1.780353v1.574403h-1.780353z" fill="#fff" stroke="#fff" stroke-width="2.445014"/><path d="m234.98712 371.77423h1.780353v1.574403h-1.780353z" fill="#fff" stroke="#fff" stroke-width="2.445014"/><path d="m270.81711 371.67361h1.780353v1.574403h-1.780353z" fill="#fff" stroke="#fff" stroke-width="2.445014"/><path d="m252.90248 371.74304h1.780353v1.574403h-1.780353z" fill="#fff" stroke="#fff" stroke-width="2.445014"/><path d="m243.97801 371.78345h1.780353v1.574403h-1.780353z" fill="#fff" stroke="#fff" stroke-width="2.445014"/><path d="m261.80737 371.67731h1.780353v1.574403h-1.780353z" fill="#fff" stroke="#fff" stroke-width="2.445014"/><path d="m234.98712 380.47018h1.780353v1.574403h-1.780353z" fill="#fff" stroke="#fff" stroke-width="2.445014"/><path d="m270.81711 380.36957h1.780353v1.574403h-1.780353z" fill="#fff" stroke="#fff" stroke-width="2.445014"/><path d="m252.90248 380.439h1.780353v1.574403h-1.780353z" fill="#fff" stroke="#fff" stroke-width="2.445014"/><path d="m243.97801 380.4794h1.780353v1.574403h-1.780353z" fill="#fff" stroke="#fff" stroke-width="2.445014"/><path d="m261.80737 380.37326h1.780353v1.574403h-1.780353z" fill="#fff" stroke="#fff" stroke-width="2.445014"/><path d="m234.98712 389.1149h1.780353v1.574403h-1.780353z" fill="#fff" stroke="#fff" stroke-width="2.445014"/><path d="m270.81711 389.01428h1.780353v1.574403h-1.780353z" fill="#fff" stroke="#fff" stroke-width="2.445014"/><path d="m252.90248 389.08371h1.780353v1.574403h-1.780353z" fill="#fff" stroke="#fff" stroke-width="2.445014"/><path d="m243.97801 389.12411h1.780353v1.574403h-1.780353z" fill="#fff" stroke="#fff" stroke-width="2.445014"/><path d="m261.80737 389.01797h1.780353v1.574403h-1.780353z" fill="#fff" stroke="#fff" stroke-width="2.445014"/><path d="m234.91386 397.78156h1.780353v1.574403h-1.780353z" fill="#fff" stroke="#fff" stroke-width="2.445014"/><path d="m270.74387 397.68094h1.780353v1.574403h-1.780353z" fill="#fff" stroke="#fff" stroke-width="2.445014"/><path d="m252.82921 397.75037h1.780353v1.574403h-1.780353z" fill="#fff" stroke="#fff" stroke-width="2.445014"/><path d="m243.90475 397.79077h1.780353v1.574403h-1.780353z" fill="#fff" stroke="#fff" stroke-width="2.445014"/><path d="m261.7341 397.68463h1.780353v1.574403h-1.780353z" fill="#fff" stroke="#fff" stroke-width="2.445014"/><path d="m270.85361 362.10028h1.780353v1.574403h-1.780353z" fill="#fff" stroke="#fff" stroke-width="2.445014"/><g stroke="#000" transform="translate(-478.858155 -23.887624)"><path d="m562.29712 409.24341h38.106762v74.772354h-38.106762z" fill="#848484" stroke-width="2.594309"/><path d="m601.19259 431.31794-38.62929-.31153" fill="none" stroke-width="2.7"/></g><g transform="matrix(1.0185517 0 0 1 -571.384975 -27.029477)"><g transform="translate(-4.506801 2.2534)"><g fill="#fff" transform="matrix(1 0 0 .98148547 44.439587 -7.978056)"><path d="m603.18579 363.17975h37.041721v50.814178h-37.041721z" stroke="#000" stroke-width="2.985264"/><path d="m637.64313 366.59152h.162779v43.975155h-.162779z" stroke="#fff" stroke-width="3.839225"/></g><path d="m647.54611 347.72816 37.25307.00001c-1.3125-23.73781-36.53777-23.06566-37.25307-.00001z" fill="none" stroke="#000" stroke-width="2.7"/></g><g stroke="#000"><path d="m659.26039 333.34734 4.36596.14084-.14084 65.34861-4.08428-.14084z"/><path d="m650.80141 349.81661 3.96091.10998-.12778 51.0315-3.70535-.10999z" stroke-width=".841702"/><path d="m643.62057 358.48008 37.19483.008-1.19985 3.80814-34.79512-.008z" stroke-width=".704595"/><path d="m643.7614 367.35284 37.19483.008-1.19985 3.80814-34.79512-.008z" stroke-width=".704595"/><path d="m643.47973 376.36645 37.19483.008-1.19985 3.80814-34.79512-.008z" stroke-width=".704595"/><path d="m643.90224 385.38005 37.19483.008-1.19985 3.80814-35.92182-.14884z" stroke-width=".704595"/><path d="m668.82861 349.18284 3.96091.10998-.12778 51.0315-3.70535-.10999z" stroke-width=".841702"/><path d="m665.59808 350.67036 8.87277-10.98532c-.68128-2.30722-2.28801-3.07204-4.08429-3.52094l-9.15444 11.54867-8.59109-11.267c-2.18056.344-4.35634.69515-5.07015 3.23927l9.29528 10.98532z"/><path d="m643.42052 349.40722 37.17234.009-.21386 3.90796-37.02611.29164z" stroke-width=".727127"/></g></g><g stroke="#000" transform="translate(-220.38247 -23.609655)"><path d="m562.29712 409.24341h38.106762v74.772354h-38.106762z" fill="#848484" stroke-width="2.594309"/><path d="m601.19259 431.31794-38.62929-.31153" fill="none" stroke-width="2.7"/></g><g transform="matrix(1.0185517 0 0 1 -312.90929 -26.751508)"><g transform="translate(-4.506801 2.2534)"><g fill="#fff" transform="matrix(1 0 0 .98148547 44.439587 -7.978056)"><path d="m603.18579 363.17975h37.041721v50.814178h-37.041721z" stroke="#000" stroke-width="2.985264"/><path d="m637.64313 366.59152h.162779v43.975155h-.162779z" stroke="#fff" stroke-width="3.839225"/></g><path d="m647.54611 347.72816 37.25307.00001c-1.3125-23.73781-36.53777-23.06566-37.25307-.00001z" fill="none" stroke="#000" stroke-width="2.7"/></g><g stroke="#000"><path d="m659.26039 333.34734 4.36596.14084-.14084 65.34861-4.08428-.14084z"/><path d="m650.80141 349.81661 3.96091.10998-.12778 51.0315-3.70535-.10999z" stroke-width=".841702"/><path d="m643.62057 358.48008 37.19483.008-1.19985 3.80814-34.79512-.008z" stroke-width=".704595"/><path d="m643.7614 367.35284 37.19483.008-1.19985 3.80814-34.79512-.008z" stroke-width=".704595"/><path d="m643.47973 376.36645 37.19483.008-1.19985 3.80814-34.79512-.008z" stroke-width=".704595"/><path d="m643.90224 385.38005 37.19483.008-1.19985 3.80814-35.92182-.14884z" stroke-width=".704595"/><path d="m668.82861 349.18284 3.96091.10998-.12778 51.0315-3.70535-.10999z" stroke-width=".841702"/><path d="m665.59808 350.67036 8.87277-10.98532c-.68128-2.30722-2.28801-3.07204-4.08429-3.52094l-9.15444 11.54867-8.59109-11.267c-2.18056.344-4.35634.69515-5.07015 3.23927l9.29528 10.98532z"/><path d="m643.42052 349.40722 37.17234.009-.21386 3.90796-37.02611.29164z" stroke-width=".727127"/></g></g></g><g stroke="#000"><g transform="translate(1000.579522 509.688074)"><path d="m361.71558 493.56475 835.52642-1.31579 1.3157 471.05263c-1.0054 92.71721-10.0356 186.39731-97.3684 289.47371-151.5577 144.8993-260.23899 141.3804-367.10529 131.5789-153.5584-15.6157-213.81878-83.0636-275-150-77.42798-114.6666-85.87186-193.0258-98.68422-273.68419z" stroke-width="4"/><path d="m360.67908 496.80375 795.82982-1.31593 1.2531 471.10311c2.2549 94.33997-9.5588 186.41717-92.7423 289.50457-144.35706 144.9148-247.8748 141.3956-349.66377 131.593-231.47086-31.3363-326.49292-228.1195-355.93012-423.72946z" fill="#ff0" stroke-width="3.904031"/><path d="m360.25067 492.06516h796.52112v464.55255h-796.52112z" fill="#00007d" stroke-width="3.963579"/></g><g fill="#ff0" transform="translate(1914.21563 504.91986)"><path d="m-361.83206 974.35115 27.22646 19.84732-.25445 41.73033-27.22646 15.0127-28.24428-15.7761.50891-39.94912z" stroke-width="2.2"/><path d="m-306.48854 974.22391 27.22646 19.84732-.25445 41.73037-27.22646 15.0127-28.24428-15.7761.50891-39.94916z" stroke-width="2.2"/><path d="m-334.7311 1035.9809 27.80876 14.6382-.00068 37.9092-27.29986 14.7784-28.82934-14.167.001-37.6394z" stroke-width="2.049762"/><path d="m-279.26835 1035.5833 26.94202 14.6451-.00066 37.9271-26.44898 14.7854-27.93079-14.1737.00097-37.6571z" stroke-width="2.018041"/><path d="m-224.81542 1035.3288 26.94202 14.6451-.00066 37.9271-26.44898 14.7855-27.93079-14.1738.00097-37.6571z" stroke-width="2.018041"/><path d="m-170.48858 1035.0767 27.06582 14.6441-.00066 37.9245-26.57052 14.7844-28.05914-14.1727.00097-37.6546z" stroke-width="2.022604"/><path d="m-115.52446 1034.5723 27.313447 14.6422-.000666 37.9193-26.813611 14.7825-28.31585-14.1708.00098-37.6495z" stroke-width="2.031698"/><path d="m-60.308179 1034.8267 27.31345 14.6422-.00067 37.9193-26.81361 14.7825-28.31585-14.1708.00098-37.6495z" stroke-width="2.031698"/><path d="m-5.7313475 1035.3177 26.9530445 14.318-.000657 37.0799-26.4598041 14.4552-27.9422189-13.857.000966-36.8161z" stroke-width="1.995785"/><path d="m48.848805 1035.0633 26.953044 14.318-.000657 37.0799-26.459804 14.4552-27.942219-13.857.000966-36.8161z" stroke-width="1.995785"/><path d="m103.69584 1034.8467 29.82899 14.9432-.00069 38.0403-29.56551 15.3384-27.814254-17.0148.255453-36.4973z" stroke-width="2.071442"/><g stroke-width="2.2"><path d="m-251.27227 973.46053 27.22646 19.84732-.25445 41.73035-27.22646 15.0127-28.24428-15.7761.50891-39.94914z"/><path d="m-196.81933 973.46053 28.75318 19.84732-.25445 41.73045-29.77099 14.7582-26.20866-16.0305.25446-40.2037z"/><path d="m-142.11196 973.07883 28.75318 19.84732-.25445 41.73045-29.77099 14.7582-25.95421-14.2493.00001-41.9849z"/><path d="m-87.913481 973.07883 30.025445 20.61068-.25445 41.73049-29.77099 14.7582-26.208664-16.0305.25446-40.20374z"/><path d="m-32.442739 972.69714 30.0254395 20.61068-.25445 41.73048-30.2798955 14.5037-25.445301-14.5037.000007-41.47603z"/></g><path d="m21.146623 971.5102 27.750261 20.63317-.235169 41.77603-27.22208 15.0284-24.5349945-12.7383.2544621-43.81141z" stroke-width="2.116159"/><path d="m75.006466 972.04385 29.081954 20.61999-.24645 41.74936-28.528431 15.0188-25.712398-12.7302.266674-43.7834z" stroke-width="2.165648"/><path d="m131.8009 973.59234 30.02655 21.37174-.002 40.96252-27.92348 13.4836-29.82595-15.2675.53212-40.70538z" stroke-width="2.209219"/></g><g transform="translate(2009.27071 426.91782)"><path d="m-99.009907 1095.9406c0 14.4906-14.406683 26.2376-32.178223 26.2376s-32.17821-11.747-32.17821-26.2376c0-14.4907 14.40667-26.2377 32.17821-26.2377s32.178223 11.747 32.178223 26.2377z" fill="#aaaaaf" stroke-width="4.4" transform="matrix(1.0477195 0 0 1.3792787 -80.868471 -321.11243)"/><path d="m-219.07478 1168.6987 27.34163-21.1897 1.70885-.6835" fill="none" stroke-width="5.9"/><path d="m-224.88488 1173.4836c-3.13564-12.4946-13.71199-15.1598-18.79736-29.0506" fill="none" stroke-width="5"/><path d="m-252.2265 1186.129c-8.33623-14.0751-17.32608-17.0395-18.11383-25.291" fill="none" stroke-width="5"/><path d="m-184.21421 1196.7239c10.54786-4.3562 14.61873-13.7891 25.63278-16.7468" fill="none" stroke-width="5"/><path d="m-181.07682 1208.2826c16.48341 5.0929 31.51494 6.2604 34.45735 22.2765l-.34177 1.7089" fill="none" stroke-width="5.5"/><path d="m-265.13507 1210.7365c-4.95515 1.5526-14.60663-1.9141-22.29377 3.0759" fill="none" stroke-width="4.5"/><path d="m-191.3253 1286.2651-27.71084-59.2771-36.38555 55.9036c16.38779 86.0451 69.72493 56.9205 64.09639 3.3735z" fill="#ff0" stroke-width="3.2"/><g fill="none"><g><path d="m-219.07478 1205.6099c7.10403-10.714 16.49257-15.9056 41.35421 4.7848 102.551805 117.59 1.05706 156.5213-41.35421 15.0379-55.99417 125.6806-144.90326 85.1711-43.40483-17.0885 21.87378-15.7175 37.82759-19.0547 43.40483-2.7342z" fill="#fff" stroke-width="3.2"/><path d="m-199.03614 1197.3494c-19.06722-5.6-20.35991 10.4523-20 22.1687 1.18648-27.3449-10.9549-24.0051-17.10844-24.3374" fill="none" stroke-width="2.6"/></g><path d="m-199.27711 1197.1085c-6.0142 5.8935-4.32452 15.2385-1.68675 23.3734-8.15665-6.1372-12.73384-7.7554-18.07229 1.6868-6.1803-11.0214-8.40067-8.8732-19.99999-1.9278 3.03275-6.6281 7.35215-17.5667 2.89156-24.8192" stroke-width="5.2"/><path d="m-228.91566 1243.6145c-17.39328-15.6029-41.43931 32.9629-32.53012 43.1325" stroke-width="5.2"/><path d="m-183.33896 1296.2606c12.22941-24.1403-20.19181-63.608-28.19274-49.3976" stroke-width="5.2"/><path d="m-187.12286 1258.8882c9.16351-10.6258-20.67661-54.929-32.28912-35.4217" stroke-width="5.2"/><path d="m-253.25302 1249.8796c-4.94785-4.3534 4.47202-18.3571 17.59037-32.2892" stroke-width="5.2"/><path d="m-237.59036 1218.5542c-14.61491 17.9647-22.33524 22.1742-46.74699 21.2048 5.00079 18.6941 14.67354 24.2368-19.27711 58.3133 18.03334-19.0629 26.14822-19.7592 42.40964-12.2892" stroke-width="5.2"/><path d="m-199.75904 1224.0964c13.01972 19.4247 33.32665 25.7122 46.0241 24.0964-13.3645 22.4994-5.20432 41.6149 14.21687 62.4096-17.44009-22.4435-28.97236-20.8553-43.13253-17.5904" stroke-width="5.2"/><path d="m-192.04819 1307.2289c9.41499 5.9363 19.63819 17.6094 21.44578 32.5301" stroke-width="5.2"/><path d="m-247.22892 1309.8795c-15.04209 5.6013-25.19645 15.9261-28.67469 27.9518" stroke-width="5.2"/><path d="m-233.01205 1252.2892 23.61446-.241" stroke-width="5.2"/><path d="m-249.03615 1282.6507c16.18671-3.5964 32.57055-4.3173 49.3976-1.4459" stroke-width="5.2"/><path d="m-242.77109 1308.1141c16.18671-3.5964 28.2332-3.5944 45.06025-2.6507" stroke-width="5.2"/></g></g><g transform="matrix(-.82931807 -.55877682 -.55877682 .82931807 2138.66991 519.61782)"><path d="m-99.009907 1095.9406c0 14.4906-14.406683 26.2376-32.178223 26.2376s-32.17821-11.747-32.17821-26.2376c0-14.4907 14.40667-26.2377 32.17821-26.2377s32.178223 11.747 32.178223 26.2377z" fill="#aaaaaf" stroke-width="4.4" transform="matrix(1.0477195 0 0 1.3792787 -80.868471 -321.11243)"/><path d="m-219.07478 1168.6987 27.34163-21.1897 1.70885-.6835" fill="none" stroke-width="5.9"/><path d="m-224.88488 1173.4836c-3.13564-12.4946-13.71199-15.1598-18.79736-29.0506" fill="none" stroke-width="5"/><path d="m-252.2265 1186.129c-8.33623-14.0751-17.32608-17.0395-18.11383-25.291" fill="none" stroke-width="5"/><path d="m-184.21421 1196.7239c10.54786-4.3562 14.61873-13.7891 25.63278-16.7468" fill="none" stroke-width="5"/><path d="m-181.07682 1208.2826c16.48341 5.0929 31.51494 6.2604 34.45735 22.2765l-.34177 1.7089" fill="none" stroke-width="5.5"/><path d="m-265.13507 1210.7365c-4.95515 1.5526-14.60663-1.9141-22.29377 3.0759" fill="none" stroke-width="4.5"/><path d="m-191.3253 1286.2651-27.71084-59.2771-36.38555 55.9036c16.38779 86.0451 69.72493 56.9205 64.09639 3.3735z" fill="#ff0" stroke-width="3.2"/><g fill="none"><g><path d="m-219.07478 1205.6099c7.10403-10.714 16.49257-15.9056 41.35421 4.7848 102.551805 117.59 1.05706 156.5213-41.35421 15.0379-55.99417 125.6806-144.90326 85.1711-43.40483-17.0885 21.87378-15.7175 37.82759-19.0547 43.40483-2.7342z" fill="#fff" stroke-width="3.2"/><path d="m-199.03614 1197.3494c-19.06722-5.6-20.35991 10.4523-20 22.1687 1.18648-27.3449-10.9549-24.0051-17.10844-24.3374" fill="none" stroke-width="2.6"/></g><path d="m-199.27711 1197.1085c-6.0142 5.8935-4.32452 15.2385-1.68675 23.3734-8.15665-6.1372-12.73384-7.7554-18.07229 1.6868-6.1803-11.0214-8.40067-8.8732-19.99999-1.9278 3.03275-6.6281 7.35215-17.5667 2.89156-24.8192" stroke-width="5.2"/><path d="m-228.91566 1243.6145c-17.39328-15.6029-41.43931 32.9629-32.53012 43.1325" stroke-width="5.2"/><path d="m-183.33896 1296.2606c12.22941-24.1403-20.19181-63.608-28.19274-49.3976" stroke-width="5.2"/><path d="m-187.12286 1258.8882c9.16351-10.6258-20.67661-54.929-32.28912-35.4217" stroke-width="5.2"/><path d="m-253.25302 1249.8796c-4.94785-4.3534 4.47202-18.3571 17.59037-32.2892" stroke-width="5.2"/><path d="m-237.59036 1218.5542c-14.61491 17.9647-22.33524 22.1742-46.74699 21.2048 5.00079 18.6941 14.67354 24.2368-19.27711 58.3133 18.03334-19.0629 26.14822-19.7592 42.40964-12.2892" stroke-width="5.2"/><path d="m-199.75904 1224.0964c13.01972 19.4247 33.32665 25.7122 46.0241 24.0964-13.3645 22.4994-5.20432 41.6149 14.21687 62.4096-17.44009-22.4435-28.97236-20.8553-43.13253-17.5904" stroke-width="5.2"/><path d="m-192.04819 1307.2289c9.41499 5.9363 19.63819 17.6094 21.44578 32.5301" stroke-width="5.2"/><path d="m-247.22892 1309.8795c-15.04209 5.6013-25.19645 15.9261-28.67469 27.9518" stroke-width="5.2"/><path d="m-233.01205 1252.2892 23.61446-.241" stroke-width="5.2"/><path d="m-249.03615 1282.6507c16.18671-3.5964 32.57055-4.3173 49.3976-1.4459" stroke-width="5.2"/><path d="m-242.77109 1308.1141c16.18671-3.5964 28.2332-3.5944 45.06025-2.6507" stroke-width="5.2"/></g></g><g transform="matrix(.80987997 -.58659562 .58659562 .80987997 1391.47822 526.71423)"><path d="m-99.009907 1095.9406c0 14.4906-14.406683 26.2376-32.178223 26.2376s-32.17821-11.747-32.17821-26.2376c0-14.4907 14.40667-26.2377 32.17821-26.2377s32.178223 11.747 32.178223 26.2377z" fill="#aaaaaf" stroke-width="4.4" transform="matrix(1.0477195 0 0 1.3792787 -80.868471 -321.11243)"/><path d="m-219.07478 1168.6987 27.34163-21.1897 1.70885-.6835" fill="none" stroke-width="5.9"/><path d="m-224.88488 1173.4836c-3.13564-12.4946-13.71199-15.1598-18.79736-29.0506" fill="none" stroke-width="5"/><path d="m-252.2265 1186.129c-8.33623-14.0751-17.32608-17.0395-18.11383-25.291" fill="none" stroke-width="5"/><path d="m-184.21421 1196.7239c10.54786-4.3562 14.61873-13.7891 25.63278-16.7468" fill="none" stroke-width="5"/><path d="m-181.07682 1208.2826c16.48341 5.0929 31.51494 6.2604 34.45735 22.2765l-.34177 1.7089" fill="none" stroke-width="5.5"/><path d="m-265.13507 1210.7365c-4.95515 1.5526-14.60663-1.9141-22.29377 3.0759" fill="none" stroke-width="4.5"/><path d="m-191.3253 1286.2651-27.71084-59.2771-36.38555 55.9036c16.38779 86.0451 69.72493 56.9205 64.09639 3.3735z" fill="#ff0" stroke-width="3.2"/><g fill="none"><g><path d="m-219.07478 1205.6099c7.10403-10.714 16.49257-15.9056 41.35421 4.7848 102.551805 117.59 1.05706 156.5213-41.35421 15.0379-55.99417 125.6806-144.90326 85.1711-43.40483-17.0885 21.87378-15.7175 37.82759-19.0547 43.40483-2.7342z" fill="#fff" stroke-width="3.2"/><path d="m-199.03614 1197.3494c-19.06722-5.6-20.35991 10.4523-20 22.1687 1.18648-27.3449-10.9549-24.0051-17.10844-24.3374" fill="none" stroke-width="2.6"/></g><path d="m-199.27711 1197.1085c-6.0142 5.8935-4.32452 15.2385-1.68675 23.3734-8.15665-6.1372-12.73384-7.7554-18.07229 1.6868-6.1803-11.0214-8.40067-8.8732-19.99999-1.9278 3.03275-6.6281 7.35215-17.5667 2.89156-24.8192" stroke-width="5.2"/><path d="m-228.91566 1243.6145c-17.39328-15.6029-41.43931 32.9629-32.53012 43.1325" stroke-width="5.2"/><path d="m-183.33896 1296.2606c12.22941-24.1403-20.19181-63.608-28.19274-49.3976" stroke-width="5.2"/><path d="m-187.12286 1258.8882c9.16351-10.6258-20.67661-54.929-32.28912-35.4217" stroke-width="5.2"/><path d="m-253.25302 1249.8796c-4.94785-4.3534 4.47202-18.3571 17.59037-32.2892" stroke-width="5.2"/><path d="m-237.59036 1218.5542c-14.61491 17.9647-22.33524 22.1742-46.74699 21.2048 5.00079 18.6941 14.67354 24.2368-19.27711 58.3133 18.03334-19.0629 26.14822-19.7592 42.40964-12.2892" stroke-width="5.2"/><path d="m-199.75904 1224.0964c13.01972 19.4247 33.32665 25.7122 46.0241 24.0964-13.3645 22.4994-5.20432 41.6149 14.21687 62.4096-17.44009-22.4435-28.97236-20.8553-43.13253-17.5904" stroke-width="5.2"/><path d="m-192.04819 1307.2289c9.41499 5.9363 19.63819 17.6094 21.44578 32.5301" stroke-width="5.2"/><path d="m-247.22892 1309.8795c-15.04209 5.6013-25.19645 15.9261-28.67469 27.9518" stroke-width="5.2"/><path d="m-233.01205 1252.2892 23.61446-.241" stroke-width="5.2"/><path d="m-249.03615 1282.6507c16.18671-3.5964 32.57055-4.3173 49.3976-1.4459" stroke-width="5.2"/><path d="m-242.77109 1308.1141c16.18671-3.5964 28.2332-3.5944 45.06025-2.6507" stroke-width="5.2"/></g></g><g transform="translate(2417.96252 394.06727)"><path d="m-472.18045 915.18797c-36.23211-53.79664-67.46044-45.88007-97.74436-26.31579-51.61494-47.41689-79.02691-50.81414-139.84963-60.15038-31.1716-22.94819-55.8423-62.14861-83.45864-93.98496-9.05804-8.26841-16.74716-6.95445-21.80451 12.78196-14.79382-3.51733-24.50464-.68093-23.30827 15.78947-22.03707-4.51804-18.41793 8.7259-15.0376 21.80451-31.4007-2.9283-23.64208 11.54755-20.30075 24.06015-21.80048-2.92792-17.17998 11.54699-12.03008 24.06015l121.80452 51.12782c-7.73443 3.17889-14.88595 6.70754-12.78196 15.78948-15.17027-.67324-21.67121 4.43306-18.79699 15.78947-27.07045-3.81873-36.51092 1.8556-37.59399 12.03007-14.39896-1.82123-29.45035-5.11042-36.09022 10.52632-11.73614-.46931-23.4594-.90426-29.32331 14.28571-9.14745 1.53603-20.24922-1.32514-21.80451 17.29324-16.05018 4.81489-20.27474 10.47447-8.27068 17.29323 94.59798 27.97948 207.8702 56.95158 287.21805 2.25564 64.58475 15.46744 148.79271-24.73101 169.17293-74.43609z" fill="#fff" stroke-width="3.3"/><path d="m-759.43681 995.05488c28.8584 4.24505 2.85512-26.06389 21.56012-23.41876 27.89282 2.64149.3883-22.97722 20.81667-24.90565 21.9751 2.18596-4.07806-23.50936 20.44495-14.49733 16.9224 2.61513 12.6788-6.34675 15.6125-14.1256" fill="none" stroke-width="4.8"/><path d="m-679.14393 970.14922c9.55005-1.68497 9.98824-6.50208 6.69107-11.15179-5.17472-8.43614 3.45897-10.76141 10.40833-13.01042 7.20366.36054 11.98752-2.73577 12.26697-12.26696" fill="none" stroke-width="4.8"/><path d="m-645.68857 989.47899c11.38473-7.51681 21.05586-23.636 27.50775-42.00507" fill="none" stroke-width="4.8"/><path d="m-524.50579 911.60236c0 2.56623-2.32999 4.64657-5.20417 4.64657s-5.20417-2.08034-5.20417-4.64657c0-2.56624 2.32999-4.64658 5.20417-4.64658s5.20417 2.08034 5.20417 4.64658z" stroke-width="4.800274" transform="matrix(1.415435 0 0 1.2652872 223.77732 -240.16365)"/><g fill="none"><path d="m-747.54157 874.24384c3.73089-6.67485 16.45451.22734 21.56013-17.47113 1.82205-11.95011 13.00026-10.60944 18.21458-15.24078" stroke-width="4.8"/><path d="m-780.06762 859.37479c4.47434-9.64866 16.45451.22734 21.56013-17.47113 3.68068-16.41083 17.8327-7.63563 23.04702-14.49733" stroke-width="4.8"/><path d="m-814.08058 748.60036c24.79781 26.14475 49.61664 52.28949 77.31907 78.43424" stroke-width="4.8"/><path d="m-837.12761 764.027c26.28472 22.05576 42.18211 28.87073 68.02591 56.87412" stroke-width="4.8"/><path d="m-849.58043 785.95885c25.91299 19.8254 47.01455 38.16389 66.16727 48.69614" stroke-width="4.8"/><path d="m-870.58297 808.63416c27.3999 17.59504 62.62705 29.98591 81.77977 40.51816" stroke-width="4.8"/><path d="m-760.18026 885.76736c31.70703 8.57144 49.68473 27.04229 64.30865-6.69108 8.64063-30.5852 25.05706-19.47346 31.225-26.76429" stroke-width="4.8"/><path d="m-867.98088 939.85354c27.77162 14.99296 67.83122 6.93888 86.98394 17.47113" stroke-width="4.8"/><path d="m-831.17998 928.70174c28.38339 9.85463 53.19414 7.00876 73.97352 14.86905" stroke-width="4.8"/><path d="m-794.56494 916.99236c28.38339 9.85463 42.7858 7.75221 63.56518 13.75387" stroke-width="4.8"/><path d="m-774.49172 900.82227c26.52476 7.25255 34.2361 11.8412 55.01548 17.84286" stroke-width="4.8"/><path d="m-918.16393 972.75131c35.81792 19.51952 84.04742 9.98257 115.23514 18.21459" stroke-width="4.8"/><path d="m-897.34729 954.35086c36.93313 16.91744 78.47156 14.44329 109.65928 22.67531" stroke-width="4.8"/></g><g fill="#fff"><path d="m-668.7356 835.95603-11.89524-20.81667c-.006-5.18943-1.92755-10.6183 5.5759-14.86905-3.10949-10.45487-14.64693-24.65549-1.48691-27.87947-8.29181-14.30673-5.45981-20.13819 7.0628-18.58632l-33.82709-43.12025c-9.71112-16.87892-2.96897-19.13271 4.83244-20.44494-3.25165-12.79933-4.85868-24.07152 5.5759-24.16221.94931-12.40865 5.14942-18.64077 15.98423-12.26697 40.12846 42.40677 82.96484 80.30033 126.01521 117.83724 16.54518 21.96826 19.74791 42.21491 5.57589 60.21966-15.18277 17.28216-43.37235 23.88472-47.95269 37.17262-19.86864-14.19878-40.96897-27.65855-75.46044-33.08364z" stroke-width="3.3"/><g stroke-width="4.8"><path d="m-690.66745 667.1923c15.50593 11.13703 41.78902 44.6275 59.10448 64.30865"/><path d="m-695.87162 692.09796c11.89119 24.41581 44.90594 42.33938 69.14109 60.96311"/><path d="m-666.13352 753.4328c7.8022 12.52057 11.8223 10.74265 21.93185 18.58631"/><path d="m-674.49735 772.01912c8.17393 11.40539 15.91129 18.5489 24.53393 25.64911"/><path d="m-672.82458 799.34099c8.54565 13.26402 15.53956 19.29235 24.1622 24.90566"/><path d="m-597.73587 747.11345c-24.8611 6.33416 3.10457 18.62671-18.58632 26.02084-14.91841 11.69729 9.01181 18.84579-12.26697 30.48155-5.54737 3.92051-9.21495 7.62141-5.57589 20.44495"/><path d="m-567.25432 779.08191c-6.60369.6625-13.17713 1.59733-17.84286 19.7015-3.22539 19.3362-20.52861 3.30945-15.24078 34.19882"/></g></g><path d="m-506.29121 1038.5469 17.11099-31.225" fill="none" stroke-width="4.8"/><path d="m-496.90141 960.28169c-11.84416 21.22062-11.61309 31.70545 5.6338 46.47891 26.71003 12.4794 35.52602 9.7174 53.83705-13.85728-13.63034-1.04137-23.94798 6.38351-40.0404 2.20526l-5.14674-7.42663c-10.31921-7.12791-12.81066-13.34635-14.28371-27.40026z" fill="#368470" stroke-width="2.7"/><path d="m-494.02391 984.82072 5.57769 22.50998" fill="none" stroke-width="6.1"/><path d="m-488.04781 1007.1315 23.30678-3.5857" fill="none" stroke-width="5.2"/><path d="m-486.05578 1003.745 11.9522-6.97209-9.16335-8.36654z"/><path d="m-432.47012 967.88845c-10.70159 18.90486-24.10337 33.27185-44.0239 24.10358-20.18709-13.48524-25.84855-34.86598-8.16733-51.79283.85746 15.9893 3.51917 21.53636 13.54582 31.87251 9.23021 8.0669 28.48323 2.60218 38.64541-4.18326z" fill="#368470" stroke-width="2.4"/><path d="m-479.28287 990.59761 20.71713-7.56972" fill="none" stroke-width="5.5"/><path d="m-484.51951 967.23349 5.37046 18.24822" fill="none" stroke-width="5.385291"/><path d="m-481.47411 987.41036 13.34662-12.74901" fill="none" stroke-width="3.1"/><path d="m-472.31075 970.27888.1992 8.16734" fill="none" stroke-width="4.4"/><path d="m-478.32704 992.78218 4.79803 1.8454" fill="none" stroke-width="3.2"/><path d="m-422.86302 946.94118c-5.51878 20.23503-19.90583 30.85383-44.37304 26.1441l-5.63658-4.4373c-8.13687-9.73363-11.33547-20.40806-10.07387-31.4209l7.91519-14.75104c.57146 11.50679.68536 23.25441 13.07205 28.54266l5.75651 2.99818c12.73216 2.95366 22.84075-1.13632 33.33974-7.0757z" fill="#368470" stroke-width="2.1"/><path d="m-470.12378 970.78958 20.61985-7.4013" fill="none" stroke-width="5.434179"/><path d="m-472.47093 969.44556 14.78712-15.62662" fill="none" stroke-width="2.483835"/><path d="m-468.1451 963.90128-3.21885-13.29274" fill="none" stroke-width="6.378952"/><path d="m-470.84272 961.53445 1.07934 5.03694" fill="none" stroke-width="2.2"/><path d="m-460.51265 950.54062-.2838 6.49533" fill="none" stroke-width="2.794628"/><path d="m-416.02718 931.47058c-12.59126 18.97565-22.11307 24.01146-42.4542 21.2271-17.62908-10.58679-20.69888-26.91856-10.79344-41.85457 3.84376 15.99977 6.8692 18.91873 19.18834 25.30462l10.91337-6.59599z" fill="#368470" stroke-width="2.1"/><path d="m-500.75269 927.23059c2.9668 4.05569 20.38928 13.53089 47.44175 11.81736" fill="none" stroke-width="4.957515"/><path d="m-437.37421 940.46511-19.9079 10.31373-1.7989-.59963-5.63658-17.62929" fill="none" stroke-width="5.8"/><path d="m-459.08101 947.78066 8.75468-11.99271" fill="none" stroke-width="2.3"/><path d="m-454.0806 935.57172h.843996v1.745454h-.843996z" fill="none" stroke-width="2.322"/><path d="m-461.59015 894.08735c-10.77033 15.05176-5.18408 32.56338 6.83091 39.75364l5.59911 1.67973 7.27883-6.94289c25.22675 2.60465 36.10136-2.97785 48.37626-19.93281h-16.57335l-20.6047 1.90369-11.53416 6.49496c-12.41632-7.20418-17.77253-15.30421-19.3729-22.95632z" fill="#368470" stroke-width="2.1"/><path d="m-456.87908 914.92383 5.80743 19.02132" fill="none" stroke-width="5.663563"/><path d="m-444.3353 914.02975.0928 17.11407" fill="none" stroke-width="7.719197"/><path d="m-451.37271 933.81393 7.11272-3.86524" fill="none" stroke-width="6.469809"/><path d="m-441.54535 919.3953 12.54199-8.95857" fill="none" stroke-width="2.7"/><path d="m-441.58931 923.69458 21.36451-4.56721" fill="none" stroke-width="6.13604"/><path d="m-429.9344 908.55029c12.54273 1.30811 25.11251 1.12808 38.11276-22.72778-3.65786-.57397-7.6495-.64725-12.23804.17482 5.89381-8.15344 10.80432-16.9624 9.79044-29.72095-10.64887 1.82681-20.21233 7.27337-29.00392 18.3866-1.82891-5.39667-3.32752-11.94632-8.2347-16.46349-5.81753 4.29723-8.99871 10.70355-12.5877 16.7836-1.34519-3.20133-3.84141-5.48184-7.51765-6.81833-10.63623 17.71596-10.70503 33.64773 4.89521 44.23178 5.59453.79984 11.18907-1.31813 16.7836-3.84625z" fill="#368470" stroke-width="2.708467"/><path d="m-410.81637 876.92621c-11.86982 10.66352-23.77183 24.5803-28.918 35.24382" fill="none" stroke-width="5.3"/><path d="m-444.25281 875.29957c-1.16241 9.44246.81197 19.05138 8.31392 26.56842" fill="none" stroke-width="2.8"/><path d="m-423.82947 875.29958c-2.98573 4.94293-4.72054 10.42197-4.3377 16.80858" fill="none" stroke-width="2.4"/><path d="m-443.52987 911.80856-4.51843-17.35081" fill="none" stroke-width="5.5"/><path d="m-435.75815 908.55528c5.64944-3.31626 13.81003-7.64848 22.23071-9.21762" fill="none" stroke-width="5.8"/><path d="m-403.04465 885.0594c-7.10901 6.66089-16.0254 9.43896-23.13441 9.39835" fill="none" stroke-width="2.8"/><path d="m-433.40856 882.1676 1.26516 16.98933" fill="none" stroke-width="5.3"/></g><g transform="translate(1037.847742 563.258928)"><path d="m135.33755 798.99654c-1.01271 118.44378 6.82671 205.74376 16.87895 276.11286" fill="none" stroke-width="6.1"/><path d="m342.33899 250.48486c0 11.53845-8.69735 20.89221-19.42609 20.89221-10.72873 0-19.42609-9.35376-19.42609-20.89221 0-11.53844 8.69736-20.8922 19.42609-20.8922 10.72874 0 19.42609 9.35376 19.42609 20.8922z" fill="#f40b03" stroke-width="5.3" transform="matrix(1.0289219 0 0 .83390987 -6.040495 33.539405)"/><path d="m342.33899 250.48486c0 11.53845-8.69735 20.89221-19.42609 20.89221-10.72873 0-19.42609-9.35376-19.42609-20.89221 0-11.53844 8.69736-20.8922 19.42609-20.8922 10.72874 0 19.42609 9.35376 19.42609 20.8922z" fill="#f40b03" stroke-width="5.3" transform="matrix(1.0289219 0 0 .83390987 -117.46559 165.12367)"/><path d="m342.33899 250.48486c0 11.53845-8.69735 20.89221-19.42609 20.89221-10.72873 0-19.42609-9.35376-19.42609-20.89221 0-11.53844 8.69736-20.8922 19.42609-20.8922 10.72874 0 19.42609 9.35376 19.42609 20.8922z" fill="#f40b03" stroke-width="5.3" transform="matrix(1.0289219 0 0 .83390987 -140.19045 405.56733)"/><path d="m342.33899 250.48486c0 11.53845-8.69735 20.89221-19.42609 20.89221-10.72873 0-19.42609-9.35376-19.42609-20.89221 0-11.53844 8.69736-20.8922 19.42609-20.8922 10.72874 0 19.42609 9.35376 19.42609 20.8922z" fill="#f40b03" stroke-width="5.3" transform="matrix(.70225488 0 0 .58279843 146.58572 174.36874)"/><path d="m342.33899 250.48486c0 11.53845-8.69735 20.89221-19.42609 20.89221-10.72873 0-19.42609-9.35376-19.42609-20.89221 0-11.53844 8.69736-20.8922 19.42609-20.8922 10.72874 0 19.42609 9.35376 19.42609 20.8922z" fill="#f40b03" stroke-width="5.3" transform="matrix(.70225488 0 0 .58279843 48.184589 272.06011)"/><g><path d="m375.31958 257.38783c58.16056-28.50651 110.46388-15.13985 153.71915 4.28689-67.57616 59.57705-120.05876 28.79829-153.71915-4.28689z" fill="#00943e" stroke-width="2.5"/><path d="m377.8621 250.46713c-46.01145-67.19032.58728-108.21481 34.98018-134.7457 24.01523 68.84522 8.48839 119.57389-34.98018 134.7457z" fill="#00943e" stroke-width="2.253443"/><path d="m385.51515 239.41708c4.28748-42.75035 5.14497-48.41607 5.14497-48.41607" fill="none" stroke-width="6.463924"/><path d="m375.91764 255.77569c28.2757-71.5874 84.6175-87.83177 148.74439-97.35996-28.77754 80.23158-68.98751 107.59089-148.74439 97.35996z" fill="#00943e" stroke-width="2.5"/><g fill="none"><path d="m383.12949 250.81755c63.10368-35.15777 65.80812-34.70703 65.80812-34.70703" stroke-width="5.7"/><path d="m389.8906 263.43828 57.69479 4.95815" stroke-width="5.5"/></g></g><path d="m248.77066 381.77494c47.36746-27.06029 64.42115-52.95872 161.60587-20.9306-67.53576 70.68496-134.19198 52.33727-161.60587 20.9306z" fill="#00943e" stroke-width="2.198163"/><path d="m249.75439 376.29231c-48.34246-64.32504-14.19561-112.50736 28.48876-134.97487 24.44993 60.46119 6.91317 120.57277-28.48876 134.97487z" fill="#00943e" stroke-width="1.981375"/><path d="m250.55245 360.36807c3.49184-40.5815 4.1902-47.04673 4.1902-47.04673" fill="none" stroke-width="5.683505"/><path d="m336.41304 259.02174 29.89131 50" fill="none" stroke-width="4.7"/><path d="m380.43478 253.58696-55.43478 40.76087" fill="none" stroke-width="5.6"/><path d="m186.60436 504.79751c17.15609-58.29868 57.31084-62.85005 115.2648-68.2243-23.42154 84.68919-85.87347 80.73626-115.2648 68.2243z" fill="#00943e" stroke-width="2.7"/><path d="m251.7134 378.31776c-17.9658 26.47883-32.73446 54.47969-47.97509 86.91589" fill="none" stroke-width="5.6"/><path d="m248.17078 381.87502c23.02845-67.95556 40.11031-86.63667 112.4456-105.46407-8.21978 55.50902-47.48955 115.17595-112.4456 105.46407z" fill="#00943e" stroke-width="2.198163"/><path d="m259.47908 371.19016c31.82804-35.54802 48.70453-43.81581 48.70453-43.81581" fill="none" stroke-width="5.011812"/><path d="m269.33332 388.60539 46.98812 4.70661" fill="none" stroke-width="4.835959"/><path d="m229.59502 385.79439 32.39875 27.72586" fill="none" stroke-width="5.5"/><path d="m191.90031 500.74766 49.53271-23.36448" fill="none" stroke-width="4.8"/><path d="m166.04361 565.23364c-66.727445-31.27087-64.67575-74.8478-42.67912-125.23364 24.61445 23.50899 52.89848 45.95731 54.82866 76.94704-.78364 20.04154-9.7369 26.68743-12.14954 48.2866z" fill="#00943e" stroke-width="2.7"/><path d="m167.91277 557.13395-23.36448-46.72897" fill="none" stroke-width="5.5"/><path d="m141.70213 734.89362c-6.13942-64.94255-63.692234-103.61714-110.6383-129.78724 4.164308 63.40923 49.121176 120.99096 110.6383 129.78724z" fill="#00943e" stroke-width="2.7"/><path d="m167.60125 567.41433c-19.58399 78.18019-17.98299 85.2051-23.05296 117.55153" fill="none" stroke-width="6.7"/><path d="m165.42056 574.89097c25.70999 5.50662 51.13142 2.64501 76.01246-15.88785 17.46524-19.40809 26.97918-43.00107 28.66044-70.71652-20.95476 2.89213-41.55778 8.94991-61.68225 19.31465-11.02624 7.3064-21.77076 15.59878-31.15264 28.66043-6.95489 13.30627-10.6968 26.15355-11.83801 38.62929z" fill="#00943e" stroke-width="2.7"/><path d="m169.78193 570.21807 47.0405-31.7757" fill="none" stroke-width="5.4"/><path d="m186.91589 504.48598c-2.22566 5.39651-4.2092 14.66857-7.16511 25.23364" fill="none" stroke-width="5.7"/><path d="m151.7134 340.31153c37.77093 42.81518 59.9841 83.40852 48.2866 133.0218l-12.77259 27.10281c-87.881455-48.96267-63.8071-109.41371-35.51401-160.12461z" fill="#00943e" stroke-width="2.7"/><path d="m185.66978 492.64798-21.1838-65.42057" fill="none" stroke-width="6"/><path d="m204.98442 462.42991-2.80373 7.47663" fill="none" stroke-width="3.5"/><path d="m176.01246 535.63863 4.98443-9.96885" fill="none" stroke-width="2.8"/><path d="m143.88598 684.31818c7.99505-56.74122-40.42118-105.32723-85.363253-143.75-5.613389 58.32055 18.707519 122.88039 85.363253 143.75z" fill="#00943e" stroke-width="2.7"/><path d="m142.30769 680.59829-41.45299-58.54701" fill="none" stroke-width="6.4"/><path d="m342.33899 250.48486c0 11.53845-8.69735 20.89221-19.42609 20.89221-10.72873 0-19.42609-9.35376-19.42609-20.89221 0-11.53844 8.69736-20.8922 19.42609-20.8922 10.72874 0 19.42609 9.35376 19.42609 20.8922z" fill="#f40b03" stroke-width="5.3" transform="matrix(.70225488 0 0 .58279843 -96.85263 452.56482)"/><path d="m142.30769 601.96581c29.05983 10.68376 29.48718 10.68376 29.48718 10.68376" fill="none" stroke-width="5.5"/><path d="m140.85106 716.17021 43.82979-28.93617" fill="none" stroke-width="4.9"/><path d="m141.2766 799.14894c-10.38436-68.78227-59.490818-101.22929-111.063834-131.06383.098216 52.09937 42.159626 118.88463 111.063834 131.06383z" fill="#00943e" stroke-width="2.7"/><path d="m136.17021 792.76596-49.787231-52.34043" fill="none" stroke-width="5.3"/><path d="m137.44681 729.3617-49.787236-51.06383" fill="none" stroke-width="6.4"/><path d="m136.17021 704.68085c21.81719-48.58623 56.57609-60.47625 102.12766-68.93617-.97479 25.43685-9.14699 43.92852-17.87234 60.42553-22.26351 6.91904-35.53285 8.03533-63.40425 29.78724l-14.89362-.42554z" fill="#00943e" stroke-width="2.7"/><path d="m141.70213 715.74468 45.10638-29.36171" fill="none" stroke-width="6"/><path d="m134.46809 768.51064c7.44001-27.41244 24.61893-46.91201 50.21276-59.57447l55.31915-17.87234c-3.59598 29.01075-9.83919 53.17734-29.78723 73.19149-14.25215 4.72107-28.00088 10.19726-40.00001 18.29787-18.58155-1.59772-12.90779 1.10674-31.06382-.85106z" fill="#00943e" stroke-width="2.7"/><g fill="none"><path d="m138.7234 775.74468 46.80851-31.48936" stroke-width="6.2"/><path d="m140 734.89362-1.2766 16.17021" stroke-width="6.4"/><path d="m135.88498 764.62987.92585-16.04908" stroke-width="2.3"/><path d="m139.03627 745.94485-1.54328 10.24182" stroke-width="2.5"/><path d="m142.8945 726.30299c-.21075 4.66079.29768 9.9209-.91195 13.74931" stroke-width="1.6"/><path d="m143.54688 684.893v4.9388" stroke-width="4.061974"/><path d="m142.1206 688.53478-.19808 3.46636"/><path d="m135.9375 798.85417c-1.31536 93.99203.43079 187.21869 15.625 277.08333" stroke-width="4.5"/></g><path d="m239.32935 758.0921-29.0774 6.39064c-13.75228 6.19003-27.29941 12.17491-41.85867 19.17191-14.48223 11.16897-32.56409 28.55103-33.87037 61.03058 75.05137 22.60893 105.05123-49.20341 104.80644-86.59313z" fill="#00943e" stroke-width="2.7"/><path d="m137.71823 840.21179 47.29071-31.63365" fill="none" stroke-width="5.7"/><path d="m139.63542 866.4134c-5.23787-26.62428-13.76675-53.37514-40.900079-80.84156l-33.870376-27.1602c-9.870879-8.07683-22.54393-15.45312-35.787567-22.68676 2.287715 30.31473 13.150841 52.29928 23.645357 76.04857 19.455826 12.8525 38.360047 26.80822 55.279005 44.73446 10.54455 4.45928 21.08911 9.53568 31.63366 9.90549z" fill="#00943e" stroke-width="2.7"/><path d="m134.20338 860.66183-49.527441-51.76416" fill="none" stroke-width="6.2"/><path d="m140.09009 920.63063c7.09216-56.58232 50.78969-75.78408 104.95496-87.38739-2.54376 22.46393-4.09035 52.55384-29.27928 72.52253-13.60153 3.45864-26.38506 8.96226-38.28829 16.66666-12.722.95659-25.48955 2.18653-37.38739-1.8018z" fill="#00943e" stroke-width="2.7"/><path d="m144.25391 916.81982 47.44775-31.20725" fill="none" stroke-width="4.9"/><path d="m142.02482 928.92059c-9.06502-46.90456-22.40262-56.47049-33.43634-72.28617-21.900389-23.5072-50.052363-39.72088-76.744351-57.63788.596093 26.21342 9.541832 47.3674 20.061802 71.33085 21.041967 14.37503 42.189749 27.58609 61.140719 52.54282 8.19299 5.67297 18.25461 7.96914 28.97817 6.05038z" fill="#00943e" stroke-width="2.7"/><path d="m136.61132 924.14397-49.358405-51.26905" fill="none" stroke-width="5.8"/><path d="m141.70638 987.19535c73.01306 9.40314 95.22651-28.29071 104.1303-87.8898l-29.61504 6.36883c-14.8217 4.07248-27.15088 10.63748-39.48672 17.19583-37.34293 33.10842-33.57363 47.52946-35.02854 64.32514z" fill="#00943e" stroke-width="2.7"/><path d="m145.52767 981.4634 46.17399-31.52568" fill="none" stroke-width="5"/><path d="m141.70638 986.87691c-7.81549-67.09704-73.986482-108.87901-110.180692-128.0134 7.772871 68.38701 44.009638 119.30565 110.180692 128.0134z" fill="#00943e" stroke-width="2.7"/><path d="m138.84041 983.69249-52.542819-53.81658" fill="none" stroke-width="5.4"/><path d="m249.97642 968.40731c-16.87739 1.4035-33.75478 5.81653-50.63217 14.01142-23.7348 9.9189-43.6096 26.59277-53.81658 60.18537l2.22909 14.0114c21.03238.6171 41.10272 4.3952 67.828-13.6929 26.9812-23.689 29.5438-49.18678 34.39166-74.51529z" fill="#00943e" stroke-width="2.7"/><path d="m148.39364 1050.8836 47.7662-32.1626" fill="none" stroke-width="5.1"/><path d="m148.71208 1065.2135c-12.58417-67.1102-59.370007-96.59722-109.22536-126.73967 5.181086 66.52407 47.316599 123.26267 109.22536 126.73967z" fill="#00943e" stroke-width="2.7"/><path d="m145.52767 1062.6659-51.269047-52.2243" fill="none" stroke-width="5.2"/></g><g transform="matrix(-1 0 0 1 2487.53055 563.258927)"><path d="m135.33755 798.99654c-1.01271 118.44378 6.82671 205.74376 16.87895 276.11286" fill="none" stroke-width="6.1"/><path d="m342.33899 250.48486c0 11.53845-8.69735 20.89221-19.42609 20.89221-10.72873 0-19.42609-9.35376-19.42609-20.89221 0-11.53844 8.69736-20.8922 19.42609-20.8922 10.72874 0 19.42609 9.35376 19.42609 20.8922z" fill="#f40b03" stroke-width="5.3" transform="matrix(1.0289219 0 0 .83390987 -6.040495 33.539405)"/><path d="m342.33899 250.48486c0 11.53845-8.69735 20.89221-19.42609 20.89221-10.72873 0-19.42609-9.35376-19.42609-20.89221 0-11.53844 8.69736-20.8922 19.42609-20.8922 10.72874 0 19.42609 9.35376 19.42609 20.8922z" fill="#f40b03" stroke-width="5.3" transform="matrix(1.0289219 0 0 .83390987 -117.46559 165.12367)"/><path d="m342.33899 250.48486c0 11.53845-8.69735 20.89221-19.42609 20.89221-10.72873 0-19.42609-9.35376-19.42609-20.89221 0-11.53844 8.69736-20.8922 19.42609-20.8922 10.72874 0 19.42609 9.35376 19.42609 20.8922z" fill="#f40b03" stroke-width="5.3" transform="matrix(1.0289219 0 0 .83390987 -140.19045 405.56733)"/><path d="m342.33899 250.48486c0 11.53845-8.69735 20.89221-19.42609 20.89221-10.72873 0-19.42609-9.35376-19.42609-20.89221 0-11.53844 8.69736-20.8922 19.42609-20.8922 10.72874 0 19.42609 9.35376 19.42609 20.8922z" fill="#f40b03" stroke-width="5.3" transform="matrix(.70225488 0 0 .58279843 146.58572 174.36874)"/><path d="m342.33899 250.48486c0 11.53845-8.69735 20.89221-19.42609 20.89221-10.72873 0-19.42609-9.35376-19.42609-20.89221 0-11.53844 8.69736-20.8922 19.42609-20.8922 10.72874 0 19.42609 9.35376 19.42609 20.8922z" fill="#f40b03" stroke-width="5.3" transform="matrix(.70225488 0 0 .58279843 48.184589 272.06011)"/><g><path d="m375.31958 257.38783c58.16056-28.50651 110.46388-15.13985 153.71915 4.28689-67.57616 59.57705-120.05876 28.79829-153.71915-4.28689z" fill="#00943e" stroke-width="2.5"/><path d="m377.8621 250.46713c-46.01145-67.19032.58728-108.21481 34.98018-134.7457 24.01523 68.84522 8.48839 119.57389-34.98018 134.7457z" fill="#00943e" stroke-width="2.253443"/><path d="m385.51515 239.41708c4.28748-42.75035 5.14497-48.41607 5.14497-48.41607" fill="none" stroke-width="6.463924"/><path d="m375.91764 255.77569c28.2757-71.5874 84.6175-87.83177 148.74439-97.35996-28.77754 80.23158-68.98751 107.59089-148.74439 97.35996z" fill="#00943e" stroke-width="2.5"/><g fill="none"><path d="m383.12949 250.81755c63.10368-35.15777 65.80812-34.70703 65.80812-34.70703" stroke-width="5.7"/><path d="m389.8906 263.43828 57.69479 4.95815" stroke-width="5.5"/></g></g><path d="m248.77066 381.77494c47.36746-27.06029 64.42115-52.95872 161.60587-20.9306-67.53576 70.68496-134.19198 52.33727-161.60587 20.9306z" fill="#00943e" stroke-width="2.198163"/><path d="m249.75439 376.29231c-48.34246-64.32504-14.19561-112.50736 28.48876-134.97487 24.44993 60.46119 6.91317 120.57277-28.48876 134.97487z" fill="#00943e" stroke-width="1.981375"/><path d="m250.55245 360.36807c3.49184-40.5815 4.1902-47.04673 4.1902-47.04673" fill="none" stroke-width="5.683505"/><path d="m336.41304 259.02174 29.89131 50" fill="none" stroke-width="4.7"/><path d="m380.43478 253.58696-55.43478 40.76087" fill="none" stroke-width="5.6"/><path d="m186.60436 504.79751c17.15609-58.29868 57.31084-62.85005 115.2648-68.2243-23.42154 84.68919-85.87347 80.73626-115.2648 68.2243z" fill="#00943e" stroke-width="2.7"/><path d="m251.7134 378.31776c-17.9658 26.47883-32.73446 54.47969-47.97509 86.91589" fill="none" stroke-width="5.6"/><path d="m248.17078 381.87502c23.02845-67.95556 40.11031-86.63667 112.4456-105.46407-8.21978 55.50902-47.48955 115.17595-112.4456 105.46407z" fill="#00943e" stroke-width="2.198163"/><path d="m259.47908 371.19016c31.82804-35.54802 48.70453-43.81581 48.70453-43.81581" fill="none" stroke-width="5.011812"/><path d="m269.33332 388.60539 46.98812 4.70661" fill="none" stroke-width="4.835959"/><path d="m229.59502 385.79439 32.39875 27.72586" fill="none" stroke-width="5.5"/><path d="m191.90031 500.74766 49.53271-23.36448" fill="none" stroke-width="4.8"/><path d="m166.04361 565.23364c-66.727445-31.27087-64.67575-74.8478-42.67912-125.23364 24.61445 23.50899 52.89848 45.95731 54.82866 76.94704-.78364 20.04154-9.7369 26.68743-12.14954 48.2866z" fill="#00943e" stroke-width="2.7"/><path d="m167.91277 557.13395-23.36448-46.72897" fill="none" stroke-width="5.5"/><path d="m141.70213 734.89362c-6.13942-64.94255-63.692234-103.61714-110.6383-129.78724 4.164308 63.40923 49.121176 120.99096 110.6383 129.78724z" fill="#00943e" stroke-width="2.7"/><path d="m167.60125 567.41433c-19.58399 78.18019-17.98299 85.2051-23.05296 117.55153" fill="none" stroke-width="6.7"/><path d="m165.42056 574.89097c25.70999 5.50662 51.13142 2.64501 76.01246-15.88785 17.46524-19.40809 26.97918-43.00107 28.66044-70.71652-20.95476 2.89213-41.55778 8.94991-61.68225 19.31465-11.02624 7.3064-21.77076 15.59878-31.15264 28.66043-6.95489 13.30627-10.6968 26.15355-11.83801 38.62929z" fill="#00943e" stroke-width="2.7"/><path d="m169.78193 570.21807 47.0405-31.7757" fill="none" stroke-width="5.4"/><path d="m186.91589 504.48598c-2.22566 5.39651-4.2092 14.66857-7.16511 25.23364" fill="none" stroke-width="5.7"/><path d="m151.7134 340.31153c37.77093 42.81518 59.9841 83.40852 48.2866 133.0218l-12.77259 27.10281c-87.881455-48.96267-63.8071-109.41371-35.51401-160.12461z" fill="#00943e" stroke-width="2.7"/><path d="m185.66978 492.64798-21.1838-65.42057" fill="none" stroke-width="6"/><path d="m204.98442 462.42991-2.80373 7.47663" fill="none" stroke-width="3.5"/><path d="m176.01246 535.63863 4.98443-9.96885" fill="none" stroke-width="2.8"/><path d="m143.88598 684.31818c7.99505-56.74122-40.42118-105.32723-85.363253-143.75-5.613389 58.32055 18.707519 122.88039 85.363253 143.75z" fill="#00943e" stroke-width="2.7"/><path d="m142.30769 680.59829-41.45299-58.54701" fill="none" stroke-width="6.4"/><path d="m342.33899 250.48486c0 11.53845-8.69735 20.89221-19.42609 20.89221-10.72873 0-19.42609-9.35376-19.42609-20.89221 0-11.53844 8.69736-20.8922 19.42609-20.8922 10.72874 0 19.42609 9.35376 19.42609 20.8922z" fill="#f40b03" stroke-width="5.3" transform="matrix(.70225488 0 0 .58279843 -96.85263 452.56482)"/><path d="m142.30769 601.96581c29.05983 10.68376 29.48718 10.68376 29.48718 10.68376" fill="none" stroke-width="5.5"/><path d="m140.85106 716.17021 43.82979-28.93617" fill="none" stroke-width="4.9"/><path d="m141.2766 799.14894c-10.38436-68.78227-59.490818-101.22929-111.063834-131.06383.098216 52.09937 42.159626 118.88463 111.063834 131.06383z" fill="#00943e" stroke-width="2.7"/><path d="m136.17021 792.76596-49.787231-52.34043" fill="none" stroke-width="5.3"/><path d="m137.44681 729.3617-49.787236-51.06383" fill="none" stroke-width="6.4"/><path d="m136.17021 704.68085c21.81719-48.58623 56.57609-60.47625 102.12766-68.93617-.97479 25.43685-9.14699 43.92852-17.87234 60.42553-22.26351 6.91904-35.53285 8.03533-63.40425 29.78724l-14.89362-.42554z" fill="#00943e" stroke-width="2.7"/><path d="m141.70213 715.74468 45.10638-29.36171" fill="none" stroke-width="6"/><path d="m134.46809 768.51064c7.44001-27.41244 24.61893-46.91201 50.21276-59.57447l55.31915-17.87234c-3.59598 29.01075-9.83919 53.17734-29.78723 73.19149-14.25215 4.72107-28.00088 10.19726-40.00001 18.29787-18.58155-1.59772-12.90779 1.10674-31.06382-.85106z" fill="#00943e" stroke-width="2.7"/><g fill="none"><path d="m138.7234 775.74468 46.80851-31.48936" stroke-width="6.2"/><path d="m140 734.89362-1.2766 16.17021" stroke-width="6.4"/><path d="m135.88498 764.62987.92585-16.04908" stroke-width="2.3"/><path d="m139.03627 745.94485-1.54328 10.24182" stroke-width="2.5"/><path d="m142.8945 726.30299c-.21075 4.66079.29768 9.9209-.91195 13.74931" stroke-width="1.6"/><path d="m143.54688 684.893v4.9388" stroke-width="4.061974"/><path d="m142.1206 688.53478-.19808 3.46636"/><path d="m135.9375 798.85417c-1.31536 93.99203.43079 187.21869 15.625 277.08333" stroke-width="4.5"/></g><path d="m239.32935 758.0921-29.0774 6.39064c-13.75228 6.19003-27.29941 12.17491-41.85867 19.17191-14.48223 11.16897-32.56409 28.55103-33.87037 61.03058 75.05137 22.60893 105.05123-49.20341 104.80644-86.59313z" fill="#00943e" stroke-width="2.7"/><path d="m137.71823 840.21179 47.29071-31.63365" fill="none" stroke-width="5.7"/><path d="m139.63542 866.4134c-5.23787-26.62428-13.76675-53.37514-40.900079-80.84156l-33.870376-27.1602c-9.870879-8.07683-22.54393-15.45312-35.787567-22.68676 2.287715 30.31473 13.150841 52.29928 23.645357 76.04857 19.455826 12.8525 38.360047 26.80822 55.279005 44.73446 10.54455 4.45928 21.08911 9.53568 31.63366 9.90549z" fill="#00943e" stroke-width="2.7"/><path d="m134.20338 860.66183-49.527441-51.76416" fill="none" stroke-width="6.2"/><path d="m140.09009 920.63063c7.09216-56.58232 50.78969-75.78408 104.95496-87.38739-2.54376 22.46393-4.09035 52.55384-29.27928 72.52253-13.60153 3.45864-26.38506 8.96226-38.28829 16.66666-12.722.95659-25.48955 2.18653-37.38739-1.8018z" fill="#00943e" stroke-width="2.7"/><path d="m144.25391 916.81982 47.44775-31.20725" fill="none" stroke-width="4.9"/><path d="m142.02482 928.92059c-9.06502-46.90456-22.40262-56.47049-33.43634-72.28617-21.900389-23.5072-50.052363-39.72088-76.744351-57.63788.596093 26.21342 9.541832 47.3674 20.061802 71.33085 21.041967 14.37503 42.189749 27.58609 61.140719 52.54282 8.19299 5.67297 18.25461 7.96914 28.97817 6.05038z" fill="#00943e" stroke-width="2.7"/><path d="m136.61132 924.14397-49.358405-51.26905" fill="none" stroke-width="5.8"/><path d="m141.70638 987.19535c73.01306 9.40314 95.22651-28.29071 104.1303-87.8898l-29.61504 6.36883c-14.8217 4.07248-27.15088 10.63748-39.48672 17.19583-37.34293 33.10842-33.57363 47.52946-35.02854 64.32514z" fill="#00943e" stroke-width="2.7"/><path d="m145.52767 981.4634 46.17399-31.52568" fill="none" stroke-width="5"/><path d="m141.70638 986.87691c-7.81549-67.09704-73.986482-108.87901-110.180692-128.0134 7.772871 68.38701 44.009638 119.30565 110.180692 128.0134z" fill="#00943e" stroke-width="2.7"/><path d="m138.84041 983.69249-52.542819-53.81658" fill="none" stroke-width="5.4"/><path d="m249.97642 968.40731c-16.87739 1.4035-33.75478 5.81653-50.63217 14.01142-23.7348 9.9189-43.6096 26.59277-53.81658 60.18537l2.22909 14.0114c21.03238.6171 41.10272 4.3952 67.828-13.6929 26.9812-23.689 29.5438-49.18678 34.39166-74.51529z" fill="#00943e" stroke-width="2.7"/><path d="m148.39364 1050.8836 47.7662-32.1626" fill="none" stroke-width="5.1"/><path d="m148.71208 1065.2135c-12.58417-67.1102-59.370007-96.59722-109.22536-126.73967 5.181086 66.52407 47.316599 123.26267 109.22536 126.73967z" fill="#00943e" stroke-width="2.7"/><path d="m145.52767 1062.6659-51.269047-52.2243" fill="none" stroke-width="5.2"/></g></g><g transform="translate(1138.29548 1609.43248)"><path d="m153.56762 11.3506-126.30081 5.6892c98.25127 268.1599 233.62644 427.8039 410.76209 465.3787l9.10276-141.0928c-122.72337-44.2171-222.98521-164.8076-293.56404-329.9751z" fill="#f00" stroke="#000" stroke-width="2.7"/><path d="m26.70726 19.7009c-10.01614 88.6674-22.76636 175.2414-25.35726 261.4337 10.72377 24.2154 69.61585 52.837 89.72287 59.8805l30.33173-119.2553c-35.49271-64.5528-82.64547-171.8118-94.69734-202.0589z" fill="#f00" stroke="#000" stroke-width="2.7"/><path d="m104.43725 289.4036c62.83847 26.899 36.70992 72.1182-12.7899 51.8525z" fill="#f00" stroke="#000" stroke-width="2.7"/><path d="m14.59128 296.3487c26.04836.6684 44.44059-16.612 30.32929-36.3952l58.75217 30.8492" fill="none" stroke="#000" stroke-width="5.5"/><path d="m45.26719 259.9535c-9.16628-6.0319-23.94805-11.49-26.34315 5.026-2.08854 26.0643 44.22577 32.2882 26.34315-5.026z" fill="none" stroke="#000" stroke-width="4.9"/><path d="m1114.0366 1.35 126.3008 4.3342c-98.2513 268.1599-233.6265 429.159-410.76214 466.7338l-9.10276-141.0929c122.72337-44.2171 222.9852-164.8076 293.5641-329.9751z" fill="#f00" stroke="#000" stroke-width="2.7"/><path d="m1241.5245 10.1187c10.0162 88.6674 22.7664 175.2414 25.3573 261.4337-10.7238 24.2154-57.5495 45.881-90.041 60.0273l-30.0136-119.4021c35.4927-64.5528 82.6455-171.8118 94.6973-202.0589z" fill="#f00" stroke="#000" stroke-width="2.7"/><path d="m1253.6405 286.7665c-26.0483.6684-44.4406-16.612-30.3293-36.3952l-58.7521 30.8492" fill="none" stroke="#000" stroke-width="5.5"/><path d="m1222.9646 250.3713c9.1663-6.0319 23.9481-11.49 26.3432 5.026 2.0885 26.0643-44.2258 32.2882-26.3432-5.026z" fill="none" stroke="#000" stroke-width="4.9"/><path d="m1162.7429 279.4781c-62.8385 26.899-36.264 72.7471 13.2358 52.4814z" fill="#f00" stroke="#000" stroke-width="2.7"/><path d="m379.32942 340.1826c165.10417-23.3813 330.20833-26.5761 495.3125 0l1.56245 114.0625c-197.72777-38.3564-354.32216-27.9621-496.0937 0z" fill="#f00" stroke="#000" stroke-width="2.7"/><g fill="#fff"><path d="m143.37996 64.4181c3.23428 7.5159 18.17507 33.1308 15.22847 38.6404-.66017 23.642-39.7375 22.388-44.3542-5.0655l-21.79262 10.8966-2.99801-19.4999zm-14.08991 27.2074c2.39139 15.8616 20.7899 10.005 10.37987-4.8762z"/><path d="m149.98119 184.1684-10.3591-17.8228-11.83203 2.5691-8.31352-16.207 63.29058-12.2435 9.73497 17.3613-38.95097 49.8137-11.03144-16.3331zm9.59581-10.567 12.46878-15.5207-19.39717 4.4185z"/><path d="m213.77134 190.7876 12.41895 16.3971-7.74951 19.462 21.66547-2.8742 11.69835 15.1973-34.60109 3.8757-10.84318 35.0772-13.65097-16.2863 7.3684-20.9645-21.90291 1.6881-12.13072-15.3573 37.08798-3.5672z"/><path d="m267.18883 257.2991 35.24946 35.9891-9.4926 8.6333-21.897-21.4858-6.75491 6.2128 20.26002 20.4072-9.296 8.6283-19.42321-20.8256-8.16917 7.907 22.50983 23.0055-10.88018 9.8357-35.23485-35.6255z"/><path d="m319.24127 310.2509 42.94487 37.1903-9.91942 10.4451-15.27584-11.7236-29.2367 33.7583-13.64842-12.6972 28.60912-33.1306-14.02062-12.9788z"/><path d="m400.89231 370.234 9.58661 1.0792 1.79856 50.2155-8.86718 1.7986z"/><path d="m433.04788 399.7451v-10.6806h13.90828v21.8866c-2.66247 3.1984-5.01694 5.3754-7.06342 6.5309-2.04653 1.1557-4.47384 1.7335-7.28197 1.7335-3.45721 0-6.2753-1.0389-8.45424-3.1168-2.17898-2.0777-3.86783-5.171-5.06659-9.2798-1.19877-4.1087-1.79814-8.8246-1.79814-14.1474 0-5.603.65568-10.4764 1.96703-14.6202 1.31135-4.144 3.232-7.2897 5.762-9.4377 1.97364-1.6573 4.62944-2.4862 7.96745-2.4862 3.21875 0 5.6262.5137 7.22237 1.541 1.59611 1.027 2.9207 2.6206 3.97379 4.7799 1.05302 2.1594 1.84448 4.8967 2.37433 8.2119l-9.69113 1.5548c-.842-6.3994-6.73227-5.3079-8.79693-1.1871-1.17228 2.4162-1.75841 6.2391-1.7584 11.4684-.00001 5.5564.59274 9.525 1.77827 11.9063 1.18549 2.3813 2.83793 3.5721 4.9573 3.5721 1.00669 0 1.96701-.257 2.881-.7705.91396-.5138 1.96038-1.3892 3.1393-2.6265v-4.8326z"/><path d="m453.03459 415.2254-1.22433-51.4754 15.26976-.3632c2.83145-.067 5.00553.3026 6.52224 1.1096 1.51664.8072 2.76056 2.341 3.73173 4.6014.97111 2.2607 1.49566 5.0295 1.57365 8.3066.0679 2.8559-.22409 5.328-.87591 7.4163-.65187 2.0884-1.57598 3.7908-2.7723 5.1075-.76257.8379-1.81834 1.5422-3.16732 2.113 1.10716.6062 1.91771 1.2192 2.43164 1.8394.34708.4134.85727 1.303 1.53061 2.6688.67327 1.3658 1.12669 2.4208 1.36026 3.1647l4.78418 14.8176-10.35511.2463-5.26856-15.6142c-.66868-2.0217-1.25296-3.3312-1.75281-3.9282-.67962-.7801-1.4374-1.1604-2.27335-1.1406l-.80899.019.49692 20.8922zm8.47406-30.8373 3.86293-.092c.41797-.01 1.2214-.2633 2.41028-.7601.60172-.2249 1.08442-.7752 1.44812-1.6505.36365-.8753.53212-1.8746.50541-2.9983-.0395-1.662-.37326-2.9306-1.00115-3.8057-.62792-.8749-1.77783-1.2926-3.44973-1.253l-4.02474.096z"/><path d="m483.46228 359.4065 23.70064-.7122.32395 11.201-14.83731.4459.24115 8.3382 13.76355-.4135.30946 10.7-13.76355.4136.2991 10.342 15.26681-.4588.34361 11.8812-24.13014.7251z"/><path d="m526.06392 356.8413h8.86718v27.866c-.00002 5.8506-.28973 10.3026-.86914 13.3562-.57945 3.0536-1.74481 5.6409-3.49609 7.7619-1.75132 2.1212-3.99416 3.1817-6.72852 3.1817-2.89063 0-5.13021-.6992-6.71875-2.0978-1.58854-1.3985-2.81575-3.4439-3.68164-6.1361-.86588-2.6922-1.37695-6.0195-1.5332-9.9823l8.6251-1.0543c.013 2.261-.0444 2.9308.16396 4.0264.20833 1.0956.55989 1.9813 1.05469 2.6572.33853.4429.8203.6644 1.44531.6644.98957 0 1.71548-.6586 2.17774-1.9756.46222-1.3168.69334-3.5372.69336-6.6606z"/><path d="m540.56428 354.5754 8.86564-.1651.97718 52.4892-8.86564.1651z"/><path d="m556.306 353.9842h8.7181l11.37679 29.0423v-29.0423h8.80054v52.4983h-8.80054l-11.31496-28.8276v28.8276h-8.77993z"/><path d="m590.82233 353.1438h9.06471v17.7239h9.90516v-17.7239h9.10474v50.6496h-9.10474v-20.4878h-9.90516v20.4878h-9.06471z"/><path d="m642.87438 395.6297h-10.29548l-1.41662 8.4998h-9.238l10.99381-51.4899h9.85653l10.99381 51.4899h-9.45747zm-1.89548-11.1339-3.2323-18.5095-3.21236 18.5095z"/><path d="m687.76905 352.6556v52.6505h-8.54147v-34.4999c-1.38213 1.7891-2.71932 3.237-4.01159 4.3433-1.29229 1.1064-2.91282 2.1658-4.86159 3.178v-11.7942c2.87479-1.5772 5.1069-3.4723 6.69634-5.6852 1.58943-2.2129 2.83333-4.9437 3.73172-8.1925z"/><path d="m695.3626 381.5384h12.40284v11.5305h-12.40284z"/><path d="m733.83833 369.1827-8.13555.5595c-.21429-1.9675-.57252-3.3562-1.07469-4.1664-.50222-.8101-1.12159-1.2152-1.85812-1.2152-1.32581 0-2.35698 1.1574-3.09353 3.4719-.53568 1.6667-.93073 5.2312-1.18517 10.6937.97759-1.7129 1.98198-2.98 3.01317-3.8018 1.03115-.8216 2.22302-1.2325 3.57562-1.2326 2.62477.0001 4.84448 1.6203 6.65909 4.8607 1.81457 3.2405 2.72187 7.3489 2.72189 12.3254-.00002 3.3562-.45869 6.4231-1.37601 9.2007-.91737 2.7775-2.18958 4.878-3.81667 6.3015-1.62713 1.4235-3.66603 2.1353-6.11673 2.1353-2.94621 0-5.30987-.868-7.09098-2.6041-1.78112-1.7358-3.204-4.5077-4.26865-8.3152s-1.59698-8.8476-1.59698-15.1203c0-9.189 1.11822-15.9187 3.35466-20.1893 2.23643-4.2704 5.33663-6.4057 9.30063-6.4057 2.34356 0 4.19498.4688 5.55427 1.4061 1.35926.9375 2.48751 2.309 3.38479 4.1143.89723 1.8054 1.58021 5.2503 2.04896 7.9815zm-15.06583 21.4952c-.00001 2.7545.40174 4.9129 1.20526 6.4752.8035 1.5624 1.7878 2.3435 2.95291 2.3435 1.07133 0 1.96858-.7059 2.69175-2.1179.72315-1.4118 1.08472-3.5181 1.08474-6.3188-.00002-2.8701-.37498-5.0575-1.12491-6.5621-.74996-1.5044-1.68069-2.2567-2.7922-2.2567-1.13832 0-2.09249.7292-2.86251 2.1874-.77003 1.4582-1.15505 3.5414-1.15504 6.2494z"/><path d="m736.6172 384.2274h11.5625v12.2027h-11.5625z"/><path d="m770.27824 358.706v52.3144h-8.8712v-34.2797c-1.43549 1.7777-2.8243 3.2163-4.16645 4.3156-1.34218 1.0994-3.02527 2.1519-5.04927 3.1577v-11.7189c2.98577-1.5672 5.30405-3.4502 6.95485-5.6489 1.65078-2.1988 2.9427-4.9122 3.87577-8.1402z"/><path d="m778.67049 400.7417 8.35997.055c.21574 1.9926.57982 3.3992 1.09224 4.2196.51241.8204 1.13944 1.2307 1.88111 1.2307 1.32148 0 2.35305-1.1605 3.09471-3.4811.53937-1.7113.94391-5.3332 1.21362-10.8654-.98439 1.7582-1.99574 3.0474-3.03403 3.868-1.03834.8204-2.23846 1.2307-3.60039 1.2307-2.65648 0-4.89829-1.641-6.72545-4.9228-1.82716-3.2819-2.74074-7.4311-2.74074-12.4477 0-3.4225.46522-6.5403 1.39566-9.3533.93043-2.813 2.21147-4.9403 3.8431-6.382 1.63164-1.4417 3.68129-2.1626 6.14898-2.1626 2.96659 0 5.34663.885 7.1401 2.6548 1.79342 1.7699 3.22616 4.5829 4.29821 8.4391 1.072 3.8563 1.60802 8.9489 1.60804 15.2781-.00002 9.3065-1.12599 16.1222-3.3779 20.4474-2.25195 4.3249-5.37363 6.4875-9.36505 6.4875-2.35981 0-4.22069-.4748-5.58262-1.4241-1.36195-.9495-2.49465-2.3384-3.39811-4.1669-.90348-1.8284-1.766-5.9626-2.25145-8.7054zm15.33825-21.1477c-.00002-2.7897-.40456-4.9756-1.21362-6.5579-.80909-1.5824-1.79346-2.3734-2.95313-2.3736-1.09226.0002-1.9991.7151-2.72051 2.1451-.72144 1.4298-1.08216 3.5747-1.08215 6.4348-.00001 2.8832.37419 5.0868 1.1226 6.6104.74838 1.5238 1.6822 2.2857 2.80143 2.2857 1.15965 0 2.1238-.7385 2.89245-2.2153.7686-1.4768 1.15291-3.5866 1.15293-6.3292z"/><path d="m830.2456 380.6899-7.85284.4025c-3.54315-13.9252-8.6503 1.9867-6.97999 6.8233 1.39018-2.5369 1.71939-3.3504 4.54304-3.3859 2.47935.0002 4.57605 1.6307 6.29012 4.8918 2.72243 2.757 3.57945 7.3959 3.57948 12.4041-.00003 3.3776-.60134 7.1365-1.46783 9.9317-.86653 2.7953-2.90861 4.2369-4.44554 5.6695-1.53697 1.4326-3.46291 2.1489-5.7778 2.1489-2.78298 0-5.01567-.8735-6.69809-2.6206-1.68243-1.747-3.02647-4.5365-4.03213-8.3684-1.00567-3.8318-1.50849-8.9041-1.50849-15.2169 0-9.2476 1.05626-16.0203 3.16878-20.3182 2.11251-4.2977 5.04095-6.4466 8.78531-6.4466 10.20205-.5785 11.23795 7.8977 12.39598 14.0848zm-16.24786 21.1358c.1489 3.0288.56559 6.6899 3.92777 8.0347 4.23045-.9078 4.03905-5.2181 4.07146-8.1544-.16549-2.4668.47762-7.4475-4.20428-8.371-1.07525 0-1.97654.7339-2.7039 2.2014-.72738 1.4675-1.09106 3.564-1.09105 6.2893z"/><path d="m846.47245 413.9667-15.07713-.5127.38001-11.6722 16.7499-30.2188 7.0309.4134-1.19013 31.0573 3.40131.7994-.0223 11.1784-4.07357-.1271-.14276 10.0511-7.19896-.9176zm1.03072-11.0102.52294-16.0625-8.84337 15.7916z"/><path d="m933.30627 320.5436 13.6937-12.3874 30.1466 32.8689 21.7619-19.4191 9.58313 10.2954-34.37173 32.3485z"/><path d="m1044.3879 279.5378-12.8344 14.531 5.2688 9.7857-13.5448 13.692-29.93313-56.9008 13.85523-14.7708 59.9658 23.3042-13.0343 13.7075zm-11.7166-6.7892-19.5906-7.8439 10.4375 17.8874z"/><path d="m1033.2214 214.7314 20.1755-27.8877c3.3625-4.6477 7.0892-7.379 11.1796-8.1935 4.0903-.8142 7.8257.021 11.2064 2.4854 2.8355 2.073 4.6252 4.7386 5.3688 7.9972.4958 2.1722.3112 4.6855-.5528 7.5397 3.3347-2.8582 6.6017-4.3664 9.8009-4.5251 3.1989-.1582 6.3256.8781 9.3791 3.1102 2.4864 1.8176 4.3016 4.0328 5.4457 6.6458 1.1441 2.6129 1.5646 5.3501 1.2614 8.2122-.1844 1.776-1.0249 4.0439-2.5218 6.8043-1.9904 3.6734-3.3822 6.0582-4.1753 7.1543l-18.6054 25.7173zm29.6848-1.2775 4.6871-6.4789c1.6812-2.3238 2.4531-4.2318 2.315-5.7234-.1388-1.492-.9592-2.7879-2.4641-3.8881-1.3959-1.0203-2.8156-1.3626-4.2592-1.0265-1.4432.3358-2.9818 1.6328-4.6155 3.8909l-4.7583 6.5774zm18.8446 13.7752 5.4959-7.5967c1.8559-2.5652 2.7117-4.7049 2.568-6.4189-.1429-1.7141-.979-3.1292-2.5059-4.245-1.4175-1.0364-2.934-1.3487-4.5489-.9371-1.6149.4115-3.3663 1.9218-5.2537 4.5308l-5.4721 7.5639z"/><path d="m1100.3559 167.1291c-8.2351-5.1714-13.1998-11.4819-14.8943-18.9314-1.6944-7.4493.04-15.2513 5.205-23.4058 5.2948-8.3599 11.6281-13.3859 18.9998-15.0783 7.372-1.6917 15.1178.02 23.2381 5.1115 5.8953 3.7022 10.1039 7.726 12.6259 12.0714 2.5221 4.3453 3.6501 9.0446 3.3837 14.0971-.2664 5.0528-2.1646 10.366-5.6943 15.9393-3.5878 5.6648-7.463 9.7839-11.626 12.3578-4.163 2.5736-8.9363 3.7823-14.3198 3.6262-5.3836-.1555-11.0231-2.0857-16.9181-5.7878zm9.8985-15.4776c5.0926 3.198 9.3479 4.5534 12.7665 4.066 3.4185-.487 6.1548-2.3523 8.209-5.5957 2.112-3.335 2.6572-6.6005 1.6354-9.7962-1.0218-3.1958-4.3542-6.5655-9.997-10.1094-4.7483-2.9818-8.822-4.2068-12.2205-3.6754-3.3986.5315-6.132 2.4305-8.2009 5.6969-1.9819 3.1294-2.4607 6.3408-1.4364 9.6338 1.0243 3.2931 4.1057 6.5531 9.2439 9.78z"/><path d="m1171.0012 104.0807-54.8137-23.9617 12.3773-28.1452c2.2953-5.2189 4.4981-9.0113 6.6086-11.3775 2.1104-2.3666 4.7526-3.8636 7.926-4.491 3.1736-.6276 6.5053-.1792 9.9948 1.3468 3.0412 1.3298 5.3805 3.1226 7.0184 5.3793 1.6375 2.2567 2.6447 4.8156 3.0212 7.6762.2385 1.8231.092 4.1147-.4382 6.8753 1.5583-1.7188 2.8763-2.8908 3.9535-3.5164.7221-.4251 2.0778-.9064 4.0676-1.444 1.9899-.5376 3.4711-.8309 4.4435-.8797l19.481-1.2174-8.3936 19.0864-20.7182 1.6989c-2.6713.1959-4.5276.5986-5.5692 1.2099-1.3831.8474-2.4132 2.0412-3.0911 3.5821l-.6558 1.4913 22.2471 9.7252zm-25.1449-31.2142 3.1313-7.1204c.3389-.7703.7454-2.3704 1.2198-4.8004.2673-1.2162.096-2.3802-.5154-3.4916-.6105-1.1114-1.5144-1.9286-2.7108-2.4517-1.7699-.7736-3.374-.8085-4.8131-.1038-1.439.7041-2.8362 2.5971-4.1915 5.6785l-3.2624 7.4188z"/></g><path d="m112.66927 245.7254h4.091115v4.050891h-4.091115z" fill="#009600" stroke="#f00" stroke-width="4.00119" transform="matrix(.90008727 .43570966 0 1 0 0)"/><path d="m-1296.299 850.03522h4.091115v4.050891h-4.091115z" fill="#009600" stroke="#f00" stroke-width="4.00119" transform="matrix(-.90008727 .43570966 0 1 0 0)"/><path d="m959.49768 751.935h3.353966v4.545882h-3.353966z" fill="#f00" stroke="#f00" stroke-width="1.148239" transform="matrix(.92319342 -.38433567 .38129385 .92445389 0 0)"/><path d="m1164.9539 288.9097 10.71 39.2298" fill="#f00" stroke="#f00" stroke-width="9.1"/><path d="m102.11437 299.3-10.14908 40.0846" fill="none" stroke="#f00" stroke-width="3.9"/><path d="m90.22259 338.5784c1.0638.6148 2.5649 1.2317 3.98819 1.6884" fill="none" stroke="#f00"/><path d="m242.46164 1406.4244c0 11.0422-10.90511 19.9936-24.35724 19.9936s-24.35724-8.9514-24.35724-19.9936c0-11.0421 10.90511-19.9935 24.35724-19.9935s24.35724 8.9514 24.35724 19.9935z" fill="#f00" stroke="#f00" stroke-width="3.9" transform="translate(-124.57683 -1092.0049)"/></g></svg>