<svg height="290" viewBox="0 0 224 290" width="224" xmlns="http://www.w3.org/2000/svg"><g fill-rule="evenodd" transform="translate(-216.57138 -484.03019)"><path d="m438.75273 562.09037-.168-.40175-.2105-.40224-.16787-.40213-.25263-.40287-.20912-.36138-.25263-.36212-.25125-.36176-.29512-.32137-.25125-.3625-.29363-.281-.33775-.32175-.3345-.32175-.29475-.281-.33625-.242-.377-.281-.37812-.24125-.37875-.24125-.3785-.20163-.37838-.20062-.4195-.20163-.41887-.1605-.42088-.16087-.42062-.16088-.462-.12012-.41925-.12112-.46313-.12013-.46162-.0804-.46175-.0809-.50388-.0404-.46162-.0396-.50525-.0408h-.50425-39.82l-1.17613-1.76925-1.2185-1.72837-1.26075-1.72951-1.30175-1.64874-1.3865-1.64826-1.42762-1.56862-1.47113-1.52788-1.51237-1.48749-1.5955-1.44751-1.59663-1.40775-1.68025-1.32625-1.721-1.28762-1.76487-1.24612-1.76488-1.2065-1.84825-1.12576-1.89037-1.08562-1.88925-1.00525-1.975-.96487-1.974-.92513-2.0165-.84475-2.05838-.764-2.10075-.7235-2.0995-.68387-2.184-.60275-2.142-.52325-2.22687-.44188-2.22638-.40187-2.26762-.32163-2.26875-.28212-2.31-.16088-2.31125-.12012-2.352-.0408-2.2685.0408-2.35125.12012-2.26913.16088-2.2685.28212-2.26799.32163-2.22663.40187-2.18413.44188-2.18412.52325-2.18412.60275-2.10038.68387-2.10012.7235-2.05875.764-2.01575.84475-1.97463.92513-1.93225.96487-1.9325 1.00525-1.88962 1.08562-1.84825 1.12576-1.76413 1.2065-1.76387 1.24612-1.72275 1.28762-1.68025 1.32625-1.59588 1.40775-1.59662 1.44751-1.51263 1.48749-1.46975 1.52788-1.42837 1.56862-1.38613 1.64826-1.30187 1.64874-1.3025 1.72951-1.17638 1.72837-1.176 1.76925h-39.65312-.50425l-.50388.0408-.46162.0396-.505.0404-.46163.0809-.46237.0804-.46175.12013-.42025.12112-.46125.12012-.421.16088-.41913.16087-.421.1605-.41987.20163-.37775.20062-.37838.20163-.37775.24125-.378.24125-.37775.281-.33625.242-.29412.281-.33625.32175-.33625.32175-.29338.281-.25237.3625-.294.32137-.25238.36176-.25187.36212-.20975.36138-.252.40287-.21038.40213-.168.40224-.168.40175-.12575.44225-.12613.40213-.12575.44263-.0847.44175-.084.48262-.0839.48225-.0419.48263-.0421.48262-.0419.52338v.52187.52338l.0419.523.0421.56225.0419.523.0839.563.084.523.0847.56312.12575.52225.12613.563.12575.523.168.52225.168.523.21038.52263.20987.48225.21.523.25163.44225.25262.48262.29375.4425.2945.44263.29337.40212.29475.40213.37775.3615.0421.12075.29375.28137.37813.40213.42025.48225.46162.48262.46238.44263.336.40212.25225.281.084.16088.12537.20125.084.24162.1265.24063.084.28162.084.241.0839.24125v.16088 10.01237 9.249 8.4845 7.7605 7.07713 6.35312 5.66963 4.98612 4.38275 3.6595 3.0965 2.53275 1.88963 1.36775.80437.24163.52162l.0426.523.0414.4825.0419.52338.084.523.0421.52162.0842.52325.1255.523.1265.523.1265.522.12537.523.1265.523.16725.523.168.56225.2105.48263.16825.523.21013.523.25125.48225.2105.52187.21037.48375.252.4815.25125.48225.25225.44325.29413.48263.29375.44175.29437.44187.2945.40325.29375.4415.294.4015.33625.40325.336.36213.29375.36062 87.41338 93.1695.25225.28063.25187.28137.29375.24163.25263.24237.29375.24063.29375.24025.29412.20125.2945.24237.29375.1995.29438.2015.29375.20163.33587.16087.33625.20125.29413.16088.33625.16087.33587.12013.336.16087.33625.1205.33588.1205.33587.1215.33625.0797.336.1215.37763.0797.337.0797.37737.0811.33625.0404.37738.0801.37875.0404h.33587l.336.0404h.37838.377.33625.37812l.37838-.0404h.3785l.33587-.0404.377-.0801.33725-.0404.37713-.0811.33625-.0797.37837-.0797.33588-.1215.336-.0797.33587-.1215.33625-.1205.33588-.1205.33625-.16087.33587-.12013.336-.16087.29375-.16088.33763-.20125.33587-.16087.29375-.20163.29375-.2015.29375-.1995.29513-.24237.29375-.20125.29337-.24025.29375-.24063.25263-.24237.29375-.24163.25262-.28137.25163-.28063 87.41375-93.1695.33587-.36062.33588-.36213.29375-.40325.29525-.4015.33587-.4415.29375-.40325.2515-.44187.29338-.44175.29525-.48263.25112-.44325.25263-.48225.25162-.4815.2105-.48375.21013-.52187.25125-.48225.21037-.523.168-.523.2105-.48263.12538-.56225.16837-.523.16788-.523.12587-.523.12713-.522.1255-.523.12537-.523.0425-.52325.0851-.52162.0829-.523.0421-.52338.0429-.4825v-.523l.0408-.52162v-.84475-2.37288-3.69962-4.82525-5.66925-6.39325-6.83613-7.11737-7.11675-6.95663-6.55437-5.95175-5.06613-4.06175-2.774-1.32737-.16088l.0851-.24125.0829-.241.0846-.28162.1255-.24063.0854-.24162.12538-.20125.083-.16088 2.68862-2.89487.33738-.3615.29375-.40213.29362-.40212.29375-.44263.29375-.4425.25263-.48262.25125-.44225.2105-.523.21012-.48225.209-.52263.16938-.523.168-.52225.12575-.523.12575-.563.1255-.52225.0846-.56312.0836-.523.0844-.563.0425-.523.0411-.56225.0421-.523v-.52338-.52187l-.0421-.52338-.0411-.48262-.0425-.48263-.0844-.48225-.0836-.48262-.0846-.44175-.1255-.44263-.12575-.40212-.12575-.44225z" fill="#373535"/><path d="m432.78723 565.1465-.12549-.24125-.12713-.28175-.1255-.24125-.12575-.24137-.168-.24125-.12575-.24125-.21012-.241-.16825-.20088-.168-.20125-.2105-.201-.16788-.20125-.20875-.20125-.2105-.16012-.2105-.20163-.25262-.16087-.209-.12013-.25263-.1615-.25125-.16025-.253-.12075-.25262-.1205-.29338-.0804-.25162-.12088-.29375-.1205-.29475-.0404-.29375-.0807-.29375-.0801-.29375-.0408-.29475-.0396-.33588-.0408-.33637-.0398h-.29363l-.336-.0408h-41.16537l-1.0085-1.72838-1.09238-1.72912-1.176-1.64875-1.2175-1.64875-1.261-1.60826-1.30187-1.52825-1.3865-1.52787-1.42725-1.44737-1.47075-1.44751-1.51238-1.367-1.55475-1.32737-1.59525-1.28688-1.68025-1.20612-1.68012-1.1665-1.7225-1.12562-1.76488-1.08538-1.84787-1.00562-1.84713-.96513-1.89212-.92413-1.93138-.80462-1.9315-.804-2.01725-.72388-2.01675-.64312-2.05838-.6035-2.05687-.52262-2.14225-.4425-2.1005-.40188-2.18413-.32213-2.14362-.24087-2.22525-.20163-2.22625-.12012-2.26875-.0408-2.1845.0408-2.22588.12012-2.18412.20163-2.18412.24087-2.18438.32213-2.10088.40188-2.14187.4425-2.05838.52262-2.05787.6035-2.01688.64312-1.974.72388-1.97437.804-1.93213.80462-1.89.92413-1.84812.96513-1.80638 1.00562-1.8065 1.08538-1.722 1.12562-1.68025 1.1665-1.68087 1.20612-1.59525 1.28688-1.55475 1.32737-1.512 1.367-1.47075 1.44751-1.428 1.44737-1.3865 1.52787-1.30175 1.52825-1.26 1.60826-1.21863 1.64875-1.13387 1.64875-1.13413 1.72912-1.00812 1.72838h-40.9975l-.33625.0408h-.33588l-.29375.0398-.33587.0408-.2945.0396-.29375.0408-.29438.0801-.29337.0807-.2945.0404-.2945.1205-.25113.12088-.2945.0804-.25187.1205-.252.12075-.25225.16025-.252.1615-.21038.12013-.25125.16087-.2105.20163-.2105.16012-.20975.20125-.16787.20125-.2095.201-.16788.20125-.2105.20088-.168.241-.1265.24125-.16787.24125-.12588.24137-.12537.24125-.1265.28175-.1265.24125-.084.282-.084.32075-.0839.32175-.084.32175-.0419.32163-.0421.36212-.0419.3615v.3625l-.0414.40175v.36175l.0414.4025v.4015l.0419.36212.0421.44225.0419.36213.084.40212.0425.4425.12538.3615.084.4025.0844.40175.12613.36213.1265.40225.12537.40212.168.36138.16825.32175.168.36212.168.32175.16788.32175.20975.32175.21012.28101.20975.28199.253.241 2.68838 2.89525.12537.16088.16838.20087.12537.20125.1265.24125.168.28175.12613.281.12575.282.1265.32175.1255.32175.0839.28063.0844.322.084.28175.084.28175.0421.28125.0418.24137v.24088 76.11775.40287l.0426.4025v.40138l.0414.40288.0422.44187.0842.44187.0836.40325.0844.4415.0836.40325.12575.44175.084.40113.1265.44225.12575.44325.168.4015.1265.44325.16787.4015.168.44212.16825.4025.168.4015.20938.40288.168.4025.25225.36113.168.4025.25187.361.21051.36212.25199.3625.20976.36213.25262.32137.2515.32175.25162.32175.25225.32175.25263.281 85.691 91.35812.33625.36251.41987.36212.37775.32175.42063.28088.378.28137.4625.282.41912.24062.46238.20163.46175.20025.46237.16188.50425.16087.46125.0798.50425.1205.50425.0404.46275.0404h.50275.50525l.46175-.0404.54638-.0404.462-.1205.46137-.0798.50425-.16087.46338-.16188.46175-.20025.41887-.20163.46163-.24062.4635-.282.37662-.28137.42063-.28088.37875-.32175.37837-.36212.377-.36251 85.69275-91.35812.25088-.281.25162-.32175.253-.32175.25088-.32175.25262-.32137.253-.36213.20875-.3625.21075-.36212.25263-.361.20912-.4025.21013-.36113.16825-.4025.21012-.40288.168-.4015.16825-.4025.168-.44212.16788-.4015.12587-.44325.16788-.4015.1255-.44325.12712-.44225.1255-.40113.0836-.44175.125-.40325.0429-.4415.0847-.40325.0833-.44187.0425-.44187.0423-.40288.0421-.40138v-.4025-.40287-76.11775-.24088l.0415-.24137.0421-.28125.0846-.28175.0833-.28175.0847-.322.0833-.28063.12725-.32175.12537-.32175.12575-.282.12588-.281.16787-.28175.12588-.24125.12687-.20125.16688-.20087.12675-.16088 2.7305-2.89525.2105-.241.20875-.28199.21037-.28101.21088-.32175.16762-.32175.16825-.32175.16763-.36212.16825-.32175.16762-.36138.12588-.40212.12575-.40225.12575-.36213.0844-.40175.0854-.4025.12537-.3615.0408-.4425.0851-.40212.0421-.36213.0408-.44225.0425-.36212v-.4015l.0422-.4025v-.36175l-.0422-.40175v-.3625l-.0425-.3615-.0408-.36212-.085-.32163-.0423-.32175-.0832-.32175-.0829-.32075-.0854-.282z" fill="#fff"/><path d="m263.75698 588.4685v-.76425-.76363l.0421-.76425.0418-.72312.0422-.76437.0425-.76426.0415-.72387.0839-.76362.084-.72351.084-.72425.084-.764.12575-.72387.1265-.7235.084-.72388.16825-.724.1255-.7235.12613-.72387.168-.68387.16788-.72388.21087-.72362.16787-.6835.16725-.7235.21051-.68388.20937-.72387.2105-.68313.25225-.68387.2095-.6835.25263-.68388.25187-.64312.25163-.68388.25187-.6835.2945-.68387h-37.34287l-.21013.0408h-.2105l-.25125.0398h-.168l-.21038.0408-.168.0396-.16825.0805-.168.0408-.12537.08-.1265.0809-.1255.08-.0844.1205-.0846.0811-.084.12013-.0414.0805-.0844.12012-.0421.12113v.12012l-.0415.16087v.12113l.0415.16087v.12088l.0421.1605.0418.1605.084.16162.084.16088.0846.16087.0844.16013.168.20125.12537.16087.1265.16088.16725.20125 2.7305 2.89525.33625.40212.33588.44188.2945.4425.29375.48262.29438.52225.25199.523.29376.56313.21037.563.2095.60275.16787.56262.21051.60375.12574.563.12625.60275.0425.56375.084.56275v.4825 79.57638.523l.0839.56375.0832.56187.084.56238.1265.60412.168.56238.2105.60262.20938.56413.20975.60275.25187.56338.29488.52299.29412.52188.29375.48262.29438.44288.168.24062.16787.20163.16725.20125.169.1595 47.80175 51.22837v-83.91862l-1.344-1.086-1.26-1.125-1.2185-1.12613-1.2175-1.20712-1.17637-1.20588-1.13463-1.24612-1.092-1.24688-1.092-1.287-1.05062-1.32725-.96588-1.367-.96625-1.32662-.92412-1.40738-.88163-1.4475-.88262-1.44775-.79763-1.48825-.75612-1.48712-.75613-1.4875-.67175-1.56862-.63037-1.56826-.58825-1.56787-.54563-1.60825-.54637-1.60875-.46175-1.64863-.42088-1.64912-.33587-1.68875-.33625-1.68875-.2935-1.68875-.21038-1.72938-.20975-1.7285-.12625-1.7295-.0839-1.76912v-1.76925z" fill="#373535"/><path d="m425.93936 565.50788h-37.29888l.29376.68387.25075.6835.25275.68387.25112.64313.25338.68387.21012.68351.25087.68387.21088.68313.20862.72387.2105.68388.16801.72349.21075.68351.168.72362.16787.72387.168.68388.1255.72387.16825.7235.12725.724.12538.72388.0832.7235.1255.72387.085.764.0847.72425.0833.7235.0846.76363.0411.72387.0421.76425.0847.76438v.72312l.0411.76425v.76363.76425 1.76925l-.0834 1.76912-.12575 1.7295-.2105 1.76925-.21013 1.68863-.29375 1.7285-.29362 1.68975-.3785 1.68875-.42088 1.64837-.46175 1.64875-.5035 1.60825-.5875 1.60825-.58925 1.56863-.62962 1.568-.71438 1.5285-.71425 1.52787-.7555 1.4875-.84012 1.48825-.84013 1.44738-.88225 1.4475-.92337 1.367-.967 1.407-1.008 1.32737-1.051 1.32725-1.05025 1.32663-1.09162 1.24662-1.17601 1.24613-1.17612 1.2065-1.2185 1.1665-1.21825 1.12562-1.25925 1.12575-1.34438 1.086v83.87825l47.80138-51.22837.16838-.1595.12675-.20125.168-.20163.168-.24062.33587-.44288.29375-.48262.2955-.52188.25088-.523.29375-.56337.2105-.60275.21037-.56413.168-.60262.16825-.56238.16763-.60412.0833-.56238.0851-.56187.0829-.56375v-.523-79.57638-.4825l.0425-.56275.085-.56375.12412-.60275.12675-.563.16838-.56262.2105-.60375.20862-.60275.21013-.563.29375-.56313.25262-.523.29375-.52225.2955-.48262.29375-.4425.168-.24138.16788-.2005.168-.20125.168-.20087 2.72937-2.89525.168-.20125.12675-.16088.12588-.16087.12575-.20125.12687-.16013.0836-.16087.0842-.16088.0411-.16162.0425-.1605.0847-.1605v-.12088-.16087-.12113-.16087-.12013l-.0847-.12112-.0425-.12012-.0411-.0805-.0842-.12012-.0836-.0811-.12687-.1205-.12575-.08-.0833-.0809-.16938-.08-.12587-.0408-.16788-.0805-.20912-.0396-.16938-.0407h-.20862l-.2105-.0397h-.2105l-.21088-.0408z" fill="#ee3338"/><path d="m317.98586 566.75488v34.8225h.0846v.0396h-.0846v.32175.32175l-.0419.32175-.084.282-.0417.32175-.12613.32138-.084.28137-.12575.28175-.12613.28088-.12587.28212-.169.281-.16725.24125-.21013.24125-.16787.24175-.2105.24088-.25225.20125-.2095.24137-.25225.20125-.25163.16013-.25225.20125-.29437.16087-.252.12125-.29375.16075-.29375.12013-.294.12087-.2945.0797-.33525.0804-.29438.0805-.33587.0811-.33625.04h-.336-.33625-.33588-.337l-.33512-.04-.336-.0811-.33588-.0805-.29475-.0804-.29337-.0797-.33625-.12087-.29413-.12013-.252-.16075-.29437-.12125-.29375-.16087-.252-.20125-.25188-.16013-.25225-.20125-.20975-.24137-.21012-.20125-.2105-.24088-.20975-.24175-.168-.24125-.16788-.24125-.168-.281-.1265-.28212-.16837-.28088-.12538-.28175-.084-.28137-.084-.32138-.0839-.32175-.0419-.282-.0421-.32175-.0419-.32175v-.32175-8.20237h-9.95525v8.60462l.0419.80425.0839.80438.12588.76425.16787.76362.2105.72388.21013.764.29375.72387.29375.68387.33662.6835.37775.68276.41988.64424.42012.60263.4625.60387.50413.60263.50387.56275.54575.523.58813.52325.58787.482.63038.4425.63.44188.67175.40287.67212.36138.71475.3625.71363.281.7565.28137.75612.24163.798.24124.75575.16088.84013.12013.79862.12125.84013.0396.83975.04.84012-.04.84013-.0804.84012-.0805.83975-.1605.79863-.16125.7555-.2005.79825-.28175.75612-.28163.71438-.28137.71362-.36213.71475-.4015.62963-.4025.67212-.44213.63038-.48224.58787-.48263.58813-.52338.54562-.56262.54638-.56312.46287-.60263.46125-.6435.46175-.6435.37875-.64313.37813-.68412.33587-.72362.29413-.72388.25262-.7235.209-.764.21013-.76425.12575-.76425.0848-.804.0421-.80438.0411-.844v-34.8225h-9.95525z" fill="#373535"/><path d="m322.98511 565.4285.29375-.041h.29375l.253-.0405.29337-.0396.25188-.0804.25225-.0408.29412-.12012.25163-.0805.21012-.12076.25225-.0809.25188-.12012.20975-.16088.2105-.12075.21012-.201.20913-.1605.21012-.16112.16825-.20125.16825-.20063.168-.16088.168-.24124.12688-.20125.12575-.24138.0832-.20125.12687-.2405.0836-.24137.0842-.24126.0836-.24137.0847-.28163.0411-.28137.0421-.242v-.281l.0421-.24125-.0421-.28175v-.28125l-.0421-.281-.0411-.242-.0847-.24138-.0836-.281-.0842-.24125-.0836-.24124-.12687-.24138-.0832-.2005-.12575-.242-.12688-.20063-.168-.20162-.168-.2005-.16825-.20125-.16825-.20088-.21012-.16087-.20913-.16087-.21012-.16051-.2105-.16125-.20975-.12087-.25188-.12013-.25225-.16087-.21012-.0807-.25163-.0801-.29412-.12113-.25225-.0396-.25188-.0809-.29337-.0404-.253-.0396h-.29375-.29375-.25263-.29337l-.29375.0396-.253.0404-.29337.0809-.25238.0396-.25187.12113-.25188.0801-.252.0807-.25225.16087-.2105.12013-.20975.12087-.25162.16125-.21076.16051-.2095.16087-.16787.16087-.2105.20088-.12575.20125-.21012.2005-.12576.20162-.168.20063-.12612.242-.1265.2005-.0833.24138-.1265.24124-.084.24125-.084.281-.0418.24138-.0422.242-.0417.281v.28125l-.0423.28175.0423.24125v.281l.0417.242.0422.28137.0418.28163.084.24137.084.24126.1265.24137.0833.2405.1265.20125.12612.24138.168.20125.12576.24124.21012.16088.12575.20063.2105.20125.16787.16112.2095.1605.21076.201.25162.12075.20975.16088.2105.12012.25225.0809.252.12076.25188.0805.25187.12012.25238.0408.29337.0804.253.0396.29375.0405h.29337z" fill="#373535"/><path d="m351.59061 580.98937-.16838.32175-.21012.36175-.209.32138-.25262.322-.25263.32175-.29375.28175-.25125.281-.33625.282-.29375.241-.33737.24125-.377.24125-.33588.201-.37838.20125-.37887.2005-.41875.16087-.33625.12088-.336.1205-.33588.0804-.37837.0804-.33588.0813-.37887.0396-.33625.0408h-.33588l-.37837.0397h-.33413l-.33775-.0397-.3345-.0408h-.1275l-.20912-.0396-.33688-.0408-.37737-.0805-.29375-.0804-.337-.0801-.33625-.12113-.29375-.12012-.33588-.16088-.29375-.1205-.33587-.16162-.29375-.1605-.25263-.20088-.29375-.16087-.25262-.20125-.29375-.24125-.25275-.20063-.2515-.24125-.20875-.24137-.25263-.282-.2105-.241 5.71225-2.21138 4.83163-1.85024 4.747-1.84963 5.25075-2.0105-.12675-.52225-.168-.523-.16838-.48263-.21037-.52224-.25088-.64351-.33625-.60337-.336-.60313-.37875-.56262-.37837-.56375-.46175-.52225-.46125-.523-.46213-.44188-.46275-.48262-.54637-.40213-.50275-.40187-.58888-.4025-.5465-.32175-.5885-.32138-.62962-.32162-.5875-.24138-.63138-.24125-.62937-.24137-.6725-.16088-.67038-.16087-.631-.12075-.71475-.0805-.67212-.04-.67188-.0404h-.67212l-.67213.0404h-.0422l-.67175.0807-.71325.0801-.67225.16088-.67312.16087-.71338.20088-.67175.24137-.67212.28163-.62962.282-.63113.3615-.5875.36137-.58888.36213-.54637.40212-.50425.44263-.50387.44225-.46163.48225-.46175.4825-.4205.52262-.3785.523-.377.56275-.33625.563-.29375.563-.29475.56275-.25125.64338-.2105.6035-.209.603-.16938.64312-.12587.6435-.0833.64313-.0421.6435-.0425.64337v.68388l.0425.6435.0832.68387.12688.64275.12575.64375.168.68325.2105.64338.25112.64312.29376.6435.336.60338.33624.60312.37838.56263.37813.563.46162.523.42138.523.46125.44187.50425.48263.54637.4025.50425.40188.54463.40212.58925.36212.5885.28138.58712.32162.63.241.631.24125.62975.24138.67212.16087.62963.16088.67188.12075.67212.0805.50387.04.16825.0404h.67188.71425.6725l.71437-.0804.67213-.12088.71437-.1205.67038-.20125.674-.2005.71287-.24137.33588-.16075.3785-.162.33587-.1605.37838-.16013.336-.16087.33625-.20125.33588-.20088.29375-.20137.33587-.24125.29513-.2005.33487-.24238.25263-.241.29375-.24062.29512-.24125.25088-.28163.25162-.24137.29375-.28138.2105-.28162.25225-.28175.2105-.28125.21075-.28175.20875-.281.253-.32175.16788-.28163.16625-.32175.21225-.32175.16612-.32175.168-.32175.1275-.32137.1255-.36175.12538-.32175.12725-.32175-5.5035-1.0055-.16788.36212zm-16.21425-3.41787v-.32175-.281-.3225l.0423-.32163.0425-.281.0829-.32175.085-.28175.0408-.32175.12725-.28125.0846-.28175.12413-.281.12712-.28162.12575-.28138.168-.28162.1255-.24138.16825-.28137.2105-.24088.16788-.24125.2105-.24137.20837-.24125.21088-.20163.25262-.241.20862-.20087.253-.20125.25263-.2005.25162-.20162.29375-.16088.29376-.16088.29474-.20125.29375-.1205.29376-.16087.29474-.12012.33638-.12088.33587-.0804.29376-.12051.33587-.0404.33625-.0804.33588-.0805h.1255.16825l.33587-.0408.336-.0396h.29375.33763l.33587.0396.29413.0408.33412.04.33763.0405.2935.0804.29375.0804.33587.0805.29375.12088.2955.0804.29338.12013.29375.12112.253.16025.29375.12075.29337.16088.25263.20125.2515.16087.25275.20088.25112.20162.25263.20025.25162.20163.21013.24125-7.43525 2.8545-7.43463 2.85525z" fill="#ee3338"/><path d="m344.53336 613.72063-.461-.0396h-.46163l-.42137-.0809-.42063-.08-.46162-.0809-.4195-.12075-.37813-.12012-.4195-.16088-.3785-.16088-.378-.20162-.3785-.2005-.33625-.20125-.378-.24137-.33625-.24126-.29375-.28137-.33587-.28163-.29375-.28099-.25263-.32176-.25125-.32174-.25262-.32175-.25163-.32175-.21012-.36213-.21075-.36137-.16763-.36213-.12587-.40212-.16788-.40225-.12575-.40213-.0834-.40212-.0846-.40225-.0421-.44188-.0426-.40287v-.44175-.44263l.0426-.44187.0421-.40213.0846-.40212.0834-.443.12575-.36138.16788-.40175.12587-.40225.16763-.3625.21075-.36137.21012-.36213.25163-.32175.25262-.32175.25125-.36212.25263-.28088.29375-.28137.33587-.28175.29375-.281.33625-.24125.378-.242.33625-.24125.3785-.201.378-.16088.3785-.20125.4195-.12037.37813-.16063.4195-.0804.46162-.12113.42063-.0797.42137-.0404.46163-.0397h.461.5045l.50387.0397.50425.0804.46138.0804.46337.12012.46175.16088.46175.16087.4205.16163.4195.24125.41888.201.37875.24087.421.282.33587.281.33588.32175.336.32175.33625.36138 3.86425-3.73925-.25262-.24088-.2515-.24137-.29338-.24125-.25125-.24125-.253-.24138-.29375-.24125-.29513-.20125-.29374-.20087-.29375-.20138-.29338-.24125-.33738-.16087-.29375-.2005-.33625-.16088-.33587-.16087-.33588-.16088-.29375-.16087-.3785-.1605-.33587-.12125-.33625-.12038-.33588-.12087-.3785-.12013-.377-.12112-.378-.0398-.33625-.12113-.3785-.0398-.377-.0807-.37837-.0404-.37813-.0805h-.37837l-.421-.0396-.37663-.0408h-.37912l-.7565.0408-.71263.0396-.71462.0805-.71463.12112-.67187.16088-.67213.20062-.67225.20125-.62962.24163-.62963.281-.631.28162-.5875.32175-.58887.3615-.58713.40213-.50387.40212-.50425.44263-.50388.44175-.4635.48262-.46162.483-.41925.52263-.42088.523-.37662.563-.336.563-.2955.60275-.29375.6035-.25263.60262-.25112.6435-.168.64313-.168.6435-.12713.68412-.0832.6835-.0411.6835-.0425.72363.0425.68312.0411.72388.0832.68387.12713.64313.168.68425.168.64337.25112.64313.25263.60275.29375.60337.2955.60313.336.56262.37662.563.42088.523.41925.52275.46162.4825.4635.48225.50388.443.50425.44213.50387.40187.58713.36213.58887.36212.5875.321.631.32213.62963.28125.62962.24137.67225.2005.67213.20125.67187.12125.71463.16113.71462.0394.71263.0807h.7565.37912.41888l.37875-.04.37837-.0408.37813-.0394.4195-.041.37837-.0801.37813-.0805.37737-.0807.37838-.08.33587-.12125.3785-.0797.33588-.16087.33588-.12075.37849-.12013.33488-.16087.33587-.16163.33725-.16087.336-.16013.33625-.16087.29375-.20125.33588-.20088.29375-.20125.29375-.20125.29475-.24062.29375-.20163.29375-.24125.25263-.241.25125-.24125.29412-.24137.25225-.282.25338-.24063-3.86613-3.73962-.33587.3615-.29375.3625-.377.28087-.33738.32175-.4195.28175-.3785.24125-.42088.24138-.41887.2005-.46163.20162-.4635.2005-.46137.12125-.46163.12075-.50424.12013-.50425.0401-.50388.0408-.5045.0396z" fill="#ee3338"/><path d="m374.81911 586.17637-.168-2.25175-.29375-2.211-.4195-2.21212-.50388-2.13062-.63112-2.13163-.75538-2.05088-.79762-2.0105-.92475-2.01037-1.05025-1.88975-1.09175-1.84925-1.2185-1.80987-1.3015-1.7295-1.38675-1.68876-1.46988-1.60825-1.51187-1.56825-1.597-1.44787-1.67988-1.407-1.7635-1.32737-1.85-1.20613-1.88925-1.16575-1.9325-1.086-1.974-.96488-2.05825-.88475-2.142-.80399-2.14325-.72388-2.18412-.60338-2.26775-.48262-2.26913-.36175-2.30987-.28175-2.39463-.2005-2.352-.0408h-.0421l-2.30988.0408-2.39462.2005-2.31025.28175-2.268.36175-2.2685.48262-2.18413.60338-2.14225.72388-2.10012.80399-2.1005.88475-1.97425.96488-1.93213 1.086-1.89075 1.16575-1.84825 1.20613-1.72162 1.32737-1.72275 1.407-1.59588 1.44787-1.51237 1.56825-1.4705 1.60825-1.38575 1.68876-1.3025 1.7295-1.2185 1.80987-1.09138 1.84925-1.05062 1.88975-.92413 2.01037-.7975 2.0105-.75687 2.05088-.62963 2.13163-.50387 2.13062-.42025 2.21212-.2945 2.211-.16788 2.25175-.084 2.29213.084 2.29225.16788 2.25175.2945 2.211.42025 2.17213.50387 2.17125.62963 2.09087.75687 2.091.7975 2.01038.92413 1.96975 1.05062 1.93075 1.09138 1.84962 1.2185 1.80925 1.3025 1.7295 1.38575 1.68875 1.4705 1.60825 1.51237 1.52788 1.59588 1.48825 1.72275 1.367 1.72162 1.32662 1.84825 1.24688 1.89075 1.16637 1.93213 1.08538 1.97425.96487 2.1005.88475 2.10012.80425 2.14225.6835 2.18413.60312 2.2685.48263 2.268.40175 2.31025.28175 2.39462.16088 2.30988.0804h.0421l2.352-.0804 2.39463-.16088 2.30987-.28175 2.26913-.40175 2.26775-.48263 2.18412-.60312 2.14325-.6835 2.142-.80425 2.05825-.88475 1.974-.96487 1.9325-1.08538 1.88925-1.16637 1.85-1.24688 1.7635-1.32662 1.67988-1.367 1.597-1.48825 1.51187-1.52788 1.46988-1.60825 1.38675-1.68875 1.3015-1.7295 1.2185-1.80925 1.09175-1.84962 1.05025-1.93075.92475-1.96975.79762-2.01038.75538-2.091.63112-2.09087.50388-2.17125.4195-2.17213.29375-2.211.168-2.25175.0846-2.29225zm-3.19225 4.4235-.16788 2.09125-.25162 2.05013-.37813 2.05087-.50412 2.01051-.5875 1.97037-.67213 1.88975-.7565 1.89025-.88262 1.84963-.966 1.76924-1.008 1.72913-1.13388 1.68875-1.21825 1.60863-1.26062 1.56787-1.38513 1.52787-1.429 1.40738-1.51187 1.36738-1.5535 1.327-1.63913 1.2065-1.68025 1.16575-1.76487 1.086-1.80563 1.00562-1.84825.88438-1.93287.84399-1.974.72388-2.01613.64312-2.01612.56313-2.09938.4825-2.143.36213-2.14225.24137-2.22662.16087-2.18413.0804h-.0421l-2.1845-.0804-2.18375-.16087-2.14225-.24137-2.14263-.36213-2.10012-.4825-2.01613-.56313-2.01612-.64312-1.97475-.72388-1.88963-.84399-1.89075-.88438-1.80637-1.00562-1.76413-1.086-1.68025-1.16575-1.63775-1.2065-1.5545-1.327-1.51225-1.36738-1.428-1.40738-1.3865-1.52787-1.26-1.56787-1.21812-1.60863-1.092-1.68875-1.05025-1.72913-.966-1.76924-.84-1.84963-.79838-1.89025-.67212-1.88975-.58825-1.97037-.462-2.01051-.37775-2.05087-.29375-2.05013-.16863-2.09125-.0419-2.13137.0419-2.1305.16863-2.13175.29375-2.05075.37775-2.05063.462-2.01112.58825-1.93.67212-1.93013.79838-1.88924.84-1.80988.966-1.80963 1.05025-1.72875 1.092-1.68875 1.21812-1.60825 1.26-1.56862 1.3865-1.48825 1.428-1.44738 1.51225-1.36712 1.5545-1.3265 1.63775-1.20625 1.68025-1.16638 1.76413-1.08537 1.80637-.96513 1.89075-.92525 1.88963-.80387 1.97475-.76363 2.01612-.6435 2.01613-.56375 2.10012-.44187 2.14263-.40213 2.14225-.24125 2.18375-.16087 2.1845-.0404h.0421l2.18413.0404 2.22662.16087 2.14225.24125 2.143.40213 2.09938.44187 2.01612.56375 2.01613.6435 1.974.76363 1.93287.80387 1.84825.92525 1.80563.96513 1.76487 1.08537 1.68025 1.16638 1.63913 1.20625 1.5535 1.3265 1.51187 1.36712 1.429 1.44738 1.38513 1.48825 1.26062 1.56862 1.21825 1.60825 1.13388 1.68875 1.008 1.72875.966 1.80963.88262 1.80988.7565 1.88924.67213 1.93013.5875 1.93.50412 2.01112.37813 2.05063.25162 2.05075.16788 2.13175.0847 2.1305z" fill="#373535"/><path d="m349.30586 715.77562v-1.32762h-.54575l-.75613.0408-.75612.0797-.67212.0808-.71438.0801-.63.12188-.63.1605-.63038.1205-.58737.1605-.5465.16087-.54638.20013-.54562.16238-.50425.19975-1.008.40324-.88225.36213-.16763-.12187-.46212-.36075-.33625-.242-.41988-.28101-.46237-.28087-.54563-.28137-.58825-.32313-.63037-.32175-.37763-.16087-.33625-.12013-.37812-.16125-.37775-.12013-.37838-.16087-.42025-.1215-.41987-.12013-.41988-.0801-.46275-.12013-.41925-.0811-.46237-.0796-.46163-.0408h-.16875l-.37762-.0405h-.6715l-.84113.0405-.41962.0408h-.54637l-.54488.0796-.589.0811-.5885.0797-.5875.1205-.62963.162-.631.15938-.25125.0408-.58925.0808h-.46137l-.50425.0394h-.25112l-.29376-.0394-.29487-.0404h-.33588l-.33662-.0404-.29338-.0811-.37837-.0797-.33625-.0811-.336-.0797-.37838-.1205-.3785-.12012-.377-.16075-.33587-.16088-.37838-.20125-.3785-.20162-.378-.24175-.3785-.28088-.33475-.28138-.3785-.32174-.33587-.32175-.0425-.0404-.168-.16088-.0832-.0797-.16938-.1215-.16687-.0797-.21013-.1205-.29375-.12038-.29475-.12125-.33625-.1205-.377-.12037-.42062-.0809-.46175-.08-.54638-.0809-.5875-.0392-.63137-.0404h-.67213l-.79762.0404-.79763.0392-.88225.0809-.96587.12038-1.00813.16087-1.09275.24175-1.13387.24088-1.26038.281-1.30175.36212-1.38687.4015-1.46975.4825-1.5545.523-1.68013.60413-1.68025.6825.0425-.20125.21013-.52163.20937-.32175.21013-.40287.12575-.20125.168-.20013.2105-.24162.16787-.241.25125-.20125.2105-.20125.25263-.24063.29375-.242.29375-.19987.33762-.242.37663-.20125.37812-.20163.4195-.15937.42063-.20125.46162-.16088.4635-.16087.54463-.12188.54675-.1605.58887-.0797.5875-.0815h.0829l.21012-.0404h.37875l.50425.0404.62963.0411.71437.0404.4195.0404.42063.0394.42062.0811.50375.0794h.0836l.29487.0408.2515.0408h.25125l.3785-.0408.33588-.0408.46312-.039.46163-.1215.545-.12012.58887-.16125.62963-.20163.67187-.19987.33625-.1605.37838-.16088.3785-.20162.41912-.1605.0429.0794.0829.242.12725.1205.12575.16088.168.12012.2105.1605.12538.0815.16837.0808.125.0394.16838.0408.16762.039.21075.0404.21051.0411h.2105l.25112.0404h.25275l.25113-.0404h.29375l.33625-.0815.336-.039.33587-.0801.37838-.0808-.0833-.0815-.2105-.19987-.33588-.36213-.37838-.44187-.21012-.28275-.21087-.28125-.20875-.32138-.21038-.32175-.21012-.36212-.20913-.36076-.21037-.40287-.21013-.36075.12538-.041h.29512l.46175.041.5875.039.71425.0404.79875.0815.4195.0794.4195.0815.46275.0797.4195.11975.29375-.281.84163-.68387.58712-.4825.62963-.52125.75712-.56413.75513-.64312.84012-.60301.84013-.60387.84012-.603.88263-.523.378-.281.41962-.24062.37838-.20163.42062-.20125.37838-.1605.3345-.16112.33625-.12013.29487-.12012.54525.40137.54638.4015.54637.32137.50388.32313.42025.281.42025.281.378.20163.25237.20012.25188.20125.29337.20138.2945.28125.29375.28212.58813.68275.63037.68388.54563.68387.4625.56225.29375.4025.16787.20025-.37775.32175-.33587.32312-.37838.28138-.37775.28063-.33662.20124-.29375.202-.25225.12013-.20938.12038-.50425-.322-.50387-.32175-.25188-.1205-.25237-.16013-.29438-.1205-.252-.12187-.25187-.1205-.2945-.0794-.25188-.0815-.29375-.0807-.2945-.0797-.25112-.039-.29375-.0408-.25263-.0408h.0421l.16825.0815.25125.0797.33587.11975.4625.24238.50413.28137.2945.16013.33587.24237.33588.19988.33562.28275.33663.281.37762.28125.42.36212.42013.36213.41987.4015.42.44225.46275.48225.46125.523.46275.56337.4625.603.50313.64313.50387.6435.50413.72312.54637.804.50425.80438.54563.84475.25262-.1205.71363-.4025.50425-.28138.58787-.281.67213-.32175.75612-.36212.75613-.32175.83987-.32175.42013-.16075.41987-.16063.4625-.12037.46238-.1205.41912-.1215.46275-.12013.46138-.1205.46275-.0807.41987-.0801.46237-.0404.33563-.0404v-1.24625l-.54575.0797-.42012.0404-.50388.0811-.54575.1205-.63062.1605-.67225.20125-.75613.20162-.79825.281-.88162.32175-.42088.20013-.46137.162-.50425.24087-.46163.20125-.50462.24063-.5035.24162-.50425.28138-.54638.281-.0839-.16088-.336-.48225-.20975-.32175-.25263-.44212-.33587-.40263-.33588-.52187-.42025-.48225-.41987-.56375-.46175-.5215-.46163-.56375-.54637-.56338-.54675-.56237-.29338-.281-.2945-.24238-.29375-.28062-.33662-.24238.37812-.24025.37875-.24237.33588-.24013.33587-.281.54575-.44362.42025-.40113.29438.28063.336.28137.29337.24163.29475.202.33588.20125.29375.159.252.12199.29437.15938.2945.0809.25125.12037.294.0408.25238.0811.25187.039.25188.0404h.20987.21013.25225.16787.20988l.16862-.0404.33625-.039.29375-.0811.378-.12013.12588-.0815v-.16087-.19975-.20125l-.0419-.20163-.0421-.32174-.12575-.32175-.168-.44188-.0847-.20125-.12575-.40175-.20938-.443-.2105-.40138-.20975-.36249-.25262-.4025-.29375-.36113-.29375-.36213-.2945-.36212.67225-.56225.20975.0796.46237.20124.75613.28138.92375.28138.50425.20124.54637.16088.50388.1215.50412.1605.50388.1205.50425.0801.46174.0807h.42013l-.71388.884 1.76413.88513.20975-.0794.54637-.32312.12588-.08v-1.08638l-.12588.0808-.58812.32174-.41988-.12012 1.04988-1.24625h-.16763l-.42062-.0404h-.33625l-.41988-.0408-.46162-.0807-.50388-.0798-.58825-.1205-.63025-.16087-.67225-.20163-.75612-.20125-.37775-.1605-.37838-.1205-.41987-.16075-.41988-.20137-.41987-.16075-.46175-.20138-.42025-.20012-.46238-.242-1.17637 1.20687-.25187-.24175-.29376-.24087-.29412-.28213-.2945-.20012-.58737-.484-.63038-.44188-.58787-.36112-.58813-.36175-.54637-.3625-.54575-.28088-.50388-.24212-.46275-.2405-.41987-.20125-.37775-.16088-.50413-.20162-.168-.0794.12575-.0408.12625-.0797.16825-.0404.168-.0411.33587-.0794.37776-.0807.41987-.0411.37875-.039h.4195l.37775-.0404h.75725l.62962.0404.41988.039h.16787l-.16787-.1205-.20975-.11975-.21013-.0797-.2105-.0811-.20975-.0408-.252-.0794-.25187-.0408-.2945-.0404-.546-.0411-.546-.0389h-.58825-.54563l-.54637.0389-.50388.0411-.46162.0404-.3785.0408-.62963.12013-.2105.0404-2.22587-1.00587.168.1615.12538.16025.2105.16112.2105.16088.46162.32175.54575.36212.50413.32175.58825.32175.58787.361.54638.28213 1.092.603.88162.44187.63063.32175.20937.0811.54675.36075.54575.32275.46238.36112.46137.32175.42013.32163.421.32137.37737.32175.33625.32175.29413.28138.29375.32275.29375.281.25262.32175.20975.28137.20975.242.168.281.169.2405.16788.24175.1255.24088.12575.24162.084.20163.168.36075.12637.32175.12625.484v.1205l-.29412.0404-.25225.039h-.252l-.29438-.039-.252-.0404-.25125-.0411-.21037-.0404-.25238-.039-.21012-.0811-.20975-.0811-.20975-.0801-.16788-.11975-.3785-.16087-.33587-.24238-.2945-.20125-.25188-.19987-.20975-.20163-.20975-.20125-.25262-.28125-.084-.0809-.50313-.64338-.505-.60275-.50425-.523-.46162-.48262-.37838-.44188-.37737-.40137-.3785-.3625-.29375-.28213-.54638-.4815-.37762-.32137-.252-.20163-.085-.0404-.83975-.48263-.7555-.44187-.67175-.44325-.63-.44175-.54638-.4015-.46312-.36213-.4195-.36212-.37813-.32175-.33625-.28138-.25125-.24237-.2105-.2405-.16787-.16025-.2105-.28125-.0833-.0815.46162-.16088.62975-.1995.71425-.16087.84013-.20125.46175-.12225.54637-.0797.63-.12013.63038-.0811.67212-.1205.75575-.0807.79863-.0797.88162-.12188.42025-.039h.41988.41987.42025l.37838.039.37737.0811.37888.0408.33587.0797.33625.12187.33588.0794.29375.1205.33587.0808.252.16087.29438.1205.252.12188.25187.11875.42025.28237.37838.281.33637.24238.29338.24012.37837.3625.12575.12013-.16825-.56188-.252-.36287-.25187-.28063-.25188-.281-.25237-.28275-.25188-.24025-.252-.202-.25225-.20125-.21012-.16087-.25188-.16088-.20975-.12012-.20975-.1215-.2105-.0801-.37812-.16075-.33588-.12012h.9245l.8815.0393.882-.0393.75675-.0405h.714l.714-.08.62962-.0809.546-.08.9245-.12125.71363-.12037.37837-.0797.168-.0408-1.63837.0408h-1.596l-1.55375-.0408-1.51225-.0404-1.4705-.1205-1.3865-.12125-1.38575-.16112-1.3025-.19988-1.26-.20162-1.21787-.24063-1.17675-.24162-1.13375-.28138-1.05025-.28237-.966-.281-.9655-.281-.92475-.28275-.88238-.32025-.79787-.32175-.7555-.28238-.71425-.281-.67188-.281-.58925-.28137-.54637-.28238-.46175-.24062-.84-.4025-.5465-.361-.377-.20125-.0846-.0815h1.59738l1.59475.0408 1.55525.0408 1.46937.0794 1.47112.12188 1.3865.159 1.30188.122 1.30175.20125 1.26.20012 1.21862.20125 1.176.20163 1.09238.24062 1.0495.242 1.00813.24025.96662.242.924.241.83988.282.79787.24088.75688.24025.71362.242.63038.24212.5875.2405.54637.20125.50375.20125.79838.36213.54675.241.33512.1605.1265.0801-.79862-.6435-1.04988-.52187-1.00837-.48225-1.04988-.44338-1.00812-.40137-1.00813-.40288-1.008-.4015-.96587-.32137-.96625-.32175-.92413-.32175-.96662-.28125-.92413-.24175-.92412-.2405-.8815-.242-.88238-.16125-.84037-.1995-.88238-.16088-.46162-.523-.62963-.725-.67225-.80387-.75675-.9245-.79762-.9245-.67225-.88538-.33588-.36212-.25262-.4015-.209-.32175-.168-.282.20912.0404.5885.16088.46163.12012.50425.1215.5885.20163.67225.19987.71462.242.79763.281.88162.32175.8815.36213 1.00813.40137 1.00837.44225 1.05025.523 1.092.523 1.13463.60263 1.17637.6435 1.176.68387 1.176.76363 1.21788.80387 1.26075.8455 1.21775.9245 1.21825.96588 1.21787 1.04487 1.2185 1.08538 1.21788 1.20675.75612.804v-1.72838l-.12587-.1215-.67213-.6435-.83975-.804-1.05062-.88512-.58813-.4815-.62962-.523-.67225-.523-.71425-.52338-.75613-.562-.79762-.56362-.84013-.562-.88225-.60275-.92412-.56413-.92413-.56337-1.00812-.60275-1.008-.56225-1.05063-.562-1.13387-.52338-1.13413-.56375-1.13387-.52287-1.21863-.48263-1.21775-.48225-1.26-.44225-1.30187-.4025-.0846-.0411-.29375-.11863-.46312-.12162-.5875-.16088-.714-.1605-.84038-.20125-.92312-.16125-.96763-.12012.1275.16087.29375.56338.21013.36112.25162.4025.33588.523.33587.522.3785.56338.4195.603.46275.64312.50275.60275.54638.64525.589.64163.29337.28237.29513.32138.29375.32212.33587.281-.79762-.12012-.75688-.0815-.71425-.0794-.71437-.0811-.71288-.0408-.674-.039-.62925-.0408-.6725-.0404-1.21675-.039-1.13537.039-1.008.0404-.96588.0408-.83975.039-.75587.0811-.63063.0815-.54637.0797-.41963.0811-.29512.0794h-.16763l-.0836.0408.75687.44188.79763.44187.75537.40288.71438.44212.75687.36213.75538.36075.71437.36212.75725.32175.7125.3625.71475.281.71425.28088.71475.28275.7125.281.6725.24175.71438.24087.62962.20125.67213.20125.67325.20125.67075.20025.58862.16088.62963.16087.63062.16088.63038.12037.62962.12125.58825.1205.58788.12038.58812.0809.54638.08 1.13387.1605 1.092.12163h-.67212-.67213l-.62962.0393-.58863.0408-.5875.0405-.58775.0393-.54675.0404-.50387.0811-1.0495.12012-.88263.16088-.798.20162-.79762.16088-.67325.20162-.54525.1605-.50563.16125-.41887.16088-.54638.20125-.209.0794.33588.44188.33587.40325.33488.44175.37837.40287.42063.4015.4195.36213.46275.4015.41962.36212-.253.0796-.54462.24212-.3785.16075-.4195.24063-.50525.28237-.5875.32138-.62963.40187-.67212.44288-.75688.48162-.798.60413-.88225.643-.92475.72325-.96412.80437-1.05063.88513-.168-.0408-.42087-.0813-.67188-.0389-.79787-.12162-.96563-.0796-.967-.0408-.50412-.039h-.46175-.46163-.46175v.12013.19975.20162l.0407.20125v.24238l.085.28062.0847.28138.12538.3625.12587.32175.20863.4025.21087.4015.25263.401.168.20137.16787.24225.2105.24063.168.20125h-.0847l-.21012-.0408-.12575-.039-.168-.0404-.16788-.0408-.2105-.0811-.21087-.1205-.20863-.1605-.0423-.0797-.12575-.0814-.0833-.0809-.0847-.1205-.085-.12038-.0829-.11975-.0425-.16087-.0834-.16088-.0421-.16125-.0425-.1605-.0425-.20162-.0407-.20125-.12688.0815-.37875.24025-.50425.32312-.7125.4015-.37887.20125-.4205.19975-.41963.20163-.41875.1605-.4635.16125-.46162.1605-.2105.0408-.20875.0408-.253.0404-.21013.0394h-.0836-.25263l-.37837.0404h-.46175-.546l-.5875-.0404-.29513-.0394-.29375-.0404-.29375-.0408-.25125-.0798-.29512-.0811-.33588-.0404-.41912-.0797h-.50425-.50425-.546l-.5875.039-.58888.0811-.33587.0408-.336.0404-.2955.0798-.29375.0811-.33588.0797-.3345.1205-.29512.0808-.33625.1205-.33588.1205-.29375.12113-.29375.1595-.29487.16125-.29375.1605-.29363.20162-.29375.20125-.25262.20163-.29375.19975-.21013.242-.25162.20125-.21013.24062-.2105.20163-.16787.20125-.2105.24062-.12575.20125-.168.20125-.12538.20125-.12587.241-.12688.20125-.20937.40138-.12688.36212-.16787.40288-.0411.36075-.0847.3625-.0421.36175v.28137.32175l.0421.28275.0426.2405h.0421l.209-.0796.29525-.12188.41913-.20162.54637-.1995.63-.24238.7565-.28137.84013-.281.92337-.32175 1.05025-.36213 1.13388-.32137 1.261-.40288 1.30187-.361 1.3865-.36212 1.51188-.36213 1.55337-.36212.63075-.16088.63-.0797.5885-.1205.5875-.0807.50388-.0408.54637-.0404h.50425.41913.4635l.41912.0404.37813.0408.37875.0404.37837.0797.29375.0811.29375.0797.29313.0808.2955.0801.209.0811.2105.0797.25262.12013.33588.16187.25125.20063.37837.28087.0836.12163.21012.12012.54638.40288.4195.2405.46287.28137.54525.281.54638.28238.33587.16087.29375.12013.3785.16087.33588.1205.33587.12188.3785.11975.377.0801.37838.12188.37837.0404.37813.0794.37912.0408h.41888l.42087.039.3785-.039.4195-.0408.378-.0794 1.05063-.16225.92337-.16087.88225-.1205.88238-.1205.79787-.0404.71438-.0794h.37837.377.337l.37738.039.33587.0404h.37813l.33662.0404.29375.0801.37838.0811.33587.0797.336.0807.33625.1205.33588.0815.33587.11975.33625.16087.33625.16088.37738.16112.3785.16063.33625.2015.37762.24025.0836.0411.25237.0794.33588.20125.42062.24237.5035.32175.50488.32.25125.20125.25187.20163.252.20162.21038.20125.29375-.12187.12625-.1205.42012-.24025.29375-.16225.42063-.19988.42025-.20162.54562-.19988.62963-.20125.67262-.24237.37763-.0794.3785-.12187.37762-.0794.42-.1205.46238-.0815.46275-.0794.46162-.0811.50388-.0408.50425-.0796.54525-.0408.54675-.0405.58787-.0389.63-.0405h.084zm0-16.52699-1.93225.1215.168-1.32726 1.05025.32025.714.24201zm3.57062-3.498-1.30187-1.2865.29375.0811.79825.24063.20987.0794v-1.08537l-.29375-.12013-.50387-.16088-.63075-.20162-.67175-.20125-.67225-.20125-.12575-.1205-.2945-.32138-.378-.361v1.72838l.41988.4015 1.17712 1.32737 1.1335 1.36801.84012 1.12574v-2.29224zm-3.57062 2.8545v.6435l1.97425-.1205h-.0421l-.12575-.0404-.20937-.0404-.337-.0801-.5035-.1605-.6725-.20162h-.084zm0 4.9455v1.08637l.29412-.16087.46238-.24176.5035-.32162.54637-.32175.54638-.4015.5875-.4025.5885-.4015.0419-.0404v-1.32738l-.29375.2825-.421.32138-.41912.32062-.4625.32175-.50375.36213-.50425.32175-.54638.36212-.41987.24063zm0 7.1985v1.24625h.084.46237.41988.41987l.42025.0404.37838.0811.37775.0797.37775.0796.378.12163.25237.0797v-1.28662l-.0844-.0394-.63037-.12151-.62963-.12012-.62925-.1205-.71475-.0404-.71437-.0408-.16788.0408zm0 3.69887v1.32763h.54637.58775.63075l.54538.0405.58812.0389.54676.0405h.12549v-1.2055l-.29375-.0408-.75587-.0808-.75612-.039-.75688-.0408-.75613-.0408h-.25187zm3.78-18.496-.20938-.20137v2.29225l.25188.32025 1.05062 1.52862-.1265.1215-.29375.28138-.50387.44187-.37838.28125v1.32738l.50413-.40288.58787-.4815.50425-.443v-2.8155l-.12587-.15937-.1265-.24163-.16788-.20137-.168-.20013-.12575-.16087h.0417l.168.12012.29438.16088.20987.1205v-1.20588l-.12587-.0404-.33588-.16088-.2945-.12012-.33587-.12225-.29475-.0389zm-.20938-1.08675.33625.12188.63025.19987.62975.24225v-1.04662l-.71399-.32138h-.084l-.25188-.1205-.337-.1205-.20938-.0404v1.08537zm0 16.32575v1.28663l.0839.0408.33625.12.336.12162.294.16088.29375.16087.25237.12013v-1.40813l-.0419-.0394-.50425-.20125-.58775-.20125-.46237-.16088zm0 3.499v1.2055l.37838.0408 1.008.12038.20987.0408v-1.16675l-.50425-.0794-.67187-.12187-.42013-.0394zm1.59625-19.26075.0421.0405.75612.32163.79763.32175.79825.36037.8405.40325.79762.44187.42063.20126.378.242.41987.24062.3785.2405.37725.2825.33638.2405.33587.28137.33625.28238.0836.0797.25225.24162.37775.36213.42087.44225.2095.20012.21038.24175.16725.242.16875.2405.16787.24175.12588.20013.0425.1205.0414.0811v.12013.0811h-.0839l-.25238.0394h-.21012-.20975l-.29338-.0394-.29475-.0408-.29337-.0807-.3785-.1205-.37838-.16087-.37775-.16088-.20975-.1605-.21012-.1205-.2105-.12037-.25113-.1605-.2105-.16125-.252-.20125-.21037-.20125-.25125-.20125-.92413-.88413-.84112-.72462-.37738-.36213-.3785-.32025-.37762-.281-.33625-.28237-.336-.28138-.33588-.242-.33587-.19987-.2945-.20125-.16788-.1205v1.20587l.16788.1215.252.20013.25187.16087.2945.24025.29375.242.33588.28138.337.36212.37725.32175.37775.40113.169.20262.37775.44225.29337.281.37875.32175.41988.36213.46137.361.25225.16087.25275.16088.29363.16088.29375.16187.2945.16087.29412.12013.29375.1205.33588.12013.33625.0811.37837.0801.33625.0404.37738.0404h.3785.37762l.3785-.0404.37775-.0404.0839-.0408.168-.0797.084-.0408.0842-.0797.0836-.12013.0426-.1215.0417-.0801.0421-.0808v-.0797-.0811-.12012-.0811l-.0421-.1205-.0417-.16087-.0426-.1205-.0836-.1605-.0842-.12038-.1255-.16087-.0842-.20125-.168-.20138-.12613-.16075-.20975-.24062-.67212-.80438-.71438-.76463-.33625-.36112-.41987-.36213-.46238-.36212-.46174-.36213-.58825-.361-.63026-.36212-.71362-.40325-.84013-.40113-.92375-.48287-1.09237-.4415-1.17612-.52338-.63026-.242v1.04663zm0 2.773.16788.242.252.48263.25187.40287.168.32138.1265.20162.0417.0797-.25225.281-.20975.242-.25162.281-.25225.242-.0421.0392v-2.8155zm0 13.5915v1.40813l.0421.0408.29375.16075.25187.16087.252.1595.46238.36213.42025.32175.33587.32175.25188.24162.42025.44225.1265.16088-.21037-.0794-.54638-.12225-.882-.1995-1.092-.202-.12613-.0404v1.16675l.71425.11975.88163.16087.75613.1205.71462.20125.63038.16088.5035.16087.46212.12188.58813.24062.21012.0794-.0421-.0794-.084-.24062-.168-.3235-.25225-.40075-.16801-.28138-.12537-.24225-.2105-.281-.21013-.281-.20975-.32175-.25225-.28237-.29449-.32175-.29376-.32175-.29337-.32025-.33687-.32288-.37776-.28137-.37849-.32138-.41988-.28125-.41987-.2825-.50413-.2405z" fill="#373535"/><path d="m316.43211 742.95812h-2.227v-8.00249l-.29337.24162-.33588.241-.33625.24163-.336.20162-.37838.19975-.37775.16087-.378.16088-.42025.16088v-1.93001l.2105-.0797.25188-.0811.20975-.12012.252-.1205.25187-.1215.2105-.16088.25188-.16087.252-.20013.25225-.162.20975-.24063.21012-.20124.20938-.20013.16837-.242.12613-.24062.12575-.24163.1265-.242h1.76425v11.13937z" fill="#373535"/><path d="m323.32061 741.38913h.084l.168-.0393.16825-.0404.168-.0408.12613-.12012.12575-.0811.12612-.12013.12588-.16087.1265-.16087.0839-.20163.084-.281.084-.281.084-.32175.0421-.40325.0844-.40075.0414-.44388-.20938.20163-.253.20163-.084.0793-.16787.0812-.12588.0796-.12575.0408-.12612.0813-.12538.0404-.1265.0389h-.168l-.2105.0411v-1.5275h.168.1265l.16787-.0811.12588-.0408.12613-.0794.12575-.0815.12612-.0794.12588-.12187.0839-.12013.084-.16088.0851-.16087.0414-.16087.084-.19975v-.20138l.0425-.2015v-.20162-.28101l-.0425-.242v-.19987l-.084-.20163-.084-.20125-.0425-.16087-.12537-.16088-.1265-.16087-.12588-.12013-.12575-.1205-.12612-.12149-.12538-.0797-.16912-.0404-.12538-.0408-.168-.0392h-.0425v-1.77025h.2105l.20975.0404h.21013l.20975.0408.168.0404.2105.0394.16787.0811.21013.0807.16762.0801.168.12012.16788.0811.168.12013.169.16088.12537.12037.168.16088.12575.16087.16875.1605.12575.16088.12538.20162.0847.24163.12575.20025.0833.242.0851.24062.0842.24163.0411.28137.0847.281.0425.32163.041.32175.0422.32325v.32025.36212.3625.4025.32038.36212l-.0422.36213-.041.28087-.0848.32175-.0425.32175-.0833.28275-.0421.24063-.12587.24025-.085.24237-.0833.24163-.12688.24062-.12575.20163-.1255.16087-.16787.20125-.12688.12038-.16687.1605-.168.16087-.168.1205-.169.12013-.16788.1215-.16725.0801-.2105.12013-.2105.0408-.16788.0807-.20987.0797-.20937.0408-.25263.0404h-.20975l-.2105.0394v-1.76925zm-3.48663-1.00413 2.14263-.20125v.1605l.0423.1205.0414.1205.0426.1215.0425.12012.0833.0801.084.12112.0421.0801.12575.0807.084.0394.084.0404.1265.0811h.084l.12613.0393h.12575.12575.084v1.76925h-.25188l-.29375-.0394h-.33587l-.29375-.0811-.2945-.0797-.25188-.0807-.25237-.1205-.25188-.1205-.2105-.16075-.20937-.20137-.168-.20125-.16825-.2405-.1265-.242-.1255-.24063-.1265-.32174-.0839-.32138-.0423-.32175zm3.48663-1.20687-.084.0404h-.29375-.16788-.168l-.16787-.0404-.16838-.0411h-.12537l-.16875-.0792-.16788-.0405-.12587-.0408-.16788-.0796-.1265-.0813-.16837-.0794-.12538-.0814-.25187-.20137-.252-.24088-.1265-.11975-.12575-.16087-.084-.1205-.1265-.16088-.084-.12187-.0414-.16088-.0844-.1605-.0844-.16087-.0417-.16088-.0419-.16087-.0836-.19988v-.16075l-.0425-.40287-.0418-.40288.0418-.20025v-.20125-.20125l.0425-.20025v-.16187l.0836-.20025.0419-.16088.0417-.20125.0844-.16087.0844-.16088.0839-.16087.084-.1215.12587-.16088.0835-.12012.12688-.16088.1255-.12037.1265-.12013.12537-.1205.168-.1215.1265-.0797.16788-.1205.16837-.0807.16788-.0801.168-.0807.12575-.0408.21012-.0404.168-.0394.168-.0811h.20975l.16825-.0404h.21013.20975v1.77025h-.12575-.12613l-.168.0392-.12575.0408-.1265.0404-.12575.0405-.12625.0796-.12575.1205-.084.0811-.1265.16088-.0836.12012-.0417.16088-.084.20125v.20025l-.0421.20125-.0419.242v.24062.28275l.0419.24013.0421.24212.0415.2015.0425.1595.084.20125.084.12013.12575.16087.12612.12188.0844.0794.12537.0815.168.0794.12651.0408.16787.0811h.1265.16725v1.5275z" fill="#373535"/><path d="m328.73911 733.99037v-1.97037h7.56175v1.5285l-.21013.24063-.25162.24199-.21012.28101-.25263.32174-.25125.32175-.25325.36213-.21012.36213-.25126.40137-.253.44362-.20874.4415-.21013.40151-.21075.44362-.168.44225-.16825.4825-.1255.44187-.12575.44188-.12687.48225-.12575.44187-.0833.44363-.0425.40137-.0844.40263-.0408.40137v.40288.36212h-2.14225v-.56337l.0833-.603.085-.56338.0833-.60275.168-.56237.168-.6045.16788-.60263.21012-.60237.25163-.56413.253-.60275.29337-.562.29375-.52325.33588-.523.33587-.523.37875-.48262.3785-.48263h-5.04175z" fill="#373535"/><path d="m345.24661 734.5935-2.14012.20125-.0423-.1205v-.1605l-.0428-.1205-.0422-.1215-.0836-.1205-.0421-.12012-.0848-.0811-.0832-.0797-.0836-.0811-.0842-.0393-.12587-.0405-.0846-.0811h-.12575l-.0844-.0392h-.12575l-.168-.0405-.0425.0405v-1.77025h.2105.29375l.33687.0404.29375.0811.25163.0394.29375.1215.25262.1205.21013.1605.2515.16087.21012.16088.168.20125.16863.24087.16762.24175.12575.28125.0851.281.0829.32175.0832.32175zm-3.48588 1.16613h.0425.29376.168.16787l.169.0408h.16688l.16975.0408.12575.0404.16762.0797.12588.0404.16787.0796.1255.0815.16825.0794.1255.0812.25262.2015.29375.24025.085.1205.12575.12013.083.16088.1275.12187.0829.16088.0851.16087.0421.16088.0829.16087.0836.16088.0423.16087.0429.159.0421.20313.0421.40137v.36213.20125.19987l-.0421.20163v.20162l-.0421.20125-.0429.15913-.0848.20162-.0411.16125-.0829.20125-.0421.1605-.0851.12038-.12575.162-.0846.15975-.12587.12162-.12575.16088-.12513.12-.12575.1205-.12725.1205-.12575.12125-.168.08-.16787.12012-.12688.0811-.1665.0797-.16837.0408-.16763.0807-.16862.0394-.21013.0404-.16787.0408-.168.0404h-.2105l-.2105.0394h-.16788v-1.76925h.0846.168l.12575-.0393.12587-.0404.12675-.0408.168-.0797.0833-.0807.12575-.0801.12688-.12113.0836-.1205.085-.1205.083-.20125.0421-.16087.0425-.20163.0411-.20125v-.24025-.24087-.28288-.24012l-.0411-.20125-.0425-.20163-.0829-.20163-.0422-.16049-.12575-.1595-.085-.16088-.12575-.0811-.12587-.12012-.12688-.0815-.12537-.0794-.16825-.0404-.1255-.0411-.16825-.0404h-.12688v-1.56787zm0-2.17063h-.0832l-.16801.0392-.16825.0408-.168.0404-.12537.0797-.16838.1215-.12687.1205-.12575.16088-.12538.16087-.0847.20125-.0833.281-.0847.28138-.0836.32175-.0421.36212-.0846.44175v.44225l.21038-.19987.21012-.20163.25262-.16087.25163-.12038.25262-.12012.29375-.0811.25125-.0408v1.56788h-.16687l-.16725.0404h-.12763l-.16787.0815-.12588.0794-.12575.0408-.0844.12012-.12575.12188-.12575.1205-.0847.16087-.0833.11975-.0421.20013-.0425.16237-.0423.19975-.041.24238v.20125.24025l.041.24237.0423.24163.0425.20025.0833.20125.0847.16125.0832.1605.12675.16087.12588.1205.12575.12013.12687.1215.16688.0797.12687.0408.16688.0404.12688.0393h.0832v1.76925h-.25125l-.2105-.0394h-.209l-.16937-.0404-.20913-.0408-.21-.0797-.168-.0807-.2105-.0408-.168-.0797-.16825-.1205-.168-.0808-.16787-.16087-.12588-.1205-.16787-.1215-.168-.15938-.12538-.16087-.16837-.16088-.12675-.20125-.0834-.16087-.12575-.242-.0846-.20025-.12588-.24163-.0846-.24062-.0423-.242-.0833-.281-.0425-.28138-.0833-.32137-.0425-.3235v-.31988l-.0421-.3235v-.36037-.3625-.36213-.3625l.0421-.36037.0425-.32175v-.36238l.0833-.28137.0425-.28238.0833-.281.0847-.28137.0829-.281.0851-.20125.12575-.242.0846-.20013.168-.20137.12575-.20125.1255-.16088.16788-.20125.12725-.12037.168-.16088.16687-.12012.16788-.1205.21012-.1215.16838-.0798.16787-.1205.21013-.0807.168-.0811.2105-.0394.25262-.0404.209-.0408h.2105l.21013-.0404h.0411v1.77025z" fill="#373535"/><g fill="#ee3338"><path d="m269.25973 588.58862-.0419-2.09087 6.721-.0797h.63037l.54563.0401h.25187l.21051.0396.20975.0408.168.0408.25187.0794.2105.12125.20975.12.20938.12088.16837.12125.16825.16075.168.20062.12575.20088.16838.20125.084.20162.12537.24125.0846.281.0419.24138.0421.28162.0419.32175v.32176.36137l-.0419.36212-.0421.32176-.084.32175-.084.16087-.0417.12013-.084.16087-.084.12112-.084.12013-.0839.1205-.0844.12087-.12612.0804-.084.12088-.12613.0807-.12575.0801-.1265.12037-.16725.0801-.1265.0411-.168.0801-.12537.04-.33701.12075-.37775.0805-.37837.0396h-.41925l-.25188-1.96962.41988-.0405.37775-.0808h.1265l.12537-.0804.1265-.0397.12575-.0404.1255-.0804.0844-.1205.12612-.12087.0839-.12113.0426-.12012.0414-.16088v-.16087l.0422-.16087-.0422-.16088v-.16087l-.0414-.1605-.0426-.12051-.0417-.12075-.0846-.1205-.0836-.0805-.0844-.0811-.1255-.0396-.12574-.0805-.21051-.0408-.16787-.0396-.252-.0404h-.25187-.252-.33625l-6.847.08z"/><path d="m276.56923 576.08438h.12575.16788l.2095.0396.2105.0398.21037.0408.20975.0396.20988.0805.16825.0804.20975.0408.168.0801.16825.12038.168.0812.16787.12012.168.12113.1265.1205.168.12012.12538.12075.1265.16088.12575.12125.12613.1605.084.16012.12587.20163.0839.16087.084.16088.0425.20125.084.16012.0415.16088.0425.20125.0415.20162v.1605l.0425.20088v.20137l-.0425.2005v.20163l-.0415.2005v.20162l-.084.241-.0425.24163-.12575.24062-.084.242-.12613.20013-.12587.24175-.12613.24087-.16787.20163-.16838.20087-.16787.1605-.20975.16088-.21013.16087-.20987.16088-.21038.0805-.252.12075-.21037.0805-.2935.0804-.25225.04-.25188.0405h-.2945-.29337-.0418v-2.05087l.16787.0408h.25125l.2105-.0408h.21038l.2095-.0805.20975-.0396.168-.12125.169-.12075.16787-.0797.1255-.12125.1265-.16075.0839-.16087.0834-.16088.0839-.16087.0426-.20063v-.20125-.16087-.20163-.1605l-.084-.20087-.0425-.16088-.1255-.16087-.0842-.16088-.168-.1605-.12575-.1205-.168-.12075-.21012-.1205-.20975-.12087-.252-.0804-.25288-.0805-.252-.0408-.29337-.0396h-.0418v-2.05013zm-.88275 7.67937-.25187-.04-.25225-.0404-.21013-.12051-.25125-.0801-.2105-.12113-.2105-.12012-.25187-.16087-.16725-.16088-.25263-.16087-.16825-.16088-.168-.20162-.1255-.2005-.16825-.20163-.084-.241-.12612-.2005-.084-.28212-.084-.2005-.0418-.282-.0425-.24138v-.281-.24125-.24162l.0425-.28138.0418-.28137.0422-.20125.0418-.20125.0422-.2005.0839-.16088.084-.20162.084-.16088.084-.16087.12575-.2005.084-.12013.1265-.16162.12575-.1205.12613-.16088.12587-.12112.16788-.11975.12612-.1205.16838-.12113.16787-.0801.168-.12113.168-.0805.20975-.0804.16788-.0805.168-.0396.16838-.0408.20999-.0398h.16801l.20975-.0396h.2105.16825.12625v2.05012l-.2105-.0408h-.252-.20975l-.21051.0804-.20999.0408-.20988.0805-.16787.0804-.16838.0805-.16787.12075-.12613.16088-.084.1205-.12588.1605-.0839.16087-.0426.16088-.0839.20125v.1605.20125.20125.16087l.0839.16088.084.20062.0844.16088.12613.16087.1265.16088.12549.12112.20976.12013.16787.1205.2105.0811.2105.12013.29375.0804.25188.0404.25225.0401h.12625v2.05088h-.25301l-.29374-.0405-.33601-.0804z"/><path d="m273.12398 572.70575-1.76412-.56263.58813-1.88962 1.80637.56262-.63037 1.88963zm8.27513 2.654-7.30888-2.33225.67225-1.89037 7.30875 2.333z"/><path d="m285.38986 565.227-.84013 1.8095-3.57049-1.56825-.54575-.24125-.42026-.16087-.16862-.0405-.16725-.04-.1265-.0404h-.084-.20938-.16825l-.168.0404-.16862.0805-.1255.12012-.12575.12113-.1265.16087-.084.16088-.084.12012v.12075l-.0414.1205v.12125l-.0426.12075v.12012l.0426.12126v.12037l.0414.12013v.12087l.084.12012.0425.0811.0415.1205.084.12075.084.0805.0842.0797.1255.0807.1265.0801.12575.0804.16825.12125.46212.24125.546.241 3.15038 1.40775-.798 1.80912-7.015-3.0965.75612-1.68875 1.05063.44263-.1265-.16088-.084-.16087-.0425-.20163-.084-.15974-.0415-.20125-.0425-.16088v-.16088-.20162l-.0415-.16087.0415-.15988v-.2015l.0425-.16087.0415-.16088.0425-.20125.0415-.16087.084-.16088.1265-.28137.21037-.28175.084-.12.084-.12125.12575-.12013.084-.0804.21012-.20125.25225-.1205.1255-.0805.084-.0404.12637-.04.12588-.0404.20975-.0401h.25262.20938l.25237.0401.294.0804.29375.0805.33588.12075.3785.16088 4.3685 1.93012z"/><path d="m287.74223 561.80875-8.023-2.13138 1.30213-1.68875 3.99012 1.20625 1.3025.4425-.12612-.2005-.12575-.16087-.084-.12088-.0844-.0804-.0836-.12125-.0844-.16087-.12612-.12013-.0832-.16087-2.22663-3.45788 1.26-1.649 4.28463 6.9565-1.09213 1.4475z"/><path d="m286.35649 549.26287.33587.3225-.33587.32138zm0 2.77488v-.6435l1.09212-1.12612 5.50275 5.26787-1.42875 1.44775zm-1.09275-1.04537-1.34438-1.28688 1.3865-1.40775 1.05063.96513v.64387zm1.09275.40187v.6435l-.33701-.32175z"/><path d="m294.54686 554.12863-6.80463-7.9615 1.5545-1.28688 6.80463 8.0015z"/><path d="m297.69761 551.6355-5.923-8.68538 1.68025-1.086 5.923 8.64575z"/><path d="m303.74598 545.04113 1.97475-.6035.0421.28175v.28125.24137l-.0421.28163-.0419.24137-.084.24125-.0846.24138-.084.2005-.1255.24125-.16825.20162-.168.20063-.16787.20125-.2105.16087-.25188.16088-.25237.20124-.25188.12038-.20975.12088-.25162.0807-.2105.0794-.20975.0805-.2105.0804-.20975.0408-.21013.0398h-.16787-.20975-.2105-.20975l-.084-.0398v-1.93l.12575.0804.1265.0805.168.0804.16787.0397.168.0408h.168.12575l.168-.0408.16788-.0397.168-.0408.1265-.0804.12575-.0398.084-.0804.084-.0805.084-.04.0839-.0811.0422-.0797.0418-.0811.0425-.12012.0415-.0804.0421-.12125v-.12012l.0419-.0804v-.12124l-.0419-.16051v-.12037l-.0421-.16087zm-2.30987-4.46351v1.60825h.12575l.168.0408.1265.04.16788.0404.12587.0797.16788.12088.12625.0804.12575.16087.12612.12088.0844.16087.12537.20088-1.46975.76425v1.36738l3.82175-1.97075-.12537-.24125-.12613-.28138-.12575-.20125-.168-.24137-.1265-.2005-.168-.16088-.12538-.20162-.168-.1605-.16825-.16088-.1265-.12075-.168-.1205-.16787-.1205-.168-.12087-.168-.12038-.16825-.0805-.168-.0404-.20938-.0805-.16825-.0396-.168-.0408-.168-.0404-.16787-.04h-.2105-.168-.12575zm0 7.84126h-.084l-.21013-.0407-.16824-.0804-.2095-.04-.16825-.0801-.29413-.16088-.25225-.20087-.25187-.20125-.252-.20125-.25188-.28138-.20975-.28175-.2105-.32175-.20937-.321-.0844-.20125-.0836-.20162-.0844-.2005-.084-.20125-.0839-.20088-.0425-.20137-.0415-.16075-.0425-.20063-.0422-.20162-.0418-.20088v-.1605-.20162l.0418-.1605v-.20088l.0422-.16087.0425-.20125.0415-.16088.0839-.16087.0425-.16088.084-.16087.0844-.16088.0836-.12012.0844-.16088.12537-.12087.12538-.16075.0851-.0805.12538-.12113.16837-.12012.12613-.1205.16825-.0807.1255-.1205.16787-.0805.2105-.0804.168-.1205.20975-.0404.168-.0805.21038-.0396.168-.0408.168-.0404.16787-.04h.084v1.60825h-.168l-.12612.0408h-.12575l-.168.0804-.1265.0398-.12575.0804-.12613.0805-.12575.12075-.084.1205-.084.12087-.084.1205-.0425.16088-.0836.12075v.16087l-.0417.16088v.16087l.0417.16088.0421.16087.0415.2005.0844.16088.0839.20162 1.21825-.6435v1.36738l-.67187.3615.12587.16087.12613.20125.12575.12075.12612.16088.12588.0797.0421.0408v1.93z"/><path d="m312.10536 544.11588-2.35237-10.17313 7.64537-1.72875.41988 1.72875-5.58675 1.24687.50424 2.25175 5.20825-1.16649.41988 1.68874-5.20825 1.2065.62962 2.73475 5.79725-1.28725.42025 1.68938-7.89737 1.80887z"/><path d="m321.05223 539.81325 2.0165-.40138.0421.16013.0425.12112.0832.12013.0423.12087.0842.0807.0836.12088.0844.0804.084.0805.12575.0396.12612.0805.12651.0396.12549.0411.16788.0394h.12587.16788.168.2105l.16788-.0394.16837-.0411.16788-.0396.1255-.0405.1265-.04.1265-.0804.084-.0801.0417-.04.0836-.0408.0417-.0801.0426-.0807v-.0398l.0414-.0811v-.0804-.0805-.12012l-.0414-.0804-.0426-.12012-.0842-.0805-.1255-.0406-.12538-.0405-.21087-.0796-.2515-.0408-.58825-.12087-.50425-.0805-.50375-.12038-.42025-.0805-.37813-.12012-.29375-.0804-.25225-.12125-.20937-.0804-.2105-.16088-.2105-.1605-.084-.0807-.0839-.12087-.0415-.0797-.0844-.12075-.0421-.0805-.084-.12075-.0418-.1205-.0426-.12088-.0414-.24125v-.28137-.20125-.24125l.0414-.24063.0844-.20125.084-.20162.168-.20063.12638-.20125.168-.20087.084-.0804.12537-.0801.1265-.0407.084-.0804.29375-.16087.25225-.0805.33663-.0804.33525-.0805.37837-.0396.41988-.0408h.33625.3785.33512l.2945.0408.2945.08.25113.0809.252.0804.21037.12012.168.12125.2105.12.12575.16088.168.16087.12575.20125.1255.20063.12713.24125.0832.20162-1.89.44188-.0414-.0805-.0425-.12-.084-.0805-.0415-.0804-.085-.0805-.083-.0804-.0425-.0408-.0842-.0805-.12612-.0396-.084-.0408-.12588-.0397h-.12575l-.12612-.0404h-.12538l-.1265-.04-.16837.04-.37738.0404-.29437.0397-.168.0408-.0844.0396-.12612.0408-.084.0398-.0832.12112-.0846.0805-.0419.12013v.12112.0801l.0419.12037.0846.0805.0832.0404.084.0804.168.0401.16787.0404.2105.0804.54575.1205.75613.12087.378.0804.37887.0805.33513.0804.29375.1205.29512.0811.21013.12012.25162.0805.16788.1605.168.12038.12575.12087.0848.16088.0832.20162.0846.16013.0422.20125.0836.24137v.2015.281l-.0425.241-.0411.24163-.0847.241-.12537.2005-.0848.24237-.16788.2005-.20912.20138-.0846.0804-.12575.1205-.12587.0804-.12713.0805-.2935.12012-.29362.12113-.337.12087-.37738.0396-.37837.0807-.41925.0405h-.37838-.37812l-.33625-.0405-.33625-.0807-.29375-.0396-.29413-.0805-.25225-.1615-.25187-.12012-.20975-.16088-.2105-.16087-.2095-.16088-.12638-.20125-.168-.20087-.16837-.24138-.0836-.24125-.0842-.28175z"/><path d="m334.15748 534.14437.12575-.0408h.16975l.20875-.0401h.16788.168l.2105.0401h.16825l.16762.0408.12575.0396.16938.0404.12587.0809.16788.0396.12575.0805.168.0804.1255.0805.085.0804.16787.12088.0834.0804.25262.24124.2105.28138.0833.12087.0829.16088.085.16087.0847.16088.0411.16087.0846.1605v.20088l.0833.16087v.20125l.0425.20088v.20125l.0423.20162-.0423.44188-.0425.40175-.0833.48262-.0425.40225-.0832.20125-.0847.2005-.0408.20088-.0846.16087-.0848.20163-.0832.12087-.12575.15975-.0847.16125-.12576.16088-.12725.12075-.0829.12125-.12575.12012-.29375.24125-.29513.16088-.1255.0805-.12575.0804-.168.0404-.12575.0401-.168.08h-.16962l-.12513.0408-.16862.04h-.168-.12575-.16763-.16837l-.0846-.04v-1.60825h.12575l.12725-.0408.16763-.0397.16862-.0404.12513-.0807.16862-.12088.12513-.0797.1275-.1615.1255-.16087.0846-.16013.12575-.24175.0408-.20087.0851-.28163.0421-.28137.0421-.28175.0425-.28125v-.28175-.24088l-.0425-.24137v-.24125l-.0842-.201-.0851-.16075-.0829-.16088-.12575-.1605-.0848-.12125-.12575-.12012-.168-.0804-.12575-.12125-.168-.0396-.12713-.0408-.20875-.0397h-.16975-.12575v-1.44738zm-3.23325-.4025 1.88926.24163-.12575 1.08525.085-.12037.1255-.12088.12538-.12012.168-.0804.12575-.12125.12762-.0804.16788-.0805.168-.0804.16788-.0401.168-.08h.0408v1.44737h-.0408-.168l-.16788.0397-.168.0804-.1275.0805-.168.0811-.12575.1205-.168.16087-.12538.12001-.0847.20137-.0833.20088-.0846.20124-.0836.24126-.0422.24137-.0421.24125-.0408.32175v.281.28162l.0408.24138.0421.24125.0422.20088.0836.20125.12712.16087.083.16087.12575.12013.12713.16087.16837.0811.12538.0805.16762.0804.16863.0397.16762.0408h.2105.0408v1.60825h-.0829l-.16838-.0408-.12537-.0396-.168-.0404-.1275-.0401-.1255-.0804-.12575-.0404-.1255-.0805-.12712-.0804-.12575-.0805-.1255-.12075-.0846-.1205-.25162-.28137-.25088-.28163-.4635 3.77963-2.01612-.24138 1.26075-10.374z"/><path d="m343.14724 535.59175h.29374l.25263.0397.29375.0408.21012.0396.21075.0408.16801.0805.20874.0804.16788.0805.16975.0804.1665.0805.16937.12.1665.0805.168.12088.12726.12037.12575.12088.12549.16087.16825.1205.0846.16088.12587.16087.0846.1615.1255.20063.0846.1605.0411.16112.0846.20063.0411.16087.0422.1615.0425.20063.0421.20087v.20125.1605.20088.20162.20125l-.0421.20063-.0425.20162-.0422.24025-.0833.16188-.0425.2005-.085.20137-.083.1605-.0833.20125-.0846.16088-.12587.16087-.0846.16075-.12575.12088-.1255.16087-.12575.12013-.16975.16087-.12575.12075-.168.1205-.125.12088-.21087.0804-.168.1205-.16825.0805-.168.0804-.16788.0404-.20875.0805-.16975.04-.16787.0404-.20875.04h-.2105-.16788-.2105v-1.64825h.0846l.20912-.0404.16975-.0401.16613-.0804.168-.0811.16787-.12013.12726-.1205.16824-.12087.12513-.2005.12575-.16125.12587-.24163.0421-.20087.0854-.241.0829-.28138.0425-.282.0426-.241v-.24125-.24125l-.0426-.20125-.0425-.201-.0829-.2005-.0854-.16162-.12512-.16088-.0836-.16087-.12712-.12-.16801-.12125-.12574-.12013-.168-.0804-.21013-.0404-.16825-.0401-.21012-.0408-.168-.0396-.12575.0396v-1.648zm-3.82225 3.01537.0426-.24124.0832-.24138.0836-.2005.0842-.24125.12587-.20062.12687-.24238.16688-.2005.16938-.20125.16787-.201.168-.16075.209-.20137.2105-.12.21013-.12125.2105-.12013.25125-.12112.25262-.0805.2515-.0396.25262-.0408.25125-.0397h.25263.25163v1.648h-.083l-.16862.0408-.16788.0401-.168.0404-.168.12113-.16787.0794-.168.12125-.16825.1605-.12688.16113-.0833.20062-.12687.20125-.0836.24125-.0833.24138-.0847.24125-.0421.28175v.28125l-.0411.20125.0411.24137.0421.2405.0422.20138.0425.16075.12575.20137.0844.16088.12575.1605.12575.12075.12587.12087.16788.0797.168.0811.16787.0804.21051.0401.168.0404h.21075.083v1.64825h-.20875-.16975l-.209-.04-.21013-.0404-.25262-.0804-.25163-.0401-.2515-.12075-.25262-.0805-.21013-.1205-.2105-.12075-.25125-.16088-.2105-.16087-.21012-.16088-.16788-.16087-.16837-.2005-.16788-.20125-.12587-.20163-.0842-.24062-.12588-.24125-.0836-.24138-.0421-.24162-.0421-.24138-.0411-.28125-.0425-.28175v-.281l.0425-.281.0411-.32237.0842-.32175z"/><path d="m349.44861 545.60412-1.89038-.76425 2.98175-6.91587 1.76488.68312-.4195 1.00525.33588-.241.33625-.16075.1255-.0805.12574-.0396.16801-.0408.0836-.0408h.12675.12588.12574.0844l.21075.0408.25087.0804.16801.0805.12575.08.168.0807.12575.12013.12762.12087.125.1205.12588.12113.12575.12012-1.30188 1.36775-.16787-.20125-.168-.20087-.0836-.0805-.12687-.0404-.0833-.0805-.0846-.0396-.2095-.0811-.21012-.04h-.0833-.0846-.0833l-.0847.04-.12575.0404-.0847.0408-.0833.0396-.0846.0805-.2105.16088-.209.24125-.0847.16087-.12538.16088-.12587.24137-.12675.24125-.33488.64313-.33587.80425-.92488 2.13137z"/><path d="m359.69761 542.22663-.75538 1.40674-1.21825-.68325-1.514 2.654-.20875.40213-.12537.281-.0851.16087-.0833.16088v.0804.0805l.0408.0408v.0804l.0425.0801.0851.0804.0404.0401.085.0404.16763.0804.16862.0407.2105.0798.25088.0404-.58888 1.4475-.20875-.0398-.16824-.0408-.21013-.0404-.16837-.0396-.20825-.0809-.2105-.08-.16838-.0805-.21037-.12113-.21051-.12012-.21012-.16088-.20912-.16087-.16788-.20125-.1255-.16088-.085-.16087-.0833-.20088v-.16087l-.0425-.20125.0425-.20063.0411-.20087.0846-.242.0833-.2005.12688-.28213.16687-.32137.25262-.44213 1.59526-2.89487-.79763-.44263.79763-1.367.79975.40188.7565-1.287 2.351-.0394-1.30188 2.33125 1.176.64413z"/><path d="m362.47023 550.50988 1.25975 1.166-.25125.16125-.25262.1605-.25163.0805-.25262.12038-.2105.0805h-.0411v-1.76913zm0-6.07225v1.68875h.12588.12575l.168.0408.12712.0404.16801.0797.12537.0811.12588.0797.12575.12112.0846.12013.0834.12125.0421.12012.0836.12075.0421.12125v.16013l.0425.16087v.16087l-.0425.16126-.0421.16087-.0411.16112-.0846.15988-.0834.20162-.12712.16088-1.04925-.6835v1.48737l2.01625 1.36738.16825-.24163.12537-.24087.16837-.20163.12538-.24062.0847-.20125.12575-.24138.0833-.20125.0847-.20087.085-.2005.0408-.20125.0421-.20163.0429-.20087.0408-.20062v-.20126-.20125-.16087l-.0408-.20088-.0429-.16087-.0421-.16087-.0408-.20125-.085-.16088-.0847-.16087-.0833-.16088-.0846-.16087-.0832-.12013-.12587-.16087-.12575-.16088-.12688-.12075-.168-.1205-.12575-.16087-.16787-.12088-.168-.12037-.168-.0801-.16825-.12112-.168-.0805-.12538-.04-.16837-.0801-.16788-.0807-.168-.0404-.168-.0398h-.16787l-.16838-.0408zm-.21012 5.8305.21012.24175v1.76912l-.21012.0404-.25262.04h-.25113-.29525l-.25112-.04-.25163-.0804-.25262-.0805-.25125-.0804-.25263-.12088-.29375-.16087-.2105-.16088-.21012-.16087-.20938-.1205-.168-.1605-.16787-.1615-.12726-.16088-.16762-.16012-.12575-.16088-.085-.16087-.1255-.16163-.0832-.2005-.0421-.16087-.0836-.20063-.0421-.16187-.0423-.2005v-.20138-.20087-.32175-.28163l.0844-.3615.12575-.28162.0832-.32175.16763-.321.16862-.3225.25263-.321.12549-.20125.12726-.20163.1665-.12012.12725-.16088.16787-.16087.12575-.1605.168-.12113.168-.12012.12575-.12125.168-.0804.16788-.0804.168-.1205.16787-.0404.16838-.0805.21012-.04.16788-.0404.168-.0398.16837-.0408h.16788l.21012-.04.168.04h.16788v1.68875h-.0421-.12575l-.168.0408h-.12687l-.16788.0805-.16687.0804-.12688.0804-.12587.12012-.12538.16088-.12725.12125-.12537.1605 1.42825 1.00562v1.48738l-2.184-1.52788-.12688.20163-.0832.15987-.0848.20163-.0421.16087-.0411.20125-.0425.16088v.16012l.0425.20125v.12013l.0411.16187.0844.16088.0832.12012.085.12013.0844.16087.12575.0805.168.12075.0832.0809.0846.0404.12575.0396.0848.0408h.0836l.12538.04h.0848.12575l.0833-.04h.12687l.12575-.0408.0847-.0396.12575-.0404.0832-.0809.12688-.08.12575-.0809z"/><path d="m373.51723 560.84388.67213 2.05087-.37725.1205-.42063.12075-.37812.0805h-.4195l-.169.04h-.16688-.2105l-.168-.04h-.16787l-.168-.0404-.16788-.0401-.2105-.0404-.168-.04-.12575-.0805-.168-.0404-.16825-.0804-.29337-.201-.29525-.20125-.29375-.2005-.29363-.282-.253-.281-.25087-.3225-.168-.2405-.12575-.20162-.12588-.20025-.12675-.24237-.0833-.2005-.0851-.24138-.0829-.20125-.0425-.20087-.0422-.24126-.0429-.241-.0404-.24124v-.20163-.24062-.24163l.0404-.24137.0429-.2405.0422-.24138.0829-.20125.0425-.24125.12587-.24137.0846-.20163.12537-.24087.12725-.20088.12575-.24137.168-.20126.168-.20087.1665-.20125.2105-.16088.21038-.20049.2105-.20163.25262-.20062.20913-.16088.29375-.20125.25262-.16087.29375-.16088.25263-.12037.25125-.16088.25262-.12087.2515-.0804.29488-.0805.2515-.0804.25125-.0805.25262-.04.25263-.0404h.25162.25263.25125l.2515.0404h.25262l.25125.0807.2105.0398.25263.0804.21087.0805.20825.0804.253.12087.168.12038.209.12087.21013.16088.2105.16087.168.16125.16787.1605.168.2005.21088.20125.1675.20088.12587.20162.12575.20063.12725.20125.0829.20049.12575.20163.0851.20063.0421.16087.0832.2015.0425.20138.0408.20087.0423.2005v.20125l.0425.20163v.20062l-.0425.20087v.20126l-.0423.24124-.0408.28101-.12575.24137-.085.242-.12513.24125-.16862.24063-.16763.28162-.16837.24138-1.67988-1.40775.1255-.16088.12575-.16025.0848-.16112.0832-.16088.0846-.16087.0411-.20088.0421-.16087v-.20063-.20125-.16087l-.0421-.20163-.0411-.16087-.0846-.2005-.0832-.16088-.0848-.16087-.12575-.16088-.168-.24087-.2105-.20163-.20825-.16087-.21087-.1205-.25263-.12088-.25162-.0804-.25263-.0805-.25112-.0396h-.16938-.12437-.168l-.12725.0396h-.16788l-.168.0805-.12575.0404-.168.04-.33587.16088-.37838.16087-.336.241-.377.24163-.4205.28175-.33637.28087-.2955.28213-.25088.281-.12575.16087-.0846.12075-.0834.16088-.0833.12125-.0846.12012-.0421.16088-.0426.12037-.041.12088-.0844.28162v.28138.24137l.0421.24088.0833.24137.0847.24125.12575.24125.168.24138.12575.16087.12575.16088.16725.12112.12762.12013.16788.0801.2105.0807.168.0801.209.0408.21012.04h.2105.2105l.21013-.04.2515-.0408.25125-.0398.25262-.0804.29375-.12087z"/><path d="m372.13074 566.55325 9.74625-4.10112.79799 1.84962-9.74524 4.10138z"/><path d="m375.28211 574.998 1.13362-.32175-.21012-.0404-.16662-.0805-.16976-.0804-.12575-.0805-.16787-.12012-.1255-.0804-.168-.12125-.12575-.1605-.12687-.12037-.12575-.16088-.12575-.12087-.0847-.16088-.0833-.20087-.0846-.1605-.0422-.16088-.0833-.16087-.0425-.20163-.0411-.16087v-.2005l-.0435-.16088v-.16087l.0435-.20163v-.16087l.0411-.1605.0425-.16088.0423-.16087.0832-.16088.0846-.1205.0833-.16087.0847-.12075.12575-.12013.12575-.0811.12687-.1205.16838-.12013.1675-.0805.16875-.12112.20825-.0396.2105-.12087.253-.0805.25125-.0804 4.66225-1.28687.54637 1.89025-3.36075.96412-.71262.20163-.54638.20125-.2105.0805-.16825.04-.168.0801-.0846.0408-.12575.12013-.1255.12112-.12725.16088-.0408.16087-.0832.16088v.2005.20162l.0832.20063.0408.12075.0426.1205.0421.0805.085.12075.0408.1205.0847.0805.0833.0804.0846.0804.12588.0805.085.0404.0829.0805.1255.04.0846.0404.12575.0396h.12587.0846.1255.16825l.2105-.0396.25125-.0404.54637-.1205.75538-.20125 3.10925-.88475.546 1.89-7.35163 2.13163-.545-1.80988z"/><path d="m380.61661 577.97362 5.96488-1.04525.377 1.96975-3.77975.68388.29375.16075.25262.20137.12588.12038.0836.12087.12687.12051.0832.12074.0846.12013.0833.1205.0847.16162.0425.12013.0832.12112.0421.16088.0426.16087v.16088l.0832.32175v.32137.16088l-.0422.16087-.041.16075v.16088l-.0426.12012-.0421.16088-.0832.12125-.0425.16087-.0847.12013-.0833.16087-.0846.12075-.12587.16088-.0842.1205-.12588.12075-.12575.1205-.12687.12087-.16688.0804-.12687.12087-.16688.0797-.16937.12113-.1665.0805-.16938.0804-.209.0801-.2105.04-.37812.12087-.46163.0804-.50425.0805-.21012.0408v-2.05088l.21012-.0408.33625-.0805.29338-.0804.25125-.0805.253-.0804.21012-.12012.16825-.0805.168-.16088.12575-.12112.12688-.16088.0832-.12012.0833-.16088.0425-.16087.0422-.16087v-.16088-.16112-.20101l-.0422-.16075-.0425-.16087-.0833-.16087-.0832-.12088-.12688-.1205-.12575-.12012-.12575-.12075-.168-.0805-.16975-.12051-.1665-.0404-.21012-.0804h-.2105l-.25125-.04-.21038.04h-.29337l-.0848.0404v-2.05087zm-4.49438.80438 4.49438-.80438v2.05088h-.16825l-.29375.04-.253.0801-.25087.0807-.21088.0805-.21012.08-.16788.12125-.16837.0797-.12538.12075-.168.16088-.12538.16087-.12587.16088-.085.20162-.0421.2005-.0408.20125v.20063l.0408.20162.0421.16088.0429.16087.0829.12038.0851.12087.0829.16088.12575.0804.16975.12013.12575.0805.168.0804.21012.0805.21051.0408h.20862l.25125.0396.253-.0396h.25263.0836v2.05088h-.21088-.25112-.21012-.16838l-.20862-.0408-.21051-.0405h-.168l-.21012-.0804-.16825-.04-.168-.0404-.16788-.0805-.168-.0804-.12575-.0805-.16975-.0804-.124-.12013-.12725-.0805-.12537-.12112-.12588-.12013-.12712-.12087-.083-.0804-.085-.16087-.0836-.1205-.0846-.12088-.083-.16075-.0425-.1205-.0829-.1605-.0429-.16087-.0421-.12125-.0426-.16088v-.1605-.16087-.16088-.16087-.20088l.0426-.12112.0421-.20063.0429-.16087.0404-.16113.085-.1605.0426-.1605.125-.16125.0836-.1605.12725-.12125.0829-.16087.168-.16088-1.1335.201-.336-1.80887z"/><path d="m382.80074 587.46363.12537.0397.2105.0807.168.0398.16788.0804.16837.12087.16788.0804.12587.12125.16788.12012.12687.12113.12575.12012.1255.1205.0846.12075.12587.16088.0833.12087.0846.16088.0847.16087.0833.16013.0425.1605.0421.12125.0411.2015.0422.16062.0425.1605v.20125l.0411.16088v.20125l-.0411.2005v.20162l-.0425.2005v.16088l-.0834.20162-.0421.20063-.0425.16087-.0832.16088-.0848.1605-.0846.16112-.0833.16063-.0832.16075-.12725.12125-.1255.1205-.12575.12075-.12688.12087-.16787.1205-.16838.1205-.1665.12075-.16824.0805-.16913.0804-.209.0801-.2105.04-.0421.0404v-1.89l.0421-.04.12575-.0801.12688-.0811.12587-.0797.12575-.12113.0844-.12012.0835-.12125.0411-.12013.0847-.12112.0421-.16088v-.12012l.0421-.16088-.0421-.16087v-.12075l-.0421-.16088-.0411-.16087-.0847-.12013-.0835-.12125-.0844-.12012-.12575-.12113-.12587-.0804-.12688-.12125-.12575-.0794h-.0421v-2.0105zm-2.98213 4.70412-.37875 1.97075-.25087-.12112-.25263-.0804-.253-.16087-.20862-.12013-.21088-.20162-.168-.1605-.16787-.201-.168-.20163-.12538-.20012-.12588-.24163-.085-.241-.0829-.242-.0423-.28137-.0429-.281-.0421-.282v-.281-.24125l.0421-.242.0429-.24025.0423-.20163.0408-.24125.0421-.20062.085-.1615.083-.20063.0836-.16087.0846-.16088.12725-.16087.124-.16088.12688-.16075.12575-.1205.168-.12087.16825-.16088.253-.12112.29375-.1605.293-.1205.33625-.12013.33625-.0805.336-.0404.37837-.04h.4195.25263l.20875.04h.2105l.2105.0404.21037.0398.21013.0408.2105.04.0411.0404v2.0105l-.12575-.0407-.168-.0404-.2105-.0396h-.16787l-.2105-.0408-.0411 3.016.20938-.04h.21012l.16838-.0404.21012-.0398.12575-.0408v1.89l-.168.04-.2105.0408-.2515.0405-.21012.0396-.253.04h-.29375-.25088l-.25262.0405-.29375-.0405.0848-4.98575h-.253l-.21013.0398-.16837.0408-.20863.0396-.16837.0404-.12538.0807-.168.12087-.12725.0805-.12537.12013-.085.12075-.1255.16125-.0429.12012-.0829.16088-.0425.16087v.12075.20063.0804.16088.0805l.0425.12113.0425.0804.0404.0801.0429.1205.0425.0804.083.0805.085.0404.0829.0807.0851.0797.125.0404.12762.0408.12538.0801.12575.04z"/></g><path d="m277.03086 610.14225.2945-.0404.29337-.04.25225-.0805.2945-.0804.25188-.12088.25187-.1205.20988-.16049.21012-.20163.16825-.2005.20938-.24137.1265-.2015.12587-.241.0839-.28138.084-.24125.0421-.28175v-.281-.282l-.0421-.32175-.084-.24125-.0839-.28175-.12587-.24125-.1265-.24137-.20938-.20051-.16825-.20087-.21012-.20125-.20988-.12125-.25187-.1605-.25188-.1205-.2945-.08-.25225-.0805-.29337-.04-.2945-.0408-.33588.0408-.29375.04-.253.0805-.29375.08-.25187.1205-.252.1605-.2105.12125-.20975.20125-.16788.20087-.21012.20051-.12588.24137-.1265.24125-.0839.28175-.084.24125-.0419.32175v.282.281l.0419.28175.084.24125.0839.28138.1265.241.12588.2015.21012.24137.16788.2005.20975.20163.2105.16049.252.1205.25187.12088.29375.0804.253.0805.29375.04z" fill="#373535"/><path d="m378.38961 610.14225.29375-.0404.2955-.04.29337-.0805.29525-.0804.25113-.12088.25125-.1205.2105-.16049.2105-.20163.2105-.2005.12538-.24137.168-.2015.12575-.241.0846-.28138.0834-.24125.0425-.28175.0421-.281-.0421-.282-.0425-.32175-.0834-.24125-.0846-.28175-.12575-.24125-.168-.24137-.12538-.20051-.2105-.20087-.2105-.20125-.2105-.12125-.25125-.1605-.25113-.1205-.29525-.08-.29337-.0805-.2955-.04-.29375-.0408-.29375.0408-.29375.04-.25263.0805-.29375.08-.25075.1205-.21087.1605-.25263.12125-.20874.20125-.21051.20087-.16825.20051-.12687.24137-.12575.24125-.12575.28175-.0422.24125-.0411.32175-.0421.282.0421.281.0411.28175.0422.24125.12575.28138.12575.241.12687.2015.16825.24137.21051.2005.20874.20163.25263.16049.21087.1205.25075.12088.29375.0804.25263.0805.29375.04z" fill="#373535"/><path d="m368.43573 630.93088v-1.72888c.20913 0 .41963-.12075.5875-.28162.25163-.20088.41926-.52263.50425-.88476.0421-.28099 0-.52225-.12749-.76362-.083-.16087-.25088-.36212-.58713-.72387l-.25125-.241c-.0422.0398-.0851.12012-.12588.20062v-2.93562c.20913.1615.46175.40287.71338.6435l1.55437 1.60825c.4195.48325.79763.76424 1.05025.96525.25163.16112.54638.322.92338.44249l-1.42725 1.28663c-.12688-.0805-.29513-.16087-.506-.281-.125-.0805-.16725-.12125-.20863-.12125-.0423.44262-.1255.84513-.29337 1.2065-.168.36213-.42063.68388-.71438.96488-.37837.32175-.71462.523-1.09175.6435zm0-7.35875v2.93562c-.12675.20125-.29512.4425-.546.76425-.2955.44188-.50412.76362-.54675.9245-.0421.32175 0 .563.20875.72388.16825.20124.42125.32137.674.32137.0833 0 .12538 0 .21-.0398v1.72888c-.21.0408-.4205.0804-.63137.0804-.62925 0-1.13313-.24125-1.55413-.6435-.294-.32138-.462-.643-.54637-1.00487-.0836-.36213-.0408-.68375.0844-1.04525.168-.3625.42125-.80426.84013-1.32725.54675-.724.92337-1.24625 1.05087-1.56863l-.1275-.1605c-.25087-.24175-.5025-.36187-.75537-.36187-.25088 0-.54613.16087-.9245.52237-.25163.20163-.37738.44288-.46175.64338-.0425.242 0 .523.168.80437l-.54637.36213v-3.016c.5885-.52238 1.13487-.88488 1.5545-1.005.463-.12.84012-.12 1.21812-.0408.16863.0805.37875.20137.63138.40225zm-3.404 9.85249 1.34575-.92512-1.34575-1.76925zm0-9.20899v3.01599l-.96587.60276c-.33588-.64275-.46175-1.24626-.33588-1.80888.12575-.52262.54638-1.12612 1.2185-1.7695.0421 0 .0421-.0404.0832-.0404zm0 6.51462-1.344-1.76912c-.33487-.44288-.62962-.76463-.84012-.96525-.2515-.20163-.50413-.32176-.79788-.40213-.29337-.0804-.62975-.0804-1.00775 0-.37875.0804-.75575.24063-1.09275.48263-.7965.52225-1.175 1.32662-1.21749 2.33212l-.62963-.845-.168.12113v2.61325l3.02425 3.98125 1.553-1.08538-1.93138-2.5735c-.50387-.64375-.79937-1.12637-.88237-1.40775-.0833-.28162-.0833-.60337 0-.88438.12587-.28175.29375-.52337.58862-.72387.209-.16087.4195-.24137.67213-.24137.209 0 .4195.0805.62962.20062.2105.12113.54638.52338 1.00813 1.126l2.22662 2.896.209-.16087zm-7.09762 7.07675v-3.01637l1.30187 2.33324zm0-8.12237v2.61325l-1.30325-1.72876 1.30325-.8845zm0 5.106-2.14338-3.85975-1.5955.804v.282l3.31838 5.991.4205-.20088zm-3.73888 4.90637v-.28175l.0833.24137-.0833.0404zm0-9.04712v-1.97076l.29375-.1205.84013 1.52826zm0-1.97076v1.97076l-.5885.281-.84012-1.4875zm0 3.05575v.28201l-.12687-.24126.12687-.0408zm0 7.68038v.28175l-1.68025.72388-2.1005-4.54363v-2.25212l.7565-.36138.41963.92413c.0846-.56275.21012-.92413.378-1.16613.16837-.24125.37737-.4015.67212-.56237.41963-.1615.84013-.20125 1.30188-.1615l.16975 1.72949c-.3785-.0805-.71613-.0408-.96738.08-.25262.0805-.42087.24175-.54675.44224-.12537.20126-.12537.52301-.0833.88438.0833.40288.33588 1.12613.84013 2.2525l.84012 1.72875zm-3.78075 2.0105.88238-.28138c-.29375-.28125-.50425-.52299-.63113-.80387-.0833-.12125-.16787-.32175-.25125-.56275zm0-7.80062v2.25212l-.88262-1.89063zm0 6.15262c-.0836-.202-.16825-.44288-.2515-.72425l-.67362-2.0905c-.20863-.76438-.46138-1.24687-.75513-1.48825-.25112-.281-.58737-.40212-1.0505-.48225-.16837-.0408-.377-.0408-.58712 0v1.60838c.21012.08.37662.28162.50387.64312l.0421.16088c-.12725.12112-.29475.24087-.546.36212v1.32688c.41875-.20088.7125-.40251.92337-.52263l.12688.36112c.12575.44288.209.72425.16787.88513.0411.24125-.0421.48225-.25262.72388-.21075.28137-.50388.48225-.84013.603-.0425 0-.0832 0-.12537.0405v1.367c.37662-.12088.75475-.32138 1.05025-.56313.33625-.24162.58737-.563.7975-.96512.0411.0408.0836.0804.16837.20162.12538.2005.25125.36138.33588.48225l.96587-.28175v-1.648zm-3.31787-4.78525v1.60837c0-.0408 0-.0408 0-.0408-.2105-.0797-.58925-.0398-1.09313.0811-.33625.12013-.545.24125-.71437.44187-.12575.16088-.20863.44288-.20863.76463l-1.51375.16013v-1.36663c.0844-.12088.12688-.20125.21013-.3225.37837-.4415 1.00812-.80425 1.93325-1.08525.54637-.16087 1.008-.241 1.3865-.241zm0 2.7745c-.2955.2005-.67225.4025-1.13388.60263-.5885.32174-1.05025.60375-1.34437.84475-.29513.28137-.46313.56337-.58887.92449-.0846.36213-.0421.72425.0429 1.126.21012.563.546.96563 1.091 1.24688.54675.241 1.17637.241 1.89075.0401h.0425v-1.36699c-.25163.0404-.50425 0-.71438-.1205-.2515-.12126-.4195-.28213-.5045-.56338-.0847-.241 0-.48225.16825-.72325.1255-.12113.46138-.32175.92475-.60375.0411 0 .0834-.0398.12588-.0801v-1.32688zm-3.52988 5.50837v-1.00449l.29475.80362c-.0846.0804-.16787.12112-.29475.20087zm0-6.63412v1.36663l-.29375.0404c0-.52225.0847-1.00525.29375-1.407zm0 5.62963-.20899-.56338c-.29351.2005-.54676.32163-.71476.36137-.12537 0-.25125 0-.33587-.0397-.0833-.0404-.168-.08-.21012-.20126-.0411-.0807-.16838-.40212-.29376-.96475l-.67212-2.7745 1.30175-.28162-.33587-1.44788-1.30188.28213-.58737-2.41263-1.63913 1.4875.33588 1.367-.33588.0807v1.5275l.67212-.16087.71425 2.97575c.168.64375.29375 1.086.3785 1.2865.12538.28175.25125.48262.41913.6435.168.16087.42062.24087.71438.28162.29374.0408.63.0408.96587-.0408.42062-.08.799-.24087 1.13387-.40175v-1.0045zm-4.99812 2.17099v-1.24625c0 .12013.0421.20063.0846.281.0833.282.21051.60375.41913.9245l-.50375.0408zm0-7.278v1.5275l-.20913.0408-.33737-1.44774.5465-.1205zm0 6.03175c-.0834-.28162-.12588-.64375-.168-1.04562l-.21088-2.172c-.0829-.804-.25087-1.367-.46125-1.64838-.21087-.28137-.545-.48187-.96562-.64312-.37838-.12088-.88125-.20125-1.55475-.1605v1.44738c.29512 0 .54675.0801.6735.16087.20912.11988.3345.3615.377.72363v.20087c-.21038.12087-.58888.241-1.0505.40188v1.20637h.0425c.50425-.16075.92475-.32163 1.13387-.40212l.0421.3625c.0425.4415.0829.76324.0425.92449-.0425.24088-.16825.4425-.42088.64375-.25125.24063-.545.36175-.84012.44188v1.24687c.2105-.0404.42087-.12087.631-.24125.377-.20125.713-.44262 1.00662-.80437 0 .04.0426.1205.0851.2005.0846.24175.16787.44262.25262.56313l1.38513-.16051v-1.24625zm-3.3605-5.66962v1.44738c-.1255 0-.25125.0398-.3785.0398-.37663.0404-.62962.12112-.7975.28199-.16837.12013-.2935.40188-.37712.72363l-1.80738-.12125c.1275-.7235.4195-1.24612.84013-1.60825.46162-.3615 1.176-.60275 2.10112-.72363.1255 0 .29375 0 .41925-.0396zm0 2.93463v1.20637c-.50425.16088-.84012.32175-.966.44263-.25262.16125-.33588.40212-.33588.68312.0425.242.16838.48263.377.6435.25263.16087.50563.24088.79938.20125h.1255v1.24688c-.16763.0805-.3785.0805-.54638.12012-.7555.0804-1.38475-.0804-1.84824-.40212-.46163-.36213-.75538-.84375-.79763-1.4475-.0408-.36213 0-.72388.168-1.086.168-.32175.42062-.60275.7565-.804.33663-.16088.8405-.36138 1.47013-.56263.29337-.0809.54637-.16087.79762-.24162zm-20.9605 3.016v-1.12576c.168-.0396.29375-.08.46238-.12037.29374-.12087.46174-.28138.58712-.523.0844-.12087.21087-.44262.2945-.84438l.0844-.36212c-.25237 0-.67225 0-1.21862 0-.0839 0-.12538 0-.20975 0v-1.16613c.79762.0404 1.38587.0404 1.72212-.0398l.0421-.16087c.084-.36213.0415-.64338-.084-.80463-.12575-.20087-.46238-.36212-.9655-.48187-.2945-.0408-.505-.0408-.71475 0v-1.48863c.336 0 .75612.0401 1.176.16125.8405.16051 1.4705.40188 1.84825.68388.33625.281.58812.60275.67212.9245s.0419.88437-.12575 1.68875l-.54637 2.13162c-.12613.60275-.2105 1.04525-.2105 1.32625-.0414.32175 0 .64413.12687 1.00563l-1.89112-.40225c-.0414-.12013-.0414-.32138-.0414-.60338-.0421-.0797-.0421-.1605-.0421-.20087-.33563.16113-.63.32175-.966.40213zm14.82838-1.80963 1.974.64425c-.33588 1.085-.88225 1.84887-1.59663 2.33188-.71425.52262-1.5955.7635-2.64612.7635-1.344-.0396-2.4785-.48251-3.31863-1.407-.84012-.88475-1.26-2.09163-1.21787-3.61838 0-1.64913.46174-2.896 1.38575-3.78037.88275-.8455 2.01725-1.287 3.4445-1.287 1.2185.0408 2.22662.40225 2.98312 1.12612.462.40212.798 1.00525 1.008 1.8095l-2.05825.44187c-.0846-.52187-.33587-.92437-.71437-1.20612-.37838-.32137-.7975-.48262-1.34388-.48262-.7565 0-1.38687.24137-1.84862.76437-.46125.4825-.71425 1.32688-.75613 2.493 0 1.24625.20975 2.09088.63075 2.654.46163.52225 1.0495.80388 1.80563.80388.54637 0 .96587-.1605 1.3865-.48225.377-.32163.67212-.845.88225-1.56863zm-14.82838-5.30787v1.48862c-.0425 0-.0836 0-.1265.0396-.20937.0801-.4195.28212-.62925.56312l-1.63837-.6835c.3365-.60312.79825-1.04575 1.34387-1.24662.2945-.12113.63-.16125 1.05025-.16125zm0 2.97574v1.16613c-.42025 0-.71425.0404-.88225.0808-.29375.1205-.46175.32175-.54563.56262-.0422.28138 0 .52263.16788.72401.1265.24125.37775.4025.67225.44287.21012.0396.37837.0794.58775.0396v1.12576c-.0836 0-.16788.04-.20938.04-.421.0805-.84087.0408-1.26075-.04-.5875-.12088-1.04987-.36176-1.38612-.68388v-2.81475s.0419 0 .0419-.0394c.25188-.24162.58813-.44287.96663-.52337.37762-.0804.924-.0804 1.63837-.0804h.20938zm-2.85625-2.17099.0844.0404.46163-1.40775-.546-.16088v1.52825zm0-3.82038v-.28137l.0844-.0404-.0844.32175zm0-.28137v.28137l-.714 2.05088.714.24125v1.52825l-1.176-.36175-.92413 2.69362c-.16787.563-.29437.8855-.29437.96488 0 .12112.0425.20187.0839.282.0844.0801.168.16087.29488.20049.168.0408.41987.0805.79762.0408l-.2945 1.44713c-.50312.0404-1.008-.0404-1.55412-.2005-.33587-.0805-.62925-.24175-.83975-.44262-.20975-.1605-.33588-.32175-.42025-.48225v-1.16675c.0419-.24138.168-.56313.2945-1.00463l1.008-2.89487-.88225-.282.50387-1.40775.84013.282.46237-1.32688 2.10013-.44262zm0 6.91587c-.25188.282-.41987.56338-.50387.9255-.12651.60275-.0421 1.12563.29375 1.60825.0422.0805.12612.20063.21012.281zm-4.32675-4.302c0-.0808 0-.12075.0419-.1615.0425-.281.0425-.56275 0-.84375 0-.0807-.0419-.16087-.0419-.20088zm0-1.20613v1.20613c-.0839.24175-.25188.60313-.46163 1.00488l-1.97437 3.9405-1.7645-.80388 1.638-3.25737c.33662-.68288.54637-1.12613.58787-1.36638 0-.242-.0415-.44287-.1255-.64412-.12574-.2005-.29437-.321-.54637-.44225-.29337-.1605-.63-.20125-.924-.1605-.336.0805-.58825.20062-.84012.40225-.20975.24087-.50388.68375-.882 1.40625l-1.42788 2.85562-.84012-.3615v-2.25175l2.30987-4.50387 1.63838.7235-.50388.96525c.96663-.48188 1.84825-.48188 2.7305-.0805.37775.20125.714.40262.96587.68387.21013.24137.336.44263.41988.68387zm0 5.66901c-.0421.12112-.0839.20162-.0839.282-.0415.32175-.0415.56299.0417.764 0 .0404 0 .08.0421.12075v-1.16676zm-7.56063-6.79538.12575-.16087c.46238-.6435.75613-1.16575.79825-1.4875 0-.36213-.0839-.7235-.294-1.126-.12587-.20138-.33625-.44263-.63-.6835zm-3.65462-8.88662c.12575.28162.20975.56262.252.84475.0417.4825-.0423.96475-.252 1.40737zm3.65462 5.42875v3.45787l-1.21862 1.60825c-.37838.523-.58775.9255-.71325 1.20688-.12687.24062-.25225.60275-.29475.96524l-1.428-.96524v-.56338c0-.04 0-.0807.0421-.0807.0419-.12013.0419-.20062.0419-.24025 0 0-.0419 0-.084.0396v-1.00488c.29375 0 .50387-.0804.71437-.24125.12575-.12088.33626-.36213.58751-.72425l.25262-.28137c-.25262-.0804-.63038-.20126-1.17675-.44188-.12575-.0408-.252-.0811-.37775-.12075v-1.287c.12575.0398.29375.1205.46237.20087.8395.36225 1.42838.56313 1.80575.64313l.1265-.1605c.20938-.28125.29375-.52263.20938-.76387-.0415-.24138-.29338-.48225-.71325-.76438-.29488-.2005-.54675-.28088-.79863-.28088-.2095 0-.50387.0804-.79837.28088l-.29375-.28088v-1.44824c.252-.12038.50387-.16013.79837-.16013.58738 0 1.25925.281 2.05788.80437.2945.20013.58825.40175.79837.60275zm0 6.11212-.92412 1.80925.92412.4425zm-5.293-13.4305c.12651.0804.25188.16088.33588.24125.63037.56275 1.05063 1.086 1.3025 1.64838v2.25212c-.12575.28138-.33588.563-.54637.80438l-1.09201-.8845zm1.63838 6.07138v1.44825l-.96588-.92525c.3355-.24125.63001-.40213.96588-.523zm0 2.57387v1.287c-.29438-.12125-.50425-.16125-.67213-.16125-.29375 0-.54575.0807-.71437.32175-.12537.20088-.20975.44213-.12537.72388.0414.24125.20937.48224.46199.6435.29375.20125.63.28162 1.00813.28162h.0417v1.00488c-.41988.0408-.84013.0408-1.176-.0396-.168-.0408-.2945-.0805-.46238-.12125v-4.26225c.21013-.0404.37838 0 .54638 0 .29375.0401.67212.16088 1.092.32175zm0 4.38275v.56338l-.16788-.12113c.0421-.0801.0839-.241.16788-.44225zm-9.073-10.535 1.59625 1.16575c-.37838.56313-.54675 1.086-.46238 1.52863.0415.44187.2945.884.75613 1.28662.46237.44175.92412.6835 1.3865.6835.41987.0404.75575-.0809 1.00813-.36187.16787-.16088.25187-.32163.29337-.56263 0-.20162-.0836-.44287-.252-.76462-.12537-.24138-.41987-.68313-.8815-1.40675-.63038-.88475-.96625-1.649-1.00813-2.212-.084-.80438.1255-1.48713.67225-2.05088.37726-.36187.7975-.60275 1.34388-.724.50387-.12 1.04962-.0804 1.59625.12125.46137.1605.92412.40175 1.38587.804v4.06163l-.46175-.40288c.29376-.40212.37738-.80425.33588-1.126-.0421-.3615-.29362-.72362-.71462-1.125-.41913-.3625-.83976-.60375-1.259-.64425-.29476-.0396-.50488.0405-.67288.24138-.16788.1615-.25225.36212-.20975.6435.0419.28162.336.88437.92413 1.68862.54562.80475.92412 1.48825 1.13349 1.9705.16838.48263.2105.96513.084 1.44775-.084.48225-.33588.92525-.79726 1.40775-.37875.40188-.88262.68313-1.47087.804-.58775.16088-1.176.12088-1.76412-.0804-.58788-.24138-1.21863-.6035-1.88963-1.20613-.92413-.84475-1.42913-1.68912-1.55488-2.53387-.0836-.88438.20975-1.76888.88263-2.65363zm7.43462 5.8305c-.168 0-.37775.0809-.54575.1205-.37875.16088-.67212.40213-.88262.72363-.37763.4825-.50413 1.04562-.37763 1.5685.12575.56274.50413 1.08612 1.13375 1.48725.2105.16112.4625.282.67225.36237z" fill="#ee3338"/><path d="m284.17698 484.90413 4.10888 12.19175 13.377-.0248-10.83687 7.51037 4.15812 12.17625-10.80712-7.54975-10.80563 7.54975 4.15775-12.17625-10.83687-7.51037 13.37637.0248 4.10838-12.19175z" fill="#ffde23"/><path d="m372.96523 484.90413 4.10875 12.19175 13.37713-.0248-10.83688 7.51037 4.158 12.17625-10.807-7.54975-10.80575 7.54975 4.15775-12.17625-10.83687-7.51037 13.37637.0248z" fill="#ffde23"/></g></svg>