<svg height="122.50209mm" viewBox="0 0 175.15427 122.50209" width="175.15427mm" xmlns="http://www.w3.org/2000/svg"><g transform="translate(-1235.249633 -107.029567)"><g fill-rule="evenodd"><path d="m1235.2496 107.02957h175.15408v122.50198h-175.15408z" fill="#fff"/><path d="m1294.0115 107.02958 116.3924 63.67518v-63.67518zm-58.7618 58.8269v63.67518h116.3924z" fill="#008c43"/></g><g><path d="m1352.4714 168.49256-.4883.21807c-2.113-1.02178-4.2371-1.97488-6.3717-2.85616-2.1346-.88127-4.2799-1.69095-6.4348-2.4262-2.1548-.73526-4.3197-1.39599-6.4936-1.97973s-4.3568-1.0905-6.5485-1.51722c-2.1916-.42671-4.3919-.77347-6.6001-1.03766-2.2081-.26419-4.4243-.44541-6.6476-.54157-2.2234-.0962-4.4538-.10735-6.6911-.03-1.1187.0387-2.2391.0998-3.361.18293-1.1219.0831-2.2454.18857-3.3704.31678l-.062-.0822a27.025298 27.119791 0 0 0 -.2986 3.79512 27.025298 27.119791 0 0 0 27.0252 27.11979 27.025298 27.119791 0 0 0 26.342-21.16201z" fill="#2649a5" fill-rule="evenodd"/><path d="m1353.1267 161.74465-.6093-.25012c-2.0054-1.02376-4.0334-1.9628-6.0807-2.8205-2.0474-.85769-4.1144-1.63434-6.1971-2.33267-2.0826-.69833-4.1813-1.3183-6.2926-1.86397-2.1114-.54567-4.2352-1.01673-6.3686-1.41645-2.1335-.39972-4.2765-.72809-6.4255-.98857-2.1489-.26048-4.3042-.45342-6.4621-.58136-2.1579-.12795-4.3185-.19115-6.4787-.19327-2.1602-.002-4.3201.0572-6.4761.17415h-.2568c-1.0269 2.31342-1.7258 4.75978-2.0764 7.26777l.062.0822c1.125-.12821 2.2485-.23368 3.3704-.31678s2.2423-.14425 3.361-.18293c2.2373-.0774 4.4677-.0662 6.6911.03 2.2233.0962 4.4395.27738 6.6476.54157 2.2082.26419 4.4085.61095 6.6001 1.03766 2.1917.42672 4.3746.93348 6.5485 1.51722s4.3388 1.24447 6.4936 1.97973c2.1549.73525 4.3002 1.54493 6.4348 2.4262 2.1346.88128 4.2587 1.83438 6.3717 2.85616l.3958.19098.092-.40905c.4465-1.95448.6757-3.95262.6832-5.95778-.01-.2635-.015-.5269-.028-.79013z" fill="#fff" fill-rule="evenodd"/><path d="m280.35547 172.34766-.66211 18.44531 4.75781.16992.21485-6.00781 2.96093.10742c1.34615.0482 2.47518-.0981 3.38867-.4375.92175-.33911 1.76436-.85815 2.5254-1.55859.55602-.51759.99145-1.16524 1.30859-1.93946.31743-.78247.49192-1.58625.52148-2.41211.0381-1.06535-.12688-1.98383-.49609-2.75781-.36095-.77368-.90503-1.41777-1.63086-1.93164-.60491-.42684-1.30908-.75524-2.11133-.98242-.79369-.23515-1.7765-.37208-2.94922-.41406zm26.74414 1.18164-8.12109 17.92187 4.7832.34375 1.54101-3.63086 6.82618.49024 1.00586 3.8125 4.9082.35351-5.47852-18.89843zm18.86914 1.58008-2.51367 18.28515 4.6914.64649.92188-6.70508 2.17383.29883 4.0625 7.39062 5.75976.79102-5.02539-8.67383c1.24021-.40504 2.22947-.98999 2.96875-1.75586.74747-.76475 1.21464-1.823 1.40039-3.17383.13509-.98242.0431-1.8243-.27734-2.52734-.31109-.71011-.78266-1.31836-1.41406-1.82227-.62322-.50278-1.31531-.86791-2.07618-1.09766-.76086-.22974-1.68105-.41975-2.76171-.56835zm-40.98047.85351.81836.0293c.78457.0281 1.41101.0619 1.88086.10351.47015.0334.94908.15906 1.4375.375.36631.16196.68398.43623.95117.82618.26749.38168.39168.83322.37305 1.35351-.0189.52855-.10607.97714-.25977 1.34375-.14514.35865-.37442.66463-.68945.91797-.36576.28459-.81556.46669-1.34766.54687-.52383.0805-1.19066.10515-2 .0762l-1.36132-.0488zm24.44336 2.46875 1.78906 6.76563-4.52539-.32618zm20.76563.6875 1.70703.23633c.56489.0777 1.05925.16067 1.48047.25195.42233.0831.78271.21378 1.08398.38867.43257.25134.72197.55289.86523.90625.14327.35337.18219.75834.11914 1.2168-.0709.51577-.20596.91927-.40429 1.20898-.18902.28265-.4638.52757-.82617.73633-.37988.2147-.82799.32424-1.34571.32813-.51771.004-1.15306-.0449-1.90625-.14844l-1.44922-.19922zm24.20898.60938-10.57422 16.59375 4.6875 1.01562 2.03906-3.375 6.6875 1.44922.45703 3.91797 4.8086 1.04297-2.75195-19.48438zm18.64258 4.3789-5.27735 17.6875 4.18164 1.2461 3.6211-12.13868 3.88476 14.37891 4.39649 1.3125 5.27734-17.6875-4.18164-1.24805-3.02344 10.13282-3.42578-12.05664zm-17.02735.80469.81446 6.94922-4.4336-.96094zm50.65821 2.86914-4.56641 3.49805 2.85742 1.0625 5.70118-2.8125.0859-.23242zm-4.83594 5.60742-12.82422 14.92188 4.49609 1.67383 2.49805-3.05274 6.41211 2.38477-.10351 3.94336 4.61328 1.71484.043-19.67578zm.86328 5.35938-.18164 6.99609-4.25195-1.58203z" fill="#008c43" stroke="#f9f9f9" stroke-width=".377953" transform="matrix(.26458333 0 0 .26458333 1235.2496 107.02957)"/><g fill-rule="evenodd"><path d="m1326.1294 135.41499a27.025298 27.119791 0 0 0 -24.6502 16.0569h.2568c2.156-.117 4.3159-.17627 6.4761-.17415 2.1602.002 4.3208.0653 6.4787.19327 2.1579.12794 4.3132.32088 6.4621.58136 2.149.26048 4.292.58885 6.4255.98857 2.1334.39972 4.2572.87078 6.3686 1.41645 2.1113.54567 4.21 1.16564 6.2926 1.86397 2.0827.69833 4.1497 1.47498 6.1971 2.33267 2.0473.8577 4.0753 1.79674 6.0807 2.8205l.6093.25012a27.025298 27.119791 0 0 0 -26.9973-26.32966z" fill="#2649a5"/><path d="m5012.8711 526.50781-3.8672 12.50781-13.0781.59571 10.7012 7.54297-3.4766 12.62109 10.4805-7.84375 10.9316 7.20508-4.2227-12.39258 10.2305-8.16797-13.0898.18555zm-66.9141 86.79297-3.0312 9.99219-10.4278.53125 8.5665 5.96875-2.7168 10.08203 8.3242-6.30273 8.748 5.69921-3.4199-9.86328 8.123-6.55859-10.4394.20508zm68.502 12.14258-2.666 9.03711-9.4043.55078 7.7695 5.32813-2.3809 9.11523 7.4688-5.74414 7.9316 5.08203-3.1543-8.87695 7.2852-5.97461-9.418.25586zm48.8047 2.4668-3.0586 9.88867-10.3418.4707 8.4609 5.9668-2.748 9.98047 8.2871-6.20313 8.6445 5.69727-3.3398-9.79883 8.0898-6.46094-10.3516.14844zm-52.9844 48.67578-2.7852 9.18554-9.5859.48829 7.875 5.48632-2.498 9.26758 7.6523-5.79297 8.043 5.24024-3.1446-9.06836 7.4668-6.0293-9.5957.1875z" fill="#fff" transform="scale(.26458333)"/></g></g><g><path d="m1319.8252 206.77867c-.5864-.10925-1.8521-.60129-1.8521-.72 0-.35565 2.8265-2.16377 5.9206-3.78741 1.0371-.54424 1.852-1.04389 1.8109-1.11033-.1586-.25669-4.7165-2.10449-5.1911-2.10449-.2612 0-.5847.89106-.4862 1.3395.06.27344.2135.43983.526.57041.7841.3276.939.99299.3846 1.65181-.3805.45219-.6766.50253-1.2405.21089-.4253-.21989-.6019-.74261-.4523-1.33849.052-.20788.1055-.76619.1186-1.24068.013-.47449.07-1.02642.1258-1.22651.08-.28383.057-.3638-.1023-.3638-.3052 0-.6822.55286-.9435 1.38342-.2141.68075-.2158.76479-.021 1.06231.2685.40972.2709.98277.01 1.36129-.1583.2261-.3369.29402-.7732.29402-.7215 0-1.0052-.29144-1.0052-1.03263 0-.54298.027-.57867.7659-1.02723.088-.0532.5563-1.45816.5477-1.64244-.01-.17716-.02-.17737-.1-.002-.3449.75458-1.0459 1.77886-1.3945 2.0374-.4816.35722-.7835.45886-1.8696.62938-2.142.33627-2.4693.28812-3.4167-.50258-.2056-.17167-.4835-.31212-.6174-.31212-.3654 0-1.3456-.46558-1.7206-.8172-.3699-.34685-.6615-.81524-.6615-1.06256 0-.09-.253-.38165-.5622-.64821l-.5622-.48466.031-1.22269c.017-.67248.099-1.30433.1815-1.40411.1857-.2237.803-.23744 1.0178-.0226.1964.19643.1957.17663-.021-.54826-.1511-.50533-.3134-.68562-1.1555-1.28301-.5389-.38228-1.078-.69814-1.198-.7019-.1201-.004-.5263.33022-.9028.74218-.5293.57909-.6646.81169-.5962 1.02527.048.15193.1197.44328.1582.64744.1693.89927-1.219 1.41407-1.8048.66929-.4891-.62177-.3069-1.2142.5001-1.6259.2755-.14054.6598-.49565.854-.78914s.5324-.66613.7515-.82811c.3871-.28619.513-.50932.2873-.50932-.061 0-.3364.19347-.6119.42994-.2755.23648-.8357.68233-1.245.9908-.7139.53809-.7827.56091-1.6954.56224-.5232.00079-.9881-.0581-1.033-.1309-.045-.0728-.2946-.13229-.5547-.13229-1.0788 0-2.173-.63242-2.6101-1.50859-.1055-.21126-.475-.59821-.8212-.8599-.8068-.60984-1.1294-1.16643-1.1379-1.96367 0-.3894-.1004-.76247-.2527-.97993-.283-.40418-.3424-1.68218-.09-1.93466.086-.0858.2836-.4102.4397-.72099.1877-.37395.3848-.57986.5826-.60878.3782-.0553.7752.29796.845.75199.03.19253.063-.29075.074-1.07394.018-1.27173-.012-1.47313-.2778-1.88352-.3655-.56416-.5297-.57617-.8934-.0653-.2386.33505-.2694.50714-.1959 1.09548.072.57981.043.75217-.1719 1.01803-.554.68412-1.8807.19878-1.8807-.68798 0-.43789.5187-1.02926.9029-1.02926.2992 0 1.3605-1.52813 1.254-1.80563-.1787-.46573-1.6278.0859-1.6278.61963 0 .48802-.3718 1.02718-.7685 1.1143-1.1056.24283-1.7977-.94597-1.0096-1.73412.2667-.26669.4282-.32382.7607-.26908.8767.14435 2.3075-.91795 1.6013-1.18893-.2077-.0797-1.9886.43265-2.2309.64181-.069.0597-.4234.10848-.7873.10848-.5112 0-.8211-.0966-1.3626-.42483-.3856-.23366-.701-.47178-.701-.52917 0-.0574-.091-.10434-.2013-.10434-.7007 0-1.9154-1.40132-1.9154-2.20967 0-.22026-.1109-.54245-.2464-.71598-.7286-.933-1.0139-2.13836-.6616-2.79644.083-.15441.14-.68376.1276-1.17633l-.023-.8956.787-.79934c.8026-.81515 1.018-.90964 1.4933-.65524.2527.1352.2664.24499.2228 1.77527-.044 1.5366-.029 1.651.2512 1.97356.2226.25607.2977.50777.2977.99821 0 .5261.054.68455.2716.80118.3705.19829.7856.91042.7862 1.34881 0 .26503.1038.41381.3908.56224.4936.25523.5361.25287.5343-.0297 0-.12733-.2262-.46963-.5009-.76068-.2748-.29104-.586-.79625-.6916-1.12269s-.3564-.91044-.5573-1.29776c-.279-.53761-.3654-.89014-.3654-1.49006 0-.4357-.059-.78584-.1323-.78584-.2492 0-.1497-1.4202.1318-1.88196.1453-.23823.2643-.55518.2646-.70434 0-.14916.07-.34085.1553-.42598.1176-.11759.1181-.27491 0-.65484-.084-.27504-.1685-.64889-.1878-.8308-.056-.52891-.739-.5259-1.3447.006-.4588.40281-.4728.4418-.3957 1.09882.069.59073.041.71592-.2095.94276-.3606.326-1.1972.34965-1.5043.0425-.1368-.13681-.2191-.43536-.2191-.79528 0-.49576.054-.60794.3842-.8032.2114-.12483.4644-.22697.5623-.22697.098 0 .3403-.20344.5387-.45209.1984-.24864.6029-.5589.8988-.68946.5086-.22439.5214-.24359.2346-.35073-.548-.2047-1.3559.007-1.6753.43888-.2323.31422-.3889.39195-.79.39195-.9609 0-1.3962-.88435-.8051-1.63581.3181-.40442.9491-.46978 1.4111-.14615.198.13867.6655.21164 1.4847.23174l1.1956.0293v-.36731c0-.44791-.189-.53053-1.7198-.75163-.6184-.0893-1.3058-.2382-1.5275-.33082-.4929-.20593-1.0367-.83357-1.3854-1.59897-.1438-.31554-.3195-.60963-.3905-.65351-.071-.0439-.231-.29455-.3556-.55703-.2634-.55512-.2968-2.05253-.052-2.34706.1043-.12567.1274-.39637.068-.79422-.1612-1.07521.021-1.7321.6657-2.39508.3171-.32624.6137-.76262.6592-.96974.1698-.77311.8404-1.16946 2.4199-1.43018.5942-.0981.8708.1535.7805.70986l-.07.43331.3424-.31746c.3159-.29296.3293-.34888.1736-.72482-.1195-.28843-.2578-.40738-.4738-.40738-.1753 0-.4269-.15482-.5913-.36376-.7695-.97834.5288-2.32529 1.4311-1.48466.3835.35728.4895.84039.29 1.32194-.1318.31817-.1297.43502.011.60438.1559.18774.1866.17724.2912-.0993.064-.17011.1734-.654.2424-1.07532.102-.62151.087-.82049-.077-1.05469-.2719-.38809-.2503-.88718.056-1.28513.197-.25636.3722-.32772.8049-.32772.6381 0 1.054.38337 1.054.9714 0 .40837-.332.94082-.5866.94082-.2913 0-.4779.33626-.5988 1.07916-.091.55655-.074.74895.077.90521.17.17545.2448.13715.6453-.33072.2492-.29105.4552-.62806.458-.74892.01-.25761.731-.90473 1.0139-.90473.3097 0 .9356.36692 1.0255.60124.1539.40084.083.81758-.201 1.17829-.2568.32651-.3507.35587-1.0094.3155-.664-.0407-.7498-.0131-1.0018.32252l-.2756.36703.359.33285.3589.33286v-.37577c0-.20668.072-.44721.1588-.53452.2179-.2179.7953-.19937 1.1058.0355.1412.10683.3886.19612.5498.19844.4944.007 1.1785.72474 1.3535 1.41981.086.34215.2987.76414.4723.93777.4714.47139.643 1.12894.521 1.99695-.057.4086-.09 1.22936-.072 1.82393.037 1.24121.028 1.26398-1.1432 2.84878-.6969.94314-.971 1.20593-1.5137 1.45119-.6303.28486-.6476.30603-.353.43329.1704.0736.3823.22422.4709.33475.2265.28235.2078.94746-.036 1.296-.3893.55571-1.7785.29336-1.7785-.33586 0-.0803-.1041-.17797-.2315-.21701-.2662-.0816-1.2002.10905-1.371.27985-.1058.10581.1308 1.52677.3393 2.03741.105.25722.6236.51673 1.2909.64603.4444.0861.4788.0727.3638-.14207-.1825-.34106-.1563-.72691.062-.90784.1038-.0861.5169-.1815.9182-.212.4012-.0305.7777-.0637.8366-.0738.4336-.0741.8044.0839 1.2551.53455.2868.28683.7302.5904.9854.67459.7119.23496 1.3168.92627 1.5687 1.79279.1206.41469.3849.96851.5875 1.23072.5266.68151.7103 1.23754.6256 1.89334-.2705 2.09379-.3666 2.54877-.6411 3.03582-.1857.32938-.5397.67753-.9038.8888-.3292.19102-.9393.54647-1.356.78989-.4166.24341-.7562.51131-.7545.59531 0 .084.1087.29024.238.4583l.2351.30556 1.0792-1.06624c1.1899-1.17553 1.486-1.28234 2.0974-.75645.9465.81415-.2195 2.36418-1.2131 1.61265-.1412-.10683-.3371-.19612-.4352-.19844-.2714-.006-.946.77978-.946 1.1024 0 .15668.3195.70105.71 1.20971.6754.87975.7344.9233 1.211.89334.6342-.0399.6608-.072.3952-.47733-.3153-.48131-.099-.78309.9236-1.28636.7048-.34695.9656-.41027 1.4603-.35451.3312.0373.7119.16711.8459.28839.1634.14782.3555.19244.5829.13535.7021-.1762 1.7163.35505 2.3329 1.22194.1845.25952.6399.66657 1.0118.90456.729.46644 1.2371 1.27653 1.2478 1.98939 0 .2135.092.62631.1964.91735.1049.29104.1916.88085.1927 1.3107 0 .71494-.046.84456-.5564 1.52135-.307.4069-.7238.93537-.926 1.17438-.2023.239-.3677.48792-.3677.55315 0 .0652.4531.44956 1.0071.85407 1.1144.81383 1.2979.83634 2.1859.26813.4795-.30685 1.4751-.41686 1.7679-.19537.073.055.5531.13354 1.0674.17446.5984.0476 1.1031.17355 1.4019.34981.2567.15147.7721.36607 1.1452.47689.3902.11588.9362.42455 1.2851.72649.7747.6705 1.0609.70394.8134.0951-.12-.29516-.2756-.44205-.4965-.46853-.4865-.0583-.948-.31402-1.3-.72027-.2674-.30851-.4204-.36563-.9797-.36563-.5043 0-.7672-.0796-1.0992-.33278-.3791-.28919-.5037-.31761-.9515-.21701-.7872.17688-2.571.0373-2.7713-.21693-.277-.35169-.1962-.52895.6315-1.3854l.7968-.82444.8899-.0126c.4894-.007 1.0575-.0814 1.2623-.16536.7464-.30614 1.5943-.13838 2.538.50217.2183.14815.5499.26976.737.27024.187.00053.6633.16458 1.0583.36467.7326.37108.7352.37426 2.0512 2.51359.5395.87699.5487 1.39969.052 2.93781-.2531.78294-.3835 1.38545-.3135 1.44872.1774.16047 1.0116.42107 1.0917.34103.038-.038.06-.5118.049-1.05279-.019-.91341 0-1.00296.3241-1.25436.4665-.36695.9868-.3445 1.3658.0589.5911.62918.2057 1.71439-.6437 1.81287-.2878.0334-.3475.10757-.3475.43166 0 .32717.076.41888.463.55898.6708.2428 5.3933 2.00875 6.0317 2.25552l.5416.20933 2.607-1.11228 2.6069-1.1123.4111-.85633c.4099-.85384.4106-.85921.2464-1.85208-.091-.54766-.2191-1.05231-.2855-1.12143-.2069-.21554-.1432-.32406.6862-1.16903.4438-.45208.8971-.95591 1.0074-1.11962.2502-.37134.567-.3867.567-.0275 0 .25818.3401 2.06748.4756 2.53054.042.14183-.1336.4025-.4889.7276-.754.69003-1.3096 1.47457-1.3096 1.84936 0 .37626.069.38172.7358.0584.6087-.29506.9414-.64217 1.4191-1.48067l.3467-.6087.899-.0763c1.1894-.10092 1.2952-.15402 1.4915-.74877.2034-.61625.1558-.99634-.3238-2.58778-.059-.19609.1356-.52143.7519-1.25677.4573-.5457.8851-1.02195.9507-1.05833.065-.0364.223.35057.3499.85989.1269.50933.291 1.11461.3645 1.34507.1242.38925.093.46443-.4446 1.05833-.6619.73173-1.0399 1.42837-.9303 1.71419.1435.37377 1.7979-1.01093 1.7979-1.50474 0-.26798.5146-.56638 1.1998-.69579.8153-.15397 1.1131-.44395 1.2343-1.20216.1133-.70849-.01-1.33043-.4497-2.26067-.1564-.33116-.1253-.41156.4608-1.19062.3457-.45952.6873-.98431.7592-1.16621l.1307-.33073.1797.39687c.5329 1.17745.8769 2.24129.7698 2.3806-.9618 1.25011-1.4659 2.31576-1.0956 2.31576.4638 0 1.5735-1.27547 1.5735-1.8084 0-.18439.3782-.38024 1.4883-.77062l.6284-.22099v-.64649c0-.63735-.2131-1.1576-.8304-2.0276-.2362-.33294-.2476-.41619-.09-.66146.3084-.48077.9122-1.72802.9165-1.89335.01-.37374.2716-.27275.486.18756.1279.27454.3992.77363.603 1.10911.2037.33546.3704.69696.3704.80333 0 .10636-.1823.52991-.405.94124-.2857.52736-.393.88735-.3639 1.22102l.041.47317.5347-.503c.414-.38944.5747-.67111.7118-1.24761.1731-.72764.1948-.75307.9536-1.11573.7594-.36299.7764-.3829.7752-.90904 0-.4406-.124-.70123-.6794-1.44074l-.6781-.90283.164-.55238c.09-.30381.2173-.68913.2825-.85626.065-.16714.1185-.4464.1185-.62058 0-.35317.1387-.49334.3529-.35665.078.0498.4567.50262.8417 1.00634.6986.91408.6996.91691.5393 1.45521-.3091 1.0378-.396 1.63411-.2931 2.01124l.1038.3802.3995-.42379c.3913-.41506.5695-1.05355.5695-2.04072 0-.3097.1283-.46226.7182-.85396.395-.26229.7484-.55552.7853-.65161.175-.45593-.3117-1.21804-1.2434-1.9472-.4508-.35282-.4509-.35316-.2894-.95697.089-.33222.1615-.83779.1615-1.12349s.045-.54634.099-.57919c.054-.0329.5046.31787 1.0002.77939l.901.83912-.1396.50265c-.1933.69596-.1756 1.39696.043 1.69545.1747.23887.1978.22876.4714-.20623.2407-.38246.2778-.59621.2268-1.30445-.061-.84262-.058-.85022.4952-1.45521.5294-.57904.5488-.62931.4059-1.04958-.1533-.45092-.5877-.91864-1.353-1.45699l-.43-.30243v-1.18162c0-.91545.041-1.18161.1823-1.18161.1002 0 .2546.0872.343.19373.088.10656.4749.40222.8587.65702l.698.46328-.065.90606c-.049.68163-.011 1.01041.153 1.32736.1198.23171.2492.4213.2874.4213.038 0 .1515-.19623.2517-.43608.1373-.32867.1543-.66103.069-1.34943-.1147-.92499-.056-1.20103.3235-1.51579.1131-.0939.2056-.33945.2056-.54572 0-.40165-.4606-.85192-1.4167-1.3848l-.5015-.27955-.1195-1.14872c-.066-.63179-.09-1.17857-.053-1.21505.036-.0365.5133.2023 1.0596.53064l.9932.59697.086.93022c.1275 1.37166.5388 1.87282.8737 1.06446.1612-.38937.1344-.5525-.2876-1.74443-.1003-.28332-.051-.45888.2753-.97279l.3976-.62708-.2801-.42737c-.1541-.23505-.4631-.50178-.6868-.59272-.2236-.091-.5257-.2145-.6712-.27456-.1455-.0601-.3578-.1383-.4717-.17385-.1274-.0398-.2728-.36273-.3777-.83882-.094-.4258-.2345-.90933-.3127-1.07451-.2625-.55424.048-.58567 1.1606-.11758l1.0458.43986.2376.96652c.1307.53158.3048 1.04754.387 1.14658.4466.53809.7814-.2416.468-1.09-.1048-.28373-.2686-.70716-.3641-.94093-.1551-.38005-.1426-.48293.1183-.97162.3841-.71964.3718-.82069-.1561-1.28423-.3165-.27787-.7041-.44414-1.3216-.56688-.6849-.13612-.8914-.23286-.955-.44733-.045-.1505-.2324-.61718-.4174-1.03707-.185-.41988-.3036-.79614-.2637-.83613.04-.04.5791.0279 1.198.15076l1.1252.22347.2912.79868c.2769.75954.7606 1.41884 1.0408 1.41884.2253 0 .2938-.48456.1239-.87777-.09-.20845-.33-.62785-.5332-.93201-.4177-.62505-.432-.73097-.2108-1.55814.1468-.54879.1364-.61733-.137-.90841-.3617-.38506-1.0954-.61783-1.9553-.62037-.6312-.002-.6544-.0163-1.0046-.62839-.1971-.34456-.4625-.78778-.5896-.98493-.1272-.19715-.204-.3852-.1708-.41789.033-.0327.5822-.0267 1.2199.0134l1.1594.0729.4699.77361c.6583 1.0836 1.3791 1.54164 1.378.87559 0-.364-.3488-.94318-.925-1.53869l-.4328-.44728.091-1.31452c.05-.72299.148-1.46558.2182-1.65021.1216-.31981.1688-.27259.9976.99734l.8701 1.33305-.2319.98344c-.1996.84672-.2071 1.04298-.054 1.41171l.1774.42826.3062-.38267c.2557-.31955.3063-.5388.3069-1.32916v-.94648l.7606-.42494c.4184-.23372.8612-.51313.9839-.6209.3728-.32734.4682-.0941.402.98321-.064 1.04856-.1955 1.49258-.4406 1.49258-.3559 0-1.3536.86383-1.5842 1.3716-.316.69594-.315.96603.01 1.63064.2586.53532.2586.54147 0 1.07679-.1633.33798-.2601.81335-.2601 1.27705 0 .68692.018.72914.2535.60296.2594-.13886.6284-1.08328.6991-1.78959.036-.35963.1365-.43466 1.1334-.84645.6016-.24852 1.1258-.41983 1.1649-.3807.039.0391-.021.42862-.1347.86555-.1132.43692-.2058.92123-.2058 1.07624 0 .17899-.1208.32777-.3312.40774-1.277.48552-1.8191.87238-2.1658 1.54557-.1916.37197-.1901.99711 0 1.42178.1307.28689.1041.40467-.1883.83305-.4266.62497-.6583 2.07535-.3101 1.94175.1815-.0696.7981-1.2039 1.045-1.92223.042-.12313.29-.25201.5805-.30199.2786-.048.7883-.15575 1.1327-.23955.3443-.0838.6555-.12285.6915-.0868.06.0603-.6575 1.81791-.8981 2.19912-.057.0909-.2577.16537-.445.16537-.6718 0-1.3852.3182-1.9055.84991-.4983.50919-.5231.57247-.4473 1.13905.07.52119.036.64776-.2579.96473-.186.20066-.3733.52602-.4163.72302s-.1297.52189-.1927.72198c-.089.28158-.071.36381.076.36381.1884 0 .7191-.66537 1.1332-1.42096.2023-.3689.2702-.39348 1.3071-.47345.6015-.0464 1.1419-.0546 1.2007-.0182.059.0364-.1746.52624-.5186 1.0886l-.6256 1.02247-.9364.0385c-.8575.0353-.983.0785-1.4917.51395-.4971.42549-.5516.52949-.5183.9899.03.42154-.031.57733-.3383.86255-.3718.34482-1.0779 1.73258-.9477 1.86278.1817.18169 1.1463-.78397 1.6411-1.64298.1054-.18292 2.4035-.0777 2.4035.11005 0 .0648-.2828.50044-.6284.96811l-.6283.85031-1.0345.005c-.9257.005-1.0945.0467-1.6047.39771-.6505.44754-.7343.60427-.7343 1.37325 0 .49859-.05.58418-.5062.86611-.4789.296-1.2136 1.25397-1.2136 1.58249 0 .44757 1.2666-.34355 1.6745-1.04589l.2438-.41966.979.0809c.5385.0445 1.1189.0809 1.2899.0809.1709 0 .3092.0446.3072.0992 0 .0546-.3531.48441-.7803.9552l-.7768.85599-1.0839-.0411c-.9271-.0351-1.1674.003-1.6605.26473-.6134.32545-.7567.53402-.9384 1.36603-.094.42841-.2105.57261-.6435.79375-.6222.31771-.7007.38749-1.1225.99783-.176.25466-.3807.50447-.455.55513-.2349.1603.2539.25747.6114.12154.185-.0703.6625-.39354 1.0612-.71824l.7248-.59036 1.2128.34904c.6852.19719 1.1975.41358 1.1776.49738-.054.22614-1.8584 1.63402-2.0969 1.63592-.1152.0008-.2502-.0391-.3001-.089-.1798-.17984-1.0881-.43456-1.5564-.43651-.2631-.001-.7784.12268-1.1451.27505-.5763.23952-.7017.36136-.9253.89962-.2179.52423-.34.64769-.7732.78161-.4231.13082-1.7712 1.21345-1.7712 1.42244 0 .0324.1513.0589.336.0589.3377 0 1.1652-.36773 1.7807-.79132.3223-.22176.3604-.21367 1.4851.31493.6349.2984 1.155.60207 1.1559.67483 0 .17735-2.3453 1.41404-2.4286 1.27938-.072-.11685-.9792-.57249-1.6082-.8079-.3182-.11909-.5692-.10796-1.1854.0525-.43.11198-.8238.27802-.8754.36896-.051.091-.2774.41837-.5021.7276-.3325.45755-.4868.56224-.8284.56224-.4366 0-1.6226.70359-1.7594 1.04364-.1039.25833.8439.11665 1.7546-.2623l.6983-.29052.4923.39452c.2709.21699.7477.55517 1.0596.75152s.535.40889.4958.47231c-.039.0634-.4134.22222-.8317.35288-.4182.13065-.9092.31439-1.0911.40829-.4361.22511-.4486.22309-.8828-.14215-.5237-.44044-1.2431-.82804-1.7389-.93695-.7829-.17195-1.1773.0206-1.7734.86585-.3035.43037-.5847.78728-.625.79312-.04.006-.3837.0264-.7631.0455-.4831.0245-.8492.14025-1.2209.38625-.292.19323-.5917.35133-.666.35133-.074 0-.1351.0846-.1351.18792 0 .29901.6609.35752 1.5213.13468.4366-.11308.9318-.23964 1.1005-.28125.2244-.0554.4196.0311.7276.3222.2315.21883.708.61333 1.0589.87667l.638.4788-.3734.1423c-.2054.0783-.5511.17797-.7683.22156-.2171.0436-.6739.18127-1.015.30595l-.6202.2267-.374-.39493c-.7189-.75906-1.3847-1.11893-2.2471-1.21459l-.8148-.0904-.6326.7328-.6326.73281h-.8161c-.6571 0-.9744.0816-1.6285.41895-.4467.23042-.8123.46585-.8123.52317 0 .0573.2232.14616.4961.19743.43.0808 1.0996.003 2.4143-.27893.2768-.0594.5117.10418 1.4403 1.00343 1.1841 1.14667 1.2167 1.29984.2795 1.31378-.2546.004-.8499.11202-1.3229.24051l-.8599.23362-.8817-.875c-.8217-.81545-.9398-.8857-1.735-1.03223-.4694-.0865-.9656-.1571-1.1027-.15693-.2412.00026-3.5736 1.6181-3.8015 1.84549-.062.0618.2953.30623.7938.54321 2.4816 1.17982 6.9255 3.9263 6.9255 4.2802 0 .0986-.3423.32009-.7606.49225-.6371.26217-.9903.31303-2.174.31303-1.3832 0-1.4218-.008-1.819-.38856-.2231-.2137-.4057-.46799-.4057-.56507 0-.33977-.6958-1.22343-1.3702-1.74025-.6497-.49784-.9838-.69957-2.5708-1.55202l-.6999-.37593-.8876.45471c-2.0503 1.05029-3.2885 2.0521-3.7557 3.03862-.4759 1.00483-.6574 1.1113-1.9505 1.14431-.624.0159-1.2834.001-1.4653-.0326zm2.5839-.50558c.5689-.23769.5868-.51696.047-.74036-.7779-.32223-3.3488-.0739-3.7073.35804-.1296.15614.046.23053 1.1422.48247.6064.13946 2.085.0806 2.5177-.10015zm13.8797.008c.7563-.1992.917-.43165.3799-.54934-.2052-.045-.5359-.14329-.7348-.21846-.5225-.19751-2.292-.18234-2.6756.0229-.5081.27197-.5208.52212-.037.73239.5395.23449 2.1991.24124 3.0676.0125zm-21.4741-7.2242c.064 0 .1157-.05.1157-.11106 0-.19027-.65-.41811-1.1928-.41811-.4387 0-1.1081-.26417-1.6515-.65173-.073-.0519-.3884-.17518-.7014-.27396-.3328-.105-.9317-.49951-1.4418-.94987-.9458-.83497-1.356-1.03206-.7106-.34146.2205.23585.4688.59303.552.79375.1063.2567.2464.36494.4724.36494.4322 0 1.0208.31823 1.3407.72496.2095.2663.3797.33337.8459.33337.4195 0 .7118.0953 1.0393.33885.3357.24966.5557.3193.836.26458.2091-.0408.4324-.0743.4961-.0743zm3.5918-.63142c.1-.12597.079-.1474-.084-.0851-.1195.0458-.2125.2109-.2067.36683.01.19351.034.22051.084.0851.04-.10914.1334-.27421.2067-.36683zm-1.0167-.12829c-.092-.0917-.3427.0947-.3427.25455 0 .0877.076.0777.2016-.0267.1109-.092.1744-.19459.1411-.22789zm.8105-2.51269c-.03-.20109-.056-.068-.057.29584 0 .3638.024.52833.055.36562.031-.16272.032-.46037 0-.66146zm-13.9194-4.00364c.045-.0728-.041-.1323-.1906-.1323-.1498 0-.2724.0595-.2724.1323s.086.13229.1906.13229c.1049 0 .2275-.0595.2724-.13229zm-2.5342-.46916c-.043-.11252-.3677-.35115-.7212-.53029-.3536-.17914-.8372-.54532-1.0749-.81373s-.7361-.78881-1.1077-1.15643c-.4102-.40593-.7686-.91688-.9125-1.30112-.3069-.81893-.5323-.9702-.4185-.28083.047.28416.086.61599.087.73738 0 .1214.2061.34722.4562.50182.2915.18011.5613.5167.7512.93683.163.36066.378.65573.4778.65573.3657 0 .9438.40229 1.2197.84875.208.33645.396.47235.7073.5112.2333.0291.4669.0624.5192.0741.052.0116.06-.0709.017-.1834zm4.0101-1.41852c-.036-.0896-.064.0157-.061.23403 0 .21828.032.29156.066.16285.034-.12872.031-.30731-.01-.39688zm-.3042-2.63528c-.059-.3657-.2067-.56564-.6442-.87403-.3867-.27255-.5964-.5324-.6587-.81612-.073-.33459-.2262-.48231-.778-.75295-.3917-.1921-.8079-.52186-.9691-.76787-.2374-.36211-.3895-.44535-.9496-.51965-.3668-.0487-.7026-.14627-.7463-.21693-.044-.0707-.14-.12845-.214-.12845-.2575 0 .6163.62412 1.0897.77838.277.0902.9082.56908 1.5075 1.14364.567.54362 1.0749.9884 1.1285.9884.054 0 .2575.32672.4529.72604.2957.60456.7031 1.06882.8281.9438.017-.0166 0-.24347-.047-.50426zm-8.1693-.86517c-.044-.044-.075.0342-.069.17363.01.15411.038.18546.08.0799.038-.0955.034-.2096-.01-.25356zm2.9627-3.34312c0-.0728-.063-.13229-.1401-.13229-.077 0-.1033.0595-.058.13229.045.0728.108.13229.1401.13229.032 0 .058-.0595.058-.13229zm-6.0854-3.78447c0-.0286-.1637-.0511-.3638-.05-.2647.002-.313.0342-.1774.12005.1685.10664.5412.0584.5412-.0701zm2.1167-1.21795c0-.16614-.039-.15631-.1942.0493-.2541.33596-.2567.53246 0 .32294.1092-.0906.1985-.25808.1985-.37221zm.474-2.61639c.071-.3774.03-.52694-.2154-.7881-.2156-.22948-.3202-.53117-.363-1.04751-.052-.62799-.1174-.7689-.4876-1.05123-.2856-.2179-.4832-.5252-.5955-.92649-.1378-.49194-.2718-.6612-.742-.93672-.3156-.18495-.6338-.4393-.7072-.56522-.121-.20759-.1338-.20842-.1374-.009 0 .12099.3398.56917.76.99595.5243.53254.8195.96157.941 1.36754.097.32535.2893.74956.4266.9427.1373.19313.2496.41637.2496.49609 0 .0797.059.14495.1323.14495.073 0 .1323.18199.1323.40443 0 .5748.274 1.58971.407 1.50751.062-.038.1512-.27874.1993-.53492zm-3.3844-5.61036c0-.0728-.063-.13229-.1401-.13229-.077 0-.1033.0595-.058.13229.045.0728.108.13229.1401.13229.032 0 .058-.0595.058-.13229zm-1.6577-4.07054c.3616-.0384.8379-.17976 1.0584-.31422l.4008-.24446-1.356-.00053c-1.3325-.00053-1.3559.005-1.3559.30819 0 .3868.1257.51803.3899.40702.113-.0474.5012-.11767.8628-.15603zm-.1205-1.41536c.194-.14671.2083-.19423.058-.19423-.1092 0-.314.0874-.4553.19423-.1939.14671-.2082.19423-.058.19423.1091 0 .314-.0874.4552-.19423zm-2.4552-.0703c0-.0728-.1042-.13138-.2315-.13027-.1978.002-.2026.0207-.033.13027.2496.16134.2645.16134.2645 0zm-1.4514-2.90128c-.149-.35967-.1052-3.3914.051-3.54783.043-.0425.077-.18461.077-.31579s.1191-.45049.2646-.70958.2646-.63067.2646-.82574c0-.33-.019-.31858-.2645.16406-.1455.28531-.3538.56875-.463.62986-.1416.0793-.1986.33543-.1986.8938 0 .45764-.092.97488-.2206 1.24545-.208.43608-.2068.49359.021.99793.1965.43558.2129.59766.088.87088-.2235.49055-.1894.80015.1447 1.3132l.2977.45708.043-.40848c.024-.22466-.024-.56884-.105-.76484zm5.6454.79707c.2572-.32651.274-.42609.1437-.85088-.1286-.419-.108-.55834.1602-1.07959.2673-.5199.2854-.64034.1372-.91712-.1103-.20624-.1486-.61399-.1085-1.15607.053-.72139.021-.89244-.2368-1.23432-.1645-.21828-.3248-.57547-.3563-.79375-.051-.35543-.059-.3445-.077.10463-.011.27583.1033.88245.2537 1.34805.2083.64471.2398.90944.1323 1.11037-.078.14511-.1412.70674-.1412 1.24808s-.089 1.23735-.1985 1.54669c-.2146.60849-.2575 1.06269-.099 1.05101.055-.004.2303-.17372.3906-.3771zm-.5422-6.8558c-.044-.0439-.075.0342-.069.17364.01.15411.038.18546.08.0799.038-.0955.034-.20961-.01-.25357zm-4.2333-.13229c-.044-.044-.075.0342-.07.17364.01.15411.038.18546.08.0799.038-.0955.034-.2096-.01-.25356z" fill="#008c43" fill-rule="evenodd"/><path d="m1312.642 200.45897c.0002-.29409-2.0767-.84183-2.5311-.66746-.3721.14277-.3967.10516-.1364-.20845.2619-.31558.1061-.50655-.8886-1.08953-1.2206-.7153-1.563-1.04147-.7764-.73964.3848.14768.3818.0845-.029-.60362l-.4586-.76854.593.66146c.3261.36379.6962.63169.8225.59531.1262-.0364.2296.0979.2296.29833 0 .20047.1876.52023.417.71059.3456.28684.4582.28107.6574-.0337.2014-.3182.241-.30996.2444.0508 0 .50352.428.88699 1.2609 1.14232.4626.14184.5999.0754.6162-.29835.016-.37292.055-.39177.1719-.084.083.21828.2821.48434.4422.59125.4189.27978 1.8055.24792 1.6292-.0374-.082-.13195.078-.18077.3542-.1085.2764.0723.8421-.0856 1.2572-.35083.7317-.46761.7429-.4675.3686.004-.2123.26731-.6886.6045-1.0584.74931-.7424.29076-3.1863.43416-3.186.18695zm3.0093-3.17718c.1258-.55512.029-.74533-.5045-.98828-.5552-.25294-.744-.2172-1.1856.22441-.338.33801-.5253.40265-.5253.18131 0-.18919.1223-.46625.2718-.61573.1859-.18596.066-.36535-.3789-.56819-.5455-.24853-.7711-.20256-1.3962.28461l-.7456.58104.4724-.73226c.4645-.72002.4623-.73609-.1323-.96054-.3686-.13913-.8114-.12024-1.1339.0484-.4585.23968-.4844.22235-.1941-.12968.2837-.34419.2116-.45741-.4715-.74039-1.0023-.41513-.8739-.64696.1439-.25999.5658.2151.7938.20113.9587-.0588.1645-.25931.2173-.24025.2204.0796 0 .2313.3017.55617.6655.72193.5664.25807.6621.23565.6655-.15597 0-.25154.1249-.63594.2727-.85422.2052-.30325.2348-.24084.1256.26458-.1614.74683.024 1.10727.7837 1.52279.4457.24377.5756.18067.8639-.41949.1866-.38853.2817-.49806.2113-.2434-.3378 1.2224.9769 2.09335 1.7391 1.15206.4458-.5505.4481-.54926.3111.16711-.116.60686-.017.76958.6196 1.02264.4166.16553.6153.35401.4415.41887-.1739.0648-.5538-.009-.8443-.16476-.4323-.2314-.6082-.17452-.9692.31357l-.4411.59624zm2.9614-2.75214c-.1019-.54321-.3294-.92605-.5503-.92605-.2071 0-.3165-.15635-.2432-.34742.2001-.52145-.8311-1.33125-1.4793-1.16173-.4417.11551-.4933.0727-.2562-.213.3863-.46552-.5833-1.02597-1.4788-.85478-.3431.0656-.5603.0165-.4827-.10899.2466-.39905-.7358-.58642-1.5209-.29006-.4161.15707-.6892.17654-.6068.0433.082-.13326-.066-.2517-.3289-.26318-.2805-.0122-.341-.0764-.1463-.15489.1828-.0737.2526-.26313.1551-.42095-.1197-.19365-.013-.21621.3291-.0694.9899.42531 2.2257.48048 2.2342.0997.01-.23954.098-.20502.2777.10335.4468.76696 1.7974 1.34936 2.2529.97138.3074-.25518.3552-.24373.2396.0575-.1966.5123 1.1379 2.08359 1.6143 1.90078.2547-.0977.3262-.0145.2216.258-.085.22125-.036.82982.108 1.35237.1442.52255.1661.9501.049.9501-.1176 0-.292-.41671-.3876-.92603zm-17.3436-1.21443c0-.50043-1.892-1.19861-2.4232-.89647-.2795.15896-.2901.12961-.048-.1327.2431-.2631.1438-.47783-.4538-.98061-.4207-.35406-1.0012-.66154-1.2899-.6833-.4024-.0303-.4575-.12077-.2361-.38751.2164-.26076.1249-.57822-.3647-1.26647-.4805-.6753-.6198-1.14646-.526-1.77954l.1277-.86106.3049 1.05834c.2069.71804.3617.93072.4814.66145.1297-.29156.1703-.25646.1528.1323-.013.29104-.01.66248.01.82543.049.48008 1.9136 2.48186 2.3113 2.48186.2007 0 .365.1.365.22211 0 .3861 1.4266.92199 1.541.57885.062-.1864.2247-.12926.4296.15104.2765.3781.4644.40393 1.1639.16008.4588-.15994.8342-.18333.8342-.052 0 .13135-.4465.32093-.9922.42127-.5457.10035-1.0796.3141-1.1865.47501-.1242.18695-.1959.14071-.1985-.12811zm3.1586-2.76921c-.207-.24949-.6044-.37635-.9637-.30766-.6378.12192-.8562-.2035-.2807-.41818.2307-.086.154-.30729-.2534-.7311-.5164-.53729-.6697-.57105-1.3229-.29126l-.7388.31645.5852-.50156c.5602-.4801.565-.51991.1115-.93034-.5594-.50624-1.3891-.55658-1.8344-.11126-.2469.24695-.3175.24144-.3175-.0248 0-.18825.243-.40582.54-.48348.7599-.19872.5055-.68267-.5406-1.02836-.5436-.17964-.7407-.3448-.5093-.42673.294-.10407.2312-.29851-.2838-.87839l-.6615-.74473.8372.57802c.6115.42219.8734.48835.9713.24542.074-.18294.1435-.0832.155.2217.012.30487.2439.75611.5164 1.00277.4684.42384.5033.41883.6367-.0913.078-.29686.2952-.53975.4834-.53975.2662 0 .2717.0706.025.3175-.4405.44049-.3966 1.00869.1223 1.58204.4156.45923.4674.46107.9398.0335.4814-.43564.4903-.42695.2394.23299-.219.57614-.1579.78196.3831 1.29023.354.3326.6437.47765.6437.32233 0-.15531.1769-.35026.393-.43321.3256-.12492.3389-.0642.078.35378-.2579.41302-.2255.60356.1786 1.05016.2716.30008.4321.60727.3567.68266-.075.0754-.2956-.054-.4894-.28749zm2.2181-1.72628c.2644-.70046.2406-.8642-.1693-1.16391-.3524-.25769-.3869-.38133-.1322-.47348.5101-.18452-.3506-1.65989-.9394-1.61023-.3758.0317-.397-.0306-.1228-.36106.2738-.32991.2243-.48608-.2846-.89819-.3388-.27436-.7885-.49884-.9992-.49884-.2108 0-.3133-.11309-.2279-.25131.243-.39309-.8279-.83522-1.64-.67707-.5869.11431-.6276.0953-.2039-.0956.5701-.25676.5779-.2529-1.3229-.65486-.3127-.0661-.1774-.12445.3308-.14259.4927-.0176.8616-.17192.8639-.36142 0-.21638.071-.23484.1984-.0534.107.15253.5937.55636 1.0817.89739.6497.45405.9402.5344 1.085.30013.1305-.21127.3092-.0508.5259.47254.4205 1.01516 1.212 1.73376 1.6271 1.47723.2034-.12574.2538-.0885.1367.10093-.102.16501-.045.76889.1267 1.34194.2337.77975.4198 1.00433.7399.89254.3477-.12142.3658-.0827.097.20707-.1819.19604-.3307.62055-.3307.94334 0 .74045-.2565 1.42393-.5345 1.42393-.1173 0-.075-.3668.094-.81512zm-14.2168-8.66544c-.1826-.29552-1.4237-.56313-1.5616-.33671-.054.088-.08.0477-.058-.0896.061-.3886-1.6658-1.7963-1.9715-1.60733-.4891.30226-.2872-.0216.4218-.67661.6462-.59702.6827-.60356.5267-.0945-.1181.38532.029.73114.4963 1.1706.3652.34304.6639.52067.6639.39473s.1489-.0343.3308.20365.7376.46907 1.235.5136c.7838.0702.8486.1267.4865.42453-.2394.19698-.4825.23868-.5696.0977zm-.4581-1.56579c-.3291-.41964-.3197-.429.1-.0999.2547.19973.463.40808.463.46303 0 .21776-.2172.0776-.5629-.36313zm2.4553-.48017c-.2415-.53015-.4389-.64292-.9023-.51547-.5469.15042-.5571.13401-.1302-.21045.5776-.46599.5847-.81723.028-1.37383-.2806-.28061-.6795-.38368-1.1244-.29052l-.6896.1444.6615-.30955c.3638-.17025.7073-.34196.7634-.38158.2994-.21152-.8581-1.41204-1.3649-1.41553-.461-.003-.5056-.0569-.2049-.24712.2113-.13369.4778-.18522.5922-.1145.2999.18531-.069-.7747-.4181-1.08953-.1616-.14552-.3057-.44318-.3203-.66146-.015-.21828-.1079-.69453-.2075-1.05833-.1422-.5194-.078-.47587.3001.20267.3936.70702.5454.80324.8352.52917.293-.27712.3069-.24284.081.19855-.195.38077-.1799.70782.053 1.14238.2903.54261.3633.56373.67.19409.1894-.22813.4573-.41478.5954-.41478s.064.1871-.1647.41577c-.4454.44537-.4994.99555-.1783 1.81562.1378.3517.2609.41372.3939.19844.1065-.17224.3879-.31317.6254-.31317.3634 0 .3514.0588-.076.37115-.4246.31042-.4632.49438-.2364 1.12448.1909.53004.4243.73046.7878.67615.422-.0631.4445-.0289.1232.18654-.3219.21588-.338.40985-.089 1.06936.3683.97567.032 1.08171-.4034.12705zm2.849-.63029c.3894-.67181.4532-1.00283.2425-1.25677-.2062-.24845-.2032-.34475.011-.34475.4461 0 .3572-1.47272-.1124-1.86247-.2784-.23105-.3164-.39726-.1188-.51941.3459-.21375-.1878-1.58687-.6167-1.58687-.1464 0-.1857-.0805-.087-.17881.2338-.23382-.8732-1.40869-1.3274-1.40869-.1929 0-.321-.11066-.2846-.24591.036-.13525-.1719-.43947-.463-.67605-.5207-.42328-.5199-.42569.049-.15097.756.36522.9434.35236.7507-.0515-.087-.1819 0-.10947.1828.16096 1.1096 1.60176 1.3166 1.78059 1.6966 1.46522.3053-.25333.3432-.22664.2017.14201-.2516.65568.4292 2.53129.9188 2.53129.3169 0 .3369.0706.09.3175-.3889.38888-.4243 2.32833-.043 2.32833.2934 0 .2625.0479-.9401 1.45521l-.6783.79375zm-8.8229-.77003c-.229-.44285-.6247-.93916-.8794-1.1029-.4396-.28268-.4395-.29038 0-.15249.4929.15353.4763-.26457-.081-2.03256-.1322-.41952-.1325-.6751-.0007-.59366.1272.0787.3567-.18516.5099-.58625.2515-.65838.2646-.6264.1351.32908-.107.7895-.072.95752.1369.66146.3638-.51506.3703-.11829.01.55655-.3004.5612-.091 1.65661.2736 1.4313.1214-.0751.1617.0896.089.36598-.072.27637.01.76298.1784 1.08136.1704.31839.2494.63928.1756.7131-.074.0738-.3216-.22812-.5506-.67097zm-1.5914-12.75961c-.4279-.40736-.9042-.67069-1.0583-.58516-.1541.0855-.1406.004.03-.18036.3413-.36936.047-1.33387-.667-2.18917-.2874-.34416-.3011-.46302-.053-.46302.2328 0 .3006-.33911.2249-1.12448-.06-.62441.044-1.41864.2351-1.78595.189-.3638.3444-.99589.3453-1.40467.001-.44125.1121-.67492.2736-.57512.1496.0925.5171-.10889.8167-.44741.45-.50839.4395-.45743-.06.29286-.5632.84607-.5693.89573-.089.72413.3986-.14245.3694-.0698-.1288.32039-.3544.27755-.685.84466-.7347 1.26025-.05.4156-.1598 1.20342-.2448 1.75074-.1182.7612-.07.97353.2055.90327.198-.0505.2707-.0419.1616.0191-.2711.15161-.2434 1.4383.041 1.88671.127.20055.3522.28968.5004.19808.1621-.10015.2157.0395.1344.35014-.098.3747.094.65635.7005 1.02487.5268.32034.7081.55573.4906.63682-.1899.0708-.6953-.20466-1.1233-.61203zm5.7535.41239c.4082-.23241.83-.66029.9375-.95084.1919-.5187.2048-.51759.7132.0615.2847.32438.3614.49812.1703.38609-.1982-.11618-.5392-.0355-.7938.18781-.2455.21532-.744.46946-1.1078.56475-.6269.16421-.6227.1512.081-.24931zm-2.7223-.59748c0-.65115-.153-.92829-.5994-1.10771-.585-.23512-.5834-.23958.09-.25606.5924-.0145.6787-.12441.6378-.81218-.052-.86916-.033-.8385-.7937-1.29893-.4809-.29111-.4628-.30627.1985-.16628.6657.14094.7276.0868.7276-.6363 0-.58421-.1898-.89964-.7276-1.2094l-.7276-.41906.7276.15105c.6628.13763.7276.0819.7276-.62567 0-.4272-.089-.82667-.1985-.88771-.1091-.061-.05-.0747.1323-.0303.2143.0522.3464-.26583.3752-.90326l.044-.98389.103.97808c.081.77362.1965.9492.5508.83992.3983-.12285.3966-.10516-.015.15955-.2547.16374-.463.58945-.463.94602 0 .52342.1401.65422.7276.679.5499.0232.5983.0618.1984.15797-.6869.16522-.8225.3234-1.0292 1.2004-.1549.65694-.1004.72963.5611.74849l.7327.0209-.7276.26574c-.5667.20698-.7276.43641-.7276 1.03745 0 .5555.1297.77396.463.77975.441.008.441.0209 0 .27773-.2547.14832-.4649.47213-.4671.71956 0 .24744-.1195.62847-.2605.84676-.1944.30072-.2575.18648-.2605-.47155zm4.2292-.69102c0-.0745.1366-.43518.3035-.80152.2393-.52515.2253-.76219-.066-1.12033-.3257-.40028-.315-.43378.09-.28198.4087.15316.4568-.0193.4338-1.55485-.021-1.40293-.1322-1.82636-.592-2.25574-.5113-.47739-.5167-.5097-.055-.3334.489.18694.4918.16828.066-.4394-.6184-.88289-.5556-1.15713.1121-.48944.5872.58724.7131.95586.746 2.18368.016.58826.1166.71894.4546.58925.3513-.13482.3745-.0946.1213.21043-.1721.2074-.3448.92558-.3838 1.59595s-.2126 1.36066-.3859 1.53397-.3151.46287-.3151.64345c0 .18059-.1191.40193-.2646.49187-.1455.0899-.2646.10257-.2646.0281z" fill="#29993c" stroke-width=".264583"/></g></g></svg>