<svg height="145.73164" width="145.73221" xmlns="http://www.w3.org/2000/svg"><path d="m199.97901 658.40698a207.34004 207.34004 0 1 1 .45486-.09739" fill="#ca140f" transform="matrix(.35136971119 0 0 .35136971119 17.77199458909 -87.22292776503)"/><path d="m199.97901 658.40698a207.34004 207.34004 0 1 1 .45486-.09739" fill="#fff" transform="matrix(.32753742721 0 0 .32753742721 21.44881974257 -76.39504577369)"/><path d="m199.97901 658.40698a207.34004 207.34004 0 1 1 .45486-.09739" fill="#ca140f" transform="matrix(.30073954886 0 0 .30073954886 25.41861073704 -63.74273249402)"/><g fill="#fff" fill-rule="evenodd" transform="matrix(.2787894 0 0 .2787894 -12.253069 -8.3386)"><path d="m286.98338 129.80064c0-24.30923-16.25381-25.57766-18.71674-33.296077-2.85701-10.662512 24.83364-11.855087 34.28117-2.955271 2.41526 2.45043 4.40785 2.498907 6.97849.018314 9.49499-8.753449 37.14323-7.944048 34.36034 2.933066-2.66334 7.704188-18.72357 8.871408-18.78687 33.299968l-.01174 8.23534c-13.01188-1.47146-25.65894-1.11884-38.15276 0z"/><path d="m287.31083 344.59673c13.77496 2.89777 24.91568 2.91577 37.47698 2.96802l.27431-30.34884c-14.29191-1.71096-25.43133-1.60911-37.91623.30174z"/><path d="m286.99236 404.26516c14.19334 3.38472 25.67131 2.60895 38.08884 2.40308l-.06002-17.97548c-10.67506.64573-22.88665.4782-38.02882-1.10961z"/><path d="m287.08015 269.08336c16.04967 2.2441 27.28103 2.26543 37.89098.19105v-34.22629c-13.65152-.86727-24.88869-.36071-37.89098 1.68958z"/><path d="m287.17114 194.41458c20.15675-1.40894 17.88398-1.18858 37.79999-.11712v-16.2338c-12.91456-1.69314-25.56565-.88844-37.99503 1.29994z"/><path d="m465.08377 269.86323c-56.93051-27.95561-100.08115-42.42342-157.75807-41.45565-45.45071.77298-76.33293 16.57865-102.02631 31.56691-18.82422 10.98111-34.20182 22.04516-34.72798 30.84056.27362 5.8697 6.72637 13.55992 15.62876 19.63653-.2805 13.94658-2.03809 28.30586-4.08964 37.61905-27.58832-14.55301-39.61893-24.59585-57.60908-41.39913-12.7757-5.90562-13.13441-23.93183.59124-29.59239 106.17826-105.03371 231.86682-82.16258 320.38685-47.77586 6.10336 2.39057 8.93605 2.3785 12.31933.21579 5.42985-3.57415 7.06434 8.23919 8.80071 14.12431 2.47807 8.39898 4.37069 15.80437 6.12822 23.27193.85165 5.42926-4.35697 4.87229-7.64403 2.94795z"/><path d="m242.73683 340.47153c79.25787 31.25831 147.21777 9.09816 222.71414-26.52778 2.31249-.98966 4.3225-1.55789 5.81174.53963 1.87719 2.97992-2.18194 11.83894-4.7722 18.69471-3.84428 10.17489-7.48894 19.96814-9.53355 20.91717-3.92677 1.38612-5.24881-4.34647-9.70369-2.3003-90.66306 38.01627-157.07032 33.53419-215.05477 17.40233-4.37681-1.78616-4.7147-10.94259-3.27046-15.93951 2.02059-6.99104 7.90144-14.39942 13.80879-12.78625z"/><path d="m387.43948 424.48144c-49.76295 19.81549-102.54001 25.47092-161.83605-1.13468-6.86175-2.4323-15.37598-4.32762-23.41925-2.57354-6.95923 1.53345-12.88597 4.09941-18.27216 7.20592-6.15729 3.95209-11.96212 3.46158-9.5221-4.23615l4.52134-13.33836c6.60785-25.06088 16.09623-82.86859 14.50099-134.77706 14.34838-10.2464 26.73388-16.87437 40.60657-23.62422 25.87303 26.80788 79.854 30.39586 117.06036 19.78969 7.65007-2.66649 9.80622 1.86311 9.00001 6.46649-1.60696 9.17556-4.00944 9.92939-4.12015 15.64737-.12819 6.46681 3.00038 8.99497 4.11721 16.41848.73904 4.91243-1.48816 9.40606-8.99707 6.10666-36.68243-13.80725-89.40317-8.58716-116.81132 15.30946-19.64195 19.26361-17.90224 38.72952 0 55.40894 37.0239 30.69875 83.68605 32.96678 131.29423 17.72573 8.02242-2.56826 23.36609-9.04406 25.81145-17.10157.85769-3.46208.93235-6.72841.78713-9.93976 9.005-2.36831 16.39689-4.73662 23.39887-7.10493 3.15052 9.13671 6.01146 14.49899 7.80988 19.73348 2.53702 7.38427 4.35977 13.82437 4.97005 21.11878.76084 9.09419-6.39185 13.74335-13.84238 10.30918-5.56324-2.56426-16.19199-1.74487-27.05761 2.59009z" stroke="#000" stroke-width=".3"/><path d="m389.7946 161.22061c-56.85172-23.9812-113.996-22.68908-161.2277-.50938-10.49075 3.6768-15.782 3.13852-23.67301 2.58838-8.15829-1.03087-11.81808-3.02995-18.54199-7.11722-7.36957-4.99464-11.14984-2.0367-9.09872 4.45663 7.31345 19.14285 10.22589 39.47212 11.31639 61.20787 15.64067-7.70438 27.48154-12.24167 38.5003-15.83768 14.45952-21.12875 35.22173-32.07257 80.99042-34.67502 47.24032.80719 60.71804 8.014 81.55053 19.7155 5.18794 3.71142 5.68529 7.98803 5.42425 14.56798 6.33749 1.36176 14.3437 3.97506 22.68055 6.83634 1.44402-6.67272 4.14498-10.46184 6.66566-16.02082 3.27152-7.21485 5.52364-14.87384 6.14986-23.92873.33429-5.14861-2.83602-13.91678-13.875-10.75-8.7395 2.79322-19.67079 1.89287-26.86154-.53385z"/><path d="m286.88495 456.08176c0 24.30923-16.2538 25.57766-18.71673 33.29608-2.85701 10.66251 24.83364 11.85508 34.28117 2.95527 2.41526-2.45043 4.40784-2.49891 6.97848-.01832 9.495 8.75345 37.14324 7.94405 34.36034-2.93306-2.66333-7.70419-18.72356-8.87142-18.78686-33.29997l-.01174-9.25408c-12.71759 1.10622-25.43518 1.15742-38.15277 0z"/><path d="m414.73784 254.59586c2.67569 16.01253 9.04413 26.08615 3.32265 23.00156-9.97567-5.20528-17.15608-19.86816-19.70346-29.20794 4.87659 2.06879 9.1159 4.13759 16.38081 6.20638z"/><path d="m414.50513 328.56888c2.67569-16.01253 9.23359-27.03347 3.51211-23.94888-9.97567 5.20528-18.1034 20.43655-20.65078 29.77633z"/></g></svg>