<svg clip-rule="evenodd" fill-rule="evenodd" height="184.64mm" image-rendering="optimizeQuality" shape-rendering="geometricPrecision" text-rendering="geometricPrecision" viewBox="0 0 248.4 184.64" width="248.4mm" xmlns="http://www.w3.org/2000/svg"><path d="m-.0022-.0017h124.2022v92.3217z" fill="#f5cf0f" stroke="#000" stroke-width=".0706" transform="translate(0 -.000002)"/><path d="m-.0022-.0017v92.3214l124.2022.0003z" fill="#280773" stroke="#000" stroke-width=".0706" transform="translate(0 -.000002)"/><path d="m248.402-.0017h-124.202v92.3217z" fill="#280773" stroke="#000" stroke-width=".0706" transform="translate(0 -.000002)"/><path d="m-.0022 184.642h124.2022v-92.322z" fill="#280773" stroke="#000" stroke-width=".0706" transform="translate(0 -.000002)"/><path d="m248.402 184.642h-124.202v-92.322z" fill="#f5cf0f" stroke="#000" stroke-width=".0706" transform="translate(0 -.000004)"/><g transform="translate(0 -.000002)"><path d="m248.402-.0017v92.3214l-124.202.0003z" fill="#f5cf0f" stroke="#000" stroke-width=".0706"/><path d="m-.0022 184.642v-92.3216l124.2022-.0004z" fill="#f5cf0f" stroke="#000" stroke-width=".0706"/><path d="m248.402 184.642v-92.3216l-124.202-.0004z" fill="#280773" stroke="#000" stroke-width=".0706"/><path d="m90.6286 51.1403v49.4516c0 18.8294 15.4061 34.2355 34.2355 34.2355 18.8297 0 34.2357-15.4061 34.2357-34.2355v-49.4516c-22.8237 0-45.6476 0-68.4712 0z" fill="#1f1a17" stroke-width=".0494"/><path d="m91.52038 52.0307h66.86372v17.88622h-66.86372z" fill="#c2c2c2" stroke-width=".0494"/><path d="m91.43962 99.38021c3.95134-.38366 7.90287-5.19931 11.85428-5.19931 3.5918 0 7.1835 5.22441 10.7753 5.22441 3.6749 0 7.3495-5.22441 11.0243-5.22441 3.7575 0 7.5154 5.22441 11.273 5.22441 3.5087 0 7.0178-5.22441 10.5267-5.22441 3.8189 0 7.6375 4.49784 11.4564 5.14606v1.02894c0 2.5265-.2834 4.9895-.8165 7.3603-3.5468-1.0723-7.0932-4.9523-10.6399-4.9523-3.5089 0-7.018 5.2245-10.5267 5.2245-3.7576 0-7.5155-5.2245-11.273-5.2245-3.6748 0-7.3494 5.2245-11.0243 5.2245-3.5918 0-7.1835-5.2245-10.7753-5.2245-3.67181 0-7.34385 4.1588-11.01566 5.0552-.54809-2.4023-.83862-4.9001-.83862-7.4632z" fill="#c2c2c2" stroke-width=".0494"/><path d="m117.368 119.97c2.5929-.0907 4.5916-1.3587 5.9556-3.491v-12.4341c.9661-.3756 1.9843-.5069 3.0812-.1717v12.6062c1.3639 2.1317 3.3629 3.3999 5.9555 3.4906 2.8364-.0863 4.7413-1.4431 6.3027-3.7291l-2.638-1.1469 4.979.4665c-4.5103 7.3845-10.8006 8.2979-16.1266 1.5102h-.0265c-5.3259 6.7877-11.6138 5.8781-16.1265-1.5102l4.979-.4665-2.6381 1.1469c1.5601 2.2839 3.4561 3.6425 6.3027 3.7291zm7.4874-2.0754-.0006.0215c-1.4077 1.6784-3.1607 3.2093-5.2589 3.9382 1.849.3435 3.5705 1.2388 5.0925 2.3192l.2005.1435.151-.1437c1.5221-1.0803 3.2437-1.9756 5.0926-2.319-2.1012-.73-3.9022-2.2955-5.2771-3.9597zm-.2392 8.9934.2611.233.2349-.233c2.2794-2.3735 4.6546-3.4745 7.9918-3.343 3.7192.1464 6.5221-2.3595 8.3995-5.3155l2.1354 1.8457-2.1357-4.3061c-2.0722 3.4172-5.1957 6.7335-9.5101 6.4859-2.5896-.1486-5.129 1.1963-7.129 2.7118-1.9965-1.5129-4.5395-2.8604-7.1288-2.7118-4.3157.2476-7.4371-3.0674-9.5101-6.4859l-2.1357 4.3061 2.1353-1.8457c1.8748 2.9519 4.6579 5.4628 8.3996 5.3155 3.2829-.1293 5.7092.9664 7.9918 3.343zm19.5341-6.6383c0-3.2304.3071-6.4534.313-9.6842l-2.733 4.8045zm-.0031-9.8997-8.286 4.3461 5.5196.5171zm-38.5692 9.8997c0-3.2304-.307-6.4534-.3129-9.6842l2.733 4.8045zm.0032-9.8997 8.286 4.3461-5.5197.5171zm19.283-35.3301c2.7019 0 4.9054 2.2035 4.9054 4.9054 0 2.0243-1.237 3.7686-2.9935 4.5163v-1.6256c.9366-.6221 1.5562-1.6862 1.5562-2.8907 0-1.9102-1.5578-3.4681-3.4681-3.4681s-3.4682 1.5579-3.4682 3.4681c0 1.2045.6197 2.2686 1.5563 2.8907v1.6256c-1.7566-.7477-2.9935-2.492-2.9935-4.5163 0-2.7019 2.2034-4.9054 4.9054-4.9054zm-1.5406 6.9584h1.2456v4.1904h-1.2456zm1.849 0h1.2456v4.1904h-1.2456zm10.4533 3.9119h-1.2781v5.4778h1.2781zm-5.569 0h-1.2781v6.2994h1.2781zm-10.3854 0h1.2781v6.2994h-1.2781zm-5.569 0h1.2781v5.4778h-1.2781zm25.2208.8217h-3.317v3.888l3.317-.3731zm-5.3559 0h-3.5301v4.5145l3.5301-.3971zm-5.569 0h-3.3862-.2961-3.3861v4.7439l3.3861.381.1481.0166.148-.0166 3.3862-.381zm-9.1073 0h-3.5301v4.1174l3.5301.3971zm-5.569 0h-3.3171v3.5149l3.3171.3731zm9.6015 7.1747v-1.809h.131l.8811.0992.5285.0594.5284-.0594.8812-.0992h.131v1.626c-.1691-.0458-.3405-.0868-.5151-.1217-.8973-.1116-1.7479.021-2.5661.3047z" fill="#fff500" stroke-width=".0494"/><path d="m157.346 108.558c-8.3961 33.7283-56.4424 33.7919-64.9403.1005 3.9319-.9707 8.3834-6.4644 12.5586-4.617 5.9104 2.6133 7.542 7.2902 14.3297 2.5464 1.1722-.8195 2.3669-1.7942 3.6488-2.3813v12.175c-2.9712 4.6009-8.816 3.9317-11.3042.0249l3.4489-1.4995-10.1968-5.3483c-.0666 4.0654.3666 7.7309.2999 11.7962l2.9491-2.5491c1.8613 3.0227 5.1184 5.4098 8.8472 5.0983 3.4958-.0556 5.4116 1.254 7.2441 3.1333l.6326.6714.6328-.6714c1.8324-1.8793 3.7485-3.1889 7.2443-3.1333 3.7287.3115 6.9858-2.0756 8.8472-5.0983l2.9491 2.5491c-.0667-4.0653.3665-7.7308.2999-11.7962l-10.1968 5.3483 3.4489 1.4995c-2.4882 3.9067-8.333 4.576-11.3042-.0248v-12.3746c.0322.0127.0644.0257.0968.0394 6.2089 2.6236 7.9656 7.3815 14.8505 2.2864.8416-.6227 1.6735-1.2702 2.5723-1.8097 4.6518-2.7938 8.7602 2.7193 13.0416 4.0348zm-34.4032-26.9599h1.849.1573 1.8491v.7301l.0662-.0548.0702-.0618.0686-.064.0663-.0658.0644-.0679.0624-.0698.0604-.0719.0582-.0734.0559-.0753.0537-.0769.0514-.0785.049-.0803.0468-.0819.0439-.083.0417-.0848.0391-.0862.0367-.0875.0338-.0887.0313-.0901.0283-.0911.0258-.0924.0227-.0936.02-.0946.0169-.0957.0142-.0968.011-.0976.008-.0986.0048-.0993.0016-.0985-.0041-.1604-.0121-.1565-.0197-.1541-.0271-.1514-.0346-.1491-.0417-.1463-.0487-.1432-.0553-.14-.0619-.1364-.0683-.1331-.0746-.1294-.0805-.1255-.0863-.121-.0918-.1169-.0974-.1123-.1023-.1075-.1075-.1024-.1123-.0973-.117-.0919-.121-.0863-.1255-.0805-.1294-.0746-.133-.0683-.1365-.0619-.14-.0553-.1432-.0486-.1462-.0417-.1491-.0347-.1514-.0271-.1541-.0197-.1564-.012-.1587-.0041-.1586.0041-.1565.012-.154.0197-.1515.0271-.149.0347-.1463.0417-.1432.0486-.14.0553-.1365.0619-.133.0683-.1295.0746-.1254.0805-.1211.0863-.1169.0919-.1123.0973-.1075.1024-.1023.1075-.0974.1123-.0918.1169-.0864.121-.0805.1255-.0745.1294-.0683.1331-.062.1364-.0553.14-.0486.1432-.0417.1463-.0346.1491-.0272.1514-.0197.1541-.012.1565-.0041.1604.0016.0985.0048.0993.008.0986.0109.0976.0143.0968.0169.0957.02.0946.0227.0936.0257.0924.0284.0911.0313.0901.0338.0887.0366.0875.0391.0862.0417.0848.044.083.0468.0819.049.0803.0513.0785.0537.0769.056.0753.0582.0734.0604.0719.0624.0698.0643.0679.0664.0658.0686.064.0702.0618.0724.0599.0072.0056v-.7408zm.1244 22.5528c.0089-.0039.0179-.0077.0268-.0115-.0089.0038-.0179.0076-.0268.0115zm.1194-.0507c.0088-.0037.0177-.0073.0265-.0109-.0088.0036-.0177.0072-.0265.0109zm.1072-.0434c.0136-.0053.027-.0106.0406-.0158-.0135.0052-.0271.0105-.0406.0158zm.1295-.0494c.0066-.0025.0132-.0049.0199-.0073-.0067.0024-.0133.0048-.0199.0073zm.1067-.0384c.0143-.0049.0285-.0099.0427-.0147-.0142.0048-.0284.0098-.0427.0147zm.1285-.0433c.0091-.0029.0181-.0058.0271-.0087-.009.0029-.0181.0058-.0271.0087zm.111-.0346c.0139-.0042.0279-.0084.0419-.0125-.0139.0041-.0279.0083-.0419.0125zm.1372-.0394c.0072-.002.0144-.0038.0215-.0058-.0071.002-.0143.0038-.0215.0058zm.1128-.0294.0315-.0078c-.0105.0026-.021.0052-.0315.0078zm.1272-.03c.0092-.0021.0183-.004.0274-.006-.0092.002-.0182.0039-.0274.006zm.1181-.0248c.0096-.0019.0191-.0038.0288-.0057-.0096.0019-.0192.0038-.0288.0057zm.1275-.0233c.0073-.0012.0144-.0025.0216-.0037-.0072.0012-.0143.0025-.0216.0037zm.1202-.0188.0276-.0039c-.0092.0013-.0184.0026-.0276.0039zm.1162-.015c.0128-.0015.0256-.003.0384-.0044-.0128.0014-.0256.0029-.0384.0044zm.1248-.0128c.0119-.0011.0238-.0022.0358-.0032m.0945-.0063c.0143-.0008.0286-.0016.043-.0023-.0144.0007-.0287.0015-.043.0023zm.1274-.0056c.0148-.0005.0297-.0007.0445-.001-.0149.0003-.0297.0005-.0445.001zm.1253-.0017c.0178 0 .0356.0002.0533.0004m.081.0016c.0161.0005.0323.0013.0485.002m.0753.0039c.0178.001.0355.0023.0534.0036-.0178-.0013-.0357-.0026-.0534-.0036zm.1251.0095c.0251.0023.0503.0049.0754.0077-.0251-.0028-.0503-.0054-.0754-.0077zm.1274.0135c.0222.0027.0444.0056.0667.0087-.0223-.0031-.0445-.006-.0667-.0087zm.1311.018c.0229.0035.0458.0073.0688.0111-.0229-.0039-.0459-.0076-.0688-.0111zm.128.0216c.0226.0041.0453.0085.068.0131-.0227-.0045-.0454-.0089-.068-.0131zm.1296.0259c.0259.0056.0519.0114.0777.0175-.0258-.0061-.0519-.0119-.0777-.0175zm.1267.0293c.0286.007.0572.0145.0859.0221-.0287-.0076-.0573-.0151-.0859-.0221zm.1303.0342c.0298.0083.0598.017.0898.0259-.0299-.009-.06-.0176-.0898-.0259zm.1293.038c.0297.0091.0596.0188.0894.0286-.0298-.0099-.0596-.0194-.0894-.0286zm.1336.0436c.0297.0101.0595.0206.0893.0314-.0298-.0108-.0596-.0213-.0893-.0314zm.1487.0536c.0245.0092.0492.0189.0738.0286-.0247-.0098-.0493-.0193-.0738-.0286zm31.6342-33.4046v28.0776c-4.4515-.8136-7.7238-6.0343-12.6366-4.9831-3.6229 1.0495-6.9013 6.1083-10.861 4.7788-2.9214-1.1564-5.1196-3.705-8.1206-4.6485.0216.0068.0429.0135.0644.0204v-1.7962l1.6132-.1814v.7313h2.0389v-.9607l3.5301-.3972v.5363h2.0389v-.7656l3.6974-.416v-4.2353h-3.6974v-.8216h-2.0389v.8216h-3.5301v-.8216h-2.0389v.8216h-1.5998v-1.4832l.3022-.1351.1724-.085.1687-.0907.1652-.0967.1611-.1023.1572-.108.1531-.1133.1488-.1188.1442-.1236.1398-.1288.1352-.1338.1303-.1385.1251-.143.1202-.1474.115-.1519.1097-.1562.1039-.1599.0983-.1639.0925-.1677.0866-.1715.0804-.1748.0743-.1782.0678-.1814.0614-.1846.0547-.1875.0477-.19.0408-.1927.0338-.1953.0264-.1974.0192-.1997.0115-.2017.004-.2048-.0069-.2698-.0205-.2678-.0338-.2641-.0466-.26-.0594-.2555-.0714-.2508-.0834-.2455-.0948-.2401-.1063-.2341-.1169-.2279-.1275-.2212-.1377-.2146-.1477-.2071-.1568-.1996-.1662-.1918-.1751-.1838-.1838-.1751-.1918-.1661-.1996-.1569-.2071-.1477-.2146-.1377-.2212-.1275-.2279-.1169-.2341-.1063-.2401-.0948-.2455-.0834-.2508-.0714-.2554-.0594-.2601-.0466-.2639-.0338-.2678-.0205-.2712-.007-.2711.007-.2678.0205-.2641.0338-.26.0466-.2555.0594-.2507.0714-.2455.0834-.2401.0948-.2341.1063-.228.1169-.2211.1275-.2146.1377-.2071.1477-.1997.1569-.1918.1661-.1838.1751-.175.1838-.1662.1918-.1569.1996-.1476.2071-.1377.2146-.1275.2212-.117.2279-.1063.2341-.0948.2401-.0833.2455-.0715.2508-.0593.2555-.0467.26-.0337.2641-.0205.2678-.0069.2698.0039.2048.0116.2017.0192.1997.0264.1974.0338.1953.0408.1927.0477.19.0546.1875.0615.1846.0678.1814.0743.1782.0804.1748.0866.1715.0924.1677.0984.1639.1039.1599.1097.1562.1149.1519.1202.1474.1252.143.1303.1385.1351.1338.1399.1288.1441.1236.1489.1188.1531.1133.1572.108.1611.1023.1652.0967.1686.0907.1725.085.3156.141v1.4773h-1.6132v-.8216h-2.0389v.8216h-3.5301v-.8216h-2.0389v.8216h-3.6975v4.2353l3.6975.416v.7656h2.0389v-.5363l3.5301.3972v.9607h2.0389v-.7313l1.6132.1814v2.0103c.0279-.0113.0559-.0224.0839-.0334-3.8416 1.5126-6.9976 6.1777-11.015 4.1825-2.1649-1.0752-3.8942-2.869-6.0647-3.9455-5.6955-2.825-9.3914 3.8893-14.5581 4.4757v-28.1386zm-31.7057 23.1978c-.0267-.0081-.0537-.0161-.0805-.0239.0268.0078.0538.0159.0805.0239zm-.1228-.0362c-.0415-.0119-.0831-.0233-.1249-.0345.0418.0112.0834.0226.1249.0345zm-.1527-.042c-.0466-.0123-.0934-.0242-.1403-.0358.0469.0115.0937.0235.1403.0358zm-.1556-.0395c-.049-.012-.0983-.0233-.1478-.0343.0496.011.0987.0223.1478.0343zm-.1605-.0372c-.0504-.0111-.1011-.0219-.152-.0321-.0811-.0101-.1615-.018-.2418-.0242.0802.0062.1607.0142.2418.0242.0509.0102.1016.021.152.0321zm-.4005-.0567c-.0775-.0059-.1548-.0098-.2317-.0122.0769.0024.1542.0063.2317.0122zm-.2514-.0127c-.0761-.0021-.152-.0025-.2275-.0012.0755-.0013.1514-.0009.2275.0012zm-.2311-.0011c-.0759.0014-.1515.0046-.2267.0091.0752-.0045.1508-.0077.2267-.0091zm-.2508.0107c-.0707.0047-.1411.0108-.2112.0182.0702-.0074.1405-.0135.2112-.0182zm-.2366.021c-.0674.0074-.1346.0161-.2015.026.0669-.0099.1341-.0186.2015-.026zm-.2392.0316c-.064.0099-.1277.021-.1913.033-.0148.0028-.0298.0057-.0447.0086-.0599.0119-.1198.0246-.1794.0383.0597-.0136.1195-.0264.1794-.0383m-.2521.0556c-.0475.0115-.0948.0236-.142.0362.0472-.0126.0945-.0247.142-.0362zm-.2295.0602c-.0457.0129-.0914.0262-.1369.0401.0455-.0139.0912-.0272.1369-.0401zm-.2312.0696c-.0415.0134-.0828.0271-.1242.0412.0414-.0141.0826-.0278.1242-.0412zm-.2404.082c-.0337.0121-.0673.0243-.1008.0369.0335-.0125.0671-.0248.1008-.0369z" fill="#280773" stroke-width=".0494"/><path d="m120.1573 57.31239.21.06609.19.10453.1653.13774.1366.16709.1034.19178.0656.21234.0212.21113v1.32483h2.6974v-2.72443h-1.3117l-.209-.02146-.2102-.06621-.1898-.1044-.1655-.13798-.1363-.16689-.1035-.19186-.0655-.21215-.0288-.28427.0146-.02985.0143-.13966.0655-.21215.1034-.19167.1363-.16709.1656-.13785.1897-.10453.2103-.0661.2089-.02167h1.3117v-1.166l.0216-.21103.0655-.21212.1034-.19169.1364-.16709.1655-.13787.1898-.10449.2102-.06621.2244-.02318.2246.02318.2102.06621.1898.10449.1653.13787.1366.16709.1035.19169.0654.21224.0214.21111v1.1658h1.312l.2089.02167.2103.0661.1897.10453.1654.13785.1365.16698.1035.1917.0657.21223.0347.34052-.026.02608-.0088.08729-.0656.21213-.1034.19177-.1364.16689-.1655.13806-.1898.1044-.2103.06622-.209.02137h-1.3119v2.72432h2.6977v-1.32472l.0212-.21113.0654-.21234.1035-.19178.1367-.16709.1652-.13774.19-.10453.2099-.06609.3375-.03488.0256.02599.0863.00897.2101.06613.1898.10449.1655.13778.1364.16708.1034.19167.0655.21223.0214.21104v1.32492h1.1547l.209.02167.21.06621.1899.10449.1654.13767.1366.1672.1034.19167.0654.21214.0231.22674-.0231.22697-.0654.21211-.1034.19198-.1366.16689-.1654.13786-.1899.10452-.2103.06621-.209.02136h-1.1542v1.32492l-.0216.21132-.0655.21203-.1034.19189-.1364.16687-.1655.13797-.1899.10442-.2102.06621-.209.02147h-.0308l-.2093-.02147-.21-.06621-.1902-.10442-.1651-.13797-.1366-.16678-.1035-.19198-.0654-.21211-.0212-.21135v-1.32481h-2.6976v2.7243h1.3119l.2089.02169.2104.06609.1897.10451.1655.13786.1364.16709.1034.19167.0656.21224.0345.34053-.0259.02599-.0087.08717-.0655.21215-.1035.19186-.1365.1669-.1654.13798-.1898.1044-.2102.06621-.2092.02136h-1.3116v1.16611l-.0213.21121-.0655.21214-.1036.19187-.1366.16681-.1653.13794-.19.1044-.2102.06633-.2244.02298-.2244-.02298-.2101-.06633-.1899-.1044-.1655-.13786-.1364-.16697-.1034-.19179-.0655-.21214-.0215-.21133v-1.1659h-1.3116l-.209-.02145-.2102-.06621-.19-.1044-.1655-.13806-.1363-.1667-.1035-.19198-.0655-.21215-.0214-.21121v-.03146l.0214-.21102.0655-.21224.1035-.19167.1363-.16709.1655-.13786.1898-.10451.2102-.06609.209-.02169h1.3118v-2.72421h-2.6975v1.32483l-.0212.21124-.0657.21222-.1033.19199-.1366.16678-.1652.13785-.1901.10442-.2102.06621-.2815.0288-.0291-.0147-.1383-.0141-.2102-.06621-.1899-.10442-.1654-.13785-.1365-.1669-.1035-.19198-.0655-.21211-.0214-.21124v-1.32483h-1.1542l-.2092-.02136-.2101-.0663-.19-.1044-.1652-.13798-.1365-.16689-.1035-.19198-.0656-.21211-.023-.22697.023-.22674.0656-.21214.1035-.19167.1365-.1672.1654-.13767.1898-.10449.2101-.06621.209-.02156h1.1544v-1.32503l.0214-.21104.0655-.21223.1035-.19167.1365-.16708.1654-.13778.1898-.10461.2101-.06621.3371-.03508.0259.02621z" stroke-width=".0494"/><path d="m119.922 57.6224.0001.0001c.4481 0 .8148.3667.8148.8148v1.6036h3.3119v-3.3121h-1.6035c-.448 0-.8147-.3666-.8147-.8148l.0001-.0001c-.0001-.448.3666-.8147.8148-.8147h1.6033v-1.4458c.0002-.4482.3667-.8148.8148-.8148v.0001c.4483-.0002.8149.3666.8149.8148v1.4457h1.6035c.4482 0 .8148.3666.815.8148l-.0002.0001c.0001.4481-.3666.8148-.8147.8147h-1.6036v3.312h3.312v-1.6034c0-.4482.3667-.8149.8148-.8149l.0001.0001c.4481-.0001.8148.3666.8147.8148v1.6034h1.4459c.4482.0002.8148.3666.8148.8148h-.0001c.0002.4483-.3666.8149-.8148.8149h-1.4457v1.6034c-.0001.4482-.3667.8149-.8148.8149h-.0001c-.4482 0-.8148-.3667-.8148-.8148v-1.6035h-3.3119v3.312h1.6034c.4482 0 .8149.3667.8148.8148 0 .4482-.3666.8148-.8148.8148h-1.6034v1.4459c0 .4479-.3668.8147-.815.8147-.4481 0-.8148-.3666-.8147-.8148v-1.4458h-1.6034c-.4482 0-.8149-.3666-.8149-.8148 0-.4482.3667-.8148.8148-.8148h1.6035v-3.3119h-3.312v1.6035c0 .448-.3667.8147-.8148.8147l-.0002-.0001c-.448.0001-.8147-.3666-.8147-.8148v-1.6033h-1.4458c-.4479 0-.8147-.3668-.8147-.815 0-.4481.3666-.8148.8148-.8147h1.4457v-1.6035c0-.4482.3666-.8149.8148-.815z" fill="#d9261c" stroke-width=".0494"/></g></svg>