<svg height="496.06299" width="779.52753" xmlns="http://www.w3.org/2000/svg"><path d="m0 0h779.52759v496.06299h-779.52759z" fill="#340e71"/><g fill="#fff"><path d="m0 214.37007h779.52759v67.322838h-779.52759z"/><path d="m-16.421686-25.855782h956.69293v67.322838h-956.69293z" transform="matrix(.8526119 .5225447 -.5225447 .8526119 0 0)"/><path d="m-681.05261 381.46609h956.69293v67.322838h-956.69293z" transform="matrix(-.8526119 .5225447 .5225447 .8526119 0 0)"/><path d="m356.10236 0h67.322838v496.06299h-67.322838z"/></g><path d="m0 231.20078h779.52759v33.661419h-779.52759z" fill="#e83e01"/><path d="m0 0v28.53125l761.65625 467.53125h17.875v-28.53125l-761.65625-467.53125z" fill="#e83e01"/><path d="m761.65625 0-761.65625 467.53125v28.53125h17.875l761.65625-467.5625v-28.5z" fill="#e83e01"/><path d="m372.93307 0h33.661419v496.06299h-33.661419z" fill="#e83e01"/><path d="m269.71072 154.63142h240.41631v186.87822h-240.41631z" fill="#fff"/><g transform="matrix(.2556272 0 0 .2556272 311.62203 159.41431)"><path d="m208.69341 201.19702h194.78313v238.15282h-194.78313z" fill="#fff"/><path d="m303.56036 335.54034c5.25085-28.12574 5.72438-52.15314 5.16547-75.76016-14.16409 1.63991-22.86714-4.00158-31.23877-10.08497l2.45975-4.18157c7.24031 6.03161 15.08326 11.40033 28.77902 10.33094l-.24598-6.39534c-11.13422 1.89842-18.56773-4.34471-26.56525-9.34702l4.67353-1.96781c7.72433 5.97563 15.06892 8.53345 22.1377 8.60912l.24598-5.65742c-10.16594-.63324-14.54016-5.4034-20.4159-9.10106l4.18158-3.68962c3.87641 4.21211 7.86562 8.34368 16.23432 9.34704v-5.90339l4.91949.24597v5.65742c4.66746-.2036 10.94002 1.14774 16.23431-3.44365l2.70573 2.70572c-6.47733 4.53685-12.95467 4.57829-19.43199 3.93559l.24597 5.16547c6.06035.61972 16.1455-.13979 22.87563-6.64132l3.68962 1.72183c-6.76851 8.285-16.37169 9.95575-27.0572 9.10105l.24598 5.90339c13.15912.91633 24.06265-2.3966 31.97668-11.31482l3.68963 4.91948c-9.73883 8.40856-21.50002 11.7612-35.17436 10.33095-1.32784 23.80456.37738 47.98654 4.91948 75.02223z" fill="#00923f" fill-rule="evenodd" stroke="#000" stroke-width="1.894004"/><path d="m217.80298 369.57524.1741 32.4428c.4281 8.9347 8.5623 23.3078 45.3195 20.9769 15.1066 0 44.1576-1.5538 48.2553 14.373 5.1986-16.3153 27.6443-14.7614 42.7509-14.7614 38.592 3.4962 45.2584-12.8192 44.5856-21.3654l.193-31.6659c-30.213 0-59.1653-1.6811-87.6973-51.2732-26.8509 48.7516-63.368 51.2732-93.5811 51.2732z" fill="#eb3d01" fill-rule="evenodd" stroke="#000" stroke-width="1.875"/><path d="m161.98481 152.77751v294.1875c.6934 13.6702 13.87165 35.65995 73.40625 32.09375 24.46767-.00001 71.51935-2.3685 78.15625 22 8.42009-24.9629 44.75105-22.59375 69.21875-22.59375 62.50629 5.34919 73.30835-19.6117 72.21875-32.6875l.59375-293zm55.75 56.46875h181.28125l-.375 191.5c.6728 8.5462-6.00174 24.8712-44.59375 21.375-15.1066 0-37.55141-1.56529-42.75 14.75-4.0977-15.9268-33.1434-14.375-48.25-14.375-36.7572 2.3309-44.88441-12.03405-45.3125-20.96875z" fill="#340e71" fill-rule="evenodd" stroke="#000" stroke-width="3.125"/><g transform="matrix(.3217561 0 0 .3217561 188.70253 175.66461)"><g fill-rule="evenodd" stroke="#000"><path d="m748.39286 444.32647c1.47107 11.90476 17.46849 23.80952-2.32143 35.71428 1.00415 2.50466 2.35732 4.7999 5.71429 5.89286 3.11759-.11159 4.7394-.72178 5-1.78571 2.06883 1.21223 3.98336 2.65591 6.96428 2.5 1.31148 3.80241-1.16285 4.90068-3.03571 6.42857 2.32143-.41254 4.64285-2.66509 6.96428-.53572 2.32066.50061 3.97798 1.5319 3.92857 3.92857 1.22338-2.33548 2.58798-3.96487 4.28572-3.92857 1.50673-1.64803 6.0905-.21902 9.28571-.17857-4.33339-1.58183-6.07124-4.13698-6.60714-7.14286.51216-12.16095 3.42222-15.20983 6.25-18.57142l-30.71429-43.57143z"/><path d="m716.42858 371.6535c11.66666-1.90477 14.76191-.23809 22.14286 7.14285l5.71428 16.42857c2.61905 6.66667 2.38095 6.19048 7.85714 7.14286 19.04762 6.66667 27.38096 14.04762 37.85715 32.85714.71428 7.38095 4.28571 7.61905 2.14285 15.71429 5 .95238 8.57143 6.19048 8.57143 13.57143-7.61905 4.7619-9.52381 4.52381-18.57143 1.42857l-2.85714 3.57143c-6.52095-1.64714-12.92285-3.47286-15.71428-10.71429 3.47583-6.28562 4.82294-12.03907.71428-16.42857-5.82791-11.15795-6.3609-7.86782-10.35714-8.03572-4.20286 2.23553-5.18982 5.43599-7.14286 8.57144-12.92584-8.17196-11.78845-16.60992-13.57143-30.00001-2.57459-17.88223-8.29704-31.15896-29.64285-28.39285z" fill="#fff500" stroke-width="3.6"/><path d="m723.77232 370.22321c-2.04613-.00372-4.06995.95685-6.98661 1.43304l-12.30803 12.12946c10.0277-1.29945 17.07096 1.8119 21.24553 6.95089 3.32051-6.13202 1.99496-14.64707-1.60714-20.51339-.11742-.00198-.22408.00022-.34375 0z" stroke-width="3.6"/></g><path d="m757.14288 286.64789a50 42.857143 0 1 1 -100 0 50 42.857143 0 1 1 100 0z" fill="#fff" transform="matrix(-.05520814 0 0 .0691906 757.61149 357.8974)"/></g><g transform="matrix(.3217561 0 0 .3217561 188.70254 40.635903)"><g fill-rule="evenodd" stroke="#000"><path d="m748.39286 444.32647c1.47107 11.90476 17.46849 23.80952-2.32143 35.71428 1.00415 2.50466 2.35732 4.7999 5.71429 5.89286 3.11759-.11159 4.7394-.72178 5-1.78571 2.06883 1.21223 3.98336 2.65591 6.96428 2.5 1.31148 3.80241-1.16285 4.90068-3.03571 6.42857 2.32143-.41254 4.64285-2.66509 6.96428-.53572 2.32066.50061 3.97798 1.5319 3.92857 3.92857 1.22338-2.33548 2.58798-3.96487 4.28572-3.92857 1.50673-1.64803 6.0905-.21902 9.28571-.17857-4.33339-1.58183-6.07124-4.13698-6.60714-7.14286.51216-12.16095 3.42222-15.20983 6.25-18.57142l-30.71429-43.57143z"/><path d="m716.42858 371.6535c11.66666-1.90477 14.76191-.23809 22.14286 7.14285l5.71428 16.42857c2.61905 6.66667 2.38095 6.19048 7.85714 7.14286 19.04762 6.66667 27.38096 14.04762 37.85715 32.85714.71428 7.38095 4.28571 7.61905 2.14285 15.71429 5 .95238 8.57143 6.19048 8.57143 13.57143-7.61905 4.7619-9.52381 4.52381-18.57143 1.42857l-2.85714 3.57143c-6.52095-1.64714-12.92285-3.47286-15.71428-10.71429 3.47583-6.28562 4.82294-12.03907.71428-16.42857-5.82791-11.15795-6.3609-7.86782-10.35714-8.03572-4.20286 2.23553-5.18982 5.43599-7.14286 8.57144-12.92584-8.17196-11.78845-16.60992-13.57143-30.00001-2.57459-17.88223-8.29704-31.15896-29.64285-28.39285z" fill="#fff500" stroke-width="3.6"/><path d="m723.77232 370.22321c-2.04613-.00372-4.06995.95685-6.98661 1.43304l-12.30803 12.12946c10.0277-1.29945 17.07096 1.8119 21.24553 6.95089 3.32051-6.13202 1.99496-14.64707-1.60714-20.51339-.11742-.00198-.22408.00022-.34375 0z" stroke-width="3.6"/></g><path d="m757.14288 286.64789a50 42.857143 0 1 1 -100 0 50 42.857143 0 1 1 100 0z" fill="#fff" transform="matrix(-.05520814 0 0 .0691906 757.61149 357.8974)"/></g><g transform="matrix(.3217561 0 0 .3217561 68.993661 40.636193)"><g fill-rule="evenodd" stroke="#000"><path d="m748.39286 444.32647c1.47107 11.90476 17.46849 23.80952-2.32143 35.71428 1.00415 2.50466 2.35732 4.7999 5.71429 5.89286 3.11759-.11159 4.7394-.72178 5-1.78571 2.06883 1.21223 3.98336 2.65591 6.96428 2.5 1.31148 3.80241-1.16285 4.90068-3.03571 6.42857 2.32143-.41254 4.64285-2.66509 6.96428-.53572 2.32066.50061 3.97798 1.5319 3.92857 3.92857 1.22338-2.33548 2.58798-3.96487 4.28572-3.92857 1.50673-1.64803 6.0905-.21902 9.28571-.17857-4.33339-1.58183-6.07124-4.13698-6.60714-7.14286.51216-12.16095 3.42222-15.20983 6.25-18.57142l-30.71429-43.57143z"/><path d="m716.42858 371.6535c11.66666-1.90477 14.76191-.23809 22.14286 7.14285l5.71428 16.42857c2.61905 6.66667 2.38095 6.19048 7.85714 7.14286 19.04762 6.66667 27.38096 14.04762 37.85715 32.85714.71428 7.38095 4.28571 7.61905 2.14285 15.71429 5 .95238 8.57143 6.19048 8.57143 13.57143-7.61905 4.7619-9.52381 4.52381-18.57143 1.42857l-2.85714 3.57143c-6.52095-1.64714-12.92285-3.47286-15.71428-10.71429 3.47583-6.28562 4.82294-12.03907.71428-16.42857-5.82791-11.15795-6.3609-7.86782-10.35714-8.03572-4.20286 2.23553-5.18982 5.43599-7.14286 8.57144-12.92584-8.17196-11.78845-16.60992-13.57143-30.00001-2.57459-17.88223-8.29704-31.15896-29.64285-28.39285z" fill="#fff500" stroke-width="3.6"/><path d="m723.77232 370.22321c-2.04613-.00372-4.06995.95685-6.98661 1.43304l-12.30803 12.12946c10.0277-1.29945 17.07096 1.8119 21.24553 6.95089 3.32051-6.13202 1.99496-14.64707-1.60714-20.51339-.11742-.00198-.22408.00022-.34375 0z" stroke-width="3.6"/></g><path d="m757.14288 286.64789a50 42.857143 0 1 1 -100 0 50 42.857143 0 1 1 100 0z" fill="#fff" transform="matrix(-.05520814 0 0 .0691906 757.61149 357.8974)"/></g><g transform="matrix(.3217561 0 0 .3217561 -52.060259 40.636193)"><g fill-rule="evenodd" stroke="#000"><path d="m748.39286 444.32647c1.47107 11.90476 17.46849 23.80952-2.32143 35.71428 1.00415 2.50466 2.35732 4.7999 5.71429 5.89286 3.11759-.11159 4.7394-.72178 5-1.78571 2.06883 1.21223 3.98336 2.65591 6.96428 2.5 1.31148 3.80241-1.16285 4.90068-3.03571 6.42857 2.32143-.41254 4.64285-2.66509 6.96428-.53572 2.32066.50061 3.97798 1.5319 3.92857 3.92857 1.22338-2.33548 2.58798-3.96487 4.28572-3.92857 1.50673-1.64803 6.0905-.21902 9.28571-.17857-4.33339-1.58183-6.07124-4.13698-6.60714-7.14286.51216-12.16095 3.42222-15.20983 6.25-18.57142l-30.71429-43.57143z"/><path d="m716.42858 371.6535c11.66666-1.90477 14.76191-.23809 22.14286 7.14285l5.71428 16.42857c2.61905 6.66667 2.38095 6.19048 7.85714 7.14286 19.04762 6.66667 27.38096 14.04762 37.85715 32.85714.71428 7.38095 4.28571 7.61905 2.14285 15.71429 5 .95238 8.57143 6.19048 8.57143 13.57143-7.61905 4.7619-9.52381 4.52381-18.57143 1.42857l-2.85714 3.57143c-6.52095-1.64714-12.92285-3.47286-15.71428-10.71429 3.47583-6.28562 4.82294-12.03907.71428-16.42857-5.82791-11.15795-6.3609-7.86782-10.35714-8.03572-4.20286 2.23553-5.18982 5.43599-7.14286 8.57144-12.92584-8.17196-11.78845-16.60992-13.57143-30.00001-2.57459-17.88223-8.29704-31.15896-29.64285-28.39285z" fill="#fff500" stroke-width="3.6"/><path d="m723.77232 370.22321c-2.04613-.00372-4.06995.95685-6.98661 1.43304l-12.30803 12.12946c10.0277-1.29945 17.07096 1.8119 21.24553 6.95089 3.32051-6.13202 1.99496-14.64707-1.60714-20.51339-.11742-.00198-.22408.00022-.34375 0z" stroke-width="3.6"/></g><path d="m757.14288 286.64789a50 42.857143 0 1 1 -100 0 50 42.857143 0 1 1 100 0z" fill="#fff" transform="matrix(-.05520814 0 0 .0691906 757.61149 357.8974)"/></g><g transform="matrix(.3217598 0 0 .3217561 -52.063059 175.96419)"><g fill-rule="evenodd" stroke="#000"><path d="m748.39286 444.32647c1.47107 11.90476 17.46849 23.80952-2.32143 35.71428 1.00415 2.50466 2.35732 4.7999 5.71429 5.89286 3.11759-.11159 4.7394-.72178 5-1.78571 2.06883 1.21223 3.98336 2.65591 6.96428 2.5 1.31148 3.80241-1.16285 4.90068-3.03571 6.42857 2.32143-.41254 4.64285-2.66509 6.96428-.53572 2.32066.50061 3.97798 1.5319 3.92857 3.92857 1.22338-2.33548 2.58798-3.96487 4.28572-3.92857 1.50673-1.64803 6.0905-.21902 9.28571-.17857-4.33339-1.58183-6.07124-4.13698-6.60714-7.14286.51216-12.16095 3.42222-15.20983 6.25-18.57142l-30.71429-43.57143z"/><path d="m716.42858 371.6535c11.66666-1.90477 14.76191-.23809 22.14286 7.14285l5.71428 16.42857c2.61905 6.66667 2.38095 6.19048 7.85714 7.14286 19.04762 6.66667 27.38096 14.04762 37.85715 32.85714.71428 7.38095 4.28571 7.61905 2.14285 15.71429 5 .95238 8.57143 6.19048 8.57143 13.57143-7.61905 4.7619-9.52381 4.52381-18.57143 1.42857l-2.85714 3.57143c-6.52095-1.64714-12.92285-3.47286-15.71428-10.71429 3.47583-6.28562 4.82294-12.03907.71428-16.42857-5.82791-11.15795-6.3609-7.86782-10.35714-8.03572-4.20286 2.23553-5.18982 5.43599-7.14286 8.57144-12.92584-8.17196-11.78845-16.60992-13.57143-30.00001-2.57459-17.88223-8.29704-31.15896-29.64285-28.39285z" fill="#fff500" stroke-width="3.6"/><path d="m723.77232 370.22321c-2.04613-.00372-4.06995.95685-6.98661 1.43304l-12.30803 12.12946c10.0277-1.29945 17.07096 1.8119 21.24553 6.95089 3.32051-6.13202 1.99496-14.64707-1.60714-20.51339-.11742-.00198-.22408.00022-.34375 0z" stroke-width="3.6"/></g><path d="m757.14288 286.64789a50 42.857143 0 1 1 -100 0 50 42.857143 0 1 1 100 0z" fill="#fff" transform="matrix(-.05520814 0 0 .0691906 757.61149 357.8974)"/></g><g transform="matrix(.3217561 0 0 .3217561 178.48021 298.49619)"><g fill-rule="evenodd" stroke="#000"><path d="m748.39286 444.32647c1.47107 11.90476 17.46849 23.80952-2.32143 35.71428 1.00415 2.50466 2.35732 4.7999 5.71429 5.89286 3.11759-.11159 4.7394-.72178 5-1.78571 2.06883 1.21223 3.98336 2.65591 6.96428 2.5 1.31148 3.80241-1.16285 4.90068-3.03571 6.42857 2.32143-.41254 4.64285-2.66509 6.96428-.53572 2.32066.50061 3.97798 1.5319 3.92857 3.92857 1.22338-2.33548 2.58798-3.96487 4.28572-3.92857 1.50673-1.64803 6.0905-.21902 9.28571-.17857-4.33339-1.58183-6.07124-4.13698-6.60714-7.14286.51216-12.16095 3.42222-15.20983 6.25-18.57142l-30.71429-43.57143z"/><path d="m716.42858 371.6535c11.66666-1.90477 14.76191-.23809 22.14286 7.14285l5.71428 16.42857c2.61905 6.66667 2.38095 6.19048 7.85714 7.14286 19.04762 6.66667 27.38096 14.04762 37.85715 32.85714.71428 7.38095 4.28571 7.61905 2.14285 15.71429 5 .95238 8.57143 6.19048 8.57143 13.57143-7.61905 4.7619-9.52381 4.52381-18.57143 1.42857l-2.85714 3.57143c-6.52095-1.64714-12.92285-3.47286-15.71428-10.71429 3.47583-6.28562 4.82294-12.03907.71428-16.42857-5.82791-11.15795-6.3609-7.86782-10.35714-8.03572-4.20286 2.23553-5.18982 5.43599-7.14286 8.57144-12.92584-8.17196-11.78845-16.60992-13.57143-30.00001-2.57459-17.88223-8.29704-31.15896-29.64285-28.39285z" fill="#fff500" stroke-width="3.6"/><path d="m723.77232 370.22321c-2.04613-.00372-4.06995.95685-6.98661 1.43304l-12.30803 12.12946c10.0277-1.29945 17.07096 1.8119 21.24553 6.95089 3.32051-6.13202 1.99496-14.64707-1.60714-20.51339-.11742-.00198-.22408.00022-.34375 0z" stroke-width="3.6"/></g><path d="m757.14288 286.64789a50 42.857143 0 1 1 -100 0 50 42.857143 0 1 1 100 0z" fill="#fff" transform="matrix(-.05520814 0 0 .0691906 757.61149 357.8974)"/></g><g transform="matrix(.3217598 0 0 .3217561 -43.454779 298.49606)"><g fill-rule="evenodd" stroke="#000"><path d="m748.39286 444.32647c1.47107 11.90476 17.46849 23.80952-2.32143 35.71428 1.00415 2.50466 2.35732 4.7999 5.71429 5.89286 3.11759-.11159 4.7394-.72178 5-1.78571 2.06883 1.21223 3.98336 2.65591 6.96428 2.5 1.31148 3.80241-1.16285 4.90068-3.03571 6.42857 2.32143-.41254 4.64285-2.66509 6.96428-.53572 2.32066.50061 3.97798 1.5319 3.92857 3.92857 1.22338-2.33548 2.58798-3.96487 4.28572-3.92857 1.50673-1.64803 6.0905-.21902 9.28571-.17857-4.33339-1.58183-6.07124-4.13698-6.60714-7.14286.51216-12.16095 3.42222-15.20983 6.25-18.57142l-30.71429-43.57143z"/><path d="m716.42858 371.6535c11.66666-1.90477 14.76191-.23809 22.14286 7.14285l5.71428 16.42857c2.61905 6.66667 2.38095 6.19048 7.85714 7.14286 19.04762 6.66667 27.38096 14.04762 37.85715 32.85714.71428 7.38095 4.28571 7.61905 2.14285 15.71429 5 .95238 8.57143 6.19048 8.57143 13.57143-7.61905 4.7619-9.52381 4.52381-18.57143 1.42857l-2.85714 3.57143c-6.52095-1.64714-12.92285-3.47286-15.71428-10.71429 3.47583-6.28562 4.82294-12.03907.71428-16.42857-5.82791-11.15795-6.3609-7.86782-10.35714-8.03572-4.20286 2.23553-5.18982 5.43599-7.14286 8.57144-12.92584-8.17196-11.78845-16.60992-13.57143-30.00001-2.57459-17.88223-8.29704-31.15896-29.64285-28.39285z" fill="#fff500" stroke-width="3.6"/><path d="m723.77232 370.22321c-2.04613-.00372-4.06995.95685-6.98661 1.43304l-12.30803 12.12946c10.0277-1.29945 17.07096 1.8119 21.24553 6.95089 3.32051-6.13202 1.99496-14.64707-1.60714-20.51339-.11742-.00198-.22408.00022-.34375 0z" stroke-width="3.6"/></g><path d="m757.14288 286.64789a50 42.857143 0 1 1 -100 0 50 42.857143 0 1 1 100 0z" fill="#fff" transform="matrix(-.05520814 0 0 .0691906 757.61149 357.8974)"/></g><g transform="matrix(.3217561 0 0 .3217561 65.765571 323.09508)"><g fill-rule="evenodd" stroke="#000"><path d="m748.39286 444.32647c1.47107 11.90476 17.46849 23.80952-2.32143 35.71428 1.00415 2.50466 2.35732 4.7999 5.71429 5.89286 3.11759-.11159 4.7394-.72178 5-1.78571 2.06883 1.21223 3.98336 2.65591 6.96428 2.5 1.31148 3.80241-1.16285 4.90068-3.03571 6.42857 2.32143-.41254 4.64285-2.66509 6.96428-.53572 2.32066.50061 3.97798 1.5319 3.92857 3.92857 1.22338-2.33548 2.58798-3.96487 4.28572-3.92857 1.50673-1.64803 6.0905-.21902 9.28571-.17857-4.33339-1.58183-6.07124-4.13698-6.60714-7.14286.51216-12.16095 3.42222-15.20983 6.25-18.57142l-30.71429-43.57143z"/><path d="m716.42858 371.6535c11.66666-1.90477 14.76191-.23809 22.14286 7.14285l5.71428 16.42857c2.61905 6.66667 2.38095 6.19048 7.85714 7.14286 19.04762 6.66667 27.38096 14.04762 37.85715 32.85714.71428 7.38095 4.28571 7.61905 2.14285 15.71429 5 .95238 8.57143 6.19048 8.57143 13.57143-7.61905 4.7619-9.52381 4.52381-18.57143 1.42857l-2.85714 3.57143c-6.52095-1.64714-12.92285-3.47286-15.71428-10.71429 3.47583-6.28562 4.82294-12.03907.71428-16.42857-5.82791-11.15795-6.3609-7.86782-10.35714-8.03572-4.20286 2.23553-5.18982 5.43599-7.14286 8.57144-12.92584-8.17196-11.78845-16.60992-13.57143-30.00001-2.57459-17.88223-8.29704-31.15896-29.64285-28.39285z" fill="#fff500" stroke-width="3.6"/><path d="m723.77232 370.22321c-2.04613-.00372-4.06995.95685-6.98661 1.43304l-12.30803 12.12946c10.0277-1.29945 17.07096 1.8119 21.24553 6.95089 3.32051-6.13202 1.99496-14.64707-1.60714-20.51339-.11742-.00198-.22408.00022-.34375 0z" stroke-width="3.6"/></g><path d="m757.14288 286.64789a50 42.857143 0 1 1 -100 0 50 42.857143 0 1 1 100 0z" fill="#fff" transform="matrix(-.05520814 0 0 .0691906 757.61149 357.8974)"/></g><path d="m262.63481 240.96444c-3.64551-4.60941-2.46-8.45603 5.50173-11.23271-3.83544-2.34926-5.49095-14.10156 7.56489-11.92043 2.25044.6263 4.28694 2.10833 7.10641.45848-.61019-4.87012 4.56827-3.46921 11.23271-.45848 4.48496 1.99291 7.70332.18608 11.00348-1.37543 6.87277-6.26534 11.76565-5.40302 15.58825-.68772 4.0643.4729 5.62702-1.5558 13.5251 2.75086 2.58492 1.57562 5.8987 1.93644 10.31575.45849 2.68748-4.88704 6.13887-.60715 9.39881 1.37543 2.62025-1.80845 14.24097-6.90403 12.14967 3.20934.17511 3.13103.29212 6.22718-2.52163 7.56489 3.77206 4.1687 5.92213 9.10177 1.37543 14.44206-.88148 2.61381-.74342 5.68075-6.87717 5.96022-1.78872 3.26931-10.20188 3.6595-14.6713-6.4187l-.45848-2.98011c-7.37436 2.66392-12.45204-4.62446-18.10988-9.39879-7.21709 1.70678-10.94769.7987-13.29586-1.1462-4.54948 2.82103-8.89756 3.4267-12.83738-.45848-5.05999-1.87889-6.28403.71748-7.79414 2.98011-1.37883 5.5668-4.15074 7.10134-7.33564 6.64793-1.00118 2.83314 1.061 3.71262-4.35554 9.85728-3.39224.73782-6.2354-.20362-7.79413-2.52163-6.11653 4.34894-9.3162 2.599-8.71108-7.10641z" fill="#00923f" fill-rule="evenodd" stroke="#000" stroke-width="2.631664"/><path d="m125 88.798714c112.74723-51.458892 246.57702-61.803589 367.85714-.331762l-28.57143 46.046048c-111.46628-47.030867-214.11456-36.744659-312.14285 3.57143z" fill="#fff" fill-rule="evenodd" transform="translate(-.785409 6.891393)"/><g stroke="#000" transform="matrix(.8838592 0 0 .8838592 -24.952859 -1.142037)"><path d="m129.96235 193.60845c15.53902-8.15245 26.79158-5.22105 30.56742 6.46855 24.21356 9.77082-6.41569 19.42292 4.20893 37.41221-9.73015 16.26377-32.55921-24.99091-31.71908 1.98778-19.22009 4.1778-9.92768-27.99613-4.65966-40.65673.53412-1.73726 1.06826-3.47454 1.60239-5.21181z" fill="#009240" stroke-width="1.875"/><g fill="#009240" stroke-width=".168895" transform="matrix(11.101593 0 0 11.101593 -615.95482 -245.73045)"><path d="m66.9184 39.2602-.7418.7505c.2374-1.0508 0-1.7863-.7121-2.2216-1.0236.1952-1.3203.8106-1.3055 1.6212-1.2462-.9007-1.6764-1.1258-3.0709-.0751.089 1.336.4005 1.9964 2.3736 1.9514-.445.6004-.4005 1.2008.1187 1.8013.8457.3002 1.7061-.0451 2.5517-.6905z"/><path d="m66.9184 39.2602-.7418.7505c.2374-1.0508 0-1.7863-.7121-2.2216-1.0236.1952-1.3203.8106-1.3055 1.6212-1.2462-.9007-1.6764-1.1258-3.0709-.0751.089 1.336.4005 1.9964 2.3736 1.9514-.445.6004-.4005 1.2008.1187 1.8013.8457.3002 1.7061-.0451 2.5517-.6905z"/></g><path d="m177.28734 501.13923c17.00172 22.74838-12.30069 34.06772-20.64873 9.51974 2.15438-15.74058-5.41417 25.23697-13.77288 3.64562-7.25425-16.70222 3.58515-31.77595-15.15259-28.49557 2.94921-12.07791 22.78709-10.67376 28.80211-18.55979 23.41121-1.75405 20.33788 17.47369 28.84291 19.39241 13.06219 12.53883 4.86432 18.78981-8.07082 14.49759z" fill="#009240" stroke-width="1.875"/><g fill="#009240" stroke-width=".168895" transform="matrix(11.101593 0 0 11.101593 -615.95482 -245.73045)"><path d="m72.3959 69.8351s.2373-.1801.2373-.2102h.0594v-.03c.1335-.075.4302.0901.534.1051.2968.1351.6825.1501.9792.2702.089.015.2522.045.356.045.0297.03.1039.0901.1632.0901l.0297.03c0 .015.1335.2402.1632.2402 0 .06.2967.4353.2967.4353l.0297.4503c-.0297 0-.0594.03-.089.03 0 .045-.1336.1051-.1336.1651h-.7269l-.0297-.03v.0751c.0445 0 .0445.06.0445.06h.0297s.089.075.089.1051c.0445 0 .2671.5854.2077.6604h-.0148c-.0297.0601 0 .3303.0445.3303 0 .3902.2225 1.1558-.0742 1.456-.4154 0-1.4687-.1651-1.6616-.5704-.1632 0-.356-.2552-.4895-.2552 0-.03-.0297-.075-.0445-.075 0-.0601-.0149-.3003.0445-.3003 0-.09.1335-.3302.1632-.4203.2522-.6604-.2077-1.2608-.2077-1.8613z"/><path d="m72.3959 69.8351s.2373-.1801.2373-.2102h.0594v-.03c.1335-.075.4302.0901.534.1051.2968.1351.6825.1501.9792.2702.089.015.2522.045.356.045.0297.03.1039.0901.1632.0901l.0297.03c0 .015.1335.2402.1632.2402 0 .06.2967.4353.2967.4353l.0297.4503c-.0297 0-.0594.03-.089.03 0 .045-.1336.1051-.1336.1651h-.7269l-.0297-.03v.0751c.0445 0 .0445.06.0445.06h.0297s.089.075.089.1051c.0445 0 .2671.5854.2077.6604h-.0148c-.0297.0601 0 .3303.0445.3303 0 .3902.2225 1.1558-.0742 1.456-.4154 0-1.4687-.1651-1.6616-.5704-.1632 0-.356-.2552-.4895-.2552 0-.03-.0297-.075-.0445-.075 0-.0601-.0149-.3003.0445-.3003 0-.09.1335-.3302.1632-.4203.2522-.6604-.2077-1.2608-.2077-1.8613z"/></g><path d="m208.18973220858 539.51854987219-16.46926872347.83368522793" fill="none" stroke-width="1.87500354973"/><g stroke-width="1.875"><path d="m162.34789 526.55853c3.03629 0 5.49751 2.49231 5.49751 5.5619 0 3.07181-2.46122 5.56078-5.49751 5.56078-3.03406 0-5.49529-2.48897-5.49529-5.56078 0-3.06959 2.46123-5.5619 5.49529-5.5619z" fill="#fff"/><path d="m173.81251 525.56383c3.03628 0 5.4975 2.48897 5.4975 5.56189 0 3.06959-2.46122 5.5619-5.4975 5.5619-3.03629 0-5.49751-2.49231-5.49751-5.5619 0-3.07292 2.46122-5.56189 5.49751-5.56189z" fill="#fff"/><path d="m160.85362 425.3775c3.03628 0 5.49751 2.4912 5.49751 5.56079 0 3.07292-2.46123 5.5619-5.49751 5.5619-3.03407 0-5.49862-2.48898-5.49862-5.5619 0-3.06959 2.46455-5.56079 5.49862-5.56079z" fill="none"/><path d="m167.33473 415.91006c3.03295 0 5.49417 2.48898 5.49417 5.56079 0 3.0707-2.46122 5.5619-5.49417 5.5619-3.0374 0-5.49862-2.4912-5.49862-5.5619 0-3.07181 2.46122-5.56079 5.49862-5.56079z" fill="#fff"/><path d="m104.03122 373.04459c3.03629 0 5.49751 2.48898 5.49751 5.5619 0 3.06959-2.46122 5.5619-5.49751 5.5619-3.03295 0-5.49529-2.49231-5.49529-5.5619 0-3.07292 2.46234-5.5619 5.49529-5.5619z" fill="#fff"/><path d="m97.55344 363.57493c3.03296 0 5.49751 2.48898 5.49751 5.56079 0 3.06959-2.46455 5.5619-5.49751 5.5619-3.03739 0-5.49862-2.49231-5.49862-5.5619 0-3.07181 2.46123-5.56079 5.49862-5.56079z" fill="#fff"/><path d="m107.52045 362.07733c3.03629 0 5.49751 2.49119 5.49751 5.56078 0 3.07292-2.46122 5.5619-5.49751 5.5619-3.03406 0-5.49528-2.48898-5.49528-5.5619 0-3.06959 2.46122-5.56078 5.49528-5.56078z" fill="#fff"/><path d="m100.04464 352.60656c3.03629 0 5.49751 2.4923 5.49751 5.5619 0 3.07292-2.46122 5.56189-5.49751 5.56189-3.03296 0-5.49751-2.48897-5.49751-5.56189 0-3.0696 2.46455-5.5619 5.49751-5.5619z" fill="#fff"/><path d="m112.00661 352.60656c3.03628 0 5.49862 2.4923 5.49862 5.5619 0 3.07292-2.46234 5.56189-5.49862 5.56189-3.03296 0-5.49751-2.48897-5.49751-5.56189 0-3.0696 2.46455-5.5619 5.49751-5.5619z" fill="none"/><path d="m180.2914 414.91203c3.03628 0 5.4975 2.48897 5.4975 5.5619 0 3.06959-2.46122 5.56189-5.4975 5.56189-3.03407 0-5.49529-2.4923-5.49529-5.56189 0-3.07293 2.46122-5.5619 5.49529-5.5619z" fill="#fff"/><path d="m173.31515 424.88015c3.03407 0 5.49529 2.4912 5.49529 5.5619 0 3.06959-2.46122 5.56078-5.49529 5.56078-3.03628 0-5.4975-2.49119-5.4975-5.56078 0-3.0707 2.46122-5.5619 5.4975-5.5619z" fill="#fff"/><path d="m178.79601 432.85553c3.03629 0 5.49862 2.48898 5.49862 5.5619 0 3.06959-2.46233 5.5619-5.49862 5.5619-3.03295 0-5.49418-2.49231-5.49418-5.5619 0-3.07292 2.46123-5.5619 5.49418-5.5619z" fill="#fff"/><path d="m183.28328 441.32827c3.03295 0 5.4975 2.48898 5.4975 5.5619 0 3.06959-2.46455 5.56189-5.4975 5.56189-3.03629 0-5.49862-2.4923-5.49862-5.56189 0-3.07292 2.46233-5.5619 5.49862-5.5619z" fill="#fff"/><path d="m190.26174 452.29331c3.03295 0 5.49417 2.49231 5.49417 5.5619s-2.46122 5.5619-5.49417 5.5619c-3.03629 0-5.49862-2.49231-5.49862-5.5619s2.46233-5.5619 5.49862-5.5619z" fill="#fff"/><path d="m185.27712 462.26143c3.03407 0 5.49529 2.4912 5.49529 5.56079 0 3.07292-2.46122 5.5619-5.49529 5.5619-3.03628 0-5.49751-2.48898-5.49751-5.5619 0-3.06959 2.46123-5.56079 5.49751-5.56079z" fill="#fff"/><path d="m174.30986 461.26673c3.03628 0 5.49751 2.48898 5.49751 5.5619 0 3.06959-2.46123 5.56079-5.49751 5.56079-3.03407 0-5.49529-2.4912-5.49529-5.56079 0-3.07292 2.46122-5.5619 5.49529-5.5619z" fill="#fff"/><path d="m180.79097 451.29639c3.03406 0 5.49529 2.4912 5.49529 5.5619 0 3.07181-2.46123 5.56078-5.49529 5.56078-3.03629 0-5.49751-2.48897-5.49751-5.56078 0-3.0707 2.46122-5.5619 5.49751-5.5619z" fill="#fff"/><path d="m173.81251 442.82365c3.03628 0 5.4975 2.4912 5.4975 5.56079 0 3.07292-2.46122 5.5619-5.4975 5.5619-3.03629 0-5.49751-2.48898-5.49751-5.5619 0-3.06959 2.46122-5.56079 5.49751-5.56079z" fill="#fff"/><path d="m166.33669 433.35288c3.03407 0 5.49529 2.49231 5.49529 5.5619 0 3.07181-2.46122 5.56079-5.49529 5.56079-3.03628 0-5.49751-2.48898-5.49751-5.56079 0-3.06959 2.46123-5.5619 5.49751-5.5619z" fill="#fff"/><path d="m159.85558 435.34784c3.03629 0 5.49751 2.48898 5.49751 5.56079 0 3.0707-2.46122 5.5619-5.49751 5.5619-3.03295 0-5.49529-2.4912-5.49529-5.5619 0-3.07181 2.46234-5.56079 5.49529-5.56079z" fill="#fff"/><path d="m161.35319 444.8175c3.03406 0 5.49529 2.48898 5.49529 5.5619 0 3.06959-2.46123 5.56189-5.49529 5.56189-3.03629 0-5.49751-2.4923-5.49751-5.56189 0-3.07292 2.46122-5.5619 5.49751-5.5619z" fill="#fff"/><path d="m161.35319 455.28519c3.03406 0 5.49529 2.48898 5.49529 5.5619 0 3.06959-2.46123 5.5619-5.49529 5.5619-3.03629 0-5.49751-2.49231-5.49751-5.5619 0-3.07292 2.46122-5.5619 5.49751-5.5619z" fill="none"/><path d="m170.32328 453.78759c3.03628 0 5.4975 2.4923 5.4975 5.56189 0 3.07292-2.46122 5.5619-5.4975 5.5619-3.03296 0-5.49751-2.48898-5.49751-5.5619 0-3.06959 2.46455-5.56189 5.49751-5.56189z" fill="#fff"/><path d="m184.77755 528.05613c3.03629 0 5.49751 2.48898 5.49751 5.56079 0 3.0707-2.46122 5.5619-5.49751 5.5619-3.03407 0-5.49529-2.4912-5.49529-5.5619 0-3.07181 2.46122-5.56079 5.49529-5.56079z" fill="#fff"/><path d="m188.76635 539.51853c3.03407 0 5.49529 2.4912 5.49529 5.56079 0 3.07292-2.46122 5.56189-5.49529 5.56189-3.03628 0-5.49751-2.48897-5.49751-5.56189 0-3.06959 2.46123-5.56079 5.49751-5.56079z" fill="#fff"/><path d="m197.73644 547.49391c3.03739 0 5.49862 2.4912 5.49862 5.5619 0 3.06959-2.46123 5.56079-5.49862 5.56079-3.03296 0-5.49751-2.4912-5.49751-5.56079 0-3.0707 2.46455-5.5619 5.49751-5.5619z" fill="#fff"/><path d="m188.26678 551.98007c3.03629 0 5.49751 2.48897 5.49751 5.56189 0 3.06959-2.46122 5.5619-5.49751 5.5619-3.03407 0-5.49751-2.49231-5.49751-5.5619 0-3.07292 2.46344-5.56189 5.49751-5.56189z" fill="#fff"/><path d="m171.3202 544.50203c3.03406 0 5.49862 2.4912 5.49862 5.5619 0 3.07181-2.46456 5.56079-5.49862 5.56079-3.03629 0-5.49751-2.48898-5.49751-5.56079 0-3.0707 2.46122-5.5619 5.49751-5.5619z" fill="#fff"/><path d="m180.79097 545.99964c3.03406 0 5.49529 2.48897 5.49529 5.56079 0 3.06959-2.46123 5.56189-5.49529 5.56189-3.03629 0-5.49751-2.4923-5.49751-5.56189 0-3.07182 2.46122-5.56079 5.49751-5.56079z" fill="#fff"/><path d="m177.79909 536.0293c3.03628 0 5.49751 2.49119 5.49751 5.56078 0 3.07293-2.46123 5.5619-5.49751 5.5619-3.03407 0-5.49529-2.48897-5.49529-5.5619 0-3.06959 2.46122-5.56078 5.49529-5.56078z" fill="none"/><path d="m167.33473 535.03459c3.03295 0 5.49417 2.48898 5.49417 5.56079 0 3.0707-2.46122 5.5619-5.49417 5.5619-3.0374 0-5.49862-2.4912-5.49862-5.5619 0-3.07181 2.46122-5.56079 5.49862-5.56079z" fill="#fff"/><path d="m160.35627 539.02118c3.03295 0 5.49417 2.48897 5.49417 5.56078 0 3.06959-2.46122 5.5619-5.49417 5.5619-3.03629 0-5.49862-2.49231-5.49862-5.5619 0-3.07181 2.46233-5.56078 5.49862-5.56078z" fill="#fff"/></g><g fill="#009240" stroke-width=".168895" transform="matrix(11.101593 0 0 11.101593 -615.95482 -245.73045)"><path d="m96.2362 84.5613c3.6644-2.897 6.7353-5.734 9.2128-8.496l1.2462.1051c-3.0413 3.0171-6.2012 5.9592-9.6579 8.6911z"/><path d="m96.2362 84.5613c3.6644-2.897 6.7353-5.734 9.2128-8.496l1.2462.1051c-3.0413 3.0171-6.2012 5.9592-9.6579 8.6911z"/></g><g fill="#009240" stroke-width=".168895" transform="matrix(11.101593 0 0 11.101593 -615.95482 -245.73045)"><path d="m95.0689 85.145c4.7325-1.8913 6.9875-9.5467 1.6467-10.1772 2.7891-1.2759 6.2458 2.0415 1.4687 9.2165z"/><path d="m95.0689 85.145c4.7325-1.8913 6.9875-9.5467 1.6467-10.1772 2.7891-1.2759 6.2458 2.0415 1.4687 9.2165z"/></g><path d="m95.2036 91.9244-1.1275.1351-5.3705-3.1222-.2225-.9606z" fill="#009240" stroke-width=".168895" transform="matrix(11.101593 0 0 11.101593 -615.95482 -245.73045)"/><path d="m391.12285 731.41733c54.47303-11.04405 49.70383-103.7529 50.34644-114.85832 25.17801 44.74031 2.8144 106.91227-50.34644 114.85832z" fill="#009240" stroke-width="1.875"/><path d="m321.33379 702.50543c21.39349-27.51523 40.93163-6.55139 49.34615 11.82651-22.91129 5.20412 24.12901 33.00526-13.85378 31.22897-15.86415 8.84103-26.97001-26.96019-20.44372 3.08291-13.57553 28.94992-17.40523-18.51027-28.08169-12.55659-5.3788-13.01964 2.99297-25.91389 13.03304-33.5818z" fill="#009240" stroke-width="1.875"/><path d="m86.1076 87.0807-.1638.0941-1.5429-1.7862.1446-.128 1.5429 1.7862zm-.0192-.0339.0131.0152.0061.0187zm.1477 1.0548-.3115-.9607.183-.0602.3115.9607z" fill="none" stroke-width=".168895" transform="matrix(11.101593 0 0 11.101593 -615.95482 -245.73045)"/><path d="m326.31727607482 707.98745506738 3.62357105679 34.99552941071" fill="none" stroke-width="1.87500354973"/><path d="m327.31426573578 720.44897100669-6.58776299735 6.33230424083" fill="none" stroke-width="1.87500354973"/><path d="m85.0119 85.9082 1.172-.2101 1.4984.6454" fill="none" stroke-width=".168895" transform="matrix(11.101593 0 0 11.101593 -615.95482 -245.73045)"/><path d="m86.7629 85.2797-.5341.4353.8308 1.3509" fill="none" stroke-width=".168895" transform="matrix(11.101593 0 0 11.101593 -615.95482 -245.73045)"/><path d="m87.5711 87.9286-.6528-.6004-1.083-.4203" fill="none" stroke-width=".168895" transform="matrix(11.101593 0 0 11.101593 -615.95482 -245.73045)"/><g fill="#009240" stroke-width=".168895" transform="matrix(11.101593 0 0 11.101593 -615.95482 -245.73045)"><path d="m80.8365 82.6307-3.3973-3.2723-1.2462-.3752 3.694 3.5725z"/><path d="m80.8365 82.6307-3.3973-3.2723-1.2462-.3752 3.694 3.5725z"/></g><g fill="#009240" stroke-width=".168895" transform="matrix(11.101593 0 0 11.101593 -615.95482 -245.73045)"><path d="m80.8365 82.541c-.6082-.8707-1.5132-1.5311-2.6852-1.9664-.4896.4803-.6379 1.0057-.4599 1.5911-.5341-.2252-1.083-.2252-1.6171 0-.6676.3302-1.0533.6304-1.1571.9607.3857.4503 1.0533.6905 1.9879.7055-.6676.5253-1.1572 1.1558-1.4984 1.8913-.0296.4953.1187.9457.4154 1.3359.6083.2702 1.172.1501 1.6616-.3752.5192-.4654.9198-1.0358 1.2017-1.7112l-.0742 1.1708c.0742.5554.4302.9457 1.0681 1.1708.5786-.6604.994-1.3659 1.2314-2.1315l-.5193-1.6812z"/><path d="m80.8365 82.541c-.6082-.8707-1.5132-1.5311-2.6852-1.9664-.4896.4803-.6379 1.0057-.4599 1.5911-.5341-.2252-1.083-.2252-1.6171 0-.6676.3302-1.0533.6304-1.1571.9607.3857.4503 1.0533.6905 1.9879.7055-.6676.5253-1.1572 1.1558-1.4984 1.8913-.0296.4953.1187.9457.4154 1.3359.6083.2702 1.172.1501 1.6616-.3752.5192-.4654.9198-1.0358 1.2017-1.7112l-.0742 1.1708c.0742.5554.4302.9457 1.0681 1.1708.5786-.6604.994-1.3659 1.2314-2.1315l-.5193-1.6812z"/></g><path d="m79.9835 83.1695-1.0682.0751-2.2401-.1501" fill="none" stroke-width=".168895" transform="matrix(11.101593 0 0 11.101593 -615.95482 -245.73045)"/><path d="m243.57825801149 671.60193960351 13.6705016202 6.83305269469" fill="none" stroke-width="1.87500354973"/><path d="m78.7712 82.3165.9495.9156-1.2313.7205-1.5281 1.9664 1.4094-1.8463-1.8693 1.5161 1.6171-1.396-1.4539.3753" fill="none" stroke-width=".168895" transform="matrix(11.101593 0 0 11.101593 -615.95482 -245.73045)"/><path d="m79.5794 83.8879-.2374.6154.2374 1.351" fill="none" stroke-width=".168895" transform="matrix(11.101593 0 0 11.101593 -615.95482 -245.73045)"/><path d="m264.01404820271 691.53927937061 8.7291825759 7.33259107491" fill="none" stroke-width="1.87500354973"/><path d="m284.80068 731.91357c4.04764 0 7.32816 3.31938 7.32816 7.41365 0 4.09538-3.28052 7.41475-7.32816 7.41475s-7.32927-3.31937-7.32927-7.41475c0-4.09427 3.28163-7.41365 7.32927-7.41365z" fill="#fff" stroke-width="1.875"/><path d="m277.67457 723.43973c3.41485 0 6.18359 2.80093 6.18359 6.25686 0 3.45592-2.76874 6.25574-6.18359 6.25574-3.41374 0-6.18359-2.79982-6.18359-6.25574 0-3.45593 2.76985-6.25686 6.18359-6.25686z" fill="#fff" stroke-width="1.875"/><path d="m275.67961 713.97007c3.41485 0 6.1847 2.79982 6.1847 6.25575 0 3.45592-2.76985 6.25575-6.1847 6.25575-3.41374 0-6.18358-2.79983-6.18358-6.25575 0-3.45593 2.76984-6.25575 6.18358-6.25575z" fill="#fff" stroke-width="1.875"/><path d="m290.94208 722.44281c3.0374 0 5.49862 2.48897 5.49862 5.56189 0 3.06959-2.46122 5.56079-5.49862 5.56079-3.03295 0-5.49418-2.4912-5.49418-5.56079 0-3.07292 2.46123-5.56189 5.49418-5.56189z" fill="#fff" stroke-width="1.875"/><path d="m284.96166 713.46939c3.03628 0 5.4975 2.49231 5.4975 5.5619 0 3.07292-2.46122 5.56189-5.4975 5.56189-3.03407 0-5.49529-2.48897-5.49529-5.56189 0-3.06959 2.46122-5.5619 5.49529-5.5619z" fill="#fff" stroke-width="1.875"/><path d="m295.42935 712.47247c3.03628 0 5.49751 2.4923 5.49751 5.56189 0 3.07181-2.46123 5.56079-5.49751 5.56079-3.03407 0-5.49751-2.48898-5.49751-5.56079 0-3.06959 2.46344-5.56189 5.49751-5.56189z" fill="#fff" stroke-width="1.875"/><path d="m280.47772 703.99973c3.03407 0 5.49529 2.4912 5.49529 5.56079 0 3.07292-2.46122 5.5619-5.49529 5.5619-3.03628 0-5.49751-2.48898-5.49751-5.5619 0-3.06959 2.46123-5.56079 5.49751-5.56079z" fill="#fff" stroke-width="1.875"/><path d="m290.94208 705.49733c3.0374 0 5.49862 2.48898 5.49862 5.56079 0 3.06959-2.46122 5.5619-5.49862 5.5619-3.03295 0-5.49418-2.49231-5.49418-5.5619 0-3.07181 2.46123-5.56079 5.49418-5.56079z" fill="#fff" stroke-width="1.875"/><path d="m302.90516 706.49093c3.03629 0 5.49751 2.4923 5.49751 5.5619 0 3.07292-2.46122 5.56189-5.49751 5.56189-3.03407 0-5.49529-2.48897-5.49529-5.56189 0-3.0696 2.46122-5.5619 5.49529-5.5619z" fill="#fff" stroke-width="1.875"/><path d="m310.38319 700.5105c3.03407 0 5.49529 2.4912 5.49529 5.5619 0 3.07181-2.46122 5.56078-5.49529 5.56078-3.03628 0-5.49751-2.48897-5.49751-5.56078 0-3.0707 2.46123-5.5619 5.49751-5.5619z" fill="#fff" stroke-width="1.875"/><path d="m316.86208 693.53426c3.03629 0 5.49751 2.48897 5.49751 5.5619 0 3.06959-2.46122 5.56189-5.49751 5.56189-3.03406 0-5.49862-2.4923-5.49862-5.56189 0-3.07293 2.46456-5.5619 5.49862-5.5619z" fill="#fff" stroke-width="1.875"/><path d="m309.88362 685.0593c3.03629 0 5.49751 2.4912 5.49751 5.56079 0 3.07292-2.46122 5.5619-5.49751 5.5619-3.03406 0-5.49529-2.48898-5.49529-5.5619 0-3.06959 2.46123-5.56079 5.49529-5.56079z" fill="#fff" stroke-width="1.875"/><path d="m304.40165 676.0881c3.03407 0 5.49529 2.49231 5.49529 5.5619s-2.46122 5.5619-5.49529 5.5619c-3.03628 0-5.4975-2.49231-5.4975-5.5619s2.46122-5.5619 5.4975-5.5619z" fill="#fff" stroke-width="1.875"/><path d="m293.93396 672.59887c3.03407 0 5.49529 2.49231 5.49529 5.5619s-2.46122 5.5619-5.49529 5.5619c-3.03628 0-5.49751-2.49231-5.49751-5.5619s2.46123-5.5619 5.49751-5.5619z" fill="#fff" stroke-width="1.875"/><path d="m282.97003 670.60503c3.03295 0 5.49418 2.4912 5.49418 5.5619 0 3.07181-2.46123 5.56078-5.49418 5.56078-3.03629 0-5.49862-2.48897-5.49862-5.56078 0-3.0707 2.46233-5.5619 5.49862-5.5619z" fill="#fff" stroke-width="1.875"/><path d="m279.97815 679.07776c3.03629 0 5.49751 2.49231 5.49751 5.5619 0 3.07181-2.46122 5.56079-5.49751 5.56079-3.03407 0-5.49862-2.48898-5.49862-5.56079 0-3.06959 2.46455-5.5619 5.49862-5.5619z" fill="#fff" stroke-width="1.875"/><path d="m282.97003 690.54238c3.03295 0 5.49418 2.49231 5.49418 5.5619s-2.46123 5.56189-5.49418 5.56189c-3.03629 0-5.49862-2.4923-5.49862-5.56189s2.46233-5.5619 5.49862-5.5619z" fill="#fff" stroke-width="1.875"/><path d="m288.45089 696.52392c3.03628 0 5.4975 2.49119 5.4975 5.56189 0 3.07182-2.46122 5.56079-5.4975 5.56079-3.03407 0-5.49529-2.48897-5.49529-5.56079 0-3.0707 2.46122-5.56189 5.49529-5.56189z" fill="#fff" stroke-width="1.875"/><path d="m297.92054 698.01819c3.03629 0 5.49862 2.49231 5.49862 5.5619 0 3.07181-2.46233 5.5619-5.49862 5.5619-3.03295 0-5.49417-2.49009-5.49417-5.5619 0-3.06959 2.46122-5.5619 5.49417-5.5619z" fill="#fff" stroke-width="1.875"/><path d="m305.39636 691.54041c3.03628 0 5.49751 2.48898 5.49751 5.56079 0 3.06959-2.46123 5.5619-5.49751 5.5619-3.03296 0-5.49418-2.49231-5.49418-5.5619 0-3.07181 2.46122-5.56079 5.49418-5.56079z" fill="#fff" stroke-width="1.875"/><path d="m298.91858 684.0646c3.03628 0 5.49751 2.48898 5.49751 5.56079 0 3.0707-2.46123 5.5619-5.49751 5.5619-3.03629 0-5.49751-2.4912-5.49751-5.5619 0-3.07181 2.46122-5.56079 5.49751-5.56079z" fill="#fff" stroke-width="1.875"/><path d="m288.45089 680.07469c3.03628 0 5.4975 2.4923 5.4975 5.56189 0 3.07293-2.46122 5.5619-5.4975 5.5619-3.03407 0-5.49529-2.48897-5.49529-5.5619 0-3.06959 2.46122-5.56189 5.49529-5.56189z" fill="#fff" stroke-width="1.875"/><path d="m293.93396 690.04503c3.03407 0 5.49529 2.48897 5.49529 5.5619 0 3.06959-2.46122 5.56189-5.49529 5.56189-3.03628 0-5.49751-2.4923-5.49751-5.56189 0-3.07293 2.46123-5.5619 5.49751-5.5619z" fill="#fff" stroke-width="1.875"/><g fill="#009240" stroke-width=".168895" transform="matrix(11.101593 0 0 11.101593 -615.95482 -245.73045)"><path d="m111.995 47.2518c.267.4353.3857.9607.4451 1.6362l-.0594 4.0228.089.3453.5044-.5854-.0296-4.3531c-.0297-.4053.1038-.8106.3857-1.2009z"/><path d="m111.995 47.2518c.267.4353.3857.9607.4451 1.6362l-.0594 4.0228.089.3453.5044-.5854-.0296-4.3531c-.0297-.4053.1038-.8106.3857-1.2009z"/></g><g fill="#fdf305" transform="translate(-16.59745 -135.23589)"><path d="m614.057846493 284.98304933709-7.571286426-15.83090492278" stroke-width="1.87500354973"/><path d="m618.542890065 307.41271893589-14.487578865-18.66402035479" stroke-width="1.87500354973"/><path d="m642.289197492 301.43114732271-.499571685-19.1635698366" stroke-width="1.87500354973"/><path d="m652.436053494 329.8412450706-2.298029751-30.49495471011" stroke-width="1.87500354973"/><path d="m654.434340234 341.80429948421 5.428678977-19.83073116953" stroke-width="1.87500354973"/><path d="m659.918527176 367.22366138269 3.619119318-28.49560221718" stroke-width="1.87500354973"/><path d="m659.918527176 375.19903469229 6.094774557-12.33167170759" stroke-width="1.87500354973"/><path d="m659.918527176 394.13946250959 6.749768544-14.16454471189" stroke-width="1.87500354973"/><path d="m638.481351093 395.63371472421-12.189549114-19.82964321341" stroke-width="1.87500354973"/><path d="m631.509550689 364.73132044941-12.844543101-21.66251621771" stroke-width="1.87500354973"/><path d="m633.996307521 379.18561673859-12.189549114-16.66347999141" stroke-width="1.87500354973"/><path d="m628.012548894 335.3243218533-17.118656406-17.3306968323" stroke-width="1.87500354973"/><path d="m622.539463545 320.37157514001-17.129757999-19.8307755759" stroke-width="1.87500354973"/><path d="m630.010835634 350.27706856659-12.189549114-17.3306968323" stroke-width="1.87500354973"/><g stroke-width=".168895" transform="matrix(11.101593 0 0 11.101593 -599.35737 -110.49456)"><g><path d="m111.367 37.4042c-.534-.7655-.6824-1.2909-.356-2.0564.6676.5254.8159 1.2909.356 2.0564z"/><path d="m111.367 37.4042c-.534-.7655-.6824-1.2909-.356-2.0564.6676.5254.8159 1.2909.356 2.0564z"/></g><g><path d="m111.801 39.0112c-.581-.8165-.6294-1.1758-.113-2.1719.7586.7348.5972 1.339.113 2.1719z"/><path d="m111.801 39.0112c-.581-.8165-.6294-1.1758-.113-2.1719.7586.7348.5972 1.339.113 2.1719z"/></g><g><path d="m112.295 40.3581c-.581-.8165-.6294-1.1758-.113-2.1719.7586.7348.5972 1.339.113 2.1719z"/><path d="m112.295 40.3581c-.581-.8165-.6294-1.1758-.113-2.1719.7586.7348.5972 1.339.113 2.1719z"/></g><g><path d="m112.789 41.6152c-.5811-.8165-.6295-1.1758-.113-2.1719.7585.7349.5971 1.3391.113 2.1719z"/><path d="m112.789 41.6152c-.5811-.8165-.6295-1.1758-.113-2.1719.7585.7349.5971 1.3391.113 2.1719z"/></g><g><path d="m112.93 42.8618c-.5364-.8472-.5655-1.2086.0037-2.1748.718.7754.5244 1.3698-.0037 2.1748z"/><path d="m112.93 42.8618c-.5364-.8472-.5655-1.2086.0037-2.1748.718.7754.5244 1.3698-.0037 2.1748z"/></g><g><path d="m113.11 44.3434c-.5364-.8472-.5655-1.2085.0037-2.1748.718.7754.5244 1.3698-.0037 2.1748z"/><path d="m113.11 44.3434c-.5364-.8472-.5655-1.2085.0037-2.1748.718.7754.5244 1.3698-.0037 2.1748z"/></g><g><path d="m113.208 45.8582c-.4824-.8797-.4889-1.2423.1394-2.1703.6682.8198.4379 1.4007-.1394 2.1703z"/><path d="m113.208 45.8582c-.4824-.8797-.4889-1.2423.1394-2.1703.6682.8198.4379 1.4007-.1394 2.1703z"/></g><g><path d="m113.208 47.3847c-.4824-.8797-.3908-1.247.2535-2.1731.4542.8435.3238 1.4035-.2535 2.1731z"/><path d="m113.208 47.3847c-.4824-.8797-.3908-1.247.2535-2.1731.4542.8435.3238 1.4035-.2535 2.1731z"/></g><g><path d="m110.751 39.4483c.0332-1.0628-.134-1.4068-1.1679-1.9717-.2364 1.0973.2576 1.5307 1.1679 1.9717z"/><path d="m110.751 39.4483c.0332-1.0628-.134-1.4068-1.1679-1.9717-.2364 1.0973.2576 1.5307 1.1679 1.9717z"/></g><g><path d="m111.245 40.7953c.0331-1.0629-.134-1.4068-1.1679-1.9718-.2364 1.0973.2575 1.5307 1.1679 1.9718z"/><path d="m111.245 40.7953c.0331-1.0629-.134-1.4068-1.1679-1.9718-.2364 1.0973.2575 1.5307 1.1679 1.9718z"/></g><g><path d="m111.739 42.0075c.0332-1.0629-.1339-1.4068-1.1678-1.9718-.2365 1.0973.2575 1.5307 1.1678 1.9718z"/><path d="m111.739 42.0075c.0332-1.0629-.1339-1.4068-1.1678-1.9718-.2365 1.0973.2575 1.5307 1.1678 1.9718z"/></g><g><path d="m111.84 43.2257c.0901-1.0595-.0583-1.4121-1.0604-2.033-.295 1.0827.175 1.5426 1.0604 2.033z"/><path d="m111.84 43.2257c.0901-1.0595-.0583-1.4121-1.0604-2.033-.295 1.0827.175 1.5426 1.0604 2.033z"/></g><g><path d="m112.02 44.7073c.0901-1.0595-.0583-1.4121-1.0604-2.033-.295 1.0827.175 1.5426 1.0604 2.033z"/><path d="m112.02 44.7073c.0901-1.0595-.0583-1.4121-1.0604-2.033-.295 1.0827.175 1.5426 1.0604 2.033z"/></g><g><path d="m112.078 46.1517c.1561-1.0516.03-1.413-.9314-2.0967-.3619 1.0617.0784 1.5507.9314 2.0967z"/><path d="m112.078 46.1517c.1561-1.0516.03-1.413-.9314-2.0967-.3619 1.0617.0784 1.5507.9314 2.0967z"/></g><g><path d="m112.437 47.5435c.1561-1.0516.0299-1.413-.9314-2.0967-.3619 1.0617.0784 1.5507.9314 2.0967z"/><path d="m112.437 47.5435c.1561-1.0516.0299-1.413-.9314-2.0967-.3619 1.0617.0784 1.5507.9314 2.0967z"/></g><g><path d="m110.594 37.2254c-.6887-.6607-.9304-1.1528-.7082-1.9659.7913.4002 1.0717 1.1293.7082 1.9659z"/><path d="m110.594 37.2254c-.6887-.6607-.9304-1.1528-.7082-1.9659.7913.4002 1.0717 1.1293.7082 1.9659z"/></g><g><path d="m111.222 38.9291c-.9058-.5783-.9793-1.2316-.6391-2.1439.8311.4323 1.0197 1.2724.6391 2.1439z"/><path d="m111.222 38.9291c-.9058-.5783-.9793-1.2316-.6391-2.1439.8311.4323 1.0197 1.2724.6391 2.1439z"/></g><g><path d="m111.716 40.276c-.9058-.5783-.9793-1.2316-.6392-2.1439.8312.4323 1.0198 1.2724.6392 2.1439z"/><path d="m111.716 40.276c-.9058-.5783-.9793-1.2316-.6392-2.1439.8312.4323 1.0198 1.2724.6392 2.1439z"/></g><g><path d="m112.209 41.5331c-.9057-.5783-.9792-1.2316-.6391-2.1439.8311.4323 1.0197 1.2725.6391 2.1439z"/><path d="m112.209 41.5331c-.9057-.5783-.9792-1.2316-.6391-2.1439.8311.4323 1.0197 1.2725.6391 2.1439z"/></g><g><path d="m112.348 42.7898c-.8735-.6272-.9118-1.2836-.5232-2.1759.8067.4773.95 1.3266.5232 2.1759z"/><path d="m112.348 42.7898c-.8735-.6272-.9118-1.2836-.5232-2.1759.8067.4773.95 1.3266.5232 2.1759z"/></g></g><path d="m649.37201 380.49004c-9.69724-6.96292-10.12243-14.25-5.80835-24.15484 8.95566 5.29768 10.5454 14.72626 5.80835 24.15484z" stroke-width="1.875"/><path d="m649.37201 380.49004c-9.69724-6.96292-10.12243-14.25-5.80835-24.15484 8.95566 5.29768 10.5454 14.72626 5.80835 24.15484z" stroke-width="1.875"/><path d="m650.91514 396.93483c-9.24208-7.56906-9.21211-14.86836-4.28855-24.4779 8.60706 5.85942 9.60621 15.37127 4.28855 24.4779z" stroke-width="1.875"/><path d="m650.91514 396.93483c-9.24208-7.56906-9.21211-14.86836-4.28855-24.4779 8.60706 5.85942 9.60621 15.37127 4.28855 24.4779z" stroke-width="1.875"/><g stroke-width=".168895" transform="matrix(11.101593 0 0 11.101593 -599.35737 -110.49456)"><path d="m112.845 47.6801c-.8738-.7154-.8657-1.6685-.4003-2.577.813.5376.9029 1.7162.4003 2.577z"/><path d="m112.845 47.6801c-.8738-.7154-.8657-1.6685-.4003-2.577.813.5376.9029 1.7162.4003 2.577z"/></g><g stroke-width=".168895" transform="matrix(11.101593 0 0 11.101593 -599.35737 -110.49456)"><path d="m109.281 35.6634c.5081.5753 1.0187 1.1806 1.0558 2.0059-.7696-.3127-1.221-.9228-1.0558-2.0059z"/><path d="m109.281 35.6634c.5081.5753 1.0187 1.1806 1.0558 2.0059-.7696-.3127-1.221-.9228-1.0558-2.0059z"/></g></g><g fill="#009240" stroke-width=".168895" transform="matrix(11.101593 0 0 11.101593 -615.95482 -245.73045)"><path d="m110.558 48.6885c.7714 1.1559 1.4687 2.5669 2.0769 4.218l-.7121 2.6569c-.0741-1.8463-.6527-4.3831-1.3648-6.8749z"/><path d="m110.558 48.6885c.7714 1.1559 1.4687 2.5669 2.0769 4.218l-.7121 2.6569c-.0741-1.8463-.6527-4.3831-1.3648-6.8749z"/></g><path d="m626.36899 434.84827c-6.8225-53.4853 42.1132-132.6265 44.4395-159.98756-27.719 46.07336-53.6657 92.92277-48.9683 149.25847 1.7025 3.93078-5.8032 17.39695 4.5288 10.72909z" fill="#009240" stroke-width="1.875"/><path d="m607.42959 365.06811c14.6057 29.42766 1.0949 100.60805 10.7317 106.16781 12.4767-31.33634 7.5302-76.65804-10.7317-106.16781z" fill="#009240" stroke-width="1.875"/><g fill="#009240" stroke-width=".168895" transform="matrix(11.101593 0 0 11.101593 -615.95482 -245.73045)"><path d="m117.921 55.9619c-.8901-.5104-1.7061-.3002-2.433.6004-.5489 1.2609-2.4775 2.1315-3.7089 4.3381-.3115 1.0507-.3857 2.0414-.3709 3.0021l.1336.4503c.3115-1.2459.7121-2.5068 1.439-3.7527.1484-.6604.5341-1.2158 1.1868-1.6211.6528-.7355 1.3204-1.3209 1.9732-2.1765.2225-.7055.9049-.8857 1.7802-.8406z"/><path d="m117.921 55.9619c-.8901-.5104-1.7061-.3002-2.433.6004-.5489 1.2609-2.4775 2.1315-3.7089 4.3381-.3115 1.0507-.3857 2.0414-.3709 3.0021l.1336.4503c.3115-1.2459.7121-2.5068 1.439-3.7527.1484-.6604.5341-1.2158 1.1868-1.6211.6528-.7355 1.3204-1.3209 1.9732-2.1765.2225-.7055.9049-.8857 1.7802-.8406z"/></g><g fill="#009240" stroke-width=".168895" transform="matrix(11.101593 0 0 11.101593 -615.95482 -245.73045)"><path d="m107.82 65.2107c.6527-1.366 1.3203-2.5668 1.9879-2.6719.2967.8406.0594 2.7169-.3115 4.9085l1.2165-2.3567c.2373-1.471.3264-2.777-.089-3.4074-.4451-.5404-.8753-.5254-1.3204.03-1.0533 1.2609-1.4242 2.4167-1.4835 3.4975z"/><path d="m107.82 65.2107c.6527-1.366 1.3203-2.5668 1.9879-2.6719.2967.8406.0594 2.7169-.3115 4.9085l1.2165-2.3567c.2373-1.471.3264-2.777-.089-3.4074-.4451-.5404-.8753-.5254-1.3204.03-1.0533 1.2609-1.4242 2.4167-1.4835 3.4975z"/></g><path d="m651.29199 485.68801c4.9402-12.66469 9.2221-23.32888 7.246-33.82766-.988-4.666-6.7519-5.16557-9.8815-2.50008-21.7402 16.49808-38.7035 45.16017-54.6798 84.32104l-9.3875 2.33244 1.9761-2.83312 14.3288-32.82741c11.8588-25.16287 23.058-45.16017 46.609-58.6586 8.7291-3.3327 17.4583-.16652 18.2821 11.16598 1.3177 17.3307-6.9174 26.82922-14.4932 32.82741z" fill="#009240" stroke-width="1.875"/><path d="m651.29199 485.68801c4.9402-12.66469 9.2221-23.32888 7.246-33.82766-.988-4.666-6.7519-5.16557-9.8815-2.50008-21.7402 16.49808-38.7035 45.16017-54.6798 84.32104l-9.3875 2.33244 1.9761-2.83312 14.3288-32.82741c11.8588-25.16287 23.058-45.16017 46.609-58.6586 8.7291-3.3327 17.4583-.16652 18.2821 11.16598 1.3177 17.3307-6.9174 26.82922-14.4932 32.82741z" fill="#009240" stroke-width="1.875"/><g fill="#009240" stroke-width=".168895" transform="matrix(11.101593 0 0 11.101593 -615.95482 -245.73045)"><path d="m104.318 70.5534c.9495-1.7262 1.8841-2.927 2.7742-2.897 1.1572.3302.4302 2.7619-.8159 5.7641l.7121-.1952c.9346-1.5161 1.4984-2.9571 1.6022-4.308-.3561-1.9814-1.2165-2.5368-2.5665-1.6662-.7715.5704-1.261 1.8913-1.7061 3.3023z"/><path d="m104.318 70.5534c.9495-1.7262 1.8841-2.927 2.7742-2.897 1.1572.3302.4302 2.7619-.8159 5.7641l.7121-.1952c.9346-1.5161 1.4984-2.9571 1.6022-4.308-.3561-1.9814-1.2165-2.5368-2.5665-1.6662-.7715.5704-1.261 1.8913-1.7061 3.3023z"/></g><path d="m573.03689 566.9328c16.4703-19.49773 38.0452-38.99434 75.7606-57.65834 5.5997-1.00026-2.9641 10.83182-17.6227 28.66209 13.0111-5.83167 24.0461-13.66384 27.0102-28.66209-.1643-8.6648-5.4342-10.49878-15.6455-5.9993-41.6687 21.16407-68.6789 42.49356-69.5026 63.65764z" fill="#009240" stroke-width="1.875"/><path d="m573.03689 566.9328c16.4703-19.49773 38.0452-38.99434 75.7606-57.65834 5.5997-1.00026-2.9641 10.83182-17.6227 28.66209 13.0111-5.83167 24.0461-13.66384 27.0102-28.66209-.1643-8.6648-5.4342-10.49878-15.6455-5.9993-41.6687 21.16407-68.6789 42.49356-69.5026 63.65764z" fill="#009240" stroke-width="1.875"/><path d="m69.0286 63.9985 1.0236 3.3473.9198.9457" fill="none" stroke-width=".168895" transform="matrix(11.101593 0 0 11.101593 -615.95482 -245.73045)"/><path d="m161.83614079638 502.1361335601.32965070254 6.99956548809" fill="none" stroke-width="1.87500354973"/><path d="m70.4446 66.9031-.6528-.4353-.3264.8556" fill="none" stroke-width=".168895" transform="matrix(11.101593 0 0 11.101593 -615.95482 -245.73045)"/><path d="m68.587 66.4555.8456-.8856-.5489.8556-.1483 1.3059" fill="none" stroke-width=".168895" transform="matrix(11.101593 0 0 11.101593 -615.95482 -245.73045)"/><path d="m70.5012 65.0454-1.0237.2102 2.2402 1.3059" fill="none" stroke-width=".168895" transform="matrix(11.101593 0 0 11.101593 -615.95482 -245.73045)"/><path d="m165.82383300198 485.18958515038 2.30574535814 9.49850076761" fill="none" stroke-width="1.87500354973"/><path d="m135.1171 414.83035c-19.15008-14.65802-30.41229-8.17186-21.57592 11.83097-15.36965-.36955-25.41222 39.13328-5.92829 32.49548 12.66912-17.75485 8.30548.68435 9.88156 15.4967 1.13977 13.82204 15.00274 9.3204 16.79896.00003 6.48648-6.64832 10.67145-15.50941 9.38747-25.66248.49406 22.13094 21.64052 27.2824 16.14062-.33304-4.16665-11.36793-5.85292-28.97897-21.27923-33.33289l-2.33879-.33784z" fill="#009240" stroke-width="1.875"/><path d="m156.36635 416.40741c3.03629 0 5.49751 2.4912 5.49751 5.56079s-2.46122 5.5619-5.49751 5.5619c-3.03295 0-5.49418-2.49231-5.49418-5.5619s2.46123-5.56079 5.49418-5.56079z" fill="#fff" stroke-width="1.875"/><path d="m67.6817 59.5087v1.0658l1.0978 1.441" fill="none" stroke-width=".168895" transform="matrix(11.101593 0 0 11.101593 -615.95482 -245.73045)"/><path d="m67.6368 60.5863-.0297.9006.1483.9907" fill="none" stroke-width=".168895" transform="matrix(11.101593 0 0 11.101593 -615.95482 -245.73045)"/><path d="m66.7908 61.7996.8011-.3603-1.0088 2.1315" fill="none" stroke-width=".168895" transform="matrix(11.101593 0 0 11.101593 -615.95482 -245.73045)"/><path d="m129.93676796221 463.2594650334.82377150538-18.66402035479" fill="none" stroke-width="1.87500354973"/><path d="m67.5919 60.0026-.638.6154-1.8841 1.4711" fill="none" stroke-width=".168895" transform="matrix(11.101593 0 0 11.101593 -615.95482 -245.73045)"/><path d="m117.47635108061 415.90782930891 13.50507678291 8.99896238739" fill="none" stroke-width="1.87500354973"/><path d="m128.44142 340.14724c5.82359 18.8375 4.90982 36.90465 24.70464 16.8722 15.72788-2.42609 28.75065 11.39077 8.7289 17.95572 22.19059-8.03264 32.63835 47.70312.49402 31.82826-9.61846-25.88798-1.01554 33.90687-20.27034 8.26188-12.04281-14.73669-.99607-28.4516-14.70738-8.76467-26.4695-13.00438 16.93382-34.01136-1.96192-55.80286-1.90342-5.38982-3.06311-7.61784 3.01208-10.35053z" fill="#009240" stroke-width="1.875"/><path d="m67.6528 55.6325.7417.4503.9495.3002 1.4242 1.3209" fill="none" stroke-width=".168895" transform="matrix(11.101593 0 0 11.101593 -615.95482 -245.73045)"/><path d="m165.32538257787 385.50388545821-8.23522829696-1.99938579771" fill="none" stroke-width="1.87500354973"/><path d="m152.36643756101 380.02195213959 4.61156842742 17.66373352071" fill="none" stroke-width="1.87500354973"/><path d="m141.89872331812 375.53577620511 8.23522829696-3.99988175471" fill="none" stroke-width="1.87500354973"/><path d="m66.9012 57.4624 1.0682-.8106.3857-.5103.2374.6905-.178 1.7412" fill="none" stroke-width=".168895" transform="matrix(11.101593 0 0 11.101593 -615.95482 -245.73045)"/><path d="m149.37564620362 397.96434674619-3.95321065774-8.3317455465" fill="none" stroke-width="1.87500354973"/><path d="m122.97165 333.16878c3.03629 0 5.49751 2.49231 5.49751 5.5619s-2.46122 5.56189-5.49751 5.56189c-3.03295 0-5.49418-2.4923-5.49418-5.56189s2.46123-5.5619 5.49418-5.5619z" fill="#fff" stroke-width="1.875"/><path d="m117.98815 343.1369c3.03628 0 5.4975 2.4912 5.4975 5.56079 0 3.07292-2.46122 5.56189-5.4975 5.56189-3.03407 0-5.49751-2.48897-5.49751-5.56189 0-3.06959 2.46344-5.56079 5.49751-5.56079z" fill="#fff" stroke-width="1.875"/><path d="m106.02618 343.1369c3.03628 0 5.49751 2.4912 5.49751 5.56079 0 3.07292-2.46123 5.56189-5.49751 5.56189-3.03407 0-5.49751-2.48897-5.49751-5.56189 0-3.06959 2.46344-5.56079 5.49751-5.56079z" fill="#fff" stroke-width="1.875"/><path d="m112.00661 333.16878c3.03628 0 5.49862 2.49231 5.49862 5.5619s-2.46234 5.56189-5.49862 5.56189c-3.03296 0-5.49751-2.4923-5.49751-5.56189s2.46455-5.5619 5.49751-5.5619z" fill="#fff" stroke-width="1.875"/><path d="m101.53892 328.68262c3.03739 0 5.49861 2.4912 5.49861 5.5619 0 3.07181-2.46122 5.56079-5.49861 5.56079-3.03296 0-5.49418-2.48898-5.49418-5.56079 0-3.0707 2.46122-5.5619 5.49418-5.5619z" fill="#fff" stroke-width="1.875"/><path d="m94.06421 320.20989c3.03629 0 5.49751 2.4912 5.49751 5.56079 0 3.07292-2.46122 5.56189-5.49751 5.56189-3.03406 0-5.49862-2.48897-5.49862-5.56189 0-3.06959 2.46456-5.56079 5.49862-5.56079z" fill="#fff" stroke-width="1.875"/><path d="m105.02815 318.7145c3.03739 0 5.49861 2.49231 5.49861 5.5619s-2.46122 5.5619-5.49861 5.5619c-3.03296 0-5.49418-2.49231-5.49418-5.5619s2.46122-5.5619 5.49418-5.5619z" fill="#fff" stroke-width="1.875"/><path d="m113.50199 322.20373c3.03629 0 5.49751 2.48898 5.49751 5.5619 0 3.06959-2.46122 5.5619-5.49751 5.5619-3.03406 0-5.49529-2.49231-5.49529-5.5619 0-3.07292 2.46123-5.5619 5.49529-5.5619z" fill="#fff" stroke-width="1.875"/><path d="m127.45341 305.75561c4.74182 19.22277 34.7967 31.8712 25.30416 2.90848-7.23441 6.37605 49.99284-14.04767 12.65866-25.09251-33.89499 19.2467 27.62021-31.61002-9.35724-26.84251-19.25514 8.84204-16.08755 24.96826-23.27597-.79697-16.91589-7.06245-25.02012 45.8589-5.32961 49.82351z" fill="#009240" stroke-width="1.875"/><path d="m67.098 49.5416.9495-1.6512 1.4835-1.6211" fill="none" stroke-width=".168895" transform="matrix(11.101593 0 0 11.101593 -615.95482 -245.73045)"/><path d="m138.90802077348 285.81828568039 5.59958800124-13.99803191848" fill="none" stroke-width="1.87500354973"/><path d="m154.85766833499 276.8470661739-11.52788306961 5.6651429079" fill="none" stroke-width="1.87500354973"/><path d="m69.8816 48.5539-.6527-.1802-.8605.6305-.9791.1201" fill="none" stroke-width=".168895" transform="matrix(11.101593 0 0 11.101593 -615.95482 -245.73045)"/><path d="m68.3551 50.3497-.267-.8406-.6528-.3302" fill="none" stroke-width=".168895" transform="matrix(11.101593 0 0 11.101593 -615.95482 -245.73045)"/><path d="m71.1387 48.9579-1.6912.3303-.9495-.2702" fill="none" stroke-width=".168895" transform="matrix(11.101593 0 0 11.101593 -615.95482 -245.73045)"/><path d="m67.1878 49.1824-.2374-1.1408.1484-1.471" fill="none" stroke-width=".168895" transform="matrix(11.101593 0 0 11.101593 -615.95482 -245.73045)"/><path d="m126.94606541757 287.31363695271-5.26993729869-12.66470839599" fill="none" stroke-width="1.87500354973"/><path d="m100.54199 312.23339c3.03629 0 5.49751 2.49231 5.49751 5.5619 0 3.07292-2.46122 5.56412-5.49751 5.56412-3.03295 0-5.49529-2.4912-5.49529-5.56412 0-3.06959 2.46234-5.5619 5.49529-5.5619z" fill="#fff" stroke-width="1.875"/><path d="m124.46926 322.70109c3.03406 0 5.49528 2.4923 5.49528 5.56189 0 3.07292-2.46122 5.5619-5.49528 5.5619-3.03629 0-5.49751-2.48898-5.49751-5.5619 0-3.06959 2.46122-5.56189 5.49751-5.56189z" fill="#fff" stroke-width="1.875"/><path d="m112.00661 310.73912c3.03628 0 5.49862 2.49231 5.49862 5.5619 0 3.07181-2.46234 5.56079-5.49862 5.56079-3.03296 0-5.49751-2.48898-5.49751-5.56079 0-3.06959 2.46455-5.5619 5.49751-5.5619z" fill="none" stroke-width="1.875"/><path d="m121.47738 314.22835c3.03628 0 5.49751 2.49231 5.49751 5.5619 0 3.07181-2.46123 5.56079-5.49751 5.56079-3.03407 0-5.49751-2.48898-5.49751-5.56079 0-3.06959 2.46344-5.5619 5.49751-5.5619z" fill="#fff" stroke-width="1.875"/><path d="m120.48045 303.76066c3.03629 0 5.49751 2.49231 5.49751 5.5619 0 3.07181-2.46122 5.56189-5.49751 5.56189-3.03406 0-5.49529-2.49008-5.49529-5.56189 0-3.06959 2.46123-5.5619 5.49529-5.5619z" fill="#fff" stroke-width="1.875"/><path d="m129.45276 309.24485c3.03407 0 5.49529 2.49119 5.49529 5.56078 0 3.0707-2.46122 5.5619-5.49529 5.5619-3.03628 0-5.49751-2.4912-5.49751-5.5619 0-3.06959 2.46123-5.56078 5.49751-5.56078z" fill="#fff" stroke-width="1.875"/><g fill="#009240" stroke-width=".168895" transform="matrix(11.101593 0 0 11.101593 -615.95482 -245.73045)"><path d="m66.3644 45.8303c-.0593-3.3624.6083-5.9592 1.6764-8.1057l-.356-.0601c-1.3501 2.0715-1.8248 5.4038-1.7654 9.3366z"/><path d="m66.3644 45.8303c-.0593-3.3624.6083-5.9592 1.6764-8.1057l-.356-.0601c-1.3501 2.0715-1.8248 5.4038-1.7654 9.3366z"/></g><path d="m68.4 39.9336c-.4154.4503-.8901.7355-1.4094.8706l3.0561.8706" fill="none" stroke-width=".168895" transform="matrix(11.101593 0 0 11.101593 -615.95482 -245.73045)"/><path d="m69.5224 42.8519c-.5044-.7355-1.3945-1.396-2.433-2.0264.2077.6004.2522 1.2008.1484 1.8013" fill="none" stroke-width=".168895" transform="matrix(11.101593 0 0 11.101593 -615.95482 -245.73045)"/><path d="m120.96449380439 206.56840948421-14.82172571271-14.49866935641" fill="none" stroke-width="1.87500354973"/><path d="m107.50709836342 184.6372347159 5.59966571239 14.16450030551" fill="none" stroke-width="1.87500354973"/><path d="m120.96449380439 207.5653547388-51.0551160477-12.83232024711" fill="none" stroke-width="1.87500354973"/><path d="m63.4164 39.3948.905.9157-1.6467.1501" fill="none" stroke-width=".168895" transform="matrix(11.101593 0 0 11.101593 -615.95482 -245.73045)"/><path d="m66.3796 40.9214c-.9939.2101-1.8247.6754-2.522 1.3059" fill="none" stroke-width=".168895" transform="matrix(11.101593 0 0 11.101593 -615.95482 -245.73045)"/><path d="m89.57695 268.87168c3.03628 0 5.49751 2.4912 5.49751 5.5619 0 3.07181-2.46123 5.56079-5.49751 5.56079-3.03296 0-5.49418-2.48898-5.49418-5.56079 0-3.0707 2.46122-5.5619 5.49418-5.5619z" fill="#fff" stroke-width="1.875"/><path d="m86.08772 257.90664c3.03628 0 5.49751 2.48898 5.49751 5.5619 0 3.06959-2.46123 5.56078-5.49751 5.56078-3.03296 0-5.49418-2.49119-5.49418-5.56078 0-3.07292 2.46122-5.5619 5.49418-5.5619z" fill="#fff" stroke-width="1.875"/><path d="m98.04968 260.89519c3.0374 0 5.49862 2.4923 5.49862 5.5619 0 3.07292-2.46122 5.56189-5.49862 5.56189-3.03295 0-5.49418-2.48897-5.49418-5.56189 0-3.0696 2.46123-5.5619 5.49418-5.5619z" fill="#fff" stroke-width="1.875"/><path d="m108.51738 256.41236c3.03739 0 5.49862 2.48898 5.49862 5.56079 0 3.0707-2.46123 5.5619-5.49862 5.5619-3.03296 0-5.49418-2.4912-5.49418-5.5619 0-3.07181 2.46122-5.56079 5.49418-5.56079z" fill="#fff" stroke-width="1.875"/><path d="m93.56686 250.43083c3.03296 0 5.49418 2.48897 5.49418 5.56189 0 3.06959-2.46122 5.5619-5.49418 5.5619-3.03629 0-5.49862-2.49231-5.49862-5.5619 0-3.07292 2.46233-5.56189 5.49862-5.56189z" fill="#fff" stroke-width="1.875"/><path d="m101.53892 248.93322c3.03739 0 5.49861 2.49231 5.49861 5.5619 0 3.07292-2.46122 5.5619-5.49861 5.5619-3.03296 0-5.49418-2.48898-5.49418-5.5619 0-3.06959 2.46122-5.5619 5.49418-5.5619z" fill="#fff" stroke-width="1.875"/><path d="m93.56686 238.96621c3.03296 0 5.49418 2.4912 5.49418 5.5619 0 3.06959-2.46122 5.56079-5.49418 5.56079-3.03629 0-5.49862-2.4912-5.49862-5.56079 0-3.0707 2.46233-5.5619 5.49862-5.5619z" fill="#fff" stroke-width="1.875"/><path d="m97.05609 228.49852c3.03296 0 5.49418 2.49231 5.49418 5.5619 0 3.07181-2.46122 5.56078-5.49418 5.56078-3.03629 0-5.49862-2.48897-5.49862-5.56078 0-3.06959 2.46233-5.5619 5.49862-5.5619z" fill="#fff" stroke-width="1.875"/><path d="m107.0231 227.00424c3.03407 0 5.49751 2.4912 5.49751 5.56079s-2.46344 5.5619-5.49751 5.5619c-3.03628 0-5.49751-2.49231-5.49751-5.5619s2.46123-5.56079 5.49751-5.56079z" fill="#fff" stroke-width="1.875"/><path d="m112.50729 220.52313c3.03295 0 5.49418 2.4912 5.49418 5.56412 0 3.06959-2.46123 5.5619-5.49418 5.5619-3.03629 0-5.49751-2.49231-5.49751-5.5619 0-3.07292 2.46122-5.56412 5.49751-5.56412z" fill="#fff" stroke-width="1.875"/><path d="m114.00156 233.48202c3.03407 0 5.49529 2.49231 5.49529 5.5619 0 3.07181-2.46122 5.5619-5.49529 5.5619-3.03628 0-5.49751-2.49009-5.49751-5.5619 0-3.06959 2.46123-5.5619 5.49751-5.5619z" fill="#fff" stroke-width="1.875"/><path d="m112.00661 245.94467c3.03628 0 5.49862 2.48898 5.49862 5.56079 0 3.0707-2.46234 5.5619-5.49862 5.5619-3.03296 0-5.49751-2.4912-5.49751-5.5619 0-3.07181 2.46455-5.56079 5.49751-5.56079z" fill="#fff" stroke-width="1.875"/><path d="m105.02815 237.96818c3.03739 0 5.49861 2.4923 5.49861 5.5619 0 3.07292-2.46122 5.56189-5.49861 5.56189-3.03296 0-5.49418-2.48897-5.49418-5.56189 0-3.0696 2.46122-5.5619 5.49418-5.5619z" fill="#fff" stroke-width="1.875"/><g fill="#009240" stroke-width=".168895" transform="matrix(11.101593 0 0 11.101593 -615.95482 -245.73045)"><path d="m67.6934 37.9427c-1.4836.4503-2.4034.2402-2.8188-.4803-.1483-.7806.2967-1.2009 1.3352-1.2759l.7418.1801c-1.6616-.3602-2.1363-1.2909-1.439-2.7769.6379-.6005 1.3351-.4203 2.0621.5704.9198-1.5611 1.6616-1.9814 3.0413-1.6512.267 1.0958.4153 1.9514-.7715 3.0021 1.0533-.4053 1.8544-.09 2.3292 1.0057-.4748.9907-1.2907 1.2609-2.4479.8256.638.7205.638 1.471 0 2.2816-.9494-.4053-1.6912-.8856-2.0324-1.6812z"/><path d="m67.6934 37.9427c-1.4836.4503-2.4034.2402-2.8188-.4803-.1483-.7806.2967-1.2009 1.3352-1.2759l.7418.1801c-1.6616-.3602-2.1363-1.2909-1.439-2.7769.6379-.6005 1.3351-.4203 2.0621.5704.9198-1.5611 1.6616-1.9814 3.0413-1.6512.267 1.0958.4153 1.9514-.7715 3.0021 1.0533-.4053 1.8544-.09 2.3292 1.0057-.4748.9907-1.2907 1.2609-2.4479.8256.638.7205.638 1.471 0 2.2816-.9494-.4053-1.6912-.8856-2.0324-1.6812z"/></g><path d="m69.743 33.1851-2.1511 4.6832 1.3352-4.353" fill="none" stroke-width=".168895" transform="matrix(11.101593 0 0 11.101593 -615.95482 -245.73045)"/><path d="m71.0216 36.2642-3.1155.9307 1.8841-1.456" fill="none" stroke-width=".168895" transform="matrix(11.101593 0 0 11.101593 -615.95482 -245.73045)"/><path d="m69.0036 38.0351-1.1424-.7055-1.6319-.1051" fill="none" stroke-width=".168895" transform="matrix(11.101593 0 0 11.101593 -615.95482 -245.73045)"/><path d="m132.4290977939 167.19220257729-5.2710363564-32.49549507349" fill="none" stroke-width="1.87500354973"/><path d="m122.95828439923 138.2836433037 6.09371990567 10.3311424458" fill="none" stroke-width="1.87500354973"/><path d="m397.01184 735.83788c24.07333-42.94207 114.37028-55.83663 128.49628-39.50285-45.53929-.76444-89.90883 16.4812-128.49628 39.50285z" fill="#009240" stroke-width="1.875"/><path d="m303.2067 774.84579c28.00378 11.02155 53.45918-24.33328 80.3722-33.16155 42.67232-24.56805 189.65299 15.11035 74.21681-18.51857-58.08789-8.50567-105.27914 28.20655-154.58901 51.68012z" fill="#009240" stroke-width="1.875"/><path d="m603.84330512 145.97830230101-9.225423783-16.33039889663" fill="none" stroke-width="1.87500354973"/><path d="m608.827920377 132.02250084231 8.070858111 15.33131103459" fill="none" stroke-width="1.87500354973"/></g><g stroke="#000" stroke-width=".90698" transform="translate(-72.068219 -51.489077)"><path d="m432.92944 430.40004c-7.91719 2.11547-15.83438 4.8361-23.75056 4.98713-5.37781-.9062-10.15753-1.81341-14.78822-2.56958-10.90464-4.08094-26.29095-6.64951-39.43592-9.97528-5.07877-4.53404-10.75562-4.68507-16.58049-.30207l-8.36527 3.02269c-3.13746 1.96545-1.04615 4.83711 1.64325 5.44124 3.88358-.15103 6.87104 0 9.26139.4531 2.24034.45412 4.77972.60515 6.87103 1.05824 2.53939.90721 4.48167 2.26752 5.52683 4.83712.44807 1.81341 1.9423 3.62682 3.88358 5.59127.5981 1.96544-.14902 3.32577-2.53938 3.17472-3.58454.60414-3.28649 2.87166-1.04515 5.74331.74711 1.96445 2.38935 3.77786 4.18263 5.59228.89613.90621 1.79226 1.36032 2.98745 1.51135l.59709-4.23196c-2.24035-.60515-3.88359-2.1165-4.33166-4.08094-.14901-1.51134 1.79227-1.81342 2.39037-2.72063-.15004 1.36033.89613 2.5696 2.24033 3.9299l-1.79226 4.53405c-.29906 2.87165-1.34521 5.59226-2.68942 8.16185-1.79226.60414-2.53938 1.20827-2.98745 2.56859 0 1.81441 4.48168 2.72062 5.37781.30306 0-1.05823.44807-2.11647 1.04516-3.32575.59809-2.11549 1.79327-3.62683 3.43652-4.68506-.15002-4.53404 2.38935-8.16187 7.46811-10.73146 3.8846.60515 7.76818.75617 11.65176-.4531l7.17008-.60414c2.39036.4531 2.6884 2.41754 2.6884 3.62683.15002 2.11648 1.04615 3.77885 2.83843 4.98814 1.79227.9062 3.28648 2.11548 4.33164 3.47579 1.04617.75617.74712 1.81341-.14901 2.56959-1.49423 1.51134-3.13647 2.72061-5.22778 3.92989-2.39037 1.20927-.29905 3.62683 4.0326 2.26652 2.83843-2.41755 5.07876-5.2892 8.36526-7.4057 1.64324-.75516-.29906-2.2665-.74713-2.72061-.7461-.90621-1.64324-1.66238-2.09131-2.56959-.29804-1.20827-.29804-2.26652 1.04616-1.51135 1.79228.30308 3.43552.75617 4.92975 1.36031 2.24033 1.51135 5.3768 6.19743 4.03261 10.27736 0 .9072.44806 1.3603 1.64324 1.3603 1.04515-.30207 2.24033-.4531 3.2865-.30207 1.04515-.15103.89613-.9062.29803-1.96445-1.49321-3.62782-1.79227-7.40568-2.98745-11.03351-1.94129-1.81341-4.0326-3.47579-5.82487-5.13818.74611-2.72062.89614-5.44124.44808-8.16186-.44808-2.26752 2.38935-1.81341 3.4355-2.11648 7.02005-.60414 13.14497-2.87166 18.22374-6.64951.89614-.75618 1.19517-1.51135 0-1.51135z"/><g fill="#fff"><path d="m330.76315 426.48525c2.09131-1.20928 4.48066-1.96546 6.72201-2.5696 2.53938 1.20928 4.6307 3.47579 6.42296 6.49848-4.48168-.45309-8.81332-.60414-12.54788-1.81341-.74712-.60413-1.49424-1.3603-.59709-2.11547z"/><path d="m341.76545 421.66424c-.14901 1.81442 2.39036 6.19742 3.73457 8.91805 2.09131.4531 4.0336-3.62784 2.53938-9.22011-.59709-2.26652-4.03361-.75517-6.27395.30206z"/><path d="m350.20522 424.37882c-.01297 1.52226.70386 3.20518-.02419 4.4375-1.33638.92036-.52752 2.75798.62229 3.42129.52239.63396 1.10291 1.18486 1.88795 1.45234 1.08396-.13167 2.58805.24287 2.98638 1.06212 1.33782 1.6043 1.4802 3.78306 2.59829 5.71489 1.09505 2.27368.33562 4.85436-1.3334 6.12894-.65727.54402-1.07815 1.39026-2.57691 1.25381-1.97522-.04232-.69824 2.5576.62031 1.18105.73211.18426.64591-.6221 1.34422-.77249.16728-.59644 1.10793-.50687 1.3442-1.20826.70845-.29565 1.0239-.80322 1.19517-1.36032.78351-.34801 1.54074-.73709 2.47459-1.34202.75825-.34532 1.71871-1.59621 2.34513-.97506 1.28398 2.30845-1.97111 2.42374-3.32651 2.92121-.37173 1.72799 3.06988 1.30443 4.18301 2.13487 1.17872.46679 3.65964.74719 4.05186-.37809.92796-1.64942 1.8043-3.37866 2.56014-5.08688 1.94565-1.50086 2.86374 2.56076 4.93909 2.10667 2.07274-.48192 3.64937.90436 5.30615 1.52697 3.14844-.02159 6.3824.16325 9.43335-.75664 1.15194-.27029 2.18858-.7431 2.03305-2.32407.79358-2.21218 2.08037 1.52629 1.60773 2.70166.15782 1.84108-.52104 3.76915.24279 5.51675.86387 1.1048 2.11506 1.90404 3.0833 2.94214.87715.4538 2.13665 2.18397 2.74605 1.73678-.07502-3.30926 1.88882-6.07758 3.40183-8.85008.65751-1.33024 1.31502-2.66047 1.97251-3.99069-.0397-1.96391 1.31387-4.10097-.15003-5.74332-1.23016-.41482-2.15873-1.13831-3.55031-1.41507-3.25768-.65767-6.49751-1.38176-9.74162-2.06822-1.32809-1.08755-3.6624-.28654-4.65189-1.78791-1.49639-.84368-3.58083-.14845-5.16269-.96986-1.62972.27767-2.58366-1.2703-4.12648-1.16462-1.35743-.30459-2.1631.67425-3.29952 1.1789-1.62084.83273-3.66603.50878-5.71247.5047-1.44544-.82182-2.84871-1.6784-3.93707-2.87657-.49671-1.71782-2.38967-2.01807-3.88356-2.43487-1.37376-1.27162-3.9123-.50841-5.43812-1.46499-1.59032-.62299-4.65891-2.96564-5.87919-1.3905-.06181.14597-.12361.29196-.18543.43794z"/></g><path d="m386.09891 435.52613c2.59778 0 4.70621 1.35325 4.70621 3.02369 0 1.66842-2.10843 3.02168-4.70621 3.02168-2.59779 0-4.70421-1.35326-4.70421-3.02168 0-1.67044 2.10642-3.02369 4.70421-3.02369z"/></g><path d="m.21459143 475.87169c53.72130957 46.2626 108.59886857 77.49392 164.34825857 97.39157l-.76087-47.17404c-59.51099-16.86248-97.100179-45.5028-134.674279-78.36978v28.91312z" fill="#340e71" fill-rule="evenodd" stroke="#000" stroke-width="2"/><path d="m588.61724 444.56303-6.99422 34.97114 29.59096.53802c-38.48183 40.24469-90.64814 72.01805-159.25318 93.61504l-1.61405-47.88356c45.73149-9.98484 92.53901-38.28095 138.27049-81.24064z" fill="#340e71" fill-rule="evenodd" stroke="#000" stroke-width="2"/><path d="m103.32548 474.69201 1.07603 52.72571c131.40526 56.09855 266.77244 72.57795 411.04535 0l.53802-53.26372c-160.54591 94.66035-304.85334 65.38382-412.6594.53801z" fill="#340e71" fill-rule="evenodd" stroke="#000" stroke-width="2"/><path d="m104.40151 525.80367c23.01963 24.96286 41.99342 36.4396 60.79598 47.34554" fill="none" stroke="#000" stroke-width="2"/><path d="m450.88477 573.14921c17.64077-10.40211 34.70191-20.00723 63.48606-45.73149l-.53802-.53801" fill="none" stroke="#000" stroke-width="2"/><path d="m217.92072 545.12159c-1.52245 3.8118-3.6547 6.19325-6.54869 7.30515-2.74103.95321-6.39677.95321-11.11811-.47607l-3.19786-.79452c-5.17818-1.58799-8.37707-3.49336-9.74759-5.71717-1.21858-2.22276-.91367-5.55742.91368-10.00399l2.43715-5.71716c1.82736-4.44657 4.11257-7.14646 6.8536-8.41706 2.74102-1.11085 6.70166-.95216 11.87984.47714l2.58909.79346c5.02521 1.42929 8.07114 3.17596 9.44269 5.24108 1.37051 2.22276 1.21755 5.08135-.30491 9.05184l-.45684.79346-10.05248-2.85858.3049-.95216c.45684-1.1119.45684-2.06512 0-2.69989-.45685-.63583-1.52245-1.11191-3.19787-1.58798-1.98032-.63584-3.35083-.63584-4.11257 0-.76174.47607-1.67541 1.74667-2.43715 3.81073l-1.97928 4.60526c-.91369 2.06513-1.21858 3.33573-.91369 4.12919.15195.79452 1.37052 1.58799 3.35083 2.22381 1.67439.47608 3.04594.47608 3.80664.1587.91471-.31739 1.67542-1.11191 2.13226-2.38251l.45684-1.11191 10.35738 3.01727zm35.02971 18.10366-11.42299-2.22276-.30388-5.24109-10.50932-2.06406-3.04593 4.76396-11.27004-2.22276 18.73343-27.47392 15.68648 3.01727zm-11.72687-14.6103-.15297-11.59197-6.39675 10.48112zm48.88883 7.62359c-.60979 4.12813-2.13225 6.82801-4.56939 8.416-2.5891 1.58799-6.24482 2.06512-11.11811 1.58799l-3.35083-.31739c-5.48308-.63477-8.98584-1.90537-10.96513-3.97048-1.82838-2.06408-2.43716-5.39874-1.67542-10.00399l.91368-6.19324c.60878-4.44657 2.28419-7.46385 4.56941-9.21159 2.43612-1.58798 6.39572-2.22276 11.72687-1.58798l2.74103.15975c5.33114.63477 8.98585 1.74668 10.81319 3.65204 1.82839 1.90537 2.58909 4.76396 1.98032 8.73445l-.15193.95215-10.81423-1.11084.15296-.95322c.15194-1.11191-.15296-1.90536-.76174-2.38251-.60877-.63476-1.82735-.95215-3.50276-1.11084-2.13225-.31844-3.50277 0-4.11257.63477-.60877.63583-1.06561 1.90537-1.52245 3.97049l-.6098 4.92264c-.30388 2.22382-.30388 3.65205 0 4.28788.45683.79347 1.82838 1.2706 3.96063 1.58799 1.67439.15869 3.04593 0 3.80664-.47609.76174-.47713 1.21858-1.42928 1.52347-2.85858l.15195-.95321 10.96616 1.11191zm-11.11809 13.65709c-.3049 1.58798-.15296 1.74667-1.21858 2.22276-1.21858.47608-3.04592.63582-5.63501.31738l-6.24482-.63477.45683-3.33466 6.39676.63477c.60981 0 1.06664 0 1.21858-.15869.3049 0 .45683-.31739.45683-.79452.15194-.63478-.3049-.95216-1.21857-.95216l-3.04593-.31738.6098-.95322 3.50277.31739-.3049.63583 1.82734.31738c2.894.15869 3.50278 0 3.1989 2.69989zm50.25935-2.38251-11.7279-.15869-1.52245-5.24109-10.8132-.15868-1.82838 5.08239-11.72687-.15869 11.57494-30.01407 16.14434.15869zm-15.0777-12.22779-3.19889-11.43434-3.50277 11.27565zm52.23864-3.33466c.6098 4.44657-.15194 7.62254-1.97928 9.6866-1.98032 1.90536-5.63605 3.17597-10.96617 3.6531l-19.19027 1.74668-3.95961-30.17276 19.19028-1.58799c5.48308-.47713 9.28972.15869 11.72687 1.74668 2.43716 1.58798 3.80767 4.60525 4.41645 8.89313zm-11.1181.31739-.60877-4.76396c-.3049-2.22382-.76174-3.49442-1.37052-3.97049-.6098-.79347-2.13225-.95321-4.2645-.79347l-6.85359.63478 1.97928 15.24507 6.8536-.47608c2.13225-.31739 3.50379-.63582 3.96063-1.42929.45683-.79452.60878-2.22381.30387-4.44656zm48.432-7.30516c1.21858 4.44657 1.06664 7.78123-.45684 10.00504-1.67541 2.22276-5.17817 3.81074-10.50829 4.76396l-4.72134.95321c-5.33115.95216-9.29075.79346-11.87984-.63583s-4.41645-4.28788-5.78798-8.89313l-1.67542-6.03456c-1.21755-4.28787-1.06561-7.62254.45787-9.84529 1.67438-2.22381 5.17817-3.8118 10.35636-4.76501l4.87327-.95215c5.17819-.95322 9.29076-.79452 11.87985.63476 2.58909 1.2706 4.56838 4.28788 5.78695 8.73445zm-10.96513 1.42929-1.37154-4.60526c-.60877-2.22381-1.21858-3.49335-1.97929-4.12918-.76173-.47607-2.28521-.63477-4.41747-.1587l-1.82735.31739c-2.13225.31845-3.35083.95321-3.80767 1.74668-.30387.79452-.15193 2.22381.45684 4.28787l1.21858 4.60526c.6098 2.22382 1.21857 3.49442 1.98031 3.97049.76174.63478 2.2842.79453 4.41645.31739l1.82735-.31739c2.13225-.47607 3.35083-.95321 3.80766-1.74667.30491-.79452.30491-2.22382-.30387-4.28788zm50.10639.79452-10.66127 2.85753-2.13225-5.39872c-.30386-.95321-.91367-1.74668-1.52244-1.90538-.76174-.31844-1.82736-.15974-3.04594.1587l-4.8743 1.2706 3.35083 8.09862-10.35636 2.69988-11.423-28.74346 14.62189-3.97049c5.33011-1.4293 9.28972-1.90538 11.72688-1.2706 2.89399.47607 4.87327 2.3825 6.09185 5.55847l.91367 2.22276c1.37052 3.33571.45685 6.03455-2.58909 7.78122 1.98032 0 3.50278.31845 4.72135.95321 1.06664.79453 1.98031 1.90538 2.74103 3.65311zm-17.66679-15.08638-.45684-1.11191c-.45684-1.1119-.91368-1.74667-1.67541-1.90642-.60878-.31738-1.67542-.1587-3.04594.15975l-4.72134 1.26954 2.58909 6.51169 4.72135-1.2706c1.37051-.31739 2.28419-.79452 2.58909-1.2706.45684-.47607.30489-1.2706 0-2.38145z" fill="#e6e6e6"/><path d="m67.689661 496.06508-1.25003 1.95611-6.39786-4.18419c.54176-.69163 1.19453-1.25782 1.9672-1.69189.76935-.43629 2.01384-.8637 3.73348-1.29111 1.38658-.34193 2.27249-.6117 2.66105-.80598.52843-.26977.92809-.61725 1.20008-1.04244.29752-.46626.41964-.89923.36191-1.29444-.05884-.39633-.28087-.71939-.66498-.97139-.37968-.24757-.76601-.31418-1.16123-.19761-.39411.11879-.80487.47182-1.23339 1.06353l-1.683-1.39991c.85038-1.08574 1.71631-1.6941 2.61443-1.82732.89145-.12878 1.76626.08548 2.62441.64722.94253.61392 1.492063 1.39103 1.653033 2.32467.1643.93587-.02997 1.83621-.58616 2.70546-.316403.49513-.691633.91144-1.133483 1.25892-.43851.34748-.98027.65833-1.62527.9281-.42741.17762-1.12459.38633-2.08821.61613-.96473.23092-1.58975.40077-1.87284.50069-.27754.09658-.52732.2076-.74492.33526zm1.814-.04218 1.956113.97583c-.249793.50512-.336383.98027-.255343 1.42544.07771.44407.279763.77489.613923.9936.37967.24756.81929.28087 1.3111.09769.4918-.18318.96916-.63612 1.42766-1.3555.43074-.67276.62169-1.26115.57173-1.77293-.0444-.50845-.27754-.89923-.69718-1.17455-.52177-.34193-1.16344-.38078-1.92168-.11989l-1.322203-1.21674 4.586063-5.09785 4.82587 3.15618-1.25892 1.9672-3.44483-2.25029-1.4754 1.67745c.55841.03109 1.04799.18318 1.47318.46183.81042.53065 1.28002 1.31887 1.40546 2.36353.12989 1.05021-.1532 2.11374-.84483 3.19726-.57506.90367-1.31665 1.56199-2.22476 1.97275-1.23893.56396-2.40571.48625-3.505883-.23313-.87814-.57507-1.42322-1.31665-1.6286-2.22254s-.07216-1.85619.40853-2.84534zm-39.37846-17.88689 3.51476 2.29692c.78822.51734 1.34996.98138 1.67412 1.39436.43963.55286.70051 1.20341.78933 1.95055.09214.74159.01443 1.53313-.22203 2.37019-.24424.83817-.69163 1.7696-1.34996 2.79982-.57839.90256-1.17233 1.6164-1.78624 2.14483-.74492.64389-1.49761 1.06686-2.25585 1.26891-.57284.15876-1.20896.15543-1.91169-.00555-.52178-.12211-1.13903-.41631-1.84953-.88035l-3.61468-2.36353zm.73382 3.11067-4.64269 7.27043 1.43321.9392c.53621.3497.94475.56951 1.23117.65499.36968.11435.72272.13433 1.06686.05329.34415-.08104.73604-.3275 1.1801-.73049.44185-.40854.9392-1.03689 1.48096-1.88394.54175-.84927.89145-1.54201 1.05354-2.08044.15764-.54175.20538-1.01357.13322-1.42211s-.25867-.77267-.56174-1.09795c-.22204-.24645-.72494-.62502-1.51093-1.13569zm1.86395 14.14898 7.01399-10.97615 7.05617 4.61716-1.18565 1.8584-5.13671-3.35823-1.55311 2.43347 4.77813 3.1251-1.1801 1.8473-4.77813-3.12509-1.90947 2.98632 5.31766 3.47813-1.18343 1.84953zm12.53925 8.20297 7.0151-10.97504 2.87531 1.88061-3.05627 8.62039 6.48999-6.37343 2.88309 1.88616-7.01177 10.97615-1.78624-1.16678 5.52304-8.64259-7.41143 7.40365-1.85285-1.20896 3.6391-9.87265-5.52082 8.63926zm19.6909 12.87895-2.09154-1.3666.76157-3.03851-3.80674-2.48898-2.37796 1.98053-2.03825-1.3333 10.7197-8.55156 2.03381 1.33108zm-.76379-6.6554 1.2889-4.93355-3.8889 3.23278zm1.78958 7.32483 7.011773-10.97503 4.04764 2.64661c1.01579.66721 1.69077 1.25004 2.02715 1.7474.33415.49735.4807 1.09239.43629 1.77514-.04663.68941-.27532 1.35328-.6883 2.00384-.52844.82152-1.17233 1.3666-1.93723 1.62749-.75824.25867-1.60529.18873-2.53005-.21981.23868.55286.38634 1.08685.44184 1.5953.05551.514.04108 1.3444-.04773 2.49675l-.20316 2.90306-2.29692-1.50315.13655-3.29718c.05217-1.17787.05551-1.93278.01665-2.27804-.03886-.34193-.13655-.61614-.28642-.83262-.1532-.21759-.4474-.46738-.889243-.75602l-.38855-.25534-2.92861 4.58052zm5.969333-5.07454 1.42211.92698c.92254.60282 1.52536.9392 1.81178 1.00026s.56618.01998.83595-.11324c.27199-.13322.51178-.36413.72271-.69496.23869-.36968.3386-.72271.31418-1.06353-.02554-.33971-.17541-.63945-.4474-.90589-.1421-.12212-.60281-.44406-1.38103-.95252l-1.49983-.98138zm12.29834 11.30364 1.42767 1.89727c-1.05244 1.01135-2.09377 1.59196-3.13065 1.73851-1.03356.14765-2.06712-.11324-3.08625-.78045-1.26336-.82707-1.98385-2.00494-2.1637-3.53363-.1754-1.52758.28642-3.15508 1.38881-4.88026 1.16678-1.82844 2.48343-2.97856 3.94773-3.45593 1.4643-.47515 2.86088-.27532 4.19418.59727 1.16456.76046 1.85619 1.77514 2.07822 3.04405.13655.75269.02775 1.63971-.3164 2.66105l-2.23919-.7216c.25312-.645.3053-1.24449.15875-1.81178-.14765-.56063-.47847-1.01135-.98693-1.34107-.70495-.46405-1.46652-.54731-2.27804-.2509-.81042.29753-1.63638 1.10017-2.47233 2.40683-.88591 1.38881-1.30222 2.51673-1.24449 3.39153.05551.86926.43074 1.53313 1.12237 1.98608.51401.33638 1.0702.43629 1.67856.29974.60504-.12989 1.24671-.54953 1.92169-1.24671zm-8.54823 4.41178.5673-.88369c.41075.34415.80264.64167 1.17232.88369.38856.252.72494.35747 1.01358.32194.21648-.02775.38633-.13655.50845-.32527.1088-.16986.13655-.36081.08326-.57174-.0555-.21426-.22425-.41186-.50845-.59504-.27754-.18096-.59171-.31973-.94141-.40521l.64167-.6339c.42186.08881.82818.25534 1.22006.51178.54176.35525.86371.76046.97139 1.21896.10658.45849.03109.88591-.22203 1.28112-.27976.43852-.66054.69163-1.15012.76379-.65833.09992-1.37993-.10546-2.16371-.61725-.55841-.36635-.95584-.68274-1.19231-.94918zm12.55702-3.75345c.71383-1.12015 1.45874-1.96165 2.23364-2.53116.57173-.41631 1.18898-.72716 1.8473-.92477.65833-.19761 1.27779-.26089 1.86174-.18317.77711.09658 1.552.40298 2.33022.90811 1.39991.91921 2.20367 2.1526 2.40572 3.70904.19983 1.552-.26977 3.22168-1.41101 5.00793-1.13348 1.77514-2.4368 2.88419-3.91443 3.33936-1.47207.45294-2.91083.22536-4.3063-.6883-1.41657-.92588-2.22476-2.16481-2.42459-3.70349-.19761-1.54424.26089-3.18949 1.37771-4.93355zm2.02493 1.21895c-.79377 1.24449-1.14458 2.35021-1.05799 3.31716.08882.96695.51623 1.70076 1.28335 2.20033.76712.50069 1.59752.59727 2.49786.28088.89368-.3164 1.74961-1.10905 2.56335-2.38352.80376-1.25559 1.16456-2.3502 1.08352-3.28385-.08326-.93031-.52177-1.65525-1.31332-2.17258-.79265-.51955-1.63415-.62502-2.51784-.31417-.88258.30862-1.72963 1.09239-2.53893 2.35575z" fill="#e6e6e6"/><path d="m530.9136 500.71938 4.21069-3.0156c.94859-.67926 1.7155-1.14488 2.30803-1.39869.79247-.34054 1.58494-.50214 2.37742-.48388.79338.0137 1.54294.19173 2.24868.52954.70573.34328 1.39138.8938 2.06243 1.65432.58796.66739.97781 1.32748 1.17045 1.97845.23464.79247.25108 1.56302.03835 2.30711-.15247.56422-.50214 1.16589-1.04628 1.80771-.40628.47932-1.03442 1.02346-1.88897 1.63333l-4.33212 3.10507zm3.51134-.27481 4.73384 5.37384 1.72098-1.23162c.64183-.46106 1.08461-.81804 1.32474-1.07551.31498-.33414.5277-.66738.6327-1.00336.10956-.33598.0776-.74044-.084-1.21792-.16708-.47294-.52588-1.02529-1.07641-1.65342-.55327-.62905-1.05541-1.05085-1.50552-1.27727-.45466-.22368-.90294-.32958-1.34847-.31772-.44737.01369-.91299.14152-1.40509.38619-.36519.17621-1.01616.60075-1.95744 1.27453zm15.15648.13968-7.14868-8.11735 8.4579-6.05858 1.21062 1.37313-6.15443 4.40881 1.58312 1.80041 5.72716-4.10296 1.20423 1.36583-5.72716 4.10387 1.94648 2.20852 6.37174-4.56676 1.20604 1.36857zm-4.13765 19.4877-2.18569 1.5676-5.16567-5.86503c-.32959 1.10563-.92303 2.1729-1.78671 3.20367l-1.24258-1.41239c.45467-.53867.85364-1.23618 1.19692-2.08527.34237-.85272.41997-1.61324.23099-2.28702l1.77484-1.27088zm1.6662-4.25179 1.96932-1.6808c.32136.2666.65734.39715 1.00519.38802.34694-.00912.69843-.13969 1.05724-.39714.45285-.32503.70573-.74774.76143-1.26632.05934-.52496-.27663-1.28183-1.01068-2.27516-.1479.84725-.63726 1.56759-1.45986 2.15921-.8993.64366-1.89353.95042-2.97634.9276-1.08736-.0274-1.97662-.43459-2.67322-1.22523-.72673-.82443-.96412-1.73377-.71943-2.73166.24194-.99424.89746-1.87619 1.95744-2.6367 1.15858-.82991 2.38745-1.19054 3.69485-1.08554 1.30192.10499 2.59471.88468 3.87929 2.34181 1.30922 1.48543 1.86157 2.83573 1.66984 4.04635-.19628 1.20879-.9139 2.25964-2.15647 3.14798-.89108.64-1.75932.98511-2.60931 1.04171-.84543.05752-1.64521-.19446-2.38929-.75413zm1.95561-6.94508c-.4437-.50214-.94859-.77694-1.51464-.81986-.5697-.04839-1.06728.08673-1.49273.39077-.40354.29033-.64183.64365-.70756 1.05996-.06848.41815.12508.88652.58248 1.40509.46107.52315.94768.80435 1.45256.84086.50488.03835.97598-.0986 1.41239-.41175.41998-.30129.67104-.67379.75139-1.11476.08217-.4428-.08217-.8929-.48389-1.35031zm6.54064.40263 1.95562-1.69541c.40627.33323.84542.49757 1.32291.48661.47293-.0073.92029-.15977 1.343-.46196.45011-.32411.72218-.71944.8153-1.18324.09221-.46562-.04108-.90202-.40354-1.31561-.34785-.39075-.766-.59618-1.26357-.61261-.49848-.01826-.95955.12599-1.385.43184-.27846.19903-.57974.47749-.90203.83356l-.87282-1.43887c.59893-.41358.97051-.82899 1.11294-1.24531.13877-.41541.0703-.78608-.21273-1.10745-.24011-.27481-.5487-.40903-.91846-.4072-.36977 0-.74957.13695-1.12663.4072-.37432.26932-.6117.58887-.7103.9641-.105.37433-.02922.76053.22368 1.15312l-2.22768 1.20148c-.29216-.59162-.42638-1.13301-.40172-1.63059.02282-.49393.21729-1.00977.57336-1.54021.3588-.52953.84999-1.02072 1.4763-1.46899 1.07823-.77239 2.1519-1.14488 3.23014-1.12207.88377.01643 1.55116.27481 1.99213.77696.62814.71304.58249 1.67259-.13968 2.88138.74043-.36794 1.45804-.51857 2.15738-.45466.69387.06847 1.26083.34693 1.6945.83811.62631.71305.79338 1.5813.50763 2.60658-.29033 1.02346-.98055 1.93097-2.06975 2.70974-1.03258.74044-2.0743 1.14032-3.12788 1.20606-1.05268.06665-1.93006-.20542-2.6431-.81256zm15.12909-7.32306-1.43704-1.63333-4.67266 3.34518-1.19967-1.36218.41359-8.70167 1.8351-1.31652 4.5348 5.15015 1.41604-1.01433 1.20424 1.36857-1.41423 1.01433 1.43704 1.63059zm-2.64401-3.0019-2.44223-2.77274-.17986 4.65075z" fill="#e6e6e6"/><g stroke="#000"><path d="m163.45149 157.61703c-6.14646 2.96127-10.0981-3.85004-4.09764-7.25521 101.41511-40.71893 200.7804-45.60572 299.12277-2.22144 3.80467 1.77656 2.48778 9.18072-1.31689 7.99602-101.12213-43.53224-198.73256-39.2383-293.70824 1.48063z" fill="#fff" stroke-width="1.7771"/><path d="m464.20665 138.26528c4.15793 2.41176 1.07166 8.6652-3.36971 6.59418-4.85145.98158-7.09694-2.98868-9.52199-2.87047-69.03393-28.93102-146.97762-35.38875-219.97519-19.12357-26.01966 5.66467-48.86059 11.75058-74.56591 23.45437-2.19218 3.31614-8.04136 2.91435-9.20211.10322-1.69247-2.82114.33395-6.14433 4.2119-8.05638 78.40283-32.48451 167.31592-43.365567 246.10916-24.03475 22.68898 5.53636 44.78481 13.39098 65.90546 23.35626m-.0069-.00296c.02121.00847.07083.03625 0 0z" fill="#fff" stroke-width="1.7771"/><path d="m104.497 37.0602c.1335-.0751.1928-.2101.178-.3753" fill="none" stroke-width=".180154" transform="matrix(9.8643227 0 0 9.8643227 -573.71822 -218.28863)"/><path d="m105.44 36.3867 3.694-6.6346.831-.6004.415.1801 1.321-1.0958-.712-.4203-.549.5404-.831-.5404.297-.4203-1.128-.6004-.356.6605-.668-.3003.119-.6604-1.009-.4353-.237 1.5761.475.8406-4.881 6.4095z" fill="#fff" stroke-width=".180154" transform="matrix(9.8643227 0 0 9.8643227 -573.71822 -218.28863)"/><path d="m111.443 28.1044-1.023.8406-.653-.1201-1.068.7205-1.855 3.1522-3.694 2.5218 2.315 1.0808 3.649-6.5746.846-.6305.4.2252 1.291-1.1108z" stroke-width=".180154" transform="matrix(9.8643227 0 0 9.8643227 -573.71822 -218.28863)"/><path d="m94.5301 33.0195 3.16-7.1751-.2226-.6154-.3263-.1351-.4748-1.8013 1.3055.2852.2374.7205.9346.2252.2819-.6605 1.2162.3302v.6605l.831.1952.564-.5254 1.216.3752-1.023 1.381h-.564l-.371.2252-.43 7.8805z" fill="#fff" stroke-width=".180154" transform="matrix(9.8643227 0 0 9.8643227 -573.71822 -218.28863)"/><g stroke-width=".180154" transform="matrix(9.8643227 0 0 9.8643227 -573.71822 -218.28863)"><path d="m95.7872 33.1991 2.6111-3.0622 1.1126 3.9478z"/><path d="m95.7872 33.1991 2.6111-3.0622 1.1126 3.9478z"/></g><path d="m101.262 26.4097-.371 7.9256-.801-.1802.609-8.2257 1.261-.1351.741-1.0808.535.2101-.965 1.306-.578-.0301z" stroke-width=".180154" transform="matrix(9.8643227 0 0 9.8643227 -573.71822 -218.28863)"/><path d="m93.1383 32.8848-1.9731-7.6554.6528-.6155h.5044l.6527-1.516-1.3352-.1801-.4302.8255-1.0385-.1351-.1632-.6454h-1.3352l-.1335.6905h-1.083l-.5044-.6905h-1.3352l.905 1.6511.5044.0451.6973.6154-1.4242 7.6404z" fill="#fff" stroke-width=".180154" transform="matrix(9.8643227 0 0 9.8643227 -573.71822 -218.28863)"/><g stroke-width=".180154" transform="matrix(9.8643227 0 0 9.8643227 -573.71822 -218.28863)"><path d="m91.0574 32.7501-1.7506-3.5275-1.8099 3.6025z"/><path d="m91.0574 32.7501-1.7506-3.5275-1.8099 3.6025z"/></g><path d="m93.1383 32.8848h-.9346l-1.7654-7.9256.7269-.5104.8159-.09.5193-1.351.4302.045-.6082 1.4711-.5935.045-.5785.6755z" stroke-width=".180154" transform="matrix(9.8643227 0 0 9.8643227 -573.71822 -218.28863)"/><path d="m84.8323 33.0644-6.3644 1.501-.534-7.7304-1.0534-.5254-.4895.1801-1.1869-1.3809 1.2314-.3153.4896.5854 1.0088-.3152.0445-.6754 1.6319-.4354.3412.6155.8011-.0901.1335-.8406 1.3204-.1801-.2671 1.8313h-.4005l-.2226.9757z" fill="#fff" stroke-width=".180154" transform="matrix(9.8643227 0 0 9.8643227 -573.71822 -218.28863)"/><path d="m83.9571 33.1847.8752-.2101-3.5605-6.7548.2671-1.0207.356.045.3116-1.7862-.6231.045-.0445 1.5161-.6973.3152-.3115.9306z" stroke-width=".180154" transform="matrix(9.8643227 0 0 9.8643227 -573.71822 -218.28863)"/><g stroke-width=".180154" transform="matrix(9.8643227 0 0 9.8643227 -573.71822 -218.28863)"><path d="m79.8039 34.097.6082-3.9478 2.5962 3.2423z"/><path d="m79.8039 34.097.6082-3.9478 2.5962 3.2423z"/></g><path d="m76.7509 34.95-5.3111-6.2744.178-.3452.2077-.3603-.1187-1.6511-1.0681.4052.0445.7956-.6973.2702-.4006-.5704-.8307.4803.267.5854-.6676.3603-.4747-.5404-.9792.5704 1.3204 1.0808.5341-.2252.9198.4053 3.6495 6.4245z" fill="#fff" stroke-width=".180154" transform="matrix(9.8643227 0 0 9.8643227 -573.71822 -218.28863)"/><g stroke-width=".180154" transform="matrix(9.8643227 0 0 9.8643227 -573.71822 -218.28863)"><path d="m75.3142 35.4888-3.8573-2.4918 1.9287 3.3774z"/><path d="m75.3142 35.4888-3.8573-2.4918 1.9287 3.3774z"/></g><path d="m76.7509 34.95-.6528.2552-5.1924-6.4395.4896-.7055-.1335-1.6962.445-.1051.1632 1.6212-.4302.7205z" stroke-width=".180154" transform="matrix(9.8643227 0 0 9.8643227 -573.71822 -218.28863)"/><path d="m73.1591 30.8644.4154-.2252-.2374-.7055.6676-.2551.3561.6754.5786-.2551-.1632-.7356.7417-.2251.2819.6004.6973-.2251-.1632-.7055.7863-.1952.3264.6605.5934-.0601" fill="#fff" stroke-width=".180154" transform="matrix(9.8643227 0 0 9.8643227 -573.71822 -218.28863)"/><path d="m87.2568 27.5869h-.3116l-.1038-.8106-.8011.0901.0148.8106-.7121.1201-.2077-.8106-.8604.1201.0445.7055-.7121.1201-.2226-.7656-.6824.1501.089.7355-.6527.1802" fill="#fff" stroke-width=".180154" transform="matrix(9.8643227 0 0 9.8643227 -573.71822 -218.28863)"/><path d="m91.6118 27.4971.3857.0901.1187-.7355.7566.06-.0148.8106.6231.09.1928-.8255.7863.12-.0297.8106.6231.0901.2077-.8256.7715.1351-.0297.7805.6379.0451" fill="#fff" stroke-width=".180154" transform="matrix(9.8520646 -.4916154 .4916154 9.8520646 -585.57686 -172.18202)"/><path d="m100.95 29.0236.624.2102.415-.6905.667.2702-.222.6754.668.2852.385-.7505.653.3002-.208.7205.698.2552.371-.7505.623.2702-.282.7505.104.045" fill="#fff" stroke-width=".180154" transform="matrix(9.8643227 0 0 9.8643227 -573.71822 -218.28863)"/><path d="m72.7589 34.8454-.0768-.1784 1.0263-.4388 1.0295-.4121 1.0333-.3844 1.0364-.357 1.0394-.3297 1.0422-.3018 1.0447-.2747 1.0475-.2472 1.0493-.2192 1.0513-.1915 1.0535-.1639 1.0548-.1361 1.0565-.1084 1.0577-.08 1.0585-.0522 1.0596-.0242 1.06.0038 1.0604.0319 1.061.06 1.0611.0886 1.0606.1163 1.0607.1451 1.0602.1734 1.059.2021 1.0587.2302 1.0567.2586 1.056.2876 1.055.3162 1.052.3448 1.051.3734 1.049.4023 1.047.4314-.075.1792-1.042-.4292-1.044-.4007-1.047-.372-1.048-.3432-1.05-.3146-1.0511-.2862-1.0526-.2578-1.0533-.2294-1.0546-.2007-1.0548-.1726-1.0555-.1443-1.056-.1163-1.0559-.0878-1.0558-.06-1.0558-.0319-1.0554-.0038-1.0544.0242-1.0539.0522-1.0525.08-1.0513.1076-1.0502.1353-1.0483.1631-1.0467.1909-1.0449.2184-1.0421.2456-1.0403.2733-1.0376.301-1.0348.3281-1.032.3556-1.0287.3828-1.0257.4097z" fill="none" stroke-width=".180154" transform="matrix(9.8643227 0 0 9.8643227 -573.71822 -218.28863)"/><path d="m71.3401 32.8551-.0844-.1746 1.0556-.5041 1.072-.4732 1.0866-.4422 1.101-.4119 1.1138-.3805 1.1257-.3496 1.1361-.3183 1.1453-.2873 1.1539-.2555 1.1611-.2244 1.1673-.1925 1.1721-.1608 1.1756-.1287 1.1785-.0972 1.1801-.0647 1.1805-.0327 1.1794-.0004 1.1779.032 1.1749.0644 1.1707.0974 1.1655.1296 1.159.1629 1.152.1961 1.1429.2288 1.133.2623 1.1228.2955 1.11.3289 1.097.3624 1.083.3963 1.067.4301 1.051.4643 1.033.4977-.086.1746-1.027-.4955-1.045-.4613-1.061-.4277-1.077-.3941-1.092-.3608-1.104-.3273-1.117-.2941-1.1278-.2607-1.1375-.228-1.146-.1947-1.1538-.1621-1.1601-.1296-1.1655-.0966-1.1697-.0644-1.1725-.032-1.175.0004-1.1751.0327-1.1749.0647-1.1733.0964-1.171.1287-1.1669.16-1.1619.1917-1.1559.223-1.1487.2547-1.1407.2857-1.1309.3169-1.1203.348-1.1086.3791-1.0956.4095-1.0822.4406-1.0666.471z" fill="none" stroke-width=".180154" transform="matrix(9.8643227 0 0 9.8643227 -573.71822 -218.28863)"/><path d="m146.17511848465 87.05359758466-21.65813651309 9.77258449889" fill="none" stroke-width="1.7770971917"/><path d="m140.41827016396 79.96705829266-19.75626550356 9.77258449889" fill="none" stroke-width="1.7770971917"/><path d="m135.98920900031 72.88151529725-19.46327539072 9.47666468221" fill="none" stroke-width="1.7770971917"/><path d="m129.78457961498 67.12665956975-17.41451475187 8.58789907127" fill="none" stroke-width="1.7770971917"/><path d="m131.56015770098 59.15235096339-27.80459598746 13.47367837593" fill="none" stroke-width="1.7770971917"/><path d="m226.33658993122 30.36528816366-41.70738226516 10.66037354189" fill="none" stroke-width="1.7770971917"/><path d="m224.1220198921 37.89374911262-30.43932698766 7.25520934585" fill="none" stroke-width="1.7770971917"/><path d="m225.89361279173 46.01504599153-30.43932698766 7.40316432203" fill="none" stroke-width="1.7770971917"/><path d="m230.32274300565 52.95360071439-34.68294874888 7.99504341267" fill="none" stroke-width="1.7770971917"/><path d="m234.01200955977 60.18612211803-37.17078025543 8.73585404744" fill="none" stroke-width="1.7770971917"/><path d="m419.4316537587 68.00952631572-39.36555259889-8.73584418312" fill="none" stroke-width="1.7770971917"/><path d="m383.55908742085 51.62291344648 37.60868713305 8.73683061539" fill="none" stroke-width="1.7770971917"/><path d="m420.7633373232 51.62291344648-33.95397530135-7.99502368403" fill="none" stroke-width="1.7770971917"/><path d="m389.75875505186 37.00793293416 32.05020047754 7.55212545912" fill="none" stroke-width="1.7770971917"/><path d="m424.3046291725 38.33862020207-37.46072229255-8.1439749568" fill="none" stroke-width="1.7770971917"/><path d="m466.81985 83.067421 23.41791 10.365433" fill="none" stroke-width="1.7771"/><path d="m72.0643 33.6335-.0806-.1768 1.0512-.4752 1.0594-.4459 1.0673-.4171 1.0747-.3885 1.081-.3592 1.0867-.33 1.0922-.3003 1.0972-.2716 1.101-.2417 1.1048-.2125 1.1078-.1826 1.1096-.153 1.1118-.1228 1.1128-.0934 1.1132-.063 1.1128-.033 1.112-.0029 1.111.0274 1.1091.0576 1.1066.0885 1.1033.1185 1.0996.1495 1.0953.1802 1.0902.2113 1.0847.2418 1.079.2731 1.071.304 1.065.3353 1.056.3668 1.047.3978 1.039.4295 1.029.4611-.081.1768-1.023-.4587-1.034-.4273-1.042-.3962-1.051-.3646-1.059-.3337-1.066-.3026-1.0736-.2715-1.0795-.241-1.085-.2099-1.0899-.1794-1.0944-.1487-1.0981-.1185-1.1012-.0877-1.1039-.0576-1.1058-.0274-1.1074.0029-1.1082.033-1.108.063-1.1076.0926-1.1064.1228-1.1052.1522-1.1024.1818-1.0996.2111-1.0964.2409-1.092.27-1.0876.2997-1.0823.3284-1.0764.3576-1.0695.3863-1.0627.4155-1.055.4445z" fill="#fff" stroke-width=".180154" transform="matrix(9.8643227 0 0 9.8643227 -573.71822 -218.28863)"/><path d="m472.1367299448 76.42477014677 21.800153167 10.06852404421" fill="none" stroke-width="1.7770971917"/><path d="m476.5658108371 70.22406676187 20.6361630884 9.62462952271" fill="none" stroke-width="1.7770971917"/><path d="m481.8826807724 63.58142199137 19.1663790061 9.62365295477" fill="none" stroke-width="1.7770971917"/><path d="m478.6274542814 54.27740268505 31.0331592142 14.51140512397" fill="none" stroke-width="1.7770971917"/><path d="m279.45446 24.294389 55.92407-.760871" fill="none" stroke-width="1.777"/><path d="m291.62841 30.761798h29.67399" fill="none" stroke-width="1.777"/><path d="m290.10667 38.370514h33.85878" fill="none" stroke-width="1.777"/><path d="m288.96536 45.218359h36.90227" fill="none" stroke-width="1.777"/><path d="m287.44362 53.207511h39.56532" fill="none" stroke-width="1.777"/></g></g></svg>