<svg enable-background="new -0.3779297 -0.7226563 501 501" height="501" viewBox="-.3779297 -.7226563 501 501" width="501" xmlns="http://www.w3.org/2000/svg"><g clip-rule="evenodd" fill-rule="evenodd"><path d="m250.5473633 0c137.3393555 0 249.4526367 112.1113281 249.4526367 249.5869141 0 137.3417969-112.1132813 249.5908203-249.4526367 249.5908203-137.4760742 0-249.6557617-112.2490234-249.6557617-249.5908203 0-137.475586 112.1796875-249.5869141 249.6557617-249.5869141z" fill="#f10"/><path d="m250.5473633 7.0151367c133.4282227 0 242.4370117 109.0078125 242.4370117 242.5717773 0 133.5634766-109.0087891 242.5058594-242.4370117 242.5058594-133.6308594 0-242.6401367-108.9423828-242.6401367-242.5058594 0-133.5639648 109.0092773-242.5717773 242.6401367-242.5717773z" fill="#fff"/><g fill="#f10"><path d="m435.2431641 289.1826172 36.6289062 9.4453125-7.2871094 26.578125-6.4765625-1.7558594 5.3320313-18.9541015-7.5566406-2.0888672-4.6542969 17.2695312-6.6787109-1.6894531 4.65625-17.2695313-9.3095704-2.3613281-5.5322265 19.6308594-6.3398438-1.7558594z"/><path d="m439.0185547 269.8232422.8789062-17.1982422 37.6396484 2.0898438-.8085938 18.5478516c-.2685547 2.2275391-.8779297 4.65625-1.4169922 5.8007813-1.2138672 1.6894531-2.6308594 3.1064453-3.7783203 3.6455078-1.2138672.9443359-2.9003906 1.4833984-4.3173828 1.4833984-4.6533203-.3388672-7.5537109-2.0224609-8.4316406-5.1289063-.875 1.6894531-2.0224609 3.3730469-3.7783203 4.2509766-1.7539063 1.2167969-3.7763672 1.4169922-6.0712891 1.4169922-1.8193359-.2001953-3.5058594-1.078125-4.5869141-1.7558594-1.2138672-.5390625-2.6972656-2.0224609-3.2363281-3.0341797-.5390625-1.2109375-1.4169922-2.6953125-1.7529297-4.4511719-.3398436-1.6884766-.3398436-3.7783203-.3398436-5.6669922z"/><path d="m450.6904297 215.3193359 25.1601563-1.5512695.3369141 8.4321289-24.6220703 1.4833984c-1.7529297 0-3.5751953.2695313-4.6533203.8764648-1.2138672.8779297-1.7529297 1.7548828-2.0224609 2.6313477-.3388672.8095703-.5419922 2.0239258-.5419922 3.1030273.203125 4.6552734 3.1035156 7.015625 7.7568359 7.015625l24.6240234-1.4838867.6064453 8.3642578-24.8916016 1.5517578c-2.6308594 0-4.9921875-.675293-6.7451172-.8779297-1.6865234-.8769531-3.4394531-2.3603516-4.5869141-3.2368164-1.2138672-1.4169922-2.0927734-3.1035156-2.6308594-4.9912109-.3369141-1.6865234-.6083984-3.9799805-.8759766-6.0039063 0-2.293457.2675781-4.9912109.8759766-7.2182617.8779297-2.4282227 2.2919922-4.6533203 3.9804688-5.8691406 1.8867188-1.1459961 4.6542969-2.2255859 7.890625-2.2255859z"/><path d="m428.9003906 186.5834961 36.5625-9.8491211 1.9560547 7.8251953-29.546875 7.8251953 4.9257813 18.2797852-6.8789063 1.6865234z"/><path d="m430.9257813 143.0742188c2.6308594-1.1474609 5.1923828-1.6865234 7.5546875-2.2270508 2.2919922-.3359375 4.9921875.2026367 6.6787109.8100586 2.2919922.5400391 4.3144531 1.7529297 5.7314453 3.1699219 1.7558594 1.4848633 3.7783203 3.440918 4.65625 5.4633789 1.4833984 2.6323242 2.0224609 5.5317383 2.0224609 8.0961914 0 2.6977539-.8076172 5.3286133-2.0224609 7.284668-1.0800781 2.0239258-2.9003906 4.3842773-4.8564453 5.262207l-3.5751953-7.015625c3.2363281-2.8334961 4.4501953-6.3413086 2.6972656-9.8486328-1.4833984-2.5629883-3.5751953-4.5874023-6.3398438-5.1274414-2.9003906-.3364258-6.6787109.5400391-10.4580078 2.2265625v.3378906c-1.7529297.8764648-3.7753906 2.293457-5.328125 3.4394531-1.078125 1.215332-1.9560547 3.440918-2.2255859 4.6547852-.5390625 1.7534179-.3359375 3.7773437.5390625 5.1943359 2.0253906 4.3837891 5.2617188 5.8007813 9.9189453 4.6547852l3.4394531 7.0151367c-2.5644531.5390625-5.5322266.8100586-7.8935547.5390625-2.2255859 0-4.6533203-1.2138672-6.5429688-2.6308594-2.0917969-1.4169922-3.7783203-3.7773438-5.3291016-6.340332-1.4169922-2.9003906-2.0253906-6.0717773-2.0253906-8.972168 0-2.8994141.9453125-6.1376953 2.9013672-8.4311523 2.0253906-2.3613281 5.53125-4.9257813 9.0400391-6.6787109.2695313-.3364258.8779297-.5405273 1.078125-.5405273z"/><path d="m364.2109375 98.418457 24.7568359-28.602539 6.0039063 5.4648437-19.9677734 23.1376953 14.1669921 12.2089844-4.65625 5.4638672z"/><path d="m337.5664063 61.9238281.6748047-1.2138672c1.9560547-3.4394531 4.6542969-6.3417969 6.8798828-8.0947266 2.6308594-2.0239258 5.8671875-2.9003906 8.9707031-3.1035156 3.2392578 0 7.015625.8769531 10.4580078 2.8339844 2.0888672 1.1459961 3.7753906 2.9003906 5.1923828 4.3842773 1.4833984 1.7543945 2.6972656 3.9799805 3.2363281 6.0703125.5419922 2.3618164.5419922 5.1958008 0 7.5556641-.3359375 2.9008789-1.4833984 5.8012695-3.2363281 8.9711914-1.4169922 2.3618164-3.7783203 4.9248047-5.1923828 6.3417969-2.0253906 1.7543945-4.3183594 2.9003906-6.3427734 3.4404297-2.6289063.6738281-4.9902344.6738281-7.21875 0-2.4277344-.2026367-4.9892578-1.0805664-7.2841797-2.5639648-2.9003906-1.7543945-5.4628906-4.3178711-7.015625-6.9472656-1.3476563-2.5644531-2.2255859-5.8022461-2.0224609-8.703125.3359374-2.8989258 1.2138671-6.0708008 2.9003906-8.9711915z"/><path d="m311.7978516 70.6938477-15.8535156-6.2070313 13.5585938-35.2788086 17.0673828 6.6108398c2.3613281.8764648 4.3173828 2.3603516 5.53125 3.2382813 1.1474609 1.4155273 2.0224609 3.4394531 2.0224609 4.6538086.5419922 1.3486328.5419922 3.440918.3388672 4.8579102-1.7529297 4.0463867-4.453125 6.4746094-7.5566406 6.4746094 1.4169922 1.0795898 2.5644531 2.765625 2.9033203 4.5869141.2001953 1.9560547.2001953 4.3173828-.6748047 6.4082031-.5419922 1.6865234-1.8896484 2.7670898-3.1035156 3.7773438-.8779297.8779297-2.3613281 1.9570313-3.7783203 1.9570313-1.484375.2695313-2.9013672.6069336-4.6542969.2695313-1.6865235-.2695315-3.7783204-.8100588-5.8007813-1.348633z"/><path d="m262.8916016 60.5068359 5.2617187-37.4375 27.116211 3.7773438-.875 6.6787109-19.631836-2.5644531-.875 7.4208984 17.6064453 2.6977539-.8779297 6.6108399-17.6064453-2.6308594-1.3505859 9.9838867 20.1708984 2.765625-.8779297 6.6777344z"/><path d="m240.0913086 61.0473633-1.7543945-30.9628906-11.331543.5405273-.2026367-6.6791992 30.6240234-1.4155274.3388672 6.3403321-11.3330078.8779297 1.7543945 30.7583007z"/><path d="m193.1420898 55.8535156-6.0708008-24.3520508 8.0947266-2.0917969 6.0708008 23.7460938c.3374023 1.8876953 1.1459961 3.5742188 2.0239258 4.4506836.8764648.8779297 1.7543945 1.7543945 2.6308594 1.7543945.8100586 0 2.3618164 0 3.5063477-.3374023 4.3188477-1.2143555 6.409668-4.3173828 5.1953125-8.6347656l-6.1386719-24.4189453 8.2294922-2.0239258 6.0039063 24.3520508c.5405273 2.293457.5405273 4.8579102.5405273 6.7456055-.5405273 1.8891602-1.4169922 3.9799805-2.2270508 5.1274414-1.2143555 1.4155273-2.6308594 2.6293945-4.3173828 3.1699219-1.7543945.9448242-3.7773438 1.8212891-5.8691406 2.0224609-2.3603516.675293-4.9233398.8779297-7.2167969.8779297-2.5629883-.2026367-4.9926758-1.7543945-6.3413086-2.9003906-1.753418-1.4169922-3.2382813-3.9799805-4.1147461-7.2177734v-.2695314z"/><path d="m167.3066406 78.9912109-13.2221679-35.0107421 24.8911132-9.578125 2.6323243 6.0703125-17.7407227 6.6791992 2.9003906 7.8916015 15.6489258-5.8676757 2.293457 6.4082031-15.3125 5.7998047 5.4648438 14.7734375z"/><path d="m103.8974609 131.2021484-18.8867187-35.415039 6.1386719-6.6777344 37.0996093 15.1083984-5.8007812 6.409668-7.5556641-3.1713867-9.3085937 10.1865234 3.7768554 7.4208985z"/><path d="m68.2807617 150.0224609c-2.6987305-1.4169922-4.4521484-3.1713867-6.2050781-4.8579102-1.6879883-2.090332-2.5644531-4.3173828-3.1035156-6.4082031-.6748047-2.0239258-.8779297-4.6547852-.3374023-6.6772461.3374023-2.0244141.8764648-4.6552734 2.0908203-6.6791992 1.3500977-2.6298828 3.4394531-4.6538086 5.6660156-6.0708008 2.0922852-1.4833984 4.9926758-2.0224609 7.0151367-2.3613281 2.6313477 0 5.1958008.3388672 7.2861328 1.4848633l-4.1147461 6.6108398c-3.9794922-1.0805664-7.4873047-.2026367-9.5112305 3.2368164-1.4848633 2.5629883-2.0239258 5.5317383-.8764648 8.0947266 1.2124023 2.5644531 3.9799805 5.262207 7.5541992 7.5556641l.2026367-.3364258c1.7529297 1.2128906 3.7773438 2.0893555 5.5317383 2.6977539 2.0224609.2016602 4.1147461 0 5.5317383-.6083984 1.4833984-.3359375 3.2363281-1.7529297 4.0463867-3.5063477 2.293457-3.7783203 1.7529297-7.5556641-1.6865234-10.6586914l3.9799805-6.6777344c2.0239258 1.6865234 3.5756836 3.9799805 4.6552734 6.0024414 1.1459961 2.4296875 1.8208008 4.9926758 1.8208008 7.2861328-.3374023 2.6977539-1.2138672 5.2607422-2.9003906 7.8251953-1.5517578 2.6308594-3.7768555 4.9912109-6.4082031 6.7456055-2.3613281 1.3491211-5.4648438 2.2255859-8.3642578 1.6865234-3.237793 0-7.2856445-1.4838867-10.793457-3.440918-.2695313-.3364258-.5405273-.675293-.8764648-.675293z"/><path d="m79.4790039 170.9335938-33.5927734-17.1337891 3.7773437-7.2861328 33.5922852 17.2016601z"/><path d="m66.1904297 204.2563477-35.0776367-13.6928711 6.6777344-17.6074219c.8779297-2.3603516 2.293457-4.046875 3.7768555-5.4633789 1.7548828-1.2143555 3.5092773-2.0908203 5.1958008-2.0908203 1.4155273-.2695313 3.7768555-.2695313 5.5297852.2695313.8769531.2695313 2.2270508 1.1474609 3.1035156 1.8212891.8764648 1.0791016 2.0922852 2.2265625 2.0922852 3.440918.6054688 1.2138672.8085938 2.293457.8085938 3.4394531 1.2138672-1.1459961 2.6308594-2.2255859 4.1142578-2.2255859 1.4169922 0 3.7788086 0 5.5317383.8085938l1.6865234.5405273c.5405273.3374023.8764648.5400391 1.4169922.8764648 1.5517578.5400391 2.9003906.5400391 3.5756836.8779297.8764648.3359375 1.9555664-.3378906 1.9555664-.8779297l.9433594.3374023-3.237793 8.4321289c-.5390625 0-1.6850586 0-2.5620117-.3374023-.8779297-.3374023-2.0917969-.5390625-3.237793-.8764648-1.0810547-.5405273-2.293457-.8769531-3.1699219-1.4838867-1.1489258-.2026367-2.3618164-.2026367-2.9023438-.2026367-.5400391-.3374023-1.6860352.2026367-2.0239258.5390625-.8764648.2705078-1.7529297 1.6865234-2.293457 3.237793l-2.8989258 7.4208984 13.8955078 5.5986328z"/><path d="m16.8793945 207.4262695 6.6777344 9.2421875-.8764648 5.1938477-6.881836-6.0039063z"/><path d="m62.0756836 237.8486328-37.3041992-5.1923828 3.7783203-27.3203125 6.5429687.8779297-2.5629882 19.7631836 7.5541992.8764648 2.5644531-17.7407226 6.7441406.8779297-2.6293945 17.7397461 9.8476562 1.4848632 2.9003907-20.3051757 6.6791992.8779296z"/><path d="m63.8286133 280.4140625-37.3706055 2.0224609-.8085937-11.5351562 29.5458984-8.0908203v-.3388672l-30.2211914-5.1953125-.5405273-11.5341797 37.6420898-2.0908203.3359375 7.5537109-31.2988281 1.7539063v.3388672l31.6367187 5.1953125.5390625 7.7568359-30.9614258 8.4296875 31.2988282-1.7509766z"/><path d="m73.4067383 318.8652344-40.0004883-3.7783203-1.9570312-8.9013672 33.0546875-22.3320313 2.2255859 8.4345703-6.8808594 4.3173829 3.1035156 13.6914062 8.4321289.8779297z"/><path d="m374.4648438 439.4101563-22.3291016-30.421875 7.015625-4.9951172 27.5214844 12.5458984-15.4472657-21.5146484 6.2070313-4.3173828 21.9902344 30.421875-6.3398438 4.8564453-28.1972656-12.6796875 15.6503906 21.7871093z"/><path d="m339.7255859 458.4970703-17.1337891-33.5888672 17.1337891-8.7021484c2.0888672-1.2167969 4.3173828-1.7558594 6.40625-1.7558594 2.0253906.3388672 3.9814453.8779297 5.1259766 2.0888672 1.5537109.8115234 3.2392578 2.2285156 4.1171875 3.7792969.203125 1.078125.8759766 2.5615234 1.078125 3.7783203 0 1.078125-.2021484 2.7666016-.5390625 3.6445313-.5390625 1.2119141-1.1474609 2.6953125-2.0253906 3.234375 1.6894531-.3330078 3.5761719.3388672 4.6572266.8779297 1.1445313 1.1445313 2.5615234 2.5615234 3.5058594 4.3173828l.8779297 1.6835938c.203125.6777344.203125 1.2167969.5390625 1.8896484.5390625 1.0830078 1.7529297 2.2275391 2.0917969 2.5673828.203125.8779297 1.3476563 1.0771484 2.0224609.8779297l.5419922.8720703-8.0957031 3.984375c-.6748047-.2060547-1.4833984-1.0839844-1.7558594-1.9619141-.2666016-.8720703-1.1445313-1.8173828-1.8203125-2.6953125-.5390625-1.0771484-1.078125-2.2949219-1.4169922-3.1054688-.5390625-.8730469-1.6855469-1.7509766-2.0224609-2.4287109 0-.5390625-1.0800781-.8056641-2.0253906-.8056641-.5390625-.2724609-1.9560547.2666016-3.7089844.8056641l-7.3515625 3.7783203 7.015625 13.0859375z"/><path d="m290.0771484 461.7373047-1.4169921-7.0185547 14.5029296-3.1005859 1.6865235 6.5458984z"/><path d="m235.0317383 476.5117188v-37.7792969h8.0947265v30.7617187h18.6870118v7.0175782z"/><path d="m191.7265625 470.3720703 19.2246094-35.0791015 8.9707031 1.4833984 7.5556641 39.3964844-8.4321289-1.4833985-1.5517579-8.0957031-13.559082-2.0224609-3.9799805 7.2841797z"/><path d="m173.7827148 463.4931641 10.1855469-29.4111328-10.7924804-3.6455079 2.0224609-6.1396484 29.0751953 9.7851563-2.0922852 6.4736328-10.6586914-3.7792969-10.1855468 29.2783203z"/><path d="m130.8803711 443.7275391 29.0068359-27.5214844 8.0932618 4.1123047-4.991211 39.9345703-7.7573242-4.0507813 1.4169922-8.15625-12.4121094-6.4130859-6.0717773 5.8681641z"/><path d="m101.0649414 421.3964844 22.5292969-30.1503906 6.7470703 5.1953125-4.1147461 29.883789.3364258.3330078 15.9194336-21.1816406 5.8691406 4.65625-22.6655273 30.1503906-6.4077149-4.9902343 3.7768555-30.6220704-16.2573242 21.3144532z"/><path d="m250.4125977 69.0737305c99.2280273 0 180.3100586 81.015625 180.3100586 180.4453125 0 99.2299805-81.0820313 180.378418-180.3100586 180.378418-99.3632813 0-180.4453125-81.1484375-180.4453125-180.378418 0-99.4296875 81.0820312-180.4453125 180.4453125-180.4453125z"/></g><path d="m386.3369141 296.4667969 20.9785156 9.5126953c-14.5019531 35.9570313-42.5664063 72.5136719-78.5869141 90.5947266v-294.581543c36.5625 18.0102539 64.0849609 53.9658203 78.5869141 90.5268555l-20.9785156 8.9726563c-9.5800781-19.4287109-18.5507813-35.0107422-32.5810547-52.0102539v200.0063477c14.0302734-17.4707033 23.0009765-33.9960939 32.5810547-53.0214845z" fill="#fff"/><path d="m229.8378906 414.0449219v-329.1181641c23.0712891-3.440918 51.9404297 2.0239258 74.4033203 7.015625v25.0253906c-3.4394531-3.5742188-43.9111328-9.5117188-49.3759766-10.0507813v126.6157227h43.4414063v24.487793h-43.4414063v157.5078125c-7.0156249 0-18.012207-.9443359-25.0273437-1.4833984z" fill="#fff"/><path d="m86.2915039 246.6186523c4.9243164-80.6777344 49.5131836-128.7050781 113.1240234-154.6762695v314.0732422c-7.5541992-2.4287109-17.605957-6.5400391-25.6328125-10.5185547v-137.4765625h-64.4882813c1.4833984 16.1201172 6.4746094 34.0625 12.4785156 48.4980469l-21.0454102 12.9521484c-8.9711912-24.8935547-15.986328-47.9589843-14.436035-72.8520508z" fill="#fff"/><path d="m109.8344727 233.5327148h63.9482422v-104.0170898c-37.5053711 25.4301758-55.0449219 52.0087891-63.9482422 104.0170898z" fill="#f10"/><path d="m446.0341797 260.7158203-.6054688 9.9179688c0 1.4169922.6054688 2.9677734.8085938 3.7792969.6748047 1.0771484 2.0917969 2.2890625 3.7783203 2.2890625 1.7529297 0 3.5058594-.3339844 4.1142578-1.4111328.8759766-1.1503906 1.4169922-2.7011719 1.4169922-4.1181641l.6757813-9.7792969z" fill="#fff"/><path d="m470.6552734 262.2714844-8.0927734-.6777344-.6748047 9.3076172c0 1.4833984.3359375 2.9003906.6748047 3.7783203.5390625.8105469 2.0224609 1.6884766 3.1035156 1.6884766 1.2138672 0 2.4277344-.5380859 2.9667969-1.0771484.6083984-.6113281 1.4833984-2.3623047 1.4833984-4.3896484z" fill="#fff"/><path d="m345.9990234 63.6772461c-2.0253906 3.440918-3.1035156 7.0166016-3.1035156 9.7822266 0 2.9003906 1.6865234 5.8676758 4.5869141 7.5541992 1.9560547 1.2138672 4.0478516 1.7543945 5.734375 1.5517578 1.7529297-.3378906 3.7753906-1.5517578 5.3291016-2.6313477 1.3466797-1.1459961 3.1025391-2.9003906 3.9785156-4.3837891 1.6865234-2.9672852 2.5644531-6.0708008 3.2392578-9.309082.5390625-3.1030273-1.5527344-6.0703125-4.9931641-8.4321289-1.1474609-.5385742-2.9003906-1.0791016-4.3173828-1.0791016-1.4833984 0-3.4394531.5405273-5.2617188 1.4169922-1.7529296.8764649-3.7089843 2.9003907-5.1923828 5.5302735z" fill="#fff"/><path d="m305.3886719 61.3837891 9.3095703 3.4404297c1.4833984.5390625 2.9003906.5390625 4.1152344.3378906 1.0771484-.3378906 2.5634766-1.2143555 3.1025391-2.9003906.6757813-1.5517578.6757813-3.574707-.2021484-4.4526367-.9453125-.8764648-2.0224609-1.9555664-3.2373047-2.5629883l-9.3095703-3.440918z" fill="#fff"/><path d="m314.359375 38.1791992-2.7646484 7.7583008 8.6347656 3.2382813c1.1474609.5390625 2.5644531.8764648 3.7763672.5390625.8115234-.203125 2.0253906-1.4169922 2.3613281-2.5629883.5390625-.8779297.203125-2.2949219 0-2.9018555-.3359375-.8769531-1.8193359-2.0893555-3.7753906-2.9672852z" fill="#fff"/><path d="m94.2509766 98.215332 7.8935547 13.5595703 6.3398437-7.0151367-13.8955078-6.3413086z" fill="#fff"/><path d="m49.3925781 189.4829102 3.2382813-9.0380859c.8095703-1.7543945.8095703-3.440918.5390625-4.3173828-.5390625-1.2143555-1.753418-2.0908203-3.2368164-2.6308594-.8764648-.5405273-2.6313477-.2695313-3.5078125-.2695313-1.1474609.6069336-2.2265625 2.0239258-2.9003906 3.7768555l-3.440918 8.7016602z" fill="#fff"/><path d="m40.6245117 308.4746094 15.6484375 1.2167969-2.293457-9.3066407z" fill="#fff"/><path d="m337.1611328 435.9707031 8.6347656-4.4560547c1.4833984-.5390625 2.9003906-1.9560547 2.9003906-2.9003906.5390625-1.078125.3359375-2.6289063-.3388672-3.7060547-.5390625-1.1503906-1.6865234-2.3623047-2.5615234-2.7011719-1.2138672-.5390625-2.9003906-.2001953-4.65625.6728516l-8.4296875 4.3173828z" fill="#fff"/><path d="m214.0527344 444.2666016-7.2163086 14.2304687 9.578125 1.484375-2.3618164-15.3808594z" fill="#fff"/><path d="m160.2231445 425.7802734-11.3325195 11.2685547 8.6347656 4.3847657 2.3618164-15.4482422z" fill="#fff"/></g></svg>