<svg enable-background="new" height="300" width="265.62775" xmlns="http://www.w3.org/2000/svg"><g transform="matrix(.60398806 0 0 .60398806 -78.58195 -275.13503)"><g transform="translate(0 352.36218)"><path d="m345.46875 103.17075c-35.64734.29068-69.34315 15.19788-101.09375 30.298-34.81059 17.79622-73.26428 29.86985-112.6875 29-1.35435 23.56519-1.95374 47.18055-1.34375 70.78125 1.8813 79.85652 17.56505 161.77777 61.03125 229.84375 37.66823 60.19267 95.793 104.81877 158.46875 136.7.0539.0274.15625.0732.15625.0732s.10236-.0459.15625-.0732c62.67575-31.88123 120.80052-76.50733 158.46875-136.7 43.4662-68.06598 59.14995-149.98723 61.03125-229.84375.60999-23.6007.0106-47.21606-1.34375-70.78125-39.42322.86985-77.87691-11.20378-112.6875-29-31.7506-15.10012-65.44641-30.00732-101.09375-30.298-1.14991-.009-2.3148.011-3.46875.0312-.35519.006-.70692.0222-1.0625.0312-.35558-.009-.70731-.0252-1.0625-.0312-1.15395-.0202-2.31884-.0406-3.46875-.0312z"/><path d="m350 125.15625c-1.02344.002-2.03749.005-3.0625.0312-45.80769.80046-85.57323 26.58798-127 42.9375-21.51537 8.37597-44.15242 13.76652-67.1875 15.65625-3.57434 85.28404 6.04017 173.71437 46.65625 249.9375 33.77569 61.42946 88.6611 108.97843 150.5 141.03125.0331.0172.0937.045.0937.045s.0607-.0279.0937-.045c61.83889-32.05283 116.72431-79.60179 150.5-141.03125 40.61608-76.22313 50.23059-164.65346 46.65625-249.9375-23.03508-1.88973-45.67213-7.28028-67.1875-15.65625-41.42677-16.34952-81.19231-42.13704-127-42.9375-1.02501-.0262-2.03906-.0293-3.0625-.0312z" fill="#fff"/><path d="m350 153.1875c-.88697-.002-1.76899.004-2.65625.0312-46.18801 2.11881-85.03149 30.41483-127.6875 44.875-12.94144 4.27603-26.07119 7.92389-39.5 10.25-1.02179 76.22733 10.5562 155.005 49.53125 221.5 28.8275 47.94018 71.81839 85.58801 120.28125 113.09375.0124.007.0312.0176.0312.0176s.0188-.0106.0312-.0176c48.46286-27.50574 91.45375-65.15357 120.28125-113.09375 38.97505-66.495 50.55304-145.27267 49.53125-221.5-13.42881-2.32611-26.55856-5.97397-39.5-10.25-42.65601-14.46017-81.49949-42.75619-127.6875-44.875-.88726-.0272-1.76928-.0333-2.65625-.0312z"/></g><path d="m1023.7861 102.00384-29.6122 91.49679h-96.40668l78.04588 56.56537-29.86813 91.75252 77.84113-56.82109 77.8415 56.82109-29.8682-91.75252 78.0458-56.56537h-96.4065z" fill="#fff" transform="translate(-673.78622 443.45066)"/></g></svg>