<svg height="1200" width="1200" xmlns="http://www.w3.org/2000/svg"><path d="m-804.59979 682.94574a419.44708 419.44708 0 1 1 -838.89421 0 419.44708 419.44708 0 1 1 838.89421 0z" fill="#fff" stroke="#e5050f" stroke-width="12" transform="matrix(1.17303 0 0 1.17303 2048.01 -221.204)"/><path d="m-804.59979 682.94574a419.44708 419.44708 0 1 1 -838.89421 0 419.44708 419.44708 0 1 1 838.89421 0z" fill="#fff" stroke="#e5050f" stroke-width="12" transform="matrix(.935552 0 0 .935552 1759.832 -59.6308)"/><path d="m869.82751 778.63025a484.5752 484.5752 0 1 1 -969.150386 0 484.5752 484.5752 0 1 1 969.150386 0z" fill="#e5050f" transform="matrix(.777218 0 0 .777218 314.92 -26.0259)"/><g fill="#fff" fill-rule="evenodd" transform="translate(1480.948 51.6129)"><path d="m-714.43486 431.77035c2.2228-17.33135 9.47476-32.98632 18.07229-48.19277l24.8996 11.24498 22.48996-30.52209 22.48996 6.82731c.33173 40.14404-.75783 81.50633 14.05622 109.23695l-11.24498 14.05623c-25.47552-24.06942-52.60405-47.03684-90.76305-62.65061z"/><path d="m-756.29447 473.37641c-49.75427-.19497-13.69576-58.45374-6.42333-80.69669 6.53263-19.98024-3.35479-60.30077-41.50293-74.60285v-51.15207c75.11842 21.77282 83.50067 71.84527 126.72811 48.84792v25.34563c-67.41041 69.12197-37.88631 131.86015-78.80185 132.25806z"/><path d="m-956.7553 361.85567c73.79436-18.66897 129.18544-12.80023 181.106-2.30414 7.46537 21.78184.97807 36.58734-5.99079 51.15207-50.77514-8.30172-105.07908-10.42804-170.50691 6.91244-11.05358-16.68329-11.98379-35.39126-4.6083-55.76037z"/><path d="m-913.04393 317.99819c-88.53697 15.04534-68.63056 119.86873 0 148.17073v91.46342c-194.46097-56.12891-159.32257-267.63977 0-289.02439z"/><path d="m-817.31222 646.65673c-26.34417 3.56642-53.74048 2.92428-81.70732 0v-228.65854c27.23577-2.76909 54.47155-3.70609 81.70732 0z"/><path d="m-1185.6049 532.63234c47.3676-22.91255 57.837-73.1899 126.8293-123.78049 1.978 23.45823 4.6583 46.35463 14.6341 63.41464-29.2477 42.24888-27.2724 82.35454 16.4634 131.09756-10.1763 23.33278-22.5571 40.05223-35.9756 53.65853-61.5149-36.61102-75.7034-84.21626-121.9512-124.39024z"/><path d="m-965.40302 701.50973c17.5477-19.37977 22.41958-33.68922 29.9049-49.04404 46.57687 9.7994 100.81646 13.79372 182.22055-2.79113 8.50755 17.04893 5.26326 33.02952 2.39239 49.04405-48.23126 17.32574-138.08268 21.39716-214.51784 2.79112z"/><path d="m-1099.7757 693.93382 5.981 25.91759 35.8858 2.39239c41.3767 29.29624 85.64071 56.82801 145.93597 74.56289v-50.63897c-32.65055-5.55842-53.6868-22.00525-69.37937-43.46179 46.44931-49.96679 55.86392-112.69001 26.47652-125.45564-39.09331-16.98178-56.55012 23.00392-78.87962 59.086-14.5625 23.53131-35.5854 46.97988-66.0203 57.59753z"/><path d="m-817.05438 265.58125c.18597-38.72232 29.87521-34.03314 43.88974-20.08513-1.96469-48.56175-41.36898-54.34055-60.2554-36.82275-5.59735-9.1951-12.83466-16.20923-24.36253-21.94487-10.32416 4.85947-18.56348 12.06438-24.92044 21.38695-17.83229-16.27875-58.45792-12.25798-60.25541 36.63677 15.02384-12.96564 43.33182-17.54708 43.33182 21.01501l.18582 74.13221c26.53571-1.98047 53.95958-2.18461 82.47851-.19864z"/><path d="m-816.97112 798.56393c.18597 38.72232 29.87521 34.03314 43.88974 20.08513-1.96469 48.56175-41.36898 54.34055-60.2554 36.82275-5.59735 9.1951-12.83466 16.20923-24.36253 21.94487-10.32416-4.85947-18.56348-12.06438-24.92044-21.38695-17.83229 16.27875-58.45792 12.25798-60.25541-36.63677 15.02384 12.96564 43.33182 17.54708 43.33182-21.01501l.18582-74.13221c26.53571 1.98047 53.95958 2.18461 82.47851.19864z"/><path d="m-804.98681 502.96797v87.60683c100.18552 33.32614 84.32543 158.11444 1.28205 155.12821v50.42735c107.41007-10.64601 148.98398-77.25803 149.64428-142.17842.74916-74.39935-58.05034-127.06546-150.92633-150.98397z"/><path d="m-643.021 650.83121c.12923-11.43524 1.14993-21.59696-6.41026-44.01709l23.07693-15.38462 26.06837 21.36753c-10.20371 15.37226-25.74729 27.18461-42.73504 38.03418z"/></g><g fill="#e5050f" font-family="Arial Black" font-size="75.0134" font-weight="900"><text transform="matrix(.127091 -.991891 .991891 .127091 0 0)" x="-559.883" y="267.484"><tspan x="-559.883" y="267.484">S</tspan></text><text transform="matrix(.0915601 -.9958 .9958 .0915601 0 0)" x="-509.287" y="249.152"><tspan x="-509.287" y="249.152">.</tspan></text><text transform="matrix(.285942 -.958247 .958247 .285942 0 0)" x="-391.167" y="339.011"><tspan x="-391.167" y="339.011">C</tspan></text><text transform="matrix(.36378 -.931485 .931485 .36378 0 0)" x="-300.223" y="367.886"><tspan x="-300.223" y="367.886">.</tspan></text><text transform="matrix(.560403 -.82822 .82822 .560403 0 0)" x="-159.056" y="416.281"><tspan x="-159.056" y="416.281">I</tspan></text><text transform="matrix(.679665 -.733523 .733523 .679665 0 0)" x="-32.4816" y="427.316"><tspan x="-32.4816" y="427.316">N</tspan></text><text transform="matrix(.84212 -.53929 .53929 .84212 0 0)" x="170.221" y="402.58"><tspan x="170.221" y="402.58">T</tspan></text><text transform="matrix(.921758 -.387765 .387765 .921758 0 0)" x="319.981" y="357.53"><tspan x="319.981" y="357.53">E</tspan></text><text transform="matrix(.982505 -.186237 .186237 .982505 0 0)" x="469.765" y="267.395"><tspan x="469.765" y="267.395">R</tspan></text><text transform="matrix(.999996 .00273449 -.00273449 .999996 0 0)" x="603.769" y="162.492"><tspan x="603.769" y="162.492">N</tspan></text><text transform="matrix(.969353 .245673 -.245673 .969353 0 0)" x="723.28" y="-6.21926"><tspan x="723.28" y="-6.21926">A</tspan></text><text transform="matrix(.838982 .544159 -.544159 .838982 0 0)" x="769.312" y="-262.307"><tspan x="769.312" y="-262.307">C</tspan></text><text transform="matrix(.786954 .617012 -.617012 .786954 0 0)" x="833.428" y="-339.766"><tspan x="833.428" y="-339.766">I</tspan></text><text transform="matrix(.686449 .727178 -.727178 .686449 0 0)" x="832.866" y="-465.289"><tspan x="832.866" y="-465.289">O</tspan></text><text transform="matrix(.477441 .878664 -.878664 .477441 0 0)" x="782.414" y="-679.069"><tspan x="782.414" y="-679.069">N</tspan></text><text transform="matrix(.238557 .971128 -.971128 .238557 0 0)" x="682.015" y="-875.736"><tspan x="682.015" y="-875.736">A</tspan></text><text transform="matrix(.0444341 .999012 -.999012 .0444341 0 0)" x="585.75" y="-1005.52"><tspan x="585.75" y="-1005.52">L</tspan></text><text transform="matrix(.967804 .251705 -.251705 .967804 0 0)" x="702.392" y="876.96"><tspan x="702.392" y="876.96">1</tspan></text><text transform="matrix(.990281 .13908 -.13908 .990281 0 0)" x="683.871" y="959.214"><tspan x="683.871" y="959.214">9</tspan></text><text transform="matrix(.990946 -.134258 .134258 .990946 0 0)" x="487.275" y="1127.43"><tspan x="487.275" y="1127.43">0</tspan></text><text transform="matrix(.983814 -.179191 .179191 .983814 0 0)" x="521.586" y="1148.28"><tspan x="521.586" y="1148.28">9</tspan></text></g></svg>