<svg clip-rule="evenodd" fill-rule="evenodd" height="125mm" image-rendering="optimizeQuality" shape-rendering="geometricPrecision" text-rendering="geometricPrecision" viewBox="0 0 200 125" width="200mm" xmlns="http://www.w3.org/2000/svg"><path d="m0 .000004h200v125.227h-200z" fill="#33006e"/><circle cx="100" cy="62.5" fill="#fff" r="44.4906"/><circle cx="100" cy="62.5" fill="#008533" r="40.2534"/><path d="m84.1603 45.5512c-1.7437 2.3553-4.1947 2.1111-5.1618-.2728-1.5012.0898-3.3508.9206-3.2115-1.7452.013-2.5383 1.5441-1.8163 3.1061-2.0195 1.5088-1.5662 1.366-3.6284 2.3926-4.4369 1.4281-1.0053 3.1779-.7062 4.9434-.7062.3531 0 1.3626-3.4304 7.5685-2.522-2.2715-4.6934 12.3057-5.295 12.1543.1529 0 0 4.9097-.7179 6.3558 3.1256 1.1465.5926 3.2284-.5044 4.8428.3028 2.0179 1.0088.2127 2.1277 2.8856 4.0959 2.1155 0 3.5795.0764 3.6132 1.6639-.0121 1.9853-1.1743 2.6223-3.0835 2.6513-1.1684 2.3065-4.1772 2.5283-5.7356-.0881-.3533-.5931-2.0927-1.1398-3.3237-.5437-1.231.5962-1.8999 2.4579-3.5099 2.605-2.4632.2656-5.4564 2.8555-7.1033 4.8501v33.1984c1.2797 0 2.9277 1.4025 2.9277 2.7555 3.4086 2.5191 1.9575 3.7511-2.9277.2918-2.0927 5.8408-1.2731 5.8647-3.6072.0475-4.7146 2.9636-6.0102 2.5814-2.9298-.3373-.0247-.9206 1.4446-2.815 2.9298-2.7633 0-.9578.0077-20.2482 0-33.2251-1.4825-2.1289-5.0283-4.5892-6.989-4.6614-1.388.0396-1.9146-2.4509-2.9277-2.8961-1.843-.7324-2.7773-.2155-3.2091.4769z" fill="#ff0"/></svg>