<svg enable-background="new 0 0 579 423" height="423" viewBox="0 0 579 423" width="579" xmlns="http://www.w3.org/2000/svg"><path d="m0 0h579v423h-579z" fill="#fff"/><g clip-rule="evenodd" fill-rule="evenodd"><path d="m276.578 327.314c-.375 1.711-.746 3.418-1.121 5.129-24.528-3.332-46.696-15.281-63.934-33.004l-9.972 8.695c-1.239 1.215-3.633-.578-2.524-2.246 3.399-2.961 6.797-5.922 10.195-8.883-2.293-2.496-4.496-5.094-6.597-7.793-2.836 1.456-5.68 2.913-8.52 4.37-.242-3.741-.492-7.483-.91-11.261l-2.695 1.453c-1.641.215-2.028-.945-1.028-2.039 1.145-.617 2.289-1.23 3.43-1.848-.316-2.41-.711-4.84-1.226-7.289-1.688-3.047-3.262-6.172-4.715-9.379h22.523c1.008 2.03 2.094 4.02 3.246 5.961 2.855-1.539 5.711-3.086 8.567-4.629-.016-.234-.036-.47-.051-.699-.051-.629 0-1.359.062-2 .223-2.367 3.114-3.387 5.192-1.813.523.395.918.734 1.234 1.035 2.574-1.391 5.149-2.781 7.723-4.172v2.59l-6.293 3.402c.07.104.144.215.23.324 1.414 3.535 3.149 6.809 5.211 9.828.403-.121.836-.188 1.285-.188.317 0 .629.035.926.094 2.278-1.984 4.551-3.969 6.828-5.954h5.098l-9.168 7.989c.184.391.281.813.281 1.254 0 .839-.363 1.613-.961 2.207 7.75 8.434 18.782 14.438 33.481 18.313 1.691-2.332 7.012.883 19.211 1.074 2.047-1.582 4.871-1.922 6.238.402 2.984-.25 5.867-.754 8.73-1.469v-.004c14.555-3.836 25.516-9.762 33.254-18.063-.48-.559-.766-1.254-.766-2 0-.574.168-1.113.469-1.59l-9.313-8.114h5.098c2.426 2.114 4.848 4.231 7.273 6.345.145-.013.293-.023.438-.023.367 0 .719.047 1.055.125 2.184-3.129 4.008-6.531 5.488-10.227.082-.109.156-.22.227-.324l-6.293-3.402v-2.59c2.574 1.391 5.148 2.781 7.723 4.172.316-.301.711-.641 1.234-1.035 2.078-1.574 4.969-.555 5.191 1.813.063.641.113 1.371.066 2-.02.229-.039.465-.055.699 2.855 1.543 5.711 3.086 8.566 4.629 1.152-1.938 2.238-3.931 3.246-5.961h22.523c-1.453 3.207-3.027 6.332-4.711 9.379-.516 2.449-.914 4.879-1.23 7.289 1.141.617 2.285 1.23 3.43 1.848 1 1.094.613 2.254-1.027 2.039l-2.695-1.453c-.418 3.777-.668 7.52-.91 11.261-2.84-1.457-5.684-2.914-8.52-4.37-2.102 2.699-4.305 5.297-6.598 7.793 3.398 2.961 6.797 5.922 10.199 8.883 1.105 1.668-1.289 3.461-2.523 2.246l-9.977-8.695c-17.238 17.723-39.406 29.672-63.934 33.004-.375-1.711-.746-3.418-1.121-5.129-8.54 1.247-17.24 1.247-25.783.001zm66.43-47.226c.645 0 1.25-.13 1.789-.363l7.914 6.898c-10.527 10.628-23.676 18.633-38.367 22.934-.293-1.332-.586-2.664-.879-4-6.797 1.918-13.816 3.004-20.867 3.254 2.004-1.656 1.98-3.258 1.18-5.435 1.738.013 4.168-.847 4.566-2.698 2.805-.266 5.523-.75 8.223-1.427v-.003c14.852-3.426 26.82-10.309 35.082-19.363.425.132.882.203 1.359.203zm3.93-2.934c.023-.148.035-.297.035-.449 0-.855-.379-1.641-1-2.238 1.961-2.828 3.605-5.82 4.91-8.941.48-.629 1.059-1.012 1.617-1.16l2.039 1.102c.16.547.129 1.281-.188 2.195-2.789.289-4.969 2.457-4.969 5.078 0 2.82 2.516 5.117 5.602 5.117s5.602-2.297 5.602-5.117c0-2.023-1.301-3.777-3.18-4.605.031-.355.055-.716.082-1.074l7.531 4.065c-2.934 4.665-6.285 9.04-9.996 13.075-2.695-2.353-5.39-4.701-8.085-7.048zm-111.048 2.472c.364 0 .723-.043 1.059-.12 8.215 9.176 20.195 16.168 35.105 19.668.012 1.371.485 2.465 1.813 2.82 4.539.656 9.082 1.137 13.621 1.793-.898 2.046.223 4.457 1.309 5.074-7.871-.063-15.735-1.16-23.321-3.305-.293 1.336-.586 2.668-.879 4-14.691-4.301-27.836-12.306-38.367-22.934l8.27-7.211c.433.141.903.215 1.39.215zm-3.125-5.457c-.527.575-.843 1.294-.843 2.075 0 .297.05.589.136.863-2.714 2.367-5.429 4.726-8.14 7.094-3.711-4.035-7.063-8.41-9.996-13.075l7.531-4.065c.027.358.051.719.082 1.074-1.875.828-3.18 2.582-3.18 4.605 0 2.82 2.516 5.117 5.602 5.117s5.601-2.297 5.601-5.117c0-2.621-2.179-4.789-4.968-5.078-.317-.914-.344-1.648-.188-2.195l2.039-1.102c.559.148 1.137.531 1.621 1.16 1.255 3.012 2.828 5.902 4.703 8.644zm122.22 3.005c-2.672 0-4.852-1.992-4.852-4.434 0-2.438 2.18-4.426 4.852-4.426s4.852 1.988 4.852 4.426c-.001 2.441-2.181 4.434-4.852 4.434zm-131.028 0c2.672 0 4.851-1.992 4.851-4.434 0-2.438-2.179-4.426-4.851-4.426s-4.852 1.988-4.852 4.426c.001 2.441 2.18 4.434 4.852 4.434zm70.766 25.558c1.531 0 2.781-1.188 2.781-2.645s-1.25-2.645-2.781-2.645-2.781 1.188-2.781 2.645 1.25 2.645 2.781 2.645zm-4.129 5.551c1.531 0 2.781-1.188 2.781-2.645s-1.25-2.641-2.781-2.641-2.781 1.184-2.781 2.641 1.25 2.645 2.781 2.645zm0 0" fill="#1f1a17"/><path d="m227.168 236.427v-.09c8.375-7.212 19.261-11.578 31.136-11.578 5.969 0 11.442 2.195 15.657 5.809 4.211 3.609 9.684 5.805 15.582 5.789 5.895-.012 11.367-2.211 15.578-5.82 4.215-3.613 9.688-5.809 15.656-5.809 11.828 0 22.68 4.336 31.043 11.496.242-1.324.441-2.656.602-4.008.008-30.93.016-61.18.023-92.113h-125.945l.027 92.137c.169 1.41.383 2.805.641 4.187zm0 0" fill="#c2c1c1"/><path d="m333.313 138.201h-87.675c14.769-8.391 29.367-12.325 43.835-12.43 14.473.105 29.07 4.039 43.84 12.43zm0 0" fill="#00923f"/><path d="m289.473 125.771c14.473.105 29.07 4.039 43.84 12.43l1.047-1.352 2.281-2.938-2.016-3.414 8.223-20.946 2.637-1.707 1.086-3.883c-1.645-.757-3.285-1.48-4.922-2.171l-1.984 1.257-.848-2.422c-1.547-.617-3.09-1.207-4.633-1.769l-1.828 3.605v4.313l-3.16 5.371-.711-1.742c-1.844-.602-3.684-1.16-5.523-1.68l-2.605 2.281.484-8.3 4.625-2.196 1.066-4.207c-1.801-.543-3.598-1.051-5.395-1.519l-1.742 1.515-.52-2.086c-1.363-.332-2.727-.64-4.094-.925l-1.219 2.254-.879-2.676c-.961-.188-1.922-.364-2.883-.528l-1.043 2.883 1.621 5.371-2.918 7.325-1.043-2.77c-1.949-.293-3.898-.539-5.848-.738l-2.113 2.691-.727-9.113 2.027-2.848.063-4.094c-1.418-.128-2.836-.23-4.266-.296l-1.961 1.96-2.176-2.128c-.637-.012-1.27-.02-1.945-.024-.672.004-1.309.012-1.941.024l-2.176 2.128-1.965-1.96c-1.426.066-2.844.168-4.266.296l.066 4.094 2.027 2.848-.73 9.113-2.113-2.691c-1.945.199-3.895.445-5.848.738l-1.039 2.77-2.918-7.325 1.621-5.371-1.047-2.883c-.961.164-1.922.34-2.879.528l-.878 2.676-1.219-2.254c-1.367.285-2.735.593-4.098.925l-.516 2.086-1.742-1.515c-1.797.468-3.597.976-5.394 1.519l1.066 4.207 4.621 2.196.489 8.3-2.606-2.281c-1.84.52-3.68 1.078-5.523 1.68l-.711 1.742-3.16-5.371v-4.313l-1.833-3.605c-1.542.562-3.085 1.152-4.628 1.769l-.848 2.422-1.984-1.257c-1.641.691-3.282 1.414-4.922 2.171l1.086 3.883 2.636 1.707 8.223 20.946-2.016 3.414 2.278 2.938 1.051 1.352c14.771-8.391 29.37-12.325 43.838-12.43zm0 0" fill="#1f1a17"/><path d="m266.594 97.607 1.851-.34-.34 1.766-1.218.015zm22.383 25.414.148 1.477c-6.289.058-12.605.843-18.949 2.359l-.211-1.504c6.363-1.488 12.703-2.266 19.012-2.332zm-20.617 4.293-.601-1.414c-4.809 1.246-9.629 2.894-14.465 4.949l.804 1.383c4.769-2.047 9.523-3.684 14.262-4.918zm-24.058 7.812 1.011 1.329c2.348-1.25 4.696-2.403 7.035-3.454l-.847-1.371c-2.395 1.067-4.798 2.231-7.199 3.496zm.585-4.863-.243 2.942c1.645-.797 3.285-1.551 4.922-2.262l-1.129-2.277c-1.182.507-2.366 1.042-3.55 1.597zm7.93-3.402.434 2.555c1.453-.579 2.906-1.122 4.351-1.629l-1.054-2.309c-1.255.441-2.5.906-3.731 1.383zm4.487-1.649 1.235 2.25c.648-.218 1.293-.433 1.937-.64l-.937-2.356c-.741.242-1.487.492-2.235.746zm3.306-1.082.914 2.36c1.86-.578 3.711-1.16 5.574-1.567l-.828-2.394c-1.883.476-3.77 1.012-5.66 1.601zm9.734-2.55.609 2.453c1.867-.473 3.738-.879 5.602-1.215l-.609-2.262c-1.864.285-3.73.625-5.602 1.024zm7.109-1.243.367 2.266c.613-.098 1.227-.191 1.84-.277l-.242-2.239c-.652.075-1.308.161-1.965.25zm2.782-.343.145 2.234c1.145-.148 2.285-.27 3.426-.367l-.18-2.172c-1.13.082-2.259.184-3.391.305zm4.406-.375.039 2.172c.777-.059 1.559-.106 2.336-.141l-.211-2.137c-.723.028-1.441.063-2.164.106zm-41.337 6.351 1.137 2.653c1.196-.528 2.391-1.036 3.586-1.52l-1.07-2.715c-1.215.504-2.433 1.031-3.653 1.582zm7.754-3.215.891 2.821c1.215-.446 2.441-.887 3.676-1.297l-1.336-2.703c-1.073.379-2.152.769-3.231 1.179zm4.11-1.48 1.219 2.746c1.261-.414 2.523-.809 3.781-1.18l-1.188-2.8c-1.269.39-2.538.8-3.812 1.234zm14.446-1.242c1.613-.395 3.227-.746 4.84-1.047l-.477-2.465c-4.547.742-9.121 1.789-13.718 3.141l1.086 2.839c1.761-.617 3.527-1.179 5.293-1.679.007-.824-.008-1.758-.008-1.758l2.066-.465zm10.269-4.305-.023 2.43c-1.254.152-2.504.332-3.758.539l-.656-2.403c1.48-.218 2.96-.41 4.437-.566zm-28.493 13.512c.497.027.817-.211.879-.844.043-1.465-.445-2.699-1.882-3.512-.719-.043-1.102.25-1.329.699.121 1.668 1.013 2.809 2.332 3.657zm17.25-8.547c-.257-.039-.519.074-.785.207-.367 1.43.016 2.562.91 3.5.301.101.551.039.743-.188.406-1.281.16-2.461-.868-3.519zm15.821-8.813.109 2.684c-1.129.059-2.262.137-3.391.234l-.113-2.679c1.133-.098 2.262-.176 3.395-.239zm-4.586.348.438 2.648c-1.93.176-3.859.407-5.793.692l-.277-2.649c1.878-.277 3.757-.507 5.632-.691zm-6.442.813.485 2.613c-.598.094-1.196.187-1.793.285l-.184-2.656c.496-.082.996-.164 1.492-.242zm-3.152.535.602 2.578c-2.067.367-4.137.797-6.211 1.281l-.453-2.582c2.023-.48 4.046-.906 6.062-1.277zm-7.434 1.613.832 2.48c-.761.184-1.527.379-2.289.579l-1.019-2.415c.828-.226 1.653-.441 2.476-.644zm-3.91 1.043 1.035 2.398c-1.847.508-3.699 1.063-5.55 1.661l-1.227-2.282c1.919-.64 3.829-1.234 5.742-1.777zm-6.514 2.035 1.238 2.274c-.938.312-1.875.632-2.813.964l-.796-2.402c.789-.285 1.582-.562 2.371-.836zm-3.451 1.231.778 2.402c-1.16.422-2.324.863-3.485 1.324l-.918-2.324c1.211-.484 2.418-.953 3.625-1.402zm-4.461 1.742.922 2.312c-.851.344-1.699.696-2.55 1.055l-.95-2.281c.86-.371 1.72-.735 2.578-1.086zm-3.953-2.723.817 2.57c1.613-.679 3.222-1.328 4.832-1.941l-1.102-2.492c-1.511.594-3.027 1.215-4.547 1.863zm5.418-2.199 1.231 2.453c1.519-.566 3.035-1.105 4.551-1.613l-1.247-2.492c-1.506.519-3.019 1.074-4.535 1.652zm5.365-1.934 1.285 2.485c2.16-.707 4.32-1.36 6.476-1.95l-.691-2.722c-2.353.656-4.708 1.386-7.07 2.187zm8.342-2.539.567 2.766c2.129-.508 4.179-.965 6.176-1.375l-1.047-2.781c-1.894.418-3.793.882-5.696 1.39zm11.763-2.57.813 2.867c-1.551.258-3.125.551-4.739.871l-.925-2.82c1.616-.34 3.233-.645 4.851-.918zm8.828-1.145.234 2.918c-2.457.235-4.93.559-7.473.969l-.481-2.922c2.58-.41 5.153-.73 7.72-.965zm.933-.082.035 2.934c2.363-.211 4.711-.344 7.082-.391l-.07-2.914c-2.344.051-4.691.176-7.047.371zm.242-1.023.301-4.02c.77-.058 1.539-.113 2.309-.156l.285 4.051c-.965.031-1.93.07-2.895.125zm-8.253-1.207-.586 2.164c2.051-.316 4.09-.645 6.141-.793l-1.027-1.965c-1.509.168-3.021.367-4.528.594zm-9.793 3.945-.418-3.82c1.559-.367 3.121-.703 4.676-1.012l.832 3.758c-1.695.32-3.392.68-5.09 1.074zm-3.543.875-.613-3.758c.84-.222 1.68-.437 2.519-.644l.903 3.699c-.938.223-1.876.457-2.809.703zm-4.743-.746 1.449 1.649c-1.644.476-3.297.984-4.949 1.531l-.652-1.86c1.386-.464 2.77-.902 4.152-1.32zm-8.569 1.133 1.453 3.289c.57-.203 1.14-.406 1.711-.602l-1.864-3.144zm-5.005 1.855 2.023 3.102c1.192-.469 2.379-.922 3.571-1.356l-1.754-3.265c-1.277.488-2.559.992-3.84 1.519zm.824 3.582-1.742-3.203c-.621.262-1.246.528-1.867.797l1.386 3.32c.74-.312 1.481-.617 2.223-.914zm-3.934-3.668-.64-2.507c1.293-.496 2.586-.973 3.875-1.43l.539 2.457c-1.254.477-2.511.969-3.774 1.48zm5.602-2.16-1.496-2.086c1.281-.449 2.562-.882 3.836-1.304l.957 2.23c-1.093.379-2.198.762-3.297 1.16zm15.2-4.742-.476-2.476c1.738-.512 3.468-1.024 5.191-1.528l.961 2.692c-1.892.394-3.781.832-5.676 1.312zm7.121-1.605-1.457-2.676c.879-.254 1.801-.36 2.699-.524l.45 2.879c-.563.106-1.125.211-1.692.321zm15.597-2.09-.043-2.934c2.148-.152 4.293-.25 6.43-.289l-.168 2.942c-2.066.039-4.141.132-6.219.281zm-.593-6.563.691 2.571c.789-.055 1.578-.102 2.363-.145l-.668-2.582c-.797.047-1.59.098-2.386.156zm-15.931 2.199 1.383 2.375c-1.383.27-2.773.559-4.16.868l-1.015-2.43c1.266-.289 2.531-.559 3.792-.813zm-5.023 1.102.914 2.449c-.984.231-1.973.473-2.957.731l-2.316-2.071c1.458-.394 2.91-.761 4.359-1.109zm-16.414 4.926.949 2.418c.348-.129.699-.254 1.051-.379l-.297-2.645c-.57.2-1.137.399-1.703.606zm-5.41 2.105 1.183 2.285c1.422-.57 2.848-1.121 4.27-1.644l-1.16-2.328c-1.429.535-2.86 1.101-4.293 1.687zm-2.774 1.164 1.079 2.305c.64-.269 1.285-.539 1.929-.801l-1.191-2.269c-.606.25-1.211.508-1.817.765zm44.329-12.691-.23-2.207c1.277-.109 2.555-.203 3.828-.274l1.07 2.168c-1.555.075-3.109.18-4.668.313zm-14.083 2.004.461-2.32c.645-.125 1.293-.247 1.938-.36l.277 2.176c-.894.16-1.784.324-2.676.504zm-1.703.348-.492-2.122c-.969.207-1.937.43-2.91.661l.355 2.14c1.017-.238 2.032-.465 3.047-.679zm-10.32 2.597-.574-2.058c1.445-.426 2.89-.832 4.332-1.211l1.172 1.925c-1.64.418-3.284.864-4.93 1.344zm-13.276 4.555-.024-2.219c1.246-.488 2.489-.961 3.73-1.414l.953 1.879c-1.55.559-3.106 1.141-4.659 1.754zm-6.654 2.785-.804-1.867c1.523-.684 3.043-1.344 4.562-1.977l1.18 1.742c-1.64.668-3.289 1.368-4.938 2.102zm78.251-9.121-1.848-.34.336 1.766 1.223.015zm-22.383 25.414-.148 1.477c6.293.058 12.609.843 18.953 2.359l.207-1.504c-6.364-1.488-12.7-2.266-19.012-2.332zm20.621 4.293.602-1.414c4.809 1.246 9.629 2.894 14.465 4.949l-.809 1.383c-4.766-2.047-9.52-3.684-14.258-4.918zm24.059 7.812-1.012 1.329c-2.348-1.25-4.695-2.403-7.039-3.454l.852-1.371c2.394 1.067 4.792 2.231 7.199 3.496zm-.586-4.863.238 2.942c-1.641-.797-3.281-1.551-4.918-2.262l1.129-2.277c1.18.507 2.363 1.042 3.551 1.597zm-7.93-3.402-.438 2.555c-1.453-.579-2.902-1.122-4.348-1.629l1.051-2.309c1.258.441 2.501.906 3.735 1.383zm-4.488-1.649-1.238 2.25c-.645-.218-1.289-.433-1.934-.64l.934-2.356c.746.242 1.492.492 2.238.746zm-3.309-1.082-.91 2.36c-1.863-.578-3.711-1.16-5.574-1.567l.828-2.394c1.883.476 3.769 1.012 5.656 1.601zm-9.73-2.55-.609 2.453c-1.871-.473-3.738-.879-5.602-1.215l.609-2.262c1.863.285 3.731.625 5.602 1.024zm-7.114-1.243-.367 2.266c-.609-.098-1.227-.191-1.84-.277l.246-2.239c.653.075 1.309.161 1.961.25zm-2.777-.343-.145 2.234c-1.145-.148-2.285-.27-3.426-.367l.18-2.172c1.129.082 2.258.184 3.391.305zm-4.41-.375-.035 2.172c-.777-.059-1.559-.106-2.336-.141l.211-2.137c.719.028 1.441.063 2.16.106zm41.34 6.351-1.137 2.653c-1.199-.528-2.391-1.036-3.586-1.52l1.07-2.715c1.215.504 2.43 1.031 3.653 1.582zm-7.754-3.215-.895 2.821c-1.211-.446-2.438-.887-3.672-1.297l1.332-2.703c1.079.379 2.153.769 3.235 1.179zm-4.113-1.48-1.215 2.746c-1.262-.414-2.523-.809-3.785-1.18l1.191-2.8c1.27.39 2.539.8 3.809 1.234zm-14.442-1.242c-1.613-.395-3.227-.746-4.844-1.047l.477-2.465c4.551.742 9.125 1.789 13.723 3.141l-1.086 2.839c-1.762-.617-3.527-1.179-5.293-1.679-.008-.824.008-1.758.008-1.758l-2.07-.465zm-10.269-4.305.023 2.43c1.254.152 2.504.332 3.754.539l.66-2.403c-1.48-.218-2.961-.41-4.437-.566zm28.492 13.512c-.5.027-.82-.211-.883-.844-.039-1.465.449-2.699 1.883-3.512.719-.043 1.102.25 1.332.699-.121 1.668-1.012 2.809-2.332 3.657zm-17.254-8.547c.262-.039.523.074.785.207.371 1.43-.012 2.562-.906 3.5-.305.101-.551.039-.746-.188-.403-1.281-.157-2.461.867-3.519zm-15.816-8.813-.109 2.684c1.129.059 2.258.137 3.391.234l.109-2.679c-1.13-.098-2.263-.176-3.391-.239zm4.585.348-.438 2.648c1.926.176 3.859.407 5.793.692l.277-2.649c-1.878-.277-3.757-.507-5.632-.691zm6.442.813-.488 2.613c.602.094 1.199.187 1.797.285l.18-2.656c-.497-.082-.993-.164-1.489-.242zm3.148.535-.598 2.578c2.063.367 4.137.797 6.207 1.281l.457-2.582c-2.027-.48-4.046-.906-6.066-1.277zm7.438 1.613-.832 2.48c.762.184 1.523.379 2.289.579l1.016-2.415c-.825-.226-1.649-.441-2.473-.644zm3.91 1.043-1.035 2.398c1.848.508 3.699 1.063 5.551 1.661l1.227-2.282c-1.919-.64-3.833-1.234-5.743-1.777zm6.516 2.035-1.238 2.274c.938.312 1.875.632 2.813.964l.797-2.402c-.79-.285-1.583-.562-2.372-.836zm3.449 1.231-.777 2.402c1.16.422 2.324.863 3.484 1.324l.918-2.324c-1.211-.484-2.418-.953-3.625-1.402zm4.461 1.742-.926 2.312c.852.344 1.703.696 2.555 1.055l.949-2.281c-.86-.371-1.719-.735-2.578-1.086zm3.949-2.723-.813 2.57c-1.613-.679-3.227-1.328-4.832-1.941l1.102-2.492c1.512.594 3.027 1.215 4.543 1.863zm-5.414-2.199-1.23 2.453c-1.52-.566-3.039-1.105-4.551-1.613l1.246-2.492c1.508.519 3.019 1.074 4.535 1.652zm-5.363-1.934-1.285 2.485c-2.16-.707-4.32-1.36-6.477-1.95l.691-2.722c2.352.656 4.707 1.386 7.071 2.187zm-8.344-2.539-.57 2.766c-2.125-.508-4.18-.965-6.172-1.375l1.043-2.781c1.898.418 3.797.882 5.699 1.39zm-11.762-2.57-.813 2.867c1.547.258 3.125.551 4.738.871l.926-2.82c-1.62-.34-3.238-.645-4.851-.918zm-8.828-1.145-.234 2.918c2.453.235 4.93.559 7.473.969l.48-2.922c-2.582-.41-5.153-.73-7.719-.965zm-.937-.082-.031 2.934c-2.363-.211-4.711-.344-7.086-.391l.074-2.914c2.343.051 4.691.176 7.043.371zm-.239-1.023-.301-4.02c-.77-.058-1.539-.113-2.309-.156l-.289 4.051c.966.031 1.934.07 2.899.125zm8.254-1.207.586 2.164c-2.051-.316-4.094-.645-6.141-.793l1.027-1.965c1.509.168 3.016.367 4.528.594zm9.793 3.945.418-3.82c-1.563-.367-3.121-.703-4.68-1.012l-.832 3.758c1.696.32 3.395.68 5.094 1.074zm3.543.875.609-3.758c-.84-.222-1.68-.437-2.52-.644l-.898 3.699c.934.223 1.872.457 2.809.703zm4.742-.746-1.453 1.649c1.648.476 3.301.984 4.953 1.531l.652-1.86c-1.386-.464-2.769-.902-4.152-1.32zm8.571 1.133-1.453 3.289c-.57-.203-1.141-.406-1.711-.602l1.863-3.144zm5.003 1.855-2.023 3.102c-1.191-.469-2.383-.922-3.57-1.356l1.75-3.265c1.281.488 2.562.992 3.843 1.519zm-.824 3.582 1.742-3.203c.621.262 1.246.528 1.867.797l-1.387 3.32c-.741-.312-1.48-.617-2.222-.914zm3.93-3.668.641-2.507c-1.293-.496-2.582-.973-3.871-1.43l-.543 2.457c1.257.477 2.515.969 3.773 1.48zm-5.598-2.16 1.496-2.086c-1.281-.449-2.563-.882-3.836-1.304l-.957 2.23c1.094.379 2.196.762 3.297 1.16zm-15.199-4.742.477-2.476c-1.742-.512-3.473-1.024-5.191-1.528l-.961 2.692c1.886.394 3.781.832 5.675 1.312zm-7.125-1.605 1.461-2.676c-.879-.254-1.801-.36-2.699-.524l-.449 2.879c.562.106 1.125.211 1.687.321zm-15.594-2.09.043-2.934c-2.148-.152-4.293-.25-6.43-.289l.164 2.942c2.071.039 4.145.132 6.223.281zm.594-6.563-.691 2.571c-.789-.055-1.578-.102-2.363-.145l.668-2.582c.792.047 1.589.098 2.386.156zm15.93 2.199-1.387 2.375c1.387.27 2.773.559 4.164.868l1.016-2.43c-1.266-.289-2.532-.559-3.793-.813zm5.023 1.102-.914 2.449c.984.231 1.973.473 2.957.731l2.313-2.071c-1.453-.394-2.907-.761-4.356-1.109zm16.41 4.926-.945 2.418c-.352-.129-.703-.254-1.051-.379l.297-2.645c.567.2 1.133.399 1.699.606zm5.414 2.105-1.184 2.285c-1.426-.57-2.848-1.121-4.27-1.644l1.16-2.328c1.431.535 2.861 1.101 4.294 1.687zm2.77 1.164-1.074 2.305c-.645-.269-1.289-.539-1.93-.801l1.191-2.269c.606.25 1.207.508 1.813.765zm-44.324-12.691.227-2.207c-1.277-.109-2.551-.203-3.824-.274l-1.07 2.168c1.553.075 3.108.18 4.667.313zm14.082 2.004-.461-2.32c-.648-.125-1.293-.247-1.938-.36l-.277 2.176c.891.16 1.785.324 2.676.504zm1.703.348.492-2.122c.969.207 1.938.43 2.91.661l-.355 2.14c-1.016-.238-2.031-.465-3.047-.679zm10.32 2.597.57-2.058c-1.441-.426-2.887-.832-4.328-1.211l-1.172 1.925c1.641.418 3.282.864 4.93 1.344zm13.278 4.555.023-2.219c-1.246-.488-2.488-.961-3.73-1.414l-.953 1.879c1.55.559 3.101 1.141 4.66 1.754zm6.648 2.785.809-1.867c-1.523-.684-3.043-1.344-4.563-1.977l-1.184 1.742c1.645.668 3.29 1.368 4.938 2.102zm-55.371-12.734c-1.086.011-2.105.035-3.125.07l.992-2.258c.723-.02 1.441-.035 2.133-.043.691.008 1.414.023 2.133.043l.996 2.258c-1.02-.035-2.039-.059-3.129-.07zm0 3.914c-1.289.011-2.602.047-3.914.101l.09-2.625c1.246-.051 2.492-.082 3.824-.097 1.332.015 2.578.046 3.824.097l.094 2.625c-1.313-.054-2.625-.09-3.918-.101zm0 8.925c-1.484-.007-2.84.008-4.199.04l.297-4.098c1.273-.059 2.547-.094 3.902-.106 1.355.012 2.633.047 3.906.106l.297 4.098c-1.359-.032-2.715-.047-4.203-.04zm0 7.575c1.293.011 2.633.047 3.977.109l.109-2.684c-1.34-.062-2.68-.101-4.086-.113-1.402.012-2.742.051-4.086.113l.113 2.684c1.344-.062 2.684-.098 3.973-.109zm0 1.914c.676 0 1.332.039 1.988.113 0 0 .051.598.09 1.129 2.215.078 4.434.242 6.652.492l-.051-2.418c-2.883-.281-5.762-.433-8.68-.469-2.918.036-5.793.188-8.68.469l-.047 2.418c2.219-.25 4.434-.414 6.648-.492.043-.531.094-1.129.094-1.129.658-.074 1.31-.113 1.986-.113zm-.594 1.828 1.02-.035.352 4.246-1.617.035zm0 0" fill="#c2c1c1"/><path d="m282.199 149.361 1.504 3.957 4.23.207-3.301 2.656 1.109 4.082-3.543-2.316-3.543 2.316 1.113-4.086-3.301-2.652 4.23-.207zm-14.543 2.769 1.504 3.961 4.227.203-3.301 2.657 1.113 4.082-3.543-2.317-3.543 2.317 1.109-4.086-3.3-2.653 4.23-.207zm-14.546 8.313 1.504 3.957 4.231.207-3.301 2.656 1.109 4.082-3.543-2.316-3.543 2.316 1.113-4.086-3.3-2.652 4.226-.207zm-8.312 12.469 1.504 3.957 4.23.207-3.301 2.652 1.11 4.086-3.543-2.32-3.543 2.32 1.113-4.086-3.301-2.652 4.231-.207zm-2.77 15.929 1.504 3.957 4.227.207-3.301 2.657 1.113 4.082-3.543-2.317-3.543 2.317 1.11-4.086-3.297-2.653 4.226-.207zm-.692 13.16 1.504 3.961 4.226.205-3.301 2.655 1.114 4.082-3.543-2.317-3.543 2.317 1.109-4.086-3.301-2.651 4.231-.208zm55.41-52.64 1.504 3.957 4.23.207-3.305 2.656 1.113 4.082-3.543-2.316-3.543 2.316 1.113-4.086-3.301-2.652 4.227-.207zm14.547 2.769 1.504 3.961 4.227.203-3.301 2.657 1.113 4.082-3.543-2.317-3.543 2.317 1.109-4.086-3.301-2.653 4.23-.207zm14.543 8.313 1.504 3.957 4.23.207-3.301 2.656 1.109 4.082-3.543-2.316-3.543 2.316 1.113-4.086-3.301-2.652 4.23-.207zm8.313 12.469 1.504 3.957 4.23.207-3.301 2.652 1.109 4.086-3.543-2.32-3.543 2.32 1.113-4.086-3.301-2.652 4.227-.207zm2.773 15.929 1.504 3.957 4.227.207-3.301 2.657 1.113 4.082-3.547-2.317-3.539 2.317 1.109-4.086-3.301-2.653 4.23-.207zm.692 13.16 1.504 3.961 4.227.205-3.301 2.655 1.113 4.082-3.543-2.317-3.543 2.317 1.109-4.086-3.301-2.651 4.23-.208zm0 0" fill="#0093dd"/><path d="m354.328 232.677c-3.863 32.422-31.125 57.801-64.855 57.801-33.718 0-60.968-25.353-64.852-57.777l-.027-94.508h129.757c-.007 31.726-.015 62.754-.023 94.484zm-127.16 3.75v-.09c8.375-7.212 19.261-11.578 31.136-11.578 5.969 0 11.442 2.195 15.657 5.809 4.211 3.609 9.684 5.805 15.582 5.789 5.895-.016 11.367-2.211 15.578-5.82 4.215-3.613 9.688-5.809 15.656-5.809 11.828 0 22.68 4.336 31.043 11.496.242-1.324.441-2.656.602-4.008.008-30.934.016-61.184.023-92.113h-125.94l.023 92.137c.168 1.41.382 2.805.64 4.187zm124.539.395c-8.348-7.105-19.152-11.398-30.93-11.398-5.969-.005-11.441 2.195-15.656 5.805-4.211 3.609-9.684 5.809-15.578 5.824-5.898.016-11.371-2.184-15.582-5.793-4.215-3.613-9.688-5.809-15.657-5.809-11.828 0-22.675 4.336-31.035 11.492.153.797.321 1.59.504 2.375l.199-.156c4.082-3.344 8.84-6.734 13.918-8.797 5.079-2.063 10.563-2.875 16.266-2.875 5.969 0 11.445 2.195 15.656 5.809 4.211 3.609 9.684 5.805 15.657 5.805 5.836 0 11.367-2.035 15.801-5.836 4.215-3.613 9.688-5.81 15.656-5.81 5.707 0 11.188.817 16.266 2.875 5.078 2.063 9.836 5.454 13.953 8.81v.305c.203-.868.394-1.743.562-2.626zm-123.801 3.043.031.004c4.117-3.359 8.875-6.75 13.953-8.813 5.079-2.059 10.563-2.875 16.266-2.875 5.969 0 11.445 2.199 15.656 5.809 4.211 3.609 9.684 5.809 15.657 5.809 5.836 0 11.367-2.035 15.801-5.841 4.215-3.608 9.688-5.808 15.656-5.804 5.707 0 11.188.813 16.266 2.875 5.047 2.047 9.777 5.406 13.875 8.742-6.734 27.91-31.512 48.793-61.594 48.793-30.044 0-54.794-20.828-61.567-48.699zm0 0" fill="#1f1a17"/><path d="m188.535 181.197c-5.066 7.074 6.715 21.312-.785 36.492 3.867-1.625 7.629-5.008 10.035-8.731 3.031 1.704 4.726 4.903 5.801 9.125 4.703-14.054-.785-17.41 1.175-29.651-5.41 1.309-6.507-.289-8.464-3.305-2.59 1.206-6.036 1.624-7.762-3.93zm5.278 18.054c1.867-2.144 2.567-3.57 3.828-6.328 1.45 2.184 2.192 3.735 3.641 5.914-2.164 2.051-2.926 2.614-3.562 5.278-.709-3.102-1.681-3.602-3.907-4.864zm0 0" fill="#da251d"/><path d="m224.597 196.087v-3.375l-43.457-20.722c-.367-.114-.679-.137-.992-.157-.793-.867-1.551-1.773-2.09-2.972-2.371.125-4.554.25-7.109-.375-.082.144-.168.289-.25.437 2.496 1.825 4.117 3.899 5.238 6.039 1.121-.332 2.278-.543 3.367-.531.2.168.395.332.598.457l7.742 3.672c-6.597 8.211 7.965 24.543-2.246 41.477 4.793-1.922 9.434-5.48 12.699-9.868 3.219 2.97 3.985 5.993 5.262 10.786 7.152-18.023-.203-18.055 2.578-33.359.051-.281-.914-.336-.863-.625-4.352 1.914-6.777 1.453-8.008-3.672-.035-.086-.133-.254-.258-.39zm-34.808-16.511 6.601 3.132c-.078.02-.152.083-.218.204-2.446 4.461-6.602 1.281-6.371-3.066.003-.102.001-.188-.012-.27zm-1.254 1.621c-5.066 7.074 6.715 21.312-.785 36.492 3.867-1.625 7.629-5.008 10.035-8.731 3.031 1.704 4.726 4.903 5.801 9.125 4.703-14.054-.785-17.41 1.175-29.651-5.41 1.309-6.507-.289-8.464-3.305-2.59 1.206-6.036 1.624-7.762-3.93zm5.278 18.054c1.867-2.144 2.567-3.57 3.828-6.328 1.45 2.184 2.192 3.735 3.641 5.914-2.164 2.051-2.926 2.614-3.562 5.278-.709-3.102-1.681-3.602-3.907-4.864zm-1.255.313c1.868-2.145 3.821-5.301 5.082-8.055 1.45 2.18 3.055 5.305 4.504 7.489-2.168 2.046-3.867 4.261-4.504 6.925-.707-3.101-2.855-5.097-5.082-6.359zm-17.991-28.953c.758.855 1.321 1.711 1.746 2.566.996-.293 1.996-.219 2.992-.094-.785-.73-1.441-1.562-1.808-2.628-.978.195-1.954.214-2.93.156zm0 0" fill="#1f1a17"/><path d="m188.759 149.228c2.937 2.105 5.742 3.031 8.492 3.422.605 1.773 1.39 3.246 2.566 4.066.262-.14.524-.285.785-.425 2.094 2.542 4.067 5.015 8.418 6.992 2.742 1.242 4.422.285 6.637 0-.254 1.496-1.156 2.472-2.355 3.211 2.043.754 4.089.718 6.136.14-.179 1.129-.656 2.199-1.785 3.141 2.305 1.641 4.613 3.281 6.922 4.922.023 1.711.047 3.426.07 5.136-2.832-2.261-5.66-4.519-8.492-6.777-.402.855-1.094 1.52-2.066 1.996.082-2.566-.61-4.519-2.426-5.562-.297.984-.895 1.914-2.141 2.711-.523-2.355-.925-4.594-2.855-6.637-2.527-2.68-5.633-4.637-9.203-5.563.215-.359.429-.714.645-1.07-1.429-.668-3.047-1.047-4.851-1.145-1.15-3.085-2.775-5.855-4.497-8.558zm2.78 2.711c1.617.531 3.234 1.078 4.851 1.426.508 1.707 1.352 3.074 2.426 4.211-1.769-.645-3.601-1.168-5.562-1.43-.465-1.617-1.058-2.973-1.715-4.207zm0 0" fill="#1f1a17"/><path d="m390.461 181.197c5.07 7.074-6.711 21.312.785 36.492-3.867-1.625-7.629-5.008-10.031-8.731-3.031 1.704-4.73 4.903-5.801 9.125-4.703-14.054.785-17.41-1.176-29.651 5.406 1.309 6.504-.289 8.465-3.305 2.586 1.206 6.036 1.624 7.758-3.93zm-5.273 18.054c-1.867-2.144-2.57-3.57-3.828-6.328-1.449 2.184-2.191 3.735-3.645 5.914 2.168 2.051 2.93 2.614 3.566 5.278.708-3.102 1.676-3.602 3.907-4.864zm0 0" fill="#da251d"/><path d="m354.399 196.087v-3.375l43.461-20.722c.367-.114.68-.137.992-.157.789-.867 1.551-1.773 2.09-2.972 2.367.125 4.551.25 7.109-.375.082.144.164.289.25.437-2.496 1.825-4.117 3.899-5.242 6.039-1.121-.332-2.273-.543-3.367-.531-.195.168-.395.332-.598.457l-7.742 3.672c6.598 8.211-7.961 24.543 2.25 41.477-4.797-1.922-9.438-5.48-12.699-9.868-3.223 2.97-3.984 5.993-5.266 10.786-7.152-18.023.207-18.055-2.578-33.359-.051-.281.918-.336.867-.625 4.348 1.914 6.777 1.453 8.004-3.672.039-.086.137-.254.262-.39zm34.812-16.511-6.602 3.132c.078.02.152.083.219.204 2.445 4.461 6.602 1.281 6.371-3.066-.007-.102-.003-.188.012-.27zm1.25 1.621c5.07 7.074-6.711 21.312.785 36.492-3.863-1.625-7.629-5.008-10.031-8.731-3.031 1.704-4.73 4.903-5.801 9.125-4.703-14.054.785-17.41-1.176-29.651 5.406 1.309 6.504-.289 8.465-3.305 2.586 1.206 6.036 1.624 7.758-3.93zm-5.273 18.054c-1.867-2.144-2.57-3.57-3.828-6.328-1.449 2.184-2.191 3.735-3.641 5.914 2.164 2.051 2.926 2.614 3.563 5.278.707-3.102 1.675-3.602 3.906-4.864zm1.254.313c-1.867-2.145-3.824-5.301-5.082-8.055-1.449 2.18-3.055 5.305-4.504 7.489 2.164 2.046 3.867 4.261 4.504 6.925.707-3.101 2.851-5.097 5.082-6.359zm17.992-28.953c-.758.855-1.32 1.711-1.746 2.566-1-.293-1.996-.219-2.996-.094.789-.73 1.441-1.562 1.809-2.628.976.195 1.956.214 2.933.156zm0 0" fill="#1f1a17"/><path d="m390.239 149.228c-2.938 2.105-5.742 3.031-8.488 3.422-.605 1.773-1.391 3.246-2.57 4.066-.262-.14-.523-.285-.785-.425-2.09 2.542-4.066 5.015-8.418 6.992-2.738 1.242-4.422.285-6.633 0 .25 1.496 1.152 2.472 2.352 3.211-2.043.754-4.086.718-6.133.14.18 1.129.652 2.199 1.781 3.141-2.305 1.641-4.613 3.281-6.918 4.922-.023 1.711-.047 3.426-.074 5.136 2.832-2.261 5.664-4.519 8.492-6.777.402.855 1.094 1.52 2.07 1.996-.086-2.566.605-4.519 2.422-5.562.301.984.895 1.914 2.141 2.711.523-2.355.926-4.594 2.855-6.637 2.531-2.68 5.637-4.637 9.203-5.563-.215-.359-.43-.714-.641-1.07 1.426-.668 3.043-1.047 4.852-1.145 1.148-3.085 2.773-5.855 4.492-8.558zm-2.782 2.711c-1.617.531-3.234 1.078-4.852 1.426-.504 1.707-1.348 3.074-2.426 4.211 1.773-.645 3.605-1.168 5.566-1.43.462-1.617 1.06-2.973 1.712-4.207zm0 0" fill="#1f1a17"/><path d="m247.976 136.912c.649-.352 1.301-.691 1.95-1.023h79.097c.648.332 1.301.672 1.949 1.023zm3.621-1.86c.719-.351 1.438-.691 2.153-1.023h71.449c.715.332 1.434.672 2.152 1.023zm4.02-1.859c.812-.356 1.625-.695 2.434-1.024h62.847c.813.329 1.625.668 2.434 1.024zm4.579-1.86c.953-.359 1.902-.699 2.856-1.019h52.851c.949.32 1.902.66 2.855 1.019zm5.441-1.859c1.207-.367 2.414-.707 3.617-1.019h40.445c1.203.312 2.41.652 3.613 1.019zm0 0" fill="#1f1a17"/><path d="m227.906 239.865h.031c4.117-3.355 8.875-6.746 13.953-8.809 5.079-2.063 10.559-2.875 16.266-2.875 5.969 0 11.441 2.194 15.656 5.809 4.211 3.609 9.684 5.809 15.657 5.809 5.836 0 11.367-2.035 15.801-5.841 4.211-3.608 9.688-5.808 15.656-5.808 5.703 0 11.188.816 16.266 2.875 5.047 2.051 9.777 5.41 13.875 8.746-6.734 27.906-31.516 48.793-61.594 48.793-30.044 0-54.794-20.828-61.567-48.699zm0 0" fill="#00923f"/><path d="m351.707 236.822c-8.348-7.102-19.152-11.398-30.93-11.398-5.969 0-11.445 2.195-15.656 5.805-4.211 3.613-9.684 5.809-15.582 5.824-5.895.016-11.371-2.18-15.582-5.793-4.211-3.609-9.684-5.809-15.656-5.805-11.825 0-22.672 4.332-31.036 11.492.157.793.325 1.586.508 2.371l.196-.156c4.082-3.344 8.839-6.734 13.918-8.797 5.082-2.059 10.562-2.875 16.265-2.875 5.973 0 11.445 2.195 15.656 5.809 4.211 3.609 9.688 5.809 15.657 5.809 5.84 0 11.371-2.035 15.805-5.84 4.211-3.609 9.688-5.81 15.656-5.805 5.703 0 11.188.813 16.266 2.87 5.078 2.063 9.836 5.454 13.953 8.813v.305c.203-.871.39-1.746.562-2.629zm0 0" fill="#fff"/><path d="m288.496 283.287c1.512.027 3.02.055 4.531.082-2.016-2.661-1.426-6.504-1.258-10.008 1.117-1.18 2.57-2.105 4.609-2.945 1.313-1.094 1.789-2.273 2.684-3.367 2.555-2.266 5.109-3.055 7.797-3.113.504.313 1.172.281 1.762.422.641-.309-.395-1.625-.086-2.691.613-.504 1.23-.504 1.844-.758-.082-.504-.418-1.008-.25-1.512.363-.563.242-1.168.738-1.508 1.699.234 1.863-.5 1.809-1.363 1.336.055 2.012-.242 1.727-1.504 1.355-2.082.027-1.957-1.551-1.68-1.109-1.863-2.105-2.785-3.785-2.145-.484-.973-1.203-.609-1.789-1.059-.941-1.461-2.461-.613-3.688-.922-1.293-1.75-2.559-1.027-4.109-.676-1.234-.84.125-1.762-1.34-2.523-1.688-.207-2.273.535-4.191.168-.727-.699-.512-1.77-2.18-2.103-.504.196-.957.497-1.512.586-1.309-.272-2.227-1.468-5.031-1.847-.613.406-1.258.605-1.926.672-.535-.402-1.23-.703-1.844-.504-1.184.539-1.922 1.031-2.684 2.02-.957.258-1.625-.48-3.188-.168-.855 1.191-3.282 1.418-3.117 3.348.105.941.867 1.062.976 1.793-.281.703-1.004 1.297-.707 2.262.465.438 1.379 1.031 2.344.839.695.173 1.938.45 1.848 1.853-.336.703-1.512 1.063-1.008 2.105.168.167.336.335.504.504-.438.824-.191 1.148.418 1.68 2.223.301 1.824-.953 2.266-2.102.461-.23 1.082-.016 1.203.305.141.758-.164 1.198-.023 1.957-.41.332-.766.797-.68 1.105.227.25.633.32.672.754.031.535-.18.855.164 1.23.879.426 1.473.586 2.141.641 1.152.5 2.25 3.148 3.48 4.777 1.477 1.43 1.75 3.367 2.254 4.879.695.797.848 1.121 1.352 1.684.426 4.582.188 7.097-1.176 8.832zm-5.722-34.625c-.191.242.141.867.441.813.434-.074 1.023-.648.813-1.035-.204-.372-.993-.11-1.254.222zm-2.016.648c0-.215.508-.16.648 0 .164.188.25.742 0 .742-.328 0-.648-.414-.648-.742zm-2.273 4.594c.285-.207 1.355.461 1.438.652.16.371-.805.992-1.254.789-.442-.199-.341-1.328-.184-1.441zm4.824 1.766c.469-.251.719-.809.93-1.301.047-.113-.266-.059-.371 0-.371.199-.855.355-1.023.742-.095.222.253.672.464.559zm1.019-.419c.051-.159.254-.253.418-.276.176-.027.434-.02.512.137.105.211.066.527-.094.695-.176.188-.527.328-.742.188-.207-.142-.168-.505-.094-.744zm2.184-1.113c.23-.078.453-.242.695-.234.52.023 1.137-.016 1.531.324.387.332.473.934.512 1.441.012.195-.25.309-.371.465 0 .001-2.43-1.976-2.367-1.996zm1.437-2.878c.113-.191.488.159.559.371.055.172-.129.566-.281.465-.242-.165-.426-.583-.278-.836zm1.625 2.414c.191-.211.66.145.742.418.066.219-.262.621-.465.512-.28-.161-.491-.692-.277-.93zm1.02 1.577c.219.122.563-.14.652-.37.055-.148-.281-.313-.418-.234-.187.109-.422.499-.234.604zm6.824-2.972c.125-.664.816-1.273 1.484-1.391.5-.086 1.301.43 1.207.93-.129.68-.941 1.18-1.625 1.297-.445.078-1.148-.391-1.066-.836zm-8.308 6.453c.297 0 .703-.371.605-.649-.094-.261-.648-.207-.836 0-.156.168 0 .649.231.649zm-1.579 1.715c-.215-.367-.781-.414-1.207-.414-.148 0-.262.285-.184.414.634 1.094 1.7.527 1.391 0zm-3.527 1.813c.266-.134.277-.598.559-.695.164-.059.305.207.371.371.055.129.008.289-.047.418-.18.418-.191 1.203-.648 1.203-.582 0-1.152-.638-1.254-1.203-.059-.341.714.058 1.019-.094zm1.348 1.066c.234-.45 1.012.27 1.391.602.215.191.367.582.234.836-.246.469-.813 1.371-1.207 1.023-.621-.555-.805-1.727-.418-2.461zm2.179-.141c.098-.219.523-.348.695-.185.254.235.324.704.188 1.021-.094.219-.523.301-.695.141-.242-.227-.32-.672-.188-.977zm2.555-4.129c-.137-.031-.125-.355 0-.418.375-.195.863-.059 1.25-.23.469-.207.805-.637 1.254-.883.41-.223.84-.453 1.301-.512.449-.056.945-.027 1.344.188s.746.593.883 1.02c.105.332.105 1.102-.23 1.023-.52-.125-.535-.945-.93-1.301-.137-.125-.465-.207-.555-.047-.184.324.059.758-.047 1.113-.102.332-.211.883-.559.883-.77 0-1.383-.715-2.133-.883-.515-.113-1.066.168-1.578.047zm7.051.231c.305.199.672-.473.699-.832.039-.551-.148-1.164-.512-1.579-.195-.222-.809-.284-.883 0-.102.396.492.677.605 1.067.126.433-.284 1.102.091 1.344zm-7.238 5.43c.254-.379.762-.566.977-.973.074-.141-.078-.387-.234-.418-.383-.075-.773.093-1.16.141-.001 0 .358 1.335.417 1.25zm1.023 2.089c.113.086.293-.109.371-.23.285-.465.359-1.055.695-1.488.18-.23.543-.246.789-.414.223-.16.66-.289.602-.559-.094-.438-.484-1.032-.926-.973-.496.063-.59.805-.883 1.203-.25.34-.523.664-.742 1.023-.125.199-.293.414-.281.648.02.29.141.619.375.79zm5.984-6.125c.316-.063.465.48.559.789.082.28-.086.59-.047.883.023.195.059.449.23.555.211.129.566-.129.742.047.227.223.277.613.234.93-.055.363-.324.659-.512.973-.23.383-.477.758-.742 1.113-.184.246-.313.598-.605.695-.453.156-.965-.07-1.438 0-.434.07-.875.195-1.254.417-.625.372-.992 1.271-1.715 1.349-.387.039-.238-.824-.047-1.16.164-.289.676-.156.93-.371.344-.297.539-.734.789-1.113.195-.301.359-.629.555-.93.176-.27.328-.563.559-.789.211-.211.5-.332.742-.512.16-.117.371-.195.461-.371.109-.207.066-.461.094-.695.035-.277.023-.563.094-.836.086-.337.032-.907.371-.974zm-7.425 11.414.281-.184.371-.789.09-.836v-1.02l-.09-.742v-.606l-.188-.882-.141-.371-.23-.555-.324-.371-.324-.324v-.512l-.371-.188h-.234l-.371.094-.23.695-.281.559-.277.602-.277.371-.141.371.234.465.508.559.281.371.555.836.277.555.047.281.141.276.141.513.047.23.137.277zm2.925-1.113.324.047.602-.278.512-.093.371-.094.324-.09.418-.094.512-.277.371-.188.465-.277.602-.465.512-.418.137-.371.094-.371.094-.23.141-.375.277-.461-.559.184-.371.188-.371.183-.512.095-.508.047h-.512l-.324.094-.418.183-.465.235-.23.23-.324.23-.188.234-.23.23-.465.559-.277.602-.234.418zm8.676-12.856c-.129.149.367.228.559.188.16-.035.48-.32.324-.371-.285-.094-.684-.039-.883.183zm2.926 1.532c-.063.137-.008.418.137.418.313 0 .543-.313.836-.418.117-.039.254-.027.371 0 .195.05.406.102.559.234.129.113.125.328.23.465.113.144.234.383.418.371.168-.012.152-.31.277-.418.133-.113.355-.103.465-.234.082-.094.086-.25.047-.371-.059-.191-.141-.422-.324-.508-.168-.082-.383.02-.559.09-.098.043-.129.191-.23.234-.102.039-.246.07-.324 0-.152-.141-.133-.41-.277-.559-.066-.063-.188 0-.281 0-.168 0-.344-.039-.508 0-.109.027-.195.117-.281.188-.193.16-.454.281-.556.508zm5.66-5.566.324-.418-.324-.094-.418.094s.418.324.418.418zm1.16.882.047-.465.465-.047.324.094.047.371-.23.23-.328.371zm-9.699 9.094.418-.047.047.234-.465.37-.418-.233zm-1.762-.324v-.371h-.281l-.09.371.184.371zm0 0" fill="#b74f8f"/><path d="m208.89 264.51-4.019.004c11.805 23.762 33.019 42.035 58.683 49.816.231-1.055.461-2.102.684-3.152-24.016-7.516-43.93-24.543-55.348-46.668zm0 0" fill="#fff500"/><path d="m193.985 264.51 10.102.004c10.75 24.219 33.625 42.637 59.332 50.441-.672 3.043-1.336 6.078-2.016 9.098-31.114-9.356-56.747-31.262-67.418-59.543zm0 0" fill="#da251d"/><path d="m190.071 264.51h3.297c10.672 28.281 36.305 50.188 67.418 59.543 7.766 3.109 10.476 5.773 10.476 5.773-2.207.16-4.89-.152-7.624-.73-33.965-9.395-62.119-33.461-73.567-64.586zm0 0" fill="#00923f"/><path d="m370.051 264.51 4.02.004c-11.805 23.762-33.02 42.035-58.68 49.816-.234-1.055-.465-2.102-.688-3.152 24.016-7.516 43.93-24.543 55.348-46.668zm0 0" fill="#fff500"/><path d="m384.957 264.51-10.098.004c-10.754 24.219-33.625 42.637-59.336 50.441.672 3.043 1.34 6.078 2.02 9.098 31.113-9.356 56.742-31.262 67.414-59.543zm0 0" fill="#da251d"/><path d="m388.871 264.51h-3.297c-10.672 28.281-36.305 50.188-67.418 59.543-7.77 3.109-10.477 5.773-10.477 5.773 2.207.16 4.891-.152 7.621-.73 33.966-9.395 62.122-33.461 73.571-64.586zm0 0" fill="#00923f"/><path d="m266.16 309.888.66-3.008c14.773 3.918 30.527 3.918 45.301 0l.66 3.008c-15.183 4.157-31.437 4.157-46.621 0zm0 0" fill="#fff500"/><path d="m314.891 319.498-1.949-8.891c-15.289 4.211-31.652 4.211-46.941 0l-1.949 8.891c16.546 4.59 34.292 4.59 50.839 0zm0 0" fill="#da251d"/><path d="m315.801 323.646-.777-3.531c-15.281 4.859-35.836 4.855-51.101 0l-.778 3.531c17.148 4.672 35.508 4.672 52.656 0zm0 0" fill="#00923f"/><path d="m201.281 270.256.606 1.188-.454.23c-.129.066-.226.152-.293.262-.07.108-.07.227-.007.348l.031.063c.058.112.144.191.262.227.117.035.234.023.351-.035.281-.145.461-.469.543-.977l.152-.855c.051-.297.137-.563.25-.809.118-.246.321-.441.61-.586l.183-.094c.368-.188.723-.238 1.071-.156.441.098.804.422 1.09.983.238.466.324.892.253 1.278-.066.386-.332.699-.8.938l-.477.241-.578-1.136.281-.145c.387-.195.516-.427.383-.684-.137-.27-.336-.34-.594-.211-.136.07-.254.246-.343.535-.047.137-.098.383-.153.73-.054.348-.117.641-.179.871-.067.234-.184.469-.356.706-.168.235-.406.431-.715.587-.297.133-.578.18-.855.141-.278-.039-.528-.152-.754-.34-.227-.188-.418-.434-.57-.73l-.043-.09c-.129-.246-.2-.516-.219-.801-.02-.289.031-.555.148-.801.117-.25.305-.438.559-.566zm6.032 3.168.903 1.563-4.563 3.926-.719-1.243.864-.624-.489-.844-.976.43-.692-1.199zm-3.032 2.39.336.582 2.371-1.715-.016-.027zm4.945.817.832 1.234-2.277 2.863.012.016 2.89-1.953.731 1.085-4.903 3.31-.832-1.234 2.418-2.953-.007-.012-3.032 2.043-.738-1.09zm2.707 4.007 1.883 2.5-.91.684-.535-.711-3.817 2.875-.816-1.082 3.816-2.875-.531-.703zm2.793 3.672 1.161 1.383-3.813 4.66-.926-1.103.742-.765-.625-.742-.886.589-.891-1.058zm-2.57 2.883.434.515 2.031-2.101-.02-.024zm6.523 1.813 1.516 1.512-1.793 2.348.012.008 2.328-1.805 1.523 1.523-4.179 4.184-.93-.926 3.254-3.254-.012-.013-3.797 2.708-.632-.633 2.722-3.777-.008-.012-3.254 3.25-.933-.93zm5.06 4.968 1.344 1.207-3.129 5.148-1.07-.965.628-.859-.722-.652-.793.711-1.031-.926zm-2.145 3.211.503.449 1.719-2.363-.023-.021zm5.016-.652 1.281 1.039c.262.211.469.402.621.566.153.168.25.336.29.504.054.199.058.391.023.57-.039.176-.156.391-.359.637l-.032.039c-.152.191-.296.336-.433.438s-.289.164-.457.188c-.168.02-.367-.013-.59-.09.148.195.226.398.238.609.016.211-.054.406-.203.59l-.867 1.07c-.274.34-.406.582-.406.73l-1.051-.852c-.004-.059.023-.152.09-.281.066-.129.16-.27.281-.418l.793-.98c.101-.121.152-.242.156-.363s-.051-.227-.168-.324l-.262-.207-1.609 1.992-1.062-.859zm.429 1.633-.848 1.047.332.273c.098.078.203.094.324.047.118-.047.219-.121.309-.234l.18-.223c.218-.27.195-.512-.075-.727zm3.321 1.429 1.086.816-3.57 4.738-1.082-.817zm2.722 2.04 1.496 1.008-2.383 5.531-1.191-.805.504-.938-.805-.547-.692.816-1.148-.773zm-1.679 3.476.563.379 1.375-2.582-.028-.02zm6.839 4.117 1.195.691-.433.75c-.129.219-.309.402-.543.551-.235.148-.5.227-.805.234-.301.012-.613-.079-.93-.262l-.089-.055c-.274-.156-.493-.355-.649-.598-.16-.242-.242-.512-.246-.805-.008-.293.078-.59.25-.891l1.434-2.48c.125-.215.296-.402.519-.559.223-.152.484-.238.789-.246.301-.016.621.078.965.277l.09.051c.293.168.515.383.672.633.152.254.23.52.23.801s-.07.547-.219.801l-.332.578-1.195-.688.399-.688c.132-.234.082-.426-.165-.566-.085-.047-.175-.059-.273-.027-.094.027-.172.098-.234.203l-1.571 2.719c-.156.27-.113.469.125.605.223.105.403.035.547-.215zm4.195-1.684 1.188.661-2.875 5.188-1.188-.66zm2.227 1.305 1.824.906c.43.207.707.473.824.788.121.353.067.767-.172 1.251l-1.273 2.617c-.121.25-.289.445-.504.586-.215.145-.457.223-.715.234-.261.012-.515-.043-.765-.164l-1.817-.887zm.782 1.508-1.711 3.508.258.125c.125.063.25.074.375.043.125-.032.219-.109.281-.234l1.301-2.668c.059-.125.059-.25-.008-.383-.062-.129-.16-.227-.289-.29zm4.253.969 1.648.734-1.382 5.863-1.313-.586.332-1.012-.89-.398-.536.922-1.265-.563zm-1.046 3.715.617.277.907-2.781-.028-.012zm4.632-2.16 1.883.777c.445.18.738.422.879.73.144.344.117.762-.082 1.258l-1.09 2.699c-.106.258-.258.465-.465.625-.203.155-.438.25-.695.277-.262.031-.52-.004-.778-.109l-1.875-.758zm.888 1.452-1.461 3.618.265.105c.125.055.25.059.375.016.125-.039.211-.125.262-.25l1.113-2.754c.051-.129.039-.254-.031-.379-.074-.129-.18-.219-.312-.27zm3.506.274 2.872.992-.375 1.09-1.582-.543-.383 1.113 1.379.473-.371 1.078-1.379-.473-.43 1.245 1.637.563-.371 1.078-2.926-1.008zm0 0" fill="#1f1a17"/><path d="m322.121 314.474 1.551-.566c.32-.113.586-.195.809-.238.223-.047.414-.044.582.012.199.059.363.148.496.273s.254.336.363.633l.02.047c.082.23.133.43.148.602.02.168-.008.332-.078.488-.066.151-.191.309-.379.457.246-.023.461.012.648.109s.32.258.402.477l.469 1.297c.152.406.289.648.414.723l-1.27.464c-.051-.026-.117-.101-.191-.222-.078-.125-.148-.278-.215-.457l-.43-1.184c-.055-.148-.133-.258-.234-.32-.098-.067-.219-.074-.363-.023l-.313.113.875 2.41-1.281.465zm1.625.473.461 1.266.402-.145c.117-.043.188-.129.207-.254.023-.125.008-.25-.039-.387l-.098-.27c-.117-.325-.34-.426-.664-.309zm3.075-2.328 1.25-.531 2.316 5.461-1.25.527zm3.468.246c-.207-.465-.238-.898-.086-1.301.148-.398.473-.711.973-.934l.078-.035c.207-.095.422-.148.645-.168s.438.004.645.073c.199.063.383.177.551.341s.309.366.414.605l1.117 2.511c.094.208.145.423.156.638s-.02.426-.094.629c-.074.207-.191.391-.352.559-.156.164-.355.3-.59.406l-.082.035c-.262.117-.516.176-.77.184-.25.004-.473-.043-.66-.137-.379-.211-.652-.504-.82-.879zm1.887-1.023c-.051-.109-.121-.195-.211-.254s-.188-.066-.293-.02l-.039.02c-.105.047-.176.117-.211.211-.031.098-.023.211.035.344l1.266 2.84c.051.109.121.195.215.254.098.059.195.066.297.023l.066-.031c.117-.051.176-.137.188-.262.008-.121-.016-.246-.07-.375zm6.742-2.048 1.602-.851 1.531 2.883-1.055.563-.223-.418-.016.008c-.008.242-.07.445-.191.604-.113.161-.25.286-.406.368l-.094.047c-.195.105-.383.152-.57.145-.18-.008-.352-.06-.512-.156-.16-.098-.305-.219-.426-.367-.125-.148-.234-.309-.324-.48l-1.359-2.559c-.148-.273-.211-.555-.188-.844.02-.285.113-.551.281-.793s.383-.438.656-.582l.09-.047c.488-.258.918-.344 1.297-.262s.672.32.883.715l.324.613-1.148.613-.297-.563c-.133-.25-.324-.309-.574-.176-.129.07-.203.16-.219.277-.02.117.004.234.07.355l1.438 2.699c.141.273.336.344.578.211.25-.13.301-.332.16-.602l-.355-.668-.438.234zm1.559-4.066 1.418-.853c.289-.171.535-.3.746-.39.207-.086.402-.117.574-.098.203.02.383.078.539.176.152.098.313.281.477.551l.027.043c.125.211.215.398.262.559.051.164.055.327.016.496-.035.163-.129.34-.281.523.234-.074.453-.078.656-.02.199.063.363.191.484.395l.707 1.18c.227.375.406.582.547.633l-1.16.699c-.059-.02-.133-.078-.23-.184-.098-.106-.199-.242-.297-.41l-.648-1.078c-.082-.137-.18-.227-.289-.27-.113-.047-.234-.031-.363.047l-.285.172 1.32 2.195-1.172.703zm1.683.153.695 1.156.367-.219c.109-.067.16-.16.156-.289 0-.125-.039-.25-.113-.371l-.145-.246c-.18-.297-.418-.355-.711-.176zm3.258-3.282 1.496-1.012 4.234 4.281-1.191.801-.684-.816-.805.543.496.945-1.148.773zm2.594 2.856.563-.379-1.883-2.243-.023.021zm.812-5.332 1.191-.895 2.98 2.121.012-.008-2.102-2.789 1.047-.785 3.563 4.723-1.191.898-3.074-2.263-.012.009 2.199 2.922-1.051.793zm4.207-3.383 1.57-1.301c.367-.305.719-.449 1.059-.43.367.031.727.25 1.07.664l1.871 2.23c.18.211.289.445.332.699s.016.504-.078.746c-.098.242-.25.453-.461.633l-1.551 1.301zm1.7-.102 2.508 2.987.219-.183c.105-.09.168-.195.191-.324.02-.129-.012-.246-.102-.352l-1.906-2.273c-.09-.105-.207-.156-.352-.152-.148.008-.273.059-.383.148zm2.054-3.187 2.219-2.07.789.844-1.223 1.141.801.863 1.066-.996.781.836-1.07.992.902.965 1.266-1.18.777.832-2.266 2.113zm4.766-4.758 1.371-1.504c.32-.356.652-.547.988-.574.371-.02.754.148 1.156.508l2.16 1.949c.207.184.352.398.43.645s.086.5.023.754-.184.48-.367.688l-1.355 1.504zm1.664-.336 2.902 2.613.191-.215c.094-.102.141-.219.145-.348s-.047-.242-.148-.332l-2.207-1.988c-.102-.094-.223-.125-.367-.098-.145.023-.266.09-.359.195zm2.836-2.508c-.398-.324-.621-.695-.668-1.121s.098-.853.441-1.273l.059-.07c.141-.172.305-.32.492-.441.191-.117.395-.195.609-.227.207-.035.422-.016.648.055.223.066.438.187.645.352l2.137 1.73c.176.141.316.309.426.496.105.188.172.391.199.605s.008.434-.059.652c-.063.223-.18.434-.34.633l-.055.07c-.184.223-.383.391-.605.508-.219.121-.438.18-.652.18-.434-.016-.809-.152-1.129-.41zm1.215-1.769c-.094-.079-.191-.122-.301-.133-.109-.012-.199.027-.27.117l-.027.031c-.074.09-.102.188-.09.289s.074.195.184.284l2.418 1.957c.094.079.195.122.309.13.113.012.203-.027.273-.113l.047-.06c.078-.097.094-.202.047-.315s-.125-.215-.234-.301zm5.043-2.664.746-1.105.418.285c.121.082.246.125.375.129.129.008.23-.047.309-.164l.039-.055c.07-.109.094-.223.07-.34-.027-.121-.094-.215-.203-.29-.262-.175-.633-.175-1.113 0l-.824.282c-.281.093-.559.152-.828.168-.27.02-.539-.063-.809-.246l-.172-.113c-.34-.23-.559-.52-.652-.863-.133-.43-.023-.906.328-1.43.293-.434.625-.716.996-.844.367-.129.773-.043 1.211.25l.441.301-.715 1.055-.262-.18c-.359-.242-.621-.242-.785 0-.168.25-.137.461.105.62.129.087.34.103.633.044.145-.027.379-.102.715-.223.328-.121.613-.207.848-.266.238-.056.5-.066.789-.031s.578.148.863.34c.258.195.438.422.535.684.102.258.121.534.07.824-.059.289-.18.57-.367.852l-.055.078c-.156.234-.355.426-.598.582-.238.156-.496.241-.77.258-.273.02-.531-.055-.766-.215zm.199-7.594 3.836 2.304c.254.153.441.13.563-.073l.039-.066c.055-.086.07-.168.047-.238-.023-.074-.066-.137-.125-.188-.063-.055-.141-.109-.238-.168l-3.711-2.25.699-1.168 3.723 2.233c.262.161.465.368.609.625.148.255.219.532.219.825-.004.297-.082.574-.238.836l-.105.168c-.16.266-.363.473-.617.617-.25.145-.523.215-.813.211-.293 0-.566-.082-.832-.242l-3.754-2.258zm1.656-3.152.617-1.215 4.27 2.176.676-1.324 1.016.516-1.293 2.543zm0 0" fill="#1f1a17"/><path d="m270.028 316.795 1.356.262-.168.852c-.047.25-.157.48-.332.699-.172.215-.399.379-.684.484-.281.105-.605.121-.965.055l-.105-.023c-.309-.059-.578-.18-.805-.355-.23-.176-.395-.402-.496-.68-.102-.277-.117-.582-.051-.922l.547-2.813c.047-.246.148-.48.309-.699.16-.219.382-.383.664-.488.281-.113.617-.129 1.004-.055l.101.02c.332.066.613.191.84.379.23.191.391.418.48.684.094.265.11.543.055.832l-.125.652-1.355-.266.152-.777c.051-.266-.062-.427-.336-.48-.098-.02-.187 0-.269.063-.083.059-.133.148-.157.27l-.601 3.082c-.059.305.051.48.32.531.242.026.391-.102.441-.383zm2.832-1.43c.078-.508.293-.887.637-1.141s.781-.336 1.324-.254l.086.016c.223.035.434.105.629.207.199.105.367.242.5.414.133.164.227.359.277.586.055.23.059.477.02.734l-.43 2.715c-.039.227-.109.434-.219.621s-.25.344-.422.477c-.171.129-.371.223-.597.273-.223.055-.461.063-.715.023l-.09-.016c-.281-.047-.527-.133-.742-.266s-.375-.293-.48-.477c-.208-.383-.278-.778-.211-1.184zm2.14.168c.015-.121.004-.227-.039-.328-.047-.098-.125-.156-.235-.176l-.043-.004c-.113-.02-.211 0-.293.063s-.132.163-.156.305l-.488 3.074c-.016.116-.004.227.043.327.047.103.125.164.238.181l.07.012c.125.02.223-.02.297-.117.078-.098.125-.215.145-.352zm2.5-1.043 1.641.172c.336.035.613.082.832.141.219.055.391.145.516.266.152.137.262.293.328.461.063.172.082.414.047.73l-.004.051c-.023.242-.066.445-.125.605-.059.156-.156.292-.285.402-.129.109-.313.195-.543.246.23.086.41.215.535.383s.176.371.152.605l-.145 1.371c-.047.43-.027.707.055.832l-1.348-.141c-.035-.047-.059-.141-.074-.285s-.012-.313.008-.504l.133-1.254c.016-.156-.008-.285-.07-.391-.059-.102-.168-.16-.316-.176l-.332-.035-.266 2.547-1.359-.145zm1.25 1.136-.141 1.341.426.047c.125.012.223-.035.301-.138.074-.101.117-.222.133-.362l.027-.285c.035-.344-.117-.535-.461-.57zm4.051-.613 1.805.094.809 5.965-1.438-.074-.055-1.063-.969-.051-.172 1.051-1.383-.074zm.355 3.844.672.035-.148-2.922h-.031zm5.125 2.317-.203.242c.074-.008.184-.023.32-.043.234.003.395.07.484.188.094.117.137.238.137.359 0 .413-.254.621-.77.621-.383 0-.734-.074-1.051-.23l.141-.199c.25.094.453.14.609.14.25 0 .375-.089.375-.272 0-.168-.102-.258-.301-.273-.133.02-.238.043-.32.074l-.164-.148.363-.457c-.207-.027-.402-.086-.578-.164-.176-.086-.332-.195-.469-.341-.137-.14-.242-.308-.316-.503s-.109-.41-.109-.645v-2.863c0-.254.055-.5.172-.746.113-.246.297-.445.555-.609.254-.16.582-.238.977-.238h.102c.34 0 .641.07.898.211.262.141.461.332.602.578.141.242.211.508.211.805v.664h-1.375v-.793c0-.273-.141-.406-.422-.406-.102 0-.184.035-.254.109-.066.074-.102.172-.102.297v3.141c0 .305.137.461.414.461.238-.02.363-.176.363-.461v-.941h1.375v.867c0 .25-.063.496-.188.737-.121.243-.309.442-.563.599-.248.153-.553.231-.913.239zm3.551-6.043 1.805-.063 1.324 5.875-1.438.047-.145-1.055-.973.035-.078 1.063-1.383.05zm.688 3.796.676-.023-.406-2.895h-.031zm1.41-5.07c-.055.215-.148.394-.285.543-.141.148-.309.234-.512.258-.074-.012-.215-.055-.418-.129-.199-.078-.352-.113-.457-.109-.141.004-.266.098-.367.281l-.352-.125c.168-.5.398-.754.699-.766.094-.004.172.004.238.022.063.021.176.06.34.114.16.054.285.09.371.098.172-.02.297-.126.383-.316zm1.664 2.731c-.043-.512.07-.93.344-1.258.273-.332.68-.52 1.223-.57l.09-.009c.223-.019.441 0 .66.052.219.055.41.148.586.28.168.125.305.293.41.505.105.206.172.445.195.707l.238 2.738c.02.227 0 .441-.059.652-.063.207-.16.395-.297.563s-.305.309-.512.414c-.203.105-.434.168-.691.191l-.086.008c-.285.027-.547 0-.789-.078-.238-.078-.434-.191-.582-.344-.289-.32-.453-.688-.488-1.102zm2.117-.356c-.008-.121-.047-.223-.113-.309-.07-.086-.16-.125-.27-.113l-.047.004c-.113.008-.203.055-.266.133-.063.082-.09.191-.078.332l.27 3.102c.012.117.051.223.121.309.07.09.16.129.273.117l.074-.004c.125-.012.211-.074.258-.188.051-.114.07-.239.055-.379zm4.715-2.015 2.012-.305c.473-.074.852-.02 1.133.171.301.22.492.591.574 1.122l.457 2.878c.043.274.016.528-.078.771-.094.238-.242.441-.453.598-.207.16-.445.262-.719.305l-1.996.316zm1.504.784.613 3.856.281-.043c.137-.023.246-.082.332-.184.086-.098.117-.215.094-.352l-.465-2.934c-.02-.133-.094-.238-.223-.309s-.262-.094-.402-.07zm3.219-.003c-.105-.5-.043-.93.188-1.29.23-.358.609-.597 1.145-.71l.086-.02c.219-.047.441-.059.664-.031.219.027.426.094.613.207.184.102.34.254.469.449.133.195.227.422.281.676l.57 2.691c.047.223.055.441.02.652-.035.215-.109.414-.227.598-.113.184-.266.344-.453.473-.191.129-.414.223-.664.277l-.086.016c-.281.063-.543.066-.793.02-.246-.048-.453-.141-.617-.273-.328-.281-.535-.625-.621-1.031zm2.058-.61c-.023-.117-.078-.215-.152-.293-.078-.074-.172-.102-.281-.078l-.043.008c-.113.023-.199.082-.25.168-.055.086-.066.199-.039.34l.648 3.043c.023.117.078.215.156.293.082.078.176.105.285.082l.074-.016c.121-.023.199-.098.234-.215.035-.121.039-.246.008-.383zm0 0" fill="#1f1a17"/><path d="m267.086 325.795 8.234 1.465-1.059 3.02c0-.001-7.252-4.649-7.175-4.485zm0 0" fill="#00923f"/><path d="m312 325.795-8.234 1.465 1.063 3.02c-.001-.001 7.253-4.649 7.171-4.485zm0 0" fill="#00923f"/><path d="m289.473 205.978c-1.48-4.012-3.852-8.414-7.105-12.582l7.105-19.18 7.109 19.18c-3.254 4.168-5.625 8.57-7.109 12.582zm-25.833-26.984c-.898 16.813 3.282 25.011 9.223 32.578l-1.75 4.734h-6.602v1.555h14.864l.004-1.555c-1.195-1.516-2.469-3.078-3.738-4.742l5.707-15.418c4.098 5.793 6.102 11.867 8.125 17.184 2.027-5.316 4.031-11.391 8.129-17.184l5.707 15.418c-1.27 1.664-2.543 3.227-3.738 4.742v1.555h14.867v-1.555h-6.605l-1.746-4.734c5.938-7.567 10.121-15.766 9.223-32.578m-51.67 0c6.891 2.813 12.5 7.207 16.817 12.101l9.016-23.984 9.02 23.984c4.316-4.894 9.926-9.289 16.816-12.101m-48.934 4.304c-.633 11.789 3.094 19.559 7.422 25.762l5.687-15.348c-3.124-3.754-7.292-7.328-13.109-10.414m46.199 0c.629 11.789-3.094 19.559-7.426 25.762l-5.688-15.348c3.126-3.754 7.294-7.328 13.114-10.414" fill="#0093dd"/></g></svg>