<svg height="1400" width="2000" xmlns="http://www.w3.org/2000/svg"><path d="m.000028 0h2000v1400h-2000z" fill="#006d34"/><path d="m997.5 135.09375-997.5 894.96875v369.9375h2000v-365.4375z" fill="#b0a966"/><path d="m1000 163.40625-1000 896.71875v339.875h2000v-339.875z" fill="#f2ec00"/><path d="m1698.0906 551.42606-1417.61354-.00001 708.80676-1227.68929z" fill="#bca353" transform="matrix(1.227342 0 0 .638579 -213.7732 1047.871)"/><path d="m1698.0906 551.42606-1417.61354-.00001 708.80676-1227.68929z" fill="#006d34" transform="matrix(1.199732 0 0 .619247 -186.8754 1058.531)"/><g transform="translate(-2769.03 285.6711)"><path d="m2947.6875-211.59375-40.7187 43.46875v374.40625h-60.6875l8.2187 36.75h64.8438v101.4375h-40.5938v37.0625h43.1875c-5.1262 5.83587-8.2501 13.47167-8.25 21.84375 0 18.29509 14.8613 33.15624 33.1563 33.15625 18.295 0 33.125-14.86116 33.125-33.15625v-.3125c-.0821-8.2493-3.1702-15.77779-8.2188-21.53125h43.1563v-37.0625h-40.5625v-101.4375h64.7187l8.3438-36.75h-59v-370.90625z" fill="#b8a857"/><g fill="#fef804"><path d="m2998.8154 418.36887a34.768272 34.768272 0 1 1 -.0017-.34569" transform="matrix(.726762 0 0 .726762 792.679 98.575)"/><path d="m2890 351.875h32v20.5h-32z"/><path d="m2928.5859 351.875h36.5v20.5h-36.5z"/><path d="m2975.5 351.875h33v20.5h-33z"/><path d="m2927.8359 328.75h38v16.25h-38z"/><path d="m2927.8359 305.75h38v16.25h-38z"/><path d="m2927.8359 284.125h38v16.25h-38z"/><path d="m2927.8359 263.625h38v16.25h-38z"/><path d="m2927.8359 242.75h38v16.25h-38z"/><path d="m3036.1948 214.06097h-47.7848v20.48079h44.3466z"/><path d="m2944.25-195.875-28.1562 35.84375 1 394.59375h27.1562zm6.8438 0v430.4375h27.1562l-1-394.59375z" transform="matrix(1.096531 0 0 1 -284.4934839516 0)"/><path d="m2859.1754 214.06097h47.7848v20.48079h-44.3466z"/></g></g><g transform="translate(-1122.885 285.6711)"><path d="m2947.6875-211.59375-40.7187 43.46875v374.40625h-60.6875l8.2187 36.75h64.8438v101.4375h-40.5938v37.0625h43.1875c-5.1262 5.83587-8.2501 13.47167-8.25 21.84375 0 18.29509 14.8613 33.15624 33.1563 33.15625 18.295 0 33.125-14.86116 33.125-33.15625v-.3125c-.0821-8.2493-3.1702-15.77779-8.2188-21.53125h43.1563v-37.0625h-40.5625v-101.4375h64.7187l8.3438-36.75h-59v-370.90625z" fill="#b8a857"/><g fill="#fef804"><path d="m2998.8154 418.36887a34.768272 34.768272 0 1 1 -.0017-.34569" transform="matrix(.726762 0 0 .726762 792.679 98.575)"/><path d="m2890 351.875h32v20.5h-32z"/><path d="m2928.5859 351.875h36.5v20.5h-36.5z"/><path d="m2975.5 351.875h33v20.5h-33z"/><path d="m2927.8359 328.75h38v16.25h-38z"/><path d="m2927.8359 305.75h38v16.25h-38z"/><path d="m2927.8359 284.125h38v16.25h-38z"/><path d="m2927.8359 263.625h38v16.25h-38z"/><path d="m2927.8359 242.75h38v16.25h-38z"/><path d="m3036.1948 214.06097h-47.7848v20.48079h44.3466z"/><path d="m2944.25-195.875-28.1562 35.84375 1 394.59375h27.1562zm6.8438 0v430.4375h27.1562l-1-394.59375z" transform="matrix(1.096531 0 0 1 -284.4934839516 0)"/><path d="m2859.1754 214.06097h47.7848v20.48079h-44.3466z"/></g></g><g transform="translate(-1946.844 913.4687)"><path d="m2947.6875-211.59375-40.7187 43.46875v374.40625h-60.6875l8.2187 36.75h64.8438v101.4375h-40.5938v37.0625h43.1875c-5.1262 5.83587-8.2501 13.47167-8.25 21.84375 0 18.29509 14.8613 33.15624 33.1563 33.15625 18.295 0 33.125-14.86116 33.125-33.15625v-.3125c-.0821-8.2493-3.1702-15.77779-8.2188-21.53125h43.1563v-37.0625h-40.5625v-101.4375h64.7187l8.3438-36.75h-59v-370.90625z" fill="#b8a857"/><g fill="#fef804"><path d="m2998.8154 418.36887a34.768272 34.768272 0 1 1 -.0017-.34569" transform="matrix(.726762 0 0 .726762 792.679 98.575)"/><path d="m2890 351.875h32v20.5h-32z"/><path d="m2928.5859 351.875h36.5v20.5h-36.5z"/><path d="m2975.5 351.875h33v20.5h-33z"/><path d="m2927.8359 328.75h38v16.25h-38z"/><path d="m2927.8359 305.75h38v16.25h-38z"/><path d="m2927.8359 284.125h38v16.25h-38z"/><path d="m2927.8359 263.625h38v16.25h-38z"/><path d="m2927.8359 242.75h38v16.25h-38z"/><path d="m3036.1948 214.06097h-47.7848v20.48079h44.3466z"/><path d="m2944.25-195.875-28.1562 35.84375 1 394.59375h27.1562zm6.8438 0v430.4375h27.1562l-1-394.59375z" transform="matrix(1.096531 0 0 1 -284.4934839516 0)"/><path d="m2859.1754 214.06097h47.7848v20.48079h-44.3466z"/></g></g></svg>