<svg height="500" viewBox="0 0 198.4375 132.29167" width="750" xmlns="http://www.w3.org/2000/svg"><g stroke-width=".524218" transform="matrix(.51855063 0 0 .49125841 -55.121517 -140.646886)"><path d="m106.2992 454.60632v-168.30714h382.6772v168.30714z" fill="#072357" fill-rule="evenodd" stroke-width=".524218"/><path d="m106.2992 555.5906v-100.98428h382.6772v100.98428z" fill="#fbbb00" fill-rule="evenodd" stroke-width=".524218"/><g stroke="#000" stroke-width=".514951"><g transform="matrix(1.0131372 0 0 1.0228765 -3.032622 -7.564822)"><path d="m156.3253 341.4742c1.1421-1.8219 2.0245-4.0797 2.8335-6.4588l-.2917 4.0003c-1.2781 3.5005.4026 6.4173 2.7919.5l.1667-4.4586.125 3.9169c.9859 3.9311 3.0971 2.9033 2.9585-1.0834-.0697-1.4091-.4448-2.59-.9584-3.6669.8121.7713 1.5483 2.3825 2.2501 4.3753.3748 1.5837 2.3749 1.9171 1.3751-.375l-1.3334-4.417 2.8335 2.7085c.8331 1.167 2.8749 1.042 1.6251-1.125l-2.3751-3.0419 2.2084 1.6251c1.3054.8337 2.4444.417 1.5418-1.0001l-1.8751-1.6251c3.9127 3.708 9.0927 6.7609 16.3165 8.7557l1.3062.1224.4082.4491.1633 1.1837 1.4694-.8572.8164 1.1837.2858-1.1021c3.465.0783 5.65 1.6348 6.2861 4.9799.8022 2.0846 2.3944 2.704 2.8573.7756l.1224-2.245.4899 2.5716c.9521 2.5577 2.1087 3.4421 2.7348.9388l-.8163-2.5308 1.1837 2.5308c.3399 1.2107 3.8231 4.7075 3.4696-.4082l-1.3062-2.0818 3.1839 3.4288c1.6186 1.1696 3.4557.5168 2.4491-1.347l-1.347-1.796 2.3675 2.1226c2.2311 2.2991 4.2993.9249 3.143-.8164l-1.347-1.2246c1.8805.8838 3.9824.8841 6.4086-.4082 1.578-1.0207 1.1971-2.6943-.4082-2.2042-7.1014 1.5301-13.4042-.0734-18.9808-4.5309l-2.245-2.5308c-1.7221-1.5162-1.3683-2.6189.9388-3.2655 3.4651-1.707 6.6019-3.2448 9.6333-4.735-.1744 2.9024 2.1458 5.0723 3.3063 1.5103l.5306-3.0206.4491 2.8982c.3398 2.2045 2.8026 4.1638 2.7348.9796l-.7347-4.0002.8164 3.3471.9388 1.3879c.9385 1.5514 2.857 1.7555 2.3267-1.592l-1.3062-2.4899 1.3062 1.8776 1.6735 1.8369c.925.9799 3.2789.5309 2.2859-1.4695l-2.49-2.4491 3.1431 2.3267c2.0543 1.8915 4.1905.0683 2.0001-1.9185l-2.2042-1.5103 4.0003 1.5103c3.0203 1.0207 2.8978-1.8774.0816-2.7349l-3.3471-.9388 4.0818.6939c4.5034.2588 4.1905-1.9726.6531-2.6941-.2724-.1085-3.0344-.1766-4.6533-.1632 1.6597-.1494 3.4421-.0542 4.9799-.449 1.1744-.0811 2.3757-.639 3.2247-1.592.6174-.8385-.6384-2.5203-2.2451-1.7552-6.5525 1.4604-12.5742-.1001-18.7999-.0686-4.585-.0921-8.513.186-10.6265 1.4893-3.1085 1.5738-6.6407 2.6071-10.929 2.6774-11.2096.1627-21.0572-1.7178-29.7757-5.2912-2.4647-.9547-4.1417-.1678-4.6686 3.1643-.005 3.1391-.29 5.7155-.9856 7.4699-.6245 3.3284-4.3861 7.7374-9.0261 12.4497-1.5041 1.5393-.6741 3.3894 1.5562 2.3344 3.1833-2.1357 5.6288-5.0831 7.702-8.4419-.6602 2.8514-1.7158 5.6361-3.0418 8.3755-.6809 3.8061 2.7221 1.5699 3.5835-.5833z" fill="#fff" fill-rule="evenodd" stroke-linecap="round" stroke-linejoin="round" stroke-width=".154434"/><path d="m176.6401 327.1524c11.251-.0777 18.2149-4.8328 36.7937-5.3787" fill="none" stroke-linecap="round" stroke-linejoin="round" stroke-width=".154434"/><path d="m176.7336 322.7403c-7.1773-.254-13.0218.2208-13.5326 5.3008 1.0191-.5616 2.0169-.6035 3.3676-.4989 4.6981 3.2011 7.9617 6.527 14.8422 9.6037" fill="none" stroke-linecap="round" stroke-linejoin="round" stroke-width=".154434"/><path d="m166.6026 323.6587c.4312 1.2478.4238 2.5231-.1134 3.8324" fill="none" stroke-linecap="round" stroke-linejoin="round" stroke-width=".154434"/><g fill-rule="evenodd"><path d="m171.3166 324.4694c1.1704-.1199 2.1566.2245 2.1952.7659.0385.5417-.8847 1.0812-2.0551 1.2008-1.1705.1199-2.1566-.2245-2.1952-.7659-.0385-.5417.8847-1.0812 2.0551-1.2008z" fill="#1b1918" stroke-width=".11123"/><path d="m170.3937 325.1869c.2032 0 .369.1658.369.369 0 .2033-.1658.3691-.369.3691-.2033 0-.3691-.1658-.3691-.3691 0-.2032.1658-.369.3691-.369z" fill="#fff" stroke-width=".11123"/><path d="m188.2876 341.5493c-1.1517.796-2.3297 1.2399-3.685 1.5341l-.8311.968 1.5888.1554-.2798 1.2543 1.4774-.7347.7682 1.3674c.0984-1.3779.3152-2.8553 1.0602-4.263z" fill="#fff" stroke-linecap="round" stroke-linejoin="round" stroke-width=".154434"/><path d="m190.6415 341.7202c.5315 1.2946 1.2776 2.3094 2.253 3.2944l.1695 1.264-1.4162-.7347-.4495 1.2038-.8382-1.4212-1.3896.727c.669-1.2075 1.2926-2.565 1.4343-4.1507z" fill="#fff" stroke-linecap="round" stroke-linejoin="round" stroke-width=".154434"/></g></g><g transform="matrix(1.0131372 0 0 1.0228765 213.81779 -7.564822)"><path d="m156.3253 341.4742c1.1421-1.8219 2.0245-4.0797 2.8335-6.4588l-.2917 4.0003c-1.2781 3.5005.4026 6.4173 2.7919.5l.1667-4.4586.125 3.9169c.9859 3.9311 3.0971 2.9033 2.9585-1.0834-.0697-1.4091-.4448-2.59-.9584-3.6669.8121.7713 1.5483 2.3825 2.2501 4.3753.3748 1.5837 2.3749 1.9171 1.3751-.375l-1.3334-4.417 2.8335 2.7085c.8331 1.167 2.8749 1.042 1.6251-1.125l-2.3751-3.0419 2.2084 1.6251c1.3054.8337 2.4444.417 1.5418-1.0001l-1.8751-1.6251c3.9127 3.708 9.0927 6.7609 16.3165 8.7557l1.3062.1224.4082.4491.1633 1.1837 1.4694-.8572.8164 1.1837.2858-1.1021c3.465.0783 5.65 1.6348 6.2861 4.9799.8022 2.0846 2.3944 2.704 2.8573.7756l.1224-2.245.4899 2.5716c.9521 2.5577 2.1087 3.4421 2.7348.9388l-.8163-2.5308 1.1837 2.5308c.3399 1.2107 3.8231 4.7075 3.4696-.4082l-1.3062-2.0818 3.1839 3.4288c1.6186 1.1696 3.4557.5168 2.4491-1.347l-1.347-1.796 2.3675 2.1226c2.2311 2.2991 4.2993.9249 3.143-.8164l-1.347-1.2246c1.8805.8838 3.9824.8841 6.4086-.4082 1.578-1.0207 1.1971-2.6943-.4082-2.2042-7.1014 1.5301-13.4042-.0734-18.9808-4.5309l-2.245-2.5308c-1.7221-1.5162-1.3683-2.6189.9388-3.2655 3.4651-1.707 6.6019-3.2448 9.6333-4.735-.1744 2.9024 2.1458 5.0723 3.3063 1.5103l.5306-3.0206.4491 2.8982c.3398 2.2045 2.8026 4.1638 2.7348.9796l-.7347-4.0002.8164 3.3471.9388 1.3879c.9385 1.5514 2.857 1.7555 2.3267-1.592l-1.3062-2.4899 1.3062 1.8776 1.6735 1.8369c.925.9799 3.2789.5309 2.2859-1.4695l-2.49-2.4491 3.1431 2.3267c2.0543 1.8915 4.1905.0683 2.0001-1.9185l-2.2042-1.5103 4.0003 1.5103c3.0203 1.0207 2.8978-1.8774.0816-2.7349l-3.3471-.9388 4.0818.6939c4.5034.2588 4.1905-1.9726.6531-2.6941-.2724-.1085-3.0344-.1766-4.6533-.1632 1.6597-.1494 3.4421-.0542 4.9799-.449 1.1744-.0811 2.3757-.639 3.2247-1.592.6174-.8385-.6384-2.5203-2.2451-1.7552-6.5525 1.4604-12.5742-.1001-18.7999-.0686-4.585-.0921-8.513.186-10.6265 1.4893-3.1085 1.5738-6.6407 2.6071-10.929 2.6774-11.2096.1627-21.0572-1.7178-29.7757-5.2912-2.4647-.9547-4.1417-.1678-4.6686 3.1643-.005 3.1391-.29 5.7155-.9856 7.4699-.6245 3.3284-4.3861 7.7374-9.0261 12.4497-1.5041 1.5393-.6741 3.3894 1.5562 2.3344 3.1833-2.1357 5.6288-5.0831 7.702-8.4419-.6602 2.8514-1.7158 5.6361-3.0418 8.3755-.6809 3.8061 2.7221 1.5699 3.5835-.5833z" fill="#fff" fill-rule="evenodd" stroke-linecap="round" stroke-linejoin="round" stroke-width=".154434"/><path d="m176.6401 327.1524c11.251-.0777 18.2149-4.8328 36.7937-5.3787" fill="none" stroke-linecap="round" stroke-linejoin="round" stroke-width=".154434"/><path d="m176.7336 322.7403c-7.1773-.254-13.0218.2208-13.5326 5.3008 1.0191-.5616 2.0169-.6035 3.3676-.4989 4.6981 3.2011 7.9617 6.527 14.8422 9.6037" fill="none" stroke-linecap="round" stroke-linejoin="round" stroke-width=".154434"/><path d="m166.6026 323.6587c.4312 1.2478.4238 2.5231-.1134 3.8324" fill="none" stroke-linecap="round" stroke-linejoin="round" stroke-width=".154434"/><g fill-rule="evenodd"><path d="m171.3166 324.4694c1.1704-.1199 2.1566.2245 2.1952.7659.0385.5417-.8847 1.0812-2.0551 1.2008-1.1705.1199-2.1566-.2245-2.1952-.7659-.0385-.5417.8847-1.0812 2.0551-1.2008z" fill="#1b1918" stroke-width=".11123"/><path d="m170.3937 325.1869c.2032 0 .369.1658.369.369 0 .2033-.1658.3691-.369.3691-.2033 0-.3691-.1658-.3691-.3691 0-.2032.1658-.369.3691-.369z" fill="#fff" stroke-width=".11123"/><path d="m188.2876 341.5493c-1.1517.796-2.3297 1.2399-3.685 1.5341l-.8311.968 1.5888.1554-.2798 1.2543 1.4774-.7347.7682 1.3674c.0984-1.3779.3152-2.8553 1.0602-4.263z" fill="#fff" stroke-linecap="round" stroke-linejoin="round" stroke-width=".154434"/><path d="m190.6415 341.7202c.5315 1.2946 1.2776 2.3094 2.253 3.2944l.1695 1.264-1.4162-.7347-.4495 1.2038-.8382-1.4212-1.3896.727c.669-1.2075 1.2926-2.565 1.4343-4.1507z" fill="#fff" stroke-linecap="round" stroke-linejoin="round" stroke-width=".154434"/></g></g><g transform="matrix(1.0131372 0 0 1.0228765 105.39258 67.836771)"><path d="m156.3253 341.4742c1.1421-1.8219 2.0245-4.0797 2.8335-6.4588l-.2917 4.0003c-1.2781 3.5005.4026 6.4173 2.7919.5l.1667-4.4586.125 3.9169c.9859 3.9311 3.0971 2.9033 2.9585-1.0834-.0697-1.4091-.4448-2.59-.9584-3.6669.8121.7713 1.5483 2.3825 2.2501 4.3753.3748 1.5837 2.3749 1.9171 1.3751-.375l-1.3334-4.417 2.8335 2.7085c.8331 1.167 2.8749 1.042 1.6251-1.125l-2.3751-3.0419 2.2084 1.6251c1.3054.8337 2.4444.417 1.5418-1.0001l-1.8751-1.6251c3.9127 3.708 9.0927 6.7609 16.3165 8.7557l1.3062.1224.4082.4491.1633 1.1837 1.4694-.8572.8164 1.1837.2858-1.1021c3.465.0783 5.65 1.6348 6.2861 4.9799.8022 2.0846 2.3944 2.704 2.8573.7756l.1224-2.245.4899 2.5716c.9521 2.5577 2.1087 3.4421 2.7348.9388l-.8163-2.5308 1.1837 2.5308c.3399 1.2107 3.8231 4.7075 3.4696-.4082l-1.3062-2.0818 3.1839 3.4288c1.6186 1.1696 3.4557.5168 2.4491-1.347l-1.347-1.796 2.3675 2.1226c2.2311 2.2991 4.2993.9249 3.143-.8164l-1.347-1.2246c1.8805.8838 3.9824.8841 6.4086-.4082 1.578-1.0207 1.1971-2.6943-.4082-2.2042-7.1014 1.5301-13.4042-.0734-18.9808-4.5309l-2.245-2.5308c-1.7221-1.5162-1.3683-2.6189.9388-3.2655 3.4651-1.707 6.6019-3.2448 9.6333-4.735-.1744 2.9024 2.1458 5.0723 3.3063 1.5103l.5306-3.0206.4491 2.8982c.3398 2.2045 2.8026 4.1638 2.7348.9796l-.7347-4.0002.8164 3.3471.9388 1.3879c.9385 1.5514 2.857 1.7555 2.3267-1.592l-1.3062-2.4899 1.3062 1.8776 1.6735 1.8369c.925.9799 3.2789.5309 2.2859-1.4695l-2.49-2.4491 3.1431 2.3267c2.0543 1.8915 4.1905.0683 2.0001-1.9185l-2.2042-1.5103 4.0003 1.5103c3.0203 1.0207 2.8978-1.8774.0816-2.7349l-3.3471-.9388 4.0818.6939c4.5034.2588 4.1905-1.9726.6531-2.6941-.2724-.1085-3.0344-.1766-4.6533-.1632 1.6597-.1494 3.4421-.0542 4.9799-.449 1.1744-.0811 2.3757-.639 3.2247-1.592.6174-.8385-.6384-2.5203-2.2451-1.7552-6.5525 1.4604-12.5742-.1001-18.7999-.0686-4.585-.0921-8.513.186-10.6265 1.4893-3.1085 1.5738-6.6407 2.6071-10.929 2.6774-11.2096.1627-21.0572-1.7178-29.7757-5.2912-2.4647-.9547-4.1417-.1678-4.6686 3.1643-.005 3.1391-.29 5.7155-.9856 7.4699-.6245 3.3284-4.3861 7.7374-9.0261 12.4497-1.5041 1.5393-.6741 3.3894 1.5562 2.3344 3.1833-2.1357 5.6288-5.0831 7.702-8.4419-.6602 2.8514-1.7158 5.6361-3.0418 8.3755-.6809 3.8061 2.7221 1.5699 3.5835-.5833z" fill="#fff" fill-rule="evenodd" stroke-linecap="round" stroke-linejoin="round" stroke-width=".154434"/><path d="m176.6401 327.1524c11.251-.0777 18.2149-4.8328 36.7937-5.3787" fill="none" stroke-linecap="round" stroke-linejoin="round" stroke-width=".154434"/><path d="m176.7336 322.7403c-7.1773-.254-13.0218.2208-13.5326 5.3008 1.0191-.5616 2.0169-.6035 3.3676-.4989 4.6981 3.2011 7.9617 6.527 14.8422 9.6037" fill="none" stroke-linecap="round" stroke-linejoin="round" stroke-width=".154434"/><path d="m166.6026 323.6587c.4312 1.2478.4238 2.5231-.1134 3.8324" fill="none" stroke-linecap="round" stroke-linejoin="round" stroke-width=".154434"/><g fill-rule="evenodd"><path d="m171.3166 324.4694c1.1704-.1199 2.1566.2245 2.1952.7659.0385.5417-.8847 1.0812-2.0551 1.2008-1.1705.1199-2.1566-.2245-2.1952-.7659-.0385-.5417.8847-1.0812 2.0551-1.2008z" fill="#1b1918" stroke-width=".11123"/><path d="m170.3937 325.1869c.2032 0 .369.1658.369.369 0 .2033-.1658.3691-.369.3691-.2033 0-.3691-.1658-.3691-.3691 0-.2032.1658-.369.3691-.369z" fill="#fff" stroke-width=".11123"/><path d="m188.2876 341.5493c-1.1517.796-2.3297 1.2399-3.685 1.5341l-.8311.968 1.5888.1554-.2798 1.2543 1.4774-.7347.7682 1.3674c.0984-1.3779.3152-2.8553 1.0602-4.263z" fill="#fff" stroke-linecap="round" stroke-linejoin="round" stroke-width=".154434"/><path d="m190.6415 341.7202c.5315 1.2946 1.2776 2.3094 2.253 3.2944l.1695 1.264-1.4162-.7347-.4495 1.2038-.8382-1.4212-1.3896.727c.669-1.2075 1.2926-2.565 1.4343-4.1507z" fill="#fff" stroke-linecap="round" stroke-linejoin="round" stroke-width=".154434"/></g></g></g></g></svg>