<svg enable-background="new 0 0 900 630" height="630" viewBox="0 0 900 630" width="900" xmlns="http://www.w3.org/2000/svg"><path d="m0 0h900v630h-900z" fill="#fff"/><g transform="translate(-2.340186 -3.502598)"><path d="m383.421 358.556v42.681l.253 6.511 1.182 8.047h134.311l1.268-10.218.084-10.037v-18.537-18.627z" fill="#7c93d4"/><path d="m384.692 416.039 1.434 6.84 2.448 8.886 2.209 6.296 2.238 5.019 2.12 3.675 2.448 4.187 1.851 2.717 1.434 1.886 4.896 5.625 7.523 6.393 8.271 4.698 8.838 3.26 6.628 1.47 8.091 1.15 5.613.256 3.822-.063 7.046-.479 7.703-1.246 3.345-.927 3.672-1.055 6.301-2.557 4.866-2.557 5.613-3.932 4.448-3.771 3.643-4.06 3.403-4.187 2.896-4.219 3.313-6.232 2.747-5.945 1.731-5.273 2.27-8.086 1.611-7.799z" fill="#15fa00"/><path d="m383.318 309.698h137.175v48.982h-137.175z" fill="#fadf00"/><g transform="matrix(.4796325 0 0 .513433 233.75218 28.809393)"><path d="m313.854 745.966 1.387 7.384h280.454l-.554-7.384-63.185.791-4.711-3.954-6.927.263v-46.147l-7.759.791.277-22.678-6.373-.262 1.385 5.272-7.48 1.583.554-4.483-6.652-.527-.831 4.219-80.921-.263-.275-7.382-6.098-.264-.277 7.119-4.709.791-4.158-7.646-2.492 2.899v20.833h-6.929v46.409l-12.748.263-2.217 3.429z" fill="#fadf00"/><path d="m425.883 743.763.497-22.784 3.113-11.454 19.422-11.952 14.191.622 9.96 5.851 4.233 4.981 4.608 5.727.497 29.008z" fill="#7c93d4"/><g fill="none" stroke="#000" stroke-width="1.455"><path d="m313.154 746.379 59.178 1.118 2.352-3.73 152.066-.371 5.485 3.355h63.493"/><path d="m387.619 743.767.391-46.242h7.053l-.782-21.255 2.743-2.61 3.919 7.085s4.701.744 4.701-.746c0-1.491.784-6.339.784-6.339h6.269l-.391 6.712h81.127l.391-3.728 6.662.744v4.475l7.055-1.491-.784-5.219 5.487.371.391 22.375 7.837-.746v46.99"/><path d="m512.641 697.525 1.175 46.179"/><path d="m493.828 679.998 1.175 64.016"/><path d="m412.701 680.371-.784 63.396"/><path d="m388.01 732.579h37.624"/><path d="m393.888 697.525-.031 46.645"/><path d="m387.619 721.019 39.184.186"/><path d="m388.297 709.458 41.542.373"/><path d="m393.888 697.525 34.098.371 10.188 6.901"/><path d="m421.715 697.898v11.561"/><path d="m402.904 709.458.391 11.933"/><path d="m403.295 732.207-.236 11.901"/><path d="m395.456 688.574 33.314.373 6.269-3.357.391-4.846"/><path d="m435.825 685.219 7.053 4.103-.391 11.931-12.933 8.578-3.136 11.186-.782 23.058"/><path d="m442.88 700.882 5.878-3.357 14.892.746 10.188 6.339 7.839 10.069.784 29.088"/><path d="m427.595 688.947v8.951"/><path d="m402.904 688.574c0 1.864-.391 9.324-.391 9.324"/><path d="m463.063 697.525.782-8.763 7.839-3.169v-6.153"/><path d="m471.882 685.219 9.798 3.728-.195 8.017-9.407 6.901"/><path d="m482.072 696.593 6.074.932 23.908-.932"/><path d="m488.146 697.898-.195 10.069-8.425 4.101"/><path d="m488.146 707.781h32.921"/><path d="m503.821 707.967v14.543l-21.947-.185"/><path d="m520.871 722.137-16.995.373"/><path d="m482.267 732.579 38.799-.371"/><path d="m503.43 732.768.195 10.813"/></g></g><g stroke="#000"><g fill="none" transform="matrix(.4796325 0 0 .513433 233.75218 28.809393)"><path d="m454.404 875.283c149.402 0 143.427-156.377 143.427-156.377v-172.313l-142.96-.443.014.004-142.96.443v172.313s-5.976 156.377 143.429 156.377z" stroke-width="1.451"/><path d="m315.446 753.848h279.574" stroke-width="1.451"/><path d="m311.704 643.234h287.743" stroke-width="1.062"/></g><path d="m447.246 433.359-.241-5.163 6.872-2.968-.24 6.453z" fill="#fadf00" stroke-width=".9837"/><path d="m453.877 431.681-.361 3.484" fill="none" stroke-width=".9837"/><path d="m460.387 435.165-10.851.388-5.908 5.549-4.943 9.422.482 3.872 7.596.258 5.787 2.322-.241-7.873 1.567-6.323 1.929-3.872z" fill="#fadf00" stroke-width=".9837"/><path d="m460.146 443.168s-.24 10.453.241 10.195" fill="none" stroke-width=".9837"/><path d="m465.692 444.201.241 7.873 5.426 5.162" fill="none" stroke-width=".9837"/><path d="m460.35 452.923s-1.169 8.572-1.169 9.088l-1.929-3.098-1.446-1.677h-3.496" fill="none" stroke-width=".9837"/><path d="m456.288 446.007-.12 11.357" fill="none" stroke-width=".9837"/><path d="m449.778 455.558v6.841" fill="none" stroke-width=".9837"/><path d="m407.504 462.704h89.096l-5.15 3.972-4.729 3.254-4.813 2.441-6.925 2.621-3.8 1.085-6.756 1.446-7.517.723-7.685.091-3.208-.181-5.405-.543-7.009-1.266-7.348-2.259-3.8-1.537-5.658-3.073-4.054-2.351-4.053-3.254z" fill="#7d7d7d" opacity=".5" stroke-width=".6774"/><path d="m453.877 457.236-.241 6.324" fill="none" stroke-width=".9837"/><path d="m447.366 455.042v3.354l-2.411 2.065" fill="none" stroke-width=".9837"/><path d="m428.677 450.396c.12.645 6.511 5.033 6.511 5.033" fill="none" stroke-width=".9837"/><path d="m434.706 455.3.482 2.71 2.05 4.904-.603 4.259 5.787.645 5.063.645h18.206l3.616-1.161.121-4.904 2.652-5.162-1.326-.646-9.404 3.872-2.17 2.452-9.284-.258-4.22-1.29-3.134-3.098-3.617-2.065z" fill="#fadf00" stroke-width=".9837"/><path d="m433.742 446.136 5.305 4.26" fill="none" stroke-width=".9837"/><path d="m460.266 431.681-.24 12.906" fill="none" stroke-width=".9837"/><path d="m460.119 453.432 10.218-6.825.549 1.311-10.81 7.413z" fill="#fadf00" stroke-width=".9254"/><path d="m454.118 443.942 15.313-11.873-2.411 5.55-14.589 11.486.965-5.292z" fill="#fadf00" stroke-width=".9837"/><path d="m465.861 452.211v6.419" fill="none" stroke-width=".6774"/><path d="m435.121 457.636h6.503" fill="none" opacity=".75" stroke-width=".9254"/><path d="m435.543 459.353h8.192" fill="none" opacity=".75" stroke-width=".9254"/><path d="m436.472 460.89h8.613" fill="none" opacity=".75" stroke-width=".9254"/><path d="m437.232 462.879h32.176" fill="none" opacity=".75" stroke-width=".9254"/><path d="m437.232 464.869h32.007" fill="none" opacity=".75" stroke-width=".9254"/><path d="m436.556 466.947h32.936" fill="none" opacity=".75" stroke-width=".9254"/><path d="m461.047 460.89h9.121" fill="none" opacity=".75" stroke-width=".9254"/><path d="m465.016 458.992h6.165" fill="none" opacity=".75" stroke-width=".9254"/><path d="m439.648 316.878 7.36 6.798v3.708l-1.876 1.699h-3.392l-7.722-8.266v25.338l6.53-6.991h4.583l1.714 1.835v3.225l-6.595 7.059h22.344l-6.544-7.005v-3.452l1.721-1.842h1.721l7.932 8.491v-25.575l-6.78 7.258h-3.028l-1.55-1.659v-3.513l8.244-8.825h-25.89z" fill="#ea1b1e" stroke-width=".7201"/><path d="m441.087 331.729v4.969h8.124v8.696h4.642v-8.696h8.124v-4.969h-8.124v-8.696h-4.642v8.696z" fill="#fadf00" stroke-width=".9254"/></g></g><g transform="translate(-2.471309 -3.502598)"><g stroke="#000"><path d="m393.43 251.801c.747-.641 1.57-1.189 2.735-1.82l1.662 6.459-2.604 1.503z" fill="#d4a110" stroke-width=".9837"/><path d="m397.91 248.882c.678-.469 1.718-1.068 2.725-1.302l2.078 6.21-3.12 1.196z" fill="#d4a110" stroke-width=".9837"/><path d="m402.924 246.313c.962-.61 1.957-.98 2.887-1.248l1.326 6.79-3.216.858z" fill="#d4a110" stroke-width=".9837"/><path d="m437.137 237.735 3.307-.209.362 6.559-3.308.209z" fill="#d4a110" stroke-width=".9837"/><path d="m430.992 238.378 3.294-.38.657 6.533-3.295.379z" fill="#d4a110" stroke-width=".9837"/><path d="m425.256 239.278 3.281-.493.854 6.507-3.282.493z" fill="#d4a110" stroke-width=".9838"/><path d="m513.143 251.801c-.747-.641-1.57-1.189-2.735-1.82l-1.662 6.459 2.604 1.503z" fill="#d4a110" stroke-width=".9837"/><path d="m508.662 248.882c-.677-.469-1.717-1.068-2.724-1.302l-2.078 6.21 3.12 1.196z" fill="#d4a110" stroke-width=".9837"/><path d="m503.648 246.313c-.961-.61-1.956-.98-2.886-1.248l-1.326 6.79 3.216.858z" fill="#d4a110" stroke-width=".9837"/><path d="m469.242 237.706-3.308-.209-.361 6.559 3.308.209z" fill="#d4a110" stroke-width=".9837"/><path d="m475.707 238.411-3.294-.38-.657 6.533 3.294.379z" fill="#d4a110" stroke-width=".9837"/><path d="m481.233 239.454-3.281-.492-.853 6.506 3.281.493z" fill="#d4a110" stroke-width=".9838"/><path d="m388.809 260.66 7.627 18.661 112.615.22 8.711-18.881c-10.107-14.178-41.296-19.792-64.477-19.792s-54.368 5.614-64.476 19.792z" fill="#d4a110" stroke-width=".9837"/><path d="m453.684 250.094c34.682 0 56.577 9.735 62.528 15.903" fill="none" stroke-width=".9837"/><path d="m453.684 245.5c34.682 0 58.03 10.725 63.981 16.893" fill="none" stroke-width=".9837"/><path d="m453.684 254.688c34.682 0 55.124 8.604 61.076 14.771" fill="none" stroke-width=".9837"/><path d="m453.486 245.5c-34.682 0-58.029 10.725-63.98 16.893" fill="none" stroke-width=".9837"/><path d="m453.684 259c34.682 0 53.407 7.686 59.821 13.712" fill="none" stroke-width=".9837"/><path d="m453.486 250.094c-34.682 0-56.577 9.735-62.528 15.903" fill="none" stroke-width=".9837"/><path d="m453.486 254.688c-34.682 0-55.124 8.604-61.075 14.771" fill="none" stroke-width=".9837"/><path d="m453.486 259c-34.682 0-53.407 7.686-59.821 13.712" fill="none" stroke-width=".9837"/><path d="m442.165 216.95v7.269l1.979 3.401-1.783 37.945h21.868l-1.783-37.945 1.963-3.401v-7.269h-3.237v3.273h-3.103v-3.273h-3.237v3.273h-3.088v-3.273h-3.237v3.273h-3.102v-3.273z" fill="#d4a110" stroke-width=".9837"/><path d="m453.287 248.666c1.021 0 1.844 2.195 1.844 4.922v11.096h-3.688v-11.096c-.001-2.727.822-4.922 1.844-4.922z" stroke-width=".9837"/><path d="m442.165 224.219h22.243z" fill="none" stroke-width=".9837"/><path d="m444.143 227.62h18.301z" fill="none" stroke-width=".9837"/><path d="m444.014 231.473h18.488" fill="none" stroke-width=".9837"/><path d="m443.781 235.621h18.908" fill="none" stroke-width=".9837"/><path d="m443.641 239.569h19.235" fill="none" stroke-width=".9837"/><path d="m443.407 244.367h19.702" fill="none" stroke-width=".9837"/><path d="m453.287 231.973c.646 0 1.166 1.003 1.166 2.249v5.071h-2.334v-5.071c0-1.246.521-2.249 1.168-2.249z" stroke-width=".9837"/><path d="m443.267 248.266h19.982" fill="none" stroke-width=".9837"/><path d="m443.033 253.264h20.496" fill="none" stroke-width=".9837"/><path d="m442.847 258.061h20.87" fill="none" stroke-width=".9837"/><path d="m453.398 227.624v3.748" fill="none" stroke-width=".9837"/><path d="m458.819 231.473v4.148" fill="none" stroke-width=".9837"/><path d="m453.445 244.367v3.798" fill="none" stroke-width=".9837"/><path d="m530.269 245.065-2.707 4.877-1.849 1.767-11.423 29.19-7.065-5.583 6.537-19.013-1.452-1.272 3.631-8.622.099-2.686 1.617-4.595 1.981-.706-1.155 2.968.857-.282 1.354-3.074 1.717-.601-1.386 3.145.824-.282 1.65-3.216 1.882-.706 1.354 2.155-1.354 2.438.429.565 1.32-2.298.892 1.731-1.386 2.298.297.459 1.386-2.227.892 1.695-1.453 2.332.33.602 1.453-2.368.726 1.308h.002z" fill="#d4a110" stroke-width=".9837"/><path d="m511.649 271.43-1.915 4.1" fill="none" stroke-width=".9837"/><path d="m501.813 235.49-2.801 39.482-19.796-4.197 4.481-35.685-.7-3.148-.093-6.598.84-.999.14 3.398.794-.899-.141-3.549 1.214-1.299.093 3.849.794-.699-.047-4.248 1.4-1.2 2.895.95-.046 3.598 2.054.6.093-3.598 2.615.899-.047 3.448 2.521.799.046-3.398 2.475.85v3.348l2.055.7.093-3.398 2.007.649-.42 7.946-2.521 2.398z" fill="#d4a110" stroke-width=".9837"/><path d="m487.994 219.696-.187 7.946.279 4.148-8.123 38.283" fill="none" stroke-width=".9837"/><path d="m525.449 236.442c-.198.247-2.74 5.407-2.74 5.407l-.66 3.463-13.898 29.155" fill="none" stroke-width=".9837"/><path d="m485.304 261.322c-.132 1.695-.792 5.089-.792 5.089" fill="none" stroke-width=".9837"/><path d="m492.14 253.953c-.885-.127-1.868 1.947-2.207 4.65l-1.374 10.997 3.193.457 1.374-10.997c.338-2.703-.103-4.981-.986-5.107z" stroke-width=".9837"/><path d="m458.815 231.342v4.148" fill="none" stroke-width=".9837"/><path d="m459.193 239.488v4.748" fill="none" stroke-width=".9837"/><path d="m459.474 248.135v4.897" fill="none" stroke-width=".9837"/><path d="m460.034 257.98v5.548" fill="none" stroke-width=".9837"/><path d="m504.241 232.941-16.527-5.198" fill="none" stroke-width=".9837"/><path d="m487.714 227.893-4.762 4.098" fill="none" stroke-width=".9837"/><path d="m483.698 235.091 4.342-3.648 13.68 3.948" fill="none" stroke-width=".9837"/><path d="m494.82 237.346c-.535-.102-1.168 1.033-1.419 2.545l-.989 5.622 1.896.544 1.023-5.798c.252-1.512.023-2.812-.511-2.913z" stroke-width=".9837"/><path d="m501.481 239.411-14.064-3.958-4.159 3.887" fill="none" stroke-width=".9837"/><path d="m501.283 243.157-14.658-3.746-3.829 3.463" fill="none" stroke-width=".9837"/><path d="m500.887 248.104-15.318-4.275-3.169 2.934" fill="none" stroke-width=".9837"/><path d="m500.754 252.204-15.912-4.312-3.037 2.12" fill="none" stroke-width=".9837"/><path d="m500.293 256.162-16.375-4.17-2.641 1.555" fill="none" stroke-width=".9837"/><path d="m480.946 256.516 1.98-.494 16.969 4.523" fill="none" stroke-width=".9837"/><path d="m480.484 260.827 1.65-.424 17.629 4.523" fill="none" stroke-width=".9837"/><path d="m486.295 256.869.924-3.958" fill="none" stroke-width=".9837"/><path d="m496.991 255.385-.396 4.382" fill="none" stroke-width=".9837"/><path d="m492.766 250.084-.595 4.028" fill="none" stroke-width=".9837"/><path d="m488.935 244.57-.726 4.1" fill="none" stroke-width=".9837"/><path d="m490.388 236.371-.659 3.746" fill="none" stroke-width=".9837"/><path d="m495.604 233.757-.726 3.604" fill="none" stroke-width=".9837"/><path d="m498.906 238.846-.66 3.604" fill="none" stroke-width=".9837"/><path d="m497.849 247.185-.462 4.1" fill="none" stroke-width=".9837"/><path d="m522.807 241.708c.132.035 4.787 8.27 4.787 8.27" fill="none" stroke-width=".9837"/><path d="m522.082 245.277 3.598 6.325" fill="none" stroke-width=".9837"/><path d="m522.774 241.779-6.701 1.979" fill="none" stroke-width=".9837"/><path d="m515.908 246.478 6.074-1.236" fill="none" stroke-width=".9837"/><path d="m524.723 254.395-4.094-6.22-5.877.989" fill="none" stroke-width=".9837"/><path d="m523.402 257.93-4.49-6.008-5.348.565" fill="none" stroke-width=".9837"/><path d="m521.949 261.676c-.33-.495-4.754-6.291-4.754-6.291l-4.423.07" fill="none" stroke-width=".9837"/><path d="m520.629 265.068-5.018-5.796-2.707-.283" fill="none" stroke-width=".9837"/><path d="m518.978 268.885-5.216-5.866-2.179-.212" fill="none" stroke-width=".9837"/><path d="m522.627 251.967c-.325-.185-.895.553-1.439 1.655l-1.82 3.916.78 1.268 1.887-4.129c.543-1.102.918-2.527.592-2.71z" stroke-width=".9837"/><path d="m521.124 255.066-1.584 3.251" fill="none" stroke-width=".9837"/><path d="m518.45 257.011-1.717 3.604" fill="none" stroke-width=".9837"/><path d="m520.762 260.191-1.387 3.18" fill="none" stroke-width=".9837"/><path d="m521.619 249.801-1.782 3.322" fill="none" stroke-width=".9837"/><path d="m523.931 253.193-1.519 3.251" fill="none" stroke-width=".9837"/><path d="m515.941 252.204-1.321 3.11" fill="none" stroke-width=".9837"/><path d="m518.846 245.843-1.188 2.756" fill="none" stroke-width=".9837"/><path d="m524.128 249.023-1.221 2.474" fill="none" stroke-width=".9837"/><path d="m485.634 233.544-.528 3.816" fill="none" stroke-width=".9837"/><path d="m484.512 241.39-.627 3.852" fill="none" stroke-width=".9837"/><path d="m479.361 243.227-.429 4.347" fill="none" stroke-width=".9837"/><path d="m467.543 241.673-.231 4.382" fill="none" stroke-width=".9837"/><path d="m467.212 250.649-.198 4.487" fill="none" stroke-width=".9837"/><path d="m478.47 251.992-.396 4.24" fill="none" stroke-width=".9837"/><path d="m472.527 255.703-.23 3.958" fill="none" stroke-width=".9837"/><path d="m477.776 260.332-.462 4.665" fill="none" stroke-width=".9837"/><path d="m466.948 259.484-.132 4.24" fill="none" stroke-width=".9837"/><path d="m503.891 250.189-.858 3.853" fill="none" stroke-width=".9837"/><path d="m510.691 253.935-.726 3.357" fill="none" stroke-width=".9837"/><path d="m502.372 258.282-.462 3.853" fill="none" stroke-width=".9837"/><path d="m509.206 261.463-.627 3.853" fill="none" stroke-width=".9837"/><path d="m505.442 255.173 2.014 1.06-.792 3.746-1.948-.954z" stroke-width=".9837"/><path d="m474.674 247.079-.363 4.135-2.674-.317.23-4.276z" stroke-width=".9837"/><path d="m376.304 245.065 2.707 4.877 1.849 1.767 11.423 29.19 7.065-5.583-6.537-19.013 1.452-1.272-3.631-8.622-.099-2.686-1.617-4.595-1.981-.706 1.155 2.968-.857-.282-1.354-3.074-1.717-.601 1.386 3.145-.824-.282-1.651-3.216-1.881-.706-1.354 2.155 1.354 2.438-.429.565-1.321-2.298-.891 1.731 1.386 2.298-.297.459-1.386-2.227-.892 1.695 1.453 2.332-.33.602-1.452-2.368-.727 1.308h-.002z" fill="#d4a110" stroke-width=".9837"/><path d="m404.76 235.49 2.801 39.482 19.796-4.197-4.481-35.685.7-3.148.093-6.598-.84-.999-.141 3.398-.793-.899.14-3.549-1.213-1.299-.093 3.849-.794-.699.047-4.248-1.4-1.2-2.895.95.046 3.598-2.054.6-.093-3.598-2.615.899.047 3.448-2.521.799-.046-3.398-2.475.85v3.348l-2.055.7-.093-3.398-2.007.649.42 7.946 2.521 2.398z" fill="#d4a110" stroke-width=".9837"/><path d="m418.58 219.696.187 7.946-.28 4.148 8.124 38.283" fill="none" stroke-width=".9837"/><path d="m381.124 236.442c.198.247 2.74 5.407 2.74 5.407l.66 3.463 13.899 29.155" fill="none" stroke-width=".9837"/><path d="m390.282 266.215c.534-.249 1.783 1.563 2.802 4.063l4.141 10.171-1.928.899-4.142-10.171c-1.017-2.499-1.407-4.713-.873-4.962z" stroke-width=".9837"/><path d="m421.269 261.322c.132 1.695.792 5.089.792 5.089" fill="none" stroke-width=".9837"/><path d="m414.433 253.953c.885-.127 1.868 1.947 2.207 4.65l1.374 10.997-3.193.457-1.374-10.997c-.338-2.703.103-4.981.986-5.107z" stroke-width=".9837"/><path d="m447.759 231.342v4.148" fill="none" stroke-width=".9837"/><path d="m447.38 239.488v4.748" fill="none" stroke-width=".9837"/><path d="m447.099 248.135v4.897" fill="none" stroke-width=".9837"/><path d="m446.54 257.98v5.548" fill="none" stroke-width=".9837"/><path d="m402.332 232.941 16.527-5.198" fill="none" stroke-width=".9837"/><path d="m418.86 227.893 4.762 4.098" fill="none" stroke-width=".9837"/><path d="m422.875 235.091-4.342-3.648-13.68 3.948" fill="none" stroke-width=".9837"/><path d="m411.753 237.346c.535-.102 1.168 1.033 1.419 2.545l.989 5.622-1.897.544-1.022-5.798c-.252-1.513-.023-2.812.511-2.913z" stroke-width=".9837"/><path d="m405.092 239.411 14.064-3.958 4.159 3.887" fill="none" stroke-width=".9837"/><path d="m405.29 243.157 14.658-3.746 3.829 3.463" fill="none" stroke-width=".9837"/><path d="m405.686 248.104 15.318-4.275 3.169 2.934" fill="none" stroke-width=".9837"/><path d="m405.818 252.204 15.913-4.312 3.037 2.12" fill="none" stroke-width=".9837"/><path d="m406.28 256.162 16.375-4.17 2.641 1.555" fill="none" stroke-width=".9837"/><path d="m425.627 256.516-1.98-.494-16.969 4.523" fill="none" stroke-width=".9837"/><path d="m426.09 260.827-1.65-.424-17.63 4.523" fill="none" stroke-width=".9837"/><path d="m420.278 256.869-.924-3.958" fill="none" stroke-width=".9837"/><path d="m409.582 255.385.396 4.382" fill="none" stroke-width=".9837"/><path d="m413.807 250.084.595 4.028" fill="none" stroke-width=".9837"/><path d="m417.638 244.57.727 4.1" fill="none" stroke-width=".9837"/><path d="m416.185 236.371.659 3.746" fill="none" stroke-width=".9837"/><path d="m410.969 233.757.727 3.604" fill="none" stroke-width=".9837"/><path d="m407.667 238.846.66 3.604" fill="none" stroke-width=".9837"/><path d="m408.724 247.185.462 4.1" fill="none" stroke-width=".9837"/><path d="m383.766 241.708c-.132.035-4.787 8.27-4.787 8.27" fill="none" stroke-width=".9837"/><path d="m384.491 245.277-3.598 6.325" fill="none" stroke-width=".9837"/><path d="m383.799 241.779 6.701 1.979" fill="none" stroke-width=".9837"/><path d="m390.665 246.478-6.074-1.236" fill="none" stroke-width=".9837"/><path d="m381.85 254.395 4.094-6.22 5.876.989" fill="none" stroke-width=".9837"/><path d="m383.171 257.93 4.49-6.008 5.348.565" fill="none" stroke-width=".9837"/><path d="m384.624 261.676c.33-.495 4.754-6.291 4.754-6.291l4.423.07" fill="none" stroke-width=".9837"/><path d="m385.944 265.068 5.018-5.796 2.707-.282" fill="none" stroke-width=".9837"/><path d="m383.946 251.967c.325-.185.895.553 1.439 1.655l1.82 3.916-.78 1.268-1.887-4.129c-.544-1.102-.918-2.527-.592-2.71z" stroke-width=".9837"/><path d="m385.449 255.066 1.584 3.251" fill="none" stroke-width=".9837"/><path d="m388.123 257.011 1.717 3.604" fill="none" stroke-width=".9837"/><path d="m385.812 260.191 1.386 3.18" fill="none" stroke-width=".9837"/><path d="m384.954 249.801 1.782 3.322" fill="none" stroke-width=".9837"/><path d="m382.642 253.193 1.519 3.251" fill="none" stroke-width=".9837"/><path d="m390.632 252.204 1.321 3.11" fill="none" stroke-width=".9837"/><path d="m387.727 245.843 1.188 2.756" fill="none" stroke-width=".9837"/><path d="m382.445 249.023 1.221 2.474" fill="none" stroke-width=".9837"/><path d="m420.939 233.544.528 3.816" fill="none" stroke-width=".9837"/><path d="m422.061 241.39.627 3.852" fill="none" stroke-width=".9837"/><path d="m427.212 243.227.429 4.347" fill="none" stroke-width=".9837"/><path d="m439.031 241.673.23 4.382" fill="none" stroke-width=".9837"/><path d="m439.361 250.649.197 4.487" fill="none" stroke-width=".9837"/><path d="m428.103 251.992.396 4.24" fill="none" stroke-width=".9837"/><path d="m434.046 255.703.23 3.958" fill="none" stroke-width=".9837"/><path d="m428.797 260.332.462 4.665" fill="none" stroke-width=".9837"/><path d="m439.625 259.484.132 4.24" fill="none" stroke-width=".9837"/><path d="m402.682 250.189.858 3.853" fill="none" stroke-width=".9837"/><path d="m395.881 253.935.727 3.357" fill="none" stroke-width=".9837"/><path d="m404.201 258.282.462 3.853" fill="none" stroke-width=".9837"/><path d="m397.367 261.463.627 3.853" fill="none" stroke-width=".9837"/><path d="m401.131 255.173-2.014 1.06.793 3.746 1.947-.954z" stroke-width=".9837"/><path d="m431.899 247.079.363 4.135 2.674-.317-.23-4.276z" stroke-width=".9837"/><path d="m394.924 271.43 1.915 4.1" fill="none" stroke-width=".9837"/><path d="m516.291 266.215c-.533-.249-1.783 1.563-2.802 4.063l-4.141 10.171 1.928.899 4.142-10.171c1.017-2.499 1.407-4.713.873-4.962z" stroke-width=".9837"/><path d="m397.361 292.644c4.986-10.751 101.763-14.225 111.851 0 .194-3.057 1.346-6.644 3.302-8.129 8.173-24.5-127.396-23.219-118.454 0 1.956 1.486 3.107 5.073 3.301 8.129z" fill="#d4a110" stroke-width=".9837"/></g><path d="m505.613 293.102c0 4.886-23.916 8.849-53.417 8.849s-53.417-3.96-53.417-8.849c0-4.885 23.916-8.848 53.417-8.848s53.417 3.96 53.417 8.848z" fill="#444"/><path d="m453.287 280.279c-31.017 0-56.192 5.477-56.192 12.226 0 6.75 25.175 12.226 56.192 12.226 31.016 0 56.191-5.476 56.191-12.226 0-6.749-25.174-12.226-56.191-12.226zm0 4.307c28.355 0 51.365 5.916 51.365 8.134 0 2.35-23.01 8.472-51.365 8.472-28.356 0-51.366-6.122-51.366-8.472 0-2.218 23.01-8.134 51.366-8.134z" fill="#d4a110" stroke="#000" stroke-linecap="round" stroke-linejoin="round" stroke-width=".7201"/><path d="m456.59 280.274-8.055 4.312" fill="none" stroke="#000" stroke-width=".9837"/><path d="m467.881 280.769c-3.577 1.183-6.16 2.518-8.518 3.887" fill="none" stroke="#000" stroke-width=".9837"/><path d="m480.822 281.9c-4.009.668-7.675 1.644-10.63 3.251" fill="none" stroke="#000" stroke-width=".9837"/><path d="m490.463 283.314c-3.654.551-7.129 1.875-9.839 3.039" fill="none" stroke="#000" stroke-width=".9837"/><path d="m500.234 285.929c-3.601.393-6.359 1.237-8.913 2.191" fill="none" stroke="#000" stroke-width=".9837"/><path d="m506.903 288.827c-2.601.115-4.751.615-6.471 1.484" fill="none" stroke="#000" stroke-width=".9837"/><path d="m504.526 292.432c2.237-.033 3.485.638 4.688 1.343" fill="none" stroke="#000" stroke-width=".9837"/><path d="m446.488 280.274c-3.308 1.6-6.526 3.231-9.311 5.019" fill="none" stroke="#000" stroke-width=".9837"/><path d="m436.386 280.911c-3.41 1.673-6.849 3.331-9.574 5.371" fill="none" stroke="#000" stroke-width=".9837"/><path d="m425.953 281.759c-3.478 1.973-6.795 3.989-9.574 6.149" fill="none" stroke="#000" stroke-width=".9837"/><path d="m417.304 283.138c-3.234 1.998-5.58 3.997-7.461 6.184" fill="none" stroke="#000" stroke-width=".9837"/><path d="m409.248 284.939c-2.726 2.188-4.797 4.339-5.679 6.432" fill="none" stroke="#000" stroke-width=".9837"/><path d="m401.952 287.519c-3.313 2.051-2.963 5.988-.165 5.266" fill="none" stroke="#000" stroke-width=".9837"/><path d="m453.287 267.481c52.486 0 61.487 14.609 59.177 17.104 8.847-4.333-6.607-20.992-59.177-20.992s-68.025 16.659-59.178 20.992c-2.31-2.494 6.69-17.104 59.178-17.104z" fill="#d4a110" stroke="#000" stroke-width=".9837"/><path d="m475.342 264.725c-3.113.83-5.776 1.903-8.188 3.11" fill="none" stroke="#000" stroke-width=".9837"/><path d="m486.237 266.28c-3.309.415-6.31 1.162-8.914 2.332" fill="none" stroke="#000" stroke-width=".9837"/><path d="m496.801 268.894c-3.89-.014-7.289.392-10.3 1.131" fill="none" stroke="#000" stroke-width=".9837"/><path d="m504.064 271.581c-3.649-.411-6.381-.036-9.178.282" fill="none" stroke="#000" stroke-width=".9837"/><path d="m510.733 275.469c-2.666-.524-5.213-.794-7.527-.565" fill="none" stroke="#000" stroke-width=".9837"/><path d="m514.232 279.356c-2.104-.502-3.384-.563-4.819-.707" fill="none" stroke="#000" stroke-width=".9837"/><path d="m441.535 263.877c-2.793 1.413-5.217 2.826-7.13 4.24" fill="none" stroke="#000" stroke-width=".9837"/><path d="m433.018 264.513c-2.716 1.508-4.917 3.016-6.933 4.523" fill="none" stroke="#000" stroke-width=".9837"/><path d="m424.236 265.643c-2.91 1.673-5.248 3.346-7.461 5.019" fill="none" stroke="#000" stroke-width=".9837"/><path d="m415.719 267.34c-2.738 1.94-5.029 3.761-7.064 5.513" fill="none" stroke="#000" stroke-width=".9837"/><path d="m407.861 269.461c-2.403 2.097-4.306 4.193-6.008 6.29" fill="none" stroke="#000" stroke-width=".9837"/><path d="m400.4 272.57c-1.937 2.309-3.434 4.712-4.49 7.209" fill="none" stroke="#000" stroke-width=".9837"/><path d="m393.071 278.154c-.014 1.502.069 2.942.924 3.887" fill="none" stroke="#000" stroke-width=".9837"/><path d="m452.544 263.594-6.272 3.958" fill="none" stroke="#000" stroke-width=".9837"/><path d="m464.165 263.877c-3.2 1.093-5.642 2.322-7.791 3.604" fill="none" stroke="#000" stroke-width=".9837"/><path d="m511.216 285.775c-2.56-9.023-37.188-14.119-57.929-14.119s-55.37 5.096-57.93 14.119" fill="none" stroke="#000" stroke-width=".9837"/><path d="m509.932 288.573c-2.745-7.073-31.881-12.119-56.645-12.119s-53.898 5.046-56.646 12.119" fill="none" stroke="#000" stroke-width=".9837"/><path d="m453.287 267.458v4.147" fill="none" stroke="#000" stroke-width=".9837"/><path d="m453.287 276.403v3.849" fill="none" stroke="#000" stroke-width=".9837"/><path d="m447.264 271.806v4.647" fill="none" stroke="#000" stroke-width=".9837"/><path d="m441.147 267.808v4.298" fill="none" stroke="#000" stroke-width=".9837"/><path d="m441.988 276.804v3.648" fill="none" stroke="#000" stroke-width=".9837"/><path d="m435.918 272.655v4.647" fill="none" stroke="#000" stroke-width=".9837"/><path d="m430.689 268.607v4.548" fill="none" stroke="#000" stroke-width=".9837"/><path d="m431.529 277.653v3.499" fill="none" stroke="#000" stroke-width=".9837"/><path d="m420.184 270.057v4.647" fill="none" stroke="#000" stroke-width=".9837"/><path d="m421.724 278.902v3.398" fill="none" stroke="#000" stroke-width=".9837"/><path d="m412.06 280.902v3.099" fill="none" stroke="#000" stroke-width=".9837"/><path d="m411.22 272.205v4.598" fill="none" stroke="#000" stroke-width=".9837"/><path d="m416.076 275.654v4.147" fill="none" stroke="#000" stroke-width=".9837"/><path d="m426.067 273.855v4.348" fill="none" stroke="#000" stroke-width=".9837"/><path d="m407.718 277.853v4.098" fill="none" stroke="#000" stroke-width=".9837"/><path d="m404.497 283.201v3.048" fill="none" stroke="#000" stroke-width=".9837"/><path d="m403.003 275.254v4.348" fill="none" stroke="#000" stroke-width=".9837"/><path d="m400.855 280.652v4.098" fill="none" stroke="#000" stroke-width=".9837"/><path d="m396.979 279.003v4.098" fill="none" stroke="#000" stroke-width=".9837"/><path d="m398.754 286.063v3.472" fill="none" stroke="#000" stroke-width=".9837"/><path d="m459.309 271.806v4.647" fill="none" stroke="#000" stroke-width=".9837"/><path d="m465.426 267.808v4.298" fill="none" stroke="#000" stroke-width=".9837"/><path d="m464.585 276.804v3.648" fill="none" stroke="#000" stroke-width=".9837"/><path d="m470.655 272.655v4.647" fill="none" stroke="#000" stroke-width=".9837"/><path d="m475.884 268.607v4.548" fill="none" stroke="#000" stroke-width=".9837"/><path d="m475.044 277.653v3.499" fill="none" stroke="#000" stroke-width=".9837"/><path d="m486.389 270.057v4.647" fill="none" stroke="#000" stroke-width=".9837"/><path d="m484.849 278.902v3.398" fill="none" stroke="#000" stroke-width=".9837"/><path d="m494.513 280.902v3.099" fill="none" stroke="#000" stroke-width=".9837"/><path d="m495.353 272.205v4.598" fill="none" stroke="#000" stroke-width=".9837"/><path d="m490.497 275.654v4.147" fill="none" stroke="#000" stroke-width=".9837"/><path d="m480.506 273.855v4.348" fill="none" stroke="#000" stroke-width=".9837"/><path d="m498.855 277.853v4.098" fill="none" stroke="#000" stroke-width=".9837"/><path d="m502.077 283.201v3.048" fill="none" stroke="#000" stroke-width=".9837"/><path d="m503.57 275.254v4.348" fill="none" stroke="#000" stroke-width=".9837"/><path d="m505.718 280.652v4.098" fill="none" stroke="#000" stroke-width=".9837"/><path d="m509.594 279.003v4.098" fill="none" stroke="#000" stroke-width=".9837"/><path d="m507.819 286.063v3.472" fill="none" stroke="#000" stroke-width=".9837"/><path d="m515.016 275.104-1.65 3.888" fill="none" stroke="#000" stroke-width=".9837"/><path d="m496.331 264.149-.528 4.664" fill="none" stroke="#000" stroke-width=".9837"/><path d="m517.724 272.277-5.546-6.007h-1.849" fill="none" stroke="#000" stroke-width=".9837"/><path d="m516.139 276.377-5.876-6.36-.99-.283" fill="none" stroke="#000" stroke-width=".9837"/><path d="m518.054 262.17-1.849 4.1" fill="none" stroke="#000" stroke-width=".9837"/><path d="m514.885 264.432-1.453 2.969" fill="none" stroke="#000" stroke-width=".9837"/><path d="m517.855 267.683-1.386 3.039" fill="none" stroke="#000" stroke-width=".9837"/><path d="m505.047 263.654-.562 3.569" fill="none" stroke="#000" stroke-width=".9837"/><path d="m501.481 266.234-.462 3.852" fill="none" stroke="#000" stroke-width=".9837"/><path d="m507.819 269.097-.792 3.853" fill="none" stroke="#000" stroke-width=".9837"/><path d="m391.557 275.104 1.65 3.888" fill="none" stroke="#000" stroke-width=".9837"/><path d="m410.242 264.149.528 4.664" fill="none" stroke="#000" stroke-width=".9837"/><path d="m387.595 268.885 5.217-5.866 2.178-.212" fill="none" stroke="#000" stroke-width=".9837"/><path d="m388.849 272.277 5.546-6.007h1.849" fill="none" stroke="#000" stroke-width=".9837"/><path d="m390.434 276.377 5.876-6.36.99-.283" fill="none" stroke="#000" stroke-width=".9837"/><path d="m388.519 262.17 1.849 4.1" fill="none" stroke="#000" stroke-width=".9837"/><path d="m391.688 264.432 1.453 2.969" fill="none" stroke="#000" stroke-width=".9837"/><path d="m388.718 267.683 1.386 3.039" fill="none" stroke="#000" stroke-width=".9837"/><path d="m401.527 263.654.561 3.569" fill="none" stroke="#000" stroke-width=".9837"/><path d="m405.092 266.234.462 3.852" fill="none" stroke="#000" stroke-width=".9837"/><path d="m398.754 269.097.792 3.853" fill="none" stroke="#000" stroke-width=".9837"/><path d="m379.616 362.183s-2.09 1.534-1.88 1.854c.208.319 2.716 2.364 2.716 2.364l1.971-1.854z" fill="none"/><path d="m536.184 333.021s-.926-5.23 2.16-5.726 7.458 1.981 7.458 1.981l-.051 8.59-3.807 2.587-3.651-4.074z" fill="#820005" stroke="#000" stroke-width=".3986"/><path d="m538.804 342.023s6.691-6.385 6.11-12.926c-.582-6.54-5.965-25.074-6.547-31.614-.582-6.541.146-22.581.146-22.581l1.745-3.582 6.691-4.049 1.601 5.606 13.82 11.523 1.691 9.086s1.646 9.36 5.04 10.462c3.395 1.101 3.395-1.212 5.452 4.074 2.057 5.285-7.612 11.011-7.612 11.011s-4.526 4.074-7.304-1.982c-2.776-6.057-3.6-5.176-3.6-5.176s1.954 27.861-4.629 31.385z" fill="#ff2129" stroke="#000" stroke-width=".3986"/><path d="m545.641 284.09s-4.073-.312-1.818-5.685c2.255-5.372 5.746-7.085 1.891-8.253-3.854-1.168-5.455 4.438-5.455 4.438s-1.163-7.241 4.655-9.732c5.819-2.492 7.929 6.54 7.929 6.54l-3.637 12.147z" fill="#820005" stroke="#000" stroke-width=".3986"/><path d="m559.947 203.519s-20.162-24.227-74.066-24.667-11.315 7.488-11.315 7.488l-11.521 10.791 1.183 5.809 3.215 2.478s58.806-7.239 75.841 19.661c14.435 22.793 11.007 18.963 11.11 30.194.103 11.232-5.041 24.997-9.053 28.852l21.603 11.783s15.796-14 14.195-45.458c-1.602-31.459-21.192-46.932-21.192-46.931z" fill="#ff2129" stroke="#000" stroke-width=".3986"/><path d="m368.599 332.847s.926-5.23-2.16-5.726-7.458 1.981-7.458 1.981l.052 8.589 3.806 2.588 3.651-4.074z" fill="#820005" stroke="#000" stroke-width=".3986"/><path d="m365.98 341.849s-6.691-6.385-6.11-12.926c.582-6.541 5.965-25.074 6.547-31.614.582-6.541-.146-22.582-.146-22.582l-1.745-3.581-6.692-4.049-1.6 5.605-13.82 11.524-1.691 9.086s-1.646 9.36-5.04 10.461c-3.395 1.102-3.395-1.211-5.452 4.074s7.612 11.012 7.612 11.012 4.526 4.075 7.304-1.981c2.777-6.057 3.6-5.176 3.6-5.176s-1.954 27.861 4.629 31.384z" fill="#ff2129" stroke="#000" stroke-width=".3986"/><path d="m359.142 283.916s4.073-.312 1.818-5.685c-2.255-5.372-5.746-7.085-1.891-8.253 3.854-1.168 5.455 4.438 5.455 4.438s1.163-7.241-4.655-9.733c-5.819-2.491-7.929 6.541-7.929 6.541l3.637 12.146z" fill="#820005" stroke="#000" stroke-width=".3986"/><path d="m344.836 203.346s20.163-24.227 74.067-24.667c53.903-.44 11.315 7.487 11.315 7.487l11.521 10.792-1.183 5.809-3.215 2.477s-58.806-7.238-75.841 19.662c-14.435 22.793-11.008 18.962-11.11 30.194s5.041 24.997 9.053 28.852l-21.603 11.783s-15.796-14.001-14.195-45.459 21.192-46.931 21.191-46.93z" fill="#ff2129" stroke="#000" stroke-width=".3986"/><path d="m426.485 182.88h17.171v13.246h-17.171z" fill="#820005" stroke="#000" stroke-width=".4237"/><path d="m461.114 183.393h17.171v13.246h-17.171z" fill="#820005" stroke="#000" stroke-width=".4237"/><path d="m561.285 313.97c3.497 4.955 7.072 4.185 7.072 4.185s2.597-3.523-3.986-7.047l-.025-.138s-1.028 1.23 1.226 4.423c0 0 .183 2.258-1.636.077-1.818-2.18-.291-6.112-.291-6.112l1.309-2.256c-.001 0-7.166 1.913-3.669 6.868z" fill="#820005" stroke="#000" stroke-width=".3986"/><path d="m426.516 197.84-8.023-21.143-.205-6.827s14.401-11.893 32.918-11.232 34.564 11.012 34.564 11.012l.411 6.827-8.024 22.465s1.646-13.215-24.895-13.435-26.746 12.333-26.746 12.333z" fill="#ff2129" stroke="#000" stroke-width=".3986"/><path d="m568.743 303.783-4.012 3.524" fill="none" stroke="#000" stroke-width=".3986"/><path d="m437.523 205.107s6.48-7.818-.823-8.038-7.612 3.304-7.612 3.304-3.06-.578-2.442-3.441c.616-2.863 3.78-5.588 7.278-5.919 3.497-.33 6.994.881 6.994.881s3.498 0 2.777 6.276c-.72 6.276-6.172 6.937-6.172 6.937z" fill="#ff2129" stroke="#000" stroke-width=".3986"/><path d="m467.349 205.429s-6.481-7.818.822-8.038 7.612 3.304 7.612 3.304 3.061-.578 2.443-3.441-3.781-5.588-7.278-5.919c-3.498-.33-6.995.881-6.995.881s-3.497 0-2.777 6.276 6.172 6.937 6.173 6.937z" fill="#ff2129" stroke="#000" stroke-width=".3986"/><path d="m538.91 342.05s-3.856-4.129-2.828-9.194c0 0 6.274 3.854 5.555 5.781z" fill="#ff2129" stroke="#000" stroke-width=".3986"/><path d="m343.499 313.796c-3.497 4.955-7.072 4.185-7.072 4.185s-2.597-3.523 3.986-7.047l.025-.138s1.028 1.229-1.226 4.422c0 0-.183 2.259 1.636.078s.291-6.112.291-6.112l-1.309-2.256c.001 0 7.166 1.913 3.669 6.868z" fill="#820005" stroke="#000" stroke-width=".3986"/><path d="m336.041 303.609 4.012 3.523" fill="none" stroke="#000" stroke-width=".3986"/><path d="m365.874 341.877s3.856-4.129 2.828-9.194c0 0-6.274 3.854-5.555 5.781z" fill="#ff2129" stroke="#000" stroke-width=".3986"/><text fill="#fff" font-family="'TimesNewRomanPS-BoldMT'" font-size="24.8966" transform="matrix(.5396 -.2559 .3014 .9535 424.7972 190.0009)">C</text><text fill="none" font-family="'TimesNewRomanPS-BoldMT'" font-size="24.8966" stroke="#000" stroke-width=".4806" transform="matrix(.5396 -.2559 .3014 .9535 424.7972 190.0009)">C</text><text fill="#fff" font-family="'TimesNewRomanPS-BoldMT'" font-size="24.9342" transform="matrix(.799 -.2681 .2194 .9756 433.2943 184.7592)">I</text><text fill="none" font-family="'TimesNewRomanPS-BoldMT'" font-size="24.9342" stroke="#000" stroke-width=".4799" transform="matrix(.799 -.2681 .2194 .9756 433.2943 184.7592)">I</text><text fill="#fff" font-family="'TimesNewRomanPS-BoldMT'" font-size="24.3976" transform="matrix(.5909 -.088 .1292 .9916 440.7235 182.1259)">D</text><text fill="none" font-family="'TimesNewRomanPS-BoldMT'" font-size="24.3976" stroke="#000" stroke-width=".4798" transform="matrix(.5909 -.088 .1292 .9916 440.7235 182.1259)">D</text><text fill="#fff" font-family="'TimesNewRomanPS-BoldMT'" font-size="23.5579" transform="matrix(.6057 -.0017 .0117 .9999 450.0155 179.9379)">A</text><text fill="none" font-family="'TimesNewRomanPS-BoldMT'" font-size="23.5579" stroke="#000" stroke-width=".359" transform="matrix(.6057 -.0017 .0117 .9999 450.0155 179.9379)">A</text><text fill="#fff" font-family="'TimesNewRomanPS-BoldMT'" font-size="22.8518" transform="matrix(.6298 .2052 -.3357 .942 468.7772 182.6703)">E</text><text fill="none" font-family="'TimesNewRomanPS-BoldMT'" font-size="22.8518" stroke="#000" stroke-width=".359" transform="matrix(.6298 .2052 -.3357 .942 468.7772 182.6703)">E</text><text fill="#fff" font-family="'TimesNewRomanPS-BoldMT'" font-size="22.0155" transform="matrix(.6456 .1344 -.2182 .9759 460.0038 179.9252)">D</text><text fill="none" font-family="'TimesNewRomanPS-BoldMT'" font-size="22.0155" stroke="#000" stroke-width=".359" transform="matrix(.6456 .1344 -.2182 .9759 460.0038 179.9252)">D</text><text fill="#fff" font-family="'TimesNewRomanPS-BoldMT'" font-size="15.3951" transform="matrix(.9318 .0754 -.0705 .9975 483.3934 199.9843)">DE</text><text fill="none" font-family="'TimesNewRomanPS-BoldMT'" font-size="15.3951" stroke="#000" stroke-width=".4798" transform="matrix(.9318 .0754 -.0705 .9975 483.3934 199.9843)">DE</text><text fill="#fff" font-family="'TimesNewRomanPS-BoldMT'" font-size="30.2113" transform="matrix(.4407 .1101 -.22 .9755 506.87 203.562)">P</text><text fill="none" font-family="'TimesNewRomanPS-BoldMT'" font-size="30.2113" stroke="#000" stroke-width=".4802" transform="matrix(.4407 .1101 -.22 .9755 506.87 203.562)">P</text><text fill="#fff" font-family="'TimesNewRomanPS-BoldMT'" font-size="28.782" transform="matrix(.4935 .3014 -.4135 .9105 524.1893 206.8329)">R</text><text fill="none" font-family="'TimesNewRomanPS-BoldMT'" font-size="28.782" stroke="#000" stroke-width=".4792" transform="matrix(.4935 .3014 -.4135 .9105 524.1893 206.8329)">R</text><text fill="#fff" font-family="'TimesNewRomanPS-BoldMT'" font-size="27.5018" transform="matrix(.45 .3998 -.6562 .7546 532.5487 211.8163)">TO</text><text fill="none" font-family="'TimesNewRomanPS-BoldMT'" font-size="27.5018" stroke="#000" stroke-width=".4798" transform="matrix(.45 .3998 -.6562 .7546 532.5487 211.8163)">TO</text><text fill="#fff" font-family="'TimesNewRomanPS-BoldMT'" font-size="27.7431" transform="matrix(.295 .6121 -.8907 .4546 551.5819 227.6132)">A</text><text fill="none" font-family="'TimesNewRomanPS-BoldMT'" font-size="27.7431" stroke="#000" stroke-width=".4707" transform="matrix(.295 .6121 -.8907 .4546 551.5819 227.6132)">A</text><text fill="#fff" font-family="'TimesNewRomanPS-BoldMT'" font-size="28.2746" transform="matrix(.1452 .5528 -.9847 .1741 556.7548 238.9575)">L</text><text fill="none" font-family="'TimesNewRomanPS-BoldMT'" font-size="28.2746" stroke="#000" stroke-width=".4481" transform="matrix(.1452 .5528 -.9847 .1741 556.7548 238.9575)">L</text><text fill="#fff" font-family="'TimesNewRomanPS-BoldMT'" font-size="28.5142" transform="matrix(-.0013 .5079 -1 -.00064228 557.8534 248.4213)">E</text><text fill="none" font-family="'TimesNewRomanPS-BoldMT'" font-size="28.5142" stroke="#000" stroke-width=".4605" transform="matrix(-.0013 .5079 -1 -.00064228 557.8534 248.4213)">E</text><text fill="#fff" font-family="'TimesNewRomanPS-BoldMT'" font-size="28.2058" transform="matrix(-.1785 .5184 -.9642 -.2653 560.5223 256.0805)">G</text><text fill="none" font-family="'TimesNewRomanPS-BoldMT'" font-size="28.2058" stroke="#000" stroke-width=".454" transform="matrix(-.1785 .5184 -.9642 -.2653 560.5223 256.0805)">G</text><text fill="#fff" font-family="'TimesNewRomanPS-BoldMT'" font-size="31.2135" transform="matrix(-.1452 .49 -.9542 -.299 556.2372 266.415)">R</text><text fill="none" font-family="'TimesNewRomanPS-BoldMT'" font-size="31.2135" stroke="#000" stroke-width=".4438" transform="matrix(-.1452 .49 -.9542 -.299 556.2372 266.415)">R</text><text fill="#fff" font-family="'TimesNewRomanPS-BoldMT'" font-size="29.3244" transform="matrix(-.2549 .4368 -.8999 -.4361 552.496 276.726)">E</text><text fill="none" font-family="'TimesNewRomanPS-BoldMT'" font-size="29.3244" stroke="#000" stroke-width=".4145" transform="matrix(-.2549 .4368 -.8999 -.4361 552.496 276.726)">E</text><text fill="#fff" font-family="'TimesNewRomanPS-BoldMT'" font-size="30.0809" transform="matrix(.4782 -.0575 .146 .9893 394.0634 204.8652)">OSA</text><text fill="none" font-family="'TimesNewRomanPS-BoldMT'" font-size="30.0809" stroke="#000" stroke-width=".4711" transform="matrix(.4782 -.0575 .146 .9893 394.0634 204.8652)">OSA</text><text fill="#fff" font-family="'TimesNewRomanPS-BoldMT'" font-size="31.1139" transform="matrix(.4481 -.1405 .287 .9579 377.3558 209.8745)">ER</text><text fill="none" font-family="'TimesNewRomanPS-BoldMT'" font-size="31.1139" stroke="#000" stroke-width=".4681" transform="matrix(.4481 -.1405 .287 .9579 377.3558 209.8745)">ER</text><text fill="#fff" font-family="'TimesNewRomanPS-BoldMT'" font-size="30.3304" transform="matrix(.3827 -.193 .4055 .9141 370.3788 214.0248)">L</text><text fill="none" font-family="'TimesNewRomanPS-BoldMT'" font-size="30.3304" stroke="#000" stroke-width=".4445" transform="matrix(.3827 -.193 .4055 .9141 370.3788 214.0248)">L</text><text fill="#fff" font-family="'TimesNewRomanPS-BoldMT'" font-size="31.6174" transform="matrix(.4 -.2989 .542 .8404 360.9486 220.6581)">A</text><text fill="none" font-family="'TimesNewRomanPS-BoldMT'" font-size="31.6174" stroke="#000" stroke-width=".4552" transform="matrix(.4 -.2989 .542 .8404 360.9486 220.6581)">A</text><text fill="#fff" font-family="'TimesNewRomanPS-BoldMT'" font-size="31.3259" transform="matrix(.3055 -.3229 .6688 .7435 356.5092 226.872)">V</text><text fill="none" font-family="'TimesNewRomanPS-BoldMT'" font-size="31.3259" stroke="#000" stroke-width=".4527" transform="matrix(.3055 -.3229 .6688 .7435 356.5092 226.872)">V</text><text fill="#fff" font-family="'TimesNewRomanPS-BoldMT'" font-size="18.4076" transform="matrix(.4298 -.701 .8185 .5745 349.4086 238.4042)">E</text><text fill="none" font-family="'TimesNewRomanPS-BoldMT'" font-size="18.4076" stroke="#000" stroke-width=".48" transform="matrix(.4298 -.701 .8185 .5745 349.4086 238.4042)">E</text><text fill="#fff" font-family="'TimesNewRomanPS-BoldMT'" font-size="30.4499" transform="matrix(-.1932 -.427 .8799 -.4752 355.7836 281.5331)">L</text><text fill="none" font-family="'TimesNewRomanPS-BoldMT'" font-size="30.4499" stroke="#000" stroke-width=".4496" transform="matrix(-.1932 -.427 .8799 -.4752 355.7836 281.5331)">L</text><text fill="#fff" font-family="'TimesNewRomanPS-BoldMT'" font-size="31.5273" transform="matrix(-.1212 -.4672 .9371 -.349 352.578 273.3515)">E</text><text fill="none" font-family="'TimesNewRomanPS-BoldMT'" font-size="31.5273" stroke="#000" stroke-width=".4543" transform="matrix(-.1212 -.4672 .9371 -.349 352.578 273.3515)">E</text><text fill="#fff" font-family="'TimesNewRomanPS-BoldMT'" font-size="32.3622" transform="matrix(-.0575 -.4733 .9804 -.197 349.8392 265.0795)">A</text><text fill="none" font-family="'TimesNewRomanPS-BoldMT'" font-size="32.3622" stroke="#000" stroke-width=".4611" transform="matrix(-.0575 -.4733 .9804 -.197 349.8392 265.0795)">A</text><text fill="#fff" font-family="'TimesNewRomanPS-BoldMT'" font-size="32.1666" transform="matrix(.0065 -.4812 .9998 .0213 348.5472 253.412)">L</text><text fill="none" font-family="'TimesNewRomanPS-BoldMT'" font-size="32.1666" stroke="#000" stroke-width=".4651" transform="matrix(.0065 -.4812 .9998 .0213 348.5472 253.412)">L</text><text fill="#fff" font-family="'TimesNewRomanPS-BoldMT'" font-size="29.6134" transform="matrix(.4805 .1983 -.3218 .9468 513.5399 204.2695)">O</text><text fill="none" font-family="'TimesNewRomanPS-BoldMT'" font-size="29.6134" stroke="#000" stroke-width=".5114" transform="matrix(.4805 .1983 -.3218 .9468 513.5399 204.2695)">O</text></g></svg>