<svg enable-background="new -0.1948242 -0.2548828 262 301" height="301" viewBox="-.1948242 -.2548828 262 301" width="262" xmlns="http://www.w3.org/2000/svg"><g fill="#fff"><path d="m83.5932617 5.1269531c31.3930664 0 62.7807617 0 94.1738281-.0053711 3.7075195 15.2128906 15.1601563 28.4589844 30.1152344 33.4545898 11.2006836 3.9648438 24.3359375 2.9130859 34.2060547-3.9384766 4.144043 6.230957 8.3188477 12.4462891 12.4467773 18.6884766-5.2636719 3.4335938-10.0800781 8.2451172-11.6210938 14.5288086-1.4199219 5.5478516-.4731445 11.3374023.7783203 16.8217773 8.9550781 35.4052734 11.1533203 73.78125-1.078125 108.6977539-6.4521484 18.4414063-17.0424805 35.331543-30.440918 49.519043-22.390625 23.699707-51.4174805 39.9692383-81.4326172 52.0112305-29.2685547-11.6420898-57.5170898-27.4018555-79.6972656-50.0869141-13.3930663-13.692871-24.1728514-30.0097655-30.9931639-47.9414062-13.0092774-33.9799804-11.7841797-71.7885742-3.6860352-106.7729492 1.7983398-7.4038086 4.0488281-15.2338867 1.9296875-22.8164063-1.65625-6.0366211-6.347168-10.6220703-11.453125-13.9399414 4.0756836-6.2788086 8.2875977-12.4628906 12.4155273-18.7045898 13.6191406 9.4545898 32.7075195 7.5722656 45.7539063-1.9873047 9.296875-6.5102539 15.8120117-16.574707 18.5830078-27.5283203zm43.3666992 33.8959961c-2.1772461-2.5239258-4.2490234-5.9790039-8.1875-4.8535156.1054688 5.5268555.2524414 11.0532227.2680664 16.5795898 1.5878906-.1416016 4.0493164.5366211 4.8222656-1.3349609.2783203-2.4189453-.1000977-4.8852539.0786133-7.3251953 1.0415039 1.1723633 2.0668945 2.3500977 3.1186523 3.5073242 1.0566406-1.2412109 2.0976563-2.4980469 3.1547852-3.7387695.0581055 2.3398438-.1259766 4.6953125.0893555 7.0356445.3837891 2.4819336 5.2109375 2.1137695 4.9116211-.5678711-.0893555-4.8115234-.168457-9.628418-.2841797-14.4399414-3.9018554-.9726562-5.9472656 2.5400391-7.9716797 5.1376953zm16.0488282-4.0805664c-5.3061523 1.3671875-7.4985352 8.2822266-4.8222656 12.8041992 2.9130859 4.9272461 10.9589844 5.5795898 14.5766602 1.1098633 2.4345703-3.2133789 2.6240234-8.2138672-.1054688-11.3164063-2.3500977-2.6606445-6.3046876-3.4335937-9.6489258-2.5976562zm-43.6083985 2.6503906c-5.8422851.9306641-8.6503906 8.1240235-5.5424804 12.9833985 3.3652344 6.4306641 14.1821289 4.7426758 16.043457-2.0458984 2.0351562-6.1469727-4.0908203-13.104004-10.5009766-10.9375001zm59.940918-.4365234c-1.6455078 5.2744141-3.3916016 10.5117188-5.105957 15.7597656 1.5776367.3837891 3.6230469 1.7822266 5.0117188.2998047.8935547-1.7514648 1.2617188-3.7128906 1.9663086-5.5375977 1.0517578 2.5083008 2.019043 5.059082 3.0869141 7.5566406.6206055 1.7875977 3.9594727 2.5449219 4.6640625.4731445 1.5932617-4.6274414 3.0131836-9.3178711 4.5644531-13.9609375-1.5302734-.3051758-3.28125-1.6147461-4.7641602-.546875-1.1987305 1.7192383-1.4042969 3.9067383-2.1821289 5.8208008-1.9560548-3.6230468-2.0561524-9.5073241-7.241211-9.864746zm-75.7583008 6.184082c-2.5400391.777832-5.1269531 2.1245117-6.4682617 4.5327148-2.7026367 4.5800781.1157227 11.3212891 5.2587891 12.6411133 3.3706055.8466797 6.8833008-.5522461 9.480957-2.6816406 1.277832-1.1147461 2.1875-3.5708008.3891602-4.6694336-2.5136719-1.3144531-3.8334961 2.2348633-6 2.8081055-4.0224609 1.8457031-7.4829102-5.284668-3.6547852-7.3779297 1.8300781-1.5878906 5.784668.1157227 6.3525391-2.8393555.3574218-2.8398437-3.413086-3.2128906-5.3583985-2.4135742zm92.3491211 3.4809571c.8618164.6938477 1.9135742 1.109375 2.8813477 1.6352539-1.8564453 3.7387695-3.8227539 7.425293-5.652832 11.1850586 1.5195313.762207 3.9121094 2.6289063 5.2163086.6201172 1.7299805-3.1230469 3.1870117-6.3994141 4.9116211-9.5283203 1.1933594.5102539 2.3452148 1.4990234 3.7280273 1.3095703 1.3041992-.5625 2.003418-2.9130859.5102539-3.628418-3.5283203-1.9667969-7.1987305-3.6650391-10.7695313-5.5532227-.4941406 1.225586-1.8295898 2.6503907-.8251953 3.959961zm-107.5830078 6.6992187c2.2822266 4.3540039 4.7275391 8.6289063 7.1201172 12.9306641 1.3828125-.909668 4.0224609-1.5512695 3.5546875-3.6967773-2.2612305-4.4853516-4.8588867-8.8129883-7.2412109-13.2407227-1.4248047.9414062-4.3750001 1.7509765-3.4335938 4.0068359zm113.9716797 10.9746094c2.5239258 1.5405273 4.9584961 3.2338867 7.5512695 4.6586914 1.7456055.715332 2.5029297-1.5039063 3.3022461-2.5922852-1.4882813-.9833984-3.0078125-1.9086914-4.5009766-2.8764648.3994141-.6201172.7993164-1.2358398 1.2041016-1.8510742 1.1201172.6362305 2.1503906 1.5253906 3.4287109 1.8354492 1.5717773.0786133 2.019043-1.7460938 2.8129883-2.75-1.3671875-.8520508-2.7294922-1.7089844-4.0805664-2.5820313.3891602-.6103516.7783203-1.2202148 1.1728516-1.824707 1.1879883.7412109 2.3291016 1.6035156 3.644043 2.1293945 1.6401367.1894531 2.1660156-1.6826172 2.9394531-2.7553711-2.887207-1.8510742-5.8110352-3.6494141-8.7133789-5.4736328-2.9028321 4.7060547-5.8789063 9.3652344-8.7607422 14.0820313zm-118.4731445-9.9174805c-3.2915039 2.2241211-6.5205078 4.5380859-9.7646484 6.8305664.8251953.9516602 1.3720703 2.6557617 2.8813477 2.6240234 1.1201172-.3837891 2.0351563-1.1782227 3.0029297-1.8300781 2.4135742 3.4233398 4.8217773 6.8466797 7.1987305 10.2963867 1.3198242-1.0727539 3.8647461-1.9458008 3.1547852-4.0913086-1.9135742-3.1289063-4.1904297-6.03125-6.2519531-9.0708008.8886719-.6416016 1.8823242-1.1831055 2.6186523-2.0087891 1.1249998-1.5830077-1.2412111-4.1752928-2.8398439-2.7499999zm64.4111328 3.0288086c-28.4638672.5097656-56.1762696 14.8129883-73.2397461 37.5717774-11.9365234 15.675293-18.8095703 35.1474609-19.2197266 54.855957-1.0410156 28.6220703 11.9311523 57.2646484 33.9907227 75.5009766 13.2460938 11.121582 29.5942383 18.5361328 46.7211914 21.0390625 20.3818359 3.0917969 41.7680664-.6098633 59.8203125-10.6166992 14.9760742-8.1928711 27.6489258-20.5288086 36.2675781-35.2631836 16.1855469-27.1230469 17.3212891-62.4077148 3.0551758-90.5717773-8.1557617-16.3168946-21.0917969-30.2045899-36.8300781-39.4384767-15.1762696-9.0180664-32.9340821-13.5297851-50.5654297-13.0776367zm-84.334961 5.5263672c-.4838867 1.6357422.4155273 3.3022461 1.0200195 4.7958984.7519531.015625 1.5092773.0317383 2.2607422.0473633-.9882813.8833008-1.9555664 1.7983398-2.9130859 2.7133789 3.8178711 3.9858398 7.5249023 8.0771484 11.3217773 12.0888672 2.1503906-2.0874023 4.4853516-3.9960938 6.5205078-6.199707.9833984-1.5141602-.8676758-2.7602539-1.7670898-3.7592773-1.2880859 1.1669922-2.5449219 2.3662109-3.8173828 3.5493164-.5366211-.5205078-1.0673828-1.0463867-1.6040039-1.5620117.9204102-.9150391 2.0297852-1.6826172 2.71875-2.7973633.5205078-1.4931641-1.1411133-2.4663086-1.9404297-3.4755859-1.1938477 1.0830078-2.371582 2.1923828-3.5966797 3.2495117-.4628906-.546875-.9257813-1.09375-1.3833008-1.640625 1.0253906-.9887695 2.2666016-1.8144531 3.0292969-3.0395508.4467773-1.5141602-1.1308594-2.4711914-1.9355469-3.5019531-1.4355469 1.3935547-2.8969727 2.7553711-4.4013672 4.0751953.184082-1.3935547.5947266-2.7919922.4736328-4.2119141-.2421874-1.8828125-3.4707031-2.203125-3.9858398-.331543zm155.2294922 8.4980469c-1.6777344.6728516-2.2084961 3.1025391-.8100586 4.3222656 1.1572266 1.1884766 2.7768555.2524414 4.0019531-.2734375 1.1411133 1.078125 2.2924805 2.1401367 3.4389648 3.2128906-.4575195 1.3198242-1.2670898 3.1762695.215332 4.1591797 1.4145508 1.2832031 3.7915039.2685547 4.1962891-1.4931641 1.277832-3.9648438 2.6557617-7.9033203 3.8598633-11.8842773.4628906-1.5302734-.8256836-2.6030273-1.824707-3.5175781-4.3432617 1.8666992-8.7553711 3.5703125-13.0776367 5.4741211zm19.1772461 6.8881836c.8886719 1.5092773 2.15625 2.7504883 3.2182617 4.1386719-4.574707.9467773-10.190918-.7729492-13.7402344 2.9658203 2.387207 2.9921875 4.7744141 5.9892578 7.2358398 8.918457 1.3618164 1.4140625 2.9130859-.5786133 4.059082-1.3359375-1.2773438-1.6196289-2.5766602-3.2128906-3.859375-4.8217773 3.3916016-.3261719 6.7993164-.53125 10.190918-.9150391 1.5932617-.1210938 3.6860352-1.9931641 2.2714844-3.5654297-2.2768555-2.9287109-4.6748047-5.7631836-6.9990234-8.6445313-.930664.909668-2.7973632 1.671875-2.3769531 3.2597657zm-182.5996094 2.0351562c3.6074219 3.1396484 7.1938477 6.3051758 10.8271484 9.4125977.9624023 1.0463867 2.5922852.6782227 3.3496094-.4155273 1.4985352-1.8242188 3.2915039-3.4438477 4.5117188-5.4736328-.1474609-1.4042969-1.5722656-2.1142578-2.4609375-3.050293-1.1674805 1.3305664-2.3188477 2.6767578-3.4916992 4.0073242-2.7709961-2.3613281-5.4057617-4.8959961-8.2822266-7.1147461-2.0297851-1.0307617-3.2495117 1.4672851-4.4536133 2.6342773zm-2.8710937 4.0385742c-2.2612305 3.3286133-4.4013672 6.7412109-6.5996094 10.1171875 2.0458984 2.3823242 4.8745117 1.4038086 5.7475586-1.4404297 3.5180664 2.2714844 7.0253906 4.5585938 10.5380859 6.8359375.7885742-1.4355469 2.8081055-3.2392578 1.4199219-4.8852539-2.9082031-2.2666016-6.1733398-4.0385742-9.2075195-6.1259766.578125-1.2358398 2.0981445-2.4453125 1.5195313-3.9389648-.5522462-1.1987304-2.5922852-1.8930664-3.4179688-.5625zm188.0263672 9.2758789c-6.6201172 3.1972656.5839844 15.6123047 6.6362305 11.3374023 2.7451172-1.6669922 5.621582-3.1235352 8.3032227-4.890625 1.5878906-1.5561523-.3208008-3.5546875-1.09375-5.0214844-3.5180664 1.8823242-6.8515625 4.1064453-10.4169922 5.8789063-1.2094727-.0107422-1.425293-1.4619141-1.809082-2.3188477 2.9868164-2.0878906 6.3417969-3.5864258 9.3496094-5.6323242 1.4355469-1.5878906-.4418945-3.512207-1.1777344-4.9848633-3.2709962 1.8666993-6.5205079 3.7597657-9.791504 5.631836zm4.5541992 14.0820313c-1.0043945.3105469-1.6723633 1.4199219-1.262207 2.4453125.7993164 2.340332 1.7036133 4.6645508 2.7924805 6.8833008 1.125 1.1777344 2.78125-.168457 4.0224609-.4995117-.6362305-1.6459961-1.2988281-3.28125-1.9296875-4.9272461 3.328125-1.3828125 6.7304688-2.6186523 10.0068359-4.1171875 1.9506836-1.2094727.2783203-3.6074219-.2578125-5.1743164-4.4750977 1.7563476-8.9291992 3.5649414-13.3720703 5.3896484zm-204.4541016-2.0771484c3.0288086 3.5336914 6.0366211 7.0883789 9.0708008 10.6166992 1.0307617 1.4672852 3.6914063 1.4570313 4.40625-.2993164 1.0307617-1.4511719-.4521484-2.8344727-1.3461914-3.8754883.6523438-1.4091797 1.3095703-2.8188477 1.9614258-4.2329102 3.0395508 1.2724609 5.7636719-2.8608398 2.7558594-4.6591797-4.5224609-.8095703-9.265625-.1577148-13.8720703-.347168-1.7089844-.2524413-2.3925782 1.5668946-2.9760743 2.7973634z"/><path d="m145.1225586 39.1176758c2.5869141-.5786133 5.2060547 1.8828125 4.6484375 4.5117188-.0419922 2.6816406-3.1499023 4.7329102-5.5898438 3.4335938-3.5019531-1.4091798-2.770996-7.3618165.9414063-7.9453126z"/><path d="m100.9936523 41.8100586c3.4282227-.5048828 5.6582031 4.1699219 3.6494141 6.7675781-1.5883789 2.2451172-5.5058594 2.0561523-6.6259766-.546875-1.5561523-2.4135742.0107422-6.0737304 2.9765625-6.2207031z"/><path d="m131.4189453 63.8583984c22.7905273.1420898 45.2280273 9.5444336 61.4609375 25.5141602-2.3139648 2.3139648-4.6274414 4.6328125-6.9462891 6.9414063-3.6811523-3.4077148-7.65625-6.5102539-11.9052734-9.1865234-.0527344 4.2485352-.0366211 8.5029297-.0161133 12.7568359-2.3662109-1.7563477-5.3525391-1.824707-8.1713867-1.6826172 0-7.1303711.0102539-14.2612305-.0053711-21.3916016-9.128418 5.5375977-17.1425781 12.8569336-23.5522461 21.3916016-3.628418 0-7.2514648.0053711-10.8696289-.0053711-.0053711-11.4472657-.015625-22.8950196.0053711-34.3378907z"/><path d="m68.5068359 89.3833008c16.1962891-16.0014648 38.6655273-25.3774414 61.4453125-25.519043 0 11.4472656.015625 22.8950195-.0053711 34.3427734-3.6547852-.0317383-7.309082.0629883-10.9638672-.0581055-6.3154297-8.565918-14.3823242-15.8012695-23.4580078-21.3388672-.0317383 7.1303711 0 14.2558594-.0209961 21.3862305-2.8237305-.1577148-5.815918-.015625-8.1508789 1.7827148 0-4.2856445.0371094-8.5766602-.015625-12.8671875-4.2329102 2.6972656-8.2504883 5.7524414-11.8842773 9.2177734-2.3295898-2.3032225-4.6274414-4.6328124-6.9462891-6.9462889z"/><path d="m206.6201172 73.6865234c.3100586-.578125.7519531-.762207 1.3305664-.5415039.7885742 1.1254883-1.5458984 2.1035157-1.3305664.5415039z"/><path d="m101.5825195 89.2148438c3.28125 2.71875 6.2944336 5.7529297 9.0551758 8.9975586-3.0239258-.0214844-6.0527344 0-9.0761719-.0107422.0053711-2.9975586-.0209961-5.9946289.0209961-8.9868164z"/><path d="m150.7543945 98.2016602c2.7397461-3.2548828 5.7685547-6.2734375 9.0234375-9.0131836.0419922 3.0024414.0161133 6.0107422.0209961 9.0131836-3.0131836 0-6.03125 0-9.0444336 0z"/><path d="m42.9296875 165.1206055c-4.0541992-26.965332 5.4003906-55.402832 24.5834961-74.7436523 2.2978516 2.3032227 4.590332 4.6118164 6.8935547 6.9042969-11.1533203 10.7797852-19.1459961 24.8203125-22.5429688 39.9643555-3.4970703 15.3339844-2.3925781 31.6665039 3.1079102 46.4008789 2.3032227.0048828 4.6010742.0048828 6.9042969 0-4.1069336-10.0805664-6.1523438-21.0605469-5.5161133-31.9453125 8.3608398.0053711 16.7167969.0102539 25.0776367-.0053711.0258789 16.375.0102539 32.7495117.0102539 49.1196289-4.5273438 4.769043-9.2651367 9.3334961-13.8979492 13.9975586-13.2509766-13.3564454-22.0224609-31.0615236-24.6201172-49.6923829z"/><path d="m186.9433594 97.28125c2.3081055-2.3027344 4.6113281-4.6113281 6.9199219-6.9145508 13.0039063 13.3037109 21.8173828 30.6831055 24.4887695 49.1191406 4.2172852 27.1074219-5.0849609 55.9711914-24.578125 75.3168945-4.6694336-4.6430664-9.1972656-9.4179688-13.8720703-14.0507813.0209961-16.3535156-.0048828-32.7021484.0107422-49.0507813 8.3608398.0053711 16.7167969.0102539 25.0776367-.0053711.6782227 10.8798828-1.3989258 21.8754883-5.5058594 31.9506836 2.3085938.0102539 4.6118164.015625 6.9204102-.0107422 6.230957-16.7216797 6.7988281-35.515625 1.440918-52.5424805-3.9863282-12.7832029-11.2587891-24.5200193-20.9023438-33.8120115z"/><path d="m87.3955078 102.5820313c1.2617188-3.1396484 5.2319336-3.097168 8.1137695-2.9291992.0048828 31.855957.0048828 63.7114258 0 95.5673828-2.9399414.2416992-6.2578125.015625-8.15625-2.5712891.0424805-30.0205078-.046875-60.0463867.0424805-90.0668945z"/><path d="m149.534668 99.652832c3.4179688-.015625 6.8359375.0107422 10.2539063-.0102539.0258789 31.8554688.015625 63.7167969.0053711 95.5722656-19.4145508.0053711-38.8232422.0263672-58.237793-.0102539.0107422-31.8505859-.0053711-63.706543.0107422-95.5566406 3.4125977 0 6.8256836.0048828 10.2382813-.0053711 8.4189453 10.390625 13.8979492 23.1425781 15.5541992 36.4199219h6.6259766c1.6982421-13.2724609 7.1513671-26.0029297 15.5493163-36.409668z"/><path d="m165.8618164 99.6425781c2.887207-.1630859 6.1577148-.1577148 8.1455078 2.3188477-.0209961 30.3041992-.0053711 60.6142578-.0107422 90.918457-2.003418 2.4453125-5.2426758 2.5561523-8.1455078 2.3349609-.0048828-31.8608398-.0258789-63.7167968.0107422-95.5722656z"/><path d="m56.7592773 146.4584961c2.0561523-17.9785156 11.0742188-34.9951172 24.6728516-46.9106445.03125 15.6333008.0263672 31.2719727 0 46.9052734-8.2241211-.0053711-16.4482422-.0102539-24.6728516.0053711z"/><path d="m120.1293945 99.637207c7.0410156.0209961 14.0874023.0053711 21.1333008.0107422-4.5273438 6.4306641-8.0874023 13.5141602-10.5957031 20.965332-2.4189453-7.477539-6.0839844-14.5136718-10.5375977-20.9760742z"/><path d="m179.9335938 99.637207c13.6826172 11.7949219 22.574707 28.9003906 24.6782227 46.8212891-8.2299805-.0209961-16.4643555 0-24.6992188-.0107422.0048828-15.6015625-.0366211-31.2089844.0209961-46.8105469z"/><path d="m28.1005859 107.4091797c.9047852.0791016 1.8095703.1577148 2.7084961.2421875-.2416992.5415039-.4838867 1.0830078-.7255859 1.6298828-.6625977-.6259766-1.3198242-1.2514648-1.9829102-1.8720703z"/><path d="m87.3320313 194.8208008c2.3139648 1.871582 5.3481445 1.9663086 8.1821289 1.855957-.0102539 10.559082.0053711 21.1181641-.0048828 31.6767578 2.0136719-.0048828 4.027832-.0048828 6.046875 0 .0053711-10.5585938.0053711-21.1176758 0-31.6767578 9.465332-.015625 18.9360352-.0053711 28.4008789-.0107422-.0048828 14.9082031.0053711 29.8105469-.0048828 44.7128906-22.7426758-.2260742-45.3071289-9.4443359-61.387207-25.5825195 4.1489258-4.1699219 8.3398438-8.2924805 12.4570313-12.4941406 2.0717773.5415039 4.2280273.3051758 6.3466797.315918-.0258791-2.9345703.0214842-5.8686524-.0366212-8.7973633z"/><path d="m165.8461914 196.6767578c2.7973633.0737305 5.7998047.0737305 8.1557617-1.6826172-.0053711 2.8813477-.0053711 5.7578125 0 8.6396484 2.0717773-.0844727 4.2172852.2890625 6.2314453-.3681641 4.2275391 4.1381836 8.3818359 8.3505859 12.5673828 12.5307617-16.074707 16.1435547-38.6547852 25.3564453-61.3974609 25.5825195.0048828-14.9023438.0048828-29.8046875 0-44.7075195 9.465332-.0053711 18.9301758-.0102539 28.3955078.0053711.0053711 10.559082 0 21.1181641.0053711 31.6821289 2.0136719-.0102539 4.027832-.0102539 6.0419922-.0053711-.0107422-10.5585936 0-21.1176757 0-31.6767577z"/></g><path d="m79.8178711 0h101.7617188c2.3554688 12.5463867 9.6860352 24.425293 21.0229492 30.6777344 9.1499023 5.2792969 20.6816406 6.8413086 30.6411133 2.9711914 3.7231445-1.3569336 6.8779297-3.8017578 10.1542969-5.9633789 6.015625 8.9658203 12.0102539 17.9472656 17.9628906 26.9550781-5.1323242 3.1552734-10.7587891 6.6206055-12.8994141 12.59375-3.0336914 8.1982422.3417969 16.7744141 2.0878906 24.8569336 7.9824219 36.8354492 8.3818359 76.7001953-6.8676758 111.7792969-7.6401367 17.847168-19.1508789 33.921875-33.0859375 47.3994141-22.6064453 21.9487304-50.7915039 37.2348632-79.9130859 48.7299804-32.3920898-12.762207-63.7480469-30.3725586-87.3374023-56.4179688-13.2460938-14.6289063-23.5893555-31.9135742-29.8579102-50.644043-11.0371094-32.7392577-9.7963867-68.4018554-2.4448242-101.7929687 1.9086914-8.3876953 5.3530273-17.7895508.9150391-25.9716797-2.550293-4.8901367-7.4829102-7.6826171-11.9575196-10.5537109 5.9682617-8.9868164 11.9257813-17.9785156 17.9677734-26.9179688 3.8706055 2.5131836 7.7036133 5.2426758 12.1577148 6.6254883 12.6098633 3.9755859 26.8076172-.362793 36.2783203-9.2651367 7.2089845-6.5258789 11.4418946-15.665039 13.4140626-25.0620117zm3.7753906 5.1269531c-2.7709961 10.9536133-9.2861328 21.0180664-18.5830078 27.5283203-13.0463867 9.5595703-32.1347656 11.4418945-45.7539063 1.9873047-4.1279296 6.2416992-8.3398437 12.4257813-12.4155273 18.7045899 5.105957 3.3178711 9.796875 7.9033203 11.453125 13.9399414 2.1191406 7.5825195-.1313477 15.4125977-1.9296875 22.8164063-8.0981445 34.984375-9.3232422 72.7929688 3.6860352 106.7729492 6.8203125 17.9316406 17.6000976 34.2485351 30.993164 47.9414062 22.1801758 22.6850586 50.4287109 38.4448242 79.6972656 50.0869141 30.0151367-12.0419922 59.0419922-28.3115234 81.4326172-52.0112305 13.3984375-14.1875 23.9887695-31.0776367 30.440918-49.519043 12.2314453-34.9165039 10.0332031-73.2924805 1.078125-108.6977539-1.2514648-5.484375-2.1982422-11.2739258-.7783203-16.8217773 1.5410156-6.2836914 6.3574219-11.0952148 11.6210938-14.5288086-4.1279297-6.2421875-8.3027344-12.4575195-12.4467773-18.6884766-9.8701172 6.8515625-23.0053711 7.9033203-34.2060547 3.9384766-14.9550781-4.9956055-26.4077148-18.2416992-30.1152344-33.4545898-31.3930665.005371-62.7807618.005371-94.1738282.005371z" fill="#014494"/><path d="m126.9599609 39.0229492c2.0244141-2.5976563 4.0698242-6.1103516 7.9716797-5.1376953.1157227 4.8115234.1948242 9.628418.2841797 14.4399414.2993164 2.6816406-4.527832 3.0498047-4.9116211.5678711-.215332-2.340332-.03125-4.6958008-.0893555-7.0356445-1.0571289 1.2407227-2.0981445 2.4975586-3.1547852 3.7387695-1.0517578-1.1572266-2.0771484-2.3349609-3.1186523-3.5073242-.1787109 2.4399414.199707 4.90625-.0786133 7.3251953-.7729492 1.871582-3.234375 1.1933594-4.8222656 1.3349609-.015625-5.5263672-.1625977-11.0527344-.2680664-16.5795898 3.9384766-1.1254883 6.0102539 2.3295898 8.1875 4.8535156z" fill="#014494"/><path d="m143.0087891 34.9423828c3.3442383-.8359375 7.2988281-.0629883 9.6489258 2.5976563 2.7294922 3.1025391 2.5400391 8.1030273.1054688 11.3164063-3.6176758 4.4697266-11.6635742 3.8173828-14.5766602-1.1098633-2.6762696-4.5219727-.4838868-11.4370118 4.8222656-12.8041993zm2.1137695 4.175293c-3.7124023.5834961-4.4433594 6.5361328-.9414063 7.9453125 2.4399414 1.2993164 5.5478516-.7519531 5.5898438-3.4335938.5576172-2.6289062-2.0615234-5.090332-4.6484375-4.5117187z" fill="#014494"/><path d="m99.4003906 37.5927734c6.4101563-2.1665039 12.5361328 4.7905273 10.5009766 10.9375-1.8613281 6.7885742-12.6782227 8.4765625-16.043457 2.0458984-3.1079102-4.8593749-.2998047-12.0527343 5.5424804-12.9833984zm1.5932617 4.2172852c-2.9658203.1469727-4.5327148 3.8071289-2.9765625 6.2207031 1.1201172 2.6030273 5.0375977 2.7919922 6.6259766.546875 2.0087891-2.5976562-.2211914-7.2724609-3.6494141-6.7675781z" fill="#014494"/><path d="m159.3413086 37.15625c5.1850586.3574219 5.2851563 6.2416992 7.2412109 9.8647461.777832-1.9140625.9833984-4.1015625 2.1821289-5.8208008 1.4829102-1.0678711 3.2338867.2416992 4.7641602.546875-1.5512695 4.6430664-2.9711914 9.3334961-4.5644531 13.9609375-.7045898 2.0717773-4.043457 1.3144531-4.6640625-.4731445-1.0678711-2.4975586-2.0351563-5.0483398-3.0869141-7.5566406-.7045898 1.824707-1.0727539 3.7861328-1.9663086 5.5375977-1.3886719 1.4824219-3.434082.0839844-5.0117188-.2998047 1.7143555-5.2480469 3.4604493-10.4853516 5.1059571-15.7597657z" fill="#014494"/><path d="m83.5830078 43.340332c1.9453125-.7993164 5.7158203-.4262695 5.3583984 2.4135742-.5678711 2.9550781-4.5224609 1.2514648-6.3525391 2.8393555-3.828125 2.0932617-.3676758 9.2236328 3.6547852 7.3779297 2.1665039-.5732422 3.4863281-4.1225586 6-2.8081055 1.7983398 1.0986328.8886719 3.5546875-.3891602 4.6694336-2.5976563 2.1293945-6.1103516 3.5283203-9.480957 2.6816406-5.1430664-1.3198242-7.9614258-8.0610352-5.2587891-12.6411133 1.3413087-2.408203 3.9282228-3.7548827 6.4682618-4.5327148z" fill="#014494"/><path d="m175.9321289 46.8212891c-1.0043945-1.3095703.3310547-2.734375.8251953-3.9599609 3.5708008 1.8881836 7.2412109 3.5864258 10.7695313 5.5532227 1.4931641.715332.7939453 3.065918-.5102539 3.628418-1.3828125.1894531-2.534668-.7993164-3.7280273-1.3095703-1.7246094 3.1289063-3.1816406 6.4052734-4.9116211 9.5283203-1.3041992 2.0087891-3.6967773.1420898-5.2163086-.6201172 1.8300781-3.7597656 3.7963867-7.4462891 5.652832-11.1850586-.9677735-.525879-2.0195313-.9414064-2.8813477-1.635254z" fill="#014494"/><path d="m68.3491211 53.5205078c-.9414063-2.2558594 2.0087891-3.0654297 3.4335938-4.0068359 2.3823242 4.4277344 4.9799805 8.7553711 7.2412109 13.2407227.4677734 2.1455078-2.171875 2.7871094-3.5546875 3.6967773-2.3925781-4.3017578-4.8378906-8.5766602-7.1201172-12.9306641z" fill="#014494"/><path d="m182.3208008 64.4951172c2.8818359-4.7167969 5.8579102-9.3759766 8.7607422-14.0820313 2.9023438 1.8242188 5.8261719 3.6225586 8.7133789 5.4736328-.7734375 1.0727539-1.2993164 2.9448242-2.9394531 2.7553711-1.3149414-.5258789-2.4560547-1.3881836-3.644043-2.1293945-.3945313.6044922-.7836914 1.2143555-1.1728516 1.824707 1.3510742.8730469 2.7133789 1.7299805 4.0805664 2.5820313-.7939453 1.0039063-1.2412109 2.8286133-2.8129883 2.75-1.2783203-.3100586-2.3085938-1.1992188-3.4287109-1.8354492-.4047852.6152344-.8046875 1.230957-1.2041016 1.8510742 1.4931641.9677734 3.0126953 1.8930664 4.5009766 2.8764648-.7993164 1.0883789-1.5566406 3.3076172-3.3022461 2.5922852-2.5927734-1.4248047-5.0273437-3.1181641-7.5512695-4.6586914z" fill="#014494"/><path d="m63.8476563 54.5776367c1.5986328-1.425293 3.9648438 1.1669922 2.8398438 2.75-.7363281.8256836-1.7299805 1.3671875-2.6186523 2.0087891 2.0615234 3.0395508 4.3383789 5.9418945 6.2519531 9.0708008.7099609 2.1455078-1.8349609 3.0185547-3.1547852 4.0913086-2.3769531-3.449707-4.7851563-6.8730469-7.1987305-10.2963867-.9677734.6518555-1.8828125 1.4462891-3.0029297 1.8300781-1.5092773.0317383-2.0561523-1.6723633-2.8813477-2.6240234 3.2441406-2.2924805 6.4731445-4.6064454 9.7646485-6.8305665z" fill="#014494"/><path d="m128.2587891 57.6064453c17.6313477-.4521484 35.3891602 4.0595703 50.5654297 13.0776367 15.7382813 9.2338867 28.6743164 23.121582 36.8300781 39.4384766 14.2661133 28.1640625 13.1303711 63.4487305-3.0551758 90.5717773-8.6186523 14.734375-21.2915039 27.0703125-36.2675781 35.2631836-18.0522461 10.0068359-39.4384766 13.7084961-59.8203125 10.6166992-17.1269531-2.5029297-33.4750977-9.9174805-46.7211914-21.0390625-22.0595703-18.2363281-35.0317383-46.8789063-33.9907227-75.5009766.4101563-19.7084961 7.2832031-39.1806641 19.2197266-54.855957 17.0634765-22.758789 44.7758789-37.0620117 73.2397461-37.5717773zm3.1601562 6.2519531c-.0209961 11.4428711-.0107422 22.890625-.0053711 34.3378906 3.6181641.0107422 7.2412109.0053711 10.8696289.0053711 6.409668-8.534668 14.4238281-15.8540039 23.5522461-21.3916016.015625 7.1303711.0053711 14.2612305.0053711 21.3916016 2.8188477-.1420898 5.8051758-.0737305 8.1713867 1.6826172-.0205078-4.2539063-.0366211-8.5083008.0161133-12.7568359 4.2490234 2.6762695 8.2241211 5.7788086 11.9052734 9.1865234 2.3188477-2.3085938 4.6323242-4.6274414 6.9462891-6.9414063-16.2329101-15.9697265-38.6704101-25.3720702-61.4609375-25.5141601zm-62.9121094 25.5249024c2.3188477 2.3134766 4.6166992 4.6430664 6.9462891 6.9462891 3.6337891-3.465332 7.6513672-6.5205078 11.8842773-9.2177734.0527344 4.2905273.015625 8.581543.015625 12.8671875 2.3349609-1.7983398 5.3271484-1.9404297 8.1508789-1.7827148.0209961-7.1303711-.0107422-14.2558594.0209961-21.3862305 9.0756836 5.5375977 17.1425781 12.7729492 23.4580078 21.3388672 3.6547852.1210938 7.309082.0263672 10.9638672.0581055.0209961-11.4477539.0053711-22.8955078.0053711-34.3427734-22.7797851.1416014-45.2490234 9.5175779-61.4453125 25.5190428zm33.0756836-.168457c-.0419922 2.9921875-.015625 5.9892578-.0209961 8.9868164 3.0234375.0107422 6.0522461-.0107422 9.0761719.0107422-2.7607422-3.244629-5.7739258-6.2788086-9.0551758-8.9975586zm49.171875 8.9868164h9.0444336c-.0048828-3.0024414.0209961-6.0107422-.0209961-9.0131836-3.2548828 2.7397461-6.2836914 5.7583007-9.0234375 9.0131836zm-107.824707 66.9189453c2.5976563 18.6308594 11.3691406 36.3359375 24.6201172 49.6923828 4.6328125-4.6640625 9.3706055-9.2285156 13.8979492-13.9975586 0-16.3701172.015625-32.7446289-.0102539-49.1196289-8.3608398.015625-16.7167969.0107422-25.0776367.0053711-.6362305 10.8847656 1.4091797 21.8647461 5.5161133 31.9453125-2.3032227.0048828-4.6010742.0048828-6.9042969 0-5.5004883-14.734375-6.6049805-31.0668945-3.1079102-46.4008789 3.3969727-15.144043 11.3896484-29.1845703 22.5429688-39.9643555-2.3032227-2.2924805-4.5957031-4.6010742-6.8935547-6.9042969-19.1831055 19.3408203-28.6376953 47.7783203-24.5834961 74.7436524zm144.0136719-67.8393555c9.6435547 9.2919922 16.9160156 21.0288086 20.9023438 33.8120117 5.3579102 17.0268555 4.7900391 35.8208008-1.440918 52.5424805-2.3085938.0263672-4.6118164.0209961-6.9204102.0107422 4.1069336-10.0751953 6.184082-21.0708008 5.5058594-31.9506836-8.3608398.015625-16.7167969.0107422-25.0776367.0053711-.015625 16.3486328.0102539 32.6972656-.0107422 49.0507813 4.6748047 4.6328125 9.2026367 9.4077148 13.8720703 14.0507813 19.4931641-19.3457031 28.7954102-48.2094727 24.578125-75.3168945-2.6713867-18.4360352-11.4848633-35.8154297-24.4887695-49.1191406-2.3085938 2.3032225-4.6118165 4.6118162-6.9199219 6.9145506zm-99.5478516 5.3007813c-.0893555 30.0205078 0 60.0463867-.0424805 90.0668945 1.8984375 2.5869141 5.2163086 2.8129883 8.15625 2.5712891.0048828-31.855957.0048828-63.7114258 0-95.5673828-2.8818359-.1679688-6.8520507-.2104493-8.1137695 2.9291992zm62.1391602-2.9291993c-8.3979492 10.4067383-13.8510742 23.137207-15.5493164 36.409668-2.2089844 0-4.4174805 0-6.6259766 0-1.65625-13.2773438-7.1352539-26.0292969-15.5541992-36.4199219-3.4125977.0102539-6.8256836.0053711-10.2382813.0053711-.0161133 31.8500977 0 63.7060547-.0107422 95.5566406 19.4145508.0366211 38.8232422.015625 58.237793.0102539.0102539-31.8554688.0205078-63.7167969-.0053711-95.5722656-3.4179687.0209961-6.8359375-.0053711-10.2539062.0102539zm16.3271484-.0102539c-.0366211 31.8554688-.015625 63.7114258-.0107422 95.5722656 2.902832.2211914 6.1420898.1103516 8.1455078-2.3349609.0053711-30.3041992-.0102539-60.6142578.0107422-90.918457-1.9877929-2.4765625-5.2583008-2.4819336-8.1455078-2.3188477zm-109.1025391 46.815918c8.2246094-.015625 16.4487305-.0107422 24.6728516-.0053711.0263672-15.6333008.03125-31.2719727 0-46.9052734-13.5986328 11.9155273-22.6166992 28.9321289-24.6728516 46.9106445zm63.3701172-46.8212891c4.4536133 6.4624023 8.1186523 13.4985352 10.5375977 20.9760742 2.5083008-7.4511719 6.0683594-14.534668 10.5957031-20.965332-7.0458984-.0053711-14.0922851.0102539-21.1333008-.0107422zm59.8041993 0c-.0576172 15.6015625-.0161133 31.2089844-.0209961 46.8105469 8.2348633.0107422 16.4692383-.0102539 24.6992188.0107422-2.1035157-17.9208984-10.9956056-35.0263672-24.6782227-46.8212891zm-92.6015625 95.1835938c.0581055 2.9287109.0107422 5.862793.0366211 8.7973633-2.1186523-.0107422-4.2749023.2255859-6.3466797-.315918-4.1171875 4.2016602-8.3081055 8.3242188-12.4570313 12.4941406 16.0800781 16.1381836 38.6445313 25.3564453 61.387207 25.5825195.0102539-14.9023438 0-29.8046875.0048828-44.7128906-9.4648438.0053711-18.9355469-.0048828-28.4008789.0107422.0053711 10.559082.0053711 21.1181641 0 31.6767578-2.019043-.0048828-4.0332031-.0048828-6.046875 0 .0102539-10.5585938-.0053711-21.1176758.0048828-31.6767578-2.8339843.1103516-5.868164.015625-8.1821288-1.855957zm78.5141601 1.855957c0 10.559082-.0107422 21.1181641 0 31.6767578-2.0141602-.0048828-4.0283203-.0048828-6.0419922.0053711-.0053711-10.5639648 0-21.1230469-.0053711-31.6821289-9.465332-.015625-18.9301758-.0107422-28.3955078-.0053711.0048828 14.902832.0048828 29.8051758 0 44.7075195 22.7426758-.2260742 45.3227539-9.4389648 61.3974609-25.5825195-4.1855469-4.1801758-8.3398438-8.3925781-12.5673828-12.5307617-2.0141602.6572266-4.159668.2836914-6.2314453.3681641-.0053711-2.8818359-.0053711-5.7583008 0-8.6396484-2.355957 1.7563476-5.3583984 1.7563476-8.1557617 1.6826171z" fill="#014494"/><path d="m43.9238281 63.1328125c.5151367-1.871582 3.7436523-1.5512695 3.9858398.331543.1210938 1.4199219-.2895508 2.8183594-.4736328 4.2119141 1.5043945-1.3198242 2.9658203-2.6816406 4.4013672-4.0751953.8046875 1.0307617 2.3823242 1.987793 1.9355469 3.5019531-.7626953 1.2250977-2.0039063 2.0507813-3.0292969 3.0395508.4575195.546875.9204102 1.09375 1.3833008 1.640625 1.2250977-1.0571289 2.402832-2.1665039 3.5966797-3.2495117.7993164 1.0092773 2.4609375 1.9824219 1.9404297 3.4755859-.6889648 1.1147461-1.7983398 1.8823242-2.71875 2.7973633.5366211.515625 1.0673828 1.0415039 1.6040039 1.5620117 1.2724609-1.1831055 2.5292969-2.3823242 3.8173828-3.5493164.8994141.9990234 2.7504883 2.2451172 1.7670898 3.7592773-2.0351563 2.2036133-4.3701172 4.1123047-6.5205078 6.199707-3.796875-4.0117188-7.5039063-8.1030273-11.3217773-12.0888672.9575195-.9150391 1.9248047-1.8300781 2.9130859-2.7133789-.7514648-.015625-1.5087891-.0317383-2.2607422-.0473633-.6044921-1.4936523-1.5039062-3.1601562-1.0200195-4.7958984z" fill="#014494"/><path d="m199.1533203 71.6308594c4.3222656-1.9038086 8.734375-3.6074219 13.0776367-5.4741211.9990234.9145508 2.2875977 1.9873047 1.824707 3.5175781-1.2041016 3.980957-2.5820313 7.9194336-3.8598633 11.8842773-.4047852 1.7617188-2.7817383 2.7763672-4.1962891 1.4931641-1.4824219-.9829102-.6728516-2.8393555-.215332-4.1591797-1.1464844-1.0727539-2.2978516-2.1347656-3.4389648-3.2128906-1.2250977.5258789-2.8447266 1.4619141-4.0019531.2734375-1.3984375-1.2197266-.8676758-3.6494141.8100586-4.3222656zm7.4667969 2.055664c-.215332 1.5620117 2.1191406.5839844 1.3305664-.5415039-.5786133-.2207031-1.0205078-.0366211-1.3305664.5415039z" fill="#014494"/><path d="m218.3305664 78.519043c-.4204102-1.5878906 1.4462891-2.3500977 2.3769531-3.2597656 2.3242188 2.8813477 4.722168 5.7158203 6.9990234 8.6445313 1.4145508 1.5722656-.6782227 3.4443359-2.2714844 3.5654297-3.3916016.3837891-6.7993164.5888672-10.190918.9150391 1.2827148 1.6088867 2.5820313 3.2021484 3.859375 4.8217773-1.1459961.7573242-2.6972656 2.75-4.059082 1.3359375-2.4614258-2.9291992-4.8486328-5.9262695-7.2358398-8.918457 3.5493164-3.7387695 9.1655273-2.019043 13.7402344-2.9658203-1.0620117-1.3881837-2.3295898-2.6293947-3.2182617-4.138672z" fill="#014494"/><path d="m35.730957 80.5541992c1.2041016-1.1669922 2.4238281-3.6650391 4.4536133-2.6342773 2.8764648 2.21875 5.5112305 4.753418 8.2822266 7.1147461 1.1728516-1.3305664 2.3242188-2.6767578 3.4916992-4.0073242.8886719.9360352 2.3134766 1.6459961 2.4609375 3.050293-1.2202148 2.0297852-3.0131836 3.6494141-4.5117188 5.4736328-.7573242 1.09375-2.387207 1.4619141-3.3496094.4155273-3.6333007-3.1074219-7.2197265-6.2729492-10.8271484-9.4125977z" fill="#014494"/><path d="m32.8598633 84.5927734c.8256836-1.3305664 2.8657227-.6362305 3.4179688.5625.5786133 1.4936523-.9414063 2.703125-1.5195313 3.9389648 3.0341797 2.0874023 6.2993164 3.859375 9.2075195 6.1259766 1.3881836 1.6459961-.6313477 3.449707-1.4199219 4.8852539-3.5126953-2.2773438-7.0200195-4.5644531-10.5380859-6.8359375-.8730469 2.8442383-3.7016602 3.8227539-5.7475586 1.4404297 2.1982422-3.3759765 4.3383789-6.7885742 6.5996094-10.1171875z" fill="#014494"/><path d="m220.8862305 93.8686523c3.2709961-1.8720703 6.5205078-3.7651367 9.7915039-5.6318359.7358398 1.4726563 2.6132813 3.3969727 1.1777344 4.9848633-3.0078125 2.0458984-6.362793 3.5444336-9.3496094 5.6323242.3837891.8569336.5996094 2.3081055 1.809082 2.3188477 3.5654297-1.7724609 6.8989258-3.996582 10.4169922-5.8789063.7729492 1.4667969 2.6816406 3.465332 1.09375 5.0214844-2.6816406 1.7670898-5.5581055 3.2236328-8.3032227 4.890625-6.0522461 4.2749023-13.2563476-8.1401367-6.6362304-11.3374024z" fill="#014494"/><path d="m225.4404297 107.9506836c4.4428711-1.824707 8.8969727-3.6333008 13.3720703-5.3896484.5361328 1.5668945 2.2084961 3.9648438.2578125 5.1743164-3.2763672 1.4985352-6.6787109 2.734375-10.0068359 4.1171875.6308594 1.6459961 1.293457 3.28125 1.9296875 4.9272461-1.2412109.3310547-2.8974609 1.6772461-4.0224609.4995117-1.0888672-2.21875-1.9931641-4.5429688-2.7924805-6.8833008-.4101563-1.0253906.2578125-2.1347656 1.262207-2.4453125z" fill="#014494"/><path d="m20.9863281 105.8735352c.5834961-1.2304688 1.2670898-3.0498047 2.9760742-2.7973633 4.6064453.1894531 9.3496094-.4624023 13.8720703.347168 3.0078125 1.7983398.2836914 5.9316406-2.7558594 4.6591797-.6518555 1.4140625-1.309082 2.8237305-1.9614258 4.2329102.894043 1.0410156 2.3769531 2.4243164 1.3461914 3.8754883-.7148438 1.7563477-3.3754883 1.7666016-4.40625.2993164-3.0341796-3.5283204-6.0419921-7.0830079-9.0708007-10.6166993zm7.1142578 1.5356445c.6630859.6206055 1.3203125 1.2460938 1.9829102 1.8720703.2416992-.546875.4838867-1.0883789.7255859-1.6298828-.8989257-.0844727-1.8037109-.1630859-2.7084961-.2421875z" fill="#014494"/></svg>