<svg height="300" viewBox="0 0 222.052 300" width="222.05" xmlns="http://www.w3.org/2000/svg"><g fill="#fff"><path d="m222.05 77.03-39.234-46.08s-33.559 17.697-71.792 17.697-71.795-17.697-71.795-17.697l-39.235 46.08s18.282 19.033 18.282 40.403c0 25.8-18.282 42.83-18.282 77.14 0 24.877 10.238 46.676 24.63 58.531 25.299 20.84 64.208 24.713 86.396 46.902 22.188-22.189 61.096-26.063 86.395-46.902 14.393-11.855 24.631-33.654 24.631-58.531 0-34.309-18.281-51.339-18.281-77.133 0-21.377 18.28-40.41 18.28-40.41z" fill="#096943"/><path d="m38.694 42.389c-2.231-1.906-5.547-1.675-7.407.517-1.859 2.192-1.558 5.513.672 7.419 2.232 1.906 5.548 1.675 7.407-.517 1.86-2.192 1.559-5.513-.672-7.419z"/><path d="m18.308 66.332c-2.231-1.906-5.547-1.675-7.407.517-1.859 2.191-1.558 5.513.673 7.419s5.548 1.675 7.407-.517 1.558-5.513-.673-7.419z"/><path d="m28.501 54.36c-2.231-1.906-5.547-1.675-7.407.517-1.859 2.192-1.558 5.513.672 7.419 2.232 1.907 5.548 1.675 7.407-.517 1.86-2.191 1.558-5.512-.672-7.419z"/><path d="m98.369 281.92c-1.42 2.553-.533 5.625 1.722 7.16 2.293 1.482 5.457.895 7.147-1.378 1.74-2.343 1.065-5.718-1.558-7.417-2.59-1.74-5.934-.84-7.311 1.64z"/><path d="m84.424 274.91c-1.141 2.634.027 5.736 2.558 6.974 2.562 1.188 5.585.252 6.951-2.326 1.337-2.521.256-5.851-2.484-7.127-2.725-1.32-5.87-.17-7.025 2.49z"/><path d="m70.036 268.87c-1.068 2.684.248 5.755 2.923 6.865 2.646 1.121 5.701-.129 6.821-2.789 1.121-2.661-.18-5.754-2.906-6.908-2.712-1.13-5.771.15-6.838 2.83z"/><path d="m55.615 262.87c-1.158 2.63.122 5.815 2.853 6.946 2.729 1.164 5.792-.109 6.865-2.794 1.071-2.682-.241-5.754-2.881-6.879-2.662-1.11-5.668.07-6.837 2.72z"/><path d="m41.598 256c-1.43 2.524-.407 5.812 2.317 7.188 2.703 1.436 5.896.26 7.076-2.339 1.206-2.652.042-5.691-2.412-7.001-2.492-1.25-5.571-.34-6.981 2.15z"/><path d="m28.674 247.26c-1.919 2.215-1.388 5.602 1.151 7.528 2.579 1.834 5.939 1.171 7.411-1.28 1.496-2.485.818-5.656-1.375-7.215-2.127-1.63-5.339-1.17-7.187.96z"/><path d="m18.45 235.54c-2.433 1.488-3.067 4.955-1.03 7.52 2.035 2.572 5.577 2.841 7.623.79 2.016-2.02 2.21-5.149.604-7.186-1.623-2.02-4.72-2.64-7.197-1.12z"/><path d="m11.603 221.58c-2.731.906-4.121 4.078-2.805 6.98 1.266 2.927 4.667 4.033 7.145 2.65 2.566-1.424 3.495-4.385 2.45-6.826-1.101-2.42-4.034-3.73-6.79-2.8z"/><path d="m7.873 206.46c-2.888.365-4.852 3.178-4.193 6.248.642 3.076 3.691 4.844 6.444 4.025 2.806-.831 4.38-3.555 3.842-6.174-.564-2.63-3.221-4.48-6.093-4.11z"/><path d="m7.112 190.89c-2.898-.161-5.404 2.222-5.32 5.345.022 3.128 2.68 5.422 5.536 5.143 2.924-.281 4.992-2.664 4.98-5.338-.078-2.67-2.294-4.99-5.196-5.15z"/><path d="m9.208 175.43c-2.817-.668-5.709 1.234-6.228 4.314-.53 3.078 1.591 5.807 4.481 6.051 2.893.244 5.428-1.723 5.887-4.369.444-2.64-1.316-5.32-4.14-5.99z"/><path d="m13.76 160.49c-2.708-.998-5.78.458-6.753 3.354-.986 2.896.612 5.926 3.411 6.665 2.796.739 5.65-.792 6.547-3.42.885-2.63-.487-5.59-3.205-6.59z"/><path d="m19.338 145.89c-2.733-.967-5.711.37-6.79 3.071-1.057 2.687.239 5.772 2.947 6.792 2.7 1.016 5.744-.304 6.826-3.057 1.092-2.72-.267-5.84-2.983-6.8z"/><path d="m23.832 130.97c-2.807-.533-5.63 1.125-6.318 3.727-.785 2.607.738 5.494 3.453 6.422 2.763.943 5.766-.659 6.659-3.634.808-3.03-.906-5.97-3.794-6.52z"/><path d="m25.225 115.49c-2.896.209-5.144 2.352-5.311 4.968-.091 2.597 1.833 5.043 4.754 5.483 2.818.433 5.623-1.758 5.75-4.946.196-3.16-2.292-5.71-5.193-5.5z"/><path d="m22.143 100.22c-2.73.995-4.182 3.796-3.533 6.296.666 2.49 3.252 4.239 6.133 3.889 2.875-.346 4.872-3.285 4.043-6.421-.818-3.14-3.94-4.761-6.643-3.77z"/><path d="m15.421 86.125c-2.458 1.514-3.264 4.603-2.016 6.992 1.25 2.381 4.277 3.473 6.944 2.382 2.679-1.094 3.816-4.357 2.346-7.16-1.468-2.801-4.824-3.724-7.274-2.214z"/><circle cx="101.92" cy="55.354" r="5.259"/><circle cx="86.069" cy="53.46" r="5.259"/><circle cx="55.252" cy="45.326" r="5.259"/><circle cx="70.483" cy="50.054" r="5.259"/><path d="m183.36 42.389c2.23-1.906 5.547-1.675 7.406.517s1.559 5.513-.672 7.419c-2.232 1.906-5.548 1.675-7.407-.517-1.87-2.192-1.56-5.513.67-7.419z"/><path d="m203.74 66.332c2.23-1.906 5.547-1.675 7.406.517 1.859 2.191 1.559 5.513-.672 7.419-2.232 1.906-5.549 1.675-7.408-.517s-1.56-5.513.67-7.419z"/><path d="m193.55 54.36c2.231-1.906 5.548-1.675 7.407.517s1.559 5.513-.672 7.419c-2.232 1.907-5.548 1.675-7.408-.517-1.86-2.191-1.56-5.512.67-7.419z"/><path d="m123.68 281.92c1.421 2.553.533 5.625-1.721 7.16-2.293 1.482-5.457.895-7.147-1.378-1.739-2.343-1.065-5.718 1.558-7.417 2.59-1.74 5.94-.84 7.31 1.64z"/><path d="m137.63 274.91c1.141 2.634-.027 5.736-2.558 6.974-2.562 1.188-5.585.252-6.95-2.326-1.338-2.521-.256-5.851 2.483-7.127 2.73-1.32 5.87-.17 7.03 2.49z"/><path d="m152.02 268.87c1.067 2.684-.248 5.755-2.924 6.865-2.646 1.121-5.701-.129-6.821-2.789-1.121-2.661.181-5.754 2.906-6.908 2.7-1.13 5.76.15 6.83 2.83z"/><path d="m166.44 262.87c1.158 2.63-.121 5.815-2.852 6.946-2.729 1.164-5.792-.109-6.865-2.794-1.071-2.682.241-5.754 2.881-6.879 2.66-1.11 5.67.07 6.84 2.72z"/><path d="m180.45 256c1.43 2.524.407 5.812-2.316 7.188-2.703 1.436-5.896.26-7.076-2.339-1.206-2.652-.043-5.691 2.412-7.001 2.5-1.25 5.58-.34 6.99 2.15z"/><path d="m193.38 247.26c1.92 2.215 1.389 5.602-1.15 7.528-2.579 1.834-5.939 1.171-7.411-1.28-1.495-2.485-.817-5.656 1.376-7.215 2.12-1.63 5.33-1.17 7.18.96z"/><path d="m203.6 235.54c2.433 1.488 3.067 4.955 1.03 7.52-2.035 2.572-5.577 2.841-7.623.79-2.016-2.02-2.21-5.149-.604-7.186 1.62-2.02 4.71-2.64 7.19-1.12z"/><path d="m210.45 221.58c2.732.906 4.121 4.078 2.806 6.98-1.267 2.927-4.667 4.033-7.146 2.65-2.565-1.424-3.494-4.385-2.449-6.826 1.1-2.42 4.03-3.73 6.79-2.8z"/><path d="m214.18 206.46c2.889.365 4.853 3.178 4.193 6.248-.643 3.076-3.691 4.844-6.444 4.025-2.806-.831-4.38-3.555-3.842-6.174.56-2.63 3.22-4.48 6.09-4.11z"/><path d="m214.94 190.89c2.898-.161 5.404 2.222 5.319 5.345-.021 3.128-2.679 5.422-5.535 5.143-2.924-.281-4.991-2.664-4.98-5.338.08-2.67 2.3-4.99 5.2-5.15z"/><path d="m212.84 175.43c2.817-.668 5.709 1.234 6.228 4.314.531 3.078-1.59 5.807-4.48 6.051-2.893.244-5.428-1.723-5.887-4.369-.44-2.64 1.32-5.32 4.14-5.99z"/><path d="m208.29 160.49c2.708-.998 5.779.458 6.754 3.354.985 2.896-.612 5.926-3.411 6.665-2.797.739-5.65-.792-6.548-3.42-.88-2.63.49-5.59 3.21-6.59z"/><path d="m202.71 145.89c2.734-.967 5.711.37 6.789 3.071 1.057 2.687-.238 5.772-2.946 6.792-2.7 1.016-5.744-.304-6.827-3.057-1.08-2.72.28-5.84 2.99-6.8z"/><path d="m198.22 130.97c2.807-.533 5.631 1.125 6.318 3.727.785 2.607-.738 5.494-3.453 6.422-2.764.943-5.766-.659-6.658-3.634-.81-3.03.9-5.97 3.79-6.52z"/><path d="m196.83 115.49c2.895.209 5.144 2.352 5.311 4.968.091 2.597-1.833 5.043-4.754 5.483-2.818.433-5.623-1.758-5.75-4.946-.2-3.16 2.29-5.71 5.19-5.5z"/><path d="m199.91 100.22c2.73.995 4.182 3.796 3.533 6.296-.666 2.49-3.252 4.239-6.133 3.889-2.875-.346-4.872-3.285-4.043-6.421.81-3.14 3.94-4.761 6.64-3.77z"/><path d="m206.63 86.125c2.458 1.514 3.264 4.603 2.016 6.992-1.249 2.381-4.276 3.473-6.944 2.382-2.678-1.094-3.814-4.357-2.346-7.16 1.46-2.801 4.82-3.724 7.27-2.214z"/><circle cx="120.13" cy="55.354" r="5.259"/><circle cx="135.98" cy="53.46" r="5.259"/><circle cx="166.8" cy="45.326" r="5.259"/><circle cx="151.57" cy="50.054" r="5.259"/><path d="m33.809 117.43c0-11.83-3.886-24.07-11.443-36.351-.144-.234-.288-.455-.432-.685 29.437 11.53 49.672 29.478 62.677 44.841 4.771 5.636 8.563 10.919 11.48 15.405-8.454 2.174-19.102 3.877-31.754 3.877-10.152 0-21.594-1.097-34.221-3.923 2.152-7.08 3.692-14.66 3.693-23.17z"/><path d="m20.676 76.699 22.803-26.781c11.327 4.646 29.992 11.044 51.493 13.367 6.613 11.905 19.078 37.621 23.373 68.662-2.161 1.28-8.729 4.856-19.209 7.87-11.075-17.3-35.321-46.975-78.455-63.121z"/><path d="m29.2 143.47c12.946 2.918 24.699 4.056 35.138 4.056 13.397 0 24.622-1.867 33.445-4.215.568.919 1.099 1.8 1.584 2.626 1.559 2.656 2.689 4.805 3.428 6.285.206.412.377.766.522 1.069-12.058 7.028-26.076 11.056-41.044 11.057-13.497-.001-26.218-3.276-37.429-9.071 1.494-3.86 3.005-7.77 4.353-11.83z"/><path d="m105.9 151.72c-.87-1.798-2.536-5.042-5.106-9.258 8.936-2.643 15.023-5.658 17.965-7.292.23 1.949.428 3.918.588 5.904-4.09 4.01-8.6 7.58-13.45 10.65z"/><path d="m122.11 138.24c-3.228-33.073-16.102-60.905-23.521-74.61 4.066.345 8.221.541 12.438.542 10.538-.001 20.694-1.199 30.017-2.997 1.871 6.858 2.873 14.074 2.873 21.528 0 21.457-8.28 40.967-21.81 55.537z"/><path d="m179.01 48.111 24.903 29.25c-.96 1.386-1.953 2.893-2.947 4.509-4.093 6.653-7.069 13.264-8.927 19.779l-45.222-22.923c-.314-6.766-1.416-13.329-3.229-19.59 14.78-3.095 27.24-7.611 35.43-11.026z"/><path d="m19.783 223.13c-3.767-8.679-5.758-18.557-5.758-28.564 0-14.87 3.973-25.85 8.383-37.178 6.932 3.708 14.443 6.473 22.357 8.14l-12.05 76.034c-5.198-4.54-9.656-10.88-12.932-18.43z"/><path d="m71.67 262c-1.185-.479-2.362-.955-3.534-1.432l2.544-93.627c6.746-.666 13.258-2.126 19.445-4.281l28.812 113.9c-2.709 1.596-5.355 3.294-7.911 5.137-11.95-8.63-25.833-14.24-39.36-19.7z"/><path d="m188.5 242.27c-6.445 5.309-14.156 9.436-22.533 13.198l-52.795-105.13c4.488-3.383 8.627-7.205 12.357-11.398l75.256 87.35c-3.29 6.55-7.49 12.03-12.3 15.98z"/><path d="m205.84 176.05-69.827-51.757c3.957-7.001 6.948-14.62 8.788-22.678l45.287 22.54c1.134 11.632 5.01 21.586 8.789 31.256 2.65 6.8 5.22 13.37 6.96 20.64z"/></g><g fill="#096943"><path d="m134.7 92.04h2.774c-.123 3.29-.998 5.91-2.625 7.86-1.626 1.951-3.727 2.926-6.302 2.926-2.966 0-5.292-1.296-6.975-3.889-1.684-2.593-2.525-6.182-2.525-10.767 0-4.231.882-7.59 2.647-10.079 1.764-2.488 4.144-3.733 7.139-3.733 2.385 0 4.338.789 5.859 2.366 1.521 1.578 2.4 3.73 2.639 6.457h-2.804c-.267-1.785-.901-3.158-1.903-4.118-1.001-.96-2.303-1.44-3.905-1.44-2.137 0-3.794.96-4.972 2.88-1.179 1.92-1.768 4.628-1.768 8.125 0 3.302.613 5.949 1.84 7.942 1.225 1.993 2.848 2.99 4.871 2.99 1.726 0 3.141-.688 4.242-2.063 1.11-1.38 1.69-3.198 1.77-5.461z"/><path d="m79.984 104.96-6.71-27.526 2.946-1.786 21.324 18.669-2.894 1.753-6.263-5.641-7.733 4.688 2.089 8.17-2.759 1.67zm-.138-13.048 6.119-3.709-9.219-8.354z"/><path d="m51.435 134.24-12.164-25.588 2.522-2.348 24.672 13.947-2.477 2.305-7.278-4.251-6.62 6.161 3.707 7.576-2.362 2.19zm-2.786-12.75 5.239-4.875-10.725-6.306 5.486 11.18z"/></g><path d="m128.18 12.459c-.15-.463-.464-.463-.464-.463h-12.3l-3.802-11.699s-.097-.297-.584-.297-.584.297-.584.297l-3.801 11.699h-12.3l-.463.463c-.15.464.103.647.103.647l9.951 7.23-3.801 11.698s-.097.297.297.584c.395.287.648.103.648.103l9.95-7.229 9.951 7.229s.253.184.647-.103.297-.584.297-.584l-3.8-11.698 9.95-7.23c-.03.001.22-.183.08-.647z" fill="#feca29"/></svg>