<svg clip-rule="evenodd" fill-rule="evenodd" height="800" image-rendering="optimizeQuality" shape-rendering="geometricPrecision" text-rendering="geometricPrecision" viewBox="0 0 317.50001 211.66666" width="1200" xmlns="http://www.w3.org/2000/svg"><path d="m0 0h317.5v211.66667h-317.5z" fill="#fff"/><path d="m123.05986109224 40.77495527063h71.5896629763v17.29470978279h-71.5896629763z" stroke="#000" stroke-width=".89115726431"/><g transform="matrix(.38967747974 0 0 .38967747974 -85.35612206103 128.15041686829)"><path d="m718.34869-246.04243c-1.98433-.71181-3.93973-1.38475-5.86728-2.021-.72649-.2398-.51157 5.04622-1.23021 4.81673-.54718-.17474-4.17045-.1419-4.96174-1.77472-.69436-1.4328 1.43876-4.55544.96598-4.6992-2.18306-.66377-3.70486-1.2806-5.8171-1.8539-.67865-.1842.0145 3.98977-1.58191 5.20164-.75185.57075-4.82509-1.21774-5.13984-1.29838-.99663-.25535 1.13936-5.18838.15803-5.42485-1.99526-.48079-3.9593-.92334-5.89375-1.33079-.63652-.13408.31452 3.73449-1.26868 5.0528-.88164.73414-4.56129-.68794-4.91027-.75617-1.02095-.19958 1.19543-5.28517.19078-5.46599-1.97106-.35477-3.91125-.67436-5.82242-.96243-.57882-.0872.30705 3.83685-1.28042 5.06741-1.08866.8439-4.77509-.84799-5.16598-.90134-1.07786-.14709 1.395-4.86761.33521-4.99595-2.17116-.26291-4.30515-.48789-6.40501-.68085-.66357-.061.76275 3.77984-.78038 5.1327-.67777.59421-4.78432-.57671-5.07155-.59962-.844-.0673 1.32522-4.90681.49191-4.96477-1.2945-.09-2.57635-.16927-3.84631-.2392-.73851-.0407-1.4504-.0707-2.14338-.0928-.52843-.0169-.97704 1.82294-1.16244 4.75493-.10102 1.59677-4.57282.14848-5.03711.14492-1.31908-.0101.53142-4.96175-.70873-4.96261-1.7029-.001-3.22852-.008-4.29429-.0623l5.1309 30.96237 54.66171 10.79259z" fill="#cc0" fill-rule="nonzero"/><g transform="matrix(1.331 0 0 1.331 275.99189 -180.60772)"><g transform="matrix(-1 0 0 1 527.07299 .049429)"><g fill-rule="nonzero"><path d="m224.21628-48.375678c-1.56778-8.579421.15606.02165-1.69316-8.235838.76705-.149949-2.19724.467717-1.44243.331863 1.48089-.26654 2.93858-.506652 4.37447-.723085.43488-.06555-.23069 2.88268.962 3.807215.81793.634037 3.5876-.637105 3.88128-.677185.80981-.110516-1.04809-3.657111-.25185-3.753531 1.63122-.197529 3.23452-.366562 4.81218-.511538.49855-.04581-.57307 2.839851.58631 3.85628.50922.446435 3.59453-.433293 3.81033-.450505.63411-.05058-.99566-3.686558-.36958-3.730105.97258-.06765 1.93565-.127178 2.88979-.179717.55485-.03055 1.08971-.05308 1.61035-.0697.39702-.01267.73407 1.369605.87336 3.572454.0759 1.199672 3.43563.111554 3.78446.108878.99104-.0076-.39927-3.727836.53248-3.728485 1.27941-.00089 2.42563-.0063 3.22636-.04682l-3.85492 23.262484-21.14882 2.587518c-1.53921-12.16636-4.13074-16.911251-2.58261-15.420183z" fill="#e6e600"/><path d="m200.81201-45.764884 4.00575-1.269183-1.19475-4.862127 3.49659-.836558 1.06919 4.786261 5.3729-1.527779-1.09332-4.923269 3.72388-.398063 1.24258 4.395683 3.88098-.530044 3.56012 15.514997c-4.12229.52437-10.97105 2.546426-15.29894 3.893178z" fill="#e6e600"/><path d="m248.15811-53.784054-4.20196-.05695-.35495-4.446357-3.89764.04204.29466 4.883431-5.11295.429513-.47024-5.021234-4.05766.529126.55759 4.799685-3.77812.373464 3.9487 16.508955c4.0843-.765953 9.11677-1.35843 13.64913-1.717808z" fill="#fff500"/></g><g fill="none" stroke="#333" transform="matrix(-.94997154 -.00735418 -.00735418 .94997154 -34.963307 -484.90781)"><g transform="translate(-65.240086 395.1234)"><path d="m-241.35634 75.435548c20.94573-.293437 39.51479 4.468788 52.19102 9.860858.40608.172732.87073.281487 1.2646.455366.56825.250865.60669-.85432 1.34281-2.992876"/><path d="m-240.4523 75.502245c-1.03278-.03711-1.58969.113787-1.64719-.167143l.84693-24.17895c.0606-.426618.0939-.352189.58901-.311233l-.00033-.000007 3.83261.07395c.55574.02373.28503.407641.33277.871232l-.11936 2.544138c.0855.437616-.0444.848322.9418.592252m3.0271.249496c.37465-.0021.78159.01733.65499-.318941l.24307-3.625329c.007-.479852.46624-.143695.57111-.234191l3.96015.29264c.62127.02549.41835.193666.34875.777885l-.31834 3.122797c-.14865.37604.2757.441335.55959.394583m3.37698.304653c.70106.163577.72268.124534.74532-.220705l.36086-3.270199c-.0484-.60022.39511-.331984.52908-.441898l4.20001.603461c.37315.114339.15592.29955.24289.43552l-.41544 3.225865m4.5706.258892.39633-2.793927c-.0113-.386442.3778-.495933.71942-.44464l3.69492.679044"/><path d="m-236.55583 54.914304c.9132.04721 2.20646.150767 4.29178.277412m5.52179.406947c1.60513.143913 2.16166.184521 3.73462.378093.78489.09659-.59089-.04422.18489.0639m5.36638-.354056c-.44207 1.075756.21539 1.086281.48291 1.129373 1.3473.217021 1.90283.256587 3.21556.504919.78774.149018.59954-.859823.85669-1.605138"/><path d="m-187.37339 85.488667 7.54108-23.309394c.0921-.420921.0349-.362807-.44325-.497331l.00031.000109-3.61714-1.269128c-.52901-.171841-.40944.282437-.61605.700169l-.70656 2.206236c-.16093.932261-.53411.663414-1.60817.267006m-2.15312-.607976c-.66382-.277998-1.03981-.237768-.73516-.946442l.75542-2.776889c.16103-.452085.19492-.620586-.13027-.677384l-4.00788-1.267844c-.5141-.190849-.40736.485517-.61077.928015l-.7143 2.810937c.007.404285-.41249.31727-.66216.174323m-3.07627-.797252c-1.40235-.18711-.81364-.568089-.84402-.949069l.56126-2.613287c.12571-.674775.22017-.85726-.25507-1.007065l-4.12597-.820226c-.38958-.02318-.27426.321567-.40324.418607l-.54953 3.208059m-4.53709-.741368.55075-3.143416c.14554-.358166.14967-.677137-.18832-.748371l-3.37562-.683933"/><path d="m-185.56397 63.941319c-.87479-.266287-2.12614-.608887-4.13015-1.199244m-5.33087-1.495895c-1.55834-.410754-2.09548-.561906-3.64047-.915017-.77093-.1762.57068.159443-.1956-.0028m-4.79658-2.223256c-.0145 1.097344-.70135 1.012829-.96757.962338-1.34076-.25429-1.87662-.406081-3.19552-.619166-.79146-.127868-.27126-1.012505-.25951-1.800847"/></g><path d="m-77.181267-50.345475c19.482816-7.696079 40.216116-9.70559 56.354919-8.581409" transform="matrix(.94174645 .33632369 -.33632369 .94174645 -251.211364 538.443485)"/><path d="m-306.81464 459.66051c21.92264-.27247 42.00867 4.58538 57.11107 11.07194"/><path d="m-306.74801 454.16732c21.44853.0571 41.55442 4.24964 59.06164 11.10294"/><g transform="matrix(.98061406 .19594916 -.19594916 .98061406 -285.852658 526.590689)"><path d="m-40.075067 223.07775v-5.16191" transform="translate(35.244657 -277.170046)"/><path d="m-4.8038376-64.746009v-5.16191"/><path d="m-10.837001-59.308907-.08028-5.145867"/><path d="m1.9295473-59.201652-.0159713-5.659652"/><path d="m-16.840612-63.896382-.449472-5.740006"/><path d="m8.5243454-64.410095.2087648-5.370604"/><path d="m-16.118134-53.289872-.481628-5.483114"/><path d="m7.5088689-53.511082.6101808-5.450816"/></g><g transform="matrix(.99726382 .07392479 -.07392479 .99726382 -297.223775 529.987187)"><path d="m-4.8038376-64.746009v-5.16191"/><path d="m-12.683514-58.939931v-5.16191"/><path d="m-12.650106-69.693556v-5.16191"/><path d="m32.914893-60.112156 1.233091-5.012464"/><path d="m37.966874-53.014365 1.2033-5.0197"/><path d="m40.736378-63.807282 1.2033-5.0197"/></g></g></g><g fill-rule="nonzero"><path d="m194.51721-49.101719c1.49086-.534789 2.95998-1.040382 4.40818-1.518406.54582-.180166.38435 3.791299.92427 3.618879.41111-.131285 3.13332-.106607 3.72783-1.333372.52168-1.076485-1.08096-3.422572-.72575-3.530578 1.64016-.498697 2.78351-.962134 4.37047-1.392864.50988-.138392-.0109 2.997575 1.18851 3.908067.56488.428819 3.62516-.914903 3.86164-.97549.74878-.191846-.85602-3.898105-.11873-4.075769 1.49907-.361226 2.97468-.693721 4.42806-.999845.47823-.100731-.2363 2.805781.95318 3.796244.66239.55157 3.42696-.516858 3.68916-.568116.76705-.149949-.89815-3.97083-.14334-4.106684 1.48089-.26654 2.93858-.506652 4.37447-.723085.43488-.06555-.23069 2.88268.962 3.807215.81793.634037 3.5876-.637105 3.88128-.677185.80981-.110516-1.04809-3.657111-.25185-3.753531 1.63122-.197529 3.23452-.366562 4.81218-.511538.49855-.04581-.57307 2.839851.58631 3.85628.50922.446435 3.59453-.433293 3.81033-.450505.63411-.05058-.99566-3.686558-.36958-3.730105.97258-.06765 1.93565-.127178 2.88979-.179717.55485-.03055 1.08971-.05308 1.61035-.0697.39702-.01267.73407 1.369605.87336 3.572454.0759 1.199672 3.43563.111554 3.78446.108878.99104-.0076-.39927-3.727836.53248-3.728485 1.27941-.00089 2.42563-.0063 3.22636-.04682l-3.85492 23.262484-41.06815 8.108637z" fill="#e6e600"/><path d="m200.81201-45.764884 4.00575-1.269183-1.19475-4.862127 3.49659-.836558 1.06919 4.786261 5.3729-1.527779-1.09332-4.923269 3.72388-.398063 1.24258 4.395683 3.88098-.530044 1.01736 16.277824c-4.12229.52437-8.42829 1.783599-12.75618 3.130351z" fill="#fff500"/><path d="m248.15811-53.784054-4.20196-.05695-.35495-4.446357-3.89764.04204.29466 4.883431-5.11295.429513-.47024-5.021234-4.05766.529126.55759 4.799685-3.77812.373464 3.9487 16.508955c4.0843-.765953 9.11677-1.35843 13.64913-1.717808z" fill="#fff500"/></g><g fill="none" stroke="#333" transform="matrix(-.94997154 -.00735418 -.00735418 .94997154 -34.963307 -484.90781)"><g transform="translate(-65.240086 395.1234)"><path d="m-241.35634 75.435548c20.94573-.293437 39.51479 4.468788 52.19102 9.860858.40608.172732.87073.281487 1.2646.455366.56825.250865.60669-.85432 1.34281-2.992876"/><path d="m-240.4523 75.502245c-1.03278-.03711-1.58969.113787-1.64719-.167143l.84693-24.17895c.0606-.426618.0939-.352189.58901-.311233l-.00033-.000007 3.83261.07395c.55574.02373.28503.407641.33277.871232l-.11936 2.544138c.0855.437616-.0444.848322.9418.592252m3.0271.249496c.37465-.0021.78159.01733.65499-.318941l.24307-3.625329c.007-.479852.46624-.143695.57111-.234191l3.96015.29264c.62127.02549.41835.193666.34875.777885l-.31834 3.122797c-.14865.37604.2757.441335.55959.394583m3.37698.304653c.70106.163577.72268.124534.74532-.220705l.36086-3.270199c-.0484-.60022.39511-.331984.52908-.441898l4.20001.603461c.37315.114339.15592.29955.24289.43552l-.41544 3.225865m4.5706.258892.39633-2.793927c-.0113-.386442.3778-.495933.71942-.44464l3.69492.679044"/><path d="m-236.55583 54.914304c.9132.04721 2.20646.150767 4.29178.277412m5.52179.406947c1.60513.143913 2.16166.184521 3.73462.378093.78489.09659-.59089-.04422.18489.0639m5.36638-.354056c-.44207 1.075756.21539 1.086281.48291 1.129373 1.3473.217021 1.90283.256587 3.21556.504919.78774.149018.59954-.859823.85669-1.605138"/><path d="m-187.37339 85.488667 7.54108-23.309394c.0921-.420921.0349-.362807-.44325-.497331l.00031.000109-3.61714-1.269128c-.52901-.171841-.40944.282437-.61605.700169l-.70656 2.206236c-.16093.932261-.53411.663414-1.60817.267006m-2.15312-.607976c-.66382-.277998-1.03981-.237768-.73516-.946442l.75542-2.776889c.16103-.452085.19492-.620586-.13027-.677384l-4.00788-1.267844c-.5141-.190849-.40736.485517-.61077.928015l-.7143 2.810937c.007.404285-.41249.31727-.66216.174323m-3.07627-.797252c-1.40235-.18711-.81364-.568089-.84402-.949069l.56126-2.613287c.12571-.674775.22017-.85726-.25507-1.007065l-4.12597-.820226c-.38958-.02318-.27426.321567-.40324.418607l-.54953 3.208059m-4.53709-.741368.55075-3.143416c.14554-.358166.14967-.677137-.18832-.748371l-3.37562-.683933"/><path d="m-185.56397 63.941319c-.87479-.266287-2.12614-.608887-4.13015-1.199244m-5.33087-1.495895c-1.55834-.410754-2.09548-.561906-3.64047-.915017-.77093-.1762.57068.159443-.1956-.0028m-4.79658-2.223256c-.0145 1.097344-.70135 1.012829-.96757.962338-1.34076-.25429-1.87662-.406081-3.19552-.619166-.79146-.127868-.27126-1.012505-.25951-1.800847"/></g><path d="m-77.181267-50.345475c19.482816-7.696079 40.216116-9.70559 56.354919-8.581409" transform="matrix(.94174645 .33632369 -.33632369 .94174645 -251.211364 538.443485)"/><path d="m-306.81464 459.66051c21.92264-.27247 42.00867 4.58538 57.11107 11.07194"/><path d="m-306.74801 454.16732c21.44853.0571 41.55442 4.24964 59.06164 11.10294"/><g transform="matrix(.98061406 .19594916 -.19594916 .98061406 -285.852658 526.590689)"><path d="m-40.075067 223.07775v-5.16191" transform="translate(35.244657 -277.170046)"/><path d="m-4.8038376-64.746009v-5.16191"/><path d="m-10.837001-59.308907-.08028-5.145867"/><path d="m1.9295473-59.201652-.0159713-5.659652"/><path d="m-16.840612-63.896382-.449472-5.740006"/><path d="m8.5243454-64.410095.2087648-5.370604"/><path d="m-16.118134-53.289872-.481628-5.483114"/><path d="m7.5088689-53.511082.6101808-5.450816"/></g><g transform="matrix(.99726382 .07392479 -.07392479 .99726382 -297.223775 529.987187)"><path d="m-4.8038376-64.746009v-5.16191"/><path d="m-12.683514-58.939931v-5.16191"/><path d="m-12.650106-69.693556v-5.16191"/><path d="m32.914893-60.112156 1.233091-5.012464"/><path d="m37.966874-53.014365 1.2033-5.0197"/><path d="m40.736378-63.807282 1.2033-5.0197"/></g></g><g transform="matrix(-.99909011 .04264909 .04264909 .99909011 -77.28085 -219.08303)"><g transform="matrix(.91575 -.40174861 .40174861 .91575 -697.251692 -75.579104)"><path d="m145.6377 349.3552-.13643-1.02952.0326-.91638.0982-.64189.27727-3.3459 4.43819-.11587.33917 3.45382 4.25854-.1638.16309-3.21192 4.38324-.12062.43366 3.42296 4.61057.29195.10039-3.63978 4.67633.0683.0284 6.83111-2.88218-.006.0453 2.28952-1.77102.42641 5.87205 29.86235-22.18965-.51872 1.63964-18.63403c-1.94428.72296-.97088-2.18527.10762-2.95762l.18438-7.70242-1.55191-.18844-.17435-2.31139-2.79264-.41514z" fill="#cc0"/><path d="m504.24055 826.11078 10.54852-.0116 6.11969 27.10557-2.90404-.015c-.99618-6.41975-1.68788-12.91295-5.18969-18.51845-2.73411-3.21002-5.85253-3.89125-8.4855-3.77432-.12045-4.55011-.042-.55284-.089-4.78622z" fill="#e6e600" fill-rule="nonzero" transform="translate(-351.90277 -471.81844)"/><path d="m501.19063 843.27376c1.05161-8.25729.76091-8.36534 3.33095-8.12057 2.10112.20011 4.15719.55968 6.4321 4.47137 2.20838 5.01955 2.54954 10.0391 3.06649 15.05865l-13.2891-.81295z" fill-rule="nonzero" transform="translate(-351.90277 -471.81844)"/><g stroke="#333"><path d="m-340.78402 166.95017c.0478-1.11621.0771-2.20348.0364-3.18146l-.001-2.62655c-.039-.47832.20338-.21292.29906-.31309l3.52288.003.52058.00083c.51741-.0724.40381.27729.42369.41363l.032 2.62701c-.0242.3886.19905.47984.51215.49356l1.85586-.0135" fill="none" transform="translate(486.4505 182.52337)"/><g transform="matrix(-1 0 0 1 -180.95621 182.50686)"><g fill="none"><path d="m-335.04221 200.35532c-1.98928-.009-6.3716-.0202-15.99436-.0378-.96174.0292-.7293-.34021-.5408-1.2478l5.86358-28.34191c.17225-.54672-.23645-.38574-.41256-.46662l-.82664-.002c-.53159-.0157-.46637-.0335-.50558-.65811l-.0456-1.54175c-.15542-.57203-.016-.39158-.71816-.43671h-1.30955c-.94181.0881-.80426-.10813-.80426-.96997l.00002-5.4408c.0192-.43046.0595-.35958.55631-.36648l-.00058-.00058h3.8016c.55544-.0298.39244.31704.4354.53986l.0276 2.31725c-.0487.82539.1307.72183.437.72646l3.79966-.0221c.57976-.00001.52013-.071.53192-.63754l-.001-2.62655c-.039-.47832.20338-.21292.29906-.31309l3.52288.003.52058.00083c.51741-.0724.40381.22474.42369.41363l.032 2.62701c-.0242.30102.19905.51487.51215.49356l1.76828.004"/><path d="m-34.264175 118.40335 18.660598-3.80612" transform="matrix(.98061406 .19594916 -.19594916 .98061406 -291.165091 58.238789)"/><path d="m-346.0496 170.27485 15.00598-.0273"/></g><rect height="6.12934" ry=".513154" width="2.480245" x="-343.14716" y="171.96835"/><path d="m-345.91642 199.98215c.0311-.59498.31608-5.4577 1.63474-10.50779.50815-1.73926 1.04889-3.43679 1.75182-5.01436 1.61069-3.41577 4.01418-6.10607 7.52633-6.50125.64399-.0665 2.53337-.21202 3.78282.29371" fill="none"/><path d="m-343.17459 200.38148c.32334-6.07471 2.16332-19.09517 8.53876-19.77864.10574-.0113 1.96387-.25317 3.52417.62847" fill="none"/></g></g><path d="m150.31359 362.19471c.75154-.27671 2.89398-.50558 3.3119-.4692 3.58082.31174 4.84025 2.47066 6.62295 5.58447 1.69948 2.99719 2.82613 7.34863 3.35184 14.64888" fill="none" stroke="#e6e600" stroke-width=".8"/><g fill-rule="nonzero"><path d="m149.65891 351.44626h15.85416v.027819h-15.85416z" stroke="#e6e600" stroke-width=".70451"/><path d="m498.76149 818.70892.0416-2.3727 2.45795.0394-.0007 2.11202c-.0247.89748.16087 1.02323.71294 1.02309l2.89923-.00048c-.003 1.04957.078.18034.11252 1.33195-5.87621-.25064-6.17431.55873-6.22354-2.13328z" fill="#e6e600" transform="translate(-351.90277 -471.81844)"/><path d="m168.24086 344.42603h-2.46414l-.0366 2.19341c.0493 1.1068.0454 1.09179-1.00411 1.09708l-5.20147.0226c-.59291.0809-.88045-.32004-.8407-.90146l-.0416-2.3727-2.45795.0394.0007 2.11202c.0247.89748-.16087 1.02323-.71294 1.02309l-2.89923-.00048c.003 1.04957-.078.18034-.11252 1.33195l14.6754.051c.84428-.004 1.20463-.39088 1.09512-1.20081z" fill="#e6e600"/></g></g><path d="m-396.09835 210.37349c-1.82725.7864-.93001.1535-9.75864 3.98145-.87.41096-1.71114.61797-1.90095-.28936l-5.7315-17.06275c-1.46419.80209-2.64284-1.62146-1.21541-2.59492l-2.80453-7.00133c-.0605-.57001-.23242-.32836-.77229-.19372l-.75861.32839c-.49362.19796-.44094.15558-.72639-.40135l-.65772-1.39517c-.0248-.53156-.10186-.35259-.83281-.11347l-1.38163.51742c-.7474.34469-.60523.22224-.92854-.40429l-.62108-1.59762" fill="none" stroke="#333"/></g><g transform="matrix(.93754402 0 0 .94284391 120.30436 -396.08626)"><path d="m136.16178 343.38367 4.65511-.0614.0956 3.42034 4.71956.0248.27727-3.3459 4.43819-.11587.33917 3.45382 4.25854-.1638.16309-3.21192 4.38324-.12062.43366 3.42296 4.61057.29195.10039-3.63978 4.67633.0683.0284 6.83111-2.88218-.006.0453 2.28952-1.77102.42641 5.87205 29.86235-35.92172.10952 6.25733-30.19349-1.91676-.0461.0637-2.50935-3.17752-.0548z" fill="#e6e600"/><path d="m494.20852 826.1218 20.58055-.0226 6.11969 27.10557-2.90404-.015c-.99618-6.41975-1.68788-12.91295-5.18969-18.51845-3.70224-4.34667-8.10916-4.05662-11.06123-3.42672-5.64748 1.20504-8.9766 8.95642-10.20305 21.70523l-2.93703.0359z" fill="#fff500" fill-rule="nonzero" transform="translate(-351.90277 -471.81844)"/><path d="m497.09972 843.29339c2.89927-8.67159 4.84023-7.41881 7.42186-8.1402 2.03276-.56802 4.15719.55968 6.4321 4.47137 2.20838 5.01955 2.54954 10.0391 3.06649 15.05865l-18.78224-.0548z" fill-rule="nonzero" transform="translate(-351.90277 -471.81844)"/><g stroke="#333"><g transform="translate(486.4505 182.52337)"><g fill="none" stroke-width="1.06361"><path d="m-331.81155 200.35532c-1.98928-.009-9.60226-.0202-19.22502-.0378-1.04932.11678-.7293-.34021-.5408-1.2478l5.86358-28.34191c.0751-.58202-.22246-.37175-.39857-.45263l-.84063-.016c-.67185-.0299-.5344.0289-.55453-.65811l.003-1.54175c-.15542-.57203-.016-.39158-.71816-.43671h-1.30955c-.91384.0112-.80426-.10813-.80426-.96997l.00002-5.4408c.0192-.43046.0595-.35958.55631-.36648l-.00058-.00058h3.8016c.55544-.0298.43066.32057.4354.53986l.0276 2.31725c-.0347.56666.17286.70445.437.72646l3.79966-.0221c.66734-.00001.50261-.0885.53192-.63754l-.001-2.62655c-.039-.47832.20338-.21292.29906-.31309l3.52288.003.52058.00083c.51741-.0724.40381.27729.42369.41363l.032 2.62701c-.0242.3886.19905.47984.51215.49356l1.85586-.0135"/><path d="m-34.987702 118.5372 15.463871-3.11274" transform="matrix(.98061406 .19594916 -.19594916 .98061406 -291.165091 58.238789)"/><path d="m-346.02442 170.27485 12.52913-.0301"/></g><rect height="6.12934" ry=".513154" width="2.480245" x="-343.14716" y="171.96835"/><path d="m-345.91642 199.98215c.0311-.59498.31608-5.4577 1.63474-10.50779.50815-1.73926 1.04889-3.43679 1.75182-5.01436 1.61069-3.41577 4.01418-6.10607 7.52633-6.50125.14411-.004.63293-.0579.81428-.0499" fill="none" stroke-width="1.06361"/><path d="m-343.17459 200.38148c.3287-6.17546 2.22477-19.52896 8.85972-19.80238" fill="none" stroke-width="1.06361"/></g><g transform="matrix(-1 0 0 1 -180.95621 182.50686)"><g fill="none" stroke-width="1.06361"><path d="m-335.04221 200.35532c-1.98928-.009-6.3716-.0202-15.99436-.0378-.96174.0292-.7293-.34021-.5408-1.2478l5.86358-28.34191c.17225-.54672-.23645-.38574-.41256-.46662l-.82664-.002c-.53159-.0157-.46637-.0335-.50558-.65811l-.0456-1.54175c-.15542-.57203-.016-.39158-.71816-.43671h-1.30955c-.94181.0881-.80426-.10813-.80426-.96997l.00002-5.4408c.0192-.43046.0595-.35958.55631-.36648l-.00058-.00058h3.8016c.55544-.0298.39244.31704.4354.53986l.0276 2.31725c-.0487.82539.1307.72183.437.72646l3.79966-.0221c.57976-.00001.52013-.071.53192-.63754l-.001-2.62655c-.039-.47832.20338-.21292.29906-.31309l3.52288.003.52058.00083c.51741-.0724.40381.22474.42369.41363l.032 2.62701c-.0242.30102.19905.51487.51215.49356l1.76828.004"/><path d="m-34.264175 118.40335 13.805755-2.77428" transform="matrix(.98061406 .19594916 -.19594916 .98061406 -291.165091 58.238789)"/><path d="m-346.0496 170.27485 12.21531-.0126"/></g><rect height="6.12934" ry=".513154" width="2.480245" x="-343.14716" y="171.96835"/><path d="m-345.91642 199.98215c.0311-.59498.31608-5.4577 1.63474-10.50779.50815-1.73926 1.04889-3.43679 1.75182-5.01436 1.61069-3.41577 4.01418-6.10607 7.52633-6.50125.64399-.0665 1.59797-.10404 2.21672-.002" fill="none" stroke-width="1.06361"/><path d="m-343.17459 200.38148c.32334-6.07471 2.16332-19.09517 8.53876-19.77864.10574-.0113 1.05628-.0818 1.66441.008" fill="none" stroke-width="1.06361"/></g></g><path d="m141.85061 381.80917c.17182-1.93101.58652-5.43704 1.52688-9.03836.50815-1.73926 1.04889-3.43679 1.75182-5.01436 1.61069-3.41577 3.63087-5.668 7.14302-6.06318 4.64713-.14696 5.98535 2.13948 7.97611 5.61671 1.69948 2.99719 2.82613 7.34863 3.35184 14.64888" fill="none" stroke="#fff500" stroke-width=".8"/><g fill-rule="nonzero"><path d="m140.1114 351.38547h25.120228v.040731h-25.120228z" stroke="#fff500" stroke-width=".70451"/><path d="m489.21447 816.29729h2.46414l.0366 2.19341c-.0493 1.1068-.0454 1.09179 1.00411 1.09708l5.20147.0226c.59291.0809.88045-.32004.8407-.90146l.0416-2.3727 2.45795.0394-.0007 2.11202c-.0247.89748.16087 1.02323.71294 1.02309l2.89923-.00048c-.003 1.04957.078.18034.11252 1.33195l-14.6754.051c-.84428-.004-1.20463-.39088-1.09512-1.20081z" fill="#fff500" transform="translate(-351.90277 -471.81844)"/><path d="m168.24086 344.42603h-2.46414l-.0366 2.19341c.0493 1.1068.0454 1.09179-1.00411 1.09708l-5.20147.0226c-.59291.0809-.88045-.32004-.8407-.90146l-.0416-2.3727-2.45795.0394.0007 2.11202c.0247.89748-.16087 1.02323-.71294 1.02309l-2.89923-.00048c.003 1.04957-.078.18034-.11252 1.33195l14.6754.051c.84428-.004 1.20463-.39088 1.09512-1.20081z" fill="#fff500"/></g></g><g transform="matrix(.99909011 .04264909 -.04264909 .99909011 603.861307 -219.144952)"><g transform="matrix(.91575 -.40174861 .40174861 .91575 -697.251692 -75.579104)"><path d="m145.6377 349.3552-.13643-1.02952.0326-.91638.0982-.64189.27727-3.3459 4.43819-.11587.33917 3.45382 4.25854-.1638.16309-3.21192 4.38324-.12062.43366 3.42296 4.61057.29195.10039-3.63978 4.67633.0683.0284 6.83111-2.88218-.006.0453 2.28952-1.77102.42641 5.87205 29.86235-22.18965-.51872 1.63964-18.63403c-1.94428.72296-.97088-2.18527.10762-2.95762l.18438-7.70242-1.55191-.18844-.17435-2.31139-2.79264-.41514z" fill="#e6e600"/><path d="m504.24055 826.11078 10.54852-.0116 6.11969 27.10557-2.90404-.015c-.99618-6.41975-1.68788-12.91295-5.18969-18.51845-2.73411-3.21002-5.85253-3.89125-8.4855-3.77432-.12045-4.55011-.042-.55284-.089-4.78622z" fill="#fff500" fill-rule="nonzero" transform="translate(-351.90277 -471.81844)"/><path d="m501.19063 843.27376c1.05161-8.25729.76091-8.36534 3.33095-8.12057 2.10112.20011 4.15719.55968 6.4321 4.47137 2.20838 5.01955 2.54954 10.0391 3.06649 15.05865l-13.2891-.81295z" fill-rule="nonzero" transform="translate(-351.90277 -471.81844)"/><g stroke="#333"><path d="m-340.78402 166.95017c.0478-1.11621.0771-2.20348.0364-3.18146l-.001-2.62655c-.039-.47832.20338-.21292.29906-.31309l3.52288.003.52058.00083c.51741-.0724.40381.27729.42369.41363l.032 2.62701c-.0242.3886.19905.47984.51215.49356l1.85586-.0135" fill="none" transform="translate(486.4505 182.52337)"/><g transform="matrix(-1 0 0 1 -180.95621 182.50686)"><g fill="none"><path d="m-335.04221 200.35532c-1.98928-.009-6.3716-.0202-15.99436-.0378-.96174.0292-.7293-.34021-.5408-1.2478l5.86358-28.34191c.17225-.54672-.23645-.38574-.41256-.46662l-.82664-.002c-.53159-.0157-.46637-.0335-.50558-.65811l-.0456-1.54175c-.15542-.57203-.016-.39158-.71816-.43671h-1.30955c-.94181.0881-.80426-.10813-.80426-.96997l.00002-5.4408c.0192-.43046.0595-.35958.55631-.36648l-.00058-.00058h3.8016c.55544-.0298.39244.31704.4354.53986l.0276 2.31725c-.0487.82539.1307.72183.437.72646l3.79966-.0221c.57976-.00001.52013-.071.53192-.63754l-.001-2.62655c-.039-.47832.20338-.21292.29906-.31309l3.52288.003.52058.00083c.51741-.0724.40381.22474.42369.41363l.032 2.62701c-.0242.30102.19905.51487.51215.49356l1.76828.004"/><path d="m-34.264175 118.40335 18.660598-3.80612" transform="matrix(.98061406 .19594916 -.19594916 .98061406 -291.165091 58.238789)"/><path d="m-346.0496 170.27485 15.00598-.0273"/></g><rect height="6.12934" ry=".513154" width="2.480245" x="-343.14716" y="171.96835"/><path d="m-345.91642 199.98215c.0311-.59498.31608-5.4577 1.63474-10.50779.50815-1.73926 1.04889-3.43679 1.75182-5.01436 1.61069-3.41577 4.01418-6.10607 7.52633-6.50125.64399-.0665 2.53337-.21202 3.78282.29371" fill="none"/><path d="m-343.17459 200.38148c.32334-6.07471 2.16332-19.09517 8.53876-19.77864.10574-.0113 1.96387-.25317 3.52417.62847" fill="none"/></g></g><path d="m150.31359 362.19471c.75154-.27671 2.89398-.50558 3.3119-.4692 3.58082.31174 4.84025 2.47066 6.62295 5.58447 1.69948 2.99719 2.82613 7.34863 3.35184 14.64888" fill="none" stroke="#fff500" stroke-width=".8"/><g fill-rule="nonzero"><path d="m149.65891 351.44626h15.85416v.027819h-15.85416z" stroke="#fff500" stroke-width=".70451"/><path d="m498.76149 818.70892.0416-2.3727 2.45795.0394-.0007 2.11202c-.0247.89748.16087 1.02323.71294 1.02309l2.89923-.00048c-.003 1.04957.078.18034.11252 1.33195-5.87621-.25064-6.17431.55873-6.22354-2.13328z" fill="#fff500" transform="translate(-351.90277 -471.81844)"/><path d="m168.24086 344.42603h-2.46414l-.0366 2.19341c.0493 1.1068.0454 1.09179-1.00411 1.09708l-5.20147.0226c-.59291.0809-.88045-.32004-.8407-.90146l-.0416-2.3727-2.45795.0394.0007 2.11202c.0247.89748-.16087 1.02323-.71294 1.02309l-2.89923-.00048c.003 1.04957-.078.18034-.11252 1.33195l14.6754.051c.84428-.004 1.20463-.39088 1.09512-1.20081z" fill="#fff500"/></g></g><path d="m-396.09835 210.37349c-1.82725.7864-.93001.1535-9.75864 3.98145-.87.41096-1.71114.61797-1.90095-.28936l-5.7315-17.06275c-1.46419.80209-2.64284-1.62146-1.21541-2.59492l-2.80453-7.00133c-.0605-.57001-.23242-.32836-.77229-.19372l-.75861.32839c-.49362.19796-.44094.15558-.72639-.40135l-.65772-1.39517c-.0248-.53156-.10186-.35259-.83281-.11347l-1.38163.51742c-.7474.34469-.60523.22224-.92854-.40429l-.62108-1.59762" fill="none" stroke="#333"/></g><g transform="translate(-131.5 -121.5)"><path d="m395.74672 97.07374c-.18174.2186-3.06467 1.672471-3.34504 1.719513l-61.70575 10.354307c-.28036.0471-5.58219 2.35068-5.66461 2.07861l-1.57413-5.19613c-.0825-.27205.0642-.5582.33533-.64358l.00002-.00001c20.27572-13.810944 43.87558-13.586594 66.24398-18.56174.27753-.0617 4.312-.33519 4.31279-.05089" fill="#cc0"/><path d="m347.16272 211.65697c-.23901.15392-2.0873.98048-2.36886.94114l-61.96666-8.65703c-.28155-.0393-6.03048.56555-6.02738.28128l.0592-5.42901c.003-.28427.22887-.51315.51315-.51315h.00002c23.48768-7.08349 45.93054.2187 68.76046 2.19159.28324.0245 4.21358.97539 4.12895 1.2468" fill="none" stroke="#333" stroke-width=".8" transform="matrix(.95382933 -.30034913 .30034913 .95382933 0 0)"/><g fill-rule="nonzero"><g transform="matrix(-.2799410272 .02882806971 .03680503 .23633675 8.16855364037 -85.71457710305)"><path d="m-1261.8274 910.35719c21.3869-1.97394 43.9228-4.20441 67.0596-4.23257 69.9058.0849 132.594 10.82456 179.6413 26.31851 11.6537 4.2116 15.94773 4.24663 16.62689-2.30737.38286-1.39387.29401-2.91163-.13384-4.32944-3.40525-7.34703-13.35035-8.46044-19.77285-10.49134-28.9493-9.12566-65.1657-17.32293-103.3825-21.76607-23.4751-2.72924-47.8716-5.52481-73.8191-5.55558-23.8023.0282-45.9006 4.23508-67.812 6.31515" fill="#cc0" stroke="#333" stroke-linecap="round" stroke-linejoin="round" stroke-width="4.16553"/><path d="m-1193.8983 900.82246c74.1582.0901 131.7059 11.30208 183.2195 28.04122 3.2447 1.2626 9.8561 4.81279 10.87156 1.32569 1.01557-3.6974-.94746-7.57189-4.09306-8.83449-48.0517-17.82596-117.0705-27.67923-193.0863-29.1588-23.3025.45414-46.4108 1.90908-67.0733 4.02024 1.3385 10.37611.081-1.01948 1.0005 8.403 22.1667-2.05146 44.9643-3.76741 69.1611-3.79686z" fill="#e6e600"/><path d="m-1196.4549 895.44745c45.2634.0549 89.2097 4.99169 128.921 13.11085 25.3506 5.18304 49.3511 12.6087 67.96758 19.30836.6301-2.73761-2.70278-6.36984-7.62228-7.38408-10.2943-4.11417-36.5123-12.02212-70.4732-17.98784-15.0011-2.63515-33.0935-5.9247-50.0461-7.53583-6.5849-.62581-14.6756-1.82877-21.1491-2.35796-17.7606-1.45186-32.4421-3.0492-48.582-2.62668-23.9652.49448-45.1484 2.93134-65.9224 4.96098-1.1648 2.56229-.3956-.11541-.086 5.40487 21.15-2.05828 43.8076-4.82347 66.6529-4.85126z" fill="#fff500"/></g><g transform="matrix(-.28933234711 .02832729972 .03243671 .29279764 -.28321393098 -141.45479624423)"><path d="m-1263.5684 910.03367c21.3869-1.97394 45.6072-4.02454 68.744-4.0527 69.9058.0849 132.6506 10.96821 179.6979 26.46216 5.9048 2.46147 14.3032 4.85579 16.62689-2.30737.38286-1.39387.29401-2.91163-.13384-4.32944-3.40525-7.34703-13.35035-8.46044-19.77285-10.49134-46.7317-14.73119-108.7427-23.78636-176.9321-23.86722-23.8023.0282-47.4079.60357-69.3193 2.68364" fill="#cc0" stroke="#333" stroke-linecap="round" stroke-linejoin="round" stroke-width="3.69062"/><path d="m-1193.5811 903.23514c74.1582.0901 135.3873 10.44446 183.1666 27.6391 3.2447 1.2626 9.5918 2.80223 10.60726-.68487 1.01557-3.6974-.94746-7.57189-4.09306-8.83449-48.0517-17.82596-117.0705-27.67923-193.0863-29.1588-23.3025.45414-47.6227 1.29648-68.2852 3.40764 1.3469 11.00773.7884 3.46029 1.2589 10.86814 22.1667-2.05146 46.235-3.20727 70.4318-3.23672z" fill="#e6e600"/><path d="m-1197.2619 897.18013c45.2634.0549 90.0167 3.25901 129.728 11.37817 25.3506 5.18304 49.3511 12.6087 67.96758 19.30836.6301-2.73761-2.70278-6.36984-7.62228-7.38408-10.2943-4.11417-36.5123-12.02212-70.4732-17.98784-20.8279-3.65872-45.4039-6.0641-68.5433-7.95566-17.7606-1.45187-35.1163-2.53324-51.2562-2.11072-23.9652.49448-46.4488 1.30882-67.2228 3.33846-1.1648 2.56229-1.6804-.65837.07 4.68623 21.15-2.05828 44.5073-3.24513 67.3526-3.27292z" fill="#fff500"/></g><g transform="matrix(-.28933234711 .02832729972 .03243671 .29279764 3.93519606902 -129.93022624423)"><path d="m-1249.6014 909.36006c17.5138-1.29579 35.665-1.98761 54.263-2.01025 69.9058.0849 133.1646 9.59937 180.2119 25.09332 5.9048 2.46147 14.3032 4.85579 16.62689-2.30737.38286-1.39387.29401-2.91163-.13384-4.32944-3.40525-7.34703-13.35035-8.46044-19.77285-10.49134-46.7317-14.73119-108.7427-23.78636-176.9321-23.86722-19.3267.0229-37.4576.70091-55.5857 2.09407" fill="#cc0" stroke="#333" stroke-linecap="round" stroke-linejoin="round" stroke-width="3.69062"/><path d="m-1193.5811 903.23514c74.1582.0901 135.3873 10.44446 183.1666 27.6391 3.2447 1.2626 9.5918 2.80223 10.60726-.68487 1.01557-3.6974-.94746-7.57189-4.09306-8.83449-48.0517-17.82596-117.0705-27.67923-193.0863-29.1588-18.8031.36645-36.6983 1.28921-53.7637 2.74107.504 10.4139-.9077-1.5459.9431 10.35881 17.9428-1.30466 37.0578-2.03749 56.2261-2.06082z" fill="#e6e600"/><path d="m-1197.2619 897.18013c45.2634.0549 90.0167 3.25901 129.728 11.37817 25.3506 5.18304 49.3511 12.6087 67.96758 19.30836.6301-2.73761-2.70278-6.36984-7.62228-7.38408-10.2943-4.11417-36.5123-12.02212-70.4732-17.98784-20.8279-3.65872-45.4039-6.0641-68.5433-7.95566-17.7606-1.45187-35.1163-2.53324-51.2562-2.11072-19.2972.39816-37.1462 1.25893-54.2131 2.6388 1.0369 3.08834.1877.44411.9528 4.16325 17.2672-1.33399 35.1531-2.02801 53.4597-2.05028z" fill="#fff500"/></g><path d="m396.11387 94.283973c-.0286 1.229509-.59868-.314952-.79262.988268-12.55804.300401-24.86496 1.594687-35.31395 3.501727-12.5134 2.283812-23.73898 5.723382-34.21457 10.327472-.27339.0779-.0734.11372-.15136-.15972l-.54848-1.78029s-.11372.0231.15971-.0548c23.60713-9.868659 48.1033-12.832527 68.62037-13.093045.15503-.002 1.32497-.0038 1.47955-.0054z" fill="#e6e600"/></g><g transform="matrix(-1 0 0 1 789.5223 -.01193)"><path d="m394.27918 97.150979c-.18174.2186-1.59713 1.595232-1.8775 1.642274l-61.70575 10.354307c-.28036.0471-5.58219 2.35068-5.66461 2.07861l-1.57413-5.19613c-.0825-.27205.0642-.5582.33533-.64358l.00002-.00001c20.27572-13.810944 43.87558-13.586594 66.24398-18.56174.27753-.0617 4.312-.33519 4.31279-.05089" fill="#cc0"/><path d="m347.16272 211.65697c-.23901.15392-2.0873.98048-2.36886.94114l-61.96666-8.65703c-.28155-.0393-6.03048.56555-6.02738.28128l.0592-5.42901c.003-.28427.22887-.51315.51315-.51315h.00002c23.48768-7.08349 45.93054.2187 68.76046 2.19159.28324.0245 4.21358.97539 4.12895 1.2468" fill="none" stroke="#333" stroke-width=".8" transform="matrix(.95382933 -.30034913 .30034913 .95382933 0 0)"/><g fill-rule="nonzero"><g transform="matrix(-.2799410272 .02882806971 .03680503 .23633675 8.16855364037 -85.71457710305)"><path d="m-1261.8274 910.35719c21.3869-1.97394 43.9228-4.20441 67.0596-4.23257 69.9058.0849 132.594 10.82456 179.6413 26.31851 11.6537 4.2116 15.94773 4.24663 16.62689-2.30737.38286-1.39387.29401-2.91163-.13384-4.32944-3.40525-7.34703-13.35035-8.46044-19.77285-10.49134-28.9493-9.12566-65.1657-17.32293-103.3825-21.76607-23.4751-2.72924-47.8716-5.52481-73.8191-5.55558-23.8023.0282-45.9006 4.23508-67.812 6.31515" fill="#cc0" stroke="#333" stroke-linecap="round" stroke-linejoin="round" stroke-width="3.08558"/><path d="m-1193.8983 900.82246c74.1582.0901 131.7059 11.30208 183.2195 28.04122 3.2447 1.2626 9.8561 4.81279 10.87156 1.32569 1.01557-3.6974-.94746-7.57189-4.09306-8.83449-48.0517-17.82596-117.0705-27.67923-193.0863-29.1588-23.3025.45414-46.4108 1.90908-67.0733 4.02024 1.3385 10.37611.081-1.01948 1.0005 8.403 22.1667-2.05146 44.9643-3.76741 69.1611-3.79686z" fill="#e6e600"/><path d="m-1196.4549 895.44745c45.2634.0549 89.2097 4.99169 128.921 13.11085 25.3506 5.18304 49.3511 12.6087 67.96758 19.30836.6301-2.73761-2.70278-6.36984-7.62228-7.38408-10.2943-4.11417-36.5123-12.02212-70.4732-17.98784-15.0011-2.63515-33.0935-5.9247-50.0461-7.53583-6.5849-.62581-14.6756-1.82877-21.1491-2.35796-17.7606-1.45186-32.4421-3.0492-48.582-2.62668-23.9652.49448-45.1484 2.93134-65.9224 4.96098-1.1648 2.56229-1.628.1717-.086 5.40487 21.15-2.05828 43.8076-4.82347 66.6529-4.85126z" fill="#fff500"/></g><g transform="matrix(-.28933234711 .02832729972 .03243671 .29279764 -.28321393098 -141.45479624423)"><path d="m-1263.8619 910.13743c21.3869-1.97394 45.9007-4.1283 69.0375-4.15646 69.9058.0849 132.6506 10.96821 179.6979 26.46216 5.9048 2.46147 14.3032 4.85579 16.62689-2.30737.38286-1.39387.29401-2.91163-.13384-4.32944-3.40525-7.34703-13.35035-8.46044-19.77285-10.49134-46.7317-14.73119-108.7427-23.78636-176.9321-23.86722-23.8023.0282-48.0032.73653-69.9146 2.8166" fill="#cc0" stroke="#333" stroke-linecap="round" stroke-linejoin="round" stroke-width="3.69062"/><path d="m-1193.5811 903.23514c74.1582.0901 135.3873 10.44446 183.1666 27.6391 3.2447 1.2626 9.5918 2.80223 10.60726-.68487 1.01557-3.6974-.94746-7.57189-4.09306-8.83449-48.0517-17.82596-117.0705-27.67923-193.0863-29.1588-23.3025.45414-47.6227 1.29648-68.2852 3.40764.823 11.11899-2.5008 4.12282.6217 10.96747.4593-.0425 1.5566-.18396 2.0175-.22569 21.7838-1.97251 45.3561-3.08152 69.0515-3.11036z" fill="#e6e600"/><path d="m-1197.2619 897.18013c45.2634.0549 90.0167 3.25901 129.728 11.37817 25.3506 5.18304 49.3511 12.6087 67.96758 19.30836.6301-2.73761-2.70278-6.36984-7.62228-7.38408-10.2943-4.11417-36.5123-12.02212-70.4732-17.98784-20.8279-3.65872-45.4039-6.0641-68.5433-7.95566-17.7606-1.45187-35.1163-2.53324-51.2562-2.11072-23.9652.49448-48.1465 1.47307-68.9205 3.50271-1.1648 2.56229-.8382-.62683.9125 4.71777 21.15-2.05828 45.3625-3.44092 68.2078-3.46871z" fill="#fff500"/></g><g transform="matrix(-.28933234711 .02832729972 .03243671 .29279764 3.93519606902 -129.93022624423)"><path d="m-1249.6014 909.36006c17.5138-1.29579 35.665-1.98761 54.263-2.01025 69.9058.0849 133.1646 9.59937 180.2119 25.09332 5.9048 2.46147 14.3032 4.85579 16.62689-2.30737.38286-1.39387.29401-2.91163-.13384-4.32944-3.40525-7.34703-13.35035-8.46044-19.77285-10.49134-46.7317-14.73119-108.7427-23.78636-176.9321-23.86722-19.3267.0229-37.487.77912-55.6151 2.17228" fill="#cc0" stroke="#333" stroke-linecap="round" stroke-linejoin="round" stroke-width="3.69062"/><path d="m-1193.5811 903.23514c74.1582.0901 135.3873 10.44446 183.1666 27.6391 3.2447 1.2626 9.5918 2.80223 10.60726-.68487 1.01557-3.6974-.94746-7.57189-4.09306-8.83449-48.0517-17.82596-117.0705-27.67923-193.0863-29.1588-18.8031.36645-36.6983 1.28921-53.7637 2.74107.504 10.4139-.9077-1.5459.9431 10.35881 17.9428-1.30466 37.0578-2.03749 56.2261-2.06082z" fill="#e6e600"/><path d="m-1197.2619 897.18013c45.2634.0549 90.0167 3.25901 129.728 11.37817 25.3506 5.18304 49.3511 12.6087 67.96758 19.30836.6301-2.73761-2.70278-6.36984-7.62228-7.38408-10.2943-4.11417-36.5123-12.02212-70.4732-17.98784-20.8279-3.65872-45.4039-6.0641-68.5433-7.95566-17.7606-1.45187-35.1163-2.53324-51.2562-2.11072-19.2972.39816-37.1462 1.25893-54.2131 2.6388 1.0369 3.08834.1877.44411.9528 4.16325 17.2672-1.33399 35.1531-2.02801 53.4597-2.05028z" fill="#fff500"/></g><path d="m394.33738 94.008121c.66853 1.229509.21784-.0391.0239 1.26412-12.55804.300401-23.90499 1.594687-34.35398 3.501727-12.5134 2.283812-23.73898 5.723382-34.21457 10.327472-.27339.0779-.0734.11372-.15136-.15972l-.54848-1.78029s-.11372.0231.15971-.0548c23.78551-9.943228 48.47355-12.876924 69.08478-13.098489z" fill="#e6e600"/></g></g></g></g></g><g stroke="#000" transform="matrix(.67868739 0 0 .67868739 88.43896739895 12.07969678924)"><path d="m28.613703 63.388379v89.898381h.00052a74.984503 74.984503 0 0 0 74.984047 74.98457 74.984503 74.984503 0 0 0 74.98458-74.98457h.00051v-89.898381z" fill="#00923f" stroke-width="1.32292"/><g fill="#fff500" stroke-width="1.32292" transform="translate(-.08997)"><path d="m97.991259 101.88743-4.968375-1.66086c-.607108-2.565215-1.615091-4.974699-2.961355-7.154805l2.336888-4.684296c-1.604056-2.115405-3.49219-4.003022-5.607057-5.606541l-4.684833 2.336888c-2.17957-1.346781-4.589074-2.355818-7.15375-2.962409l-1.660864-4.967857c-1.296276-.177363-2.618879-.271452-3.964069-.271452-1.345211 0-2.667276.09425-3.96409.271452l-1.660863 4.967857c-2.564677.606591-4.974181 1.615628-7.154287 2.962409l-4.684296-2.336888c-2.115405 1.603519-4.003002 3.491136-5.606004 5.606541l2.336889 4.684296c-1.346781 2.180106-2.355818 4.58959-2.961873 7.154805l-4.968394 1.66086c-.177362 1.29576-.271452 2.61888-.271452 3.96355 0 1.3447.09365 2.6678.271452 3.96356l4.968394 1.66086c.606572 2.56521 1.615092 4.9747 2.961356 7.15482l-2.335835 4.6843c1.602982 2.1154 3.490599 4.003 5.606004 5.60652l4.684296-2.33689c2.180106 1.34678 4.58959 2.35584 7.154266 2.96241l1.660864 4.96734c1.296297.17776 2.618879.27199 3.96409.27199 1.34521 0 2.667276-.0942 3.964089-.27199l1.660844-4.96734c2.564696-.60657 4.97418-1.61563 7.153769-2.96187l4.684814 2.33635c2.114887-1.60352 4.003021-3.49112 5.606004-5.60652l-2.335835-4.6843c1.346264-2.18012 2.354247-4.58961 2.961355-7.15482l4.968394-1.66086c.177363-1.29576.271452-2.61886.271452-3.96356 0-1.34467-.09425-2.66779-.271988-3.96355zm-28.663415 23.73924c-10.921607 0-19.77569-8.85354-19.77569-19.77569 0-10.92212 8.854083-19.775685 19.77569-19.775685s19.775669 8.853565 19.775669 19.775685c0 10.92215-8.854062 19.77569-19.775669 19.77569z"/><path d="m67.140896 93.367257v10.296013h-10.296011v4.37493h10.296011v10.29653h4.374928v-10.29653h10.296011v-4.37493h-10.296011v-10.296013z"/></g><path d="m605.30859 239.57812c-57.40025 33.5883-124.52777 68.16782-151.14843 127.14454-22.17694 49.13188-34.65572 96.68146-87.54297 134.27343-76.71768 54.53053-150.31483 60.74506-236.50391 187.66211 17.69875 42.24013 45.37067 79.56181 80.64649 108.76953 3.4506-4.64643 49.09947-59.67916 70.85351-89.98437 54.03197-75.2711 154.46703-101.50903 201.56055-147.8125 41.93835-42.51885 64.56629-92.07955 88.42383-141.83789 23.9144-49.87694 70.01588-57.39126 103.36328-84.88086v-93.33399z" fill="#dededd" stroke-width="5.00001" transform="scale(.26458333)"/><path d="m97.079192 192.83256c14.784308-8.99539 23.107238-15.13309 34.362968-25.06831l-1.66338-2.68035c5.56508-4.66987 10.35777-10.11214 14.70602-15.99885l1.93926 1.13123c5.02409-6.05702 9.01343-2.29455 8.08022 1.77765l-1.77765 7.75702 4.84813-.32321 10.45696 6.36952c-4.8092 16.81279-16.38041 25.53713-22.09248 30.79953l-4.52493-14.3828c5.06558-12.81743-5.76653-10.61827-7.11061-5.49456l-3.7169-1.77765c-10.43739 13.11889-21.12645 20.6321-28.99416 27.01569-4.801258 3.1804-12.317688-4.37648-4.513448-9.12491z" fill="#fff500" stroke-width="1.32292"/></g><g stroke="#000" stroke-width="1.32292" transform="matrix(.68636972404 0 0 .68636972404 8.19974311855 -80.41493793115)"><path d="m142.7842 280.69571c-.97642-2.95757-2.73823-5.44733-4.61483-7.92353-1.15459.6886.25509 3.31811.58867 4.78022 1.92065 17.20949-9.73058 19.58593-16.07159 31.66142-3.0654 6.05335-1.48973 20.63559 3.51068 29.68431-1.21897.95451-1.97385 2.27476-2.88356 3.49332-3.92837 6.60665-.18122 14.36603-2.39956 21.83641-.48432 1.63096-1.18437 2.97891-1.17548 4.67197-.0881 1.92529 1.49052 3.15762 2.44697 4.4912 12.35098 11.54862 21.61769 10.33919 36.70098 8.18079 1.6126-.37398 1.3011-5.91965 1.3011-5.91965l3.82701.68552s-1.81337 6.31433-2.44586 7.32908c-.91523 2.19006 1.17153 4.06145 2.72497 5.55315 8.5497 6.79478 22.29236 7.70817 32.24712 5.46293 17.67922-4.26181 37.0068-2.62224 51.33434.44204 4.28376.91618 8.92465.58567 13.30103.12454 5.49675-.57918 10.40045-2.06209 14.56396-5.22859 1.16345-.88484 2.71937-1.80231 2.6139-3.75488-.68682-2.54528-2.80996-9.03594-2.80996-9.03594l3.31549-1.04233s-.10799 5.07537.7917 7.13758c3.65135.88331 7.28007 1.61575 11.12401 1.72791 8.2453.24058 16.51777-1.26043 23.64959-7.20058 1.47917-1.23202 3.43621-2.40596 3.97066-4.27027 1.40532-4.90216-.26426-10.75102-1.00452-15.98488-1.06994-7.5648-3.80652-14.882-6.57167-15.60901 17.90093-17.73968-2.32339-42.29056-10.47205-54.68365-2.0316-4.66162-.97467-10.79506-.42309-15.65315.64108-3.33576-.97371-.0396-1.58607.81632-.81825 1.14373-1.46717 2.51992-1.84981 3.71406-2.16914 11.367-3.67165 22.75423-5.84078 34.12124 4.76688 6.76204 12.12435 13.15691 11.56532 21.53865-9.12367 8.10321-8.94788 30.23824-8.94788 30.23824l-4.90717.46087s.97516-8.98851 1.31246-10.70222c.57522-2.92249-1.5973-5.78634-4.11358-7.43091-2.38234-1.55702-5.41917-.94735-7.44813-.17663-9.66377 3.67089-19.30536 11.78659-28.65797 13.67806-1.60861.32533-4.18838-.033-4.63555 1.65086-.4534 1.70727-.16276 7.6257-.16276 7.6257s-1.99865-.59508-4.31886-.9683c-12.84702-2.0665-28.8153-3.04008-39.89681-.3166-1.99945.4914-5.31234 1.6125-5.31234 1.6125s.15132-3.04006.23246-3.93986c.13593-1.50735-.0897-3.61649-2.97193-3.95306-12.41224-1.44941-20.81485-9.7883-30.7604-14.52359-1.78541-.85007-3.84036-2.58353-5.86992-1.52622-1.60185.83449-2.91849 1.48059-3.92239 2.73989-1.78749 2.24225-.088 11.29882-.75937 14.18937-.51581.35065-8.6636-.52925-8.73289-1.15287-.0229.0535.5013-4.31699 1.07337-6.71943.96461-4.05099 1.20775-7.72865-.74174-13.67469-.49756-9.65461 3.80849-19.66984 6.3184-27.49753-2.06855-10.25326-4.13712-20.50656-6.20568-30.75982z" style="clip-rule:evenodd;fill:#da251d;fill-rule:evenodd;image-rendering:optimizeQuality;shape-rendering:geometricPrecision;text-rendering:geometricPrecision"/><g fill="none"><path d="m124.21639 306.47731c-1.12056 17.28682 7.10387 27.85502 17.55083 33.4584 3.90576 2.09491 2.64004 13.78943-1.84914 13.0658-6.28004-1.01231-9.80282-16.88565-13.81719-13.89798-4.56507 3.39752 5.65897 24.52284 30.30086 21.17019 4.25976-.57956 5.93711-5.74278-2.587-8.81901-.78846-.28454-3.20687-1.52254-2.46185-4.22294"/><path d="m195.3918 363.60999c-.12989 1.63845-6.34483 6.36986-9.21394 4.57693-9.64656-6.02821-14.21656-7.06524-16.26452-5.82621-2.42145 1.465-3.42038 5.24741 1.87232 7.47134 6.42803 2.70099 22.87724-1.77091 26.75999-3.43626"/><path d="m168.14719 364.3371-6.57846 19.32967"/><path d="m245.11552 359.28904c-1.77761 1.22162 2.42427 6.26998 4.97657 4.65526 9.61294-6.08168 17.19845-4.92319 18.96446-3.30747 2.95047 2.69938 3.42038 5.24741-1.87232 7.47134-6.42803 2.70098-20.67946-.32529-28.11919-2.10086"/><path d="m271.09572 363.61072 4.44837 13.6193"/><path d="m312.77275 306.86454c6.17765 17.1234-10.58808 22.3937-15.27115 31.51491-2.61045 5.08436-4.45537 15.01231-1.31294 14.44686 6.26056-1.12653 11.00714-12.84761 15.34194-10.34744 7.70567 4.44439-5.35536 23.02918-29.99725 19.67654-2.64309-.3596-4.90313-6.60907-1.87094-8.67485 2.3067-1.57151 10.17382.0993 8.88236-6.19353"/><path d="m159.87099 356.9092.31659 18.74297"/></g><path d="m142.7842 280.69567c1.34497 9.89827 3.4738 18.0189 1.75859 27.91717 3.56267.26424 3.93034 2.11213 4.44708 2.84265"/><path d="m278.19441 356.76433.66517 19.42336" fill="none"/><path d="m296.48832 276.18201c-1.14345 9.17365-2.99958 17.58032-2.0956 27.98243-2.04775.66976-3.16117 3.23356-3.74517 6.13882"/></g><g fill="#fff" stroke-width=".264583"><g transform="matrix(.67868739 0 0 .67868739 83.51878380127 11.71452225217)"><path d="m23.813709 231.26989-5.595058 7.03557-1.944101-1.54605 3.666245-4.61016q-.757063-.0166-1.37699-.1476-.615208-.12721-1.441904-.45341l1.253353-1.57605q1.232909.46438 2.128299.45237.89539-.012 1.719957-.41928z"/><path d="m24.157685 236.16223q-.416851-.50573-.516399-.95819-.135537-.6175.123114-1.24124.424926-1.0247 1.658572-1.27676.959667-.18945 2.196.32323 1.637304.67896 2.158322 1.62601.526588.94936.133993 1.8961-.228629.55133-.739103.90095-.381702.25942-1.02148.38572.531084.59226.637007 1.24969.111493.65975-.151776 1.29462-.254032.6126-.759755 1.02945-.497845.41359-1.030043.53229-.52663.12101-1.194652.00063-.664762-.11249-1.355326-.39886-1.297592-.53808-1.855571-1.12844-.557979-.59035-.667295-1.33404-.109316-.74369.195522-1.47881.297911-.7184.837589-1.07549.541989-.36265 1.351281-.34686zm1.684241-1.18128q-.175513.42325-.02231.79354.161083.36703.601039.54947.389835.16165.746674.009.35684-.15225.525425-.5588.175513-.42324.02231-.79353-.150895-.37586-.557437-.54444-.412111-.1709-.782397-.0177-.362409.14994-.533303.56205zm-1.579739 3.46328q-.22401.5402-.03862 1.02173.187702.47597.610951.65148.406542.16859.872729-.0427.468497-.21691.690197-.75154.22401-.5402.03862-1.02173-.179824-.47923-.608642-.65705-.423249-.17552-.879248.027-.450431.20482-.685987.77287z"/><path d="m37.585715 238.04615-2.448356-.24157q.01831-.52113-.158913-.77726-.171343-.25481-.494854-.32756-.582322-.13094-1.038098.38452-.330512.3706-.754414 1.73363.527264-.33872 1.026473-.44274.500532-.10991 1.094618.0237 1.152879.25924 1.761783 1.26128.614787 1.00337.330419 2.268-.191783.8529-.75636 1.46748-.558696.6159-1.358308.81923-.792407.19876-1.868819-.0433-1.294048-.29098-1.97716-.90805-.683113-.61706-.936762-1.68752-.246445-1.07503.111991-2.66906.525088-2.33517 1.750754-3.19658 1.226989-.8673 2.968071-.47579 1.029356.23146 1.569213.60621.547062.37019.837993.9176.29093.54742.340729 1.28779zm-5.275211 2.84899q-.157394.69996.105588 1.1793.264305.47345.776042.58852.470563.10582.868874-.18157.398311-.28738.558351-.9991.164007-.72938-.07942-1.18578-.243422-.4564-.731631-.56618-.499973-.11242-.924457.18143-.418603.29518-.573352.98338z"/><path d="m38.039403 240.54891q.173834-2.51408 1.145466-3.45613.977647-.94163 2.830127-.81354.890153.0615 1.446147.32359.556411.25603.892747.63584.336753.3738.514216.77888.183893.39949.274434.92547.178393 1.00344.104368 2.07403-.165932 2.3998-1.054832 3.45635-.8889 1.05655-2.8737.91931-1.112691-.0769-1.773813-.4792-.661122-.40227-1.052774-1.11829-.285086-.50921-.4073-1.36373-.115784-.86011-.04509-1.88258zm2.42946.17402q-.116443 1.68408.135435 2.32395.258308.63428.823676.67337.372901.0258.661438-.21412.294968-.24551.460365-.80215.171412-.55622.25417-1.75311.121435-1.75625-.137706-2.3785-.25271-.62784-.84815-.66902-.607469-.042-.920958.55879-.313073.59477-.42827 2.26079z"/></g><g transform="matrix(.67868739 0 0 .67868739 81.84916734982 11.559413)"><path d="m65.5859 244.27799 7.281214.57148q1.820304.14287 2.719798 1.12059.908081.9784.803623 2.30928-.08761 1.11622-.845779 1.86016-.505445.49596-1.422685.73498 1.331032.43276 1.903746 1.28116.581974.84049.487625 2.04258-.07683.97884-.59323 1.72448-.516403.74564-1.342064 1.13871-.511661.24494-1.509198.29623-1.327188.0686-1.756505.0349l-6.714516-.527zm3.53645 5.24512 1.691509.13277q.910152.0714 1.286453-.21005.385561-.28939.432062-.88184.04313-.54953-.293234-.88694-.327779-.33674-1.212171-.40616l-1.717268-.13478zm-.388179 4.94573 1.983444.15568q1.004601.0789 1.444376-.24084.440449-.32828.487624-.92933.04381-.55811-.342056-.92532-.376601-.37513-1.398375-.45533l-1.974858-.155z"/><path d="m78.870422 257.95879-.506581-12.61612 6.497386-.26089q1.80722-.0726 2.774905.19889.967685.27145 1.586744 1.09132.618714.81127.667091 2.01608.04216 1.04991-.37459 1.83379-.417093.77528-1.181217 1.28005-.487042.32124-1.348281.55408.7064.20437 1.034145.42394.221365.14626.646226.63776.433467.49116.582217.76102l2.031533 3.58179-4.406175.17692-2.237414-3.77177q-.42593-.73281-.744724-.94413-.433433-.27566-.966993-.25424l-.344233.0138.205605 5.12045zm3.614321-7.66149 1.64371-.066q.26678-.0107 1.025786-.21359.384151-.093.612328-.42109.236783-.32844.220197-.74151-.02453-.61102-.424927-.92249-.400392-.31147-1.467513-.26862l-1.712556.0688z"/><path d="m99.324168 243.22772 3.865052-.46532.89976 7.47357q.13383 1.11163-.0973 2.14576-.22365 1.02454-.87803 1.85804-.64685.82392-1.42316 1.22101-1.07829.55489-2.660222.74534-.914957.11015-2.016376.11263-1.092867.001-1.864999-.28729-.773161-.29729-1.464698-.92538-.682987-.62912-.994877-1.34629-.503268-1.1539-.614451-2.07741l-.899759-7.47357 3.865051-.46532.921378 7.65314q.123536 1.02612.757906 1.53965.641892.50394 1.650909.38246 1.000467-.12045 1.496888-.75276.50394-.64189.37835-1.68511z"/><path d="m106.89513 251.00941 3.69222-.44856q.17309.89577.57043 1.34708.64655.73008 1.7643.6648.83402-.0487 1.25852-.46172.43261-.42213.40248-.93801-.0286-.4901-.48112-.8519-.4525-.36181-2.03744-.61435-2.59587-.42645-3.74356-1.31707-1.15629-.89012-1.24266-2.36899-.0567-.97158.45193-1.86403.51676-.90155 1.61449-1.45742 1.10583-.56496 3.07479-.67995 2.41607-.14109 3.73271.6879 1.32474.81989 1.67996 2.7662l-3.65883.42935q-.19588-.84268-.69137-1.20197-.48689-.3598-1.31231-.3116-.67925.0397-1.0061.35208-.32735.30383-.30325.71653.0176.30094.31537.52512.2897.23327 1.33402.38797 2.58577.40115 3.71947.90436 1.14179.4941 1.68918 1.299.556.80439.61625 1.83616.0708 1.21233-.5401 2.27467-.6109 1.06234-1.78351 1.66571-1.1731.59478-3.0045.70173-3.21568.18779-4.52611-.97803-1.31043-1.16583-1.58526-3.06506z"/><path d="m132.37704 253.02084q.70238.54848.9187.69005.32472.20805.87823.48936l-1.2064 2.12321q-.79466-.44153-1.56341-1.03688-.76924-.58674-1.07192-.87982-1.32132.48636-3.26473.377-2.87211-.16163-4.44755-1.75127-1.86092-1.88175-1.68043-5.08923.17518-3.11289 1.98318-4.73642 1.8171-1.63165 4.89559-1.45841 3.13868.17662 4.74647 1.95786 1.61639 1.78173 1.43976 4.92042-.15726 2.79472-1.62749 4.39413zm-2.87163-2.16292q.51129-.80798.60468-2.46762.10742-1.90901-.56033-2.76609-.65916-.8566-1.90604-.92676-1.16088-.0653-1.93015.72814-.76926.79347-.86895 2.56489-.11613 2.0638.54206 2.93759.65819.8738 1.88787.943.39556.0223.75248-.0353-.46354-.50053-1.49752-.98141l.68941-1.3673q.51063.12362.78666.27718.28463.15404 1.08584.78572.19003.14871.41399.30796z"/><path d="m145.02156 243.6305 3.88841.18827-.36407 7.51873q-.0541 1.11835-.45518 2.09918-.39201.97265-1.17668 1.68484-.77565.70401-1.60748.96553-1.15597.36654-2.74746.28948-.92048-.0446-2.00677-.22651-1.07769-.18153-1.79059-.59545-.71248-.42253-1.28911-1.15752-.56803-.73458-.75546-1.49384-.303-1.22187-.25801-2.15095l.36406-7.51873 3.8884.18828-.37281 7.69938q-.05 1.03232.48947 1.64479.54847.60429 1.56358.65344 1.00652.0487 1.60178-.49154.60429-.54847.65511-1.598z"/><path d="m150.20882 243.62307 10.40747-1.00494.2591 2.68331-6.51538.62912.19287 1.99748 6.04388-.58359.2475 2.56329-6.04387.58359.23923 2.47756 6.70399-.64733.27482 2.84619-10.59607 1.02315z"/></g><g transform="matrix(.67868739 0 0 .67868739 82.433017 11.559413)"><path d="m184.03344 238.17389.0702 8.98882-2.48383.0194-.046-5.89006q-.59929.46289-1.16378.75067-.55846.28773-1.40648.5536l-.0157-2.01359q1.25081-.41372 1.93969-.98584.68888-.57211 1.07424-1.40714z"/><path d="m188.02379 242.07745q-.6198-.21299-.94131-.54655-.4385-.45541-.5443-1.12231-.17381-1.09561.74579-1.9557.71883-.66343 2.04072-.87314 1.7506-.27771 2.69002.25694.94538.5337 1.10596 1.54596.0935.58949-.15869 1.15447-.18963.42076-.66885.86304.76242.22699 1.19657.73192.44011.50399.5478 1.18279.1039.65499-.10909 1.27479-.20798.61291-.59949.99244-.38555.37859-1.01787.6254-.62542.25183-1.36377.36896-1.38739.2201-2.17174.009-.78435-.21131-1.26651-.78798-.48216-.57667-.60685-1.36266-.12185-.76812.15134-1.35474.27225-.59258.97027-1.00243zm.81761-1.88774q.0718.45254.39605.688.32927.22856.79967.15393.41681-.0661.64131-.38253.22449-.31641.15554-.75109-.0718-.45254-.39605-.688-.3252-.24141-.75988-.17246-.44063.0699-.67609.39416-.23045.31736-.16055.75799zm.46506 3.77803q.0916.57759.50151.89103.40893.30749.86147.23569.43468-.069.72147-.49292.28584-.42991.19516-1.00154-.0916-.57758-.50151-.89103-.40392-.31438-.86241-.24165-.45254.0718-.73527.48291-.27677.41016-.18042 1.01751z"/><path d="m195.98657 240.54409q-.64321-.1257-1.00755-.41187-.49699-.39075-.69353-1.03675-.32288-1.06129.46965-2.03971.62073-.75601 1.9012-1.14557 1.69575-.51592 2.69979-.11559 1.00981.39858 1.30813 1.37912.17372.57101.002 1.16532-.12995.44285-.54377.94685.7864.11995 1.28589.56035.50526.43865.70531 1.09618.19303.63447.0673 1.27768-.12169.63569-.45726 1.06547-.32981.42804-.92216.75949-.58483.33547-1.30004.55307-1.34392.40887-2.14988.30748-.80596-.10139-1.36287-.60625-.55691-.50485-.78854-1.26621-.22637-.74406-.0365-1.36269.18814-.6244.82314-1.12637zm.55014-1.98228q.13336.43836.48693.62697.35758.18109.81324.0425.40375-.12284.58258-.46713.17884-.34429.0507-.76534-.13336-.43836-.48693-.62698-.35532-.19438-.77637-.0663-.42683.12986-.61544.48342-.1846.34605-.0547.77287zm.98038 3.67813q.17022.55949.61932.81356.44735.24831.88571.11494.42105-.1281.64679-.58748.22399-.46516.0555-1.01887-.17022-.55949-.61932-.81356-.44334-.25583-.88746-.12071-.43836.13336-.66184.57946-.21772.44434-.0387 1.03266z"/><path d="m205.39781 232.37205 3.93671 8.08123-2.23305 1.08781-2.57958-5.29535q-.34134.67596-.72672 1.17889-.37997.50029-1.03066 1.10563l-.88186-1.81028q.95046-.91233 1.32557-1.72544.37511-.81312.36305-1.7327z"/></g></g></svg>