<svg enable-background="new 0 0 287 287.5" viewBox="0 0 287 287.5" xmlns="http://www.w3.org/2000/svg"><path d="m153.7 25.2c.1-.4.1-.6.1-.6l.4-1.6 1.5-.8s6.8-3.9 11.1 3.1c.8 1.3.9 3 .5 5-.1.3-.1.7-.2 1 .9.3 1.8.7 2.6 1 2 .8 3.9 1.7 5.9 2.7 8.8 4.5 16.7 10.9 22.9 18.8 7.6-4.4 15.1-9 21.6-14.5 7.1-6 12.9-13.2 16-22.6l3.1-9 4.1 8.6c3.4 7.2 4.6 14.4 4.6 21.7-.1 6.8-1.2 13.6-2.9 20.3 4.5 16.6 5.9 20.8 7 24.3 1.2 3.7 2.2 6.7 6.1 21.7l.7 2.5-2.1 1.5c-18.9 13.9-16.8 25.6-14.1 40.1 2.5 13.5 5.3 29.1-4.4 50.3 1.9 0 3.9 0 5.9.2 4.3.4 8.7 1.2 13.6 2.9l4.9 1.6-3 4.2c-2.9 4.1-4.8 6.7-6.3 8.9-4.3 5.9-6.1 8.5-6.2 10 0 1 .8 2.7 2.2 5.6 2.1 4.2 5.2 10.5 8.8 21.6l2.7 8.3-8-3.6c-.1 0-31.1-14.3-51.7-7.2-10.1 3.5-16.3 9.3-25.2 15.4s-19.2 12.4-30.8 19.1l-2.1 1.3-1.8-1.5c-11.5-6.6-21.6-12.8-30.4-18.9-8.8-6-15-11.8-25.1-15.3-20.6-7.1-51.6 7.2-51.7 7.2l-8 3.6 2.7-8.3c3.6-11.1 6.7-17.4 8.8-21.6 1.4-2.9 2.2-4.5 2.2-5.6-.1-1.5-1.9-4.1-6.2-10-1.6-2.2-3.5-4.8-6.3-8.9l-3-4.3 4.9-1.6c5-1.6 9.4-2.5 13.6-2.8 2-.2 3.9-.2 5.8-.2-9.7-21.2-6.9-36.9-4.4-50.4 2.6-14.5 4.8-26.2-14.1-40.1l-2.1-1.6.7-2.5c2.4-8.8 4.7-16.7 7-24.6 1.3-4.5 2.6-9 4-13.8l-.4-1.5c-4.8-18.1-9.6-36.2-.2-55.8l3.9-8.1 3.1 8.5c2.9 7.7 7 14.5 12.9 21.2 6 6.7 14 13.3 24.8 20.3 1.2.8 2.5 1.6 3.7 2.4l1.3.8c.7-.9 1.4-1.7 2.1-2.5 1.5-1.7 3.1-3.3 4.7-4.8 6.9-6.4 14.9-11.3 23.7-14.6-1.2-.9-2.7-1.6-4.4-2.1l-8.9-2.4 7.9-4.7c1.7-1 3.9-1.9 6.3-2.5 5.8-1.5 13.4-1.8 20.2-.5 5.1.9 9.9 2.8 13.4 5.7z" fill="#fff"/><g clip-rule="evenodd" fill-rule="evenodd"><path d="m193.3 61.3c-1.4.8-2.8 1.6-4.2 2.5-6.7-10.7-17-18.6-28.8-22.5.4-1.4 1-3.1 1.5-4.8 12.9 4.4 24.1 13.2 31.5 24.8zm-39.2-21.6c-1.2-.2-2.4-.4-3.6-.6-1.2-1.9-2.8-3.9-5.2-5.5h1c2.3.1 4.6.4 6.9.8.7 1.7.9 3.5.9 5.3zm-8-.9c-4-.2-7.9.1-11.7.8-1.4-1.4-2.6-3-3.8-4.5 3.5-.8 7.2-1.3 10.8-1.5 1.8 1.4 3.5 3.1 4.7 5.2zm-14.5 1.4c-13.7 3.3-25.6 11.8-33 23.8-1.6-1-3.2-1.9-4.7-2.8 8-12.4 20.2-21.5 34.2-25.4 1.1 1.4 2.2 3 3.5 4.4zm-28.9 26.3c4.6-8.3 11.4-15.5 19.8-18.7-7.2 4.2-12.2 11.2-16.5 20.8l-1.1-.7zm-46.2 10.9 73.8 27.9 5.7 5c1.8 1.2 1.3 2.2-1 2.1-21.5-14.5-40.8-17.4-65.7-23.1-4.7-1.1-5.8-2.5-7.8-5.1-.9-1.3-3.9-5.6-5-6.8zm151.2 147.3.4-2.7 2.6.4-.4 2.7zm-10.1-5.9 1.1-9c.2-1.4.7-2.4 1.5-3.1s1.9-1 3.3-.8c1.2.2 2.2.7 2.8 1.6s.9 2 .7 3.4l-.2 1.7-2.8-.3.2-1.9c.1-.6 0-1.1-.2-1.4s-.5-.5-1-.6-.8.1-1.1.3c-.3.3-.4.7-.5 1.3l-1.2 9.8c-.1.6 0 1.1.2 1.4s.5.5 1 .6.8-.1 1.1-.3c.3-.3.4-.7.5-1.3l.3-2.4 2.8.3-.2 1.8c-.2 1.5-.7 2.7-1.5 3.4s-1.9 1-3.2.9c-1.4-.2-2.3-.7-2.9-1.6-.7-.9-.9-2.2-.7-3.8zm-5.4 4 .2-2.8 2.6.2-.2 2.8zm-6.1-.7 1.5-17.6 7.1.6-.2 2.5-4.4-.4-.4 4.6 3.1.3-.2 2.5-3.1-.3-.7 7.9zm-15.2-18.7 2.8.1-.7 13.7c0 .5.1.9.3 1.2.3.3.6.5 1 .5s.8-.1 1-.4c.3-.3.4-.7.4-1.2l.7-13.7 2.8.1-.7 13.2c-.1 1.6-.5 2.7-1.3 3.5s-1.8 1.2-3.2 1.1-2.4-.5-3.1-1.4-1-2.1-.9-3.7zm-11.3 12.8.3-9c0-1.4.5-2.5 1.2-3.2.8-.8 1.8-1.1 3.2-1.1 1.3 0 2.2.5 3 1.3.7.8 1 2 1 3.4l-.1 1.7-2.8-.1.1-1.9c0-.6-.1-1.1-.3-1.4s-.6-.5-1-.5c-.5 0-.8.1-1.1.4-.2.3-.4.8-.4 1.4l-.3 9.9c0 .6.1 1.1.3 1.4s.6.5 1 .5c.5 0 .8-.1 1.1-.4.2-.3.4-.8.4-1.4l.1-2.4 2.8.1-.1 1.8c-.1 1.5-.5 2.7-1.2 3.5-.8.8-1.8 1.2-3.2 1.1-1.4 0-2.4-.5-3.1-1.4-.6-.8-.9-2.1-.9-3.7zm1.3 7.5c.3.1.6.1.8.2.3 0 .5.1.8.1s.5 0 .7-.1.3-.3.3-.4c0-.2-.1-.4-.3-.6-.2-.1-.6-.2-1-.2h-.1l.8-1.7h.8l-.5.9h.2c.8 0 1.4.2 1.8.5s.6.7.6 1.2-.3.9-.8 1.2-1.2.4-2.2.3c-.3 0-.7 0-1-.1-.3 0-.7-.1-1-.2zm-12-3.2 3.2-17.6 3.6.1 2.6 17.7h-2.8l-.5-3.8h-2.8l-.7 3.8zm3.7-6.3h2.1l-.8-7.4h-.2zm-13.5-11.4h2.8v13.7c0 .5.1.9.4 1.2s.6.5 1 .5.8-.2 1-.5.4-.7.4-1.2v-13.7h2.8v13.2c0 1.6-.4 2.7-1.1 3.6-.7.8-1.8 1.3-3.1 1.3-1.4 0-2.4-.4-3.1-1.3-.7-.8-1.1-2.1-1.1-3.7zm-10.6 13.4-.2-9.1c0-1.4.3-2.5 1.1-3.3.7-.8 1.8-1.2 3.1-1.2s2.3.3 3 1.1 1 1.9 1.1 3.4v1.6h-2.6v-1.9c0-.6-.1-1.1-.4-1.4-.2-.3-.6-.4-1.1-.4s-.8.2-1 .5-.3.8-.3 1.4l.2 9.9c0 .6.1 1.1.4 1.4.2.3.6.5 1.1.4.5 0 .8-.2 1-.5s.3-.8.3-1.4v-2.8h-1.7v-2.2l4.3-.1.2 8.9h-1.3l-.5-1.2c-.3.6-.6 1-1.1 1.2-.4.3-.9.4-1.5.4-1.2 0-2.2-.4-2.8-1.2-.9-.7-1.3-1.9-1.3-3.5zm-5.1 4.5-.3-17.7h2.8l.3 17.7zm-16 1 2-17.8 3.6-.2 3.8 17.5-2.8.1-.7-3.8-2.7.1-.4 3.9zm3.2-6.5 2.1-.1-1.3-7.3h-.2zm-14-10.4 2.7-.2 2.4 10.3c.1.7.3 1.3.4 1.9s.1 1.2.2 1.8v.3c0-.8 0-1.5 0-2.2s0-1.3.1-1.8l.8-10.5 2.7-.2-1.9 17.8-2.8.2zm-3.3 14.1-1-9.8c-.1-.6-.2-1-.5-1.3s-.6-.4-1.1-.3c-.5 0-.8.2-1 .6-.2.3-.3.8-.2 1.4l1 9.8c.1.6.2 1.1.5 1.3.3.3.6.4 1.1.4s.8-.2 1-.6.3-.9.2-1.5zm-6.6-9.1c-.1-1.4.1-2.5.8-3.4s1.7-1.4 3-1.5 2.3.2 3.1.9 1.3 1.8 1.4 3.2l.9 9c.2 1.5-.1 2.8-.7 3.7s-1.6 1.4-3 1.6c-1.4.1-2.4-.2-3.2-.9-.8-.8-1.3-1.9-1.4-3.5zm-9.4 15.2-2.5-17.5 2.4-.3 4.9 10c.1.2.2.4.3.8.1.3.3.7.4 1-.2-.5-.3-1-.4-1.4s-.2-.7-.2-.9l-1.4-10 2.5-.4 2.5 17.5-2.5.4-4.7-9.2s-.1-.1-.1-.2c-.3-.6-.6-1.2-.7-1.6.2.6.3 1.1.4 1.5s.2.7.2.9l1.3 9.1zm63.6-38.5-9.6-23.2 6.9-6 .2 12.9 4.3 12.5zm60.5 1.4-.6-4.1-14.7-14.8 8.9 13.4zm-33.8-90.9c8.2-6.5 29.9-6.2 45.2-3.5 3.2.6 2.8.5 4.5-1.7l4.4-6c.1-.1-36.6 2.3-49.7 7.8 12.4-7.9 33.7-12.9 51.9-14.9 3.9-.4 4.7-.4 5.8-3.8l2.3-7c-.5-.4-59.7 13.7-64.6 29.1l.2-.2zm63.8-35c-32.3 11.8-58.3 20.6-66.2 32.5l-.8-.4c7.5-22.9 60-35.9 75-65.1 1.7 8.9-1.8 22.9-4.2 29.3-.9 2.4-1.3 2.7-3.8 3.7zm-136 91.5-11 7.4-2.1 12.9 8.6-12.2 13-7.7-1.5-7.6 17.4-18.1 13.6 4.8-3.5 16.6 25-20.2c.1 0 .1.1.1.1 2.9-2 4.5-3.5 5.4-4.6l3.5-2.8 17.8-6-2 8.8 1.1 1.6 6.5-6.2-.3 17 2.9 4.1 8-.3 2.1-5.4-3.1 3-3.7-.7v-3.4l-2.3 2.9-2.2-1.4 1.5-10.6 6-3.3-2.9 3.4-.7 6.1 2.8-3.7 5-.4 1.7-2.9-.8-1.9-2.9-3.3 1.2-1.4 5.1 1.2-4.3-7.9 3.7 2.4 2.1-.7-5.5-4.3-11.7-2.1-2.5 2.6-4.7-7.6-4.6 6.8 4.2 3-20.6 8.1-.2.1c-2.8-7.1-8.8-13.6-16.6-19.9-29-23.5-83.6-44-100.8-77.1-.8 9.6.3 19.8 1.5 24.2 1.1 4 3.7 5 7.4 6.9l83.8 44.3c12.2 6.5 1.5 17 7.9 26.3l-29.7.9-9.8 5.1-3.8 5.8zm106.6-46.3 4.9-1.2v5.2zm3.2 22.3-3.8 3.9 2.3-5.1-.7-.6.7-3.6 3.7-3.8-2.3-4 1.3-2 3.8 5.5-1.4 1.8-1.1 7.8zm-6.6-14.2c-2.7-1.6-2.7.5-6-.1-1.1-.2-4.1-3.1-4.8-4.4l2.9 1.2c.9-.8 2.6-.7 4.3-.2 1.6.5 3.9 2.1 3.6 3.5zm-150.2-54.8 78.7 38.3 1.5 2.3c-21.9-12-40.4-18.2-67.3-27.5-2.2-.8-10.2-3-11.1-6.2zm180.1 137.1c.8-1.4 1.5-2.8 2.2-4.2 3.1-6.6 5.1-13.3 5.9-20.4.8-6.7.6-13.7-.6-21.2-2.3-14.3-6.4-25.8 1.9-37.6 2.7-4 6.6-7.6 11.7-11.2l-10.4-37.5c-1 3.4-2 6.8-3 10.1l6.9 23.8c-36.6 33.1 6.8 52.3-23.3 100.3v-.1h-.1l-.5 8.8c-2.4 34.2-1.6 20.1-2.2 28.7h-.2l-8.3 5.1c3.7-.9 7.8-1.9 12.2-1l4.2-36.8c.1-.7 0-.7.4-1.2 1-1.8 2.1-3.7 3.2-5.6zm-178.3-120.2c-1.3-1.9-2.7-3.8-4.2-5.7l-8.7 31.3c.5.4 1.1.8 1.6 1.2.2.2.5.3.7.5l.2.2c10.5 8.2 13.8 15.9 14.1 24v.1.4.1.8.1.1.4.9.1.3.1.1c-.2 5.4-1.5 11-2.6 17.1v.1c-.1.4-.1.8-.2 1.2l-.1.4c-.1.4-.1.9-.2 1.3v.2c-.1.4-.1.8-.2 1.2l-.1.4c-.1.4-.1.8-.2 1.2l-.1.6-.1.7c0 .4-.1.7-.1 1.1l-.1.7-.1.7-.1.7c0 .4-.1.8-.1 1.2v.6.7 1.1.8.6 1.3.6.8.6c0 .5 0 .9.1 1.4v.5c0 .7.1 1.3.2 2 0 .3.1.7.1 1l.1.5c.1.5.1 1.1.2 1.6l.1.6c.1.3.1.6.2 1l.1.5c.1.6.2 1.2.4 1.7l.1.6c.1.4.2.7.3 1.1s.2.8.3 1.1.2.7.3 1c.1.2.1.4.2.6l.6 1.8c.1.2.1.4.2.6.1.4.3.7.4 1.1l.1.4c.2.7.5 1.3.8 2l.3.6c.1.3.3.7.4 1 .2.5.4.9.6 1.4.2.3.3.7.5 1 .1.2.2.5.4.7.3.6.6 1.1.9 1.7.1.3.3.5.4.8.2.3.4.7.6 1s.4.7.6 1l.9 1.5c.2.3.4.7.6 1s.4.7.6 1c.4.7.8 1.3 1.3 2l4.2 37.5c4.4-.9 8.4.1 12.2 1l-8.9-5.3-2.6-36.8-.1-.7c-29.9-47.9 13.4-67.1-23.2-100.1zm148 156.8c-1 .9-2 1.9-3.1 2.8l-.1.1c-12.3 11.1-29.4 22-51.4 34.2l-.1-.1-.1.1c-22-12.2-39.1-23.1-51.4-34.2l-.1-.1c-1.1-1-2.1-1.9-3.1-2.9l.7-.1c2.3-.3 4.6-.5 6.9-.8h.1c11.3 10.2 27.1 20 47.1 31.1 20-11.1 35.7-20.9 47.1-31.1h.1c2.3.2 4.6.5 6.9.8z" fill="#fff"/><path d="m160.3 41.3c12.2 4 22.3 12.1 28.8 22.5-13.1 7.8-27.1 17.8-30.3 34l13.2 14.4-.5.7-5.9 2.2c-12.4-17-37.7-33.3-58.8-46.1l-.7-.4c4.3-9.5 9.2-16.6 16.5-20.8-8.5 3.2-15.2 10.4-19.8 18.7-1.4-.9-2.8-1.7-4.2-2.5 7.4-12 19.3-20.5 33-23.8.8.9 1.7 1.8 2.7 2.7-3.1.8-6.1 1.9-8.9 3.3 1.4-.1 2.9-.1 4.3-.1 9.3.2 17.7 3.2 23.2 7.7 2.5-.5 5.1-.8 7.8-.9 5-.1 9.7.6 13.9 1.9-3.9-4.2-9.9-8-15.2-10.3.1-.7.5-1.8.9-3.2zm-110.1 36.1-6.3 22c36.5 33-6.7 52.2 23.2 100.1h.1l9.2-9.8 4.4-30.9 11.2-6.8c1.5-8.5 2.1-11.7 4.3-16.1-29.4 0 .3-17.2-29.4-12.3-1.9.3-3.2-2.9-.5-3.3 34.9-5.5 4.6 13 36.9 6.3l9.6-4.5-3.2-3.5-12.4-1.6-10.6-7.1 10.2-2.1-22.6-.9-7.6-9 15-.8-23.6-3.1c-.7-2.7-1.6-5.5-3.1-8.3-1.3-2.5-2.9-5.4-4.8-8.3zm46.2 156c11.3 10.2 27.1 20 47.1 31.1 20-11.1 35.7-20.9 47.1-31.1-14.2-1.4-30.2-2.2-47.1-2.2-17.1 0-33 .8-47.1 2.2zm123.4-33.7c30.1-48-13.3-67.2 23.3-100.3l-6.9-23.8c-.5 1.6-1 3.3-1.4 4.9-7.3 6.3-13.3 15.2-15.3 25.4l-10.9 1.8.2 5.4 4.4 7-2.2 3.1-1.3 8.6-3.7.4-3.2 3.6-3.4 7.7-10 .7-2.9-3.4-4.1-.8-3.8 4.6 6.8 19.5 22.7 23.2zm-102.7-35.4 5.7 4.3 10.5 19.2 1.1 5.2c1.3 0 2.6 0 4-.1l-1.7-6.4-10.8-19.9-9.3-7.1-14.7 18.3-10.1-3.5-3.5 21.7c9.6-1.2 20.2-2 31.5-2.5l1.2-5-10.9-15.9zm37 28.9c15 .3 29.2 1.3 41.7 2.7l.4-4.8-23.3-10.4-2.8-8.7 2.9-8.5-9.4 13.4-8 .5-2.8-9.7-1.3 20.8z" fill="#f7941e"/><path d="m133.7 247.1h-4.2v-.3h1.4l1.5-6.8c0-.1 0-.2 0-.3s0-.1 0-.1c0-.3-.4-.4-1.3-.4-.1 0-.2 0-.3 0v-.3h1c.4 0 1-.1 1.9-.1h.2l-1.7 8h1.5zm21.9-212.3c1-4.9 2-9.2 2-9.2s3.6-2.1 6 1.8c.5.8-.1 3.5-1 6.6 13.9 4.2 26.4 13 35 25 17.4-10 35.4-20.6 42.3-40.8 6.2 13.2 4.6 26.9 1.2 40.4 9.5 34.9 5.7 17.5 13.4 46.9-39.4 29 4 48.7-22.6 97.7 8.2-.7 15.4-.5 24.7 2.6-20.6 29.4-13.9 12.9-2 49.4 0 0-32.5-15-54.5-7.4l2.6-2.6c2.9-2.8 5.8-5.9 8.5-8.9-1.3-.2-2.7-.4-4-.6-3.1 3.2-6.5 6.6-10.2 10-12.8 11.9-30.6 23.7-53.5 36.9-22.9-13.2-40.6-25-53.5-36.9-3.7-3.4-7.1-6.8-10.2-10-1.3.2-2.6.4-3.9.6v.1c2.8 3.1 5.6 6.1 8.6 8.9l2.6 2.6c-22.1-7.6-54.5 7.4-54.5 7.4 11.9-36.5 18.5-20-2-49.4 9.3-3 16.4-3.2 24.6-2.6-26.7-49.1 16.8-68.8-22.6-97.8 3.8-14.2 7.6-26.1 11.3-39.4-4.9-18.4-10.5-36.7-1.2-55.8 6.1 16.2 17.2 29 39.2 43.4 2.3 1.5 5 3.2 8 5 9.1-12.5 22.1-21.3 36.6-25.2-2.6-3.3-5.6-6.3-10.5-7.6 9.2-5.7 36-5.2 39.6 8.9zm6.2 1.8c-1 3.3-2.1 6.5-2.4 7.8 5.3 2.3 11.3 6.1 15.2 10.3-4.2-1.3-8.9-2-13.9-1.9-2.7.1-5.3.4-7.8.9-5.5-4.5-13.8-7.4-23.2-7.7-1.5 0-2.9 0-4.3.1 2.8-1.4 5.8-2.5 8.9-3.3-2.5-2.1-4.4-4.6-6.2-7.1-13.8 3.9-26.1 12.8-34.2 25.4 3.5 2.1 7.3 4.3 11.2 6.7l1.8 1.1c21.1 12.8 46.3 29.1 58.8 46.1l5.9-2.2.5-.7-13.2-14.4c3.4-17.4 18.3-27 34.5-36.5-7.5-11.5-18.7-20.3-31.6-24.6zm-42.3-10.8c2.1.9 3.9 1.9 5.3 3.1 5.6 4.5 8.3 11.2 15 14.7 2.1 1.1 4.6 2 7.7 2.6.6-5.9-2.6-9.9-6.1-12.5-1.3-.9-2.6-1.7-3.8-2.3-2.4-1.2-4.3-1.7-4.3-1.7 3.2.3 6.4 1 9.3 2.4 7 3.4 9.4 9.5 10.3 13.2 1.2-3.5 1.7-7.4.3-10.8 0-.1-.1-.2-.1-.3-.7-1.6-1.8-3-3.2-4.1-7.4-6.6-22.5-6.4-30.4-4.3zm23.5 221.7v-.4c1-.2 1.8-.5 2.5-1.2.7-.6 1.3-1.5 1.8-2.7l-.1-.1c-.3.2-.5.4-.8.5s-.5.1-.8.1c-.8 0-1.4-.2-1.8-.7-.5-.5-.7-1.1-.7-1.9 0-1 .4-1.9 1.1-2.7.8-.8 1.6-1.2 2.6-1.2.8 0 1.5.3 2 .9s.8 1.4.8 2.3c0 .7-.2 1.5-.5 2.3s-.8 1.5-1.4 2.2-1.3 1.3-2.1 1.7c-.8.5-1.7.8-2.6.9zm4.5-5.1c.2-.7.4-1.4.5-2s.2-1.1.2-1.5-.1-.7-.3-1-.5-.4-.9-.4-.7.1-.9.4c-.3.3-.5.7-.7 1.2s-.3 1-.4 1.6-.1 1.1-.1 1.5.1.6.2.8c.2.2.4.3.7.3.2 0 .5-.1.8-.2.2-.1.5-.4.9-.7zm7-3.4c.9 0 1.6.4 2.1 1.2s.8 1.8.8 3.1c0 .9-.1 1.7-.4 2.6-.2.9-.6 1.6-1 2.3-.5.8-1.1 1.4-1.7 1.9-.6.4-1.2.6-1.8.6-.9 0-1.5-.4-2.1-1.2-.5-.8-.8-1.8-.8-3.1 0-.9.1-1.7.4-2.6.2-.9.6-1.6 1-2.3.5-.8 1.1-1.4 1.7-1.9.6-.4 1.2-.6 1.8-.6zm-1.9 11.3c.5 0 .9-.2 1.1-.6.3-.4.6-1.2 1-2.6.3-1.3.6-2.5.8-3.7s.3-2 .3-2.6c0-.5-.1-.9-.3-1.1s-.5-.3-1-.3-.9.2-1.2.6-.6 1.2-.9 2.5-.6 2.5-.8 3.7-.3 2-.3 2.6c0 .5.1.9.3 1.1.2.3.5.4 1 .4zm-18.1 0v-.4c1.1-.2 2-.6 2.8-1.3s1.5-1.7 2-3l-.1-.1c-.3.2-.6.4-.9.5s-.6.2-.9.2c-.9 0-1.5-.3-2.1-.8-.5-.5-.8-1.2-.8-2.1 0-1.1.4-2.2 1.3-3.1.8-.9 1.8-1.3 2.9-1.3.9 0 1.7.3 2.3 1s.9 1.5.9 2.6c0 .8-.2 1.7-.5 2.6-.4.9-.9 1.7-1.5 2.5-.7.8-1.5 1.5-2.4 1.9-.8.4-1.8.7-3 .8zm5.1-5.7c.2-.8.4-1.5.5-2.2s.2-1.3.2-1.7-.1-.8-.4-1.1-.6-.4-1-.4-.8.2-1.1.5-.5.8-.7 1.4c-.2.5-.3 1.1-.4 1.7s-.2 1.2-.2 1.7c0 .4.1.7.3.9s.5.3.8.3.6-.1.9-.3c.3-.1.7-.4 1.1-.8zm-83.1-167.2 73.8 27.9 5.7 5c1.8 1.2 1.3 2.2-1 2.1-21.5-14.5-40.8-17.4-65.7-23.1-4.7-1.1-5.8-2.5-7.8-5.1-.9-1.3-3.9-5.6-5-6.8zm151.2 147.3.4-2.7 2.6.4-.4 2.7zm-10.1-5.9 1.1-9c.2-1.4.7-2.4 1.5-3.1s1.9-1 3.3-.8c1.2.2 2.2.7 2.8 1.6s.9 2 .7 3.4l-.2 1.7-2.8-.3.2-1.9c.1-.6 0-1.1-.2-1.4s-.5-.5-1-.6-.8.1-1.1.3c-.3.3-.4.7-.5 1.3l-1.2 9.8c-.1.6 0 1.1.2 1.4s.5.5 1 .6.8-.1 1.1-.3c.3-.3.4-.7.5-1.3l.3-2.4 2.8.3-.2 1.8c-.2 1.5-.7 2.7-1.5 3.4s-1.9 1-3.2.9c-1.4-.2-2.3-.7-2.9-1.6-.7-.9-.9-2.2-.7-3.8zm-5.4 4 .2-2.8 2.6.2-.2 2.8zm-6.1-.7 1.5-17.6 7.1.6-.2 2.5-4.4-.4-.4 4.6 3.1.3-.2 2.5-3.1-.3-.7 7.9zm-15.2-18.7 2.8.1-.7 13.7c0 .5.1.9.3 1.2.3.3.6.5 1 .5s.8-.1 1-.4c.3-.3.4-.7.4-1.2l.7-13.7 2.8.1-.7 13.2c-.1 1.6-.5 2.7-1.3 3.5s-1.8 1.2-3.2 1.1-2.4-.5-3.1-1.4-1-2.1-.9-3.7zm-11.3 12.8.3-9c0-1.4.5-2.5 1.2-3.2.8-.8 1.8-1.1 3.2-1.1 1.3 0 2.2.5 3 1.3.7.8 1 2 1 3.4l-.1 1.7-2.8-.1.1-1.9c0-.6-.1-1.1-.3-1.4s-.6-.5-1-.5c-.5 0-.8.1-1.1.4-.2.3-.4.8-.4 1.4l-.3 9.9c0 .6.1 1.1.3 1.4s.6.5 1 .5c.5 0 .8-.1 1.1-.4.2-.3.4-.8.4-1.4l.1-2.4 2.8.1-.1 1.8c-.1 1.5-.5 2.7-1.2 3.5-.8.8-1.8 1.2-3.2 1.1-1.4 0-2.4-.5-3.1-1.4-.6-.8-.9-2.1-.9-3.7zm1.3 7.5c.3.1.6.1.8.2.3 0 .5.1.8.1s.5 0 .7-.1.3-.3.3-.4c0-.2-.1-.4-.3-.6-.2-.1-.6-.2-1-.2h-.1l.8-1.7h.8l-.5.9h.2c.8 0 1.4.2 1.8.5s.6.7.6 1.2-.3.9-.8 1.2-1.2.4-2.2.3c-.3 0-.7 0-1-.1-.3 0-.7-.1-1-.2zm-12-3.2 3.2-17.6 3.6.1 2.6 17.7h-2.8l-.5-3.8h-2.8l-.7 3.8zm3.7-6.3h2.1l-.8-7.4h-.2zm-13.5-11.4h2.8v13.7c0 .5.1.9.4 1.2s.6.5 1 .5.8-.2 1-.5.4-.7.4-1.2v-13.7h2.8v13.2c0 1.6-.4 2.7-1.1 3.6-.7.8-1.8 1.3-3.1 1.3-1.4 0-2.4-.4-3.1-1.3-.7-.8-1.1-2.1-1.1-3.7zm-10.6 13.4-.2-9.1c0-1.4.3-2.5 1.1-3.3.7-.8 1.8-1.2 3.1-1.2s2.3.3 3 1.1 1 1.9 1.1 3.4v1.6h-2.6v-1.9c0-.6-.1-1.1-.4-1.4-.2-.3-.6-.4-1.1-.4s-.8.2-1 .5-.3.8-.3 1.4l.2 9.9c0 .6.1 1.1.4 1.4.2.3.6.5 1.1.4.5 0 .8-.2 1-.5s.3-.8.3-1.4v-2.8h-1.7v-2.2l4.3-.1.2 8.9h-1.3l-.5-1.2c-.3.6-.6 1-1.1 1.2-.4.3-.9.4-1.5.4-1.2 0-2.2-.4-2.8-1.2-.9-.7-1.3-1.9-1.3-3.5zm-5.1 4.5-.3-17.7h2.8l.3 17.7zm-16 1 2-17.8 3.6-.2 3.8 17.5-2.8.1-.7-3.8-2.7.1-.4 3.9zm3.2-6.5 2.1-.1-1.3-7.3h-.2zm-14-10.4 2.7-.2 2.4 10.3c.1.7.3 1.3.4 1.9s.1 1.2.2 1.8v.3c0-.8 0-1.5 0-2.2s0-1.3.1-1.8l.8-10.5 2.7-.2-1.9 17.8-2.8.2zm-3.3 14.1-1-9.8c-.1-.6-.2-1-.5-1.3s-.6-.4-1.1-.3c-.5 0-.8.2-1 .6-.2.3-.3.8-.2 1.4l1 9.8c.1.6.2 1.1.5 1.3.3.3.6.4 1.1.4s.8-.2 1-.6.3-.9.2-1.5zm-6.6-9.1c-.1-1.4.1-2.5.8-3.4s1.7-1.4 3-1.5 2.3.2 3.1.9 1.3 1.8 1.4 3.2l.9 9c.2 1.5-.1 2.8-.7 3.7s-1.6 1.4-3 1.6c-1.4.1-2.4-.2-3.2-.9-.8-.8-1.3-1.9-1.4-3.5zm-9.4 15.2-2.5-17.5 2.4-.3 4.9 10c.1.2.2.4.3.8.1.3.3.7.4 1-.2-.5-.3-1-.4-1.4s-.2-.7-.2-.9l-1.4-10 2.5-.4 2.5 17.5-2.5.4-4.7-9.2s-.1-.1-.1-.2c-.3-.6-.6-1.2-.7-1.6.2.6.3 1.1.4 1.5s.2.7.2.9l1.3 9.1zm63.6-38.5-9.6-23.2 6.9-6 .2 12.9 4.3 12.5zm60.5 1.4-.6-4.1-14.7-14.8 8.9 13.4zm-33.8-90.9c8.2-6.5 29.9-6.2 45.2-3.5 3.2.6 2.8.5 4.5-1.7l4.4-6c.1-.1-36.6 2.3-49.7 7.8 12.4-7.9 33.7-12.9 51.9-14.9 3.9-.4 4.7-.4 5.8-3.8l2.3-7c-.5-.4-59.7 13.7-64.6 29.1l.2-.2zm63.8-35c-32.3 11.8-58.3 20.6-66.2 32.5l-.8-.4c7.5-22.9 60-35.9 75-65.1 1.7 8.9-1.8 22.9-4.2 29.3-.9 2.4-1.3 2.7-3.8 3.7zm-136 91.5-11 7.4-2.1 12.9 8.6-12.2 13-7.7-1.5-7.6 17.4-18.1 13.6 4.8-3.5 16.6 25-20.2c.1 0 .1.1.1.1 2.9-2 4.5-3.5 5.4-4.6l3.5-2.8 17.8-6-2 8.8 1.1 1.6 6.5-6.2-.3 17 2.9 4.1 8-.3 2.1-5.4-3.1 3-3.7-.7v-3.4l-2.3 2.9-2.2-1.4 1.5-10.6 6-3.3-2.9 3.4-.7 6.1 2.8-3.7 5-.4 1.7-2.9-.8-1.9-2.9-3.3 1.2-1.4 5.1 1.2-4.3-7.9 3.7 2.4 2.1-.7-5.5-4.3-11.7-2.1-2.5 2.6-4.7-7.6-4.6 6.8 4.2 3-20.6 8.1-.2.1c-2.8-7.1-8.8-13.6-16.6-19.9-29-23.5-83.6-44-100.8-77.1-.8 9.6.3 19.8 1.5 24.2 1.1 4 3.7 5 7.4 6.9l83.8 44.3c12.2 6.5 1.5 17 7.9 26.3l-29.7.9-9.8 5.1-3.8 5.8zm106.6-46.3 4.9-1.2v5.2zm3.2 22.3-3.8 3.9 2.3-5.1-.7-.6.7-3.6 3.7-3.8-2.3-4 1.3-2 3.8 5.5-1.4 1.8-1.1 7.8zm-6.6-14.2c-2.7-1.6-2.7.5-6-.1-1.1-.2-4.1-3.1-4.8-4.4l2.9 1.2c.9-.8 2.6-.7 4.3-.2 1.6.5 3.9 2.1 3.6 3.5zm-150.2-54.8 78.7 38.3 1.5 2.3c-21.9-12-40.4-18.2-67.3-27.5-2.2-.8-10.2-3-11.1-6.2zm18.7 139.7-.1-.7h.1l9.2-9.8 4.4-30.9 11.2-6.8c1.5-8.5 2.1-11.7 4.3-16.1-29.4 0 .3-17.2-29.4-12.3-1.9.3-3.2-2.9-.5-3.3 34.9-5.5 4.6 13 36.9 6.3l9.6-4.5-3.2-3.5-12.3-1.6-10.6-7.1 10.2-2.1-22.6-.9-7.6-9 15-.8-23.6-3.1c-.7-2.7-1.6-5.5-3.1-8.3-2.2-4.1-5.2-9.3-9-13.9l-8.7 31.2c39.5 28-8.2 49.9 24.8 100.9l4.2 37.5c4.4-.9 8.4.1 12.2 1l-8.9-5.3zm50-35.9 5.7 4.3 10.5 19.2 1.1 5.2c1.3 0 2.6 0 4-.1l-1.7-6.4-10.8-19.9-9.3-7.1-14.7 18.3-10.1-3.5-3.5 21.7c9.6-1.2 20.2-2 31.5-2.5l1.2-5-10.9-15.9zm122.1-98.9c-1.5 5.1-3 10.1-4.4 15-7.3 6.3-13.3 15.2-15.3 25.4l-10.9 1.8.2 5.4 4.4 7-2.2 3.1-1.3 8.6-3.7.4-3.2 3.6-3.4 7.7-10 .7-2.9-3.4-4.1-.8-3.8 4.6 6.8 19.5 22.7 23.2 11.7 12.4h.1v.1.4l.1-.5-.7 8.8c-2.4 34.2-1.6 20.1-2.2 28.7h-.2l-8.3 5.1c3.7-.9 7.8-1.9 12.2-1l4.2-37.5c32.9-50.9-14.7-72.8 24.7-100.8zm-41 168.8c-15.9-1.9-34.7-3.1-54.8-3.1s-38.9 1.1-54.7 3.1c1.1 1 2.1 2 3.3 3 12.3 11.1 29.4 22 51.4 34.2l.1-.1.1.1c22-12.2 39.1-23.1 51.4-34.2 1.1-1 2.2-2 3.2-3zm-44.1-41c15 .3 29.2 1.3 41.7 2.7l.4-4.8-23.3-10.4-2.8-8.7 2.9-8.5-9.4 13.4-8 .5-2.8-9.7-1.3 20.8z" fill="#231f20"/><path d="m119.5 25.8c12.5 5.1 11.1 17.3 28.1 20.4 1.3-12.3-14.2-16.5-14.2-16.5 14.4 1.2 18.5 10.6 19.6 15.6 1.5-4.3 1.8-9.3-1-13.1-6.4-8.7-23.8-8.7-32.5-6.4z" fill="#a6ce39"/></g></svg>