<svg enable-background="new 0 0 410 455" height="455" viewBox="0 0 410 455" width="410" xmlns="http://www.w3.org/2000/svg"><path d="m61.817 375.35c-21.878-11.788-35.083-28.847-42.447-48.208-7.108-18.693-8.611-39.165-7.229-58.814 1.772-25.158 10.951-45.784 19.63-65.283 15.305-34.394 28.747-64.596-22.174-111.601l-8.563-7.905 7.06-9.267 33.473-43.929 5.137-6.74 8.23 2.134c13.498 3.503 27.063 6.525 40.879 8.243 12.996 1.614 25.969 2.032 38.929.516-.501.071-.632.092.551-.065.225-.029.448-.056.674-.085l-.001-.006c-.261.035-.483.065-.672.091-.175.021-.353.042-.529.063-.008.001-.014.001-.022.002.006-.001.016-.002.022-.002.354-.051.878-.124 1.258-.18l.022-.022c.725-.089.492-.051.002.019l.003.026c2.589-.33 5.404-.791 8.442-1.381 2.792-.542 5.491-1.16 8.091-1.854 13.443-3.583 25.488-9.361 36.007-17.25l.401-.301 8.752-6.041 7.258-5.01 7.258 5.01 8.752 6.041.351.25.016.013.05.049c1.586 1.189 3.708 2.629 6.359 4.317 2.634 1.677 4.828 2.983 6.578 3.919 11.757 6.283 25.015 10.39 39.643 12.243 13.376 1.693 26.768 1.304 40.18-.363 13.816-1.718 27.382-4.74 40.881-8.243l8.23-2.134 5.137 6.74 33.474 43.929 7.057 9.267-8.562 7.905c-52.032 48.032-37.922 78.88-21.683 114.379 8.55 18.688 17.6 38.465 20.569 62.314l.003.022c.659 5.297 1.062 10.664 1.135 16.037.078 5.374-.176 10.842-.83 16.362-3.414 28.883-17.539 56.539-51.412 74.791l-137.128 73.886-6.057 3.265-6.057-3.265zm-18.518-57.32c5.314 13.975 14.844 26.287 30.631 34.794l131.071 70.62 131.071-70.62c25.114-13.532 35.575-33.96 38.094-55.269.504-4.241.696-8.614.635-13.059-.065-4.441-.394-8.869-.938-13.233l-.005-.022c-2.511-20.148-10.66-37.967-18.362-54.805-19.446-42.506-36.453-79.694 19.179-135.715l-21.467-28.168c-11.977 2.918-23.941 5.37-35.916 6.858-15.131 1.88-30.556 2.278-46.489.261-17.741-2.247-33.947-7.297-48.451-15.045-3.354-1.792-6.15-3.4-8.381-4.82-2.117-1.348-4.61-3.092-7.477-5.231l-1.493-1.031-1.493 1.031c-13.111 9.753-27.969 16.873-44.417 21.256-3.245.865-6.511 1.618-9.792 2.254-3.007.583-6.351 1.11-10.03 1.578l.001.007c-.044.004-.084.011-.126.016l-.001-.008c-15.911 2.01-31.318 1.611-46.434-.267-11.974-1.488-23.938-3.94-35.916-6.858l-21.465 28.17c54.42 54.873 38.165 91.401 19.771 132.733-7.704 17.307-15.852 35.615-17.326 56.573-1.163 16.521-.043 33.358 5.526 48zm92.669-283.684c.008-.001.018-.001.027-.003l.002-.003h.019c.011-.001.022-.001.034-.003l-.003-.026c-.008.001-.016.003-.024.003l-.025.026h-.031zm3.177 25.342c-4.301.574 2.2-.239.004.037zm0 0"/><path d="m67.874 364.088c-37.668-20.297-45.464-58.738-42.917-94.909 5.052-71.752 78.267-108.713-6.7-187.147l33.472-43.93c28.239 7.331 56.56 12.62 85.868 8.907 22.49-2.848 42.169-10.581 58.653-22.943l8.751-6.041 8.751 6.041c16.484 12.363 36.164 20.095 58.651 22.943 29.312 3.713 57.629-1.576 85.868-8.907l33.472 43.93c-84.967 78.435-14.088 116.101-5.169 187.658 4.302 34.512-3.471 72.32-44.446 94.398l-137.127 73.886zm0 0" fill="#fff"/><path d="m346.906 53.659-287.625 153.784c6.177-11.843 10.489-25.19 11.904-39.189 4.639-25.761-1.626-53.016-35.856-87.531l21.265-27.908c-.001 0-.001 0-.001 0 11.709 2.956 23.173 5.073 34.309 6.361.604.08 1.205.16 1.808.235 15.116 1.878 30.523 2.277 46.434.267l.001.008c.042-.005.082-.012.126-.016l-.001-.007c3.679-.467 7.023-.995 10.03-1.578 3.281-.637 6.547-1.389 9.792-2.254 3.66-.975 7.307-2.085 10.806-3.33-.025.001-.053.003-.078.004 12.984-4.357 24.798-10.441 35.182-18.231 23.725 17.798 52.764 26.906 86.819 26.737 8.605.027 17.084-.559 25.472-1.6 9.459-1.176 18.912-2.954 28.369-5.087zm-207.761 6.029c-4.301.574 2.2-.239.004.037zm0 0"/><path d="m96.314 235.52 12.322-6.703c1.144 1.933 1.877 3.185 2.191 3.761 1.699 3.123 2.561 5.813 2.586 8.077.051 2.527-1.218 4.961-3.815 7.291-2.592 2.34-7.557 5.498-14.884 9.484-7.694 4.185-13.264 7.021-16.689 8.504-3.426 1.483-6.206 2.248-8.324 2.301-1.895.035-3.573-.401-5.01-1.309-1.437-.909-2.88-2.43-4.34-4.583-1.173-1.746-3.067-5.013-5.679-9.814-2.546-4.681-4.292-8.105-5.249-10.271-.946-2.172-1.475-3.966-1.581-5.389-.275-3.178 1.103-6.089 4.127-8.716 3.024-2.629 9.739-6.781 20.163-12.45 5.215-2.837 9.071-4.778 11.563-5.833 2.507-1.05 4.631-1.627 6.386-1.746 2.314-.131 4.301.464 5.99 1.76 1.677 1.301 3.415 3.605 5.225 6.931.093.171.452.854 1.064 2.027l-12.314 6.699c-.792-1.311-1.373-2.162-1.72-2.563-.358-.394-.784-.646-1.283-.768-.701-.158-2.058.188-4.079 1.053-2.015.846-4.965 2.334-8.857 4.451-3.852 2.095-6.476 3.628-7.859 4.603-1.392.979-2.256 1.871-2.603 2.701-.403.992-.371 2.258.101 3.823.482 1.559 1.556 3.869 3.221 6.932 1.661 3.054 2.968 5.145 3.905 6.262.935 1.115 1.918 1.746 2.958 1.899.979.162 2.274-.083 3.879-.72 1.61-.653 4.327-2.015 8.159-4.099 4.711-2.563 7.82-4.358 9.305-5.363 1.479-1.015 2.353-1.937 2.617-2.773.356-1.083-.141-2.911-1.476-5.459zm5.254-35.02 44.783-24.364 5.17 9.502-32.644 17.757 3.18 5.844 30.984-16.856 4.832 8.886-30.981 16.857 3.523 6.479 32.875-17.883 5.284 9.713-45.014 24.49zm116.807-11.156-7.191-4.958-26.737 14.546.254 8.73-14.071 7.656-.552-52.09 19.135-10.409 43.141 28.918zm-16.326-11.465-16.119-11.064-2.456 1.336.531 19.543zm34.19 1.745-21.991-40.425 29.771-16.196c6.996-3.779 11.219-5.985 12.675-6.607 1.456-.621 3.039-.893 4.751-.803 2.042.095 3.788.797 5.254 2.12 1.463 1.314 3.137 3.717 5.039 7.216 1.601 2.941 2.589 5.194 2.979 6.777.389 1.583.301 3.058-.259 4.438-.598 1.479-1.899 2.986-3.911 4.513 2.691-1.216 4.947-1.474 6.778-.807 1.065.416 1.986 1.122 2.762 2.114.771 1.008 2.111 3.253 4.014 6.751l2.047 3.761-12.142 6.604-1.178-2.164c-1.226-2.254-2.176-3.807-2.87-4.674-.694-.866-1.398-1.438-2.134-1.708-.708-.217-1.499-.179-2.369.124-.871.302-2.581 1.155-5.129 2.541l-17.357 9.443 5.593 10.28zm1.236-27.082 17.327-9.426c2.989-1.706 4.761-2.735 5.319-3.104.549-.365.972-.791 1.243-1.278.345-.621.45-1.319.314-2.096-.151-.783-.585-1.845-1.315-3.189-.714-1.314-1.375-2.238-1.986-2.757-.594-.517-1.277-.76-2.053-.718-.544.035-1.12.205-1.749.493-.619.285-2.364 1.195-5.216 2.721l-17.297 9.409zm99.289-27.606-7.189-4.956-26.738 14.544.256 8.731-14.07 7.655-.553-52.088 19.136-10.411 43.141 28.919zm-16.324-11.464-16.121-11.063-2.456 1.336.532 19.545zm-3.577-24.543 2.873-12.614 9.948-2.228-10.408 16.941zm0 0"/><path d="m224.813 65.296c.861 1.591 1.728 3.182 2.588 4.769.862 1.587 1.733 3.176 2.599 4.764h16.793c-2.27.984-4.533 1.966-6.796 2.947-2.265.981-4.529 1.964-6.793 2.944.862 1.589 1.732 3.178 2.594 4.766.862 1.587 1.733 3.177 2.597 4.764-2.262-.981-4.526-1.962-6.789-2.941-2.265-.981-4.529-1.965-6.792-2.948-2.269.983-4.533 1.967-6.796 2.948-2.264.979-4.528 1.96-6.793 2.941.862-1.587 1.733-3.177 2.594-4.764s1.731-3.177 2.598-4.766c-2.263-.98-4.527-1.963-6.791-2.944-2.263-.981-4.527-1.963-6.792-2.947h16.788c.862-1.587 1.731-3.176 2.594-4.764.86-1.587 1.73-3.178 2.597-4.769zm0 0" fill="#fff"/><path d="m180.319 55.672c1.103 1.728 2.209 3.458 3.311 5.183 1.101 1.726 2.215 3.454 3.322 5.179h21.472c-2.901 1.069-5.796 2.138-8.691 3.204s-5.79 2.135-8.685 3.201c1.103 1.727 2.215 3.455 3.317 5.179 1.101 1.726 2.214 3.454 3.32 5.179-2.895-1.066-5.79-2.133-8.683-3.199-2.895-1.065-5.79-2.134-8.685-3.202-2.901 1.067-5.795 2.137-8.688 3.202-2.896 1.066-5.79 2.133-8.685 3.199 1.101-1.725 2.215-3.453 3.316-5.179 1.103-1.725 2.215-3.453 3.322-5.179-2.895-1.066-5.789-2.135-8.684-3.201-2.895-1.065-5.788-2.135-8.683-3.204h21.465c1.102-1.725 2.215-3.453 3.316-5.179 1.103-1.725 2.216-3.455 3.323-5.183zm0 0" fill="#fff"/><path d="m127.636 64.049c1.2 1.764 2.405 3.528 3.605 5.289 1.2 1.76 2.411 3.524 3.618 5.283h23.384c-3.159 1.091-6.311 2.181-9.464 3.269-3.152 1.088-6.306 2.178-9.459 3.266 1.2 1.762 2.412 3.525 3.612 5.285 1.2 1.761 2.413 3.524 3.618 5.283-3.152-1.087-6.305-2.175-9.458-3.263-3.152-1.086-6.305-2.178-9.457-3.268-3.159 1.09-6.311 2.182-9.464 3.268-3.154 1.088-6.305 2.176-9.458 3.263 1.199-1.758 2.412-3.522 3.612-5.283 1.199-1.76 2.412-3.523 3.617-5.285-3.152-1.088-6.305-2.178-9.458-3.266-3.152-1.088-6.305-2.178-9.457-3.269h23.378c1.2-1.759 2.411-3.522 3.611-5.283s2.413-3.525 3.62-5.289zm0 0" fill="#fff"/><path d="m89.227 86.197c1.239 2.128 2.484 4.256 3.721 6.381 1.239 2.122 2.49 4.249 3.733 6.372h24.133c-3.261 1.315-6.515 2.63-9.766 3.943-3.253 1.313-6.508 2.627-9.761 3.94 1.238 2.126 2.49 4.253 3.727 6.377 1.239 2.124 2.49 4.25 3.734 6.374-3.254-1.313-6.507-2.625-9.76-3.937-3.251-1.312-6.506-2.627-9.76-3.943-3.26 1.316-6.513 2.631-9.766 3.943-3.253 1.313-6.507 2.625-9.76 3.937 1.239-2.124 2.488-4.25 3.727-6.374 1.238-2.124 2.49-4.25 3.733-6.377-3.253-1.313-6.507-2.627-9.76-3.94s-6.507-2.628-9.76-3.943h24.125c1.239-2.124 2.488-4.25 3.727-6.372 1.238-2.125 2.488-4.253 3.733-6.381zm0 0" fill="#fff"/><path d="m125.674 380.301v-126.738l-87.05 46.056c.942 6.381 2.455 12.57 4.676 18.411 5.314 13.975 14.844 26.287 30.631 34.794l1.451.78-1-.531zm79.315 41.85-47.944-26.296v-158.89l94.113-49.794v209.131zm76.957-251.342 56.188-29.537c-4.528 26.23 5.926 50.168 17.361 75.165 4.73 10.344 9.632 21.06 13.291 32.456 2.192 7.45 4.008 15.127 5.134 22.84.508 4.212.819 8.481.88 12.765.062 4.444-.131 8.817-.635 13.059-1.884 15.937-8.209 31.38-21.785 43.815-4.723 4.215-10.287 8.144-16.846 11.702l-9.534 5.177.016-.008-39.676 21.539 39.66-21.531-44.055 23.736v-211.178zm0 0"/><g fill="#fff"><path d="m124.456 113.595c1.511 2.567 3.027 5.137 4.537 7.699 1.509 2.562 3.034 5.127 4.551 7.689h29.417c-3.975 1.587-7.94 3.175-11.906 4.757-3.965 1.583-7.932 3.17-11.897 4.753 1.509 2.566 3.034 5.131 4.543 7.693s3.034 5.129 4.551 7.689c-3.965-1.583-7.931-3.166-11.898-4.748-3.964-1.583-7.931-3.17-11.897-4.758-3.973 1.587-7.94 3.175-11.904 4.758-3.967 1.583-7.933 3.165-11.898 4.748 1.509-2.561 3.034-5.127 4.543-7.689s3.034-5.127 4.551-7.693c-3.967-1.583-7.932-3.17-11.898-4.753-3.965-1.583-7.93-3.17-11.896-4.757h29.407c1.509-2.562 3.034-5.127 4.543-7.689s3.034-5.132 4.551-7.699zm0 0"/><path d="m183.049 395.069v-17.637h-3.929l1.648-3.304h6.244v20.941z"/><path d="m208.633 395.069v-17.637h-3.934l1.65-3.304h6.241v20.941z"/><path d="m201.257 375.576c-1.213-1.225-2.828-1.838-4.839-1.838-2.13 0-3.841.618-5.129 1.849-1.286 1.238-1.933 2.867-1.933 4.894 0 1.776.533 3.237 1.59 4.375 1.063 1.135 2.429 1.704 4.102 1.704.511 0 .968-.045 1.363-.143.396-.091.788-.238 1.162-.435l-5.609 9.087h4.709c2.433-3.645 3.985-6.616 5.577-10.715.548-1.411.826-2.714.826-3.904.001-2.026-.604-3.645-1.819-4.874zm-2.845 6.987c-.541.587-1.242.88-2.099.88-.967 0-1.722-.278-2.261-.839-.542-.558-.811-1.331-.811-2.313 0-.925.272-1.672.822-2.25.55-.576 1.275-.865 2.17-.865.918 0 1.648.276 2.183.84.538.559.807 1.318.807 2.275-.001.931-.27 1.686-.811 2.272z"/><path d="m227.559 387.031v-13.293h-3.596l-9.471 14.27v1.816h9.471v5.245h3.596v-5.245h2.065v-2.793zm-3.511-8.271c-.022.338-.032.846-.032 1.503v6.769h-5.479l4.244-6.498c.278-.438.528-.888.763-1.343.232-.459.436-.917.605-1.371-.047.285-.078.601-.101.94z"/></g></svg>