<svg enable-background="new 0 0 2000 1400" height="1400" viewBox="0 0 2000 1400" width="2000" xmlns="http://www.w3.org/2000/svg"><path d="m1000 700 1000 700h-2000z" fill="#d22811"/><path d="m0 0 1000 700 1000-700" fill="#d22811"/><path d="m0 1400 1000-700-1000-700z" fill="#009334"/><path d="m1000 700 1000 700v-1400z" fill="#009334"/><path d="m2000 0h-122.937l-877.063 613.943-877.062-613.943h-122.938v86.056l877.063 613.944-877.063 613.943v86.057h122.938l877.062-613.943 877.063 613.943h122.937v-86.057l-877.062-613.943 877.062-613.944z" fill="#fff"/><path d="m2000 0h-40.979l-959.021 671.314-959.021-671.314h-40.979v28.686l959.021 671.314-959.021 671.314v28.686h40.979l959.021-671.314 959.021 671.314h40.979v-28.686l-959.021-671.314 959.021-671.314z"/><circle cx="1000" cy="700" fill="#fff" r="366.072"/><g stroke-miterlimit="10"><path d="m885.5 574.75v228c0 11.874 9.626 21.5 21.5 21.5h81.5c6.352 0 11.5 5.148 11.5 11.5 0-6.352 5.148-11.5 11.5-11.5h81.5c11.874 0 21.5-9.626 21.5-21.5v-228z" fill="#b5b5b5" stroke="#000" stroke-width="2"/><path d="m946 635.25v115.488c0 5.601 4.54 10.14 10.14 10.14h38.437c2.996 0 5.423 2.429 5.423 5.424 0-2.995 2.428-5.424 5.424-5.424h38.437c5.601 0 10.14-4.539 10.14-10.14v-115.488z" fill="#fffe04" stroke="#000" stroke-width="2"/><path d="m1000 668.083-15.083-15.083v-17.75h15.083z" fill="#009134" stroke="#000" stroke-width=".75"/><path d="m1000 668.083 15.083-15.083v-17.75h-15.083z" fill="#d22811" stroke="#000" stroke-width=".75"/><path d="m994.75 635.25v20.75l5.25 5.25 5.249-5.25v-20.75z" fill="#fff" stroke="#000" stroke-width=".75"/><path d="m1000 670.05 2.93 9.015h9.479l-7.669 5.571 2.929 9.015-7.669-5.571-7.668 5.571 2.929-9.015-7.669-5.571h9.479z" fill="#d22811" stroke="#a51d0f" stroke-width=".75"/><path d="m1018.136 685.25h3.698l-.001-4h-3.698c-.115-1.062-.329-2.092-.619-3.09l3.422-1.417-1.531-3.695-3.414 1.414c-.51-.926-1.102-1.798-1.758-2.617l2.619-2.619-2.829-2.827-2.618 2.618c-.819-.657-1.691-1.249-2.617-1.758l1.414-3.415-3.695-1.529-1.417 3.42c-.999-.29-2.029-.503-3.091-.619v-3.698h-4v3.698c-1.061.116-2.092.33-3.09.619l-1.417-3.421-3.696 1.531 1.414 3.414c-.925.509-1.798 1.101-2.616 1.758l-2.619-2.619-2.829 2.829 2.619 2.619c-.657.818-1.249 1.69-1.758 2.616l-3.414-1.414-1.531 3.696 3.421 1.417c-.29.999-.503 2.029-.619 3.09h-3.698v4h3.699c.116 1.061.329 2.091.619 3.09l-3.421 1.417 1.53 3.696 3.414-1.414c.51.925 1.102 1.797 1.758 2.616l-2.619 2.619 2.829 2.829 2.619-2.619c.818.657 1.69 1.249 2.616 1.758l-1.414 3.414 3.696 1.531 1.417-3.421c.999.29 2.029.503 3.091.62v3.698h4v-3.698c1.062-.116 2.092-.33 3.091-.62l1.417 3.421 3.695-1.531-1.414-3.414c.926-.51 1.798-1.101 2.616-1.758l2.619 2.619 2.828-2.829-2.618-2.618c.656-.819 1.248-1.691 1.758-2.617l3.414 1.414 1.53-3.696-3.421-1.417c.289-.999.503-2.029.619-3.091zm-18.136 12.667c-8.1 0-14.666-6.566-14.666-14.666s6.566-14.667 14.666-14.667c8.101 0 14.667 6.566 14.667 14.667 0 8.1-6.566 14.666-14.667 14.666z" fill="#d8d8d8" stroke="#000" stroke-width=".75"/><path d="m1040.299 738.181c-3.536-1.687-7.191-3.431-13.301-3.431-6.107 0-9.763 1.744-13.299 3.431-3.667 1.75-7.133 3.403-13.699 3.403-6.567 0-10.032-1.653-13.7-3.403-3.535-1.687-7.191-3.431-13.299-3.431s-9.764 1.744-13.299 3.431c-3.668 1.75-7.133 3.403-13.7 3.403v4c7.528 0 11.775-2.026 15.523-3.814 3.396-1.62 6.329-3.02 11.477-3.02s8.08 1.399 11.477 3.02c3.748 1.788 7.995 3.814 15.523 3.814 7.527 0 11.775-2.026 15.522-3.814 3.396-1.62 6.329-3.02 11.476-3.02 5.149 0 8.083 1.399 11.479 3.02 3.747 1.788 7.994 3.814 15.522 3.814v-4c-6.568 0-10.033-1.653-13.702-3.403z" fill="#108999" stroke="#000" stroke-width=".75"/><path d="m937.5 626.75v131.721c0 6.481 5.254 11.735 11.736 11.735h44.487c3.467 0 6.277 2.811 6.277 6.277 0-3.467 2.81-6.277 6.278-6.277h44.487c6.481 0 11.735-5.254 11.735-11.735v-131.721zm116.5 123.988c0 5.601-4.539 10.14-10.14 10.14h-38.437c-2.996 0-5.424 2.429-5.424 5.424 0-2.995-2.428-5.424-5.423-5.424h-38.436c-5.6 0-10.14-4.539-10.14-10.14v-115.488h108z" fill="#d22811" stroke="#000" stroke-width="2"/><path d="m992.973 708.983h1.514v17.395h-1.514z" fill="#3c4f1e" stroke="#000" stroke-width=".75" transform="matrix(.7073 .7069 -.7069 .7073 798.2573 -492.4248)"/><path d="m1016.861 665.625c25.582 28.821-17.125 42.875-6.75 46.125s29-13.75 29-25.25-5.304-19.494-9.75-22.875c-2.019-1.535-8.25-4.375-11.125-1.625 0 0-5.852-1.419-1.375 3.625z" fill="#2a6d14" stroke="#000" stroke-width=".75"/><path d="m1018.236 662s33 25.375-9.784 48.625" fill="none" stroke="#000" stroke-width=".75"/><path d="m1024.421 661.292s30.44 30.708-13.335 50.7" fill="none" stroke="#000" stroke-width=".75"/><path d="m1028.328 674.822 1.077-7.022" fill="none" stroke="#000" stroke-width=".75"/><path d="m1026.111 670.625-6.693-1.867" fill="none" stroke="#000" stroke-width=".75"/><path d="m1023.782 667.8 2.329-4.588" fill="none" stroke="#000" stroke-width=".75"/><path d="m1021.434 664.936-5.742-.827" fill="none" stroke="#000" stroke-width=".75"/><path d="m1019.654 663.212 3.111-2.364" fill="none" stroke="#000" stroke-width=".75"/><path d="m1028.867 676.11-6.821-3.323" fill="none" stroke="#000" stroke-width=".75"/><path d="m1029.549 678.143 3.461-3.038" fill="none" stroke="#000" stroke-width=".75"/><path d="m1030.091 680.503-5.485-1.345" fill="none" stroke="#000" stroke-width=".75"/><path d="m1030.384 682.5 4.031-1.997" fill="none" stroke="#000" stroke-width=".75"/><path d="m1030.384 684.625 4.338-.625" fill="none" stroke="#000" stroke-width=".75"/><path d="m1030.091 687.216 4.324.806" fill="none" stroke="#000" stroke-width=".75"/><path d="m1029.405 689.953 2.848 4.554" fill="none" stroke="#000" stroke-width=".75"/><path d="m1028.661 691.892 1.112 6.521" fill="none" stroke="#000" stroke-width=".75"/><path d="m1026.497 695.785.852 5.132" fill="none" stroke="#000" stroke-width=".75"/><path d="m1024.947 697.869v5.597" fill="none" stroke="#000" stroke-width=".75"/><path d="m1023.125 699.934-1.079 5.815" fill="none" stroke="#000" stroke-width=".75"/><path d="m1020.354 702.574-.936 4.953" fill="none" stroke="#000" stroke-width=".75"/><path d="m1017.675 704.75-.987 4.405" fill="none" stroke="#000" stroke-width=".75"/><path d="m1014.573 706.953-.981 3.841" fill="none" stroke="#000" stroke-width=".75"/><path d="m1011.086 711.991 1.095-3.513" fill="none" stroke="#000" stroke-width=".75"/><path d="m1013.082 707.918h-3.334" fill="none" stroke="#000" stroke-width=".75"/><path d="m1015.692 706.19-4.059-.201" fill="none" stroke="#000" stroke-width=".75"/><path d="m1018.563 704.062-4.481-.596" fill="none" stroke="#000" stroke-width=".75"/><path d="m1021.434 701.604-3.97-1.354" fill="none" stroke="#000" stroke-width=".75"/><path d="m1023.782 699.228-2.719-3.443" fill="none" stroke="#000" stroke-width=".75"/><path d="m1025.457 697.227-2.332-5.335" fill="none" stroke="#000" stroke-width=".75"/><path d="m1027.349 694.447-3.407-4.114" fill="none" stroke="#000" stroke-width=".75"/><path d="m1025.033 685.824 4.74 2.862 4.166 1.492" fill="none" stroke="#000" stroke-width=".75"/><path d="m1029.041 690.974-4.435-2.952" fill="none" stroke="#000" stroke-width=".75"/><path d="m1030.384 685.824-5.231-2.488" fill="none" stroke="#000" stroke-width=".75"/><path d="m1030.374 683.336-5.221-1.834" fill="none" stroke="#000" stroke-width=".75"/><path d="m1029.773 678.979-5.831-2.053" fill="none" stroke="#000" stroke-width=".75"/><path d="m1027.349 672.787-5.915-1.476" fill="none" stroke="#000" stroke-width=".75"/><path d="m1023.125 666.789-5.661-.473" fill="none" stroke="#000" stroke-width=".75"/><path d="m1022.046 665.582 2.56-4.097" fill="none" stroke="#000" stroke-width=".75"/><path d="m1026.497 671.381 1.424-5.799" fill="none" stroke="#000" stroke-width=".75"/><path d="m1024.606 668.758 2.603-4.236" fill="none" stroke="#000" stroke-width=".75"/><path d="m1029.217 676.926 2.519-4.877" fill="none" stroke="#000" stroke-width=".75"/><path d="m1030.091 680.503 3.848-2.36" fill="none" stroke="#000" stroke-width=".75"/><path d="m1028.661 666.652 1.302-2.543" fill="none" stroke="#000" stroke-width=".75"/><path d="m1030.829 670.249 1.724-3.597" fill="none" stroke="#000" stroke-width=".75"/><path d="m1032.399 673.537 2.777-2.912" fill="none" stroke="#000" stroke-width=".75"/><path d="m1031.279 671.113 2.928-2.094" fill="none" stroke="#000" stroke-width=".75"/><path d="m1029.773 668.398 1.506-2.892" fill="none" stroke="#000" stroke-width=".75"/><path d="m1033.01 674.822 3.773-.816" fill="none" stroke="#000" stroke-width=".75"/><path d="m1033.518 676.624 4.021-.514" fill="none" stroke="#000" stroke-width=".75"/><path d="m1034.207 679.333 4.325.744" fill="none" stroke="#000" stroke-width=".75"/><path d="m1034.722 682.063 4.28 1.614" fill="none" stroke="#000" stroke-width=".75"/><path d="m1034.722 684.938 4.28 2.278" fill="none" stroke="#000" stroke-width=".75"/><path d="m1034.535 687.216 3.997 2.962" fill="none" stroke="#000" stroke-width=".75"/><path d="m1014.082 711.991 1.305-2.123" fill="none" stroke="#000" stroke-width=".75"/><path d="m1017.182 711.453 1.075-3.21" fill="none" stroke="#000" stroke-width=".75"/><path d="m1021.063 706.441-.354 3.582" fill="none" stroke="#000" stroke-width=".75"/><path d="m1023.782 704.432v3.8" fill="none" stroke="#000" stroke-width=".75"/><path d="m1026.497 702.062 1.553 2.989" fill="none" stroke="#000" stroke-width=".75"/><path d="m1028.881 699.526 3.135 1.626" fill="none" stroke="#000" stroke-width=".75"/><path d="m1025.646 702.842.026 4.111" fill="none" stroke="#000" stroke-width=".75"/><path d="m1027.87 700.667 2.504 2.175" fill="none" stroke="#000" stroke-width=".75"/><path d="m1033.787 690.706 3.752 2.207" fill="none" stroke="#000" stroke-width=".75"/><path d="m1031.279 696.23 3.443 1.277" fill="none" stroke="#000" stroke-width=".75"/><path d="m1032.874 693.193 3.495 1.999" fill="none" stroke="#000" stroke-width=".75"/><path d="m1030.091 697.869 2.909 2.065" fill="none" stroke="#000" stroke-width=".75"/><path d="m1005.513 708.983h1.514v17.395h-1.514z" fill="#3c4f1e" stroke="#000" stroke-width=".75" transform="matrix(-.7074 .7068 -.7068 -.7074 2225.3799 514.1724)"/><path d="m983.139 665.625c-25.582 28.821 17.125 42.875 6.75 46.125s-29-13.75-29-25.25 5.304-19.494 9.75-22.875c2.019-1.535 8.25-4.375 11.125-1.625 0 0 5.852-1.419 1.375 3.625z" fill="#2a6d14" stroke="#000" stroke-width=".75"/><path d="m981.764 662s-33 25.375 9.784 48.625" fill="none" stroke="#000" stroke-width=".75"/><path d="m975.579 661.292s-30.44 30.708 13.335 50.7" fill="none" stroke="#000" stroke-width=".75"/><path d="m971.672 674.822-1.077-7.022" fill="none" stroke="#000" stroke-width=".75"/><path d="m973.889 670.625 6.693-1.867" fill="none" stroke="#000" stroke-width=".75"/><path d="m976.218 667.8-2.329-4.588" fill="none" stroke="#000" stroke-width=".75"/><path d="m978.566 664.936 5.742-.827" fill="none" stroke="#000" stroke-width=".75"/><path d="m980.346 663.212-3.111-2.364" fill="none" stroke="#000" stroke-width=".75"/><path d="m971.133 676.11 6.821-3.323" fill="none" stroke="#000" stroke-width=".75"/><path d="m970.451 678.143-3.461-3.038" fill="none" stroke="#000" stroke-width=".75"/><path d="m969.909 680.503 5.485-1.345" fill="none" stroke="#000" stroke-width=".75"/><path d="m969.616 682.5-4.031-1.997" fill="none" stroke="#000" stroke-width=".75"/><path d="m969.616 684.625-4.338-.625" fill="none" stroke="#000" stroke-width=".75"/><path d="m969.909 687.216-4.324.806" fill="none" stroke="#000" stroke-width=".75"/><path d="m970.595 689.953-2.848 4.554" fill="none" stroke="#000" stroke-width=".75"/><path d="m971.339 691.892-1.112 6.521" fill="none" stroke="#000" stroke-width=".75"/><path d="m973.503 695.785-.852 5.132" fill="none" stroke="#000" stroke-width=".75"/><path d="m975.053 697.869v5.597" fill="none" stroke="#000" stroke-width=".75"/><path d="m976.875 699.934 1.079 5.815" fill="none" stroke="#000" stroke-width=".75"/><path d="m979.646 702.574.936 4.953" fill="none" stroke="#000" stroke-width=".75"/><path d="m982.325 704.75.988 4.405" fill="none" stroke="#000" stroke-width=".75"/><path d="m985.427 706.953.981 3.841" fill="none" stroke="#000" stroke-width=".75"/><path d="m988.914 711.991-1.095-3.513" fill="none" stroke="#000" stroke-width=".75"/><path d="m986.918 707.918h3.334" fill="none" stroke="#000" stroke-width=".75"/><path d="m984.308 706.19 4.059-.201" fill="none" stroke="#000" stroke-width=".75"/><path d="m981.438 704.062 4.48-.596" fill="none" stroke="#000" stroke-width=".75"/><path d="m978.566 701.604 3.97-1.354" fill="none" stroke="#000" stroke-width=".75"/><path d="m976.218 699.228 2.719-3.443" fill="none" stroke="#000" stroke-width=".75"/><path d="m974.543 697.227 2.332-5.335" fill="none" stroke="#000" stroke-width=".75"/><path d="m972.651 694.447 3.407-4.114" fill="none" stroke="#000" stroke-width=".75"/><path d="m974.967 685.824-4.74 2.862-4.166 1.492" fill="none" stroke="#000" stroke-width=".75"/><path d="m970.959 690.974 4.435-2.952" fill="none" stroke="#000" stroke-width=".75"/><path d="m969.616 685.824 5.231-2.488" fill="none" stroke="#000" stroke-width=".75"/><path d="m969.626 683.336 5.221-1.834" fill="none" stroke="#000" stroke-width=".75"/><path d="m970.227 678.979 5.831-2.053" fill="none" stroke="#000" stroke-width=".75"/><path d="m972.651 672.787 5.915-1.476" fill="none" stroke="#000" stroke-width=".75"/><path d="m976.875 666.789 5.661-.473" fill="none" stroke="#000" stroke-width=".75"/><path d="m977.954 665.582-2.56-4.097" fill="none" stroke="#000" stroke-width=".75"/><path d="m973.503 671.381-1.424-5.799" fill="none" stroke="#000" stroke-width=".75"/><path d="m975.394 668.758-2.603-4.236" fill="none" stroke="#000" stroke-width=".75"/><path d="m970.783 676.926-2.519-4.877" fill="none" stroke="#000" stroke-width=".75"/><path d="m969.909 680.503-3.848-2.36" fill="none" stroke="#000" stroke-width=".75"/><path d="m971.339 666.652-1.302-2.543" fill="none" stroke="#000" stroke-width=".75"/><path d="m969.171 670.249-1.724-3.597" fill="none" stroke="#000" stroke-width=".75"/><path d="m967.601 673.537-2.777-2.912" fill="none" stroke="#000" stroke-width=".75"/><path d="m968.721 671.113-2.928-2.094" fill="none" stroke="#000" stroke-width=".75"/><path d="m970.227 668.398-1.506-2.892" fill="none" stroke="#000" stroke-width=".75"/><path d="m966.99 674.822-3.773-.816" fill="none" stroke="#000" stroke-width=".75"/><path d="m966.482 676.624-4.021-.514" fill="none" stroke="#000" stroke-width=".75"/><path d="m965.793 679.333-4.325.744" fill="none" stroke="#000" stroke-width=".75"/><path d="m965.278 682.063-4.28 1.614" fill="none" stroke="#000" stroke-width=".75"/><path d="m965.278 684.938-4.28 2.278" fill="none" stroke="#000" stroke-width=".75"/><path d="m965.465 687.216-3.997 2.962" fill="none" stroke="#000" stroke-width=".75"/><path d="m985.918 711.991-1.305-2.123" fill="none" stroke="#000" stroke-width=".75"/><path d="m982.818 711.453-1.075-3.21" fill="none" stroke="#000" stroke-width=".75"/><path d="m978.937 706.441.354 3.582" fill="none" stroke="#000" stroke-width=".75"/><path d="m976.218 704.432v3.8" fill="none" stroke="#000" stroke-width=".75"/><path d="m973.503 702.062-1.553 2.989" fill="none" stroke="#000" stroke-width=".75"/><path d="m971.119 699.526-3.135 1.626" fill="none" stroke="#000" stroke-width=".75"/><path d="m974.354 702.842-.026 4.111" fill="none" stroke="#000" stroke-width=".75"/><path d="m972.13 700.667-2.504 2.175" fill="none" stroke="#000" stroke-width=".75"/><path d="m966.213 690.706-3.752 2.207" fill="none" stroke="#000" stroke-width=".75"/><path d="m968.721 696.23-3.443 1.277" fill="none" stroke="#000" stroke-width=".75"/><path d="m967.126 693.193-3.495 1.999" fill="none" stroke="#000" stroke-width=".75"/><path d="m969.909 697.869-2.909 2.065" fill="none" stroke="#000" stroke-width=".75"/><path d="m1000 714.875s9.875 2.75 16.375.375 11.75-2.75 11.75-2.75l-4.125-4.625c-5.125-.25-17.25 3.25-24 3.125-6.75.125-18.875-3.375-24-3.125l-4.125 4.625s5.25.375 11.75 2.75 16.375-.375 16.375-.375z" fill="#ad3906" stroke="#000" stroke-width=".75"/><path d="m1000.001 717.125s-6.046-9.25-.001-9.25.001 9.25.001 9.25z" fill="#ad3906" stroke="#000" stroke-width=".75"/></g><path d="m1092.009 675.217.001 1.5c6.852.001 7.173 11.536 7.175 11.651l.013.657.491.436c1.697 1.509 2.189 8.205 1.998 12.478l-.018.373.161.338c1.811 3.81 2.207 6.71 1.147 8.387-1.196 1.893-4.227 2.289-6.558 2.289-2.68 0-5.048-.527-5.07-.532l-.313-.07-.313.063c-.05.01-5.039.997-9.588.997-4.836 0-5.979-1.117-6.215-1.459-3.105-4.517-.455-7.618-.151-7.948l.356-.373.051-.513c.704-7.038 5.961-15.165 6.014-15.246l.132-.202.062-.232c.619-2.326 3.058-8.7 6.865-10.246 1.382-.561 2.646-.846 3.76-.846zm.002 0c-1.253 0-2.686.29-4.326.956-5.334 2.167-7.75 11.25-7.75 11.25s-5.5 8.417-6.25 15.917c0 0-3.93 4.117 0 9.833 1.118 1.627 4.195 2.109 7.451 2.109 4.75 0 9.882-1.026 9.882-1.026s2.507.569 5.402.569c5.316 0 11.944-1.921 6.765-12.819 0 0 .5-11-2.5-13.666 0 0-.249-13.121-8.674-13.123z" fill="#3f3815"/><path d="m1103.185 702.006s.5-11-2.5-13.666c0 0-.327-17.314-13-12.167-1.963.797-3.528 2.533-4.726 4.407l1.694-.336.217.979-2.601.515c-.438.796-.809 1.581-1.122 2.309l3.506-.695.217.979-4.176.828c-.48 1.254-.724 2.133-.751 2.234l4.71-.934.217.979-5.628 1.115c-.349.59-.801 1.387-1.306 2.345l5.599-1.109c-.194.349-.4.734-.616 1.144l-5.563 1.103c-.354.713-.715 1.482-1.071 2.298l5.489-1.088c-.169.364-.336.737-.504 1.122l-5.454 1.081c-.296.73-.583 1.48-.843 2.253l5.382-1.067c-.134.363-.268.728-.392 1.099l-5.331 1.057c-.218.728-.405 1.462-.563 2.198l5.244-1.039c-.091.356-.174.713-.25 1.071l-5.202 1.031c-.072.432-.134.862-.177 1.289 0 0-.326.35-.695.97l5.718-1.133c-.006.054-.017.109-.022.163 0 0-.339.361-.716 1.004l-5.531 1.097c-.237.613-.428 1.346-.481 2.18l5.143-1.019c-.069.33-.12.679-.143 1.05l-4.985.988c.047.625.183 1.295.426 2.002l4.733-.938c.068.313.161.636.276.967l-4.623.916c.242.515.526 1.041.901 1.587.066.098.146.187.227.276l4.406-.873c.12.198.228.394.367.597.073.106.159.205.248.303l-3.932.779c4.485 2.305 16.017.001 16.017.001s20.167 4.581 12.167-12.252zm-8.479 8.244c-.715.22-1.449.355-2.188.428v.912c0 .553-.447 1-1 1s-1-.447-1-1v-.862c-.063-.002-.125 0-.188-.003-1.462-.098-2.899-.369-4.271-.827-1.37-.452-2.696-1.047-3.874-1.891 1.415.27 2.784.533 4.151.759 1.367.21 2.724.4 4.079.462.034.002.068 0 .103.002v-5.479c-1.065-.089-2.113-.322-3.098-.707-1.06-.411-2.073-.963-2.902-1.753 2.085.445 4.033.819 6 .958v-5.375c-.529-.058-1.055-.148-1.56-.314-.794-.255-1.568-.623-2.19-1.218 1.339.026 2.549.08 3.75.096v-5.343c-.457-.075-.91-.174-1.349-.329-.668-.229-1.319-.531-1.901-1.007 1.151-.18 2.211-.163 3.25-.107v-3.144c-.089-.03-.182-.047-.268-.087-.393-.176-1.766-.43-2.024-.828.48-.079 1.898-.112 2.292-.127v-.79c0-.552.447-1 1-1s1 .448 1 1v.804c.389.017 1.802.046 2.292.114-.249.4-1.617.671-2.019.847-.088.041-.183.056-.273.086v3.289c.262.026.525.045.788.076l2.045.203c-.544.524-1.262.811-1.967.965-.287.068-.577.098-.866.124v5.244l1.183-.021c.768-.032 1.546-.075 2.4-.061-.636.571-1.395.953-2.19 1.213-.452.149-.92.243-1.393.305v5.451c.483-.008.967-.027 1.454-.067 1.048-.087 2.092-.278 3.213-.485-1.267 1.146-2.945 1.782-4.667 1.974v5.529c.647-.021 1.292-.069 1.935-.152 1.338-.185 2.652-.54 3.982-1.101-.971 1.072-2.315 1.816-3.729 2.237z" fill="#3f3815"/><path d="m915.01 675.217.001 1.5c6.851.001 7.172 11.536 7.175 11.651l.012.657.491.436c1.698 1.509 2.19 8.205 1.998 12.478l-.017.373.16.338c1.811 3.81 2.208 6.71 1.147 8.387-1.196 1.893-4.226 2.289-6.558 2.289-2.679 0-5.047-.527-5.069-.532l-.313-.07-.314.063c-.05.01-5.039.997-9.587.997-4.836 0-5.98-1.117-6.215-1.459-3.104-4.517-.455-7.618-.151-7.948l.356-.373.051-.513c.704-7.038 5.96-15.165 6.013-15.246l.132-.202.062-.232c.619-2.326 3.058-8.7 6.865-10.246 1.382-.561 2.647-.846 3.76-.846v-1.502m.002 0c-1.252 0-2.685.29-4.326.956-5.334 2.167-7.75 11.25-7.75 11.25s-5.5 8.417-6.25 15.917c0 0-3.93 4.117 0 9.833 1.119 1.627 4.195 2.109 7.451 2.109 4.75 0 9.882-1.026 9.882-1.026s2.507.569 5.402.569c5.317 0 11.945-1.921 6.765-12.819 0 0 .5-11-2.5-13.666 0 0-.249-13.121-8.674-13.123z" fill="#3f3815"/><path d="m926.185 702.006s.5-11-2.5-13.666c0 0-.327-17.314-13-12.167-1.963.797-3.528 2.533-4.726 4.407l1.694-.336.217.979-2.601.515c-.438.796-.809 1.581-1.122 2.309l3.506-.695.217.979-4.176.828c-.48 1.254-.724 2.133-.751 2.234l4.71-.934.217.979-5.628 1.115c-.349.59-.801 1.387-1.306 2.345l5.599-1.109c-.194.349-.4.734-.616 1.144l-5.563 1.103c-.354.713-.715 1.482-1.071 2.298l5.489-1.088c-.169.364-.336.737-.504 1.122l-5.454 1.081c-.296.73-.583 1.48-.843 2.253l5.382-1.067c-.134.363-.268.728-.392 1.099l-5.331 1.057c-.218.728-.405 1.462-.563 2.198l5.244-1.039c-.091.356-.174.713-.25 1.071l-5.202 1.031c-.072.432-.134.862-.177 1.289 0 0-.326.35-.695.97l5.718-1.133c-.006.054-.017.109-.022.163 0 0-.339.361-.716 1.004l-5.531 1.097c-.237.613-.428 1.346-.481 2.18l5.143-1.019c-.069.33-.12.679-.143 1.05l-4.985.988c.047.625.183 1.295.426 2.002l4.733-.938c.068.313.161.636.276.967l-4.623.916c.242.515.526 1.041.901 1.587.066.098.146.187.227.276l4.406-.873c.12.198.228.394.367.597.073.106.159.205.248.303l-3.932.779c4.485 2.305 16.017.001 16.017.001s20.167 4.581 12.167-12.252zm-8.478 8.244c-.715.22-1.449.355-2.188.428v.912c0 .553-.447 1-1 1s-1-.447-1-1v-.862c-.063-.002-.125 0-.188-.003-1.462-.098-2.899-.369-4.271-.827-1.37-.452-2.696-1.047-3.874-1.891 1.415.27 2.784.533 4.151.759 1.367.21 2.724.4 4.079.462.034.002.068 0 .103.002v-5.479c-1.065-.089-2.113-.322-3.098-.707-1.06-.411-2.073-.963-2.902-1.753 2.085.445 4.033.819 6 .958v-5.375c-.529-.058-1.055-.148-1.56-.314-.794-.255-1.568-.623-2.19-1.218 1.339.026 2.549.08 3.75.096v-5.343c-.457-.075-.91-.174-1.349-.329-.668-.229-1.319-.531-1.901-1.007 1.151-.18 2.211-.163 3.25-.107v-3.144c-.089-.03-.182-.047-.268-.087-.393-.176-1.766-.43-2.024-.828.48-.079 1.898-.112 2.292-.127v-.79c0-.552.447-1 1-1s1 .448 1 1v.804c.389.017 1.802.046 2.292.114-.249.4-1.617.671-2.019.847-.088.041-.183.056-.273.086v3.289c.262.026.525.045.788.076l2.045.203c-.544.524-1.262.811-1.967.965-.287.068-.577.098-.866.124v5.244l1.183-.021c.768-.032 1.546-.075 2.4-.061-.636.571-1.395.953-2.19 1.213-.452.149-.92.243-1.393.305v5.451c.483-.008.967-.027 1.454-.067 1.048-.087 2.092-.278 3.213-.485-1.267 1.146-2.945 1.782-4.667 1.974v5.529c.647-.021 1.292-.069 1.935-.152 1.338-.185 2.652-.54 3.982-1.101-.972 1.072-2.315 1.816-3.729 2.237z" fill="#3f3815"/><path d="m1092.01 777.2.001 1.5c6.851.001 7.172 11.535 7.174 11.65l.013.656.49.437c1.698 1.509 2.19 8.205 1.999 12.479l-.018.373.161.338c1.811 3.81 2.207 6.71 1.147 8.387-1.196 1.893-4.227 2.289-6.558 2.289-2.68 0-5.048-.527-5.07-.532l-.313-.071-.313.063c-.05.01-5.039.997-9.588.997-4.836 0-5.979-1.117-6.215-1.459-3.105-4.517-.455-7.618-.151-7.947l.356-.374.051-.513c.704-7.038 5.961-15.165 6.014-15.246l.132-.202.062-.232c.619-2.326 3.058-8.7 6.865-10.246 1.382-.562 2.647-.846 3.761-.846zm.001 0c-1.253 0-2.686.29-4.326.956-5.334 2.166-7.75 11.25-7.75 11.25s-5.5 8.417-6.25 15.917c0 0-3.93 4.117 0 9.833 1.118 1.627 4.195 2.109 7.451 2.109 4.75 0 9.882-1.026 9.882-1.026s2.507.569 5.402.569c5.316 0 11.944-1.921 6.765-12.819 0 0 .5-11-2.5-13.667 0 0-.249-13.121-8.674-13.122z" fill="#3f3815"/><path d="m1103.185 803.989s.5-11-2.5-13.667c0 0-.327-17.313-13-12.166-1.963.797-3.528 2.533-4.726 4.407l1.694-.336.217.979-2.601.515c-.438.797-.809 1.581-1.122 2.31l3.506-.694.217.979-4.176.827c-.48 1.255-.724 2.133-.751 2.233l4.71-.934.217.979-5.628 1.115c-.349.591-.801 1.388-1.306 2.346l5.599-1.109c-.194.35-.4.734-.616 1.144l-5.563 1.103c-.354.713-.715 1.482-1.071 2.299l5.489-1.088c-.169.363-.336.736-.504 1.121l-5.454 1.081c-.296.73-.583 1.48-.843 2.253l5.382-1.066c-.134.363-.268.728-.392 1.099l-5.331 1.057c-.218.728-.405 1.462-.563 2.198l5.244-1.039c-.091.356-.174.713-.25 1.071l-5.202 1.031c-.072.432-.134.862-.177 1.289 0 0-.326.35-.695.97l5.718-1.133c-.006.054-.017.109-.022.163 0 0-.339.361-.716 1.004l-5.531 1.097c-.237.613-.428 1.346-.481 2.18l5.143-1.019c-.069.33-.12.679-.143 1.05l-4.985.988c.047.625.183 1.295.426 2.002l4.733-.938c.068.313.161.636.276.967l-4.623.916c.242.515.526 1.041.901 1.587.066.098.146.187.227.276l4.406-.873c.12.198.228.394.367.597.073.106.159.205.248.303l-3.932.779c4.485 2.305 16.017.001 16.017.001s20.167 4.579 12.167-12.254zm-8.479 8.244c-.715.22-1.449.355-2.188.428v.912c0 .553-.447 1-1 1s-1-.447-1-1v-.862c-.063-.002-.125 0-.188-.003-1.462-.098-2.899-.369-4.271-.827-1.37-.452-2.696-1.047-3.874-1.891 1.415.27 2.784.533 4.151.759 1.367.21 2.724.4 4.079.462.034.002.068 0 .103.002v-5.479c-1.065-.089-2.113-.322-3.098-.707-1.06-.411-2.073-.963-2.902-1.753 2.085.445 4.033.819 6 .958v-5.376c-.529-.057-1.055-.147-1.56-.314-.794-.254-1.568-.623-2.19-1.217 1.339.025 2.549.08 3.75.096v-5.344c-.457-.075-.91-.174-1.349-.328-.668-.229-1.319-.531-1.901-1.008 1.151-.18 2.211-.163 3.25-.107v-3.144c-.089-.03-.182-.048-.268-.087-.393-.176-1.766-.43-2.024-.828.48-.079 1.898-.112 2.292-.128v-.79c0-.553.447-1 1-1s1 .447 1 1v.804c.389.017 1.802.046 2.292.114-.249.4-1.617.67-2.019.846-.088.041-.183.057-.273.086v3.289c.262.025.525.045.788.076l2.045.203c-.544.523-1.262.811-1.967.965-.287.067-.577.098-.866.123v5.244l1.183-.021c.768-.031 1.546-.075 2.4-.061-.636.57-1.395.953-2.19 1.213-.452.148-.92.242-1.393.305v5.451c.483-.008.967-.027 1.454-.067 1.048-.087 2.092-.278 3.213-.485-1.267 1.146-2.945 1.782-4.667 1.974v5.529c.647-.021 1.292-.069 1.935-.152 1.338-.185 2.652-.54 3.982-1.101-.971 1.076-2.315 1.821-3.729 2.241z" fill="#3f3815"/><path d="m1003.51 777.2.001 1.5c6.851.001 7.172 11.535 7.174 11.65l.013.656.49.437c1.698 1.509 2.19 8.205 1.999 12.479l-.018.373.161.338c1.811 3.81 2.207 6.71 1.147 8.387-1.196 1.893-4.227 2.289-6.558 2.289-2.68 0-5.048-.527-5.07-.532l-.313-.071-.313.063c-.05.01-5.04.997-9.587.997-4.836 0-5.98-1.117-6.215-1.459-3.104-4.517-.455-7.618-.151-7.947l.356-.374.051-.513c.704-7.038 5.96-15.165 6.013-15.246l.131-.202.062-.231c.623-2.328 3.071-8.706 6.865-10.247 1.381-.562 2.647-.846 3.76-.846v-1.501m.003 0c-1.253 0-2.685.29-4.326.956-5.334 2.166-7.75 11.25-7.75 11.25s-5.5 8.417-6.25 15.917c0 0-3.93 4.117 0 9.833 1.119 1.627 4.195 2.109 7.451 2.109 4.749 0 9.881-1.026 9.881-1.026s2.507.569 5.402.569c5.316 0 11.944-1.921 6.765-12.819 0 0 .5-11-2.5-13.667.001 0-.248-13.121-8.673-13.122z" fill="#3f3815"/><path d="m1014.685 803.989s.5-11-2.5-13.667c0 0-.327-17.313-13-12.166-1.963.797-3.528 2.533-4.726 4.407l1.694-.336.217.979-2.601.515c-.438.797-.809 1.581-1.122 2.31l3.506-.694.217.979-4.176.827c-.48 1.255-.724 2.133-.751 2.233l4.71-.934.217.979-5.628 1.115c-.349.591-.801 1.388-1.306 2.346l5.599-1.109c-.194.35-.4.734-.616 1.144l-5.563 1.103c-.354.713-.715 1.482-1.071 2.299l5.489-1.088c-.169.363-.336.736-.504 1.121l-5.454 1.081c-.296.73-.583 1.48-.843 2.253l5.382-1.066c-.134.363-.268.728-.392 1.099l-5.331 1.057c-.218.728-.405 1.462-.563 2.198l5.244-1.039c-.091.356-.174.713-.25 1.071l-5.202 1.031c-.072.432-.134.862-.177 1.289 0 0-.326.35-.695.97l5.718-1.133c-.006.054-.017.109-.022.163 0 0-.339.361-.716 1.004l-5.531 1.097c-.237.613-.428 1.346-.481 2.18l5.143-1.019c-.069.33-.12.679-.143 1.05l-4.985.988c.047.625.183 1.295.426 2.002l4.733-.938c.068.313.161.636.276.967l-4.623.916c.242.515.526 1.041.901 1.587.066.098.146.187.227.276l4.406-.873c.12.198.228.394.367.597.073.106.159.205.248.303l-3.932.779c4.485 2.305 16.016.001 16.016.001s20.168 4.579 12.168-12.254zm-8.479 8.244c-.715.22-1.449.355-2.188.428v.912c0 .553-.447 1-1 1s-1-.447-1-1v-.862c-.063-.002-.125 0-.188-.003-1.461-.098-2.899-.369-4.271-.827-1.37-.452-2.696-1.047-3.874-1.891 1.415.27 2.784.533 4.151.759 1.367.21 2.724.4 4.079.462.034.002.068 0 .103.002v-5.479c-1.065-.089-2.113-.322-3.097-.707-1.06-.411-2.073-.963-2.902-1.753 2.085.445 4.033.819 6 .958v-5.376c-.529-.057-1.054-.147-1.559-.314-.794-.254-1.568-.623-2.19-1.217 1.339.025 2.549.08 3.75.096v-5.344c-.457-.075-.91-.174-1.348-.328-.668-.229-1.319-.531-1.901-1.008 1.151-.18 2.211-.163 3.25-.107v-3.144c-.089-.03-.182-.048-.268-.087-.393-.176-1.765-.43-2.024-.828.48-.079 1.898-.112 2.292-.128v-.79c0-.553.447-1 1-1s1 .447 1 1v.804c.389.017 1.802.046 2.292.114-.249.4-1.617.67-2.019.846-.088.041-.183.057-.273.086v3.289c.262.025.525.045.788.076l2.045.203c-.544.523-1.262.811-1.967.965-.287.067-.577.098-.866.123v5.244l1.183-.021c.768-.031 1.546-.075 2.4-.061-.636.57-1.395.953-2.19 1.213-.452.148-.92.242-1.393.305v5.451c.483-.008.967-.027 1.454-.067 1.048-.087 2.092-.278 3.213-.485-1.267 1.146-2.945 1.782-4.667 1.974v5.529c.647-.021 1.292-.069 1.935-.152 1.338-.185 2.652-.54 3.982-1.101-.974 1.076-2.318 1.821-3.732 2.241z" fill="#3f3815"/><path d="m915.01 777.2.001 1.5c6.851.001 7.172 11.535 7.175 11.65l.012.656.491.437c1.698 1.509 2.19 8.205 1.998 12.479l-.017.373.16.338c1.811 3.81 2.208 6.71 1.147 8.387-1.196 1.893-4.226 2.289-6.558 2.289-2.679 0-5.047-.527-5.069-.532l-.313-.071-.314.063c-.05.01-5.039.997-9.587.997-4.836 0-5.98-1.117-6.215-1.459-3.104-4.517-.455-7.618-.151-7.947l.356-.374.051-.513c.704-7.038 5.96-15.165 6.013-15.246l.132-.202.062-.232c.619-2.326 3.058-8.7 6.865-10.246 1.382-.562 2.647-.846 3.76-.846v-1.501m.002 0c-1.253 0-2.686.29-4.326.956-5.334 2.166-7.75 11.25-7.75 11.25s-5.5 8.417-6.25 15.917c0 0-3.93 4.117 0 9.833 1.119 1.627 4.195 2.109 7.451 2.109 4.75 0 9.882-1.026 9.882-1.026s2.507.569 5.402.569c5.317 0 11.945-1.921 6.765-12.819 0 0 .5-11-2.5-13.667 0 0-.249-13.121-8.674-13.122z" fill="#3f3815"/><path d="m926.185 803.989s.5-11-2.5-13.667c0 0-.327-17.313-13-12.166-1.963.797-3.528 2.533-4.726 4.407l1.694-.336.217.979-2.601.515c-.438.797-.809 1.581-1.122 2.31l3.506-.694.217.979-4.176.827c-.48 1.255-.724 2.133-.751 2.233l4.71-.934.217.979-5.628 1.115c-.349.591-.801 1.388-1.306 2.346l5.599-1.109c-.194.35-.4.734-.616 1.144l-5.563 1.103c-.354.713-.715 1.482-1.071 2.299l5.489-1.088c-.169.363-.336.736-.504 1.121l-5.454 1.081c-.296.73-.583 1.48-.843 2.253l5.382-1.066c-.134.363-.268.728-.392 1.099l-5.331 1.057c-.218.728-.405 1.462-.563 2.198l5.244-1.039c-.091.356-.174.713-.25 1.071l-5.202 1.031c-.072.432-.134.862-.177 1.289 0 0-.326.35-.695.97l5.718-1.133c-.006.054-.017.109-.022.163 0 0-.339.361-.716 1.004l-5.531 1.097c-.237.613-.428 1.346-.481 2.18l5.143-1.019c-.069.33-.12.679-.143 1.05l-4.985.988c.047.625.183 1.295.426 2.002l4.733-.938c.068.313.161.636.276.967l-4.623.916c.242.515.526 1.041.901 1.587.066.098.146.187.227.276l4.406-.873c.12.198.228.394.367.597.073.106.159.205.248.303l-3.932.779c4.485 2.305 16.017.001 16.017.001s20.167 4.579 12.167-12.254zm-8.478 8.244c-.715.22-1.449.355-2.188.428v.912c0 .553-.447 1-1 1s-1-.447-1-1v-.862c-.063-.002-.125 0-.188-.003-1.462-.098-2.899-.369-4.271-.827-1.37-.452-2.696-1.047-3.874-1.891 1.415.27 2.784.533 4.151.759 1.367.21 2.724.4 4.079.462.034.002.068 0 .103.002v-5.479c-1.065-.089-2.113-.322-3.098-.707-1.06-.411-2.073-.963-2.902-1.753 2.085.445 4.033.819 6 .958v-5.376c-.529-.057-1.055-.147-1.56-.314-.794-.254-1.568-.623-2.19-1.217 1.339.025 2.549.08 3.75.096v-5.344c-.457-.075-.91-.174-1.349-.328-.668-.229-1.319-.531-1.901-1.008 1.151-.18 2.211-.163 3.25-.107v-3.144c-.089-.03-.182-.048-.268-.087-.393-.176-1.766-.43-2.024-.828.48-.079 1.898-.112 2.292-.128v-.79c0-.553.447-1 1-1s1 .447 1 1v.804c.389.017 1.802.046 2.292.114-.249.4-1.617.67-2.019.846-.088.041-.183.057-.273.086v3.289c.262.025.525.045.788.076l2.045.203c-.544.523-1.262.811-1.967.965-.287.067-.577.098-.866.123v5.244l1.183-.021c.768-.031 1.546-.075 2.4-.061-.636.57-1.395.953-2.19 1.213-.452.148-.92.242-1.393.305v5.451c.483-.008.967-.027 1.454-.067 1.048-.087 2.092-.278 3.213-.485-1.267 1.146-2.945 1.782-4.667 1.974v5.529c.647-.021 1.292-.069 1.935-.152 1.338-.185 2.652-.54 3.982-1.101-.972 1.076-2.315 1.821-3.729 2.241z" fill="#3f3815"/><path d="m1092.01 580.717.001 1.5c6.851.001 7.172 11.536 7.174 11.65l.013.657.49.436c1.698 1.509 2.19 8.205 1.999 12.478l-.018.374.161.338c1.811 3.809 2.207 6.709 1.147 8.386-1.196 1.892-4.227 2.29-6.558 2.29-2.68 0-5.048-.527-5.07-.533l-.313-.071-.313.063c-.05.01-5.039.998-9.588.998-4.836 0-5.979-1.117-6.215-1.459-3.105-4.516-.455-7.618-.151-7.948l.356-.373.051-.513c.704-7.039 5.961-15.165 6.014-15.247l.132-.202.062-.232c.619-2.326 3.058-8.7 6.865-10.246 1.382-.561 2.647-.846 3.761-.846zm.001 0c-1.253 0-2.686.29-4.326.956-5.334 2.166-7.75 11.25-7.75 11.25s-5.5 8.417-6.25 15.917c0 0-3.93 4.117 0 9.833 1.118 1.627 4.195 2.11 7.451 2.11 4.75 0 9.882-1.027 9.882-1.027s2.507.57 5.402.57c5.316 0 11.944-1.921 6.765-12.82 0 0 .5-11-2.5-13.667 0 0-.249-13.121-8.674-13.122z" fill="#3f3815"/><path d="m1103.185 607.506s.5-11-2.5-13.667c0 0-.327-17.313-13-12.166-1.963.797-3.528 2.533-4.726 4.407l1.694-.336.217.979-2.601.515c-.438.797-.809 1.581-1.122 2.31l3.506-.694.217.979-4.176.827c-.48 1.255-.724 2.133-.751 2.233l4.71-.934.217.979-5.628 1.115c-.349.591-.801 1.388-1.306 2.346l5.599-1.109c-.194.35-.4.734-.616 1.144l-5.563 1.103c-.354.713-.715 1.482-1.071 2.299l5.489-1.088c-.169.363-.336.736-.504 1.121l-5.454 1.081c-.296.73-.583 1.48-.843 2.253l5.382-1.066c-.134.363-.268.728-.392 1.099l-5.331 1.057c-.218.728-.405 1.462-.563 2.198l5.244-1.039c-.091.356-.174.713-.25 1.071l-5.202 1.031c-.072.432-.134.862-.177 1.289 0 0-.326.35-.695.97l5.718-1.133c-.006.054-.017.109-.022.163 0 0-.339.361-.716 1.004l-5.531 1.097c-.237.613-.428 1.346-.481 2.18l5.143-1.019c-.069.33-.12.679-.143 1.05l-4.985.988c.047.625.183 1.295.426 2.002l4.733-.938c.068.313.161.636.276.967l-4.623.916c.242.515.526 1.041.901 1.587.066.098.146.187.227.276l4.406-.873c.12.198.228.394.367.597.073.106.159.205.248.303l-3.932.779c4.485 2.305 16.017.001 16.017.001s20.167 4.579 12.167-12.254zm-8.479 8.244c-.715.22-1.449.355-2.188.428v.912c0 .553-.447 1-1 1s-1-.447-1-1v-.862c-.063-.002-.125 0-.188-.003-1.462-.098-2.899-.369-4.271-.827-1.37-.452-2.696-1.047-3.874-1.891 1.415.27 2.784.533 4.151.759 1.367.21 2.724.4 4.079.462.034.002.068 0 .103.002v-5.479c-1.065-.089-2.113-.322-3.098-.707-1.06-.411-2.073-.963-2.902-1.753 2.085.445 4.033.819 6 .958v-5.376c-.529-.057-1.055-.147-1.56-.314-.794-.254-1.568-.623-2.19-1.217 1.339.025 2.549.08 3.75.096v-5.344c-.457-.075-.91-.174-1.349-.328-.668-.229-1.319-.531-1.901-1.008 1.151-.18 2.211-.163 3.25-.107v-3.144c-.089-.03-.182-.048-.268-.087-.393-.176-1.766-.43-2.024-.828.48-.079 1.898-.112 2.292-.128v-.79c0-.553.447-1 1-1s1 .447 1 1v.804c.389.017 1.802.046 2.292.114-.249.4-1.617.67-2.019.846-.088.041-.183.057-.273.086v3.289c.262.025.525.045.788.076l2.045.203c-.544.523-1.262.811-1.967.965-.287.067-.577.098-.866.123v5.244l1.183-.021c.768-.031 1.546-.075 2.4-.061-.636.57-1.395.953-2.19 1.213-.452.148-.92.242-1.393.305v5.451c.483-.008.967-.027 1.454-.067 1.048-.087 2.092-.278 3.213-.485-1.267 1.146-2.945 1.782-4.667 1.974v5.529c.647-.021 1.292-.069 1.935-.152 1.338-.185 2.652-.54 3.982-1.101-.971 1.076-2.315 1.821-3.729 2.241z" fill="#3f3815"/><path d="m1003.51 580.717.001 1.5c6.851.001 7.172 11.536 7.174 11.65l.013.657.49.436c1.698 1.509 2.19 8.205 1.999 12.478l-.018.374.161.338c1.811 3.809 2.207 6.709 1.147 8.386-1.196 1.892-4.227 2.29-6.558 2.29-2.68 0-5.048-.527-5.07-.533l-.313-.071-.313.063c-.05.01-5.04.998-9.587.998-4.836 0-5.98-1.117-6.215-1.459-3.104-4.516-.455-7.618-.151-7.948l.356-.373.051-.513c.704-7.039 5.96-15.165 6.013-15.247l.131-.202.062-.231c.623-2.328 3.071-8.707 6.865-10.247 1.381-.561 2.647-.846 3.76-.846v-1.5m.003 0c-1.253 0-2.685.29-4.326.956-5.334 2.166-7.75 11.25-7.75 11.25s-5.5 8.417-6.25 15.917c0 0-3.93 4.117 0 9.833 1.119 1.627 4.195 2.11 7.451 2.11 4.749 0 9.881-1.027 9.881-1.027s2.507.57 5.402.57c5.316 0 11.944-1.921 6.765-12.82 0 0 .5-11-2.5-13.667.001 0-.248-13.121-8.673-13.122z" fill="#3f3815"/><path d="m1014.685 607.506s.5-11-2.5-13.667c0 0-.327-17.313-13-12.166-1.963.797-3.528 2.533-4.726 4.407l1.694-.336.217.979-2.601.515c-.438.797-.809 1.581-1.122 2.31l3.506-.694.217.979-4.176.827c-.48 1.255-.724 2.133-.751 2.233l4.71-.934.217.979-5.628 1.115c-.349.591-.801 1.388-1.306 2.346l5.599-1.109c-.194.35-.4.734-.616 1.144l-5.563 1.103c-.354.713-.715 1.482-1.071 2.299l5.489-1.088c-.169.363-.336.736-.504 1.121l-5.454 1.081c-.296.73-.583 1.48-.843 2.253l5.382-1.066c-.134.363-.268.728-.392 1.099l-5.331 1.057c-.218.728-.405 1.462-.563 2.198l5.244-1.039c-.091.356-.174.713-.25 1.071l-5.202 1.031c-.072.432-.134.862-.177 1.289 0 0-.326.35-.695.97l5.718-1.133c-.006.054-.017.109-.022.163 0 0-.339.361-.716 1.004l-5.531 1.097c-.237.613-.428 1.346-.481 2.18l5.143-1.019c-.069.33-.12.679-.143 1.05l-4.985.988c.047.625.183 1.295.426 2.002l4.733-.938c.068.313.161.636.276.967l-4.623.916c.242.515.526 1.041.901 1.587.066.098.146.187.227.276l4.406-.873c.12.198.228.394.367.597.073.106.159.205.248.303l-3.932.779c4.485 2.305 16.016.001 16.016.001s20.168 4.579 12.168-12.254zm-8.479 8.244c-.715.22-1.449.355-2.188.428v.912c0 .553-.447 1-1 1s-1-.447-1-1v-.862c-.063-.002-.125 0-.188-.003-1.461-.098-2.899-.369-4.271-.827-1.37-.452-2.696-1.047-3.874-1.891 1.415.27 2.784.533 4.151.759 1.367.21 2.724.4 4.079.462.034.002.068 0 .103.002v-5.479c-1.065-.089-2.113-.322-3.097-.707-1.06-.411-2.073-.963-2.902-1.753 2.085.445 4.033.819 6 .958v-5.376c-.529-.057-1.054-.147-1.559-.314-.794-.254-1.568-.623-2.19-1.217 1.339.025 2.549.08 3.75.096v-5.344c-.457-.075-.91-.174-1.348-.328-.668-.229-1.319-.531-1.901-1.008 1.151-.18 2.211-.163 3.25-.107v-3.144c-.089-.03-.182-.048-.268-.087-.393-.176-1.765-.43-2.024-.828.48-.079 1.898-.112 2.292-.128v-.79c0-.553.447-1 1-1s1 .447 1 1v.804c.389.017 1.802.046 2.292.114-.249.4-1.617.67-2.019.846-.088.041-.183.057-.273.086v3.289c.262.025.525.045.788.076l2.045.203c-.544.523-1.262.811-1.967.965-.287.067-.577.098-.866.123v5.244l1.183-.021c.768-.031 1.546-.075 2.4-.061-.636.57-1.395.953-2.19 1.213-.452.148-.92.242-1.393.305v5.451c.483-.008.967-.027 1.454-.067 1.048-.087 2.092-.278 3.213-.485-1.267 1.146-2.945 1.782-4.667 1.974v5.529c.647-.021 1.292-.069 1.935-.152 1.338-.185 2.652-.54 3.982-1.101-.974 1.076-2.318 1.821-3.732 2.241z" fill="#3f3815"/><path d="m915.01 580.717.001 1.5c6.851.001 7.172 11.536 7.175 11.65l.012.657.491.436c1.698 1.509 2.19 8.205 1.998 12.478l-.017.374.16.338c1.811 3.809 2.208 6.709 1.147 8.386-1.196 1.892-4.226 2.29-6.558 2.29-2.679 0-5.047-.527-5.069-.533l-.313-.071-.314.063c-.05.01-5.039.998-9.587.998-4.836 0-5.98-1.117-6.215-1.459-3.104-4.516-.455-7.618-.151-7.948l.356-.373.051-.513c.704-7.039 5.96-15.165 6.013-15.247l.132-.202.062-.232c.619-2.326 3.058-8.7 6.865-10.246 1.382-.561 2.647-.846 3.76-.846v-1.5m.002 0c-1.253 0-2.686.29-4.326.956-5.334 2.166-7.75 11.25-7.75 11.25s-5.5 8.417-6.25 15.917c0 0-3.93 4.117 0 9.833 1.119 1.627 4.195 2.11 7.451 2.11 4.75 0 9.882-1.027 9.882-1.027s2.507.57 5.402.57c5.317 0 11.945-1.921 6.765-12.82 0 0 .5-11-2.5-13.667 0 0-.249-13.121-8.674-13.122z" fill="#3f3815"/><path d="m926.185 607.506s.5-11-2.5-13.667c0 0-.327-17.313-13-12.166-1.963.797-3.528 2.533-4.726 4.407l1.694-.336.217.979-2.601.515c-.438.797-.809 1.581-1.122 2.31l3.506-.694.217.979-4.176.827c-.48 1.255-.724 2.133-.751 2.233l4.71-.934.217.979-5.628 1.115c-.349.591-.801 1.388-1.306 2.346l5.599-1.109c-.194.35-.4.734-.616 1.144l-5.563 1.103c-.354.713-.715 1.482-1.071 2.299l5.489-1.088c-.169.363-.336.736-.504 1.121l-5.454 1.081c-.296.73-.583 1.48-.843 2.253l5.382-1.066c-.134.363-.268.728-.392 1.099l-5.331 1.057c-.218.728-.405 1.462-.563 2.198l5.244-1.039c-.091.356-.174.713-.25 1.071l-5.202 1.031c-.072.432-.134.862-.177 1.289 0 0-.326.35-.695.97l5.718-1.133c-.006.054-.017.109-.022.163 0 0-.339.361-.716 1.004l-5.531 1.097c-.237.613-.428 1.346-.481 2.18l5.143-1.019c-.069.33-.12.679-.143 1.05l-4.985.988c.047.625.183 1.295.426 2.002l4.733-.938c.068.313.161.636.276.967l-4.623.916c.242.515.526 1.041.901 1.587.066.098.146.187.227.276l4.406-.873c.12.198.228.394.367.597.073.106.159.205.248.303l-3.932.779c4.485 2.305 16.017.001 16.017.001s20.167 4.579 12.167-12.254zm-8.478 8.244c-.715.22-1.449.355-2.188.428v.912c0 .553-.447 1-1 1s-1-.447-1-1v-.862c-.063-.002-.125 0-.188-.003-1.462-.098-2.899-.369-4.271-.827-1.37-.452-2.696-1.047-3.874-1.891 1.415.27 2.784.533 4.151.759 1.367.21 2.724.4 4.079.462.034.002.068 0 .103.002v-5.479c-1.065-.089-2.113-.322-3.098-.707-1.06-.411-2.073-.963-2.902-1.753 2.085.445 4.033.819 6 .958v-5.376c-.529-.057-1.055-.147-1.56-.314-.794-.254-1.568-.623-2.19-1.217 1.339.025 2.549.08 3.75.096v-5.344c-.457-.075-.91-.174-1.349-.328-.668-.229-1.319-.531-1.901-1.008 1.151-.18 2.211-.163 3.25-.107v-3.144c-.089-.03-.182-.048-.268-.087-.393-.176-1.766-.43-2.024-.828.48-.079 1.898-.112 2.292-.128v-.79c0-.553.447-1 1-1s1 .447 1 1v.804c.389.017 1.802.046 2.292.114-.249.4-1.617.67-2.019.846-.088.041-.183.057-.273.086v3.289c.262.025.525.045.788.076l2.045.203c-.544.523-1.262.811-1.967.965-.287.067-.577.098-.866.123v5.244l1.183-.021c.768-.031 1.546-.075 2.4-.061-.636.57-1.395.953-2.19 1.213-.452.148-.92.242-1.393.305v5.451c.483-.008.967-.027 1.454-.067 1.048-.087 2.092-.278 3.213-.485-1.267 1.146-2.945 1.782-4.667 1.974v5.529c.647-.021 1.292-.069 1.935-.152 1.338-.185 2.652-.54 3.982-1.101-.972 1.076-2.315 1.821-3.729 2.241z" fill="#3f3815"/><path d="m1188.584 534.917c-6.37 1.984-7.506 9.006-7.465 13.974-2.426-4.858-4.39-11.697 2.131-13.974 25.906-9.046 23.334-29.167 23.334-29.167-4 7.5-21.334 16.5-31.834 21.75-5.946 2.973-6.653 11.102-6.148 17.596-3.875-6.483-6.828-14.587.148-17.512 34.11-14.3 30-26.667 30-26.667s-8.666 6-14.333 8.5-13.333 6.667-23.333 17.5-1.167 23 1.333 27.167h25.833c-2.5-7.5-2.166-8.167 4.334-10.833s18.499-4.5 21.666-19c0-.001-15.499 7.499-25.666 10.666z" fill="#2b2a00"/><path d="m1191.25 550.75h-36l-20 278.5h76z" fill="#bc131c" stroke="#000" stroke-miterlimit="10" stroke-width="2"/><path d="m1209.479 804.594h-7.563v-5.666h7.155l-.694-9.668h-6.461v-5.666h6.055l-.144-2h-13.911v-5.668h13.504l-.144-2h-5.36v-5.666h4.953l-.144-2h-12.81v-5.668h12.402l-.144-2h-4.259v-5.666h3.852l-.144-2h-11.708v-5.668h11.302l-.145-2h-3.157v-5.666h2.751l-.144-2h-10.607v-5.668h10.2l-.144-2h-2.057v-5.666h1.649l-.144-2h-9.506v-5.668h9.099l-.144-2h-.955v-5.666h.548l-.144-2h-8.404v-5.667h7.998l-.694-9.667h-7.304v-5.667h6.896l-.694-9.667h-6.202v-5.667h5.795l-.144-2h-13.651v-5.667h13.245l-.144-2h-5.102v-5.667h4.694l-.144-2h-12.551v-5.667h12.144l-.144-2h-4v-5.667h3.593l-.144-2h-11.449v-5.667h11.042l-.144-2h-2.898v-5.667h2.492l-.144-2h-10.349v-5.667h9.941l-.144-2h-1.798v-5.667h1.391l-.144-2h-9.247v-5.667h8.84l-.144-2h-.696v-5.667h.289l-.144-2h-8.146v-5.667h7.739l-.694-9.667h-7.045v-5.667h6.638l-.694-9.667h-5.943v-5.667h5.536l-.144-2h-13.393v-.833h-2v.833h-14v-.833h-2v.833h-4.727l-.144 2h12.87v5.667h-13.277l-.144 2h5.421v5.667h-5.828l-.144 2h13.972v5.667h-14v-5.272l-.522 7.272h6.522v5.667h-6.929l-.694 9.667h7.623v5.667h-8.03l-.144 2h.174v5.667h-.581l-.144 2h8.725v5.667h-9.132l-.144 2h1.275v5.667h-1.683l-.144 2h9.826v5.667h-10.232l-.144 2h2.376v5.667h-2.783l-.144 2h10.927v5.667h-11.334l-.144 2h3.478v5.667h-3.885l-.144 2h12.028v5.667h-12.436l-.144 2h4.579v5.667h-4.985l-.144 2h13.129v5.667h-13.536l-.144 2h5.68v5.667h-6.087l-.694 9.667h6.781v5.667h-7.188l-.693 9.667h7.882v5.666h-8.289l-.144 2h.433v5.668h-.84l-.144 2h8.983v5.666h-9.391l-.144 2h1.534v5.668h-1.941l-.144 2h10.085v5.666h-10.491l-.145 2h2.636v5.668h-3.042l-.144 2h11.186v5.666h-11.593l-.144 2h3.736v5.668h-4.144l-.144 2h12.287v5.666h-12.694l-.144 2h4.838v5.668h-5.245l-.144 2h13.389v5.666h-13.795l-.144 2h5.938v5.668h-6.346l-.694 9.666h7.04v5.668h-7.447l-.694 9.666h8.142v5.668h-8.548l-.119 1.654h76l-.119-1.654h-1.214v-5.668h.808l-.145-2h-8.663v-5.666h8.257l-.144-2h-.113v-1.574zm-1.562-13.334v5.668h-14v-5.668zm-16 21.002h-14v-5.668h14zm8 2v5.666h-14v-5.666zm-24-222.344v5.667h-14v-5.667zm-6-2v-5.667h14v5.667zm0 9.667h14v5.667h-14zm6 7.667v5.667h-14v-5.667zm-6 7.667h14v5.667h-14zm6 7.667v5.667h-14v-5.667zm-6 7.667h14v5.667h-14zm6 7.667v5.667h-14v-5.667zm-6 7.667h14v5.667h-14zm6 7.667v5.667h-14v-5.667zm-6 7.667h14v5.667h-14zm6 7.667v5.667h-14v-5.667zm-6 7.667h14v5.667h-14zm8 120.673v-5.668h14v5.668zm6 2v5.666h-14v-5.666zm0-9.668h-14v-5.666h14zm-6-7.666v-5.668h14v5.668zm6-7.668h-14v-5.666h14zm-6-7.666v-5.668h14v5.668zm6-7.668h-14v-5.666h14zm-6-7.666v-5.668h14v5.668zm6-7.668h-14v-5.666h14zm-6-7.666v-5.668h14v5.668zm6-7.668h-14v-5.666h14zm-6-7.666v-5.668h14v5.668zm6-7.668h-14v-5.666h14zm-6-7.666v-5.667h14v5.667zm6-7.668h-14v-5.667h14zm-6-7.667v-5.667h14v5.667zm-2-5.667v5.667h-14v-5.667zm-8 7.667v5.667h-14v-5.667zm-6 7.667h14v5.667h-14zm6 7.668v5.666h-14v-5.666zm-6 7.666h14v5.668h-14zm6 7.668v5.666h-14v-5.666zm-6 7.666h14v5.668h-14zm6 7.668v5.666h-14v-5.666zm-6 7.666h14v5.668h-14zm6 7.668v5.666h-14v-5.666zm-6 7.666h14v5.668h-14zm6 7.668v5.666h-14v-5.666zm-6 7.666h14v5.668h-14zm6 7.668v5.666h-14v-5.666zm-6 7.666h14v5.668h-14zm6 7.668v5.666h-14v-5.666zm-8 7.666v5.668h-14v-5.668zm-6 7.668h14v5.666h-14zm8-2v-5.668h14v5.668zm8 2h14v5.666h-14zm16-9.668v-5.666h14v5.666zm14-21v5.666h-14v-5.666zm0-15.334v5.666h-14v-5.666zm0-15.334v5.666h-14v-5.666zm0-15.334v5.666h-14v-5.666zm0-15.334v5.666h-14v-5.666zm0-15.334v5.666h-14v-5.666zm0-15.335v5.667h-14v-5.667zm0-15.334v5.667h-14v-5.667zm-8-7.667v5.667h-14v-5.667zm0-15.334v5.667h-14v-5.667zm0-15.334v5.667h-14v-5.667zm0-15.334v5.667h-14v-5.667zm0-15.334v5.667h-14v-5.667zm0-15.334v5.667h-14v-5.667zm0-15.334v5.667h-14v-5.667zm-22-2v-5.667h14v5.667zm22-13.334v5.667h-14v-5.667zm-22-7.667h14v5.667h-14zm-8 13.334v-5.667h14v5.667zm0 9.667h14v5.667h-14zm-8 13.334v-5.667h14v5.667zm0 15.334v-5.667h14v5.667zm0 15.334v-5.667h14v5.667zm0 15.334v-5.667h14v5.667zm0 15.334v-5.667h14v5.667zm0 15.334v-5.667h14v5.667zm0 9.667h14v5.667h-14zm-8 13.334v-5.667h14v5.667zm0 15.335v-5.667h14v5.667zm0 15.334v-5.668h14v5.668zm0 15.334v-5.668h14v5.668zm0 15.334v-5.668h14v5.668zm0 15.334v-5.668h14v5.668zm0 15.334v-5.668h14v5.668zm0 9.666h14v5.668h-14zm-8 13.334v-5.666h14v5.666zm0 15.334v-5.666h14v5.666zm22 7.668h-14v-5.668h14zm16 0h-14v-5.668h14zm16 0h-14v-5.668h14zm16-5.668v5.668h-14v-5.668zm0-9.666h-14v-5.668h14z"/><path d="m842.084 534.917c-6.37 1.984-7.506 9.006-7.465 13.974-2.426-4.858-4.39-11.697 2.131-13.974 25.906-9.046 23.334-29.167 23.334-29.167-4 7.5-21.334 16.5-31.834 21.75-5.946 2.973-6.653 11.102-6.148 17.596-3.875-6.483-6.828-14.587.148-17.512 34.11-14.3 30-26.667 30-26.667s-8.666 6-14.333 8.5-13.333 6.667-23.333 17.5-1.167 23 1.333 27.167h25.833c-2.5-7.5-2.166-8.167 4.334-10.833s18.499-4.5 21.666-19c0-.001-15.499 7.499-25.666 10.666z" fill="#2b2a00"/><path d="m844.75 550.75h-36l-20 278.5h76z" fill="#bc131c" stroke="#000" stroke-miterlimit="10" stroke-width="2"/><path d="m862.979 804.594h-7.563v-5.666h7.155l-.694-9.668h-6.461v-5.666h6.055l-.144-2h-13.911v-5.668h13.504l-.144-2h-5.36v-5.666h4.953l-.144-2h-12.81v-5.668h12.402l-.144-2h-4.259v-5.666h3.852l-.144-2h-11.708v-5.668h11.302l-.145-2h-3.157v-5.666h2.751l-.144-2h-10.607v-5.668h10.2l-.144-2h-2.057v-5.666h1.649l-.144-2h-9.506v-5.668h9.099l-.144-2h-.955v-5.666h.548l-.144-2h-8.404v-5.667h7.998l-.694-9.667h-7.304v-5.667h6.896l-.694-9.667h-6.202v-5.667h5.795l-.144-2h-13.651v-5.667h13.245l-.144-2h-5.102v-5.667h4.694l-.144-2h-12.551v-5.667h12.144l-.144-2h-4v-5.667h3.593l-.144-2h-11.449v-5.667h11.042l-.144-2h-2.898v-5.667h2.492l-.144-2h-10.349v-5.667h9.941l-.144-2h-1.798v-5.667h1.391l-.144-2h-9.247v-5.667h8.84l-.144-2h-.696v-5.667h.289l-.144-2h-8.146v-5.667h7.739l-.694-9.667h-7.045v-5.667h6.638l-.694-9.667h-5.943v-5.667h5.536l-.144-2h-13.393v-.833h-2v.833h-14v-.833h-2v.833h-4.727l-.144 2h12.87v5.667h-13.266l-.144 2h5.421v5.667h-5.828l-.144 2h13.972v5.667h-14v-5.272l-.522 7.272h6.522v5.667h-6.929l-.694 9.667h7.623v5.667h-8.03l-.144 2h.174v5.667h-.581l-.144 2h8.725v5.667h-9.132l-.144 2h1.275v5.667h-1.683l-.144 2h9.826v5.667h-10.232l-.144 2h2.376v5.667h-2.783l-.144 2h10.927v5.667h-11.334l-.144 2h3.478v5.667h-3.885l-.144 2h12.028v5.667h-12.436l-.144 2h4.579v5.667h-4.985l-.144 2h13.129v5.667h-13.536l-.144 2h5.68v5.667h-6.087l-.694 9.667h6.781v5.667h-7.188l-.693 9.667h7.882v5.666h-8.289l-.144 2h.433v5.668h-.84l-.144 2h8.983v5.666h-9.391l-.144 2h1.534v5.668h-1.941l-.144 2h10.085v5.666h-10.491l-.145 2h2.636v5.668h-3.042l-.144 2h11.186v5.666h-11.593l-.144 2h3.736v5.668h-4.144l-.144 2h12.287v5.666h-12.694l-.144 2h4.838v5.668h-5.245l-.144 2h13.389v5.666h-13.795l-.144 2h5.938v5.668h-6.346l-.694 9.666h7.04v5.668h-7.447l-.694 9.666h8.142v5.668h-8.548l-.119 1.654h76l-.119-1.654h-1.214v-5.668h.808l-.145-2h-8.663v-5.666h8.257l-.144-2h-.113v-1.574zm-1.562-13.334v5.668h-14v-5.668zm-16 21.002h-14v-5.668h14zm8 2v5.666h-14v-5.666zm-24-222.344v5.667h-14v-5.667zm-6-2v-5.667h14v5.667zm0 9.667h14v5.667h-14zm6 7.667v5.667h-14v-5.667zm-6 7.667h14v5.667h-14zm6 7.667v5.667h-14v-5.667zm-6 7.667h14v5.667h-14zm6 7.667v5.667h-14v-5.667zm-6 7.667h14v5.667h-14zm6 7.667v5.667h-14v-5.667zm-6 7.667h14v5.667h-14zm6 7.667v5.667h-14v-5.667zm-6 7.667h14v5.667h-14zm8 120.673v-5.668h14v5.668zm6 2v5.666h-14v-5.666zm0-9.668h-14v-5.666h14zm-6-7.666v-5.668h14v5.668zm6-7.668h-14v-5.666h14zm-6-7.666v-5.668h14v5.668zm6-7.668h-14v-5.666h14zm-6-7.666v-5.668h14v5.668zm6-7.668h-14v-5.666h14zm-6-7.666v-5.668h14v5.668zm6-7.668h-14v-5.666h14zm-6-7.666v-5.668h14v5.668zm6-7.668h-14v-5.666h14zm-6-7.666v-5.667h14v5.667zm6-7.668h-14v-5.667h14zm-6-7.667v-5.667h14v5.667zm-2-5.667v5.667h-14v-5.667zm-8 7.667v5.667h-14v-5.667zm-6 7.667h14v5.667h-14zm6 7.668v5.666h-14v-5.666zm-6 7.666h14v5.668h-14zm6 7.668v5.666h-14v-5.666zm-6 7.666h14v5.668h-14zm6 7.668v5.666h-14v-5.666zm-6 7.666h14v5.668h-14zm6 7.668v5.666h-14v-5.666zm-6 7.666h14v5.668h-14zm6 7.668v5.666h-14v-5.666zm-6 7.666h14v5.668h-14zm6 7.668v5.666h-14v-5.666zm-6 7.666h14v5.668h-14zm6 7.668v5.666h-14v-5.666zm-8 7.666v5.668h-14v-5.668zm-6 7.668h14v5.666h-14zm8-2v-5.668h14v5.668zm8 2h14v5.666h-14zm16-9.668v-5.666h14v5.666zm14-21v5.666h-14v-5.666zm0-15.334v5.666h-14v-5.666zm0-15.334v5.666h-14v-5.666zm0-15.334v5.666h-14v-5.666zm0-15.334v5.666h-14v-5.666zm0-15.334v5.666h-14v-5.666zm0-15.335v5.667h-14v-5.667zm0-15.334v5.667h-14v-5.667zm-8-7.667v5.667h-14v-5.667zm0-15.334v5.667h-14v-5.667zm0-15.334v5.667h-14v-5.667zm0-15.334v5.667h-14v-5.667zm0-15.334v5.667h-14v-5.667zm0-15.334v5.667h-14v-5.667zm0-15.334v5.667h-14v-5.667zm-22-2v-5.667h14v5.667zm22-13.334v5.667h-14v-5.667zm-22-7.667h14v5.667h-14zm-8 13.334v-5.667h14v5.667zm0 9.667h14v5.667h-14zm-8 13.334v-5.667h14v5.667zm0 15.334v-5.667h14v5.667zm0 15.334v-5.667h14v5.667zm0 15.334v-5.667h14v5.667zm0 15.334v-5.667h14v5.667zm0 15.334v-5.667h14v5.667zm0 9.667h14v5.667h-14zm-8 13.334v-5.667h14v5.667zm0 15.335v-5.667h14v5.667zm0 15.334v-5.668h14v5.668zm0 15.334v-5.668h14v5.668zm0 15.334v-5.668h14v5.668zm0 15.334v-5.668h14v5.668zm0 15.334v-5.668h14v5.668zm0 9.666h14v5.668h-14zm-8 13.334v-5.666h14v5.666zm0 15.334v-5.666h14v5.666zm22 7.668h-14v-5.668h14zm16 0h-14v-5.668h14zm16 0h-14v-5.668h14zm16-5.668v5.668h-14v-5.668zm0-9.666h-14v-5.668h14z"/><path d="m1113.248 752.039c.697-3.483 2.283-6.616 4.504-9.183l-2.695-3.056 4.08-3.599 2.697 3.055c2.822-1.884 6.129-3.066 9.672-3.324l.254-4.056 5.43.341-.254 4.056c3.482.696 6.615 2.283 9.182 4.504l3.055-2.695 3.602 4.08-3.057 2.696c1.883 2.822 3.066 6.13 3.322 9.673l4.059.254-.34 5.43-4.059-.254c-.697 3.482-2.283 6.614-4.504 9.181l2.695 3.057-4.08 3.599-2.695-3.055c-2.824 1.883-6.131 3.066-9.672 3.323l-.254 4.057-5.432-.341.256-4.057c-3.484-.697-6.617-2.283-9.184-4.504l-3.055 2.695-3.6-4.08 3.055-2.696c-1.881-2.822-3.064-6.13-3.322-9.672l-4.057-.254.34-5.43zm20.703-11.633c-3.32-.208-6.461.65-9.104 2.269l5.197 5.891c1.059-.419 2.219-.627 3.43-.551 1.209.075 2.336.426 3.334.975l5.891-5.197c-2.42-1.936-5.428-3.179-8.748-3.387zm-3.888 15.411c-.102 1.605 1.125 2.993 2.729 3.095 1.607.1 2.994-1.125 3.096-2.731.1-1.604-1.125-2.992-2.73-3.094-1.607-.1-2.996 1.125-3.095 2.73zm15.119 9.908c1.934-2.42 3.176-5.43 3.385-8.749.207-3.319-.65-6.461-2.268-9.104l-5.891 5.197c.42 1.059.625 2.221.551 3.43-.076 1.21-.426 2.337-.975 3.335zm-13.184 5.867c3.32.208 6.461-.651 9.102-2.268l-5.195-5.891c-1.059.419-2.219.627-3.43.551-1.211-.075-2.336-.426-3.336-.976l-5.891 5.197c2.422 1.935 5.43 3.179 8.75 3.387zm-12.35-7.466 5.893-5.196c-.42-1.06-.627-2.222-.551-3.431.076-1.21.426-2.337.975-3.334l-5.197-5.891c-1.934 2.419-3.178 5.429-3.387 8.748-.207 3.32.652 6.461 2.267 9.104z" fill="#bababa" stroke="#000" stroke-miterlimit="10"/><path d="m1164.123 744.398c1.502-4.608 4.15-8.602 7.57-11.725l-3.164-4.57 6.104-4.227 3.166 4.571c4.125-2.104 8.795-3.177 13.639-2.961l.99-5.456 7.307 1.328-.992 5.456c4.607 1.501 8.6 4.15 11.725 7.569l4.57-3.164 4.227 6.104-4.57 3.166c2.102 4.127 3.176 8.797 2.959 13.639l5.459.992-1.328 7.306-5.459-.992c-1.502 4.608-4.15 8.6-7.57 11.723l3.166 4.572-6.104 4.227-3.166-4.571c-4.127 2.101-8.797 3.177-13.639 2.959l-.992 5.458-7.305-1.328.992-5.458c-4.607-1.502-8.602-4.15-11.725-7.569l-4.57 3.165-4.229-6.104 4.572-3.166c-2.102-4.127-3.176-8.797-2.961-13.637l-5.457-.992 1.328-7.306zm29.914-12.458c-4.467-.812-8.859-.149-12.699 1.621l6.102 8.813c1.504-.4 3.109-.496 4.738-.2 1.627.296 3.098.95 4.361 1.853l8.814-6.102c-2.97-3.007-6.849-5.173-11.316-5.985zm-7.73 20.264c-.393 2.16 1.047 4.237 3.205 4.63 2.16.393 4.236-1.046 4.629-3.206.393-2.159-1.045-4.236-3.205-4.629-2.159-.393-4.237 1.046-4.629 3.205zm18.908 15.841c3.008-2.972 5.174-6.851 5.984-11.316.813-4.467.15-8.859-1.619-12.699l-8.814 6.104c.4 1.502.496 3.108.199 4.735-.295 1.627-.949 3.098-1.854 4.364zm-18.803 5.847c4.467.812 8.859.149 12.697-1.62l-6.1-8.813c-1.504.4-3.109.496-4.738.2-1.627-.296-3.098-.95-4.363-1.854l-8.813 6.103c2.971 3.006 6.85 5.172 11.317 5.984zm-15.543-12.09 8.813-6.102c-.398-1.503-.494-3.11-.197-4.736.295-1.628.949-3.098 1.852-4.363l-6.104-8.813c-3.006 2.97-5.172 6.849-5.984 11.315-.811 4.466-.149 8.859 1.62 12.699z" fill="#bababa" stroke="#000" stroke-miterlimit="10"/><path d="m1138.889 791.822c.5-3.104 1.799-5.93 3.678-8.275l-2.486-2.612 3.488-3.321 2.488 2.613c2.434-1.762 5.32-2.918 8.445-3.265l.09-3.598 4.816.119-.09 3.597c3.105.5 5.93 1.799 8.275 3.678l2.613-2.486 3.32 3.489-2.613 2.487c1.762 2.436 2.918 5.321 3.266 8.447l3.598.089-.119 4.815-3.598-.089c-.502 3.104-1.799 5.929-3.678 8.274l2.486 2.613-3.49 3.321-2.486-2.613c-2.436 1.761-5.322 2.918-8.447 3.264l-.088 3.599-4.816-.119.088-3.598c-3.104-.501-5.93-1.799-8.273-3.678l-2.613 2.486-3.322-3.489 2.613-2.487c-1.76-2.436-2.918-5.321-3.264-8.446l-3.598-.089.117-4.815zm17.927-10.985c-2.945-.072-5.695.792-7.979 2.313l4.795 5.038c.922-.407 1.943-.629 3.018-.603 1.072.026 2.08.299 2.982.75l5.037-4.795c-2.204-1.63-4.907-2.63-7.853-2.703zm-2.923 13.766c-.037 1.424 1.094 2.611 2.518 2.646s2.611-1.095 2.646-2.52c.035-1.423-1.094-2.61-2.518-2.646s-2.611 1.096-2.646 2.52zm13.707 8.259c1.631-2.206 2.631-4.91 2.703-7.854s-.793-5.694-2.311-7.979l-5.039 4.796c.406.923.629 1.943.602 3.016-.025 1.073-.299 2.081-.75 2.983zm-11.467 5.633c2.943.072 5.693-.792 7.979-2.312l-4.795-5.038c-.924.407-1.943.629-3.018.603-1.072-.026-2.082-.299-2.982-.751l-5.039 4.795c2.206 1.63 4.91 2.63 7.855 2.703zm-11.176-6.192 5.037-4.795c-.406-.924-.627-1.944-.602-3.017.027-1.073.299-2.081.75-2.982l-4.795-5.038c-1.629 2.205-2.629 4.909-2.701 7.854-.074 2.944.792 5.694 2.311 7.978z" fill="#bababa" stroke="#000" stroke-miterlimit="10"/><path d="m886.751 752.039c-.697-3.483-2.283-6.616-4.504-9.183l2.695-3.056-4.08-3.599-2.696 3.055c-2.823-1.884-6.13-3.066-9.672-3.324l-.255-4.056-5.43.341.254 4.056c-3.482.696-6.615 2.283-9.182 4.504l-3.055-2.695-3.601 4.08 3.056 2.696c-1.883 2.822-3.066 6.13-3.322 9.673l-4.059.254.34 5.43 4.059-.254c.697 3.482 2.283 6.614 4.504 9.181l-2.695 3.057 4.08 3.599 2.696-3.055c2.823 1.883 6.13 3.066 9.671 3.323l.255 4.057 5.431-.341-.255-4.057c3.483-.697 6.616-2.283 9.183-4.504l3.055 2.695 3.6-4.08-3.055-2.696c1.882-2.822 3.064-6.13 3.322-9.672l4.058-.254-.34-5.43zm-20.703-11.633c3.32-.208 6.461.65 9.104 2.269l-5.196 5.891c-1.06-.419-2.22-.627-3.431-.551-1.209.075-2.336.426-3.334.975l-5.891-5.197c2.42-1.936 5.428-3.179 8.748-3.387zm3.889 15.411c.102 1.605-1.124 2.993-2.729 3.095-1.606.1-2.994-1.125-3.095-2.731-.101-1.604 1.124-2.992 2.729-3.094 1.607-.1 2.995 1.125 3.095 2.73zm-15.118 9.908c-1.934-2.42-3.177-5.43-3.386-8.749-.207-3.319.65-6.461 2.268-9.104l5.891 5.197c-.419 1.059-.625 2.221-.55 3.43.075 1.21.426 2.337.974 3.335zm13.182 5.867c-3.319.208-6.46-.651-9.102-2.268l5.195-5.891c1.06.419 2.22.627 3.431.551 1.21-.075 2.336-.426 3.335-.976l5.891 5.197c-2.421 1.935-5.429 3.179-8.75 3.387zm12.35-7.466-5.892-5.196c.419-1.06.626-2.222.55-3.431-.075-1.21-.426-2.337-.974-3.334l5.197-5.891c1.933 2.419 3.177 5.429 3.386 8.748.208 3.32-.651 6.461-2.267 9.104z" fill="#bababa" stroke="#000" stroke-miterlimit="10"/><path d="m835.876 744.398c-1.502-4.608-4.151-8.602-7.57-11.725l3.165-4.57-6.104-4.227-3.166 4.571c-4.126-2.104-8.796-3.177-13.639-2.961l-.992-5.456-7.306 1.328.992 5.456c-4.608 1.501-8.601 4.15-11.724 7.569l-4.571-3.164-4.228 6.104 4.572 3.166c-2.102 4.127-3.176 8.797-2.96 13.639l-5.458.992 1.328 7.306 5.458-.992c1.501 4.608 4.15 8.6 7.57 11.723l-3.165 4.572 6.104 4.227 3.166-4.571c4.127 2.101 8.797 3.177 13.638 2.959l.992 5.458 7.306-1.328-.992-5.458c4.607-1.502 8.601-4.15 11.724-7.569l4.571 3.165 4.228-6.104-4.572-3.166c2.101-4.127 3.175-8.797 2.96-13.637l5.457-.992-1.327-7.306zm-29.914-12.458c4.467-.812 8.86-.149 12.7 1.621l-6.102 8.813c-1.503-.4-3.109-.496-4.737-.2-1.627.296-3.098.95-4.362 1.853l-8.814-6.102c2.97-3.007 6.849-5.173 11.315-5.985zm7.73 20.264c.393 2.16-1.045 4.237-3.205 4.63s-4.236-1.046-4.629-3.206c-.392-2.159 1.045-4.236 3.205-4.629s4.237 1.046 4.629 3.205zm-18.906 15.841c-3.008-2.972-5.174-6.851-5.985-11.316-.812-4.467-.149-8.859 1.619-12.699l8.814 6.104c-.399 1.502-.495 3.108-.199 4.735s.95 3.098 1.853 4.364zm18.802 5.847c-4.467.812-8.859.149-12.699-1.62l6.101-8.813c1.503.4 3.109.496 4.737.2s3.098-.95 4.364-1.854l8.813 6.103c-2.971 3.006-6.85 5.172-11.316 5.984zm15.543-12.09-8.813-6.102c.399-1.503.494-3.11.198-4.736-.296-1.628-.95-3.098-1.853-4.363l6.103-8.813c3.006 2.97 5.172 6.849 5.984 11.315.813 4.466.15 8.859-1.619 12.699z" fill="#bababa" stroke="#000" stroke-miterlimit="10"/><path d="m861.111 791.822c-.5-3.104-1.798-5.93-3.678-8.275l2.487-2.612-3.489-3.321-2.487 2.613c-2.435-1.762-5.321-2.918-8.446-3.265l-.089-3.598-4.816.119.089 3.597c-3.104.5-5.93 1.799-8.274 3.678l-2.613-2.486-3.322 3.489 2.613 2.487c-1.761 2.436-2.917 5.321-3.264 8.447l-3.599.089.119 4.815 3.599-.089c.501 3.104 1.798 5.929 3.678 8.274l-2.487 2.613 3.49 3.321 2.488-2.613c2.435 1.761 5.321 2.918 8.446 3.264l.088 3.599 4.816-.119-.088-3.598c3.104-.501 5.93-1.799 8.273-3.678l2.613 2.486 3.322-3.489-2.613-2.487c1.76-2.436 2.918-5.321 3.264-8.446l3.599-.089-.118-4.815zm-17.928-10.985c2.945-.072 5.695.792 7.979 2.313l-4.796 5.038c-.922-.407-1.943-.629-3.017-.603s-2.081.299-2.982.75l-5.038-4.795c2.206-1.63 4.91-2.63 7.854-2.703zm2.925 13.766c.036 1.424-1.095 2.611-2.519 2.646s-2.611-1.095-2.646-2.52c-.035-1.423 1.095-2.61 2.519-2.646s2.611 1.096 2.646 2.52zm-13.708 8.259c-1.63-2.206-2.63-4.91-2.703-7.854s.792-5.694 2.311-7.979l5.039 4.796c-.406.923-.629 1.943-.602 3.016.026 1.073.299 2.081.75 2.983zm11.467 5.633c-2.943.072-5.693-.792-7.978-2.312l4.794-5.038c.924.407 1.943.629 3.018.603 1.073-.026 2.082-.299 2.983-.751l5.038 4.795c-2.207 1.63-4.91 2.63-7.855 2.703zm11.175-6.192-5.037-4.795c.406-.924.628-1.944.602-3.017-.027-1.073-.299-2.081-.75-2.982l4.795-5.038c1.63 2.205 2.629 4.909 2.702 7.854s-.792 5.694-2.312 7.978z" fill="#bababa" stroke="#000" stroke-miterlimit="10"/><path d="m1287.664 909.263c-15.695-49.081-48.329-63.258-64.92-71.354l-14.494 35.091-16.586-1.875c12.333 5.333 36.333 20.792 48 53.125l16.334-25.331z" fill="#d22811" stroke="#000" stroke-miterlimit="10" stroke-width="2"/><path d="m712.336 909.263c15.695-49.081 48.329-63.258 64.92-71.354l14.494 35.091 16.586-1.875c-12.333 5.333-36.333 20.792-48 53.125l-16.334-25.331z" fill="#d22811" stroke="#000" stroke-miterlimit="10" stroke-width="2"/><path d="m1000 860.25c-71.25 0-120.711-26.082-120.711-26.082l-16.039 38.832-16.915-2.418s62.213 37.668 153.665 37.668 153.665-37.668 153.665-37.668l-16.915 2.418-16.039-38.832s-49.461 26.082-120.711 26.082z" fill="#d22811" stroke="#000" stroke-miterlimit="10" stroke-width="2"/><path d="m1136.75 873c15.345-9.734 35.75-9.737 35.75-9.737s20.405.003 35.75 9.737l19-46c-23.5-9.734-54.75-9.737-54.75-9.737s-31.25.003-54.75 9.737z" fill="#d22811" stroke="#000" stroke-miterlimit="10" stroke-width="2"/><path d="m863.25 873c-15.345-9.734-35.75-9.737-35.75-9.737s-20.405.003-35.75 9.737l-19-46c23.5-9.734 54.75-9.737 54.75-9.737s31.25.003 54.75 9.737z" fill="#d22811" stroke="#000" stroke-miterlimit="10" stroke-width="2"/><path d="m1152.189 855.213-4.413 1.513-5.699-16.632c-1.096 2.061-2.614 3.826-4.555 5.299l-1.372-4.005c1.022-.771 2.028-1.915 3.019-3.43.99-1.516 1.496-3.061 1.518-4.636l3.581-1.227z" fill="#fff"/><path d="m1154.698 848.512 4.407-1.1c.233.896.61 1.531 1.13 1.907.521.376 1.159.513 1.915.41.954-.129 1.707-.678 2.257-1.646s.73-2.847.543-5.636c-.979 1.507-2.342 2.378-4.085 2.614-1.897.257-3.634-.253-5.209-1.531-1.574-1.277-2.521-3.09-2.839-5.437-.331-2.445.128-4.516 1.378-6.21 1.251-1.693 3-2.693 5.248-2.998 2.445-.331 4.581.343 6.406 2.022 1.824 1.679 3.03 4.685 3.617 9.017.598 4.409.212 7.701-1.158 9.874-1.369 2.174-3.365 3.438-5.986 3.794-1.886.255-3.479-.04-4.777-.886s-2.247-2.243-2.847-4.194zm9.094-11.519c-.202-1.492-.702-2.603-1.498-3.332-.798-.729-1.646-1.034-2.545-.912-.855.116-1.52.55-1.993 1.301s-.606 1.895-.398 3.43c.212 1.558.673 2.659 1.387 3.305.713.646 1.53.907 2.451.782.889-.12 1.589-.572 2.103-1.357.513-.785.678-1.857.493-3.217z" fill="#fff"/><path d="m1188.036 849.317-.468 4.309-16.257-1.768c.353-1.609 1.049-3.095 2.088-4.457 1.038-1.362 2.987-3.107 5.846-5.234 2.302-1.721 3.728-2.901 4.276-3.543.742-.889 1.164-1.8 1.266-2.735.112-1.034-.079-1.859-.574-2.476-.495-.615-1.232-.977-2.212-1.083-.968-.105-1.77.103-2.405.623-.636.521-1.071 1.453-1.307 2.797l-4.57-.964c.552-2.522 1.615-4.261 3.188-5.215 1.573-.953 3.449-1.312 5.628-1.074 2.387.26 4.193 1.106 5.418 2.543 1.224 1.436 1.732 3.11 1.524 5.024-.118 1.09-.427 2.105-.925 3.048-.497.942-1.229 1.906-2.192 2.893-.64.654-1.764 1.573-3.373 2.756-1.609 1.184-2.633 1.975-3.071 2.372s-.802.792-1.089 1.184z" fill="#fff"/><path d="m1190.738 847.925 4.558 1.031c-.21 1.039-.104 1.953.318 2.744s1.036 1.322 1.844 1.595c.923.312 1.831.201 2.724-.333s1.594-1.556 2.104-3.066c.479-1.415.52-2.584.124-3.506s-1.103-1.555-2.119-1.898c-1.269-.428-2.596-.251-3.981.531l-3.411-1.729 6.316-11.237 11.688 3.945-1.396 4.137-8.337-2.814-2.015 3.684c1.152-.16 2.242-.067 3.27.279 1.961.662 3.383 1.937 4.265 3.823s.938 3.967.17 6.242c-.641 1.898-1.763 3.406-3.366 4.523-2.187 1.528-4.611 1.843-7.274.943-2.129-.719-3.672-1.876-4.628-3.472-.96-1.597-1.243-3.404-.854-5.422z" fill="#fff"/><path d="m807.579 855.104-4.422 1.487-5.606-16.663c-1.107 2.054-2.635 3.812-4.584 5.273l-1.35-4.013c1.026-.766 2.039-1.903 3.038-3.413.998-1.51 1.513-3.052 1.543-4.627l3.588-1.207z" fill="#fff"/><path d="m812.109 840.637c-1.267-.335-2.232-.905-2.899-1.711s-1.075-1.734-1.224-2.787c-.254-1.797.164-3.37 1.253-4.72 1.089-1.351 2.79-2.188 5.103-2.515 2.29-.324 4.151.012 5.582 1.005 1.432.994 2.274 2.39 2.528 4.187.158 1.118.008 2.153-.45 3.106-.458.954-1.18 1.734-2.167 2.344 1.413.349 2.54.988 3.382 1.92.841.932 1.356 2.071 1.547 3.42.314 2.225-.14 4.133-1.362 5.726-1.223 1.592-3.012 2.555-5.368 2.887-2.191.31-4.098-.008-5.718-.952-1.912-1.116-3.036-2.857-3.37-5.225-.185-1.305-.03-2.547.463-3.729.491-1.183 1.392-2.167 2.7-2.956zm.296-4.786c.13.92.492 1.602 1.085 2.043.594.441 1.323.602 2.188.479.877-.123 1.542-.482 1.994-1.078.452-.595.613-1.353.483-2.272-.122-.866-.48-1.522-1.074-1.97-.594-.446-1.318-.609-2.174-.489-.887.126-1.557.488-2.009 1.089-.45.599-.615 1.331-.493 2.198zm1.032 10.383c.179 1.271.646 2.217 1.397 2.837.753.62 1.617.861 2.593.724.953-.135 1.693-.589 2.222-1.361.528-.773.7-1.807.518-3.1-.159-1.129-.605-1.991-1.337-2.586s-1.587-.824-2.563-.687c-1.128.159-1.915.668-2.358 1.523-.444.857-.601 1.74-.472 2.65z" fill="#fff"/><path d="m831.849 839.271c-1.148-.63-1.948-1.416-2.402-2.358s-.626-1.942-.518-2.999c.187-1.806.97-3.232 2.352-4.281 1.382-1.048 3.234-1.452 5.558-1.213 2.301.236 4.026 1.01 5.177 2.318 1.15 1.31 1.633 2.866 1.447 4.672-.116 1.123-.511 2.092-1.185 2.907s-1.563 1.399-2.667 1.753c1.287.678 2.228 1.57 2.82 2.677.593 1.107.819 2.338.68 3.692-.23 2.234-1.13 3.978-2.7 5.229-1.569 1.251-3.538 1.755-5.905 1.511-2.201-.227-3.976-.993-5.32-2.3-1.588-1.543-2.26-3.504-2.015-5.882.135-1.31.584-2.479 1.346-3.508.761-1.027 1.872-1.767 3.332-2.218zm-.059 5.752c-.131 1.277.094 2.307.675 3.09.582.783 1.362 1.226 2.342 1.326.958.099 1.786-.164 2.484-.787.699-.624 1.115-1.585 1.249-2.884.116-1.134-.109-2.078-.677-2.832s-1.342-1.182-2.321-1.282c-1.134-.117-2.02.188-2.655.911-.637.725-1.002 1.544-1.097 2.458zm1.498-10.327c-.096.925.092 1.673.562 2.244s1.139.902 2.009.991c.881.091 1.612-.098 2.194-.566.583-.469.922-1.165 1.017-2.09.09-.87-.101-1.593-.569-2.17s-1.133-.909-1.991-.998c-.893-.092-1.63.1-2.213.573-.583.475-.92 1.147-1.009 2.016z" fill="#fff"/><path d="m858.442 833.029c2.238.74 3.724 2.118 4.455 4.133.877 2.389.59 5.773-.86 10.155-1.447 4.37-3.244 7.262-5.39 8.673-1.772 1.162-3.777 1.373-6.016.632-2.248-.744-3.774-2.208-4.579-4.393-.804-2.184-.472-5.493.996-9.927 1.439-4.35 3.232-7.23 5.379-8.642 1.772-1.161 3.778-1.372 6.015-.631zm-1.214 3.672c-.536-.178-1.071-.165-1.604.037s-1.062.707-1.585 1.513c-.684 1.045-1.475 2.922-2.372 5.633-.896 2.711-1.377 4.618-1.439 5.723s.058 1.894.362 2.367c.303.474.723.799 1.259.977.536.177 1.07.165 1.604-.038.533-.202 1.062-.706 1.585-1.512.681-1.034 1.47-2.906 2.367-5.617s1.377-4.618 1.439-5.723-.057-1.896-.359-2.375c-.303-.479-.722-.807-1.257-.985z" fill="#fff"/><path d="m908.97 878.279 5.369 3.855c-2.005 2.864-4.338 4.704-7 5.517-2.663.813-5.634.658-8.917-.464-4.061-1.389-6.947-3.851-8.658-7.387-1.711-3.537-1.783-7.596-.216-12.179 1.657-4.848 4.259-8.163 7.804-9.946s7.46-1.942 11.743-.478c3.741 1.278 6.419 3.371 8.036 6.275.965 1.721 1.396 3.865 1.295 6.434l-6.587-.699c.154-1.633-.192-3.083-1.041-4.35s-2.093-2.18-3.734-2.741c-2.267-.775-4.372-.629-6.313.438s-3.505 3.336-4.692 6.806c-1.259 3.683-1.46 6.543-.604 8.581s2.397 3.438 4.622 4.198c1.641.562 3.222.547 4.744-.042 1.523-.588 2.906-1.861 4.149-3.818z" fill="#fff"/><path d="m919.484 893.215 6.524-30.081 13.422 2.911c3.375.732 5.769 1.534 7.182 2.406s2.429 2.099 3.048 3.68.736 3.261.351 5.039c-.489 2.257-1.591 3.97-3.303 5.139-1.712 1.168-3.996 1.644-6.851 1.425 1.213 1.065 2.168 2.153 2.868 3.265.699 1.111 1.556 3.001 2.571 5.671l2.583 6.705-7.627-1.654-3.191-7.546c-1.13-2.694-1.931-4.411-2.402-5.15-.471-.74-1.02-1.296-1.646-1.668s-1.672-.717-3.137-1.035l-1.293-.28-2.724 12.558zm10.142-15.977 4.718 1.023c3.06.664 4.997.955 5.811.874.815-.081 1.503-.376 2.064-.884.562-.509.94-1.215 1.136-2.117.22-1.013.113-1.891-.319-2.637-.432-.745-1.147-1.313-2.146-1.701-.502-.181-2.046-.551-4.631-1.111l-4.977-1.08z" fill="#fff"/><path d="m953.348 899.835 4.19-30.493 6.465.888-4.19 30.494z" fill="#fff"/><path d="m989.39 891.845 6.202 2.283c-1.168 3.296-2.927 5.69-5.276 7.185-2.349 1.493-5.255 2.137-8.717 1.931-4.284-.256-7.722-1.859-10.314-4.811s-3.744-6.846-3.456-11.68c.305-5.114 1.928-9.003 4.869-11.668 2.941-2.664 6.671-3.861 11.19-3.592 3.946.235 7.086 1.537 9.418 3.905 1.389 1.401 2.376 3.353 2.964 5.855l-6.536 1.083c-.287-1.615-1.007-2.921-2.163-3.915-1.155-.994-2.599-1.543-4.33-1.646-2.392-.143-4.381.559-5.967 2.104-1.586 1.547-2.489 4.15-2.707 7.811-.231 3.885.337 6.695 1.706 8.431s3.227 2.675 5.575 2.814c1.731.104 3.251-.332 4.561-1.306 1.31-.972 2.303-2.566 2.981-4.784z" fill="#fff"/><path d="m1002.451 903.257-.547-30.775 6.524-.116.547 30.775z" fill="#fff"/><path d="m1014.37 872.404 6.496-.62 1.585 16.596c.251 2.634.494 4.333.729 5.098.397 1.228 1.156 2.171 2.274 2.831 1.119.659 2.585.902 4.399.729 1.844-.176 3.199-.667 4.067-1.475.867-.807 1.347-1.742 1.438-2.806.09-1.063.02-2.807-.212-5.231l-1.618-16.95 6.496-.62 1.536 16.094c.352 3.679.424 6.294.218 7.846-.206 1.553-.731 2.896-1.575 4.031-.844 1.136-2.026 2.089-3.547 2.859-1.521.771-3.555 1.278-6.101 1.521-3.072.294-5.435.178-7.086-.346-1.652-.524-2.991-1.282-4.016-2.274s-1.74-2.066-2.146-3.223c-.593-1.716-1.052-4.287-1.379-7.715zm8.677-2.599 2.433-6.538 6.913-.66-5.438 6.825z" fill="#fff"/><path d="m1052.562 899.277-6.524-30.081 9.545-2.069 10.181 19.275 1.216-21.748 9.566-2.074 6.524 30.08-5.925 1.285-5.136-23.679-1.134 25.039-6.141 1.332-11.384-22.324 5.136 23.679z" fill="#fff"/><path d="m1119.707 880.259-6.695 2.36-4.986-5.656-12.184 4.296-.191 7.48-6.528 2.302 1.638-33.215 6.508-2.294zm-15.381-7.49-7.997-9.291-.319 12.223z" fill="#fff"/><path d="m1118.991 560.856c4.783 1.125 7.804-3.84 3.675-6.44-1.09-.687-4.131-2.24-8.901-4.255l8.901-24.745c-1.65-1.04-7.747-4.057-17.582-7.669l-4.246 6.487c-2.128-.736-4.396-1.487-6.799-2.244l.103-7.968c-14.097-4.444-32.853-9.073-55.183-11.768l-2.084 7.755c-2.477-.283-4.995-.541-7.555-.772l-.986-8.087c-8.965-.783-18.43-1.234-28.333-1.234h-.001c-9.903 0-19.368.451-28.333 1.234l-.986 8.087c-2.56.231-5.079.49-7.556.772l-2.084-7.755c-22.329 2.694-41.085 7.323-55.182 11.768l.103 7.968c-2.403.757-4.671 1.508-6.799 2.244l-4.246-6.487c-9.835 3.613-15.932 6.63-17.583 7.669l8.902 24.745c-4.771 2.016-7.811 3.568-8.902 4.255-4.128 2.6-1.108 7.565 3.675 6.44v.013l2.119 4.208c-.31.136-.585.254-.794.339-6.947 2.833-8.505 12.256 3.833 7 5.419-2.308 46.5-22.5 113.833-22.5 67.333 0 108.414 20.192 113.833 22.5 12.338 5.256 10.779-4.167 3.832-7-.208-.085-.483-.204-.793-.339l2.118-4.208v-.013z" fill="#b5b5b5" stroke="#000" stroke-miterlimit="10" stroke-width="2"/><path d="m883.127 565.078-2.118-4.209" fill="none" stroke="#000" stroke-miterlimit="10" stroke-width="2"/><path d="m1117.666 565.417c-5.604-2.286-48.065-23.5-117.667-23.5-69.6 0-112.061 21.214-117.666 23.5" fill="none" stroke="#000" stroke-miterlimit="10" stroke-width="2"/><path d="m1117.666 546.417c-5.512-2.5-48.065-23.5-117.667-23.5-69.6 0-112.153 21-117.666 23.5" fill="none" stroke="#000" stroke-miterlimit="10" stroke-width="2"/><path d="m1122.666 540.417c-5.121-3.225-53.065-25.5-122.667-25.5-69.6 0-117.544 22.275-122.666 25.5" fill="none" stroke="#000" stroke-miterlimit="10" stroke-width="2"/><path d="m1122.666 533.417c-5.121-3.225-53.065-25.5-122.667-25.5-69.6 0-117.544 22.275-122.666 25.5" fill="none" stroke="#000" stroke-miterlimit="10" stroke-width="2"/><path d="m1116.873 565.078 2.118-4.209" fill="none" stroke="#000" stroke-miterlimit="10" stroke-width="2"/><path d="m1028.334 478.25s-2.936-.62-7.918-1.242l-7.082 11.617-8.229-.875 3.033-11.799c-2.548-.125-5.271-.201-8.138-.201-2.868 0-5.59.077-8.138.201l3.033 11.799-8.229.875-7.082-11.617c-4.982.623-7.918 1.242-7.918 1.242 14.333 38.5 0 53.667 0 53.667h56.668s-14.334-15.167 0-53.667z" fill="#b5b5b5" stroke="#000" stroke-miterlimit="10" stroke-width="2"/><path d="m1013.333 531.917s-9-17.667-9-26h-8.666c0 8.333-9 26-9 26" fill="none" stroke="#000" stroke-miterlimit="10" stroke-width="2"/><path d="m1002.001 510.01h-4.001c0 6.38-8.208 21.906-8.208 21.906h20.416c0 .001-8.207-15.526-8.207-21.906z"/><path d="m880.634 555.434-20.697-52.214c2.667-1.057 5.225-1.989 7.639-2.812l1.528 12.086 7.973-2.219 2.303-13.41c4.861-1.257 7.818-1.763 7.818-1.763.863 41.072 19.776 49.89 19.776 49.89z" fill="#b5b5b5" stroke="#000" stroke-miterlimit="10" stroke-width="2"/><path d="m872.561 535.069 1.859-.737c2.351 5.931 15.703 17.34 15.703 17.34l-9.489 3.762z"/><path d="m871.053 531.264 4.028-1.597c3.071 7.747 17.948 20.854 17.948 20.854" fill="none" stroke="#000" stroke-miterlimit="10" stroke-width="2"/><path d="m956.73 479.894s-3-.045-8.009.3l-4.721 12.761-8.245.721.713-12.162c-2.524.367-5.211.814-8.025 1.364s-5.471 1.148-7.948 1.76l5.242 10.997-7.908 2.438-9.181-10.042c-4.77 1.567-7.532 2.739-7.532 2.739 21.457 35.033 10.301 52.668 10.301 52.668l55.615-10.876c-.002.001-16.98-12.133-10.302-52.668z" fill="#b5b5b5" stroke="#000" stroke-miterlimit="10" stroke-width="2"/><path d="m952.308 535.441s-12.223-15.611-13.823-23.789l-8.504 1.664c1.599 8.178-3.843 27.244-3.843 27.244" fill="none" stroke="#000" stroke-miterlimit="10" stroke-width="2"/><path d="m936.982 516.118-3.927.768c1.225 6.261-3.851 23.074-3.851 23.074l20.037-3.918s-11.035-13.663-12.259-19.924z"/><path d="m1043.27 479.894s3-.045 8.01.3l4.721 12.761 8.244.721-.713-12.162c2.525.367 5.211.814 8.025 1.364s5.473 1.148 7.949 1.76l-5.242 10.997 7.908 2.438 9.182-10.042c4.77 1.567 7.531 2.739 7.531 2.739-21.457 35.033-10.301 52.668-10.301 52.668l-55.615-10.876c0 .001 16.978-12.133 10.301-52.668z" fill="#b5b5b5" stroke="#000" stroke-miterlimit="10" stroke-width="2"/><path d="m1047.691 535.441s12.225-15.611 13.824-23.789l8.504 1.664c-1.6 8.178 3.842 27.244 3.842 27.244" fill="none" stroke="#000" stroke-miterlimit="10" stroke-width="2"/><path d="m1063.018 516.118 3.928.768c-1.225 6.261 3.85 23.074 3.85 23.074l-20.037-3.918c-.001 0 11.034-13.663 12.259-19.924z"/><path d="m1119.366 555.434 20.697-52.214c-2.666-1.057-5.225-1.989-7.639-2.812l-1.528 12.086-7.973-2.219-2.304-13.41c-4.861-1.257-7.818-1.763-7.818-1.763-.862 41.072-19.775 49.89-19.775 49.89z" fill="#b5b5b5" stroke="#000" stroke-miterlimit="10" stroke-width="2"/><path d="m1127.438 535.069-1.859-.737c-2.35 5.931-15.702 17.34-15.702 17.34l9.489 3.762z"/><path d="m1128.947 531.264-4.028-1.597c-3.07 7.747-17.947 20.854-17.947 20.854" fill="none" stroke="#000" stroke-miterlimit="10" stroke-width="2"/><path d="m1000 536.917c69.6 0 112.154 21 117.666 23.5 5.514 2.5 9.5-3.167 5-6-5.121-3.225-53.065-25.5-122.667-25.5-69.6 0-117.544 22.275-122.666 25.5-4.5 2.833-.513 8.5 5 6s48.066-23.5 117.667-23.5z" fill="#b5b5b5" stroke="#000" stroke-miterlimit="10" stroke-width="2"/></svg>