<svg enable-background="new 0 0 523.4 522.1" viewBox="0 0 523.4 522.1" xmlns="http://www.w3.org/2000/svg" xmlns:xlink="http://www.w3.org/1999/xlink"><radialGradient id="a" cx="262.0088" cy="262.8636" gradientUnits="userSpaceOnUse" r="362.164"><stop offset="0" stop-color="#fff"/><stop offset=".6" stop-color="#fff"/><stop offset="1" stop-color="#d1d3d4"/></radialGradient><g clip-rule="evenodd" fill-rule="evenodd"><circle cx="262.01" cy="262.86" fill="url(#a)" r="256.09"/><path d="m262.01 6.77c141.44 0 256.09 114.66 256.09 256.09 0 141.44-114.66 256.09-256.09 256.09v-14.65c133.34 0 241.43-108.09 241.43-241.43s-108.09-241.43-241.43-241.43zm0 512.18c-141.44 0-256.09-114.65-256.09-256.09 0-141.43 114.65-256.09 256.09-256.09v14.66c-133.34 0-241.43 108.09-241.43 241.43s108.09 241.43 241.43 241.43z"/><path d="m262.01 29.19c129.05 0 233.67 104.62 233.67 233.67s-104.62 233.67-233.67 233.67v-13.8c121.43 0 219.88-98.44 219.88-219.88 0-121.43-98.44-219.88-219.88-219.88zm0 467.35c-129.05 0-233.67-104.62-233.67-233.67s104.62-233.67 233.67-233.67v13.8c-121.43 0-219.88 98.44-219.88 219.88 0 121.43 98.44 219.88 219.88 219.88z"/><path d="m393.93 191.35c11.55 21.26 18.11 45.62 18.11 71.51s-6.56 50.25-18.11 71.51v-22.95c5.58-15.14 8.62-31.49 8.62-48.56s-3.05-33.43-8.62-48.57zm-33.04-41.32c13.3 11.67 24.53 25.65 33.04 41.32v22.94c-2.41-6.55-5.3-12.88-8.62-18.93v134.99c3.32-6.05 6.21-12.37 8.62-18.93v22.95c-8.51 15.67-19.74 29.65-33.04 41.32v-12.97c2.48-2.46 4.88-5.02 7.18-7.66v-100.03l-7.18 6.53v-16.23l7.18.87v-75.54c-2.3-2.64-4.69-5.19-7.18-7.65zm-3.8-3.22c1.29 1.05 2.55 2.13 3.8 3.23v12.96c-1.24-1.23-2.51-2.44-3.8-3.63zm3.8 228.88c-1.25 1.1-2.51 2.17-3.8 3.23v-12.57c1.29-1.19 2.56-2.39 3.8-3.63zm0-130.36v16.23l-3.8 3.46v-11.09l3.38-3.07-3.38-.41v-5.58zm-3.8 55.45v-8.18l1.81 9.21zm-26.89-171.59c9.61 4.91 18.61 10.83 26.88 17.62v12.57c-.94-.86-1.89-1.71-2.86-2.55l-.52 87.65 3.38.41v5.58l-18.13-2.19-8.76-19.39v-15.38l6.82 15.1v-84.59c-2.23-1.41-4.51-2.76-6.82-4.05v-10.78zm26.89 249.73c-8.27 6.78-17.28 12.7-26.88 17.61v-10.76c2.31-1.29 4.59-2.64 6.82-4.05v-92.38l-6.49-3.7-.33.19v-9.81l.22-.12 18.49 10.54-4.18-21.25 12.36-11.25v11.09l-3.52 3.2-.04 6.3 3.56 18.08v8.18l-3.7-2.11-.43 71.32c1.4-1.19 2.77-2.4 4.12-3.65zm-54.13-260.43c9.5 2.69 18.61 6.29 27.24 10.7v10.76c-2.29-1.27-4.61-2.48-6.98-3.63v92.21l6.98-15.05v15.38l-9.11 19.65-18.13 2v-5.42l3.02-.33v-115.41c-1-.33-2.01-.65-3.02-.96zm27.24 278.05c-8.63 4.41-17.74 8.01-27.24 10.7v-9.9c1.01-.31 2.02-.63 3.02-.96v-97.06l-3.02 1.68v-6.22l3.02-14.59v-12.34l-3.02-2.8v-11.38l12.85 11.93-4.31 20.84 18.7-10.42v9.81l-6.98 3.89v99.69c2.36-1.15 4.69-2.36 6.98-3.63zm-31.11-279.09c1.3.33 2.59.67 3.88 1.04v9.9c-1.28-.39-2.58-.77-3.88-1.12zm3.87 289.79c-1.29.36-2.58.71-3.88 1.04v-9.82c1.3-.36 2.59-.73 3.88-1.12zm0-162.13v5.42l-3.02.33 3.02 2.8v11.38l-3.88-3.6v-15.91zm0 49.67v6.22l-1.46.81zm-34.48-181.8c10.52.45 20.76 1.97 30.61 4.47v9.82c-2.28-.62-4.58-1.19-6.9-1.7v120.73l6.9-.76v15.91l-6.9-6.41v145.11c2.32-.51 4.62-1.07 6.9-1.7v9.82c-9.85 2.5-20.09 4.03-30.61 4.47v-9.49c2.17-.1 4.32-.25 6.47-.45v-279.9c-2.14-.2-4.3-.35-6.47-.45zm-6.47-.15c2.17 0 4.32.06 6.47.15v9.49c-2.14-.1-4.3-.15-6.47-.15v140.55 140.55c2.17 0 4.32-.05 6.47-.15v9.49c-2.15.09-4.3.15-6.47.15-14.18 0-27.9-1.97-40.9-5.64v-56.67c20.1-23.64 32.23-54.27 32.23-87.73s-12.13-64.09-32.23-87.73v-56.65c13-3.69 26.72-5.66 40.9-5.66zm-40.9 294.42c-62.98-17.81-109.13-75.71-109.13-144.39s46.15-126.58 109.13-144.39v56.65c-9.2-10.83-20.08-20.19-32.23-27.69v230.85c12.15-7.5 23.02-16.86 32.23-27.69z"/><path d="m214.21 179.58h5.58l12.28 43h-9.67l-2.14-8.88h-6.05v-7.38h4.25l-4.25-17.27zm0 143.64v-7.38h4.25l-4.25-17.27v-9.48h5.58l12.28 43.01h-9.67l-2.14-8.88zm0-45.21v-7.71c.19.01.39.02.6.02 1.63 0 2.97-.43 3.98-1.28 1.02-.85 1.54-1.97 1.54-3.36 0-1.05-.37-1.99-1.08-2.82s-2.36-1.71-4.91-2.63l-.12-.04v-10.72c1 .48 2.26 1.01 3.78 1.6 2.77 1.02 4.95 2.04 6.54 3.05 1.58 1.01 2.86 2.38 3.84 4.11s1.46 3.74 1.46 6.03c0 4.01-1.38 7.3-4.14 9.88-2.76 2.57-6.46 3.86-11.11 3.86zm0-36.6v-7.73c.26-.01.52-.02.78-.02 7.48 0 12.14 3.34 13.99 10.02l-7.81 2.99c-1.12-3.55-3.15-5.32-6.12-5.32-.29.01-.57.03-.84.06zm-3.94-61.83h3.94v9.48l-.07-.28-4.18 17.55h4.25v7.38h-6.05l-2.12 8.88h-8.69zm3.94 54.11v7.73c-1 .13-1.81.51-2.45 1.13-.81.78-1.22 1.71-1.22 2.75 0 1.23.48 2.19 1.44 2.91.48.37 1.22.79 2.22 1.26v10.72c-3.24-1.15-5.65-2.2-7.25-3.15-1.61-.96-2.95-2.32-4-4.1-1.04-1.77-1.57-3.8-1.57-6.07 0-3.86 1.25-7.03 3.73-9.5 2.33-2.3 5.37-3.53 9.1-3.68zm0 36.61v7.71c-7.57-.12-12.43-4.07-14.56-11.82l8.25-2.36c.96 4.07 3.06 6.24 6.31 6.47zm0 18.8v9.48l-.07-.28-4.18 17.55h4.25v7.38h-6.05l-2.12 8.88h-8.69l12.92-43.01z"/><path d="m447.57 267.35v-7.85l7.96-2.26-7.96-1.61v-6.4l16.12 4.23.3 8.57zm0-30.25v-6.61l14.15.2 1.39 7.16zm0-13.43v-9.04l10.14-4.62 1.71 8.77zm0-18.53v-9l4.71-1.62 2.77 8.05zm0-16.33v-6.58l2.52 5.4zm0-6.57v6.58l-4.06 1.89-3.35-7.18-1.9.89v-17.9l1.63-.76zm0 13.89v9l-9.31 3.21v-9zm0 18.51v9.04l-9.31 3.84v-8.63zm0 15.85v6.61l-9.31-.44v-6.3zm0 18.75v6.4l-7.96-1.61.27 7.66 7.7-2.18v7.85l-9.31 3.02v-23.57zm-9.31-82.72v17.9l-21.29 9.93v-9.38l19.6-9.14-3.26-6.99zm0 32.82v9l-19.83 6.83-1.46-4.25v-4.25zm0 19.54v8.63l-6.67 2.75 6.67.09v6.3l-15.17-.72-1.62-9.39zm0 27.91v23.57l-12.59 4.08-.3-8.7 7.93-2.21-.38-10.89-8.06-1.63-.27-7.82zm-21.29-80.58c2.75.38 5.56-.46 8.41-2.53 1.67-1.21 2.95-2.6 3.86-4.16s1.38-3.14 1.4-4.75c.01-1.6-.26-2.97-.83-4.12-.56-1.15-1.54-2.68-2.93-4.59l-7.16-9.85-2.76 2.01v10.52l2.7-1.96 2 2.75c.75 1.03 1.18 1.89 1.34 2.6.15.7.03 1.49-.35 2.37s-1.09 1.7-2.12 2.45c-1.28.93-2.47 1.42-3.56 1.47zm0-27.99v10.52l-6.09 4.43 2.2 3.03c1.12 1.54 2.42 2.28 3.89 2.22v7.79c-1.03-.14-2.05-.46-3.06-.94l-9.51 15.72-5.45-7.51 9.35-13.19-2.5-3.44-8.89 6.46v-10.52zm0 46.74v9.38l-5.32 2.48-3.59-7.71zm0 21.71v4.25l-1.31-3.8zm-20.06-65.88c.28-.29.56-.58.84-.88 4.53-4.86 7.05-9.32 7.56-13.39.52-4.07-.9-7.68-4.25-10.79-1.34-1.25-2.73-2.19-4.16-2.83v8.52c.82 1.09.99 2.41.5 3.92-.11.35-.28.74-.5 1.16v14.29zm0-27.9v8.52c-.16-.22-.35-.43-.57-.63-1.29-1.2-2.83-1.44-4.61-.72s-4.45 2.98-7.99 6.78c-3.04 3.26-4.99 5.81-5.86 7.64v-14.49c7.01-7.24 13.36-9.61 19.03-7.1zm0 13.6c-.94 1.78-2.84 4.22-5.72 7.3-3.59 3.85-6.27 6.11-8.05 6.81-1.77.71-3.31.45-4.59-.74-.27-.25-.49-.51-.68-.79v8.64c5.66 2.58 12.01.28 19.03-6.92v-14.3zm0 26.3v10.52l-3.51 2.55-5-6.89zm-19.03-46.28v-7.36c.41 1.05.62 2.24.63 3.57.01 1.25-.2 2.51-.63 3.79zm0-7.35v7.36c-.39 1.15-.95 2.32-1.69 3.51-.69 1.11-1.42 2.07-2.18 2.88v-18.29c1.06.83 1.91 1.61 2.56 2.36.55.64.99 1.36 1.31 2.18zm0 20.83v14.49c-.13.27-.23.52-.31.76-.51 1.48-.41 2.76.31 3.83v8.64c-1.33-.61-2.62-1.48-3.87-2.63v-20.57c.92-1.24 1.98-2.5 3.18-3.79.23-.25.46-.49.69-.73zm-3.87-25.37v18.29c-.9.96-1.85 1.72-2.85 2.28-1.84 1.03-3.75 1.41-5.72 1.15-.36-.05-.73-.12-1.13-.23v-7.72c.48.02.92-.07 1.31-.26 1.14-.56 2.17-1.57 3.08-3.03.77-1.23 1.17-2.37 1.2-3.4.03-1.04-.17-1.85-.62-2.43-.46-.58-1.21-1.21-2.27-1.87l-2.23-1.4-.48.76v-8.45l6.03 3.77c1.42.89 2.65 1.74 3.68 2.54zm0 29.89v20.57l-.15-.14c-3.41-3.18-4.81-6.81-4.22-10.91.42-2.99 1.88-6.17 4.37-9.52zm-9.7-36.19v8.45l-5.6 8.96 2.23 1.4c1.31.82 2.43 1.24 3.37 1.27v7.72c-1.79-.47-3.98-1.52-6.58-3.14l-2.55-1.59-7.59 12.15-4.23-2.64v-6.66l17.53-28.05zm-20.95-.77h2.91c.38-3.89-.59-7.03-2.91-9.43zm0-9.43v9.43h-4.61c.21-3.34-.93-5.49-3.43-6.45-1.17-.45-2.22-.47-3.15-.07s-1.57 1.04-1.91 1.92c-.39 1.03-.3 2 .27 2.91.57.92 1.95 2.37 4.12 4.34 2 1.75 3.5 3.31 4.51 4.68 1 1.36 1.64 2.92 1.9 4.69s.02 3.62-.72 5.54c-1.29 3.37-3.51 5.69-6.67 6.97-3.15 1.27-6.68 1.16-10.59-.34-6.55-2.51-9.46-7.44-8.73-14.75l7.7.67c-.55 3.96.69 6.53 3.71 7.69 1.37.53 2.63.6 3.76.21 1.13-.38 1.93-1.16 2.38-2.32.34-.89.33-1.79.01-2.72-.33-.93-1.43-2.2-3.28-3.8-2.4-2.05-4.12-3.74-5.17-5.07s-1.73-2.9-2.04-4.74c-.31-1.83-.1-3.7.64-5.61 1.25-3.25 3.32-5.51 6.2-6.78 2.89-1.28 6.06-1.25 9.5.07 2.34.93 4.21 2.1 5.6 3.53zm0 36.11v6.66l-2.99-1.87zm-57.82-12.44v-7.09c1.01-.26 1.86-.93 2.54-2.01 1.03-1.61 1.86-5.02 2.51-10.24.64-5.18.66-8.68.06-10.5-.6-1.81-1.78-2.83-3.54-3.05-.56-.07-1.09-.04-1.57.08v-7.08c.77-.01 1.58.03 2.42.13 4.54.56 7.8 2.64 9.78 6.24s2.56 8.69 1.75 15.28c-1.47 12.01-6.13 18.1-13.95 18.24zm0-39.9v7.08c-1.03.26-1.89.94-2.58 2.04-1.02 1.63-1.85 5.02-2.48 10.18-.62 5.07-.64 8.55-.06 10.42.58 1.89 1.75 2.94 3.52 3.15.57.07 1.11.04 1.61-.09v7.09c-.78.01-1.58-.03-2.42-.13-4.62-.57-7.9-2.69-9.83-6.34-1.94-3.66-2.51-8.73-1.71-15.21 1.46-11.98 6.12-18.06 13.95-18.19zm-35.28 29.99v-6.66l3.82-.27-3.82-11.87v-12l3.33-.23 13.73 37.86-8.69.61-2.48-7.84zm0-34.52v-4.66c1.27.41 2.15.6 2.65.56.85-.06 1.7-.8 2.57-2.23l2.65 1.7c-1.72 3.02-3.78 4.61-6.18 4.78-.47.04-1.04-.01-1.69-.15zm0-4.66v4.65c-.58-.13-1.22-.32-1.94-.59-1.71-.62-2.89-.9-3.54-.86-.73.05-1.59.71-2.56 1.98l-2.57-1.73c1.91-2.84 3.88-4.33 5.92-4.47.94-.07 2.21.18 3.8.72.32.11.61.21.89.3zm0 8.38v12l-1.16-3.62-2.66 16.03 3.82-.27v6.66l-4.97.35-1.35 8.11-7.81.55 8.9-39.45zm-45.06 47.98v-2.77l1.69 2.02zm0-17.32c2.73 9.19 7.84 13.68 15.35 13.46l-.68 5.13 1.75-.4c1.05-.22 1.9-.18 2.57.15.66.32 1.06.82 1.2 1.49.23 1.07-.25 1.74-1.46 1.99-1.26.27-2.9.11-4.91-.46l-.41 2.72c2.46.91 4.7 1.15 6.74.72 1.85-.39 3.2-1.16 4.04-2.29.84-1.14 1.11-2.41.81-3.84-.29-1.34-.96-2.35-2.02-3.01s-2.26-.84-3.61-.55c-.26.05-.62.16-1.09.32l.25-2.49c3.81-1.19 6.45-3.31 7.92-6.39s1.94-6.45 1.39-10.13l-7.79 1.16c.55 5.18-.7 8.1-3.74 8.74-1.88.4-3.49-.18-4.8-1.72-1.32-1.55-2.47-4.65-3.46-9.31-1.11-5.22-1.35-8.84-.7-10.88.64-2.03 1.83-3.23 3.57-3.6 3.31-.7 5.67 1.74 7.06 7.32l7.49-2.18c-2.78-9.62-8.12-13.59-16.02-11.91-4.54.97-7.69 3.27-9.44 6.92v19.04zm0-19.05v19.04c-.31-1.05-.59-2.15-.84-3.32-1.3-6.13-1.11-11.17.58-15.15.08-.19.17-.38.26-.57zm0 33.61-20.45-24.43v11.62l4.99 6.43-4.99 2.22v7.27l9.17-4.08 5.01 6.52 6.27-2.79zm-20.45 11.87v-4.23l.73 3.9zm0-36.3v11.62l-4.99-6.43 2.99 15.97 2.01-.89v7.27l-.78.35.78 4.18v4.23l-6.42 2.86-3.35-26.2v-14.7l6.05-2.69zm-9.77 42.65 1.78-1.11-1.78-2.85zm0-44.39v14.7l-1.78-13.91zm0 40.44-18.74-30-.18.11v15.67l13.48 21.58 5.44-3.4zm-18.92 15.28v-11.69l7.04 7.55-5.83 5.44zm0-45.17v15.67l-7.04-11.27zm0 33.48-19.37-20.77-8.86 8.26 11.81 21.69-17.34-11.74v8.26l24.66 16.9 4.53-4.22-16.33-29.11 20.91 22.42v-11.69zm-33.76 53.23v-11.78l6.51-8.95 5.6 4.07zm0-36.31v-10.15l19.37 20.77-5.06 4.72zm0-19.48v8.26l-2.75-1.89 2.75 2.95v10.15l-12.11-12.98 9.13-8.51zm0 44.01v11.78l-1.74 2.39-16.75-12.17v-10.52l3.07 2.23 6.87-9.46 5.4 3.92-6.87 9.46 7.69 5.58zm-18.49 52.91v-3.86l1.48.34-.81 3.51zm0-11.48v-9.39l6.67 3.11-3.6 7.71zm0-16v-7.78l14.58.55-3.92 8.41zm0-42.78v-9.76l4.64 3.37zm-16.72 98.64 12.27-3.04-.3 8.7-8.06 1.65-.38 10.89 7.93 2.19-.27 7.82-11.18-3.79v-24.42zm16.72-108.41v9.76l-4.2 5.78 4.2 3.05v10.52l-14.58-10.59 13.84-19.05zm0 44.77v7.78l-5.42-.6-1.8 3.85 7.21 3.36v9.39l-16.72-7.8v-9.39l3.82 1.78 1.58-3.4c1.4-3.01.42-5.31-2.96-6.88-.87-.41-1.69-.64-2.45-.68v-8.18h.47c1.81.04 3.64.49 5.51 1.36 4.39 2.05 6.71 5.14 6.96 9.26zm0 31.4v3.86l-3.89.07c2.8 2.78 3.73 6.21 2.79 10.26-.99 4.29-3.48 7.31-7.44 9.05-2.4 1.05-5.13 1.54-8.19 1.47v-8.84c2.22.24 3.98.16 5.27-.25 2.09-.66 3.38-2.04 3.87-4.15.78-3.37-1.32-5.64-6.29-6.81l-1.3 5.64-1.55-.36v-13.8zm-27.48 34.91 10.76-2.67v24.41l-10.76-3.64v-6.54l7.7 2.12.27-7.66-7.97 1.67zm10.76-77.08v8.18c-.25-.01-.49-.01-.72.02-.95.1-1.71.38-2.24.84-.54.47-1.09 1.28-1.62 2.43l-1.44 3.08 6.03 2.81v9.39l-10.76-5.02v-11.87l.6-1.28c1-2.14 1.86-3.74 2.59-4.78.73-1.05 1.8-1.95 3.2-2.72 1.28-.69 2.74-1.05 4.36-1.08zm0 38.31v13.81l-4.95-1.14 3.03-13.11zm0 19.72v8.84c-1.97-.05-4.08-.33-6.33-.85-1.58-.36-3.05-.79-4.43-1.28v-9.36c1.63.65 3.67 1.25 6.11 1.82 1.73.41 3.27.69 4.65.83zm-10.76-13.77v-7.78c1.12-.03 2.32.03 3.58.18l-.52 7.74c-1.12-.14-2.15-.19-3.06-.14zm-16.36 45.37.3-8.57 16.06-3.99v7.69l-7.97 1.67 7.97 2.2v6.54zm16.36-79.76v11.87l-4.55-2.12zm0 26.6v7.78c-3.17.16-5.03 1.42-5.57 3.79-.43 1.87.14 3.56 1.7 5.11.82.8 2.11 1.55 3.87 2.25v9.36c-4.03-1.43-7.19-3.38-9.46-5.85-3.05-3.32-4.02-7.4-2.9-12.25 1.53-6.62 5.64-10.01 12.36-10.19z"/><path d="m382.78 425.83v-.05l.02.04zm0-10.55v-3.04l2.8-4.31c3.24 2.34 6.09 2.46 8.53.34 1.11-.97 1.76-2.05 1.95-3.22.19-1.18-.12-2.25-.94-3.19-.62-.72-1.42-1.14-2.4-1.28-.97-.14-2.61.23-4.9 1.11-1.97.77-3.65 1.35-5.05 1.75v-9.41c.64-.21 1.35-.45 2.12-.73 2.49-.94 4.57-1.53 6.25-1.79 1.67-.25 3.35-.07 5.04.52 1.69.6 3.21 1.68 4.56 3.24 2.37 2.73 3.38 5.78 3.03 9.16-.36 3.38-2.11 6.44-5.27 9.19-4.88 4.26-10.13 4.81-15.72 1.66zm0-27.68v-7.94c1.74.27 3.48.99 5.23 2.14l-3.54 6.64c-.58-.35-1.14-.63-1.69-.84zm0-12.61 30.49 23.82 14.5-18.56-5.46-4.26-9.26 11.85-7.49-5.85 7.2-9.21-5.26-4.11-7.2 9.21-7.08-5.53 9.26-11.85-5.24-4.09-14.48 18.53v.05zm0-.05v.05l-.02-.02zm0 4.72v7.94c-2.14-.83-4.01-.55-5.61.85-.94.82-1.45 1.74-1.54 2.75-.08 1.01.18 1.88.8 2.59.72.83 1.63 1.21 2.7 1.13.78-.05 1.99-.34 3.65-.88v9.41c-.69.19-1.3.34-1.85.44-1.66.3-3.37.16-5.14-.42-.12-.04-.25-.09-.37-.13v-22.14c2.44-1.41 4.9-1.93 7.36-1.54zm0 32.59v3.04c-.47-.26-.94-.55-1.41-.86zm0 13.53-7.36-11.34v14.83l1.01.69 6.35-4.13zm-7.36-44.58v22.13c-1.61-.61-3.03-1.63-4.28-3.06-2.28-2.62-3.31-5.52-3.07-8.66.23-3.15 1.74-5.94 4.52-8.35.94-.82 1.88-1.51 2.83-2.06zm0 33.24-13.71-21.1-5.52 3.58 13.1 20.18-21.46-14.75-.24.16v16.8l13.42 20.66 5.51-3.58-15.27-23.51 24.16 16.4v-14.84zm-27.82 32.21v-7.64l4.75-2.21 2.93 6.28zm0-44.15v16.8l-7.67-11.82zm0 36.51-8.88 4.14-4.01-8.61 10.59-4.94-2.82-6.05-10.59 4.94-3.8-8.15 13.63-6.36-2.81-6.02-18.73 8.74v6.82l13.76 29.5 13.67-6.37v-7.64zm-27.43 16.46v-21.03l1.16 5.01c.98 4.24 1.46 7.45 1.45 9.65s-.84 4.27-2.49 6.22zm0-38.76v6.82l-2.61-5.6zm0 17.74-3.74-16.22-6.94 1.6 4.98 21.56c.71 3.06 1.1 5.17 1.18 6.34.08 1.16-.21 2.19-.87 3.05-.65.88-1.67 1.47-3.06 1.79-1.27.3-2.41.23-3.43-.18-1.02-.42-1.81-1.19-2.36-2.33-.56-1.13-1.18-3.22-1.88-6.26l-4.98-21.56-8.29 1.91 4.98 21.56c1.16 5.01 2.36 8.42 3.61 10.22s2.95 3.03 5.08 3.69 4.83.62 8.12-.13c3.42-.79 5.96-2.13 7.62-4.01v-21.03zm-44.54 31.01v-7.02c.35.06.73.07 1.13.04 1.75-.15 2.96-1.12 3.62-2.91.67-1.79.78-5.3.32-10.54-.45-5.2-1.16-8.63-2.12-10.28-.74-1.27-1.73-2.01-2.95-2.21v-7c3.79.05 6.85 1.45 9.16 4.19 2.66 3.15 4.27 7.88 4.82 14.19.4 4.54.21 8.39-.57 11.54-.77 3.15-2.4 5.69-4.87 7.62.12 1.11.42 1.85.91 2.21.48.37 1.19.51 2.11.43.87-.08 1.82-.3 2.85-.68l.53 6.1c-1.19.45-2.39.72-3.57.83-4.82.42-7.6-1.83-8.34-6.76-.69.1-1.23.17-1.61.2-.48.03-.96.05-1.42.05zm0-39.93v7c-.36-.06-.74-.07-1.15-.04-1.76.15-2.96 1.13-3.62 2.94s-.76 5.3-.31 10.48c.45 5.08 1.15 8.49 2.11 10.21.74 1.34 1.73 2.11 2.97 2.32v7.02c-3.54-.02-6.53-1.35-8.96-3.98-2.76-2.98-4.44-7.9-5.05-14.78-1.16-13.25 2.93-20.28 12.26-21.1.6-.06 1.19-.08 1.75-.07zm-30.7 31.07v-6.67l3.81.33-2.5-16.08-1.31 3.95v-12.38l7.1.62 7.64 39.54-8.67-.76-1.22-8.14zm0-30.85v12.38l-3.82 11.47 3.82.33v6.67l-6.01-.53-2.6 7.8-6.11-.53v-4.39l13.27-33.33zm-14.71 13.7c.55-1.05.98-2.25 1.29-3.6.46-2.01.52-3.89.19-5.67-.27-1.42-.76-2.66-1.47-3.73v13zm0-13v13c-1.37 2.63-3.48 4.34-6.32 5.13l3.13 18.11-8.37-1.93v-22.29c2.47.09 4.06-1.41 4.78-4.51.29-1.25.29-2.33-.01-3.24s-.73-1.59-1.29-2.02c-.58-.43-1.48-.8-2.71-1.08l-.76-.18v-6.44l2.43.56c2.3.53 4.04 1.04 5.22 1.54 1.18.49 2.28 1.35 3.32 2.57.21.25.4.51.58.78zm0 32.5-1.69 4.24 1.69.15zm-11.56-37.95v6.43l-2.55-.59-2.44 10.59 3.65.84c.47.11.92.17 1.34.19v22.29l-.67-.15-1.59-16.09-4.14-.96-3.45 14.93-5.62-1.3v-12.21l6.04-26.14zm-15.46 2.46 2.68-6.62-2.68-1.08zm0-7.71v7.7l-11.83 29.28-3.43-1.39v-12.84l10.05-24.87zm0 29.22-2.68 11.59 2.68.62zm-15.27-17.01c.85-.91 1.64-2.01 2.39-3.3 1.48-2.56 2.17-5.01 2.06-7.37-.1-2.36-.81-4.26-2.15-5.68-.6-.65-1.37-1.32-2.31-2.02v18.37zm0-18.37v18.37c-.77.83-1.59 1.51-2.46 2.03-.61.37-1.23.67-1.86.89v-13.16c.09-.4.14-.79.14-1.16 0-.46-.05-.87-.14-1.24v-8.53l.24.14c1.6.93 2.96 1.82 4.08 2.66zm0 28.92v12.84l-4.32-1.75v-.39zm-4.32-31.71v8.53c-.11-.47-.3-.86-.56-1.17-.48-.57-1.25-1.17-2.33-1.79l-2.28-1.32-.21.36v-7.72zm0 10.93v13.16c-1.23.43-2.5.59-3.81.46-.49-.05-1.01-.15-1.57-.29v-7.61c.55.03 1.04-.07 1.47-.3 1.12-.6 2.11-1.64 2.97-3.14.46-.8.77-1.57.94-2.28zm0 31.48v.39l-.14-.06zm-5.39-45.52v7.72l-5.52 9.57 2.28 1.32c1.26.73 2.34 1.11 3.24 1.15v7.61c-1.72-.46-3.81-1.39-6.26-2.81l-2.6-1.5-7.17 12.41-1.83-1.05v-12.8l13.82-23.94zm-17.85 5.13 5.54-13.02-5.54-4.49zm0-17.51v17.51l-4.58 10.76v-18.5l.96-2.05-.96.74v-7.01l3.46-2.36zm0 33.99v12.8l-4.58-2.65v-2.22zm-4.58-32.53v7.01l-10.51 8.09v-7.93zm0 8.32-5.96 12.68-4.55-3.68v8.55l1.62 1.31-1.62 3.41v5.57l4.85 3.93 5.65-13.28v-18.49zm0 32.15v2.22l-.96-.56zm-10.5-44.4v-10.03l.03.05c.7 1.07 1.14 2.4 1.32 3.99.18 1.6-.09 3.23-.81 4.89-.16.37-.34.74-.54 1.1zm-17.72-31.02.74 1.18-.74.82zm17.72 20.99v10.03c-.69 1.24-1.61 2.4-2.78 3.49-3.54 3.3-7.28 4.3-11.19 2.98l-3.75 8.35v-19.2l1.82 1.95c2.26 2.43 4.76 2.38 7.49-.16.94-.87 1.54-1.77 1.81-2.69s.29-1.72.06-2.4c-.24-.68-.78-1.49-1.64-2.42l-2.32-2.49-7.21 6.72v-11.64l5.99-5.58 8.3 8.9c1.57 1.71 2.72 3.09 3.42 4.16zm0 21.12-17.72 12.08v2.57l4.36 3.53 6.52-5.01 6.84 5.54v-8.55l-1.41-1.14 1.41-1.08zm0 23.43v5.57l-1.91-1.55zm-21.53-71.63 3.81 6.09v1.99l-16.68 18.48v-11.29l7.7-7.93-7.7 2.59v-6.42zm3.81 19.61-16.68 15.55v11.34l.15.16 11.21-10.45 2.9 3.11-7.68 14.23 6.33 6.79 3.78-8.41v-19.2l-.74-.79.74-.69v-11.64zm0 40.67v2.57l-1.72-1.39zm-16.68-33.71-9.57 10.6-4.61-7.38 5.76-5.87-5.77-9.24-7.8 2.62-4.15-6.64 26.13-7.14v6.42l-7.7 2.59 4.06 6.5 3.64-3.75v11.29zm0 8.6-5.66 5.27 5.66 6.07z"/><path d="m96.11 340.32c-3.51 1.52-7.38 2.37-11.45 2.37-3.9 0-7.62-.78-11.01-2.18l.77-2.61c4.12.33 8.25-.13 12.38-1.37 3.11 1.34 6.48 2.03 10.12 2.06z"/><path d="m96.34 340.88c-1.82.79-3.73 1.4-5.71 1.81-1.77.37-3.6.57-5.46.61v-1.21c1.79-.03 3.53-.23 5.21-.58 1.83-.38 3.59-.93 5.26-1.64l.32-.69c-1.53-.06-3.01-.24-4.44-.53-1.66-.34-3.25-.83-4.78-1.47-.53.15-1.05.3-1.57.43v-1.25c.48-.12.96-.26 1.44-.4l.21-.06.2.09c1.52.66 3.1 1.15 4.74 1.49 1.65.34 3.36.51 5.14.53l.93.01-.39.85-.8 1.74-.1.21zm-11.17 2.41c-.17 0-.35 0-.52 0-1.96 0-3.88-.19-5.74-.56-1.9-.38-3.74-.94-5.5-1.67l-.5-.21.15-.52.77-2.61.14-.47.49.04c2.03.16 4.05.13 6.07-.09 1.55-.17 3.09-.46 4.64-.85v1.25c-1.5.37-3.01.64-4.51.81-1.94.21-3.88.26-5.81.13l-.48 1.62c1.53.6 3.12 1.07 4.77 1.39 1.78.35 3.62.54 5.51.54h.52z"/><path d="m113.61 308.61c.15.86.27 1.73.35 2.61.08.89.12 1.77.12 2.64 0 3.1-.48 6.08-1.37 8.89-.57 1.79-1.3 3.51-2.19 5.14v-2.75c.39-.89.73-1.81 1.03-2.75.85-2.69 1.31-5.55 1.31-8.53 0-.87-.04-1.72-.11-2.53-.06-.69-.15-1.37-.26-2.04l-.14-.01c-.2 1.73-.54 3.44-1.04 5.12-.23.78-.5 1.56-.8 2.32v-3.99c.33-1.37.56-2.76.7-4.16l.06-.59.59.04 1.19.09.47.04zm-3.08 19.28c-.55 1.01-1.15 1.98-1.81 2.92l-.19.26-.32-.01-.91-.02-.77-.02.2-.74c.48-1.76.79-3.53.96-5.3.18-1.78.23-3.56.19-5.33v-.16l.08-.14c.95-1.73 1.68-3.49 2.21-5.28.13-.44.25-.88.36-1.33v3.99c-.41 1.03-.88 2.05-1.43 3.06.03 1.77-.02 3.54-.2 5.31-.14 1.45-.37 2.9-.71 4.35.9-1.36 1.68-2.8 2.34-4.3z"/><path d="m108.22 330.46c-3.04 4.31-7.23 7.74-12.12 9.86l.8-1.73c4.03-2.02 7.43-4.82 10.41-8.15z" fill="#fff"/><path d="m108.72 330.81c-1.56 2.21-3.41 4.19-5.5 5.89-1.24 1.01-2.56 1.92-3.96 2.72v-1.4c.66-.4 1.29-.82 1.91-1.27-.62.43-1.26.85-1.91 1.24v-1.42c.99-.63 1.95-1.31 2.87-2.04 1.7-1.35 3.28-2.86 4.74-4.5l.19-.21.28.01.91.02 1.13.03zm-9.46 8.61c-.94.54-1.91 1.03-2.91 1.46l-1.45.63.66-1.43.8-1.73.09-.19.19-.09c.91-.45 1.78-.95 2.63-1.48v1.42c-.62.37-1.25.72-1.89 1.05l-.02.05c.65-.33 1.29-.68 1.91-1.06v1.37z"/><path d="m57.61 325.48c-.78-1.8-1.38-3.7-1.78-5.68-.39-1.93-.6-3.91-.6-5.94 0-.77.03-1.53.09-2.29.06-.75.15-1.51.27-2.28l.16-1.03.81.65.66.52.25.2-.02.31c-.14 2.13-.12 4.22.1 6.28.21 2.06.62 4.09 1.25 6.07l.03.09v.09l-.04 2.76-.04 2.83z"/><path d="m73.41 341.07c-2.6-1.08-5.01-2.51-7.17-4.25v-1.57c2.09 1.8 4.45 3.3 7.01 4.44l.47-1.58c-1.78-1.53-3.27-3.09-4.54-4.69-1.12-1.4-2.08-2.82-2.93-4.25v-1.85l.25.1.19.08.1.18c.94 1.69 2.03 3.35 3.33 4.98 1.31 1.63 2.84 3.23 4.68 4.78l.3.26-.11.38-.77 2.61-.19.64zm-7.17-4.25c-.79-.63-1.54-1.3-2.25-2.01-2.69-2.65-4.87-5.82-6.38-9.33l-.05-.11v-.13l.04-2.76.02-1.58 1.03 1.19c1.08 1.24 2.3 2.27 3.61 3.13 1.25.83 2.58 1.51 3.97 2.1v1.85c-.14-.24-.28-.47-.41-.71-1.48-.62-2.9-1.35-4.23-2.23-.99-.66-1.94-1.4-2.82-2.26l-.02 1.15c1.45 3.33 3.52 6.33 6.07 8.84.45.45.92.88 1.41 1.3v1.56z"/><path d="m62.1 294.96c1.51-1.8 3.23-3.41 5.12-4.81l.32-.24.34.21.84.51.62.37-.48.54c-1.24 1.41-2.28 2.94-3.17 4.56-.89 1.63-1.62 3.35-2.22 5.15l-.04.13-.09.1c-.43.45-.85.9-1.25 1.36v-1.8l.29-.31c.61-1.83 1.36-3.57 2.26-5.22.73-1.33 1.56-2.6 2.5-3.79-1.89 1.5-3.59 3.24-5.05 5.17v-1.93zm-6.52 14.33c.6-3.87 1.96-7.49 3.92-10.7.78-1.28 1.65-2.49 2.61-3.63v1.94c-.56.75-1.09 1.52-1.57 2.32-1.62 2.66-2.81 5.6-3.48 8.74.53-1.04 1.15-2.05 1.84-3.02.95-1.35 2.04-2.64 3.21-3.89v1.8c-.8.91-1.55 1.84-2.22 2.79-1.01 1.43-1.86 2.92-2.49 4.49l-.3.76-.64-.51-.65-.52-.27-.22z"/><path d="m84.65 285.04c1.75 0 3.47.16 5.13.46l-.06-.01c-3.76.32-6.81 1.35-9.52 2.72-3.93.29-7.86 1.08-11.79 2.95l-.81-.53c4.78-3.52 10.68-5.59 17.05-5.59z"/><path d="m84.65 284.43c.87 0 1.75.04 2.63.12.83.07 1.65.18 2.46.32l.09.02.06.01-.15.82.03.36c-1.84.15-3.5.49-5.03.94-1.54.46-2.95 1.05-4.27 1.71l-.11.06-.11.01c-.93.07-1.86.17-2.79.3v-1.22c.86-.12 1.73-.21 2.59-.28 1.36-.68 2.8-1.27 4.35-1.74.26-.08.52-.15.79-.22-.18 0-.35 0-.53 0-2.49 0-4.9.32-7.2.92v-1.25c2.3-.57 4.71-.88 7.19-.88zm-7.19 4.68c-1 .14-2 .33-3.01.57-1.93.46-3.85 1.11-5.77 2.02l-.3.14-.28-.18-.81-.53-.73-.48.7-.52c2.48-1.82 5.26-3.27 8.25-4.24.65-.21 1.3-.4 1.96-.57v1.25c-.54.14-1.07.3-1.59.47-2.17.71-4.23 1.68-6.14 2.87 1.48-.6 2.96-1.06 4.44-1.41 1.1-.26 2.19-.46 3.29-.61v1.22z"/><path d="m92.56 285.51c1.3.36 2.57.81 3.79 1.35 2.11.92 4.09 2.07 5.91 3.43l.1.08.06.11c.72 1.28 1.34 2.56 1.86 3.84s.94 2.57 1.26 3.86l.13.54-.53.18c-1.54.52-2.99 1.09-4.37 1.7-1.38.6-2.7 1.24-4 1.9l-.27.14-.27-.13c-1.23-.6-2.46-1.16-3.68-1.69v-1.32c1.32.56 2.63 1.16 3.94 1.79 1.22-.62 2.47-1.22 3.79-1.79 1.25-.55 2.55-1.07 3.94-1.56-.28-1.05-.64-2.1-1.07-3.16-.49-1.2-1.06-2.4-1.73-3.6-1.71-1.27-3.58-2.35-5.56-3.21-1.07-.46-2.18-.86-3.32-1.2v-1.26zm-2.73-.62c.93.17 1.84.37 2.73.62v1.26c-.93-.27-1.89-.5-2.86-.67-1.81.16-3.44.48-4.95.93-1.38.41-2.65.93-3.85 1.51.26 1.24.6 2.47 1.02 3.7.44 1.3.96 2.6 1.58 3.92 2.17.68 4.34 1.44 6.51 2.29.85.33 1.71.68 2.56 1.05v1.32c-1-.43-2-.84-3-1.24-2.23-.87-4.46-1.65-6.69-2.34l-.25-.08-.11-.24c-.68-1.42-1.26-2.85-1.74-4.29s-.87-2.87-1.15-4.3l-.09-.45.41-.21c1.39-.7 2.86-1.31 4.46-1.79 1.61-.48 3.35-.83 5.28-.99l.08-.01z"/><path d="m101.9 290.77c5.72 4.28 9.8 10.64 11.12 17.95-.39-.03-.9-.14-1.19-.09-2.16-4.75-4.45-8.19-6.88-10.31-.62-2.52-1.64-5.03-3.05-7.55z" fill="#fff"/><path d="m108.02 295.97c.6.78 1.16 1.59 1.67 2.42 1.9 3.07 3.26 6.53 3.92 10.22l.14.77-.77-.06c-.13-.01-.3-.03-.46-.05-.24-.03-.48-.06-.57-.04l-.47.09-.2-.43c-1.05-2.32-2.15-4.32-3.27-6.01v-2.09c.33.43.66.9.98 1.38 1.1 1.65 2.17 3.61 3.22 5.86h.05c-.68-3.24-1.92-6.27-3.61-9-.21-.34-.42-.67-.65-.99v-2.07zm-5.76-5.68c2.17 1.62 4.1 3.54 5.75 5.68v2.06c-1.23-1.8-2.65-3.46-4.25-4.93.19.41.36.81.52 1.22.49 1.22.9 2.45 1.21 3.67.86.77 1.7 1.7 2.52 2.79v2.09l-.03-.04c-1.12-1.67-2.26-3.03-3.43-4.05l-.14-.13-.05-.18c-.3-1.23-.71-2.46-1.21-3.69-.5-1.24-1.1-2.47-1.79-3.71l-1.4-2.49z"/><path d="m84.95 324.07c.6.18 1.21.35 1.82.51 2-1.35 3.94-2.73 5.79-4.15 1.84-1.41 3.58-2.84 5.21-4.3-.06-2.29-.23-4.59-.53-6.88-.29-2.28-.71-4.57-1.25-6.88-2.15-1.04-4.29-1.97-6.42-2.8-1.54-.6-3.07-1.16-4.61-1.67v-1.27c1.68.56 3.37 1.16 5.05 1.82 2.26.89 4.52 1.87 6.77 2.96l.26.13.07.28c.57 2.41 1.02 4.84 1.34 7.28.31 2.43.5 4.85.54 7.28l.01.27-.2.19c-1.73 1.56-3.56 3.08-5.49 4.55s-3.96 2.92-6.07 4.34l-.24.15-.26-.07c-.6-.15-1.2-.31-1.79-.48zm-1.85-26.77c-2.01.98-3.91 2.18-5.72 3.56-1.82 1.39-3.56 2.97-5.22 4.68-.07 2.33.02 4.66.3 6.99.27 2.32.73 4.65 1.38 6.97 2.04 1.07 4.13 2.04 6.29 2.89 1.57.62 3.18 1.18 4.82 1.67v1.26c-1.8-.52-3.55-1.12-5.26-1.8-2.27-.9-4.48-1.93-6.64-3.07l-.23-.12-.07-.25c-.71-2.47-1.2-4.94-1.49-7.41-.29-2.46-.38-4.94-.3-7.41l.01-.23.16-.17c1.76-1.82 3.59-3.5 5.52-4.97 1.94-1.48 3.98-2.77 6.15-3.8l.21-.1.23.07c.57.18 1.14.36 1.72.55v1.27c-.62-.19-1.24-.39-1.86-.58z"/><path d="m96.51 301.95c2.6-1.32 5.32-2.58 8.45-3.63 2.42 2.13 4.71 5.57 6.88 10.31-.38 3.79-1.39 7.47-3.34 11-3.24-1.34-6.61-2.42-10.12-3.24-.1-4.81-.72-9.62-1.87-14.44z"/><path d="m104.21 297.94c.18-.06.37-.13.55-.19l.33-.11.26.23c1.25 1.1 2.47 2.53 3.64 4.29 1.16 1.74 2.29 3.81 3.38 6.22l.07.15-.02.16c-.19 1.93-.55 3.84-1.1 5.71-.56 1.88-1.31 3.72-2.31 5.52l-.26.47-.5-.21c-1.33-.55-2.68-1.05-4.05-1.52v-1.27c1.36.45 2.69.94 4.01 1.47.83-1.57 1.47-3.18 1.95-4.81.52-1.75.85-3.52 1.04-5.33-1.04-2.27-2.12-4.24-3.23-5.9-1.03-1.55-2.09-2.83-3.17-3.82-.2.07-.4.14-.61.21v-1.27zm-7.97 3.47c1.31-.66 2.65-1.31 4.06-1.93 1.24-.54 2.54-1.07 3.92-1.55v1.28c-1.2.43-2.33.89-3.43 1.37-1.23.54-2.41 1.11-3.57 1.69.52 2.26.93 4.54 1.23 6.82.29 2.27.47 4.54.53 6.81 1.6.39 3.19.83 4.75 1.33l.49.16v1.27c-.29-.1-.57-.19-.86-.28-1.66-.53-3.36-1-5.11-1.41l-.46-.11-.01-.47c-.05-2.38-.23-4.77-.54-7.16-.31-2.37-.75-4.76-1.32-7.16l-.11-.46z"/><path d="m97.57 337.56c1.62-.88 3.13-1.9 4.56-3.03 1.67-1.32 3.21-2.79 4.64-4.39.46-1.72.75-3.44.93-5.17.17-1.65.22-3.29.2-4.93-1.49-.61-3-1.16-4.55-1.65-1.56-.5-3.17-.95-4.81-1.34-.32.29-.65.57-.97.86v-1.61l.4-.36.24-.21.31.07c1.76.41 3.49.89 5.2 1.44 1.7.54 3.37 1.16 5 1.83l.37.15.01.4c.03 1.82-.02 3.65-.2 5.47-.18 1.83-.5 3.66-1 5.5l-.04.14-.1.11c-1.52 1.69-3.14 3.25-4.89 4.64-1.64 1.3-3.4 2.46-5.31 3.45v-1.37zm-10.1-11.99c-.25 3.52-.31 7.03-.1 10.55 1.42.59 2.88 1.03 4.4 1.34 1.6.33 3.27.5 4.99.53.27-.14.54-.28.81-.43v1.37l-.4.2-.13.06h-.14c-1.86-.02-3.65-.2-5.37-.55-1.73-.35-3.39-.87-4.98-1.56l-.34-.15-.02-.37c-.25-3.79-.18-7.59.1-11.38l.02-.29.25-.17c2.08-1.4 4.09-2.83 6.01-4.3 1.76-1.35 3.44-2.72 5.01-4.12v1.61c-1.37 1.18-2.8 2.34-4.28 3.48-1.86 1.42-3.81 2.81-5.83 4.18z"/><path d="m76.61 337.4c1.31.02 2.62-.05 3.92-.19 1.87-.21 3.75-.58 5.62-1.12-.2-3.47-.15-6.93.09-10.39-2.25-.59-4.43-1.32-6.56-2.16-1.04-.41-2.06-.85-3.08-1.31v-1.33c1.16.54 2.33 1.05 3.52 1.52 2.23.88 4.53 1.64 6.9 2.24l.49.12-.04.51c-.28 3.74-.34 7.48-.1 11.22l.03.48-.46.14c-2.1.63-4.19 1.07-6.29 1.3-1.35.15-2.7.22-4.05.2v-1.23zm-3.19-16.74c-1.25 1.16-2.4 2.36-3.47 3.59s-2.05 2.49-2.98 3.77c.9 1.57 1.92 3.12 3.14 4.64 1.27 1.59 2.76 3.14 4.53 4.65.65.05 1.31.08 1.96.08v1.21c-.75-.01-1.5-.04-2.25-.1l-.19-.02-.15-.13c-1.91-1.61-3.5-3.26-4.85-4.94-1.36-1.69-2.47-3.41-3.45-5.14l-.19-.34.23-.31c1.02-1.42 2.1-2.81 3.27-4.17 1.18-1.36 2.46-2.69 3.88-3.98l.31-.28.37.2c.99.52 1.99 1.02 3 1.49v1.33c-1.04-.48-2.11-1-3.16-1.55z"/><path d="m66.26 327.98c-3.03-1.26-5.81-2.93-8.05-5.5-1.29-4.05-1.65-8.26-1.38-12.57 1.29-3.24 3.49-6.12 6.09-8.84 2.88 1.41 5.76 2.81 8.64 4.22-.17 4.88.37 9.76 1.77 14.64-2.8 2.53-5.06 5.25-7.07 8.05z"/><path d="m66.03 328.54c-.35-.14-.69-.29-1.03-.45v-1.33c.35.17.7.33 1.06.48.93-1.28 1.92-2.54 2.99-3.78 1.1-1.27 2.29-2.52 3.6-3.73-.65-2.35-1.11-4.7-1.39-7.05-.28-2.33-.37-4.67-.31-7.02l-5.95-2.9v-1.35l6.83 3.34.35.17-.01.39c-.08 2.4.01 4.81.29 7.23.28 2.41.76 4.81 1.45 7.22l.1.36-.28.25c-1.38 1.25-2.62 2.55-3.78 3.88-1.15 1.33-2.21 2.7-3.21 4.08l-.28.39zm-1.03-.45c-1.18-.54-2.32-1.15-3.39-1.86-1.4-.92-2.69-2.02-3.85-3.35l-.08-.09-.04-.12c-.66-2.07-1.08-4.17-1.3-6.31-.22-2.13-.24-4.3-.1-6.48l.01-.09.04-.09c.67-1.67 1.56-3.24 2.62-4.74 1.05-1.49 2.27-2.91 3.6-4.29l.31-.32.39.19 1.81.89v1.35l-1.95-.95c-1.16 1.24-2.24 2.51-3.17 3.83-.99 1.41-1.83 2.86-2.45 4.4-.13 2.1-.11 4.16.1 6.19.21 2.02.6 4 1.21 5.95 1.06 1.2 2.25 2.19 3.53 3.04.87.58 1.78 1.08 2.73 1.54v1.31z"/><path d="m72.96 303.06c1.19-1.13 2.42-2.19 3.69-3.16 1.78-1.36 3.64-2.55 5.61-3.54-.57-1.24-1.07-2.49-1.49-3.75s-.77-2.52-1.04-3.77c-1.76.15-3.51.41-5.27.83-.5.12-1 .25-1.49.39v-1.26c.4-.11.81-.22 1.22-.31 2-.47 3.99-.75 5.99-.9l.53-.04.1.53c.27 1.39.64 2.77 1.11 4.15.46 1.38 1.03 2.76 1.69 4.16l.26.55-.55.26c-2.09 1-4.06 2.23-5.93 3.67-1.53 1.17-3 2.47-4.42 3.88v-1.69zm-9.3-2.3 7.77 3.8c.5-.51 1.01-1.01 1.52-1.5v1.68c-.32.32-.64.64-.96.97l-.31.32-.39-.19-8.64-4.22-.47-.23.17-.5c.62-1.87 1.38-3.66 2.3-5.35.93-1.7 2.02-3.3 3.32-4.78l.08-.09.11-.05c1.6-.76 3.2-1.35 4.8-1.79v1.26c-1.39.41-2.78.92-4.17 1.57-1.2 1.38-2.22 2.88-3.08 4.46-.81 1.46-1.48 3.02-2.05 4.64z"/><path d="m450.81 340.32c-3.51 1.52-7.38 2.37-11.45 2.37-3.9 0-7.62-.78-11.01-2.18l.77-2.61c4.12.33 8.25-.13 12.38-1.37 3.11 1.34 6.48 2.03 10.12 2.06z"/><path d="m451.05 340.88c-1.82.79-3.73 1.4-5.71 1.81-1.77.37-3.6.57-5.46.61v-1.21c1.79-.03 3.53-.23 5.21-.58 1.83-.38 3.59-.93 5.26-1.64l.32-.69c-1.53-.06-3.01-.24-4.44-.53-1.66-.34-3.25-.83-4.78-1.47-.53.15-1.05.3-1.57.43v-1.25c.48-.12.96-.26 1.44-.4l.21-.06.2.09c1.52.66 3.1 1.15 4.74 1.49 1.65.34 3.36.51 5.14.53l.93.01-.39.85-.8 1.74-.1.21zm-11.17 2.41c-.17 0-.35 0-.52 0-1.96 0-3.88-.19-5.74-.56-1.9-.38-3.74-.94-5.5-1.67l-.5-.21.15-.52.77-2.61.14-.47.49.04c2.03.16 4.05.13 6.07-.09 1.55-.17 3.09-.46 4.64-.85v1.25c-1.5.37-3.01.64-4.51.81-1.94.21-3.88.26-5.81.13l-.48 1.62c1.53.6 3.12 1.07 4.77 1.39 1.78.35 3.62.54 5.51.54h.52z"/><path d="m468.32 308.61c.15.86.27 1.73.35 2.61.08.89.12 1.77.12 2.64 0 3.1-.48 6.08-1.37 8.89-.57 1.79-1.3 3.51-2.19 5.14v-2.75c.39-.89.73-1.81 1.03-2.75.85-2.69 1.31-5.55 1.31-8.53 0-.87-.04-1.72-.11-2.53-.06-.69-.15-1.37-.26-2.04l-.13-.01c-.2 1.73-.54 3.44-1.04 5.12-.23.78-.5 1.56-.8 2.32v-3.99c.33-1.37.56-2.76.7-4.16l.06-.59.58.04 1.19.09.47.04zm-3.08 19.28c-.55 1.01-1.15 1.98-1.81 2.92l-.19.26-.32-.01-.91-.02-.77-.02.2-.74c.48-1.76.79-3.53.96-5.3.18-1.78.23-3.56.19-5.33v-.16l.08-.14c.95-1.73 1.68-3.49 2.21-5.28.13-.44.25-.88.36-1.33v3.99c-.41 1.03-.88 2.05-1.43 3.06.03 1.77-.02 3.54-.2 5.31-.14 1.45-.37 2.9-.71 4.35.9-1.36 1.69-2.8 2.34-4.3z"/><path d="m462.93 330.46c-3.04 4.31-7.23 7.74-12.12 9.86l.8-1.73c4.03-2.02 7.43-4.82 10.41-8.15z" fill="#fff"/><path d="m463.43 330.81c-1.56 2.21-3.41 4.19-5.5 5.89-1.24 1.01-2.56 1.92-3.96 2.72v-1.4c.66-.4 1.29-.82 1.91-1.27-.62.43-1.26.85-1.91 1.24v-1.42c.99-.63 1.95-1.31 2.87-2.04 1.7-1.35 3.28-2.86 4.74-4.5l.19-.21.28.01.91.02 1.13.03zm-9.46 8.61c-.94.54-1.91 1.03-2.91 1.46l-1.45.63.66-1.43.8-1.73.09-.19.19-.09c.91-.45 1.78-.95 2.63-1.48v1.42c-.62.37-1.25.72-1.89 1.05l-.02.05c.65-.33 1.29-.68 1.91-1.06v1.37z"/><path d="m412.32 325.48c-.78-1.8-1.38-3.7-1.78-5.68-.39-1.93-.6-3.91-.6-5.94 0-.77.03-1.53.09-2.29.06-.75.15-1.51.27-2.28l.16-1.03.81.65.65.52.25.2-.02.31c-.14 2.13-.12 4.22.1 6.28.21 2.06.62 4.09 1.25 6.07l.03.09v.09l-.04 2.76-.04 2.83z"/><path d="m428.12 341.07c-2.6-1.08-5.01-2.51-7.17-4.25v-1.57c2.09 1.8 4.45 3.3 7.01 4.44l.47-1.58c-1.78-1.53-3.27-3.09-4.54-4.69-1.12-1.4-2.08-2.82-2.93-4.25v-1.85l.25.1.19.08.1.18c.94 1.69 2.03 3.35 3.33 4.98 1.31 1.63 2.84 3.23 4.68 4.78l.3.26-.11.38-.77 2.61-.19.64zm-7.17-4.25c-.78-.63-1.54-1.3-2.25-2.01-2.69-2.65-4.87-5.82-6.38-9.33l-.05-.11v-.13l.04-2.76.02-1.58 1.03 1.19c1.08 1.24 2.3 2.27 3.61 3.13 1.25.83 2.58 1.51 3.97 2.1v1.85c-.14-.24-.28-.47-.41-.71-1.48-.62-2.9-1.35-4.23-2.23-.99-.66-1.94-1.4-2.82-2.26l-.02 1.15c1.45 3.33 3.52 6.33 6.07 8.84.45.45.92.88 1.41 1.3v1.56z"/><path d="m416.81 294.96c1.51-1.8 3.23-3.41 5.12-4.81l.32-.24.35.21.84.51.62.37-.48.54c-1.24 1.41-2.28 2.94-3.17 4.56-.89 1.63-1.62 3.35-2.22 5.15l-.04.13-.09.1c-.43.45-.85.9-1.25 1.36v-1.8l.29-.31c.61-1.83 1.36-3.57 2.26-5.22.73-1.33 1.56-2.6 2.5-3.79-1.89 1.5-3.59 3.24-5.05 5.17zm-6.52 14.33c.6-3.87 1.96-7.49 3.92-10.7.78-1.28 1.65-2.49 2.61-3.63v1.94c-.56.75-1.09 1.52-1.57 2.32-1.62 2.66-2.81 5.6-3.48 8.74.53-1.04 1.15-2.05 1.84-3.02.95-1.35 2.04-2.64 3.21-3.89v1.8c-.8.91-1.55 1.84-2.22 2.79-1.01 1.43-1.86 2.92-2.49 4.49l-.3.76-.64-.51-.65-.52-.27-.22z"/><path d="m439.36 285.04c1.75 0 3.47.16 5.13.46l-.06-.01c-3.76.32-6.81 1.35-9.52 2.72-3.93.29-7.86 1.08-11.79 2.95l-.81-.53c4.78-3.52 10.68-5.59 17.05-5.59z"/><path d="m439.36 284.43c.87 0 1.75.04 2.63.12.83.07 1.65.18 2.46.32l.09.02.06.01-.15.82.03.36c-1.84.15-3.5.49-5.03.94-1.54.46-2.95 1.05-4.27 1.71l-.11.06-.11.01c-.93.07-1.86.17-2.79.3v-1.22c.86-.12 1.73-.21 2.59-.28 1.36-.68 2.8-1.27 4.35-1.74.26-.08.52-.15.78-.22-.18 0-.35 0-.53 0-2.49 0-4.9.32-7.2.92v-1.25c2.31-.57 4.72-.88 7.2-.88zm-7.19 4.68c-1 .14-2 .33-3.01.57-1.93.46-3.85 1.11-5.77 2.02l-.3.14-.28-.18-.81-.53-.73-.48.7-.52c2.48-1.82 5.26-3.27 8.25-4.24.64-.21 1.3-.4 1.96-.57v1.25c-.54.14-1.07.3-1.59.47-2.17.71-4.23 1.68-6.14 2.87 1.48-.6 2.96-1.06 4.44-1.41 1.1-.26 2.19-.46 3.29-.61v1.22z"/><path d="m447.27 285.51c1.3.36 2.57.81 3.79 1.35 2.11.92 4.09 2.07 5.91 3.43l.1.08.06.11c.72 1.28 1.34 2.56 1.86 3.84s.94 2.57 1.26 3.86l.13.54-.53.18c-1.54.52-2.99 1.09-4.37 1.7-1.38.6-2.7 1.24-4 1.9l-.27.14-.27-.13c-1.23-.6-2.46-1.16-3.68-1.69v-1.32c1.32.56 2.63 1.16 3.94 1.79 1.22-.62 2.47-1.22 3.79-1.79 1.25-.55 2.55-1.07 3.94-1.56-.28-1.05-.64-2.1-1.07-3.16-.48-1.2-1.06-2.4-1.73-3.6-1.71-1.27-3.58-2.35-5.56-3.21-1.07-.46-2.18-.86-3.32-1.2v-1.26zm-2.73-.62c.93.17 1.84.37 2.73.62v1.26c-.93-.27-1.89-.5-2.86-.67-1.81.16-3.44.48-4.95.93-1.38.41-2.65.93-3.85 1.51.26 1.24.6 2.47 1.02 3.7.44 1.3.96 2.6 1.58 3.92 2.17.68 4.34 1.44 6.51 2.29.85.33 1.71.68 2.56 1.05v1.32c-1-.43-2-.84-3-1.24-2.23-.87-4.46-1.65-6.69-2.34l-.25-.08-.11-.24c-.68-1.42-1.26-2.85-1.74-4.29s-.87-2.87-1.15-4.3l-.09-.45.41-.21c1.39-.7 2.86-1.31 4.46-1.79 1.61-.48 3.35-.83 5.28-.99l.08-.01z"/><path d="m456.61 290.77c5.72 4.28 9.8 10.64 11.12 17.95-.39-.03-.9-.14-1.19-.09-2.16-4.75-4.45-8.19-6.88-10.31-.62-2.52-1.64-5.03-3.05-7.55z" fill="#fff"/><path d="m462.73 295.97c.6.78 1.16 1.59 1.67 2.42 1.9 3.07 3.26 6.53 3.92 10.22l.14.77-.77-.06c-.13-.01-.3-.03-.46-.05-.24-.03-.48-.06-.57-.04l-.47.09-.2-.43c-1.05-2.32-2.14-4.32-3.27-6.01v-2.09c.33.43.66.9.98 1.38 1.1 1.65 2.17 3.61 3.22 5.86h.05c-.68-3.24-1.92-6.27-3.61-9-.21-.34-.42-.67-.65-.99v-2.07zm-5.76-5.68c2.17 1.62 4.1 3.54 5.75 5.68v2.06c-1.23-1.8-2.65-3.46-4.25-4.93.19.41.36.81.52 1.22.49 1.22.9 2.45 1.21 3.67.86.77 1.7 1.7 2.52 2.79v2.09l-.03-.04c-1.12-1.67-2.26-3.03-3.43-4.05l-.14-.13-.05-.18c-.3-1.23-.71-2.46-1.21-3.69-.5-1.24-1.1-2.47-1.79-3.71l-1.4-2.49z"/><path d="m439.66 324.07c.6.18 1.21.35 1.82.51 2-1.35 3.94-2.73 5.79-4.15 1.84-1.41 3.58-2.84 5.21-4.3-.06-2.29-.23-4.59-.53-6.88-.29-2.28-.71-4.57-1.25-6.88-2.15-1.04-4.29-1.97-6.43-2.8-1.54-.6-3.07-1.16-4.61-1.67v-1.27c1.68.56 3.37 1.16 5.05 1.82 2.26.89 4.52 1.87 6.77 2.96l.26.13.07.28c.57 2.41 1.02 4.84 1.34 7.28.31 2.43.5 4.85.55 7.28l.01.27-.2.19c-1.73 1.56-3.56 3.08-5.49 4.55s-3.96 2.92-6.07 4.34l-.22.15-.26-.07c-.6-.15-1.2-.31-1.79-.48v-1.26zm-1.85-26.77c-2.01.98-3.91 2.18-5.72 3.56-1.82 1.39-3.56 2.97-5.22 4.68-.07 2.33.02 4.66.3 6.99.28 2.32.73 4.65 1.38 6.97 2.04 1.07 4.13 2.04 6.29 2.89 1.57.62 3.18 1.18 4.82 1.67v1.26c-1.8-.52-3.55-1.12-5.26-1.8-2.27-.9-4.48-1.93-6.64-3.07l-.23-.12-.07-.25c-.71-2.47-1.2-4.94-1.49-7.41-.29-2.46-.38-4.94-.3-7.41l.01-.23.16-.17c1.76-1.82 3.59-3.5 5.52-4.97 1.94-1.48 3.98-2.77 6.15-3.8l.21-.1.23.07c.57.18 1.14.36 1.72.55v1.27c-.63-.19-1.24-.39-1.86-.58z"/><path d="m451.22 301.95c2.6-1.32 5.32-2.58 8.45-3.63 2.42 2.13 4.71 5.57 6.88 10.31-.38 3.79-1.39 7.47-3.34 11-3.24-1.34-6.61-2.42-10.12-3.24-.1-4.81-.72-9.62-1.87-14.44z"/><path d="m458.92 297.94c.18-.06.37-.13.55-.19l.33-.11.26.23c1.25 1.1 2.47 2.53 3.64 4.29 1.16 1.74 2.29 3.81 3.38 6.22l.07.15-.02.16c-.19 1.93-.55 3.84-1.1 5.71-.56 1.88-1.31 3.72-2.31 5.52l-.26.47-.5-.21c-1.33-.55-2.68-1.05-4.05-1.52v-1.27c1.36.45 2.69.94 4.01 1.47.83-1.57 1.47-3.18 1.95-4.81.52-1.75.86-3.52 1.04-5.33-1.04-2.27-2.12-4.24-3.23-5.9-1.03-1.55-2.09-2.83-3.17-3.82-.2.07-.4.14-.6.21v-1.27zm-7.97 3.47c1.31-.66 2.65-1.31 4.06-1.93 1.24-.54 2.54-1.07 3.92-1.55v1.28c-1.2.43-2.34.89-3.43 1.37-1.23.54-2.41 1.11-3.57 1.69.52 2.26.93 4.54 1.23 6.82.29 2.27.47 4.54.53 6.81 1.6.39 3.19.83 4.75 1.33l.5.16v1.27c-.29-.1-.58-.19-.86-.28-1.66-.53-3.36-1-5.11-1.41l-.46-.11-.01-.47c-.05-2.38-.23-4.77-.53-7.16-.31-2.37-.75-4.76-1.32-7.16l-.11-.46z"/><path d="m452.28 337.56c1.62-.88 3.13-1.9 4.56-3.03 1.67-1.32 3.21-2.79 4.64-4.39.46-1.72.75-3.44.93-5.17.17-1.65.22-3.29.2-4.93-1.49-.61-3-1.16-4.55-1.65-1.56-.5-3.17-.95-4.81-1.34-.32.29-.65.57-.97.86v-1.61l.4-.36.24-.21.31.07c1.76.41 3.49.89 5.2 1.44 1.7.54 3.37 1.16 5.01 1.83l.37.15.01.4c.03 1.82-.02 3.65-.2 5.47-.18 1.83-.5 3.66-1 5.5l-.04.14-.09.11c-1.52 1.69-3.14 3.25-4.89 4.64-1.64 1.3-3.4 2.46-5.31 3.45v-1.37zm-10.1-11.99c-.25 3.52-.31 7.03-.1 10.55 1.42.59 2.88 1.03 4.4 1.34 1.6.33 3.27.5 4.99.53.27-.14.54-.28.81-.43v1.37l-.4.2-.13.06h-.14c-1.86-.02-3.65-.2-5.37-.55-1.73-.35-3.39-.87-4.98-1.56l-.34-.15-.02-.37c-.25-3.79-.18-7.59.1-11.38l.02-.29.25-.17c2.08-1.4 4.09-2.83 6.01-4.3 1.76-1.35 3.44-2.72 5.01-4.12v1.61c-1.37 1.18-2.79 2.34-4.28 3.48-1.86 1.42-3.81 2.81-5.83 4.18z"/><path d="m431.32 337.4c1.31.02 2.62-.05 3.92-.19 1.87-.21 3.75-.58 5.62-1.12-.2-3.47-.15-6.93.09-10.39-2.25-.59-4.44-1.32-6.56-2.16-1.04-.41-2.06-.85-3.08-1.31v-1.33c1.16.54 2.33 1.05 3.52 1.52 2.23.88 4.53 1.64 6.9 2.24l.49.12-.04.51c-.28 3.74-.34 7.48-.1 11.22l.03.48-.46.14c-2.1.63-4.19 1.07-6.29 1.3-1.35.15-2.7.22-4.05.2v-1.23zm-3.19-16.74c-1.25 1.16-2.4 2.36-3.47 3.59s-2.05 2.49-2.98 3.77c.9 1.57 1.92 3.12 3.14 4.64 1.27 1.59 2.76 3.14 4.53 4.65.65.05 1.31.08 1.96.08v1.21c-.75-.01-1.5-.04-2.25-.1l-.19-.02-.15-.13c-1.91-1.61-3.5-3.26-4.85-4.94-1.36-1.69-2.47-3.41-3.45-5.14l-.19-.34.23-.31c1.02-1.42 2.1-2.81 3.27-4.17 1.18-1.36 2.46-2.69 3.88-3.98l.31-.28.37.2c.99.52 1.99 1.02 3 1.49v1.33c-1.05-.48-2.11-1-3.16-1.55z"/><path d="m420.97 327.98c-3.03-1.26-5.81-2.93-8.05-5.5-1.29-4.05-1.65-8.26-1.38-12.57 1.29-3.24 3.49-6.12 6.09-8.84 2.88 1.41 5.76 2.81 8.64 4.22-.17 4.88.37 9.76 1.77 14.64-2.8 2.53-5.06 5.25-7.07 8.05z"/><path d="m420.74 328.54c-.35-.14-.69-.29-1.03-.45v-1.33c.35.17.7.33 1.06.48.93-1.28 1.92-2.54 2.99-3.78 1.1-1.27 2.29-2.52 3.6-3.73-.65-2.35-1.11-4.7-1.39-7.05-.28-2.33-.37-4.67-.31-7.02l-5.95-2.91v-1.35l6.83 3.34.35.17-.01.39c-.08 2.4.01 4.81.29 7.23.28 2.41.76 4.81 1.45 7.22l.1.36-.28.25c-1.38 1.25-2.62 2.55-3.78 3.88-1.15 1.33-2.21 2.7-3.21 4.08l-.28.39zm-1.03-.45c-1.18-.54-2.32-1.15-3.39-1.86-1.4-.92-2.69-2.02-3.85-3.35l-.08-.09-.04-.12c-.66-2.07-1.08-4.17-1.3-6.31-.22-2.13-.24-4.3-.1-6.48l.01-.09.04-.09c.67-1.67 1.56-3.24 2.62-4.74 1.05-1.49 2.27-2.91 3.6-4.29l.31-.32.4.19 1.81.89v1.35l-1.95-.95c-1.16 1.24-2.24 2.51-3.17 3.83-.99 1.41-1.83 2.86-2.45 4.4-.13 2.1-.11 4.16.1 6.19.21 2.02.6 4 1.21 5.95 1.06 1.2 2.25 2.19 3.53 3.04.87.58 1.78 1.08 2.73 1.54v1.31z"/><path d="m427.67 303.06c1.19-1.13 2.42-2.19 3.69-3.16 1.78-1.36 3.64-2.55 5.61-3.54-.57-1.24-1.07-2.49-1.49-3.75s-.77-2.52-1.04-3.77c-1.76.15-3.51.41-5.27.83-.5.12-1 .25-1.49.39v-1.26c.41-.11.81-.22 1.22-.31 2-.47 3.99-.75 5.99-.9l.53-.04.1.53c.27 1.39.64 2.77 1.11 4.15.46 1.38 1.03 2.76 1.69 4.16l.26.55-.55.26c-2.09 1-4.06 2.23-5.93 3.67-1.53 1.17-3 2.47-4.42 3.88v-1.69zm-9.3-2.3 7.77 3.8c.5-.51 1.01-1.01 1.52-1.5v1.68c-.32.32-.64.64-.96.97l-.31.32-.39-.19-8.64-4.22-.47-.23.17-.5c.62-1.87 1.38-3.66 2.3-5.35.93-1.7 2.02-3.3 3.32-4.78l.08-.09.11-.05c1.6-.76 3.2-1.35 4.8-1.79v1.26c-1.39.41-2.78.92-4.17 1.57-1.2 1.38-2.22 2.88-3.08 4.46-.81 1.46-1.48 3.02-2.05 4.64z"/></g></svg>