<svg height="500" viewBox="0 0 750 500" width="750" xmlns="http://www.w3.org/2000/svg"><g stroke-width="1.6" transform="scale(125)"><path d="m0 0h6v4h-6z" fill="#fff" stroke-width="2.023858"/><path d="m0 0h3v4h3zm6 0v2h-6v2z" fill="#0f47af" stroke-width="2.023858"/><g stroke-width=".99983" transform="matrix(.00464 0 0 .00466667 1.84 -1.150003)"><g stroke="#000" stroke-linecap="round" stroke-linejoin="round"><path d="m.5 375.49997v349.49999c0 137.7239 111.77597 249.5 249.49997 249.5 137.72399 0 249.49996-111.7761 249.49996-249.5v-349.49999z" fill="#0071bc" stroke-width="1"/><path d="m83.75 520.88477c-40.29489.37001-43.77241 23.85937-83.25 23.85937v63.9043c29.68417 0 44.05445-23.86133 83.25-23.86133 40.13959 0 44.04335 23.86133 83.25 23.86133 40.13959 0 44.98774-23.86133 83.25-23.86133 41.10441 0 44.98774 23.86133 83.25 23.86133 39.19543 0 45.90938-23.86133 83.25-23.86133 38.10242 0 44.93823 23.64018 82.75 23.85156v-63.90429c-35.30607-.22589-42.53003-23.84961-82.75-23.84961-39.48015 0-44.71424 23.85937-83.25 23.85937-37.60259 0-40.93259-23.85937-83.25-23.85937-41.38413 0-47.93147 23.85937-83.25 23.85937-36.25072 0-42.95523-24.22939-83.25-23.85937zm0 127.80664c-40.29489.37002-43.77241 23.86132-83.25 23.86132v63.87696c29.68417 0 44.05445-23.86133 83.25-23.86133 40.13959 0 44.04335 23.86133 83.25 23.86133 40.13959 0 44.98774-23.86133 83.25-23.86133 41.10441 0 44.98774 23.86133 83.25 23.86133 39.19543 0 45.90938-23.86133 83.25-23.86133 38.10242 0 44.93823 23.64018 82.75 23.85156v-63.87695c-35.30607-.22588-42.53003-23.85156-82.75-23.85156-39.48015 0-44.71424 23.86132-83.25 23.86132-37.60259 0-40.93259-23.86132-83.25-23.86132-41.38413 0-47.93147 23.86132-83.25 23.86132-36.25072 0-42.95523-24.23133-83.25-23.86132zm0 127.83593c-40.29489.36993-43.77241 23.86133-83.25 23.86133v63.90235c29.68417 0 44.05445-23.86133 83.25-23.86133 40.13959 0 44.04335 23.86133 83.25 23.86133 40.13959 0 44.98774-23.86133 83.25-23.86133 41.10441 0 44.98774 23.86133 83.25 23.86133 39.19543 0 45.90938-23.86133 83.25-23.86133 38.10242 0 44.93823 23.64018 82.75 23.85156v-63.90234c-35.30607-.22588-42.53003-23.85157-82.75-23.85157-39.48015 0-44.71424 23.86133-83.25 23.86133-37.60259 0-40.93259-23.86133-83.25-23.86133-41.38413 0-47.93147 23.86133-83.25 23.86133-36.25072 0-42.95523-24.23135-83.25-23.86133zm0 127.80664c-37.887846.34783-43.233107 21.13277-76.5527344 23.61524 4.7476094 20.07481 11.9203974 39.21421 21.1953124 57.0918 15.298945-7.03965 30.227716-16.83008 55.357422-16.83008 40.13959 0 44.04335 23.86133 83.25 23.86133 40.13959 0 44.98774-23.86133 83.25-23.86133 41.10441 0 44.98774 23.86133 83.25 23.86133 39.19543 0 45.90938-23.86133 83.25-23.86133 26.04493 0 37.48083 11.04476 54.18359 18.10547 9.61576-18.27459 17.03591-37.88092 21.89649-58.47461-29.73567-2.91693-38.52788-23.50782-76.08008-23.50782-39.48015-.00009-44.71424 23.86133-83.25 23.86133-37.60259 0-40.93259-23.86133-83.25-23.86133-41.38413 0-47.93147 23.86133-83.25 23.86133-36.25072 0-42.95523-24.23135-83.25-23.86133zm0 127.78122c-8.46464.078-15.291364 1.1849-21.181641 2.8711 34.552577 39.3073 81.259791 67.6611 134.232421 79.1817 16.80006-7.0588 27.35952-18.1485 53.44922-18.1485 27.66063 0 38.47318 10.7992 54.24219 17.8672 52.58377-11.7302 98.92307-40.0654 133.22265-79.2187-5.9685-1.5627-12.77511-2.5528-20.96484-2.5528-39.48015 0-44.71424 23.8614-83.25 23.8614-37.60259 0-40.93259-23.8614-83.25-23.8614-41.38413 0-47.93147 23.8614-83.25 23.8614-36.25072 0-42.95523-24.2314-83.25-23.8614z" fill="#e3e4e5" stroke-width="1" transform="translate(0 -145.3798)"/><path d="m1.5 376.49996v348.33305c0 137.26406 111.32799 248.66695 248.5 248.66695s248.5-111.40289 248.5-248.66695v-348.33305z" fill="none" stroke-width="3"/></g><g stroke-width=".058164" transform="matrix(17.192676 0 0 17.19275 -907.89578 -1025.2023)"><g fill="#eac102"><path d="m66.6074 93.2427-2.2078.8701c.0501-1.2901-.1632-2.4706-.8533-3.4535-1.3031-1.2549-.91-2.8212-1.0592-4.2874.6192 1.3185.7392 2.7968 2.2894 3.8181 1.0255.7813 1.4128 1.9256 1.8309 3.0527z" stroke="#000"/><path d="m68.1088 93.3094 2.2078.8704c-.0505-1.2896.1629-2.4703.8533-3.4538 1.3031-1.2547.9095-2.8206 1.0592-4.2872-.6197 1.3185-.7396 2.7971-2.2897 3.8177-1.0251.7817-1.4128 1.9261-1.8306 3.0529z" stroke="#000"/><path d="m67.9081 101.631 2.2076-.8707c-.0502 1.2901.1631 2.4707.8532 3.4543 1.3031 1.2543.91 2.8205 1.0595 4.2872-.6196-1.3189-.7396-2.7971-2.2897-3.8177-1.0251-.7819-1.4126-1.9263-1.8306-3.0531z" stroke="#000"/><path d="m66.6074 101.563-2.2078-.87c.0501 1.29-.1632 2.4706-.8533 3.4534-1.3031 1.255-.91 2.8212-1.0592 4.2879.6192-1.3189.7392-2.7971 2.2894-3.8184 1.0255-.7815 1.4128-1.9256 1.8309-3.0529z" stroke="#000"/><path d="m63.1207 96.6701.8704-2.2075c-1.29.0501-2.4706-.1632-3.4538-.8536-1.2547-1.3031-2.821-.9099-4.2872-1.0592 1.3185.6193 2.7968.7396 3.8177 2.2894.7817 1.0254 1.926 1.4131 3.0529 1.8309z" stroke="#000"/><path d="m71.4417 96.8708-.87-2.2075c1.2896.0501 2.4704-.1632 3.4535-.8536 1.2549-1.3031 2.8209-.9095 4.2874-1.0592-1.3185.6197-2.7971.7396-3.8181 2.2894-.7813 1.0254-1.9256 1.4131-3.0528 1.8309z" stroke="#000"/><path d="m71.5758 98.0379-.8704 2.2075c1.29-.0501 2.4706.1632 3.4538.8536 1.2547 1.3031 2.821.9095 4.2872 1.0592-1.3185-.6197-2.7968-.7396-3.8177-2.2897-.7819-1.0252-1.9262-1.4128-3.0529-1.8306z" stroke="#000"/><path d="m63.1207 97.9707.8704 2.2078c-1.29-.0501-2.4706.163-3.4538.8529-1.2547 1.3031-2.821.91-4.2872 1.0595 1.3185-.6197 2.7968-.7392 3.8177-2.2897.7817-1.025 1.926-1.4125 3.0529-1.8305z" stroke="#000"/><path d="m66.1617 93.6917 2.3728.041-1.1773-7.9246z"/><path d="m69.1283 93.9787 1.7065 1.6488 4.7294-6.4198z"/><path d="m71.093 98.6229 7.8837-1.1955-7.9246-1.1773z"/><path d="m59.119 89.2077 4.7294 6.4198 1.7065-1.6488z"/><path d="m55.7197 97.4274 7.8836 1.1955.041-2.3728z"/><path d="m59.1189 105.653 6.4201-4.729-1.6487-1.7073z"/><path d="m66.1617 101.181 1.1955 7.884 1.1773-7.924z"/><path d="m69.1441 100.924 6.4202 4.729-4.771-6.4363z"/></g><path d="m67.3572 85.8081 1.1773 7.9246-2.3728-.041z" fill="none" stroke="#000"/><path d="m75.5642 89.2077-4.7294 6.4198-1.7065-1.6488z" fill="none" stroke="#000"/><path d="m78.9767 97.4274-7.8837 1.1955-.0409-2.3728z" fill="none" stroke="#000"/><path d="m75.5643 105.653-6.4202-4.729 1.6492-1.7073z" fill="none" stroke="#000"/><path d="m68.5345 101.141-1.1773 7.924-1.1955-7.884z" fill="none" stroke="#000"/><path d="m63.8903 99.2167-4.7714 6.4363 6.4201-4.729z" fill="none" stroke="#000"/><path d="m63.6443 96.2501-.041 2.3728-7.8836-1.1955z" fill="none" stroke="#000"/><path d="m59.119 89.2077 4.7294 6.4198 1.7065-1.6488z" fill="none" stroke="#000"/><path d="m67.3483 101.736c2.3744 0 4.3-1.9255 4.3-4.3s-1.9256-4.3-4.3-4.3-4.3 1.9255-4.3 4.3 1.9256 4.3 4.3 4.3z" fill="#eac102"/><circle cx="67.348297" cy="97.436401" fill="none" r="4.3" stroke="#000"/><g stroke="#000"><path d="m64.9007 96.3059c.5378-.5004 1.1649-.6364 2.0095-.0065" fill="none"/><path d="m64.8862 96.2966c.5378.5007 1.1649.6367 2.0095.0069" fill="none"/><path d="m65.8848 95.8626c-.2358 0-.4271.1914-.4271.4268 0 .2358.1913.4261.4271.4261.2354 0 .4268-.1905.4268-.4261 0-.2354-.1914-.4268-.4268-.4268zm0 .2398c.1028 0 .186.0842.186.187 0 .1031-.0832.1862-.186.1862-.103 0-.1862-.0831-.1862-.1862-.0001-.1028.0832-.187.1862-.187z"/></g><path d="m64.877 95.5087c.1557-.09.5721-.1491.8845-.0928.718.1299 1.4605.4343 1.2155 1.9958-.0341.2161-.0623.4567-.079.7244" fill="none" stroke="#000"/><g stroke="#000"><path d="m67.7397 96.2756c.5381-.5004 1.1653-.6364 2.01-.007" fill="none"/><path d="m67.7253 96.266c.5381.5003 1.1653.6364 2.01.0069" fill="none"/><path d="m68.7243 95.832c-.2358 0-.4272.1914-.4272.4272 0 .2354.1914.4254.4272.4254.2354 0 .4267-.19.4267-.4254 0-.2358-.1913-.4272-.4267-.4272zm0 .2394c.1028 0 .1859.0846.1859.1877 0 .1028-.0831.1859-.1859.1859-.1031 0-.1862-.0831-.1862-.1859-.0002-.1031.0831-.1877.1862-.1877z"/></g><path d="m69.7607 95.5087c-.1557-.09-.5719-.1491-.8846-.0928-.7179.1299-1.4604.4343-1.215 1.9958.0341.2161.0623.4567.0787.7244" fill="none" stroke="#000"/><path d="m67.7714 98.5532c-.3835.5554-.732.1801-.8519 0-.4107.1295-.3587-.2395-.3076-.2126" fill="none" stroke="#000"/><path d="m66.2196 99.8354c.2914-.1618.6144-.4467.8743-.3089.0937.0494.1972.101.4289-.0087.2625-.1241.578.131.8674.3175-.276-.0148-.4233-.0595-.8436 0-.2532.0835-.377.0512-.4914 0-.2697-.0463-.5635.0574-.8356.0001z" fill="none" stroke="#000"/><path d="m66.2061 99.8502c.2237.1286.4883.1141.6581.2532.2718.223.5581.2004.8578-.0156.1973-.1419.4715-.1408.703-.2525" fill="none" stroke="#000"/><path d="m68.1012 98.2062c.0594.5327.2169 1.0454.7192 1.4893" fill="none" stroke="#000"/><path d="m66.5618 98.2062c-.0595.5327-.2169 1.0454-.7193 1.4893" fill="none" stroke="#000"/><path d="m66.9195 98.5532c.3835.5554.732.1801.8519 0 .4107.1295.3587-.2395.3076-.2126" fill="none" stroke="#000"/></g></g></g></svg>