<svg enable-background="new -0.8413086 -0.3779297 430 501" height="341.337997" viewBox="-.8413086 -.3779297 430 501" width="292.964748" xmlns="http://www.w3.org/2000/svg"><g clip-rule="evenodd" fill-rule="evenodd"><path d="m192.0942383 24.0922852c-48.0874023 52.1733398-103.671875 83.0527344-165.2109375 91.7802734l-24.3964844 3.4580078-1.7314453 24.5786133c-2.8198242 39.9931641 2.2890625 82.519043 14.7749023 122.984375l.203125.6894531c30.0820313 97.4433594 97.5078125 179.4521484 184.9790039 224.984375l14.3115235 7.4326172 14.2851563-7.4169922c87.5078125-45.5537109 154.9345703-127.5625 185.0136719-225.0214844l.2607422-.8457031.0244141-.1826172c11.7832031-39.9223633 16.5068359-82.3266602 13.6572266-122.6289063l-1.7382813-24.5737305-24.3896484-3.4580078c-61.3408203-8.7001953-115.4462891-38.7915039-165.4052734-91.9892578l-22.4311525-23.8833007z"/><path d="m200.7163086 32.0395508c-49.9682617 54.2114258-107.9003906 86.3227539-172.1875 95.4418945l-15.012207 2.1279297-1.0673828 15.1259766c-2.7172852 38.5615234 2.2207031 79.605957 14.2836914 118.6972656l.2011719.6835938c29.1669922 94.4794922 94.4814453 173.9560547 179.1914063 218.0478516l8.8984375 4.625 8.8828125-4.6142578c84.7353516-44.1025391 150.0517578-123.5849609 179.2119141-218.0683594l.2402344-.7832031.0029297-.109375c11.3916016-38.5917969 15.9589844-79.5634766 13.2080078-118.4838867l-1.0693359-15.1206055-15.0097656-2.1279297c-64.0839844-9.090332-120.4472656-40.3520508-172.3066406-95.5712891l-13.8022461-14.6977539z" fill="#fff"/><path d="m384.7006836 257.9052734h-340.0517578l.2060547.6679688c27.7016602 89.7285156 89.6401367 165.1601563 169.9311523 206.9550781l.237793.1201172.2387695-.1201172c80.3012695-41.7998047 142.2397461-117.2314453 169.9311523-206.9550781l.2060547-.6679688z"/><path d="m385.2045898 258.4892578c11.1416016-37.4794922 15.1943359-76.4790039 12.6523438-112.4360352-67.8603516-9.625-128.6425781-43.0527344-183.347168-101.3007813-53.6875 58.2480469-115.480957 91.6757813-183.3461914 101.3007813-2.5356445 35.9570313 2.0249023 74.956543 13.6694336 112.4360352z" fill="#f10"/><g fill="#fff"><path d="m81.8359375 158.7138672 39-20.2578125c-.5087891 12.1513672 1.0102539 26.840332 6.5820313 38.4907227l37.9887695 82.0541992v46.0966797l-56.7304688-118.0175781c-5.5708007-11.1430665-17.2226562-19.2495118-26.840332-28.366211z"/><path d="m351.2885742 162.2583008-39.0048828-20.2583008c.5087891 12.1533203-1.5117188 26.840332-6.5830078 38.4912109l-60.7841797 137.2587891 23.8125-3.5439453 55.7138672-123.5820313c5.0683594-11.1416015 17.2275391-19.2480468 26.8457031-28.3657226z"/><path d="m161.8623047 391.1875h34.9458008v-120.5361328h36.4658203c7.6044922 0 12.1513672 9.6152344 17.7314453 14.6894531l.5058594-49.6435547c-6.0859375 4.5605469-10.1367188 13.1694336-17.7285156 13.1694336h-36.4658203l-.5087891-49.1259766-23.3017578 7.0898438v164.6108398c0 7.5996094-7.597168 13.1640626-11.644043 19.7460938z"/><path d="m174.0141602 169.8569336v-33.4287109c0-7.5976563-7.0883789-13.168457-11.6503906-19.2485352h108.3984374v33.4277344c-8.6152344-5.5708008-15.7041016-15.6958008-25.3369141-15.6958008h-48.1083984v30.3847656z"/><path d="m247.9672852 391.6943359h35.9570313v-33.4277344c-1.5244141 1.5244141-2.5292969 15.1943359-28.8662109 15.1943359z"/><path d="m204.9091797 360.3017578v32.9169922l17.2202148 33.9384766 33.4355469-75.4726563-20.7724609.5117188-15.1894532 38.4960937z"/><path d="m165.4067383 314.2060547c-27.8569336-12.1621094-53.6870117-32.4150391-71.925293-55.7167969 5.5708008-11.6503906 16.7124023-23.2929688 26.3378906-28.8652344l-11.1430664-20.2583008c-13.6704102 10.1264648-28.3642578 21.2680664-34.9462891 36.4643555-2.534668 5.5712891-7.0898438 9.6269531-11.6508789 12.6591797 4.5610352 2.5371094 7.5976563 2.0253906 12.1582031 8.6181641 22.2875977 31.9033203 56.2172852 56.7294922 91.1694336 69.3818359.0000001-8.6123047.0000001-13.6708984.0000001-22.2832031z"/><path d="m140.5864258 188.5976563 10.1328125 19.7514648c46.5976563-20.7680664 92.1796875-21.269043 134.2226563-5.5717773l8.1064453-17.7241211c-45.5869141-19.756836-101.3022461-18.2392579-152.4619141 3.5444336z"/><path d="m326.972168 202.2680664-7.5869141 17.7319336 14.1796875 7.0898438c4.0527344 1.5175781 5.5634766 7.0898438 8.1054688 10.6337891l12.65625-27.8564453c-4.5625 0-9.6181641 2.0263672-13.6708984 0z"/><path d="m204.4067383 321.8007813v19.2509766c51.1582031 11.1445313 99.2744141-4.0556641 143.8466797-30.3896484l-13.1777344-19.7578125c-31.3945313 26.845703-85.0878906 40.0205077-130.6689453 30.8964843z"/></g></g></svg>