<svg enable-background="new 0 0 1400 980" height="980" viewBox="0 0 1400 980" width="1400" xmlns="http://www.w3.org/2000/svg" xmlns:xlink="http://www.w3.org/1999/xlink"><radialGradient id="a" cx="702.0986" cy="310.915" gradientTransform="matrix(1 0 0 4.4832 0 -1082.9916)" gradientUnits="userSpaceOnUse" r="98.0316"><stop offset="0" stop-color="#ebd13b"/><stop offset="1" stop-color="#655a19"/></radialGradient><linearGradient id="b"><stop offset="0" stop-color="#fff04f"/><stop offset="1" stop-color="#c6b035"/></linearGradient><radialGradient id="c" cx="702.0986" cy="231.083" gradientTransform="matrix(1 0 0 2.5478 0 -357.6702)" gradientUnits="userSpaceOnUse" r="149.0184" xlink:href="#b"/><linearGradient id="d"><stop offset="0" stop-color="#fbea4c"/><stop offset="1" stop-color="#c6a129"/></linearGradient><radialGradient id="e" cx="702.0996" cy="262.584" gradientUnits="userSpaceOnUse" r="135.0002" xlink:href="#d"/><radialGradient id="f" cx="702.0986" cy="331.249" gradientUnits="userSpaceOnUse" r="100.5014" xlink:href="#d"/><linearGradient id="g"><stop offset="0" stop-color="#fbea4c"/><stop offset=".3949" stop-color="#fae84b"/><stop offset=".5643" stop-color="#f6e148"/><stop offset=".6905" stop-color="#eed443"/><stop offset=".7953" stop-color="#e4c23b"/><stop offset=".8869" stop-color="#d7ab31"/><stop offset=".9679" stop-color="#c78f25"/><stop offset="1" stop-color="#bf821f"/></linearGradient><radialGradient id="h" cx="630.3105" cy="326.9219" gradientTransform="matrix(.9848 -.1736 .1736 .9848 -32.837 116.5472)" gradientUnits="userSpaceOnUse" r="7.6684" xlink:href="#g"/><radialGradient id="i" cx="626.6787" cy="312.3994" gradientTransform="matrix(.9848 -.1736 .1736 .9848 -32.837 116.5472)" gradientUnits="userSpaceOnUse" r="7.6681" xlink:href="#g"/><radialGradient id="j" cx="623.0474" cy="297.877" gradientTransform="matrix(.9848 -.1736 .1736 .9848 -32.837 116.5472)" gradientUnits="userSpaceOnUse" r="7.6677" xlink:href="#g"/><radialGradient id="k" cx="619.4165" cy="283.3545" gradientTransform="matrix(.9848 -.1736 .1736 .9848 -32.837 116.5472)" gradientUnits="userSpaceOnUse" r="7.6674" xlink:href="#g"/><radialGradient id="l" cx="615.7847" cy="268.8315" gradientTransform="matrix(.9848 -.1736 .1736 .9848 -32.837 116.5472)" gradientUnits="userSpaceOnUse" r="7.6674" xlink:href="#g"/><radialGradient id="m" cx="612.1533" cy="254.3086" gradientTransform="matrix(.9848 -.1736 .1736 .9848 -32.837 116.5472)" gradientUnits="userSpaceOnUse" r="7.6679" xlink:href="#g"/><radialGradient id="n" cx="706.2051" cy="324.0547" gradientUnits="userSpaceOnUse" r="7.6674" xlink:href="#g"/><radialGradient id="o" cx="702.5742" cy="309.5322" gradientUnits="userSpaceOnUse" r="7.6674" xlink:href="#g"/><radialGradient id="p" cx="698.9424" cy="295.0098" gradientUnits="userSpaceOnUse" r="7.6679" xlink:href="#g"/><radialGradient id="q" cx="695.3125" cy="280.4873" gradientUnits="userSpaceOnUse" r="7.6674" xlink:href="#g"/><radialGradient id="r" cx="691.6816" cy="265.9644" gradientUnits="userSpaceOnUse" r="7.6677" xlink:href="#g"/><radialGradient id="s" cx="688.0508" cy="251.4419" gradientUnits="userSpaceOnUse" r="7.6677" xlink:href="#g"/><radialGradient id="t" cx="781.4082" cy="331.7651" gradientTransform="matrix(.9848 .1736 -.1736 .9848 56.1016 -133.446)" gradientUnits="userSpaceOnUse" r="7.6679" xlink:href="#g"/><radialGradient id="u" cx="777.7793" cy="317.2422" gradientTransform="matrix(.9848 .1736 -.1736 .9848 56.1016 -133.446)" gradientUnits="userSpaceOnUse" r="7.6679" xlink:href="#g"/><radialGradient id="v" cx="774.1475" cy="302.7197" gradientTransform="matrix(.9848 .1736 -.1736 .9848 56.1016 -133.446)" gradientUnits="userSpaceOnUse" r="7.6679" xlink:href="#g"/><radialGradient id="w" cx="770.5176" cy="288.1963" gradientTransform="matrix(.9848 .1736 -.1736 .9848 56.1016 -133.446)" gradientUnits="userSpaceOnUse" r="7.6677" xlink:href="#g"/><radialGradient id="x" cx="766.8877" cy="273.6733" gradientTransform="matrix(.9848 .1736 -.1736 .9848 56.1016 -133.446)" gradientUnits="userSpaceOnUse" r="7.6674" xlink:href="#g"/><radialGradient id="y" cx="763.2578" cy="259.1504" gradientTransform="matrix(.9848 .1736 -.1736 .9848 56.1016 -133.446)" gradientUnits="userSpaceOnUse" r="7.6674" xlink:href="#g"/><radialGradient id="z" cx="579.5928" cy="230.4292" gradientTransform="matrix(.8909 -.4541 -1.157 -2.2699 385.4962 1079.8431)" gradientUnits="userSpaceOnUse" r="59.7826" xlink:href="#b"/><radialGradient id="A" cx="576.625" cy="233.397" gradientTransform="matrix(-.8909 -.4541 1.157 -2.2699 1012.6236 1085.2321)" gradientUnits="userSpaceOnUse" r="59.7826" xlink:href="#b"/><path d="m0 0h1400v980h-1400z" fill="#fff"/><path d="m563.599 716.744v12.166h-23v-27.166z" fill="#fff" stroke="#7f1919" stroke-miterlimit="10" stroke-width="2"/><path d="m530.099 731.91v2h33.5v-17.166z" fill="#fff" stroke="#7f1919" stroke-linejoin="bevel" stroke-miterlimit="10" stroke-width="2"/><path d="m840.599 716.744v12.166h23v-27.166z" fill="#fff" stroke="#7f1919" stroke-miterlimit="10" stroke-width="2"/><path d="m874.099 731.91v2h-33.5v-17.166z" fill="#fff" stroke="#7f1919" stroke-linejoin="bevel" stroke-miterlimit="10" stroke-width="2"/><path d="m530.099 731.91h344v39.334h-344z" fill="#fff" stroke="#7f1919" stroke-linejoin="bevel" stroke-miterlimit="10" stroke-width="2"/><path d="m535.099 737.834h4.113v13.742c0 2.182.051 3.594.152 4.24.176 1.039.595 1.873 1.258 2.5.662.631 1.568.945 2.717.945 1.166 0 2.046-.297 2.64-.893.593-.594.949-1.322 1.07-2.188.12-.867.181-2.303.181-4.311v-14.037h4.112v13.326c0 3.047-.111 5.199-.333 6.457s-.633 2.32-1.23 3.186c-.597.863-1.396 1.555-2.396 2.066-1 .516-2.307.771-3.918.771-1.944 0-3.421-.281-4.425-.84-1.005-.559-1.8-1.287-2.384-2.18-.583-.896-.968-1.834-1.153-2.814-.269-1.453-.403-3.6-.403-6.438v-13.532z" fill="#7f1919"/><path d="m555.692 737.834h8.142c1.611 0 2.813.084 3.605.252.792.166 1.5.516 2.126 1.047.625.529 1.146 1.236 1.563 2.119.417.885.625 1.873.625 2.969 0 1.188-.257 2.277-.771 3.271-.514.992-1.211 1.736-2.091 2.232 1.241.449 2.195 1.217 2.862 2.301s1.001 2.361 1.001 3.826c0 1.152-.215 2.277-.646 3.365-.431 1.092-1.02 1.963-1.765 2.615-.746.65-1.665 1.053-2.758 1.203-.686.092-2.338.148-4.96.172h-6.933zm4.112 4.223v5.869h2.696c1.603 0 2.599-.029 2.987-.088.704-.104 1.258-.404 1.66-.91.403-.5.604-1.16.604-1.98 0-.785-.174-1.422-.521-1.912-.346-.49-.863-.787-1.548-.891-.408-.059-1.58-.088-3.516-.088zm0 10.091v6.785h3.808c1.482 0 2.421-.053 2.82-.156.612-.139 1.109-.477 1.494-1.014.384-.535.577-1.254.577-2.154 0-.762-.148-1.408-.445-1.938-.296-.531-.725-.918-1.285-1.16-.561-.242-1.777-.363-3.647-.363z" fill="#7f1919"/><path d="m576.102 763.207v-25.373h4.113v25.373z" fill="#7f1919"/><path d="m600.528 759.988c1.01.9 2.107 1.615 3.294 2.146l-1.516 3.617c-.62-.23-1.228-.549-1.819-.951-.13-.082-1.042-.832-2.738-2.252-1.333.729-2.811 1.092-4.432 1.092-3.131 0-5.583-1.148-7.356-3.445-1.774-2.295-2.661-5.521-2.661-9.674 0-4.143.889-7.365 2.667-9.666 1.778-2.303 4.191-3.453 7.239-3.453 3.02 0 5.414 1.15 7.183 3.453 1.77 2.301 2.655 5.523 2.655 9.666 0 2.191-.246 4.119-.737 5.779-.37 1.272-.963 2.499-1.779 3.688zm-3.306-2.89c.527-.771.924-1.707 1.188-2.805.263-1.096.396-2.354.396-3.771 0-2.932-.519-5.121-1.556-6.57-1.038-1.447-2.395-2.172-4.071-2.172s-3.036.729-4.078 2.182-1.563 3.641-1.563 6.561c0 2.965.521 5.184 1.563 6.654s2.36 2.207 3.953 2.207c.593 0 1.154-.121 1.682-.365-.834-.68-1.682-1.211-2.543-1.59l1.154-2.926c1.35.577 2.642 1.442 3.875 2.595z" fill="#7f1919"/><path d="m606.24 737.834h4.113v13.742c0 2.182.05 3.594.152 4.24.175 1.039.596 1.873 1.257 2.5.663.631 1.568.945 2.717.945 1.167 0 2.047-.297 2.64-.893.592-.594.95-1.322 1.07-2.188.12-.867.18-2.303.18-4.311v-14.037h4.113v13.326c0 3.047-.111 5.199-.333 6.457s-.632 2.32-1.229 3.186c-.597.863-1.397 1.555-2.397 2.066-1 .516-2.307.771-3.918.771-1.945 0-3.42-.281-4.425-.84s-1.799-1.287-2.382-2.18c-.583-.896-.969-1.834-1.153-2.814-.269-1.453-.403-3.6-.403-6.438v-13.532z" fill="#7f1919"/><path d="m626.818 763.207v-25.373h15.104v4.293h-10.99v5.625h10.226v4.273h-10.226v6.908h11.379v4.273h-15.493z" fill="#7f1919"/><path d="m653.704 763.207v-25.373h6.599c2.502 0 4.132.127 4.891.381 1.167.381 2.145 1.209 2.932 2.482.787 1.277 1.181 2.924 1.181 4.943 0 1.557-.227 2.865-.681 3.928-.455 1.063-1.031 1.895-1.73 2.502-.7.605-1.411 1.006-2.133 1.201-.982.244-2.404.365-4.266.365h-2.681v9.57h-4.112zm4.113-21.08v7.201h2.25c1.621 0 2.705-.133 3.252-.4.546-.266.975-.68 1.285-1.246.311-.564.465-1.221.465-1.973 0-.924-.218-1.684-.653-2.283-.436-.602-.986-.977-1.653-1.127-.491-.113-1.478-.172-2.96-.172z" fill="#7f1919"/><path d="m688.941 763.207h-4.474l-1.778-5.764h-8.142l-1.682 5.764h-4.363l7.933-25.373h4.349zm-7.573-10.039-2.806-9.414-2.751 9.414z" fill="#7f1919"/><path d="m693.595 763.207v-21.08h-6.044v-4.293h16.187v4.293h-6.03v21.08z" fill="#7f1919"/><path d="m706.406 763.207v-25.373h8.656c2.176 0 3.758.229 4.744.684s1.776 1.266 2.37 2.432c.592 1.166.889 2.498.889 3.998 0 1.904-.449 3.477-1.348 4.717s-2.241 2.023-4.029 2.346c.89.646 1.623 1.355 2.201 2.129.58.771 1.36 2.146 2.342 4.119l2.487 4.949h-4.918l-2.974-5.52c-1.057-1.975-1.778-3.219-2.168-3.732-.389-.512-.802-.865-1.236-1.055-.436-.191-1.126-.285-2.07-.285h-.834v10.592h-4.112zm4.113-14.643h3.044c1.972 0 3.204-.104 3.695-.311.49-.209.875-.566 1.153-1.074s.416-1.141.416-1.902c0-.855-.183-1.545-.549-2.068-.366-.525-.882-.857-1.549-.996-.334-.059-1.334-.086-3.001-.086h-3.21v6.437z" fill="#7f1919"/><path d="m726.817 763.207v-25.373h4.113v25.373z" fill="#7f1919"/><path d="m753.218 763.207h-4.475l-1.779-5.764h-8.141l-1.683 5.764h-4.362l7.934-25.373h4.35zm-7.572-10.039-2.808-9.414-2.75 9.414z" fill="#7f1919"/><path d="m762.192 763.207v-25.373h6.156l3.695 17.309 3.655-17.309h6.168v25.373h-3.82v-19.973l-4.044 19.973h-3.96l-4.029-19.973v19.973z" fill="#7f1919"/><path d="m785.953 763.207v-25.373h15.104v4.293h-10.99v5.625h10.226v4.273h-10.226v6.908h11.379v4.273h-15.493z" fill="#7f1919"/><path d="m804.877 763.207v-25.373h6.156l3.695 17.309 3.654-17.309h6.169v25.373h-3.821v-19.973l-4.043 19.973h-3.961l-4.028-19.973v19.973z" fill="#7f1919"/><path d="m827.804 750.676c0-2.584.311-4.752.93-6.508.465-1.291 1.097-2.451 1.897-3.479s1.679-1.789 2.633-2.285c1.27-.668 2.733-1.002 4.392-1.002 3.002 0 5.402 1.158 7.204 3.479 1.801 2.32 2.703 5.545 2.703 9.674 0 4.098-.896 7.303-2.683 9.615s-4.177 3.471-7.169 3.471c-3.029 0-5.438-1.15-7.226-3.453s-2.681-5.471-2.681-9.512zm4.237-.172c0 2.873.533 5.051 1.598 6.533s2.419 2.225 4.058 2.225c1.64 0 2.985-.736 4.037-2.207 1.052-1.473 1.576-3.678 1.576-6.619 0-2.91-.512-5.078-1.535-6.51-1.023-1.43-2.383-2.146-4.078-2.146s-3.062.725-4.099 2.172c-1.037 1.448-1.557 3.632-1.557 6.552z" fill="#7f1919"/><path d="m850.785 763.207v-25.373h8.657c2.176 0 3.758.229 4.744.684.987.455 1.777 1.266 2.37 2.432.592 1.166.89 2.498.89 3.998 0 1.904-.45 3.477-1.349 4.717s-2.242 2.023-4.029 2.346c.889.646 1.623 1.355 2.201 2.129.58.771 1.36 2.146 2.342 4.119l2.487 4.949h-4.919l-2.974-5.52c-1.055-1.975-1.777-3.219-2.167-3.732-.389-.512-.802-.865-1.236-1.055-.436-.191-1.125-.285-2.07-.285h-.833v10.592h-4.114zm4.114-14.643h3.043c1.972 0 3.205-.104 3.695-.311.49-.209.875-.566 1.153-1.074s.417-1.141.417-1.902c0-.855-.183-1.545-.549-2.068-.366-.525-.884-.857-1.55-.996-.333-.059-1.334-.086-3.001-.086h-3.209v6.437z" fill="#7f1919"/><path d="m530.064 820.883v-27.918h20.699v4.723h-15.063v6.189h14.016v4.703h-14.016v7.6h15.596v4.703z"/><path d="m554.648 811.799 5.484-.533c.33 1.842 1 3.193 2.009 4.057 1.01.863 2.371 1.295 4.085 1.295 1.815 0 3.184-.385 4.104-1.152.921-.768 1.381-1.666 1.381-2.695 0-.66-.193-1.221-.581-1.686-.387-.463-1.063-.865-2.027-1.209-.66-.229-2.165-.635-4.514-1.219-3.021-.748-5.142-1.668-6.36-2.76-1.714-1.537-2.57-3.41-2.57-5.619 0-1.422.402-2.752 1.209-3.988.806-1.238 1.968-2.182 3.484-2.828 1.518-.648 3.349-.971 5.494-.971 3.504 0 6.142.768 7.912 2.303 1.771 1.537 2.701 3.588 2.79 6.152l-5.637.246c-.241-1.434-.759-2.465-1.552-3.094-.794-.629-1.983-.943-3.57-.943-1.638 0-2.92.338-3.847 1.01-.597.432-.896 1.01-.896 1.732 0 .66.279 1.227.838 1.695.711.598 2.438 1.219 5.18 1.867 2.742.646 4.771 1.316 6.084 2.008 1.314.691 2.343 1.639 3.085 2.838.743 1.199 1.114 2.682 1.114 4.447 0 1.6-.444 3.098-1.333 4.494s-2.146 2.434-3.771 3.113c-1.625.678-3.649 1.018-6.074 1.018-3.529 0-6.24-.814-8.132-2.447-1.891-1.631-3.02-4.008-3.389-7.131z"/><path d="m588.374 820.883v-23.195h-8.284v-4.723h22.186v4.723h-8.265v23.195z"/><path d="m628.192 820.883h-6.132l-2.438-6.342h-11.159l-2.304 6.342h-5.979l10.873-27.918h5.961zm-10.378-11.045-3.847-10.359-3.771 10.359z"/><path d="m631.163 792.965h10.303c2.323 0 4.094.178 5.313.533 1.638.482 3.041 1.34 4.209 2.572 1.168 1.23 2.057 2.738 2.666 4.521s.914 3.984.914 6.6c0 2.297-.286 4.277-.857 5.941-.698 2.031-1.694 3.674-2.989 4.932-.978.951-2.298 1.695-3.961 2.229-1.244.393-2.907.59-4.989.59h-10.607v-27.918zm5.637 4.723v18.492h4.209c1.574 0 2.71-.09 3.408-.268.914-.229 1.673-.615 2.275-1.162.604-.545 1.096-1.443 1.477-2.693.381-1.252.571-2.955.571-5.113s-.19-3.814-.571-4.971c-.381-1.154-.914-2.057-1.6-2.703-.686-.648-1.556-1.086-2.609-1.314-.787-.178-2.329-.268-4.627-.268z"/><path d="m658.204 807.096c0-2.844.426-5.23 1.276-7.16.635-1.422 1.501-2.697 2.599-3.828 1.099-1.129 2.302-1.967 3.609-2.514 1.739-.736 3.745-1.104 6.018-1.104 4.113 0 7.404 1.275 9.873 3.826 2.47 2.553 3.704 6.102 3.704 10.646 0 4.506-1.225 8.031-3.675 10.578-2.45 2.545-5.726 3.818-9.826 3.818-4.151 0-7.452-1.268-9.902-3.801-2.45-2.53-3.676-6.018-3.676-10.461zm5.809-.192c0 3.162.729 5.559 2.189 7.189s3.313 2.447 5.561 2.447 4.091-.811 5.532-2.428c1.44-1.619 2.161-4.047 2.161-7.285 0-3.199-.701-5.586-2.104-7.16-1.402-1.574-3.266-2.361-5.589-2.361s-4.195.797-5.617 2.391-2.133 3.996-2.133 7.207z"/><path d="m700.499 792.965h10.302c2.323 0 4.094.178 5.313.533 1.639.482 3.041 1.34 4.209 2.572 1.168 1.23 2.057 2.738 2.666 4.521s.914 3.984.914 6.6c0 2.297-.285 4.277-.857 5.941-.698 2.031-1.694 3.674-2.989 4.932-.978.951-2.298 1.695-3.961 2.229-1.244.393-2.907.59-4.989.59h-10.606v-27.918zm5.636 4.723v18.492h4.209c1.574 0 2.71-.09 3.408-.268.914-.229 1.673-.615 2.276-1.162.603-.545 1.095-1.443 1.476-2.693.381-1.252.571-2.955.571-5.113s-.19-3.814-.571-4.971c-.381-1.154-.914-2.057-1.6-2.703-.686-.648-1.556-1.086-2.609-1.314-.787-.178-2.329-.268-4.627-.268z"/><path d="m727.539 807.096c0-2.844.426-5.23 1.276-7.16.635-1.422 1.501-2.697 2.6-3.828 1.098-1.129 2.301-1.967 3.608-2.514 1.739-.736 3.745-1.104 6.018-1.104 4.113 0 7.404 1.275 9.874 3.826 2.469 2.553 3.704 6.102 3.704 10.646 0 4.506-1.226 8.031-3.676 10.578-2.45 2.545-5.726 3.818-9.826 3.818-4.151 0-7.452-1.268-9.902-3.801-2.45-2.53-3.676-6.018-3.676-10.461zm5.809-.192c0 3.162.729 5.559 2.189 7.189s3.314 2.447 5.561 2.447c2.248 0 4.092-.811 5.532-2.428 1.441-1.619 2.161-4.047 2.161-7.285 0-3.199-.701-5.586-2.104-7.16s-3.266-2.361-5.59-2.361c-2.322 0-4.195.797-5.617 2.391s-2.132 3.996-2.132 7.207z"/><path d="m793.58 820.883h-6.131l-2.438-6.342h-11.16l-2.304 6.342h-5.979l10.873-27.918h5.961zm-10.378-11.045-3.847-10.359-3.771 10.359z"/><path d="m814.432 810.619 5.466 1.732c-.838 3.047-2.231 5.309-4.18 6.789-1.949 1.479-4.422 2.219-7.417 2.219-3.708 0-6.755-1.268-9.141-3.801-2.388-2.531-3.58-5.994-3.58-10.387 0-4.646 1.199-8.256 3.599-10.826s5.554-3.855 9.464-3.855c3.415 0 6.189 1.008 8.322 3.027 1.27 1.193 2.222 2.906 2.856 5.141l-5.579 1.334c-.331-1.447-1.02-2.59-2.066-3.428-1.048-.838-2.32-1.258-3.818-1.258-2.069 0-3.748.744-5.037 2.229-1.288 1.486-1.933 3.891-1.933 7.217 0 3.529.635 6.043 1.904 7.541s2.92 2.248 4.951 2.248c1.498 0 2.786-.477 3.866-1.428 1.079-.953 1.853-2.451 2.323-4.494z"/><path d="m824.754 820.883v-27.918h11.863c2.983 0 5.151.252 6.504.752 1.352.502 2.434 1.395 3.246 2.676.813 1.283 1.219 2.75 1.219 4.4 0 2.094-.615 3.824-1.847 5.188-1.231 1.365-3.072 2.227-5.522 2.582 1.219.711 2.225 1.49 3.019 2.342.793.85 1.862 2.361 3.208 4.531l3.409 5.447h-6.741l-4.075-6.074c-1.447-2.172-2.438-3.539-2.971-4.105-.533-.564-1.099-.951-1.694-1.16-.598-.211-1.543-.314-2.838-.314h-1.143v11.654h-5.637zm5.637-16.112h4.17c2.705 0 4.393-.113 5.066-.342.672-.229 1.199-.623 1.58-1.182s.571-1.256.571-2.094c0-.939-.251-1.699-.752-2.275-.502-.578-1.21-.943-2.124-1.096-.457-.063-1.828-.096-4.113-.096h-4.398z"/><path d="m852.9 820.883v-27.918h20.7v4.723h-15.063v6.189h14.016v4.703h-14.016v7.6h15.596v4.703z"/><path d="m566.766 369.186v265.334c0 25.037 20.296 45.333 45.333 45.333h48s25.25 0 42 14.083c16.75-14.083 42-14.083 42-14.083h48c25.037 0 45.333-20.296 45.333-45.333v-265.334z" fill="#005197" stroke="#000" stroke-miterlimit="10" stroke-width="2"/><path d="m837.432 570.771c-4.313-1.964-8.979-5.919-18.944-5.919-13.255 0-17.135 7-23.277 7s-10.022-7-23.277-7c-13.256 0-17.136 7-23.278 7s-10.022-7-23.278-7c-13.255 0-17.135 7-23.277 7-6.143 0-10.022-7-23.278-7s-17.135 7-23.278 7-10.022-7-23.278-7-17.135 7-23.278 7-10.022-7-23.278-7c-9.966 0-14.631 3.955-18.944 5.919v49.271c4.313-1.964 8.978-5.919 18.944-5.919 13.256 0 17.135 7 23.278 7s10.022-7 23.278-7 17.135 7 23.278 7 10.022-7 23.278-7 17.135 7 23.278 7 10.022-7 23.277-7c13.256 0 17.136 7 23.278 7s10.022-7 23.278-7c13.255 0 17.135 7 23.277 7s10.022-7 23.277-7c9.966 0 14.632 3.955 18.944 5.919zm-260.755 31.773c12.609-15.375 30.188-2 45.222-2-11.275 15.125-37.705 2-45.222 2zm3.88-18c12.609-15.375 30.188-2 45.222-2-11.275 15.125-37.705 2-45.222 2zm46.555 19c12.609-15.375 30.188-2 45.222-2-11.274 15.125-37.705 2-45.222 2zm3.88-18c12.609-15.375 30.188-2 45.222-2-11.275 15.125-37.705 2-45.222 2zm46.556 19c12.609-15.375 30.188-2 45.222-2-11.275 15.125-37.706 2-45.222 2zm3.879-18c12.609-15.375 30.189-2 45.222-2-11.275 15.125-37.705 2-45.222 2zm46.556 15c12.608-15.375 30.188-2 45.222-2-11.275 15.125-37.705 2-45.222 2zm3.879-18c12.609-15.375 30.188-2 45.223-2-11.275 15.125-37.705 2-45.223 2zm46.556 19c12.609-15.375 30.188-2 45.223-2-11.276 15.125-37.705 2-45.223 2zm3.88-18c12.609-15.375 30.188-2 45.223-2-11.276 15.125-37.707 2-45.223 2z" fill="#fff" stroke="#000" stroke-miterlimit="10" stroke-width="2"/><path d="m702.099 551.02c-46.961 0-85.167-38.206-85.167-85.167s38.206-85.167 85.167-85.167 85.167 38.206 85.167 85.167c0 46.96-38.206 85.167-85.167 85.167zm-8.942-23.668c1.691 5.385 3.587 9.591 5.441 12.09v-12.09zm12.442 12.089c1.854-2.499 3.751-6.705 5.441-12.09h-5.441zm12.834-12.089c-1.043 3.553-2.188 6.717-3.417 9.438 2.892-2.396 5.631-5.561 8.169-9.438zm-37.42 0c2.537 3.878 5.275 7.042 8.168 9.438-1.227-2.72-2.372-5.884-3.417-9.438zm-27.094 0c4.619 3.626 9.621 6.715 14.924 9.216-3.298-2.69-6.408-5.777-9.281-9.216zm90.717 0c-2.873 3.438-5.983 6.526-9.281 9.216 5.303-2.501 10.305-5.59 14.924-9.216zm-75.663 0c2.482 2.457 5.12 4.643 7.875 6.524-1.487-2.011-2.901-4.195-4.223-6.524zm62.6 0c-1.323 2.33-2.737 4.515-4.223 6.524 2.754-1.882 5.392-4.066 7.874-6.524zm26.487-7c6.28-6.445 11.357-13.843 15.101-21.999h-12.842c-2.591 7.994-6.116 15.389-10.489 21.999zm-16.731 0c4.834-6.381 8.74-13.778 11.618-21.999h-10.83c-1.726 8.025-4.088 15.421-7.025 21.999zm-14.181 0c3.176-6.419 5.75-13.814 7.658-21.999h-10.989c-.884 8.092-2.085 15.487-3.572 21.999zm-14.183 0c1.582-6.53 2.854-13.926 3.784-21.999h-11.15v21.999zm-14.366 0v-21.999h-11.151c.93 8.072 2.202 15.468 3.784 21.999zm-14.646 0c-1.487-6.507-2.688-13.902-3.573-21.999h-10.989c1.908 8.186 4.482 15.582 7.657 21.999zm-14.848 0c-2.938-6.58-5.299-13.975-7.025-21.999h-10.83c2.877 8.222 6.784 15.619 11.618 21.999zm-14.737 0c-4.373-6.611-7.898-14.006-10.488-21.999h-12.843c3.744 8.156 8.821 15.554 15.1 21.999zm121.607-28.999c2.45-7.076 3.86-14.473 4.194-22h-14.893c-.238 7.502-1.242 14.898-2.985 22zm-20.876 0c1.855-7.048 2.924-14.444 3.178-22h-12.892c-.154 7.541-.813 14.936-1.957 22zm-18.855 0c1.249-7.082 1.968-14.479 2.14-22h-12.889c-.081 7.478-.42 14.874-1.009 22zm-18.795 0c.609-7.03.959-14.426 1.041-22h-12.892v22zm-18.85 0v-22h-12.892c.083 7.569.433 14.966 1.042 22zm-18.888 0c-.589-7.121-.928-14.516-1.009-22h-12.888c.172 7.524.892 14.921 2.14 22zm-18.941 0c-1.144-7.061-1.802-14.457-1.958-22h-12.892c.254 7.557 1.323 14.953 3.178 22zm-18.863 0c-1.745-7.105-2.749-14.501-2.986-22h-14.892c.334 7.527 1.744 14.924 4.193 22zm138.262-29c-.334-7.527-1.744-14.924-4.194-22h-13.684c1.743 7.102 2.747 14.498 2.985 22zm-21.893 0c-.254-7.556-1.322-14.952-3.178-22h-11.671c1.145 7.064 1.803 14.459 1.957 22zm-19.892 0c-.172-7.521-.891-14.918-2.14-22h-11.758c.589 7.126.928 14.522 1.009 22zm-19.894 0c-.082-7.575-.432-14.971-1.041-22h-11.851v22zm-19.891 0v-22h-11.851c-.609 7.033-.959 14.43-1.042 22zm-19.897 0c.081-7.484.42-14.879 1.009-22h-11.758c-1.248 7.079-1.967 14.476-2.14 22zm-19.889 0c.155-7.543.813-14.939 1.958-22h-11.671c-1.855 7.047-2.924 14.443-3.178 22zm-19.892 0c.237-7.499 1.241-14.895 2.986-22h-13.685c-2.45 7.076-3.859 14.473-4.193 22zm134.239-29c-3.744-8.157-8.821-15.555-15.101-22h-8.23c4.373 6.611 7.899 14.006 10.489 22zm-20.213 0c-2.878-8.223-6.785-15.621-11.619-22h-6.236c2.938 6.581 5.3 13.976 7.025 22zm-18.14 0c-1.907-8.185-4.482-15.581-7.658-22h-6.904c1.487 6.509 2.688 13.904 3.573 22zm-18.058 0c-.931-8.075-2.202-15.471-3.784-22h-7.366v22zm-18.15 0v-22h-7.366c-1.582 6.529-2.854 13.925-3.785 22zm-18.219 0c.885-8.098 2.086-15.494 3.573-22h-6.904c-3.174 6.416-5.749 13.813-7.657 22zm-18.299 0c1.725-8.022 4.086-15.417 7.025-22h-6.237c-4.833 6.379-8.74 13.777-11.618 22zm-18.202 0c2.59-7.994 6.116-15.389 10.489-22h-8.231c-6.279 6.445-11.356 13.843-15.101 22zm106.398-29c-4.618-3.625-9.62-6.713-14.923-9.215 3.299 2.69 6.409 5.777 9.28 9.215zm-15.053 0c-2.481-2.457-5.119-4.642-7.874-6.523 1.487 2.011 2.901 4.195 4.224 6.523zm-12.04 0c-2.536-3.877-5.275-7.041-8.168-9.438 1.227 2.72 2.373 5.883 3.417 9.438zm-12.145 0c-1.689-5.384-3.586-9.589-5.44-12.089v12.089zm-12.44 0v-12.089c-1.854 2.5-3.751 6.705-5.441 12.089zm-12.834 0c1.043-3.553 2.188-6.716 3.416-9.438-2.892 2.396-5.631 5.56-8.167 9.438zm-13.14 0c1.323-2.329 2.737-4.514 4.224-6.525-2.755 1.882-5.393 4.066-7.876 6.525zm-13.062 0c2.873-3.438 5.982-6.525 9.281-9.215-5.304 2.502-10.306 5.59-14.923 9.215z" fill="#ffe340"/><path d="m702.099 381.186c46.686 0 84.667 37.981 84.667 84.667s-37.981 84.667-84.667 84.667-84.667-37.981-84.667-84.667 37.981-84.667 84.667-84.667m3 23.667h6.619c-2.098-6.865-4.414-11.627-6.619-13.976zm-12.62 0h6.62v-13.976c-2.205 2.349-4.522 7.11-6.62 13.976m51.921 0h7.303c-5.999-4.888-12.73-8.9-20-11.865 4.606 3.26 8.869 7.252 12.697 11.865m-91.906 0h7.303c3.829-4.612 8.092-8.604 12.697-11.865-7.269 2.964-14.001 6.977-20 11.865m65.564 0h6.042c-3.143-4.971-6.664-8.916-10.437-11.611 1.639 3.239 3.105 7.158 4.395 11.611m-37.96 0h6.042c1.289-4.452 2.755-8.371 4.394-11.611-3.772 2.695-7.294 6.64-10.436 11.611m51.183 0h5.142c-3.468-3.57-7.25-6.605-11.276-9.034 2.19 2.654 4.245 5.673 6.134 9.034m-63.507 0h5.143c1.89-3.36 3.944-6.38 6.135-9.034-4.027 2.427-7.809 5.462-11.278 9.034m92.18 29h13.981c-3.84-8.587-9.167-16.365-15.665-23h-9.378c4.587 6.765 8.349 14.52 11.062 23m-18.241 0h11.937c-2.956-8.655-7.068-16.442-12.073-23h-7.259c3.081 6.745 5.592 14.491 7.395 23m-18.345 0h12.066c-1.966-8.626-4.688-16.42-7.977-23h-7.843c1.608 6.883 2.862 14.691 3.754 23m-18.269 0h12.211c-1-8.859-2.376-16.576-3.952-23h-8.259zm-18.211 0h12.211v-23h-8.259c-1.576 6.423-2.952 14.14-3.952 23m-18.125 0h12.066c.893-8.309 2.146-16.116 3.752-23h-7.842c-3.288 6.58-6.01 14.374-7.976 23m-18.215 0h11.937c1.802-8.509 4.313-16.255 7.395-23h-7.26c-5.004 6.557-9.116 14.344-12.072 23m-20.287 0h13.982c2.712-8.479 6.474-16.234 11.061-23h-9.378c-6.497 6.634-11.824 14.413-15.665 23m134.53 29h15.898c-.303-8.031-1.813-15.755-4.359-23h-14.679c1.835 7.275 2.921 14.992 3.14 23m-19.896 0h13.897c-.23-8.043-1.374-15.772-3.309-23h-12.645c1.206 7.248 1.915 14.96 2.057 23m-19.895 0h13.895c-.156-8.005-.929-15.743-2.231-23h-12.721c.63 7.458.985 15.218 1.057 23m-19.901 0h13.896c-.076-8.244-.463-15.934-1.088-23h-12.809v23m-19.896 0h13.897v-23h-12.809c-.624 7.066-1.012 14.755-1.088 23m-19.899 0h13.894c.072-7.781.426-15.542 1.058-23h-12.72c-1.303 7.256-2.075 14.995-2.232 23m-19.898 0h13.898c.142-8.04.851-15.752 2.056-23h-12.645c-1.935 7.227-3.078 14.957-3.309 23m-21.897 0h15.898c.218-8.008 1.305-15.725 3.14-23h-14.679c-2.545 7.245-4.056 14.968-4.359 23m138.143 29h14.679c2.546-7.245 4.057-14.969 4.359-23h-15.898c-.219 8.007-1.305 15.724-3.14 23m-18.812 0h12.645c1.935-7.228 3.078-14.957 3.309-23h-13.897c-.143 8.04-.852 15.751-2.057 23m-18.897 0h12.721c1.303-7.257 2.075-14.995 2.231-23h-13.894c-.072 7.781-.427 15.542-1.058 23m-18.843 0h12.809c.625-7.067 1.012-14.757 1.088-23h-13.896v23m-18.81 0h12.809v-23h-13.897c.076 8.243.464 15.932 1.088 23m-18.755 0h12.72c-.631-7.458-.985-15.219-1.058-23h-13.894c.157 8.004.929 15.743 2.232 23m-18.821 0h12.645c-1.205-7.248-1.914-14.96-2.056-23h-13.898c.231 8.043 1.374 15.772 3.309 23m-20.847 0h14.679c-1.835-7.275-2.922-14.992-3.14-23h-15.898c.303 8.031 1.814 15.754 4.359 23m121.026 28.999h9.378c6.498-6.635 11.825-14.412 15.665-22.999h-13.981c-2.714 8.478-6.476 16.233-11.062 22.999m-14.576 0h7.26c5.004-6.558 9.116-14.344 12.072-22.999h-11.937c-1.802 8.507-4.313 16.254-7.395 22.999m-14.701 0h7.842c3.288-6.58 6.011-14.374 7.977-22.999h-12.066c-.893 8.308-2.147 16.115-3.753 22.999m-14.517 0h8.259c1.576-6.424 2.952-14.14 3.952-22.999h-12.211zm-14.26 0h8.259v-22.999h-12.211c1 8.859 2.376 16.575 3.952 22.999m-14.1 0h7.842c-1.606-6.884-2.859-14.69-3.752-22.999h-12.066c1.966 8.625 4.688 16.418 7.976 22.999m-14.119 0h7.26c-3.082-6.744-5.592-14.491-7.395-22.999h-11.937c2.956 8.655 7.068 16.441 12.072 22.999m-16.694 0h9.378c-4.586-6.766-8.348-14.521-11.061-22.999h-13.982c3.841 8.586 9.168 16.364 15.665 22.999m85.777 17.866c7.27-2.965 14.002-6.979 20.001-11.866h-7.303c-3.829 4.612-8.092 8.605-12.698 11.866m-6.557-2.832c4.026-2.428 7.809-5.463 11.277-9.034h-5.143c-1.888 3.36-3.942 6.379-6.134 9.034m-11.483 2.578c3.772-2.695 7.294-6.642 10.438-11.612h-6.043c-1.289 4.452-2.756 8.372-4.395 11.612m-8.564 2.363c2.205-2.348 4.521-7.109 6.62-13.976h-6.62zm-6 0v-13.976h-6.62c2.098 6.867 4.415 11.628 6.62 13.976m-8.565-2.363c-1.639-3.24-3.105-7.16-4.395-11.612h-6.042c3.143 4.97 6.665 8.917 10.437 11.612m-11.482-2.577c-2.191-2.654-4.245-5.674-6.135-9.035h-5.144c3.469 3.571 7.252 6.606 11.279 9.035m-6.558 2.831c-4.605-3.261-8.869-7.254-12.698-11.866h-7.303c5.999 4.887 12.732 8.901 20.001 11.866m29.605-158.532c-47.237 0-85.667 38.43-85.667 85.667s38.43 85.667 85.667 85.667 85.667-38.43 85.667-85.667-38.43-85.667-85.667-85.667zm4 23.667v-9.947c1.453 2.38 2.913 5.783 4.257 9.947zm-12.258 0c1.344-4.164 2.804-7.567 4.257-9.947v9.947zm24.965 0c-.767-2.573-1.586-4.939-2.452-7.079 2.057 1.959 4.029 4.326 5.896 7.079zm-36.859 0c1.867-2.753 3.839-5.12 5.896-7.079-.866 2.141-1.687 4.507-2.452 7.079zm-26.558 0c3.2-2.417 6.578-4.578 10.106-6.47-2.153 1.987-4.213 4.148-6.166 6.47zm89.479 0c-1.951-2.321-4.012-4.482-6.165-6.469 3.528 1.891 6.905 4.053 10.105 6.469zm-74.661 0c1.458-1.385 2.967-2.676 4.518-3.868-.824 1.238-1.622 2.529-2.39 3.868zm61.656 0c-.767-1.338-1.564-2.628-2.389-3.866 1.551 1.191 3.059 2.482 4.516 3.866zm18.89 8h7.096c5.99 6.181 10.871 13.238 14.527 21h-11.694c-2.493-7.595-5.827-14.647-9.929-21zm-14.894 0h5.22c4.604 6.12 8.354 13.177 11.161 21h-9.72c-1.663-7.623-3.9-14.675-6.661-21zm-14.99 0h5.968c3.018 6.158 5.482 13.214 7.338 21h-9.91c-.854-7.689-1.994-14.743-3.396-21zm-14.77 0h6.472c1.499 6.265 2.714 13.319 3.617 21h-10.089zm-14.473 0h6.472v21h-10.088c.903-7.681 2.118-14.736 3.616-21zm-14.266 0h5.967c-1.4 6.255-2.541 13.308-3.395 21h-9.91c1.857-7.789 4.322-14.845 7.338-21zm-14.242 0h5.221c-2.762 6.327-4.999 13.38-6.661 21h-9.72c2.807-7.824 6.556-14.88 11.16-21zm-16.769 0h7.095c-4.102 6.354-7.437 13.406-9.927 21h-11.696c3.657-7.763 8.538-14.82 14.528-21zm116.578 29h12.691c2.308 6.765 3.66 13.821 4.026 21h-13.884c-.259-7.154-1.21-14.207-2.833-21zm-18.913 0h10.699c1.744 6.739 2.768 13.794 3.045 21h-11.884c-.168-7.189-.793-14.243-1.86-21zm-18.986 0h10.796c1.172 6.771 1.859 13.826 2.047 21h-11.882c-.088-7.133-.411-14.187-.961-21zm-18.929 0h10.892c.57 6.723.904 13.778.994 21h-11.886zm-18.892 0h10.892v21h-11.886c.09-7.218.424-14.274.994-21zm-18.833 0h10.795c-.55 6.808-.873 13.862-.961 21h-11.882c.189-7.177.876-14.232 2.048-21zm-18.889 0h10.699c-1.066 6.755-1.691 13.809-1.86 21h-11.885c.278-7.207 1.301-14.263 3.046-21zm-20.906 0h12.692c-1.624 6.796-2.576 13.849-2.833 21h-13.884c.366-7.18 1.718-14.236 4.025-21zm137.181 29h13.885c-.366 7.179-1.719 14.235-4.026 21h-12.691c1.622-6.793 2.573-13.847 2.832-21zm-19.886 0h11.884c-.277 7.206-1.301 14.261-3.045 21h-10.699c1.067-6.758 1.692-13.812 1.86-21zm-19.885 0h11.882c-.188 7.174-.875 14.229-2.047 21h-10.796c.55-6.813.873-13.868.961-21zm-19.89 0h11.886c-.09 7.221-.424 14.276-.994 21h-10.892zm-19.887 0h11.886v21h-10.892c-.569-6.728-.903-13.784-.994-21zm-19.886 0h11.882c.088 7.138.411 14.192.961 21h-10.795c-1.172-6.769-1.859-13.824-2.048-21zm-19.887 0h11.885c.169 7.191.793 14.245 1.86 21h-10.699c-1.745-6.738-2.768-13.793-3.046-21zm-21.886 0h13.884c.258 7.151 1.21 14.204 2.833 21h-12.692c-2.306-6.765-3.658-13.821-4.025-21zm136.129 29h11.694c-3.655 7.761-8.537 14.817-14.527 20.999h-7.096c4.101-6.353 7.436-13.406 9.929-20.999zm-18.161 0h9.72c-2.807 7.821-6.557 14.878-11.16 20.999h-5.221c2.76-6.324 4.997-13.375 6.661-20.999zm-18.256 0h9.91c-1.855 7.786-4.32 14.841-7.338 20.999h-5.967c1.401-6.26 2.542-13.314 3.395-20.999zm-18.166 0h10.089c-.903 7.68-2.118 14.734-3.617 20.999h-6.472zm-18.089 0h10.089v20.999h-6.473c-1.499-6.266-2.713-13.321-3.616-20.999zm-17.987 0h9.91c.854 7.69 1.994 14.743 3.395 20.999h-5.967c-3.017-6.158-5.482-13.212-7.338-20.999zm-18.065 0h9.72c1.663 7.623 3.899 14.675 6.66 20.999h-5.221c-4.603-6.121-8.353-13.178-11.159-20.999zm-20.137 0h11.696c2.491 7.593 5.825 14.646 9.927 20.999h-7.096c-5.99-6.182-10.871-13.239-14.527-20.999zm113.048 28.999h3.94c-3.201 2.417-6.578 4.579-10.106 6.471 2.153-1.988 4.213-4.149 6.166-6.471zm-13.006 0h2.128c-1.458 1.385-2.966 2.676-4.517 3.867.825-1.238 1.622-2.529 2.389-3.867zm-13.056 0h3.444c-1.868 2.754-3.841 5.12-5.897 7.079.867-2.141 1.686-4.507 2.453-7.079zm-12.708 0h4.258c-1.344 4.165-2.805 7.568-4.258 9.947zm-12.258 0h4.257v9.947c-1.452-2.379-2.913-5.782-4.257-9.947zm-11.894 0h3.444c.767 2.573 1.586 4.939 2.453 7.079-2.058-1.959-4.03-4.326-5.897-7.079zm-11.741 0h2.129c.767 1.339 1.565 2.63 2.389 3.867-1.552-1.192-3.06-2.483-4.518-3.867zm-14.818 0h3.941c1.952 2.321 4.013 4.483 6.166 6.471-3.529-1.892-6.906-4.054-10.107-6.471z"/><path d="m646.557 402.031c-13.94 12.146-23.878 28.763-27.549 47.603l138.633 80.04c13.939-12.147 23.878-28.763 27.549-47.604z"/><path d="m644.971 403.425c-12.613 11.553-21.711 26.87-25.53 44.149l139.786 80.705c12.613-11.552 21.711-26.869 25.53-44.149z" fill="#f2dd86"/><path d="m642.331 405.942c-10.412 10.387-18.129 23.466-22.033 38.086l141.568 81.734c10.411-10.387 18.129-23.466 22.033-38.086z"/><path d="m620.862 442.045 142.429 82.23c9.222-9.654 16.186-21.473 20.044-34.615l-142.429-82.23c-9.221 9.654-16.185 21.472-20.044 34.615z" fill="#dc0211"/><g stroke-miterlimit="10" stroke-width="2"><path d="m702.099 351.748c61.666 0 95.666-10.333 95.666-10.333s-34-16.333-95.666-16.333c-61.667 0-95.667 16.333-95.667 16.333s34 10.333 95.667 10.333z" fill="url(#a)" stroke="#000"/><path d="m702.099 250.752c82.017 0 131.227 23.663 131.227 23.663l-32.561 63s-37-12.333-98.666-12.333c-61.667 0-98.667 12.333-98.667 12.333l-32.56-63s49.21-23.663 131.227-23.663z" fill="url(#c)" stroke="#000"/><path d="m833.32 280.416c-.872 0-1.758-.19-2.597-.594-.477-.229-49.138-23.07-128.626-23.07s-128.149 22.842-128.632 23.072c-2.985 1.429-6.569.171-8.002-2.815-1.432-2.986-.177-6.566 2.807-8.001 2.06-.99 51.39-24.256 133.827-24.256s131.767 23.266 133.827 24.256c2.986 1.436 4.243 5.021 2.807 8.007-1.033 2.148-3.177 3.401-5.411 3.401z" fill="url(#e)" stroke="#000"/><path d="m800.765 342.916c-.577 0-1.163-.091-1.74-.283-.562-.185-37.189-12.051-96.927-12.051-59.902 0-96.567 11.932-96.931 12.052-2.881.956-5.994-.604-6.953-3.484-.958-2.881.598-5.992 3.478-6.952 1.545-.516 38.558-12.615 100.405-12.615 61.848 0 98.86 12.1 100.405 12.615 2.882.96 4.439 4.075 3.479 6.957-.768 2.304-2.914 3.761-5.216 3.761z" fill="url(#f)" stroke="#000"/><circle cx="644.646" cy="329.078" fill="url(#h)" r="8.069" stroke="#000"/><circle cx="638.549" cy="315.406" fill="url(#i)" r="8.069" stroke="#000"/><circle cx="632.451" cy="301.735" fill="url(#j)" r="8.069" stroke="#000"/><circle cx="626.354" cy="288.063" fill="url(#k)" r="8.068" stroke="#000"/><circle cx="620.257" cy="274.392" fill="url(#l)" r="8.068" stroke="#000"/><circle cx="614.159" cy="260.72" fill="url(#m)" r="8.068" stroke="#000"/><circle cx="706.205" cy="324.055" fill="url(#n)" r="8.069" stroke="#000"/><circle cx="702.574" cy="309.532" fill="url(#o)" r="8.069" stroke="#000"/><circle cx="698.943" cy="295.01" fill="url(#p)" r="8.069" stroke="#000"/><circle cx="695.312" cy="280.487" fill="url(#q)" r="8.069" stroke="#000"/><circle cx="691.681" cy="265.965" fill="url(#r)" r="8.069" stroke="#000"/><circle cx="688.051" cy="251.441" fill="url(#s)" r="8.069" stroke="#000"/><circle cx="768.038" cy="328.929" fill="url(#t)" r="8.069" stroke="#000"/><circle cx="766.984" cy="313.996" fill="url(#u)" r="8.069" stroke="#000"/><circle cx="765.93" cy="299.063" fill="url(#v)" r="8.069" stroke="#000"/><circle cx="764.876" cy="284.131" fill="url(#w)" r="8.068" stroke="#000"/><circle cx="763.823" cy="269.199" fill="url(#x)" r="8.068" stroke="#000"/><circle cx="762.769" cy="254.266" fill="url(#y)" r="8.068" stroke="#000"/></g><g opacity=".33"><path d="m616.996 324.325c-2.998.667-5.983 1.385-8.948 2.168-1.482.393-2.96.801-4.428 1.233-1.442.428-2.987.894-4.292 1.378l-.773-1.813c1.584-.591 2.998-1.002 4.508-1.456 1.489-.438 2.983-.851 4.48-1.248 2.995-.791 6.005-1.515 9.025-2.186 4.164-.589 8.332-1.08 12.502-1.49-4.054 1.057-8.083 2.19-12.074 3.414z"/><path d="m613.5 319.54c-2.745.627-5.478 1.299-8.193 2.028-1.357.365-2.71.744-4.054 1.144-1.319.396-2.739.828-3.925 1.27l-.774-1.813c1.46-.548 2.751-.926 4.137-1.347 1.364-.405 2.733-.789 4.104-1.158 2.744-.737 5.5-1.414 8.265-2.046 3.821-.536 7.645-.986 11.47-1.366-3.703 1.027-7.384 2.118-11.03 3.288z"/><path d="m609.369 314.381c-2.552.642-5.093 1.325-7.616 2.062-2.499.738-5.079 1.528-7.424 2.418l-.774-1.813c2.596-.988 5.078-1.735 7.646-2.498 2.551-.745 5.115-1.435 7.688-2.082 3.568-.558 7.139-1.033 10.712-1.442-3.44 1.054-6.853 2.167-10.232 3.355z"/><path d="m605.437 309.497c-2.394.612-4.778 1.262-7.144 1.96-2.343.699-4.768 1.447-6.964 2.283l-.774-1.813c2.442-.932 4.77-1.637 7.18-2.36 2.394-.707 4.799-1.363 7.214-1.98 3.354-.518 6.71-.962 10.067-1.346-3.221 1.027-6.417 2.108-9.579 3.256z"/><path d="m601.843 304.536c-4.225 1.206-8.497 2.512-12.515 4.083l-.773-1.813c4.238-1.659 8.458-2.938 12.753-4.167 2.993-.503 5.988-.94 8.984-1.326-2.842 1.024-5.661 2.096-8.449 3.223z"/><path d="m597.775 299.487c-3.868 1.198-7.746 2.487-11.446 4.011l-.775-1.813c3.846-1.583 7.72-2.867 11.643-4.083 2.752-.501 5.506-.942 8.262-1.335-2.588 1.028-5.151 2.099-7.684 3.22z"/><path d="m594.421 294.788c-3.409 1.083-6.827 2.242-10.093 3.59l-.773-1.813c3.398-1.402 6.815-2.556 10.274-3.656 2.44-.424 4.881-.8 7.322-1.135-2.266.967-4.512 1.97-6.73 3.014z"/><path d="m590.417 289.799c-3.073 1.055-6.117 2.173-9.089 3.457l-.772-1.813c3.026-1.307 6.12-2.443 9.225-3.509 2.213-.408 4.426-.772 6.639-1.101-2.024.958-4.026 1.945-6.003 2.966z"/><path d="m583.247 280.315c-2.336.837-4.647 1.715-6.919 2.699l-.771-1.813c2.308-1 4.667-1.896 7.028-2.742 1.713-.263 3.424-.496 5.134-.706-1.509.835-3 1.688-4.472 2.562z"/><path d="m586.534 284.983c-2.773.968-5.519 1.99-8.206 3.152l-.772-1.813c2.734-1.183 5.529-2.223 8.331-3.201 2.009-.351 4.018-.663 6.026-.945-1.813.909-3.608 1.844-5.379 2.807z"/></g><g opacity=".33"><path d="m787.639 322.878c3.021.686 6.03 1.423 9.025 2.23 1.497.404 2.99.826 4.479 1.272 1.511.463 2.923.881 4.507 1.485l-.787 1.808c-1.301-.493-2.846-.968-4.286-1.404-1.467-.44-2.944-.857-4.426-1.257-2.965-.799-5.95-1.531-8.948-2.211-3.99-1.242-8.019-2.391-12.074-3.463 4.172.426 8.344.933 12.51 1.54z"/><path d="m791.145 318c2.767.645 5.522 1.336 8.266 2.087 1.372.376 2.74.768 4.104 1.182 1.386.429 2.675.814 4.137 1.374l-.789 1.807c-1.182-.45-2.602-.891-3.92-1.294-1.343-.408-2.695-.794-4.052-1.167-2.715-.744-5.448-1.429-8.192-2.069-3.646-1.187-7.325-2.293-11.03-3.334 3.826.395 7.652.86 11.476 1.414z"/><path d="m795.317 312.749c2.574.66 5.139 1.364 7.689 2.124 2.566.778 5.048 1.54 7.643 2.546l-.787 1.808c-2.342-.906-4.922-1.712-7.419-2.464-2.522-.751-5.063-1.449-7.615-2.103-3.378-1.205-6.792-2.335-10.231-3.402 3.576.423 7.15.915 10.72 1.491z"/><path d="m799.258 307.769c2.415.63 4.821 1.299 7.215 2.02 2.41.737 4.735 1.457 7.177 2.406l-.787 1.808c-2.192-.851-4.616-1.614-6.959-2.327-2.365-.712-4.749-1.375-7.144-2-3.161-1.164-6.357-2.26-9.577-3.301 3.36.398 6.718.858 10.075 1.394z"/><path d="m802.898 302.721c4.296 1.254 8.515 2.559 12.751 4.25l-.787 1.808c-4.012-1.601-8.285-2.934-12.51-4.163-2.786-1.144-5.605-2.23-8.447-3.268 2.999.4 5.997.854 8.993 1.373z"/><path d="m807.01 297.584c3.923 1.241 7.798 2.551 11.64 4.163l-.787 1.808c-3.696-1.552-7.573-2.868-11.442-4.09-2.531-1.137-5.094-2.222-7.681-3.264 2.758.408 5.515.865 8.27 1.383z"/><path d="m810.377 292.795c3.459 1.123 6.877 2.301 10.271 3.729l-.785 1.809c-3.264-1.374-6.681-2.556-10.09-3.661-2.217-1.058-4.461-2.074-6.727-3.056 2.445.35 4.889.739 7.331 1.179z"/><path d="m814.426 287.723c3.105 1.087 6.199 2.246 9.223 3.579l-.785 1.808c-2.969-1.308-6.013-2.448-9.086-3.524-1.976-1.036-3.978-2.036-5.999-3.006 2.215.341 4.431.72 6.647 1.143z"/><path d="m818.318 282.813c2.804.999 5.598 2.058 8.331 3.265l-.787 1.808c-2.684-1.185-5.43-2.227-8.202-3.214-1.77-.976-3.563-1.922-5.375-2.844 2.011.295 4.023.621 6.033.985z"/><path d="m821.621 278.058c2.361.863 4.721 1.778 7.026 2.796l-.783 1.809c-2.272-1.003-4.581-1.898-6.918-2.752-1.471-.885-2.961-1.749-4.467-2.594 1.712.221 3.426.466 5.142.741z"/></g><path d="m683.399 308.88c-11.393.411-21.758 1.215-31.01 2.224l-10.132-38.171c10.708-1.585 22.499-2.852 35.28-3.56 0 0 5.861 39.507 5.862 39.507z" fill="none" stroke="#000" stroke-miterlimit="10" stroke-width="2"/><path d="m651.055 278.792c6.756-.853 13.612-1.529 20.502-2.024l3.779 25.466c-5.974.319-11.896.754-17.713 1.303z"/><path d="m657.366 283.08c3.292-.363 6.609-.687 9.93-.966l2.293 15.452c-2.754.181-5.498.386-8.214.615z" fill="#fff"/><path d="m716.706 308.88c11.393.411 21.758 1.215 31.01 2.224l3.132-38.171c-10.708-1.585-22.499-2.852-35.28-3.56z" fill="none" stroke="#000" stroke-miterlimit="10" stroke-width="2"/><path d="m741.322 303.428c-5.853-.535-11.805-.956-17.807-1.259-.132-4.572-.354-12.284-.729-25.311 6.908.519 13.779 1.22 20.544 2.098z"/><path d="m736.749 298.019c-2.771-.221-5.565-.416-8.368-.587l-.436-15.132c3.352.301 6.694.646 10.009 1.032z" fill="#fff"/><path d="m612.099 297.471c-4.667 4.94-15.303 17.958-15.303 17.958l-13.854-5.896 5-14.448c-.001-.001 17.951 2.258 24.157 2.386z" fill="url(#z)" stroke="#000" stroke-miterlimit="10" stroke-width="2"/><path d="m792.099 297.471c4.666 4.94 15.303 17.958 15.303 17.958l13.854-5.896-5-14.448c0-.001-17.952 2.258-24.157 2.386z" fill="url(#A)" stroke="#000" stroke-miterlimit="10" stroke-width="2"/><path d="m474.949 305.469-23.512-19.864 4.932-5.838 19 10.045-13.11-17.016 4.943-5.852 23.512 19.865-3.062 3.624-18.508-15.638 15.269 19.472-3.173 3.756-21.737-11.815 18.508 15.637z"/><path d="m472.139 261.798 3.63-3.591 11.724 11.851c1.861 1.881 3.111 3.056 3.753 3.523 1.041.742 2.123 1.096 3.244 1.06s2.188-.556 3.202-1.559c1.03-1.02 1.554-2.044 1.57-3.074.016-1.029-.292-1.971-.924-2.822s-1.804-2.143-3.517-3.874l-11.976-12.105 3.63-3.591 11.37 11.493c2.599 2.627 4.337 4.58 5.213 5.858.877 1.279 1.421 2.552 1.632 3.82s.094 2.561-.351 3.876c-.445 1.316-1.378 2.679-2.801 4.086-1.717 1.698-3.258 2.745-4.622 3.141-1.365.395-2.686.461-3.964.199-1.278-.261-2.417-.733-3.417-1.418-1.478-1.02-3.427-2.753-5.849-5.201z"/><path d="m511.712 266.198-19.931-23.455 3.786-3.218 21.198 8.961-13.31-15.663 3.615-3.072 19.93 23.456-3.904 3.317-20.767-8.693 12.998 15.295z"/><path d="m530.899 250.316-18.67-24.473 4.06-3.097 18.669 24.472z"/><path d="m545.474 225.975 5.167-1.207c1.263 3.204 1.624 5.977 1.083 8.318-.542 2.341-1.934 4.275-4.178 5.803-2.776 1.891-5.843 2.289-9.202 1.198-3.359-1.092-6.401-3.639-9.126-7.643-2.883-4.234-4.224-8.136-4.022-11.701.201-3.566 1.766-6.347 4.694-8.34 2.557-1.741 5.261-2.235 8.11-1.483 1.691.44 3.467 1.518 5.329 3.229l-3.351 4.06c-1.145-1.15-2.37-1.841-3.674-2.07s-2.518.037-3.639.801c-1.55 1.056-2.346 2.588-2.389 4.599s.967 4.532 3.031 7.563c2.19 3.217 4.225 5.184 6.105 5.901 1.88.719 3.581.56 5.102-.476 1.122-.764 1.792-1.854 2.009-3.272.216-1.418-.133-3.178-1.049-5.28z"/><path d="m541.992 203.097-1.199-6.605 4.655-2.804-.826 7.825zm17.29 27.577-15.878-26.368 4.375-2.635 15.878 26.369z"/><path d="m567.437 225.692-14.422-27.192 7.239-3.84c2.743-1.454 4.604-2.267 5.581-2.437 1.497-.271 3.039.048 4.627.956s2.957 2.444 4.104 4.608c.886 1.67 1.381 3.205 1.487 4.606.105 1.402-.053 2.631-.476 3.687-.423 1.057-.975 1.899-1.656 2.53-.939.831-2.43 1.788-4.472 2.871l-2.941 1.56 5.44 10.258zm-7.472-24.985 4.093 7.717 2.469-1.31c1.778-.943 2.891-1.716 3.34-2.318s.682-1.296.702-2.083c.019-.786-.185-1.581-.611-2.385-.524-.989-1.196-1.679-2.015-2.069-.819-.389-1.636-.471-2.453-.243-.604.162-1.719.674-3.345 1.536z"/><path d="m587.915 215.188-12.869-27.961 4.639-2.135 12.869 27.961z"/><path d="m590.06 197.276c-1.124-2.927-1.707-5.521-1.75-7.784-.025-1.67.204-3.264.686-4.784s1.168-2.772 2.059-3.759c1.18-1.322 2.731-2.353 4.653-3.09 3.479-1.336 6.767-1.091 9.863.734s5.542 5.077 7.338 9.755c1.781 4.64 2.137 8.667 1.071 12.082s-3.333 5.789-6.802 7.12c-3.511 1.348-6.803 1.115-9.875-.696-3.073-1.811-5.487-5.003-7.243-9.578zm4.837-2.081c1.249 3.254 2.813 5.483 4.692 6.688s3.77 1.443 5.67.714 3.14-2.161 3.719-4.295.229-4.867-1.05-8.199c-1.264-3.294-2.8-5.522-4.609-6.688-1.808-1.165-3.695-1.37-5.66-.616s-3.234 2.183-3.807 4.283c-.572 2.104-.224 4.807 1.045 8.113z"/><path d="m645.586 163.862 9.217-1.469c2.078-.331 3.693-.391 4.845-.177 1.549.292 2.953 1.024 4.211 2.199 1.258 1.174 2.315 2.689 3.169 4.544s1.509 4.207 1.962 7.055c.399 2.502.487 4.699.265 6.591-.272 2.312-.879 4.243-1.819 5.797-.709 1.176-1.762 2.173-3.157 2.99-1.045.606-2.499 1.058-4.361 1.354l-9.489 1.512zm5.863 4.338 3.208 20.134 3.765-.601c1.408-.224 2.409-.482 3.003-.775.778-.38 1.39-.909 1.834-1.59.444-.68.729-1.729.853-3.145.124-1.415-.001-3.298-.376-5.648s-.832-4.126-1.374-5.33c-.541-1.203-1.174-2.109-1.9-2.716s-1.58-.961-2.562-1.06c-.735-.081-2.13.042-4.186.37z"/><path d="m675.024 190.593-2.065-30.711 18.709-1.259.35 5.195-13.615.916.458 6.808 12.668-.852.348 5.174-12.668.853.563 8.358 14.097-.948.348 5.175z"/><path d="m727.692 190.408 4.147-30.5 10.649 1.448c2.678.364 4.587.903 5.726 1.616 1.14.713 1.979 1.819 2.518 3.319.538 1.5.686 3.151.44 4.955-.312 2.288-1.122 4.103-2.43 5.443-1.309 1.341-3.089 2.056-5.341 2.145.988.926 1.775 1.901 2.361 2.928s1.321 2.807 2.207 5.343l2.251 6.366-6.052-.822-2.755-7.135c-.977-2.548-1.662-4.163-2.057-4.846-.396-.682-.845-1.175-1.35-1.476-.504-.302-1.338-.532-2.5-.69l-1.025-.14-1.731 12.732zm7.454-16.913 3.743.51c2.428.33 3.96.411 4.598.243.639-.167 1.17-.532 1.595-1.097.425-.563.699-1.303.824-2.219.14-1.026.027-1.886-.337-2.578-.365-.691-.945-1.177-1.743-1.455-.401-.125-1.627-.327-3.679-.606l-3.948-.537z"/><path d="m752.271 194.155 6.138-30.162 5.004 1.018-6.138 30.162z"/><path d="m764.644 180.979c.834-3.022 1.905-5.456 3.215-7.303.972-1.357 2.103-2.505 3.394-3.441 1.29-.936 2.586-1.536 3.889-1.801 1.734-.363 3.594-.271 5.578.277 3.593.991 6.092 3.141 7.499 6.448s1.444 7.377.11 12.207c-1.322 4.789-3.427 8.242-6.313 10.356s-6.12 2.677-9.701 1.688c-3.625-1.001-6.136-3.144-7.532-6.426-1.397-3.281-1.444-7.283-.139-12.005zm5.127 1.197c-.928 3.36-.993 6.083-.197 8.169s2.176 3.399 4.138 3.941 3.81.126 5.543-1.247 3.075-3.779 4.025-7.22c.938-3.4 1.026-6.106.264-8.117-.764-2.012-2.159-3.297-4.188-3.857-2.029-.561-3.898-.165-5.607 1.186s-3.036 3.732-3.978 7.145z"/><path d="m829.012 186.993 9.012 4.581c1.783.907 3.067 1.674 3.853 2.301.784.626 1.377 1.402 1.777 2.328.399.926.588 1.983.564 3.172s-.338 2.377-.94 3.562c-.653 1.286-1.537 2.32-2.651 3.104-1.115.784-2.296 1.197-3.542 1.238 1.126 1.185 1.76 2.552 1.902 4.1.142 1.549-.19 3.115-.996 4.699-.634 1.248-1.489 2.34-2.565 3.276-1.076.938-2.206 1.549-3.39 1.834s-2.422.201-3.714-.251c-.81-.286-2.672-1.154-5.585-2.604l-7.674-3.9zm-3.318 17.792-3.729 7.337 4.213 2.143c1.641.834 2.71 1.307 3.208 1.419.753.193 1.489.109 2.21-.255.72-.364 1.327-1.032 1.822-2.006.419-.823.609-1.605.573-2.347-.036-.74-.298-1.399-.784-1.977-.487-.578-1.767-1.393-3.837-2.445zm5.548-10.911-3.226 6.345 2.983 1.517c1.773.901 2.891 1.431 3.354 1.588.836.283 1.615.268 2.337-.049s1.308-.917 1.759-1.803c.431-.849.589-1.636.475-2.361-.115-.726-.523-1.338-1.225-1.836-.42-.291-1.7-.982-3.843-2.071z"/><path d="m837.178 225.899 16.186-26.181 9.142 5.651c2.299 1.421 3.823 2.688 4.574 3.803s1.068 2.467.951 4.056c-.118 1.59-.654 3.159-1.611 4.706-1.215 1.965-2.692 3.294-4.432 3.987s-3.658.623-5.752-.211c.527 1.247.85 2.459.968 3.634.118 1.176.066 3.103-.155 5.779l-.53 6.731-5.194-3.211.382-7.639c.143-2.726.173-4.479.09-5.264-.084-.783-.294-1.416-.633-1.896-.338-.481-1.006-1.029-2.004-1.646l-.881-.544-6.757 10.93zm13.683-12.423 3.214 1.987c2.083 1.288 3.45 1.985 4.102 2.091.65.106 1.285-.012 1.902-.354.617-.343 1.169-.907 1.654-1.692.545-.882.791-1.712.74-2.493-.052-.78-.386-1.46-1.001-2.038-.315-.277-1.354-.96-3.114-2.049l-3.39-2.096z"/><path d="m876.65 252.646-4.479-3.286 2.355-6.943-8.15-5.98-5.819 4.402-4.367-3.204 26.15-18.99 4.354 3.194zm-.377-15.38 3.947-11.271-9.511 7.188z"/><path d="m878.313 254.094 20.046-23.357 3.771 3.235-5.533 22.34 13.388-15.599 3.6 3.09-20.047 23.357-3.888-3.337 5.336-21.872-13.072 15.231z"/><path d="m916.559 273.889 2.151 4.852c-2.912 1.84-5.568 2.712-7.97 2.618-2.401-.095-4.563-1.102-6.481-3.021-2.376-2.374-3.341-5.313-2.896-8.815.444-3.504 2.379-6.969 5.803-10.395 3.621-3.623 7.202-5.669 10.744-6.138 3.541-.468 6.563.55 9.069 3.054 2.188 2.187 3.179 4.75 2.973 7.69-.117 1.743-.843 3.689-2.178 5.839l-4.613-2.533c.916-1.341 1.365-2.673 1.348-3.997-.019-1.323-.508-2.466-1.467-3.425-1.326-1.325-2.981-1.821-4.965-1.488s-4.271 1.797-6.863 4.391c-2.751 2.753-4.304 5.12-4.657 7.101-.354 1.981.119 3.622 1.421 4.923.96.96 2.157 1.414 3.591 1.362 1.431-.053 3.095-.724 4.99-2.018z"/><path d="m925.597 277.54c2.4-2.017 4.662-3.415 6.787-4.193 1.57-.568 3.152-.873 4.746-.912 1.594-.04 3.002.2 4.225.72 1.635.684 3.115 1.813 4.439 3.39 2.397 2.853 3.238 6.04 2.523 9.563-.715 3.521-2.991 6.896-6.827 10.119-3.805 3.196-7.495 4.848-11.071 4.954s-6.56-1.263-8.949-4.106c-2.42-2.879-3.274-6.066-2.564-9.563s2.94-6.82 6.691-9.972zm3.545 3.894c-2.668 2.242-4.266 4.448-4.791 6.618-.526 2.169-.135 4.033 1.175 5.592s3.067 2.264 5.273 2.114c2.206-.148 4.676-1.371 7.408-3.667 2.7-2.27 4.306-4.449 4.817-6.538.511-2.09.09-3.94-1.264-5.552-1.354-1.611-3.118-2.345-5.292-2.201-2.173.144-4.615 1.355-7.326 3.634z"/></svg>