<svg height="350" viewBox="0 0 10 7" width="500" xmlns="http://www.w3.org/2000/svg" xmlns:xlink="http://www.w3.org/1999/xlink"><clipPath id="a"><path d="m0 0h10v7h-10z"/></clipPath><path d="m0 0h10v7h-10z" fill="#fff"/><path d="m0 0 10 7v-6l-10 6" fill="#fff"/><path clip-path="url(#a)" d="m0 0 10 7m0-7-10 7" stroke="#4794e0"/><g transform="matrix(.01035828 0 0 .01145694 4.448883 -1.278624)"><path d="m207.77386 460.10842s7.82297.54827 10.77245 0c2.95206-.55079 10.91485-3.16893 12.82852-5.09292 1.9266-1.9265 10.4824-10.86991 11.0728-11.4207.58784-.55079 3.68749-4.68045 4.42034-5.36957.7354-.6866 1.77382-1.9265 1.77382-2.33897 0-.40995-2.01464-1.02613-3.36898-.99343s-8.43409-.37977-10.20016.0327c-1.77122.40995-4.28308.68409-5.75911 1.51153-1.47603.82493-5.30853 2.88976-5.30853 2.88976s1.47345-5.63868 2.20888-6.46612c.7406-.82492 2.80186-7.16026 2.95206-9.91169.14751-2.74892 0-5.63868 0-5.63868s-2.50148.54576-3.54245.96074c-1.03323.41498-11.65031 7.29356-12.39091 8.121-.73543.82493-4.56793 4.26799-5.01332 4.68045-.44541.41247-2.21665 2.61562-2.21665 2.61562s.44541-4.13217.44541-5.09543c0-.96073-2.06645-5.22872-2.80188-6.88109-.73541-1.65237-1.92142-4.26547-1.62362-5.22873.29518-.96073.14751-2.20064-.59301-1.9265-.73543.27413-5.15574 3.85301-6.04396 6.05365-.88302 2.20567-3.54248 5.64371-3.54248 5.64371l-.14256.41246s10.46943 26.83526 16.0732 33.44222z" fill="#d31515"/><path d="m200.87019 394.43873s3.44145 1.09655 3.99564 1.46123c.55156.36719 7.98093 3.43803 8.8484 3.72726.86232.29174 10.72326 0 12.60583 0 1.87741 0 13.46814-.65894 14.48324-.72936 1.02545-.0754 3.92053.0704 3.92053.0704s-1.96283-1.31032-3.52951-2.47981c-1.56407-1.172-7.90582-9.20497-9.23684-9.8639-1.32844-.65894-6.81566-4.23781-8.61538-4.16488-1.80231.0729-4.30379-.6539-4.30379-.6539s2.50148-1.53668 3.99306-1.75297c1.48638-.22132 6.65768-2.92749 7.59767-3.72726.93741-.80229 2.03277-2.77658 2.18556-3.57888.16317-.8048 1.17823-1.53416 1.88257-1.75296.70956-.22133 5.95334-3.28965 7.0487-3.58391 1.09278-.28922 4.46693-3.433 4.54203-4.09194.0802-.6539.0802-2.77155-.94258-3.13623-1.01509-.3697-6.65251-1.97177-7.43972-1.97177-.77686 0-4.06555-.22384-6.33915-.0755-2.26843.14838-4.38408.73187-6.1087 1.31535-1.71688.58349-6.57741 1.75297-8.68787 2.41191-2.11562.65893-2.98313 1.09403-2.98313 1.09403s2.35386-3.21168 2.90286-3.8681c.55158-.65893 6.34176-8.62652 7.35685-10.66871 1.02029-2.04723 2.69827-5.27652 2.68014-6.51391-.0165-1.22733.22278-7.44194.53604-8.02291.31076-.58348.93483-3.433 1.40612-4.605.47129-1.16446.15795-2.55526-.391-2.62568-.54642-.0729-3.76001-.36719-4.61716-.14839-.86231.21881-6.03357 1.02865-7.60025 2.92497-1.55888 1.89633-3.13591 4.01649-3.13591 4.01649s-.153-4.89926-.31073-5.5582c-.153-.65642-1.87225-4.45158-2.11049-4.96465-.23046-.50803-.15794-3.79516.39103-4.30823.54639-.51306 2.34353-4.53458 2.2684-6.06622-.0777-1.53417-.18899-4.66034-.29518-4.99986-.0956-.33199-.72508-4.27554-.80276-4.71567-.0753-.43761-.47645-2.73131-1.64436-2.6458-1.17046.088-5.48461.088-5.95073.088-.46868 0-4.93305 2.48484-5.32405 3.57887-.39102 1.09907-1.56668 6.94146-1.8826 7.52243-.31851.58851-4.70259 10.52536-4.70259 11.10633 0 .58348-2.2684 7.74626-2.34611 8.25681-.075.51054-1.32841 4.6729-1.32841 4.6729s-.94002-3.57887-1.17824-4.82129c-.23294-1.24494-.78463-4.08942-1.32841-4.52955-.549-.43761-2.50667-3.06833-2.97796-3.87062-.46354-.8048-1.64439-2.48232-1.79717-3.28713-.15795-.80229-1.64433-2.48232-1.56923-4.53206.0777-2.0422 0-2.69862-.78463-3.94104-.78202-1.24494-.46352-2.70365-1.33102-4.67794-.85715-1.97177-2.50667-4.89171-2.58694-5.32933-.0725-.43761-2.18816-3.94606-2.65945-4.67793-.47129-.72936-2.57914-3.14126-2.73972-3.433-.15795-.29175-1.02026-.14336-1.09795.2188-.075.36719-3.28611 15.04988-3.28611 16.51111 0 1.45871.93742 5.32933 1.01768 6.57175.0777 1.24242 1.48899 6.50132 1.09278 7.30864-.391.8023-1.56407 4.74585-1.80228 5.32933-.23321.58852-1.00993 6.35797-.93744 7.74626.0802 1.38578-1.48378 2.33646-1.88257 2.99539-.39103.65642-4.92789 7.00936-2.4989 18.47785 0 0 4.151 13.00266 4.46176 14.17466.31851 1.16948-.549 2.77406-.549 3.21419 0 .43762-.77685 10.44488-.77685 11.24969 0 .8048.30556 4.96716.38583 5.26142.0777.29174 1.25853 6.79307 1.25853 6.79307l1.00993.58348s3.92309-11.76275 4.30895-13.00265c.39102-1.24494 1.49158-3.72726 1.41131-5.40478-.0777-1.68255-.85715-2.12016-1.32585-4.16487-.47132-2.04471-.94777-4.96717-.62924-6.06372.3107-1.09654 1.56926-7.66829 1.72202-8.32723.1552-.65642 1.49157-6.13413 2.03277-7.452.55416-1.31536 2.35131-5.18346 2.66981-5.40478.30557-.21881 9.94121 32.0313 9.94121 32.0313l14.41071 13.4805z" fill="#d31515"/><path d="m216.19503 418.15286s-7.14454-.27666-8.63609-.55582c-1.49158-.27666-10.27526-2.77659-11.46901-3.19156-1.19118-.42001-3.72375-4.45159-4.47471-4.86657-.74059-.41749.30038 1.24997-.88821 4.16991-1.19637 2.9149-.15301 15.14042 8.64125 32.09417 0 0 17.12715 26.12351 21.29886 39.73731 0 0 10.27523 25.42434-1.49155 50.43621 0 0 .45055 3.33743 10.8734-2.49741 0 0-4.3193 7.9198-7.5925 11.67221 0 0-.75351 3.05575 3.86359 1.24996 4.62229-1.8083 5.22049-1.94662 5.9637-.69666.74837 1.24997 2.08455 5.98072 1.78934 6.67235-.30038.68911-1.34915 1.24745-2.23734 1.5241-.89341.27917-5.96108 1.39081-5.96108 1.39081s-1.041 1.66745-1.041 2.77658c0 1.11415 1.33879 4.03661 2.08455 4.86656.74579.83247 5.21793 1.94411 5.21793 1.94411l-.59561.97332-3.72894.97331-.44539.83247 1.48642 2.08495s8.64122 6.39067 9.0918 7.50231c.44283 1.11163.44283 6.67234.44283 6.67234s-1.49158-.55833-1.93438-.69666c-.45058-.13832-3.12555 0-3.12555 0s-4.32192-.13832-4.91753-.69414c-.5982-.55834-1.49158-1.66746-2.08975-2.36412-.59039-.69415-2.67498-3.33492-3.56836-3.61157-.8934-.27917-2.25288-.76457-3.1411-.52061-.88305.24144-3.11519.52061-4.16139.79726-1.04358.27917-5.35769 1.52913-5.95589 1.52913-.593 0-6.55667-1.94411-7.90066-2.3616-1.33102-.41749-8.93127-3.33743-9.67706-3.33743s-4.76214.83499-5.80572 1.11164c-1.04097.27917-24.96561 4.47925-33.95908 4.58739 0 0-20.55046 1.73285-35.30303-8.19645 0 0-8.78368 8.46808-18.613502 9.58223 0 0-9.244615-.55582-16.837124-3.89073-7.595063-3.33241-9.98002-2.08244-9.98002-2.08244s-10.272649.69666-12.062019-1.94411c-1.791952-2.64329-2.382375-4.44656 5.357726-8.19897 7.753039-3.75241 33.218452-10.83973 33.218452-10.83973l5.062547-2.08244s4.61968-11.95137 6.40908-13.48051c1.78159-1.5241 12.3572-5.83484 12.3572-5.83484s14.15176-6.24983 15.49317-6.66732c1.34395-.41498 5.21013-3.33743 5.80572-3.75241.59817-.41498 3.72372-3.61157 4.32192-3.89074.59817-.27665 2.83295-1.25499 3.27833-1.52913.44281-.27665 2.23218-3.33492 2.67498-4.02655.45058-.69666 4.62229-11.39304 4.76989-32.51166l-.44278-20.28615s-.89857-6.52899-.74579-8.19645c.14751-1.66746 2.08197-13.89297 2.23217-14.86628.15301-.97332 3.86874-22.51195 4.16653-23.48275.3004-.97331 4.76736-20.00698 5.81091-22.23026 1.04617-2.22328 2.37979-8.19896 2.37979-8.19896s.44797-2.35909.14751-3.47073c-.29521-1.11164-2.52738-6.94397-1.0358-11.66969 1.48638-4.72573 4.01896-13.06302 4.46692-14.17466.44542-1.11415 1.3388-3.89073 2.08459-3.89073.74578 0 1.49157 1.94411 1.63916 2.77658.14751.83499 1.19376 12.78385 1.19376 12.78385s1.48122-.9708 2.22701-1.11164c.74576-.13833 4.17174-1.66495 4.17174-1.66495l1.28696-.0805s-1.13678 8.5561-1.13678 9.38857c0 .8375.89857 3.89074 1.48896 4.58488.5982.69667 1.7894 1.94663 1.6392 2.78162-.14751.83498-1.18862 3.61157-.29524 4.16738.89341.55331 6.25633 2.63826 6.99692 2.63826.74579 0 2.08975-.5533 2.83293-.97331.74581-.4175 2.18042-2.27861 3.02457-2.5276.85196-.24898 12.31839-.52564 12.76639-.52564.44538 0 2.68275.14084 1.041 1.66746-1.6392 1.52662-6.85189 4.58488-8.19587 4.72321-1.34138.14084-2.67498.69415-4.01894 1.24996-1.33879.55834-3.27833 2.22077-3.12555 3.61409.14751 1.38829 1.48636 5.13818 1.48636 6.25234 0 1.11164 1.04619 4.1699 1.94218 5.27903.88558 1.10912 3.27834 3.61156 3.71595 4.16738.45057.55582 3.42593 5.5582 5.5157 6.949 2.08455 1.38829 3.13591 2.90988 2.83037 3.46822z" fill="#d31515"/><g fill="none" stroke="#2c2c2b" stroke-linecap="round" stroke-linejoin="round" stroke-width="1.09367" transform="matrix(2.5895275 0 0 2.51502 -713.59813 -652.11139)"><path d="m349.728 422.903s-3.861 3.627 6.709 20.303c10.569 16.677 4.024 28.762 4.024 28.762"/><path d="m334.041 463.912c4.025-6.041 2.265-22.076 2.21-25.125-.058-3.048 3.493-21.201 3.828-22.007.337-.805 1.177-3.706 1.763-5.318s-.672-2.336-.672-4.754c0-2.416 2.181-7.25 2.434-8.216.251-.967.923-1.451 1.34 2.98.42 4.432 0 3.062.336 2.739.335-.321 2.77-1.611 2.77-1.288 0 .321-.252 2.255-.337 3.947-.084 1.693.839 2.094 1.174 2.578.337.484-1.426 1.692 1.341 2.658 2.772.968 2.098-.885 3.441-1.207 1.342-.322 4.53-.162 5.537-.162 1.006 0-1.261 1.935-2.853 2.337-1.595.403-1.509.162-2.767 1.129-1.26.966-.168 1.932 0 3.142.167 1.207.251 2.336 1.341 2.98 1.091.644 1.007 2.175 2.6 3.465 1.593 1.287 1.679 1.852 1.679 1.852-1.593.322-7.466-1.127-8.136-1.611-.672-.482-1.342-1.854-2.348-2.578-.913-.657-2.859.141-3.217.297-.037.016-.055.026-.055.026s-.306.26-.745-.422c-.435-.683-.545-1.47-.819-1.838"/><path d="m359.289 471.002s.249.886.672 1.369c.417.483 1.172.484 2.095.162.923-.324 2.602-1.209 2.602-1.209s-.839 1.772-1.679 2.82c-.839 1.047-2.348 2.416-1.172 2.577 1.172.162 3.102-2.174 3.688.162.588 2.337.502 2.416-.251 2.578-.756.161-2.265.563-2.6.725-.337.162-.42 2.902 1.005 3.384 1.43.483 3.441.241 3.188.322-.25.081-3.102.564-3.605.967-.506.402 4.277 2.98 4.36 4.672.084 1.693 0 2.579 0 2.579s-.251-1.208-1.676-1.047c-1.428.161-2.432-.081-2.684-.564-.253-.484-.755-2.096-2.854-2.176-2.096-.081-2.851 1.207-4.865.724-2.011-.482-5.452-2.176-6.542-1.932-1.089.242-12.835 2.659-18.118 2.175-5.285-.484-9.059-2.66-9.646-2.901"/><path d="m315.671 478.251s.502-4.914 3.187-6.042c2.683-1.128 10.066-4.19 11.491-5.318s2.265-2.658 3.857-2.739c1.595-.081 5.371-1.933 5.873-3.545 0 0 .421 1.451.168 2.579-.251 1.128-1.677 3.142-1.593 3.867.084.724.168 1.691.756 1.852.586.162 2.095 0 2.011.806-.082.806-.502 6.367.758 6.446 1.256.08 1.172.243 1.928-.322.753-.564 1.676-1.129 2.599-1.129s2.934-.563 3.608-.563c.67 0 1.342-.403 2.349.403 1.006.805 2.601.885 3.018.643.42-.241 1.679-.563 2.181-2.657.504-2.096 1.007-2.741 1.593-1.773"/><path d="m304.596 487.678s3.525.968 4.362 1.371c.839.402 3.272 1.127 5.117.725 1.844-.403 6.123-2.659 6.878-3.948.754-1.29 1.509-3.223.337-4.029-1.176-.806-2.601-1.449-3.187-2.094-.589-.645-1.93-1.451-1.93-1.451s-13.086 4.108-14.511 4.753c-1.428.646-3.441 1.692-3.609 2.338-.167.645.337 1.692 1.175 1.853.839.161 4.11.483 6.459-.081 2.348-.564 6.459-2.417 9.393-.886"/><path d="m315.111 486.365s.306.831-.784.831c-1.091 0-2.941-1.359-4.366-1.118"/><path d="m314.999 482.039s-2.432 1.774-5.118 2.015c-2.683.241-2.853.482-5.201.564-2.348.08-5.62.645-6.376 1.047"/><path d="m329.763 478.011s-.67-.887-2.014-.887c-1.341 0-2.601.082-3.441-.241-.839-.322-1.846-1.288-2.179-1.853"/><path d="m336.641 464.798s-1.009 2.175-.421 3.303.755 1.853 1.595 1.853c.839 0 1.595-.724 2.348.323.756 1.047 1.007 1.611 1.007 1.611"/><path d="m337.561 472.613c.17 1.531-.753 3.465 0 4.189.756.725 3.525 1.936 5.12 2.982 1.593 1.047 1.93.966 2.683.966.756 0 4.027-1.771 4.53-1.128.502.644 1.258.726 1.341.081.084-.645 1.091-4.675 1.428-5.157"/><path d="m343.351 480.348s-.337-.243-2.181.241c-1.846.483-2.432.805-3.776.967-1.341.162-3.188.324-3.857 1.29-.67.965-1.007 1.852-.756 2.739.253.886 1.009 1.852 1.425 1.934"/><path d="m341.002 486.391s.168.563-1.341.643c-1.511.081-5.455-2.335-1.93-2.98 0 0 9.814-.726 11.24-.726 1.425 0 4.864-.482 5.117-2.497"/><path d="m351.487 483.57s0 1.29.671 1.693c.67.402 8.303 1.692 8.726 2.657"/><path d="m354.758 475.352s-2.263.965.588 1.289c2.853.323 4.278-.08 3.606 1.128-.67 1.21-3.522 3.142-2.934 4.109.586.968 1.258 1.853 2.432 2.337 1.174.483-4.113.08-5.201.161-1.091.081-1.593.081-1.593.081"/><path d="m346.034 480.266s-.672-.159-.588-.885c.086-.726.588-3.303-.249-3.142-.839.161-1.007.078-1.09-.404"/><path d="m353.645 416.245s3.184 1.302 3.927 1.757c.745.456 3.047.325 4.878.261 1.828-.066 5.69-.326 6.5-.326.813 0 2.71.066 2.236 0-.473-.065-.812.91-3.046-1.821-2.237-2.732-4.538-4.489-5.961-4.684-1.422-.195-2.575-.391-2.575-.391s4.133-1.365 4.809-2.016c.678-.651 1.356-1.366 1.017-1.758-.339-.388 6.163-2.146 5.283-4.487 0 0-2.573-2.147-7.789-.586-5.215 1.561-7.586 2.863-8.805 3.447-1.219.587-3.184 1.758-3.184 1.758"/><path d="m358.317 403.431s4.742-6.116 4.809-8.199c.068-2.081.203-2.926.407-3.836.204-.911.947-1.822.339-2.148-.609-.326-2.914-.39-4.807 1.237-1.898 1.626-2.982 4.293-3.321 5.659-.339 1.365-1.625 2.862-2.032 3.448-.406.586-2.979 3.579-3.792 4.034"/><path d="m357.639 391.721s.544-1.106 0-2.537c-.541-1.432-1.354-1.497-.472-3.188.881-1.692.948-2.473.607-4.425-.337-1.951-.406-2.665-.945-2.927-.544-.259-4.134-.193-4.473 1.562-.337 1.757-1.082 4.163-1.692 5.268-.609 1.107-2.167 7.027-2.237 8.069-.065 1.039-1.014 4.942-1.419 6.114"/><path d="m348.427 393.543s0-2.864-.88-4.424c-.878-1.562-2.166-2.928-2.234-4.359-.067-1.431-.88-2.407-1.084-3.708-.202-1.301-1.219-2.928-1.693-3.578-.474-.651-1.354-2.472-1.693-2.016-.339.455-1.626 5.725-1.354 7.351.27 1.626.676 3.902.811 4.488s-1.76 3.644-.88 6.441c.88 2.795-1.421.65.95 5.073 0 0-.07 1.822.338 2.798"/><path d="m338.742 393.802c-.339.716-1.758 3.188-1.624 5.009.135 1.822 1.558 6.701 1.624 7.092.069.39 1.897 3.641 1.897 3.641"/><path d="m339.15 407.399s-.474 5.269-.408 6.18c.069.91.949 4.293.949 4.293"/><path d="m361.162 392.892s-4.879 7.806-6.639 9.237-3.047 2.928-3.318 3.124"/><path d="m358.858 396.47s.476-2.277.137-3.383"/><path d="m357.368 398.941s.473-.52 1.558-.52"/><path d="m354.795 382.093s-1.76 11.125-4.605 16.068"/><path d="m353.439 388.208s-.2-1.757-1.354-2.408"/><path d="m351.96 393.824s.735-.997 1.954-1.194"/><path d="m344.229 394.713s.202-7.285-.339-8.651c-.541-1.367-1.828-2.539-1.828-3.384"/><path d="m344.161 389.647s.135-.658-1.56-1.114"/><path d="m344.161 392.673s-.067-.562-1.221-1.018"/><path d="m355.609 409.349s2.232.066 3.725-1.431c1.489-1.496 1.895-2.406 3.521-2.992 1.625-.585 3.318-1.107 3.318-1.107"/><path d="m360.89 406.293s2.12-.031 2.236 1.235"/><path d="m363.911 404.582s.706-.633.637-1.673"/><path d="m356.692 414.294s6.571 1.039 7.517 1.365c.949.325 2.168.846 2.168.846"/><path d="m357.639 414.228s-.03-.58 2.273-.906"/><path d="m362.011 415.099s1.657-.416 2.065-1.067"/><path d="m360.484 415.009s.678.586.745 1.236"/><path d="m342.009 410.098s1.28 5.364 1.28 7.303c0 1.938.336 1.293.74 2.392"/><path d="m361.86 467.812s-4.711 1.874-4.979-2.392c0 0-3.971 2.391-4.578.259 0 0-1.613 3.555-3.028 1.745"/><path d="m349.21 467.166s-1.412 3.296-3.836 1.292c0 0-.941-.969-1.01-1.616-.066-.645.069 1.099-.672 1.358-.739.258-1.95.775-2.355.775"/><path d="m357.419 467.554s-1.078 1.873-2.222 1.808c-1.142-.065-2.422-1.097-2.691-1.55-.268-.453-.47-1.228-.47-1.228s1.211 3.037-.135 3.748-1.952.645-2.424.193c-.47-.451-1.411-2.003-1.411-2.003s1.278 2.07.2 2.845c-1.074.774-2.15.711-2.557.322-.402-.387-1.278-2.003-1.278-2.327 0-.323-.067-1.486-.067-1.486"/><path d="m344.229 469.751s-.472.711-.809 1.292c-.335.581-.804 1.487-.402 2.456s1.068 1.8 1.076 2.068"/><path d="m348.803 471.431s.341 1.938-1.209 2.391c-1.548.452-2.354.194-2.557-.388-.202-.581-.202-2.585-.202-2.585"/><path d="m352.775 470.074s1.211 3.425-.067 3.813"/><path d="m349.747 470.978s-.537 2.262.606 2.974"/><path d="m358.092 470.849s-2.962 2.908-4.71.905"/><path d="m357.351 468.005s.672 3.039-.604 3.749"/><path d="m356.881 465.42c1.083 1.681 5.388-.72 5.388-.72"/><path d="m362.216 459.949s-1.158 2.073-2.367 2.073c-1.211 0-2.577-.96-2.524-2.274 0 0-.37 2.628-2.579 2.628-2.21 0-2.316-2.174-2.263-2.577 0 0 .104 3.89-2.526 3.84 0 0-1.946.657-2.471-2.072 0 0 .999 3.69-1.631 3.69 0 0-2.686.858-3-2.376 0 0 .106 4.143-1.579 4.042-1.683-.101-2.261-.405-2.209-1.213"/><path d="m357.325 460.556s1.313 3.891-.948 5.104"/><path d="m352.483 460.809s-1.474 4.397.631 5.66"/><path d="m347.59 462.275s.895 4.546 2.103 5.305"/><path d="m344.17 465.104s.053 2.224.527 2.527"/><path d="m362.111 457.27s-.894 2.376-2.421 2.476c-1.524.101-2.735.253-2.945-3.234"/><path d="m356.904 458.079s-2.949 3.285-4.421.505c0 0-.421-1.82-.21-2.224"/><path d="m352.64 458.988s-.788 1.617-2.42 1.113c0 0-1.786.099-1.735-2.528"/><path d="m348.748 459.292s-.108 2.93-3.104 1.768c0 0-1.053-.354-1.368-.758"/><path d="m344.223 458.382s.263 3.943-1.842 4.195c0 0-1.789.203-2.263-.859"/><path d="m341.75 456.107s.947 3.59-2.104 4.247c0 0-3.106.302-3.684-1.213"/><path d="m340.173 453.177s.682 3.891-1.529 4.194c0 0-1.893.152-2.261-1.314"/><path d="m340.382 455.654s1.999.858 3.578-.253c0 0 1.28-.579.783-4.185"/><path d="m344.907 454.137s1.315 1.415 3.367.455c0 0 1.997-1.313 1.736-3.233"/><path d="m350.167 452.47s1.264 1.314 2.737.96c0 0 1.788-.404 1.735-1.971 0 0-.222-1.569-.377-1.975"/><path d="m354.746 452.116s1.157.759 3.05.455c0 0 2-.151 2.316-1.971"/><path d="m355.956 452.571s-1.737 4.143 2.263 3.688c0 0 3.049-.554 2.892-2.374"/><path d="m358.219 456.259s2.05-3.132.102-3.789"/><path d="m355.64 455.35s-1.946 1.668-3.42 1.162c0 0-1.896-.911-1.789-3.588"/><path d="m351.009 455.754s-1.052 1.97-2.524 1.819c-1.473-.151-2.473-2.376-2.526-2.78"/><path d="m346.906 456.613s-.841 2.073-3.42 1.466c0 0-.999-.607-1.422-2.123"/><path d="m359.124 448.432s-.778 1.242-1.685 1.305c-.905.063-2.524-.063-2.977-1.181"/><path d="m354.529 446.878s.452 2.798-2.073 3.854c0 0-2.327 1.056-3.688-.622"/><path d="m348.638 447.934s1.488 2.426-2.005 3.295c0 0-4.015.735-3.944-3.347"/><path d="m343.467 450.604s-1.106 3.547-3.629 1.743"/><path d="m339.771 450.358s1.101 3.544-3.235 3.419"/><path d="m357.18 444.64s-.517 2.673-3.237 1.927c0 0-1.358-.869-1.55-1.989"/><path d="m346.796 445.005s.937 3.116 2.943 2.743c0 0 2.654-1.055 2.717-2.672"/><path d="m347.149 446.257s-.582 1.676-2.524 1.554c0 0-1.681.186-2.071-2.052"/><path d="m342.879 447.126c-.065.249-1.358 3.606-4.013 3.109 0 0-1.619-.437-2.072-1.803"/><path d="m342.081 442.518s1.531 3.624-1.855 4.174c0 0-2.785.496-3.626-1.368"/><path d="m346.761 443.273s.847 2.602-4.458 2.043"/><path d="m351.809 442.527s.258 3.419-5.371 2.051"/><path d="m356.079 442.962s-2.134 2.3-4.595.746"/><path d="m355.311 441.52s-3.006 2.836-4.425-.998"/><path d="m351.321 441.573s-3.279 2.94-5.248.682"/><path d="m346.291 439.262s1.203 3.257-2.131 3.414c0 0-2.584-.486-2.584-3.111"/><path d="m341.97 441.625s.329 2.049-2.895 1.996c0 0-2.079 0-2.627-1.313"/><path d="m340.079 416.78s1.614 3.785 3.219 1.442"/><path d="m343.939 420.257s-.77 4.069-4.556.308"/><path d="m341.95 422.291s-.77 3.945-3.467 2.158"/><path d="m342.977 422.23s2.504 2.899 2.888-.494"/><path d="m345.736 422.477s2.12 2.282 3.339 1.17"/><path d="m348.883 424.758s-2.569 2.097-2.312-1.418"/><path d="m346.7 425.066s-1.477 1.355-2.246.123"/><path d="m344.454 423.709s.53 1.83-1.411 1.883c-1.887.052-1.887-1.362-1.887-1.362"/><path d="m341.864 425.365s.086 2.291-1.84 2.229c0 0-1.413-.186-1.862-1.296"/><path d="m353.914 439.292s-2.021 2.836-3.518.389c0 0-2.55 3.07-3.845.311"/><path d="m353.269 438.281s-1.983 2.022-3.239.196c0 0-.283-.156-.12-1.322"/><path d="m349.83 438.165s-1.458 2.176-3.804.621c0 0-1.011-.97-.931-2.058"/><path d="m345.256 438.01s-.445 1.321-2.953 1.088c0 0-1.821-.389-2.267-2.138"/><path d="m341.697 438.981s-.77 3.653-5.34 1.671"/><path d="m339.389 434.27s2.395 5.038-2.914 3.204"/><path d="m337.841 429.814s2.243 1.137 1.759 3.204c0 0-.274 2.475-2.912 1.544"/><path d="m351.791 435.26s-.488 1.486-2.155 1.281c0 0-1.878-.32-1.758-2.534"/><path d="m348.029 435.493s-1.364 1.428-3.275.67c0 0-2.002-.788-1.091-3.174"/><path d="m343.42 435.057s-.302 2.301-3.455 1.165"/><path d="m339.63 433.338s4.458 1.369 4.033-2.505"/><path d="m346.785 431.211s-.484 2.767-3.304 1.281"/><path d="m346.392 432.377s1.729 3.203 4.245.496"/><path d="m349.937 430.716s-3.307 1.632-4.248-.725"/><path d="m346.159 427.86s.192 4.082-3.116 2.494"/><path d="m342.618 428.494s2.125 3.492-3.257 2.721"/><path d="m345.213 425.864s.617 1.586-1.225 1.678c0 0-1.464.137-1.464-1.814"/><path d="m348.993 426.453s-1.509 3.13-3.825.408"/><path d="m343.185 427.452s-.33 1.949-2.313.135"/><path d="m344.411 391.039s.049-.624.949-1.489c.901-.863.349-1.392.349-1.392"/></g><path d="m-11.572076 309.8737s15.7262156-20.81934 78.633632-19.87117c0 0 42.610634 1.89129 58.844424 15.85217l9.89456 2.60053 13.19364-40.93195.90376-4.72824 5.52606-3.08593 5.68398-14.13693-8.55061-3.23934-4.59641 8.20651-4.5291-.25905 1.38802-10.43482-8.31239-2.5125-6.76127 13.55093 1.93958 5.60849-.50239 2.12268-14.10773-3.07587 5.27227-4.0517 2.40567-17.16753-8.23468-1.51404-3.51142 10.65866-4.71552-1.11919.37031-10.69889-7.30765-1.29272-3.423377 10.17828-3.974928-.86265-1.015096-10.00726-9.249779-.77463-2.369409 12.11485 1.719461 3.41288-.274417 5.86503-11.834135-.43258-.09587-2.84701 3.420792-7.24325-1.665099-11.13148-8.32014-.94565-.372894 10.00224-4.161361-.0855-2.403059-10.00475h-7.771196l-2.126004 10.35182-2.866629.088-3.511385-9.92427-6.657678.54325.701755 13.03786 5.489826 4.70812.186241 3.3651-13.59241 1.46625.551554-9.91924-3.607198-11.90862-6.932177.86769-.370312 11.81556-3.055644.60361-1.571842-2.3264-2.7707885-9.40366-8.3227495 1.89633-1.66765391 12.33617-3.23430369.52061-4.9977975-10.95794-10.4487539 2.93 3.236913 15.18066 5.461312 2.50747.7354328 2.49993-13.3153558 4.13972-.644756-2.41441-.836437-7.67585-4.345239-11.47352-9.985185 3.88068-.279691 6.98672-6.196745-4.74332-6.103514 2.75897 3.146265 9.66523 7.768586 5.17339 2.09491 1.24494 4.378917 12.55749 8.972697 23.03507 4.622322 12.07713s7.652034-2.5276 8.957177-3.20917z" fill="#d31515"/><g fill="none" stroke="#2c2c2b" stroke-linecap="round" stroke-linejoin="round" stroke-width="1.09367" transform="matrix(2.5895275 0 0 2.51502 -713.59813 -652.11139)"><path d="m323.682 380.075c-6.039-3.396-15.114-5.559-25.263-5.559-10.151 0-19.224 2.163-25.265 5.559"/><path d="m331.196 371.233-.841 2.783"/><path d="m331.929 368.815-.733 2.418"/><path d="m330.355 374.016-.449 1.477"/><path d="m329.906 375.493-.931 3.08"/><path d="m331.929 368.815 1.312-4.325"/><path d="m328.975 378.573-.766 2.527"/><path d="m333.241 364.49.216-.713 2.134-1.227 2.195-5.621"/><path d="m337.786 356.929c-1.076-.448-2.177-.879-3.302-1.288"/><path d="m334.484 355.641-1.915 3.372-1.512-.182.585-4.168"/><path d="m331.642 354.663c-1.101-.355-2.216-.692-3.356-1.01"/><path d="m328.286 353.653-2.611 5.087.849 2.449-.294.926"/><path d="m320.545 360.823 2.334-1.621.931-6.671"/><path d="m323.81 352.531c-1.066-.241-2.146-.47-3.243-.678"/><path d="m320.567 351.853-1.397 4.106-1.762-.699.253-3.922"/><path d="m317.661 351.338c-1.027-.167-2.062-.323-3.112-.462"/><path d="m314.549 350.876-.982 3.885-1.764-.398-.209-3.839"/><path d="m311.594 350.524c-1.186-.128-2.383-.241-3.594-.333"/><path d="m308 350.191-1.025 4.921.546.966-.097 2.812"/><path d="m303.287 361.261-.278-3.7 1.324-2.811-.723-4.804"/><path d="m303.61 349.946c-1.042-.042-2.091-.07-3.145-.088"/><path d="m300.465 349.858-.382 3.985-1.593-.089-.551-3.915"/><path d="m297.939 349.839c-1.07.004-2.138.016-3.194.045"/><path d="m294.745 349.884-.894 3.867h-1.23l-1.09-3.729"/><path d="m291.531 350.022c-.899.049-1.787.113-2.675.179"/><path d="m288.856 350.201.271 5.184 1.983 1.995.85 5.534"/><path d="m286.122 359.249.036-1.779.231-2.358-1.348-4.561"/><path d="m285.041 350.551c-.925.101-1.84.214-2.751.335"/><path d="m282.29 350.886-.057 4.226-1.795.545-1.186-4.324"/><path d="m279.252 351.333c-1.16.188-2.301.393-3.433.614"/><path d="m275.819 351.947-.29 4.435-1.511.363-1.697-4.045"/><path d="m272.321 352.7c-1.46.341-2.892.706-4.29 1.106"/><path d="m268.031 353.806 1.36 6.022 1.809.792.268.117"/><path d="m260.99 365.602c9.944-4.488 22.893-7.13 37.429-7.13 10.216 0 19.651 1.307 27.811 3.643 2.455.702 4.799 1.492 7.011 2.375"/><path d="m262.582 369.922c9.12-4.655 21.628-7.438 35.837-7.438 13.039 0 24.642 2.347 33.51 6.331"/><path d="m263.52 372.462c8.397-5.234 20.705-8.435 34.899-8.435 13.043 0 24.488 2.708 32.777 7.206"/><path d="m264.533 375.218c7.817-5.193 19.859-8.415 33.886-8.415 12.906 0 24.133 2.73 31.936 7.213"/><path d="m329.906 375.493c-7.531-4.432-18.651-7.147-31.487-7.147-13.943 0-25.855 3.201-33.349 8.328"/><path d="m328.975 378.573c-6.993-4.368-17.971-7.142-30.556-7.142-13.643 0-25.4 3.258-32.232 8.274"/><path d="m262.582 369.922.938 2.54"/><path d="m260.99 365.602 1.592 4.32"/><path d="m263.52 372.462 1.013 2.756"/><path d="m260.99 365.602-.288-.784-3.682-2.267-1.266-4.144"/><path d="m255.754 358.407c.825-.396 1.668-.778 2.526-1.149"/><path d="m258.28 357.258 2.026 1.913.044-2.762"/><path d="m260.35 356.409c1.342-.53 2.71-1.041 4.124-1.511"/><path d="m264.474 354.898 1.498 4.681.584 3.789"/><path d="m265.07 376.674 1.117 3.031"/><path d="m264.533 375.218.537 1.456"/><path d="m257.03 362.054 8.942-2.475"/><path d="m259.969 364.11 6.299-1.87"/><path d="m269.234 357.703 17.233-2.938"/><path d="m285.962 357.752c-10.38 1.097-14.494 2.985-14.494 2.985"/><path d="m291.047 357.153s8.981-.58 11.962.408"/><path d="m289.364 354.209s11.873-.893 14.897 0"/><path d="m293.587 354.23.505 2.63"/><path d="m299.411 353.598.154 3.43"/><path d="m311.96 354.355-.08 2.931"/><path d="m317.631 355.373-.078 2.93"/><path d="m331.407 358.97-1.015 2.765"/><path d="m274.608 357.031.503 2.374"/><path d="m262.15 360.698.502 2.374"/><path d="m307.504 353.855s12.51 1.987 15.638 3.513"/><path d="m307.345 356.35s11.025 1.629 15.268 2.801"/><path d="m326.43 357.776s4.718.61 9.755 3.055"/><path d="m326.485 360.576s4.932 1.172 7.74 2.598"/><path d="m271.823 361.695-.511-1.202"/><path d="m266.454 363.605c.556.979 1.897 3.823 1.897 3.823"/><path d="m282.809 359.424c.356 1.061 1.119 4.097 1.119 4.097"/><path d="m276.091 360.65c.31 1.072.954 4.134.954 4.134"/><path d="m293.575 358.521c.159 1.081.372 4.139.372 4.139"/><path d="m300.786 358.487c.159 1.082.371 4.139.371 4.139"/><path d="m285.911 359.114c.353 1.059 1.117 4.095 1.117 4.095"/><path d="m300.884 360.991s7.776.508 8.907.712"/><path d="m310.355 359.089s-.707 2.716-.848 3.87"/><path d="m307.139 361.397-.07 1.494"/><path d="m271.386 373.322.933 2.958"/><path d="m280.434 370.454.936 2.957"/><path d="m290.379 368.866.08 3.088"/><path d="m300.549 368.416.079 3.09"/><path d="m311.118 369.334-.539 3.047"/><path d="m321.223 371.567-1.158 2.882"/><path d="m322.748 375.662-1.47 3.269"/><path d="m315.05 373.229-.813 3.474"/><path d="m276.479 374.839 1.46 3.052"/><path d="m275.36 367.4.433 2.67"/><path d="m269.638 369.415.839 2.578"/><path d="m287.247 372.302.361 3.342"/><path d="m296.293 371.555-.212 3.352"/><path d="m305.57 371.636-.214 3.353"/><path d="m271.471 366.229.895 1.934"/><path d="m286.795 364.726.335 2.9"/><path d="m292.164 364.26v2.543"/><path d="m288.995 362.791.149 1.72"/><path d="m303.908 364.152-.149 2.688"/><path d="m319.232 366.516-.784 2.47"/><path d="m324.452 368.342-1.12 2.401"/><path d="m325.048 366.265 1.192-4.225"/><path d="m320.833 360.823-.931 3.974"/><path d="m269.944 377.545 2.161 3.76"/></g><path d="m6.9352842 275.95866s-7.9990252-22.72321-2.3642174-25.0999c0 0 8.6852602-3.52606 11.5932852-1.4889 2.908052 2.03717 7.496724 24.04611 7.496724 24.04611s-13.27135 1.18457-16.7257918 2.54269z" fill="#2c2c2b"/><path d="m48.530875 270.64442s-4.081097-23.61352 1.887764-25.1326c0 0 9.17987-2.13022 11.715028.30935 2.527385 2.43957 3.345664 24.76037 3.345664 24.76037s-13.304999-.76959-16.948456.0629z" fill="#2c2c2b"/><path d="m87.653442 272.22888s2.81224-24.96912 8.988273-25.01187c0 0 8.693035-.30935 10.477235 2.65334 1.77641 2.96018-2.80965 25.18038-2.80965 25.18038s-12.908814-2.75897-16.655858-2.82185z" fill="#2c2c2b"/><path d="m-37.604563 266.97249s4.182073-4.07182 10.544539 3.56127l7.633933 15.60067s-8.724129 3.56126-9.45437 5.08537z" fill="#2c2c2b"/><path d="m149.45253 264.09028s-7.81001-1.18961-10.35291 5.08537c-2.54296 6.27497-6.00254 15.09515-6.00254 15.09515s6.36247 2.5452 8.36159 4.40631z" fill="#2c2c2b"/><path d="m-23.095452 306.01817-1.204139-3.16389" fill="none" stroke="#2c2c2b" stroke-width="2.169482"/><path d="m-93.494345 460.10842s-7.815205.54827-10.767255 0c-2.94429-.55079-10.91486-3.16893-12.83372-5.09292-1.91883-1.9265-10.46943-10.86991-11.06244-11.4207-.59042-.55079-3.68491-4.68045-4.4255-5.36957-.7406-.6866-1.77124-1.9265-1.77124-2.33897 0-.40995 2.01464-1.02613 3.36898-.99343 1.35431.0327 8.43408-.37977 10.20532.0327 1.76605.40995 4.27792.68409 5.75395 1.51153 1.47342.82493 5.30852 2.88976 5.30852 2.88976s-1.47602-5.63868-2.21665-6.46612c-.7354-.82492-2.80185-7.16026-2.94947-9.91169-.14257-2.74892 0-5.63868 0-5.63868s2.51186.54576 3.54248.96074c1.03064.41498 11.655472 7.29356 12.396068 8.121.73285.82493 4.567932 4.26799 5.010736 4.68045.440221.41247 2.211461 2.61562 2.211461 2.61562s-.442803-4.13217-.442803-5.09543c0-.96073 2.066424-5.22872 2.807048-6.88109.740596-1.65237 1.91364-4.26547 1.618429-5.22873-.289992-.96073-.14751-2.20064.593005-1.9265.738041.27413 5.166101 3.85301 6.049152 6.05365.888189 2.20567 3.542481 5.64371 3.542481 5.64371l.147509.41246s-10.479821 26.83526-16.086144 33.44222z" fill="#d31515"/><path d="m-86.582907 394.43873s-3.446641 1.09655-3.993058 1.46123c-.548971.36719-7.988696 3.43803-8.850982 3.72726-.862313.29174-10.725833 0-12.608413 0-1.8826 0-13.47333-.65894-14.48842-.72936-1.01507-.0754-3.91277.0704-3.91277.0704s1.9577-1.31032 3.52177-2.47981c1.57182-1.172 7.91099-9.20497 9.23684-9.8639 1.3336-.65894 6.81821-4.23781 8.62052-4.16488 1.79714.0729 4.30379-.6539 4.30379-.6539s-2.50665-1.53668-3.99045-1.75297c-1.49158-.22132-6.66287-2.92749-7.60026-3.72726-.93483-.80229-2.03538-2.77658-2.18816-3.57888-.15301-.8048-1.17305-1.53416-1.88258-1.75296-.70436-.22133-5.94814-3.28965-7.04351-3.58391-1.10058-.28922-4.46951-3.433-4.54722-4.09194-.0753-.6539-.0753-2.77155.94-3.13623 1.02029-.3697 6.65768-1.97177 7.43972-1.97177.78463 0 4.07333-.22384 6.34692-.0755 2.26844.14838 4.38408.73187 6.10871 1.31535 1.71685.58349 6.57741 1.75297 8.69303 2.41191 2.10791.65893 2.970191 1.09403 2.970191 1.09403s-2.346091-3.21168-2.897671-3.8681c-.54381-.65893-6.33917-8.62652-7.35943-10.66871-1.02287-2.04723-2.69311-5.27652-2.67759-6.51391.0192-1.22733-.22277-7.44194-.53342-8.02291-.31334-.58348-.94261-3.433-1.40612-4.605-.47129-1.16446-.16069-2.55526.38583-2.62568.54897-.0729 3.75998-.36719 4.62232-.14839.85971.21881 6.02839 1.02865 7.59765 2.92497 1.56668 1.89633 3.130744 4.01649 3.130744 4.01649s.157947-4.89926.318505-5.5582c.153003-.65642 1.877408-4.45158 2.113066-4.96465.233214-.50803.155201-3.79516-.396188-4.30823-.543807-.51306-2.346115-4.53458-2.268432-6.06622.07499-1.53417.191735-4.66034.292602-4.99986.09834-.33199.727658-4.27554.807951-4.71567.07527-.43761.481644-2.73131 1.64436-2.6458 1.173044.088 5.479414.088 5.950731.088.468679 0 4.933052 2.48484 5.324049 3.57887.391023 1.09907 1.564067 6.94146 1.877408 7.52243.315923.58851 4.699977 10.52536 4.699977 11.10633 0 .58348 2.268432 7.74626 2.348725 8.25681.08543.51054 1.331019 4.6729 1.331019 4.6729s.942605-3.57887 1.175653-4.82129c.238158-1.24494.787212-4.08942 1.331019-4.52955.546362-.43761 2.506673-3.06833 2.977962-3.87062.466097-.8048 1.644332-2.48232 1.804862-3.28713.150257-.80229 1.636614-2.48232 1.558931-4.53206-.07499-2.0422 0-2.69862.787212-3.94104.776856-1.24494.466097-2.70365 1.328409-4.67794.86234-1.97177 2.511865-4.89171 2.584356-5.32933.08021-.43761 2.195941-3.94606 2.66462-4.67793.471316-.72936 2.586938-3.14126 2.739721-3.433.157948-.29175 1.02026-.14336 1.095389.2188.08021.36719 3.288665 15.04988 3.288665 16.51111 0 1.45871-.934804 5.32933-1.015069 6.57175-.08021 1.24242-1.486385 6.50132-1.095361 7.30864.385832.8023 1.561486 4.74585 1.799726 5.32933.230466.58852 1.02026 6.35797.939995 7.74626-.08543 1.38578 1.486358 2.33646 1.877381 2.99539.391024.65642 4.933053 7.00936 2.506673 18.47785 0 0-4.151005 13.00266-4.46951 14.17466-.305595 1.16948.556745 2.77406.556745 3.21419 0 .43762.776856 10.44488.776856 11.24969 0 .8048-.310759 4.96716-.391024 5.26142-.07499.29174-1.253336 6.79307-1.253336 6.79307l-1.015096.58348s-3.912793-11.76275-4.308981-13.00265c-.393606-1.24494-1.486384-3.72726-1.408674-5.40478.07499-1.68255.862285-2.12016 1.333574-4.16487.471288-2.04471.939995-4.96717.624072-6.06372-.313314-1.09654-1.56665-7.66829-1.724598-8.32723-.157947-.65642-1.486412-6.13413-2.035383-7.452-.543808-1.31536-2.348698-5.18346-2.659429-5.40478-.318505-.21881-9.95159 32.0313-9.95159 32.0313l-14.405524 13.4805z" fill="#d31515"/><path d="m-101.91288 418.15286s7.149678-.27666 8.641227-.55582c1.491577-.27666 10.280423-2.77659 11.469015-3.19156 1.191173-.42001 3.728941-4.45159 4.469538-4.86657.738014-.41749-.302986 1.24997.89338 4.16991 1.188591 2.9149.147509 15.14042-8.636063 32.09417 0 0-17.132337 26.12351-21.298857 39.73731 0 0-10.28043 25.42434 1.4838 50.43621 0 0-.44802 3.33743-10.87085-2.49741 0 0 4.31931 7.9198 7.59765 11.67221 0 0 .74581 3.05575-3.87651 1.24996-4.61452-1.8083-5.21271-1.94662-5.95334-.69666-.74576 1.24997-2.08972 5.98072-1.78676 6.67235.29521.68911 1.33619 1.24745 2.23218 1.5241.8934.27917 5.95334 1.39081 5.95334 1.39081s1.04616 1.66745 1.04616 2.77658c0 1.11415-1.3414 4.03661-2.08716 4.86656-.74579.83247-5.21014 1.94411-5.21014 1.94411l.59301.97332 3.72375.97331.44796.83247-1.49155 2.08495s-8.64125 6.39067-9.08924 7.50231c-.44539 1.11163-.44539 6.67234-.44539 6.67234s1.49155-.55833 1.94213-.69666c.44541-.13832 3.12555 0 3.12555 0s4.32453-.13832 4.91753-.69414c.59301-.55834 1.48639-1.66746 2.08197-2.36412.59817-.69415 2.68275-3.33492 3.57613-3.61157.89341-.27917 2.25289-.76457 3.13594-.52061.88302.24144 3.12036.52061 4.16136.79726 1.04097.27917 5.362891 1.52913 5.958506 1.52913.598196 0 6.554091-1.94411 7.895466-2.3616 1.338793-.41749 8.936466-3.33743 9.677062-3.33743.745761 0 4.769914.83499 5.810913 1.11164 1.043554.27917 24.965639 4.47925 33.961658 4.58739 0 0 20.547881 1.73285 35.2978416-8.19645 0 0 8.7888466 8.46808 18.6186924 9.58223 0 0 9.236842-.55582 16.831933-3.89073 7.597673-3.33241 9.977438-2.08244 9.977438-2.08244s10.280423.69666 12.06721-1.94411c1.786761-2.64329 2.384957-4.44656-5.360335-8.19897-7.747848-3.75241-33.215843-10.83973-33.215843-10.83973l-5.065124-2.08244s-4.61713-11.95137-6.4039177-13.48051c-1.7867878-1.5241-12.3650042-5.83484-12.3650042-5.83484s-14.1491551-6.24983-15.4879481-6.66732c-1.338765-.41498-5.212716-3.33743-5.805721-3.75241-.598196-.41498-3.72114-3.61157-4.319336-3.89074-.598169-.27665-2.830342-1.25499-3.278337-1.52913-.445385-.27665-2.232173-3.33492-2.68275-4.02655-.447995-.69666-4.61452-11.39304-4.764721-32.51166l.445385-20.28615s.89338-6.52899.745788-8.19645c-.147509-1.66746-2.084581-13.89297-2.232173-14.86628-.147509-.97332-3.876533-22.51195-4.171717-23.48275-.297793-.97331-4.764749-20.00698-5.805721-22.23026-1.043581-2.22328-2.384984-8.19896-2.384984-8.19896s-.445385-2.35909-.150256-3.47073c.297793-1.11164 2.529966-6.94397 1.043581-11.66969-1.491576-4.72573-4.024125-13.06302-4.469537-14.17466-.447968-1.11415-1.336184-3.89073-2.081972-3.89073s-1.491576 1.94411-1.639168 2.77658c-.14751.83499-1.191174 12.78385-1.191174 12.78385s-1.491576-.9708-2.237365-1.11164c-.74576-.13833-4.171716-1.66495-4.171716-1.66495l-1.274049-.0805s1.126457 8.5561 1.126457 9.38857c0 .8375-.888216 3.89074-1.486413 4.58488-.598169.69667-1.786787 1.94663-1.639141 2.78162.14751.83498 1.191174 3.61157.295184 4.16738-.89338.55331-6.253688 2.63826-6.999476 2.63826-.745816 0-2.089773-.5533-2.83037-.97331-.745788-.4175-2.17262-2.27861-3.019385-2.5276-.851956-.24898-12.320971-.52564-12.763801-.52564-.45055 0-2.68791.14084-1.04875 1.66746 1.63917 1.52662 6.854471 4.58488 8.193264 4.72321 1.341375.14084 2.685359.69415 4.021543 1.24996 1.343957.55834 3.280918 2.22077 3.125553 3.61409-.14751 1.38829-1.486385 5.13818-1.486385 6.25234 0 1.11164-1.046164 4.1699-1.93438 5.27903-.89338 1.10912-3.278336 3.61156-3.726331 4.16738-.445386.55582-3.428539 5.5582-5.51051 6.949-2.084554 1.38829-3.130744 2.90988-2.835504 3.46822z" fill="#d31515"/><path d="m-18.108038 548.17184s-7.714169-2.13022-3.537261-7.83428c2.700852-3.69205 15.9384974-3.19156 11.383531 5.96814z" fill="#2c2c2b"/><g fill="none" stroke="#2c2c2b" stroke-linecap="round" stroke-linejoin="round" stroke-width="1.09367" transform="matrix(2.5895275 0 0 2.51502 -713.59813 -652.11139)"><path d="m239.311 442.282s-3.429.165-5.495-.401c-3.098-.846-5.493-3.581-6.661-4.958-1.007-1.184-2.5-3.36-3.333-3.919-.832-.559.416-.799 1.166-.799.749 0 3.788-.556 5.995.32.791.314 3.247 1.999 3.747 2.319.501.32 3.831 2.401 4.497 2.8.668.399 1.885 1.418 1.885 1.418"/><path d="m233.14 433.71s-1.855-4.557-1.891-5.965c-.039-1.409-.078-2.263-.194-2.558-.115-.295.81.111 1.311.334.502.222 2.857 1.223 4.282 2.556 1.429 1.334 3.281 3.076 4.092 4.521.809 1.446 1.464 3.223 1.657 3.594"/><path d="m240.083 431.227c-.039-.148-.272-1.889.308-3.038.578-1.149 1.274-2.482 1.389-2.817.116-.333-.617-1.704.424-.926 1.042.778 2.778 2.929 2.855 3.855.078.926.356 1.781.356 1.781"/><path d="m229.127 434.97s5.593 3.558 6.326 3.816c.734.26 1.853.63 2.083.667"/><path d="m234.914 438.528s-.463-.743-.774-1.965"/><path d="m231.749 436.711s-1.042.592-1.35.926"/><path d="m234.873 438.712s-1.157.482-1.349.89"/><path d="m239.119 436.007s-2.316-3.297-3.512-4.409c-1.195-1.112-1.736-2.112-2.006-2.854"/><path d="m235.995 431.745s-.27-1.481-.041-2.038"/><path d="m237.422 433.857s-1.352-.11-1.815-.036"/><path d="m242.59 433.599s0-1.482 0-2.594.194-2.372.194-3.187"/><path d="m242.397 430.042s-.77-.778-.848-1.26"/><path d="m242.668 431.969s.078-.52.578-.964"/><path d="m245.549 422.903s3.858 3.627-6.71 20.303c-10.569 16.677-4.027 28.762-4.027 28.762"/><path d="m261.235 463.912c-4.025-6.041-2.265-22.076-2.21-25.125.057-3.048-3.494-21.201-3.829-22.007-.335-.805-1.174-3.706-1.764-5.318-.584-1.612.674-2.336.674-4.754 0-2.416-2.181-7.25-2.434-8.216-.251-.967-.923-1.451-1.342 2.98-.419 4.432 0 3.062-.335 2.739-.335-.321-2.767-1.611-2.767-1.288 0 .321.251 2.255.333 3.947.086 1.693-.837 2.094-1.172 2.578s1.425 1.692-1.344 2.658c-2.767.968-2.097-.885-3.437-1.207-1.344-.322-4.531-.162-5.538-.162-1.005 0 1.258 1.935 2.853 2.337 1.593.403 1.509.162 2.769 1.129 1.256.966.165 1.932-.002 3.142-.167 1.207-.251 2.336-1.344 2.98-1.086.644-1.005 2.175-2.599 3.465-1.593 1.287-1.677 1.852-1.677 1.852 1.593.322 7.466-1.127 8.138-1.611.669-.482 1.341-1.854 2.348-2.578.911-.657 2.857.141 3.214.297.037.016.058.026.058.026s.306.26.741-.422c.439-.683.547-1.47.821-1.838"/><path d="m235.988 471.002s-.253.886-.672 1.369c-.42.483-1.176.484-2.097.162-.925-.324-2.601-1.209-2.601-1.209s.839 1.772 1.676 2.82c.84 1.047 2.351 2.416 1.177 2.577-1.177.162-3.104-2.174-3.693.162-.586 2.337-.502 2.416.254 2.578.753.161 2.262.563 2.599.725s.419 2.902-1.007 3.384c-1.425.483-3.44.241-3.187.322s3.104.564 3.608.967c.502.402-4.278 2.98-4.362 4.672-.084 1.693 0 2.579 0 2.579s.252-1.208 1.677-1.047 2.434-.081 2.685-.564c.249-.484.754-2.096 2.851-2.176 2.097-.081 2.851 1.207 4.866.724 2.014-.482 5.451-2.176 6.541-1.932 1.092.242 12.835 2.659 18.119 2.175 5.285-.484 9.061-2.66 9.647-2.901"/><path d="m279.605 478.251s-.502-4.914-3.187-6.042c-2.686-1.128-10.066-4.19-11.493-5.318-1.426-1.128-2.263-2.658-3.858-2.739-1.592-.081-5.369-1.933-5.871-3.545 0 0-.42 1.451-.167 2.579.249 1.128 1.676 3.142 1.593 3.867-.084.724-.168 1.691-.756 1.852-.588.162-2.097 0-2.011.806.083.806.502 6.367-.756 6.446-1.26.08-1.174.243-1.93-.322-.755-.564-1.678-1.129-2.601-1.129-.921 0-2.935-.563-3.605-.563-.671 0-1.343-.403-2.35.403-1.005.805-2.6.885-3.02.643-.419-.241-1.677-.563-2.179-2.657-.505-2.096-1.007-2.741-1.595-1.773"/><path d="m290.677 487.678s-3.522.968-4.362 1.371c-.837.402-3.269 1.127-5.115.725-1.846-.403-6.124-2.659-6.88-3.948-.753-1.29-1.509-3.223-.335-4.029 1.175-.806 2.6-1.449 3.188-2.094s1.93-1.451 1.93-1.451 13.085 4.108 14.511 4.753c1.427.646 3.439 1.692 3.606 2.338.17.645-.335 1.692-1.174 1.853-.837.161-4.109.483-6.459-.081-2.348-.564-6.457-2.417-9.394-.886"/><path d="m280.165 486.365s-.309.831.784.831c1.09 0 2.94-1.359 4.366-1.118"/><path d="m280.277 482.039s2.432 1.774 5.116 2.015c2.685.241 2.852.482 5.201.564 2.348.08 5.622.645 6.375 1.047"/><path d="m265.515 478.011s.669-.887 2.011-.887c1.344 0 2.6.082 3.439-.241.839-.322 1.846-1.288 2.181-1.853"/><path d="m258.635 464.798s1.007 2.175.421 3.303c-.588 1.128-.756 1.853-1.595 1.853s-1.593-.724-2.349.323c-.755 1.047-1.006 1.611-1.006 1.611"/><path d="m257.712 472.613c-.167 1.531.756 3.465 0 4.189-.755.725-3.522 1.936-5.118 2.982-1.592 1.047-1.927.966-2.683.966-.753 0-4.027-1.771-4.529-1.128-.505.644-1.258.726-1.341.081-.084-.645-1.093-4.675-1.428-5.157"/><path d="m251.925 480.348s.335-.243 2.181.241c1.846.483 2.432.805 3.773.967 1.344.162 3.188.324 3.86 1.29.67.965 1.007 1.852.756 2.739-.252.886-1.007 1.852-1.428 1.934"/><path d="m254.273 486.391s-.167.563 1.342.643c1.509.081 5.452-2.335 1.93-2.98 0 0-9.815-.726-11.242-.726-1.426 0-4.864-.482-5.115-2.497"/><path d="m243.787 483.57s0 1.29-.672 1.693c-.67.402-8.303 1.692-8.721 2.657"/><path d="m240.516 475.352s2.266.965-.587 1.289c-2.852.323-4.278-.08-3.608 1.128.672 1.21 3.525 3.142 2.939 4.109-.59.968-1.26 1.853-2.434 2.337-1.175.483 4.11.08 5.201.161 1.088.081 1.593.081 1.593.081"/><path d="m249.24 480.266s.671-.159.588-.885c-.084-.726-.588-3.303.251-3.142s1.006.078 1.09-.404"/><path d="m241.631 416.245s-3.184 1.302-3.927 1.757c-.748.456-3.049.325-4.877.261-1.829-.066-5.691-.326-6.504-.326-.812 0-2.707.066-2.236 0 .476-.065.813.91 3.049-1.821 2.236-2.732 4.539-4.489 5.961-4.684 1.423-.195 2.575-.391 2.575-.391s-4.133-1.365-4.811-2.016c-.676-.651-1.356-1.366-1.015-1.758.339-.388-6.163-2.146-5.283-4.487 0 0 2.573-2.147 7.788-.586 5.216 1.561 7.587 2.863 8.806 3.447 1.219.587 3.183 1.758 3.183 1.758"/><path d="m236.956 403.431s-4.739-6.116-4.807-8.199c-.069-2.081-.204-2.926-.406-3.836-.204-.911-.947-1.822-.339-2.148s2.912-.39 4.809 1.237c1.895 1.626 2.979 4.293 3.318 5.659.34 1.365 1.628 2.862 2.032 3.448.407.586 2.98 3.579 3.794 4.034"/><path d="m237.634 391.721s-.541-1.106 0-2.537c.542-1.432 1.356-1.497.476-3.188-.88-1.692-.95-2.473-.61-4.425.336-1.951.406-2.665.947-2.927.543-.259 4.131-.193 4.47 1.562.339 1.757 1.084 4.163 1.693 5.268.613 1.107 2.167 7.027 2.236 8.069.068 1.039 1.017 4.942 1.423 6.114"/><path d="m246.846 393.543s0-2.864.882-4.424c.881-1.562 2.165-2.928 2.234-4.359.068-1.431.881-2.407 1.083-3.708.204-1.301 1.219-2.928 1.693-3.578.475-.651 1.356-2.472 1.695-2.016.337.455 1.625 5.725 1.353 7.351-.269 1.626-.678 3.902-.813 4.488-.134.586 1.763 3.644.883 6.441-.883 2.795 1.421.65-.95 5.073 0 0 .067 1.822-.339 2.798"/><path d="m256.532 393.802c.339.716 1.76 3.188 1.625 5.009-.135 1.822-1.556 6.701-1.625 7.092-.068.39-1.897 3.641-1.897 3.641"/><path d="m256.125 407.399s.474 5.269.407 6.18c-.068.91-.948 4.293-.948 4.293"/><path d="m234.114 392.892s4.876 7.806 6.639 9.237c1.76 1.431 3.044 2.928 3.318 3.124"/><path d="m236.417 396.47s-.473-2.277-.135-3.383"/><path d="m237.906 398.941s-.474-.52-1.556-.52"/><path d="m240.481 382.093s1.76 11.125 4.605 16.068"/><path d="m241.835 388.208s.204-1.757 1.356-2.408"/><path d="m243.315 393.824s-.735-.997-1.954-1.194"/><path d="m251.047 394.713s-.202-7.285.339-8.651c.541-1.367 1.827-2.539 1.827-3.384"/><path d="m251.114 389.647s-.135-.658 1.558-1.114"/><path d="m251.114 392.673s.067-.562 1.219-1.018"/><path d="m239.668 409.349s-2.236.066-3.724-1.431c-1.491-1.496-1.898-2.406-3.523-2.992-1.625-.585-3.319-1.107-3.319-1.107"/><path d="m234.385 406.293s-2.121-.031-2.236 1.235"/><path d="m231.365 404.582s-.704-.633-.639-1.673"/><path d="m238.584 414.294s-6.57 1.039-7.519 1.365c-.948.325-2.167.846-2.167.846"/><path d="m237.636 414.228s.031-.58-2.272-.906"/><path d="m233.264 415.099s-1.658-.416-2.062-1.067"/><path d="m234.792 415.009s-.678.586-.746 1.236"/><path d="m253.264 410.098s-1.278 5.364-1.278 7.303c0 1.938-.335 1.293-.739 2.392"/><path d="m241.894 416.626s1.076.517 1.95.517 2.761-.777 3.5 1.422"/><path d="m233.415 467.812s4.711 1.874 4.981-2.392c0 0 3.97 2.391 4.574.259 0 0 1.616 3.555 3.029 1.745"/><path d="m246.066 467.166s1.413 3.296 3.835 1.292c0 0 .944-.969 1.009-1.616.069-.645-.065 1.099.674 1.358.741.258 1.95.775 2.354.775"/><path d="m237.857 467.554s1.076 1.873 2.222 1.808c1.143-.065 2.422-1.097 2.689-1.55.27-.453.472-1.228.472-1.228s-1.211 3.037.135 3.748c1.345.711 1.95.645 2.422.193.471-.451 1.413-2.003 1.413-2.003s-1.279 2.07-.202 2.845c1.076.774 2.154.711 2.556.322.405-.387 1.281-2.003 1.281-2.327 0-.323.065-1.486.065-1.486"/><path d="m251.045 469.751s.471.711.808 1.292.807 1.487.403 2.456c-.403.969-1.064 1.8-1.076 2.068"/><path d="m246.47 471.431s-.337 1.938 1.211 2.391c1.546.452 2.355.194 2.557-.388.202-.581.202-2.585.202-2.585"/><path d="m242.498 470.074s-1.211 3.425.07 3.813"/><path d="m245.527 470.978s.539 2.262-.604 2.974"/><path d="m237.185 470.849s2.961 2.908 4.709.905"/><path d="m237.924 468.005s-.674 3.039.607 3.749"/><path d="m238.396 465.42c-1.084 1.681-5.389-.72-5.389-.72"/><path d="m233.058 459.949s1.158 2.073 2.369 2.073c1.209 0 2.577-.96 2.524-2.274 0 0 .369 2.628 2.579 2.628 2.209 0 2.314-2.174 2.262-2.577 0 0-.106 3.89 2.527 3.84 0 0 1.946.657 2.472-2.072 0 0-1 3.69 1.63 3.69 0 0 2.684.858 3-2.376 0 0-.106 4.143 1.579 4.042 1.682-.101 2.262-.405 2.209-1.213"/><path d="m237.951 460.556s-1.313 3.891.947 5.104"/><path d="m242.792 460.809s1.473 4.397-.631 5.66"/><path d="m247.685 462.275s-.894 4.546-2.105 5.305"/><path d="m251.104 465.104s-.051 2.224-.525 2.527"/><path d="m233.164 457.27s.895 2.376 2.42 2.476c1.525.101 2.736.253 2.947-3.234"/><path d="m238.374 458.079s2.946 3.285 4.418.505c0 0 .421-1.82.211-2.224"/><path d="m242.633 458.988s.79 1.617 2.422 1.113c0 0 1.789.099 1.736-2.528"/><path d="m246.528 459.292s.106 2.93 3.106 1.768c0 0 1.051-.354 1.368-.758"/><path d="m251.053 458.382s-.262 3.943 1.842 4.195c0 0 1.789.203 2.263-.859"/><path d="m253.526 456.107s-.948 3.59 2.103 4.247c0 0 3.106.302 3.684-1.213"/><path d="m255.104 453.177s-.684 3.891 1.526 4.194c0 0 1.895.152 2.262-1.314"/><path d="m254.894 455.654s-2.001.858-3.58-.253c0 0-1.278-.579-.782-4.185"/><path d="m250.369 454.137s-1.315 1.415-3.368.455c0 0-1.999-1.313-1.736-3.233"/><path d="m245.108 452.47s-1.264 1.314-2.738.96c0 0-1.787-.404-1.734-1.971 0 0 .221-1.569.38-1.975"/><path d="m240.53 452.116s-1.158.759-3.051.455c0 0-2.001-.151-2.316-1.971"/><path d="m239.321 452.571s1.736 4.143-2.263 3.688c0 0-3.052-.554-2.895-2.374"/><path d="m237.058 456.259s-2.052-3.132-.106-3.789"/><path d="m239.635 455.35s1.947 1.668 3.419 1.162c0 0 1.895-.911 1.789-3.588"/><path d="m244.265 455.754s1.054 1.97 2.526 1.819 2.473-2.376 2.526-2.78"/><path d="m248.37 456.613s.841 2.073 3.418 1.466c0 0 1.001-.607 1.421-2.123"/><path d="m236.154 448.432s.776 1.242 1.682 1.305c.905.063 2.524-.063 2.976-1.181"/><path d="m240.748 446.878s-.455 2.798 2.069 3.854c0 0 2.332 1.056 3.69-.622"/><path d="m246.636 447.934s-1.487 2.426 2.007 3.295c0 0 4.013.735 3.943-3.347"/><path d="m251.806 450.604s1.109 3.547 3.631 1.743"/><path d="m255.503 450.358s-1.101 3.544 3.236 3.419"/><path d="m238.094 444.64s.518 2.673 3.236 1.927c0 0 1.361-.869 1.555-1.989"/><path d="m248.482 445.005s-.94 3.116-2.945 2.743c0 0-2.652-1.055-2.718-2.672"/><path d="m248.127 446.257s.581 1.676 2.521 1.554c0 0 1.683.186 2.071-2.052"/><path d="m252.397 447.126c.065.249 1.36 3.606 4.012 3.109 0 0 1.62-.437 2.071-1.803"/><path d="m253.195 442.518s-1.531 3.624 1.856 4.174c0 0 2.784.496 3.623-1.368"/><path d="m248.515 443.273s-.85 2.602 4.457 2.043"/><path d="m243.466 442.527s-.259 3.419 5.373 2.051"/><path d="m239.194 442.962s2.136 2.3 4.595.746"/><path d="m239.962 441.52s3.008 2.836 4.43-.998"/><path d="m243.952 441.573s3.282 2.94 5.251.682"/><path d="m248.984 439.262s-1.203 3.257 2.132 3.414c0 0 2.583-.486 2.583-3.111"/><path d="m253.303 441.625s-.329 2.049 2.898 1.996c0 0 2.077 0 2.624-1.313"/><path d="m255.196 416.78s-1.615 3.785-3.218 1.442"/><path d="m251.335 420.257s.77 4.069 4.558.308"/><path d="m253.326 422.291s.77 3.945 3.465 2.158"/><path d="m252.298 422.23s-2.503 2.899-2.889-.494"/><path d="m249.538 422.477s-2.12 2.282-3.337 1.17"/><path d="m246.393 424.758s2.567 2.097 2.312-1.418"/><path d="m248.576 425.066s1.474 1.355 2.246.123"/><path d="m250.822 423.709s-.531 1.83 1.409 1.883c1.889.052 1.891-1.362 1.891-1.362"/><path d="m253.413 425.365s-.087 2.291 1.838 2.229c0 0 1.412-.186 1.861-1.296"/><path d="m241.359 439.292s2.024 2.836 3.521.389c0 0 2.548 3.07 3.843.311"/><path d="m242.009 438.281s1.98 2.022 3.234.196c0 0 .284-.156.123-1.322"/><path d="m245.447 438.165s1.456 2.176 3.803.621c0 0 1.013-.97.929-2.058"/><path d="m250.018 438.01s.445 1.321 2.954 1.088c0 0 1.82-.389 2.265-2.138"/><path d="m253.579 438.981s.768 3.653 5.34 1.671"/><path d="m255.888 434.27s-2.397 5.038 2.911 3.204"/><path d="m257.434 429.814s-2.244 1.137-1.758 3.204c0 0 .272 2.475 2.91 1.544"/><path d="m243.487 435.26s.484 1.486 2.152 1.281c0 0 1.881-.32 1.759-2.534"/><path d="m247.246 435.493s1.365 1.428 3.274.67c0 0 2.001-.788 1.092-3.174"/><path d="m251.855 435.057s.303 2.301 3.456 1.165"/><path d="m255.643 433.338s-4.455 1.369-4.031-2.505"/><path d="m248.488 431.211s.486 2.767 3.306 1.281"/><path d="m248.882 432.377s-1.727 3.203-4.245.496"/><path d="m245.339 430.716s3.304 1.632 4.25-.725"/><path d="m249.115 427.86s-.188 4.082 3.116 2.494"/><path d="m252.656 428.494s-2.124 3.492 3.259 2.721"/><path d="m250.06 425.864s-.612 1.586 1.228 1.678c0 0 1.464.137 1.464-1.814"/><path d="m246.283 426.453s1.511 3.13 3.822.408"/><path d="m252.09 427.452s.331 1.949 2.316.135"/><path d="m250.865 391.039s-.051-.624-.952-1.489c-.898-.863-.349-1.392-.349-1.392"/></g><path d="m-11.667861 541.58501c0 .42755-.447995.77462-.999576.77462-.548971 0-.991775-.34707-.991775-.77462 0-.42504.442804-.77211.991775-.77211.551581 0 .999576.34707.999576.77211z" fill="#fff"/><path d="m-15.458937 541.89435c0 .53319-.554164.96326-1.237789.96326-.681071 0-1.232625-.43007-1.232625-.96326 0-.53066.551554-.96325 1.232625-.96325.683625 0 1.237789.43259 1.237789.96325z" fill="#fff"/><g transform="matrix(2.5895275 0 0 2.51502 -713.59813 -652.11139)"><path d="m326.7 477.246s2.977-.847 1.364-3.115c-1.044-1.468-6.155-1.269-4.397 2.373z" fill="#2c2c2b"/><g fill="#fff"><path d="m324.208 474.627c0 .17.174.308.386.308.213 0 .386-.138.386-.308 0-.169-.173-.307-.386-.307-.212 0-.386.138-.386.307z"/><path d="m325.673 474.75c0 .212.214.383.477.383.264 0 .478-.171.478-.383 0-.211-.214-.383-.478-.383-.263 0-.477.172-.477.383z"/></g></g><g stroke="#2c2c2b"><path d="m-42.845792 451.44669c0 51.52019 44.780724 93.26952 99.986854 93.26952 55.206098 0 99.984248-41.74933 99.984248-93.26952v-147.66185h-199.971102z" fill="#d31515" stroke-linejoin="round" stroke-width="2.791048"/><g fill="#fff" stroke-linejoin="round" stroke-width="1.09367" transform="matrix(2.5895275 0 0 2.51502 -713.59813 -652.11139)"><path d="m293.067 464.501v3.514l3.963-1.902v-3.514z"/><path d="m293.067 460.987v3.514l3.963-1.902v-3.514z"/><path d="m293.067 457.472v3.515l3.963-1.902v-3.514z"/><path d="m303.567 464.501v3.514l-3.966-1.902v-3.514z"/><path d="m303.567 460.987v3.514l-3.966-1.902v-3.514z"/><path d="m303.567 457.472v3.515l-3.966-1.902v-3.514z"/><path d="m302.834 392.54-4.517-7.077-4.519 7.077h3.232v73.469h2.571v-73.469z"/><path d="m265.817 449.874-2.587 2.485 4.202 1.349 2.588-2.484z"/><path d="m268.404 447.389-2.587 2.485 4.203 1.35 2.589-2.485z"/><path d="m270.992 444.906-2.588 2.483 4.205 1.35 2.587-2.486z"/><path d="m273.242 457.007-2.585 2.485-1.407-4.04 2.587-2.482z"/><path d="m275.829 454.521-2.587 2.486-1.405-4.037 2.588-2.486z"/><path d="m278.417 452.036-2.588 2.485-1.404-4.037 2.587-2.485z"/><path d="m325.701 405.626 2.016-8.075-8.403 1.938 2.287 2.195-54.091 51.951 1.818 1.746 54.088-51.952z"/><path d="m291.97 449.441c1.262.231 2.557.384 3.874.458-2.677-3.085-9.48-12.226-9.48-25.512 0-12.914 6.417-21.899 9.237-25.226-1.317.085-2.608.249-3.87.492-3.324 4.466-8.26 13.053-8.26 24.734 0 11.963 5.177 20.685 8.499 25.054z"/><path d="m300.878 449.794c1.37-.14 2.713-.364 4.018-.672 3.329-4.465 8.265-13.052 8.265-24.735 0-11.409-4.705-19.854-8.022-24.404-1.302-.319-2.642-.555-4.008-.705 2.869 3.424 9.136 12.349 9.136 25.109 0 13.148-6.655 22.228-9.389 25.407z"/><path d="m277.865 442.686c1.017.894 2.112 1.718 3.268 2.468h33.1c1.157-.75 2.252-1.574 3.267-2.468z"/><path d="m272.323 435.862h50.721c.448-.8.852-1.623 1.203-2.467h-53.127c.351.844.756 1.667 1.203 2.467z"/><path d="m321.78 411.147h-48.193c-.549.794-1.056 1.617-1.505 2.467h51.203c-.451-.85-.955-1.673-1.505-2.467z"/><path d="m314.886 404.323c-1.362-.936-2.822-1.762-4.362-2.468h-25.683c-1.538.706-2.998 1.532-4.36 2.468z"/><path d="m318.625 441.646c-12.462-11.836-31.08-29.524-38.803-36.858-1.722 1.258-3.276 2.695-4.632 4.278 7.55 7.173 25.898 24.601 38.412 36.491 1.842-1.126 3.526-2.439 5.023-3.911z"/><path d="m322.313 456.581 2.6 2.471 1.378-4.047-2.597-2.471z"/><path d="m319.71 454.109 2.603 2.472 1.381-4.047-2.604-2.472z"/><path d="m317.108 451.637 2.602 2.472 1.38-4.047-2.599-2.469z"/><path d="m329.693 449.409 2.604 2.471-4.197 1.37-2.601-2.469z"/><path d="m327.094 446.938 2.599 2.471-4.194 1.372-2.602-2.471z"/><path d="m324.492 444.468 2.602 2.47-4.197 1.372-2.601-2.472z"/><path d="m275.911 399.306-8.415-1.892 2.06 8.064 2.275-2.208 54.387 51.662 1.805-1.754-54.385-51.664z"/><path d="m297.684 396.616c-17.048 0-30.915 12.519-30.915 27.905 0 15.388 13.867 27.907 30.915 27.907 17.047 0 30.915-12.519 30.915-27.907 0-15.386-13.868-27.905-30.915-27.905zm0 53.343c-15.63 0-28.344-11.41-28.344-25.438 0-14.026 12.714-25.437 28.344-25.437 15.628 0 28.344 11.411 28.344 25.437 0 14.028-12.716 25.438-28.344 25.438z"/><path d="m269.344 424.739h56.678c.002-.072.006-.145.006-.218 0-.759-.043-1.509-.117-2.251h-56.455c-.073.742-.116 1.492-.116 2.251 0 .073.004.146.004.218z"/></g><path d="m55.522605 401.47324c-6.331399-1.06385-20.545326 1.45368-18.155178 23.51544 5.702108 1.74291 11.37062-.45773 20.175014 3.13623s15.62002 9.41624 18.724861 7.41176c2.70088-1.74039.142565-6.09137-1.136784-8.99874-1.289596-2.90988 2.258049-16.39541-3.739297-24.9666-5.430245-7.76135-25.139135-13.5132-29.507668-2.71874-.479063 1.19212-.849347 3.28965-.142565 4.59997.735405 1.37572 4.542001-5.07531 13.781452-1.97932z" fill="#fff" stroke-linejoin="round" stroke-width="2.791048"/><path d="m62.988206 413.32653c0 3.02054-2.737139 5.46766-6.121644 5.46766-3.374149 0-6.119062-2.44712-6.119062-5.46766 0-3.02305 2.744913-5.47017 6.119062-5.47017 3.384505 0 6.121644 2.44712 6.121644 5.47017z" fill="#fff" stroke-width="1.824855"/><g fill="#fff" stroke-width=".237692" transform="matrix(2.5895275 0 0 2.51502 -713.59813 -652.11139)"><path d="m296.61 423.63c0 .487.412.886.921.886.508 0 .922-.399.922-.886 0-.49-.414-.887-.922-.887-.509 0-.921.397-.921.887z"/><path d="m297.175 423.582c-.6-.231-1.286-1.241-1.286-1.241l-.188-.071c-.329.372-.533.842-.533 1.36 0 1.155.982 2.09 2.22 2.159 0-.044.284-.106.271-.159-.229-1.174.119-1.818-.484-2.048z"/></g><g fill="none" stroke-linecap="round" stroke-linejoin="round" stroke-width="1.09367" transform="matrix(2.5895275 0 0 2.51502 -713.59813 -652.11139)"><path d="m355.965 442.282s3.429.165 5.495-.401c3.098-.846 5.493-3.581 6.663-4.958 1.005-1.184 2.498-3.36 3.329-3.919.835-.559-.415-.799-1.164-.799-.75 0-3.79-.556-5.996.32-.792.314-3.246 1.999-3.747 2.319-.5.32-3.833 2.401-4.499 2.8-.663.399-1.884 1.418-1.884 1.418"/><path d="m362.136 433.71s1.852-4.557 1.891-5.965c.039-1.409.075-2.263.194-2.558.114-.295-.813.111-1.313.334-.503.222-2.855 1.223-4.282 2.556-1.428 1.334-3.278 3.076-4.089 4.521-.81 1.446-1.466 3.223-1.66 3.594"/><path d="m355.193 431.227c.037-.148.269-1.889-.309-3.038-.58-1.149-1.274-2.482-1.39-2.817-.114-.333.618-1.704-.425-.926-1.039.778-2.777 2.929-2.853 3.855-.077.926-.355 1.781-.355 1.781"/><path d="m366.149 434.97s-5.594 3.558-6.327 3.816c-.735.26-1.852.63-2.085.667"/><path d="m360.363 438.528s.462-.743.77-1.965"/><path d="m363.525 436.711s1.041.592 1.352.926"/><path d="m360.4 438.712s1.158.482 1.35.89"/><path d="m356.157 436.007s2.315-3.297 3.51-4.409c1.197-1.112 1.736-2.112 2.005-2.854"/><path d="m359.283 431.745s.268-1.481.037-2.038"/><path d="m357.856 433.857s1.35-.11 1.811-.036"/><path d="m352.685 433.599s0-1.482 0-2.594-.194-2.372-.194-3.187"/><path d="m352.877 430.042s.772-.778.85-1.26"/><path d="m352.607 431.969s-.075-.52-.577-.964"/></g></g></g></svg>