<svg height="218.36" viewBox="0 0 200 218.358" width="200" xmlns="http://www.w3.org/2000/svg"><path clip-rule="evenodd" d="m162.75 4.154c-19.69 22.964-40.61 27.479-62.75 13.546-22.138 13.933-43.055 9.418-62.75-13.545l-21.609 17.37c3.796 10.081 12.063 22.313 1.113 55.907-6.229 19.109-29.18 56.963 3.326 89.412 19.006 18.98 51.15 37.44 79.92 48.32 28.77-10.874 60.913-29.339 79.921-48.313 32.506-32.448 9.555-70.302 3.325-89.412-10.949-33.594-2.683-45.826 1.113-55.907l-21.6-17.377z" fill="#008837" fill-rule="evenodd"/><path d="m163.1 8.282c-9.699 10.693-19.759 17.166-30.179 19.415-10.741 2.319-21.717.156-32.926-6.487-2.718 1.611-5.423 2.958-8.115 4.041-3.255 1.309-6.49 2.233-9.705 2.772-15.839 2.658-30.934-3.923-45.278-19.74l-17.654 14.192c.19.462.388.938.589 1.421 4.176 10.025 9.832 23.604-.226 54.463l-.002.002h.001c-.921 2.825-2.244 6.151-3.702 9.818-7.89 19.835-20.004 50.292 6.29 76.541h.012l.001.002-.006.006c2.58 2.574 5.434 5.161 8.517 7.738 3.069 2.564 6.358 5.11 9.819 7.614 17.535 12.68 39.285 24.13 59.465 31.87 3.652-1.4 7.345-2.916 11.042-4.534 4.053-1.772 8.146-3.684 12.232-5.711 20.876-10.358 41.084-23.558 54.534-36.984 26.294-26.248 14.18-56.705 6.29-76.541-1.459-3.668-2.783-6.995-3.704-9.821-10.058-30.86-4.401-44.438-.226-54.464.201-.483.399-.959.589-1.421l-17.65-14.201zm-31.44 13.548c9.806-2.117 19.412-8.658 28.816-19.624l1.89-2.206 2.263 1.819 21.608 17.371 1.692 1.36-.765 2.031c-.464 1.233-.949 2.396-1.456 3.614-3.814 9.157-8.981 21.559.391 50.31.923 2.834 2.179 5.989 3.563 9.469 8.464 21.28 21.462 53.957-7.628 82.995-13.92 13.894-34.7 27.489-56.106 38.111-4.136 2.051-8.314 4-12.491 5.828-4.176 1.827-8.317 3.52-12.377 5.054h-.015l-1.054.396-1.047-.396c-20.951-7.919-43.672-19.817-61.929-33.023-3.558-2.574-6.956-5.204-10.148-7.873-3.176-2.654-6.157-5.359-8.898-8.096h-.012l-.001-.001.005-.006c-29.082-29.036-16.086-61.71-7.622-82.989 1.383-3.478 2.638-6.633 3.562-9.466l.003-.002h-.002c9.371-28.75 4.205-41.153.391-50.31-.507-1.218-.992-2.381-1.457-3.614l-.765-2.031 1.692-1.36 21.609-17.37 2.277-1.818 1.892 2.206c13.443 15.672 27.333 22.307 41.668 19.902 2.793-.468 5.613-1.275 8.46-2.42 2.872-1.155 5.772-2.652 8.701-4.492l-.002-.004.005-.003 1.605-1.051 1.634 1.028c10.37 6.528 20.39 8.75 30.06 6.664z" fill="#008837"/><path d="m162.97 6.637c-9.758 11.003-19.857 17.633-30.298 19.887-10.629 2.294-21.52.057-32.671-6.711-2.87 1.742-5.726 3.184-8.563 4.325-3.173 1.276-6.326 2.177-9.455 2.702-15.69 2.632-30.674-4.104-44.952-20.203l-19.234 15.463c.291.725.604 1.479.928 2.256 4.104 9.851 9.662 23.195-.259 53.632l-.002.002.001.001c-.921 2.825-2.231 6.118-3.674 9.747-8.005 20.125-20.296 51.026 6.558 77.832h.007l.001.001-.003.004c2.613 2.608 5.493 5.219 8.594 7.811 3.093 2.586 6.404 5.148 9.884 7.666 17.741 12.832 39.776 24.407 60.17 32.183 3.804-1.45 7.656-3.029 11.521-4.72 4.078-1.784 8.188-3.703 12.283-5.735 20.983-10.411 41.306-23.688 54.85-37.209 26.853-26.806 14.563-57.707 6.558-77.832-1.444-3.63-2.754-6.923-3.675-9.75-9.921-30.438-4.363-43.781-.26-53.632.323-.777.638-1.532.928-2.256l-19.24-15.463zm-31.06 16.366c10.067-2.173 19.893-8.846 29.475-20.018l1.135-1.323 1.357 1.091 21.609 17.371 1.015.816-.459 1.219c-.449 1.194-.935 2.358-1.442 3.576-3.887 9.331-9.15 21.968.357 51.141.924 2.833 2.192 6.023 3.591 9.54 8.351 20.991 21.171 53.224-7.359 81.704-13.826 13.801-34.492 27.316-55.792 37.885-4.127 2.048-8.289 3.989-12.439 5.807-4.151 1.816-8.274 3.499-12.32 5.029h-.01l-.633.238-.628-.238c-20.856-7.882-43.474-19.729-61.648-32.873-3.539-2.56-6.915-5.173-10.082-7.82-3.159-2.642-6.115-5.322-8.823-8.025h-.007l-.002-.002.003-.004c-28.526-28.479-15.706-60.709-7.356-81.7 1.398-3.516 2.666-6.704 3.59-9.537l.002-.002h-.001c9.508-29.172 4.244-41.81.357-51.14-.508-1.219-.993-2.383-1.442-3.577l-.459-1.219 1.016-.816 21.609-17.37 1.357-1.092 1.135 1.324c13.737 16.017 27.996 22.785 42.776 20.306 2.876-.482 5.78-1.313 8.709-2.491 2.943-1.184 5.914-2.718 8.911-4.602l-.002-.002.005-.003.964-.631.979.617c10.65 6.698 20.97 8.973 30.95 6.818z" fill="#fff"/><path clip-rule="evenodd" d="m100 44.513c34.797 0 63.015 28.219 63.015 63.016 0 34.796-28.218 63.016-63.015 63.016s-63.016-28.22-63.016-63.016c.001-34.798 28.22-63.017 63.016-63.017z" fill="#bb2820" fill-rule="evenodd"/><path d="m100 45.861.001.007c17.03 0 32.446 6.902 43.603 18.058 11.155 11.155 18.056 26.571 18.057 43.6h.007v.004h-.007c-.001 17.03-6.901 32.446-18.059 43.603-11.154 11.155-26.57 18.056-43.6 18.056v.009h-.002v-.009c-17.03 0-32.446-6.9-43.602-18.057-11.155-11.155-18.056-26.571-18.056-43.6h-.007v-.003h.007c0-17.03 6.901-32.446 18.057-43.602 11.155-11.155 26.571-18.056 43.6-18.057v-.007h.003v-.003zm0 3.598v.007h-.003v-.007c-16.024 0-30.54 6.503-41.051 17.015s-17.015 25.028-17.015 41.053h.007v.003h-.007c0 16.025 6.503 30.54 17.015 41.051 10.512 10.513 25.028 17.015 41.053 17.015v-.007h.003v.007c16.024 0 30.54-6.502 41.051-17.015 10.513-10.511 17.017-25.026 17.017-41.053h-.008v-.004h.008c-.001-16.024-6.504-30.54-17.016-41.051-10.51-10.516-25.02-17.02-41.05-17.02z" fill="#ff0"/><g fill="#fff"><path d="m96.417 65.354v37.419h6.83c1.775 0 2.957-.81 3.552-2.431.797-2.145 1.235-5.911 1.33-11.321h.845v32.962h-.845c-.212-4.601-.431-7.556-.643-8.867-.273-1.62-.727-2.906-1.353-3.836s-1.589-1.406-2.887-1.406h-6.83v31.223c0 4.194.063 6.744.18 7.649.125.906.336 1.62.642 2.169.305.524.892.786 1.745.786h5.272c1.753 0 3.035-.357 3.825-1.12.798-.738 1.557-2.192 2.292-4.385.947-2.884 1.917-7.245 2.911-13.062h.915l-2.676 23.739h-23.97v-2.56h1.103c.728 0 1.424-.549 2.081-1.621.493-.739.821-1.859 1.001-3.337.173-1.501.258-4.552.258-9.151v-61.515c0-6.006-.195-9.7-.594-11.106-.548-1.859-1.463-2.789-2.746-2.789h-1.103v-2.598h23.953l.345 20.735h-.9c-.321-4.981-.673-8.389-1.063-10.248-.392-1.859-.962-3.289-1.729-4.266-.609-.691-1.689-1.049-3.23-1.049h-8.523z"/><path d="m136.18 76.605.662 20.099h-.662c-.88-6.015-2.139-10.348-3.767-12.998-1.637-2.65-3.593-3.975-5.884-3.975-1.92 0-3.65.998-5.199 2.993s-2.764 5.166-3.65 9.528c-.888 4.362-1.332 9.796-1.332 16.273 0 5.345.415 9.99 1.259 13.921.836 3.915 2.094 6.923 3.781 9.022 1.68 2.1 3.601 3.141 5.76 3.141 1.876 0 3.526-.818 4.967-2.471 1.433-1.639 3.011-4.898 4.728-9.782l.661.864c-1.446 5.271-3.142 9.126-5.068 11.567-1.935 2.441-4.226 3.663-6.887 3.663-4.785 0-8.494-3.633-11.119-10.913-1.956-5.405-2.938-11.776-2.938-19.102 0-5.896.647-11.331 1.935-16.273 1.294-4.943 3.076-8.769 5.338-11.494 2.269-2.709 4.741-4.064 7.425-4.064 2.088 0 4.152 1.042 6.182 3.126.597.64 1.025.968 1.279.968.379 0 .713-.283.997-.833.37-.774.633-1.876.793-3.261h.746l.004.006z"/><path d="m83.311 106.92c2.073.864 3.62 2.263 4.648 4.184 1.419 2.68 2.133 5.941 2.133 9.812 0 2.934-.473 5.747-1.412 8.442-.938 2.694-2.223 4.645-3.86 5.88s-4.13 1.861-7.487 1.861h-14.081v-1.607h1.119c1.247 0 2.141-.79 2.681-2.367.338-1.014.511-3.171.511-6.492v-38.201c0-3.663-.21-5.971-.639-6.923-.57-1.28-1.427-1.92-2.553-1.92h-1.119v-1.623h12.887c2.411 0 4.341.357 5.79 1.057 2.2 1.042 3.882 2.888 5.039 5.554 1.156 2.665 1.734 5.717 1.734 9.186 0 2.963-.45 5.613-1.359 7.965-.908 2.33-2.252 4.06-4.032 5.2zm-11.528-2.36c.548.208 1.164.357 1.863.461.698.104 1.464.149 2.298.149 2.141 0 3.755-.447 4.829-1.37 1.081-.908 1.907-2.322 2.478-4.213.571-1.876.856-3.945.856-6.193 0-3.454-.713-6.402-2.133-8.844-1.427-2.442-3.499-3.663-6.226-3.663-1.472 0-2.786.313-3.965.953v22.718zm0 28.27c1.705.789 3.387 1.177 5.039 1.177 2.659 0 4.679-1.19 6.076-3.559 1.389-2.367 2.087-5.3 2.087-8.784 0-2.292-.315-4.511-.946-6.625-.63-2.129-1.659-3.797-3.079-5.018s-3.184-1.831-5.279-1.831c-.909 0-1.689.029-2.336.074-.646.06-1.164.164-1.562.313v24.261-.001z"/><path d="m84.162 179.91v12.62c0 .647.061 1.142.183 1.485.126.342.34.58.648.712.309.133.736.203 1.282.203v.739h-7.296v-.739c.58 0 1.029-.063 1.346-.183.316-.125.545-.359.687-.709.142-.353.214-.854.214-1.509v-8.137c0-.647-.061-1.09-.179-1.332-.122-.246-.329-.366-.625-.366-.397 0-.877.172-1.441.514l-.336-.638 4.882-2.661h.635v.01z"/><path d="m89.268 196.11v-.692c1.198-.095 2.312-.456 3.337-1.088 1.022-.631 1.861-1.405 2.513-2.32.652-.916 1.076-1.848 1.278-2.789-.893.544-1.831.821-2.814.821-.633 0-1.24-.121-1.823-.363-.58-.236-1.083-.576-1.514-1.008-.427-.433-.763-.943-1.003-1.527-.244-.588-.366-1.2-.366-1.838 0-.951.24-1.844.721-2.677.48-.834 1.122-1.492 1.922-1.978.801-.488 1.663-.733 2.59-.733.972 0 1.899.245 2.769.735.873.492 1.567 1.197 2.089 2.119.522.92.782 2.02.782 3.296 0 1.573-.305 3-.922 4.273-.614 1.277-1.43 2.337-2.445 3.187-1.018.85-2.144 1.492-3.379 1.928-1.24.44-2.483.66-3.735.66zm7.274-8.38c.061-.584.091-1.28.091-2.088 0-1.857-.248-3.154-.744-3.898-.496-.741-1.113-1.11-1.85-1.11-.709 0-1.259.296-1.647.888-.393.597-.587 1.418-.587 2.478 0 1.207.187 2.283.561 3.225.37.939 1.003 1.407 1.899 1.407.348 0 .733-.081 1.156-.246.418-.16.792-.38 1.121-.65z"/><path d="m111.24 179.91v.697c-.931.074-1.805.315-2.616.717-.813.404-1.533.903-2.167 1.503-.633.597-1.151 1.243-1.552 1.944-.404.7-.672 1.386-.805 2.052.454-.287.919-.498 1.396-.63.478-.133.95-.199 1.419-.199.664 0 1.278.118 1.846.351.564.238 1.064.569 1.495 1.001.432.43.767.939 1.007 1.523.236.584.358 1.203.358 1.858 0 .946-.24 1.835-.713 2.669-.473.829-1.11 1.491-1.91 1.978-.797.487-1.667.729-2.598.729-1.057 0-2.015-.261-2.876-.778-.861-.522-1.537-1.262-2.032-2.218-.496-.954-.744-2.032-.744-3.232 0-1.469.289-2.816.87-4.048.583-1.227 1.376-2.286 2.379-3.17 1.008-.889 2.141-1.565 3.398-2.037 1.24-.46 2.52-.7 3.83-.7zm-7.26 8.39c-.062.884-.092 1.582-.092 2.092 0 .935.08 1.772.236 2.516.156.741.424 1.341.809 1.797.385.455.896.685 1.537.685.701 0 1.247-.292 1.645-.872.393-.584.591-1.411.591-2.485 0-.841-.084-1.621-.252-2.334-.168-.709-.431-1.27-.793-1.683-.362-.408-.824-.614-1.393-.614-.21 0-.454.034-.743.109-.286.068-.562.174-.824.312-.29.12-.53.28-.74.46z"/><path d="m112.7 188.02c0-.902.126-1.838.386-2.796.256-.958.622-1.839 1.099-2.641.477-.804 1.057-1.446 1.739-1.932.683-.488 1.431-.733 2.25-.733.725 0 1.411.214 2.067.639.656.428 1.243 1.017 1.762 1.776.516.755.916 1.621 1.194 2.595s.419 2.006.419 3.092c0 1.431-.248 2.77-.743 4.012-.496 1.244-1.163 2.237-2.007 2.974-.839.739-1.738 1.105-2.692 1.105-.797 0-1.529-.233-2.2-.705-.672-.471-1.251-1.106-1.744-1.9-.491-.795-.869-1.671-1.133-2.63-.28-.98-.41-1.93-.41-2.87zm3.25 0c0 4.916.744 7.374 2.224 7.374 1.468 0 2.201-2.458 2.201-7.374 0-2.48-.177-4.332-.534-5.551-.358-1.223-.911-1.83-1.667-1.83-1.47-.01-2.22 2.46-2.22 7.38z"/></g></svg>