<svg height="300" viewBox="0 0 211.073 300" width="211.07" xmlns="http://www.w3.org/2000/svg"><g fill="#0e491f"><path d="m105.54 0c63.711 0 105.54 67.171 105.54 150 0 82.828-41.826 150-105.54 150s-105.54-67.17-105.54-150c0-82.829 41.825-150 105.54-150z" fill="#45a828"/><path d="m105.54 295.56c50.785 0 95.094-65.185 95.094-145.56s-44.31-145.56-95.09-145.56c-50.789 0-95.097 65.184-95.097 145.56s44.308 145.56 95.097 145.56z" fill="#fff"/><path d="m84.284 103.63c-2.006.007-3.498.733-4.603 2.225-1.096 1.494-1.666 3.632-1.665 6.45-.001 2.806.57 4.946 1.662 6.432 1.095 1.486 2.592 2.213 4.605 2.22 2.011-.006 3.498-.729 4.585-2.211 1.084-1.485 1.65-3.626 1.649-6.44.001-2.826-.565-4.969-1.652-6.454-1.095-1.5-2.578-2.22-4.581-2.23zm1.554 11.93c-.245.72-.809 1.191-1.52 1.191h-.034c-.732.015-1.316-.462-1.565-1.202-.262-.712-.382-1.558-.381-3.365-.001-1.808.119-2.656.381-3.372.249-.744.834-1.222 1.566-1.207.727-.015 1.305.458 1.554 1.196.254.708.375 1.559.375 3.383-.002 1.83-.122 2.68-.376 3.38z"/><path d="m138.87 120.61h4.29v-12.9h3.34v-3.74h-10.98v3.74h3.35z"/><path d="m96.896 114.85h1.322c1.771-.001 3.109-.476 4.09-1.399.976-.925 1.467-2.172 1.471-3.831-.002-1.977-.518-3.372-1.503-4.267-.987-.897-2.555-1.38-4.744-1.38h-4.907v16.639h4.272v-5.761zm0-7.09v-.322h.322c.607.002 1.2.098 1.68.379.482.274.829.787.835 1.45v.019l-.001.015v.005c.009.658-.367 1.152-.854 1.4-.485.256-1.074.342-1.654.354l-.328.005v-3.297z"/><path d="m111.35 103.63c-2.007.007-3.499.733-4.604 2.225-1.096 1.494-1.665 3.632-1.665 6.45 0 2.806.57 4.946 1.662 6.432 1.095 1.486 2.591 2.213 4.606 2.22 2.011-.006 3.497-.729 4.585-2.211 1.084-1.485 1.65-3.626 1.649-6.44.001-2.826-.565-4.969-1.652-6.454-1.1-1.5-2.58-2.22-4.59-2.23zm1.56 11.93c-.246.719-.81 1.19-1.52 1.19h-.034c-.731.015-1.317-.462-1.565-1.202-.263-.712-.383-1.558-.383-3.365s.12-2.656.381-3.371c.25-.745.836-1.223 1.567-1.208.726-.015 1.305.458 1.554 1.196.254.708.373 1.56.373 3.383s-.13 2.68-.38 3.38z"/><path d="m129.78 103.97h4.271v16.639h-4.271z"/><path d="m128.47 116.97h-4.48v-13h-4.3v16.64h8.78z"/><path d="m33.25 117.39 3.903-5.38.405 8.6h3.828l-1.207-16.64h-3.652l-3.224 5.51-3.306-5.51h-3.653l-1.207 16.64h3.818l.416-8.49z"/><path d="m51.466 116.79h-4.601v-3.02h4.226v-3.4h-4.226v-2.85h4.601v-3.55h-8.896v16.64h8.896z"/><path d="m56.205 120.61h4.283v-12.9h3.348v-3.74h-10.979v3.74h3.348z"/><path d="m163.73 113.88 3.26 6.73h4.31v-16.64h-3.82v6.88l-3.24-6.88h-4.36v16.64h3.85z"/><path d="m69.592 115.74 2.728 4.867h4.518l-3.413-7.5.301-.131c.947-.411 1.637-.946 2.089-1.602.451-.651.683-1.444.684-2.402-.005-1.571-.514-2.754-1.539-3.652-1.031-.89-2.449-1.351-4.311-1.352h-5.33v16.639l4.271-.001v-4.875zm0-8.07v-.322h.322c.563.001 1.111.134 1.537.455.429.319.707.844.703 1.493.008 1.31-1.113 1.952-2.231 1.953l-.33.008v-3.58z"/><path d="m149.64 103.97-3.71 16.639h4.116l.373-2.546h3.461l.375 2.546h4.104l-3.703-16.639h-5.02zm1.7 10.58h-.398l1.195-5.699 1.263 5.699h-2.065z"/><path d="m184.28 105.85c-1.097-1.487-2.58-2.213-4.582-2.22-2.006.007-3.498.733-4.602 2.225-1.097 1.494-1.666 3.632-1.666 6.45 0 2.806.57 4.946 1.661 6.432 1.095 1.486 2.591 2.213 4.606 2.22 2.012-.006 3.499-.729 4.587-2.211 1.083-1.485 1.649-3.626 1.649-6.44 0-2.83-.57-4.98-1.66-6.46zm-3.02 9.71c-.246.72-.81 1.191-1.52 1.191h-.035c-.73.015-1.317-.462-1.565-1.202-.263-.712-.382-1.558-.382-3.365s.119-2.656.381-3.371c.249-.746.836-1.223 1.566-1.208.727-.015 1.307.458 1.555 1.196.254.708.373 1.56.373 3.383s-.12 2.68-.37 3.38z"/><path d="m107.78 145.24c-24.987-11.689-55.65-10.023-85.592-4.613-.119 3.1-.188 6.22-.188 9.37 0 1.225.01 2.445.028 3.662 28.197-9.63 58.038-12.64 85.752-8.42z" fill="#f00"/><path d="m95.852 154.53c31.151-9.03 58.998-8.99 93.206-2.705.006-.609.016-1.217.016-1.828 0-4.104-.113-8.164-.32-12.179-34.16-2.35-65.5-1.05-92.908 16.72z" fill="#f00"/><path d="m82.734 150.83c-5.019 0-10.045.224-15.069.662v124.85c7.848 6.99 16.359 11.909 25.248 14.328v-139.52c-3.371-.2-6.767-.32-10.179-.32z"/><path d="m92.912 81.99v-72.665c-8.888 2.418-17.399 7.338-25.248 14.328v58.337z"/><path d="m23.985 160.87-1.704.588c1.643 33.86 10.488 64.384 23.715 87.427v-94.138c-7.38 1.57-14.727 3.61-22.011 6.12z"/><path d="m45.996 51.117c-5.275 9.19-9.855 19.566-13.558 30.873h13.558z"/><path d="m143.41 81.99v-58.338c-7.849-6.99-16.36-11.909-25.248-14.328v72.666z"/><path d="m118.16 157.05v133.62c8.888-2.419 17.399-7.338 25.248-14.328v-121.48c-8.61.097-16.92.807-25.25 2.187z"/><path d="m178.64 81.99c-3.703-11.308-8.284-21.684-13.56-30.874v30.874h13.556z"/><path d="m165.08 155.89v92.996c13.498-23.515 22.429-54.819 23.805-89.51l-1.097-.202c-8.03-1.48-15.56-2.58-22.7-3.29z"/></g></svg>