<svg fill="#fff" height="300" viewBox="0 0 196.13613 240" width="245.17" xmlns="http://www.w3.org/2000/svg"><path d="m52.891 0 4.3207 13.317 14.193.13377-11.33 8.22 4.2605 13.537-11.323-8.2267-11.558 8.2267 4.3341-13.31-11.404-8.4474 13.999.007 4.508-13.457z" fill="#b48c3e"/><path d="m143.24 0 4.3207 13.317 14.184.13377-11.327 8.22 4.2572 13.537-11.321-8.2267-11.558 8.2267 4.3341-13.31-11.404-8.4474 13.999.007 4.5147-13.457z" fill="#888d90"/><path d="m98.071 240c54.146 0 98.065-43.916 98.065-98.065 0-54.156-43.917-98.072-98.065-98.072-54.156 0-98.072 43.916-98.072 98.072 0 54.149 43.916 98.065 98.072 98.065z" fill="#006c51"/><path d="m98.011 52.524c-49.267 0-89.35 40.084-89.35 89.35 0 49.26 40.084 89.337 89.35 89.337 49.26 0 89.337-40.077 89.337-89.337 0-49.267-40.078-89.35-89.337-89.35zm0 182.61c-51.434 0-93.27-41.836-93.27-93.263 0-51.434 41.836-93.27 93.27-93.27 51.427 0 93.263 41.843 93.263 93.27s-41.835 93.263-93.263 93.263z"/><path d="m24.732 151.53-2.3142.32104-.83605-5.9794 5.4711-.76248c.64209.50163 1.2574 1.2775 1.8393 2.3209.58189 1.0434.94975 2.1269 1.1103 3.2572.20065 1.438.0736 2.7289-.38124 3.886-.45481 1.1504-1.2039 2.0734-2.2473 2.769-1.0501.6889-2.2339 1.1303-3.5515 1.3176-1.4246.19397-2.7422.0736-3.9395-.36786-1.1905-.44812-2.167-1.2039-2.9228-2.2808-.58189-.81598-.95644-1.8794-1.1437-3.1904-.23409-1.7056-.0669-3.09.51501-4.1468.58189-1.0568 1.4848-1.8126 2.7088-2.2607l.89624 2.682c-.64208.28761-1.1236.72235-1.4447 1.3109-.31436.58858-.41468 1.2842-.30098 2.0868.16721 1.2106.68222 2.1202 1.5517 2.7289.86949.60864 2.06.80261 3.5716.59527 1.632-.22741 2.8024-.76248 3.5181-1.5985.71566-.84274.98989-1.846.82268-3.0232-.0803-.57521-.27423-1.1437-.58189-1.6989-.31436-.54845-.65547-1.0166-1.0434-1.3912l-1.739.24747.44144 3.177z"/><path d="m15.108 142.07.1739-2.7958 7.4977.4615c1.1905.0736 1.9597.087 2.3209.0401.5752-.087 1.0434-.34111 1.4179-.76917.36786-.43474.5752-1.0367.62871-1.8192.0468-.78923-.0803-1.3979-.38124-1.8192-.30098-.42806-.68222-.68891-1.1504-.80261-.4615-.1137-1.244-.20065-2.3409-.26753l-7.6582-.46819.1739-2.7958 7.2703.44812c1.6587.10033 2.8292.24747 3.5047.44144.67553.19396 1.2374.50831 1.6922.94306.44143.43475.78923.99657 1.0233 1.6988.24079.6956.32773 1.5918.26085 2.6887-.087 1.3176-.30098 2.3142-.64209 2.9763-.34779.66215-.78254 1.1772-1.2909 1.545-.51501.36786-1.0434.59526-1.5852.6889-.80261.13377-1.9798.15383-3.5315.0602l-7.384-.45482z"/><path d="m26.538 121.07-5.4644.54176 4.508 3.1168.95644-3.6586zm6.6148-3.5984-.76917 2.9496-3.3576.37455-1.4046 5.3641 2.7623 1.8995-.75579 2.876-12.046-8.7417.74911-2.8626 14.822-1.8594z"/><path d="m27.608 110.67.90294-1.8594c.58858-1.2106.90962-1.9864.94975-2.3409.0468-.3478-.0134-.66884-.18728-.96313-.16052-.28761-.43474-.52839-.80929-.70898-.42137-.20734-.8093-.25415-1.1772-.16052-.36786.10033-.6889.34111-.94975.71566-.12708.18728-.44143.79593-.93637 1.8126l-.95644 1.9664 3.1636 1.5383zm5.9794 6.0196-12.481-6.0664 2.575-5.2972c.64877-1.331 1.2307-2.2473 1.7524-2.7422.51501-.49495 1.1504-.78923 1.8995-.8695.74911-.0869 1.4915.0535 2.2339.408.92969.45481 1.5718 1.1036 1.9129 1.953.34111.84942.32774 1.8594-.0468 3.0298.58189-.39462 1.1504-.66884 1.7055-.84274.54845-.16721 1.4581-.32104 2.7222-.44812l3.1703-.34112-1.4648 3.0098-3.5984.50163c-1.2842.18058-2.1068.32104-2.4747.44143-.36786.1137-.66884.28091-.88955.50163-.22072.22072-.47488.62202-.75579 1.2039l-.24747.50832 5.2103 2.5282-1.224 2.5215z"/><path d="m39.668 95.597-5.2571-1.5785 2.9763 4.5949 2.2808-3.0165zm7.491-.80931-1.8393 2.4346-3.2439-.93638-3.3375 4.4277 1.8192 2.8091-1.7858 2.3744-7.8121-12.675 1.7858-2.361 14.414 3.9261z"/><path d="m47.868 94.22-9.2567-10.334 2.0333-1.8192 10.407 3.1168-6.1801-6.9024 1.9396-1.739 9.2501 10.334-2.0935 1.8794-10.2-3.0098 6.0329 6.7352-1.933 1.739z"/><path d="m58.148 85.592-7.7853-11.477 2.3209-1.5718 7.7853 11.477z"/><path d="m66.836 80.214-5.4109-12.768 8.7551-3.7188.90962 2.167-6.1734 2.6152 1.2842 3.0232 5.3307-2.2607.91631 2.1604-5.3307 2.2607 2.3008 5.4243-2.5817 1.0969z"/><path d="m74.173 62.389 2.7356-.60864 1.6387 7.3305c.26085 1.1638.46151 1.9129.60865 2.2406.24078.52838.61533.90962 1.1303 1.1437.51501.24078 1.1571.27422 1.9196.10032.77585-.1739 1.3243-.4615 1.6454-.86949.32773-.4013.47488-.84274.45481-1.3243-.0267-.48157-.16052-1.2574-.39461-2.3276l-1.6788-7.4843 2.7356-.61533 1.5852 7.1098c.36786 1.6253.54845 2.7891.55514 3.4914 0 .70897-.14715 1.331-.44144 1.8861-.2876.54844-.74241 1.0367-1.3444 1.4581-.60196.42136-1.438.75578-2.5082.98988-1.2976.29429-2.3075.36118-3.0432.21403-.73572-.14715-1.3511-.42137-1.846-.8093-.49494-.38793-.85612-.82936-1.0969-1.331-.35448-.73572-.70228-1.8594-1.0367-3.371l-1.6186-7.2235z"/><path d="m93.482 73.164-.46819-11.517-4.1134.16721-.0937-2.341 11.016-.45481.0936 2.3476-4.1067.16721.47488 11.517-2.8024.11371z"/><path d="m101.64 72.97 1.7925-13.751 10.2 1.331-.30098 2.3209-7.4241-.96313-.39461 3.0499 6.9024.89624-.30098 2.3209-6.9024-.90294-.48825 3.7455 7.685 1.0033-.30767 2.3142-10.461-1.3644z"/><path d="m120.12 64.617-1.0033 3.0432 1.7457.5752c1.0367.34111 1.6855.53507 1.9463.58858.47487.10033.88287.0602 1.2307-.1137.34781-.18059.58859-.47488.72904-.90293.13377-.408.13377-.77586-.0134-1.1036-.14046-.32773-.42138-.59527-.84944-.79592-.25415-.1137-1.0032-.37455-2.254-.78923l-1.5316-.50164zm-1.7189 5.237-1.1638 3.5248 2.4613.80929c.96313.31436 1.5785.48825 1.8527.5217.42137.0535.79592-.0134 1.1437-.20734.33441-.20066.58189-.52839.73572-.99658.13377-.4013.14714-.76247.0468-1.1036-.10033-.34111-.31436-.62871-.6354-.87618s-1.0835-.56851-2.2941-.96313l-2.147-.70898zm-.22072-8.307 5.2705 1.7323c1.0367.3411 1.8059.64208 2.2874.89624.48157.25416.88287.58858 1.1972.99658.31436.40799.52839.88955.64878 1.4313.12039.54845.0803 1.1103-.10033 1.6788-.20734.61533-.56182 1.1303-1.0634 1.5316-.50163.408-1.0768.64879-1.7323.71567.72904.50163 1.2106 1.1036 1.4581 1.8059.24747.70228.24747 1.438-.007 2.2005-.19397.59527-.52839 1.137-.98989 1.6052-.46818.47488-.99657.80261-1.5918.98319-.58858.18059-1.2507.19397-1.9865.0401-.46149-.10032-1.5383-.42137-3.2372-.96313l-4.4879-1.4781 4.3341-13.176z"/><path d="m131.93 74.174c-.78254 1.3644-1.0568 2.5817-.82936 3.6452.22072 1.0634.82268 1.8728 1.7858 2.4279.96982.55514 1.9664.66215 2.9897.32104 1.0166-.3411 1.9263-1.2106 2.7289-2.6085.78923-1.3778 1.0768-2.575.8628-3.605-.21403-1.0233-.82267-1.8259-1.8259-2.3944-1.0033-.57521-2.0065-.6956-3.0098-.36118s-1.9062 1.1972-2.7021 2.575zm-2.5483-1.351c.70229-1.224 1.4781-2.147 2.3209-2.769.62202-.45481 1.3109-.78923 2.0667-1.01.74911-.21403 1.4781-.27423 2.1737-.18728.92968.11371 1.8861.44813 2.8693 1.01 1.7724 1.0166 2.8693 2.3811 3.3041 4.0933.43475 1.7055.087 3.5448-1.0367 5.4979-1.1103 1.9463-2.5082 3.1636-4.1936 3.6519-1.6855.49494-3.4111.22741-5.1835-.78254-1.7858-1.0233-2.8961-2.3878-3.3241-4.0866-.42806-1.6989-.0936-3.5047 1.0033-5.4176z"/><path d="m138.87 86.595 8.9424-10.454 2.1269 1.8192-7.4174 8.6816 5.2905 4.5214-1.5183 1.7791z"/><path d="m159.81 101.84.8628 2.7155c-1.4768.53507-2.7951.61533-3.9528.24747-1.1591-.36786-2.1677-1.1571-3.0265-2.3744-1.0621-1.5049-1.422-3.1034-1.0775-4.7956.34379-1.6989 1.4072-3.1703 3.1904-4.4277 1.8855-1.3377 3.6933-1.8794 5.4243-1.6453 1.731.24078 3.1569 1.1504 4.2779 2.7356.97784 1.3845 1.3638 2.8024 1.1558 4.2471-.12106.85611-.54309 1.7323-1.2681 2.6352l-2.1403-1.8861c.49294-.54845.75914-1.1571.79927-1.8192.0395-.66884-.15517-1.3042-.5839-1.9129-.59326-.83605-1.3758-1.3042-2.3476-1.4046-.97249-.0936-2.1336.33441-3.4833 1.2842-1.4327 1.01-2.2707 1.9865-2.5148 2.9362-.24413.94306-.0749 1.8259.50698 2.6486.4294.60864.99189.99657 1.6875 1.1638.69559.16052 1.5256.0468 2.4901-.3478z"/><path d="m158.04 108.73 12.476-5.7988 1.1798 2.5416-10.356 4.809 2.9349 6.3139-2.1196.98988-4.1147-8.8554z"/><path d="m176.08 115.4.70428 2.7088-7.2703 1.8861c-1.1544.30098-1.8935.52838-2.2179.6889-.51902.25417-.88888.64879-1.1076 1.1705-.21937.52169-.23074 1.1638-.0341 1.9196.19999.76916.50765 1.3109.92367 1.6186.41535.30767.86281.44144 1.3417.40131.47822-.0401 1.2487-.19397 2.3108-.47488l7.4268-1.9263.70362 2.7088-7.0509 1.8326c-1.6119.42137-2.769.64208-3.4726.66884-.70362.0267-1.335-.10033-1.8955-.37455-.55982-.27423-1.0614-.70228-1.5042-1.2909-.44277-.59527-.80261-1.418-1.0782-2.4814-.33308-1.2775-.43809-2.2941-.31368-3.0298.12373-.74242.37254-1.3644.74509-1.8728.37321-.50832.80327-.88956 1.2909-1.1437.72301-.38124 1.836-.76248 3.3375-1.1504l7.1606-1.8594z"/><path d="m177.52 134.01-3.2011.18727.10836 1.8326c.0649 1.0902.12039 1.7657.16787 2.0266.0856.47488.27289.84274.5625 1.0969.29028.26085.65948.37455 1.1063.34779.42806-.0267.7685-.16052 1.0227-.41468.25349-.25416.39461-.61533.42404-1.0835.014-.28091-.0174-1.0768-.095-2.3878l-.0957-1.6052zm-5.5059.32104-3.702.22072.15383 2.5884c.0595 1.01.12574 1.6454.19865 1.9129.10032.40799.30499.73573.61265.9832.30834.24078.70831.35448 1.1992.32104.41601-.0268.7618-.14715 1.04-.36786.27757-.21403.47087-.5217.58056-.90962.10969-.38793.12707-1.2173.0508-2.4881l-.13377-2.2607zm7.6442-3.2572.32907 5.5313c.0649 1.0969.0682 1.9196.009 2.4613-.0595.54845-.22139 1.0367-.48558 1.4781-.26419.44144-.62871.82268-1.0936 1.1304-.46551.31435-.99657.48825-1.5945.52169-.64877.0401-1.2541-.10032-1.8166-.41468-.56249-.32104-.9959-.76917-1.3022-1.3511-.1953.85612-.57654 1.5316-1.1404 2.0199-.56517.48826-1.2481.75579-2.0473.80261-.62938.0401-1.2507-.0736-1.8627-.32773-.61266-.26085-1.1116-.62871-1.4975-1.117-.38659-.48157-.64142-1.0969-.76783-1.8326-.0782-.46819-.17657-1.5852-.29429-3.3643l-.28024-4.7153 13.845-.82267z"/><path d="m166.35 145.27 13.761 1.7457-1.2915 10.2-2.3276-.29429.93972-7.4241-3.0512-.38793-.87351 6.9091-2.3182-.29429.87351-6.9024-3.7448-.47487-.97249 7.685-2.3182-.29429 1.3236-10.467z"/><path d="m34.163 186.19.73572 2.7556c-1.4982.4615-2.8225.48157-3.9595.0669-1.1437-.42137-2.1135-1.2574-2.9161-2.5148-.98988-1.5517-1.2775-3.1636-.85612-4.8424.42137-1.6788 1.5517-3.1034 3.391-4.2806 1.9463-1.244 3.779-1.7056 5.4979-1.3912 1.7122.32104 3.0967 1.2976 4.1468 2.9295.90962 1.4313 1.2307 2.8626.95644 4.294-.16053.85611-.62202 1.7122-1.3845 2.575l-2.0534-1.9798c.51502-.52169.80931-1.117.88288-1.7791.0736-.66216-.0936-1.3109-.49494-1.9396-.55515-.8628-1.3176-1.3711-2.2808-1.5116-.96982-.14046-2.147.23409-3.5382 1.1236-1.4781.94306-2.361 1.8861-2.6486 2.8158-.2876.92969-.16053 1.8259.38123 2.6754.40131.62871.94976 1.0367 1.632 1.2374.68891.19397 1.525.11371 2.5082-.23409z"/><path d="m42.885 195.97 2.4279-4.9294-5.0297 2.1737 2.6018 2.7556zm-.44812 7.5178-2.0935-2.2206 1.4581-3.0432-3.8057-4.0264-3.0767 1.331-2.04-2.1604 13.791-5.5982 2.0333 2.1537-6.267 13.564z"/><path d="m44.891 205.57 7.9391-11.377 3.4378 2.4011-3.3509 9.1966 7.4576-6.3339 3.4445 2.4078-7.9391 11.37-2.1336-1.4848 6.247-8.9558-8.5076 7.3773-2.2072-1.545 3.9997-10.521-6.2537 8.9558-2.1336-1.4915z"/><path d="m67.063 205.86-1.5718 3.6117 1.4046.60864c1.01.44812 1.7122.67553 2.1135.68891.39462.0201.75579-.0736 1.0768-.27423.31436-.19396.55514-.48156.72235-.8628.20065-.4615.22741-.89625.087-1.3176-.14046-.42136-.4013-.75578-.78254-1.0166-.28092-.19396-.88287-.48826-1.8059-.88956l-1.244-.54845zm-7.1833 9.444 5.5581-12.715 4.1201 1.7992c1.5584.68222 2.5483 1.1905 2.9696 1.525.64208.51501 1.0701 1.1906 1.2842 2.0467.20734.85611.0936 1.7858-.34781 2.7958-.3411.78254-.76916 1.3778-1.2842 1.7858-.515.40799-1.0568.66884-1.6253.77585-.56851.1137-1.1036.12039-1.5985.0201-.66216-.14046-1.5785-.46819-2.7356-.97651l-1.6788-.73573-2.0935 4.7956-2.5683-1.117z"/><path d="m72.842 220.47 3.8325-13.33 2.6887.76916-3.8258 13.33-2.6954-.76917z"/><path d="m79.049 222.34 2.2339-13.691 2.6887.43475 4.1134 10.059 1.4915-9.143 2.5617.41468-2.2272 13.691-2.7757-.44813-4.0599-9.8253-1.4581 8.9223-2.5683-.41468z"/><path d="m101.7 218.73-2.06-5.0899-1.7256 5.1969 3.7856-.10701zm5.3106 5.3373-3.0499.087-1.2976-3.1168-5.5447.16053-1.0568 3.1837-2.9696.0803 5.0096-14.019 2.9563-.0803 5.9527 13.705z"/><path d="m108.4 219.27 2.6085-.82936c.35448.85611.82267 1.4447 1.4046 1.759.5752.31435 1.2842.38123 2.1135.20734.88287-.19397 1.5116-.5217 1.8794-.98989.36786-.46818.49494-.95644.38793-1.4514-.0669-.32104-.22072-.5752-.4615-.76247-.2341-.1806-.60196-.30768-1.1103-.37456-.34111-.0401-1.117-.0803-2.3142-.12039-1.5517-.0535-2.6754-.27423-3.3843-.68222-.98989-.56851-1.5985-1.3845-1.8326-2.4613-.14715-.6889-.087-1.3778.1739-2.06.26084-.68891.72903-1.2641 1.3979-1.739.66884-.47488 1.525-.82268 2.5683-1.0434 1.7055-.36786 3.0633-.26754 4.0866.29429 1.0166.56182 1.6855 1.4581 1.9931 2.6954l-2.7155.70898c-.26085-.66885-.62202-1.117-1.0702-1.3444-.45481-.22072-1.0635-.24747-1.8326-.0803-.79592.16721-1.3845.46819-1.7657.88956-.24747.27423-.33442.58189-.25416.93638.0669.32104.26085.56851.58189.73572.408.21403 1.3109.33442 2.7088.36786 1.4046.0268 2.4546.14046 3.1703.34111.70897.20065 1.3042.54845 1.7925 1.0568.48156.50163.82268 1.1838 1.0033 2.0466.16721.77586.10701 1.545-.18059 2.3209-.28761.76916-.78924 1.4046-1.5049 1.9062-.72234.49494-1.6721.87619-2.8492 1.1237-1.7122.36786-3.1168.25416-4.2003-.34111-1.0902-.59527-1.8861-1.632-2.3944-3.1101z"/><path d="m145.41 209.17-2.2139 1.4714-5.5514-8.3404c-.30098 1.2976-.88287 2.4881-1.739 3.5783l-1.3377-2.0065c.44812-.5752.84273-1.351 1.1705-2.3276.32104-.9765.38123-1.9062.16052-2.7757l1.7992-1.1972 7.7117 11.598z"/><path d="m148.13 195.34c-.5752-.6354-1.1638-.99657-1.7724-1.0902-.60864-.087-1.1103.0468-1.4915.38793-.36787.32773-.54177.7491-.5217 1.2507.0134.50831.32105 1.0902.90962 1.7457.59527.66884 1.1705 1.0367 1.7122 1.117.54176.0736 1.01-.0669 1.4046-.42137.38124-.34111.56851-.77586.55513-1.3109-.007-.53508-.27422-1.0969-.79592-1.6788zm-.59526 8.3471 1.7256-1.933c.39462.34781.77586.52839 1.143.54177.36586.007.71165-.13377 1.0347-.42806.40866-.36118.58724-.86281.53574-1.4982-.0508-.62871-.56851-1.5718-1.5504-2.8292.0207 1.0233-.34044 1.8728-1.0895 2.5416-.8093.72903-1.7925 1.0501-2.9429.94975-1.1504-.10033-2.1804-.64878-3.0834-1.652-.93637-1.0501-1.3845-2.167-1.3377-3.371.0468-1.1972.54844-2.2272 1.5116-3.09 1.0501-.94307 2.2674-1.3109 3.6652-1.1036 1.3979.20734 2.9295 1.2374 4.5969 3.09 1.6955 1.8861 2.5677 3.5649 2.6185 5.023.0515 1.4648-.4829 2.7021-1.6052 3.7054-.80662.72904-1.6527 1.0969-2.5349 1.117-.88154.0201-1.7778-.33442-2.6874-1.0634z"/><path d="m162.79 192.68-1.6975 2.0466-7.7084-6.4008c.0776 1.331-.13778 2.6419-.64476 3.9328l-1.856-1.545c.26888-.67553.41937-1.5316.4508-2.5616.0328-1.03-.17992-1.933-.63673-2.7088l1.3778-1.6587 10.715 8.8956z"/><path d="m168.91 183.74-1.4153 2.2473-8.4836-5.324c.25216 1.3042.21136 2.6285-.12173 3.9796l-2.0426-1.2842c.17725-.70897.21336-1.5785.11036-2.6018-.105-1.03-.43341-1.8928-.98854-2.6018l1.1484-1.8259 11.793 7.4108z"/><path d="m55.352 141.96c0-17.597 10.614-32.746 25.784-39.415v-8.4809c-19.604 7.0897-33.656 25.884-33.656 47.896 0 22.018 14.052 40.813 33.656 47.896v-51.842h-3.4245v-.0602h-12.186v7.8722h7.7385v31.041c-10.842-7.8188-17.912-20.547-17.912-34.907z"/><path d="m98.398 98.921c4.8625 0 9.531.81598 13.885 2.3142v-8.2468c-4.4144-1.2507-9.0695-1.9396-13.885-1.9396-4.8892 0-9.6112.70228-14.086 1.9931v97.838c2.5483.73572 5.1768 1.2842 7.8722 1.6119v-46.665h20.099v-7.8722h-20.095v-38.547c2.0333-.30097 4.1-.48156 6.2135-.48156z"/><path d="m137.91 159c-3.1302 7.2235-8.1799 13.437-14.514 17.972v-70.008c6.1065 4.3675 11.029 10.293 14.179 17.189l7.083-3.3643c-5.7052-12.394-16.199-22.132-29.135-26.767v95.891c13.33-4.7822 24.092-14.969 29.656-27.904l-7.2703-3.0098z"/><path d="m98.031 84.401c-31.716 0-57.527 25.804-57.527 57.527 0 31.716 25.811 57.527 57.527 57.527s57.524-25.811 57.524-57.527c0-31.723-25.807-57.527-57.524-57.527zm0 119.27c-34.044 0-61.747-27.703-61.747-61.747 0-34.051 27.703-61.747 61.747-61.747s61.744 27.697 61.744 61.747c0 34.044-27.7 61.747-61.744 61.747z"/><path d="m127.86 213.75c1.5985 0 2.9028-1.2975 2.9028-2.9028 0-1.5985-1.3042-2.9028-2.9028-2.9028-1.5985 0-2.9028 1.3042-2.9028 2.9028 0 1.5985 1.3042 2.9028 2.9028 2.9028z"/><path d="m166.52 171.91c1.6005 0 2.9008-1.2976 2.9008-2.9028s-1.3002-2.9028-2.9008-2.9028c-1.5985 0-2.9001 1.2976-2.9001 2.9028s1.3016 2.9028 2.9001 2.9028z"/><path d="m27.796 170.73c1.5985 0 2.9028-1.2976 2.9028-2.8961 0-1.6052-1.3042-2.9094-2.9028-2.9094-1.5985 0-2.9028 1.3042-2.9028 2.9094 0 1.5985 1.3042 2.8961 2.9028 2.8961z"/></svg>