<svg height="500" viewBox="0 0 750 500" width="750" xmlns="http://www.w3.org/2000/svg"><g transform="translate(.00001)"><path d="m0 0h750v500h-750z" fill="#da121a"/><path d="m0 156.25h750v187.5h-750z" fill="#fff"/><path d="m0 218.75h750v62.5h-750z"/><path d="m36.181 349.6994-173.00898 99.88678v-199.77356z" fill="#fff" transform="matrix(1.7340141 0 0 2.5028337 237.26163 -625.23944)"/><g stroke="#000"><g transform="matrix(.26594950213 0 0 .26623361481 14.44816863593 115.46062132515)"><path d="m346.78512 282.93531c-11.48485 0-22.70474.25965-33.5364.73474s-21.2813 1.17781-31.23625 2.02056c-9.95496.84274-19.39992 1.83599-28.2546 2.93899-8.85468 1.10299-17.11739 2.31294-24.64824 3.56877-7.53086 1.25583-14.34849 2.55618-20.33196 3.85742-5.98348 1.30126-11.12163 2.59194-15.33417 3.83119-4.21252 1.23926-7.49359 2.4202-9.71162 3.49006-1.10902.53491-1.95882 1.04954-2.5273 1.52197s-.8519.91554-.8519 1.31205c0 .41997.28342.86717.8519 1.36454.56848.49735 1.41828 1.03977 2.5273 1.60069 2.21803 1.12185 5.4991 2.35427 9.71162 3.6475 4.21254 1.29322 9.35069 2.63458 15.33417 3.98863 5.98347 1.35405 12.8011 2.71053 20.33196 4.01487 7.53085 1.30433 15.79356 2.55591 24.64824 3.69998 8.85468 1.14406 18.29964 2.19694 28.2546 3.0702 9.95495.87325 20.40459 1.58113 31.23625 2.07303 10.83166.49191 22.05155.761 33.5364.761 11.48473 0 22.70471-.26909 33.53635-.761 10.83164-.4919 21.28122-1.19978 31.23619-2.07303 9.95505-.87326 19.39996-1.92614 28.25465-3.0702 8.85469-1.14407 17.11741-2.39565 24.64829-3.69998 7.53079-1.30434 14.34849-2.66082 20.33188-4.01487 5.98347-1.35405 11.12164-2.69541 15.33417-3.98863 4.21253-1.29323 7.49363-2.52565 9.71162-3.6475 1.10903-.56092 1.95887-1.10334 2.5273-1.60069.56852-.49737.85191-.94457.85191-1.36454 0-.39651-.28339-.83962-.85191-1.31205-.56843-.47243-1.41827-.98706-2.5273-1.52197-2.21799-1.06986-5.49909-2.2508-9.71162-3.49006-4.21253-1.23925-9.3507-2.52993-15.33417-3.83119-5.98339-1.30124-12.80109-2.60159-20.33188-3.85742-7.53088-1.25583-15.7936-2.46578-24.64829-3.56877-8.8546-1.103-18.2996-2.09625-28.25465-2.93899-9.95489-.84275-20.40455-1.54547-31.23619-2.02056s-22.05162-.73474-33.53635-.73474z" fill="#e3e4e5" stroke-linecap="round" stroke-linejoin="round" stroke-width="1.000321"/><g fill="none" transform="matrix(.8943325 0 0 1.2007819 -683.60171190332 -259.35315849273)"><path d="m1137.7985 492.11312v-43.31489m-14.4887 44.73199.1883-45.86422m-10.7482 46.4303v-46.71517" stroke-width=".289777"/><path d="m1103.7725 494.66239v-47.28126" stroke-width=".579552"/><path d="m1095.2202 494.66239v-47.28126" stroke-width=".853232"/><path d="m1087.1469 494.66239v-47.28126" stroke-width="1.143011"/><path d="m1079.1436 494.66239v-47.28126" stroke-width="1.432789"/><path d="m1072.0123 494.66239v-47.28126" stroke-width="1.722563"/><path d="m1058.4116 492.11312-.1884-43.03375m6.6362 43.5999v-45.01327" stroke-width="2.012341"/><path d="m1045.8549 490.17809v-39.64835m6.3618 40.78051-.1884-42.19388" stroke-width="2.286022"/><path d="m1029.0088 487.91377v-34.83477m5.5274 35.40085v-36.53308m5.6944 37.66524v-37.95011" stroke-width="2.5758"/><path d="m1023.1045 487.62889v-33.69893" stroke-width="2.865578"/><path d="m1017.5986 485.93058v-31.43454" stroke-width="3.155352"/><path d="m1011.6944 485.07956v-29.17016" stroke-width="3.445131"/><path d="m999.60603 482.53403-.18848-23.22433m6.38325 24.35657v-26.05488" stroke-width="3.718811"/><path d="m993.41113 480.55084v-20.39393" stroke-width="3.928095"/><path d="m987.73833 478.89702v-16.98269" stroke-width="4.21787"/><path d="m981.54344 476.6327v-13.30126" stroke-width="4.491549"/><path d="m975.17634 475.50054v-9.90471" stroke-width="4.765247"/><path d="m968.43748 473.23838v-4.8133" stroke-width="5.618461"/><path d="m1198.5142 494.66239v-47.28126" stroke-width=".579552"/><path d="m1207.0664 494.66239v-47.28126" stroke-width=".853232"/><path d="m1215.1397 494.66239v-47.28126" stroke-width="1.143011"/><path d="m1223.143 494.66239v-47.28126" stroke-width="1.432789"/><path d="m1230.2743 494.66239v-47.28126" stroke-width="1.722563"/><path d="m1243.8751 492.11312.1884-43.03375m-6.6363 43.5999v-45.01327" stroke-width="2.012341"/><path d="m1256.4317 490.17809v-39.64835m-6.3617 40.78051.1883-42.19388" stroke-width="2.286022"/><path d="m1273.2779 487.91377v-34.83477m-5.5275 35.40085v-36.53308m-5.6944 37.66524v-37.95011" stroke-width="2.5758"/><path d="m1279.1822 487.62889v-33.69893" stroke-width="2.865578"/><path d="m1284.6881 485.93058v-31.43454" stroke-width="3.155352"/><path d="m1290.5923 485.07956v-29.17016" stroke-width="3.445131"/><path d="m1302.6806 482.53403.1885-23.22433m-6.3833 24.35657v-26.05488" stroke-width="3.718811"/><path d="m1308.8755 480.55084v-20.39393" stroke-width="3.928095"/><path d="m1314.5483 478.89702v-16.98269" stroke-width="4.21787"/><path d="m1320.7432 476.6327v-13.30126" stroke-width="4.491549"/><path d="m1327.1103 475.50054v-9.90471" stroke-width="4.765247"/><path d="m1333.8491 473.23838v-4.8133" stroke-width="5.618461"/><path d="m1164.4881 492.11312v-43.31489m14.4888 44.73199-.1883-45.86422m10.7481 46.4303v-46.71517" stroke-width=".289777"/></g></g><g transform="matrix(.26594950213 0 0 .26623361481 -142.23184503026 -10.70479711097)"><g fill="#e3e4e5"><g fill-rule="evenodd" stroke-linejoin="bevel" stroke-width="1.194997" transform="matrix(-.8337373 0 0 .8404573 1246.6635 553.87466)"><path d="m552.41611 110.80471-6.2209 1.81842-2.87118 8.80497 10.04915 3.25401 2.48836-9.85774z"/><path d="m529.15951 104.29669c-1.24418.38282-6.1252 2.29695-6.1252 2.29695l-2.77547 9.85773 8.42214 2.87119 2.39265-12.05898z"/><path d="m505.61579 98.841436-4.30678 2.296944-3.63683 8.03932 8.13502 2.29695 1.91412-9.57062z"/></g><g fill-rule="evenodd" stroke-linejoin="bevel" stroke-width="1.194997" transform="matrix(.8337373 0 0 .8404573 625.47011 553.87466)"><path d="m552.41611 110.80471-6.2209 1.81842-2.87118 8.80497 10.04915 3.25401 2.48836-9.85774z"/><path d="m529.15951 104.29669c-1.24418.38282-6.1252 2.29695-6.1252 2.29695l-2.77547 9.85773 8.42214 2.87119 2.39265-12.05898z"/><path d="m505.61579 98.841436-4.30678 2.296944-3.63683 8.03932 8.13502 2.29695 1.91412-9.57062z"/></g><g fill-rule="evenodd" stroke-linejoin="bevel" stroke-width="1.194997" transform="matrix(-.8337373 0 0 .8404573 1245.8398 553.87466)"><path d="m414.34489 85.443087-3.773 6.402681s.0934 8.798082 0 9.146692 7.43168 0 7.43168 0v-12.5767z"/><path d="m390.56351 83.956751-1.82933 6.288347v8.575019l4.95093 1.326603v-13.102962z"/></g><g fill-rule="evenodd" stroke-linejoin="bevel" stroke-width="1.194997" transform="matrix(.8337373 0 0 .8404573 625.47011 553.87466)"><path d="m414.34489 85.443087-3.773 6.402681s.0934 8.798082 0 9.146692 7.43168 0 7.43168 0v-12.5767z"/><path d="m390.56351 83.956751-1.82933 6.288347v8.575019l4.95093 1.326603v-13.102962z"/></g><g stroke-linejoin="bevel" stroke-width="1.194998" transform="matrix(.8337373 0 0 .8404573 625.47011 553.87466)"><path d="m215.04619 104.10039-10.61863 2.87136 2.87137 10.61863 10.61862-2.87137z"/><path d="m191.95303 110.84868-9.96105 3.79783 2.87136 10.61863 9.96106-3.79784z"/><path d="m227.90227 101.16224 10.63794-2.327852 2.87137 10.618632-10.51029 2.7108z"/><path d="m529.04829 104.10039 10.61863 2.87136-2.87137 10.61863-10.61862-2.87137z"/><path d="m552.14145 110.84868 9.96106 3.79783-2.87137 10.61863-9.96106-3.79784z"/><path d="m516.19221 101.16224-10.63794-2.327852-2.87137 10.618632 10.51029 2.7108z"/></g><g transform="matrix(.8337373 0 0 .8404573 625.47011 554.39089)"><path d="m366.54721 82.784286h11v11h-11z" stroke-width="1.194998"/><path d="m391.11264 63.277615h11.0144v11h-11.0144z" stroke-width="1.19578" transform="matrix(.9986926 .05111809 0 1 0 0)"/><path d="m415.87573 52.982685h11.032373v11h-11.032373z" stroke-width="1.196755" transform="matrix(.9970656 .0765522 0 1 0 0)"/><path d="m-353.95593 101.3641h11.0144v11h-11.0144z" stroke-width="1.19578" transform="matrix(-.9986926 .05111809 0 1 0 0)"/><path d="m-330.40866 110.1124h11.032373v11h-11.032373z" stroke-width="1.196755" transform="matrix(-.9970656 .0765522 0 1 0 0)"/></g></g><g stroke-width="1.146687" transform="matrix(.9038457 0 0 .8419664 599.38647 229.44817)"><path d="m142.13751 554.051s27.19721 56.11482 27.19721 56.11482 401.56038.75192 401.56038.75192 31.06187-56.86674 31.06187-56.86674c-11.25092-47.64404-147.74677-74.85246-229.90981-74.85246-83.15541 0-219.10013 28.31949-229.90965 74.85246z" fill="#e3e4e5" fill-rule="evenodd"/><path d="m179.86259 655.54233c8.49799-51.56002 362.48782-54.91913 384.60595 0 1.03166-10.49028 14.64246-50.43347 18.88979-54.83741 14.57217-41.72372-98.99419-67.00669-212.21764-66.596s-226.10401 26.51505-210.16022 66.05804c4.6348 5.05732 17.2287 44.96668 18.88212 55.37537z" fill="#e3e4e5" fill-rule="evenodd"/><g fill="none"><path d="m175.77373 640.34501s16.04786-41.39332 196.27351-41.40506c179.72565-.0117 195.82887 41.30584 195.82887 41.30584"/><path d="m571.35082 629.1873c-9.8087-26.0083-110.85451-44.56107-199.30348-44.56107-88.44919 0-189.87194 18.1462-199.68061 44.1545"/><path d="m578.95202 608.67636c-.99438-30.9565-105.54038-53.03901-206.90463-53.03901-102.36662 0-207.10212 23.54471-206.59287 53.03901"/><path d="m575.20146 618.54821c-9.89203-28.57331-103.11602-48.87323-203.1541-48.61932-100.03807.25392-193.19415 19.25922-203.08615 47.83253"/><g><path d="m372.04724 598.71878v14.43728"/><path d="m331.04169 599.6245.60838 14.48849"/><path d="m293.26339 601.96594 1.09508 14.38861"/><path d="m257.77523 606.21623 2.34112 16.30789"/><path d="m223.65294 614.05585 1.62712 15.23238"/><path d="m197.54319 623.61682 2.37657 11.54114"/><path d="m180.6911 634.71546 2.74082 11.20648"/><path d="m413.05279 599.6245-.60838 14.48849"/><path d="m450.83109 601.96594-1.09508 14.38861"/><path d="m486.31925 606.21623-1.62234 14.13702"/><path d="m520.72905 613.79844-1.62712 13.87635"/><path d="m544.72407 622.62816-3.10746 11.54114"/><path d="m563.84119 635.10465-3.20023 9.43139"/></g><g><path d="m372.04723 570.18608v14.69795"/><path d="m330.00809 571.10815.61916 14.75009"/><path d="m291.33005 574.06818 1.17211 15.10944"/><path d="m254.98274 579.49019 1.70871 15.0262"/><path d="m220.42445 587.56153 1.88646 14.01649"/><path d="m192.27063 597.92817 2.64149 12.72843"/><path d="m173.78937 609.99659 3.39595 12.45134"/><path d="m414.08639 571.10815-.61916 14.75009"/><path d="m452.76443 574.06818-1.17211 15.10944"/><path d="m489.11174 579.49019-1.70871 15.0262"/><path d="m523.67003 587.56153-1.88646 14.01649"/><path d="m551.82385 597.92817-3.46374 13.02503"/><path d="m570.24402 611.43168-3.66186 10.87437"/></g><path d="m372.04723 541.53477v14.69796"/><path d="m289.11108 545.85683 1.12812 14.75748"/><path d="m251.7079 551.23484 1.70871 15.0702"/><path d="m214.8179 560.01008 3.29429 14.50044"/><path d="m185.74019 571.4326 3.3894 13.7843"/><path d="m163.85649 588.03895 5.48971 10.77089"/><path d="m328.757 542.54484.61916 14.75009"/><path d="m454.98341 545.85683-1.12812 14.75748"/><path d="m492.38659 551.23484-1.70871 15.0702"/><path d="m529.27659 560.01008-3.29429 14.50044"/><path d="m558.3543 571.4326-3.3894 12.77486"/><path d="m580.238 588.03895-5.48971 10.77089"/><path d="m415.33749 542.54484-.61916 14.75009"/><path d="m150.71912 571.60587s33.30274-59.5262 221.04034-59.5262c187.22229-.0159 221.04036 59.38355 221.04036 59.38355"/><path d="m597.20398 563.22648c-10.92169-39.3967-126.79072-67.49993-225.27588-67.49993-98.4854 0-214.35424 28.10323-225.27589 67.49993"/><path d="m162.69144 572.66269-4.462-9.74776"/><path d="m153.08098 551.79425-4.66794-10.02234"/><path d="m182.94206 559.68856-4.39335-11.53256"/><path d="m173.60618 535.45646-4.462-11.6012"/><path d="m211.91075 548.2933-4.11877-13.5233"/><path d="m203.87915 521.93316-3.84419-12.90548"/><path d="m249.32292 538.82012-3.29502-14.96486"/><path d="m243.07612 510.40061-2.95179-14.07247"/><path d="m283.30278 502.57494-2.12803-14.89622"/><path d="m285.36216 517.12793 2.33397 15.99456"/><path d="m327.44227 529.82747-1.16699-16.61237"/><path d="m325.1083 497.76971-1.09834-15.92591"/><path d="m372.04724 495.77897v-16.68102"/><path d="m372.04724 512.18541v16.54373"/><path d="m581.42379 572.66269 4.462-9.74776"/><path d="m591.03425 551.79425 4.66794-10.02234"/><path d="m561.17317 559.68856 4.39335-11.53256"/><path d="m570.50905 535.45646 4.462-11.6012"/><path d="m532.20448 548.2933 4.11877-13.5233"/><path d="m540.23608 521.93316 3.84419-12.90548"/><path d="m494.79231 538.82012 3.29502-14.96486"/><path d="m501.03911 510.40061 2.95179-14.07247"/><path d="m460.81245 502.57494 2.12803-14.89622"/><path d="m458.75307 517.12793-2.33397 15.99456"/><path d="m416.67296 529.82747 1.16699-16.61237"/><path d="m419.00693 497.76971 1.09834-15.92591"/><g transform="translate(.448766)"><path d="m392.25775 599.52949v-14.63764"/><path d="m392.88063 570.09848.46716-14.3262"/><path d="m394.59355 512.3265.46716-16.19484"/><path d="m439.4408 499.71321-1.71292 14.94909"/><path d="m482.2637 506.40913-3.42583 13.70333"/><path d="m521.50505 516.21949-4.04871 12.45757"/><path d="m556.54196 528.83278-5.13874 12.14613"/><path d="m581.30138 543.00327-5.45018 12.14613"/><path d="m433.83489 558.41951-1.09003 13.70333"/><path d="m431.4991 587.38336-1.24576 13.08045"/><path d="m468.71609 603.88964 1.24576-12.61329"/><path d="m471.36332 576.48299 1.40148-13.70333"/><path d="m508.89176 569.63132-1.86864 13.70333"/><path d="m504.84305 597.66086-1.71292 12.02797"/><path d="m533.18326 617.96701 2.0246-11.84721"/><path d="m553.15937 627.01036 3.56713-11.37004"/><path d="m537.85561 592.05495 2.80295-13.39189"/><path d="m560.41602 603.02108 4.84624-12.83476"/><g transform="matrix(-1 0 0 1 743.19695 0)"><path d="m392.25775 599.52949v-14.63764"/><path d="m392.88063 570.09848.46716-14.3262"/><path d="m394.59355 512.3265.46716-16.19484"/><path d="m439.4408 499.71321-1.71292 14.94909"/><path d="m482.2637 506.40913-3.42583 13.70333"/><path d="m521.50505 516.21949-4.04871 12.45757"/><path d="m556.54196 528.83278-5.13874 12.14613"/><path d="m581.30138 543.00327-5.45018 12.14613"/><path d="m433.83489 558.41951-1.09003 13.70333"/><path d="m431.4991 587.38336-1.24576 13.08045"/><path d="m468.71609 603.88964 1.24576-12.61329"/><path d="m471.36332 576.48299 1.40148-13.70333"/><path d="m508.89176 569.63132-1.86864 13.70333"/><path d="m504.84305 597.66086-1.71292 11.52325"/><path d="m533.50742 618.21125 2.01239-12.76441"/><path d="m554.98659 628.29562 2.92761-12.16097"/><path d="m537.85561 592.05495 2.80295-13.39189"/><path d="m561.3675 603.06096 3.89476-12.03344"/></g></g></g></g><path d="m935.15337 695.98374c-1.90244.10423-3.65667 1.49255-3.70445 5.49094-.0511 4.26697.10174 12.5911.10174 12.5911l8.0157-.026s.11821-7.92803.0251-12.44657c-.0933-4.52012-2.0147-5.54226-4.05812-5.60858-.12775-.004-.2531-.008-.37995-.00085z" fill-rule="evenodd" stroke-linecap="round" stroke-linejoin="round" stroke-width="1.000321"/><path d="m811.25665 706.08983c-1.85919.40108-3.44096 2.06458-3.07771 6.07495.38756 4.27974 1.39178 12.58943 1.39178 12.58943l7.87585-1.27632s-.69716-7.95542-1.2523-12.46454c-.5554-4.51067-2.54883-5.23426-4.56408-4.98192-.12599.0158-.24957.0317-.37354.0584z" fill-rule="evenodd" stroke-linecap="round" stroke-linejoin="round" stroke-width="1.000321"/><path d="m1060.0629 706.08983c1.8592.40108 3.4409 2.06458 3.0777 6.07495-.3876 4.27974-1.3918 12.58943-1.3918 12.58943l-7.8759-1.27632s.6972-7.95542 1.2523-12.46454c.5554-4.51067 2.5489-5.23426 4.5641-4.98192.126.0158.2496.0317.3736.0584z" fill-rule="evenodd" stroke-linecap="round" stroke-linejoin="round" stroke-width="1.000321"/><g stroke-linejoin="bevel" stroke-width="1.166556" transform="matrix(.8559755 0 0 .8590257 617.7113 528.8877)"><path d="m261.21732 50.551072 2.92862 4.148305-.22218 6.88741-6.86814-.847244.25864-8.017375z" fill="#e3e4e5" fill-rule="evenodd"/><path d="m240.80294 53.836579 3.51105 3.726531-.22218 6.887411-7.24936-.409468.25863-8.017374z" fill="#e3e4e5" fill-rule="evenodd"/><path d="m281.56638 47.206426 2.55309 4.398506-.22219 6.887413-6.96385-1.080983.25863-8.017375z" fill="#e3e4e5" fill-rule="evenodd"/><path d="m304.7474 53.544185 1.59497 4.127442-.35071 11.863851-3.34918-5.759133-.30269-9.41441zm3.80283 9.334805 1.53878 3.806217-.35072 11.863861-3.34918-5.759133-.24649-9.093195zm3.85824 9.607543 1.42812 3.272537-.35071 11.863862-3.36746-5.763862-.13583-8.559516z" fill="#e3e4e5" fill-rule="evenodd"/><path d="m300.93868 44.113833 1.68978 4.120816.15348 9.671192 1.9923 3.915741-.11823-8.6546 1.84882 4.508285.12639 7.964072 1.9928 3.947354-.0916-6.979093 1.8882 4.581443.0983 6.193724 1.9938 4.010582-.0646-5.271973 1.9084 4.649634.0676 10.281121c-1.76456 2.14477-3.10694 2.771851-3.18957 7.428037.76167 7.813412 1.76611 16.229892 4.67441 29.414682l-4.94042.60535c1.50779 14.871 7.32759 29.73387 13.50546 44.72359l-18.64439 1.66179-11.06415-106.337404z" fill="#e3e4e5" fill-rule="evenodd"/><g fill="none"><path d="m301.3943 63.966022 12.94033 23.627704"/><path d="m296.28393 75.074018 14.92409 19.07922"/><path d="m314.26168 155.06359 4.94373.20771"/><path d="m309.3401 139.09396c.78775.20383 4.79333.47287 4.79333.47287"/><path d="m305.15408 123.32964 5.80292.9682"/><path d="m301.71398 107.24435 12.25437 7.65492"/><path d="m299.17955 91.275329 12.98362 12.305381"/><path d="m311.85594 139.2305c1.37484 5.41258 2.9288 10.80919 5.15492 16.14587"/><path d="m309.11219 123.63776c-1.30522-5.13559-1.93225-8.26363-2.59581-13.35996"/><path d="m303.98494 96.307442-1.99184-13.705371"/><path d="m309.27271 100.88599-1.25562-10.901501"/><path d="m313.01107 123.879c-.87333-4.0358-1.5604-6.5483-2.01872-10.87687"/><path d="m306.73113 98.013097 1.50828 13.097833"/></g><path d="m301.21927 43.850862-.0381 19.979392c-5.4601 3.687925-4.54415 7.578079-4.82525 11.177178 3.70574 24.305359 8.16371 47.122688 13.99937 67.444248 3.82008 13.30269 8.23052 25.53591 13.40677 36.41699l-38.48371 5.73303-2.53686.37791-38.43585 5.7259c4.44662-30.11482 1.82757-67.09877-4.1022-107.344732-1.86606-4.193797-5.22468-6.202206-10.14149-7.916543l.0381-19.979392 10.15988-1.659135-.18589 8.092239 9.93133-1.820027.41445-7.931359 10.1599-1.659146-.3064 8.359173 9.90489-1.639935.56139-8.378363 10.1599-1.659146-.2354 8.83947 9.87034-1.557273.52495-8.941333z" fill="#e3e4e5"/><path d="m301.10182 63.830881-70.76279 11.307205z" fill="none"/><path d="m295.87603 75.056446-55.34591 8.245039z" fill="none"/><path d="m313.82987 155.05181-67.01035 9.98272" fill="none"/><path d="m309.12347 139.2189-62.30985 9.28248" fill="none"/><path d="m305.08832 123.28604-59.08823 8.80254" fill="none"/><path d="m301.5905 107.27312-56.94123 8.48269" fill="none"/><path d="m298.76258 91.160417-56.27041 8.382769" fill="none"/><path d="m283.46622 98.657447c2.12085-.182841 4.31039 1.200409 5.08705 5.994503.82887 5.11606 2.16693 15.13756 2.16693 15.13756l-8.85748 1.29126s-1.56956-9.5267-2.28463-14.96826c-.71522-5.44347 1.22274-6.982074 3.46847-7.392549.14038-.02566.27823-.05032.41966-.06251z" fill-rule="evenodd" stroke-linecap="round"/><path d="m260.12371 102.13485c2.12084-.18284 4.31039 1.20041 5.08702 5.9945.8289 5.11606 2.16288 15.10991 2.16281 15.10992l-8.8492 1.34654s-1.55379-9.5573-2.26881-14.99886c-.71523-5.44348 1.20278-6.9791 3.44852-7.38959.14038-.0256.27823-.0503.41966-.0625z" fill-rule="evenodd" stroke-linecap="round"/><path d="m287.09342 125.65422-.77686-5.18253" fill="none"/><path d="m263.75899 129.13043-.77687-5.18253" fill="none"/><path d="m275.50799 127.91055 2.44158 16.28796" fill="none"/><path d="m306.7556 176.00446-2.87782-19.19813" fill="none"/><path d="m259.72928 183.01011-2.87782-19.19814" fill="none"/><path d="m301.42944 140.47356-2.43775-16.26239" fill="none"/><path d="m254.40312 147.47921-2.43775-16.26239" fill="none"/><path d="m270.58844 95.091695 2.51278 16.762965" fill="none"/><path d="m296.54503 107.8892-2.37409-15.837693" fill="none"/><path d="m249.51871 114.89485-2.37409-15.837699" fill="none"/><path d="m276.40057 134.19845c7.6903-1.3329 15.77398 1.41885 17.87477 14.02136 2.10195 12.6083 4.53086 32.24077 4.53075 32.24068l-5.77038 1.30642c-.26021-1.99062-2.60285-18.73456-4.24184-28.86396-.44013-2.72002-.79784-4.96834-1.59648-6.73417-.39923-.88292-.84922-1.65892-1.31633-2.33094-.46697-.67185-.75915-1.27864-1.27937-1.75792-.5201-.47923-.92376-.87456-1.48257-1.17966-.55867-.30501-1.01034-.55738-1.59293-.70645-1.16536-.29824-3.30448-.59423-4.47795-.37896-1.17342.21512-2.72179 1.08247-3.73337 1.69351-.50572.30556-.77737.65554-1.2143 1.09427-.43684.4388-.56065.88037-.90981 1.47515-.34911.59486-.70557 1.28552-.9481 2.05936s-.42425 1.66254-.5413 2.63807c-.23401 1.95114.15834 4.27125.50586 7.17071 1.2941 10.7965 4.03727 26.73879 4.34827 28.60454l-6.04015.45302s-3.20544-18.48171-4.87485-31.91546c-1.67-13.4383 5.06989-17.5567 12.76008-18.88957z" fill="#e3e4e5" fill-rule="evenodd" stroke-linecap="round"/><path d="m293.00345 181.34841s-2.40096-18.17845-4.16301-29.06375c-1.76131-10.88023-6.88772-13.53453-11.61312-12.66906-4.72519.86548-8.75706 4.16686-7.23294 15.74826 1.52359 11.57727 4.37299 28.77261 4.37299 28.77261z" fill-rule="evenodd" stroke-linecap="round"/><path d="m282.29805 93.66422-2.38206-15.890934" fill="none"/><path d="m258.96362 97.140449-2.38207-15.890934" fill="none"/></g><g stroke-linejoin="bevel" stroke-width="1.166556" transform="matrix(-.8559755 0 0 .8590257 1253.6082 528.8877)"><path d="m261.21732 50.551072 2.92862 4.148305-.22218 6.88741-6.86814-.847244.25864-8.017375z" fill="#e3e4e5" fill-rule="evenodd"/><path d="m240.80294 53.836579 3.51105 3.726531-.22218 6.887411-7.24936-.409468.25863-8.017374z" fill="#e3e4e5" fill-rule="evenodd"/><path d="m281.56638 47.206426 2.55309 4.398506-.22219 6.887413-6.96385-1.080983.25863-8.017375z" fill="#e3e4e5" fill-rule="evenodd"/><path d="m304.7474 53.544185 1.59497 4.127442-.35071 11.863851-3.34918-5.759133-.30269-9.41441zm3.80283 9.334805 1.53878 3.806217-.35072 11.863861-3.34918-5.759133-.24649-9.093195zm3.85824 9.607543 1.42812 3.272537-.35071 11.863862-3.36746-5.763862-.13583-8.559516z" fill="#e3e4e5" fill-rule="evenodd"/><path d="m300.93868 44.113833 1.68978 4.120816.15348 9.671192 1.9923 3.915741-.11823-8.6546 1.84882 4.508285.12639 7.964072 1.9928 3.947354-.0916-6.979093 1.8882 4.581443.0983 6.193724 1.9938 4.010582-.0646-5.271973 1.9084 4.649634.0676 10.281121c-1.76456 2.14477-3.10694 2.771851-3.18957 7.428037.76167 7.813412 1.76611 16.229892 4.67441 29.414682l-4.94042.60535c1.50779 14.871 7.32759 29.73387 13.50546 44.72359l-18.64439 1.66179-11.06415-106.337404z" fill="#e3e4e5" fill-rule="evenodd"/><g fill="none"><path d="m301.3943 63.966022 12.94033 23.627704"/><path d="m296.28393 75.074018 14.92409 19.07922"/><path d="m314.26168 155.06359 4.94373.20771"/><path d="m309.3401 139.09396c.78775.20383 4.79333.47287 4.79333.47287"/><path d="m305.15408 123.32964 5.80292.9682"/><path d="m301.71398 107.24435 12.25437 7.65492"/><path d="m299.17955 91.275329 12.98362 12.305381"/><path d="m311.85594 139.2305c1.37484 5.41258 2.9288 10.80919 5.15492 16.14587"/><path d="m309.11219 123.63776c-1.30522-5.13559-1.93225-8.26363-2.59581-13.35996"/><path d="m303.98494 96.307442-1.99184-13.705371"/><path d="m309.27271 100.88599-1.25562-10.901501"/><path d="m313.01107 123.879c-.87333-4.0358-1.5604-6.5483-2.01872-10.87687"/><path d="m306.73113 98.013097 1.50828 13.097833"/></g><path d="m301.21927 43.850862-.0381 19.979392c-5.4601 3.687925-4.54415 7.578079-4.82525 11.177178 3.70574 24.305359 8.16371 47.122688 13.99937 67.444248 3.82008 13.30269 8.23052 25.53591 13.40677 36.41699l-38.48371 5.73303-2.53686.37791-38.43585 5.7259c4.44662-30.11482 1.82757-67.09877-4.1022-107.344732-1.86606-4.193797-5.22468-6.202206-10.14149-7.916543l.0381-19.979392 10.15988-1.659135-.18589 8.092239 9.93133-1.820027.41445-7.931359 10.1599-1.659146-.3064 8.359173 9.90489-1.639935.56139-8.378363 10.1599-1.659146-.2354 8.83947 9.87034-1.557273.52495-8.941333z" fill="#e3e4e5"/><path d="m301.10182 63.830881-70.76279 11.307205z" fill="none"/><path d="m295.87603 75.056446-55.34591 8.245039z" fill="none"/><path d="m313.82987 155.05181-67.01035 9.98272" fill="none"/><path d="m309.12347 139.2189-62.30985 9.28248" fill="none"/><path d="m305.08832 123.28604-59.08823 8.80254" fill="none"/><path d="m301.5905 107.27312-56.94123 8.48269" fill="none"/><path d="m298.76258 91.160417-56.27041 8.382769" fill="none"/><path d="m283.46622 98.657447c2.12085-.182841 4.31039 1.200409 5.08705 5.994503.82887 5.11606 2.16693 15.13756 2.16693 15.13756l-8.85748 1.29126s-1.56956-9.5267-2.28463-14.96826c-.71522-5.44347 1.22274-6.982074 3.46847-7.392549.14038-.02566.27823-.05032.41966-.06251z" fill-rule="evenodd" stroke-linecap="round"/><path d="m260.12371 102.13485c2.12084-.18284 4.31039 1.20041 5.08702 5.9945.8289 5.11606 2.16288 15.10991 2.16281 15.10992l-8.8492 1.34654s-1.55379-9.5573-2.26881-14.99886c-.71523-5.44348 1.20278-6.9791 3.44852-7.38959.14038-.0256.27823-.0503.41966-.0625z" fill-rule="evenodd" stroke-linecap="round"/><path d="m287.09342 125.65422-.77686-5.18253" fill="none"/><path d="m263.75899 129.13043-.77687-5.18253" fill="none"/><path d="m275.50799 127.91055 2.44158 16.28796" fill="none"/><path d="m306.7556 176.00446-2.87782-19.19813" fill="none"/><path d="m259.72928 183.01011-2.87782-19.19814" fill="none"/><path d="m301.42944 140.47356-2.43775-16.26239" fill="none"/><path d="m254.40312 147.47921-2.43775-16.26239" fill="none"/><path d="m270.58844 95.091695 2.51278 16.762965" fill="none"/><path d="m296.54503 107.8892-2.37409-15.837693" fill="none"/><path d="m249.51871 114.89485-2.37409-15.837699" fill="none"/><path d="m276.40057 134.19845c7.6903-1.3329 15.77398 1.41885 17.87477 14.02136 2.10195 12.6083 4.53086 32.24077 4.53075 32.24068l-5.77038 1.30642c-.26021-1.99062-2.60285-18.73456-4.24184-28.86396-.44013-2.72002-.79784-4.96834-1.59648-6.73417-.39923-.88292-.84922-1.65892-1.31633-2.33094-.46697-.67185-.75915-1.27864-1.27937-1.75792-.5201-.47923-.92376-.87456-1.48257-1.17966-.55867-.30501-1.01034-.55738-1.59293-.70645-1.16536-.29824-3.30448-.59423-4.47795-.37896-1.17342.21512-2.72179 1.08247-3.73337 1.69351-.50572.30556-.77737.65554-1.2143 1.09427-.43684.4388-.56065.88037-.90981 1.47515-.34911.59486-.70557 1.28552-.9481 2.05936s-.42425 1.66254-.5413 2.63807c-.23401 1.95114.15834 4.27125.50586 7.17071 1.2941 10.7965 4.03727 26.73879 4.34827 28.60454l-6.04015.45302s-3.20544-18.48171-4.87485-31.91546c-1.67-13.4383 5.06989-17.5567 12.76008-18.88957z" fill="#e3e4e5" fill-rule="evenodd" stroke-linecap="round"/><path d="m293.00345 181.34841s-2.40096-18.17845-4.16301-29.06375c-1.76131-10.88023-6.88772-13.53453-11.61312-12.66906-4.72519.86548-8.75706 4.16686-7.23294 15.74826 1.52359 11.57727 4.37299 28.77261 4.37299 28.77261z" fill-rule="evenodd" stroke-linecap="round"/><path d="m282.29805 93.66422-2.38206-15.890934" fill="none"/><path d="m258.96362 97.140449-2.38207-15.890934" fill="none"/></g><g fill-rule="evenodd" stroke-linecap="round" stroke-linejoin="round" stroke-width="1.223104" transform="matrix(-.84791050061 .01868562661 .13636849063 .78585917669 1119.86913886066 327.9974322699)"><path d="m492.7183 497.70654c-6.02282-1.90903-12.45923.16133-14.43394 12.36985-1.97578 12.21411-4.38752 31.29868-4.38743 31.2986l4.51141 1.73313c.25551-1.93398 2.52592-18.18947 4.0741-28.00606.41574-2.63602.75459-4.81538 1.42844-6.48663.33685-.83564.71097-1.56234 1.09593-2.18563.38484-.62313.63037-1.19603 1.05226-1.62595.42179-.42987.74975-.78647 1.1976-1.04237.44775-.25583.80988-.46833 1.2725-.56919.92539-.2018 2.61762-.32537 3.53635-.0224.91869.30282 2.11611 1.27524 2.89728 1.95411.39053.33947.59558.70428.92855 1.16912.33289.4649.41918.90808.67906 1.51927.25984.61126.52303 1.31715.69438 2.0958.17135.77866.29189 1.66533.35929 2.6322.13473 1.93381-.23322 4.18095-.58059 7.00036-1.2935 10.49845-3.85899 25.93564-4.15133 27.74306l4.74556.91637s2.99408-17.89418 4.65017-30.95245c1.65667-13.06269-3.54686-17.63218-9.56959-19.54118z" fill="#e3e4e5"/><path d="m478.44438 542.69978s2.35279-17.65927 4.01709-28.20836c1.66359-10.54417 5.76846-12.74977 9.46807-11.53113 3.69945 1.21863 6.79097 4.77457 5.29637 16.02563-1.49408 11.24705-4.17507 27.90614-4.17507 27.90614z"/></g><g fill-rule="evenodd" stroke-linecap="round" stroke-linejoin="round" stroke-width="1.223104" transform="matrix(.84791050061 .01868562661 -.13636849063 .78585917669 751.45039739182 327.9974322699)"><path d="m492.7183 497.70654c-6.02282-1.90903-12.45923.16133-14.43394 12.36985-1.97578 12.21411-4.38752 31.29868-4.38743 31.2986l4.51141 1.73313c.25551-1.93398 2.52592-18.18947 4.0741-28.00606.41574-2.63602.75459-4.81538 1.42844-6.48663.33685-.83564.71097-1.56234 1.09593-2.18563.38484-.62313.63037-1.19603 1.05226-1.62595.42179-.42987.74975-.78647 1.1976-1.04237.44775-.25583.80988-.46833 1.2725-.56919.92539-.2018 2.61762-.32537 3.53635-.0224.91869.30282 2.11611 1.27524 2.89728 1.95411.39053.33947.59558.70428.92855 1.16912.33289.4649.41918.90808.67906 1.51927.25984.61126.52303 1.31715.69438 2.0958.17135.77866.29189 1.66533.35929 2.6322.13473 1.93381-.23322 4.18095-.58059 7.00036-1.2935 10.49845-3.85899 25.93564-4.15133 27.74306l4.74556.91637s2.99408-17.89418 4.65017-30.95245c1.65667-13.06269-3.54686-17.63218-9.56959-19.54118z" fill="#e3e4e5"/><path d="m478.44438 542.69978s2.35279-17.65927 4.01709-28.20836c1.66359-10.54417 5.76846-12.74977 9.46807-11.53113 3.69945 1.21863 6.79097 4.77457 5.29637 16.02563-1.49408 11.24705-4.17507 27.90614-4.17507 27.90614z"/></g><g fill-rule="evenodd" stroke-linecap="round" stroke-linejoin="round" stroke-width="1.021952" transform="matrix(1.12976799463 -.10014939029 .06878512977 .84196643377 419.26585502339 338.9393989736)"><path d="m492.7183 497.70654c-6.02282-1.90903-12.45923.16133-14.43394 12.36985-1.97578 12.21411-4.38752 31.29868-4.38743 31.2986l4.51141 1.73313c.25551-1.93398 2.52592-18.18947 4.0741-28.00606.41574-2.63602.75459-4.81538 1.42844-6.48663.33685-.83564.71097-1.56234 1.09593-2.18563.38484-.62313.63037-1.19603 1.05226-1.62595.42179-.42987.74975-.78647 1.1976-1.04237.44775-.25583.80988-.46833 1.2725-.56919.92539-.2018 2.61762-.32537 3.53635-.0224.91869.30282 2.11611 1.27524 2.89728 1.95411.39053.33947.59558.70428.92855 1.16912.33289.4649.41918.90808.67906 1.51927.25984.61126.52303 1.31715.69438 2.0958.17135.77866.29189 1.66533.35929 2.6322.13473 1.93381-.23322 4.18095-.58059 7.00036-1.2935 10.49845-3.85899 25.93564-4.15133 27.74306l4.74556.91637s2.99408-17.89418 4.65017-30.95245c1.65667-13.06269-3.54686-17.63218-9.56959-19.54118z" fill="#e3e4e5"/><path d="m478.44438 542.69978s2.35279-17.65927 4.01709-28.20836c1.66359-10.54417 5.76846-12.74977 9.46807-11.53113 3.69945 1.21863 6.79097 4.77457 5.29637 16.02563-1.49408 11.24705-4.17507 27.90614-4.17507 27.90614z"/></g><g fill-rule="evenodd" stroke-linecap="round" stroke-linejoin="round" stroke-width="1.021952" transform="matrix(-1.12852965487 -.10014939029 -.07919591467 .84196643377 1456.79074553962 338.9393989736)"><path d="m492.7183 497.70654c-6.02282-1.90903-12.45923.16133-14.43394 12.36985-1.97578 12.21411-4.38752 31.29868-4.38743 31.2986l4.51141 1.73313c.25551-1.93398 2.52592-18.18947 4.0741-28.00606.41574-2.63602.75459-4.81538 1.42844-6.48663.33685-.83564.71097-1.56234 1.09593-2.18563.38484-.62313.63037-1.19603 1.05226-1.62595.42179-.42987.74975-.78647 1.1976-1.04237.44775-.25583.80988-.46833 1.2725-.56919.92539-.2018 2.61762-.32537 3.53635-.0224.91869.30282 2.11611 1.27524 2.89728 1.95411.39053.33947.59558.70428.92855 1.16912.33289.4649.41918.90808.67906 1.51927.25984.61126.52303 1.31715.69438 2.0958.17135.77866.29189 1.66533.35929 2.6322.13473 1.93381-.23322 4.18095-.58059 7.00036-1.2935 10.49845-3.85899 25.93564-4.15133 27.74306l4.74556.91637s2.99408-17.89418 4.65017-30.95245c1.65667-13.06269-3.54686-17.63218-9.56959-19.54118z" fill="#e3e4e5"/><path d="m478.44438 542.69978s2.35279-17.65927 4.01709-28.20836c1.66359-10.54417 5.76846-12.74977 9.46807-11.53113 3.69945 1.21863 6.79097 4.77457 5.29637 16.02563-1.49408 11.24705-4.17507 27.90614-4.17507 27.90614z"/></g><g stroke-width="1.29981" transform="matrix(.7973691 0 0 .7427795 143.87665 244.17941)"><path d="m992.99446 675.40618c-121.71013 0-220.49782 20.52624-220.49764 45.82541 0 25.29917 98.78732 45.82541 220.49764 45.82541 121.71014 0 220.49784-20.52624 220.49784-45.82541s-98.7877-45.82541-220.49784-45.82541zm0 16.14301c111.26964 0 201.55894 22.17585 201.55934 30.49015 0 8.80606-90.2895 31.75302-201.55934 31.75302s-201.55937-22.94696-201.55918-31.75302c-.00019-8.3143 90.28934-30.49015 201.55918-30.49015z" fill="#e3e4e5" stroke-linecap="round" stroke-linejoin="round"/><g fill="none"><path d="m1073.6231 678.83458c-17.8118-2.1365-39.491 1.18403-32.7114 14.45886"/><path d="m1111.0768 682.43133c-27.1696-3.38314-38.9637 4.09488-34.9609 12.99301"/><path d="m1176.1147 695.78167c-26.5857-7.43359-40.7491-1.10829-34.5009 8.75146"/><path d="m1207.2425 710.61472c-11.681-7.28991-37.0406-13.0558-36.5773 1.2443"/><path d="m1209.9428 729.0661c6.4682-15.79187-18.1957-15.08043-17.4828-8.87322"/><path d="m957.30806 675.9398c-22.79029 1.24121-31.491 11.34633-26.38627 18.08238"/><path d="m922.72611 677.89076c-24.49702 3.6276-27.40394 13.80074-22.7903 18.85288"/><path d="m808.60661 696.11895c-19.84943 7.35208-13.85142 20.14669-9.54559 21.0175"/><path d="m993.96617 675.27843c-15.92058-.89285-34.69188 6.64011-25.35465 16.44038"/><path d="m1032.0168 676.00686c-24.995-.69672-32.23708 7.74266-28.4298 15.82581"/><path d="m1144.9323 688.34788c-35.3922-6.75352-38.5313 3.80433-37.4914 11.30848"/><path d="m775.74772 713.18364c-3.00344 6.74501 3.84733 13.46399 15.48801 8.91594"/><path d="m833.63508 689.52011c-21.11181 4.69168-17.93959 19.11947-13.88655 20.70355"/><path d="m857.84749 685.26156c-21.47963 3.10086-19.68803 17.97978-15.80015 19.90409"/><path d="m887.26052 681.22233c-21.4751 3.14436-21.97535 17.10093-18.38415 19.67584"/></g></g><g transform="matrix(-.99929070759 -.05904394883 .04285176844 .9249250969 1304.6990452815 217.89143265776)"><path d="m611.48304 468.7732-5.01623 2.02307.84544 7.92304 6.03074-.27325.28181-7.85439z" fill="#e3e4e5" fill-rule="evenodd" stroke-width="1.041922"/><path d="m621.79055 477.76401-5.01623 2.02307.84544 7.92305 6.03074-.27325.28181-7.8544z" fill="#e3e4e5" fill-rule="evenodd" stroke-width="1.041922"/><path d="m601.00374 459.7303-5.01623 2.02307.84543 7.92305 6.03074-.27325.28182-7.8544z" fill="#e3e4e5" fill-rule="evenodd" stroke-width="1.041922"/><path d="m574.91436 456.84192 2.92047 2.26207.97348 6.06159-3.66489 1.90198-1.48886-9.39038z" fill="#e3e4e5" fill-rule="evenodd" stroke-width="1.041922"/><path d="m582.24415 453.27738 2.92046 2.26207.97348 6.06159-3.66489 1.90198-1.48885-9.39038z" fill="#e3e4e5" fill-rule="evenodd" stroke-width="1.041922"/><path d="m567.24099 460.42202 2.92047 2.26207.97348 6.06159-3.66489 1.90198-1.48886-9.39038z" fill="#e3e4e5" fill-rule="evenodd" stroke-width="1.041922"/><path d="m582.35934 453.14012-3.5276 1.72234.89685 7.67811-3.79664 1.67202-.92674-7.52051-3.76675 1.82692.86695 7.42947-3.79665 1.64077-.89684-7.24061-3.73686 1.79431 1.79369 13.57498c1.06021 2.31352 2.26129 4.62974 1.82359 7.01113-4.0494 10.26417-9.84766 19.86092-16.50195 29.15393l7.82481 3.30585c-5.66758 11.98403-12.37685 23.58322-20.75024 34.47763l27.544 15.24167 39.84982-77.11806-10.10445-18.72967-2.66064-16.6607-3.13896-2.60778-3.16886 1.51858.92674 7.83301-3.79664 1.67202z" fill="#e3e4e5" fill-rule="evenodd" stroke-linejoin="bevel" stroke-width="1.041922"/><path d="m590.14914 450.26364 1.51999 13.7972c1.06058 2.99165 1.25485 5.95477.0197 8.87077-11.55741 29.63385-28.41395 64.08198-41.04161 80.78112l24.20842 11.03134 1.26992 1.31949 19.24033 19.99167c3.85231-25.81716 13.87202-55.97443 25.32841-85.71324 1.44421-1.62233 5.25149-3.91375 7.02962-4.35046l-.56076-13.42312-5.2927-4.71627.16825 6.06222-5.31591-4.66006-.14033-6.02256-5.28982-4.6576.14998 6.11016-5.13258-4.64125-.29419-5.86137-5.2946-4.75513.28874 6.10397-5.3065-4.65582-.26418-5.94558-5.29021-4.66548z" fill="#e3e4e5" stroke-linejoin="bevel" stroke-width="1.041922"/><path d="m591.53071 464.39437 36.02138 31.70549z" fill="none" stroke-width="1.041922"/><g transform="matrix(.8790016 -.1392886 .04891008 .9945481 45.385186 88.851643)"><g stroke-width="1.110049"><path d="m594.60358 470.73431 32.16675 30.47287z" fill="none"/><path d="m558.97589 527.27166 39.29413 37.38631" fill="none"/><path d="m567.02827 516.97129 36.21418 34.30717" fill="none"/><path d="m574.34248 505.8103 34.34177 32.53335" fill="none"/><path d="m581.34438 494.35341 33.09395 31.35125" fill="none"/><path d="m587.95694 482.52772 32.70407 30.9819" fill="none"/><path d="m595.27885 495.17346c-1.27263-1.05998-3.05892-.8819-4.98585 2.66451-2.05639 3.78455-5.90574 11.32063-5.90574 11.32063l5.15641 4.85397s3.84556-7.03605 5.92852-11.13299c2.08366-4.09843 1.33295-6.17714.0506-7.47506-.0802-.0811-.15905-.16038-.24391-.23106z" fill-rule="evenodd" stroke-linecap="round" stroke-linejoin="round"/><path d="m608.8454 508.0256c-1.27263-1.05998-3.05892-.88189-4.98584 2.66452-2.0564 3.78455-5.89489 11.30001-5.89485 11.30004l5.1346 4.89515s3.84491-7.06759 5.92784-11.16457c2.08366-4.09843 1.34455-6.16614.0621-7.46408-.0802-.0811-.15904-.16038-.2439-.23106z" fill-rule="evenodd" stroke-linecap="round" stroke-linejoin="round"/><path d="m584.89498 515.46512 2.0438-3.86072" fill="none"/><path d="m598.45682 528.31283 2.04382-3.86073" fill="none"/><path d="m591.46895 522.27324-6.4234 12.13368" fill="none"/><path d="m556.20963 549.91198 8.81673-16.44957" fill="none"/><path d="m584.78676 573.65622 7.57106-14.30162" fill="none"/><path d="m571.46741 521.29537 6.41331-12.11463" fill="none"/><path d="m598.79887 547.18756 6.41331-12.11463" fill="none"/><path d="m604.41155 497.82489-6.61072 12.48754" fill="none"/><path d="m584.31756 497.02169 6.24582-11.79825" fill="none"/><path d="m611.64901 522.91389 6.24583-11.79826" fill="none"/></g><g fill-rule="evenodd" stroke-linecap="round" stroke-linejoin="round" stroke-width="1.027229" transform="matrix(1.0352063 .2419257 .0548225 1.1408476 -51.855495 -229.45666)"><path d="m590.59932 537.80574c-4.10572-2.97365-9.79856-2.86105-15.21996 6.43799-5.42402 9.30325-13.37064 24.0017-13.37054 24.00165l2.97914 2.47011c.81397-1.48683 7.75173-13.95452 12.07994-21.44116 1.16225-2.01038 2.11935-3.67363 3.17719-4.84975.52887-.58809 1.05231-1.08003 1.55138-1.48658.49894-.40646.87294-.80615 1.33951-1.04904.46648-.24289.83628-.44963 1.2679-.547.43153-.0973.78231-.18053 1.17626-.15024.78804.0605 2.15118.36777 2.77374.83078.62257.46289 1.25059 1.5287 1.64617 2.25961.19774.36548.24232.70672.35522 1.15874.11282.45204.0396.82752.0489 1.37915.009.55168-.009 1.17991-.12223 1.84435-.11319.66444-.30043 1.40315-.55471 2.19331-.50862 1.58036-1.51001 3.29089-2.677 5.46447-4.34547 8.0936-11.25425 19.83542-12.05686 21.2121l3.42166 1.87248s8.02424-13.60577 13.46619-23.6615c5.44381-10.05913 2.82381-14.96586-1.28185-17.93947z" fill="#e3e4e5"/><path d="m565.14581 570.39726s7.44793-13.57164 12.09958-21.61679c4.64953-8.04138 8.56126-8.82181 11.06866-6.95838 2.50728 1.86338 3.79679 5.45188-.94499 14.09968-4.74009 8.64473-12.12721 21.33695-12.12721 21.33695z"/></g><path d="m597.5107 491.63419 6.26681-11.83792" fill="none" stroke-width="1.110049"/><path d="m611.07253 504.48191 6.26683-11.83792" fill="none" stroke-width="1.110049"/></g><g stroke-width="1.041922"><path d="m591.27782 474.53013-24.18108 8.8145" fill="none"/><path d="m592.00813 464.7424-26.37199 10.94953" fill="none"/><path d="m586.0233 487.09253-23.21414 5.66982" fill="none"/><path d="m580.46047 499.71589c-.74884 0-24.60485 5.02795-24.60485 5.02795" fill="none"/><path d="m574.46975 512.44622-15.83268 2.78142" fill="none"/><path d="m568.47898 524.10678-15.51175 2.13956" fill="none"/><path d="m562.48823 535.66036-16.90246 2.99538" fill="none"/><path d="m571.52536 481.55012-4.10143 9.98609" fill="none"/><path d="m584.00797 477.09204-4.45808 11.591" fill="none"/><path d="m561.18262 503.30553-6.24131 10.52106" fill="none"/><path d="m573.30859 501.16565-6.41963 12.48262" fill="none"/><path d="m560.64765 525.06094-6.59795 12.12597" fill="none"/><path d="m566.71063 502.41391 6.24131-12.12596" fill="none"/></g></g><g transform="matrix(.99929070759 -.05904394883 -.04285176844 .9249250969 566.62045168716 217.89143265776)"><path d="m611.48304 468.7732-5.01623 2.02307.84544 7.92304 6.03074-.27325.28181-7.85439z" fill="#e3e4e5" fill-rule="evenodd" stroke-width="1.041922"/><path d="m621.79055 477.76401-5.01623 2.02307.84544 7.92305 6.03074-.27325.28181-7.8544z" fill="#e3e4e5" fill-rule="evenodd" stroke-width="1.041922"/><path d="m601.00374 459.7303-5.01623 2.02307.84543 7.92305 6.03074-.27325.28182-7.8544z" fill="#e3e4e5" fill-rule="evenodd" stroke-width="1.041922"/><path d="m574.91436 456.84192 2.92047 2.26207.97348 6.06159-3.66489 1.90198-1.48886-9.39038z" fill="#e3e4e5" fill-rule="evenodd" stroke-width="1.041922"/><path d="m582.24415 453.27738 2.92046 2.26207.97348 6.06159-3.66489 1.90198-1.48885-9.39038z" fill="#e3e4e5" fill-rule="evenodd" stroke-width="1.041922"/><path d="m567.24099 460.42202 2.92047 2.26207.97348 6.06159-3.66489 1.90198-1.48886-9.39038z" fill="#e3e4e5" fill-rule="evenodd" stroke-width="1.041922"/><path d="m582.35934 453.14012-3.5276 1.72234.89685 7.67811-3.79664 1.67202-.92674-7.52051-3.76675 1.82692.86695 7.42947-3.79665 1.64077-.89684-7.24061-3.73686 1.79431 1.79369 13.57498c1.06021 2.31352 2.26129 4.62974 1.82359 7.01113-4.0494 10.26417-9.84766 19.86092-16.50195 29.15393l7.82481 3.30585c-5.66758 11.98403-12.37685 23.58322-20.75024 34.47763l27.544 15.24167 39.84982-77.11806-10.10445-18.72967-2.66064-16.6607-3.13896-2.60778-3.16886 1.51858.92674 7.83301-3.79664 1.67202z" fill="#e3e4e5" fill-rule="evenodd" stroke-linejoin="bevel" stroke-width="1.041922"/><path d="m590.14914 450.26364 1.51999 13.7972c1.06058 2.99165 1.25485 5.95477.0197 8.87077-11.55741 29.63385-28.41395 64.08198-41.04161 80.78112l24.20842 11.03134 1.26992 1.31949 19.24033 19.99167c3.85231-25.81716 13.87202-55.97443 25.32841-85.71324 1.44421-1.62233 5.25149-3.91375 7.02962-4.35046l-.56076-13.42312-5.2927-4.71627.16825 6.06222-5.31591-4.66006-.14033-6.02256-5.28982-4.6576.14998 6.11016-5.13258-4.64125-.29419-5.86137-5.2946-4.75513.28874 6.10397-5.3065-4.65582-.26418-5.94558-5.29021-4.66548z" fill="#e3e4e5" stroke-linejoin="bevel" stroke-width="1.041922"/><path d="m591.53071 464.39437 36.02138 31.70549z" fill="none" stroke-width="1.041922"/><g transform="matrix(.8790016 -.1392886 .04891008 .9945481 45.385186 88.851643)"><g stroke-width="1.110049"><path d="m594.60358 470.73431 32.16675 30.47287z" fill="none"/><path d="m558.97589 527.27166 39.29413 37.38631" fill="none"/><path d="m567.02827 516.97129 36.21418 34.30717" fill="none"/><path d="m574.34248 505.8103 34.34177 32.53335" fill="none"/><path d="m581.34438 494.35341 33.09395 31.35125" fill="none"/><path d="m587.95694 482.52772 32.70407 30.9819" fill="none"/><path d="m595.27885 495.17346c-1.27263-1.05998-3.05892-.8819-4.98585 2.66451-2.05639 3.78455-5.90574 11.32063-5.90574 11.32063l5.15641 4.85397s3.84556-7.03605 5.92852-11.13299c2.08366-4.09843 1.33295-6.17714.0506-7.47506-.0802-.0811-.15905-.16038-.24391-.23106z" fill-rule="evenodd" stroke-linecap="round" stroke-linejoin="round"/><path d="m608.8454 508.0256c-1.27263-1.05998-3.05892-.88189-4.98584 2.66452-2.0564 3.78455-5.89489 11.30001-5.89485 11.30004l5.1346 4.89515s3.84491-7.06759 5.92784-11.16457c2.08366-4.09843 1.34455-6.16614.0621-7.46408-.0802-.0811-.15904-.16038-.2439-.23106z" fill-rule="evenodd" stroke-linecap="round" stroke-linejoin="round"/><path d="m584.89498 515.46512 2.0438-3.86072" fill="none"/><path d="m598.45682 528.31283 2.04382-3.86073" fill="none"/><path d="m591.46895 522.27324-6.4234 12.13368" fill="none"/><path d="m556.20963 549.91198 8.81673-16.44957" fill="none"/><path d="m584.78676 573.65622 7.57106-14.30162" fill="none"/><path d="m571.46741 521.29537 6.41331-12.11463" fill="none"/><path d="m598.79887 547.18756 6.41331-12.11463" fill="none"/><path d="m604.41155 497.82489-6.61072 12.48754" fill="none"/><path d="m584.31756 497.02169 6.24582-11.79825" fill="none"/><path d="m611.64901 522.91389 6.24583-11.79826" fill="none"/></g><g fill-rule="evenodd" stroke-linecap="round" stroke-linejoin="round" stroke-width="1.027229" transform="matrix(1.0352063 .2419257 .0548225 1.1408476 -51.855495 -229.45666)"><path d="m590.59932 537.80574c-4.10572-2.97365-9.79856-2.86105-15.21996 6.43799-5.42402 9.30325-13.37064 24.0017-13.37054 24.00165l2.97914 2.47011c.81397-1.48683 7.75173-13.95452 12.07994-21.44116 1.16225-2.01038 2.11935-3.67363 3.17719-4.84975.52887-.58809 1.05231-1.08003 1.55138-1.48658.49894-.40646.87294-.80615 1.33951-1.04904.46648-.24289.83628-.44963 1.2679-.547.43153-.0973.78231-.18053 1.17626-.15024.78804.0605 2.15118.36777 2.77374.83078.62257.46289 1.25059 1.5287 1.64617 2.25961.19774.36548.24232.70672.35522 1.15874.11282.45204.0396.82752.0489 1.37915.009.55168-.009 1.17991-.12223 1.84435-.11319.66444-.30043 1.40315-.55471 2.19331-.50862 1.58036-1.51001 3.29089-2.677 5.46447-4.34547 8.0936-11.25425 19.83542-12.05686 21.2121l3.42166 1.87248s8.02424-13.60577 13.46619-23.6615c5.44381-10.05913 2.82381-14.96586-1.28185-17.93947z" fill="#e3e4e5"/><path d="m565.14581 570.39726s7.44793-13.57164 12.09958-21.61679c4.64953-8.04138 8.56126-8.82181 11.06866-6.95838 2.50728 1.86338 3.79679 5.45188-.94499 14.09968-4.74009 8.64473-12.12721 21.33695-12.12721 21.33695z"/></g><path d="m597.5107 491.63419 6.26681-11.83792" fill="none" stroke-width="1.110049"/><path d="m611.07253 504.48191 6.26683-11.83792" fill="none" stroke-width="1.110049"/></g><g stroke-width="1.041922"><path d="m591.27782 474.53013-24.18108 8.8145" fill="none"/><path d="m592.00813 464.7424-26.37199 10.94953" fill="none"/><path d="m586.0233 487.09253-23.21414 5.66982" fill="none"/><path d="m580.46047 499.71589c-.74884 0-24.60485 5.02795-24.60485 5.02795" fill="none"/><path d="m574.46975 512.44622-15.83268 2.78142" fill="none"/><path d="m568.47898 524.10678-15.51175 2.13956" fill="none"/><path d="m562.48823 535.66036-16.90246 2.99538" fill="none"/><path d="m571.52536 481.55012-4.10143 9.98609" fill="none"/><path d="m584.00797 477.09204-4.45808 11.591" fill="none"/><path d="m561.18262 503.30553-6.24131 10.52106" fill="none"/><path d="m573.30859 501.16565-6.41963 12.48262" fill="none"/><path d="m560.64765 525.06094-6.59795 12.12597" fill="none"/><path d="m566.71063 502.41391 6.24131-12.12596" fill="none"/></g></g><g stroke-width="1.242921" transform="matrix(.8338645 0 0 .7767764 122.53077 217.41796)"><path d="m975.40636 603.56039c202.86444 0 237.65054 53.93457 228.72184 63.14742 52.8571-21.22155-25.538-81.0706-228.72184-81.0706-203.18373 0-282.99091 59.82412-228.72175 81.0706-8.92872-9.21285 25.85743-63.14742 228.72175-63.14742z" fill="#e3e4e5" fill-rule="evenodd"/><g fill="none"><path d="m1065.5237 590.13492c-19.8844-2.17659-44.0862 1.20624-36.5177 14.73014"/><path d="m1107.9021 595.87565c-28.0643-4.33867-42.3641 2.60392-39.5956 11.85978"/><path d="m1178.43 615.17539c-29.2603-8.51273-42.7708-2.05594-40.6163 5.10474"/><path d="m1210.4319 633.85878c-12.3668-8.58324-40.6556-17.48366-42.0878-2.89971"/><path d="m1218.272 656.87385c-.3346-18.94753-26.735-19.30063-25.9392-12.08498"/><path d="m935.67434 586.46224c-25.44214 1.33486-35.15526 12.20236-29.45654 19.44662"/><path d="m897.06848 589.08142c-27.34747 3.83849-30.59264 14.60307-25.44216 19.94891"/><path d="m769.67014 616.01704c-22.15908 9.99138-15.46315 27.37908-10.6563 28.56249"/><path d="m976.59796 585.6892c-17.77309-.98474-38.7286 7.32341-28.3049 18.13216"/><path d="m1019.0761 586.73296c-27.90334-.74081-35.98814 8.2327-31.73784 16.82743"/><path d="m1146.2972 604.52064c-39.0046-8.15114-43.1891 1.44012-42.5177 8.43358"/><path d="m741.60503 631.71708c-6.40678 4.9309-6.42613 21.67406 4.99257 25.94813"/><path d="m797.6109 606.37926c-23.56836 5.81048-20.02702 23.67878-15.50237 25.6406"/><path d="m824.64064 599.46201c-23.97897 3.60464-21.97891 20.90084-17.63864 23.13777"/><path d="m857.47615 593.58642c-23.97393 3.40375-24.53239 18.51162-20.52332 21.29894"/></g></g></g><g fill="#ed1c24" stroke-width="1.073716" transform="matrix(.21527905781 0 0 .23092759622 -1.29453088393 117.87561717648)"><g fill="#ed1c24"><path d="m188.27252 933.35698c-6.53199-22.5682 57.61255-12.77054 65.61093-33.61632l3.7226-57.76493c-6.62476 8.93947-1.53023 18.79515-53.97762 24.14774-26.60029-.47282-39.48724 7.02826-48.86011 16.57132-.47149 21.76457 12.93121 37.71585 33.5042 50.66219z" stroke-width="1.073716"/><g stroke-linejoin="round" stroke-width=".12507" transform="matrix(8.5107317 0 0 8.6597599 -70.254572 -327.52134)"><path d="m121.986 120.498s4.3856 11.751-1.6917 17.2633c0 0-2.1303 3.3918-12.5932 2.1806 0 0 .9408 4.572-2.506 6.3601-.2893-2.5349-6.8338-.8201-9.9865-3.7721.0242 0 .0464-7.201.4024-7.1789 4.0982-8.142 28.5226 6.6047 18.2007-12.5216l5.0575 1.3943z"/><path d="m25.9769 142.589c-.2176 1.7863.1086 7.5658.1086 7.5658s-.566.9611 5.7607 3.6779c6.8275 2.9321 14.3999 4.2535 28.0042 4.8708 13.6448.6189 26.9936-1.0876 35.3628-2.4536 8.3696-1.3662 10.9779-3.8881 11.8474-5.1492.8699-1.261.7611-9.5626.7611-9.5626.3033 1.2042-1.0594 2.18473-1.0594 2.18473-2.7255 3.5435-7.202092 3.34571-11.006492 4.39671-3.8043 1.0508-16.737508 2.14857-20.759208 2.35897-4.0216.2106-4.1302.2099-15.9776.2099-11.8472 0-22.823642-3.93658-22.823642-3.93658-10.8691-3.1524-9.566058-6.05413-9.566058-6.05413-.0863-.5831.0796-1.0468.4008-1.4152 1.2997-1.4896 5.1422-1.422 5.1422-1.422 11.6148-1.0219 5.1785-7.2785-3.9127-5.9901-3.6956.2101-5.8693 1.1561-8.2607.3156-2.3909-.8405-2.0649-4.7291-1.3042-7.0406.7609-2.3117 1.9567-2.3119 1.0869-2.5219-.8696-.2103-4.9996 1.1558-4.9996 1.1558l-1.78-4.4966c-3.8547 18.534 1.3812 21.1656 13.4928 20.22z"/></g><path d="m743.465 843.2262c-.5532.0563 6.02559 24.41533 35.91528 27.79523 15.44358 1.74668 66.81606 1.21497 67.24755 14.22193" stroke-linejoin="round" stroke-width="1.073716"/></g><g fill="#edc102" stroke-width=".5" transform="matrix(1.1072708 0 0 1.0411799 224.39622 -134.99125)"><path d="m75.336524 1108.2966 19.86485-35.7469 5.389046.7625 10.12297 39.9894-5.69846-.8062-2.78951-12.0723-15.806133-2.2362-5.771076 10.8611zm13.1031-13.9795 12.815086 1.8131-2.464-11.0268q-1.130063-5.0256-1.572638-8.218-1.236344 3.5335-3.058444 6.9316z"/><path d="m114.58611 1113.6199 3.952-37.9719 5.02494.5229-3.48563 33.491 18.70108 1.9464-.46637 4.481z"/><path d="m140.15153 1116.3117 17.39253-37.0128 5.42837.3949 12.81411 39.21-5.74004-.4175-3.60254-11.8551-15.92148-1.1581-5.02051 11.2278zm12.12395-14.8366 12.9086.939-3.20682-10.8341q-1.46859-4.9373-2.12685-8.0923-.99363 3.6093-2.58087 7.1232z"/><path d="m198.32736 1104.8552.18043-4.4755 16.1598.6254-.57068 14.1552q-3.84053 2.8163-7.85649 4.1661-4.01492 1.3237-8.1782 1.1558-5.62044-.2266-10.12956-2.8061-4.48205-2.6046-6.64031-7.2526-2.15827-4.648-1.93168-10.2684.2245-5.5684 2.7344-10.2888 2.53697-4.7454 7.00283-6.9111 4.46587-2.1656 10.16436-1.9358 4.13726.1668 7.41334 1.6541 3.30315 1.4624 5.10614 3.9329 1.80298 2.4704 2.6365 6.3613l-4.60394 1.0654q-.74119-2.9489-1.94905-4.6656-1.20787-1.7167-3.53588-2.801-2.32695-1.1102-5.21523-1.2267-3.46073-.1395-6.02773.8256-2.56596.9391-4.19642 2.5935-1.60445 1.6554-2.546 3.6764-1.59982 3.4801-1.76662 7.6173-.20561 5.1001 1.39929 8.6051 1.63092 3.506 4.92043 5.3066 3.28951 1.8007 7.06249 1.9528 3.27858.1322 6.4514-.9909 3.17387-1.1491 4.84484-2.5152l.28638-7.1036z"/><path d="m219.92719 1102.0199q.0805-9.5048 5.22993-14.826 5.14965-5.3472 13.22227-5.2788 5.28627.045 9.50952 2.6067 4.22324 2.5619 6.39832 7.1117 2.20134 4.524 2.15282 10.253-.0492 5.8071-2.43168 10.3704-2.38249 4.5633-6.69928 6.8966-4.31657 2.3073-9.29035 2.2652-5.39044-.046-9.61302-2.6857-4.22258-2.64-6.37184-7.1636-2.14926-4.5236-2.10669-9.5495zm5.20749.1223q-.0585 6.9008 3.60558 10.9163 3.69029 3.9898 9.28905 4.0372 5.70292.048 9.40863-3.9309 3.73176-3.9789 3.79418-11.3485.0395-4.6612-1.51966-8.1381-1.53289-3.5027-4.56355-5.4295-3.00441-1.9526-6.78031-1.9846-5.36439-.045-9.27578 3.6195-3.88513 3.6391-3.95814 12.2586z"/><path d="m263.62292 1120.7408-.47191-38.1742 5.0517-.062.4719 38.1742z"/><path d="m277.50405 1120.6076-1.22736-38.1574 5.17962-.1666 21.00535 29.3138-.96364-29.9585 4.84125-.1557 1.22735 38.1574-5.17961.1666-21.00619-29.3399.96447 29.9845z"/><path d="m316.232 1119.2445-2.36137-38.104 5.04241-.3125.96968 15.6471 19.80575-1.2274-.96967-15.6471 5.04241-.3124 2.36136 38.1039-5.04241.3125-1.11303-17.9603-19.80575 1.2274 1.11303 17.9603z"/><path d="m350.36263 1117.1268 11.03838-39.3777 5.419-.5074 19.11617 36.5541-5.73014.5365-5.51169-11.0969-15.89402 1.4882-3.09648 11.9031zm9.50608-16.6358 12.88634-1.2066-4.95272-10.1554q-2.26413-4.6268-3.43461-7.6297-.38366 3.7238-1.36853 7.4517z"/><path d="m386.71798 1101.3555 4.67273-1.0249q.70342 2.7974 2.15457 4.474 1.47364 1.6474 4.20334 2.4495 2.72636.7762 5.95464.3584 2.86671-.371 4.95164-1.5074 2.08493-1.1364 2.95328-2.7455.89084-1.6383.66354-3.3945-.23063-1.782-1.43415-2.9655-1.20687-1.2092-3.69987-1.8056-1.60063-.3968-6.97798-.9613-5.38069-.5903-7.61634-1.4301-2.8956-1.0694-4.50931-2.9876-1.59123-1.9472-1.92883-4.5557-.37102-2.8667.93515-5.5566 1.30283-2.7157 4.26068-4.4115 2.95785-1.6958 6.78014-2.1905 4.20968-.5448 7.58929.4095 3.40209.9252 5.47339 3.3355 2.0713 2.4103 2.63162 5.7252l-4.75689.9833q-.85201-3.5397-3.33621-5.0826-2.45838-1.5462-6.82302-.9813-4.54542.5883-6.42008 2.5377-1.85218 1.9203-1.54801 4.2705.26406 2.0403 1.90663 3.1669 1.61674 1.13 7.89223 1.7357 6.29798.5766 8.7044 1.3155 3.50297 1.0959 5.38254 3.2422 1.87623 2.1205 2.27065 5.168.39108 3.0217-.99165 5.9316-1.38608 2.884-4.44632 4.8031-3.03776 1.8899-7.09248 2.4147-5.13943.6652-8.81984-.3815-3.65459-1.05-6.03095-3.7885-2.35387-2.7676-2.94853-6.5507z"/></g></g><g transform="matrix(.23837222 0 0 .24043716 222.69421401238 168.02164809669)"><path d="m-736.45095 128.95556c.20428 120.74427-.41112 241.50189.31223 362.2377 3.84688 108.35616 86.78735 207.32536 192.69995 230.20877 97.98289 23.86986 207.67243-19.02703 262.97757-103.62082 33.12211-47.31055 45.32012-105.85975 42.58892-162.85183 0-108.65794 0-217.31588 0-325.97382-166.1929 0-332.38572 0-498.57867 0z" fill="#e3e4e5" fill-rule="evenodd"/><path d="m-565.69226 413.71187a1.863808 1.9007253 0 0 0 -1.86458 1.90151v11.74676h-15.52132a1.863808 1.9007253 0 0 0 -1.86458 1.8942v8.0098h3.72195v-6.10833h13.66395v3.42123h-1.6558v1.90153l-1.84296-.24227-1.99418 15.88747a1.863808 1.9007253 0 0 0 -.0218.19087l-1.92938 15.39567a1.863808 1.9007253 0 0 0 -.0288.21282l-2.01576 16.08571-.007.066a1.863808 1.9007253 0 0 0 -.0218.16157l-1.91498 15.27086a1.863808 1.9007253 0 0 0 -.0288.21283l-2.40448 19.16191a1.863808 1.9007253 0 0 0 -.0145.10216l-1.01507 8.11997h-13.2608a1.863808 1.9007253 0 0 0 -1.85738 1.89407v20.58632a1.863808 1.9007253 0 0 0 1.85738 1.89421h10.20115l-1.05826 8.46489-3.18922 25.4024a1.863808 1.9007253 0 0 0 0 .0298l-8.24301 65.7084 3.70038.48454 4.8018-38.31651 29.38687-12.33399v62.28714h3.72913v-62.28708l29.38687 12.33399 4.80182 38.31651 3.69314-.48453-8.22861-65.60562a1.863808 1.9007253 0 0 0 -.0145-.15419l-3.17481-25.285a1.863808 1.9007253 0 0 0 -.0218-.16144v-.0299a1.863808 1.9007253 0 0 0 0-.0132l-1.05107-8.36211h10.20836a1.863808 1.9007253 0 0 0 1.86457-1.89421v-20.58628a1.863808 1.9007253 0 0 0 -1.86457-1.89407h-13.26078l-1.02228-8.14205-.007-.0812a1.863808 1.9007253 0 0 0 -.007-.0361l-2.39733-19.11042v-.0149a1.863808 1.9007253 0 0 0 -.0288-.2349l-1.91496-15.26351-.007-.0738a1.863808 1.9007253 0 0 0 -.007-.0509l-2.03737-16.2252-1.95815-15.59377v-.0366a1.863808 1.9007253 0 0 0 -.0288-.18355l-1.97979-15.8214-1.84297.24226v-1.90149h-1.65582v-3.42123h13.65676v6.10832h3.72917v-8.00982a1.863808 1.9007253 0 0 0 -1.86457-1.8942h-15.52133v-11.74676a1.863808 1.9007253 0 0 0 -1.86456-1.90151zm1.85738 3.80302h11.16583v9.84525h-11.16583zm0 13.64092h11.16583v3.42123h-11.16583zm.85671 7.22425h2.86522v1.91623zm6.59439 0h2.86526l-2.86526 1.91623zm-11.35302 1.35091 6.09045 4.08195-7.20631 4.82355zm18.97691 0 1.11585 8.9055-7.20634-4.82355zm-11.35306 7.59864v9.19189l-7.48708-4.17744zm3.72917 0 7.4871 5.01445-7.4871 4.17744zm-13.33278 8.16396 7.58065 4.22902-8.71814 4.86746zm22.93643 0 1.13744 9.09648-8.71814-4.86746zm-13.33282 7.43721v9.68369l-9.04209-4.63995zm3.72917 0 9.04212 5.04374-9.04212 4.63995zm-15.26935 8.02464 9.25088 4.74274-10.52515 5.39605zm26.80957 0 1.27423 10.13879-10.52511-5.39605zm-15.26939 7.82617v10.05807l-10.66189-4.5959zm3.72917 0 10.66191 5.46217-10.66191 4.5959zm-17.29952 8.34027 10.64752 4.58118-11.86418 5.10986zm30.86988 0 1.21664 9.69104-11.86416-5.10986zm-17.29953 7.45179v11.3576l-12.47608-5.98339zm3.72917 0 12.4761 5.37421-12.4761 5.98339zm-19.25047 8.11262 13.00883 6.24782-14.67183 7.04076zm34.77181 0 1.66299 13.28858-14.67183-7.04076zm-19.25051 9.2432v14.13289l-15.01735-6.92324zm3.72917 0 15.01738 7.20965-15.01738 6.92324zm-21.66939 10.02886 11.16585 5.14655h-11.80657zm39.60963 0 .64072 5.14655h-11.80659zm-55.40452 8.94219h10.92108l-1.10866 8.83216a1.863808 1.9007253 0 0 0 -.0145.0887l-.98628 7.86297h-8.81176zm14.67903 0h12.28171l-13.03762 6.00558zm29.55962 0h12.28175l.75589 6.00558zm16.03968 0h10.92108v16.7832h-8.81894l-.97908-7.79686v-.0435a1.863808 1.9007253 0 0 0 -.0288-.18363zm-26.54322 1.04989v14.8522l-17.28509-6.88643zm3.72917 0 17.28512 7.96577-17.28512 6.88643zm-24.26826 10.74833 12.51208 4.98498h-13.13842zm44.80738 0 .62633 4.98498h-13.13841zm-45.90886 8.78074h13.63515l-14.34786 5.71916zm33.37518 0h13.63515l.71271 5.71916zm-11.73461.8882v16.86394l-19.76881-8.9862zm3.72917 0 19.76881 7.87774-19.76881 8.9862zm-26.80237 10.54287 20.35914 9.25058-22.81406 10.36643zm49.87559 0 2.45491 19.61701-22.81404-10.36643zm-26.80239 12.17244v20.16042l-23.066-9.67632zm3.72917 0 23.06602 10.4841-23.06602 9.67632zm-29.99159 13.25193 23.22441 9.74969-25.80167 10.82179zm56.25403 0 2.57728 20.57148-25.8017-10.82179z" stroke-linejoin="round" stroke-width=".5"/><path d="m-635.69226 413.71187a1.863808 1.9007253 0 0 0 -1.86458 1.90151v11.74676h-15.52132a1.863808 1.9007253 0 0 0 -1.86458 1.8942v8.0098h3.72195v-6.10833h13.66395v3.42123h-1.6558v1.90153l-1.84296-.24227-1.99418 15.88747a1.863808 1.9007253 0 0 0 -.0218.19087l-1.92938 15.39567a1.863808 1.9007253 0 0 0 -.0288.21282l-2.01576 16.08571-.007.066a1.863808 1.9007253 0 0 0 -.0218.16157l-1.91498 15.27086a1.863808 1.9007253 0 0 0 -.0288.21283l-2.40448 19.16191a1.863808 1.9007253 0 0 0 -.0145.10216l-1.01507 8.11997h-13.2608a1.863808 1.9007253 0 0 0 -1.85738 1.89407v20.58632a1.863808 1.9007253 0 0 0 1.85738 1.89421h10.20115l-1.05826 8.46489-3.18922 25.4024a1.863808 1.9007253 0 0 0 0 .0298l-8.24301 65.7084 3.70038.48454 4.8018-38.31651 29.38687-12.33399v62.28714h3.72913v-62.28708l29.38687 12.33399 4.80182 38.31651 3.69314-.48453-8.22861-65.60562a1.863808 1.9007253 0 0 0 -.0145-.15419l-3.17481-25.285a1.863808 1.9007253 0 0 0 -.0218-.16144v-.0299a1.863808 1.9007253 0 0 0 0-.0132l-1.05107-8.36211h10.20836a1.863808 1.9007253 0 0 0 1.86457-1.89421v-20.58628a1.863808 1.9007253 0 0 0 -1.86457-1.89407h-13.26078l-1.02228-8.14205-.007-.0812a1.863808 1.9007253 0 0 0 -.007-.0361l-2.39733-19.11042v-.0149a1.863808 1.9007253 0 0 0 -.0288-.2349l-1.91496-15.26351-.007-.0738a1.863808 1.9007253 0 0 0 -.007-.0509l-2.03737-16.2252-1.95815-15.59377v-.0366a1.863808 1.9007253 0 0 0 -.0288-.18355l-1.97979-15.8214-1.84297.24226v-1.90149h-1.65582v-3.42123h13.65676v6.10832h3.72917v-8.00982a1.863808 1.9007253 0 0 0 -1.86457-1.8942h-15.52133v-11.74676a1.863808 1.9007253 0 0 0 -1.86456-1.90151zm1.85738 3.80302h11.16583v9.84525h-11.16583zm0 13.64092h11.16583v3.42123h-11.16583zm.85671 7.22425h2.86522v1.91623zm6.59439 0h2.86526l-2.86526 1.91623zm-11.35302 1.35091 6.09045 4.08195-7.20631 4.82355zm18.97691 0 1.11585 8.9055-7.20634-4.82355zm-11.35306 7.59864v9.19189l-7.48708-4.17744zm3.72917 0 7.4871 5.01445-7.4871 4.17744zm-13.33278 8.16396 7.58065 4.22902-8.71814 4.86746zm22.93643 0 1.13744 9.09648-8.71814-4.86746zm-13.33282 7.43721v9.68369l-9.04209-4.63995zm3.72917 0 9.04212 5.04374-9.04212 4.63995zm-15.26935 8.02464 9.25088 4.74274-10.52515 5.39605zm26.80957 0 1.27423 10.13879-10.52511-5.39605zm-15.26939 7.82617v10.05807l-10.66189-4.5959zm3.72917 0 10.66191 5.46217-10.66191 4.5959zm-17.29952 8.34027 10.64752 4.58118-11.86418 5.10986zm30.86988 0 1.21664 9.69104-11.86416-5.10986zm-17.29953 7.45179v11.3576l-12.47608-5.98339zm3.72917 0 12.4761 5.37421-12.4761 5.98339zm-19.25047 8.11262 13.00883 6.24782-14.67183 7.04076zm34.77181 0 1.66299 13.28858-14.67183-7.04076zm-19.25051 9.2432v14.13289l-15.01735-6.92324zm3.72917 0 15.01738 7.20965-15.01738 6.92324zm-21.66939 10.02886 11.16585 5.14655h-11.80657zm39.60963 0 .64072 5.14655h-11.80659zm-55.40452 8.94219h10.92108l-1.10866 8.83216a1.863808 1.9007253 0 0 0 -.0145.0887l-.98628 7.86297h-8.81176zm14.67903 0h12.28171l-13.03762 6.00558zm29.55962 0h12.28175l.75589 6.00558zm16.03968 0h10.92108v16.7832h-8.81894l-.97908-7.79686v-.0435a1.863808 1.9007253 0 0 0 -.0288-.18363zm-26.54322 1.04989v14.8522l-17.28509-6.88643zm3.72917 0 17.28512 7.96577-17.28512 6.88643zm-24.26826 10.74833 12.51208 4.98498h-13.13842zm44.80738 0 .62633 4.98498h-13.13841zm-45.90886 8.78074h13.63515l-14.34786 5.71916zm33.37518 0h13.63515l.71271 5.71916zm-11.73461.8882v16.86394l-19.76881-8.9862zm3.72917 0 19.76881 7.87774-19.76881 8.9862zm-26.80237 10.54287 20.35914 9.25058-22.81406 10.36643zm49.87559 0 2.45491 19.61701-22.81404-10.36643zm-26.80239 12.17244v20.16042l-23.066-9.67632zm3.72917 0 23.06602 10.4841-23.06602 9.67632zm-29.99159 13.25193 23.22441 9.74969-25.80167 10.82179zm56.25403 0 2.57728 20.57148-25.8017-10.82179z" stroke-linejoin="round" stroke-width=".5"/><g fill-rule="evenodd"><path d="m-239.65715 400.65626h-248.6354v326.86991c5.05907-.0359 10.11103-.24325 15.15688-.59177 5.04585-.34851 10.07883-.84031 15.09438-1.49497s10.00121-1.44384 14.96938-2.39819c4.96816-.95435 9.90945-2.08495 14.81311-3.33254 4.90367-1.2476 9.77228-2.63909 14.59437-4.17347 4.82209-1.53439 9.58968-3.19968 14.3131-5.0144s9.39293-3.76671 14.00058-5.85531c4.60765-2.08861 9.18201-4.30905 13.65682-6.6651s8.86319-4.85784 13.18806-7.47487c4.32486-2.61703 8.56146-5.35079 12.71928-8.22236 4.15783-2.87156 8.24557-5.88134 12.21926-9.00099 3.9737-3.11965 7.85301-6.35605 11.62549-9.71733 3.73951-3.3319 7.35038-6.77723 10.87545-10.34024.0517-.0523.10463-.10337.15626-.15573 3.38225-3.42504 6.64371-6.95695 9.81291-10.5894.39289-.45088.76682-.91637 1.1563-1.37039 3.0502-3.55115 6.0414-7.19119 8.87537-10.932 3.06628-4.04747 6.01617-8.19483 8.81287-12.45812 2.07021-2.94701 4.06076-5.9385 5.969-8.96985s3.7198-6.10955 5.46898-9.219c1.74919-3.10946 3.4384-6.25568 5.03146-9.43703 1.59305-3.18136 3.0916-6.37687 4.53144-9.6239 2.87969-6.49405 5.46594-13.12011 7.75032-19.83955 2.28439-6.71944 4.25654-13.53624 5.969-20.43132s3.14875-13.87752 4.31268-20.89849c1.16393-7.02098 2.0801-14.08168 2.71887-21.17881 1.26063-14.12307 1.52314-28.35409.84378-42.48218 0-13.68344 0-41.31934 0-55.0026z" fill="#ed1c24"/><g fill="#e3e4e5" stroke-width="1.006322" transform="matrix(.98479468 0 0 1.0027216 -632.4414 17.871765)"><path d="m46.964844 861.625c35.03638 48.2494 86.781726 84.44252 145.624996 97.15625 95.45079 23.25306 202.02155-16.86367 258.59375-97.15625h-.13281c-3.74514 5.29047-7.70331 10.40698-11.86719 15.34375-8.163 2.77439-11.37115 9.46875-24.96875 9.46875-16.585.00001-16.57025-10.65625-32.59375-10.65625-15.4615.00001-16.0301 10.65625-32.625 10.65625-16.03305.00001-15.4153-10.65625-32.5625-10.65625-16.5852.00001-16.0302 10.65625-32.625 10.65625-3.6908 0-6.4395-.56729-8.75-1.4375-7.2067-2.06411-10.1898-6.48009-16.625-8.5-.0527-.0119-.1345-.0195-.1875-.0312-1.9851-.43944-4.294-.6875-7.0625-.6875-3.4302 0-6.1498.44365-8.5 1.125-5.691 2.12393-9.165 6.05589-15.625 8.03125-1.5205.58812-3.1553 1.03878-5.125 1.28125-.073-.0838-.177-.1661-.25-.25-1.0114.0947-2.0991.15625-3.25.15625-17.2297.00001-16.5391-10.65625-32.5625-10.65625-14.8996.00001-15.4777 10.65625-32.625 10.65625-16.5851.00001-16.6016-10.65625-32.625-10.65625-15.4614.00001-15.99905 10.65625-32.593746 10.65625-15.063.00001-15.44485-9.39292-29.65625-10.53125-3.80086-4.52731-7.441514-9.19028-10.923828-13.96875z" fill="#0071bc" transform="translate(-101.38073 -257.18177)"/><path d="m784.03125 886.15625c-10.6627 0-14.74305 5.09487-21.34375 8.25 16.6921 12.74199 34.92095 23.38146 54.34375 31.4375 16.7431-.17029 17.4714-10.65624 32.25-10.65625 16.0234 0 15.3328 10.65626 32.5625 10.65625 1.1509 0 2.2386-.0616 3.25-.15625.073.0839.177.16621.25.25 1.9697-.24247 3.6045-.69313 5.125-1.28125 6.46-1.97536 9.934-5.90732 15.625-8.03125 2.3502-.68135 5.0698-1.125 8.5-1.125 2.7685 0 5.0774.24806 7.0625.6875.053.0118.1348.0193.1875.0312 6.4352 2.01991 9.4183 6.43589 16.625 8.5 2.3105.87021 5.0592 1.4375 8.75 1.4375 16.5948 0 16.0398-10.65624 32.625-10.65625 14.9149 0 16.374 8.05712 27.06245 10.15625 20.1507-8.24101 39.2457-19.03985 56.625-32.125-5.4501-3.09927-9.4223-7.0625-18.5-7.0625-15.4615 0-17.1634 10.6875-32.625 10.6875-16.02325 0-15.41525-10.6875-32.56245-10.6875-12.9058 0-16.72 5.66991-23.375 8.75-.075.029-.1738.0655-.25.0937-2.5077.93531-5.4033 1.53125-9.125 1.53125-3.0838 0-5.6914-.36342-7.9375-1-.1782-.0644-.3263-.11948-.5-.1875-.1408-.0434-.2991-.11099-.4375-.15625-5.7399-2.37957-9.1361-6.63936-16.6875-8.3125-.032-.01-.0617-.0217-.0937-.0312-.01-.002-.0213.002-.0312 0-2.0077-.61055-4.2471-1-6.9375-1-3.4071 0-6.0606.60665-8.375 1.46875-7.3309 2.09814-11.3686 6.56843-17.5625 8.5625-.01.003-.0222-.003-.0312 0-1.9105.41992-4.1003.65625-6.625.65625-2.9607 0-5.37035-.3426-7.46875-.9375-.1503-.0426-.2905-.11131-.4375-.15625-4.833-1.9034-7.9362-5.3018-13.375-7.40625.044.0928.081.18856.125.28125-2.9323-1.43505-6.4178-2.46875-11.4375-2.46875-16.6232 0-16.6015 10.6875-32.625 10.6875-16.5852 0-17.68355-10.6875-32.59375-10.6875h-.0312z" fill="#e3e4e5" transform="translate(-764.79 -236.9)"/></g><path d="m-735.35512 130.10311c.14476 82.1276-.0355 152.25298.0623 230.28251.009 13.54626.033 27.09388.0622 40.63984h248.8228 247.63999c0-90.30807 0-180.61316 0-270.92235-82.54417.00001-165.09587 0-247.63999 0-82.97987.00001-165.96739 0-248.9473 0z" fill="#e3e4e5" stroke-width=".977024"/></g><path d="m-735.3443 130.11542h247v270.89899h-247z" fill="#ed1c24"/><path d="m-735.45114 129.95541c.20346 120.34037-.40948 240.69407.31097 361.02601 3.83146 107.99371 86.43944 206.63184 191.92746 229.43871 97.59009 23.79006 206.8399-18.96339 261.92332-103.2742 32.98933-47.15229 45.13844-105.50564 42.41819-162.30709 0-108.29448 0-216.58895 0-324.88343-165.52665 0-331.05323 0-496.57994 0z" fill="none" stroke-width="3"/><g stroke-width="1.775898" transform="matrix(0 .53451028 -.59320934 0 -159.3764 84.61462)"><g fill-rule="evenodd"><path d="m349.64073 797.368c-3.52392 3.37902-7.04784 16.8951-12.33371 25.34265-5.28579 8.44756-12.92091 19.14779-12.33362 24.21631.58738 5.06853 1.17467 19.71096 1.17467 24.7795 0 5.06852-7.6351 25.34265-8.80978 29.84801-1.17464 4.50536-.58729 11.82657-1.76192 16.33193s-.58734 11.26341-.58734 11.26341 8.22246-11.26341 9.98437-14.64243c1.76196-3.37902 4.11121-5.06853 7.04783-8.44755 2.93654-3.37902 5.28579-5.6317 8.80979-9.57389 3.52383-3.94219 8.22241-7.88438 8.80971-10.70023.58729-2.81586 9.39708-39.98508 9.98437-43.3641s-9.39708-44.49044-9.98437-45.05361z" fill="#008f4c"/><path d="m258.83097 848.11756-15.27019 6.75804-5.87321 12.38974s-4.69851 7.32121-7.04777 7.88438c-2.34927.56317-10.57167 2.25268-10.57167 2.25268l18.79408 2.81586 11.74634-6.75805s4.69852-6.19487 5.28587-8.44755c.58728-2.25268 2.93655-18.02144 2.93655-16.8951z" fill="#008f4c"/><path d="m556.95829 645.0016c0-.00002-11.15242 7.33295-14.08905 8.4593-2.93654 1.12633-28.78726 9.57306-28.78726 9.57306 0-.00002-23.49833.5506-25.84758 1.11377-2.34925.56314-62.32537 7.43009-87.50043 16.3352-16.4231 5.8093-37.25356 17.01638-51.08606 27.60543-4.06799 3.11413-7.99817 8.90461-11.75853 12.38399-4.32655 4.00327-10.14619 9.44254-15.25432 12.38399-7.84372 4.51671-20.15875 6.56735-28.20458 10.71335-4.33064 2.23157-9.34878 6.47682-13.50643 9.01618-2.0099 1.22758-6.85914 3.81862-6.85914 3.81862-8.36505-.88738-22.24503.60263-30.72049-1.56457-8.80974-2.25271-34.06042-5.63579-36.997-6.76214-2.9366-1.12636-20.57744 1.11376-20.57744 1.11376-.00001-.00001-24.07157 8.44673-27.59547 9.57307-3.52392 1.12636-28.18116 9.03011-31.11774 10.15646-2.93658 1.12633-11.17895 4.49552-14.11553 5.62186-2.93656 1.12634-7.63653-2.24504-6.4619 1.69716 1.17462 3.9422 5.89474 6.75092 10.59327 10.12995 4.69852 3.37899 8.21752 4.51574 10.56679 6.20525 2.34928 1.68952 5.86826 4.49688 10.56679 7.8759 4.69854 3.37902 2.9441 6.20034 12.34116 9.01619 9.39704 2.81587 13.51416 2.81858 15.86343 4.50809 2.34926 1.68949 7.61615 2.81092 12.31468 2.81092 4.69855-.00001 12.33157-2.81721 23.49058-2.25404 11.15895.56318 25.8413-1.69223 29.95248-4.50809 4.11121-2.81587 19.97606-12.95618 22.32532-16.3352 2.34929-3.37903 7.64427-11.82219 8.8189-14.63804.93292-2.23646 8.97991-13.50192 12.92379-17.502 1.40106-1.42102 5.18825-2.82665 6.4619-4.45506 1.76196-2.25266 21.71923-14.65198 24.65584-15.77832 2.93655-1.12635 8.8001-1.69087 11.14942-2.25404 2.34924-.56316 5.87926-1.6958 5.87926.55688 0 .55775-.0663 3.24813-.37076 2.3336 0 0-.0108-.62912-.21187-.63644-3.65943-.13325-2.43423 8.38373-4.68752 11.27023-2.4368 3.12158-7.50819 5.39306-10.59327 7.8759-2.00179 1.61102-6.4619 5.62186-6.4619 5.62186.00003 0-5.85581 2.2617-8.79241 3.95121-2.93659 1.6895-13.1905 6.41325-18.22043 10.12994-3.92519 2.90038-11.73205 11.27023-11.73205 11.27023-.00002.00002-6.47901 17.45033-7.65364 19.70301-1.17465 2.25266-2.9178 17.47685-2.33052 19.72953.58736 2.25268-.58263 15.74688-.58263 18.56273.00002 2.81583 0 9.01755 0 11.27023.00002 2.25266-2.95203 6.76349-4.71401 9.01618-1.76193 2.2527-7.62715 7.8759-7.62715 7.8759l-5.29664 2.25405c.00001-.00002 12.92682.56946 15.86343-.55688 2.9366-1.12634 17.03643-7.87727 19.38568-10.12995 2.34934-2.25268 17.61132-12.96739 17.61132-12.96739-.00002.00002 9.98718-8.42786 12.92379-11.24371 2.93657-2.81584 9.38745-9.02521 11.14942-12.9674 1.7619-3.94219 5.87456-10.68956 6.4619-15.19492.58726-4.50537 4.13137-27.60543 4.13137-27.60543 0-.00001 1.16056-3.94136 1.74789-9.57306.58045-5.56599 1.55617-30.70699 1.74789-31.2119.11312-.2979.50627-.48061.60912-.8751.5873-2.25267 5.27015-12.96739 5.27015-12.96739.00001-.00001 1.18378-5.074 8.8189-9.01619 7.63504-3.94217 22.91096-9.56184 25.84758-12.94087 2.93655-3.37902 9.97794-14.09509 14.08906-15.22144 4.11129-1.12635 15.27753-9.56049 22.32528-10.68683 7.04783-1.12634 52.27788-9.57306 52.27788-9.57306-.00008 0 22.88757-5.62186 28.76065-5.62186 5.87325 0 13.23858-1.10812 18.80314-2.25404 4.68133-.96404 9.05777 2.02085 13.71826.96066 2.08753-.47488 7.59598-3.09243 9.38827-1.92154 2.33888 1.52798 2.31113 1.64082 1.54927 4.32869-1.26498 4.46291-7.99475 7.31252-11.14946 10.71334-3.57187 3.85052-11.14937 13.49776-11.14937 13.49776 0 .00002-7.04758 8.44808-9.98412 11.82711-2.93663 3.37903-8.2347 5.07399-11.75853 9.01618-3.52392 3.94217-5.78542 12.99563-8.20988 18.58925-1.96995 4.545-4.05023 10.86807-6.46189 15.19492-3.12469 5.60614-7.04117 13.85561-12.34108 17.47548-4.04836 2.76506-14.6888.54567-15.86347 3.92469-1.17458 3.37901 5.88707 5.07755 8.23631 3.95121 2.34925-1.12635 7.62072-8.46066 11.73201-10.71334 4.11112-2.25268 8.2175-5.04748 10.56675-8.98967 2.34925-3.94217 9.99666-18.03373 11.75853-20.28641 1.76196-2.2527 3.50832-4.50317 5.2702-7.31902 1.76195-2.81583 9.98411-14.63804 9.98411-14.63804.00009.00002 8.81267-11.82218 12.9238-14.63803 4.11129-2.81587 14.68414-7.32805 16.44609-11.27023 1.76196-3.94222 4.71401-15.19492 4.71401-15.19492 0-.00002 7.63487-8.47324 9.98412-9.59958 2.34933-1.12637 11.77313-6.70337 16.4461-10.12995 1.87255-1.3731 13.15672-1.97775 12.88407-4.28372-.30259-2.55913-14.65841-4.73246-14.65841-4.73246z" fill="#008f4c"/><path d="m351.92087 805.25572c-2.59786 1.10281-5.69589 3.30502-8.14886 4.70077-2.85915 1.6269-6.43457 4.34767-9.56245 5.36645-2.81888.91812-6.84937 1.24425-9.813 1.16673-2.85994-.0748-7.2409-2.6721-10.07558-3.05852-1.35412-.18459-3.98858-.46817-5.04687.39655-2.11656 1.72941-.6778 9.41222 1.13156 11.46086 1.0408 1.17841 3.79029.73354 5.23934.12342 1.16324-.48977 1.71439-2.56653 2.86837-3.07776 2.58924-1.14709 6.63354.25923 9.43902-.12712 2.59589-.35747 5.95231-1.42582 8.44054-2.24751 3.5678-1.17822 8.8145-3.28717 11.64171-4.6185 2.82725-1.33133 7.57794-4.52845 10.64325-6.7389 19.27681-12.82329 4.4318-7.21856-6.75703-3.34647z" fill="#008f4c"/><path d="m322.62414 745.25699-6.46049 31.53753-9.39703 24.21631s-9.98437 8.44756-11.15901 11.82658c-1.17463 3.37902-7.04778 12.38974-8.2224 16.8951-1.17464 4.50536-5.28587 15.20559-5.28587 15.20559l-12.92098 16.33194-2.34925 2.81585" fill="#008f4c"/><path d="m295.02033 812.83741-21.14339 9.01072" fill="#008f4c"/><path d="m311.46514 788.05792c-4.69852 1.68951-22.90531 6.19488-22.90531 6.19488l-17.03215 10.70022-2.93661 2.81585" fill="#008f4c"/><path d="m314.40174 787.49475c.58729 3.37903 2.34926 15.76876 2.34926 15.76876l-1.76197.56318" fill="#008f4c"/><path d="m300.30613 807.76887c0 3.37903 1.17463 23.65315 1.17463 23.65315" fill="#008f4c"/><path d="m564.01119 645.01271c-2.66881-.34565-8.52321-.98629-8.80979 1.68951-.36713 3.42792 7.12618 4.38929 10.57175 4.50537 2.05141.0691 6.34601-.20329 6.46045-2.25268.15252-2.73133-5.50949-3.59084-8.22241-3.9422z" fill="#008f4c"/><path d="m406.61041 726.67239s-24.66732 7.88438-27.01657 10.13705c-2.34925 2.25268-15.27016 16.89511-19.38145 20.8373-4.11121 3.94219-14.09558 20.27412-14.09558 20.27412s-1.76196 20.8373-.58729 27.03216c1.17458 6.19488 4.11121 25.90583 4.11121 29.28485s.58729 12.95291.58729 18.58462c0 5.6317-3.52392 23.08997-3.52392 25.34265s-1.76196 14.64242-1.76196 14.64242 14.09567-23.08997 15.27025-25.90582c1.17466-2.81585 9.98437-26.469 14.09558-32.1007 4.1112-5.6317 10.57174-15.76876 14.09557-20.83729 3.52392-5.06853 5.28588-1.68951 8.22242-10.70024 2.93662-9.01071 6.46054-21.40046 8.80979-29.28484s5.87325-23.08997 6.46054-28.15851c.58729-5.06853-3.52392-18.58461-5.28588-19.14777z" fill="#008f4c"/><path d="m267.41645 762.1521c-3.52389 1.12634-37.58826 15.76876-41.6995 16.33193-4.11117.56317-26.4292 2.25268-32.30236 3.37902s-30.54044 1.68951-33.47703 2.25269c-2.93657.56316-15.27021 1.6895-18.79412.56316-3.52389-1.12634-15.85753-4.50536-15.85753-4.50536" fill="#008f4c"/><path d="m147.01661 771.72599c2.34927 2.81585 9.39706 13.51608 9.39706 13.51608l-1.76195-1.12633.58732-1.12635" fill="#008f4c"/><path d="m340.24365 676.55024c-2.93663.56317-19.38141 8.44755-21.73068 9.57389-2.34932 1.12634-19.38147 12.95292-22.31802 14.07926-2.9366 1.12634-31.12776 12.38973-31.12776 12.38973s-16.44488 2.81586-19.96876 1.68952c-3.52389-1.12634-30.54048-10.70023-32.88972-12.95291-2.34927-2.25268-7.63511-5.06853-9.39705-7.32121-1.76195-2.25268-21.73071-14.64243-24.66729-18.02145s-15.27022-21.40046-18.20681-23.08998c-2.93657-1.6895-23.49264-27.59533-23.49264-27.59533s-5.28585-10.70024-8.80975-13.51608c-3.52389-2.81585-14.6829-14.07926-17.03216-14.07926-2.34927 0-7.63512-2.25268 4.11121 0 11.74632 2.25268 51.68382 10.13707 51.68382 10.13707s1.17465.56317 11.15902.56317 39.35021 0 46.98527.56317c7.63511.56317 20.5561 3.94219 20.5561 3.94219s14.6829 9.01072 17.61949 12.95291c2.93655 3.94219 16.44482 17.45827 19.96871 19.14778 3.52394 1.68951 15.85758 8.44756 19.96876 11.26341 4.11123 2.81585 8.22247 6.19487 12.92098 7.88438 4.69852 1.68951 20.55607 5.06854 22.90532 5.6317 2.34933.56317 10.57174 1.12635 10.57174 1.12635l-.58737 6.75803z" fill="#008f4c"/><path d="m332.60852 675.4239s-32.30239 1.12634-45.81065.56317c-13.50827-.56317-46.9853-8.44755-50.50919-9.57389s-39.93751-19.71096-42.87409-20.8373-29.95312-15.20559-31.71507-17.45827c-1.76196-2.25268-8.22243-6.75804-8.22243-6.75804" fill="#008f4c"/><path d="m370.13235 598.56437c-7.79758 2.71106-16.60372 9.58644-23.25655 14.33598-7.3708 5.26199-17.60145 12.16943-23.25658 19.11462-6.17208 7.58006-13.41696 19.16818-14.95063 28.67194-1.4659 9.08383 1.65937 21.64327 4.98354 30.26483 2.63792 6.84168 8.40107 15.11868 13.2895 20.70751 3.85629 4.40886 9.86183 9.69321 14.95058 12.74309 7.76936 4.65647 19.83222 7.65937 28.24014 11.1502 5.52588 2.29427 12.3432 6.95952 18.27289 7.96443 6.39859 1.08435 14.95067 1.59288 21.59544-1.59289 6.6447-3.18577 26.93683-10.22407 36.54595-17.52174 9.1536-6.95173 19.14602-18.93863 24.91775-28.67194 7.01647-21.88409 5.97926-37.74396-6.6447-58.93677-4.33951-6.6418-10.91971-15.08292-16.61186-20.70752-4.93265-4.87406-11.86946-11.4335-18.27297-14.33597-9.18954-4.16522-23.06596-6.01566-33.22372-6.37153-8.0303-.28135-19.02442.55921-26.57878 3.18576z" fill="#eac102"/><path d="m418.48064 689.03304c-7.79758 2.71105-16.60372 9.58643-23.25655 14.33597-7.3708 5.262-17.60145 12.16943-23.25656 19.11462-6.17206 7.58006-13.41693 19.16819-14.95058 28.67195-1.46594 9.08381 1.65933 21.64326 4.9835 30.26482 2.63789 6.84168 8.40106 15.11868 13.28947 20.70751 3.85629 4.40886 9.86183 9.6932 14.95058 12.74308 7.76936 4.65648 19.83222 7.65938 28.24014 11.15021 5.52588 2.29427 12.3432 6.95952 18.27289 7.96442 6.39859 1.08436 14.95066 1.59289 21.59544-1.59289 6.6447-3.18577 26.93683-10.22406 36.54595-17.52174 9.1536-6.95172 19.14602-18.93862 24.91775-28.67193 7.01647-21.88409 5.97926-37.74396-6.6447-58.93676-4.33951-6.6418-10.91971-15.08292-16.61186-20.70752-4.93265-4.87406-11.86947-11.4335-18.27297-14.33597-9.18954-4.16522-23.06596-6.01567-33.22372-6.37154-8.0303-.28134-19.02442.55922-26.57878 3.18577z" fill="#eac102"/></g><path d="m283.41347 839.69811-15.88991 4.64068" fill="none"/><path d="m289.37219 828.42788c2.64832 9.94432 1.32416 16.57386 1.32416 16.57386" fill="none"/><path d="m347.63519 827.10197-11.25535 19.88864" fill="none"/><path d="m350.94558 851.63129-16.55198 26.51818" fill="none"/><path d="m156.2942 785.99878c-3.31039 1.32591-9.93119 12.59614-9.93119 12.59614" fill="none"/><path d="m174.17035 764.78424 11.91743 18.56272-11.91743 17.23682" fill="none"/><path d="m199.99145 762.13242 15.88991 18.56273-15.88991 23.20341" fill="none"/><path d="m219.85384 757.49173 17.21407 15.24796-7.94496 25.85523" fill="none"/><path d="m189.39818 643.46354c0-2.65182-7.28288-27.18114-7.28288-27.18114" fill="none"/><path d="m164.90124 648.76718 23.83486-4.64068" fill="none"/><path d="m212.57096 624.90081c0 3.31478 3.3104 33.81069 3.3104 33.81069l-25.15902 9.94432" fill="none"/><path d="m239.71622 625.56377c2.64832 7.2925 11.91744 46.40682 11.91744 46.40682l-35.7523 18.56273" fill="none"/><path d="m310.50152 730.05437c-2.54647-1.21679-6.24803-2.08052-8.9181-2.99477-3.11223-1.06563-7.51848-1.94381-10.35288-3.61345-2.5544-1.5047-5.4673-4.30938-7.37136-6.58174-1.83745-2.19285-2.79145-7.19573-4.37864-9.57599-.75819-1.13703-2.28988-3.29914-3.6386-3.51975-2.6974-.44123-7.50261 5.72364-7.84 8.436-.19406 1.56021 1.95972 3.32625 3.37634 4.00826 1.13722.5475 3.05851-.41441 4.20567.11195 2.57395 1.18101 4.19763 5.14304 6.34462 6.98978 1.98659 1.70878 5.00945 3.51686 7.27266 4.83761 3.24515 1.89377 8.2994 4.42955 11.16898 5.66693 2.86958 1.23739 8.41095 2.68099 12.09702 3.51476 22.37297 5.95673 8.34404-1.4579-1.96571-7.27959z" fill="#008f4c" fill-rule="evenodd"/><g transform="translate(3.314563 1.104854)"><g stroke-width="1.775898"><path d="m271.5779 711.09171-2.18334 1.12322s-6.01208-3.36312-7.07307-6.73206c-1.06098-3.36895-15.18211-12.37505-15.18211-12.37505s12.14331-8.93859 17.77874-9.75803c5.63542-.81944 8.31803-.60914 8.31803-.60914s-2.2349 3.41075-.4253 6.63925c1.80959 3.22849.53587 9.03921.91072 13.2505.37484 4.21128-1.72769 8.859-2.14367 8.46131z" fill="#e3e4e5" fill-rule="evenodd" stroke-linecap="round" stroke-linejoin="round"/><path d="m287.26557 683.05349s10.64778 6.851 13.69848 7.83044c2.30947 2.05386 2.78572 6.81636-.73016 5.04635-9.54741-.90575-11.51772 1.32072-20.09719-2.14341-5.70116-2.88653-22.95058-3.4109-22.95058-3.4109l12.95439-11.23632z" fill="#e3e4e5" fill-rule="evenodd" stroke-linecap="round" stroke-linejoin="round"/><path d="m252.46605 678.01293s7.09889-14.60494 15.49029-19.24873c16.07645-4.44276 24.35746-24.95001 22.19441-7.00552-.0161 2.81666-8.89982 8.93973-13.52766 13.90057-4.62783 4.96082-8.66121 15.58522-11.03916 18.845-2.37796 3.25979-9.0891 5.79785-9.0891 5.79785l-8.21857 3.58824z" fill="#e3e4e5" fill-rule="evenodd" stroke-linecap="round" stroke-linejoin="round"/><path d="m286.82246 650.33686s-15.24673 11.55726-18.86963 15.81798c-3.62292 4.26071-10.15216 20.83284-10.15216 20.83284" fill="#e3e4e5" fill-rule="evenodd" stroke-linecap="round" stroke-linejoin="round"/><path d="m227.95701 662.91065s-.84871-1.87453-3.29146-3.46988c-4.04614-8.92066 8.43528-2.32574 12.44608-1.05619 5.0596 2.88751 15.32939 14.04147 17.56946 18.22534 2.24007 4.18385 1.37844 14.79699 1.37844 14.79699l-11.30957-10.15581-7.86845-7.62933z" fill="#e3e4e5" fill-rule="evenodd" stroke-linecap="round" stroke-linejoin="round"/><path d="m254.17145 688.18016s-11.15003 3.62665-15.98571 3.25499c-4.83566-.37166-15.02756 7.88132-19.44405 9.2215-5.76739.27542-3.62107-13.28171 4.06398-16.15107 9.73222-1.57016 28.66093 1.09214 28.66093 1.09214s-13.3748-6.69303-15.1957-9.16503c-1.82089-2.472-12.07161-12.76993-11.50827-15.43349.56335-2.66355.68155-1.39216.68155-1.39216s6.45387 6.15035 8.29714 8.87393c1.84329 2.7236 7.71886 8.78322 11.09193 10.70821 3.37306 1.92502 9.81827 8.38934 9.3382 8.99098z" fill="#e3e4e5" fill-rule="evenodd" stroke-linecap="round" stroke-linejoin="round"/><path d="m255.24356 688.23479c2.5186 1.31796 3.72507 2.8821 2.30727 4.93861-1.41782 2.0565-8.01047 16.82417-8.46186 20.74564-.00024 5.53323-4.10605 7.61774-5.79581.83162-1.97135-1.16485-4.49625-5.55106-3.23518-9.36864 1.26107-3.81759 4.71086-14.9262 8.6025-16.1679 3.89163-1.24171 6.08062-.62928 6.58308-.97933z" fill="#e3e4e5" fill-rule="evenodd" stroke-linecap="round" stroke-linejoin="round"/><path d="m266.79391 677.11525-9.00934 12.68909-9.56845-14.57505" fill="none"/><path d="m258.31017 668.73133-.1351 19.46503" fill="#e3e4e5" fill-rule="evenodd"/></g><circle cx="-92.254623" cy="516.95081" fill="#e3e4e5" r="1.998295" stroke-linecap="round" stroke-linejoin="round" stroke-width="1.141441" transform="matrix(-1.5759109 .2956697 .1344741 1.5107912 52.91967 -77.061138)"/><circle cx="-92.254623" cy="516.95081" fill="#e3e4e5" r="1.998295" stroke-linecap="round" stroke-linejoin="round" stroke-width="1.141441" transform="matrix(-1.5759109 .2956697 .1344741 1.5107912 43.693426 -84.794181)"/><circle cx="-92.254623" cy="516.95081" fill="#e3e4e5" r="1.998295" stroke-linecap="round" stroke-linejoin="round" stroke-width="1.141441" transform="matrix(-1.5759109 .2956697 .1344741 1.5107912 32.984959 -79.204084)"/></g><g transform="matrix(.6620768 -.749436 .749436 .6620768 -397.76152 552.852131)"><g stroke-width="1.775898"><path d="m271.5779 711.09171-2.18334 1.12322s-6.01208-3.36312-7.07307-6.73206c-1.06098-3.36895-15.18211-12.37505-15.18211-12.37505s12.14331-8.93859 17.77874-9.75803c5.63542-.81944 8.31803-.60914 8.31803-.60914s-2.2349 3.41075-.4253 6.63925c1.80959 3.22849.53587 9.03921.91072 13.2505.37484 4.21128-1.72769 8.859-2.14367 8.46131z" fill="#e3e4e5" fill-rule="evenodd" stroke-linecap="round" stroke-linejoin="round"/><path d="m287.26557 683.05349s10.64778 6.851 13.69848 7.83044c2.30947 2.05386 2.78572 6.81636-.73016 5.04635-9.54741-.90575-11.51772 1.32072-20.09719-2.14341-5.70116-2.88653-22.95058-3.4109-22.95058-3.4109l12.95439-11.23632z" fill="#e3e4e5" fill-rule="evenodd" stroke-linecap="round" stroke-linejoin="round"/><path d="m252.46605 678.01293s7.09889-14.60494 15.49029-19.24873c16.07645-4.44276 24.35746-24.95001 22.19441-7.00552-.0161 2.81666-8.89982 8.93973-13.52766 13.90057-4.62783 4.96082-8.66121 15.58522-11.03916 18.845-2.37796 3.25979-9.0891 5.79785-9.0891 5.79785l-8.21857 3.58824z" fill="#e3e4e5" fill-rule="evenodd" stroke-linecap="round" stroke-linejoin="round"/><path d="m286.82246 650.33686s-15.24673 11.55726-18.86963 15.81798c-3.62292 4.26071-10.15216 20.83284-10.15216 20.83284" fill="#e3e4e5" fill-rule="evenodd" stroke-linecap="round" stroke-linejoin="round"/><path d="m227.95701 662.91065s-.84871-1.87453-3.29146-3.46988c-4.04614-8.92066 8.43528-2.32574 12.44608-1.05619 5.0596 2.88751 15.32939 14.04147 17.56946 18.22534 2.24007 4.18385 1.37844 14.79699 1.37844 14.79699l-11.30957-10.15581-7.86845-7.62933z" fill="#e3e4e5" fill-rule="evenodd" stroke-linecap="round" stroke-linejoin="round"/><path d="m254.17145 688.18016s-11.15003 3.62665-15.98571 3.25499c-4.83566-.37166-15.02756 7.88132-19.44405 9.2215-5.76739.27542-3.62107-13.28171 4.06398-16.15107 9.73222-1.57016 28.66093 1.09214 28.66093 1.09214s-13.3748-6.69303-15.1957-9.16503c-1.82089-2.472-12.07161-12.76993-11.50827-15.43349.56335-2.66355.68155-1.39216.68155-1.39216s6.45387 6.15035 8.29714 8.87393c1.84329 2.7236 7.71886 8.78322 11.09193 10.70821 3.37306 1.92502 9.81827 8.38934 9.3382 8.99098z" fill="#e3e4e5" fill-rule="evenodd" stroke-linecap="round" stroke-linejoin="round"/><path d="m255.24356 688.23479c2.5186 1.31796 3.72507 2.8821 2.30727 4.93861-1.41782 2.0565-8.01047 16.82417-8.46186 20.74564-.00024 5.53323-4.10605 7.61774-5.79581.83162-1.97135-1.16485-4.49625-5.55106-3.23518-9.36864 1.26107-3.81759 4.71086-14.9262 8.6025-16.1679 3.89163-1.24171 6.08062-.62928 6.58308-.97933z" fill="#e3e4e5" fill-rule="evenodd" stroke-linecap="round" stroke-linejoin="round"/><path d="m266.79391 677.11525-9.00934 12.68909-9.56845-14.57505" fill="none"/><path d="m258.31017 668.73133-.1351 19.46503" fill="#e3e4e5" fill-rule="evenodd"/></g><circle cx="-92.254623" cy="516.95081" fill="#e3e4e5" r="1.998295" stroke-linecap="round" stroke-linejoin="round" stroke-width="1.141441" transform="matrix(-1.5759109 .2956697 .1344741 1.5107912 52.91967 -77.061138)"/><circle cx="-92.254623" cy="516.95081" fill="#e3e4e5" r="1.998295" stroke-linecap="round" stroke-linejoin="round" stroke-width="1.141441" transform="matrix(-1.5759109 .2956697 .1344741 1.5107912 43.693426 -84.794181)"/><circle cx="-92.254623" cy="516.95081" fill="#e3e4e5" r="1.998295" stroke-linecap="round" stroke-linejoin="round" stroke-width="1.141441" transform="matrix(-1.5759109 .2956697 .1344741 1.5107912 32.984959 -79.204084)"/></g></g><g fill-rule="evenodd" stroke-width=".436682" transform="matrix(-2.2842335 0 0 2.2957716 -1770.6098 -340.47253)"><path d="m-658.96104 276.00126c2.07953 6.72504 16.78489 2.98861 27.41262 9.27725 5.61014 3.31964 12.82346 9.91151 12.82346 9.91151s6.39881-3.35396 13.14125 1.00097c4.65155 3.00442 11.70722 7.11259 11.70722 7.11259l-1.97436-22.27428-12.70923-25.08564-38.63412 7.33969z"/><path d="m-657.31021 242.89706c-6.22308-7.58243-.73711-13.43986.43182-15.57477 3.62431-6.61927 16.02628-15.2727 24.14708-16.92409 8.12076-1.65138 32.00214.95516 37.06926 8.53576 5.06715 7.58066 16.24615 19.88873 16.08731 30.13948-.15878 10.25073-8.07711 19.38124-7.27171 26.10628.80539 6.72512 16.3681 26.6954 13.35354 30.46577-3.01447 3.77042-10.86193 13.33929-13.86901 5.74809-7.5373-19.02726-19.82441-20.82583-20.22711-24.18839-.40269-3.36251.15878-10.25075.15878-10.25075s.405 14.9583.36582 20.41991c-.0391 5.46164-2.44842 20.07372-9.96634 20.97104-7.51785.89731-9.53133-15.9154-10.17565-21.29545-.64429-5.37998-.80769-18.32078-.80769-18.32078s-10.45413-6.25552-17.3691-6.11227c-6.91495.14323-12.22143 2.14082-12.22143 2.14082s1.64762-3.60728 3.13422-8.55955c1.48653-4.95221 6.03346-16.37127 11.518-19.14002 7.07844-3.57336 18.1696-12.19216 21.44498-18.24834-9.9173 10.69122-4.76727 6.40096-10.43501 11.17018-5.66775 4.76921-8.64821 3.81451-12.06307 4.61505-6.0593 1.42046-9.58506 2.83419-13.30469-1.69797z" fill="#ed1c24"/></g><g fill="#edc102" fill-rule="nonzero" stroke-width="3.661371" transform="matrix(0 1 1 0 -1395.7718 415.95555)"><g transform="matrix(.27313116 0 0 .27311231 -43.78990769532 929.21943429406)"><path d="m360 270.21875v181.4375h-18.21875v16.40625h-179.625v40h179.625v18.59375h18.21875v179.28125h40v-179.28125h16.78125v-18.59375h181.0625v-40h-181.0625v-16.40625h-16.78125v-181.4375zm5 203.71875h28v28h-28z"/><path d="m288.40625 289.40625-34.65625 20 41.3125 71.5625c10.54459-8.10628 22.30236-14.71731 34.9375-19.53125zm183.1875 0-41.90625 72.59375c12.56373 4.96012 24.20903 11.74131 34.65625 19.96875l41.90625-72.5625zm-270.25 72.40625-20 34.65625 70.40625 40.65625c5.22274-12.45092 12.23382-23.96746 20.6875-34.25zm357.3125 0-72.375 41.78125c8.38156 10.33449 15.32922 21.88891 20.46875 34.375l71.90625-41.5zm-50.40625 177.21875c-4.76902 12.66148-11.335 24.42228-19.40625 35l69.8125 40.28125 20-34.625zm-258.03125.875-68.875 39.78125 20 34.625 68.53125-39.5625c-8.13631-10.5199-14.80573-22.22698-19.65625-34.84375zm216 57.5c-10.31785 8.41721-21.8649 15.38627-34.34375 20.5625l39.71875 68.78125 34.65625-20zm-173.03125 1.03125-39.4375 68.3125 34.65625 20 39.375-68.1875c-12.53905-5.02915-24.18587-11.83591-34.59375-20.125z"/><path d="m378.72843 312.46785c-98.3959 0-178.21636 80.06612-178.21636 177.82311 0 97.75698 79.82046 177.8212 178.21636 177.8212 98.39589 0 178.21637-80.06422 178.21637-177.8212v-20.48877h-1.28507c-10.23745-88.19608-85.51733-157.33434-176.9313-157.33434zm0 40.97752c75.38978 0 136.4508 60.8169 136.4508 136.84559 0 76.02868-61.06102 136.84367-136.4508 136.84367s-136.4508-60.81499-136.4508-136.84367c0-76.02869 61.06102-136.84559 136.4508-136.84559z"/></g><g transform="matrix(.27313116 0 0 .27311231 41.21009230468 864.21943429406)"><path d="m360 270.21875v181.4375h-18.21875v16.40625h-179.625v40h179.625v18.59375h18.21875v179.28125h40v-179.28125h16.78125v-18.59375h181.0625v-40h-181.0625v-16.40625h-16.78125v-181.4375zm5 203.71875h28v28h-28z"/><path d="m288.40625 289.40625-34.65625 20 41.3125 71.5625c10.54459-8.10628 22.30236-14.71731 34.9375-19.53125zm183.1875 0-41.90625 72.59375c12.56373 4.96012 24.20903 11.74131 34.65625 19.96875l41.90625-72.5625zm-270.25 72.40625-20 34.65625 70.40625 40.65625c5.22274-12.45092 12.23382-23.96746 20.6875-34.25zm357.3125 0-72.375 41.78125c8.38156 10.33449 15.32922 21.88891 20.46875 34.375l71.90625-41.5zm-50.40625 177.21875c-4.76902 12.66148-11.335 24.42228-19.40625 35l69.8125 40.28125 20-34.625zm-258.03125.875-68.875 39.78125 20 34.625 68.53125-39.5625c-8.13631-10.5199-14.80573-22.22698-19.65625-34.84375zm216 57.5c-10.31785 8.41721-21.8649 15.38627-34.34375 20.5625l39.71875 68.78125 34.65625-20zm-173.03125 1.03125-39.4375 68.3125 34.65625 20 39.375-68.1875c-12.53905-5.02915-24.18587-11.83591-34.59375-20.125z"/><path d="m378.72843 312.46785c-98.3959 0-178.21636 80.06612-178.21636 177.82311 0 97.75698 79.82046 177.8212 178.21636 177.8212 98.39589 0 178.21637-80.06422 178.21637-177.8212v-20.48877h-1.28507c-10.23745-88.19608-85.51733-157.33434-176.9313-157.33434zm0 40.97752c75.38978 0 136.4508 60.8169 136.4508 136.84559 0 76.02868-61.06102 136.84367-136.4508 136.84367s-136.4508-60.81499-136.4508-136.84367c0-76.02869 61.06102-136.84559 136.4508-136.84559z"/></g></g></g></g></g></svg>