<svg enable-background="new 0 0 500 350" height="350" viewBox="0 0 500 350" width="500" xmlns="http://www.w3.org/2000/svg"><path d="m0 0h500v350h-500z" fill="#3a3986"/><path d="m500 0h-250v350h-250" fill="#d62c26"/><path d="m500 350v-175h-500v-175" fill="#d62c26"/><path d="m186.372 256.175 1.534-25.257-20.372-2.651v16.326z" fill="#fff" stroke="#000" stroke-miterlimit="5" stroke-width="1.7"/><path d="m168.51 254.36c-6.836 1.256-32.791-.558-39.349-6.697l12-12.838-13.675-19.255c15.768 5.581 29.163 7.953 43.256 8.79 14.093.838 17.442 2.373 17.163 6.558-.279 4.187-4.046 6-6.977 6-2.93 0-8.868-4.396-9.907-1.395-1.038 3.002-2.511 18.837-2.511 18.837z" fill="#fff" stroke="#000" stroke-miterlimit="5" stroke-width="1.7"/><path d="m313.628 256.175-1.535-25.257 20.372-2.651v16.326z" fill="#fff" stroke="#000" stroke-miterlimit="5" stroke-width="1.7"/><path d="m331.489 254.36c6.836 1.256 32.791-.558 39.35-6.697l-12.002-12.838 13.676-19.255c-15.769 5.581-29.164 7.953-43.258 8.79-14.092.838-17.44 2.373-17.162 6.558.279 4.187 4.047 6 6.977 6 2.931 0 8.87-4.396 9.907-1.395 1.04 3.002 2.512 18.837 2.512 18.837z" fill="#fff" stroke="#000" stroke-miterlimit="5" stroke-width="1.7"/><path d="m250 270.825c49.044 0 78.977-35.302 78.977-35.302s5.303 14.231 7.256 29.58c1.954 15.35-54.138 37.396-86.232 37.396s-88.186-22.047-86.233-37.396 7.255-29.58 7.255-29.58 29.932 35.302 78.977 35.302z" fill="#fff" stroke="#000" stroke-linejoin="round" stroke-miterlimit="5" stroke-width="1.7"/><path d="m250 119.15h53.303v106.325c0 24.837-53.303 15.349-53.303 30.698 0-15.35-53.303-5.861-53.303-30.698 0-19.535 0-106.325 0-106.325z" fill="#fff"/><path d="m317.722 67.675c-.731 1.612-1.782 3.762-2.714 5.452-1.628-.781-3.165-1.206-5.063-2.05.868-1.688 1.538-4 2.323-5.795-1.813-.694-3.651-1.485-5.772-1.937-1.278 3.774-2.288 7.628-3.736 11.277.204.928.704 1.024.994 1.948-3.603 6.452-8.651 15.927-12.938 21.84-.463-5.846 2.332-18.662 3.321-25.025.713-.613 1.189.158 1.884-.838 1.562-3.603 2.88-7.364 4.208-11.352-1.859-.555-3.857-1.248-5.805-1.791-.336 1.913-1.382 4.002-1.716 6.083-1.768-.293-3.517-1.03-5.53-1.307.429-2.057 1.126-4.436 1.576-6.437-2.015-.293-3.941-.505-5.933-1.068-.434 1.876-.676 4.353-1.209 6.135-1.638-.325-3.776-.362-5.531-1.049.326-1.819.529-4.638 1.11-6.44-2.168-.456-4.42-.631-6.336-.909-.467 4.013-.708 8.148-1.054 12.081.38.911.833.609 1.535 1.521-2.766 7.352-3.896 17.531-7.657 24.354-1.571-4.735-2.408-20.021-2.551-25.689.637-.593 1.007-.828 1.671-1.273.577-4.073.779-7.596 1.522-11.764-1.973-.035-4.047-.437-5.947-.625-.182 1.726-.339 4.45-.407 6.608-1.88.03-3.9-.159-5.843-.36.177-2.163-.034-4.795.119-6.863-.891.154-1.823.172-2.77.162-.946.011-1.878-.008-2.77-.162.153 2.067-.057 4.699.12 6.863-1.942.202-3.963.39-5.843.36-.069-2.159-.226-4.882-.408-6.608-1.901.188-3.974.59-5.947.625.744 4.167.946 7.691 1.523 11.764.663.445 1.035.679 1.671 1.273-.143 5.668-.98 20.955-2.552 25.689-3.761-6.822-4.892-17.002-7.656-24.354.701-.912 1.153-.61 1.534-1.521-.346-3.933-.587-8.069-1.053-12.081-1.916.278-4.169.453-6.336.909.582 1.802.785 4.621 1.111 6.44-1.756.688-3.893.724-5.531 1.049-.533-1.782-.776-4.259-1.208-6.135-1.991.563-3.919.774-5.934 1.068.449 2.001 1.147 4.38 1.577 6.437-2.014.277-3.763 1.014-5.53 1.307-.334-2.081-1.381-4.169-1.717-6.083-1.946.542-3.945 1.235-5.804 1.791 1.329 3.988 2.647 7.749 4.208 11.352.694.997 1.171.225 1.883.838.989 6.363 3.785 19.18 3.322 25.025-4.287-5.914-9.335-15.388-12.938-21.84.29-.924.79-1.021.994-1.948-1.448-3.649-2.46-7.502-3.737-11.277-2.121.451-3.958 1.242-5.772 1.937.785 1.794 1.455 4.107 2.323 5.795-1.897.844-3.434 1.269-5.061 2.05-.932-1.689-1.983-3.84-2.713-5.452-1.593.686-3.261 1.018-4.852 1.643 2.175 3.822 3.85 7.605 5.673 11.267 1.431.201 1.12.058 2.625.345.504 1.75 3.214 4.234 4.301 5.992.617.129 1.566.261 2.285.248 2.587 5.048 5.016 9.9 7.657 14.69-.696.401-1.548 1.043-2.149 1.799.728.298 1.396.545 2.035.686 1.669 3.448 3.485 5.882 5.271 9.065 7.761-3.057 15.983-4.763 23.379-5.844 6.911-1.07 14.88-2.417 22.021-2.683 7.14.266 15.11 1.613 22.019 2.683 7.397 1.081 15.62 2.788 23.38 5.844 1.787-3.183 3.601-5.617 5.271-9.065.641-.142 1.309-.388 2.036-.686-.602-.755-1.454-1.397-2.15-1.799 2.643-4.79 5.069-9.642 7.657-14.69.718.013 1.667-.118 2.285-.248 1.087-1.758 3.796-4.243 4.302-5.992 1.504-.287 1.193-.144 2.623-.345 1.824-3.662 3.499-7.446 5.676-11.267-1.593-.625-3.26-.957-4.852-1.643z" fill="#cacaca"/><path d="m249.475 72.784c-17.14.615-34.397 2.5-51.708 8.868 2.654 4.799 6.285 13.726 9.589 17.629 14.021-4.122 28.159-6.418 42.118-6.883 13.958.466 28.097 2.762 42.118 6.883 3.305-3.903 6.936-12.83 9.589-17.629-17.31-6.367-34.568-8.253-51.706-8.868z" fill="#cacaca"/><path d="m188.327 86.365c19.474-8.323 40.293-13.009 61.149-13.656m-55.879 19.215c18.281-7.654 36.93-12.041 55.715-12.743m-53.085 17.693c17.609-6.945 35.419-10.796 53.249-11.359m-48.33 23.114c15.91-5.744 32.041-9.086 48.33-9.635m-50.651 2.867c16.53-6.212 33.542-9.521 50.589-9.995m-50.701 12.48c16.885-6.474 33.8-10.186 50.737-10.826" fill="none" stroke="#262626" stroke-miterlimit="2.4142" stroke-width="1.275"/><path d="m186.8 72.032 2.663 5.035" fill="none" stroke="#262626" stroke-miterlimit="2.4142" stroke-width="1.275"/><path d="m202.998 81.413 1.989 6.211m28.252-13.479.779 6.731m-10.794-4.851 1.322 6.283m-11.88-4.087 2.153 6.611m-21.291-.311 3.39 6.276m46.848-31.213.349 5.094m-24.159-2.35 1.169 5.31m-12.302-2.745 1.561 5.207" fill="none" stroke="#262626" stroke-miterlimit="2.4142" stroke-width="1.275"/><path d="m228.551 101.396.981 6.178m-9.144-4.583 1.277 5.583m-11.063-2.999 1.44 5.289m-7.573-3.245 2.049 5.151m27.98-25.906.856 5.037m-9.697-3.611 1.27 6.228m-10.621-4.301 1.993 6.058m-11.465-3.078 1.562 5.424m-8.776-2.876 2.468 5.549" fill="none" stroke="#262626" stroke-miterlimit="2.4142" stroke-width="1.275"/><path d="m216.285 70.309 1.35 6.485" fill="none" stroke="#262626" stroke-miterlimit="2.4142" stroke-width="1.275"/><path d="m239.443 66.261.384 7.154m-15.016-5.016 1.657 6.435m-19.99-2 1.832 6.741m-15.759-1.963 2.969 5.953m33.411-1.884 1.351 5.583m-20.798-.971 1.357 5.836m-10.23-2.849 2.265 5.257m3.705 7.042 1.507 4.658m7.422-7.45 1.189 4.984m14.525-8.41.965 5.571m-9.641-3.995 1.357 5.027m-4.636-18.446 1.52 5.613" fill="none" stroke="#262626" stroke-miterlimit="2.4142" stroke-width="1.275"/><path d="m239.683 80.008.367 6.206m.431 8.019.508 5.427m5.294-.442.302 6.147m-9.791-5.266.631 6.117" fill="none" stroke="#262626" stroke-miterlimit="2.4142" stroke-width="1.275"/><path d="m243.436 80.763 1.922-.034.067 3.873-1.922.034z" fill="#cacaca"/><g stroke="#262626" stroke-miterlimit="2.4142" stroke-width="1.275"><path d="m243.436 80.763 1.922-.034.067 3.873-1.922.034z" fill="none"/><path d="m202.839 72.346c8.683-2.629 17.484-4.748 26.371-6.155m-28.354 1.066c9.059-2.9 18.302-5.037 27.803-6.428m-44.058 19.999 10.595-4.351m-13.151 3.8 14.036-5.651m-16.749.293c4.979-1.847 9.986-3.743 14.986-5.639" fill="none"/><path d="m204.772 73.215c7.373-2.212 14.858-3.994 23.124-5.397" fill="none"/><path d="m249.475 52.565c-.946.011-1.878-.008-2.77-.162.153 2.067-.057 4.7.12 6.863-1.942.201-3.963.39-5.843.359-.069-2.158-.226-4.881-.408-6.606-1.901.187-3.974.59-5.947.624.744 4.167.946 7.69 1.523 11.763.663.446 1.035.68 1.671 1.273-.143 5.668-.98 20.955-2.552 25.689-3.761-6.822-4.892-17.001-7.656-24.353.701-.913 1.153-.611 1.534-1.521-.346-3.933-.587-8.068-1.053-12.081-1.916.278-4.169.453-6.336.909.582 1.802.785 4.621 1.111 6.44-1.756.688-3.893.725-5.531 1.049-.533-1.782-.776-4.258-1.208-6.135-1.991.563-3.919.774-5.934 1.068.449 2 1.147 4.379 1.577 6.436-2.014.278-3.763 1.014-5.53 1.308-.334-2.081-1.381-4.17-1.717-6.083-1.946.542-3.945 1.235-5.804 1.79 1.329 3.988 2.647 7.749 4.208 11.352.694.997 1.171.225 1.883.838.989 6.363 3.785 19.18 3.322 25.026-4.287-5.914-9.335-15.389-12.938-21.841.29-.924.79-1.021.994-1.948-1.448-3.649-2.46-7.502-3.737-11.277-2.121.451-3.958 1.242-5.772 1.936.785 1.794 1.455 4.107 2.323 5.795-1.897.844-3.434 1.269-5.061 2.049-.932-1.689-1.983-3.84-2.713-5.452-1.593.686-3.261 1.018-4.852 1.643 2.175 3.822 3.85 7.606 5.673 11.267 1.431.201 1.12.059 2.625.345.504 1.749 3.214 4.234 4.301 5.992.617.129 1.566.261 2.285.248 2.587 5.048 5.016 9.899 7.657 14.689-.696.401-1.548 1.043-2.149 1.799.728.298 1.396.545 2.035.686 1.669 3.448 3.485 5.883 5.271 9.066 7.761-3.057 15.983-4.763 23.379-5.845 6.911-1.07 14.88-2.417 22.021-2.683" fill="none"/><path d="m249.475 59.254c-4.659.118-9.29.395-13.923.872l13.923-.361z" fill="none"/><path d="m249.475 64.239c-4.449.129-8.87.467-13.288 1.018l13.288-.348z" fill="none"/><path d="m249.475 65.773c-3.889.102-7.75.334-11.596.71l11.596-.265z" fill="none"/><path d="m213.985 74.635 6.252-1.38 2.476 10.403-6.234 1.409z" fill="#262626"/><path d="m249.474 72.709c20.854.648 41.674 5.333 61.149 13.656m-60.985-7.184c18.786.703 37.435 5.089 55.716 12.743m-55.88-6.409c17.829.563 35.639 4.414 53.249 11.359m-53.249 2.121c16.289.549 32.419 3.891 48.33 9.635m-48.269-16.764c17.047.473 34.059 3.782 50.589 9.995m-50.624-8.34c16.937.64 33.851 4.352 50.736 10.825" fill="none"/><path d="m309.485 77.067 2.664-5.035" fill="none"/><path d="m293.962 87.624 1.99-6.211m-31.019-.538.777-6.731m8.692 8.165 1.323-6.283m8.406 8.807 2.152-6.611m15.748 12.575 3.39-6.276m-50.586-19.843.348-5.094m22.641 8.054 1.169-5.31m9.572 7.77 1.562-5.206" fill="none"/><path d="m269.417 107.574.981-6.178m6.886 7.178 1.278-5.583m8.345 7.873 1.44-5.289m4.085 7.195 2.049-5.151m-30.885-15.718.856-5.037m7.57 7.653 1.271-6.228m7.358 7.986 1.993-6.058m7.908 8.404 1.563-5.424m4.746 8.096 2.467-5.549" fill="none"/><path d="m281.314 76.794 1.35-6.485" fill="none"/><path d="m259.122 73.416.385-7.154m12.974 8.572 1.657-6.435m16.502 11.177 1.832-6.741m10.958 10.73 2.968-5.953m-37.731 9.652 1.352-5.583m18.089 10.449 1.356-5.836m6.61 8.244 2.264-5.257m-7.476 16.955 1.506-4.658m-10.118 2.193 1.188-4.984m-16.677 2.146.965-5.571m7.318 6.601 1.357-5.027m1.759-7.805 1.52-5.613" fill="none"/><path d="m258.899 86.213.368-6.206m-1.308 19.653.508-5.427m-6.104 11.132.303-6.147m8.858 6.998.63-6.117" fill="none"/></g><path d="m255.446 84.636-1.923-.034.069-3.873 1.921.034z" fill="#cacaca"/><path d="m255.446 84.636-1.923-.034.069-3.873 1.921.034z" fill="none" stroke="#262626" stroke-miterlimit="2.4142" stroke-width="1.275"/><path d="m269.739 66.191c8.887 1.406 17.688 3.525 26.37 6.154m-25.818-11.516c9.501 1.391 18.743 3.528 27.802 6.428m5.661 9.22 10.595 4.351m-11.481-6.203 14.037 5.651m-12.273-10.996c4.999 1.896 10.008 3.792 14.986 5.639" fill="none" stroke="#262626" stroke-miterlimit="2.4142" stroke-width="1.275"/><path d="m271.054 67.818c8.267 1.404 15.749 3.186 23.125 5.397" fill="none" stroke="#262626" stroke-miterlimit="2.4142" stroke-width="1.275"/><path d="m249.475 72.727c-2.691.164-5.209 2.239-5.01 6.509l.125 12.705 4.885-.15 4.883.15.126-12.705c.2-4.271-2.319-6.345-5.009-6.509z" fill="#262626" stroke="#262626" stroke-miterlimit="2.4142" stroke-width="1.275"/><path d="m249.475 52.565c.946.011 1.878-.008 2.769-.162-.153 2.067.058 4.7-.119 6.863 1.942.201 3.963.39 5.843.359.068-2.158.226-4.881.407-6.606 1.9.187 3.975.59 5.947.624-.743 4.167-.945 7.69-1.522 11.763-.664.446-1.034.68-1.671 1.273.143 5.668.979 20.955 2.551 25.689 3.762-6.822 4.892-17.001 7.657-24.353-.702-.913-1.155-.611-1.535-1.521.346-3.933.587-8.068 1.054-12.081 1.916.278 4.168.453 6.336.909-.582 1.802-.784 4.621-1.11 6.44 1.756.688 3.894.725 5.531 1.049.533-1.782.775-4.258 1.209-6.135 1.991.563 3.918.774 5.933 1.068-.45 2-1.147 4.379-1.576 6.436 2.014.278 3.763 1.014 5.53 1.308.334-2.081 1.38-4.17 1.716-6.083 1.947.542 3.945 1.235 5.805 1.79-1.328 3.988-2.646 7.749-4.208 11.352-.694.997-1.171.225-1.884.838-.989 6.363-3.785 19.18-3.321 25.026 4.287-5.914 9.336-15.389 12.938-21.841-.29-.924-.79-1.021-.994-1.948 1.448-3.649 2.458-7.502 3.736-11.277 2.121.451 3.958 1.242 5.772 1.936-.785 1.794-1.453 4.107-2.323 5.795 1.897.844 3.435 1.269 5.063 2.049.933-1.689 1.982-3.84 2.714-5.452 1.593.686 3.26 1.018 4.853 1.643-2.178 3.822-3.853 7.606-5.676 11.267-1.43.201-1.12.059-2.624.345-.505 1.749-3.214 4.234-4.301 5.992-.618.129-1.568.261-2.285.248-2.588 5.048-5.016 9.899-7.657 14.689.696.401 1.549 1.043 2.149 1.799-.728.298-1.396.545-2.036.686-1.67 3.448-3.483 5.883-5.271 9.066-7.76-3.057-15.982-4.763-23.379-5.845-6.91-1.07-14.88-2.417-22.02-2.683" fill="none" stroke="#262626" stroke-miterlimit="2.4142" stroke-width="1.275"/><path d="m249.475 59.254c4.658.118 9.29.395 13.922.872l-13.922-.361z" fill="none" stroke="#262626" stroke-miterlimit="2.4142" stroke-width="1.275"/><path d="m249.475 64.239c4.447.129 8.868.467 13.288 1.018l-13.288-.348z" fill="none" stroke="#262626" stroke-miterlimit="2.4142" stroke-width="1.275"/><path d="m249.475 65.773c3.889.102 7.749.334 11.594.71l-11.594-.265z" fill="none" stroke="#262626" stroke-miterlimit="2.4142" stroke-width="1.275"/><path d="m282.471 85.067-6.236-1.409 2.477-10.403 6.252 1.38z" fill="#262626" stroke="#262626" stroke-miterlimit="2.4142" stroke-width="1.275"/><path d="m249.474 65.773v7.011" fill="none" stroke="#262626" stroke-miterlimit="2.4142" stroke-width="1.275"/><path d="m249.45 93.521.024 5.432" fill="none" stroke="#262626" stroke-linecap="round" stroke-miterlimit="2.4142" stroke-width="1.275"/><path d="m303.303 214.781c0-4.92 0-10.801 0-17.199-1.786 2.357-3.151 5.146-4.387 7.672-2.488 5.093-4.306 8.431-6.774 8.431-2.47 0-4.286-3.338-6.774-8.431-2.858-5.848-6.416-13.127-14.297-13.127s-11.438 7.278-14.296 13.127c-2.489 5.093-4.307 8.431-6.775 8.431-2.469 0-4.286-3.338-6.774-8.431-2.858-5.848-6.415-13.127-14.297-13.127s-11.438 7.278-14.296 13.127c-2.489 5.093-4.306 8.431-6.775 8.431s-4.285-3.338-6.774-8.431c-1.234-2.525-2.601-5.314-4.387-7.672v17.199c2.495 3.954 5.841 7.276 11.161 7.276 7.883 0 11.438-7.278 14.297-13.128 2.489-5.092 4.306-8.431 6.774-8.431 2.469 0 4.286 3.339 6.774 8.431 2.858 5.85 6.415 13.128 14.297 13.128 7.881 0 11.437-7.278 14.295-13.128 2.489-5.092 4.307-8.431 6.775-8.431s4.285 3.339 6.774 8.431c2.858 5.85 6.415 13.128 14.297 13.128 5.321.001 8.669-3.321 11.162-7.276z" fill="#2a166b"/><path d="m250 119.15h53.303v106.325c0 24.837-53.303 15.349-53.303 30.698 0-15.35-53.303-5.861-53.303-30.698 0-19.535 0-106.325 0-106.325z" fill="none" stroke="#000" stroke-miterlimit="5" stroke-width="1.6744"/><path d="m262.893 162.546h-8.289v-8.289l6.447-5.525h-22.103l6.447 5.525v8.289h-8.29l-5.525-6.447v22.102l5.525-6.447h8.29v8.288l-6.447 5.526h22.103l-6.447-5.526v-8.288h8.289l5.524 6.447v-22.102z" fill="#d62c26"/><path d="m237.105 169.452v-4.604h25.787v4.604zm15.197 10.59h-4.605v-25.785h4.605z" fill="#fff"/><path d="m252.898 142.05c15.891 0 25.654 4.899 26.402-2.049-.123-.027-.29-.05-.47-.076h.007s.523-3.558-.125-5.108c-1.626-3.883-11.704.25-25.334.25-13.629 0-26.243-2.334-29.983-2.334-2.459 0-2.994 3.314-2.566 7.269.34 3.14 1.284 4.207 2.086 4.207 3.973-.001 20.94-2.159 29.983-2.159z" fill="#007f7f"/><path d="m223.396 132.732c3.741 0 16.354 2.504 29.983 2.504 13.63 0 23.708-4.131 25.334-.25.65 1.55.126 5.108.126 5.108" fill="none" stroke="#000" stroke-miterlimit="10" stroke-width=".85"/><path d="m226.478 139.88c0-3.955-.625-7.148-3.082-7.148-2.459 0-2.994 3.314-2.566 7.269.835 7.712 4.704 3.1 5.024 0 4.384-1.175 48.851-.962 53.447 0-.747 6.948-9.085 2.049-26.402 2.049-12.934 0-25.28 2.166-29.884 2.166" fill="none" stroke="#000" stroke-miterlimit="10" stroke-width=".85"/><path d="m225.056 142.379c-1.371 1.236-2.313.782-2.8-.403-.489-1.187-.268-6.768 1.14-6.768 1.406 0 1.546 4.221 1.406 5.198.453.104.996-.038.996-.038" fill="none" stroke="#000" stroke-miterlimit="10" stroke-width=".85"/><path d="m252.966 134.825c-.724 0-1.628.176-1.628 4.919 0 3.371.751 2.826 1.305 2.791.553-.036 1.509.122 1.509-4.056-.001-4.178-1.186-3.654-1.186-3.654z" stroke="#000" stroke-miterlimit="10" stroke-width=".85"/><path d="m252.853 134.994c-2.53-.342-5.931-4.528-3.004-4.528 2.923 0 2.845 3.226 3.004 4.528z" fill="none" stroke="#000" stroke-miterlimit="10" stroke-width=".85"/><path d="m257.355 130.363c-3.41-.487-4.033 3.286-4.503 4.78 3.025.02 7.913-4.294 4.503-4.78" fill="none" stroke="#000" stroke-miterlimit="10" stroke-width=".85"/><path d="m204.778 276.411c1.897-.062 3.269-1.186 4.189-3.436.686-1.676.687-3.167.005-4.433-.589-1.093-1.708-2-3.235-2.625l-6.267-2.564-8.131 19.87 6.136 2.511c1.019.416 2.017.628 2.968.628 2.384 0 4.303-1.347 5.266-3.697 1.158-2.832.866-4.837-.931-6.254zm-1.133-8.157c1.47.603 2.701 1.471 1.77 3.747-.737 1.802-2.141 2.5-3.75 1.839l-2.172-.888 2.242-5.479zm-1.131 12.564c-.861 2.104-2.228 2.877-3.894 2.192l-2.777-1.136 2.6-6.354 2.593 1.062c.812.333 1.384.891 1.653 1.612.279.752.219 1.661-.175 2.624z"/><path d="m207.264 289.545 3.665 1.066 2.697-4.584 5.383 1.569-.244 5.299 3.66 1.066.783-22.119-4.29-1.249zm7.898-6.299 4.708-8.363-.604 9.562z"/><path d="m241.122 275.744-12.789-2.447-.206-.04-.611 3.19 4.742.907-3.385 17.685-.041.207 3.592.688 3.426-17.891 4.66.892z"/><path d="m245.929 276.105-6.751 21.195 3.815.155 1.516-5.098 5.605.226 1.038 5.202 3.813.155-4.569-21.654zm3.675 13.358-4.272-.173 2.555-9.249z"/><path d="m267.327 274.319-13.077 1.975.484 3.21 4.775-.721 2.715 18.001 3.615-.546-2.716-18.003 4.689-.707z"/><path d="m272.561 272.946-.294 21.972-.003.272 3.695-.96-.032-5.319 5.429-1.413 2.507 4.676 3.691-.96-10.667-19.393zm7.4 11.713-4.138 1.077-.246-9.595z"/><path d="m279.266 277.131h21.464v3.655h-21.464z" transform="matrix(.3251 .9457 -.9457 .3251 459.5301 -85.9732)"/><path d="m310.374 275.654c-1.183-2.685-3.082-3.752-6.216-3.56l-2.33.127c-2.266.085-3.351-.396-4.019-1.912-.394-.893-.453-1.677-.179-2.329.29-.688.892-1.07 1.344-1.27 1.634-.718 2.771-.238 3.545 1.525l.263.596 3.346-1.475-.274-.622c-.394-.895-1.593-3.614-4.647-3.614-.933 0-1.979.253-3.111.753-1.783.786-3.056 1.946-3.675 3.359-.641 1.457-.571 3.151.2 4.9 1.162 2.637 2.871 3.712 5.901 3.712.162 0 .327-.003.506-.01l2.355-.167c.283-.033.538-.049.784-.049 1.52 0 2.493.674 3.159 2.183.308.697.358 1.442.146 2.098-.239.731-.795 1.307-1.607 1.665-1.934.85-3.321.182-4.322-2.085l-.298-.676-3.346 1.475.288.648c.849 1.925 2.481 4.222 5.437 4.222.947 0 1.98-.243 3.067-.723 1.986-.875 3.324-2.029 3.975-3.432.7-1.512.603-3.308-.292-5.339z"/></svg>