<svg height="348.69" width="350" xmlns="http://www.w3.org/2000/svg"><g fill-rule="evenodd" transform="matrix(1.5843754 0 0 1.5843754 -104.87525 -536.5882)"><path d="m73.294118 345.77395h206.705882v79.88235l-103.35294 126-103.352942-126z" fill="#fff" stroke="#000" stroke-width="1.577909"/><path d="m83.382355 356.81308h186.52942v54.509979h-186.52942z"/><path d="m83.79413 421.12689h76.58823v93.88235z" fill="#fe0000"/><path d="m269.08824 421.12689h-76.58823v93.88235z"/><path d="m231.84559 365.9375c-5.80752 0-6.91728 3.27777-6.91728 5.3511v24.93015c-.1872 4.36263 3.36124 6.5625 6.63787 6.5625h18.64706c4.01856 0 8.18382-2.2149 8.18382-7.125v-7h-8.75v2.46875c.23376 1.85258-.64784 3.1245-2.05515 3.0625h-11.75735c-1.71493.11028-3.34294.12279-2.90625-2.1875v-16.15625c.34606-1.1277-.87868-2.77901 2.46875-2.90625h12.65625c.75678.41717 1.90067-.32701 1.90625 2.34375l.125 2.90625h8.15625v-6.94853c0-4.03383-3.47998-5.30147-6.61213-5.30147zm-68.10294 0h-25.59559v36.5625h8.89482v-13.48895h16.6406c3.46389 0 7.20467-1.64947 7.20467-6.32355v-10.625c0-2.94963-2.26344-6.0745-7.1445-6.125zm-63.876838 0c-3.43694.27008-4.86772 1.86406-4.8125 4.65625v12.09527c0 2.17021 1.96832 4.21799 7.069758 4.21799h15.49274c.74056 0 1.15625.37465 1.15625 1.5286v3.87689c0 1.15502-.41301 2.03125-1.38302 2.03125h-22.491978v7.84375h27.324308c4.051 0 5.58194-2.07768 5.58194-4.93598v-13.25152c0-4.94485-6.04296-4.65625-8.27519-4.65625h-13.91345c-1.25112.12612-2.45019-1.03724-2.34261-2.26982v-2.59565c-.13176-.95572.78281-1.67359 2-1.66578l22.53125-.03125v-6.84375zm81.968748 0v36.6875h8.125v-13.6875h18.34375v-8h-18.1875v-8.15625h24.46875v-6.84375zm-34.79268 8.03125h13.63643c1.01025 0 2.15625.07444 2.15625 2.0404v3.34931c0 2.01832-1.05564 2.09375-2.125 2.09375h-13.66768z" fill="#fff"/></g></svg>