<svg height="333" width="499.99997" xmlns="http://www.w3.org/2000/svg"><g transform="matrix(.9960159 0 0 1 -461.439943 39.8521)"><path d="m463.28572 126.6479v-166.5h251 251v166.5 166.5h-251-251z" fill="#eef6f8"/><path d="m463.28572 126.6479v-166.5h251 251v166.5 166.5h-251-251zm254.42857 114.92857c1.14652-1.14652 1.57143-3.58009 1.57143-9 0-5.65815.32969-7.42857 1.38337-7.42857 1.7494 0 2.58557 3.09275 2.60298 9.62756.00879 3.30102.54266 5.56659 1.49872 6.36005 1.61534 1.34062 15.76516 1.09549 17.15789-.29724.42766-.42765.00416-3.79544-.9411-7.48396-.94526-3.68853-1.71488-7.53141-1.71026-8.53974.017-3.71088 2.57167-.83709 4.80908 5.40979 3.3547 9.36637 3.86297 9.68196 10.61493 6.5908 3.08497-1.41234 5.88629-3.29044 6.22518-4.17355.33888-.88311-.54317-3.73569-1.96011-6.33907-4.44924-8.17473-9.78717-21.1165-15.11847-36.65464-2.83066-8.25-5.57765-14.95099-6.10443-14.89109-.52678.05991-1.91751 4.24464-3.09051 9.2994-2.25027 9.69699-2.85234 11.03382-4.28982 9.52502-.88105-.92477 3.99962-24.84373 5.34362-26.18773.36844-.36844 1.52633-.13503 2.5731.51868 1.63673 1.02216 2.43523 1.06173 4.52704-1.28186 2.20757-2.47328 2.88403-1.65211 4.56056-.92886 1.26022.54366 2.21394-.81581 5.17241-1.59047 5.62998-1.47419 17.74582-8.66292 17.74582-10.52919 0-.81223-1.2089-3.30355-2.68645-5.53628-2.7613-4.1726-3.01097-4.23766-9.06355-2.36172-4.05114 1.25561-2.4309-1.35847 3-4.84018 6.98937-4.48084 15.47534-13.81889 19.60779-21.57665 2.40855-4.52151 3.66372-5.99756 4.43999-5.22129.77626.77626.58928 2.11584-.66142 4.73858-.95898 2.01102-1.38198 4.00093-.93998 4.42203.74233.70724 8.6806 1.78474 15.80362 2.1451 3.42107.17308 13.60179-3.52787 24.31124-8.83774 8.91941-4.42235 17.41076-11.96407 19.58295-17.39291 1.2736-3.18304 2.2599-4.15366 4.72095-4.64587 4.76438-.95287 10.41095-6.95985 12.19006-12.96811.83729-2.82763 2.65991-6.87763 4.05027-9 3.0428-4.64483 5.04802-12.15635 4.40845-16.51401-.25681-1.74973.14126-5.20214.88458-7.67202 1.64221-5.45665 1.77213-12.17283.23548-12.17283-.61382 0-3.20132 1.50294-5.75 3.33987-2.54869 1.83692-7.44648 5.05088-10.88398 7.14213s-6.25 4.38838-6.25 5.10473c0 .71636-1.51804 4.63358-3.37341 8.70494-2.34854 5.15351-5.42344 9.5756-10.12113 14.5554-3.71124 3.93411-7.14321 7.15293-7.62659 7.15293-2.27311 0-.3091-3.42068 5.87113-10.22564 6.36736-7.01101 12.33663-17.02106 10.96692-18.39077-.34223-.34223-3.68104.07814-7.41958.93415-3.73853.85601-10.67202 1.8075-15.40774 2.11443-10.50993.68115-15.4458 2.33889-23.8896 8.02349-7.5643 5.09249-10.9427 8.53671-17.39757 17.7365-6.07738 8.66177-14.01657 15.85741-22.40166 20.30362-11.63878 6.17147-20.29198 13.78886-22.51405 19.81905-1.89395 5.13976-6.5361-18.10621-6.65287-33.31483-.06342-8.26013-1.64489-15.38099-4.77493-21.5-5.63647-11.01894-15.00016-11.93528-19.30635-1.88934-1.74462 4.07002-1.7843 4.71652-.41752 6.80249.83068 1.26777.33666 2.858229.88631 3.93118.48336.943561.39395 2.8359 1.97732 4.71763 4.7516 5.64695 3.94618 8.95196-6.68653 27.43804-2.53077 4.4-5.3257 9.31646-6.21096 10.92546l-1.60957 2.92546-2.07526-3.41249c-1.14139-1.87687-4.81488-6.79332-8.16331-10.92546-7.68799-9.48737-20.55564-25.1675-25.37056-30.9158-7.2247-8.62522-24.10145-17.238-37.44021-19.10701-21.27773-2.98141-36.51402-10.34222-55.81011-26.96246-4.48755-3.86523-8.55027-7.0277-9.02828-7.0277-2.41073 0-2.01738 7.06506 1.43562 25.78565 1.75169 9.4969 2.69323 11.66673 6.68587 15.40798 1.9474 1.82479 2.87462 3.67608 2.87462 5.73948 0 4.59925 4.92533 16.07282 7.39056 17.21632 1.16019.53816 4.03406 3.99274 6.38638 7.67684 5.8055 9.09236 15.80617 17.07098 29.72306 23.71332 6.05 2.88759 12.8 5.70291 15 6.25628 6.22731 1.56636 19.68809 1.285 21.64324-.45239 1.47618-1.31177 2.39119-.71373 9 5.88222 4.04622 4.03835 10.41682 9.31687 14.15689 11.73004 6.51011 4.20046 6.78733 4.5402 6.5 7.96592-.27759 3.3096-.69358 3.72855-5.53901 5.57834-2.88139 1.1-5.24389 2.50105-5.25 3.11344-.01506 1.50825 11.80074 6.71989 15.23531 6.71989 3.10717 0 3.21509.39423 1.59141 5.81358-1.06082 3.54069-.95841 4.09584 1.17431 6.36602.83775.89174 1.8966 1.6778 2.83466 2.11697.23325.1092.48865.19696.69683.25956.23885.07183.45711.11054.64537.11054 2.65737 0 5.97097-5.84761 5.2416-9.25-.44144-2.05924-.20495-2.75.9415-2.75 2.38371 0 9.50266 15.43478 10.26233 22.25.52863 4.74262.37658 5.75-.86793 5.75-1.0594 0-1.71031-1.51871-2.18519-5.0985-.82475-6.21731-3.46457-13.10708-4.84559-12.64674-.55761.18587-2.32792 3.91708-3.93404 8.29159s-3.32879 8.3664-3.82817 8.87087c-1.54038 1.55609-2.25665-2.16627-1.0712-5.56686 2.19284-6.29039.30728-3.68457-4.6204 6.38534-2.76255 5.64536-8.49633 15.43774-12.74175 21.76083-5.75766 8.57542-7.47874 11.8773-6.77361 12.99516 1.35982 2.15576 9.90836 6.34703 11.61203 5.69327.79262-.30416 2.17063-3.1702 3.06223-6.36899 2.40887-8.64228 3.47079-10.80436 4.70194-9.57321.72936.72936.5583 3.41023-.56381 8.83619-1.0323 4.99166-1.26507 8.13493-.64812 8.75188.52949.52949 4.32221 1.17831 8.42826 1.44182l7.46554.47911.6642-5.87588c1.43926-12.73246 4.01117-14.07839 4.01117-2.09912 0 5.82025.37737 8.01775 1.5 8.73468 2.56017 1.63498 14.63928 1.20642 16.42857-.58287zm30.57143-117.64379c0-3.46654 8.86994-11.25629 15.11772-13.27668 10.591-3.42488 17.27713-8.90444 25.59151-20.9733 4.70766-6.83348 12.06932-13.5348 14.86851-13.5348 2.62915 0 1.45415 1.88198-3.15481 5.05303-2.5187 1.7329-6.19912 5.68477-8.1839 8.78748-7.42029 11.59977-16.83436 19.75178-26.74886 23.16287-6.26877 2.15678-11.53802 5.84899-13.45256 9.42635-1.79642 3.35663-4.03761 4.10879-4.03761 1.35505zm-89.70509-15.14703c-4.2872-5.14924-9.46266-11.39882-11.50102-13.88795-5.24513-6.40507-14.22821-12.04601-24.86288-15.61269-9.80619-3.28883-18.93101-8.4662-18.93101-10.74136 0-2.00813.94682-1.75495 6 1.60445 2.475 1.6454 8.63701 4.37209 13.69335 6.05931 10.78485 3.59873 19.04691 8.6852 25.30665 15.57982 7.24696 7.98197 19.47223 23.34824 19.82332 24.91647.74653 3.33454-2.19436.89067-9.52841-7.91805zm-62.03477-35.90141c-2.70733-3.44502-7.24841-8.03748-10.09128-10.20549-5.1998-3.96542-5.91107-4.9541-4.2864-5.95821 2.47083-1.52705 21.11754 17.03102 21.11754 21.01716 0 2.70132-1.84938 1.36956-6.73986-4.85346zm113.73986-.73634c-1.1-1.1-2-2.675-2-3.5s.9-2.4 2-3.5 2.675-2 3.5-2 2.4.9 3.5 2 2 2.675 2 3.5-.9 2.4-2 3.5-2.675 2-3.5 2-2.4-.9-3.5-2zm4.25-3.41667c.1375-.50416-.3125-1.10416-1-1.33333s-1.25.33333-1.25 1.25c0 1.69335 1.79279 1.75975 2.25.08333zm-53.43646 88.20313c.66744-.66744 3.11597-1.91629 5.44116-2.77521 5.89632-2.17808 5.83417-4.10403-.25859-8.01374-4.42214-2.83769-5.42857-3.1215-7.58496-2.13898-1.36746.62306-4.9606 1.42364-7.98475 1.77907-3.32755.39108-5.36003 1.08373-5.14785 1.75432.38773 1.22541 12.39825 10.60808 13.57913 10.60808.40828 0 1.28841-.54609 1.95586-1.21354zm116.85695-8.17945c2.52944-2.17573 2.66339-2.61462 1.47548-4.83426-.71859-1.34269-2.32321-3.71631-3.56583-5.2747l-2.2593-2.83343-2.61792 1.91769c-1.43986 1.05473-2.83218 2.43918-3.09406 3.07655-.5635 1.37147 4.91256 10.34114 6.31335 10.34114.53145 0 2.21817-1.07684 3.74828-2.39299zm-121.24753-7.62997c.68518-.68518-.48582-2.51359-3.61194-5.6397-4.54161-4.54162-4.76404-4.6347-12.21842-5.11309-9.04603-.58054-9.25899-.16109-3.88202 7.64603l3.71058 5.38759 7.49395-.63347c4.12168-.34841 7.95021-1.08972 8.50785-1.64736zm129.27466-1.22704c4.1956-4.61335 7.64888-10.8035 6.60774-11.84464-.55763-.55763-3.62113-.87695-6.80779-.70961-4.90467.25755-6.09404.70747-7.74929 2.93141-1.89184 2.54183-1.89718 2.72048-.16433 5.5 2.33885 3.75156 4.55864 6.37284 5.39672 6.37284.36889 0 1.59152-1.0125 2.71695-2.25z" fill="#007ec3"/><path d="m690.83234 89.22334c-.32536-.52646-.46896-3.45575-.3191-6.50954.24349-4.96167.63949-12.249499 2.59739-12.255549 3.16377-.00979 3.32418 7.824609 1.63185 13.523289-1.54043 5.18718-2.85486 6.94927-3.91014 5.2418zm1.40934-16.926381c-.87589-.65798-1.21203-5.449059-1.90994-7.649059-1.77308-5.58926-3.74558-8.43527-6.59786-9.51971-3.03384-1.15346-6.43943-6.55972-6.44442-10.23029-.00431-3.16952 2.07488-3.57424 7.77436-1.51328 3.14728 1.13808 3.57174 1.04947 5.321-1.11078 1.0455-1.29113 1.9009-3.84336 1.9009-5.67162 0-1.82827.43067-4.45686.95704-5.84132 1.06524-2.80179 6.4489-6.05494 8.63322-5.21674 2.20038.84437 1.81152 9.47718-.59026 13.10374-2.74479 4.14449-2.51999 4.82013 1.36151 4.09196 7.71043-1.44649 7.45578 6.90207-.44783 14.682-2.70252 2.66023-2.4086 7.114589-3.94863 7.036486-.93118-.047225-1.59746 3.918133-2.26015 5.401113-1.00467 2.24825-2.42106 3.43503-3.74894 2.4375z" fill="#008c58"/><path d="m780.88915 207.75544c-5.02878-7.68721-7.58223-9.60754-12.77504-9.60754-2.39155 0-4.18754 1.14562-8.05756 5.13976-3.61603 3.73199-5.19935 4.78491-5.78073 3.84422-.98874-1.59981 1.30895-9.55196 3.44049-11.90728.86318-.9538 1.56941-2.50187 1.56941-3.44015s-3.825-5.67379-8.5-10.52336c-4.675-4.84958-7.69673-11.51418-8.1735-12.18268-1.30602-1.83125 1.20342-3.41507 1.38109-3.58475 2.11863-2.02333 4.95913 1.12924 14.30511 12.66992 4.44707 5.49137 8.62597 10.03088 9.28644 10.08779.66047.0569 4.57847.02211 8.70667-.07733 11.50156-.27704 24.99419 5.69497 24.99419 11.06275 0 2.12378-1.59022 2.3976-5.4349.93586-2.20035-.83657-2.5651-.70277-2.5651.94098 0 1.05393.45 2.19435 1 2.53427 1.25747.77716 1.32094 4.5.07673 4.5-.50781 0-2.32681-1.18099-4.04224-2.62443s-3.40062-2.34278-3.74486-1.99853c-.34425.34425-.13863 2.75532.45693 5.35794 1.05254 4.59962.8968 6.26502-.58588 6.26502-.3967 0-2.89746-3.32661-5.55725-7.39246zm-134.60838 5.64246c-.00272-.4125.7575-2.87728 1.68938-5.47729s1.37297-5.04864.98021-5.44141c-.39277-.39276-3.07964 1.62202-5.97083 4.47729-2.89118 2.85528-5.80505 5.19141-6.47526 5.19141-1.85618 0-1.45544-4.61534.78145-9 2.47879-4.85883 2.48199-4.79244-.25-5.18045-4.02259-.5713-2.47027-3.21263 3.25-5.52998 5.90965-2.39408 13.2139-2.91914 17.56988-1.263 3.1533 1.19888 4.15587.63322 12.43012-7.01324 4.03763-3.73129 9.11107-7.20397 10.49965-5.99534.93105.8104 1.88411 1.83407 2.4033 2.07203 1.69473.77675-2.88624 4.39909-6.87574 8.07994l-5.52721 4.83014v9.15308c0 5.91018-.40058 9.29139-1.13063 9.54349-.62184.21473-2.42071-1.64877-3.99748-4.14111-1.57677-2.49233-3.51396-4.77984-4.30487-5.08333-.89264-.34255-3.61763 1.73875-7.18528 5.48797-5.23902 5.50568-7.87361 7.27276-7.88669 5.2898zm45.40455-135.214869c-.60596-.153639-.84188.229519-1.5783-.949671-.94674-1.51598-1.29642-2.702893.11131-3.50426.90032-.512517 1.86592-1.574383 2.60054-1.759771-1.98685 4.271274-3.05446.166733 2.47767-1.071429.70833-.4875 4.6337-.967109 5.95328-.760153 2.27719.357143 2.21447 3.473034 2.21447 5.105164 0 1.23645-6.53665 2.656256-8.60551 3.041596-.71788.452494-1.99379-.051387-3.17346-.101476zm19.7152-6.667271c-2.62289-1.83715-2.68127-3.54523-.19799-5.79258 3.18424-2.8817 7.93335.73989 5.97584 4.55707-1.24942 2.43641-3.40518 2.89739-5.77785 1.23551zm4.69762-2.63237c.39799-2.06658-2.48881-3.4591-4.01242-1.93549s-.13109 4.41041 1.93549 4.01242c.95785-.18446 1.89247-1.11908 2.07693-2.07693z" fill="#b93332"/></g></svg>