<svg enable-background="new 0 0 750 500" viewBox="0 0 750 500" xmlns="http://www.w3.org/2000/svg"><path d="m0 .5h750v500h-750z" fill="#fff"/><path d="m0 0h329.1v207h-329.1z" fill="#5daecf"/><path d="m420.9 0h329.1v207h-329.1z" fill="#5daecf"/><path d="m420.9 293h329.1v207h-329.1z" fill="#266535"/><path d="m0 293h329.1v207h-329.1z" fill="#266535"/><path d="m420.9 219.3h-34.2v-30.1h-27.1v30.1h-30.5v27.1h30.5v57.2h27.1v-57.2h34.2z" fill="#c33c3c"/><path d="m387.4 246.4-13.5-10.2-14 10.1 5.4-16.2-13.7-10.1h17l5.3-16 5.2 16.3h17l-13.8 9.9z" fill="#266535" stroke="#977540" stroke-miterlimit="10" stroke-width="2"/><path d="m346.6 215-5.8-4.4-6 4.3 2.3-7-5.9-4.3h7.3l2.3-6.9 2.3 7h7.3l-6 4.3z" fill="#b49b49" stroke="#977540" stroke-miterlimit="10"/><path d="m412 215-5.9-4.4-6 4.3 2.3-7-5.9-4.3h7.4l2.2-6.9 2.3 7h7.3l-5.9 4.3z" fill="#b49b49" stroke="#977540" stroke-miterlimit="10"/><path d="m346.6 268.3-5.8-4.4-6 4.3 2.3-6.9-5.9-4.4h7.3l2.3-6.9 2.3 7h7.3l-6 4.3z" fill="#b49b49" stroke="#977540" stroke-miterlimit="10"/><path d="m412 268.3-5.9-4.4-6 4.3 2.3-6.9-5.9-4.4h7.4l2.2-6.9 2.3 7h7.3l-5.9 4.3z" fill="#b49b49" stroke="#977540" stroke-miterlimit="10"/><path d="m419.9 293.3c8.1-2.1 36.2 1.8 36.2 1.8l-1-21.9s-35.9.3-42.5 0c-12.4-.6-17.2 37.5-12.4 31.4-1.4 7.3 18.4 23.5 18.4 23.5-2 .4-6.1.2-8.1 0-4.5-.4-13.3-2.6-17.8-3.3-3-.5-9-1.2-12.1-1.5-1.7-.2-5.1-.6-6.8-.6s-5.1.4-6.8.6c-3 .3-9.1 1-12.1 1.5-4.5.7-13.3 2.9-17.8 3.3-2 .2-6.1.4-8.1 0 0 0 19.8-16.2 18.4-23.5 4.8 6.2 0-32-12.4-31.4-6.6.3-42.5 0-42.5 0l-.8 22s27.8-3.4 36.1-1.8c.1 0 0 .3 0 .3s-18.6 25.4-18.4 26.8c0-.3 0-.3 0 0 0 .1 0 .2.1.3 0-.1-.1-.2-.1-.3v6.3s-2.1 12.6 0 16c3 4.8 14.6 9.7 20.2 10.3 11.1 1 33-5.4 44.2-5.4 11.1 0 33.1 6.4 44.2 5.4 5.6-.5 17.2-5.4 20.2-10.3 2.1-3.4 0-16 0-16s0-5.2 0-6.3c0 .1 0 .2-.1.3 0-.1.1-.2.1-.3 0-.3 0-.3 0 0 .2-1.4-18.4-27.1-18.3-27.2-.1.1-.1 0 0 0z" fill="#010002"/><g fill="#fff"><path d="m454.3 274s-35 .3-41.5 0c-12.1-.6-16.8 34.5-12.1 28.8 5.8-6.9 13.6-9.3 18.6-10.2 8.6-1.5 35.5 1.2 35.5 1.2z"/><path d="m418.4 327.2s18.2-2.3 18.9-7.3c.2-1.4-15.2-22.8-17.8-26.2-1.5-2-17.9 5.4-18.9 10.8-1.4 7.1 17.8 22.7 17.8 22.7z"/><path d="m310.4 321.8c0-.2 0-.3 0 0z"/><path d="m437.3 327.7s0-4.9 0-5.9c0 2.3-14.3 6.1-19.3 7-2 .4-6 .2-8 0-4.4-.4-13.1-2.4-17.5-3.1-3-.4-8.9-1.1-11.9-1.4-1.7-.2-5-.6-6.7-.6s-5 .4-6.7.6c-3 .3-8.9 1-11.9 1.4-4.4.7-13.1 2.7-17.5 3.1-2 .2-6.1.4-8 0-5.1-1-19.3-4.8-19.3-7v5.9s-2.1 11.8 0 14.9c2.9 4.5 14.4 9.1 19.9 9.6 10.9.9 32.6-5.1 43.5-5.1 11 0 32.6 6 43.5 5.1 5.6-.5 17-5.1 19.9-9.6 2.1-3.1 0-14.9 0-14.9z"/><path d="m437.3 321.8c0-.3 0-.2 0 0z"/></g><path d="m327.5 334.6h5v1.5h-2.9v2.3h2.8v1.5h-2.8v3.8h-2.1z"/><path d="m333.9 334.6h5.2v1.5h-3.1v2.2h3v1.5h-3v2.4h3.3v1.6h-5.4zm2.7-3.2h1.7l-2 2.4h-.9z"/><path d="m344.3 334.6h5.2v1.5h-3.1v2.2h3v1.5h-3v2.4h3.3v1.6h-5.4z"/><path d="m354.7 334.6h5.2v1.5h-3.1v2.2h3v1.5h-3v2.4h3.3v1.6h-5.4z"/><path d="m366.4 334.8-.1 1.7c-.3-.1-.6-.3-.9-.3-.3-.1-.6-.1-.9-.1-.4 0-.7.1-.9.2-.2.2-.3.4-.3.7s.1.5.3.7.6.4 1.1.7c1 .5 1.6.9 1.9 1.3s.4.9.4 1.5c0 .9-.3 1.6-.9 2.1s-1.4.8-2.4.8c-.3 0-.7 0-1.1-.1s-.8-.2-1.2-.3l.2-1.7c.4.2.8.3 1.1.4s.7.1 1 .1c.4 0 .7-.1 1-.3.2-.2.4-.5.4-.8 0-.5-.5-1-1.5-1.5-.1-.1-.2-.1-.3-.1-.8-.4-1.3-.8-1.6-1.1-.3-.4-.4-.8-.4-1.4 0-.9.3-1.5.9-2s1.4-.7 2.4-.7c.3 0 .6 0 1 .1s.4 0 .8.1z"/><path d="m368.3 334.6h2.3c.6 0 1.1 0 1.5.1s.7.2.9.3c.4.3.8.6 1 1s.3.9.3 1.5c0 1-.3 1.7-.8 2.2-.6.5-1.4.7-2.5.7h-.5v3.4h-2.1v-9.2zm2.1 1.6v2.7h.5c.5 0 .8-.1 1-.3s.3-.6.3-1.1-.1-.8-.3-1-.6-.3-1.1-.3z"/><path d="m375.5 334.6h5.2v1.5h-3.1v2.2h3v1.5h-3v2.4h3.3v1.6h-5.4z"/><path d="m382.4 334.6h2.2.3s.2 0 .2 0c1.2 0 2 .2 2.6.6.5.4.8 1 .8 1.9 0 .6-.1 1-.4 1.4s-.7.6-1.3.8c.3.1.5.2.7.4s.3.5.5 1.1l1 3.1h-2.2l-.7-2.6c-.1-.5-.3-.8-.4-.9-.2-.1-.4-.2-.7-.2h-.4v3.8h-2.1v-9.4zm2 1.6v2.4h.4c.5 0 .9-.1 1.1-.3s.3-.5.3-.9-.1-.8-.3-.9c-.2-.2-.6-.3-1.1-.3z"/><path d="m392.4 334.6h2.4l2.9 9.2h-2.2l-.5-2.1h-3l-.6 2.1h-2.1zm1.2 1.8-1.1 3.7h2.1z"/><path d="m398.5 334.6h2.4l2.8 6.7v-6.7h1.8v9.2h-2.5l-2.8-6.7v6.7h-1.8v-9.2z"/><path d="m413.3 334.9-.1 1.7c-.3-.2-.6-.3-.8-.4s-.6-.1-.9-.1c-.8 0-1.4.3-1.8.8s-.6 1.3-.6 2.3.2 1.8.6 2.3 1 .8 1.8.8c.3 0 .6 0 .9-.1s.6-.2.9-.4l.1 1.8c-.3.1-.7.2-1 .3-.4.1-.7.1-1.1.1-1.3 0-2.4-.4-3.2-1.3s-1.2-2-1.2-3.5c0-1.4.4-2.6 1.2-3.4.8-.9 1.8-1.3 3.1-1.3.4 0 .7 0 1.1.1.3 0 .7.2 1 .3zm-2.9 8.9h.7v.6h.1c.5 0 .9.1 1.1.3.3.2.4.5.4 1 0 .4-.1.7-.4.9s-.7.3-1.2.3c-.3 0-.6 0-.9-.1-.3 0-.6-.1-1-.2v-.8c.4.1.7.2 1 .2s.5.1.8.1c.2 0 .3 0 .4-.1s.1-.2.1-.3c0-.2-.1-.3-.2-.4s-.3-.1-.6-.1c-.1 0-.1 0-.2 0h-.1z"/><path d="m416.6 334.6h2.4l2.9 9.2h-2.2l-.5-2.1h-3l-.6 2.1h-2.1zm1.2 1.8-1.1 3.7h2.1z"/><path d="m293.3 274s35 .3 41.5 0c12.1-.6 16.8 34.5 12.1 28.8-5.8-6.9-13.6-9.3-18.6-10.2-8.6-1.5-35.5 1.2-35.5 1.2z" fill="#fff"/><path d="m329.3 327.3s-18.2-2.3-18.9-7.3c-.2-1.4 15.2-22.8 17.8-26.2 1.5-2 17.9 5.4 18.9 10.8 1.4 7.1-17.8 22.7-17.8 22.7z" fill="#fff"/><g transform="matrix(-5.9115 0 0 5.9115 2703.1 -1308.8)"><path d="m407.9 261.7c-.8-.7-1.7-2.8-1.7-3.1 1.8 1.4 2.3 2.9 1.7 3.1z" fill="#289042"/><path d="m407.9 261.7c.6-.2.1-1.8-1.7-3.1 1.1 1.6 1.8 2.9 1.7 3.1z" fill="#289042"/><path d="m407.9 261.7c-.9-.7-1.7-2.9-1.7-3.1 1.8 1.4 2.3 2.9 1.7 3.1z" fill="none" stroke="#030104" stroke-width=".2801"/><path d="m407.9 261.7c.6-.2.1-1.8-1.7-3.1 1.1 1.6 1.8 2.9 1.7 3.1z" fill="none" stroke="#030104" stroke-linecap="round" stroke-width=".2334"/><path d="m408.2 261c.3.6 1.8.1 2.9-1.6-1.4 1-2.7 1.7-2.9 1.6z" fill="#289042"/><path d="m408.2 261.1c.5-.8 2.6-1.6 2.9-1.6-1.1 1.7-2.6 2.1-2.9 1.6z" fill="#289042"/><path d="m408.2 261c.6-.8 2.7-1.6 2.9-1.6-1.1 1.8-2.6 2.2-2.9 1.6z" fill="none" stroke="#030104" stroke-width=".2801"/><path d="m408.2 261c.3.6 1.8.1 2.9-1.6-1.4 1-2.7 1.7-2.9 1.6z" fill="none" stroke="#030104" stroke-linecap="round" stroke-width=".2334"/><path d="m408.4 258.5c-.1-1 .8-2.9 1-3.1.4 2-.4 3.3-1 3.1z" fill="#289042"/><path d="m408.4 258.5c-.1-1 .8-3 1-3.1.4 2-.4 3.3-1 3.1z" fill="none" stroke="#030104" stroke-width=".2801"/><path d="m408.4 258.5c.6.2 1.4-1 1-3.1-.3 1.7-.8 3-1 3.1z" fill="#289042"/><path d="m408.4 258.5c.6.2 1.4-1 1-3.1-.3 1.7-.8 3-1 3.1z" fill="none" stroke="#030104" stroke-linecap="round" stroke-width=".2334"/><path d="m407.1 254.9c-.2-.8.4-2.4.6-2.6.5 1.6-.1 2.7-.6 2.6z" fill="#289042"/><path d="m407.1 254.8c.5.2 1-.9.6-2.6-.2 1.4-.4 2.5-.6 2.6z" fill="#289042"/><path d="m407.1 254.9c-.2-.8.5-2.5.6-2.6.5 1.6-.1 2.7-.6 2.6z" fill="none" stroke="#030104" stroke-width=".2801"/><path d="m407.1 254.8c.5.2 1-.9.6-2.6-.2 1.4-.4 2.5-.6 2.6z" fill="none" stroke="#030104" stroke-linecap="round" stroke-width=".1867"/><path d="m407.3 265.6c-.1-.2-.1-.3-.1-.5.1-1 .3-1.8.7-2.7.1-.2 0-.5 0-.8.1-.6.3-1.2.3-1.8 0 0 0-.2 0-.3-.1-.3 0-.7 0-1-.3-1.3-.5-2.6-1.3-3.7-.9-1.3-1.8-2.8-3.3-3.7-1-.5-1.8-1.2-2.8-1.6-1.5-.5-3-.9-4.6-.9l.2-.1c1.5-.1 3.1.4 4.6.9 1 .3 1.9 1.1 2.8 1.6 1.5.8 2.4 2.3 3.4 3.7.8 1.1 1 2.4 1.3 3.7.1.3-.1.7 0 1v.3c0 .6-.3 1.2-.3 1.8v.8c-.4.9-.7 1.7-.7 2.7 0 .2 0 .3.1.5z" fill="#6b5432"/><path d="m407.3 265.6c-.1-.2-.1-.3-.1-.5.1-1 .3-1.8.7-2.7.1-.2 0-.5 0-.8.1-.6.3-1.2.3-1.8 0 0 0-.2 0-.3-.1-.3 0-.7 0-1-.3-1.3-.5-2.6-1.3-3.7-.9-1.3-1.8-2.8-3.3-3.7-1-.5-1.8-1.2-2.8-1.6-1.5-.5-3-.9-4.6-.9l.2-.1c1.5-.1 3.1.4 4.6.9 1 .3 1.9 1.1 2.8 1.6 1.5.8 2.4 2.3 3.4 3.7.8 1.1 1 2.4 1.3 3.7.1.3-.1.7 0 1v.3c0 .6-.3 1.2-.3 1.8v.8c-.4.9-.7 1.7-.7 2.7 0 .2 0 .3.1.5z" fill="none" stroke="#030104" stroke-width=".2334"/><g fill="#289042"><path d="m408.1 262.2c.5-.8 2.6-1.6 2.9-1.6-1.1 1.7-2.6 2.2-2.9 1.6z"/><path d="m407.8 262.6c-.9-.6-1.9-2.6-1.9-3 1.9 1.2 2.5 2.7 1.9 3z"/><path d="m408.3 260.1c-.8-.4-2.1-2.1-2.2-2.4 1.8.8 2.6 2 2.2 2.4z"/><path d="m408.4 259.5c.1-.9 1.5-2.6 1.8-2.7-.1 2-1.3 3-1.8 2.7z"/><path d="m408.2 258.6c-.9-.3-2.4-1.7-2.5-2 1.9.4 2.9 1.6 2.5 2z"/><path d="m408 257.4c-.8-.2-2.2-1.6-2.3-1.8 1.7.5 2.6 1.5 2.3 1.8z"/><path d="m408.2 257.3c-.5-.9-.6-3.1-.5-3.4 1.2 1.8 1.1 3.4.5 3.4z"/><path d="m407.6 256.2c-.8-.1-2.4-1.2-2.5-1.4 1.7.1 2.8 1 2.5 1.4z"/><path d="m407 255c-.9-.1-2.6-1.3-2.8-1.6 2 .2 3.1 1.2 2.8 1.6z"/><path d="m406.2 253.8c-.9 0-2.7-1.1-2.9-1.4 1.9 0 3.1.9 2.9 1.4z"/><path d="m404.5 251.8c-.8.2-2.6-.2-2.8-.3 1.6-.6 2.9-.2 2.8.3z"/><path d="m404.9 252.1c-.4-.7-.5-2.5-.4-2.7 1 1.4 1 2.7.4 2.7z"/><path d="m403.8 251.2c-.7-.5-1.4-2.2-1.3-2.5 1.4 1.1 1.7 2.3 1.3 2.5z"/><path d="m401.7 250c-.5.5-2 1-2.2 1 .9-1.2 2-1.4 2.2-1z"/><path d="m400.2 249.4c-.8-.4-1.9-1.9-1.9-2.1 1.6.6 2.3 1.8 1.9 2.1z"/><path d="m400.9 249.6c-.6.6-2.6 1-2.9.9 1.3-1.2 2.7-1.4 2.9-.9z"/><path d="m399.9 249.3c-.7.5-2.7.5-3 .4 1.4-1 2.9-.9 3-.4z"/><path d="m397.1 248.6c-.7-.1-1.9-1-2-1.2 1.3.2 2.2.9 2 1.2z"/><path d="m408.3 260.2c.6-.8 2.6-1.6 2.9-1.6-1 1.7-2.5 2.2-2.9 1.6z"/><path d="m403.5 251c.1 0-.9.2-2.4-.5 1.6-.4 2.4 0 2.4.5z"/><path d="m406.5 254c-.5-.9-.6-3.1-.5-3.4 1.2 1.9 1.1 3.4.5 3.4z"/><path d="m401.6 249.9c-.7-.6-1.4-2.1-1.3-2.5 1.4 1.1 1.7 2.3 1.3 2.5z"/><path d="m408.3 260c.4-.3-.3-1.6-2.1-2.4 1.2 1.2 2.1 2.3 2.1 2.4z"/></g><path d="m408.3 260c.4-.3-.3-1.6-2.1-2.4 1.2 1.2 2.1 2.3 2.1 2.4z" fill="none" stroke="#030104" stroke-linecap="round" stroke-width=".1867"/><path d="m408.1 262.2c.3.6 1.8.1 2.9-1.6-1.4 1-2.7 1.6-2.9 1.6z" fill="#289042"/><path d="m408.1 262.2c.3.6 1.8.1 2.9-1.6-1.4 1-2.7 1.6-2.9 1.6z" fill="none" stroke="#030104" stroke-linecap="round" stroke-width=".2334"/><path d="m407.8 262.6c.5-.3 0-1.8-1.9-2.9 1.2 1.4 2 2.7 1.9 2.9z" fill="#289042"/><path d="m407.8 262.6c.5-.3 0-1.8-1.9-2.9 1.2 1.4 2 2.7 1.9 2.9z" fill="none" stroke="#030104" stroke-linecap="round" stroke-width=".2334"/><path d="m408.4 259.5c.5.4 1.7-.6 1.8-2.7-.8 1.5-1.6 2.6-1.8 2.7z" fill="#289042"/><path d="m408.4 259.5c.5.4 1.7-.6 1.8-2.7-.8 1.5-1.6 2.6-1.8 2.7z" fill="none" stroke="#030104" stroke-linecap="round" stroke-width=".2334"/><path d="m408.2 258.5c.4-.4-.6-1.5-2.5-2 1.4 1 2.5 1.9 2.5 2z" fill="#289042"/><path d="m408.2 258.5c.4-.4-.6-1.5-2.5-2 1.4 1 2.5 1.9 2.5 2z" fill="none" stroke="#030104" stroke-linecap="round" stroke-width=".1867"/><path d="m408 257.4c.3-.4-.5-1.4-2.3-1.8 1.3.9 2.3 1.7 2.3 1.8z" fill="#289042"/><path d="m408 257.4c.3-.4-.5-1.4-2.3-1.8 1.3.9 2.3 1.7 2.3 1.8z" fill="none" stroke="#030104" stroke-linecap="round" stroke-width=".1867"/><path d="m408.2 257.3c.6 0 .7-1.6-.5-3.3.4 1.7.6 3.1.5 3.3z" fill="none" stroke="#030104" stroke-linecap="round" stroke-width=".2334"/><path d="m407.6 256.2c.2-.4-.8-1.3-2.5-1.4 1.4.6 2.5 1.2 2.5 1.4z" fill="#289042"/><path d="m407.6 256.2c.2-.4-.8-1.3-2.5-1.4 1.4.6 2.5 1.2 2.5 1.4z" fill="none" stroke="#030104" stroke-linecap="round" stroke-width=".1867"/><path d="m407 255c.3-.5-.9-1.4-2.8-1.6 1.6.7 2.8 1.4 2.8 1.6z" fill="#289042"/><path d="m407 255c.3-.5-.9-1.4-2.8-1.6 1.6.7 2.8 1.4 2.8 1.6z" fill="none" stroke="#030104" stroke-linecap="round" stroke-width=".1867"/><path d="m406.2 253.7c.2-.5-1-1.4-2.9-1.3 1.5.6 2.8 1.2 2.9 1.3z" fill="#289042"/><path d="m406.2 253.7c.2-.5-1-1.4-2.9-1.3 1.5.6 2.8 1.2 2.9 1.3z" fill="none" stroke="#030104" stroke-linecap="round" stroke-width=".1867"/><path d="m404.5 251.8c0-.5-1.2-.9-2.8-.3 1.5 0 2.7.2 2.8.3z" fill="#289042"/><path d="m404.5 251.8c0-.5-1.2-.9-2.8-.3 1.5 0 2.7.2 2.8.3z" fill="none" stroke="#030104" stroke-linecap="round" stroke-width=".1867"/><path d="m404.9 252.1c.5 0 .6-1.3-.4-2.7.4 1.4.5 2.5.4 2.7z" fill="#289042"/><path d="m404.9 252.1c.5 0 .6-1.3-.4-2.7.4 1.4.5 2.5.4 2.7z" fill="none" stroke="#030104" stroke-linecap="round" stroke-width=".1867"/><path d="m403.8 251.2c.5-.2.1-1.4-1.3-2.5.7 1.2 1.3 2.3 1.3 2.5z" fill="#289042"/><path d="m403.8 251.2c.5-.2.1-1.4-1.3-2.5.7 1.2 1.3 2.3 1.3 2.5z" fill="none" stroke="#030104" stroke-linecap="round" stroke-width=".1867"/><path d="m401.7 250c-.2-.4-1.3-.2-2.2 1 1.4-.7 1.9-1.1 2.2-1z" fill="#289042"/><path d="m401.7 250c-.2-.4-1.3-.2-2.2 1 1.4-.7 1.9-1.1 2.2-1z" fill="none" stroke="#030104" stroke-linecap="round" stroke-width=".1867"/><path d="m400.2 249.3c.4-.3-.3-1.4-1.9-2.1 1.1 1.1 1.9 2 1.9 2.1z" fill="#289042"/><path d="m400.2 249.3c.4-.3-.3-1.4-1.9-2.1 1.1 1.1 1.9 2 1.9 2.1z" fill="none" stroke="#030104" stroke-linecap="round" stroke-width=".1867"/><path d="m400.9 249.6c-.2-.5-1.6-.4-2.8.9 1.4-.6 2.6-.9 2.8-.9z" fill="#289042"/><path d="m400.9 249.6c-.2-.5-1.6-.4-2.8.9 1.4-.6 2.6-.9 2.8-.9z" fill="none" stroke="#030104" stroke-linecap="round" stroke-width=".1867"/><path d="m399.9 249.3c-.1-.5-1.6-.6-3 .4 1.6-.3 2.9-.5 3-.4z" fill="#289042"/><path d="m399.9 249.3c-.1-.5-1.6-.6-3 .4 1.6-.3 2.9-.5 3-.4z" fill="none" stroke="#030104" stroke-linecap="round" stroke-width=".1867"/><path d="m397.1 248.6c.2-.3-.6-1-2-1.1 1 .5 1.9 1 2 1.1z" fill="#289042"/><path d="m397.1 248.6c.2-.3-.6-1-2-1.1 1 .5 1.9 1 2 1.1z" fill="none" stroke="#030104" stroke-linecap="round" stroke-width=".1867"/><path d="m408.4 260.2c.3.6 1.8.1 2.9-1.6-1.5 1-2.7 1.7-2.9 1.6z" fill="#289042"/><path d="m408.4 260.2c.3.6 1.8.1 2.9-1.6-1.5 1-2.7 1.7-2.9 1.6z" fill="none" stroke="#030104" stroke-linecap="round" stroke-width=".2334"/><path d="m403.5 251c.1-.5-.8-.9-2.4-.5 1.4.2 2.2.4 2.4.5z" fill="#289042"/><path d="m403.5 251c.1-.5-.8-.9-2.4-.5 1.4.2 2.2.4 2.4.5z" fill="none" stroke="#030104" stroke-linecap="round" stroke-width=".1867"/><path d="m406.5 254c.6 0 .8-1.6-.5-3.3.4 1.7.6 3.2.5 3.3z" fill="#289042"/><path d="m406.5 254c.6 0 .8-1.6-.5-3.3.4 1.7.6 3.2.5 3.3z" fill="none" stroke="#030104" stroke-linecap="round" stroke-width=".2334"/><path d="m401.7 250.1c.6-.2-.1-1.6-1.5-2.6.9 1.2 1.6 2.4 1.5 2.6z" fill="#289042"/><path d="m401.7 250.1c.6-.2-.1-1.6-1.5-2.6.9 1.2 1.6 2.4 1.5 2.6z" fill="none" stroke="#030104" stroke-linecap="round" stroke-width=".1867"/><path d="m403.4 251c-.8.2-2.3-.4-2.4-.5 1.7-.4 2.5.1 2.4.5z" fill="none" stroke="#030104" stroke-width=".2801"/><path d="m408.1 262.2c.6-.8 2.7-1.6 2.9-1.6-1.1 1.7-2.6 2.1-2.9 1.6z" fill="none" stroke="#030104" stroke-width=".2801"/><path d="m407.8 262.6c-.9-.6-1.9-2.7-1.9-3 1.9 1.2 2.5 2.7 1.9 3z" fill="none" stroke="#030104" stroke-width=".2801"/><path d="m408.3 260.1c-.9-.4-2.1-2.2-2.2-2.4 1.8.8 2.6 2 2.2 2.4z" fill="none" stroke="#030104" stroke-width=".2801"/><path d="m408.4 259.5c.1-1 1.6-2.6 1.8-2.7-.1 2-1.3 3-1.8 2.7z" fill="none" stroke="#030104" stroke-width=".2801"/><path d="m408.2 258.6c-.9-.3-2.5-1.8-2.5-2 1.9.4 2.8 1.6 2.5 2z" fill="none" stroke="#030104" stroke-width=".2801"/><path d="m408 257.4c-.9-.3-2.2-1.6-2.3-1.8 1.7.5 2.6 1.5 2.3 1.8z" fill="none" stroke="#030104" stroke-width=".2801"/><path d="m407.6 256.2c-.9-.1-2.4-1.3-2.5-1.4 1.7.1 2.8 1 2.5 1.4z" fill="none" stroke="#030104" stroke-width=".2801"/><path d="m407 255c-1-.1-2.7-1.4-2.8-1.6 2 .2 3.1 1.2 2.8 1.6z" fill="none" stroke="#030104" stroke-width=".2801"/><path d="m406.2 253.8c-1 0-2.8-1.2-2.9-1.4 1.9 0 3.1.9 2.9 1.4z" fill="none" stroke="#030104" stroke-width=".2801"/><path d="m404.5 251.8c-.8.3-2.7-.2-2.8-.3 1.6-.6 2.9-.2 2.8.3z" fill="none" stroke="#030104" stroke-width=".2801"/><path d="m404.9 252.1c-.5-.7-.5-2.6-.4-2.7 1 1.4.9 2.7.4 2.7z" fill="none" stroke="#030104" stroke-width=".2801"/><path d="m403.8 251.2c-.7-.6-1.4-2.3-1.3-2.5 1.4 1.1 1.7 2.3 1.3 2.5z" fill="none" stroke="#030104" stroke-width=".2801"/><path d="m401.7 250c-.5.6-2.1 1-2.2 1 .9-1.1 2-1.4 2.2-1z" fill="none" stroke="#030104" stroke-width=".2801"/><path d="m400.2 249.4c-.8-.4-1.9-2-1.9-2.1 1.6.6 2.3 1.8 1.9 2.1z" fill="none" stroke="#030104" stroke-width=".2801"/><path d="m400.9 249.6c-.7.6-2.7 1-2.9.9 1.3-1.2 2.7-1.4 2.9-.9z" fill="none" stroke="#030104" stroke-width=".2801"/><path d="m399.9 249.3c-.8.5-2.9.5-3 .4 1.4-1 2.9-.9 3-.4z" fill="none" stroke="#030104" stroke-width=".2801"/><path d="m397.1 248.7c-.7-.1-2-1-2.1-1.2 1.4.1 2.3.8 2.1 1.2z" fill="none" stroke="#030104" stroke-width=".2801"/><path d="m408.3 260.2c.6-.8 2.7-1.6 2.9-1.6-1 1.7-2.5 2.2-2.9 1.6z" fill="none" stroke="#030104" stroke-width=".2801"/><path d="m406.5 254c-.6-.9-.6-3.2-.5-3.4 1.2 1.9 1.1 3.4.5 3.4z" fill="none" stroke="#030104" stroke-width=".2801"/><path d="m401.7 250c-.9-.7-1.5-2.1-1.5-2.6 1.7 1.3 2 2.5 1.5 2.6z" fill="none" stroke="#030104" stroke-width=".2801"/><path d="m408.2 257.3c.6 0 .7-1.6-.5-3.3.4 1.7.6 3.1.5 3.3z" fill="#289042"/><path d="m408.2 257.3c-.6-.9-.6-3.2-.5-3.4 1.2 1.8 1.1 3.4.5 3.4z" fill="none" stroke="#030104" stroke-width=".2801"/><path d="m397.7 248.9c-.7.5-2.7.8-3 .7 1.4-1.3 2.9-1.3 3-.7z" fill="#289042"/><path d="m397.7 248.9c-.2-.5-1.6-.5-2.9.7 1.5-.6 2.7-.8 2.9-.7z" fill="#289042"/><path d="m397.7 248.9c-.2-.5-1.6-.5-2.9.7 1.5-.6 2.7-.8 2.9-.7z" fill="none" stroke="#030104" stroke-linecap="round" stroke-width=".1867"/><path d="m397.7 248.9c-.7.6-2.8.7-3 .7 1.4-1.3 2.9-1.3 3-.7z" fill="none" stroke="#030104" stroke-width=".2801"/><path d="m398.3 248.8c-.8-.1-2.4-1.2-2.5-1.4 1.7.1 2.7 1 2.5 1.4z" fill="#289042"/><path d="m398.3 248.8c.3-.4-.8-1.3-2.5-1.4 1.3.6 2.4 1.2 2.5 1.4z" fill="#289042"/><path d="m398.3 248.8c.3-.4-.8-1.3-2.5-1.4 1.3.6 2.4 1.2 2.5 1.4z" fill="none" stroke="#030104" stroke-linecap="round" stroke-width=".1867"/><path d="m398.3 248.8c-.9-.1-2.4-1.3-2.5-1.4 1.7.1 2.7 1 2.5 1.4z" fill="none" stroke="#030104" stroke-width=".2801"/></g><g transform="matrix(-5.9115 0 0 5.9115 2703.1 -1308.8)"><path d="m381.7 258.7c0 .3-.8 2.4-1.6 3.1-.6-.3-.2-1.8 1.6-3.1z" fill="#289042"/><path d="m380 261.7c-.1-.2.6-1.5 1.6-3.1-1.7 1.4-2.1 2.9-1.6 3.1z" fill="#289042"/><path d="m381.7 258.7c0 .2-.8 2.4-1.6 3.1-.6-.3-.2-1.8 1.6-3.1z" fill="none" stroke="#030104" stroke-width=".2801"/><path d="m380 261.7c-.1-.2.6-1.5 1.6-3.1-1.7 1.4-2.1 2.9-1.6 3.1z" fill="none" stroke="#030104" stroke-linecap="round" stroke-width=".2334"/><path d="m376.9 259.4c1.1 1.7 2.6 2.1 2.9 1.6-.2.1-1.5-.6-2.9-1.6z" fill="#289042"/><path d="m376.8 259.5c.3 0 2.4.8 2.9 1.6-.3.5-1.8.1-2.9-1.6z" fill="#289042"/><path d="m376.9 259.5c.2 0 2.3.8 2.9 1.6-.4.5-1.9.1-2.9-1.6z" fill="none" stroke="#030104" stroke-width=".2801"/><path d="m376.9 259.4c1.1 1.7 2.6 2.1 2.9 1.6-.2.1-1.5-.6-2.9-1.6z" fill="none" stroke="#030104" stroke-linecap="round" stroke-width=".2334"/><path d="m379.5 258.5c-.6.2-1.4-1.1-1-3.1.3.2 1.2 2.1 1 3.1z" fill="#289042"/><path d="m379.5 258.5c-.6.2-1.4-1.1-1-3.1.2.1 1.2 2.1 1 3.1z" fill="none" stroke="#030104" stroke-width=".2801"/><path d="m378.5 255.4c-.4 2.1.4 3.4 1 3.1-.2-.1-.6-1.4-1-3.1z" fill="#289042"/><path d="m378.5 255.4c-.4 2.1.4 3.4 1 3.1-.2-.1-.6-1.4-1-3.1z" fill="none" stroke="#030104" stroke-linecap="round" stroke-width=".2334"/><path d="m380.2 252.3c.2.2.8 1.8.6 2.6-.5.1-1-1-.6-2.6z" fill="#289042"/><path d="m380.2 252.2c-.5 1.6.1 2.8.6 2.6-.1 0-.4-1.2-.6-2.6z" fill="#289042"/><path d="m380.3 252.3c.1.1.8 1.8.6 2.6-.6.1-1.1-1-.6-2.6z" fill="none" stroke="#030104" stroke-width=".2801"/><path d="m380.2 252.2c-.5 1.6.1 2.8.6 2.6-.1 0-.4-1.2-.6-2.6z" fill="none" stroke="#030104" stroke-linecap="round" stroke-width=".1867"/><path d="m380.7 265.6-.2-.1c.1-.2.1-.3.1-.5-.1-1-.3-1.8-.7-2.7-.1-.2 0-.5 0-.8-.1-.6-.3-1.2-.3-1.8 0 0 0-.2 0-.3.1-.3 0-.7 0-1 .3-1.3.5-2.6 1.3-3.7.9-1.3 1.8-2.8 3.3-3.7 1-.5 1.8-1.2 2.8-1.6 1.5-.5 3-.9 4.6-.9l.2.1c-1.5-.1-3.1.4-4.6.9-1 .3-1.9 1.1-2.8 1.6-1.5.8-2.4 2.3-3.3 3.7-.8 1.1-1 2.4-1.3 3.7-.1.3.1.7 0 1v.3c0 .6.3 1.2.3 1.8v.8c.4.9.7 1.7.7 2.7 0 .2 0 .4-.1.5" fill="#6b5432"/><path d="m380.7 265.6-.2-.1c.1-.2.1-.3.1-.5-.1-1-.3-1.8-.7-2.7-.1-.2 0-.5 0-.8-.1-.6-.3-1.2-.3-1.8 0 0 0-.2 0-.3.1-.3 0-.7 0-1 .3-1.3.5-2.6 1.3-3.7.9-1.3 1.8-2.8 3.3-3.7 1-.5 1.8-1.2 2.8-1.6 1.5-.5 3-.9 4.6-.9l.2.1c-1.5-.1-3.1.4-4.6.9-1 .3-1.9 1.1-2.8 1.6-1.5.8-2.4 2.3-3.3 3.7-.8 1.1-1 2.4-1.3 3.7-.1.3.1.7 0 1v.3c0 .6.3 1.2.3 1.8v.8c.4.9.7 1.7.7 2.7 0 .2 0 .4-.1.5" fill="none" stroke="#030104" stroke-width=".2334"/><g fill="#289042"><path d="m377 260.6c.3 0 2.4.8 2.9 1.6-.4.6-1.9.1-2.9-1.6z"/><path d="m382 259.7c0 .3-1.1 2.4-1.9 3-.5-.4.1-1.9 1.9-3z"/><path d="m381.8 257.7c-.1.3-1.3 2-2.2 2.4-.4-.4.4-1.6 2.2-2.4z"/><path d="m377.7 256.8c.3.1 1.7 1.7 1.8 2.7-.5.4-1.6-.7-1.8-2.7z"/><path d="m382.3 256.6c-.1.3-1.6 1.7-2.5 2-.4-.4.6-1.6 2.5-2z"/><path d="m382.2 255.6c-.1.3-1.5 1.6-2.3 1.8-.3-.3.6-1.3 2.3-1.8z"/><path d="m380.3 254c.1.3 0 2.5-.5 3.4-.7-.1-.8-1.7.5-3.4z"/><path d="m382.9 254.8c-.1.2-1.7 1.3-2.5 1.4-.3-.4.7-1.3 2.5-1.4z"/><path d="m383.7 253.4c-.2.3-1.9 1.5-2.8 1.6-.3-.4.9-1.4 2.8-1.6z"/><path d="m384.7 252.4c-.2.3-2 1.3-2.9 1.4-.3-.5 1-1.4 2.9-1.4z"/><path d="m386.3 251.5c-.2.2-2.1.6-2.8.3-.1-.5 1.2-.9 2.8-.3z"/><path d="m383.4 249.4c.1.2 0 2-.4 2.7-.5 0-.6-1.3.4-2.7z"/><path d="m385.5 248.7c0 .3-.7 2-1.3 2.5-.5-.2-.1-1.4 1.3-2.5z"/><path d="m388.5 251c-.2 0-1.8-.4-2.2-1 .1-.4 1.3-.2 2.2 1z"/><path d="m389.7 247.2c-.1.3-1.2 1.8-1.9 2.1-.4-.2.3-1.4 1.9-2.1z"/><path d="m389.9 250.6c-.3.1-2.3-.4-2.9-.9.2-.6 1.7-.4 2.9.9z"/><path d="m391.1 249.8c-.3.1-2.3 0-3-.4 0-.6 1.5-.7 3 .4z"/><path d="m392.9 247.5c-.1.2-1.4 1.1-2 1.2-.2-.4.6-1.1 2-1.2z"/><path d="m376.7 258.7c.3 0 2.4.8 2.9 1.6-.3.5-1.9.1-2.9-1.6z"/><path d="m386.9 250.5c-1.5.7-2.5.5-2.4.5-.1-.5.8-.9 2.4-.5z"/><path d="m382 250.7c.1.3 0 2.5-.5 3.4-.7-.1-.8-1.6.5-3.4z"/><path d="m387.7 247.4c0 .4-.6 1.9-1.3 2.5-.5-.2-.1-1.4 1.3-2.5z"/><path d="m381.8 257.7c-1.8.8-2.6 2-2.1 2.4 0-.2.9-1.3 2.1-2.4z"/></g><path d="m381.8 257.7c-1.8.8-2.6 2-2.1 2.4 0-.2.9-1.3 2.1-2.4z" fill="none" stroke="#030104" stroke-linecap="round" stroke-width=".1867"/><path d="m377 260.6c1.1 1.7 2.6 2.1 2.9 1.6-.2 0-1.5-.6-2.9-1.6z" fill="#289042"/><path d="m377 260.6c1.1 1.7 2.6 2.1 2.9 1.6-.2 0-1.5-.6-2.9-1.6z" fill="none" stroke="#030104" stroke-linecap="round" stroke-width=".2334"/><path d="m382 259.7c-1.9 1.2-2.5 2.7-1.9 2.9 0-.2.8-1.5 1.9-2.9z" fill="#289042"/><path d="m382 259.7c-1.9 1.2-2.5 2.7-1.9 2.9 0-.2.8-1.5 1.9-2.9z" fill="none" stroke="#030104" stroke-linecap="round" stroke-width=".2334"/><path d="m379.6 259.5c-.2 0-1-1.2-1.8-2.7.1 2 1.2 3.1 1.8 2.7z" fill="#289042"/><path d="m379.6 259.5c-.2 0-1-1.2-1.8-2.7.1 2 1.2 3.1 1.8 2.7z" fill="none" stroke="#030104" stroke-linecap="round" stroke-width=".2334"/><path d="m382.3 256.5c-1.9.5-2.9 1.6-2.5 2 0-.1 1.1-1 2.5-2z" fill="#289042"/><path d="m382.3 256.5c-1.9.5-2.9 1.6-2.5 2 0-.1 1.1-1 2.5-2z" fill="none" stroke="#030104" stroke-linecap="round" stroke-width=".1867"/><path d="m382.2 255.6c-1.7.4-2.6 1.4-2.3 1.8.1-.1 1.1-.9 2.3-1.8z" fill="#289042"/><path d="m382.2 255.6c-1.7.4-2.6 1.4-2.3 1.8.1-.1 1.1-.9 2.3-1.8z" fill="none" stroke="#030104" stroke-linecap="round" stroke-width=".1867"/><path d="m379.8 257.3c-.1-.2.1-1.6.5-3.3-1.3 1.7-1.2 3.3-.5 3.3z" fill="none" stroke="#030104" stroke-linecap="round" stroke-width=".2334"/><path d="m382.8 254.8c-1.7.1-2.8 1-2.5 1.4.1-.1 1.2-.8 2.5-1.4z" fill="#289042"/><path d="m382.8 254.8c-1.7.1-2.8 1-2.5 1.4.1-.1 1.2-.8 2.5-1.4z" fill="none" stroke="#030104" stroke-linecap="round" stroke-width=".1867"/><path d="m383.7 253.4c-1.9.2-3.1 1.1-2.8 1.6.1-.2 1.3-.8 2.8-1.6z" fill="#289042"/><path d="m383.7 253.4c-1.9.2-3.1 1.1-2.8 1.6.1-.2 1.3-.8 2.8-1.6z" fill="none" stroke="#030104" stroke-linecap="round" stroke-width=".1867"/><path d="m384.7 252.4c-1.9 0-3.1.9-2.9 1.4.1-.2 1.3-.8 2.9-1.4z" fill="#289042"/><path d="m384.7 252.4c-1.9 0-3.1.9-2.9 1.4.1-.2 1.3-.8 2.9-1.4z" fill="none" stroke="#030104" stroke-linecap="round" stroke-width=".1867"/><path d="m386.2 251.5c-1.6-.6-2.9-.2-2.8.3.1-.1 1.4-.3 2.8-.3z" fill="#289042"/><path d="m386.2 251.5c-1.6-.6-2.9-.2-2.8.3.1-.1 1.4-.3 2.8-.3z" fill="none" stroke="#030104" stroke-linecap="round" stroke-width=".1867"/><path d="m383.4 249.4c-1 1.4-.9 2.7-.4 2.7-.1-.2.1-1.3.4-2.7z" fill="#289042"/><path d="m383.4 249.4c-1 1.4-.9 2.7-.4 2.7-.1-.2.1-1.3.4-2.7z" fill="none" stroke="#030104" stroke-linecap="round" stroke-width=".1867"/><path d="m385.5 248.7c-1.4 1.1-1.8 2.3-1.3 2.5-.1-.2.5-1.3 1.3-2.5z" fill="#289042"/><path d="m385.5 248.7c-1.4 1.1-1.8 2.3-1.3 2.5-.1-.2.5-1.3 1.3-2.5z" fill="none" stroke="#030104" stroke-linecap="round" stroke-width=".1867"/><path d="m388.4 251c-.9-1.2-2-1.4-2.2-1 .3-.1.9.3 2.2 1z" fill="#289042"/><path d="m388.4 251c-.9-1.2-2-1.4-2.2-1 .3-.1.9.3 2.2 1z" fill="none" stroke="#030104" stroke-linecap="round" stroke-width=".1867"/><path d="m389.7 247.2c-1.6.7-2.3 1.8-1.9 2.1 0-.1.8-1.1 1.9-2.1z" fill="#289042"/><path d="m389.7 247.2c-1.6.7-2.3 1.8-1.9 2.1 0-.1.8-1.1 1.9-2.1z" fill="none" stroke="#030104" stroke-linecap="round" stroke-width=".1867"/><path d="m389.9 250.6c-1.2-1.3-2.6-1.5-2.8-.9.1-.1 1.3.2 2.8.9z" fill="#289042"/><path d="m389.9 250.6c-1.2-1.3-2.6-1.5-2.8-.9.1-.1 1.3.2 2.8.9z" fill="none" stroke="#030104" stroke-linecap="round" stroke-width=".1867"/><path d="m391 249.8c-1.5-1.1-2.9-1-3-.4.2-.2 1.5 0 3 .4z" fill="#289042"/><path d="m391 249.8c-1.5-1.1-2.9-1-3-.4.2-.2 1.5 0 3 .4z" fill="none" stroke="#030104" stroke-linecap="round" stroke-width=".1867"/><path d="m392.9 247.5c-1.4.1-2.2.8-2 1.1 0-.1.9-.6 2-1.1z" fill="#289042"/><path d="m392.9 247.5c-1.4.1-2.2.8-2 1.1 0-.1.9-.6 2-1.1z" fill="none" stroke="#030104" stroke-linecap="round" stroke-width=".1867"/><path d="m376.7 258.6c1.1 1.7 2.6 2.1 2.9 1.6-.2.1-1.5-.6-2.9-1.6z" fill="#289042"/><path d="m376.7 258.6c1.1 1.7 2.6 2.1 2.9 1.6-.2.1-1.5-.6-2.9-1.6z" fill="none" stroke="#030104" stroke-linecap="round" stroke-width=".2334"/><path d="m386.9 250.5c-1.6-.4-2.5 0-2.4.5.1-.1.9-.3 2.4-.5z" fill="#289042"/><path d="m386.9 250.5c-1.6-.4-2.5 0-2.4.5.1-.1.9-.3 2.4-.5z" fill="none" stroke="#030104" stroke-linecap="round" stroke-width=".1867"/><path d="m381.9 250.7c-1.3 1.8-1.1 3.3-.5 3.3-.1-.1.1-1.6.5-3.3z" fill="#289042"/><path d="m381.9 250.7c-1.3 1.8-1.1 3.3-.5 3.3-.1-.1.1-1.6.5-3.3z" fill="none" stroke="#030104" stroke-linecap="round" stroke-width=".2334"/><path d="m387.7 247.5c-1.4 1-2.1 2.4-1.5 2.6 0-.2.7-1.4 1.5-2.6z" fill="#289042"/><path d="m387.7 247.5c-1.4 1-2.1 2.4-1.5 2.6 0-.2.7-1.4 1.5-2.6z" fill="none" stroke="#030104" stroke-linecap="round" stroke-width=".1867"/><path d="m386.9 250.5c-.1.1-1.6.7-2.4.5-.1-.4.8-.9 2.4-.5z" fill="none" stroke="#030104" stroke-width=".2801"/><path d="m377 260.6c.2 0 2.3.8 2.9 1.6-.3.5-1.9.1-2.9-1.6z" fill="none" stroke="#030104" stroke-width=".2801"/><path d="m382 259.7c0 .2-1 2.3-1.9 3-.5-.4.1-1.9 1.9-3z" fill="none" stroke="#030104" stroke-width=".2801"/><path d="m381.8 257.7c0 .2-1.3 1.9-2.2 2.4-.3-.4.4-1.6 2.2-2.4z" fill="none" stroke="#030104" stroke-width=".2801"/><path d="m379.6 259.5c-.5.4-1.7-.6-1.8-2.7.1.1 1.6 1.7 1.8 2.7z" fill="none" stroke="#030104" stroke-width=".2801"/><path d="m382.3 256.5c-.1.2-1.6 1.7-2.5 2-.4-.3.6-1.5 2.5-2z" fill="none" stroke="#030104" stroke-width=".2801"/><path d="m382.2 255.6c-.1.2-1.4 1.6-2.3 1.8-.3-.3.6-1.3 2.3-1.8z" fill="none" stroke="#030104" stroke-width=".2801"/><path d="m382.9 254.8c-.1.2-1.7 1.3-2.5 1.4-.3-.4.7-1.3 2.5-1.4z" fill="none" stroke="#030104" stroke-width=".2801"/><path d="m383.7 253.4c-.1.2-1.8 1.5-2.8 1.6-.3-.4.9-1.4 2.8-1.6z" fill="none" stroke="#030104" stroke-width=".2801"/><path d="m384.7 252.4c-.1.2-1.9 1.3-2.9 1.4-.2-.5 1-1.4 2.9-1.4z" fill="none" stroke="#030104" stroke-width=".2801"/><path d="m386.3 251.5c-.1.1-2 .6-2.8.3-.1-.5 1.2-.9 2.8-.3z" fill="none" stroke="#030104" stroke-width=".2801"/><path d="m383.4 249.4c.1.1.1 2-.4 2.7-.5 0-.6-1.3.4-2.7z" fill="none" stroke="#030104" stroke-width=".2801"/><path d="m385.5 248.7c0 .2-.6 1.9-1.3 2.5-.5-.2-.1-1.4 1.3-2.5z" fill="none" stroke="#030104" stroke-width=".2801"/><path d="m388.5 251c-.2 0-1.8-.4-2.3-1 .2-.4 1.4-.1 2.3 1z" fill="none" stroke="#030104" stroke-width=".2801"/><path d="m389.7 247.2c0 .2-1.1 1.7-1.9 2.1-.4-.2.3-1.4 1.9-2.1z" fill="none" stroke="#030104" stroke-width=".2801"/><path d="m389.9 250.6c-.2 0-2.2-.3-2.9-.9.2-.6 1.7-.4 2.9.9z" fill="none" stroke="#030104" stroke-width=".2801"/><path d="m391.1 249.8c-.2.1-2.3.1-3-.4 0-.6 1.5-.7 3 .4z" fill="none" stroke="#030104" stroke-width=".2801"/><path d="m392.9 247.5c-.1.1-1.3 1.1-2.1 1.2-.1-.4.7-1.1 2.1-1.2z" fill="none" stroke="#030104" stroke-width=".2801"/><path d="m376.7 258.6c.2 0 2.3.8 2.9 1.6-.3.6-1.9.2-2.9-1.6z" fill="none" stroke="#030104" stroke-width=".2801"/><path d="m382 250.7c.1.2.1 2.4-.5 3.4-.7-.1-.8-1.6.5-3.4z" fill="none" stroke="#030104" stroke-width=".2801"/><path d="m387.7 247.5c0 .5-.6 1.9-1.5 2.6-.4-.2-.2-1.4 1.5-2.6z" fill="none" stroke="#030104" stroke-width=".2801"/><path d="m379.8 257.3c-.1-.2.1-1.6.5-3.3-1.3 1.7-1.2 3.3-.5 3.3z" fill="#289042"/><path d="m380.3 254c.1.2.1 2.4-.5 3.4-.7-.1-.8-1.6.5-3.4z" fill="none" stroke="#030104" stroke-width=".2801"/><path d="m393.2 249.5c-.3.1-2.3-.2-3-.7.2-.5 1.6-.5 3 .7z" fill="#289042"/><path d="m393.2 249.5c-1.4-1.2-2.8-1.2-2.9-.7.1 0 1.4.2 2.9.7z" fill="#289042"/><path d="m393.2 249.5c-1.4-1.2-2.8-1.2-2.9-.7.1 0 1.4.2 2.9.7z" fill="none" stroke="#030104" stroke-linecap="round" stroke-width=".1867"/><path d="m393.2 249.5c-.2.1-2.2-.1-3-.7.2-.5 1.6-.5 3 .7z" fill="none" stroke="#030104" stroke-width=".2801"/><path d="m392.2 247.3c-.1.2-1.7 1.3-2.5 1.4-.3-.3.7-1.2 2.5-1.4z" fill="#289042"/><path d="m392.2 247.3c-1.7.1-2.8 1-2.5 1.4 0-.1 1.1-.7 2.5-1.4z" fill="#289042"/><path d="m392.2 247.3c-1.7.1-2.8 1-2.5 1.4 0-.1 1.1-.7 2.5-1.4z" fill="none" stroke="#030104" stroke-linecap="round" stroke-width=".1867"/><path d="m392.2 247.4c-.1.1-1.7 1.3-2.5 1.4-.3-.4.7-1.3 2.5-1.4z" fill="none" stroke="#030104" stroke-width=".2801"/></g></svg>