<svg height="436" preserveAspectRatio="xMidYMid meet" viewBox="0 0 3310 4360" width="331" xmlns="http://www.w3.org/2000/svg"><path d="m1638 4273c-8-10-369-549-802-1199l-786-1180v-472-472h1605 1605v472 472l-642 961c-747 1117-948 1417-957 1428-4 4-14-1-23-10z" fill="#d12d11"/><path d="m1638 4273c-8-10-369-549-802-1199l-786-1180v-472-472h1605 1605v472 472l-642 961c-747 1117-948 1417-957 1428-4 4-14-1-23-10zm366-818c146-220 271-407 276-415 52-73 710-1070 710-1074 0-3-286-6-635-6h-635v957c0 561 4 953 9 948 5-6 129-190 275-410z" fill="#2b62a3"/><g fill="#b88948"><path d="m1645 4152c-6-4-153-221-326-482-174-261-515-774-758-1138-242-365-439-668-435-673 7-11 3051-12 3058-1 4 6-1495 2265-1523 2294-3 4-11 4-16 0zm-55-1232v-960h-640-639l131 198c72 108 167 251 212 317 44 66 108 163 143 215 34 52 85 129 113 170s70 104 94 140 73 110 109 165c37 55 158 238 269 407 112 169 204 307 206 307 1 1 2-431 2-959zm414 535c146-220 271-407 276-415 52-73 710-1070 710-1074 0-3-286-6-635-6h-635v957c0 561 4 953 9 948 5-6 129-190 275-410z"/><path d="m1470 651c0-5 14-49 30-98 17-48 30-93 30-100s-38-41-85-75-85-65-85-70c0-4 50-9 112-10l112-3 36-110 37-110 37 112 38 113h108c60 0 111 3 114 8 2 4-36 36-85 70-49 35-89 67-89 70 0 4 15 52 34 107s33 101 31 104c-2 2-46-26-96-62l-93-66-50 36c-28 20-60 44-71 54-29 24-65 41-65 30z"/></g><g fill="#6b8eb8"><path d="m1638 4273c-8-10-18-25-22-33s2-3 14 13c12 15 27 24 32 21 7-4 8-2 4 4-9 15-10 15-28-5z"/><path d="m1645 4152c-6-4-153-221-326-482-174-261-515-774-758-1138-242-365-439-668-435-673 7-11 3051-12 3058-1 4 6-1495 2265-1523 2294-3 4-11 4-16 0zm-55-1232v-960h-640-639l131 198c72 108 167 251 212 317 44 66 108 163 143 215 34 52 85 129 113 170s70 104 94 140 73 110 109 165c37 55 158 238 269 407 112 169 204 307 206 307 1 1 2-431 2-959zm423 523c156-236 442-665 635-955l351-528h-640-639v955c0 525 2 955 4 955s132-192 289-427z"/><path d="m1900 3915c17-25 33-45 36-45s-9 20-26 45-33 45-36 45 9-20 26-45z"/><path d="m1336 3823c-20-32-27-46-14-31 26 30 62 88 55 88-2 0-21-26-41-57z"/><path d="m1986 3788c21-36 85-128 89-128 3 0-16 32-41 70-26 39-49 70-51 70s-1-6 3-12z"/><path d="m904 3178c-4-7-14-24-22-38-14-24-13-24 3-5 20 24 37 55 31 55-3 0-8-6-12-12z"/><path d="m730 2915c-17-25-29-45-26-45s19 20 36 45 29 45 26 45-19-20-36-45z"/><path d="m2896 2428c20-32 39-58 41-58 7 0-29 58-55 88-13 15-6 1 14-30z"/><path d="m2960 2330c12-16 24-30 26-30 3 0-4 14-16 30-12 17-24 30-26 30-3 0 4-13 16-30z"/><path d="m3047 2199c10-17 24-36 32-42 8-7 2 7-14 31-32 49-45 57-18 11z"/><path d="m90 1955c-17-25-29-45-26-45s19 20 36 45 29 45 26 45-19-20-36-45z"/><path d="m55 1425c0-264 1-371 2-237 2 134 2 350 0 480-1 130-2 21-2-243z"/><path d="m120 1415v-395h1535 1535v395 395h-1535-1535zm220 120v-105h65 65v-30-30h-65-65v-60-59l68-3c64-3 67-4 67-28v-25l-112-3-113-3v226 225h45 45zm432 85c47-36 58-77 58-213 0-113-2-127-23-158-30-45-60-59-130-59-51 0-61 4-93 33-32 30-37 39-44 105-15 137 3 247 48 289 34 31 146 34 184 3zm220-72 3-93h40c51 0 65 25 65 118v67h44 44l-4-77c-7-106-11-121-34-128-26-8-25-19 5-49 19-19 25-35 25-70 0-102-35-126-182-126h-93l3 225 3 225h39 39zm420-89c-2-129 0-185 9-195 7-8 29-14 55-14 42 0 44-1 44-30v-30h-151-150l3 32c3 30 5 31 43 31 22 0 45 4 51 8 8 6 10 63 7 184-2 97-1 180 2 185 3 6 25 10 48 10h42zm181 134 14-48 70-3 71-3 12 51 12 50h45c42 0 45-2 40-22-4-21-101-370-113-410-4-15-17-18-63-18h-57l-23 78c-20 66-101 362-101 370 0 1 18 2 40 2 38 0 40-1 53-47zm547 12v-34l-67-3-68-3-3-187-2-188h-45-45v225 225h115 115zm280 6c0-28-3-30-45-37-25-3-59-4-74-1-34 7-41-4-41-68 0-71 4-75 76-75h64v-30c0-29 0-29-67-32l-68-3v-55-55l75-5c72-5 75-6 75-30v-25l-117-3-118-3v226 225h120 120zm419-21 13-51 71 3 70 3 11 45c11 44 12 45 54 48 48 4 49 2 28-73-8-27-34-122-59-210l-44-160h-59-59l-36 136c-20 74-47 169-59 209-21 68-24 72-37 54s-34-21-171-24c-22 0-22-1-6-32 9-18 47-78 84-133 71-107 88-144 82-187l-3-28h-130-129v30 30h85c65 0 85 3 85 13 0 13-84 155-148 249-14 22-26 57-28 83l-4 45h188 188z"/><path d="m649 1571c-22-18-24-27-27-126-5-134 2-170 34-191 36-24 70-6 83 43 25 89 6 283-28 283-5 0-16 2-24 5-7 3-25-3-38-14z"/><path d="m1000 1320c0-70 0-70 28-70 44 0 72 26 72 66 0 43-29 74-70 74h-30z"/><path d="m1626 1472c-3-5 1-31 9-58s19-68 25-91c6-24 15-43 20-43 7 0 50 160 50 189 0 13-96 16-104 3z"/><path d="m2870 1472c0-19 43-178 50-185 4-5 17 27 28 70 33 125 35 118-25 121-29 2-53-1-53-6z"/></g><path d="m130 1415v-395l1528 2 1527 3v390 390l-1527 3-1528 2zm630 217c59-29 75-75 75-222 0-151-11-181-82-212-81-36-169-11-202 58-17 34-26 170-17 248 8 61 38 114 76 133 36 18 109 16 150-5zm-420-92v-100h65 65v-35-34l-62-3-63-3v-55-55l68-3c67-3 67-3 67-32 0-38-19-43-137-38l-88 3-3 228-2 227h45 45zm660 5v-95h28c46 0 61 26 64 110l3 75 49 3 49 3-5-92c-4-85-6-93-31-114l-27-21 25-24c21-19 25-33 25-76 0-64-14-98-47-113-13-6-71-11-128-11h-105v225 225h50 50zm420-95v-190h50 50v-34-33l-82-5c-46-3-112-5-148-4l-65 1-3 38-3 37h50 51v190 190h50 50zm179 137 15-48 65 3 65 3 14 48 13 47h45c49 0 52-7 34-70-6-19-31-109-56-200s-48-168-53-173c-12-12-110-15-119-3-9 11-107 355-118 414l-7 33 44-3c43-3 44-4 58-51zm541 13v-40h-70-70l-2-187-3-188h-35c-63-1-60-12-60 231v224h120 120zm280 5v-35h-75-75v-65-64l68-3 67-3 3-32 3-32-68-3-68-3v-55-55l73-3 73-3-3-31c-4-38-10-39-150-31l-98 6v224 223h125 125zm423-12 14-48h64 63l16 45c15 44 16 45 64 48 42 3 47 1 42-15-12-39-75-263-96-345l-23-88h-64c-34 0-63 2-63 5 0 7-77 289-96 354-13 42-19 50-26 37s-26-16-98-16c-50 0-90-3-90-7 1-9 38-71 123-203 45-71 57-98 57-129 0-37-2-41-32-46-18-3-78-5-133-3l-100 3-3 38-3 37h85c47 0 86 3 86 7s-11 23-23 42c-23 34-52 81-125 197-23 36-32 63-32 92v42h190 189z" fill="#abacb6"/><path d="m891 3019c-414-622-755-1137-758-1145-4-12 213-14 1521-14 839 0 1526 2 1526 5 0 12-1521 2285-1529 2285-4 0-347-509-760-1131zm702-102 2-957h-644-643l17 28c126 194 1259 1891 1262 1889 2-2 4-434 6-960zm420 526c156-236 442-665 635-955l351-528h-640-639v955c0 525 2 955 4 955s132-192 289-427z" fill="#e09984"/><g fill="#a3bedb"><path d="m891 3019c-414-622-755-1137-758-1145-4-12 213-14 1521-14 839 0 1526 2 1526 5 0 12-1521 2285-1529 2285-4 0-347-509-760-1131zm1039 564c112-170 254-382 314-473 155-232 544-817 659-991 53-80 97-151 97-157 0-9-158-12-642-10l-643 3-3 968c-1 532 2 967 6 967 5 0 100-138 212-307zm-337-666 2-957h-644-643l17 28c126 194 1259 1891 1262 1889 2-2 4-434 6-960z"/><path d="m130 1415v-395l1528 2 1527 3v390 390l-1527 3-1528 2zm630 217c59-29 75-75 75-222 0-151-11-181-82-212-81-36-169-11-202 58-17 34-26 170-17 248 8 61 38 114 76 133 36 18 109 16 150-5zm841-50 12-43 65 3 66 3 14 48 13 47h45c49 0 52-7 34-70-6-19-31-109-56-200s-48-168-53-173c-12-12-110-15-120-3-4 6-13 29-18 51-20 76-101 360-108 377-6 14 1 17 37 20 49 3 54-1 69-60zm-1261-42v-100h65 65v-35-34l-62-3-63-3v-55-55l68-3c67-3 67-3 67-32 0-38-19-43-137-38l-88 3-3 228-2 227h45 45zm660 5v-95h28c46 0 61 26 64 110l3 75 50 3 50 3-6-93c-6-84-9-94-33-113l-26-21 25-24c21-19 25-33 25-76 0-64-14-98-47-113-13-6-71-11-128-11h-105v225 225h50 50zm420-95v-190h50 50v-34-33l-82-5c-46-3-112-5-148-4l-65 1-3 38-3 37h50 51v190 190h50 50zm720 150v-40h-70-70l-2-187-3-188h-35c-63-1-60-12-60 231v224h120 120zm280 5v-35h-75-75v-65-64l68-3 67-3 3-32 3-32-68-3-68-3v-55-55l73-3 73-3-3-31c-4-38-10-39-150-31l-98 6v224 223h125 125zm423-12 14-48h64 63l16 45c15 44 16 45 64 48 42 3 47 1 42-15-12-39-75-263-96-345l-23-88h-64c-34 0-63 2-63 5 0 7-77 289-96 354-13 42-19 50-26 37s-26-16-98-16c-50 0-90-3-90-7 1-9 38-71 123-203 44-70 57-98 57-129 0-33-4-40-25-45-27-7-222-7-240 0-6 3-9 19-7 39l4 35h84c46 0 84 3 84 7s-11 23-23 42c-23 34-52 81-125 197-23 36-32 63-32 92v42h190 189z"/><path d="m644 1559c-16-18-19-37-19-144 0-108 2-126 19-144 26-29 66-24 83 9 19 38 17 249-3 278-19 28-55 28-80 1z"/><path d="m1630 1465c0-27 45-174 51-168 4 4 15 37 24 73s18 73 21 83c5 15-2 17-45 17-28 0-51-2-51-5z"/><path d="m1007 1384c-4-4-7-34-7-66v-58h33c18 0 38 5 45 12 16 16 15 83-1 96-17 15-61 25-70 16z"/><path d="m2884 1474c-11-5 20-161 35-177 5-5 18 31 30 79 12 47 20 88 18 91-7 7-71 13-83 7z"/></g><g fill="#f7fbfb"><path d="m1453 3853c-105-159-211-317-236-353-24-36-227-342-452-680-224-338-457-688-517-777-59-90-108-167-108-173 0-7 504-10 1516-10 1300 0 1515 2 1511 14-10 25-1509 2266-1516 2266-4 0-93-129-198-287zm145-930-3-968-639-3c-352-1-643 1-647 5-5 5 166 269 379 589 213 319 501 752 641 962 139 210 257 382 262 382s8-405 7-967zm332 660c112-170 254-382 314-473 155-232 544-817 659-991 53-80 97-151 97-157 0-9-158-12-642-10l-643 3-3 968c-1 532 2 967 6 967 5 0 100-138 212-307z"/><path d="m132 1418 3-383 1523-3 1522-2v385 385h-1525-1525zm216 125 3-103h65 65l-3-37-3-38-62-3-63-3v-49-49l68-3 67-3v-35-35l-122-3-123-3v229c0 126 3 232 7 236s28 6 53 4l45-3zm442 79c39-39 50-88 50-222 0-93-4-122-19-150-27-51-71-73-142-73-72 1-120 32-141 90-20 58-17 237 5 295 28 72 55 88 144 88 68 0 77-2 103-28zm210-67v-95h29c41 0 53 20 60 107l6 78 52 3 52 3-5-73c-8-112-13-137-34-150-19-12-19-13 2-35 18-19 22-35 21-88-1-105-39-129-197-123l-90 3 2 210c1 116 2 220 2 233 0 20 5 22 50 22h50zm424 78c4-9 6-93 5-185-1-93 1-172 5-175 3-4 25-7 49-7l42-1 3-43 3-43-158 3-158 3-3 38c-3 36-3 37 32 37 68 0 66-7 66 194 0 101 3 186 7 189 3 4 28 7 54 7 35 0 49-4 53-17zm164 5c6-7 14-29 19-48l9-35 67-3 67-3v31c0 55 15 70 70 70 39 0 50-3 50-16 0-17-92-354-113-414-13-35-13-35-79-38l-65-3-12 48c-7 26-34 128-61 225-28 97-50 181-50 187 0 15 85 14 98-1zm560-23c3-45-7-53-73-57l-60-3-5-185-5-185-52-3-53-3v236 236l123-3 122-3zm280-4c4-42-6-49-78-49-32 1-62-2-68-6-5-3-9-30-8-58l1-53 68-3 67-3v-39-40h-70-70v-37c0-21 4-43 8-50s37-13 77-15l70-3v-35-35l-127-3-128-3v236 236l128-3 127-3zm412 17c5-13 11-36 15-51 5-27 7-28 67-25 61 3 62 3 69 35 3 18 12 40 19 48 14 17 100 21 100 4 0-6-16-72-36-147s-46-175-58-222l-22-85-66-3c-78-3-69-17-123 193-20 77-40 151-44 164-7 24-11 24-99 25-50 0-94-3-97-6-7-6 27-64 112-192 51-77 69-124 61-163-3-16-15-18-143-18h-140l-3 38-3 37h86c67 0 86 3 82 13-3 7-44 75-91 152-67 108-86 147-86 175 0 20 3 40 7 43 3 4 91 7 195 7 186 0 189 0 198-22z"/><path d="m649 1554c-22-27-26-237-5-269 19-29 57-33 77-9 19 23 24 231 7 264-16 31-59 38-79 14z"/><path d="m1004 1356c-3-13-4-38-2-57 2-28 7-35 30-37 18-2 31 4 42 20 21 30 20 54-4 78-27 27-58 26-66-4z"/><path d="m1640 1453c1-35 38-148 44-133 6 18 36 135 36 144 0 3-18 6-40 6-32 0-40-4-40-17z"/><path d="m2884 1453c2-10 10-44 17-76s16-60 20-62c6-4 39 120 39 146 0 5-18 9-41 9-34 0-40-3-35-17z"/></g></svg>