<svg height="300.03" viewBox="0 0 260.8985 300.0262" width="260.9" xmlns="http://www.w3.org/2000/svg"><path d="m22.492.15004c71.509-.23969 143.76-.11913 215.52-.12383 3.2132 5.6796 5.874 11.667 8.3091 17.715 13.697 34.585 18.074 72.935 11.717 109.63-3.9149 22.896-11.991 45.01-23.243 65.303-10.928 19.762-24.764 37.833-40.348 54.139-19.234 20.155-41.098 37.652-64.164 53.211-27.3-18.45-52.892-39.73-74.377-64.79-14.344-16.75-26.787-35.2-36.2-55.17-9.9598-21.01-16.442-43.71-18.731-66.86-3.2341-32.396 1.5875-65.501 13.471-95.785 2.366-5.892 4.909-11.862 8.039-17.389" fill="#c00"/><g transform="matrix(.34737645 0 0 .34737645 -5.496604 -8.701115)"><g fill="#fff"><path d="m120.93 93.279c-.63-7.48 5.35-14.9 13.03-14.91 8.02-.59 14.87 7.05 14 14.93 7.08-1.52 14.89 2.86 16.44 10.1 1.95 7.25-3.24 14.69-10.28 16.5 39.52 41.1 78.79 82.43 118.2 123.62-.01-41.19.01-82.38-.01-123.57-6.46-1.76-11.65-8.06-10.67-14.95.73-7.84 8.93-13.39 16.54-11.72-.58-7.39 5.26-14.7 12.83-14.9 8.09-.74 15.12 6.96 14.33 14.93 6.94-1.49 14.59 2.73 16.26 9.77 2.28 7.38-3.18 15.17-10.43 16.86.03 60.59.02 121.17.01 181.76 6.89 1.79 12.32 8.85 10.6 16.08-1.27 7.45-9.21 12.26-16.46 10.6.82 7.99-6.24 15.66-14.33 14.99-7.56-.31-13.38-7.55-12.81-14.95-7.84 1.78-16.31-4.29-16.6-12.42-.57-6.57 4.35-12.45 10.52-14.14-39.6-41.43-79.23-82.84-118.76-124.34-.05 41.37.02 82.74-.03 124.11 6.95 1.41 12.54 8.2 11.32 15.42-.92 7.79-9.15 13.04-16.67 11.37.88 7.88-6 15.39-13.95 14.97-7.68-.14-13.66-7.46-13.15-14.96-7.8 1.74-16.26-4.28-16.52-12.38-.69-6.54 4.25-12.23 10.19-14.24-.05-60.67-.01-121.34-.02-182.01-3.19-1.32-6.44-3.05-8.19-6.17-4.04-6.1-1.8-15.22 4.64-18.71 2.95-1.95 6.58-1.91 9.97-1.64z"/><path d="m91.841 542.68h599.2c-28.86 58.98-67.26 112.97-111.36 161.5h-376.76c-44.05-48.5-82.22-102.6-111.08-161.5z"/><path d="m392.31 219.77h351.09c7.48 53.48 7.24 108.06-1.09 161.42h-350z"/></g><g fill="#006"><path d="m392.31 43.309 295.46.0012c8.6 15.33 15.641 31.499 22.141 47.819 16.16 41.37 27.36 84.66 33.49 128.64h-351.09z"/><path d="m40.571 381.14 701.74-.00004c-8.67 56.05-26.309 110.65-51.269 161.54l-599.2.001c-24.84-50.96-42.6-105.47-51.27-161.54z"/><path d="m202.92 704.18 376.76-.00022c-55.71 61.29-120.29 114.02-188.75 160.43-68.29-46.33-132.58-99.14-188.01-160.43z"/></g></g></svg>