<svg height="300" viewBox="0 0 300 300" width="300" xmlns="http://www.w3.org/2000/svg"><g fill="#fff"><path d="m150 0c-82.828 0-150 67.171-150 150s67.172 150 150 150c82.829 0 150-67.171 150-150s-67.17-150-150-150z" fill="#76c5f0"/><path d="m150 295.58c-80.391 0-145.58-65.19-145.58-145.58s65.193-145.58 145.58-145.58c80.39 0 145.58 65.194 145.58 145.58s-65.19 145.58-145.58 145.58z"/><path d="m150 8.833c-77.951 0-141.17 63.217-141.17 141.17 0 77.951 63.216 141.17 141.17 141.17 77.952 0 141.17-63.215 141.17-141.17 0-77.95-63.22-141.17-141.17-141.17z" fill="#76c5f0"/><path d="m150 252.02c-56.334 0-102.02-45.686-102.02-102.02 0-35.092 17.729-66.049 44.715-84.409l-1.549-13.309h-.002c-.406-3.359 1.048-5.649 3.109-6.849.877-.511 1.858-.803 2.84-.88h.01c.967-.076 1.966.062 2.895.408 2.201.821 3.949 2.754 4.034 5.763.007.279.353 3.549.813 7.779 13.62-6.734 28.95-10.523 45.16-10.523 56.335 0 102.02 45.686 102.02 102.02s-45.68 102.02-102.02 102.02z"/><circle cx="39.683" cy="197.06" r="5.486"/><circle cx="269.03" cy="165.73" r="5.485"/><path d="m150 52.397c-16.085 0-31.262 3.896-44.64 10.791.197 1.775.401 3.601.6 5.362 13.097-7.1 28.099-11.13 44.04-11.13 51.122 0 92.581 41.458 92.581 92.581 0 51.122-41.459 92.581-92.581 92.581-8.938 0-17.581-1.272-25.758-3.638-1.485-12.089-3.964-32.291-6.749-55.077 3.299-6.08 6.802-14.1 6.802-14.1 17.453 7.629 81.188 5.748 104.88 23.856.812-21.825 7.708-55.652-.794-83.854-37.688-4.488-71.461-7.598-124.84-41.371-1.188-10.16-1.909-16.677-1.944-17.608-.154-5.406-8.8-5.133-8.034 1.206l22.257 184.07c-34.208-13.61-58.4-47.02-58.4-86.07 0-30.052 14.33-56.76 36.525-73.675l-.67-5.751c-24.745 17.706-40.878 46.686-40.878 79.426 0 53.896 43.708 97.603 97.602 97.603 53.896 0 97.603-43.707 97.603-97.603 0-53.895-43.7-97.603-97.6-97.603z" fill="#76c5f0"/><path d="m222.5 113.85c9.42 11.027 2.372 46.432 2.349 71.694-20.887-12.05-48.138-12.249-48.138-12.249l-2.008-66.675c8.11 1 27.38 6.13 47.8 7.23z"/><path d="m116.16 172.97c-3.893-31.894-8.153-66.959-11.053-91.335 6.74-3.188 23.32 93.505 11.05 91.335z"/></g><g fill="#76c5f0"><path d="m160.83 228.84c1.948 0 3.841-.236 5.654-.681-11.372-8.121-14.705-16.675-15.134-17.724l-13.937-1.792c1.69 11.42 11.53 20.19 23.42 20.19z"/><path d="m166.53 182.19c-1.824-.45-3.732-.691-5.697-.691-11.496 0-21.079 8.199-23.222 19.066 3.437 1.166 9.655 2.939 14.34 2.393 13.32-1.56 10.75-11.17 14.58-20.77z"/><path d="m179.34 219.92c-10.588-6.381-13.712-14.13-15.1-16.758-3.587.471-6.564 3.103-7.422 4.814.846 1.873 6.453 13.51 16.279 17.438 2.39-1.45 4.5-3.31 6.24-5.49z"/><path d="m184.5 205.17c0-1.266-.101-2.51-.291-3.721-2.367 1.064-8.381 4.891-9.397 7.388 1.063 1.888 4.944 3.96 8.003 5.117 1.09-2.72 1.69-5.69 1.69-8.79z"/><path d="m182.8 196.34c-1.9-4.721-5.277-8.688-9.561-11.329-1.072 1.116-2.819 3.839-2.957 9.78-.199 8.618-.084 9.21.299 9.266.36.04 7.31-5.43 12.22-7.72z"/></g><g fill="#fff"><path d="m202.99 247.62 6.2 12.16-13.65-8.36-3.58 1.82 9.28 18.22 3.42-1.74-6.06-11.88 13.4 8.14 3.69-1.89-9.28-18.21z"/><path d="m120.55 257.09-3.639 12.693c-.457 1.592-.94 2.587-1.451 2.986-.511.402-1.21.474-2.093.221-.874-.251-1.427-.791-1.656-1.619-.149-.547-.086-1.391.192-2.529l-3.863-.643c-.597 2.102-.523 3.848.209 5.23.736 1.389 2.073 2.357 4.013 2.914 1.652.473 3.082.512 4.293.105 1.208-.4 2.168-1.121 2.88-2.154.534-.793 1.04-2.005 1.506-3.629l3.568-12.441-3.96-1.13z"/><path d="m86.916 265.85 3.969 1.852 3.491-3.499 7.408 3.454-.346 4.965 4.072 1.898 1.22-21.988-3.957-1.845-15.844 15.17zm15.124-1.87-5.057-2.357 5.709-5.71-.65 8.07z"/><path d="m42.714 131.78c.419-2.154.231-4.04-.558-5.642-.792-1.609-2.224-2.925-4.299-3.954l-2.006 3.684c1.401.626 2.373 1.393 2.904 2.3.536.909.697 1.901.487 2.98-.283 1.458-1.051 2.54-2.307 3.242-1.253.708-3.15.808-5.687.315-2.393-.465-4.032-1.263-4.917-2.396-.89-1.133-1.188-2.448-.898-3.933.208-1.074.686-1.933 1.435-2.567.75-.641 1.668-.976 2.755-1.007l-.177-4.199c-1.697.145-3.063.587-4.097 1.337-1.75 1.25-2.862 3.104-3.339 5.557-.547 2.813-.063 5.259 1.447 7.342 1.516 2.084 3.941 3.453 7.282 4.103 3.155.613 5.813.238 7.969-1.123 2.151-1.36 3.488-3.37 4.006-6.03z"/><path d="m147.15 261.14-7.246 20.71 4.377-.152 1.521-4.703 8.168-.285 1.945 4.582 4.49-.157-8.896-20.147-4.36.15zm-.19 12.37 2.495-7.68 3.081 7.484-5.58.2z"/><path d="m128.4 270.8 10.19 1.25.42-3.41-10.19-1.25.55-4.5 10.95 1.34.42-3.43-15.04-1.85-2.49 20.29 15.43 1.9.42-3.42-11.34-1.39z"/><path d="m185.81 273.06-1.9-5.23 9.64-3.51-1.17-3.24-9.65 3.51-1.55-4.25 10.37-3.78-1.19-3.25-14.24 5.19 6.99 19.21 14.61-5.32-1.18-3.24z"/><path d="m176.18 263.72c-.688-1.194-1.539-2.154-2.552-2.874-1.008-.726-2.138-1.146-3.381-1.263-.929-.086-2.226.035-3.894.359l-7.406 1.439 3.9 20.069 7.623-1.481c1.498-.291 2.668-.664 3.506-1.123 1.12-.615 1.967-1.332 2.533-2.156.759-1.082 1.244-2.404 1.462-3.959.179-1.277.106-2.741-.214-4.391-.37-1.89-.9-3.43-1.58-4.63zm-2.34 9.01c-.101.951-.324 1.668-.683 2.145-.358.478-.851.86-1.474 1.15-.479.229-1.285.448-2.417.668l-3.023.589-2.582-13.29 1.817-.354c1.654-.322 2.773-.477 3.363-.455.789.016 1.476.208 2.063.579.581.366 1.091.942 1.527 1.721.434.779.803 1.938 1.105 3.489.29 1.53.39 2.79.3 3.74z"/><path d="m49.509 106.23-3.258-1.13-3.341 9.71-15.916-5.48-1.343 3.9 19.173 6.6z"/><path d="m79.489 256.82 9.413-13.96-3.422-2.31-11.339 16.81 11.93 8.05 1.927-2.86z"/><path d="m196.2 41.521.761.339c.87.387 1.47.738 1.808 1.055.336.322.6.747.788 1.285.188.537.442 1.744.766 3.628l.917 5.28 4.51 2.008-.66-4.661c-.255-1.853-.52-3.18-.795-3.985-.277-.806-.719-1.628-1.324-2.47 1.745.495 3.237.467 4.464-.077 1.229-.548 2.159-1.524 2.782-2.925.491-1.104.658-2.203.498-3.306-.162-1.099-.625-2.017-1.379-2.756-.756-.737-2.129-1.551-4.124-2.44l-7.94-3.535-8.316 18.677 3.774 1.68zm3.44-7.719 2.939 1.309c1.529.682 2.438 1.112 2.725 1.287.566.377.932.832 1.096 1.367.162.537.107 1.116-.174 1.747-.249.561-.587.968-1.006 1.23-.422.26-.893.368-1.41.321-.52-.05-1.684-.479-3.492-1.285l-2.787-1.241 2.11-4.735z"/><path d="m214.53 61.842 9.74-13.913 4.96 3.47 1.98-2.835-13.31-9.317-1.98 2.834 4.96 3.478-9.74 13.913z"/><path d="m219.11 58.61h20.445v4.127h-20.445z" transform="matrix(-.6428 .7661 -.7661 -.6428 423.2283 -76.0115)"/><path d="m233.87 79.896 20.24-7.889-2.88-3.304-14.7 6.148 8.03-13.83-2.94-3.38-10.64 18.928z"/><path d="m126.13 43.368-.89-3.33-11.03 2.956-1.44-5.375 9.91-2.657-.89-3.323-9.91 2.656-1.17-4.378 10.65-2.854-.9-3.343-14.64 3.923 5.3 19.748z"/><path d="m65.842 80.229c1.712-1.999 2.767-3.284 3.163-3.848.628-.911.99-1.82 1.085-2.728.094-.908-.05-1.816-.426-2.718-.38-.904-.923-1.659-1.624-2.268-.891-.775-1.885-1.197-2.987-1.265-1.094-.069-2.192.25-3.28.951.276-.927.283-1.849.02-2.766-.267-.912-.762-1.684-1.485-2.312-.665-.578-1.405-.944-2.215-1.093-.814-.152-1.582-.133-2.317.061s-1.414.544-2.036 1.057c-.625.509-1.468 1.378-2.531 2.599l-5.361 6.169 15.429 13.413zm-11.148-5.945-3.568-3.102 1.555-1.789c1.274-1.466 2.063-2.337 2.369-2.615.511-.464 1.03-.7 1.56-.707.526-.003 1.027.205 1.504.621.5.434.771.935.81 1.505.041.572-.142 1.151-.543 1.735-.22.326-.858 1.096-1.914 2.311zm4.754-.282c1.23-1.416 2.105-2.277 2.621-2.573.516-.295 1.035-.413 1.555-.357.516.058 1.008.283 1.472.686.546.474.856 1.003.931 1.578.069.573-.05 1.131-.37 1.667-.198.357-.788 1.094-1.766 2.219l-2.504 2.881-4.125-3.584z"/><path d="m87.281 60.498-2.121-2.716-8.999 7.031-3.426-4.385 8.088-6.319-2.119-2.712-8.088 6.319-2.789-3.572 8.691-6.79-2.131-2.727-11.944 9.331 12.588 16.111z"/><path d="m153.08 32.958 2.682.188c1.867.131 3.299.131 4.295.005.733-.106 1.469-.379 2.201-.815.736-.44 1.357-1.069 1.873-1.892.516-.818.816-1.856.904-3.11.113-1.62-.189-2.972-.905-4.053-.717-1.08-1.652-1.814-2.8-2.2-.745-.257-2.371-.477-4.873-.652l-6.606-.461-1.426 20.395 4.118.288.55-7.693zm.65-9.25 1.99.139c1.48.104 2.466.216 2.954.346.655.165 1.189.508 1.588 1.018.403.515.579 1.142.528 1.883-.042.603-.237 1.119-.577 1.553-.345.434-.796.736-1.357.912-.56.175-1.655.204-3.278.091l-2.252-.158.41-5.784z"/><path d="m176.22 44.216c2.922.675 5.469.305 7.638-1.105 2.168-1.414 3.625-3.726 4.366-6.944.749-3.242.453-5.978-.89-8.204-1.342-2.23-3.479-3.68-6.416-4.358-1.621-.375-3.11-.446-4.477-.204-1.022.174-2.017.575-2.987 1.197-.97.625-1.798 1.396-2.485 2.303-.926 1.237-1.621 2.87-2.089 4.901-.731 3.168-.435 5.86.897 8.073 1.34 2.208 3.49 3.657 6.45 4.341zm-3.16-11.591c.53-2.296 1.437-3.89 2.708-4.793 1.279-.901 2.748-1.164 4.408-.78 1.655.383 2.856 1.251 3.6 2.605.736 1.357.845 3.174.318 5.457-.533 2.31-1.447 3.92-2.738 4.839-1.299.922-2.75 1.193-4.35.824-1.604-.371-2.792-1.256-3.567-2.661-.78-1.405-.9-3.238-.38-5.491z"/><path d="m129.88 31.449c.981.686 2.604 1.167 4.867 1.44 1.758.216 2.89.375 3.388.486.734.159 1.262.392 1.582.698.325.3.517.69.576 1.171.091.747-.164 1.44-.767 2.08-.597.645-1.56 1.045-2.878 1.207-1.247.153-2.274-.042-3.083-.576-.813-.538-1.421-1.461-1.822-2.774l-3.94.882c.543 2.236 1.578 3.864 3.098 4.88 1.521 1.017 3.563 1.367 6.129 1.052 1.762-.217 3.205-.644 4.327-1.285 1.12-.636 1.938-1.504 2.461-2.599.523-1.091.711-2.221.568-3.384-.157-1.281-.558-2.325-1.204-3.133-.651-.808-1.481-1.4-2.498-1.789-1.016-.384-2.55-.69-4.602-.917-2.051-.223-3.364-.522-3.932-.894-.448-.29-.701-.677-.761-1.158-.064-.524.101-.972.497-1.337.611-.573 1.517-.929 2.708-1.076 1.153-.141 2.045-.021 2.678.367.632.383 1.102 1.088 1.405 2.11l4.074-.682c-.296-1.858-1.153-3.263-2.576-4.226-1.427-.957-3.408-1.279-5.96-.966-1.56.192-2.857.591-3.906 1.194-1.043.608-1.805 1.397-2.279 2.367-.476.974-.65 1.973-.523 3.008.18 1.608.97 2.891 2.36 3.854z"/><path d="m47.308 100.75c.777.234 1.625.278 2.541.13.916-.147 1.82-.542 2.716-1.191s1.83-1.818 2.807-3.508c.809-1.401 1.288-2.641 1.432-3.718.142-1.073.062-2.048-.241-2.916-.306-.87-.839-1.65-1.605-2.351-.767-.7-2.213-1.662-4.34-2.89l-9.3-5.369-2.063 3.574 9.795 5.654c1.401.81 2.375 1.437 2.917 1.895.543.451.876 1.055.99 1.809.12.755-.118 1.641-.703 2.655-.576.998-1.249 1.659-2.023 1.981-.768.321-1.561.352-2.375.085-.5-.172-1.515-.699-3.036-1.577l-9.589-5.536-2.063 3.575 9.444 5.452c1.983 1.146 3.546 1.896 4.696 2.246z"/><path d="m262.25 84.588c-.833-1.443-1.797-2.58-2.905-3.414-.825-.629-1.797-1.084-2.912-1.369-1.12-.283-2.247-.361-3.38-.246-1.535.166-3.205.771-5.01 1.814-2.816 1.626-4.582 3.679-5.292 6.161-.706 2.479-.302 5.039 1.22 7.673 1.498 2.597 3.508 4.208 6.016 4.832 2.514.621 5.197.111 8.058-1.541 2.882-1.664 4.681-3.747 5.394-6.246.71-2.504.32-5.056-1.19-7.665zm-2.48 6.209c-.489 1.465-1.746 2.783-3.774 3.955-2.053 1.185-3.854 1.615-5.407 1.297-1.558-.319-2.745-1.196-3.566-2.618-.824-1.426-.987-2.9-.487-4.424.501-1.521 1.754-2.865 3.756-4.021 2.041-1.178 3.824-1.604 5.354-1.288 1.532.32 2.723 1.215 3.576 2.691.85 1.471 1.03 2.942.55 4.408z"/><path d="m133.05 150.55h7.38v-38.673h-5.99c-.834 2.349-2.385 4.402-4.645 6.169-2.26 1.757-4.358 2.95-6.277 3.578v6.698c3.659-1.202 6.833-3.067 9.532-5.595v27.814z"/><path d="m157.58 140.89c2.779 0 5.104-1.077 6.958-3.238-.296 4.421-.978 7.326-2.054 8.725-1.066 1.399-2.358 2.098-3.881 2.098-1.211 0-2.18-.349-2.916-1.049-.734-.7-1.192-1.775-1.371-3.228l-7.146.789c.529 3.183 1.721 5.577 3.577 7.182 1.857 1.605 4.286 2.403 7.3 2.403 4.187 0 7.585-1.561 10.194-4.672 2.608-3.121 3.917-8.195 3.917-15.244 0-6.913-1.252-11.88-3.756-14.902-2.51-3.021-5.711-4.537-9.621-4.537-3.586 0-6.545 1.201-8.859 3.586-2.322 2.395-3.487 5.542-3.487 9.451 0 3.748 1.103 6.788 3.299 9.129 2.2 2.32 4.82 3.5 7.85 3.5zm-2.54-17.93c.896-1.076 2.036-1.614 3.398-1.614 1.435 0 2.708.654 3.802 1.972 1.096 1.31 1.642 3.157 1.642 5.542 0 2.169-.484 3.819-1.462 4.941-.969 1.12-2.17 1.676-3.586 1.676-1.471 0-2.699-.583-3.676-1.749-.978-1.157-1.471-2.986-1.471-5.47.01-2.46.46-4.23 1.36-5.3z"/><path d="m228.76 248.08c-.757-1.043-1.615-1.762-2.572-2.154-.961-.393-1.975-.508-3.052-.354-1.075.156-2.565.632-4.47 1.429-1.902.799-3.194 1.174-3.872 1.125-.532-.037-.942-.252-1.227-.645-.312-.428-.384-.899-.214-1.41.256-.799.877-1.549 1.848-2.254.938-.682 1.777-1.01 2.52-.978.738.028 1.49.417 2.252 1.165l3.232-2.572c-1.159-1.482-2.591-2.295-4.302-2.447-1.71-.145-3.602.534-5.681 2.045-1.271.924-2.214 1.902-2.838 2.938-.617 1.037-.902 2.096-.846 3.174.057 1.084.388 2.043 1 2.887.953 1.31 2.267 2.049 3.943 2.22 1.189.122 2.844-.242 4.955-1.101 1.641-.664 2.709-1.074 3.199-1.218.72-.217 1.293-.269 1.723-.156.429.104.785.353 1.07.745.441.609.555 1.339.339 2.19-.212.853-.858 1.671-1.933 2.45-1.016.739-2.01 1.066-2.977.992-.972-.076-1.951-.59-2.938-1.543l-3.018 2.682c1.56 1.691 3.253 2.613 5.075 2.766 1.824.153 3.778-.532 5.871-2.053 1.437-1.043 2.491-2.115 3.16-3.22.674-1.1.968-2.256.895-3.468-.07-1.21-.45-2.29-1.14-3.24z"/><path d="m235.39 245.35-3.87-4 7.38-7.13-2.39-2.48-7.38 7.13-3.15-3.26 7.94-7.66-2.41-2.49-10.9 10.53 14.2 14.71 11.18-10.8-2.39-2.48z"/></g><g fill="#76c5f0"><path d="m189.56 158.34h7.381v-38.672h-5.989c-.835 2.349-2.386 4.403-4.645 6.168-2.261 1.758-4.358 2.951-6.278 3.579v6.698c3.658-1.202 6.834-3.067 9.531-5.595v27.817z"/><path d="m210.95 161.67h7.38v-38.672h-5.988c-.835 2.349-2.386 4.403-4.645 6.169-2.262 1.758-4.359 2.951-6.279 3.578v6.698c3.659-1.201 6.834-3.066 9.532-5.595v27.813z"/></g></svg>