<svg enable-background="new 0 0 1960 1400" height="1400" viewBox="0 0 1960 1400" width="1960" xmlns="http://www.w3.org/2000/svg"><path d="m0 0h1960v700h-1960z" fill="#1f6f9c"/><path d="m0 700h1960v700h-1960z" fill="#fff"/><path d="m1346.484 1141.077c-19.45-4.731-48.606-12.645-111.393-12.645-89.563 0-113.211 21.133-255.092 21.133-141.88 0-165.529-21.133-255.091-21.133-62.784 0-91.941 7.912-111.391 12.644l-1.82-24.217c0-27.674-51.322-26.667-51.322 0 0 26.668 27.17 58.367 35.221 75.978 8.051 17.61 13.585 23.146 29.184 21.133 15.598-2.013 47.8 0 113.713 0 65.914 0 198.748 17.106 241.506 17.106 42.759 0 175.593-17.106 241.506-17.106 65.914 0 98.116-2.013 113.714 0s21.133-3.522 29.184-21.133c8.05-17.61 35.221-49.31 35.221-75.978 0-26.667-51.322-27.674-51.322 0l-1.819 24.217" fill="#fddf14"/><path d="m611.698 1116.859 1.821 24.217" fill="none" stroke="#0b592e" stroke-width="5.5"/><path d="m1395.131 1137.807s-5.066 6.727-27.206 6.727c-22.139 0-43.271-16.101-132.833-16.101-89.563 0-113.211 21.133-255.092 21.133-141.88 0-165.529-21.133-255.091-21.133-89.563 0-110.695 16.101-132.834 16.101s-27.208-6.727-27.208-6.727" fill="none" stroke="#0b592e" stroke-width="5.5"/><path d="m1348.302 1116.859-1.82 24.217" fill="none" stroke="#0b592e" stroke-width="5.5"/><path d="m1370.923 1144.486 2.537-19.576c-12.579 1.007-25.158-3.521-25.158-8.051 0-27.674 51.322-26.667 51.322 0 0 26.668-27.171 58.367-35.221 75.978-8.051 17.61-13.586 23.146-29.184 21.133s-47.8 0-113.714 0c-65.913 0-198.747 17.106-241.506 17.106-42.758 0-175.592-17.106-241.506-17.106s-98.116-2.013-113.713 0c-15.598 2.013-21.133-3.522-29.184-21.133-8.05-17.61-35.221-49.31-35.221-75.978 0-26.667 51.322-27.674 51.322 0 0 4.529-12.579 9.058-25.158 8.051l2.538 19.576" fill="none" stroke="#0b592e" stroke-width="5.5"/><path d="m625.183 1180.421.856 14.107c.167 2.752.385 4.477.654 5.176s.706 1.244 1.309 1.634c.604.391 1.675.539 3.215.445l.084 1.389-17.303 1.05-.084-1.389c1.574-.095 2.627-.379 3.162-.851.534-.472.893-1.064 1.077-1.778s.192-2.447.025-5.199l-2.003-33.018c-.167-2.751-.385-4.477-.654-5.176-.27-.699-.702-1.244-1.297-1.635s-1.671-.539-3.228-.444l-.084-1.389 14.842-.9c4.888-.297 8.475.791 10.759 3.264s3.544 5.659 3.781 9.562c.2 3.302-.315 6.171-1.545 8.604-1.23 2.436-3.025 4.151-5.384 5.147-1.587.699-4.314 1.166-8.182 1.401zm-1.512-24.914 1.334 21.987c.556.017.976.016 1.26-.001 2.042-.124 3.562-1.126 4.557-3.007s1.377-4.722 1.146-8.524c-.229-3.776-.949-6.507-2.16-8.191s-2.914-2.459-5.107-2.326z" fill="#0b592e"/><path d="m659.88 1187.681-12.048.279-1.318 4.994c-.432 1.664-.634 3.035-.609 4.112.033 1.428.443 2.472 1.23 3.13.462.391 1.584.665 3.366.824l.032 1.391-11.344.263-.032-1.39c1.217-.304 2.206-1.086 2.966-2.344.759-1.259 1.672-3.843 2.739-7.753l11.255-40.944.478-.011 13.27 41.503c1.266 3.932 2.288 6.401 3.066 7.411.588.764 1.403 1.195 2.446 1.297l.032 1.39-16.5.384-.032-1.391.679-.016c1.324-.031 2.249-.328 2.772-.892.359-.409.531-.99.513-1.741-.01-.451-.071-.913-.183-1.388-.039-.225-.312-1.158-.82-2.801zm-.92-2.761-5.488-17.432-4.824 17.671z" fill="#0b592e"/><path d="m704.33 1150.673.013 1.391c-1.239.313-2.336 1.313-3.293 3.001-.693 1.26-1.714 4.214-3.063 8.862l-11.388 39.05-.831.008-12.074-40.411c-1.455-4.874-2.424-7.734-2.911-8.582-.486-.847-1.393-1.378-2.719-1.591l-.013-1.391 16.354-.151.013 1.391-.553.005c-1.476.014-2.48.299-3.012.854-.382.38-.57.933-.563 1.659.004.451.076.983.216 1.596s.608 2.257 1.404 4.931l7.506 25.305 6.533-22.653c.78-2.738 1.257-4.572 1.434-5.502.176-.928.261-1.719.254-2.37-.007-.752-.147-1.414-.421-1.988s-.672-1.009-1.195-1.305c-.725-.419-1.683-.624-2.874-.612l-.013-1.391z" fill="#0b592e"/><path d="m736.729 1183.728-1.258 17.895-30.292.042-.002-1.392 1.132-.001c.989-.002 1.786-.266 2.389-.793.436-.352.77-.953 1.004-1.806.184-.602.273-2.181.27-4.736l-.046-33.53c-.004-2.605-.099-4.234-.284-4.886-.186-.651-.56-1.221-1.122-1.709-.563-.488-1.322-.731-2.278-.729l-1.132.001-.002-1.391 18.19-.025.002 1.391-1.484.003c-.99.001-1.786.266-2.389.792-.436.353-.778.954-1.029 1.806-.184.602-.274 2.181-.27 4.737l.045 32.477c.003 2.607.106 4.267.309 4.98.203.714.597 1.246 1.185 1.596.419.226 1.435.337 3.045.334l2.843-.004c1.812-.002 3.32-.48 4.527-1.435 1.207-.953 2.249-2.459 3.126-4.515.878-2.056 1.708-5.09 2.491-9.101z" fill="#0b592e"/><path d="m756.051 1200.806-.044 1.391-17.829-.563.043-1.39 1.132.035c.989.031 1.793-.206 2.414-.714.447-.336.801-.927 1.063-1.771.203-.595.345-2.17.426-4.725l1.056-33.514c.082-2.604.041-4.235-.123-4.893s-.519-1.239-1.065-1.745-1.297-.774-2.253-.804l-1.131-.036.043-1.39 17.83.562-.044 1.39-1.131-.035c-.989-.031-1.794.207-2.414.714-.447.337-.81.928-1.088 1.771-.204.596-.345 2.171-.426 4.726l-1.056 33.513c-.083 2.605-.037 4.236.135 4.894.172.657.531 1.239 1.078 1.745.546.506 1.297.774 2.253.805z" fill="#0b592e"/><path d="m782.939 1151.467-.689 16.979-1.03-.059c-.244-4.28-1.243-7.77-2.996-10.468-1.753-2.697-3.735-4.108-5.946-4.234-1.708-.098-3.099.508-4.173 1.814-1.074 1.307-1.662 2.849-1.763 4.625-.064 1.125.055 2.137.356 3.032.419 1.203 1.131 2.411 2.138 3.623.74.87 2.474 2.438 5.201 4.701 3.819 3.153 6.349 6.071 7.591 8.752 1.225 2.681 1.742 5.697 1.551 9.049-.242 4.254-1.56 7.85-3.953 10.788-2.394 2.938-5.298 4.311-8.714 4.116-1.072-.061-2.076-.281-3.012-.66-.936-.38-2.099-1.061-3.487-2.044-.775-.546-1.423-.834-1.942-.863-.436-.024-.91.199-1.424.672-.515.474-.951 1.213-1.311 2.223l-.929-.054 1.093-19.214.929.053c.429 5.445 1.614 9.648 3.554 12.607 1.94 2.96 4.124 4.508 6.552 4.646 1.875.106 3.414-.571 4.614-2.034s1.858-3.208 1.974-5.234c.068-1.2-.079-2.376-.442-3.526s-.952-2.257-1.764-3.319c-.813-1.063-2.279-2.47-4.397-4.223-2.969-2.452-5.085-4.519-6.351-6.197s-2.206-3.526-2.822-5.544-.856-4.215-.721-6.593c.231-4.053 1.423-7.448 3.579-10.188 2.155-2.738 4.748-4.021 7.779-3.85 1.105.063 2.166.324 3.181.783.77.346 1.697.957 2.781 1.834 1.084.878 1.852 1.329 2.304 1.354.436.025.79-.155 1.064-.542.274-.385.563-1.335.868-2.85z" fill="#0b592e"/><path d="m819.428 1155.314-1.04 13.757-.903-.068c-.295-3.214-.717-5.539-1.264-6.976-.547-1.436-1.359-2.609-2.434-3.52-.602-.498-1.697-.808-3.286-.928l-2.534-.191-2.963 39.207c-.196 2.6-.223 4.23-.08 4.895s.477 1.261 1 1.791c.523.529 1.271.831 2.241.904l1.129.085-.105 1.387-17.813-1.346.104-1.387 1.129.085c.987.075 1.801-.128 2.443-.606.461-.317.85-.891 1.165-1.722.229-.586.44-2.153.633-4.702l2.963-39.207-2.458-.186c-2.292-.173-4.011.426-5.157 1.797-1.608 1.914-2.747 4.73-3.414 8.45l-.954-.072 1.04-13.757z" fill="#0b592e"/><path d="m835.067 1193.271-12.007-1.033-1.854 4.82c-.61 1.607-.96 2.949-1.053 4.022-.122 1.423.172 2.504.882 3.245.417.438 1.502.833 3.257 1.186l-.119 1.386-11.306-.974.12-1.386c1.243-.169 2.311-.838 3.203-2.007.892-1.168 2.081-3.637 3.567-7.408l15.645-39.476.476.041 8.674 42.7c.83 4.046 1.577 6.613 2.241 7.701.501.823 1.265 1.342 2.291 1.556l-.119 1.386-16.444-1.416.119-1.386.677.059c1.32.113 2.271-.081 2.854-.584.402-.368.635-.927.7-1.676.039-.449.028-.915-.031-1.398-.014-.228-.184-1.186-.51-2.874zm-.613-2.845-3.559-17.925-6.719 17.04z" fill="#0b592e"/><path d="m864.176 1187.116-1.303 14.224c-.251 2.746-.297 4.484-.137 5.216.161.732.505 1.336 1.034 1.813s1.57.785 3.124.928l-.127 1.385-17.388-1.593.127-1.385c1.57.144 2.654.023 3.254-.362.599-.385 1.044-.917 1.333-1.596.29-.678.56-2.389.812-5.135l3.017-32.94c.251-2.745.297-4.483.137-5.216-.16-.731-.505-1.335-1.034-1.812s-1.57-.786-3.124-.929l.127-1.385 15.785 1.446c4.109.376 7.077 1.076 8.903 2.099 1.826 1.022 3.236 2.73 4.23 5.124.993 2.394 1.35 5.125 1.068 8.195-.343 3.743-1.528 6.755-3.556 9.035-1.294 1.442-3.013 2.455-5.154 3.038l6.594 17.93c.865 2.319 1.499 3.774 1.899 4.364.614.836 1.369 1.333 2.264 1.49l-.127 1.386-10.698-.98-8.831-24.136zm2.28-24.893-2.036 22.235 1.428.131c2.321.213 4.088.054 5.299-.478 1.21-.53 2.222-1.595 3.034-3.194s1.34-3.733 1.584-6.404c.354-3.867.01-6.78-1.031-8.738-1.042-1.957-2.908-3.06-5.597-3.306z" fill="#0b592e"/><path d="m923.78 1164.704-.126 1.385c-1.263.188-2.455 1.073-3.576 2.657-.814 1.185-2.125 4.022-3.93 8.514l-15.219 37.722-.827-.074-7.992-41.413c-.962-4.994-1.642-7.937-2.042-8.828-.399-.892-1.249-1.51-2.547-1.854l.125-1.385 16.287 1.478-.125 1.385-.551-.05c-1.47-.134-2.498.051-3.082.551-.418.339-.66.871-.726 1.595-.041.449-.022.985.056 1.609s.38 2.306.907 5.045l4.95 25.927 8.756-21.891c1.048-2.646 1.707-4.424 1.974-5.331.267-.906.431-1.685.489-2.334.068-.748-.006-1.422-.221-2.021-.215-.598-.568-1.07-1.059-1.417-.68-.489-1.613-.787-2.798-.896l.125-1.385z" fill="#0b592e"/><path d="m944.282 1200.079 11.784-32.805 13.848 1.055-.106 1.387-1.104-.084c-1.004-.076-1.827.125-2.469.604-.445.318-.824.88-1.137 1.686-.23.585-.441 2.141-.633 4.664l-2.552 33.508c-.198 2.599-.23 4.229-.095 4.894.134.664.467 1.261.999 1.791.531.53 1.274.832 2.228.905l1.104.084-.105 1.387-17.762-1.354.105-1.387 1.104.084c1.003.077 1.826-.124 2.468-.604.444-.317.825-.892 1.141-1.723.229-.585.441-2.152.635-4.701l2.869-37.668-16.577 45.37-.602-.046-9.74-47.036-2.727 35.795c-.19 2.499-.266 4.039-.226 4.619.122 1.267.517 2.32 1.185 3.163.667.843 1.779 1.323 3.334 1.441l-.106 1.387-11.64-.887.105-1.387.351.027c.751.082 1.467-.046 2.149-.384.682-.337 1.214-.817 1.599-1.442.384-.624.712-1.516.986-2.677.054-.272.168-1.545.341-3.819l2.449-32.158c.196-2.573.227-4.187.091-4.838s-.469-1.242-1-1.772c-.532-.53-1.274-.832-2.228-.904l-1.079-.083.105-1.387 13.898 1.059z" fill="#0b592e"/><path d="m1010.603 1166.92.771 13.774-.905.051c-.713-3.147-1.436-5.397-2.166-6.75s-1.688-2.409-2.874-3.171c-.661-.415-1.788-.578-3.379-.489l-2.537.142 2.195 39.258c.146 2.603.333 4.224.562 4.862.229.641.638 1.188 1.227 1.645.588.457 1.367.658 2.339.604l1.131-.063.077 1.389-17.835.998-.078-1.389 1.131-.063c.987-.056 1.769-.362 2.342-.922.416-.374.726-.994.93-1.858.15-.611.154-2.192.012-4.745l-2.195-39.257-2.462.138c-2.294.128-3.92.947-4.877 2.456-1.344 2.108-2.104 5.05-2.278 8.824l-.955.054-.771-13.774z" fill="#0b592e"/><path d="m1024.637 1168.603 1.735 20.677.677-.057c2.156-.182 3.634-1.324 4.434-3.428s1.168-5.14 1.104-9.108l.953-.08 2.231 26.596-.953.079c-.443-2.879-1.064-5.216-1.863-7.011-.799-1.793-1.65-2.973-2.557-3.538-.905-.565-2.17-.78-3.791-.644l1.201 14.309c.234 2.797.457 4.501.669 5.111.211.611.551 1.099 1.019 1.461.468.363 1.187.504 2.156.423l2.031-.17c3.176-.267 5.628-1.579 7.357-3.938 1.729-2.357 2.823-5.819 3.282-10.385l.928-.078-.175 16.273-29.384 2.466-.116-1.387 1.128-.094c.986-.083 1.758-.412 2.315-.987.405-.386.689-1.013.853-1.882.133-.614.093-2.195-.121-4.743l-2.804-33.412c-.192-2.297-.353-3.705-.48-4.222-.24-.86-.606-1.509-1.097-1.945-.694-.646-1.593-.923-2.696-.83l-1.128.095-.116-1.386 28.456-2.388 1.261 15.021-.953.08c-.793-3.631-1.694-6.208-2.706-7.732s-2.352-2.595-4.019-3.209c-.974-.371-2.748-.448-5.321-.232z" fill="#0b592e"/><path d="m1059.322 1190.463 1.302 14.225c.251 2.746.521 4.463.813 5.154.29.69.738 1.222 1.346 1.594.606.373 1.687.487 3.24.346l.127 1.385-17.389 1.591-.127-1.385c1.57-.145 2.615-.46 3.135-.948.52-.487.86-1.091 1.021-1.811.162-.719.117-2.451-.134-5.196l-3.014-32.941c-.251-2.745-.521-4.463-.813-5.153-.291-.691-.739-1.222-1.346-1.595-.607-.372-1.688-.487-3.24-.345l-.127-1.386 15.785-1.443c4.108-.376 7.154-.227 9.136.447 1.982.675 3.679 2.098 5.09 4.271 1.412 2.174 2.258 4.795 2.539 7.864.343 3.743-.276 6.921-1.856 9.531-1.012 1.653-2.518 2.961-4.518 3.924l9.74 16.435c1.271 2.123 2.158 3.438 2.66 3.946.755.711 1.588 1.063 2.496 1.055l.127 1.385-10.698.979-13.065-22.133zm-2.277-24.893 2.034 22.235 1.429-.131c2.321-.212 4.029-.689 5.124-1.432 1.094-.741 1.895-1.972 2.403-3.692s.64-3.914.396-6.585c-.354-3.868-1.221-6.67-2.601-8.406-1.38-1.735-3.415-2.48-6.104-2.234z" fill="#0b592e"/><path d="m1095.324 1187.159 1.291 14.226c.249 2.745.519 4.463.809 5.153.29.691.738 1.224 1.345 1.596.606.373 1.687.488 3.24.348l.126 1.385-17.39 1.579-.126-1.386c1.57-.143 2.615-.457 3.136-.945.52-.486.86-1.091 1.022-1.81s.119-2.451-.13-5.197l-2.99-32.943c-.249-2.745-.519-4.463-.809-5.154-.29-.69-.739-1.222-1.345-1.595-.607-.373-1.687-.488-3.24-.348l-.126-1.385 15.786-1.434c4.109-.373 7.154-.221 9.136.454 1.981.676 3.677 2.102 5.087 4.275 1.41 2.175 2.254 4.797 2.533 7.866.34 3.744-.281 6.92-1.863 9.529-1.013 1.652-2.52 2.96-4.521 3.921l9.729 16.441c1.271 2.125 2.156 3.44 2.657 3.948.755.712 1.587 1.064 2.496 1.057l.125 1.386-10.699.971-13.05-22.142zm-2.26-24.894 2.019 22.236 1.428-.13c2.322-.211 4.03-.687 5.126-1.428 1.095-.74 1.896-1.971 2.405-3.69.51-1.72.643-3.914.4-6.585-.351-3.868-1.216-6.671-2.595-8.408-1.379-1.736-3.413-2.483-6.102-2.239z" fill="#0b592e"/><path d="m1139.891 1192.001-12.01 1.004-1.017 5.063c-.33 1.688-.45 3.068-.36 4.142.118 1.424.591 2.44 1.416 3.051.484.362 1.621.568 3.409.62l.116 1.386-11.308.945-.116-1.387c1.197-.376 2.137-1.216 2.819-2.518s1.438-3.936 2.269-7.903l8.774-41.546.477-.04 15.74 40.63c1.499 3.849 2.668 6.253 3.506 7.214.633.727 1.473 1.109 2.52 1.147l.116 1.386-16.448 1.374-.115-1.386.677-.057c1.32-.11 2.225-.462 2.714-1.057.335-.43.471-1.021.408-1.77-.038-.449-.126-.907-.267-1.373-.053-.222-.381-1.138-.986-2.747zm-1.085-2.7-6.525-17.07-3.754 17.929z" fill="#0b592e"/><path d="m1187.942 1185.675 7.302-34.084 13.865-.802.08 1.388-1.104.064c-1.005.058-1.794.367-2.366.928-.398.375-.699.981-.902 1.821-.149.611-.151 2.181-.005 4.707l1.941 33.549c.15 2.603.336 4.223.559 4.862.222.641.631 1.188 1.229 1.643.597.455 1.373.654 2.327.6l1.105-.064.08 1.389-17.783 1.029-.08-1.389 1.105-.063c1.004-.059 1.793-.368 2.365-.928.398-.375.698-.994.9-1.859.149-.611.15-2.192.003-4.745l-2.183-37.714-10.375 47.177-.603.034-15.929-45.315 2.073 35.838c.145 2.502.275 4.038.393 4.609.29 1.238.822 2.229 1.597 2.976.773.746 1.939 1.074 3.497.984l.08 1.388-11.654.675-.081-1.389.352-.021c.755-.019 1.448-.24 2.079-.666.63-.425 1.094-.973 1.392-1.643.297-.67.504-1.598.62-2.785.018-.276-.04-1.554-.171-3.83l-1.863-32.198c-.149-2.576-.335-4.179-.556-4.807-.222-.627-.631-1.168-1.228-1.623-.598-.455-1.374-.654-2.328-.6l-1.08.063-.081-1.388 13.916-.806z" fill="#0b592e"/><path d="m1232.693 1187.127-12.052-.004-1.436 4.961c-.47 1.654-.705 3.021-.705 4.098-.001 1.429.385 2.48 1.156 3.158.452.4 1.567.702 3.346.902v1.391l-11.348-.003.001-1.391c1.224-.275 2.23-1.033 3.02-2.273.788-1.24 1.763-3.802 2.921-7.687l12.214-40.668h.479l12.291 41.804c1.173 3.96 2.137 6.453 2.891 7.48.57.777 1.375 1.229 2.415 1.354v1.391l-16.505-.005v-1.391h.68c1.325 0 2.256-.274 2.793-.826.369-.4.554-.978.554-1.729 0-.451-.05-.915-.15-1.392-.033-.226-.285-1.165-.754-2.819zm-.854-2.782-5.077-17.556-5.238 17.553z" fill="#0b592e"/><path d="m1276.307 1150.834-.078 13.796-.906-.006c-.519-3.185-1.101-5.476-1.747-6.87s-1.537-2.509-2.673-3.342c-.635-.455-1.749-.687-3.343-.695l-2.541-.015-.225 39.317c-.015 2.606.072 4.236.262 4.889.188.652.563 1.225 1.122 1.717.56.491 1.325.74 2.298.746l1.133.006-.008 1.392-17.863-.103.008-1.391 1.132.007c.989.005 1.788-.253 2.395-.776.438-.348.785-.947 1.042-1.798.188-.601.289-2.179.304-4.735l.225-39.317-2.466-.015c-2.298-.013-3.971.705-5.019 2.152-1.472 2.021-2.41 4.91-2.817 8.667l-.956-.006.079-13.795z" fill="#0b592e"/><path d="m1291.601 1153.988-.37 20.746.68.013c2.163.038 3.749-.948 4.758-2.961 1.009-2.012 1.683-4.994 2.021-8.949l.956.018-.475 26.684-.956-.017c-.149-2.91-.531-5.298-1.144-7.163-.612-1.866-1.341-3.126-2.185-3.78s-2.079-.995-3.706-1.024l-.256 14.356c-.05 2.807-.001 4.524.147 5.153.148.63.437 1.148.865 1.557.429.409 1.13.622 2.103.64l2.038.036c3.186.057 5.759-1 7.719-3.171 1.959-2.171 3.398-5.504 4.317-9.999l.931.017-1.823 16.171-29.482-.524.025-1.391 1.132.02c.989.019 1.79-.23 2.403-.746.442-.343.788-.938 1.039-1.786.194-.598.315-2.175.36-4.73l.598-33.524c.041-2.306.023-3.722-.051-4.249-.152-.88-.45-1.563-.895-2.047-.625-.712-1.49-1.079-2.598-1.099l-1.132-.021.024-1.391 28.553.509-.269 15.071-.956-.018c-.421-3.691-1.058-6.347-1.909-7.966s-2.076-2.819-3.673-3.6c-.932-.468-2.688-.725-5.271-.771z" fill="#0b592e"/><path d="m1324.485 1179.694-.756 14.264c-.146 2.753-.125 4.491.063 5.217s.556 1.315 1.103 1.771 1.6.725 3.157.807l-.073 1.39-17.437-.925.073-1.389c1.574.083 2.653-.079 3.238-.487.584-.408 1.008-.956 1.271-1.646.263-.688.468-2.409.614-5.162l1.751-33.032c.146-2.752.125-4.491-.063-5.217s-.556-1.315-1.103-1.771c-.547-.455-1.6-.725-3.157-.807l.073-1.39 15.829.84c4.12.219 7.112.804 8.977 1.756s3.339 2.604 4.424 4.959c1.085 2.354 1.545 5.069 1.382 8.147-.199 3.753-1.268 6.809-3.207 9.165-1.238 1.49-2.916 2.568-5.034 3.233l7.277 17.664c.953 2.284 1.643 3.714 2.065 4.288.646.812 1.418 1.279 2.319 1.402l-.074 1.389-10.728-.568-9.75-23.78zm1.325-24.962-1.183 22.297 1.433.075c2.327.124 4.087-.103 5.276-.68s2.159-1.68 2.909-3.309 1.195-3.782 1.338-6.46c.205-3.879-.25-6.776-1.366-8.692s-3.022-2.946-5.719-3.089z" fill="#0b592e"/><path d="m745.451 461.33v536.354c0 18.385 14.903 33.286 33.286 33.286h177.353c13.205 0 23.91 10.705 23.91 23.91 0-13.205 10.706-23.91 23.91-23.91h177.354c18.385 0 33.287-14.901 33.287-33.286v-536.354z" fill="#fddf14"/><path d="m1214.551 461.33h-53.721l-180.83 215.434-180.831-215.434h-53.719v98.682l166.274 198.094-166.273 198.092v41.486c0 18.385 14.903 33.286 33.286 33.286h40.502l160.761-191.525 160.761 191.525h40.503c18.385 0 33.287-14.901 33.287-33.286v-41.487l-166.274-198.092 166.274-198.094z" fill="#0a9b4a" stroke="#0f331b" stroke-width="2"/><path d="m745.451 461.33v536.354c0 18.385 14.903 33.286 33.286 33.286h177.353c13.205 0 23.91 10.705 23.91 23.91 0-13.205 10.706-23.91 23.91-23.91h177.354c18.385 0 33.287-14.901 33.287-33.286v-536.354z" fill="none" stroke="#0f331b" stroke-width="5.5"/><g stroke="#262626"><path d="m985.293 260.484v-15.346l23.9.817v14.529l10.566.755 2.516-14.592 26.919 1.761 1.006-14.843-4.025-2.013 2.013-23.397-17.023-28.344 1.31-10.889 17.892 2.625-.88 5.92 9.645 1.674.882-6.082 17.233 2.39-.881 6.541 14.397 2.117.949-6.645 15.347 2.013-.504 7.295 13.586 2.516.946-7.806 18.425 3.026v8.302l-23.396 22.894-3.271 22.391-3.773 1.006-1.007 17.611 14.34 3.019v11.321l13.418 5.703 1.341-14.76 26.164 6.038-1.006 15.431 13.418 3.019 1.342-15.766 21.804 4.36-2.349 15.766 15.095 4.697 6.038-14.76 23.816 11.741 14.76-27.507v-17.777l-9.394-20.798v-10.734l21.972 2.013-2.264 10.063 12.076 6.289 8.134-10.649 11.74 5.703-3.019 13.082 11.404 6.708 7.38-11.069 16.101 9.728-14.088 19.791-26.165 21.803-66.417 107.005s7.381 4.36 2.35 13.752c-5.032 9.393-17.444 4.025-17.444 4.025l-4.69 11.06c14.315 7.639 16.904 27.358-9.731 17.789-29.52-10.607-104.657-39.582-214.188-39.582-109.53 0-184.669 28.975-214.187 39.582-26.636 9.57-24.048-10.15-9.733-17.789l-4.69-11.06s-12.412 5.368-17.443-4.025c-5.032-9.392 2.349-13.752 2.349-13.752l-66.417-107.005-26.164-21.803-14.088-19.791 16.101-9.728 7.379 11.069 11.404-6.708-3.019-13.082 11.74-5.703 8.134 10.649 12.076-6.289-2.264-10.063 21.972-2.013v10.734l-9.393 20.798v17.777l14.76 27.507 23.816-11.741 6.038 14.76 15.095-4.697-2.349-15.766 21.804-4.36 1.342 15.766 13.418-3.019-1.006-15.431 26.165-6.038 1.341 14.76 13.417-5.703v-11.321l14.34-3.019-1.011-17.61-3.774-1.006-3.271-22.391-23.397-22.894v-8.302l18.425-3.026.946 7.806 13.585-2.516-.503-7.295 15.346-2.013.949 6.645 14.397-2.117-.88-6.541 17.233-2.39.883 6.082 9.646-1.674-.882-5.92 17.892-2.625 1.31 10.889-17.024 28.344 2.013 23.397-4.025 2.013 1.006 14.843 26.919-1.761 2.516 14.592 10.566-.755v-14.529l23.9-.817v15.346h10.587z" fill="#d9d8d8" stroke-width="4"/><path d="m772.42 383.104s-27.063-50.509-71.68-44.215" fill="none" stroke-width="3.5"/><path d="m718.516 292.52 84.296 80.84" fill="none" stroke-width="3.5"/><path d="m643.713 267.361s28.82-17.504 63.049-26.782" fill="none" stroke-width="3.5"/><path d="m669.877 289.165s15.976-10.839 38.261-15.985" fill="none" stroke-width="3.5"/><path d="m662.603 283.102s17.505-12.051 41.154-18.089" fill="none" stroke-width="3.5"/><path d="m720.486 294.408s-21.299 8.471-35.786 18.638" fill="none" stroke-width="3.5"/><path d="m851.937 256.711v104.014" fill="none" stroke-width="3.5"/><path d="m910.806 247.402 40.001 99.122" fill="none" stroke-width="3.5"/><path d="m843.886 215.703 67.926-7.547" fill="none" stroke-width="3.5"/><path d="m845.429 226.265 67.411-6.653" fill="none" stroke-width="3.5"/><path d="m850.93 239.1 58.87-5.535" fill="none" stroke-width="3.5"/><path d="m870.115 237.297 4.091 118.533" fill="none" stroke-width="3.5"/><path d="m925.198 348.772s-23.198-78.225-27.223-92.061c-4.025-13.837-4.368-21.623-4.368-21.623" fill="none" stroke-width="3.5"/><path d="m851.937 259.729 59.875-9.833" fill="none" stroke-width="3.5"/><path d="m874.206 355.83c-2.483-71.951 30.432-76.49 50.992-7.058" fill="none" stroke-width="3.5"/><path d="m872.622 309.954c-36.485 6.95-80.945 18.263-135.198 36.57" fill="none" stroke-width="3.5"/><path d="m873.274 328.846c-35.48 6.507-75.621 17.086-115.632 34.205" fill="none" stroke-width="3.5"/><path d="m768.973 358.376 19.191 19.528" fill="none" stroke-width="3.5"/><path d="m751.389 341.896-20.423-19.527" fill="none" stroke-width="3.5"/><path d="m704.911 301.422-15.904-22.096" fill="none" stroke-width="3.5"/><path d="m803.657 346.044 11.801 23.633" fill="none" stroke-width="3.5"/><path d="m783.139 304.96 11.805 23.639" fill="none" stroke-width="3.5"/><path d="m832.472 337.804 5.376 25.247" fill="none" stroke-width="3.5"/><path d="m823.14 293.988 5.461 25.644" fill="none" stroke-width="3.5"/><path d="m812.241 323.833 6.236 18.063" fill="none" stroke-width="3.5"/><path d="m964.38 299.416-.323-22.952" fill="none" stroke-width="3.5"/><path d="m965.047 346.659-.391-27.714" fill="none" stroke-width="3.5"/><path d="m949.948 300.049.859 19.508" fill="none" stroke-width="3.5"/><path d="m1203.915 425.007s-93.196-40.243-223.664-40.243h-.503c-130.467 0-223.663 40.243-223.663 40.243" fill="none" stroke-width="3.5"/><path d="m1208.61 413.948s-97.892-48.293-228.359-48.293h-.503c-130.467 0-228.359 48.293-228.359 48.293" fill="none" stroke-width="3.5"/><path d="m1223.705 396.17c-116.732-44.614-187.845-49.646-243.454-49.646h-.503c-55.609 0-126.721 5.032-243.454 49.646" fill="none" stroke-width="3.5"/><path d="m1187.58 383.104s27.063-50.509 71.68-44.215" fill="none" stroke-width="3.5"/><path d="m1241.484 292.52-84.296 80.84" fill="none" stroke-width="3.5"/><path d="m1316.287 267.361s-28.821-17.504-63.049-26.782" fill="none" stroke-width="3.5"/><path d="m1290.122 289.165s-15.975-10.839-38.261-15.985" fill="none" stroke-width="3.5"/><path d="m1297.398 283.102s-17.506-12.051-41.154-18.089" fill="none" stroke-width="3.5"/><path d="m1239.514 294.408s21.3 8.471 35.787 18.638" fill="none" stroke-width="3.5"/><path d="m1261.753 334.872c-159.774-63.821-244.51-58.287-281.753-58.287-37.244 0-121.979-5.535-281.752 58.287" fill="none" stroke-width="3.5"/><path d="m1108.063 256.711v104.014" fill="none" stroke-width="3.5"/><path d="m1049.194 247.402-40.001 99.122" fill="none" stroke-width="3.5"/><path d="m1116.114 215.703-67.926-7.547" fill="none" stroke-width="3.5"/><path d="m1114.571 226.265-67.411-6.653" fill="none" stroke-width="3.5"/><path d="m1109.07 239.1-58.87-5.535" fill="none" stroke-width="3.5"/><path d="m1089.885 237.297-4.09 118.533" fill="none" stroke-width="3.5"/><path d="m1034.803 348.772s23.196-78.225 27.222-92.061c4.025-13.837 4.367-21.623 4.367-21.623" fill="none" stroke-width="3.5"/><path d="m1108.063 259.729-59.875-9.833" fill="none" stroke-width="3.5"/><path d="m1085.795 355.83c2.482-71.951-30.434-76.49-50.992-7.058" fill="none" stroke-width="3.5"/><path d="m1087.378 309.954c36.486 6.95 80.944 18.263 135.198 36.57" fill="none" stroke-width="3.5"/><path d="m1048.158 303.65c-28.589-3.69-50.811-4.457-68.158-4.457-17.348 0-39.57.767-68.158 4.457" fill="none" stroke-width="3.5"/><path d="m1086.726 328.846c35.481 6.507 75.621 17.086 115.632 34.205" fill="none" stroke-width="3.5"/><path d="m1042.628 322.369c-27.741-3.082-49.83-3.686-62.628-3.686s-34.887.604-62.627 3.686" fill="none" stroke-width="3.5"/><path d="m1191.026 358.376-19.189 19.528" fill="none" stroke-width="3.5"/><path d="m1208.61 341.896 20.424-19.527" fill="none" stroke-width="3.5"/><path d="m1255.09 301.422 15.902-22.096" fill="none" stroke-width="3.5"/><path d="m1156.343 346.044-11.801 23.633" fill="none" stroke-width="3.5"/><path d="m1176.86 304.96-11.804 23.639" fill="none" stroke-width="3.5"/><path d="m1127.529 337.804-5.377 25.247" fill="none" stroke-width="3.5"/><path d="m1136.861 293.988-5.462 25.644" fill="none" stroke-width="3.5"/><path d="m1147.759 323.833-6.236 18.063" fill="none" stroke-width="3.5"/><path d="m995.619 299.416.324-22.952" fill="none" stroke-width="3.5"/><path d="m994.953 346.659.392-27.714" fill="none" stroke-width="3.5"/><path d="m1010.052 300.049-.859 19.508" fill="none" stroke-width="3.5"/></g><path d="m1085.795 355.83c2.482-71.951-30.434-76.49-50.992-7.058h.002c15.609 1.399 32.525 3.619 51.123 7.083z" fill="#262626"/><path d="m925.194 348.772c-15.57 1.396-32.443 3.607-50.987 7.057l-.001.001c-2.483-71.951 30.432-76.49 50.992-7.058z" fill="#262626"/><path d="m700.74 338.889c44.616-6.294 71.68 44.215 71.68 44.215h-.001c-11.54 3.926-23.568 8.267-36.125 13.066z" fill="#262626"/><path d="m1223.705 396.17 35.555-57.281c-44.616-6.294-71.68 44.215-71.68 44.215z" fill="#262626"/></svg>