<svg height="1400" width="2000" xmlns="http://www.w3.org/2000/svg"><path d="m0 0h2000v1400h-2000z" fill="#fff"/><path d="m0 0h860v1400h-860z" fill="#00994d"/><text font-family="Bitstream Vera Sans" font-size="12" x="692.17676" y="837.46417"><tspan x="692.17676" y="837.46417">VILA REAL DO BOM JESUS DE CUIABÁ</tspan></text><path d="m754.76127 416.5061c-64.95579 0-117.25396 52.298-117.25396 117.2541v226.2314c0 7.676.41629 15.2517 1.17632 22.7283.76005 7.4765 1.87822 14.8582 3.36092 22.098 1.48271 7.2397 3.29349 14.3343 5.46149 21.2998 2.168 6.9654 4.70413 13.7636 7.52004 20.4177 2.81594 6.6538 5.9421 13.146 9.36856 19.4512 3.42647 6.305 7.13339 12.4403 11.13304 18.3589 3.99965 5.9188 8.27802 11.6458 12.81349 17.1407 4.53546 5.495 9.33402 10.7625 14.36792 15.7963 5.03389 5.0339 10.30133 9.8325 15.7963 14.3679 5.49497 4.5355 11.22202 8.8138 17.14068 12.8136 5.91864 3.9996 12.01202 7.7065 18.31698 11.1329 6.30497 3.4266 12.79739 6.5527 19.45131 9.3688 6.65391 2.8158 13.49407 5.3098 20.45956 7.478 6.96551 2.1679 14.06012 4.0208 21.29982 5.5034 7.23969 1.4827 14.62149 2.6008 22.09802 3.3609s15.05222 1.1763 22.72821 1.1763c7.676 0 15.25161-.4162 22.72813-1.1763 7.4765-.7601 14.8584-1.8782 22.0982-3.3609 7.2395-1.4826 14.3343-3.3355 21.2997-5.5034 6.9654-2.1682 13.8055-4.6622 20.4596-7.478 6.6538-2.8161 13.1463-5.9422 19.4513-9.3688 6.3049-3.4264 12.4403-7.1334 18.359-11.1329 5.9186-3.9997 11.6037-8.2781 17.0987-12.8136 5.4949-4.5354 10.7623-9.334 15.7962-14.3679 5.0339-5.0338 9.8324-10.3013 14.3679-15.7963 4.5356-5.4949 8.8136-11.2219 12.8136-17.1407 3.9996-5.9186 7.7485-12.0541 11.1749-18.3589 3.4266-6.3051 6.5527-12.7974 9.3686-19.4512 2.816-6.6541 5.31-13.4523 7.478-20.4177 2.1682-6.9655 4.0206-14.0601 5.5036-21.2998 1.4828-7.2398 2.6009-14.6217 3.3609-22.098.76-7.4765 1.1343-15.0523 1.1343-22.7283v-2.2264-224.005c0-64.9561-52.2982-117.2541-117.2539-117.2541z" fill="#fff500" stroke="#000" stroke-linejoin="round" stroke-width="6.049649"/><path d="m781.71871 488.9952c-48.31704 0-87.21875 38.9017-87.21875 87.2188v168.2812c0 5.7097.30965 11.3448.875 16.9063.56535 5.5613 1.3971 11.0522 2.5 16.4375 1.1029 5.3852 2.44985 10.6625 4.0625 15.8437s3.49914 10.238 5.59375 15.1875 4.41999 9.7787 6.96875 14.4688c2.54876 4.6899 5.30613 9.2536 8.28125 13.6562 2.97511 4.4026 6.15756 8.6626 9.53125 12.75 3.37368 4.0874 6.94305 8.0056 10.6875 11.75 3.74444 3.7444 7.6626 7.3138 11.75 10.6875s8.34744 6.556 12.75 9.5313c4.40256 2.9751 8.93508 5.7324 13.625 8.2812s9.51927 4.8741 14.46875 6.9688c4.94948 2.0946 10.0375 3.9498 15.21875 5.5625 5.18125 1.6126 10.45854 2.9908 15.84375 4.0937s10.87612 1.9346 16.4375 2.5 11.1965.875 16.90625.875 11.34487-.3096 16.90625-.875c5.56139-.5654 11.05229-1.3971 16.43759-2.5 5.3851-1.1029 10.6625-2.4811 15.8437-4.0937 5.1812-1.6127 10.2692-3.4679 15.2188-5.5625 4.9494-2.0947 9.7788-4.42 14.4687-6.9688s9.2537-5.3062 13.6563-8.2812c4.4025-2.9752 8.6313-6.1576 12.7187-9.5313s8.0056-6.9431 11.75-10.6875 7.3138-7.6626 10.6875-11.75 6.556-8.3474 9.5313-12.75c2.9751-4.4026 5.7637-8.9664 8.3125-13.6562 2.5487-4.69 4.8741-9.5193 6.9687-14.4688s3.9498-10.0063 5.5625-15.1875 2.9907-10.4585 4.0938-15.8437c1.1029-5.3853 1.9346-10.8763 2.5-16.4375.5653-5.5614.8437-11.1966.8437-16.9063v-1.6562-166.625c0-48.3171-38.9017-87.2188-87.2187-87.2188z" fill="#fff" stroke="#000" stroke-linejoin="round" stroke-width="4.5"/><path d="m1201.2801 966.09265h-611.74859l305.87431-529.78985z" fill="#00994d" transform="matrix(.346548 0 0 .585138 549.69886 263.7316)"/><path d="m1201.2801 966.09265h-611.74859l305.87431-529.78985z" fill="#fff500" transform="matrix(.346548 0 0 .181815 549.69886 653.379)"/><g fill="#f00"><path d="m815.21185 439.69952v29.1211h-8.04687v-19.08203c-1.3021.9896-2.56186 1.79038-3.7793 2.40234-1.21745.612-2.74414 1.19793-4.58008 1.75781v-6.52343c2.70833-.87238 4.81119-1.92055 6.3086-3.14454 1.49738-1.22393 2.66926-2.73434 3.51562-4.53125zm8.82813.48829h23.22265v5.37109c-2.01825 1.82294-3.70444 3.79559-5.05859 5.91797-1.64064 2.57814-2.93621 5.44923-3.88672 8.61328-.75522 2.46094-1.26303 5.3711-1.52344 8.73047h-7.92968c.62499-4.67448 1.60806-8.59374 2.94922-11.75781 1.34113-3.16405 3.46352-6.54947 6.36718-10.15625h-14.14062zm44.60937-.48829v29.1211h-8.04687v-19.08203c-1.3021.9896-2.56186 1.79038-3.7793 2.40234-1.21745.612-2.74414 1.19793-4.58008 1.75781v-6.52343c2.70833-.87238 4.81119-1.92055 6.3086-3.14454 1.49738-1.22393 2.66926-2.73434 3.51562-4.53125zm9.04297 22.69532 7.91016-.9961c.20832 1.10678.55988 1.88803 1.05469 2.34375.49478.45574 1.10024.6836 1.8164.6836 1.27603 0 2.27212-.64453 2.98828-1.9336.52082-.95051.91144-2.96223 1.17188-6.03515-.95054.97657-1.9271 1.69272-2.92969 2.14843-1.00262.45574-2.16147.68361-3.47656.6836-2.56511.00001-4.72983-.91145-6.49414-2.73438-1.76433-1.8229-2.64649-4.12759-2.64649-6.91406 0-1.90102.44922-3.63279 1.34766-5.19531.89843-1.56248 2.13541-2.74412 3.71094-3.54492 1.57551-.80076 3.55467-1.20115 5.9375-1.20118 2.86456.00003 5.16274.49157 6.89453 1.47461 1.73175.9831 3.11521 2.5456 4.15039 4.6875 1.03513 2.14195 1.55271 4.97072 1.55273 8.48633-.00002 5.16928-1.08726 8.95509-3.26172 11.35742-2.17449 2.40235-5.18881 3.60352-9.04296 3.60352-2.27866 0-4.07553-.26367-5.39063-.79102-1.31511-.52734-2.40886-1.29882-3.28125-2.31445-.8724-1.01562-1.54297-2.28515-2.01172-3.80859zm14.64844-12.77344c-.00002-1.54946-.39064-2.76365-1.17188-3.64258-.78126-.87888-1.73178-1.31833-2.85156-1.31836-1.0547.00003-1.93035.39716-2.62695 1.19141-.69663.79429-1.04493 1.9857-1.04492 3.57422-.00001 1.60158.36132 2.82553 1.08398 3.67187.72265.84637 1.62434 1.26955 2.70508 1.26953 1.11978.00002 2.05077-.41014 2.79297-1.23047.74217-.82029 1.11326-1.99217 1.11328-3.51562z"/><path d="m681.70019 585.48187v10.74736l-23.43734 7.48233 23.43734 7.36897v10.42992l-32.56791-12.33452v-11.13281zm0 39.79242v10.29388h-32.56791v-10.29388zm0 17.64017v10.27121l-24.54812-.00001v16.03034h-8.01979v-26.30154zm-27.19176 51.46939v-11.69965l-5.37615-1.60983v-10.49794l32.56791 12.49323v11.20083l-32.56791 12.49323v-10.74736zm7.04231-2.154 11.70757-3.67314-11.70757-3.65048zm-12.48446 33.44397 32.56756-.15434.07788 17.11849c.01441 3.17426-.24114 5.60159-.76664 7.28199-.52556 1.68033-1.50799 3.03787-2.94727 4.0726-1.43935 1.03468-3.19571 1.55695-5.26911 1.56681-1.80686.00853-3.36742-.37709-4.68168-1.15687-1.31429-.77983-2.38184-1.85556-3.20264-3.2272-.52236-.87428-.95732-2.07394-1.30488-3.59898-.39432 1.22624-.79014 2.11996-1.18745 2.68116-.26488.37913-.83258.92977-1.7031 1.65193-.87055.72211-1.54222 1.20523-2.01504 1.44935l-9.41889 5.01024-.05281-11.60883 9.92747-5.53415c1.28531-.70144 2.11926-1.32515 2.50186-1.87112.50017-.74307.74813-1.58318.74387-2.52035l-.00412-.90694-13.21808.06264zm19.41864 10.22464.01969 4.33063c.00212.46857.15434 1.37481.45669 2.71872.13636.67955.47952 1.23343 1.02948 1.66166.54991.42818 1.18033.64059 1.89123.63724 1.0515-.005 1.85711-.34893 2.41683-1.03178.55966-.68289.83524-1.9615.82674-3.83582l-.02052-4.51203zm12.92153 21.90141 3.11945 27.34119-6.90678.82085-1.95287-17.11638-5.14146.61106 1.81154 15.8777-6.59785.78415-1.81154-15.8777-6.37719.75792 2.0094 17.61186-7.32604.8707-3.17599-27.83665zm-17.45845 55.34909-3.15226-11.2486-5.60262-.03889-2.82848-10.09322 34.67841 2.87103 3.01785 10.76901-27.94626 21.15214-2.89567-10.33302zm6.19045-4.04746 10.26655-6.8174-12.23976-.22388zm23.10632 6.36985 4.24656 9.31197-22.25555 10.57227 6.62763 14.53325-7.27082 3.45393-10.87418-23.84522zm17.42384 34.8711 9.20385 12.02532c1.81429 2.37052 2.96476 4.53664 3.4514 6.49836.48656 1.96173.50515 3.88899.05576 5.7818-.44947 1.89281-1.29206 3.67708-2.52777 5.35285-1.23579 1.67573-2.72901 3.2115-4.47969 4.60731-2.74281 2.18673-5.1138 3.56397-7.11299 4.13172-1.99925.56772-3.94256.69287-5.82992.37545-1.8874-.31746-3.49722-.99047-4.82945-2.01902-1.82534-1.40271-3.28959-2.82475-4.39277-4.2661l-9.20386-12.02533zm.3828 12.72835-14.0232 11.18032 1.51802 1.98338c1.29463 1.69151 2.39929 2.74808 3.314 3.1697.91467.42161 1.9851.46969 3.21131.14424 1.22617-.32546 2.86635-1.30705 4.92054-2.94477 2.71941-2.16815 4.23454-4.10501 4.5454-5.81058.3108-1.70558-.3361-3.60664-1.9407-5.70319zm6.01204 22.63592c3.56527-4.02574 7.43974-6.14641 11.62343-6.362 4.18363-.21554 8.23667 1.48595 12.15913 5.10448 4.02127 3.70979 6.14392 7.66989 6.36796 11.88034.22395 4.21043-1.42187 8.3005-4.93745 12.2702-2.55234 2.88194-5.12053 4.80687-7.70456 5.7748-2.58408.96788-5.22867 1.13625-7.93374.5051-2.70513-.63119-5.39812-2.18336-8.07897-4.65652-2.72484-2.51374-4.58767-5.0371-5.58853-7.57008-1.00086-2.533-1.20703-5.27015-.6185-8.21144.58851-2.94129 2.15892-5.85292 4.71123-8.73488zm7.436 6.92105c-2.20473 2.48947-3.33552 4.69619-3.39238 6.62014-.0569 1.92396.69475 3.6056 2.25495 5.04492 1.60411 1.47984 3.31739 2.09255 5.13984 1.83813 1.82241-.25445 3.95515-1.76096 6.39824-4.51955 2.05572-2.32127 3.09908-4.44053 3.13012-6.35781.03095-1.91727-.73913-3.60063-2.31026-5.05008-1.50528-1.38863-3.19553-1.95972-5.07076-1.71327-1.87528.24646-3.92519 1.62563-6.14975 4.13752zm39.18795 11.09911 16.62606 9.04118c2.77097 1.50688 4.53262 3.36405 5.28496 5.57153.75225 2.20749.58867 4.34511-.49073 6.41287-.90539 1.73425-2.21126 2.93384-3.91763 3.59877-1.13764.44327-2.51148.53544-4.12152.27647 1.80051 1.62998 2.86559 3.32673 3.19521 5.09025.32955 1.76353.00685 3.57911-.9681 5.44678-.79396 1.5208-1.85416 2.69982-3.18063 3.5371-1.32652.83725-2.77557 1.28244-4.34716 1.33557-.97488.03508-2.26611-.25602-3.87369-.87331-2.13913-.82071-3.53546-1.40875-4.18898-1.76413l-15.33205-8.3375zm2.95342 16.37854 3.86242 2.10036c1.38548.75344 2.47654 1.03419 3.2732.84223.7966-.19194 1.43519-.74816 1.91574-1.66866.44568-.85377.52267-1.66828.23098-2.44352-.29176-.77522-1.11077-1.52889-2.45704-2.26101l-3.92123-2.13236zm-6.01707 11.52612 4.52903 2.46287c1.52927.83162 2.75212 1.1412 3.66855.92875.91639-.21245 1.61834-.78559 2.10586-1.71942.45264-.86713.50609-1.73297.16034-2.59754-.3458-.86457-1.2964-1.71977-2.8518-2.56561l-4.50943-2.45221zm23.05175 1.79695c1.6475-5.15947 4.33831-8.70801 8.07243-10.64564 3.73409-1.93758 8.11467-2.07031 13.14175-.39821 5.15374 1.71431 8.67381 4.44719 10.56018 8.19863 1.88631 3.75148 2.01719 8.17102.39267 13.25865-1.17946 3.69356-2.75565 6.51985-4.72856 8.47887-1.97299 1.95901-4.32058 3.21313-7.04276 3.76235-2.72225.54921-5.80128.25239-9.23712-.89046-3.49219-1.16159-6.20112-2.69064-8.12679-4.58713-1.92569-1.8965-3.20726-4.31008-3.84473-7.24073-.63747-2.93064-.3665-6.24276.81293-9.93633zm9.55453 3.22578c-1.01882 3.19056-1.16994 5.67607-.45335 7.45656.71654 1.78048 2.07461 3.00327 4.07418 3.66838 2.05586.68385 3.86503.53045 5.42755-.46017 1.56245-.99061 2.90816-3.25366 4.03712-6.78914.94993-2.97496 1.05615-5.34425.31865-7.10787-.73756-1.7636-2.11315-2.98029-4.12675-3.6501-1.92917-.64167-3.7007-.45985-5.31458.54544-1.61393 1.00532-2.93487 3.11762-3.96282 6.3369zm26.76682-8.43109 13.14115 1.65179 2.64907 20.71075 7.47138-19.43866 13.09705 1.64625-3.98083 32.99045-8.1581-1.02544 3.03586-25.15916-9.3639 24.36376-7.38639-.92844-3.27012-25.95179-3.03586 25.15916-8.18015-1.0282zm63.56361 2.07417 10.0112-1.25002 2.15006 17.93724c.45139 3.76601.46781 6.6726.04925 8.71979-.41861 2.04721-1.53469 3.87693-3.34825 5.48917-1.81361 1.61225-4.26399 2.61111-7.35112 2.99657-3.26357.4075-5.84605.2731-7.74744-.4032-1.9014-.6763-3.44475-1.81989-4.63007-3.43079-1.18532-1.61089-2.01906-3.68066-2.50121-6.20931l9.38896-2.52005c.18915 1.45356.44359 2.51824.76334 3.19405.31973.67582.78499 1.19642 1.39579 1.56177.41637.23735.97738.31198 1.68303.22387 1.11724-.1395 1.88601-.6657 2.30628-1.57859.42024-.91288.50988-2.37458.2689-4.38513zm11.85021-1.51019 25.97169-7.41841 1.87401 6.83429-16.25906 4.64414 1.39503 5.08751 15.08241-4.30806 1.79017 6.5286-15.08241 4.30806 1.73031 6.31025 16.72971-4.77859 1.98775 7.24916-26.44234 7.55284zm34.27006 13.19107 8.45771-4.62169c.83541 1.35532 1.7121 2.27581 2.63007 2.76146 1.49106.78327 3.11203.76621 4.8629-.0512 1.30641-.6099 2.173-1.39262 2.5998-2.34818.42675-.95552.45532-1.84568.0857-2.67046-.35116-.78351-1.00206-1.32737-1.95269-1.63157-.95064-.30417-2.77477-.15901-5.4724.43548-4.4263.95276-7.83659 1.06549-10.23087.3382-2.40776-.72097-4.14145-2.26363-5.20107-4.62797-.69614-1.55328-.91269-3.22658-.64967-5.01992.26303-1.7933 1.10297-3.49857 2.5198-5.11582 1.41683-1.61719 3.66737-3.14574 6.75159-4.58565 3.78457-1.7668 6.99202-2.39569 9.62237-1.8867 2.63033.50906 4.83636 2.2426 6.6181 5.20061l-8.39537 4.54272c-.83887-1.25393-1.76392-2.01887-2.77516-2.29479-1.01125-.27587-2.16335-.11201-3.45629.49158-1.06399.49676-1.76216 1.10112-2.0945 1.81309-.33235.71202-.35067 1.39793-.05497 2.0577.21562.48115.6319.8104 1.24885.98777.60964.19746 1.79957.09073 3.56976-.32016 4.39433-.98766 7.6586-1.43531 9.79279-1.34293 2.13417.09243 3.89399.6214 5.27948 1.58691 1.38544.96556 2.44781 2.27309 3.18711 3.9226.86862 1.93821 1.14423 3.9704.82685 6.0966-.31744 2.12623-1.22948 4.05217-2.73614 5.77781-1.50669 1.72566-3.69439 3.25812-6.56311 4.59739-5.03712 2.35159-8.96896 2.99038-11.7955 1.91637-2.82655-1.07401-5.05158-3.07708-6.67514-6.00925zm35.08711-44.69422 8.3019-5.76525 10.92255 16.38393c1.08306 1.62467 1.8578 3.3309 2.32419 5.1187.46635 1.78783.53029 3.59002.19182 5.40655-.33852 1.81657-.94359 3.34745-1.81521 4.59266-1.20808 1.73481-2.94474 3.38877-5.21 4.96187-1.31019.90987-2.80224 1.8089-4.47615 2.6971-1.67395.88822-3.21668 1.41565-4.62822 1.5823-1.41156.16665-2.89054.03734-4.43697-.38796-1.54643-.42529-2.84125-1.07103-3.88444-1.93721-1.68069-1.39247-2.97092-2.76356-3.87072-4.11328l-10.92254-16.38392 8.3019-5.76525 11.18498 16.77759c.99978 1.49969 2.18798 2.38858 3.56463 2.66665 1.37664.27811 2.7874-.08453 4.23229-1.08794 1.43261-.99487 2.27904-2.19058 2.53929-3.58714.26022-1.39652-.1179-2.85712-1.13432-4.38181zm23.00752 10.48504 6.49403-7.20723c1.22625.99882 2.35108 1.57319 3.37458 1.72311 1.66056.23827 3.18553-.32282 4.57493-1.68325 1.0367-1.01506 1.6023-2.04545 1.6969-3.09116.0945-1.04568-.1658-1.89576-.7811-2.55024-.5844-.62172-1.3745-.91639-2.3702-.88402-.99581.03242-2.67124.78275-5.02649 2.251-3.87172 2.3877-7.05529 3.64068-9.55068 3.75893-2.50607.12875-4.64088-.74494-6.40446-2.62107-1.15859-1.23256-1.90312-2.73967-2.23358-4.52135-.33042-1.78164-.08774-3.67412.72806-5.67745.81582-2.00327 2.44741-4.20314 4.89477-6.5996 3.00312-2.94055 5.82859-4.6127 8.47641-5.01644 2.64778-.40365 5.29023.49147 7.92718 2.68537l-6.46062 7.1117c-1.19676-.90193-2.31707-1.31317-3.36092-1.23371-1.04384.07951-2.07875.62156-3.10473 1.62614-.84428.82675-1.30843 1.6321-1.39245 2.41607-.08399.78403.12008 1.4378.61223 1.96135.35887.38179.85819.55272 1.49795.51277.63934-.01853 1.72841-.51934 3.2672-1.50244 3.83028-2.40991 6.76789-3.93001 8.81281-4.56031 2.04492-.63023 3.87722-.72244 5.49702-.27661 1.6197.44589 3.0448 1.32327 4.2752 2.63216 1.4457 1.53801 2.3618 3.36413 2.7484 5.47837.3865 2.11429.147 4.23936-.7187 6.37523-.8656 2.1359-2.4367 4.31834-4.713 6.54731-3.997 3.91383-7.50323 5.83883-10.51866 5.77505s-5.7628-1.207-8.24208-3.42968zm14.43974-47.15824 8.1175-12.81445c1.6002-2.52604 3.2286-4.34499 4.8852-5.45685 1.6567-1.11178 3.4348-1.76099 5.3342-1.94764 1.8994-.18657 3.8271.04151 5.7832.68422 1.9561.6428 3.8669 1.5797 5.7326 2.8107 2.9227 1.92867 4.9743 3.76395 6.1548 5.50584 1.1804 1.74195 1.9328 3.57492 2.2572 5.49892.3244 1.92405.2286 3.69688-.2872 5.31849-.7007 2.21968-1.5374 4.09749-2.5104 5.63343l-8.1175 12.81445zm11.6577-4.5384 14.9434 9.86065 1.3388-2.11352c1.1419-1.80251 1.7581-3.21385 1.8488-4.23402.0907-1.02013-.2154-2.06812-.9183-3.14398-.703-1.07581-2.1489-2.33594-4.3378-3.7804-2.8979-1.91219-5.1873-2.73883-6.868-2.47993-1.6807.25897-3.2287 1.5055-4.6439 3.73958zm4.4422-21.25748 10.786-25.22876 6.3731 2.83826-6.7522 15.79395 4.7442 2.11283 6.2637-14.65096 6.0881 2.71131-6.2638 14.65097 5.8845 2.62062 6.9478-16.25113 6.7601 3.01055-10.9814 25.68595zm37.548-56.79601 4.1689-8.38605c2.3314 1.03731 4.2021 2.34409 5.6123 3.92036 1.4101 1.57633 2.3654 3.38865 2.8659 5.43697.5006 2.04839.4954 4.53847-.0154 7.47027-.6198 3.55689-1.6328 6.3707-3.039 8.44141-1.4063 2.07075-3.528 3.69307-6.365 4.86696-2.837 1.17391-6.2459 1.39961-10.2267.67709-5.3076-.96335-9.136-3.1436-11.4848-6.54075-2.3489-3.39713-3.0645-7.72986-2.1466-12.99823.7184-4.12238 2.0996-7.21479 4.1437-9.27726 2.0442-2.0624 4.8575-3.35957 8.4401-3.89154l.3907 9.28272c-1.0313.13524-1.8029.33297-2.3145.59318-.8568.42794-1.5607 1.0141-2.1116 1.7585-.5509.74445-.9145 1.62266-1.0908 2.63463-.3993 2.29191.1987 4.21211 1.7942 5.76061 1.1808 1.16621 3.2074 2.01 6.0799 2.53136 3.558.64577 6.0926.53777 7.6042-.32402 1.5115-.86176 2.4409-2.28976 2.7884-4.28401.3372-1.93468.0597-3.49347-.8323-4.67637-.892-1.18285-2.3126-2.18146-4.2616-2.99583zm-17.3767-33.91792.2346-10.24574 19.4111.46315c1.9248.04596 3.7353.39534 5.4314 1.04813 1.6961.65286 3.1696 1.64814 4.4204 2.98583 1.2508 1.33775 2.1188 2.73059 2.6041 4.17853.6799 2.01209.9878 4.41595.9237 7.21158-.037 1.61698-.1884 3.37862-.4543 5.28493-.2659 1.90635-.743 3.49389-1.4312 4.76266-.6884 1.26878-1.6518 2.42137-2.8904 3.45777-1.2384 1.03641-2.5063 1.73569-3.8034 2.09786-2.0874.58523-3.9306.85878-5.5298.82061l-19.411-.46314.2347-10.24573 19.8774.47427c1.7767.04241 3.1763-.42694 4.1988-1.40803 1.0225-.98106 1.5541-2.36319 1.595-4.14639.0404-1.76805-.4201-3.16629-1.3817-4.19474-.9616-1.02839-2.3456-1.56415-4.1519-1.60728zm-.1378-16.72909v-10.29388h32.568v10.29388zm27.1918-38.09189v11.69965l5.3762 1.60984v10.49794l-32.568-12.49323v-11.20083l32.568-12.49323v10.74735zm-7.0423 2.15401-11.7076 3.67314 11.7076 3.65047zm-20.1495-17.82157v-19.22733c0-3.20453.7776-5.66463 2.3326-7.3803 1.5552-1.71562 3.4805-2.57343 5.7761-2.57347 1.9253.00003 3.5767.61222 4.954 1.83657.9183.81629 1.644 2.01043 2.1771 3.58245.5629-2.38827 1.5292-4.14548 2.8992-5.27165 1.3699-1.12609 3.0916-1.68915 5.165-1.68919 1.6885.00004 3.2065.40061 4.5542 1.20171 1.3478.80118 2.4141 1.89707 3.1991 3.2877.4887.86162.8441 2.16159 1.0663 3.89988.2962 2.31274.4444 3.847.4444 4.60277v17.73086zm12.7739-10.36189v-4.46673c.0001-1.60226-.2703-2.71705-.8108-3.34438-.5406-.62729-1.3218-.94094-2.3438-.94096-.9479.00002-1.6883.31367-2.2215.94096-.5332.62733-.7998 1.71944-.7998 3.27636v4.53475zm12.7961 0v-5.23764c0-1.76853-.3073-3.01559-.9219-3.74116-.6146-.72554-1.4403-1.08832-2.477-1.08834-.9627.00002-1.7365.35901-2.3215 1.077-.5851.71802-.8776 1.97641-.8776 3.77517v5.21497zm1.6218-46.16374v11.69965l5.3762 1.60983v10.49794l-32.568-12.49323v-11.20083l32.568-12.49323v10.74736zm-7.0423 2.154-11.7076 3.67314 11.7076 3.65048zm-28.7913 3.85453v-7.9358l6.6424 7.32361v4.42138z"/></g></svg>