<svg enable-background="new 0 0 1200 840" height="840" viewBox="0 0 1200 840" width="1200" xmlns="http://www.w3.org/2000/svg"><path d="m0 420h1200v420h-1200z" fill="#fff"/><path d="m0 0h1200v420h-1200z" fill="#1c593a"/><path d="m952.5 720.5s-93.5-46.5-169-45l2-15.5s-88.5-26-185.5-26-185.5 26-185.5 26l2 15.5c-75.5-1.5-169 45-169 45l78 11.5-47 51s85.5-38.5 173-35l-2-16.5s58-18.5 150.5-18.5 150.5 18.5 150.5 18.5l-2 16.5c87.5-3.5 173 35 173 35l-47-51z" fill="#13307d"/><path d="m460.683 711.996-9.359-46.307 9.098-1.84 25.202 27.096-6.249-30.926 8.687-1.756 9.358 46.309-9.382 1.896-24.771-26.426 6.104 30.197z" fill="#fff"/><path d="m568.909 697.275-10.344.834-4.975-10.365-18.823 1.52-3.024 11.01-10.086.814 14.542-48.57 10.054-.813zm-19.011-17.218-7.898-16.952-4.95 17.988z" fill="#fff"/><path d="m599.247 696.986.222-39.252-14.018-.08.045-7.99 37.543.211-.045 7.992-13.986-.078-.223 39.25z" fill="#fff"/><path d="m686 702.047-10.332-.963-3.111-11.068-18.805-1.752-4.877 10.324-10.076-.939 22.705-45.332 10.043.936zm-15.754-20.24-4.855-18.061-7.98 16.865z" fill="#fff"/><path d="m710.219 705.979 9.752-45.83 9.33 1.984-8.096 38.047 23.199 4.936-1.656 7.785z" fill="#fff"/><path d="m401.332 236.666c7.732 0 14 6.268 14 14v241.666c0 43.264 35.072 78.336 78.335 78.336h50s10.427-2.467 28.666 10.666c7.46 5.371 27.667 21 27.667 21s20.207-15.629 27.668-21c18.238-13.133 28.664-10.666 28.664-10.666h50c43.264 0 78.336-35.072 78.336-78.336 0-59.332 0-241.666 0-241.666 0-7.732 6.268-14 14-14z" fill="#13307d"/><path d="m728.652 261.105-215.609 228-3-2 197.768-226h-30.37l-180.898 228.5-3.5-2.5 163.705-226h-23.094l-157.611 234 48-6 236.922-228z" fill="#fff"/><path d="m487.376 446.943 11.622 34.836 36.72.287-29.539 21.817 11.074 35.012-29.877-21.35-29.876 21.35 11.074-35.012-29.539-21.817 36.72-.287z" fill="#fede22"/><g stroke="#000" stroke-width="3"><path d="m661.92 60.3-1.565 18.685-6.476-.543-1.647 19.682-22.919-1.918 1.646-19.681-6.477-.542 1.563-18.685z" fill="#fff"/><path d="m653.879 78.442-22.92-1.917" fill="none"/><path d="m706.154 67.904-3.107 18.492-6.41-1.079-3.276 19.478-22.681-3.813 3.273-19.475-6.41-1.078 3.109-18.491z" fill="#fff"/><path d="m696.637 85.317-22.684-3.81" fill="none"/><path d="m749.078 77.661-4.213 18.272-6.334-1.461-4.437 19.246-22.41-5.166 4.435-19.244-6.334-1.461 4.211-18.272z" fill="#fff"/><path d="m738.531 94.472-22.412-5.164" fill="none"/><path d="m791.023 90.979-5.679 17.871-6.196-1.97-10.425 17.41-17.477-5.554 5.983-18.821-6.194-1.97 5.68-17.87z" fill="#fff"/><path d="m779.148 106.88-21.919-6.965" fill="none"/><path d="m582 57v18.75h6.5v19.75h23v-19.75h6.5v-18.75z" fill="#fff"/><path d="m588.5 75.75h23" fill="none"/><path d="m538.08 60.3 1.565 18.685 6.476-.543 1.647 19.682 22.92-1.918-1.647-19.681 6.477-.542-1.563-18.685z" fill="#fff"/><path d="m546.121 78.442 22.92-1.917" fill="none"/><path d="m493.846 67.904 3.108 18.492 6.409-1.079 3.276 19.478 22.681-3.813-3.274-19.475 6.41-1.078-3.108-18.491z" fill="#fff"/><path d="m503.363 85.317 22.683-3.81" fill="none"/><path d="m450.923 77.661 4.212 18.272 6.333-1.461 4.437 19.246 22.412-5.166-4.436-19.244 6.334-1.461-4.212-18.272z" fill="#fff"/><path d="m461.468 94.472 22.413-5.164" fill="none"/><path d="m408.978 90.979 5.679 17.871 6.194-1.97 10.425 17.41 17.478-5.554-5.983-18.821 6.195-1.97-5.68-17.87z" fill="#fff"/><path d="m420.851 106.88 21.92-6.965" fill="none"/><path d="m735.07 111.584c-30.808-10.056-79.898-22.417-135.07-22.417s-104.261 12.361-135.069 22.417h-41.263l19.104 31.903 39.228 65.513s98 4 118 4 118-4 118-4l39.229-65.513 19.104-31.903z" fill="#fff"/><path d="m487.166 170.834v-19.75" fill="none"/><path d="m524.777 170.834v-19.75" fill="none"/><path d="m562.389 170.834v-19.75" fill="none"/><path d="m600 170.834v-19.75" fill="none"/><path d="m467.166 151.084v-19.75" fill="none"/><path d="m504.777 151.084v-19.75" fill="none"/><path d="m542.389 151.084v-19.75" fill="none"/><path d="m580 151.084v-19.75" fill="none"/><path d="m449.555 131.334v-19.75" fill="none"/><path d="m487.166 131.334v-19.75" fill="none"/><path d="m524.777 131.334v-19.75" fill="none"/><path d="m562.389 131.334v-19.75" fill="none"/><path d="m600 131.334v-19.75" fill="none"/><path d="m467.166 184.227v-13.393" fill="none"/><path d="m504.777 190.584v-19.75" fill="none"/><path d="m542.389 190.584v-19.75" fill="none"/><path d="m580 190.584v-19.75" fill="none"/><path d="m507.166 111.584v-11.669" fill="none"/><path d="m544.777 111.584v-18.495" fill="none"/><path d="m582.389 111.584v-22.003" fill="none"/><path d="m600 213v-22.416" fill="none"/><path d="m542.389 211.325v-15.364" fill="none"/><path d="m718 209s-65.668-18.416-118-18.416c-52.333 0-118 18.416-118 18.416" fill="none"/><path d="m740.854 170.834h-281.708" fill="none"/><path d="m712.834 170.834v-19.75" fill="none"/><path d="m675.223 170.834v-19.75" fill="none"/><path d="m637.611 170.834v-19.75" fill="none"/><path d="m752.68 151.084h-305.36" fill="none"/><path d="m732.834 151.084v-19.75" fill="none"/><path d="m695.223 151.084v-19.75" fill="none"/><path d="m657.611 151.084v-19.75" fill="none"/><path d="m620 151.084v-19.75" fill="none"/><path d="m765 131.334h-330" fill="none"/><path d="m750.445 131.334v-19.75" fill="none"/><path d="m712.834 131.334v-19.75" fill="none"/><path d="m675.223 131.334v-19.75" fill="none"/><path d="m637.611 131.334v-19.75" fill="none"/><path d="m729.027 190.584h-258.054" fill="none"/><path d="m732.834 184.227v-13.393" fill="none"/><path d="m695.223 190.584v-19.75" fill="none"/><path d="m657.611 190.584v-19.75" fill="none"/><path d="m620 190.584v-19.75" fill="none"/><path d="m776.332 111.584h-352.664" fill="none"/><path d="m692.834 111.584v-11.669" fill="none"/><path d="m655.223 111.584v-18.495" fill="none"/><path d="m617.611 111.584v-22.003" fill="none"/><path d="m657.611 211.325v-15.364" fill="none"/></g></svg>