<svg height="698.27429" width="1001.5" xmlns="http://www.w3.org/2000/svg"><path d="m.746558.746558h1000.0069v696.78113h-1000.0069z" fill="#f00" stroke="#f00" stroke-linecap="round" stroke-linejoin="round" stroke-width="1.493116"/><path d="m.474945.473672h402.16443v697.32703h-402.16443z" fill="#166309" stroke="#166309" stroke-width=".946896"/><path d="m738.7097 485.29031a209.67741 216.12903 0 1 1 -419.35483 0 209.67741 216.12903 0 1 1 419.35483 0z" fill="#fff" stroke="#fff" stroke-linecap="round" stroke-linejoin="round" stroke-width="1.5" transform="matrix(.98854221 0 0 .96649614 -119.80125 -120.70054)"/><g transform="matrix(.432152 0 0 .432152 298.02755 180.35009)"><path d="m23.02231 63.94551 47.28377-18.1227 6.75482 16.63993 8.07284 14.99241 11.36787 13.50965 8.40234 6.91958 8.07284 5.1073 4.1188 2.63603.16475 1.15326-35.91589 11.86213-18.1227 6.59008-13.50965 5.76631z" fill="#e6e6e6" stroke="#0f0" stroke-width=".2"/><path d="m15.3154 48.09841 10.58201-5.29101 4.7619 8.46561 5.82011-2.1164-1.5873-10.05291 7.9365-3.17461 3.17461 8.99471 6.94778-2.34621-.66806-9.75362 8.53509-2.71498 3.1746 8.46561 6.34921-1.5873-.45962-11.20197 9.98343-2.55465 2.6455 17.98942-59.78836 22.75132z" fill="#e6e6e6" stroke="#000" stroke-width="2.5"/><path d="m416.98312 45.2973 17.99836 5.57369 16.37271 5.45756 14.39869 5.10922-1.04507 3.83191-25.7783 64.44575-1.74178-.11612-18.11448-6.03816-21.94639-7.19935-15.55987-4.76085-19.15955-4.87698 2.67072-1.97401 18.2306-8.36053 12.5408-11.72797 9.40559-11.49573 7.08323-13.93421z" fill="#e6e6e6" stroke="#0f0" stroke-width=".3"/><path d="m406.69191 22.26758 12.36863 2.80867-1.77159 10.80158 5.95982 1.68326 2.97724-9.54532 9.90434 2.52075-1.07078 9.61404 7.46886 2.15568 3.08873-8.76531 8.51286 2.7839-2.3703 8.72504 6.08004 2.42179 6.17248-9.35926 9.59454 3.76029-6.7559 19.82169c-20.30455-7.09315-44.94343-16.5475-65.7206-20.14886z" fill="#e6e6e6" stroke="#000" stroke-width="2.5"/><path d="m147.72264 24.78705 16.27551-3.028 18.92501-2.271 17.22176-1.32475 1.32475 14.57225 2.83875 10.03026 2.83876 8.70551 2.6495 7.1915 7.38075 10.40876 5.48826 6.24525 15.51851 12.86901v1.514l-29.33377 1.32475-26.68427 3.028-24.22402 3.21726-18.35726 3.4065-13.81526 3.59575-1.8925.18925 1.514-2.83875 6.24526-7.57001 7.00225-9.65175 2.83875-6.24526 4.54201-12.4905 1.70325-6.81301 1.514-11.73351v-7.38075l-.56775-10.59801z" fill="#e6e6e6" stroke="#0f0" stroke-width=".4"/><path d="m135.76267 27.67827c24.51318-6.75268 49.02636-8.99426 73.53954-9.65206l-.22981-16.5464-9.65206-.22981.22981 8.04339-11.03093.45962-.22982-6.66452-10.80112.22981.22981 8.96263h-10.80112l-.45962-6.89434-10.57131 1.60868v7.58377l-10.11169.68943-.68943-5.97508-10.11169 1.37886z" fill="#e6e6e6" stroke="#000" stroke-width="2.5"/><path d="m284.92898 18.35255 9.27325.18925 8.51626.3785 15.14001 1.1355 11.73351 1.8925 8.13775 1.32475-1.514 11.35501v11.16575 10.40876l2.08175 11.16576 4.73125 13.62601 8.13776 15.14001 5.86675 6.056 1.514 3.21725-3.59575-.3785-23.27776-5.299-19.11427-3.028-10.03025-1.89251-19.49276-2.08175-13.62601-1.1355-13.05826-.56775-10.03026-.3785 3.028-3.97425 13.24751-8.89476 6.81301-8.7055 7.9485-15.89701 4.54201-13.43676 1.8925-9.08401.94625-8.327z" fill="#e6e6e6" stroke="#0f0" stroke-width=".4"/><path d="m275.4878 1.47981-.22981 16.5464c25.46326.15129 51.90372 2.25096 76.75691 8.50301l1.14905-18.6147-11.43748-1.874-.74251 8.0789-7.58376-.45962-.45962-8.96264-13.55886-.91924-.22981 7.12414-7.81358-.68943-.22981-7.58377-14.24828-.45962v6.66452h-7.58377v-6.66452z" fill="#e6e6e6" stroke="#000" stroke-width="2.5"/><path d="m336.79688 37.5164 9.04762.63492-.15873 6.82539 10.15873 2.53969 2.38095-6.50794 11.11111 3.1746v6.03175l8.88889 2.69841 3.65079-5.87301 8.4127 2.69841-.15873 5.71428 10.15873 3.17461 3.80952-5.71429 9.04762 3.1746-8.57142 16.66667-12.38096 15.07937-12.22222 9.04762-12.22222 6.50793-7.14286 1.90476-3.65079-3.33333-10.79365-17.46032-5.39683-12.69841-3.49206-15.07936-.63492-15.39683z" fill="#e6e6e6" stroke="#0f0" stroke-width=".4"/><path d="m338.0431 24.36396c-4.50405 33.01571 1.78842 60.37859 22.4748 81.22027 28.68658-6.97275 45.91628-30.64754 56.30732-59.57494" fill="none" stroke="#000" stroke-width="4.5"/><path d="m201.40005 30.691 9.36508.63492.15873 6.34921 12.38095-.15873.47619-7.93651h11.90477l.31746 7.46032 12.69841-.4762.31746-7.61904 10.31746-.15873.31746 8.25397 15.55556.15873.47619-7.77778h7.9365l-6.82539 22.06349-9.84127 19.04762-9.20635 10.31746-8.09524 6.19048-6.19048 3.49206-13.80952-9.20635-11.74603-13.01587-9.04762-15.71429-3.80952-10.31746z" fill="#e6e6e6" stroke="#0f0" stroke-width=".3"/><path d="m200.66603 18.99116c2.27325 33.24388 16.73747 57.05517 42.59611 71.06736 26.68092-12.63596 38.48462-38.42631 41.42293-71.34456" fill="none" stroke="#000" stroke-width="4.5"/><path d="m74.57466 55.4529 9.5238-1.26984.4762 3.80953 10-1.11111.31746-8.73016 10.63492-1.74604.79365 5.87302 12.38095-.31746.31746-9.84127 9.20635-.31746.79365 5.87302 11.11111-1.58731v-6.98412l8.57143-.31746-.47619 14.44444-7.30159 25.39683-8.4127 12.53968-7.61904 9.04762-4.92064 4.60317-2.85714-.79365-18.4127-12.53968-13.1746-16.19048-6.8254-12.53968z" fill="#e6e6e6" stroke="#0f0" stroke-width=".4"/><path d="m147.64477 25.23214c4.50405 33.01571-5.37958 61.7598-27.72342 80.39154-25.92415-11.39264-38.18147-30.92379-48.57251-59.85119" fill="none" stroke="#000" stroke-width="4.5"/><path d="m75.24115 54.79255 9.11602-1.38121.19381 4.53126 10.22099-1.34.0824-8.43988 10.77348-1.65746.82873 5.83618 12.15469-.58756v-9.67465l9.67465-.47005.66386 6.11856 11.20845-1.49872-.19994-7.541 7.49978-.15259" fill="none" stroke="#000" stroke-width="3"/><path d="m83.781 71.32592 63.01588-15.2381" fill="none" stroke="#000" stroke-width="3"/><path d="m202.51116 30.53227h8.57143l.15873 6.98413 11.90476-.15873v-8.09524h13.01588v7.77778l12.38095-.31746.15873-7.93651 11.26984-.15873v8.25397l15.23809.15873.15874-7.93651h6.66666" fill="none" stroke="#000" stroke-width="3"/><path d="m206.79688 48.94497 71.11111-.79365" fill="none" stroke="#000" stroke-width="3"/><path d="m338.06672 37.35767 7.77778.31746v7.46031l10.15873 2.22223 1.90476-6.66667 11.42857 3.1746.31746 6.66667 8.73016 2.06349 3.01587-5.71428 8.88889 2.38095-.15873 6.03174 10.31746 3.17461 3.1746-5.71429 8.57143 2.53968" fill="none" stroke="#000" stroke-width="3"/><path d="m338.06672 57.35767c27.63226 3.59674 47.23812 9.28731 65.23809 15.39682" fill="none" stroke="#000" stroke-width="3"/><path d="m49.33126 132.11604 25.25791-10.88703 33.53205-11.32251 37.0159-10.01607 49.64485-7.83866 32.2256-1.30644h34.8385l35.27397 3.91933 46.161 7.40318 38.32234 9.58058 27.8708 9.14511 24.82242 8.27414 4.7903 1.74193-13.06444 33.09656-8.27414-3.91933-37.0159-12.19347-33.53205-9.1451-36.14493-7.83866-29.61272-3.91933-27.43532-1.74193h-27.87079l-24.82243.87096-36.14493 5.66126-30.0482 6.09673-26.99983 7.83867-19.16117 6.96769-19.59666 6.9677-8.27414 3.48385z" fill="#e6e6e6" stroke="#0f0" stroke-width=".4"/><path d="m49.65402 131.64338c147.76715-64.97116 271.4298-43.38527 389.22271-.72165" fill="none" stroke="#000" stroke-width="4"/><path d="m52.57455 139.94304c147.76715-64.97116 265.98687-43.80396 383.77978-1.14034" fill="none" stroke="#000" stroke-width="4"/><path d="m61.32986 163.76916c133.86373-57.65357 241.64541-44.94882 365.29239-.0899" fill="none" stroke="#000" stroke-width="4"/><path d="m56.19902 148.71372c133.86373-57.65357 252.94355-46.37711 375.5603 1.57252" fill="none" stroke="#000" stroke-width="2"/><path d="m58.14547 154.78075c133.86373-57.65357 248.43324-46.37711 371.04999 1.57252" fill="none" stroke="#000" stroke-width="2"/><path d="m465.99451 62.63983-39.43749 101.271" fill="none" stroke="#000" stroke-linecap="round" stroke-width="3.5"/><path d="m23.70441 64.891 37.83975 99.06241" fill="none" stroke="#000" stroke-linecap="round" stroke-width="3.5"/><path d="m29.94189 80.58544 47.61327-16.96944" fill="none" stroke="#000" stroke-width="3"/><path d="m35.87295 95.90735 49.75504-17.79319" fill="none" stroke="#000" stroke-width="3"/><path d="m41.96877 112.38253 55.0271-20.75872" fill="none" stroke="#000" stroke-width="3"/><path d="m37.84997 58.5087 5.93107 16.14567" fill="none" stroke="#000" stroke-width="3"/><path d="m54.98416 52.08338 6.26057 16.31042" fill="none" stroke="#000" stroke-width="3"/><path d="m52.01863 73.17161 5.60156 14.0039" fill="none" stroke="#000" stroke-width="3"/><path d="m67.8348 67.57005 5.60156 14.16865" fill="none" stroke="#000" stroke-width="3"/><path d="m47.73508 91.78856 5.93106 15.32192" fill="none" stroke="#000" stroke-width="3"/><path d="m66.18728 85.36324 5.76631 14.99241" fill="none" stroke="#000" stroke-width="3"/><path d="m81.5092 97.88438 6.59007 16.80468" fill="none" stroke="#000" stroke-width="3"/><path d="m61.40948 105.29821 6.75482 17.29894" fill="none" stroke="#000" stroke-width="3"/><path d="m149.61514 44.09056 53.17928-4.542" fill="none" stroke="#000" stroke-width="3"/><path d="m147.34414 61.50157 61.50629-5.86675" fill="none" stroke="#000" stroke-width="3"/><path d="m140.90963 80.04809 78.5388-8.70551" fill="none" stroke="#000" stroke-width="3"/><path d="m163.99815 21.9483.18925 20.06051" fill="none" stroke="#000" stroke-width="3"/><path d="m182.73391 19.6773v20.81751" fill="none" stroke="#000" stroke-width="3"/><path d="m158.32065 43.71206.18925 15.70776" fill="none" stroke="#000" stroke-width="3"/><path d="m175.73166 42.57656.18925 15.51851" fill="none" stroke="#000" stroke-width="3"/><path d="m193.33192 40.87331.18925 15.32926" fill="none" stroke="#000" stroke-width="3"/><path d="m168.54015 60.17682v16.27551" fill="none" stroke="#000" stroke-width="3"/><path d="m187.65441 58.09507.18925 16.08626" fill="none" stroke="#000" stroke-width="3"/><path d="m158.13139 78.72333.18926 17.78952" fill="none" stroke="#000" stroke-width="3"/><path d="m182.16616 75.88458.18925 16.84326" fill="none" stroke="#000" stroke-width="3"/><path d="m206.20093 73.80283v17.22176" fill="none" stroke="#000" stroke-width="3"/><path d="m282.09023 39.17006 54.12553 5.48825" fill="none" stroke="#000" stroke-width="3"/><path d="m277.54822 54.49932 59.80304 6.813" fill="none" stroke="#000" stroke-width="3"/><path d="m268.46422 70.77483 74.18604 9.46251" fill="none" stroke="#000" stroke-width="3"/><path d="m301.20449 18.5418-2.08175 21.76376" fill="none" stroke="#000" stroke-width="3"/><path d="m320.69725 21.00205-2.08175 21.19601" fill="none" stroke="#000" stroke-width="3"/><path d="m290.41723 40.30556-.757 14.57226" fill="none" stroke="#000" stroke-width="3"/><path d="m308.01749 42.38731-.757 14.76151" fill="none" stroke="#000" stroke-width="3"/><path d="m325.807 44.09056-.3785 15.14001" fill="none" stroke="#000" stroke-width="3"/><path d="m296.28398 56.77032-.56775 16.65401" fill="none" stroke="#000" stroke-width="3"/><path d="m316.15525 59.23057-.18925 16.84326" fill="none" stroke="#000" stroke-width="3"/><path d="m280.95472 72.47808-.18925 18.92501" fill="none" stroke="#000" stroke-width="3"/><path d="m303.28624 75.50608-.18925 18.73576" fill="none" stroke="#000" stroke-width="3"/><path d="m325.99625 78.53408v19.49277" fill="none" stroke="#000" stroke-width="3"/><path d="m410.28104 63.63543 47.79354 17.55681" fill="none" stroke="#000" stroke-width="3"/><path d="m402.91151 76.31535 49.41918 19.61595" fill="none" stroke="#000" stroke-width="3"/><path d="m389.90646 91.0544 55.4882 22.54208" fill="none" stroke="#000" stroke-width="3"/><path d="m435.099 50.95551-6.1774 18.53219" fill="none" stroke="#000" stroke-width="3"/><path d="m450.81343 56.15753-6.6109 18.96569" fill="none" stroke="#000" stroke-width="3"/><path d="m420.46832 67.97044-4.55176 12.89668" fill="none" stroke="#000" stroke-width="3"/><path d="m436.72463 74.03947-4.22664 13.11342" fill="none" stroke="#000" stroke-width="3"/><path d="m422.63583 84.66025-6.71927 16.03956" fill="none" stroke="#000" stroke-width="3"/><path d="m440.19264 91.92141-6.28577 16.03955" fill="none" stroke="#000" stroke-width="3"/><path d="m426.21222 106.44371-6.39415 16.68981" fill="none" stroke="#000" stroke-width="3"/><path d="m405.72927 98.31555-7.36953 17.77357" fill="none" stroke="#000" stroke-width="3"/><path d="m100.60384 555.36162 11.89376 13.85682 82.67898-50-8.19861-3.69515-12.81755-6.81294-15.35797-10.8545-13.85681-14.54965-11.08545-15.01155-6.1201-10.96998-7.27482-17.20554-6.00462-24.3649-1.03926-21.59353.80831-12.93302 1.38568-11.3164-24.94226 15.35797-31.2933 18.47575.11547 49.19168 4.84988 22.40185 9.12241 29.79215 12.24018 26.21247z" fill="#ff0" stroke="#000" stroke-width=".3"/><path d="m280.89314 271.10575 146.0215-87.74194-.64516 199.78495-59.56989 33.97849 1.50538-12.04301-.43011-15.69892-1.93548-18.06452-5.80646-21.72043-6.23655-13.54839-6.88173-12.25806-11.82795-15.48387-11.1828-11.39785-14.19355-11.1828-9.89247-5.80645-11.39785-5.37634z" fill="#ff0" stroke="#000" stroke-width=".4"/><path d="m280.03353 270.65188 147.59207-88.38527-1.983-1.13315h-364.87252l-1.69972 221.52975v1.13314l57.2238-34.27762 7.08215-25.21246 10.48159-19.83003 14.73087-18.98017 13.59774-12.46459 18.4136-13.03116 16.99716-7.36544 25.49575-7.36544 19.26346-1.13314 19.54674 1.983 12.46459 3.11615z" fill="#f00" stroke="#0f0" stroke-width=".4"/><path d="m112.51644 569.37752 82.47734-48.9426 14.50151 4.53172 17.82477 3.62538 28.39879.60423 23.26284-5.74018 21.14804-9.36556 24.77341-17.22054 14.80363-16.61632 11.78248-16.3142 9.06344-21.45015 4.83384-19.33535 1.51057-5.43806 59.81873-35.04532v70.69486l-3.32326 19.33535-8.76133 26.88822-10.87613 22.96072-17.52266 26.58611-22.96072 25.07553-26.28399 20.5438-33.83686 16.3142-32.02417 9.66768-29.00302 3.32326-19.63746-.30212-25.98188-3.92749-25.67975-8.45921-22.05439-10.87614-20.24169-15.10574z" fill="#008000" stroke="#f00" stroke-width=".4"/><path d="m58.81171 452.66937 1.40411-271.69603h367.17577l-.70206 272.39808c-29.7328 201.05428-322.2318 253.1603-367.87782-.70205z" fill="none" stroke="#000" stroke-width="4"/><path d="m758.92351 500.96759c0 69.79236-50.13429 126.37024-111.97808 126.37024-61.84378 0-111.97807-56.57788-111.97807-126.37024s50.13429-126.37024 111.97807-126.37024c61.84379 0 111.97808 56.57788 111.97808 126.37024z" fill="#03579f" stroke="#000" stroke-linecap="round" stroke-linejoin="round" stroke-width="3" transform="matrix(1.139853 0 0 1.0433697 -496.77821 -126.1896)"/><path d="m231.03724 340.26347h21.75017" fill="none" stroke="#000" stroke-width="2"/><g transform="matrix(.96906208 0 0 .9410395 124.61063 273.67133)"><path d="m218.79922 161.85828-19.31103-7.05118-2.26771 6.44882-4.85434 10.80709-4.00393 6.41338-9.1063 11.69292-8.6811 7.97244-8.39764 6.05905-7.65355 4.14567-10.13385 3.89764-14.0315 3.15354-12.68504.49607-13.1811-1.70079-13.429137-3.9685-14.88189-7.97245-12.366142-10.13386-12.11811-14.74015-5.669291-10.70079-5.740158-15.66142-2.480315-16.61811-.141732-12.54331 3.543307-21.25984 2.905512-7.547249 7.086614-14.314962 11.870079-14.917324 7.547244-6.80315 16.015748-9.992126 5.811024-2.409449 17.043307-4.712599 10.55906-.673229 22.35826 3.082678 10.1693 3.968504 19.77165 12.366143 5.56299 5.137795 11.90551 15.165356 7.86614 16.157481 4.7126 17.503941.99213 11.72835-.14173 9.07086-1.27559 11.05512-2.48032 10.38189 19.31103 7.01575 3.89763-17.82284.49607-6.48425 14.13779-.4252.17717-17.92913-14.38583-.4252-4.21654-23.562991 12.86221-6.732284-6.80315-16.334647-12.9685 5.562992-12.96851-20.622048 10.09843-11.303151-11.94095-12.188977-10.20472 10.913386-19.77166-14.385827 5.38583-14.492128-14.49213-6.2007874-5.70472 14.3149614-13.46457-3.897638-10.38189-1.240157-.0709-16.5118127-16.15748.070866v16.5118127l-8.07874.425197-15.838547 4.535433-5.633858-14.4566939-14.917323 6.2007879 5.385826 14.917324-8.397637 4.535433-11.196851 9.850395-10.629921-10.842521-11.692914 12.118111 10.948819 10.700789-7.26378 9.425197-6.129921 12.118111-13.889764-6.059055-5.9881889 15.980316 13.3937009 6.165355-3.614173 15.909451-1.027559 8.50394-15.1299217.42519.496063 17.68111 14.0669297-.17717 2.444882 14.63386 2.515748 10.02756-13.216536 6.66142 6.059055 15.90945 13.712599-5.81103 7.511811 13.57087 5.633858 7.40551-9.92126 11.09056 11.090552 12.29527 10.27559-10.84252 10.877953 8.14961 9.318898 5.88189-5.704725 14.66929 15.236221 6.55512 5.137795-14.1378 11.444882 3.36615 12.543307 1.77165.24803 15.30709 15.48425-.14173.4252-15.09449 13.64173-2.33859 10.45276-3.47244 5.70472 14.84646 14.17323-6.73228-5.24409-13.99607 11.44488-7.22835 8.6811-7.40551 10.45276 11.01969 11.44488-12.29528-10.34646-11.26772 7.65355-9.60236 5.38582-11.19685 13.7126 5.45669 5.91733-15.41338-.28347-.92126z" fill="#fff" stroke="#fff" stroke-width=".177165"/><path d="m202.67717 127.55906c0 48.33072-36.81496 87.5197-82.27559 87.5197-45.425201 0-82.240162-39.18898-82.240162-87.5197 0-48.330708 36.814961-87.519687 82.240162-87.519687 45.46063 0 82.27559 39.188979 82.27559 87.519687z" fill="none" stroke="#000" stroke-linecap="round" stroke-linejoin="round" stroke-width="2.976378"/><path d="m88.937009 22.570868c7.830709-3.011811 15.271651-4.570867 22.393701-4.677166v-15.8740168h17.8937l.0354 15.9094498c7.68898.318898 15.34252 2.055118 22.32284 4.783465l5.66929-14.6692923 16.61811 7.3346463-5.81102 14.562993c6.76771 3.366142 12.72047 8.043308 18.74409 13.322836l10.70079-11.090552 12.75591 13.6063-10.31103 11.196851c4.9252 5.846457 9.03543 12.224411 12.40158 19.629923l13.67716-5.669292 6.87402 17.787403-13.5 6.023623c2.48031 7.724411 4.00393 15.271651 4.42913 23.492131l14.59843.0354-.0354 19.45276-14.52756.0709c-.24803 8.53937-2.01968 15.44882-4.46456 23.49213l13.53543 5.91732-6.87401 17.75197-13.64174-5.91732c-3.50787 7.83071-7.29921 14.31496-12.61417 20.09055l10.45276 11.12599-12.72048 13.5-10.34645-11.16142c-5.52756 5.56299-11.65748 10.38189-19.13386 13.53544l5.70472 14.49212-16.47638 7.26378-5.63385-14.63386c-7.15749 2.48032-14.563 4.9252-22.32284 5.0315l-.24803 15.76772-17.75197.14173-.0354-15.80315c-7.58268-.35433-15.625987-2.01969-22.46457-4.9252l-5.527559 14.4567-16.547245-7.26378 5.669292-14.6693c-6.767757-3.68505-13.03941-8.18505-18.956733-13.46457l-10.452756 11.19685-12.720473-13.5 10.452756-11.12599c-5.102362-6.27165-9.283465-12.64961-12.649606-20.01969l-13.6063 5.98819-6.8740157-17.82283 13.5000007-6.05906c-2.338583-7.90157-3.862205-15.41339-4.535434-23.77559l-14.598425-.0354v-19.2756l14.704725-.24803c.992126-8.18504 1.913385-15.69685 4.5-23.173227l-13.6062997-5.952787 6.9803147-17.716537 13.6063 6.023623c3.968504-7.476379 7.511811-14.811025 12.57874-20.267718l-10.417323-10.913387 12.755906-13.641733 10.417323 11.196851c6.059055-5.492126 12.082677-10.94882 18.850394-13.535434l-5.633859-14.598426 16.653544-7.2637804z" fill="none" stroke="#000" stroke-width="3.968504"/><path d="m147.68504 206.75198.14173 3.04725 13.74804-6.55512 16.79527-13.14567 11.30315-15.73229 6.55512-12.9685 5.17323-19.70079.92126-20.44488-2.90551-17.85827-5.63386-14.988191-7.01575-12.649608-5.95276-7.015748-14.66929-13.748033-16.33464-9.000001-19.063-5.350394-12.40157-.318897-6.09449.318897-18.318898 4.251969-17.07874 8.858269-12.366142 10.240158-9.956693 12.047245-9 16.051182-4.429134 15.555122-1.807087 9.03543-.318898 17.53937 2.125985 14.6693 5.669291 15.09448 9 15.87402 7.157481 9.03544 7.334645 6.83858 11.444882 8.5748 7.937008 3.79134 3.826772 1.55906-.141732-61.68898 1.523622-.60237-.141732-9.49606 4.712598-.28347.177165-40.145668h6.094487l.14173-7.051181 3.36615-.602363.14173-31.889766 4.6063-.92126-.17717-13.429135h14.52756l-.17716 13.429135 4.42913.46063.46063 32.952759 4.11024.177165v6.555119l5.06693.46063.14173 36.637795.14173 3.22441 4.42913.7441.3189 7.01575 1.06299 2.44488.14174 3.9685z" fill="#03579f" stroke="#0f0" stroke-width=".283465"/><path d="m94.074804 157.11025 53.610236-.46063-.3189 52.83071-18.17716 4.74803-14.0315.14174-11.90551-1.98426-7.476378-1.98425-2.161418-1.20472z" fill="#e3b3bb" stroke="#0f0" stroke-width=".992126"/><path d="m202.9252 127.3819c0 48.33071-36.85039 87.51969-82.27559 87.51969s-82.275594-39.18898-82.275594-87.51969c0-48.330713 36.850394-87.519692 82.275594-87.519692s82.27559 39.188979 82.27559 87.519692z" fill="none" stroke="#000" stroke-linecap="round" stroke-linejoin="round" stroke-width="3.472441"/><path d="m93.862206 147.33072 53.433074-.0354.14173 8.4685-53.397639.14173z" fill="#e3b3bb" stroke="#0f0" stroke-width=".283465"/><path d="m95.385828 138.40159h50.173232l.24803 7.75984-.1063.38976-50.314962.49607z" fill="#e3b3bb" stroke="#0f0" stroke-width=".283465"/><path d="m93.968505 156.40159h53.043305" fill="none" stroke="#000" stroke-width="2.976378"/><path d="m99.850395 98.114181 41.279525-.496063.24803 39.543312-40.78346.49606z" fill="#e3b3bb" stroke="#0f0" stroke-width=".283465"/><path d="m95.031497 146.83466-.106299-8.82284 51.448822-.1063.1063 8.61024" fill="none" stroke="#000" stroke-width="2.976378"/><path d="m106.26378 90.921267 29.79921-.248032.24804 6.200788-30.15355.602362z" fill="#e3b3bb" stroke="#0f0" stroke-width=".389764"/><path d="m99.956694 137.12599.106296-39.36614 41.6693-.141732.17716 39.507872" fill="none" stroke="#000" stroke-width="2.976378"/><path d="m114.66142 98.362212.14173 38.799218" fill="none" stroke="#000" stroke-width="2.976378"/><path d="m129.36614 98.114181v38.905519" fill="none" stroke="#000" stroke-width="2.976378"/><path d="m114.66142 43.972444 12.50787-.141732.35433 13.25197 4.21654.744094v31.110239l-22.14567.885826.49606-31.748033 4.07481-.744095z" fill="#e3b3bb" stroke="#0f0" stroke-width=".283465"/><g fill="none" stroke="#000"><path d="m106.01575 97.122055.14173-6.696851 30.40158-.1063v6.307088" stroke-width="2.976378"/><path d="m109.48819 89.57481.24803-32.137798h22.6063v31.748034" stroke-width="2.976378"/><path d="m109.98425 72.779533h21.75591" stroke-width="1.984252"/><path d="m114.05906 56.586618v-13.003938h13.96063v12.862206" stroke-width="2.976378"/><path d="m140.3504 156.93308-.1063 55.66536" stroke-width="2.976378"/><path d="m132.37795 156.72048-.10629 56.94095" stroke-width="2.976378"/><path d="m117.8504 213.87403-.1063-31.00394 7.40551-.1063.14173 31.21654" stroke-width="2.976378"/><path d="m110.40945 156.93308v56.83465" stroke-width="2.976378"/><path d="m102.15354 156.82678v55.77166" stroke-width="2.976378"/><path d="m93.543308 208.98427v-61.44095l54.283462-.35433-.1063 62.85827" stroke-width="2.976378"/></g></g><g stroke="#000"><path d="m59.61076 403.05216 55.88915-33.25636" fill="none" stroke-width="3"/><path d="m111.80476 569.44938 83.71824-49.88452" fill="none" stroke-width="3"/><path d="m366.97224 417.4091 59.65271-34.51604" fill="none" stroke-width="3"/><path d="m280.24798 270.89069 146.66666-87.95699" fill="none" stroke-width="3"/><path d="m644.33969 761.24512c0 8.01636-5.9309 14.51491-13.24704 14.51491s-13.24704-6.49855-13.24704-14.51491c0-8.01637 5.9309-14.51492 13.24704-14.51492s13.24704 6.49855 13.24704 14.51492z" fill="#f00" stroke-linecap="round" stroke-linejoin="round" stroke-width="1.42129" transform="matrix(1.1146755 0 0 .99923694 -463.79366 -102.82501)"/><path d="m252.26109 650.05712c8.77691-13.70975 16.51542-14.99334 23.69604-15.47674-4.59477 6.13497-9.78921 23.89879-21.68492 27.28104.55658-4.23688.0174-8.16681-2.01112-11.8043z" fill="#02942b" stroke-width="1.5"/><path d="m253.91702 661.71729 10.97799.17854c7.36618 4.04102 13.28371 9.53069 18.79383 15.42777-15.94059 1.37966-22.77696.4175-32.36865-10.59122 1.25224-1.64996 2.03498-3.22352 2.59683-5.01509z" fill="#02942b" stroke-width="1.5"/><path d="m292.66028 650.84141-13.93064-2.65728-11.35387 2.17414c-2.30019 4.48863-5.59426 8.23184-10.46811 10.79021l7.89134.64419c10.36719-1.43337 21.40069-1.49907 27.86128-10.95126z" fill="#02942b" stroke-width="1.5"/><path d="m286.70151 632.88458c-4.21408 1.16526-8.83079 2.68292-13.04487 5.55615l-6.0393 11.59545c3.77513-1.01831 7.38956-1.55456 10.95126-1.93258 7.09695-2.14902 7.24249-8.93231 8.13291-15.21902z" fill="#02942b" stroke-width="1.5"/><path d="m268.32769 662.59791c4.67558-.73598 9.34812-.96052 13.94501-2.49625 5.84132 3.68396 12.11818 8.20253 17.55421 14.97746-5.09985 1.57654-10.19969 2.04587-15.29954 1.04681z" fill="#02942b" stroke-width="1.5"/><path d="m281.6567 647.93794 12.37249-2.33058c7.86671-.96408 7.75303-9.90855 9.82392-16.66845-9.03968 2.06776-16.74123 9.10796-22.19641 18.99903z" fill="#02942b" stroke-width="1.5"/><path d="m292.45825 646.45819c5.80247-1.35568 11.60494-1.23691 17.40741.37038-8.13804 7.65236-10.41541 12.27849-20.74074 9.07407l4.07407-5.18519-7.4074-2.22222z" fill="#02942b" stroke-width="1.5"/><path d="m452.90614 325.77775c-2.86932-12.22939.24801-20.28883 4.90957-26.3566 6.69543 7.30711 7.49365 16.38242 5.68475 25.8398z" fill="#02942b" stroke-width="1.5"/><path d="m452.90614 342.05682c.89837-7.99618-.17604-17.4015 5.16796-22.22223 6.12594 3.94648 7.39429 12.42129 6.71835 22.48062z" fill="#02942b" stroke-width="1.5"/><path d="m464.53405 327.0869c5.42636-8.10735 10.85271-9.40322 16.27907-13.71225 1.91591 14.78997-7.66745 20.77934-15.3278 29.04005z" fill="#02942b" stroke-width="1.5"/><path d="m452.5958 341.23452c-6.0613-6.98032-15.92751-9.96549-13.62862-25.72402 6.94451 2.43348 11.06913 7.38423 14.48041 11.58433z" fill="#02942b" stroke-width="1.5"/><path d="m452.76616 360.31459c.49433-7.69285-.22023-16.29237 5.45145-20.10222 5.16212 2.64864 5.08629 10.93957 5.79216 20.27258z" fill="#02942b" stroke-width="1.5"/><path d="m463.66905 346.51561 1.36287 14.1397c3.52348-3.35295 15.69419-7.59679 16.35434-27.4276-5.41813 3.5402-10.57702 4.15099-17.71721 13.2879z" fill="#02942b" stroke-width="1.5"/><path d="m453.61795 344.64167c-3.0282-5.26254-8.23013-7.49957-13.96934-10.0511-2.43612 12.27658 5.72311 19.50775 12.43612 27.4276z" fill="#02942b" stroke-width="1.5"/><path d="m452.25509 379.05394c.89294-7.75399.46011-16.70117 5.6218-20.61329 4.23479 1.88766 6.20871 9.71007 6.81431 21.12436z" fill="#02942b" stroke-width="1.5"/><path d="m463.83941 366.61783c3.90606-7.05606 10.87294-10.43914 16.86542-14.99149 1.59354 12.1893-5.98068 20.1767-15.16184 27.4276z" fill="#02942b" stroke-width="1.5"/><path d="m453.44759 364.06246c-4.20439-4.6531-9.21074-8.10326-14.31005-11.41397-.94824 13.23578 5.30202 20.24566 12.43612 26.74617z" fill="#02942b" stroke-width="1.5"/><path d="m452.89705 342.17124 2.73705.1955-1.27077 2.05279z"/><path d="m461.3037 342.66 4.00782-.39101.1955 1.85728-2.44379 2.93255-1.56403-3.91006z"/><path d="m452.40829 360.25531 3.42131.1955-1.85728 3.12805-1.17302-1.27077z"/><path d="m460.52168 360.54856 3.61682-.0977 1.75953-.29326 4.78983-3.2258 3.0303-2.6393.58651 1.46628-6.64711 5.27859-3.32356 4.49658-.78201.58651z"/><path d="m452.35243 394.60256h12.58504c-.88619-6.87577-.9436-14.68392-5.27211-17.68707-5.806 2.52733-7.37521 9.29146-7.31293 17.68707z" fill="#02942b" stroke-width="1.5"/><path d="m453.71298 382.01753c-4.4509-4.26391-8.49433-9.5465-13.77551-11.73469-.0251 11.4754 2.16993 21.08114 10.71428 25.34013z" fill="#02942b" stroke-linecap="round" stroke-width="1.5"/><path d="m465.78781 394.4325c11.60229-6.27996 17.30381-14.52685 15.30612-25.34014-5.2496 2.90364-10.62549 6.69138-16.32653 12.7551z" fill="#02942b" stroke-width="1.5"/><path d="m452.18236 415.01073 12.92517.34013c-1.32854-8.73747-1.65249-19.48413-5.95238-22.27891-6.90396 5.19922-5.4013 14.27842-6.97279 21.93878z" fill="#02942b" stroke-width="1.5"/><path d="m453.71298 400.04474c-3.50783-5.54818-9.05164-7.70304-13.77551-11.22449-1.52636 14.27229 4.0556 21.06213 11.05442 26.36054z" fill="#02942b" stroke-width="1.5"/><path d="m463.91706 401.57535c4.76087-6.23687 11.18072-10.81475 18.19728-14.79592-.43282 19.77225-9.37229 21.31593-15.64626 28.57143z" fill="#02942b" stroke-width="1.5"/><path d="m452.36856 379.54717 2.89209.25518-1.27592 1.53111z"/><path d="m462.66099 379.63223 3.14727.34024-1.70123 2.89209z"/><path d="m461.64025 395.1134 4.08295-.25518 4.8485-2.72197 2.38172-1.70123-.51037 2.29666-4.59331 4.08295-3.91283 3.99788-.17012.0851z"/><path d="m451.09264 394.60303 5.44393.34025-2.46678 4.50825-2.80702-3.40245z"/><path d="m459.02507 413.80639c-6.36437 7.22431-7.14389 15.14672-6.89655 23.19749l11.59874-1.25392c.30917-9.19109-.84044-16.9234-4.70219-21.94357z" fill="#02942b" stroke-width="1.5"/><path d="m480.34168 407.85028c-6.92111 4.32419-13.95105 8.59396-15.98746 15.3605l.62696 12.85266c7.19192-7.65136 18.27147-12.0132 15.3605-28.21316z" fill="#02942b" stroke-width="1.5"/><path d="m453.69592 420.70294c-2.69387-6.50919-8.80215-8.46583-13.79311-11.91222-.009 8.0263-.85708 16.16443 11.28527 22.57053z" fill="#02942b" stroke-width="1.5"/><path d="m450.56112 456.7531c-1.07727-8.15883-.0853-16.06215 6.89655-23.19749 2.78727 4.11865 4.89041 11.85219 3.1348 19.12225z" fill="#02942b" stroke-width="1.5"/><path d="m449.3072 469.91924c-.70027-5.11174 3.28058-12.09593 6.58307-18.80878 3.24988 4.81428 4.47921 13.16452 4.38872 23.82446z" fill="#02942b" stroke-width="1.5"/><path d="m443.97805 485.59322c2.49356-8.9533 6.14956-12.09442 9.40439-17.24138 2.61274 8.02849 2.40108 16.52772 0 25.39185l-2.82132 2.82132z" fill="#02942b" stroke-width="1.5"/><path d="m445.85893 507.85028c2.77547-4.89332 3.38261-11.41288 2.82131-18.80878-4.47293-.71739-8.26708 6.03178-11.91222 14.42006z" fill="#02942b" stroke-width="1.5"/><path d="m462.78683 453.30482-.31348-9.71787c4.40109-10.30437 11.70724-12.72928 18.49529-16.61442-2.7672 8.62786 2.13583 19.62645-18.18181 26.33229z" fill="#02942b" stroke-width="1.5"/><path d="m449.3072 448.91611 2.50784-8.77743c-2.34873-7.64938-7.84425-10.05409-12.53919-13.79311 1.5391 6.53021-5.79364 10.65405 10.03135 22.57054z" fill="#02942b" stroke-width="1.5"/><path d="m461.5081 474.57363c6.85781-5.1319 14.90289-10.1769 18.52011-25.03056-8.22269 2.00422-15.66747 3.59348-19.74922 11.28526z" fill="#02942b" stroke-width="1.5"/><path d="m446.48589 471.17316 4.07523-13.16614c-2.66867-6.42224-7.73047-10.45135-12.85266-14.42007-.22499 10.7708-.75773 21.69548 8.77743 27.58621z" fill="#02942b" stroke-width="1.5"/><path d="m456.83071 484.02583c6.78035-9.27737 14.34394-13.07204 21.94358-16.61442-.15071 18.81171-13.41618 22.49101-23.82445 29.46708z" fill="#02942b" stroke-width="1.5"/><path d="m446.48589 477.44275c.2134-6.96278-5.88946-8.87255-9.40439-12.85266-1.30669 9.99915.26472 17.47996 5.64263 21.63009z" fill="#02942b" stroke-width="1.5"/><path d="m447.42632 507.5368c5.2228-12.22896 17.16203-14.34994 25.39185-21.31662-1.47875 12.59332-18.70654 31.90984-25.39185 21.31662z" fill="#02942b" stroke-width="1.5"/><path d="m441.47021 491.86282c-.64936-4.17973-4.2803-8.35946-9.09091-12.53919-1.3612 8.52776-3.29053 17.28278 3.44828 22.57053z" fill="#02942b" stroke-width="1.5"/><path d="m450.62611 414.88063 6.76275.44346-3.10421 4.98891z"/><path d="m460.7148 415.32409 5.32151-.11087 4.87805-3.88026 4.54545-4.21286 3.10422-3.7694.44346 4.98891-5.87584 3.88027-4.43459 3.54767-2.66075 3.32594-1.33038 2.99335-.77605 1.99556z"/><path d="m474.5729 427.51921-.22173 2.66076-7.31708 5.76496-4.10199 6.65189-.88692 1.99556-2.10643-6.87361-.55432-1.33038 3.7694-.44346 1.77383-.11086 2.88249-2.10643 3.10421-2.99335 2.54989-1.66297z"/><path d="m441.75693 427.74094 3.32594-.55432 3.65854 2.88248 3.21508 1.77384v4.43459l.22173.77605 2.21729.11086-2.21729 3.10422-1.8847-3.7694-2.88249-4.43459-4.21286-3.10422z"/><path d="m440.53742 440.60125.55432 5.32151 4.87805 4.54545 3.99113 5.65411.66519 2.21729-.77605 3.21508 1.10864-.55433 1.99557-4.76718-2.32816.11087-.77605-5.65411v-1.44124l-3.99113-2.99335-4.21286-3.99113z"/><path d="m461.93431 447.03141.88692 3.7694-.22173 2.77162 3.99113-1.55211 7.09535-3.99113-.77606 3.10421-5.87583 2.54989-3.54767 2.66076-2.54989 3.10421-.88692 1.77383-1.33037-4.87804-.99779-2.32816 3.10422-1.21952.44346-1.77383z"/><path d="m473.46425 464.43717-1.66297 6.31929-6.76275 4.43459-6.54102 6.65189-1.8847 2.66075-1.77384 11.6408-.33259 1.55211-4.21286 4.76718-2.32816 3.10421-.3326-.88692 1.44124-6.31929v-3.54767l1.55211 2.32816 2.66075-3.10421 1.21952-3.10421.88691-7.64967v-7.8714l-.44345-2.43902 3.88026 1.33037 2.2173.99779 4.65632-3.54768 5.3215-4.32372z"/><path d="m442.64385 467.87398 3.32594 3.32594.66519.3326 1.99556-5.9867.3326.55432v3.65854l1.8847 1.10865.55432.44346-4.21286 5.98669h-.33259l-.55432-3.32594-1.99557-3.54767z"/><path d="m437.87666 480.51256-.22172 3.43681 2.88248 4.10199 1.33038 4.32373v.55432l2.21729-2.21729 1.99557-1.33038-1.44125-2.77162-.99778-.99778-.88692.44346-1.21951-.66519-1.55211-1.99557z"/><path d="m432.12903 531.1084c-4.17958-8.85293 1.87102-17.19436 9.27376-25.46818 1.63115 5.22995 3.30421 10.45057-.22026 16.82621-3.407 1.71316-6.21713 5.21693-9.0535 8.64197z" fill="#02942b" stroke-width="1.5"/><path d="m463.90058 506.66541c-7.19371 3.13635-15.13156 4.53639-20.70485 11.45374l-1.98238 5.50661c1.57649.6096 2.69752-.42724 4.84582 4.18502 9.41765-5.16972 18.67633-9.85066 17.84141-21.14537z" fill="#02942b" stroke-width="1.5"/><path d="m434.82569 511.29096-9.47137-14.09692c-2.16596 8.32903-5.19372 20.97767 4.18502 26.65199 1.25831-5.68629 3.47953-9.06283 5.28635-12.55507z" fill="#02942b" stroke-width="1.5"/><path d="m441.87414 544.77113c11.73722-2.62853 16.78272-10.69407 19.163-20.92511-4.57697-2.066-10.11956 1.1789-15.85903 5.50661-.69264 6.77424-2.04983 10.89026-3.30397 15.4185z" fill="#02942b" stroke-width="1.5"/><path d="m434.16489 551.1588c7.46993-1.96096 8.79113-12.80341 11.23348-22.02643.0339-3.28702-2.18373-4.77284-5.06608-5.72688-4.92257 4.37859-9.55626 8.94976-11.01321 15.63877z" fill="#02942b" stroke-width="1.5"/><path d="m428.87855 540.14558-5.50661 1.10132c-9.84576-13.07847-5.6839-20.15448-3.74449-27.53304 4.51676 4.97818 9.48324 9.20684 12.3348 16.96036z" fill="#02942b" stroke-width="1.5"/><path d="m432.29041 498.30552-1.08549 6.91995 4.47762 6.64857 4.88466-5.56309-2.98507-2.30665z"/><path d="m443.82365 516.48734 7.05563-5.42741-4.20624-2.57802-3.79919-1.49253z"/><path d="m430.16168 541.18433c-7.05929 3.06821-9.71997 11.26811-13.75648 17.86289 5.1-1.29197 10.51605-1.30257 11.90859 1.64256 3.2783-1.96078 1.48979-13.16437 1.84789-19.50545z" fill="#02942b" stroke-width="1.5"/><path d="m424.00206 544.46946c-3.4907-5.67929-6.6914-12.80855-10.67667-16.015-5.77395 16.56481-.59401 21.53139 2.46384 28.74488z" fill="#02942b" stroke-width="1.5"/><path d="m429.54571 560.27915 4.9277-8.82879c7.73374-6.61855 15.46748-8.9493 23.20122-12.52455-4.57266 11.92143-8.64341 24.34476-28.12892 21.35334z" fill="#02942b" stroke-width="1.5"/><path d="m419.485 581.01653c13.1786-3.43788 25.62377-7.57428 27.51296-21.76399-19.54837 3.20587-20.89581 6.51183-27.51296 21.76399z" fill="#02942b" stroke-width="1.5"/><path d="m417.63712 580.40056c5.09409-7.29492 6.63511-15.92225 7.39154-24.84379-5.7263 4.03777-11.40434 8.14793-14.9884 15.39905 3.74678 4.76758 5.37669 6.71265 7.59686 9.44474z" fill="#02942b" stroke-width="1.5"/><path d="m411.27218 567.46537-5.13301.41064c-1.74894-5.21218-3.02149-10.80546.61596-20.32674 4.9749 2.45617 6.17238 7.83756 9.03411 12.9352z" fill="#02942b" stroke-width="1.5"/><path d="m408.60301 592.51448c4.7556-5.11403 7.49497-11.38019 8.41815-18.68417-6.15053 1.49418-12.21545 3.2024-16.22033 10.0607z" fill="#02942b" stroke-width="1.5"/><path d="m406.34449 576.91011c1.13949-5.49003-1.49884-9.72079-3.49045-14.16712-5.08648 1.46475-12.37572 14.40033-3.07981 21.14802z" fill="#02942b" stroke-width="1.5"/><path d="m408.60301 595.18365c15.70008 2.74686 22.50014-5.1185 29.56617-14.78309-8.24933-.1916-15.2797-.91063-22.99591 3.69578z" fill="#02942b" stroke-width="1.5"/><path d="m423.28908 541.61651 5.93449-1.20887-.98908 1.42867-3.40684 2.63755z"/><path d="m430.76214 556.78242 3.29694-5.49489-2.96725-6.81367z"/><path d="m415.48633 559.09028 4.28602-.43959-3.62663 3.51673z"/><path d="m434.82836 561.17834-5.2751-.65939-.87918.1099-2.63755-1.42867-.76929-.1099-2.74744 13.29764 1.42867-1.97816 3.29694-4.50581 3.84642-2.52766z"/><path d="m406.36481 567.99201 4.61571-.2198.1099.87918-1.42867 2.41776 3.07714 3.84642-5.82459 2.41776.1099-4.06623-.76929-2.96724-.54949-1.53857z"/><path d="m416.25562 579.09169 1.53857 1.97816 2.19796-3.29693-1.20888 4.39591-3.62663 1.75837-.1099-.76929z"/><path d="m391.69163 596.3522c4.98075-6.56898 9.60175-8.46115 14.14309-9.31781-.49378 7.89912-4.23807 13.22836-8.31946 18.30283z" fill="#02942b" stroke-width="1.5"/><path d="m424.9695 596.01942c-6.72836.73485-13.50037 1.6443-19.80033.66556-3.43871 5.08173-6.87743 10.99285-10.31614 13.14476 14.13827-.18865 27.3233-1.40387 30.11647-13.81032z" fill="#02942b" stroke-width="1.5"/><path d="m387.36551 596.18581 4.15973-.33278 3.49418-3.66057c.8952-6.00875-.34398-10.68351-2.99501-14.47587-6.56548 4.30969-6.45209 11.08002-4.6589 18.46922z" fill="#02942b" stroke-width="1.5"/><path d="m382.7066 618.64837 10.9817-7.15474 23.12812-1.66389c-10.87629 14.04675-22.34863 14.68223-34.10982 8.81863z" fill="#02942b" stroke-width="1.5"/><path d="m379.54521 606.50195c5.37992-4.0547 10.75984-6.29434 16.13976-8.15308-.2153 8.64846-5.37764 13.17439-10.8153 17.47088z" fill="#02942b" stroke-width="1.5"/><path d="m379.04604 606.16917 5.82363-3.49418c2.55808-5.82486-1.38942-10.46689-3.32779-15.47421-5.18151 6.56908-7.5164 12.62059-7.8203 18.30283 1.02653.97014 1.55703 2.43632 5.32446.66556z" fill="#02942b" stroke-width="1.5"/><path d="m368.56351 629.46368 11.98003-9.81698c6.98355 2.52641 14.58191 3.48766 21.29784 3.99335-7.1288 9.63568-18.61024 10.82214-33.27787 5.82363z" fill="#02942b" stroke-width="1.5"/><path d="m370.89296 625.80311c4.66178-3.33287 9.43738-6.13454 12.81198-15.47421-7.49079-.78464-13.0138 3.35015-18.802 6.82197 2.71688 2.52398 5.82753 4.85107 5.99002 8.65224z" fill="#02942b" stroke-width="1.5"/><path d="m363.31609 617.44513 9.24076-5.45233.83195-15.47421c-4.98983 3.11621-14.52788 8.36242-10.07271 20.92654z" fill="#02942b" stroke-width="1.5"/><path d="m353.0893 625.47034c5.60177-3.62631 11.20355-5.84973 16.80532-5.49085-.79529 7.1176-6.45371 11.80365-12.4792 16.30615-.48003-4.56711-1.63545-8.45883-4.32612-10.8153z" fill="#02942b" stroke-width="1.5"/><path d="m357.08264 636.78481 5.65724-4.32612c6.10285-2.66027 15.49746 1.9644 23.4609 1.16472-2.76007 7.83489-10.38101 12.16544-32.11314 6.3228z" fill="#02942b" stroke-width="1.5"/><path d="m348.09762 626.80145c4.91657-3.82347 8.72693-4.32832 12.81198-5.65724.94512-11.22696-.67701-11.54313-1.33112-15.97338-6.71344 6.72913-12.63239 13.59067-11.48086 21.63062z" fill="#02942b" stroke-width="1.5"/><path d="m405.97381 590.08461 3.27769 3.68741-1.33157 1.94612 3.17527.717-6.45296.30728-.61456.61457z"/><path d="m395.21889 577.486-1.43399 1.74127 1.74127 6.14567-.10243 6.45295 3.99469-3.07284 4.19954-1.33156-2.76555-3.38011-.61457-.10243-.71699-.20486-2.04856-1.63884-1.22913-1.8437z"/><path d="m382.92755 588.65063 3.07284-.40972 1.1267 8.29666 4.4044-.30729 1.53641 2.76555-7.27237 3.48255.40971-4.19954-1.1267-4.4044-2.04856-4.50682z"/><path d="m395.42374 602.78566 2.66313 3.89226-3.89226 3.38011 2.25341.51214-3.17526 1.02428-5.83838 3.58497-.20486-.61456 4.4044-4.30197 2.25341-3.99468z"/><path d="m382.92755 613.02844 2.35584 3.89226-2.9704 1.8437 2.76555 1.8437-4.4044-1.12671-2.04855 1.02428 2.04855-2.97041z"/><path d="m373.29934 605.75607 6.14567.61456 1.63884 3.58498-4.19954.61456-3.17526 1.33156-.51214.40972z"/><path d="m360.59829 609.03376 1.281 3.02078.717 5.224 1.89426.25672.92185.20486 2.04856 2.04855-4.50683.61457-1.8437.61457.51214-5.5311-.51214-4.71168z"/><path d="m369.8168 622.55423 1.02427 4.8141-2.9704 2.45827 4.71168 1.22913-.81943.717-4.30196-.30729-2.76555.10243-.81943.30728 3.38012-4.19954 1.94613-3.27768z"/><path d="m326.87718 643.56577c7.85198-14.72917 16.52629-16.88677 29.78855-14.89428-9.68378 13.87102-19.69925 15.09066-29.78855 14.89428z" fill="#02942b" stroke-width="1.5"/><path d="m333.7869 633.27797c1.06219-7.0538 8.41729-17.04183 13.97297-19.19365-.72858 5.33506-1.93288 10.22454-.61419 13.51233-3.73767.58665-8.44145 1.41317-13.35878 5.68132z" fill="#02942b" stroke-width="1.5"/><path d="m341.00371 642.64448c10.85081-5.41243 20.47323 2.05137 32.09178 1.07484-10.77493 9.89584-29.10694 12.5075-32.09178-1.07484z" fill="#02942b" stroke-width="1.5"/><path d="m318.58553 648.01869c13.31856-7.62577 24.26189 2.02406 33.16663 6.44907-15.37043 6.86123-23.39068 6.05698-33.16663-6.44907z" fill="#02942b" stroke-width="1.5"/><path d="m316.89649 646.4832c6.47663-.4199 13.8062-6.35702 19.19365-26.71756-14.71603 2.52013-17.86316 14.27473-19.19365 26.71756z" fill="#02942b" stroke-width="1.5"/><path d="m322.01897 645.32207 5.38288-4.81626.28331 1.51098-1.41655 1.7943 5.19401.18887 5.76063-.56662 3.39971-.94437.94437 2.92754 1.41655 2.45535 1.32211 1.60542-1.41655-.18887-6.23281-2.92754-6.70499-1.41655h-3.68303l-3.58859 1.13324h-.37774z"/><path d="m356.01612 630.11779 1.13324 6.04394-3.8719 4.34408h-.66106l-6.9883.0944 2.36091-1.98316 5.57176-4.9107z"/><path d="m348.36676 627.09582 4.34408-2.8331 2.36091 3.8719-6.42168-.28331z"/><path d="m335.61783 623.31836v3.39971l-1.41655 4.43852-.84993 3.21084-3.02197 3.11641.56662-2.17204 3.21084-7.64936z"/><path d="m29.9582 325.14672c2.86932-12.22939-.24801-20.28883-4.90957-26.3566-6.69543 7.30711-7.49365 16.38242-5.68475 25.8398z" fill="#02942b" stroke-width="1.5"/><path d="m29.9582 341.42579c-.89837-7.99618.17604-17.4015-5.16796-22.22223-6.12594 3.94648-7.39429 12.42129-6.71835 22.48062z" fill="#02942b" stroke-width="1.5"/><path d="m18.33029 326.45587c-5.42636-8.10735-10.85271-9.40322-16.27907-13.71225-1.91591 14.78997 7.66745 20.77934 15.3278 29.04005z" fill="#02942b" stroke-width="1.5"/><path d="m30.26854 340.60349c6.0613-6.98032 15.92751-9.96549 13.62862-25.72402-6.94451 2.43348-11.06913 7.38423-14.48041 11.58433z" fill="#02942b" stroke-width="1.5"/><path d="m30.09818 359.68356c-.49433-7.69285.22023-16.29237-5.45145-20.10222-5.16212 2.64864-5.08629 10.93957-5.79216 20.27258z" fill="#02942b" stroke-width="1.5"/><path d="m19.19529 345.88458-1.36287 14.1397c-3.52348-3.35295-15.69419-7.59679-16.35434-27.4276 5.41813 3.5402 10.57702 4.15099 17.71721 13.2879z" fill="#02942b" stroke-width="1.5"/><path d="m29.24639 344.01064c3.0282-5.26254 8.23013-7.49957 13.96934-10.0511 2.43612 12.27658-5.72311 19.50775-12.43612 27.4276z" fill="#02942b" stroke-width="1.5"/><path d="m30.60925 378.42291c-.89294-7.75399-.46011-16.70117-5.6218-20.61329-4.23479 1.88766-6.20871 9.71007-6.81431 21.12436z" fill="#02942b" stroke-width="1.5"/><path d="m19.02493 365.9868c-3.90606-7.05606-10.87294-10.43914-16.86542-14.99149-1.59354 12.1893 5.98068 20.1767 15.16184 27.4276z" fill="#02942b" stroke-width="1.5"/><path d="m29.41675 363.43143c4.20439-4.6531 9.21074-8.10326 14.31005-11.41397.94824 13.23578-5.30202 20.24566-12.43612 26.74617z" fill="#02942b" stroke-width="1.5"/><path d="m29.96729 341.54021-2.73705.1955 1.27077 2.05279z"/><path d="m21.56064 342.02897-4.00782-.39101-.1955 1.85728 2.44379 2.93255 1.56403-3.91006z"/><path d="m30.45605 359.62428-3.42131.1955 1.85728 3.12805 1.17302-1.27077z"/><path d="m22.34266 359.91753-3.61682-.0977-1.75953-.29326-4.78983-3.2258-3.0303-2.6393-.58651 1.46628 6.64711 5.27859 3.32356 4.49658.78201.58651z"/><path d="m30.51191 393.97153h-12.58504c.88619-6.87577.9436-14.68392 5.27211-17.68707 5.806 2.52733 7.37521 9.29146 7.31293 17.68707z" fill="#02942b" stroke-width="1.5"/><path d="m29.15136 381.3865c4.4509-4.26391 8.49433-9.5465 13.77551-11.73469.0251 11.4754-2.16993 21.08114-10.71428 25.34013z" fill="#02942b" stroke-linecap="round" stroke-width="1.5"/><path d="m17.07653 393.80147c-11.60229-6.27996-17.30381-14.52685-15.30612-25.34014 5.2496 2.90364 10.62549 6.69138 16.32653 12.7551z" fill="#02942b" stroke-width="1.5"/><path d="m30.68198 414.3797-12.92517.34013c1.32854-8.73747 1.65249-19.48413 5.95238-22.27891 6.90396 5.19922 5.4013 14.27842 6.97279 21.93878z" fill="#02942b" stroke-width="1.5"/><path d="m29.15136 399.41371c3.50783-5.54818 9.05164-7.70304 13.77551-11.22449 1.52636 14.27229-4.0556 21.06213-11.05442 26.36054z" fill="#02942b" stroke-width="1.5"/><path d="m18.94728 400.94432c-4.76087-6.23687-11.18072-10.81475-18.19728-14.79592.43282 19.77225 9.37229 21.31593 15.64626 28.57143z" fill="#02942b" stroke-width="1.5"/><path d="m30.49578 378.91614-2.89209.25518 1.27592 1.53111z"/><path d="m20.20335 379.0012-3.14727.34024 1.70123 2.89209z"/><path d="m21.22409 394.48237-4.08295-.25518-4.8485-2.72197-2.38172-1.70123.51037 2.29666 4.59331 4.08295 3.91283 3.99788.17012.0851z"/><path d="m31.7717 393.972-5.44393.34025 2.46678 4.50825 2.80702-3.40245z"/><path d="m23.83927 413.17536c6.36437 7.22431 7.14389 15.14672 6.89655 23.19749l-11.59874-1.25392c-.30917-9.19109.84044-16.9234 4.70219-21.94357z" fill="#02942b" stroke-width="1.5"/><path d="m2.52266 407.21925c6.92111 4.32419 13.95105 8.59396 15.98746 15.3605l-.62696 12.85266c-7.19192-7.65136-18.27147-12.0132-15.3605-28.21316z" fill="#02942b" stroke-width="1.5"/><path d="m29.16842 420.07191c2.69387-6.50919 8.80215-8.46583 13.79311-11.91222.009 8.0263.85708 16.16443-11.28527 22.57053z" fill="#02942b" stroke-width="1.5"/><path d="m32.30322 456.12207c1.07727-8.15883.0853-16.06215-6.89655-23.19749-2.78727 4.11865-4.89041 11.85219-3.1348 19.12225z" fill="#02942b" stroke-width="1.5"/><path d="m33.55714 469.28821c.70027-5.11174-3.28058-12.09593-6.58307-18.80878-3.24988 4.81428-4.47921 13.16452-4.38872 23.82446z" fill="#02942b" stroke-width="1.5"/><path d="m38.88629 484.96219c-2.49356-8.9533-6.14956-12.09442-9.40439-17.24138-2.61274 8.02849-2.40108 16.52772 0 25.39185l2.82132 2.82132z" fill="#02942b" stroke-width="1.5"/><path d="m37.00541 507.21925c-2.77547-4.89332-3.38261-11.41288-2.82131-18.80878 4.47293-.71739 8.26708 6.03178 11.91222 14.42006z" fill="#02942b" stroke-width="1.5"/><path d="m20.07751 452.67379.31348-9.71787c-4.40109-10.30437-11.70724-12.72928-18.49529-16.61442 2.7672 8.62786-2.13583 19.62645 18.18181 26.33229z" fill="#02942b" stroke-width="1.5"/><path d="m33.55714 448.28508-2.50784-8.77743c2.34873-7.64938 7.84425-10.05409 12.53919-13.79311-1.5391 6.53021 5.79364 10.65405-10.03135 22.57054z" fill="#02942b" stroke-width="1.5"/><path d="m21.35624 473.9426c-6.85781-5.1319-14.90289-10.1769-18.52011-25.03056 8.22269 2.00422 15.66747 3.59348 19.74922 11.28526z" fill="#02942b" stroke-width="1.5"/><path d="m36.37845 470.54213-4.07523-13.16614c2.66867-6.42224 7.73047-10.45135 12.85266-14.42007.22499 10.7708.75773 21.69548-8.77743 27.58621z" fill="#02942b" stroke-width="1.5"/><path d="m26.03363 483.3948c-6.78035-9.27737-14.34394-13.07204-21.94358-16.61442.15071 18.81171 13.41618 22.49101 23.82445 29.46708z" fill="#02942b" stroke-width="1.5"/><path d="m36.37845 476.81172c-.2134-6.96278 5.88946-8.87255 9.40439-12.85266 1.30669 9.99915-.26472 17.47996-5.64263 21.63009z" fill="#02942b" stroke-width="1.5"/><path d="m35.43802 506.90577c-5.2228-12.22896-17.16203-14.34994-25.39185-21.31662 1.47875 12.59332 18.70654 31.90984 25.39185 21.31662z" fill="#02942b" stroke-width="1.5"/><path d="m41.39413 491.23179c.64936-4.17973 4.2803-8.35946 9.09091-12.53919 1.3612 8.52776 3.29053 17.28278-3.44828 22.57053z" fill="#02942b" stroke-width="1.5"/><path d="m32.23823 414.2496-6.76275.44346 3.10421 4.98891z"/><path d="m22.14954 414.69306-5.32151-.11087-4.87805-3.88026-4.54545-4.21286-3.10422-3.7694-.44346 4.98891 5.87584 3.88027 4.43459 3.54767 2.66075 3.32594 1.33038 2.99335.77605 1.99556z"/><path d="m8.29144 426.88818.22173 2.66076 7.31708 5.76496 4.10199 6.65189.88692 1.99556 2.10643-6.87361.55432-1.33038-3.7694-.44346-1.77383-.11086-2.88249-2.10643-3.10421-2.99335-2.54989-1.66297z"/><path d="m41.10741 427.10991-3.32594-.55432-3.65854 2.88248-3.21508 1.77384v4.43459l-.22173.77605-2.21729.11086 2.21729 3.10422 1.8847-3.7694 2.88249-4.43459 4.21286-3.10422z"/><path d="m42.32692 439.97022-.55432 5.32151-4.87805 4.54545-3.99113 5.65411-.66519 2.21729.77605 3.21508-1.10864-.55433-1.99557-4.76718 2.32816.11087.77605-5.65411v-1.44124l3.99113-2.99335 4.21286-3.99113z"/><path d="m20.93003 446.40038-.88692 3.7694.22173 2.77162-3.99113-1.55211-7.09535-3.99113.77606 3.10421 5.87583 2.54989 3.54767 2.66076 2.54989 3.10421.88692 1.77383 1.33037-4.87804.99779-2.32816-3.10422-1.21952-.44346-1.77383z"/><path d="m9.40009 463.80614 1.66297 6.31929 6.76275 4.43459 6.54102 6.65189 1.8847 2.66075 1.77384 11.6408.33259 1.55211 4.21286 4.76718 2.32816 3.10421.3326-.88692-1.44124-6.31929v-3.54767l-1.55211 2.32816-2.66075-3.10421-1.21952-3.10421-.88691-7.64967v-7.8714l.44345-2.43902-3.88026 1.33037-2.2173.99779-4.65632-3.54768-5.3215-4.32372z"/><path d="m40.22049 467.24295-3.32594 3.32594-.66519.3326-1.99556-5.9867-.3326.55432v3.65854l-1.8847 1.10865-.55432.44346 4.21286 5.98669h.33259l.55432-3.32594 1.99557-3.54767z"/><path d="m44.98768 479.88153.22172 3.43681-2.88248 4.10199-1.33038 4.32373v.55432l-2.21729-2.21729-1.99557-1.33038 1.44125-2.77162.99778-.99778.88692.44346 1.21951-.66519 1.55211-1.99557z"/><path d="m50.73531 530.47737c4.17958-8.85293-1.87102-17.19436-9.27376-25.46818-1.63115 5.22995-3.30421 10.45057.22026 16.82621 3.407 1.71316 6.21713 5.21693 9.0535 8.64197z" fill="#02942b" stroke-width="1.5"/><path d="m18.96376 506.03438c7.19371 3.13635 15.13156 4.53639 20.70485 11.45374l1.98238 5.50661c-1.57649.6096-2.69752-.42724-4.84582 4.18502-9.41765-5.16972-18.67633-9.85066-17.84141-21.14537z" fill="#02942b" stroke-width="1.5"/><path d="m48.03865 510.65993 9.47137-14.09692c2.16596 8.32903 5.19372 20.97767-4.18502 26.65199-1.25831-5.68629-3.47953-9.06283-5.28635-12.55507z" fill="#02942b" stroke-width="1.5"/><path d="m40.9902 544.1401c-11.73722-2.62853-16.78272-10.69407-19.163-20.92511 4.57697-2.066 10.11956 1.1789 15.85903 5.50661.69264 6.77424 2.04983 10.89026 3.30397 15.4185z" fill="#02942b" stroke-width="1.5"/><path d="m48.69945 550.52777c-7.46993-1.96096-8.79113-12.80341-11.23348-22.02643-.0339-3.28702 2.18373-4.77284 5.06608-5.72688 4.92257 4.37859 9.55626 8.94976 11.01321 15.63877z" fill="#02942b" stroke-width="1.5"/><path d="m53.98579 539.51455 5.50661 1.10132c9.84576-13.07847 5.6839-20.15448 3.74449-27.53304-4.51676 4.97818-9.48324 9.20684-12.3348 16.96036z" fill="#02942b" stroke-width="1.5"/><path d="m50.57393 497.67449 1.08549 6.91995-4.47762 6.64857-4.88466-5.56309 2.98507-2.30665z"/><path d="m39.04069 515.85631-7.05563-5.42741 4.20624-2.57802 3.79919-1.49253z"/><path d="m52.70266 540.5533c7.05929 3.06821 9.71997 11.26811 13.75648 17.86289-5.1-1.29197-10.51605-1.30257-11.90859 1.64256-3.2783-1.96078-1.48979-13.16437-1.84789-19.50545z" fill="#02942b" stroke-width="1.5"/><path d="m58.86228 543.83843c3.4907-5.67929 6.6914-12.80855 10.67667-16.015 5.77395 16.56481.59401 21.53139-2.46384 28.74488z" fill="#02942b" stroke-width="1.5"/><path d="m53.31863 559.64812-4.9277-8.82879c-7.73374-6.61855-15.46748-8.9493-23.20122-12.52455 4.57266 11.92143 8.64341 24.34476 28.12892 21.35334z" fill="#02942b" stroke-width="1.5"/><path d="m63.37934 580.3855c-13.1786-3.43788-25.62377-7.57428-27.51296-21.76399 19.54837 3.20587 20.89581 6.51183 27.51296 21.76399z" fill="#02942b" stroke-width="1.5"/><path d="m65.22722 579.76953c-5.09409-7.29492-6.63511-15.92225-7.39154-24.84379 5.7263 4.03777 11.40434 8.14793 14.9884 15.39905-3.74678 4.76758-5.37669 6.71265-7.59686 9.44474z" fill="#02942b" stroke-width="1.5"/><path d="m71.59216 566.83434 5.13301.41064c1.74894-5.21218 3.02149-10.80546-.61596-20.32674-4.9749 2.45617-6.17238 7.83756-9.03411 12.9352z" fill="#02942b" stroke-width="1.5"/><path d="m74.26133 591.88345c-4.7556-5.11403-7.49497-11.38019-8.41815-18.68417 6.15053 1.49418 12.21545 3.2024 16.22033 10.0607z" fill="#02942b" stroke-width="1.5"/><path d="m76.51985 576.27908c-1.13949-5.49003 1.49884-9.72079 3.49045-14.16712 5.08648 1.46475 12.37572 14.40033 3.07981 21.14802z" fill="#02942b" stroke-width="1.5"/><path d="m74.26133 594.55262c-15.70008 2.74686-22.50014-5.1185-29.56617-14.78309 8.24933-.1916 15.2797-.91063 22.99591 3.69578z" fill="#02942b" stroke-width="1.5"/><path d="m59.57526 540.98548-5.93449-1.20887.98908 1.42867 3.40684 2.63755z"/><path d="m52.1022 556.15139-3.29694-5.49489 2.96725-6.81367z"/><path d="m67.37801 558.45925-4.28602-.43959 3.62663 3.51673z"/><path d="m48.03598 560.54731 5.2751-.65939.87918.1099 2.63755-1.42867.76929-.1099 2.74744 13.29764-1.42867-1.97816-3.29694-4.50581-3.84642-2.52766z"/><path d="m76.49953 567.36098-4.61571-.2198-.1099.87918 1.42867 2.41776-3.07714 3.84642 5.82459 2.41776-.1099-4.06623.76929-2.96724.54949-1.53857z"/><path d="m66.60872 578.46066-1.53857 1.97816-2.19796-3.29693 1.20888 4.39591 3.62663 1.75837.1099-.76929z"/><path d="m91.17271 595.72117c-4.98075-6.56898-9.60175-8.46115-14.14309-9.31781.49378 7.89912 4.23807 13.22836 8.31946 18.30283z" fill="#02942b" stroke-width="1.5"/><path d="m57.89484 595.38839c6.72836.73485 13.50037 1.6443 19.80033.66556 3.43871 5.08173 6.87743 10.99285 10.31614 13.14476-14.13827-.18865-27.3233-1.40387-30.11647-13.81032z" fill="#02942b" stroke-width="1.5"/><path d="m95.49883 595.55478-4.15973-.33278-3.49418-3.66057c-.8952-6.00875.34398-10.68351 2.99501-14.47587 6.56548 4.30969 6.45209 11.08002 4.6589 18.46922z" fill="#02942b" stroke-width="1.5"/><path d="m100.15774 618.01734-10.9817-7.15474-23.12812-1.66389c10.87629 14.04675 22.34863 14.68223 34.10982 8.81863z" fill="#02942b" stroke-width="1.5"/><path d="m103.31913 605.87092c-5.37992-4.0547-10.75984-6.29434-16.13976-8.15308.2153 8.64846 5.37764 13.17439 10.8153 17.47088z" fill="#02942b" stroke-width="1.5"/><path d="m103.8183 605.53814-5.82363-3.49418c-2.55808-5.82486 1.38942-10.46689 3.32779-15.47421 5.18151 6.56908 7.5164 12.62059 7.8203 18.30283-1.02653.97014-1.55703 2.43632-5.32446.66556z" fill="#02942b" stroke-width="1.5"/><path d="m114.30083 628.83265-11.98003-9.81698c-6.98355 2.52641-14.58191 3.48766-21.29784 3.99335 7.1288 9.63568 18.61024 10.82214 33.27787 5.82363z" fill="#02942b" stroke-width="1.5"/><path d="m111.97138 625.17208c-4.66178-3.33287-9.43738-6.13454-12.81198-15.47421 7.49079-.78464 13.0138 3.35015 18.802 6.82197-2.71688 2.52398-5.82753 4.85107-5.99002 8.65224z" fill="#02942b" stroke-width="1.5"/><path d="m119.54825 616.8141-9.24076-5.45233-.83195-15.47421c4.98983 3.11621 14.52788 8.36242 10.07271 20.92654z" fill="#02942b" stroke-width="1.5"/><path d="m129.77504 624.83931c-5.60177-3.62631-11.20355-5.84973-16.80532-5.49085.79529 7.1176 6.45371 11.80365 12.4792 16.30615.48003-4.56711 1.63545-8.45883 4.32612-10.8153z" fill="#02942b" stroke-width="1.5"/><path d="m125.7817 636.15378-5.65724-4.32612c-6.10285-2.66027-15.49746 1.9644-23.4609 1.16472 2.76007 7.83489 10.38101 12.16544 32.11314 6.3228z" fill="#02942b" stroke-width="1.5"/><path d="m134.76672 626.17042c-4.91657-3.82347-8.72693-4.32832-12.81198-5.65724-.94512-11.22696.67701-11.54313 1.33112-15.97338 6.71344 6.72913 12.63239 13.59067 11.48086 21.63062z" fill="#02942b" stroke-width="1.5"/><path d="m76.89053 589.45358-3.27769 3.68741 1.33157 1.94612-3.17527.717 6.45296.30728.61456.61457z"/><path d="m87.64545 576.85497 1.43399 1.74127-1.74127 6.14567.10243 6.45295-3.99469-3.07284-4.19954-1.33156 2.76555-3.38011.61457-.10243.71699-.20486 2.04856-1.63884 1.22913-1.8437z"/><path d="m99.93679 588.0196-3.07284-.40972-1.1267 8.29666-4.4044-.30729-1.53641 2.76555 7.27237 3.48255-.40971-4.19954 1.1267-4.4044 2.04856-4.50682z"/><path d="m87.4406 602.15463-2.66313 3.89226 3.89226 3.38011-2.25341.51214 3.17526 1.02428 5.83838 3.58497.20486-.61456-4.4044-4.30197-2.25341-3.99468z"/><path d="m99.93679 612.39741-2.35584 3.89226 2.9704 1.8437-2.76555 1.8437 4.4044-1.12671 2.04855 1.02428-2.04855-2.97041z"/><path d="m109.565 605.12504-6.14567.61456-1.63884 3.58498 4.19954.61456 3.17526 1.33156.51214.40972z"/><path d="m122.26605 608.40273-1.281 3.02078-.717 5.224-1.89426.25672-.92185.20486-2.04856 2.04855 4.50683.61457 1.8437.61457-.51214-5.5311.51214-4.71168z"/><path d="m113.04754 621.9232-1.02427 4.8141 2.9704 2.45827-4.71168 1.22913.81943.717 4.30196-.30729 2.76555.10243.81943.30728-3.38012-4.19954-1.94613-3.27768z"/><path d="m155.98716 642.93474c-7.85198-14.72917-16.52629-16.88677-29.78855-14.89428 9.68378 13.87102 19.69925 15.09066 29.78855 14.89428z" fill="#02942b" stroke-width="1.5"/><path d="m149.07744 632.64694c-1.06219-7.0538-8.41729-17.04183-13.97297-19.19365.72858 5.33506 1.93288 10.22454.61419 13.51233 3.73767.58665 8.44145 1.41317 13.35878 5.68132z" fill="#02942b" stroke-width="1.5"/><path d="m141.86063 642.01345c-10.85081-5.41243-20.47323 2.05137-32.09178 1.07484 10.77493 9.89584 29.10694 12.5075 32.09178-1.07484z" fill="#02942b" stroke-width="1.5"/><path d="m164.27881 647.38766c-13.31856-7.62577-24.26189 2.02406-33.16663 6.44907 15.37043 6.86123 23.39068 6.05698 33.16663-6.44907z" fill="#02942b" stroke-width="1.5"/><path d="m165.96785 645.85217c-6.47663-.4199-13.8062-6.35702-19.19365-26.71756 14.71603 2.52013 17.86316 14.27473 19.19365 26.71756z" fill="#02942b" stroke-width="1.5"/><path d="m160.84537 644.69104-5.38288-4.81626-.28331 1.51098 1.41655 1.7943-5.19401.18887-5.76063-.56662-3.39971-.94437-.94437 2.92754-1.41655 2.45535-1.32211 1.60542 1.41655-.18887 6.23281-2.92754 6.70499-1.41655h3.68303l3.58859 1.13324h.37774z"/><path d="m126.84822 629.48676-1.13324 6.04394 3.8719 4.34408h.66106l6.9883.0944-2.36091-1.98316-5.57176-4.9107z"/><path d="m134.49758 626.46479-4.34408-2.8331-2.36091 3.8719 6.42168-.28331z"/><path d="m147.24651 622.68733v3.39971l1.41655 4.43852.84993 3.21084 3.02197 3.11641-.56662-2.17204-3.21084-7.64936z"/><path d="m287.24177 659.10817c12.065-2.74177 22.63797 4.21473 33.23944 10.98591-7.01778 2.73212-13.74283 6.41565-23.66198-.28169-4.11263-3.87479-9.67913-8.2342-9.57746-10.70422z" fill="#02942b" stroke-width="1.5"/><path d="m301.88966 642.48845 13.80281-2.25352 4.22536-16.05634c-8.16984 3.51639-17.10601 6.09806-18.02817 18.30986z" fill="#02942b" stroke-width="1.5"/><path d="m302.45304 657.13634 14.36619-5.07042 18.02817 10.70422c-10.79812 2.30991-21.59624 5.06554-32.39436-5.6338z" fill="#02942b" stroke-width="1.5"/><path d="m307.39173 643.0026c3.17154-.34529 7.21152-2.14988 8.73786 3.23625.25677 4.11975-4.52126 6.36936-9.38511 7.60518l3.72168-7.28156z" fill="#02942b" stroke-width="1.5"/><path d="m297.25648 645.22547 2.58707-2.68657 1.59204-2.58706.0995 2.58706 4.87562-.39801 3.08458 3.7811-.39801.69651-6.06965-1.29353-3.48259.19901z"/><path d="m319.64454 627.21552 1.19403 2.68657-2.08955 4.97512-1.49254 6.26866-.49751 4.37811-.59701-.0995-1.09453-2.08955-1.99005-.89552-1.59204-.29851-.79602-.39801 3.18408-.99502 2.08955-.49751 1.49254-5.07463 1.39303-6.06965z"/><path d="m281.63459 659.45433 2.48757-1.19403 2.38806-1.29354 2.08955-1.09452 1.49253.69651 4.27861.59702 3.48259-.29851 3.18408-1.59204 3.78109-2.98507 3.18408-3.18408.49752-.0995-.59702 2.08956-1.59204 2.98507 5.07463-1.59204 2.48756-.99502 1.89055-1.99005.69651-2.78607 3.6816-.29851-1.99005 1.59204 2.58706 3.08458 4.0796 3.88059 5.77115 3.38309 1.89054.29851-1.39303 1.49253-11.14428-6.46766-2.88557-1.69154-3.58209 1.29353-11.64179 3.8806 4.67662 3.8806h-1.79105l-7.66169-2.48757-5.77115-.199-4.2786.69652.199 1.69154 3.58209 4.0796-.199.59701-4.37811-2.88557z"/><path d="m207.10723 635.37472c12.2033 1.86666 15.39925 8.03537 20.59702 13.13433-2.34955 2.91392-3.91709 6.37534-3.4826 11.7413-11.05261-5.80897-16.44429-19.39903-17.11442-24.87563z" fill="#02942b" stroke-width="1.5"/><path d="m227.50524 667.61353c-9.23546 14.87321-19.58911 12.13487-29.85075 10.84577 6.45234-5.00959 13.15985-9.44507 18.60697-16.71642l8.35821.0995z" fill="#02942b" stroke-width="1.5"/><path d="m216.16196 659.85234c-1.03387-8.10209-10.37984-26.6812-21.69155-27.9602 2.04117 13.8498 6.78752 27.76018 21.69155 27.9602z" fill="#02942b" stroke-width="1.5"/><path d="m213.27638 661.44438c-15.70802-3.38046-22.32025 4.32352-33.23383 12.93532 10.59259.81908 20.86493 5.02369 33.23383-12.93532z" fill="#02942b" stroke-width="1.5"/><path d="m196.85847 645.32497c-3.32754-9.00229-11.22497-14.41391-20.79602-17.71145l5.07463 16.51742c5.14096.92721 10.58043 1.59074 15.72139 1.19403z" fill="#02942b" stroke-width="1.5"/><path d="m205.31619 658.65831c-3.13945-3.81201-6.34712-7.53874-8.45772-12.63682-8.06495.92178-16.39661-1.23185-23.9801.199 3.32801 5.34614 5.67419 11.39359 14.32836 12.93533 7.17737 1.54549 13.05223 1.13722 18.10946-.49751z" fill="#02942b" stroke-width="1.5"/><path d="m194.56992 661.44438c-11.58064 10.86534-18.38309 14.9778-32.93533 8.55721 12.7829-12.16921 18.03468-11.09789 32.93533-8.55721z" fill="#02942b" stroke-width="1.5"/><path d="m178.45051 657.56378c-4.23962-2.98307-9.3262-4.8772-15.42288-5.47264-5.13037 3.71866-10.36353 7.07755-16.0199 8.95523 9.66532 11.01118 21.30001.42417 31.44278-3.48259z" fill="#02942b" stroke-width="1.5"/><path d="m179.74405 643.83243c-2.62009-11.08921-8.02893-18.22767-17.01493-20.2985-.28077 3.95626 1.5299 9.79481 3.8806 16.1194 4.97155.7996 9.4865 2.05578 13.13433 4.1791z" fill="#02942b" stroke-width="1.5"/><path d="m166.31121 640.74786 8.85572 2.18905-.59701 1.89055-2.98508.69652 3.8806 7.26368h-4.47761l-4.97513-1.59204.0995-4.0796 1.09452-.19901z" fill="#02942b" stroke-width="1.3"/><path d="m183.62464 645.02646-2.78607.49752-6.26865.0995 1.19403-3.38309 3.58209 1.59204 1.89054.79602z"/><path d="m163.02763 645.62348 3.38308.69652-.59701 5.77114-2.58707-.199-3.68159 2.18905.69652-1.79104 3.78109-3.9801.39801-.89553z"/><path d="m176.36096 652.48915 1.59204 2.18906 3.48259 3.08457 3.28358 1.19403-.0995.49752-2.28856.2985-5.67164.29851-2.38806.69652-.0995-.39801 4.77612-2.68657-2.68657-1.89055-3.8806-1.69154-.89552-.69652.59701-.2985 2.38806-.19901z"/><path d="m194.47041 660.25035 6.26866-.0995-.29851.79602-7.16418 2.88557z"/><path d="m204.22166 655.87224 4.57711 3.08457 4.67662 1.19403 2.98507.0995-.59701-3.6816-.89552-3.28358 1.79104 1.49254 3.28358 3.28358 3.38309 2.08955 1.39303 1.09453-.59701.49751-7.66169-.2985-.59702.398-4.87562 5.67165-8.35821 6.66666.69652-1.59204 6.46766-5.77114 3.18408-4.57712.59701-.99502-3.18408-.59701-5.67164-.19901-2.98507-.0995 2.18905-.99503 1.79105-.49751z"/></g><path d="m24.4907 653.05875c28.08114 1.47953 57.32936 2.97846 88.04432 8.40872 58.21205 15.34763 34.49029 24.89322-14.83893 19.78524-61.60148-8.46866-42.80917 9.85389-1.97852 10.88189 95.95841 7.17251 191.91683 7.30857 287.87524 3.95704 51.15116-1.52614 40.93283-17.3941-6.92484-14.3443-97.15699-.54035-43.84225-14.58232-19.78524-17.31209 28.46203-3.09116 58.42938-5.64486 89.52822-5.93556l-.49464 73.70002-28.48484.63154c2.46894 36.66514-16.1646 26.94462-58.07558 30.53021-89.87633 3.66402-163.84058 4.68712-243.35845.49463-39.10331-5.94931-67.84788 1.07406-61.82888-34.12954l-29.67786-2.96778z" fill="#04549d" stroke="#0c2578" stroke-width="5"/><text style="font-size:40;font-weight:bold;letter-spacing:0;word-spacing:0;fill:#fff;font-family:Century Gothic" x="124.61095" y="751.83759"><tspan fill="#fff" font-family="Arial" font-size="26" font-weight="bold" x="124.61095" y="751.83759">5 de abril de 1927</tspan></text><path d="m94.09561 713.76858v11.03125c-.00001.45833.38447.8021 1.15343 1.03122.6459.19793.96887.47915.96888.84374-.00001.76046-.027 1.18233-.0808 1.2657-.0538.0833-.28068.12493-.68052.12493h-6.13623c-.30759 0-.49982-.0807-.57672-.24213-.0769-.16147-.11531-.55989-.11531-1.19533 0-.29167.20762-.49478.62284-.60935.79971-.23965 1.19956-.51042 1.19956-.81254v-18.46871c0-.44796-.0615-.78383-.18454-1.00785-.12304-.22394-.39986-.40887-.83046-.5547-.38449-.12493-.64208-.2604-.7728-.40624-.13073-.14583-.19608-.42187-.19608-.8281 0-.72918.2845-1.09377.85353-1.09377h6.41305l7.75102 12.17185v-8.96873c-.00001-.49997-.3768-.85411-1.13036-1.06249-.446-.13539-.73436-.28904-.86507-.46097-.13073-.17184-.1961-.50779-.19607-1.00776-.00003-.31249.0462-.50261.13841-.57034.0922-.0675.26911-.10156.53057-.10156h6.36691c.3537.0313.53055.37504.53058 1.03122-.00003.3855-.0346.63026-.10377.73437-.0693.10419-.22685.19274-.4729.26566-.53829.14584-.87662.28649-1.01501.42187-.13843.13547-.20764.32295-.20762.56252v22.20308h-3.92165z" fill="#fff"/><path d="m122.65178 703.80097c2.26071 0 4.21768.51306 5.87095 1.5391 1.65322 1.02603 3.00273 2.48694 4.04852 4.3828 1.04575 1.89579 1.56863 4.32808 1.56865 7.29681-.00002 3.56252-1.01888 6.57034-3.05657 9.02346-2.03774 2.45312-4.90976 3.67972-8.61609 3.67972-3.52181 0-6.29771-1.19796-8.32773-3.5938-2.03004-2.39584-3.04506-5.48958-3.04506-9.28122 0-3.88539 1.04193-7.03123 3.1258-9.43752 2.08385-2.4062 4.89435-3.60935 8.43153-3.60935zm1.82242 3.70309c-.00001-1.30207-.62287-1.95306-1.86855-1.95306-.52289 0-.96888.16147-1.33797.48434-.36912.32294-.55366.71881-.55365 1.1875v18.85939c-.00001.63544.18453 1.11714.55365 1.44527.36909.32813.80738.49224 1.31491.49224.569 0 1.02653-.18229 1.37257-.54688.34601-.36459.51903-.77083.51904-1.21878z" fill="#fff"/><path d="m148.24007 721.44832 3.52949-12.04684c.0307-.10419.0462-.21357.0462-.32813-.00001-.41668-.39217-.75-1.17649-1.00003-.49215-.16665-.73821-.32813-.7382-.48433-.00001-.0732.007-.14584.0231-.21876v-.25002c-.00001-.4687.0346-.76301.10376-.88284.0691-.11974.25759-.17966.56519-.17966h5.72099c.26143 0 .41906.0494.47291.14847.0538.0989.0807.35677.0807.77338-.00003.4896-.0154.79172-.0462.90628-.0308.11457-.13844.20839-.32296.28122-.46139.20839-.75359.38805-.87661.53907-.12305.1511-.27684.53388-.46136 1.14841l-5.99782 20.29693-.3691 1.23433c-.0307.11465-.19225.17193-.48443.17193h-4.63678c-.19993 0-.35372-.0625-.46136-.18748-.10765-.12502-.26146-.53133-.46137-1.21878l-6.02088-20.74999c-.13842-.52079-.50751-.90102-1.10729-1.14068-.30759-.12493-.49598-.2213-.56519-.28903-.0693-.0675-.10377-.21094-.10377-.42969 0-.0733.007-.14584.0231-.21876.0154-.11456.0231-.22394.0231-.32813 0-.0732-.007-.14057-.0231-.20311v-.21876c0-.34368.18454-.51561.55364-.51561h10.4731c.35371 0 .53056.21876.53058.65626-.00002.0107-.0154.3125-.0462.90621-.0307.13547-.19224.25003-.48443.34377-.67668.21875-1.01503.5677-1.01502 1.04685-.00001.11465.0231.24485.0693.39068z" fill="#fff"/><path d="m168.52527 705.63584c2.26071 0 4.21768.51306 5.87095 1.5391 1.65322 1.02603 3.00272 2.48694 4.04851 4.3828 1.04576 1.89579 1.56864 4.32808 1.56866 7.29681-.00002 3.56252-1.01888 6.57034-3.05657 9.02346-2.03773 2.45312-4.90977 3.67972-8.61609 3.67972-3.52181 0-6.29771-1.19796-8.32773-3.5938-2.03004-2.39584-3.04506-5.48958-3.04506-9.28122 0-3.88539 1.04194-7.03123 3.12579-9.43752 2.08385-2.4062 4.89437-3.60935 8.43154-3.60935zm1.82242 3.70309c-.00002-1.30207-.62287-1.95306-1.86855-1.95306-.52291 0-.96889.16147-1.33797.48434-.36911.32294-.55366.71881-.55365 1.1875v18.85939c-.00001.63544.18454 1.11714.55365 1.44527.36908.32813.80737.49224 1.31489.49224.56902 0 1.02654-.18229 1.37259-.54688.346-.36459.51902-.77083.51904-1.21878z" fill="#fff"/><path d="m200.79365 717.00094h3.69096v-7.28757c-.00001-.23176-.0346-.38629-.10377-.46359-.0693-.0772-.25761-.17384-.56518-.28976-.33835-.11592-.50752-.38637-.50751-.81135-.00001-.54083.0384-.87164.11531-.99244.0769-.12073.29218-.18109.64591-.18109h10.01175c.44596 0 .7151.0503.8074.1521.0922.10149.13838.4323.1384.99243-.00002.33814-.0501.53853-.14994.60126-.1.0626-.41142.17636-.93427.3405-.56905.19323-.85356.4926-.85354.89828v17.3423c-.00002.45398.33062.81616.99195 1.08661.53823.21252.80737.40568.8074.57951v.91277c-.00003.19322-.0462.3212-.13841.38393-.0924.0626-.36144.0942-.8074.0942h-10.05788c-.33835 0-.54597-.0389-.62285-.11584-.0769-.0773-.11531-.43468-.11531-1.07219-.00002-.31869.20759-.56983.62284-.75336.47674-.21252.71511-.45878.71513-.73893v-9.04061h-3.69096v9.12761c-.00001.30907.19991.55532.59978.73885.39984.20285.59977.48779.59978.85478-.00001.51198-.0462.80654-.13842.88385-.0922.0772-.27683.11584-.55364.11584h-10.12708c-.32297 0-.52289-.0435-.59978-.13034-.0769-.0869-.11531-.42987-.11531-1.0287 0-.28006.0384-.46359.11531-.55051.0769-.0869.2922-.19322.64592-.31876.64591-.21252.96888-.4974.96888-.85484v-17.51614c0-.28006-.28452-.54571-.85354-.79685-.56903-.26076-.85353-.63263-.85353-1.11561 0-.5119.0654-.81852.19608-.92001.13072-.10135.41908-.1521.86507-.1521h9.45808c.41523 0 .69974.0458.85354.13767.15378.0917.23068.30662.23069.64468v.68094c-.0307.17391-.22301.32845-.57672.46367-.47675.16415-.71512.4346-.71511.81127z" fill="#fff"/><path d="m228.79087 725.09801h-5.76713l-.25376 1.28058c0 .0279-.0154.0697-.0462.1253-.12304.26915-.18456.51036-.18454.72379-.00002.33412.36139.61712 1.08421.84917.38447.12061.62284.24591.71513.37583.0922.12992.13841.34335.13841.64029 0 .38045-.0346.61015-.10377.68904-.0693.0788-.23454.11827-.49598.11827h-6.09009c-.33834 0-.50751-.21344-.50751-.64029 0-.51037.26914-.92337.8074-1.23886.50751-.2877.79971-.59387.87661-.91867l4.26768-16.38352c.0769-.2506.11531-.46864.11531-.65429-.00002-.28763-.33066-.54285-.99196-.76558-.30758-.11131-.46137-.35721-.46136-.73773-.00001-.51037.0462-.82586.13841-.94654.0922-.1206.33833-.18095.73819-.18095h8.81218c.53825 0 .91503.15317 1.13035.45934.2153.30625.43059.9744.64592 2.00444.0922.39907.18453.79346.27682 1.18321l3.78323 15.29775c.18453.74242.63822 1.30851 1.36105 1.69826.19991.10207.33063.18322.39216.24356.0615.0601.0922.24357.0922.54981-.00002.47328-.0538.76332-.16148.87-.10765.10675-.33836.16006-.69205.16006h-10.2655c-.30759 0-.46138-.17626-.46137-.52893-.00001-.4454.0384-.72379.11531-.83516.0769-.11137.29988-.24129.66899-.38976.53825-.20419.80739-.46403.8074-.77952-.00001-.3248-.1615-1.08107-.48445-2.2689zm-2.76823-12.41642-2.5606 10.81567h5.07507z" fill="#fff"/><path d="m259.27235 708.35128h8.8791c.60194 0 .9949.0474 1.17887.14314.1839.0955.27588.33864.2759.72956-.00002.35451-.0627.60222-.18811.74313-.12538.14091-.43062.27501-.9155.4022-.43479.10909-.7107.22732-.82773.35459-.11704.12726-.17559.33633-.17556.6272v16.18539c-.00003.23629.0502.40903.15049.51812.10025.10909.3762.22271.82772.34087.61866.16367.928.38639.92804.66814-.00004.70909-.0419 1.10224-.12538 1.17952-.0836.0772-.37625.11585-.87788.11585h-11.18666c-.48493 0-.7274-.22272-.72739-.66808-.00001-.38181.0251-.66592.0754-.85223.0502-.18638.35949-.33864.92805-.45678.63539-.13639.9531-.37728.95311-.72273v-11.48112l-4.5148 9.27218h-2.75903l-4.43955-8.98583v11.1539c-.00001.36362.30098.63174.90295.80446.73574.20002 1.10362.55454 1.10362 1.0636 0 .58175-.36788.87263-1.10362.87263h-5.44283c-.6187 0-.92805-.27723-.92805-.83176 0-.39085.25918-.69085.77756-.89992.3846-.17273.62705-.31134.72739-.41592.10024-.1045.15049-.28857.15049-.55222v-15.749c0-.43632-.0711-.77044-.21321-1.0022-.14213-.23184-.44729-.42044-.9155-.56588-.50163-.14544-.75247-.29547-.75247-.45003l.0251-.58628c.0167-.42726.0711-.69314.16302-.79772.092-.10449.31354-.15678.66469-.15678h9.28041l4.01315 8.42677z" fill="#fff"/><path d="m287.0586 717.55289c2.65276.59388 4.47925 1.32933 5.4795 2.20629 1.00021.87688 1.50031 2.08561 1.50033 3.62609-.00002 2.3478-.92052 4.09701-2.76149 5.24767-1.84101 1.15073-4.68948 1.72606-8.5454 1.72606h-10.63283c-.43488 0-.65232-.14378-.65232-.43148v-.83517c0-.23205.1957-.40369.58709-.51506.82627-.25053 1.23941-.61712 1.23941-1.09962v-16.80114c0-.23198-.058-.38976-.17396-.47327-.11596-.0835-.46387-.21342-1.04372-.38976-.2899-.0835-.46023-.17633-.51097-.27838-.0507-.10206-.0762-.35266-.0762-.75166 0-.35266.0762-.58926.22831-.70994.1522-.1206.41676-.18095.79366-.18095h11.91573c2.87018 0 5.07359.46865 6.61018 1.40588 1.53655.93729 2.30485 2.12974 2.30486 3.5774-.00001 1.20638-.60522 2.21788-1.81562 3.0345-1.21044.81662-2.69265 1.36415-4.44666 1.64254zm-5.69693-8.08742v7.3079h1.15242c.72479 0 1.29378-.13454 1.70692-.40369.41312-.26907.65231-.71683.71755-1.34326.0651-.62635.0978-1.41746.0978-2.3733 0-1.3363-.19932-2.2016-.59796-2.59606-.39865-.39437-1.0401-.59152-1.92434-.59159zm0 8.89472v10.39805c1.33363 0 2.22874-.11599 2.68539-.34797.45661-.23197.72478-.69139.80453-1.37809.0797-.68669.11957-1.84666.1196-3.47989-.00003-.33411-.0218-1.09274-.0653-2.27587-.0435-1.1832-.13049-1.89541-.26093-2.1367-.13047-.24129-.35879-.43148-.68494-.57072-.32617-.13915-.80816-.20881-1.44598-.20881z" fill="#fff"/><path d="m296.52074 707.89257h11.15568c.37784 0 .61831.0432.72138.12977.10297.0865.15456.35278.15458.79894-.00002.44615-.24905.74209-.74714.88776-.37789.10928-.63123.22308-.76002.34142-.12879.1184-.19325.34601-.19324.68289v15.29633c-.00001.41882.22328.758.66986 1.01747.44655.25955 1.01336.38926 1.7004.38926.63549 0 1.17653-.14568 1.6231-.43702.44656-.29134.66985-.61463.66986-.96971v-15.29633c-.00001-.26408-.0472-.44845-.14168-.55312-.0945-.10474-.33065-.23444-.70851-.38925-.58399-.23674-.87599-.60095-.87597-1.09264-.00002-.38235.0815-.61226.24476-.68967.16314-.0774.39932-.1161.70849-.1161h5.56496c.6183 0 .92747.16394.92751.49169v.65556c-.00004.29134-.0343.47571-.10297.55312-.0687.0774-.26625.14797-.59256.21171-.80728.14567-1.21092.44155-1.2109.8877v14.90032c-.00002 1.41125-.76433 2.52886-2.29297 3.35289-1.52866.82404-3.65844 1.23602-6.38939 1.23602-3.0573 0-5.38892-.43709-6.99484-1.31112-1.60594-.8741-2.40891-2.13515-2.40891-3.78315v-14.39496c0-.38242-.37786-.66463-1.13361-.84677-.37785-.091-.60544-.17524-.68273-.25264-.0774-.0774-.11588-.24358-.11588-.49852 0-.52809.0601-.86037.18035-.99697.12022-.13654.46374-.20488 1.03054-.20488z" fill="#fff"/><path d="m329.52759 719.04473v6.62228c0 .31153.0346.52068.10377.62749.0693.10683.26527.21809.58825.33377.41521.15133.62283.405.62284.76104-.00001.51626-.0808.83447-.24221.95458-.1615.12018-.45755.18025-.88814.18025h-9.75799c-.55365 0-.83046-.23137-.83046-.69425 0-.445.0231-.73207.0693-.86119.0462-.12904.19992-.22025.46137-.2737.84584-.19578 1.26877-.57855 1.26877-1.14818v-15.63438c0-.57856-.3691-.93011-1.10729-1.05479-.3691-.0712-.59978-.14234-.69205-.21357-.0924-.0713-.13842-.28039-.13842-.62751 0-.6943.32296-1.04143.96888-1.04143h12.75689c2.53752 0 4.80208.5519 6.79368 1.65557 1.99156 1.10374 2.98735 2.58568 2.98737 4.44596-.00002 2.64363-2.32994 4.37036-6.98976 5.18035 4.25997.54291 6.38996 2.10501 6.38998 4.68627v3.17766c-.00002.26702.17684.4673.53058.60078.4152.1602.62282.40499.62285.73432-.00003.51625-.0538.82335-.16149.92124-.10765.0979-.39218.14685-.85353.14685h-6.18235c-.73822 0-1.34569-.24256-1.82242-.72765-.47677-.4851-.71514-1.08362-.71513-1.79572v-5.38057c-.00001-1.0503-.91506-1.57547-2.74515-1.57547zm0-10.54757v8.99882h1.49946c1.52251 0 2.28377-.88566 2.28378-2.65692v-4.29912c-.00001-.74769-.24223-1.27505-.72666-1.58215-.48444-.30703-1.24187-.46055-2.27224-.46063z" fill="#fff"/><path d="m360.4607 727.54787c-1.30396 1.14418-2.91216 1.71627-4.8246 1.71627-2.9846 0-5.42588-1.19351-7.32384-3.58053-1.89797-2.38703-2.84696-5.21787-2.84695-8.4926-.00001-3.70873 1.07214-6.71469 3.2164-9.01785 2.14427-2.30317 4.67971-3.45476 7.60636-3.45476 1.40535 0 2.65134.24658 3.73799.7398.3477.14791.61572.22195.80409.22187.26078.00008.48534-.16763.6737-.50304.17385-.30572.47811-.45863.91277-.45863h.2608l.69543.0296c.4636.0491.75337.27127.8693.66576l1.39087 4.705c.14487.48332.21731.80884.21733.97647-.00002.34524-.38396.51785-1.15182.51785-.75341 0-1.23877-.0741-1.45607-.22195-.21734-.1479-.652-.66576-1.30396-1.55355-.86931-1.20332-1.63356-2.03929-2.29277-2.50781-.65922-.46852-1.36554-.70279-2.11891-.70279-1.98491 0-2.97735 1.07514-2.97735 3.22541v15.89042c0 1.1639.5433 1.74582 1.62994 1.74582 1.18803 0 1.78204-.58192 1.78205-1.74582v-7.73806c-.00001-.50305-.25355-.82857-.76063-.97656-.55057-.15773-.82584-.47834-.82582-.96167-.00002-.52276.0724-.83596.21731-.93953.14487-.10357.45638-.15532.9345-.15532h9.19283c.44912 0 .74975.0545.9019.16272.15209.10856.22815.35513.22818.7398-.00003.40438-.0472.67566-.14125.81375-.0942.1381-.32239.25149-.68458.34025-.5216.12827-.7824.39955-.78237.81375v10.06096c-.00003.60171-.0579.97897-.17386 1.13187-.11592.1529-.42018.22935-.91276.22935-.44916 0-.77152-.0226-.9671-.067-.1956-.0444-.46726-.17994-.81496-.40688-.97073-.64113-1.94145-1.05534-2.91215-1.24276z" fill="#fff"/><path d="m382.12383 704.25969c2.2607 0 4.21768.51306 5.87094 1.5391 1.65322 1.02603 3.00274 2.48694 4.04853 4.3828 1.04575 1.89579 1.56863 4.32808 1.56865 7.29681-.00002 3.56252-1.01888 6.57034-3.05657 9.02346-2.03774 2.45312-4.90977 3.67972-8.61609 3.67972-3.52181 0-6.29771-1.19796-8.32774-3.5938s-3.04505-5.48958-3.04505-9.28122c0-3.88539 1.04193-7.03123 3.12579-9.43752 2.08385-2.4062 4.89436-3.60935 8.43154-3.60935zm1.82242 3.70309c-.00001-1.30207-.62287-1.95306-1.86855-1.95306-.52291 0-.9689.16147-1.33797.48434-.36912.32294-.55366.71881-.55365 1.1875v18.85939c-.00001.63544.18453 1.11714.55365 1.44527.36907.32813.80738.49224 1.31489.49224.56902 0 1.02654-.18229 1.37259-.54688.34601-.36459.51903-.77083.51904-1.21878z" fill="#fff"/><path d="m417.29346 730.63811-.0728-41.10241" fill="#0c2578" stroke="#0c2578" stroke-width="5"/><path d="m54.46448 727.61405 3.68884-45.17747" fill="#0c2578" stroke="#0c2578" stroke-width="5"/></g></svg>