<svg height="896.25" width="761.94336" xmlns="http://www.w3.org/2000/svg"><g transform="translate(-14.100693 -140.90625)"><path d="m395 158.36297c-117.85907 87.95782-261.39827 78.54706-359.583979 40.29615-15.416021 163.703-45.416021 553.703 359.672369 821.70298 405.59406-267.84092 374.91161-657.99998 359.67138-821.70268-98.1789 38.24826-241.92125 47.66382-359.75977-40.29645z" fill="#fff" stroke="#007f4e" stroke-width="28"/><path d="m373.88008 782.94585c-24.48154-.92513-71.33483-12.04482-100.23418-34.04628v23.23306c0 29.09882-37.11651 29.09882-37.11651 0v-47.31094c-119.00548-146.1369-48.75646-330.15335 137.35069-360.83446v-45.81854h-104.83906c-28.98349 0-28.98349-35.5219 0-35.5219h254.84423c28.98349 0 28.98349 35.5219 0 35.5219h-109.0613v45.81854c49.18428 1.66071 120.17605 38.37576 157.17605 85.37576 18 23-12 43-27.07532 25.40327-49.92468-52.40327-84.52714-67.77734-130.10073-74.60333v56.53456h66.29728c15.7825 32.61451 25.79523 65.0201 36.0474 99.26096h21.72577c29.87728 0 29.2783 41.75155-.0939 41.75155h-12.13698c5.33936 24.85259 9.54528 49.88147 13.50828 74.9773 3.26988-3.6062 11.8282-14.32431 14.8282-18.32431 15-15 43 5 30 24-15 19-24.53428 31.02083-40.99227 48.9587l.14286 44.81094c.0905 28.38295-33.77282 29.04683-36.93183 0l-1.92857-17.73306c-25.74971 16.2721-50.74646 26.73938-90.46624 32.04628v85.97705c0 29.88606-40.94387 29.88595-40.94387-.0001zm0-103.19875h-94.5029l-2.93413 31.37015c.19601 14.35577 82.6542 37.76636 97.43703 35.97356zm132.90905 28.37015-3.80535-28.37015h-88.15983v67.34371c0 7.96909 67.87668-10.46744 91.96518-38.97356zm-208.79565-251.41976h75.8866v-56.53456c-175.52681 39.65551-183.30244 184.03754-128.42147 279.58417 6.40253-77.84393 24.74206-152.14555 52.53487-223.04961zm75.8866 35.2267c-15.7487-.5538-39.08152.5538-54.83022 0-17.49373 50.2816-26.90623 100.05815-35.30858 151.34991h90.1388zm114.9232 105.78581h-73.97933v45.5641h82.93173zm-6.41309-41.75155-18.92164-64.03426c-12.85713-.5633-35.78747.5631-48.6446 0v64.03426z" fill="#007f4e"/></g></svg>