<svg enable-background="new -0.3779297 -0.3779297 301 301" height="301" viewBox="-.3779297 -.3779297 301 301" width="301" xmlns="http://www.w3.org/2000/svg"><path d="m73.894797 103.74604-6.041322 8.52892-5.939318 3.8414-10.212009 5.60532 2.689453 29.33887 7.792219 33.28048 19.955041 36.67413 13.758111 17.29246 10.632328 11.0039 22.61377 20.72852 19.26171 11.8457 11.51905-5.32812 17.95215-12.66993 19.14453-16.35449 24.04101-26.05664 12.40332-23.69238 10.74131-28.81393 5.93258-29.39323-.26966-15.10111-2.64739-5.29622-9.09473-7.27198-4.66211-7.69921-2.00483-9.53506 6.66694-10.009866 5.54688-5.769043 3.17383-4.182617.78201-23.958762-3.95584-6.11448-8.71768-6.340527-28.62466 15.077114z" fill="#fff" stroke="#fff"/><path clip-rule="evenodd" d="m0 0h300v300h-300z" fill="#fff" fill-rule="evenodd" opacity="0"/><path clip-rule="evenodd" d="m49.5424805 40.5410156-.6738281 45.0600586c31.5058594 1.8603516 33.0786133 30.0947266 1.012207 35.9130859l192.0273438-80.6342773c-10.4326172-2.2592773-19.2646484-10.9545898-26.9980469-24.0551758-45.4072266 20.7875977-88.2392578 21.3383789-128.2441406-.3383789-6.9746094 13.8911133-19.3491212 21.9091797-37.1235352 24.0546875z" fill-rule="evenodd"/><path d="m84.6933594 15.5844727.0102539-.0170898 1.5400391-2.3320313 2.4682617 1.3212891c19.5166016 10.4472656 39.734375 15.0561523 60.5419922 14.7485352 20.9033203-.309082 42.4121094-5.5751953 64.4130859-14.8691406l2.4375-1.0297852 1.3769531 2.2578125c4.2304688 6.9355469 8.5800781 12.2265625 13.4667969 16.0810547 4.7783203 3.7695313 10.1083984 6.1689453 16.3984375 7.4052734l2.4902344.4882813v2.5317383 39.1386717 2.5239258l-2.4785156.4975586c-5.0888672 1.0205078-8.5917969 3.3398438-10.5664063 6.2587891-1.3339844 1.9716797-1.9863281 4.2475586-1.9697266 6.5913086.0185547 2.3989258.7373047 4.8759766 2.1474609 7.1865234 2.5273438 4.1450195 7.2412109 7.7509766 14.1005859 9.5488281l2.2958984.6020508.015625 2.3588867c.2617188 39.6630859-9.1191406 72.9365234-26.6210938 100.8300781-17.4746094 27.8505859-43.0058594 50.2441406-75.0791016 68.203125l-1.5249023.8544922-1.5087891-.8662109c-30.2578125-17.3691406-54.6918945-39.1621094-71.9545898-66.4013672-17.2744141-27.2578125-27.3364258-59.8984375-28.8349609-98.9414063l-.1035156-2.684082 2.6674805-.4575195c10.7167969-1.8388672 16.7470703-6.034668 19.0522461-10.6977539.9155273-1.8520508 1.2246094-3.7919922.9921875-5.6723633-.2368164-1.9130859-1.0332031-3.7797852-2.3222656-5.4487305-3.2861328-4.253418-9.6831055-7.2260742-18.2719727-6.7573242l-3.253418.1777344.015625-3.2705078.222168-45.3652344.0141602-2.9487305 2.9462891-.1206055c9.671875-.3959961 18.7026367-4.2275391 26.3984375-11.4941406 1.4677734-1.3862305 2.9306641-2.9541016 4.3833008-4.7041016 1.4199219-1.7094727 2.7822266-3.5522461 4.0820313-5.527832h.012207zm3.5800781 5.668457c-.9501953 1.3291016-1.9272461 2.5981445-2.9311523 3.8076172-1.5292969 1.8408203-3.1699219 3.5859375-4.9140625 5.2333984-8.0395508 7.590332-17.3828125 11.9121094-27.4228516 12.9643555l-.1928711 39.3798828c9.1801758.2993164 16.2255859 4.0649414 20.1943359 9.2021484 1.9770508 2.559082 3.2036133 5.456543 3.574707 8.4575195.3754883 3.0336914-.121582 6.1591797-1.5942383 9.1386719-2.8842773 5.8339844-9.5673828 11.0327148-20.8510742 13.5200195 1.7944336 36.7416992 11.4511719 67.5141602 27.7563477 93.2426758 16.4150391 25.9023438 39.5996094 46.7519531 68.3051758 63.4824219 30.4858398-17.3232422 54.7446289-38.7626953 71.3647461-65.2490234 16.5351563-26.3544922 25.5478516-57.7949219 25.6591797-95.2529297-7.3203125-2.4257813-12.5107422-6.7114258-15.5-11.6103516-2.0107422-3.2944336-3.0351563-6.8671875-3.0625-10.3652344-.0253906-3.5541992.9785156-7.0258789 3.0292969-10.0561523 2.4833984-3.6723633 6.4765625-6.6489258 11.9853516-8.253418v-34.2558593c-6.2294922-1.5478516-11.6376953-4.1777344-16.5527344-8.0546875-4.9033203-3.8671875-9.2851563-8.972168-13.4873047-15.4853516-21.90625 8.9814453-43.375 14.0595703-64.3071289 14.3691406-20.928711.3090821-41.3129883-4.1440429-61.0532227-14.2148437z"/><path d="m51.7021484 121.7216797 191.375-80.9521484.2460938.5854492-191.3740234 80.9526367z"/><path d="m54.3916016 151.0605469 190.5-80.9448242 1.9560547 4.5961914-190.5 80.946289z"/><path clip-rule="evenodd" d="m67.9106445 142.7963867-8.1376953-19.190918 10.0776367-4.2729492 1.3779297 3.2480469-7.1079102 3.0136719 1.9248047 4.5400391 6.1357422-2.6020508 1.3774414 3.2480469-6.1362305 2.6020508 3.4584961 8.1547852zm10.2280274-4.336914-1.5585938-3.6772461 2.8154297-1.1938477 1.5595703 3.6772461zm12.137207-13.4702149 3.3779297-.0302734c.4467773 2.2827148.3745117 4.1479492-.2207031 5.6025391-.5927734 1.4472656-1.6806641 2.5097656-3.2578125 3.1787109-1.9506836.8276367-3.9248047.6362305-5.918457-.5693359-1.9941406-1.2099609-3.6333008-3.324707-4.9121094-6.3408203-1.3549805-3.1943359-1.7739258-5.9428711-1.2617188-8.2480469.5146484-2.300293 1.7988281-3.8886719 3.8588867-4.762207 1.796875-.7617188 3.5512695-.6884766 5.2636719.2246094 1.0166016.5336914 2.0170898 1.5009766 3.0039063 2.8964844l-2.5507813 2.1621094c-.59375-.9233398-1.2900391-1.5566406-2.0883789-1.8979492-.7958984-.3427734-1.5878906-.3442383-2.375-.0107422-1.0883789.4614258-1.7578125 1.3466797-2.0019531 2.6572266-.2451172 1.3061523.1166992 3.1035156 1.0869141 5.3916016 1.0288086 2.4257813 2.09375 4.0141602 3.2001953 4.7573242 1.1054688.7495117 2.1918945.8945313 3.2602539.4423828.7900391-.3354492 1.3291016-.9487305 1.6186523-1.8466797.2919922-.8930666.2612305-2.0976564-.0834961-3.6069338zm8.3950195 4.7641602-1.5600586-3.6772461 2.8164063-1.1938477 1.559082 3.6772461zm8.0288086-10.769043 2.7314453-1.5961914c.7089844 1.1972656 1.4550781 1.9770508 2.2407227 2.3447266.78125.3647461 1.6225586.3608398 2.5263672-.0219727.9545898-.4052734 1.5644531-.9746094 1.8222656-1.7109375.262207-.7333984.2431641-1.453125-.0556641-2.1586914-.1938477-.4560547-.4589844-.7963867-.7993164-1.0268555-.3374023-.2363281-.8110352-.3623047-1.4194336-.378418-.4135742-.0146484-1.3256836.0454102-2.7304688.1669922-1.8095703.1606445-3.1943359-.0004883-4.1523438-.4799805-1.3505859-.6713867-2.3476563-1.7661133-2.9926758-3.2861328-.4145508-.9780273-.5893555-1.9794922-.5268555-3.0131836.0644531-1.0288086.402832-1.9365234 1.0107422-2.7211914.6123047-.7822266 1.4794922-1.4135742 2.6088867-1.8925781 1.8476563-.7832031 3.4570313-.8442383 4.8383789-.1855469 1.3803711.6645508 2.4663086 1.8642578 3.2626953 3.6098633l-2.8945313 1.4272461c-.5458984-.934082-1.1210938-1.5283203-1.7207031-1.7797852-.6000977-.2568359-1.3178711-.2060547-2.152832.1479492-.862793.3666992-1.4433594.8818359-1.7319336 1.5522461-.1899414.4282227-.1791992.8920898.03125 1.3891602.1938477.4550781.5053711.7817383.9360352.9785156.5478516.2524414 1.6391602.2958984 3.2709961.1254883 1.6337891-.1650391 2.8959961-.1582031 3.7880859.0234375.8945313.1850586 1.7099609.6035156 2.4541016 1.2631836.7407227.6611328 1.3671875 1.5976563 1.8808594 2.8081055.4658203 1.0986328.6708984 2.2294922.6079102 3.3852539-.0610352 1.1591797-.4189453 2.1538086-1.0776367 2.9814453-.6557617.8320313-1.6254883 1.5170898-2.9013672 2.0581055-1.8588867.7880859-3.5224609.8344727-4.9936523.1352539s-2.7602538-2.0825195-3.8613281-4.1455078zm30.3476563-5.5039062-3.2304688 1.3696289-3.1323242-3.8164063-5.8754883 2.4912109.6376953 4.8740234-3.1484375 1.3354492-2.4125977-21.6191406 3.1376953-1.3295898zm-8.6845703-5.2744141-5.0454102-6.2636719 1.0351563 7.9643555zm10.2856445 4.5952148-8.1381836-19.1918945 2.8886719-1.2241211 11.4501953 10.2646484-5.4345703-12.815918 2.7578125-1.1694336 8.1386719 19.1918945-2.980957 1.2636719-11.2304688-10.0039063 5.3071289 12.515625zm18.1064453-7.6767578-6.7607422-15.9428711-4.3598633 1.8486328-1.3774414-3.2485352 11.6787109-4.9521484 1.3779297 3.2480469-4.3496094 1.8447266 6.7607422 15.9418945zm20.9648438-8.8901367-3.2294922 1.3696289-3.1328125-3.8173828-5.8759766 2.4916992.6386719 4.8745117-3.1474609 1.3354492-2.4140625-21.6191406 3.1386719-1.3305664zm-8.6826172-5.2749023-5.046875-6.2631836 1.0351563 7.9643555zm22.3740234-8.8544922 3.3769531-.0307617c.4482422 2.2836914.3759766 4.1489258-.2197266 5.6030273-.5927734 1.4477539-1.6796875 2.5102539-3.2578125 3.1796875-1.9511719.8261719-3.9257813.6352539-5.9179688-.5698242-1.9941406-1.2099609-3.6347656-3.324707-4.9130859-6.3408203-1.3554688-3.1948242-1.7734375-5.9428711-1.2607422-8.2480469.5136719-2.3007813 1.7988281-3.8891602 3.8583984-4.762207 1.796875-.762207 3.5507813-.6889648 5.2636719.2246094 1.0166016.5336914 2.0166016 1.5009766 3.0048828 2.8964844l-2.5517578 2.1616211c-.5947266-.9233398-1.2910156-1.5561523-2.0888672-1.8974609-.7958984-.3427734-1.5878906-.3442383-2.3740234-.0112305-1.0898438.4619141-1.7578125 1.347168-2.0029297 2.6577148-.2451172 1.3061523.1171875 3.1025391 1.0878906 5.390625 1.0283203 2.4267578 2.09375 4.0151367 3.2001953 4.7583008 1.1044922.7490234 2.1914063.8945313 3.2597656.4414063.7900391-.3344727 1.3300781-.9482422 1.6191406-1.8457031.2910158-.8940431.2607424-2.0981447-.0839842-3.607422zm8.421875 4.7534179-8.1376953-19.1918945 6.2480469-2.6489258c1.5703125-.6665039 2.7841797-.9760742 3.6416016-.9335938s1.6884766.4121094 2.4902344 1.1113281c.8017578.7026367 1.4423828 1.6186523 1.921875 2.7539063.6113281 1.4384766.7910156 2.769043.5429688 3.9819336-.2509766 1.2084961-.9707031 2.2148438-2.1582031 3.0029297.8515625.21875 1.609375.5302734 2.2753906.9384766.6660156.4077148 1.6660156 1.206543 3.0058594 2.3984375l3.3847656 2.9833984-3.5488281 1.5048828-3.9160156-3.2685547c-1.3955078-1.1689453-2.3134766-1.8862305-2.7587891-2.1567383-.4453125-.269043-.8564453-.4067383-1.2324219-.4204102-.3759766-.0097656-.9033203.1293945-1.5869141.4194336l-.5996094.2539063 3.3974609 8.0112305zm-1.7265625-12.336914 2.1933594-.9306641c1.4238281-.6030273 2.28125-1.0561523 2.5693359-1.3637695.2880859-.3056641.4492188-.6953125.4882813-1.1660156.0351563-.4677734-.0654297-.9902344-.3095703-1.565918-.2744141-.6484375-.6279297-1.1098633-1.0595703-1.3959961s-.9111328-.3779297-1.4394531-.2807617c-.2568359.0615234-.9882813.3452148-2.1933594.855957l-2.3115234.980957zm8.3876953-13.1308594 2.9667969-1.2583008 4.4082031 10.394043c.6992188 1.6479492 1.1914063 2.7045898 1.4697266 3.1611328.4609375.7333984 1.0322266 1.234375 1.7080078 1.5063477.6826172.2744141 1.4365234.2348633 2.2646484-.1171875.8408203-.3564453 1.3837891-.8500977 1.6191406-1.4824219.2382813-.6279297.2597656-1.2915039.0683594-1.9799805-.1884766-.6943359-.6083984-1.7978516-1.2529297-3.3168945l-4.5019531-10.6166992 2.9667969-1.2583008 4.2763672 10.0805664c.9765625 2.3056641 1.5878906 3.965332 1.8310547 4.9853516.2412109 1.0205078.2871094 1.9448242.1337891 2.784668-.1552734.8349609-.5107422 1.6030273-1.0644531 2.2963867-.5576172.6953125-1.4208984 1.2871094-2.5830078 1.7802734-1.4042969.5961914-2.5566406.8369141-3.4628906.7197266-.9052734-.1166992-1.7099609-.4238281-2.4160156-.9199219-.7070313-.496582-1.2861328-1.0893555-1.7333984-1.7744141-.6621094-1.0161133-1.4453125-2.5976563-2.3574219-4.7470703zm21.7109375 13.4370117-1.4824219-3.4946289 2.4414063-15.722168-6.8476563 2.9042969-1.3779297-3.2495117 10.7587891-4.5610352 1.2763672 3.0107422-2.5625 16.359375 8.3642578-3.5458984 1.3710938 3.2353516z" fill-rule="evenodd"/><path d="m71.0869141 146.8505859v52.7119141h-3.081543v-52.7119141z"/><path clip-rule="evenodd" d="m74.8632813 145.0742188v65.1484375l13.2905273 19.5458984v-91.2094727z" fill-rule="evenodd"/><path d="m95.8969727 136.7832031v101.5244141h-3.081543v-101.5244141z"/><path d="m106.5292969 132.0449219v117.2666015h-3.081543v-117.2666015z"/><path clip-rule="evenodd" d="m110.8613281 130.265625v123.6728516l13.2465821 11.9580078v-141.553711z" fill-rule="evenodd"/><path d="m132.2246094 121.3842773v148.6557618h-3.081543v-148.6557618z"/><path d="m143.7431641 116.6459961v161.0932617h-3.081543v-161.0932617z"/><path clip-rule="evenodd" d="m148.4047852 113.6845703v168.2011719l11.5190429-5.328125v-168.2036133z" fill-rule="evenodd"/><path d="m167.6669922 106.5771484v167.0166016h-3.0820313v-167.0166016z"/><path d="m180.9570313 101.2470703v162.640625h-3.0810547v-162.640625z"/><path clip-rule="evenodd" d="m185.3037109 98.2861328v161.6855469l11.7167969-12.4384766v-154.1904297z" fill-rule="evenodd"/><path d="m204.8808594 89.9936523v153.3959961h-3.0810547v-153.3959961z"/><path d="m217.2861328 85.2563477v143.9194336h-3.0830078v-143.9194336z"/><path clip-rule="evenodd" d="m221.0615234 83.4794922v137.9970703l12.4033203-23.6923828v-93.5756836c-1.7382813-4.9882813-1.7382813-10.2675781 0-15.8354492v-10.8164063z" fill-rule="evenodd"/><path d="m241.2089844 111.9077148v71.6625977h-3.0820313v-71.6625977z"/><path d="m238.1269531 84.6635742v-10.6606445h3.0820313v10.6606445z"/><g clip-rule="evenodd" fill="#fff" fill-rule="evenodd"><path d="m71.309082 37.2475586 6.6757813-3.6865234c3.590332 2.6826172 4.6503906 5.3613281 4.3393555 8.0424805-1.1123047 2.3466797-3.2265625 4.0214844-6.3422852 3.0161133-2.0024414-1.5639649-3.5605469-4.0214845-4.6728516-7.3720704z"/><path d="m125.0507813 55.0078125 89.6757813-32.7124023c3.6748047 5.3779297 8.0566406 10.0463867 13.1455078 14.0048828l-102.4873048 21.7231445z"/><path d="m112.7001953 44.9545898 5.0073242 3.0161133 29.8935547-12.7236328-17.8774414-1.3510742z"/><path d="m102.7099609 25.8305664-.793457 12.4458008c1.4438477 3.4711914 3.6933594 4.1674805 6.75 2.0898438l5.3691406-10.8261719c-3.4223632-.5283203-7.1977539-1.7646485-11.3256836-3.7094727z"/><path d="m126.3862305 61.0395508 72.1010742-4.6918945-23.3662109 10.0537109-49.7363281-1.0053711c-.0000001 0 .6679687-4.6914063 1.0014648-4.3564453z"/><path d="m126.0527344 69.4174805 38.4931641 1.6757813-17.2573242 7.175293-22.237793-5.5004883c0-.0000001 1.3354492-3.350586 1.0019531-3.350586z"/><path d="m94.3413086 57.6884766c-4.1171875 5.2504883-7.7885742 12.2866211-11.0161133 21.1118164 2.2260742 6.1430664 5.3408203 7.8178711 9.3466797 5.0263672 5.0073242-6.4790039 9.0283203-12.1606445 10.4750977-18.6381836 1.3032226-6.7558594-1.6323243-9.2553711-8.8056641-7.5z"/><path d="m105.6904297 63.7202148c-2.4423828 6.3676758-5.565918 12.7333984-10.190918 19.1010742.8876953 5.3720703 3.9008789 6.1474609 10.0214844 2.3256836 3.418457-5.0483398 5.8120117-10.2436523 6.1777344-15.7294922.6137695-4.3076171-1.3891602-6.2055663-6.0083008-5.6972656z"/><path d="m116.0380859 67.4067383-7.0097656 14.4091797c-.6181641 4.1674805 1.1625977 4.6152344 5.3408203 1.3408203 4.65625-3.0595703 6.6137695-7.0214844 7.3442383-11.394043.315918-6.3789062-2.0664062-6.7363281-5.675293-4.355957z"/><path d="m87.9990234 54.3369141c-10.2275391 3.7001953-12.6044922 11.2871094-12.3642578 21.1191406 3.4233398 5.7016602 5.3193359 5.706543 5.6879883 1.3334961l10.0136719-18.4306641c2.5952148-3.7490234 1.4819336-5.0888672-3.3374024-4.0219726z"/><path d="m86.6635742 47.6357422c-2.3359375-1.340332-4.6987305-.5395508-9.706543 4.3759766-1.8637695 6.0581055-.7792969 7.9936523 1.3618164 7.3525391l10.0146484-7.0366211c3.5859376-3.0966798 3.0288087-4.6606446-1.6699218-4.6918946z"/><path d="m74.859375 76.612793c1.5063477 1.0810547 1.1113281 4.2250977-.8808594 6.9980469-1.9907227 2.7724609-4.8447266 4.1508789-6.3505859 3.0698242-1.5063477-1.0825195-1.1103516-4.2265625.8803711-6.9995117 1.9921875-2.7719727 4.8447265-4.150879 6.3510742-3.0683594z"/><path d="m72.9443359 52.8808594c.0332031 2.6000977-4.5742188 4.7612305-10.2553711 4.8120117-5.6806641.0512695-10.3413086-2.0273438-10.375-4.6274414-.0327148-2.5996094 4.5751953-4.7607422 10.2563477-4.8125 5.6811523-.050293 10.3422852 2.0283203 10.3740234 4.6279297z"/><path d="m72.9794922 67.3769531c1.1069336 2.3520508-2.1879883 6.2294922-7.3374023 8.6323242-5.1479492 2.402832-10.2509766 2.4438477-11.3588867.0917969s2.1879883-6.2290039 7.3364258-8.6323242c5.1479491-2.402832 10.2509765-2.4438477 11.3598632-.0917969z"/><path d="m82.9794922 84.1650391c1.5527344 1.0136719 1.2958984 4.1728516-.5708008 7.0302734-1.8671875 2.8579102-4.65625 4.3613281-6.2094727 3.3466797-1.5527344-1.0136719-1.2963867-4.171875.5708008-7.0302734 1.8671875-2.8574219 4.6567383-4.3613282 6.2094727-3.3466797z"/><path d="m94.7402344 87.2714844c2.0717773 1.4350586 1.8027344 6.0249023-.5986328 10.2182617-2.4008789 4.1928711-6.0493164 6.4428711-8.1206055 5.0083008-2.0717773-1.4350586-1.8037109-6.0249023.5976563-10.2177734 2.4008789-4.1933594 6.0493164-6.4433594 8.121582-5.0087891z"/><path d="m89.6000977 22.4892578c2.3178711.1777344 4.2412109 3.9584961 4.2817383 8.4155273.0400391 4.4580078-1.8178711 7.9477539-4.1357422 7.7695313-2.3178711-.1777344-4.2412109-3.9575195-4.2807617-8.4155273-.0405274-4.4570313 1.8168945-7.9472657 4.1347656-7.7695313z"/><path d="m104.0214844 87.8486328c2.5742188 0 4.6738281 1.956543 4.6738281 4.355957 0 2.3989258-2.0996094 4.355957-4.6738281 4.355957-2.5737305 0-4.6733398-1.9570313-4.6733398-4.355957-.0000001-2.399414 2.0996093-4.355957 4.6733398-4.355957z"/><path d="m99.6821289 48.3061523c2.5742188 0 4.6733398 1.9570313 4.6733398 4.3569336 0 2.3984375-2.0991211 4.355957-4.6733398 4.355957-2.5727539 0-4.6728516-1.9575195-4.6728516-4.355957 0-2.3999023 2.1000977-4.3569336 4.6728516-4.3569336z"/><path d="m108.4643555 53.6674805c2.0786133 0 3.7744141 1.5805664 3.7744141 3.5185547s-1.6958008 3.5185547-3.7744141 3.5185547c-2.0791016 0-3.7749023-1.5805664-3.7749023-3.5185547s1.6958007-3.5185547 3.7749023-3.5185547z"/><path d="m89.3339844 40.0727539c1.8383789 0 3.3369141 1.3974609 3.3369141 3.1113281s-1.4985352 3.1113281-3.3369141 3.1113281-3.3383789-1.3974609-3.3383789-3.1113281 1.5-3.1113281 3.3383789-3.1113281z"/><path d="m107.2060547 43.9492188c1.3852539 0 2.5161133 1.0541992 2.5161133 2.3461914s-1.1308594 2.3457031-2.5161133 2.3457031c-1.3862305 0-2.5170898-1.0537109-2.5170898-2.3457031s1.1308593-2.3461914 2.5170898-2.3461914z"/><path d="m98.6806641 40.9335938c1.8383789 0 3.3378906 1.1289063 3.3378906 2.5131836 0 1.3847656-1.4995117 2.5131836-3.3378906 2.5131836s-3.3374023-1.128418-3.3374023-2.5131836c-.0000001-1.3842774 1.4990234-2.5131836 3.3374023-2.5131836z"/><path d="m122.0073242 81.9111328c1.5024414.6923828 1.8466797 3.1708984.7651367 5.5175781-1.0805664 2.3476563-3.1884766 3.6972656-4.690918 3.0048828-1.5024414-.6918945-1.8476563-3.1708984-.7661133-5.5185547 1.0815431-2.3466796 3.1884767-3.696289 4.6918946-3.0039062z"/><path d="m122.2368164 60.1240234c-.7407227 1.4794922-3.2290039 1.7431641-5.5400391.5869141-2.3110352-1.1567383-3.5913086-3.3076172-2.8505859-4.7861328.7412109-1.4799805 3.2290039-1.7441406 5.5400391-.5869141 2.3100586 1.1567383 3.5908203 3.3066407 2.8505859 4.7861328z"/><path d="m117.5175781 52.8583984c-.6293945 1.2553711-2.7412109 1.4785156-4.7016602.4975586-1.9614258-.9819336-3.0483398-2.8066406-2.4199219-4.0620117.628418-1.2558594 2.7407227-1.4794922 4.7016602-.4985352 1.9619141.9819337 3.0483399 2.807129 2.4199219 4.0629883z"/><path d="m116.8041992 64.1796875c-.5161133 1.0322266-2.2519531 1.2163086-3.8647461.4091797-1.6108398-.8066406-2.5043945-2.3066406-1.9873047-3.3383789.5161133-1.0322266 2.2519531-1.2163086 3.8637695-.4091797s2.5053712 2.3066406 1.9882813 3.3383789z"/></g></svg>