<svg height="132.29167mm" viewBox="0 0 198.58873 132.29167" width="198.58873mm" xmlns="http://www.w3.org/2000/svg"><g fill-rule="evenodd"><path d="m-125.64754 38.858253h66.998672v44.629509h-66.998672z" fill="#db2a1e" transform="matrix(-2.9640697 0 0 2.9640697 -173.839323 -115.178572)"/><path d="m-103.31463 38.858253h22.33289v44.629509h-22.33289z" fill="#2d8552" transform="matrix(-2.9640697 0 0 2.9640697 -173.839323 -115.178572)"/><path d="m92.638206-37.681839h31.558176v31.558176h-31.558176z" fill="#f9f9f9" transform="matrix(2.09591378126 2.09591378126 -2.09591378126 2.09591378126 -173.839323 -115.178572)"/></g><g transform="matrix(2.9640697 0 0 2.9640697 -136.70790611997 -95.5979957354)"><g transform="translate(.108937 .187089)"><g fill="#db2a1e" stroke="#500" stroke-width="6.60415" transform="matrix(.02498427 0 0 -.02498427 66.663968 76.48493)"><g><path d="m297.07592 567.6099s-9.91988 4.38926-14.47436 4.96264c-3.0872.38865-7.59683.64367-10.33884-.8271-1.94658-1.04412-3.69874-3.75106-4.5491-5.78975-1.54018-3.69267-1.65422-13.23371-1.65422-13.23371l2.06778-5.3762-37.63337 7.85751s-6.00808 20.19969-4.96268 28.94876c.70557 5.90411 3.65569 13.98912 7.85754 18.19635 2.86648 2.87014 8.45308 4.46836 12.4066 5.37619 5.68834 1.30622 13.65743 1.63928 19.43705.82712 3.88513-.54598 9.10292-2.01939 12.4066-4.13554 6.87372-4.40291 18.6099-19.85057 18.6099-19.85057z" fill-rule="evenodd"/><path d="m297.07592 567.6099s-9.91988 4.38926-14.47436 4.96264c-3.0872.38865-7.59683.64367-10.33884-.8271-1.94658-1.04412-3.69874-3.75106-4.5491-5.78975-1.54018-3.69267-1.65422-13.23371-1.65422-13.23371l2.06778-5.3762-37.63337 7.85751s-6.00808 20.19969-4.96268 28.94876c.70557 5.90411 3.65569 13.98912 7.85754 18.19635 2.86648 2.87014 8.45308 4.46836 12.4066 5.37619 5.68834 1.30622 13.65743 1.63928 19.43705.82712 3.88513-.54598 9.10292-2.01939 12.4066-4.13554 6.87372-4.40291 18.6099-19.85057 18.6099-19.85057z"/><g fill-rule="evenodd"><path d="m290.63346 445.58171 15.41608-8.29099s6.06554-1.42877 8.67963-1.16594c2.0056.20167 4.87286.82845 6.3478 2.2023 1.08292 1.00868 1.67255 3.0792 1.94322 4.53414.19205 1.03234-.12959 3.49777-.12959 3.49777l-6.99552 5.82962-25.00255 21.89341-4.1455-7.25462 3.8864-21.24569z"/><path d="m289.59708 477.0616s20.97942-17.63608 29.20588-25.99822c1.23431-1.25466 3.82859-4.44529 3.82859-4.44529s-4.58486 2.80558-6.73644 2.97958c-1.55387.12558-3.85169.42426-5.18188-.38864-.69956-.42751-1.22054-1.53792-1.42502-2.33185-.43662-1.69528.25909-5.82961.25909-5.82961l-20.85704 20.59796-3.75686 10.2342z"/><path d="m274.33048 606.07038s10.21423-15.91225 11.44291-23.17841c1.67313-9.89441 1.23729-23.50191-.0835-33.44949-1.60717-12.10493-5.86609-28.03186-10.52322-39.32007-3.35852-8.14063-11.71718-17.83626-14.19941-26.2854-1.17065-3.9846-1.35264-8.07051-.69761-12.17153.27251-1.70641 1.04953-3.98002 2.06778-5.3762 3.23536-4.43638 9.37048-9.11991 13.84415-12.30356 6.14425-4.37248 13.35663-9.896 20.06719-13.33676 2.62418-1.34551 10.33884-3.72197 10.33884-3.72197s-6.5373 6.15113-8.27107 9.51173c-1.69699 3.28929-3.0373 8.3117-3.42051 11.99305-.43693 4.19738.0379 9.93813.93919 14.06082 4.5475 20.80078 22.93378 44.59156 27.70808 65.34145 1.08638 4.72157 1.34146 11.31104.82712 16.12859-.50483 4.72828-1.87544 11.11779-4.13554 15.30148-2.84031 5.25767-8.89996 10.77346-13.23371 14.88794-5.7612 5.46967-14.18698 11.9618-20.67769 16.54213-2.5036 1.76672-11.99305 5.3762-11.99305 5.3762z"/></g><path d="m274.33048 606.07038s10.21423-15.91225 11.44291-23.17841c1.67313-9.89441 1.23729-23.50191-.0835-33.44949-1.60717-12.10493-5.86609-28.03186-10.52322-39.32007-3.35852-8.14063-11.71718-17.83626-14.19941-26.2854-1.17065-3.9846-1.35264-8.07051-.69761-12.17153.27251-1.70641 1.04953-3.98002 2.06778-5.3762 3.23536-4.43638 9.37048-9.11991 13.84415-12.30356 6.14425-4.37248 13.35663-9.896 20.06719-13.33676 2.62418-1.34551 10.33884-3.72197 10.33884-3.72197s-6.5373 6.15113-8.27107 9.51173c-1.69699 3.28929-3.0373 8.3117-3.42051 11.99305-.43693 4.19738.0379 9.93813.93919 14.06082 4.5475 20.80078 22.93378 44.59156 27.70808 65.34145 1.08638 4.72157 1.34146 11.31104.82712 16.12859-.50483 4.72828-1.87544 11.11779-4.13554 15.30148-2.84031 5.25767-8.89996 10.77346-13.23371 14.88794-5.7612 5.46967-14.18698 11.9618-20.67769 16.54213-2.5036 1.76672-11.99305 5.3762-11.99305 5.3762z"/></g><g><path d="m739.00332 587.27362s-16.99627-5.91282-22.22441-11.25287c-4.91186-5.01701-7.31888-14.2194-8.72098-21.09914-.74232-3.64241-.36021-8.77724.56265-12.37815 1.28375-5.00907 3.87013-10.85084 6.18908-15.47269 6.72002-13.39353 19.27082-29.88238 22.78706-44.44882.65353-2.70734.11771-6.50103 0-9.28364-.21119-4.99277-.48594-11.68628-1.40661-16.59796-.55106-2.93983-2.81322-9.56495-2.81322-9.56495s14.59505 3.49992 20.53647 5.90775c5.31879 2.15549 11.3732 4.98612 15.47271 9.0023 1.7274 1.69231 3.28904 4.70367 3.9385 7.03305 1.36072 4.88046 1.34056 11.87276.56264 16.87931-.61886 3.98296-1.57035 8.92799-3.09453 12.65948-2.88426 7.06114-10.69023 23.06836-10.69023 23.06836s-6.79598 17.81876-9.28361 25.60028c-1.4403 4.50534-3.80067 10.48-4.21984 15.19137-.24036 2.70187-.072 6.44909.84398 9.00229 1.06707 2.97447 5.90775 8.72098 5.90775 8.72098z" fill-rule="evenodd"/><path d="m739.00332 587.27362s-16.99627-5.91282-22.22441-11.25287c-4.91186-5.01701-7.31888-14.2194-8.72098-21.09914-.74232-3.64241-.36021-8.77724.56265-12.37815 1.28375-5.00907 3.87013-10.85084 6.18908-15.47269 6.72002-13.39353 19.27082-29.88238 22.78706-44.44882.65353-2.70734.11771-6.50103 0-9.28364-.21119-4.99277-.48594-11.68628-1.40661-16.59796-.55106-2.93983-2.81322-9.56495-2.81322-9.56495s14.59505 3.49992 20.53647 5.90775c5.31879 2.15549 11.3732 4.98612 15.47271 9.0023 1.7274 1.69231 3.28904 4.70367 3.9385 7.03305 1.36072 4.88046 1.34056 11.87276.56264 16.87931-.61886 3.98296-1.57035 8.92799-3.09453 12.65948-2.88426 7.06114-10.69023 23.06836-10.69023 23.06836s-6.79598 17.81876-9.28361 25.60028c-1.4403 4.50534-3.80067 10.48-4.21984 15.19137-.24036 2.70187-.072 6.44909.84398 9.00229 1.06707 2.97447 5.90775 8.72098 5.90775 8.72098z"/><path d="m803.98864 594.30664s-5.03988 5.85059-8.15834 8.15834c-2.24693 1.66281-5.56788 3.45081-8.15832 4.50114-3.56702 1.4463-8.55758 2.90834-12.37815 3.37586-3.6869.45117-8.82467.80009-12.37815-.28131-4.50197-1.37002-9.53217-5.51924-13.22213-8.43965-3.22918-2.55573-7.62394-6.32246-10.97155-8.72097-3.4671-2.48411-9.23988-3.9213-12.65948-6.47041-4.1159-3.06814-10.22594-9.42771-12.94079-13.78476-3.23358-5.18955-4.80962-15.72077-4.80962-15.72077s5.05106 9.42409 9.02945 13.18887c2.77548 2.62648 7.30302 5.40097 10.97153 6.4704 4.70219 1.37077 11.43269.93179 16.31666.56265 4.10991-.31063 9.67642-1.00162 13.50345-2.53189 3.45602-1.38193 7.81578-4.0816 10.40891-6.75172 3.50919-3.61342 6.95772-9.62912 8.72096-14.3474 1.22883-3.28823 1.96927-11.5342 1.96927-11.5342l18.84855 17.44195 9.28361 22.78705z" fill-rule="evenodd"/><path d="m803.98864 594.30664s-5.03988 5.85059-8.15834 8.15834c-2.24693 1.66281-5.56788 3.45081-8.15832 4.50114-3.56702 1.4463-8.55758 2.90834-12.37815 3.37586-3.6869.45117-8.82467.80009-12.37815-.28131-4.50197-1.37002-9.53217-5.51924-13.22213-8.43965-3.22918-2.55573-7.62394-6.32246-10.97155-8.72097-3.4671-2.48411-9.23988-3.9213-12.65948-6.47041-4.1159-3.06814-10.22594-9.42771-12.94079-13.78476-1.31683-2.11337-3.03105-6.08576-3.79754-8.98181-1.11569-4.21545-1.11044-6.80559-1.11044-6.80559s.64595.65821 1.47927 2.15921c1.76401 3.1774 4.94655 8.53939 7.64854 11.09629 2.77548 2.62648 7.30302 5.40097 10.97153 6.4704 4.70219 1.37077 11.43269.93179 16.31666.56265 4.10991-.31063 9.67642-1.00162 13.50345-2.53189 3.45602-1.38193 7.81578-4.0816 10.40891-6.75172 3.50919-3.61342 6.95772-9.62912 8.72096-14.3474 1.22883-3.28823 1.96927-11.5342 1.96927-11.5342l18.84855 17.44195 9.28361 22.78705z"/><path d="m771.63664 465.46131s-2.84278-1.66644-6.10248-2.20248c-2.268-.37295-4.88296.23671-6.27568.51455-1.63028.32525-3.01161 1.7145-3.9385 3.09455-1.55353 2.31307-1.40662 8.43963-1.40662 8.43963s-13.23659-10.0491-19.23207-13.88108c-5.02853-3.21398-17.33973-9.74993-17.33973-9.74993s-.43524-5.43093.28132-7.59568c.51493-1.55569 1.76878-3.53801 3.09453-4.50116 1.92278-1.39688 7.59568-2.25056 7.59568-2.25056s10.13542 7.58952 14.91006 10.12757c4.41444 2.34659 11.03467 3.88739 15.47269 6.18908 3.57424 1.85372 8.87968 4.06177 11.25287 7.31437.56718.77734 1.68793 4.50114 1.68793 4.50114z" fill-rule="evenodd"/><path d="m771.63664 465.46131s-2.84278-1.66644-6.10248-2.20248c-2.268-.37295-46.1425-22.71597-44.81675-23.67912 1.92278-1.39688 7.59568-2.25056 7.59568-2.25056s10.13542 7.58952 14.91006 10.12757c4.41444 2.34659 11.03467 3.88739 15.47269 6.18908 3.57424 1.85372 8.87968 4.06177 11.25287 7.31437.56718.77734 1.68793 4.50114 1.68793 4.50114z" fill-rule="evenodd"/><path d="m771.63664 465.46131s-2.84278-1.66644-6.10248-2.20248c-2.268-.37295-4.88296.23671-6.27568.51455-1.63028.32525-3.01161 1.7145-3.9385 3.09455-1.55353 2.31307-1.40662 8.43963-1.40662 8.43963s-13.23659-10.0491-19.23207-13.88108c-5.02853-3.21398-17.33973-9.74993-17.33973-9.74993s-.43524-5.43093.28132-7.59568c.51493-1.55569 1.76878-3.53801 3.09453-4.50116 1.92278-1.39688 7.59568-2.25056 7.59568-2.25056s10.13542 7.58952 14.91006 10.12757c4.41444 2.34659 11.03467 3.88739 15.47269 6.18908 3.57424 1.85372 8.87968 4.06177 11.25287 7.31437.56718.77734 1.68793 4.50114 1.68793 4.50114z"/></g></g><g stroke-width=".165"><g style="clip-rule:evenodd;fill-rule:evenodd;image-rendering:optimizeQuality;shape-rendering:geometricPrecision;text-rendering:geometricPrecision;fill:#ffd42a;stroke:#c87137;stroke-width:2.351796" transform="matrix(-.03455222 0 0 .03604278 90.836011 31.707541)"><path d="m91.4375 423.96875c-1.550904.0283-2.82451 1.23421-2.9375 2.78125-8.216589 93.68428-11.146042 190.23572.875 285.5l.0625.4375.1875.4375c10.51806 22.99427 28.30002 62.28981 55.03125 95.28125 15.31064 18.89629 36.04467 34.05441 57.78125 46.625 1.44112.82843 3.28095.33174 4.10938-1.10937.82842-1.44112.33174-3.28095-1.10938-4.10938-21.35832-12.35183-41.4982-27.10395-56.125-45.15625-25.93499-32.00872-43.48309-70.53131-54.03125-93.59375-11.879011-94.50323-8.964815-190.4735-.78125-283.78125.09019-.85922-.194374-1.71563-.780868-2.35s-1.417983-.98513-2.281632-.9625z" fill-rule="evenodd" stroke-linecap="round"/><path d="m97.589507 401.44988c-6.134114 8.39811-15.722959 12.15756-7.574629 37.00302 11.391662-12.32974 9.676089-13.83912 7.574629-37.00302z"/><path d="m100.13632 575.68566c-7.353898 7.30196-18.968104 10.49203-12.141204 33.70969 10.420106-10.72126 11.756964-12.43944 12.141204-33.70969z"/><path d="m71.473297 578.5151c8.723871 5.9161 13.608942 5.74543 15.44352 30.45259-12.702107-12.66199-12.530006-10.63086-15.44352-30.45259z"/><path d="m101.2047 593.54174c-6.989352 7.75976-16.925899 10.56945-11.442789 36.07797 12.635019-11.16102 11.087629-12.82912 11.442789-36.07797z"/><path d="m103.50612 616.01011c-9.114703 6.5219-17.289464 6.70804-11.857315 29.08466 8.136006-10.41315 11.454745-8.75011 11.857315-29.08466z"/><path d="m105.36896 631.8753c-6.992195 7.58484-16.929994 10.31739-11.455381 35.30392 12.639191-10.9046 11.092321-12.54077 11.455381-35.30392z"/><path d="m109.49427 651.4031c-8.11503 7.22253-19.623902 9.69919-13.365338 33.97391 14.013578-12.0305 7.417918-16.72383 13.365338-33.97391z"/><path d="m71.470004 595.70903c5.164165 6.67881 17.478537 8.48739 17.264995 32.84547-14.831891-14.01182-14.725794-11.86956-17.264995-32.84547z"/><path d="m72.26948 614.96487c5.521459 6.32693 18.718575 8.17062 18.43666 31.01785-15.869348-13.32137-15.760266-11.31051-18.43666-31.01785z"/><path d="m73.737673 632.07819c5.710751 6.80439 19.350464 8.74011 19.076038 33.39369-16.409783-14.3094-16.295568-12.14009-19.076038-33.39369z"/><path d="m74.606393 652.33158c6.122018 4.10763 20.73376 1.05456 19.946918 31.5392-12.258704-6.58564-11.120676-15.66384-19.946918-31.5392z"/><path d="m99.160393 528.01421c-7.514669 7.29464-17.62487 9.46147-13.932246 35.26424 13.384821-10.32662 11.957176-12.09012 13.932246-35.26424z"/><path d="m100.56721 556.25716c-9.548981 5.92339-17.718443 5.5854-13.858338 28.26 8.843731-9.86864 12.039118-7.9967 13.858338-28.26z"/><path d="m69.341085 528.27171c4.687033 6.99472 16.847798 9.58817 14.936703 33.87812-13.821954-14.9307-13.865434-12.78643-14.936703-33.87812z"/><path d="m70.30651 553.84741c5.068058 6.66652 18.107146 9.35155 16.233154 32.12965-14.905224-14.30825-14.936565-12.2949-16.233154-32.12965z"/><path d="m99.469077 510.05269c-8.387289 6.1943-20.362914 7.72444-17.14562 31.64888 11.941449-9.14776 13.525686-10.66039 17.14562-31.64888z"/><path d="m70.682293 508.83958c7.729249 7.07385 12.587957 7.58882 10.639562 32.28797-10.637335-14.30431-10.776453-12.27086-10.639562-32.28797z"/><path d="m105.76476 462.75557c-8.545218 6.16456-18.877102 6.89295-19.154246 32.93606 14.814276-8.34235 13.670546-10.28679 19.154246-32.93606z"/><path d="m102.85463 490.89274c-10.348864 4.52325-18.379284 3.04533-18.01427 26.01723 10.252102-8.52493 13.128113-6.22577 18.01427-26.01723z"/><path d="m76.225837 458.83624c3.571385 7.57583 15.206786 11.84374 9.616411 35.60583-11.399616-16.70545-11.769238-14.59025-9.616411-35.60583z"/><path d="m73.285311 484.27296c3.998317 7.30449 16.488677 11.78593 11.165288 34.05758-12.566086-16.24131-12.903758-14.25393-11.165288-34.05758z"/><path d="m106.68338 446.15966c-10.348868 4.52325-18.379288 3.04533-18.014274 26.01723 10.252102-8.52493 13.128114-6.22577 18.014274-26.01723z"/><path d="m77.114057 439.53988c3.998317 7.30449 16.488677 11.78593 11.165288 34.05758-12.566086-16.24131-12.903758-14.25393-11.165288-34.05758z"/><path d="m108.35846 425.97242c-10.348872 4.52325-18.379292 3.04533-18.014278 26.01723 10.252098-8.52493 13.128118-6.22577 18.014278-26.01723z"/><path d="m78.789133 419.35264c3.998317 7.30449 16.488677 11.78593 11.165288 34.05758-12.566086-16.24131-12.903758-14.25393-11.165288-34.05758z"/></g><g fill="#2d8552" stroke="#13562f" stroke-width=".082994" transform="translate(.118609 -.074795)"><path d="m87.078081 58.289814s.958829 1.333005.04677 2.689399c0 0-.04677-1.438244-.327402-2.186599z"/><path d="m86.27126 59.552662c0-.935445-.187087-3.133736.245555-4.057486 0 0 .760049 2.338609.561267 3.484527z"/><path d="m84.821325 62.16021c.105236-.45603 1.601946-5.285256 3.706694-6.103768 0 0-.245553 2.478925-.444335 2.853103 0 0-.561266-.350792-.584652-.68989 0 0-.818514 2.724478-2.677707 3.940555z"/></g></g><g stroke-width=".165" transform="matrix(-1 0 0 1 159.02414 0)"><g style="clip-rule:evenodd;fill-rule:evenodd;image-rendering:optimizeQuality;shape-rendering:geometricPrecision;text-rendering:geometricPrecision;fill:#ffd42a;stroke:#c87137;stroke-width:2.351796" transform="matrix(-.03455222 0 0 .03604278 90.836011 31.707541)"><path d="m91.4375 423.96875c-1.550904.0283-2.82451 1.23421-2.9375 2.78125-8.216589 93.68428-11.146042 190.23572.875 285.5l.0625.4375.1875.4375c10.51806 22.99427 28.30002 62.28981 55.03125 95.28125 15.31064 18.89629 36.04467 34.05441 57.78125 46.625 1.44112.82843 3.28095.33174 4.10938-1.10937.82842-1.44112.33174-3.28095-1.10938-4.10938-21.35832-12.35183-41.4982-27.10395-56.125-45.15625-25.93499-32.00872-43.48309-70.53131-54.03125-93.59375-11.879011-94.50323-8.964815-190.4735-.78125-283.78125.09019-.85922-.194374-1.71563-.780868-2.35s-1.417983-.98513-2.281632-.9625z" fill-rule="evenodd" stroke-linecap="round"/><path d="m97.589507 401.44988c-6.134114 8.39811-15.722959 12.15756-7.574629 37.00302 11.391662-12.32974 9.676089-13.83912 7.574629-37.00302z"/><path d="m100.13632 575.68566c-7.353898 7.30196-18.968104 10.49203-12.141204 33.70969 10.420106-10.72126 11.756964-12.43944 12.141204-33.70969z"/><path d="m71.473297 578.5151c8.723871 5.9161 13.608942 5.74543 15.44352 30.45259-12.702107-12.66199-12.530006-10.63086-15.44352-30.45259z"/><path d="m101.2047 593.54174c-6.989352 7.75976-16.925899 10.56945-11.442789 36.07797 12.635019-11.16102 11.087629-12.82912 11.442789-36.07797z"/><path d="m103.50612 616.01011c-9.114703 6.5219-17.289464 6.70804-11.857315 29.08466 8.136006-10.41315 11.454745-8.75011 11.857315-29.08466z"/><path d="m105.36896 631.8753c-6.992195 7.58484-16.929994 10.31739-11.455381 35.30392 12.639191-10.9046 11.092321-12.54077 11.455381-35.30392z"/><path d="m109.49427 651.4031c-8.11503 7.22253-19.623902 9.69919-13.365338 33.97391 14.013578-12.0305 7.417918-16.72383 13.365338-33.97391z"/><path d="m71.470004 595.70903c5.164165 6.67881 17.478537 8.48739 17.264995 32.84547-14.831891-14.01182-14.725794-11.86956-17.264995-32.84547z"/><path d="m72.26948 614.96487c5.521459 6.32693 18.718575 8.17062 18.43666 31.01785-15.869348-13.32137-15.760266-11.31051-18.43666-31.01785z"/><path d="m73.737673 632.07819c5.710751 6.80439 19.350464 8.74011 19.076038 33.39369-16.409783-14.3094-16.295568-12.14009-19.076038-33.39369z"/><path d="m74.606393 652.33158c6.122018 4.10763 20.73376 1.05456 19.946918 31.5392-12.258704-6.58564-11.120676-15.66384-19.946918-31.5392z"/><path d="m99.160393 528.01421c-7.514669 7.29464-17.62487 9.46147-13.932246 35.26424 13.384821-10.32662 11.957176-12.09012 13.932246-35.26424z"/><path d="m100.56721 556.25716c-9.548981 5.92339-17.718443 5.5854-13.858338 28.26 8.843731-9.86864 12.039118-7.9967 13.858338-28.26z"/><path d="m69.341085 528.27171c4.687033 6.99472 16.847798 9.58817 14.936703 33.87812-13.821954-14.9307-13.865434-12.78643-14.936703-33.87812z"/><path d="m70.30651 553.84741c5.068058 6.66652 18.107146 9.35155 16.233154 32.12965-14.905224-14.30825-14.936565-12.2949-16.233154-32.12965z"/><path d="m99.469077 510.05269c-8.387289 6.1943-20.362914 7.72444-17.14562 31.64888 11.941449-9.14776 13.525686-10.66039 17.14562-31.64888z"/><path d="m70.682293 508.83958c7.729249 7.07385 12.587957 7.58882 10.639562 32.28797-10.637335-14.30431-10.776453-12.27086-10.639562-32.28797z"/><path d="m105.76476 462.75557c-8.545218 6.16456-18.877102 6.89295-19.154246 32.93606 14.814276-8.34235 13.670546-10.28679 19.154246-32.93606z"/><path d="m102.85463 490.89274c-10.348864 4.52325-18.379284 3.04533-18.01427 26.01723 10.252102-8.52493 13.128113-6.22577 18.01427-26.01723z"/><path d="m76.225837 458.83624c3.571385 7.57583 15.206786 11.84374 9.616411 35.60583-11.399616-16.70545-11.769238-14.59025-9.616411-35.60583z"/><path d="m73.285311 484.27296c3.998317 7.30449 16.488677 11.78593 11.165288 34.05758-12.566086-16.24131-12.903758-14.25393-11.165288-34.05758z"/><path d="m106.68338 446.15966c-10.348868 4.52325-18.379288 3.04533-18.014274 26.01723 10.252102-8.52493 13.128114-6.22577 18.014274-26.01723z"/><path d="m77.114057 439.53988c3.998317 7.30449 16.488677 11.78593 11.165288 34.05758-12.566086-16.24131-12.903758-14.25393-11.165288-34.05758z"/><path d="m108.35846 425.97242c-10.348872 4.52325-18.379292 3.04533-18.014278 26.01723 10.252098-8.52493 13.128118-6.22577 18.014278-26.01723z"/><path d="m78.789133 419.35264c3.998317 7.30449 16.488677 11.78593 11.165288 34.05758-12.566086-16.24131-12.903758-14.25393-11.165288-34.05758z"/></g><g fill="#2d8552" stroke="#13562f" stroke-width=".082994" transform="translate(.118609 -.074795)"><path d="m87.078081 58.289814s.958829 1.333005.04677 2.689399c0 0-.04677-1.438244-.327402-2.186599z"/><path d="m86.27126 59.552662c0-.935445-.187087-3.133736.245555-4.057486 0 0 .760049 2.338609.561267 3.484527z"/><path d="m84.821325 62.16021c.105236-.45603 1.601946-5.285256 3.706694-6.103768 0 0-.245553 2.478925-.444335 2.853103 0 0-.561266-.350792-.584652-.68989 0 0-.818514 2.724478-2.677707 3.940555z"/></g></g><g fill-rule="evenodd"><g fill="#fc0" stroke="#0d0d0d" stroke-linecap="round" stroke-linejoin="bevel" stroke-width=".210294" transform="matrix(.12311088 .37496407 .37496407 -.12311088 .484033 23.462042)"><path d="m151.90925 150.76216c-1.70724-1.45489-2.23903-5.02174-2.53617-6.85627.55263 1.01304.87171 2.55993 1.78392 2.7511z" fill="#2d8552" stroke="#13562f"/><path d="m151.55867 150.45818c-.26384-1.99292-.82223-3.69129-.77374-5.99655.0831-.93025 1.3675-.91996 1.65496-.38687.87387 1.28006 1.23981 2.64477 1.80541 3.9762l-.64479 5.73864z" fill="#ffd42a" stroke="#c87137"/><g fill="#2d8552" stroke="#13562f"><path d="m152.01672 152.97594c-2.32064-2.29259-2.31356-4.58518-2.92305-6.87777.81994 1.69489 1.4778 3.61669 2.83707 4.55652z"/><path d="m152.08809 152.91413c-.81337-.15169-1.3314.87649-1.06385 1.88454.43544 1.01877 1.22907 1.23163 1.97572 1.55018-.31109-.51995-.93026-.91668-.88147-1.58058.73963.40614 1.47925.57641 2.21888.57752z"/><path d="m153.09137 152.22368c1.04154-2.63831.5561-5.34602.40836-8.03839.47903.70637.98695 2.59071 1.53848 4.60177.1286.46891-.19932.92545-.14143 1.3518l-.85972 3.33142z"/><path d="m153.86511 152.95444c.87017-1.56958 1.05187-3.08266 1.31108-5.41624.14397 2.00067.48656 4.65972.36538 5.8461-.13063.63199-.19802 1.31458-.88121 1.50451z"/><path d="m156.03953 158.02061c-.53991-.92778-1.14257-1.83465-1.85414-2.70522-.98067-.52828-2.15982-1.53171-2.24928-3.03957-.007-1.43641-.47782-2.38797-.66718-3.55629.52686 1.03852 1.27595 2.04115 1.70064 3.13075.21681.61024.53912 1.13005 1.15503 1.39821.89125.65981.63617 1.24798.66871 1.85413.5566.75968.91408 1.45298 1.30701 2.1581l-.79028-4.01223c.11732-.34286.39318-.36868.6687-.39515.24608-.20248.4952-.3837.82068-.0304l.42554 2.27967.51673 4.19461z"/></g></g><g fill="#fc0" stroke="#0d0d0d" stroke-linecap="round" stroke-linejoin="bevel" stroke-width=".210294" transform="matrix(-.12311088 .37496407 -.37496407 -.12311088 158.54011 23.462042)"><path d="m151.90925 150.76216c-1.70724-1.45489-2.23903-5.02174-2.53617-6.85627.55263 1.01304.87171 2.55993 1.78392 2.7511z" fill="#2d8552" stroke="#13562f"/><path d="m151.55867 150.45818c-.26384-1.99292-.82223-3.69129-.77374-5.99655.0831-.93025 1.3675-.91996 1.65496-.38687.87387 1.28006 1.23981 2.64477 1.80541 3.9762l-.64479 5.73864z" fill="#ffd42a" stroke="#c87137"/><g fill="#2d8552" stroke="#13562f"><path d="m152.01672 152.97594c-2.32064-2.29259-2.31356-4.58518-2.92305-6.87777.81994 1.69489 1.4778 3.61669 2.83707 4.55652z"/><path d="m152.08809 152.91413c-.81337-.15169-1.3314.87649-1.06385 1.88454.43544 1.01877 1.22907 1.23163 1.97572 1.55018-.31109-.51995-.93026-.91668-.88147-1.58058.73963.40614 1.47925.57641 2.21888.57752z"/><path d="m153.09137 152.22368c1.04154-2.63831.5561-5.34602.40836-8.03839.47903.70637.98695 2.59071 1.53848 4.60177.1286.46891-.19932.92545-.14143 1.3518l-.85972 3.33142z"/><path d="m153.86511 152.95444c.87017-1.56958 1.05187-3.08266 1.31108-5.41624.14397 2.00067.48656 4.65972.36538 5.8461-.13063.63199-.19802 1.31458-.88121 1.50451z"/><path d="m156.03953 158.02061c-.53991-.92778-1.14257-1.83465-1.85414-2.70522-.98067-.52828-2.15982-1.53171-2.24928-3.03957-.007-1.43641-.47782-2.38797-.66718-3.55629.52686 1.03852 1.27595 2.04115 1.70064 3.13075.21681.61024.53912 1.13005 1.15503 1.39821.89125.65981.63617 1.24798.66871 1.85413.5566.75968.91408 1.45298 1.30701 2.1581l-.79028-4.01223c.11732-.34286.39318-.36868.6687-.39515.24608-.20248.4952-.3837.82068-.0304l.42554 2.27967.51673 4.19461z"/></g></g><g fill="#fc0" stroke="#0d0d0d" stroke-linecap="round" stroke-linejoin="bevel" stroke-width=".210294" transform="matrix(.37496407 .12311088 -.12311088 .37496407 40.651571 -12.546355)"><path d="m151.90925 150.76216c-1.70724-1.45489-2.23903-5.02174-2.53617-6.85627.55263 1.01304.87171 2.55993 1.78392 2.7511z" fill="#2d8552" stroke="#13562f"/><path d="m151.55867 150.45818c-.26384-1.99292-.82223-3.69129-.77374-5.99655.0831-.93025 1.3675-.91996 1.65496-.38687.87387 1.28006 1.23981 2.64477 1.80541 3.9762l-.64479 5.73864z" fill="#ffd42a" stroke="#c87137"/><g fill="#2d8552" stroke="#13562f"><path d="m152.01672 152.97594c-2.32064-2.29259-2.31356-4.58518-2.92305-6.87777.81994 1.69489 1.4778 3.61669 2.83707 4.55652z"/><path d="m152.08809 152.91413c-.81337-.15169-1.3314.87649-1.06385 1.88454.43544 1.01877 1.22907 1.23163 1.97572 1.55018-.31109-.51995-.93026-.91668-.88147-1.58058.73963.40614 1.47925.57641 2.21888.57752z"/><path d="m153.09137 152.22368c1.04154-2.63831.5561-5.34602.40836-8.03839.47903.70637.98695 2.59071 1.53848 4.60177.1286.46891-.19932.92545-.14143 1.3518l-.85972 3.33142z"/><path d="m153.86511 152.95444c.87017-1.56958 1.05187-3.08266 1.31108-5.41624.14397 2.00067.48656 4.65972.36538 5.8461-.13063.63199-.19802 1.31458-.88121 1.50451z"/><path d="m156.03953 158.02061c-.53991-.92778-1.14257-1.83465-1.85414-2.70522-.98067-.52828-2.15982-1.53171-2.24928-3.03957-.007-1.43641-.47782-2.38797-.66718-3.55629.52686 1.03852 1.27595 2.04115 1.70064 3.13075.21681.61024.53912 1.13005 1.15503 1.39821.89125.65981.63617 1.24798.66871 1.85413.5566.75968.91408 1.45298 1.30701 2.1581l-.79028-4.01223c.11732-.34286.39318-.36868.6687-.39515.24608-.20248.4952-.3837.82068-.0304l.42554 2.27967.51673 4.19461z"/></g></g><path d="m79.500951 65.510684c-.674681 0-1.155081.0018-2.235531-.320163-.39588-.117986-1.129896-.418102-1.777065-.841914-.802709-.52567-1.511394-1.190266-1.742709-1.327356-.238495-.141347-.606393-.227725-.846939-.36425-.0962-.0546-.186759-.08365-.315089-.185952-.139899-.111527-.259694-.223849-.293376-.369916-.03507-.152071.05873-.321242.107959-.449099.01519-.03946.08722-.192606.08722-.192606s-.117573.07746-.21201.185295c-.07532.086-.124527.257505-.131363.326962-.03558.361448.119519.835119.152474 1.178733.03049.317914-.06405.512546-.02191.689539.02992.125665.09888.263687.253645.318468.230907.08173.553358.165537.745367.295799.477145.323702.668189.761712 1.462564 1.360526.327416.246813.962263.573728 1.208665.691129.484375.230785 1.058658.426035 1.804242.551874.820384.138464 1.79828.162214 1.759635.162214-.03865 0 .927683-.02375 1.748066-.162214.745585-.125839 1.319868-.321089 1.804244-.551874.246401-.117401.881247-.444316 1.208664-.691129.794375-.598814.985419-1.036824 1.462564-1.360526.192009-.130262.514459-.214067.745367-.295799.154765-.05478.223722-.192803.253646-.318467.08769-.368296.199064-1.172412.130568-1.868273-.0068-.06946-.05605-.240964-.131364-.326962-.09444-.107831-.212008-.185295-.212008-.185295s.01675.143918.03194.183383c.04922.127857.143024.297027.107959.449098-.03368.146067-.0982.267613-.238096.37914-.12833.102305-.218883.13135-.31509.185953-.240547.136524-.608444.222902-.846939.364249-.231315.13709-.94.801687-1.742709 1.327356-.647169.423812-1.381184.723928-1.777065.841915-1.08045.322011-1.56085.320162-2.235531.320162z" fill="#db2a1e" stroke="#500" stroke-width=".082994"/></g></g><path d="m75.179518 66.145832s1.091406.826823 4.332552.826823 4.332552-.826823 4.332552-.826823" fill="none"/><path d="m410.58984 372.68945-2.67773 1.34961 1.16406 10.33008 2.25586-1.13672-.24609-1.86523 3.51172-1.76953 1.34765 1.31054 2.25586-1.13672zm-73.22851.48828c-.49859.009-.98052.0953-1.44531.25977-1.23765.43448-2.17869 1.36098-2.82032 2.78125-.63983 1.41631-.71293 2.73521-.22265 3.95508.49207 1.2159 1.47725 2.15766 2.95703 2.82617.4959.22403.99749.38349 1.5039.47852.50642.095 1.01801.12782 1.53711.0996l.83203-1.83789c-.55533.0978-1.07139.11987-1.54492.0684-.47353-.0515-.93829-.18061-1.39453-.38671-.81725-.36921-1.34071-.92109-1.57226-1.65626-.23156-.73516-.14058-1.56012.27343-2.47656.41581-.9204.97693-1.53742 1.68164-1.84961.70472-.31219 1.464-.28326 2.28125.0859.45624.20611.86124.46974 1.21289.79102.35166.32128.67314.72174.9668 1.20312l.83203-1.83789c-.32195-.40818-.68574-.7707-1.09179-1.08789s-.85761-.58847-1.35352-.8125c-.92486-.41782-1.80183-.6181-2.63281-.60352zm67.52734 1.94141-2.4082.7207 2.79687 9.33985 2.41016-.72266zm5.39453.28516 2.9336 2.86328-2.38477 1.20312zm-64.02929.40429c-1.05679-.0805-1.98918.12702-2.79688.625-1.07269.665-1.79365 1.76605-2.16211 3.30274-.36744 1.53246-.22481 2.83884.42969 3.91797.65873 1.08014 1.74782 1.80162 3.26758 2.16601 1.52399.36541 2.82379.21578 3.89648-.44922 1.07269-.66499 1.79272-1.76441 2.16016-3.29687.36846-1.53669.22481-2.8447-.42969-3.92383s-1.74359-1.8006-3.26758-2.16601c-.37994-.0911-.74539-.14896-1.09765-.17579zm32.86914.3711-1.84766.0273-1.26758 1.74219 1.2793-.0195zm18.81054.89648c-.6944.009-1.5868.11692-2.67773.32227l-2.60547.49023 1.80469 9.58008 2.60547-.49023c1.43746-.27058 2.4957-.57538 3.17578-.91602.67927-.34492 1.22847-.8153 1.64844-1.4082.36787-.51665.60881-1.07781.7207-1.6836.11108-.61006.097-1.27503-.0391-1.99804-.13449-.71446-.36302-1.33378-.6875-1.85743-.32449-.52364-.75266-.9591-1.28321-1.30664-.60251-.40043-1.28009-.63616-2.0332-.70703-.18741-.019-.39744-.0283-.62891-.0254zm-44.94531.28906-1.1875 9.67774 2.36524.29101.81445-6.63671 2.70508 7.06835 2.78711.3418 1.1875-9.67578-2.36524-.29102-.8164 6.63672-2.70313-7.06836zm-6.60156.31641c.17361.005.3528.0296.53906.0742.7493.17966 1.26429.5934 1.54297 1.24219s.29814 1.47359.0586 2.47265c-.23853.99483-.62929 1.71805-1.17187 2.16992-.54259.45188-1.18821.58787-1.9375.40821-.74506-.17865-1.25648-.59145-1.53516-1.24024-.27867-.64879-.29908-1.47196-.0605-2.46679.23954-.99906.62928-1.72391 1.17187-2.17578.40694-.33891.87175-.50014 1.39258-.48438zm41.66211.6582c-.27936-.003-.5786.0111-.89844.0391l-3.82422.33398.84961 9.71289 2.50391-.21875-.32227-3.67578.70899-.0625c.40765-.0356.74159.0251 1 .18164.26274.15619.5354.46678.8164.93164l1.39453 2.30859 2.66602-.23242-1.59961-2.63867c-.32648-.53517-.63844-.92841-.93555-1.17773-.29315-.25404-.61541-.40503-.96484-.45313.60742-.24977 1.04843-.59428 1.32031-1.0332.27622-.4393.38621-.97926.33008-1.62109-.0812-.92807-.44015-1.58004-1.07617-1.95704-.47376-.28303-1.13068-.42967-1.96875-.4375zm-19.92188.23243c-1.62196-.0768-2.92896.31766-3.91992 1.18164-.99075.85962-1.524 2.0663-1.59765 3.62304-.0734 1.55239.34308 2.80609 1.24804 3.75977.90517.94933 2.16905 1.46232 3.79102 1.53906.54355.0257 1.06839-.009 1.57422-.10742.50583-.0981.99454-.25725 1.46679-.47461l.0957-2.01563c-.48031.29543-.95093.50637-1.41016.63282s-.93938.17795-1.43945.15429c-.89578-.0424-1.58631-.36266-2.07227-.96093s-.70378-1.39981-.65625-2.4043c.0477-1.00884.34059-1.78817.88086-2.33789s1.25852-.80215 2.1543-.75977c.50007.0237.97272.11982 1.41797.28907.44524.16924.89348.42422 1.34375.76367l.0957-2.01563c-.44962-.26097-.92171-.46396-1.41602-.60937-.49431-.14542-1.01308-.2321-1.55664-.25781zm9.00782.11132c-1.56268.0225-2.78267.48893-3.66211 1.39844-.8751.90945-1.30201 2.15429-1.2793 3.73438.0226 1.57573.48389 2.80553 1.38476 3.68945.90523.88386 2.14046 1.31348 3.70313 1.29102 1.56703-.0225 2.78702-.48704 3.66211-1.39649s1.30195-2.15278 1.2793-3.72851c-.0227-1.58009-.4839-2.81139-1.38477-3.69532-.90087-.88392-2.1361-1.31549-3.70312-1.29297zm19.94726.35157c.68732-.033 1.26645.0992 1.73438.39648.6239.39641 1.02435 1.06978 1.20312 2.01953.17958.95403.0499 1.73083-.39062 2.33203-.43628.60041-1.16028.99745-2.16993 1.1875l-.88476.16602-1.10156-5.8457.88672-.16797c.25348-.0477.49355-.0769.72265-.0879zm-10.03906 1.18164c.52475-.0459.90819.0164 1.15039.1875.24653.17071.38905.47757.42773.91992.0391.44668-.047.77693-.25976.99219-.20845.21487-.57486.34668-1.09961.39257l-1.05469.0918-.21875-2.49219zm-9.88086.28906c.77045-.0111 1.37042.26246 1.80078.82226.43036.55981.6532 1.35359.66797 2.38086.0147 1.02292-.18552 1.82064-.59961 2.39258s-1.00689.86393-1.77734.875c-.76611.011-1.36457-.26441-1.79493-.82422-.43036-.5598-.65131-1.35012-.66601-2.37304-.0148-1.02728.18356-1.82845.59765-2.40039.4141-.57194 1.00539-.86204 1.77149-.87305z" stroke-width="2.96407" transform="matrix(.08926353 0 0 .08926353 46.121691 32.252276)"/><g transform="translate(-53.525043 -41.162333)"><path d="m503.22852 356.29883a19.435556 19.435556 0 0 1 -19.4336 19.4375c3.88919 6.69609 11.13234 11.20312 19.4336 11.20312 9.80846 0 18.14358-6.28782 21.20703-15.05078-.47202 1.34539-1.0675 2.63233-1.77344 3.84766a19.435556 19.435556 0 0 1 -19.43359-19.4375zm-22.45899 8.38281c.004.38958.0159.77556.0391 1.16016-.0232-.384-.0355-.77113-.0391-1.16016zm44.91797.0312c-.004.36535-.0159.72893-.0371 1.08984.0211-.36098.0333-.72447.0371-1.08984zm-44.84766 1.54297c.0263.33475.0588.66758.0996.99805-.0411-.33035-.0731-.66338-.0996-.99805zm44.77344.0606c-.0246.30107-.0553.60087-.0918.89843.0362-.29772.0673-.59724.0918-.89843zm-.15234 1.37304c-.0525.36362-.11389.72429-.1836 1.08203.0694-.358.13145-.71817.1836-1.08203zm-.22461 1.3125c-.0926.45019-.20115.89408-.32031 1.33399.1186-.43991.2282-.88383.32031-1.33399zm-.37305 1.52149c-.10825.38616-.22545.76901-.35351 1.14648.12775-.37794.24563-.75983.35351-1.14648zm-43.26758.006c.1123.40193.23539.7989.36914 1.1914-.13398-.39186-.25654-.79014-.36914-1.1914z" fill="#1a4e9f" transform="scale(.26458333)"/><path d="m127.20171 88.693545v7.740096c0 1.086472.29348 2.103816.80253 2.98018a5.1423243 5.1423243 134.99427 0 0 5.14181-5.142838v-5.577438z" fill="#db2a1e" fill-rule="evenodd"/><path d="m139.09039 88.693545v7.740096c0 1.086472-.29348 2.103816-.80253 2.98018a5.1423243 5.1423243 45.00573 0 1 -5.14181-5.142838v-5.577438z" fill="#2d8552" fill-rule="evenodd"/><g fill="#f9f9f9"><path d="m490.66016 379.11133c-.89197.0417-1.96208.39193-2.86524.72461-.37852.13931-.40439.16213-.67773.27539.31065.32028.63185.63025.96093.93164.0742-.0281.0612-.0281.13868-.0566.85765-.31589 1.91432-.62915 2.49414-.65625.5913-.0274 1.23026.17052 1.93359.40625.70375.2358 1.46981.51189 2.32617.50781.84968-.004 1.58163-.27598 2.24414-.50781.66229-.23188 1.25125-.42507 1.83008-.40625.55529.0175 1.1868.28347 1.89063.58984.70329.30614 1.48656.65039 2.39062.65039.90395 0 1.6814-.3441 2.38477-.65039.70352-.30625 1.33458-.57178 1.89062-.58984.57956-.0183 1.16806.17453 1.83008.40625.66259.23199 1.39454.50384 2.24414.50781.85633.004 1.62043-.27189 2.32422-.50781.7036-.23577 1.34469-.43388 1.93555-.40625.57929.0268 1.63626.34036 2.49414.65625.001.00048.00063.001.002.002.32818-.30251.64737-.61418.95703-.93555-.2373-.0963-.23442-.10746-.53125-.21679-.90297-.33253-1.97074-.68334-2.86328-.72461-.88097-.0412-1.67172.2259-2.38476.46484-.71286.23894-1.35236.44604-1.92579.44336-.58004-.003-1.17616-.20895-1.8457-.44336-.67011-.23456-1.41477-.4919-2.27344-.46484-.8821.0286-1.64377.38449-2.33984.6875-.69627.30319-1.3241.55273-1.89844.55273-.5743 0-1.20795-.24961-1.90429-.55273-.69574-.30282-1.44914-.65965-2.33204-.6875-.85935-.0279-1.60363.23032-2.27343.46484-.66966.23433-1.27348.4406-1.85352.44336-.57328.003-1.21289-.20449-1.92578-.44336-.71327-.23905-1.4964-.50555-2.37695-.46484z" transform="scale(.26458333)"/><path d="m490.66016 381.42188c-.54061.0253-1.13809.17628-1.73243.35742.39537.32747.80128.64119 1.21875.9414.213-.0436.40783-.0728.56446-.0801.5913-.0273 1.23026.17053 1.93359.40626.70375.2358 1.46981.51189 2.32617.50781.84968-.004 1.58163-.27598 2.24414-.50781.66229-.23192 1.25125-.42504 1.83008-.40626.55529.0175 1.1868.28352 1.89063.58985.70329.30614 1.48656.6582 2.39062.6582.90395 0 1.6814-.35187 2.38477-.6582.70352-.30622 1.33458-.57178 1.89062-.58985.57956-.0183 1.16806.17453 1.83008.40626.66259.23194 1.39454.5038 2.24414.50781.85633.004 1.62043-.2719 2.32422-.50781.7036-.23577 1.34469-.43385 1.93555-.40626.12058.006.27179.0287.42773.0566.42315-.30573.83214-.62717 1.23242-.96094-.55089-.16169-1.10115-.29134-1.60156-.31445-.88097-.0412-1.67172.2259-2.38476.46484-.71286.23894-1.35236.44608-1.92579.44336-.58004-.003-1.17616-.20114-1.8457-.43555-.67011-.23452-1.41477-.49975-2.27344-.47265-.8821.0286-1.64377.38449-2.33984.6875-.69627.30319-1.3241.55273-1.89844.55273-.5743 0-1.20795-.24962-1.90429-.55273-.69574-.30282-1.44914-.65965-2.33204-.6875-.85935-.0279-1.60363.23813-2.27343.47265-.66966.23433-1.27348.43283-1.85352.43555-.57328.003-1.21289-.2045-1.92578-.44336-.71327-.23906-1.4964-.50555-2.37695-.46484z" transform="scale(.26458333)"/><path d="m499.08984 383.73242c-.85935-.0279-1.60363.23814-2.27343.47266-.66966.23433-1.27348.44064-1.85352.44336-.57328.003-1.21289-.21227-1.92578-.45117-.37037-.12414-.76192-.25163-1.17383-.34375 1.29316.761 2.67109 1.3904 4.11328 1.88281.44084-.1018.85369-.24432 1.23828-.37891.66229-.23187 1.25125-.41726 1.83008-.39844.55529.0175 1.1868.2757 1.89063.58204.70329.30614 1.48656.6582 2.39062.6582.90395 0 1.6814-.35191 2.38477-.6582.70352-.30626 1.33458-.56401 1.89062-.58204.57956-.0183 1.16806.16676 1.83008.39844.34876.12211.71906.25379 1.11328.35352 1.33472-.46004 2.60709-1.04702 3.81446-1.73828-.25442.0733-.51313.14523-.75.22461-.71286.23894-1.35236.45389-1.92579.45117-.58004-.003-1.17616-.20896-1.8457-.44336-.67011-.23456-1.41477-.49976-2.27344-.47266-.8821.0287-1.64377.39036-2.33984.69336-.69627.30319-1.3241.54688-1.89844.54688-.5743 0-1.20795-.24376-1.90429-.54688-.69574-.30281-1.44914-.66554-2.33204-.69336z" transform="scale(.26458333)"/><path d="m133.14587 97.052943.10146.306848.32318.0017-.26048.191307.0983.307877-.26244-.188612-.26243.188612.0983-.307877-.26048-.191307.32318-.0017z" fill-rule="evenodd" stroke-miterlimit="6.3" stroke-width="3.214"/><path d="m132.41827 98.003795.10146.306847.32318.0017-.26048.191308.0983.307877-.26244-.188613-.26243.188613.0983-.307877-.26048-.191308.32318-.0017z" fill-rule="evenodd" stroke-miterlimit="6.3" stroke-width="3.214"/><path d="m133.32777 99.334972.10146.306847.32318.0017-.26048.191308.0983.307877-.26244-.188613-.26243.188613.0983-.307877-.26048-.191308.32318-.0017z" fill-rule="evenodd" stroke-miterlimit="6.3" stroke-width="3.214"/><path d="m133.99751 97.937648.10146.306847.32317.0017-.26047.191308.0983.307877-.26244-.188612-.26243.188612.0983-.307877-.26048-.191308.32318-.0017z" fill-rule="evenodd" stroke-miterlimit="6.3" stroke-width="3.214"/><path d="m130.97961 98.805812.10146.306847.32318.0017-.26048.191308.0983.307877-.26244-.188612-.26243.188612.0983-.307877-.26048-.191308.32318-.0017z" fill-rule="evenodd" stroke-miterlimit="6.3" stroke-width="3.214"/></g><path d="m507.39648 353.00195c-.49373.12332-.86914-.19898-.86914 1.23438 0 2.23377.90882.18255 1.76368 2.24609.85481 2.06374-1.23763 1.25448.34179 2.83399 1.5795 1.5795.77025-.51291 2.83399.34179 2.06373.85486.0113 1.76368 2.24609 1.76368 2.23378 0 .18255-.90882 2.24609-1.76368 2.06374-.85481 1.25449 1.2376 2.83399-.34179 1.57954-1.57951-.51287-.77025.3418-2.83399.85485-2.0637 1.76367-.0113 1.76367-2.24609 0-.77333-.11506-1.02057-.29297-1.11524-.59131.0777-1.37863.12655-2.22656.16407a4.7640869 4.7640869 0 0 1 .0976.95117 4.7640869 4.7640869 0 0 1 -4.76367 4.76367 4.7640869 4.7640869 0 0 1 -4.76367-4.76367 4.7640869 4.7640869 0 0 1 .125-1.08399c-.64864-.044-1.18169-.0958-1.67774-.15039z" fill="#ffd42a" fill-rule="evenodd" stroke-width=".313678" transform="scale(.26458333)"/><path d="m135.63149 91.972486c-.96219.190939-1.24488.882573-1.4087.964648-.19022.0953-.31964.119513-.40462.120424-.085.000923-.36924.0968 0 .266507.36923.169676 4.10783.272264 4.29121 0 .18337-.272276.0607-.209029 0-.279025-.0607-.07003.084.110526-.27337 0-.25807-.07972-.30093-.628098-.8263-.927671.0726-.31667 1.01728-.528699 1.02319-.530026l.005.000611s.091-.199801 0-.19913l-1.69215.01248c-.24676.01248-.53665.308768-.71426.571179zm1.20664.06275c.005.0023.0103.0046.0155.0069-.005-.0023-.0102-.0046-.0155-.0069z" fill="#ffd42a" stroke="#c87137" stroke-width=".082994"/><path d="m137.84148 91.573551c-.93756-.02314-1.21769.671183-1.21769.671183-.0908.155884-.29018.204198-.42541.221732l.50728.05349c.24664-.01756.45184-.05407.45184-.05407l.0244.03663-.14457-.24036c-.23705-.395149.99382-.672672 1.00057-.674194-.0685-.0082-.13387-.01291-.19638-.01442z" fill="#c87137"/><g transform="translate(56.697737 33.245327)"><path d="m74.993322 61.031831s-.513115-.452583-.389091-1.314548c0 0 .546949-.386789.166925-.907129-.380024-.520341-.543727.111084-1.216077.08185-.672349-.02923-.929596.53788-.929596.53788" fill="none" stroke="#2d8552" stroke-width=".165"/><path d="m74.283542 60.984399c-.335088.361035-.512143.310526-1.500205.310526-.988056 0-1.081606.274785-1.081606.274785s-.450181-.146163-.309865-.40341c.140317-.257246.483182-.543432 1.284158-.736366.800973-.192937 1.071989-.766189 1.071989-.766189s-.05329-.525236.397332-.500431c.450618.0248.311063.651196.209834.826146-.08044.192404.263452.633904-.07163.994939z" fill="#f9f9f9"/><path d="m73.624444 60.353937s-.125562.698959-.944117.624545c0 0-.225835-.04163-.275444-.08297 0 0 .543984.373015.939031.117259.348598-.225684.28053-.65883.28053-.65883z" fill="#999"/><path d="m74.406645 59.562892s.06602.02105.158667.08359c.09265.06254.133443.101933.133443.101933l-.371415.133214c-.05333-.186888-.02712-.250706.07931-.318735z" fill="#ffd42a"/><circle cx="74.183586" cy="59.526352" fill="#1a1a1a" fill-rule="evenodd" r=".057004"/><path d="m73.34746 58.89046s-.326596-.173633-.326596-.62425c0 0 .384473.132288.326596.62425z" fill="#2d8552"/><path d="m73.44401 59.499566s-.03392-.368324.34288-.615457c0 0 .100238.394046-.34288.615457z" fill="#2d8552"/><path d="m73.907628 58.766367s.0076-.376189.366657-.440805c0 0 .04858.432517-.366657.440805z" fill="#2d8552"/><g fill="#f9f9f9" stroke="#999" stroke-width=".033737"><path d="m72.466907 59.34251s-.09751.340106-.434962.564242c0 0 .581728.247591.434962-.564242z"/><path d="m72.529015 59.356802s.01252.476496.286053.877555c0 0-.624698.138915-.286053-.877555z"/><path d="m72.603334 59.368453s.0482.350283.350443.619095c0 0-.611145.164279-.350443-.619095z"/><path d="m72.603334 59.368453s-.275093.126668-.816934-.03204c0 0 .661191.670854.816934.03204z"/></g><path d="m72.234551 59.403623s.340531.0094.534737.339613c0 0 .320087-.767416-.534737-.339613z" fill="#2d8552"/></g></g><g fill="#ffd42a" stroke="#c87137" stroke-width=".100027" transform="matrix(.82977207 0 0 .82977207 13.373654 10.464548)"><g stroke-width=".10002"><path d="m80.452124 39.815729-.03798.408672h-.382689v-.424946h-.386973v.424946h-.380881l-.03978-.394205-.52326.08499v.33634l-.227844.01266-.02532-.334533-.356232.0054.02893.343573-.253159.01989-.0217-.363464-.31645.03798v.334532l-.186253.02713-.03797-.318258-.316449.009-.0072.345382-.157321.01627-.05244-.361658-.329107.03255.05425.363466-.184445.01808-.09946-.336341-.298367.101265.0651.329107-.220611.05967-.09222-.329107-.345383.08137.09222.327299-.240502.06872-.106688-.350807-.312834.09403.06691.348998-.25316.06871-.113923-.381547-.298366.139237.392397 1.887848c0-.000001.04748.233268.414097.233268l.645557 1.678086c.000001.000001 1.619868-.724469 4.15001-.745012.01772-.000058.03464 0 .05244 0 .0018 0 .0036.000001.0054 0v-3.332665h.0434v3.332665c.0018.000001.0036 0 .0054 0 .0178 0 .03473-.000058.05244 0 2.530142.02054 4.150008.745014 4.150009.745013l.645557-1.678087c.366624 0 .414098-.233269.414098-.233268l.392396-1.887848-.298361-.139237-.113922.381547-.253159-.06871.06691-.348998-.312832-.09403-.10669.350807-.240501-.06872.09222-.327299-.345382-.08137-.09222.329108-.220611-.05967.0651-.329108-.298367-.101263-.09945.33634-.184445-.01808.05425-.363465-.329108-.03255-.05244.361656-.15732-.01627-.0072-.345382-.316449-.009-.03798.318258-.186254-.02712v-.334532l-.316449-.03798-.0217.363465-.25316-.01989.02893-.343574-.356232-.0054-.02532.334532-.227844-.01266v-.336341z"/><path d="m79.757135 40.283925v.0019c-.319609.0027-.650613.0058-.650613.0058s-.03727.520056-.03727.520056.438508-.03714.769772-.03995c.330889.0028.767951.03995.767951.03995s-.03727-.520056-.03727-.520056c.000001 0-.331004-.003-.650613-.0058v-.0019c-.0321.000241-.04561-.000284-.08007 0-.03529-.000284-.04907.000241-.08189 0zm-.708846.01151s-1.212853.04635-1.212853.04635.04186.550421.04185.550421c0 0 1.13373-.07863 1.13373-.07863s.03727-.518139.03727-.518138zm1.579654 0c0-.000002.03727.518137.03727.518137.000001 0 1.13373.07863 1.13373.07863-.000001 0 .04186-.550421.04186-.550421 0-.000001-1.212853-.04635-1.212853-.04635zm-2.850741.0521s-1.182864.155345-1.182864.155345.07461.546585.07461.546586c0 0 1.150107-.151511 1.150107-.15151 0 0-.04185-.550422-.04186-.550421zm4.121827 0c0-.000001-.04186.550421-.04186.550421.000001-.000001 1.150108.15151 1.150108.15151.000001-.000001.07461-.546586.07461-.546586.000001 0-1.182865-.155345-1.182865-.155345zm-5.40114.170688s-1.161026.232058-1.161027.232059c0 0 .114648.538913.114647.538914 0 0 1.13373-.226307 1.13373-.226306 0 0-.08735-.544667-.08735-.544667zm6.680454 0c-.000001 0-.08735.544667-.08735.544667 0-.000001 1.13373.226306 1.13373.226306 0-.000001.114646-.538914.114646-.538914 0-.000001-1.161026-.232059-1.161026-.232059zm-7.897894.245485s-.8427.232567-1.042741.287677l.112827.538914c.149101-.04106 1.044561-.287677 1.044561-.287677s-.114646-.538914-.114647-.538914zm9.115335 0s-.114648.538914-.114648.538914c.000001 0 .895459.246613 1.04456.287677l.112826-.538914c-.200038-.05511-1.042738-.287678-1.042738-.287677zm-4.766034.09589s-1.139189.04411-1.139189.04411.02548.550419.02548.55042c0 0 1.119171-.04219 1.119171-.04219s-.0055-.55234-.0055-.55234zm.05823 0s.0055.552338.0055.55234c0 0 .04453.0014.06369.0019v.0038c.02627-.000609.04551-.000974.08189-.0019.03559.000912.05438.0013.08007.0019v-.0038c.01916-.000525.06369-.0019.06369-.0019.000001-.000002.0055-.55234.0055-.55234s-.08289.0022-.149223.0038c-.06716-.0016-.151042-.0038-.151042-.0038zm.358498 0c-.000001 0-.0055.55234-.0055.55234s1.119172.04219 1.119172.04219c0-.000001.02548-.55042.02548-.55042 0-.000001-1.13919-.04411-1.13919-.04411zm-1.641452.04987s-1.126451.113152-1.126451.113153c0 0 .05824.548502.05824.548503 0 0 1.110073-.111236 1.110073-.111235 0 0-.04186-.550422-.04186-.550421zm2.866171 0c.000001-.000001-.04186.550421-.04186.550421 0-.000001 1.110073.111235 1.110073.111235.000001-.000001.05823-.548503.05823-.548503 0-.000001-1.126451-.113153-1.126451-.113153zm-4.050855.118906s-1.162847.193702-1.162847.193702.101909.540832.101909.540832 1.119171-.184114 1.119171-.184112c0 0-.05823-.550423-.05823-.550422zm5.235539 0c-.000001-.000001-.05823.550422-.05823.550422.000001-.000002 1.119172.184112 1.119172.184112.000001 0 .101908-.540832.101908-.540832s-1.162847-.193702-1.162847-.193702zm-6.45662.205207s-1.120991.264661-1.120991.264662c0 0 .129206.535078.129205.535078 0 0 1.093694-.258908 1.093694-.258908s-.101908-.540832-.101908-.540832zm7.6777 0s-.101909.540832-.101909.540832c.000001 0 1.093696.258908 1.093696.258908-.000003 0 .129205-.535078.129205-.535078-.000002-.000001-1.120992-.264662-1.120992-.264662zm-3.919831.245484v.0019c-.293538.002-.656945.0038-.656945.0038s.02548.552338.02548.552339c0 0 .407755-.0036.713359-.0058.305243.0022.711538.0058.711538.0058-.000001-.000001.02548-.552339.02548-.552339 0-.000001-.363406-.0018-.656945-.0038v-.0019c-.03179.000241-.04568-.00024-.08007 0-.03522-.00024-.04939.000241-.08189 0zm-.715178.0096s-1.111893.07671-1.111893.07671.04186.55042.04186.550421c0 0 1.095514-.0748 1.095514-.0748s-.02548-.55234-.02548-.552339zm1.592318 0c0-.000001-.02548.552339-.02548.552339s1.095514.0748 1.095514.0748c0-.000001.04186-.550421.04186-.550421 0-.000001-1.111893-.07671-1.111893-.07671zm-5.812414.02493s-.237033.07652-.456767.147674l.112826.538914c.23153-.07499.471327-.151511.471326-.15151 0 0-.127384-.535078-.127385-.535078zm10.032509 0s-.127385.535078-.127385.535078c0-.000001.239796.07652.471326.15151l.112828-.538914c-.219735-.07115-.456769-.147674-.456769-.147674zm-6.982539.05754s-1.113711.145756-1.113712.145757c0 0 .07461.546584.07461.546585 0 0 1.080957-.14192 1.080955-.14192 0 0-.04186-.550422-.04186-.550422zm3.932569 0c.000001 0-.04186.550422-.04186.550422s1.080956.14192 1.080956.14192c-.000001-.000001.07461-.546585.07461-.546585-.000001-.000001-1.113713-.145757-1.113713-.145757zm-5.109973.157264s-1.100973.220552-1.100974.220552c0 0 .116467.538913.116466.538913 0 0 1.071857-.216717 1.071857-.216715 0 0-.08735-.54275-.08735-.54275zm6.287378 0c.000001 0-.08735.54275-.08735.54275.000001-.000002 1.071858.216715 1.071858.216715-.000002 0 .116466-.538913.116466-.538913s-1.100974-.220552-1.100974-.220552zm-7.444766.233977s-.973711.267168-1.0482.287676l.06187.301101c.000001.000001.02557.133865.196538.199456.217969-.05999.904437-.249321.904436-.249319 0 0-.114647-.538916-.114647-.538914zm8.602154 0c0-.000002-.114647.538914-.114647.538914 0-.000002.686467.189334.904437.249319.170972-.06559.196537-.199455.196537-.199456l.06187-.301101c-.07449-.02051-1.0482-.287676-1.0482-.287676zm-4.498525.124659s-1.093694.04219-1.093694.04219.0273.552338.0273.552339c0 0 1.070039-.04219 1.070037-.04219 0 0-.0037-.552339-.0037-.552339zm.05824 0s.0037.552339.0037.552339.03958.0015.0546.0019v.0038c.02667-.000609.04561-.000913.08189-.0019.03552.000913.05399.0013.08007.0019v-.0038c.01501-.000416.05459-.0019.05459-.0019.000001 0 .0037-.552339.0037-.552339s-.07694.0023-.138304.0038c-.06223-.0016-.140124-.0038-.140124-.0038zm.336661 0c-.000001 0-.0037.552339-.0037.552339-.000001 0 1.070037.04219 1.070037.04219.000001-.000001.02729-.552339.02729-.552339.000001 0-1.093695-.04219-1.093695-.04219zm-1.535904.04411s-1.091874.111235-1.091875.111235c0 0 .05824.548503.05824.548503s1.075496-.109317 1.075496-.109317-.04185-.550421-.04186-.550421zm2.676912 0s-.04185.550421-.04185.550421 1.075497.109317 1.075497.109317.05823-.548503.05823-.548503-1.091876-.111235-1.091877-.111235zm-3.82702.116988s-1.064577.176441-1.064578.176442c0 0 .101908.542748.101908.54275 0 0 1.022724-.168771 1.022723-.168771 0 0-.06006-.550421-.06006-.550421zm4.977129 0s-.06005.550421-.06005.550421c-.000001 0 1.022722.168771 1.022722.168771.000001-.000002.101909-.54275.101909-.54275 0-.000001-1.064578-.176442-1.064578-.176442zm-6.09994.187949s-1.062758.251237-1.062758.251238c0 0 .127385.535077.127385.535078 0 0 1.037281-.243567 1.037281-.243566 0 0-.101907-.542751-.101908-.54275zm7.222751 0c0-.000001-.101908.54275-.101908.54275 0-.000001 1.037281.243566 1.037281.243566 0-.000001.127385-.535078.127385-.535078 0-.000001-1.062758-.251238-1.062758-.251238zm-8.341923.26658s-.152831.04958-.236573.07671c.02848.0036.05914.0058.09281.0058l.185619.481379c.01371-.0044.08553-.02877.08553-.02877s-.127385-.535079-.127385-.535079zm9.461095 0c0-.000001-.127385.535079-.127385.535079 0-.000001.07182.02432.08553.02877l.185619-.481378c.03367-.000001.06433-.0021.09281-.0058-.08374-.02714-.236573-.07671-.236573-.07671zm-4.811528.0038v.0019c-.26745.002-.598711.0038-.598711.0038s.02548.550421.02548.550421.375185-.0036.655125-.0058c.279585.0022.653304.0058.653304.0058s.02548-.550421.02548-.550421c0-.000001-.331261-.0018-.598711-.0038v-.0019c-.03141.00024-.04576-.00024-.08007 0-.03514-.000284-.04976.00024-.08189 0zm-.656945.0077s-1.075496.0748-1.075497.0748c0 0 .04368.550421.04368.550421s1.057299-.07288 1.057298-.07288c0 0-.02548-.55234-.02548-.552339zm1.475851 0c0-.000001-.02548.552339-.02548.552339s1.057299.07288 1.057299.07288.04368-.550421.04368-.550421-1.075497-.0748-1.075497-.0748zm-2.609581.07863s-1.042739.140001-1.04274.140002c0 0 .07279.546585.07279.546585s1.013624-.136168 1.013624-.136167c0 0-.04367-.55042-.04368-.55042zm3.743311 0c-.000001 0-.04367.55042-.04367.55042.000001-.000001 1.013623.136167 1.013623.136167s.07279-.546585.07279-.546585c0-.000001-1.04274-.140002-1.04274-.140002zm-4.818808.143838s-1.04092.209044-1.04092.209045c0 0 .116467.538913.116467.538914 0 0 1.011804-.203293 1.011803-.203292 0 0-.08735-.544668-.08735-.544667zm5.894304 0c0-.000001-.08735.544667-.08735.544667 0-.000001 1.011804.203292 1.011804.203292 0-.000001.116466-.538914.116466-.538914 0-.000001-1.040921-.209045-1.04092-.209045zm-6.991637.22247s-.326827.08989-.62055.170688l.198358.515899c.26586-.0731.538658-.147674.538658-.147673 0 0-.116465-.538914-.116466-.538914zm8.088972 0c-.000001 0-.116467.538914-.116467.538914.000001-.000001.272799.07457.538659.147673l.198357-.515899c-.293723-.08079-.62055-.170686-.62055-.170686zm-4.232835.155345s-1.04456.04028-1.04456.04028.01047.200995.0182.36439c-.01265-.163082-.02911-.36439-.02911-.36439s-1.05548.107398-1.05548.107399c0 0 .03551.328931.04914.456447.315319-.05592.66113-.10655 1.039101-.141921.321094-.03005.662883-.04976 1.024542-.05562-.0013-.157953-.0018-.406583-.0018-.406582zm.05823 0s.000569.248629.0018.406583c.03205-.000416.06431-.0015.09645-.0019.02148 0 .04247-.000285.06369 0 .03214.000415.0644.0015.09645.0019.0013-.157954.0018-.406583.0018-.406583s-.0721.0023-.129205.0038c-.05802-.0016-.131025-.0038-.131025-.0038zm.318464 0c.000001 0-.000525.248629-.0018.406583.36166.0058.703448.02557 1.024543.05562.377971.03537.723782.08601 1.039101.141921.01362-.127515.04914-.456446.04914-.456446.000001-.000002-1.055479-.1074-1.055479-.1074.000001 0-.01647.201309-.02911.36439.0077-.163394.0182-.36439.0182-.36439.000001 0-1.044559-.04028-1.044559-.04028zm-2.545888.153427s-.968128.161099-.968129.161099c0 0 .08261.44078.09463.504392.261681-.07015.570903-.141103.922634-.205208-.01342-.125664-.04913-.460283-.04914-.460283zm4.715079 0s-.03571.334619-.04914.460283c.351731.0641.660952.135059.922633.205208.01203-.06361.09463-.504392.09463-.504392s-.968128-.161099-.968128-.161099zm-5.741441.172606s-1.006345.237812-1.006345.237813c0 0 .07488.313078.105548.441104l.0364.09014c.01128-.0027.21802-.05098.43311-.101646.141709-.04794.316877-.101893.52592-.159181-.01147-.06066-.09463-.508229-.09463-.508228zm6.767803 0c-.000001-.000001-.08316.447567-.09463.508228.209043.05729.38421.111246.52592.159181.215091.05067.421827.09899.433109.101646l.0364-.09014c.03067-.128026.105549-.441104.105549-.441104 0-.000001-1.006346-.237813-1.006346-.237813z"/><path d="m84.829733 42.271335c.613262.26846 1.019902-.510081 1.26654-.953052.326627-.59062.586604-1.268506.759906-1.724887.02668-.08054.05999 0 .06667-.02684.01999-.06041.07999-.201351.09999-.255051.01332-.04698-.06667-.01341-.05334-.04698.05334-.167785.07999-.26846.07999-.26846l-.313289-.181216-.113329.302026-.233319-.100675.126668-.295321-.359964-.13422-.146647.315435-.293311-.100675.126646-.302025-.319968-.09395-.133308.315435s-.07333-.04698-.07999-.0067c-.01999.08724-.05334.154355-.08665.281891-.0067.02684.04665 0 .04665.02684 0 0-.406621.939622-.573264 1.805427-.04668.221487-.339968 1.241647.133306 1.442998z"/><path d="m86.762867 39.835016-1.599825-.570486m.386623.13422c-.653278 1.745023-.766588 2.62426-.719932 2.872585 0 0 .673257.02684 1.506516-2.597399m-.293311 1.718182-1.346511-.49667"/><path d="m81.769762 41.378609c-.369613-.03795-.317135.455993-.339464.707022l.543048.05576c.02407-.250851.166031-.724829-.203584-.762781zm0 0c-.369613-.03795-.317135.455993-.339464.707022l.543048.05576c.02407-.250851.166031-.724829-.203584-.762781z"/><path d="m83.198393 41.583346c-.366708-.06177-.343074.434636-.37997.68375l.538782.09076c.03862-.248823.207898-.712735-.158812-.774505zm0 0c-.366708-.06177-.343074.434636-.37997.68375l.538782.09076c.03862-.248823.207898-.712735-.158812-.774505z"/><path d="m84.299135 41.822846c-.361952-.08755-.36996.409411-.422625.655356l.531792.128629c.05436-.245533.252785-.696436-.109167-.783985zm0 0c-.361952-.08755-.36996.409411-.422625.655356l.531792.128629c.05436-.245533.252785-.696436-.109167-.783985z"/><path d="m74.846309 42.271335c-.613262.26846-1.019903-.510081-1.266539-.953052-.326629-.59062-.586605-1.268506-.759907-1.724887-.02668-.08054-.05999 0-.06667-.02684-.02-.06041-.07999-.201351-.09999-.255051-.01332-.04698.06667-.01341.05333-.04698-.05333-.167785-.07999-.26846-.07999-.26846l.313289-.181216.11333.302026.233317-.100675-.126668-.295321.359966-.13422.146645.315435.293313-.100675-.126648-.302025.31997-.09395.133306.315435s.07333-.04698.07999-.0067c.02.08724.05334.154355.08665.281891.0067.02684-.04665 0-.04665.02684 0 0 .406621.939622.573265 1.805427.04668.221487.339967 1.241647-.133307 1.442998z"/><path d="m72.913175 39.835016 1.599825-.570486m-.386623.13422c.653278 1.745023.766587 2.62426.719932 2.872585 0 0-.673256.02684-1.506516-2.597399m.293312 1.718182 1.34651-.49667"/><path d="m79.114879 41.304553c.370983-.0177.294273.472711.30422.724622l-.545061.02601c-.01169-.251828-.130144-.732929.240841-.750632zm0 0c.370983-.0177.294273.472711.30422.724622l-.545061.02601c-.01169-.251828-.130144-.732929.240841-.750632z"/><path d="m77.90628 41.378609c.369614-.03795.317134.455993.339464.707022l-.543049.05576c-.02407-.250851-.166029-.724829.203585-.762781zm0 0c.369614-.03795.317134.455993.339464.707022l-.543049.05576c-.02407-.250851-.166029-.724829.203585-.762781z"/><path d="m76.477648 41.583346c.366709-.06177.343075.434636.379971.68375l-.538782.09076c-.03862-.248823-.207898-.712735.158811-.774505zm0 0c.366709-.06177.343075.434636.379971.68375l-.538782.09076c-.03862-.248823-.207898-.712735.158811-.774505z"/><path d="m75.376908 41.822846c.361951-.08755.369958.409411.422624.655356l-.531794.128629c-.05436-.245533-.252785-.696436.10917-.783985zm0 0c.361951-.08755.369958.409411.422624.655356l-.531794.128629c-.05436-.245533-.252785-.696436.10917-.783985z"/><path d="m79.471428 42.040991c0 .000001.0278.168784-.06551.235893-.206661.154375-.233592.422892-.280247.536997-.04668.114106-.06733.160162-.06733.233977 0 .06713.02066.161102.06733.255072.04665.09397.04615.350014.09281.464119h.141945.396714.161962.396714.141943c.04665-.114105.04615-.370149.09281-.464119.04668-.09397.06733-.187942.06733-.255072 0-.07382-.02066-.119871-.06733-.233977-.04665-.114105-.07359-.382622-.280247-.536997-.09331-.06711-.06551-.235892-.06551-.235893h-.285707-.161962z"/><path d="m84.956279 39.862321-.152862.502475.220194.0748.192898-.510146z"/><path d="m85.489478 40.063694-.192898.502475.465867.168771.194718-.510147z"/><path d="m86.270167 40.359043-.200175.483296.220193.06712.220197-.437268z"/><path d="m74.719763 39.862321.152863.502475-.220195.0748-.192897-.510146z"/><path d="m74.186564 40.063694.192899.502475-.465867.168771-.194718-.510147z"/><path d="m73.405874 40.359043.200176.483296-.220194.06712-.220195-.437268z"/><path d="m80.561163 41.304553c-.370982-.0177-.294273.472711-.304219.724622l.54506.02601c.01169-.251828.130143-.732929-.240841-.750632zm0 0c-.370982-.0177-.294273.472711-.304219.724622l.54506.02601c.01169-.251828.130143-.732929-.240841-.750632z"/><path d="m79.838115 42.609523c-.582997 0-.42965.762277-.428279 1.157526h.85656c.0014-.395249.154718-1.157526-.428281-1.157526zm0 0c-.582997 0-.42965.762277-.428279 1.157526h.85656c.0014-.395249.154718-1.157526-.428281-1.157526z"/></g><g stroke-width="1.728509" transform="matrix(.05786505 0 0 .05786505 59.077006 14.768352)"><g transform="matrix(-.9883653 -.1520989 -.1520989 .9883653 807.51559 61.24977)"><path d="m356.27521 393.85844-.44028 5.93267-5.18906.232.0943-5.70066-5.62935.59658-.22015 5.80009c.00001-.00001-1.38373-.24828-1.38374.33143.23052 1.62394.11578 2.90041.34593 5.10408.11545.34796.68151-.33126.91202.13258.00001 0-.67878 17.50163 1.85549 32.34791.57611 3.82764 2.18917 21.92438 10.94421 22.27235.14347.006 1.39078.006 1.54099 0 8.75505-.34797 10.36808-18.44471 10.94421-22.27235 2.53428-14.84628 1.85547-32.34791 1.85548-32.34791.23053-.46384.79657.21538.91202-.13258.23017-2.20367.11542-3.48014.34594-5.10408 0-.57971-1.38376-.33144-1.38374-.33143l-.22015-5.80009-5.62935-.59658.0943 5.70066-5.18906-.232-.44028-5.93267h-.66043-2.79895z"/><path d="m367.18797 421.13543.1258 9.28015 3.89966.23199.56609-9.04813z"/><path d="m356.93564 421.33429v.0663l-2.26433.0663-.12578 9.28013 3.80531-.0994 3.77386.0994-.12579-9.28013-2.26432-.0663v-.0663l-1.38375.0331z"/><path d="m349.47898 421.13543-.1258 9.28015-3.89966.23199-.56608-9.04813z"/><path d="m358.3351 460.90747c6.70313-9.91906 6.40285-36.02156 6.77725-50.34478h-13.55447c.20946 14.57155.35343 40.15487 6.77722 50.34478zm-6.77722-50.34478-6.90174.16393m20.45621-.16393 6.85906.0691m-25.20025 29.26128h23.13023"/></g><g transform="matrix(.98836528 -.1520989 .1520989 .98836528 -89.945744 61.249781)"><path d="m356.27521 393.85844-.44028 5.93267-5.18906.232.0943-5.70066-5.62935.59658-.22015 5.80009c.00001-.00001-1.38373-.24828-1.38374.33143.23052 1.62394.11578 2.90041.34593 5.10408.11545.34796.68151-.33126.91202.13258.00001 0-.67878 17.50163 1.85549 32.34791.57611 3.82764 2.18917 21.92438 10.94421 22.27235.14347.006 1.39078.006 1.54099 0 8.75505-.34797 10.36808-18.44471 10.94421-22.27235 2.53428-14.84628 1.85547-32.34791 1.85548-32.34791.23053-.46384.79657.21538.91202-.13258.23017-2.20367.11542-3.48014.34594-5.10408 0-.57971-1.38376-.33144-1.38374-.33143l-.22015-5.80009-5.62935-.59658.0943 5.70066-5.18906-.232-.44028-5.93267h-.66043-2.79895z"/><path d="m367.18797 421.13543.1258 9.28015 3.89966.23199.56609-9.04813z"/><path d="m356.93564 421.33429v.0663l-2.26433.0663-.12578 9.28013 3.80531-.0994 3.77386.0994-.12579-9.28013-2.26432-.0663v-.0663l-1.38375.0331z"/><path d="m349.47898 421.13543-.1258 9.28015-3.89966.23199-.56608-9.04813z"/><path d="m358.3351 460.90747c6.70313-9.91906 6.40285-36.02156 6.77725-50.34478h-13.55447c.20946 14.57155.35343 40.15487 6.77722 50.34478zm-6.77722-50.34478-6.90174.16393m20.45621-.16393 6.85906.0691m-25.20025 29.26128h23.13023"/></g></g></g></g></svg>