<svg clip-rule="evenodd" fill-rule="evenodd" height="2116" image-rendering="optimizeQuality" shape-rendering="geometricPrecision" text-rendering="geometricPrecision" viewBox="0 0 3000 2115.64" width="3000" xmlns="http://www.w3.org/2000/svg"><path d="m.31.27h3000v2115.64h-3000z" fill="#fefefe" stroke="#fefefe" stroke-miterlimit="22.9256" stroke-width="2.56"/><path d="m-.47 1363.59 2999.96-891.17-.03-131.52-3001.27 891.56z" fill="#ed3237" stroke="#ed3237" stroke-miterlimit="22.9256" stroke-width="6.72"/><path d="m1507.59 485.1c0 2.64.66 4.61 3.29 5.27 1.98 0 2.63-.66 4.61-2.63 0-1.98 1.32-5.93 3.96-6.59 5.92.66 13.83-.66 17.12 5.27-3.29 7.9 3.3 19.1-5.27 24.37 0 5.93-3.29 13.84 3.96 16.47 1.97 0 3.29 1.98 4.61 3.29 0 3.3-.66 7.91 3.29 8.57 1.98 1.31 4.61 1.31 4.61-1.98 1.32-2.63 1.32-6.59 3.95-7.9 6.59-1.32 15.15-1.98 19.11 4.61 0 2.63-.66 6.58 1.97 7.9 1.98.66 3.95-.66 5.27-3.29 0-2.64-.66-5.93 2.64-7.91 2.63 0 6.58 1.32 8.56-2.63-1.98-7.25 5.93-15.15-1.98-19.76.66-6.59-1.97-17.79 4.61-20.42 5.27 0 13.18-1.98 16.47 4.61 0 1.97 0 3.95 2.64 4.61 5.27 1.32 3.95-5.27 7.24-6.59 7.25 0 14.49-.66 17.13 5.93 0 1.32 0 3.29 1.98 3.95 7.9 1.32 7.9-10.54 15.15-5.93 4.61 1.32 11.19 1.32 12.51 7.25-1.97 7.9-1.32 19.1-9.88 23.06 1.32 5.92-5.92 13.83 1.98 16.46 4.61 1.32 3.95 4.61 3.29 8.57-1.32 2.63 1.32 2.63 1.98 3.95 7.9 3.29 3.95-9.88 11.85-9.88 5.28 1.97 11.86 1.97 16.47 5.93.66 3.95-3.29 8.56 1.98 9.22 2.64-3.3 1.32-9.22 6.59-9.22 9.88 1.31 7.9-10.54 11.2-15.15-7.25-7.25 0-15.81 0-22.4 3.95-5.27 11.19-2.64 15.15-1.32 1.97.66 4.61 1.98 5.92 4.61-1.31 1.98 0 5.27 1.98 5.93 5.27-.66 7.25-9.22 13.83-4.61 3.96 1.98 9.88 1.98 12.52 7.25 0 3.29.66 5.92 2.63 6.58 3.96-.66 4.62-5.27 7.91-5.92 5.93.65 13.17 2.63 17.13 7.9-2.64 6.59 0 17.13-9.89 19.76-7.24 12.52-9.88 26.35-14.49 40.18 2.64 3.96 3.96 8.57 1.32 12.52-.66 3.29-3.29 6.59-7.25 7.91-2.63 9.88-11.85 21.07-5.92 30.96-.66 5.26-.66 11.19-3.96 15.15-36.88 13.17-75.75 17.78-113.3 25.69-122.52 18.44-260.85 12.51-376.13-19.11 0-7.24-7.9-15.15-1.98-21.73-3.29-11.2-3.95-23.72-14.49-30.31-1.31-4.61-4.61-11.85-1.31-16.47l-13.18-36.23c-1.32-2.63-4.61-2.63-7.24-3.95-1.98-7.24-6.59-13.83-5.27-22.39 5.27-1.98 10.54-4.62 17.12-3.96 1.32 3.3 3.3 5.27 6.59 3.96 3.95-2.64-1.32-5.27.66-8.57 5.27-2.63 11.2-4.61 17.12-5.27 3.96 1.98 4.62 7.25 9.23 5.27 4.61-2.63 0-11.2 7.9-11.2 3.95-.65 7.91-2.63 12.52-1.97 2.63 6.59 5.27 12.51 5.27 19.1-5.27 6.59 1.31 13.83 1.97 21.08 3.96 3.95 11.86 2.63 11.86 10.54 1.32 1.32 1.32 1.32 3.29 1.32 1.98-5.27-1.31-13.18 7.25-13.84 4.61-1.31 8.57-3.29 13.83-1.31 3.3 2.63 1.98 9.22 7.91 7.24 3.95-3.29-1.98-12.51 6.58-13.17 2.64 0 4.61-1.32 5.28-2.64-.67-6.58 0-11.85-4.61-15.81-13.18.66-7.25-15.81-11.21-25.03 3.96-3.95 11.86-3.95 19.11-3.29 1.97 1.98 1.97 6.59 5.27 5.93.66.66 1.98-1.32 2.63-1.32 0-2.63-1.97-3.95 0-5.93 5.27-3.29 12.52-5.27 19.11-1.97 1.97 2.63 3.95 6.58 8.56 4.61 4.61-1.98 0-8.57 5.93-8.57 6.59 0 14.49-5.93 19.76.66 0 7.91 5.93 17.79-.66 24.37 2.64 6.59-1.97 17.13 7.91 19.77 1.31 3.95.65 8.56 5.92 9.22 8.57-.66 0-11.86 8.57-13.18 3.95 0 9.22-.66 13.17 0 1.98 3.96 0 8.57 5.27 10.54 2.64.66 5.93-.66 5.93-3.95s1.32-7.9 5.27-9.22c5.93-2.64 2.63-11.2 2.63-17.13-7.9-5.27-3.95-16.47-5.26-25.69 3.95-3.29 10.53-3.29 16.46-1.32 2.64 2.64 2.64 10.54 7.91 6.59 3.95-2.63 0-9.22 7.24-9.22 3.96.66 11.86-1.98 13.84 3.95z" fill="#373435"/><g fill="#fefefe"><path d="m1501 490.37c-1.32 3.95 2.63 7.25 6.59 7.91 3.29.66 7.9.66 11.19-1.98 1.98-2.63 2.64-8.56 6.59-6.59 1.98-1.31 5.27 0 4.62 1.98 0 2.63.65 6.59-2.64 7.9l-55.33 1.98c-4.62 0-3.96-4.61-3.96-7.25-.66-2.63.66-3.95 2.64-3.95 4.61 0 3.95 8.57 10.54 7.91 4.61 0 11.2.66 14.49-3.96 0-1.97-1.32-5.92 1.98-5.92 1.97 0 2.63 1.31 3.29 1.97z"/><path d="m1601.13 496.3c-1.32 3.29 0 6.59 3.95 7.25 4.61-.66 9.88 3.95 13.83 0 2.64-1.98 1.98-5.27 4.61-6.59 8.57 0 2.64 11.2 11.2 11.2 3.95 1.31 8.56 2.63 11.2 0 2.63-3.96 5.27-8.57 10.54-5.27 1.97 1.31.66 6.58 0 8.56l-1.98 1.32-58.62-8.57c-2.64-2.63-1.98-5.92-1.32-7.9 1.32-2.63 4.61-1.98 6.59 0z"/><path d="m1409.44 498.94c0 2.63-1.32 7.9-5.27 6.58-20.42 2.64-38.87 7.25-59.94 9.22-4.62-.65-3.3-5.27-3.3-9.22 9.22-5.27 11.2 11.86 21.08 5.93 9.22-.66 1.98-15.15 12.52-11.86 1.97 1.98 1.97 5.93 5.92 7.91 4.62-1.98 12.52-.66 15.15-5.93 0-2.63 1.32-4.61 1.98-5.93 3.95 0 11.86-1.97 11.86 3.3z"/><path d="m1487.83 510.79c0 1.32-1.98 3.3-3.3 3.3-3.29 0-7.9 1.31-9.88-1.32-1.32-1.98 0-3.3 1.98-4.61 3.29 0 8.56-1.32 11.2 2.63z"/><path d="m1510.22 509.47c0 2.64-2.63 3.3-3.95 4.62-3.95-1.32-9.88 1.31-11.86-2.64 0-1.98 1.32-3.29 3.3-3.29 3.95 1.31 9.88-1.32 12.51 1.31z"/><path d="m1524.05 509.47c0 1.98 0 3.3-1.31 3.3-1.32 0-3.96 0-5.93-.66-1.32-2.64 1.97-2.64 1.97-3.95 2.64 0 3.96 1.31 5.27 1.31z"/><path d="m1612.32 516.72c-1.97 6.59-9.22 0-13.83.66-1.32-.66-1.32-1.98-1.32-2.64 5.27-1.97 12.52-1.97 15.15 1.98z"/><path d="m1406.14 516.72c0 2.64-2.63 2.64-5.27 3.95-3.29-1.31-5.27.66-7.24-1.97-.66-1.98 1.32-3.3 3.29-3.96 2.64.66 7.25-.65 9.22 1.98z"/><path d="m1632.74 519.36c0 1.31 0 1.31-1.31 1.97-3.95 0-9.22 1.98-11.86-1.97-.66-1.98 1.32-2.64 1.98-2.64 3.95 0 8.56-1.32 11.19 2.64z"/><path d="m1386.38 518.7c-1.31 6.58-9.22 4.61-13.83 5.93-1.32-.66-3.95-3.3-1.32-5.27 3.95-.66 10.54-3.96 15.15-.66z"/><path d="m1727.6 527.26c2.64 2.63 9.22 3.29 11.86.66 3.95-.66 6.59-5.27 9.88-2.64 2.63 2.64 1.32 7.25 3.95 10.54-8.56-1.31-17.12-5.27-25.03-6.58-4.61-1.32-9.88-1.32-11.86-4.61 0-3.3 0-5.27 1.98-7.91 5.93.66 2.64 10.54 9.22 10.54z"/><path d="m1648.55 523.97c-2.63 1.97-5.27 0-7.24-.66-1.32-1.98 0-2.64 0-3.95 3.95 1.31 9.22 0 7.24 4.61z"/><path d="m1283.62 524.63c.66 3.29-2.63 5.92-5.93 7.24-1.31.66-3.95 0-5.93 0 5.93-1.98-.65-15.15 9.88-11.2z"/><path d="m1363.99 523.31c0 1.32-.66 2.63-2.64 3.95-3.29 0-6.59 0-7.91-1.98.66-3.95 3.96-2.63 6.59-4.61 1.32.66 3.3.66 3.96 2.64z"/><path d="m1486.51 523.97c0 1.31-1.32 1.97-1.98 3.29-3.29 0-7.9 0-9.88-1.98-1.32-3.95 2.64-2.63 4.61-3.95 3.3 0 6.59-.66 7.25 2.64z"/><path d="m1524.05 523.97c-1.31 3.29-4.6 1.97-5.27 1.31-3.29-.65-1.31-2.63 0-3.95 2.64 0 5.27 0 5.27 2.64z"/><path d="m1605.74 529.89c-.66.66-1.32 2.64-2.64 1.98-3.29 0-5.93 0-7.24-1.98-.66-1.97 1.31-3.95 2.63-3.95 2.64 0 6.59 0 7.25 3.95z"/><path d="m1408.12 530.55c0 1.98-3.95 3.3-4.61 3.3-2.64-1.32-6.59.66-7.91-3.3 1.32-2.63 4.62-1.31 6.59-2.63 1.98-.66 5.27 1.32 5.93 2.63z"/><path d="m1265.18 534.51c-12.52 4.61-26.35 9.88-39.53 13.83-3.29-.66-3.95-3.95-4.61-6.59-1.31-2.63 1.32-3.29 3.96-3.29 3.94-1.98 3.94 3.29 7.9 3.95 5.27-.66 13.17-.66 13.83-7.9 0-2.64 0-6.59 3.96-6.59 5.92 0 7.24 9.22 14.49 6.59z"/><path d="m1510.22 533.85c-.65 4.61 1.32 13.17-2.63 17.12-2.64 0-6.59.66-6.59-3.29 0-5.27-1.32-13.17 2.63-17.13 1.98 0 4.62 0 6.59 3.3z"/><path d="m1645.92 534.51c1.98 1.97-.66 3.95-2.64 2.63-1.97 0-4.61 0-4.61-2.63 0-3.96 6.59-1.98 7.25 0z"/><path d="m1779.64 534.51c0 2.63-.66 5.92-1.98 7.24-5.26 3.95-9.22-.66-13.83-3.29 6.59 2.63 9.22-11.2 15.81-3.95z"/><path d="m1365.3 536.48c.66 3.95-3.95 3.95-5.92 4.61-1.98 0-3.96-.66-3.96-2.63-.66-2.64 2.64-2.64 4.61-3.95 1.32 0 3.96-.66 5.27 1.97z"/><path d="m1533.28 536.48c-1.98 4.61-9.23 1.98-12.52 1.98-1.98 0-1.98 0-3.95-1.98 3.95-3.95 11.2-1.97 16.47 0z"/><path d="m1486.51 536.48c-5.27 4.61-13.18 3.95-19.11 1.98-1.31-1.32.66-2.64 2.64-3.95 4.61 1.31 11.2-.66 16.47 1.97z"/><path d="m1726.28 538.46c1.32.66-.65 3.29-1.97 3.95-2.64 0-5.93-.66-7.25-3.29 0-.66 0-2.64 1.32-4.61 3.29 1.31 7.25 1.31 7.9 3.95z"/><path d="m1562.92 538.46c1.32 0 0 .66 0 .66-1.98 1.97-4.61 1.97-5.93 0-1.97-.66 0-2.64 0-2.64 1.98 0 4.61 0 5.93 1.98z"/><path d="m1630.11 543.07c-1.98 5.27-.66 11.86-3.95 16.47-2.64 0-5.27-.66-7.91-1.32-1.97-6.59-1.31-14.49 2.64-19.76 3.29-3.95 9.22.66 9.22 4.61z"/><path d="m1390.34 541.75c.65 5.27 1.97 11.2.65 17.13-1.97 1.97-5.92 1.97-8.56.66-3.29-5.27-3.29-11.86-3.29-18.45 1.31-5.27 9.88-3.95 11.2.66z"/><path d="m1443.03 539.12c-1.31 2.63-3.29 2.63-4.61 1.97-1.32-2.63 4.61-3.95 4.61-1.97z"/><path d="m1603.1 543.07c-5.93 1.32-13.17 0-17.12-1.98-.66-1.97 0-2.63 1.31-2.63 5.93.66 15.15 0 15.81 4.61z"/><path d="m1282.96 542.41c.66 1.98-1.97 3.29-3.29 3.29-1.98 1.32-5.93 1.32-6.59-1.97-1.32-1.98 2.64-2.64 3.95-4.61 2.64-.66 6.59 0 5.93 3.29z"/><path d="m1749.34 545.7s-.66 1.98-1.98 2.64c-3.95 0-9.88-.66-12.51-4.61 0-7.25 7.9-1.32 10.54-1.98 1.97 1.32 3.95 1.32 3.95 3.95z"/><path d="m1415.37 541.75c-3.3 3.95-9.23 3.95-14.5 3.95-1.31 0-3.29 0-3.29-1.97 3.29-3.3 12.52-3.3 17.79-1.98z"/><path d="m1267.81 545.7c-1.97 6.59-9.88 6.59-13.83 7.91-1.98-.66-3.29-3.95-1.98-5.93 4.61-.66 11.2-6.59 15.81-1.98z"/><path d="m1652.51 549.66c-3.96 2.63-10.54 0-15.15-1.32-1.32-.66 0-3.95 1.31-2.64 4.61 0 10.55 0 13.84 3.96z"/><path d="m1524.05 549.66c-1.97 1.97-4.6 1.31-6.58 0-.66-1.32 1.31-3.96 1.98-3.96 1.97 0 4.6 1.32 4.6 3.96z"/><path d="m1486.51 549.66c-2.64 2.63-7.25 2.63-11.2 1.31 0-1.31-.66-1.31 0-2.63 3.29-2.64 8.56-1.32 11.2 1.32z"/><path d="m1539.87 548.34c-.66 1.32-1.32 3.95-3.3 3.29-1.31 0-3.29 0-4.61-1.97 0-1.32 0-2.64 1.32-2.64 1.98 0 5.93 0 6.59 1.32z"/><path d="m1768.44 552.95c-3.95 3.95-7.24 0-11.2-1.32-.65-1.97 0-4.61 2.64-4.61 3.29 1.32 8.56 1.32 8.56 5.93z"/><path d="m1467.4 548.34c0 2.63-1.31 3.95-3.95 3.95-1.31 0-3.95-.66-3.95-2.63 1.98-2.64 5.93-3.96 7.9-1.32z"/><path d="m1555.68 549.66c0 1.31-.66 3.29-2.64 2.63-1.98 0-3.95 0-5.27-2.63 0-3.96 6.59-3.96 7.91 0z"/><path d="m1365.96 549.66c-2.63 4.61-11.86 3.95-17.79 5.27l-1.97-1.32c4.61-3.95 11.86-5.27 19.1-5.27z"/><path d="m1452.25 549.66c1.32 1.97-1.31 2.63-1.31 3.29-2.64 0-4.61 0-6.59-1.32 0-1.97 1.98-1.97 3.29-3.29 1.98 0 3.3 0 4.61 1.32z"/><path d="m1721.67 550.97c1.32 1.98 0 1.98-1.97 3.3-1.32-.66-3.95-1.32-5.27-2.64-1.32-1.97 1.32-3.29 2.63-3.29 1.32 1.32 4.61 0 4.61 2.63z"/><path d="m1570.83 550.97c0 1.32-1.98 1.98-2.64 1.98-1.32 0-2.63 0-3.95-1.32 0-1.97 0-1.97 1.97-3.29 1.98 0 3.96 0 4.62 2.63z"/><path d="m1437.76 551.63c-.66.66 0 1.32 0 1.32-2.63.66-3.29 1.98-5.27.66-1.97-.66-1.31-1.32-1.31-2.64 1.97-1.31 5.92-2.63 6.58.66z"/><path d="m1585.98 551.63c0 1.98-1.98 2.64-3.96 2.64-.65 0-1.31-.66-3.29-1.32 0-1.32 0-3.29 1.98-3.29 1.31 0 3.29 1.31 5.27 1.97z"/><path d="m1246.07 554.27c0 4.61-5.92 4.61-9.88 6.58-1.31 0-3.29-1.97-3.29-3.95 0-3.95 5.27-3.95 9.22-5.93 1.32 0 3.95 1.32 3.95 3.3z"/><path d="m1423.27 552.29c1.32 2.64-1.98 3.29-3.95 2.64-1.98.65-3.95 0-3.95-1.32 1.31-2.64 5.92-3.95 7.9-1.32z"/><path d="m1602.44 554.27c-1.31 2.63-5.27 1.31-7.24.66-1.32 0-.66-1.32-.66-1.98 2.63-1.32 6.59-1.32 7.9 1.32z"/><path d="m1408.12 554.27c0 2.63-1.98 2.63-3.95 2.63-1.98 0-4.61 1.32-4.61-1.32 0-1.31 1.97-1.97 2.63-2.63 1.98.66 3.95-.66 5.93 1.32z"/><path d="m1681.49 555.58c-1.97 2.64-3.95 1.32-5.93-.65-1.32-.66 0-1.32.66-1.98 1.98 1.32 5.27.66 5.27 2.63z"/><path d="m1286.91 554.93c0 1.97-2.63 3.95-3.95 3.95-1.97 1.97-5.27 0-5.93-1.98 1.98-1.97 2.64-3.29 5.27-3.29 1.32 0 3.3 0 4.61 1.32z"/><path d="m1325.78 558.22c-1.97 2.63-5.93 3.29-8.56 2.63-1.32 0 0-1.31 0-1.97 1.97-1.98 5.92-4.61 8.56-.66z"/><path d="m1643.28 558.88c0 1.97-1.31 2.63-1.97 2.63-2.64 0-5.93 0-6.59-1.97 0-1.32 1.32-2.64 2.64-2.64 1.97 0 3.95 0 5.92 1.98z"/><path d="m1755.93 599.06c.66.66 1.31 1.98.66 2.64h-3.96c-152.82-53.36-355.05-50.73-505.9 7.24l-1.97-3.29 3.95-3.95c130.43-49.41 299.06-57.31 439.37-23.06 22.4 5.27 45.45 12.52 67.85 20.42z"/><path d="m1659.09 560.85c0 2.64-1.97 3.96-2.63 3.96-3.29 0-6.59 0-6.59-3.3.66-4.61 6.59-1.97 9.22-.66z"/><path d="m1718.38 563.49c1.32 1.32 0 2.63-1.98 1.98-4.61-.66-10.54-.66-13.17-4.62 4.61-3.95 9.88.66 15.15 2.64z"/><path d="m1367.28 560.85c.66 2.64-1.98 2.64-3.29 3.96-2.64 0-3.96 0-3.96-3.3 1.32-1.97 5.27-1.97 7.25-.66z"/><path d="m1764.49 565.47c-.66 3.95-3.29 0-5.93.65-1.32-.65-3.95-1.31-5.27-3.29 2.64-3.95 9.88-1.32 11.2 2.64z"/><path d="m1672.27 564.81c.66 1.31-.66 2.63-1.98 2.63-1.97 0-3.29 0-3.95-1.97-.66-.66 0-2.64 1.32-3.96 2.63 0 4.61 1.32 4.61 3.3z"/><path d="m1350.81 564.81c1.32 1.31-1.97 1.31-3.95 2.63-.66-1.32-1.98 0-2.63-1.32-.67-1.31.65-2.63 1.97-2.63 1.97 0 3.95-.66 4.61 1.32z"/><path d="m1742.75 566.12c.66 6.59-1.97 13.84-5.93 17.79-2.63 0-4.61 0-6.58-2.64 2.63-6.58 2.63-24.37 12.51-15.15z"/><path d="m1296.8 565.47c-1.32 3.95-6.59 3.95-10.54 5.27-1.98 0-3.96 1.32-4.62-.66 2.64-4.61 10.54-4.61 15.16-5.27z"/><path d="m1250.03 567.44c-1.98 3.3-6.59 3.3-9.88 4.62-1.32 0-3.3 0-3.3-1.98.66-3.96 4.61-3.96 6.59-5.27 2.63 0 6.59 0 6.59 2.63z"/><path d="m1686.1 567.44c0 1.32-.66 2.64-1.98 3.3-1.31-.66-4.6-.66-4.6-3.3 0-3.95 5.92-2.63 6.58 0z"/><path d="m1335 567.44c1.32 1.32 0 2.64-1.32 1.98h-1.31c-1.32-1.98 1.31-1.98 2.63-1.98z"/><path d="m1279.01 583.91c-1.98 1.98-5.93 3.3-8.56 1.98-2.64-4.62-4.61-11.2-4.61-16.47 1.97-1.98 5.27-1.98 7.24-.66 3.3 3.3 3.3 9.88 5.93 15.15z"/><path d="m1697.3 570.08c1.32 2.63-1.97 3.95-3.29 1.98-1.32-1.32-1.32-3.3 1.32-3.3 1.31.66 1.97 0 1.97 1.32z"/><path d="m1323.14 570.08c0 1.98-1.97 2.63-3.29 2.63-1.98 0-4.61 0-2.63-1.97.65-1.32 3.95-.66 5.92-.66z"/><path d="m1495.73 572.06v2.63c-5.27 1.31-14.49 1.97-19.1-.66 0-6.59 7.9-2.64 11.2-3.95 2.63 0 7.24-1.32 7.9 1.98z"/><path d="m1524.05 574.03c-5.27 1.97-11.85.66-18.44.66-1.98 0-1.98-1.98-1.98-3.95 6.59-1.32 15.82-1.98 20.42 1.32z"/><path d="m1554.36 572.06c.66 2.63-1.32 3.94-2.64 4.6-6.58-1.97-14.49 0-19.76-2.63-.66-1.97.66-3.95 1.98-3.95 7.24 0 13.83 0 20.42 1.98z"/><path d="m1468.72 572.06c1.32 2.63-.66 2.63-1.32 4.6-6.58-.66-15.15 3.3-19.76-1.97.66-4.61 7.25-2.63 10.54-3.95 3.96.65 8.57-.66 10.54 1.32z"/><path d="m1583.34 574.69c-1.97 7.25-11.2 1.97-17.78 3.29-2.64 0-3.96-3.29-2.64-5.92 5.93 0 14.49 0 20.42 2.63z"/><path d="m1715.75 574.69c.65 1.97-1.32 3.29-2.64 3.29-2.63-1.32-5.93 0-6.59-3.29 1.32-4.61 6.59-1.98 9.23 0z"/><path d="m1307.99 574.69c-1.31 1.97-1.97 1.97-3.95 1.97-.66-.66-1.98-1.97-.66-1.97 1.32-.66 5.93-2.63 4.61 0z"/><path d="m1440.4 574.69c-2.64 6.58-11.86 3.95-18.45 5.27-1.31 0-2.63-1.32-2.63-3.3 5.93-2.63 15.15-4.6 21.08-1.97z"/><path d="m1760.54 576c-1.98 2.64-5.93.66-7.91 0l-1.31-1.31c3.29-1.98 5.92 0 9.22 1.31z"/><path d="m1612.98 578.64c0 5.27-6.58 2.63-9.88 2.63-3.29-2.63-11.2 1.32-13.17-4.61l1.97-1.97c7.91 0 16.47 0 21.08 3.95z"/><path d="m1412.73 578.64c0 1.32-1.97 2.63-2.63 3.3-5.93 0-14.5 3.95-19.11-.67 3.96-5.27 13.18-3.29 20.42-4.61z"/><path d="m1294.82 577.98c0 3.29-3.95 2.64-4.61 3.29-1.98 0-3.95.67-3.95-1.31 1.31-1.98 5.92-3.96 8.56-1.98z"/><path d="m1252.66 579.96c-2.63 1.98-6.59 4.61-10.54 3.95-.66-1.32 0-1.97-.66-2.64 3.3-1.31 9.23-6.58 11.2-1.31z"/><path d="m1639.99 581.94c0 1.97 0 2.63-1.32 3.95-5.27-1.32-14.49 0-17.78-4.62l1.32-2.63c5.92 0 12.51 0 17.78 3.3z"/><path d="m1383.75 581.27c1.32 6.59-6.59 4.62-10.54 6.59-2.64-.65-7.25 1.98-9.22-1.97 1.31-4.62 9.22-1.98 13.83-4.62z"/><path d="m1512.2 583.91c-2.63 5.93-12.52 3.3-18.45 3.3-1.31-1.32-1.31-2.64-1.31-3.3 5.27-2.64 11.19-1.32 17.78-1.97z"/><path d="m1537.89 583.91c0 1.98-.66 3.95-2.63 3.95-5.27-1.97-14.5 3.3-16.48-3.95 5.27-1.97 14.5-2.64 19.11 0z"/><path d="m1484.53 583.91c-3.29 7.25-12.51 3.3-19.1 4.61-.66-.66-1.98-.66-3.29-2.63-.66-1.32 1.31-1.98 3.29-1.98 5.27-1.32 11.86-1.32 17.78-1.32z"/><path d="m1568.19 585.89c0 2.63-2.63 3.95-5.27 3.95-4.61-1.98-13.83 1.97-17.13-3.95 4.62-5.27 13.18-1.98 20.42-1.98z"/><path d="m1667.66 587.86c0 1.98-.66 3.3-1.98 3.3-6.59-2.64-16.46 1.31-17.78-7.25h.65c6.59 0 13.84 0 19.11 3.95z"/><path d="m1756.59 585.89c.65 3.95-1.98 2.63-3.3 3.95-1.32-1.32-3.95 0-5.93-3.95 0 0 0-1.98 1.98-1.98 2.63 0 5.27 0 7.25 1.98z"/><path d="m1454.89 585.89c.66 3.95-2.64 2.63-3.95 3.95-5.27-1.32-13.84 3.95-15.81-3.95 5.27-1.98 13.17-1.98 19.1-1.32z"/><path d="m1597.17 589.84c-5.27 4.61-13.83 0-20.42 0-1.97 0-2.63-2.63-.65-3.95h.65c7.25 0 16.47-1.32 20.42 3.95z"/><path d="m1356.08 587.86c-3.95 5.93-11.85 5.93-17.79 5.93-1.31 0-3.29-1.32-1.31-2.63 3.95-3.95 11.19-5.27 17.78-5.27z"/><path d="m1426.56 588.52c-1.97 5.93-11.19 3.95-17.12 5.27-1.32 0-1.98-1.32-3.3-1.98-.65-1.97 1.98-1.97 3.3-3.29 5.93 1.32 12.51-3.95 17.12 0z"/><path d="m1622.86 591.81c1.32 1.98 0 5.27-1.97 4.62-5.93-1.98-15.15.65-15.81-6.59 5.93-1.98 12.51 0 17.78 1.97z"/><path d="m1692.69 593.79c0 4.61-6.59 2.64-8.57 2.64-2.63-2.64-9.88 0-8.56-6.59 4.61-1.98 11.86 0 17.13 3.95z"/><path d="m1255.95 589.84c-1.97 3.95-5.92 5.93-9.22 4.61-.66-3.29 3.96-3.29 7.25-4.61z"/><path d="m1398.9 592.47c.66 1.98-1.32 3.3-1.98 3.3-5.93 0-12.51 3.29-15.81-1.32 2.64-3.29 9.23-2.64 13.84-4.61 1.97 1.32 3.95 0 3.95 2.63z"/><path d="m1330.39 593.79c0 3.29-4.61 3.96-7.25 4.61-3.95 0-12.51 6.59-15.15-.65 7.25-1.98 13.18-5.28 20.42-5.28z"/><path d="m1652.51 597.75c.66 1.31 0 1.97-1.98 3.29-6.59-1.32-14.49-1.32-19.1-4.61 0-1.98 0-2.64 1.31-2.64 7.25 0 14.5 0 19.77 3.96z"/><path d="m1495.73 595.77c-3.29 5.27-11.86 1.98-17.13 1.98-1.31 0 0-.67 0-1.98 4.61-1.98 11.86-1.98 17.13 0z"/><path d="m1522.74 597.75c-5.27 0-13.17 1.31-19.11-1.32 5.94-2.64 13.84-1.98 19.11-.66z"/><path d="m1373.21 596.43c1.32 2.63-1.98 3.29-4.61 3.29l-16.47 3.29c0-1.31-1.98-1.97-1.32-3.29 6.59-2.64 15.81-5.27 22.4-3.29z"/><path d="m1553.04 597.08c0 1.98-2.63 1.98-5.27 1.98-4.61-1.31-13.83 1.98-15.81-3.29 5.93 0 15.15-1.98 21.08 1.31z"/><path d="m1468.72 597.08c0 2.64-3.29 1.98-5.27 2.64-5.27-1.32-11.2 3.29-13.17-1.97 5.27-3.3 11.86-3.3 18.44-1.98z"/><path d="m1719.7 601.04c1.32 1.97 0 2.63-1.32 3.95-6.59-1.32-11.86-3.95-17.78-5.93 0-1.31 0-3.29 1.31-3.29 6.59 1.31 12.52 1.98 17.79 5.27z"/><path d="m1579.39 601.04c-5.27.66-12.52 0-17.79-1.98-.66-1.98 1.32-1.31 2.64-1.98 4.61 1.32 14.49-2.63 15.15 3.96z"/><path d="m1441.72 598.4c0 2.64-1.98 2.64-3.3 2.64-5.27.66-10.54 1.97-15.15 0 3.29-3.96 11.2-3.29 17.13-3.29z"/><path d="m1678.85 601.7c0 3.29 0 3.95-2.63 5.26-5.93-1.97-15.15 0-17.13-7.9 6.59-1.31 13.84.66 19.76 2.64z"/><path d="m1302.06 603.01c-5.26 2.64-11.85 5.93-18.44 4.62 0-.67 0-1.98 0-2.64 5.27-1.98 11.2-5.27 17.13-5.27z"/><path d="m1609.69 603.01c0 .66-1.32 1.98-2.63 1.98-5.93 0-13.18 0-17.79-3.95 5.27-1.98 13.83 0 19.1.66z"/><path d="m1415.37 601.04v1.97c-5.93 1.98-13.84 2.64-19.77 1.98 1.98-5.27 10.54-3.29 15.81-5.27 1.32 0 2.64 1.32 3.96 1.32z"/><path d="m1343.56 603.01c-4.61 4.62-12.51 7.25-19.75 4.62 4.6-4.62 12.51-5.93 18.44-6.59z"/><path d="m1637.36 607.63c0 1.31-1.32 1.97-2.64 1.31-5.27-.66-12.51 0-17.13-3.95 5.93-3.29 12.52 0 18.45.66z"/><path d="m1749.34 611.58c-6.59 1.97-14.49-1.98-19.76-4.62 0-1.31-1.32-3.29.66-3.29 6.58 1.32 15.15 1.98 19.1 7.91z"/><path d="m1386.38 606.96c-4.61 1.98-9.88 3.3-16.46 3.3l-1.98-1.98c4.61-3.29 12.51-3.29 18.44-3.29z"/><path d="m1703.23 608.94c0 2.64-1.98 3.96-3.95 3.96-4.62-2.64-11.2-1.32-13.84-5.94 4.62-5.92 11.86 0 17.79 1.98z"/><path d="m1732.87 640.56c3.95 2.64 9.88 1.98 10.54 7.25l-1.97 1.31c-107.38-35.57-236.49-49.4-355.06-28.32-42.15 8.56-84.32 17.79-122.52 32.94-2.64 0-3.29-3.3-1.98-4.62 28.99-15.15 61.26-21.08 93.54-28.98 121.87-26.35 263.49-17.13 377.45 20.42z"/><path d="m1277.03 608.94-.65 2.64c-6.59 2.63-13.18 6.59-21.74 6.59 0-1.32-.66-1.98-.66-3.3 6.59-3.29 13.83-6.59 22.4-7.24z"/><path d="m1317.22 609.6c-3.96 4.61-11.2 4.61-16.47 5.93l-1.98-1.98c4.61-4.61 11.2-3.95 17.13-5.27z"/><path d="m1662.39 611.58c1.31 3.29-3.96 2.63-5.93 1.97-3.95-.65-7.24-.65-10.54-3.29l1.32-1.98c5.27 1.32 11.19 1.32 15.15 3.3z"/><path d="m1360.03 610.26c-2.63 5.27-9.88 3.95-13.83 5.27-1.97.66-3.95 0-3.95-1.32 3.95-3.95 11.85-4.61 17.13-4.61z"/><path d="m1731.55 616.85c.66 1.97 0 3.29-1.97 3.29-5.93 0-12.52-1.97-19.1-4.61 0-1.32 0-3.95 2.63-3.95 6.59 0 12.52 2.63 18.44 5.27z"/><path d="m1686.1 616.85c-2.63 4.61-9.88 0-13.83-.66-1.98-.66-.66-1.32 0-2.64 3.95.66 9.22 1.98 13.83 3.3z"/><path d="m1292.18 616.19c.66 1.98-1.31 3.95-3.29 3.95l-28.98 9.88c-1.98-.66-1.98-1.98-1.98-3.95 9.88-4.61 19.76-7.9 30.3-11.2 1.98 0 2.64 0 3.95 1.32z"/><path d="m1335 616.85c-5.93 3.29-11.86 4.61-17.78 5.93l-1.98-1.98c4.61-3.95 12.51-5.27 19.76-5.27z"/><path d="m1732.87 655.05v.66l-6.59 3.3c-140.96 36.88-315.52 40.84-457.15 1.97-1.32-.66-1.32-1.97.66-1.97 69.16-26.35 144.26-38.87 224.62-40.84 83-1.98 164.02 11.85 238.46 36.88z"/><path d="m1713.11 624.75c-.66.66 1.32 1.98-.66 1.98-5.93-1.98-13.17-1.32-15.81-5.27.66-2.64 6.59-.66 9.22 0z"/><path d="m1744.73 622.78c0 1.97-1.32 3.29-3.95 1.97-1.32-.66-1.98-3.29-1.32-4.61 3.29 0 3.95 0 5.27 2.64z"/><path d="m1307.99 624.75-15.81 5.27-1.31-1.98c4.61-2.63 9.88-5.26 17.12-5.26z"/></g><path d="m1704.55 651.76c2.63 0 3.29 3.29 1.97 5.27l-7.24 3.95c-122.53 28.33-268.76 30.96-393.26 5.93-5.93-1.98-12.52-1.32-15.81-5.93 0-5.93 6.59-3.95 10.54-7.24 122.52-39.53 280.62-40.19 403.8-1.98z" fill="#373435"/><path d="m1739.46 633.97c-5.27.66-11.2-2.63-16.47-3.95l.66-1.98c5.93 1.32 11.2 1.98 15.81 5.93z" fill="#fefefe"/><path d="m1555.02 631.34-1.98 2.63c-34.26 2.64-70.48 2.64-106.71 0 34.91-3.95 73.12-5.93 108.69-2.63z" fill="#fefefe"/><path d="m1282.96 631.34c-5.93 4.61-13.17 7.25-19.76 7.9-1.98-5.27 6.59-3.29 9.88-6.58 2.64-.66 6.59-3.3 9.88-1.32z" fill="#fefefe"/><path d="m1604.42 637.27c-23.05 5.27-48.74 5.93-73.12 7.9-44.79.66-91.56 1.98-133.72-4.61l-.66-1.97 21.08-3.96c26.35 12.52 59.29 6.59 89.59 8.57 27.67-1.32 56.65-1.32 82.34-8.57z" fill="#fefefe"/><path d="m1641.31 643.86c-88.27 15.15-191.03 17.12-279.3 1.97 3.29-3.29 10.54-3.29 15.81-2.63l5.93 3.95c75.75 7.9 156.12 7.24 230.55-3.29 8.56-.66 19.1-6.59 27.01 0z" fill="#fefefe"/><path d="m1666.34 649.12c-102.1 23.06-224.62 23.06-329.36 3.96l-1.98-1.32c5.93-4.61 11.2 0 17.13 1.32 97.49 13.83 210.79 15.15 306.96-5.93 1.98.66 6.59-1.32 7.25 1.97z" fill="#fefefe"/><path d="m1690.71 655.05-3.29 1.98c-117.25 25.03-258.22 28.32-376.79 3.29l-.66-1.97c3.29-1.32 9.22-1.32 13.17 0 114.62 19.76 249 24.37 360.98-5.27 1.98 0 4.62.66 6.59 1.97z" fill="#fefefe"/><path d="m1329.73 1338.15c0 5.27.66 10.54-7.9 5.93l-.66-5.93h-96.83c5.92 3.29 11.85 7.25 19.1 8.56 2.63 7.25 10.54 5.94 16.47 8.57 1.97 9.22 13.83 6.58 21.73 8.56l3.96 9.22c7.24 6.59 17.78 11.2 27.66 7.25 3.96-3.29 9.88-5.27 9.88-9.88 0-3.3-1.31-7.25-3.95-9.88-5.93-1.98-12.51-1.98-17.13-.66-5.26.66-7.9 4.61-9.88 8.56-1.97-1.32-1.31-3.29-1.31-4.61 4.61-7.25 15.15-11.86 24.37-10.54 7.9 1.98 13.83 7.25 18.44 13.83 0 3.3-.66 7.25 2.64 8.57 12.52 2.64 19.76 18.44 33.6 19.76 13.83 1.98 27-7.25 34.25-19.1l17.12-.66c13.18-11.86 30.96-.66 45.46-.66 3.95 1.32 8.56-.66 10.54 3.3-9.89 7.9-21.74 15.15-26.35 26.34 4.61 2.64 10.54 4.61 15.81 2.64 3.95-5.93 11.85-11.86 17.78-17.79 3.95-1.32 7.25 4.61 10.54 5.93 2.64 5.93-1.32 15.15 5.93 15.81 3.95-1.98.66-8.56 2.63-13.18 1.98-3.95 5.94-5.92 9.88-7.24 5.27-3.95 10.54-2.64 13.84 2.64 7.91 4.6 10.54 17.12 20.42 17.78 2.64-2.63 9.22-4.61 9.22-9.88-7.24-9.88-18.44-17.13-28.32-23.05v-1.98c16.47-1.98 32.93-2.64 48.74-7.25 3.96 1.32 7.91 3.95 11.86 4.61 5.93 1.32 13.17-2.63 17.79.66l2.63 12.52c2.63 5.27 7.25 8.56 11.86 11.19 4.61-3.95 8.56 3.3 13.17 3.3 15.15 3.29 28.98-3.3 39.52-11.86 0-2.63-2.63-3.29-1.97-5.93l13.83-18.44c5.27-4.61-2.63-6.59-1.98-11.86 1.32-7.24 7.25-7.24 13.18-7.9 7.91 7.25 19.76 5.93 27.01 13.17 1.32 3.95 0 6.59-2.64 8.56-1.97-.65-1.97-2.63-1.97-3.95-1.32-4.61-6.59-3.29-9.22-3.29-4.62.66-8.57 6.59-7.25 10.54 1.98 1.97 3.95 3.29 5.27 3.95 7.25 1.32 13.17 0 17.13-3.95 2.63-3.95 4.61-7.91 3.95-13.18 2.63-9.22 11.2-1.97 16.47-3.29 6.58-5.93 17.78-.66 23.71-7.9.66-1.98 0-4.62 1.98-5.93 5.27 0 10.54-.66 15.81-1.98h-214.09c-1.98 6.59-3.29 13.18-2.63 20.42-5.27 3.95-12.52 1.32-19.11 3.95-1.31-5.27 6.59-8.56 7.25-13.17 1.32-3.29 0-7.91-.66-11.2h-31.62c-2.64 1.98-4.61 4.61-5.27 8.56 0 3.96 2.63 5.94 5.27 7.25 4.61 2.63 8.57 0 12.52-.66 1.97-1.32 3.95-2.63 2.63-5.93-2.63-5.27-6.58 1.98-10.54-.66 0-3.95 5.27-5.27 7.91-6.58 3.95 0 10.54-2.64 11.85 3.95 0 7.25-5.92 12.51-12.51 15.15-5.93 1.32-12.52 5.27-19.77 3.29-3.29-5.27-7.24-9.22-13.83-8.56-9.88-1.98-14.49 13.17-23.71 7.9-8.57-3.95-21.74-7.9-21.74-19.76 1.32-5.27 8.56-3.95 12.52-2.63 2.63.66 6.58 3.29 6.58 6.59-3.95-.66-6.58-4.62-9.88-1.98-1.32 1.32-1.32 2.63-.66 5.27 2.64 2.63 6.59 5.93 11.2 5.93 3.95 1.97 7.25 0 8.57-3.95 1.97-5.93-1.32-9.89-5.27-13.18h-29.65c-1.31 2.64-1.97 5.27-.66 8.56 2.64 5.94 7.25 13.18 13.84 17.13-6.59 2.64-13.84-.66-21.74-1.32l-1.32-2.63c.66-6.59 7.91-15.81-.66-21.74h-112.64zm-14.49 30.3c.66 2.64-3.29 4.61-5.27 5.93-3.95.66-9.22.66-11.86-1.32.66-2.63 5.27-6.58 9.88-7.9 1.98 1.97 5.27 0 7.25 3.29zm399.19.66c0 1.32-3.95 1.32-5.27 0-1.98-1.98 0-2.63 1.32-3.95z" fill="#373435"/><path d="m1325.12 1265.03c5.27 4.61 9.88 9.23 14.49 13.18-6.59 7.9-1.32 21.08-12.51 27.01-3.96 9.88 3.95 15.8 5.92 24.37-3.29 1.32-3.29 5.27-3.29 8.56h112.64s0 0-.65-.66c1.97-5.93-1.32-10.54-3.3-15.15 11.2 0 22.4 3.95 33.6 3.95 35.57-1.97 69.82 1.98 102.1-7.24h3.95c-.66 6.59-2.63 13.17-4.61 19.1h214.09c6.58-1.32 12.51-4.61 17.78-8.56 1.32-2.64 1.98-6.59-.66-8.57-8.56-1.97-17.12-4.61-25.03-9.88-9.88-17.12 17.79-1.97 20.42-15.15 9.88-2.63 19.1-5.93 27.67-11.2 3.95-1.97 0-4.61 0-6.58 5.93-3.95 10.54-9.22 15.81-13.18h-96.83c0 1.32 0 3.3-.66 3.96-2.64 1.31-3.96-1.98-5.93-3.96h-18.45c-1.97 1.98-3.29 3.96-4.61 5.93 0 3.3-1.31 5.93 1.32 8.57 2.64 2.63 7.25 3.29 9.88 1.31 1.98-2.63 4.61-4.61 4.61-7.24-1.32-2.64-3.29-.66-4.61.66-1.98 1.97-3.95 3.95-6.59 1.97-.65-1.97 0-5.27 1.98-7.24 1.98-2.64 7.9-3.96 11.2-1.98 2.63 1.98 2.63 5.27 3.95 7.9 0 5.27-2.63 9.88-7.25 12.52-7.9-5.27-19.76-1.32-27 2.63-5.27 5.93-9.22 11.86-5.27 19.11 0 1.97 0 3.95-2.64 4.61-2.63 0-5.27-2.64-7.9-4.61-1.32-7.91 1.32-15.15 5.92-20.42 0-2.64-1.97-5.93-4.6-6.59-9.89-1.32-18.45 3.95-28.33 3.95-2.64 0-2.64-3.95-2.64-5.93 6.59-4.61 13.18-9.88 19.11-15.15zm-100.78 73.12c-1.98-1.32-4.61-2.63-6.59-3.29-1.98-1.32 0-3.3 0-4.61 8.56-5.93 19.76-5.93 25.69-12.52 0-2.63-.66-5.27-1.98-6.59-3.95 1.98-9.88 1.32-12.52-1.31-2.63-2.64-2.63-4.61-5.26-7.25-9.22 2.64-20.42 4.61-30.31 2.64-2.63-1.32-.65-5.27 1.32-5.93 3.3-5.93-5.93-5.27-7.9-7.91-3.3-2.63-9.22-4.61-11.2-9.22 0-5.93 9.88-8.56 3.95-13.83-1.32-.66-3.29-1.98-4.61-3.3h108.03c-1.97 1.98-4.61 3.96-7.9 5.93 0 1.98.66 2.64 1.32 3.95 2.63-1.31 3.29-5.92 6.58-7.9 3.95-1.98 7.91-1.98 11.86 0 7.24 2.63 9.88 9.22 11.2 17.13-1.32 3.29-5.93 4.61-9.22 6.58 9.22 1.32 18.44 3.3 23.05 11.2 9.22 7.91 3.29 18.45 0 27.01l1.32 9.22zm258.22 0c-.66-.66-1.32-1.98-2.64-2.63-6.59-5.27-16.47-6.59-23.71-1.98-1.32 1.32-2.64 2.63-3.3 4.61zm75.75 0c-3.29-4.61-9.22-7.24-16.47-6.59-5.27 1.32-11.2 3.3-15.15 6.59zm-260.2-59.94s.66 1.97.66 3.95c-1.97.66-3.95 0-4.61 0-3.29-2.63-3.29-7.25-5.93-9.22 3.95-3.3 8.57 1.32 9.88 5.27zm-4.61 10.54c-.66 2.63-4.61 2.63-5.93 1.97-1.97-3.29-4.61-5.93-3.95-8.56 3.29 1.98 6.59 5.27 9.88 6.59zm-12.51 3.95c-1.98.66-5.27.66-7.25 0-.66-2.64 1.98-5.93 2.64-8.56 2.63 1.97 3.29 5.27 4.61 8.56zm318.16 21.08c-1.98 3.95-5.93 7.24-11.2 6.59l-2.63-2.64c3.95-2.63 9.22-5.27 13.83-3.95zm32.28-14.49c-1.32 2.63-3.95 5.93-5.93 7.9-2.64 0-2.64-1.97-2.64-1.97 0-5.27 5.27-5.27 8.57-5.93zm61.26 31.62c0 2.63 0 7.24-3.29 5.92-3.3-1.31-.66-5.27 0-7.24.66-1.32 4.61 0 3.29 1.32zm56.65-40.19c-3.29 1.32-5.93 0-9.88 0 0-3.29 1.98-6.58 3.95-9.88 3.95 1.32 5.27 5.93 5.93 9.88z" fill="#373435"/><path d="m1270.45 1191.92c1.31 3.95 3.29 7.24 4.61 11.19-9.88-1.97-21.08-7.24-32.28-5.27 1.32-1.97 2.64-3.95 3.95-5.92h-85.63c.66 3.29-.66 6.58-1.98 9.22 0 3.95 3.29 7.9 6.59 10.54 5.93 1.32 9.88 7.24 16.47 7.9 1.31 1.32 5.27 3.3 3.95 5.93-3.95 3.95-8.56 5.27-12.51 6.59-4.62 1.97-11.86-1.32-15.16 3.29-3.95 13.18 6.59 21.74 16.47 29.64h108.03c8.57-8.56 10.54-21.08 9.88-32.93h1.32c9.88 11.2 20.42 22.39 30.96 32.93h353.08c23.71-21.73 42.16-46.11 55.33-73.11zm497.99 0c-3.29 1.31-6.58 2.63-9.88 3.95-5.27-.66-12.51-6.59-15.15 1.97-7.24 13.84-25.03 28.99-17.13 47.43 3.96 6.59 11.2 14.49 19.11 16.47.66.66 1.32 1.98 1.32 3.29h96.83c1.97-1.31 3.95-2.63 5.92-3.29 2.64-4.61-3.95-5.93-3.95-8.57 5.27-8.56 8.57-17.78 17.79-23.71 1.32-7.25-8.56-5.27-11.86-8.56 2.64-9.22-9.88-3.96-11.19-9.22 8.56-4.62 15.8-11.86 20.42-19.76h-67.85c.65 1.97.65 3.29 0 5.92-3.3 1.32-7.91 1.98-11.86 1.32-1.32-1.98-1.32-5.27-1.98-7.24zm-28.32 73.11c0-.66-.66-.66-.66-1.31-2.64-2.64-7.25-3.96-11.2-2.64-2.63.66-4.61 1.97-6.59 3.95z" fill="#373435"/><path d="m1776.35 1118.8c-9.88 13.17-24.38 26.34-19.11 44.79 3.96 15.81 20.42 23.05 34.26 25.03.66 1.32.66 1.98 1.32 3.3h67.85c1.97-3.96 3.95-7.25 5.27-11.2 0-5.93 9.22-13.18 0-17.79 3.29-7.9 5.92-16.47 5.92-24.37-1.97-4.61-7.9-.66-9.22-5.27 1.98-4.61 3.95-9.89 5.27-14.49zm-615.25 73.12c0-.67-.66-1.32-.66-1.98-4.61-15.15-15.81-33.6-1.98-47.43-3.29-9.22-.66-16.47 2.64-23.71h595.49c-3.96 25.69-11.2 50.06-23.06 73.12h-463.08c-4.61-9.89-8.57-19.11-12.52-28.33-1.98 9.88-5.93 19.1-11.2 28.33zm617.88 0c-.66-1.32-1.32-1.98-2.63-1.98-3.3 0-5.27.66-7.91 1.98zm-526.98-46.12c-3.95-.66-1.97-5.92-1.97-9.22.66 3.3 4.61 7.25 1.97 9.22z" fill="#373435"/><path d="m1242.78 825.66.66 2.64c-.66 8.56 1.32 18.44-1.32 23.05-3.29-4.61-.66-12.51-5.27-17.12-3.95-3.96-7.91 1.31-11.85-.66 3.29-2.64 7.9-5.93 11.85-7.91h-65.21c1.31.66 2.63 1.32 3.95 1.98 5.93 2.63 17.78-5.93 17.78 4.61-3.95 0-6.58-1.98-11.19-1.98-2.64 3.3-8.56 3.96-8.56 8.57-1.98 3.95 0 8.56 1.97 10.54 5.27 3.95 9.22-1.98 13.17-2.64 0 3.3 1.98 6.59-1.31 8.57-3.96.65-8.56 0-12.52-.66-6.59-1.32-12.52-11.86-19.1-7.25 3.95 9.88 0 22.4 1.97 32.94.66 3.29-3.29 3.29-4.61 3.29-6.58 1.98-3.95 11.2-3.95 16.47 1.32 8.56 16.47 16.47 3.29 22.39.66 11.86 11.2 24.38 21.09 28.99-7.25 10.54-14.5-1.98-23.06-.66-4.61 3.29 0 7.25 0 11.86-2.64 7.24 7.9 15.81-1.32 21.08 1.32 7.9 10.54 11.2 16.47 13.83.66 15.15-15.15 25.03-7.91 41.5 2.64 3.95 6.59 8.56 12.52 9.88 5.27 1.32 13.17-1.32 18.44 1.98 0 4.61 1.98 10.54.66 13.83-7.24-2.63-13.83-12.51-23.05-8.56-4.61 3.95-7.91 7.24-7.25 13.17 0 5.93 3.29 11.2 9.88 15.15 2.64 1.98 6.59 0 8.57-3.95 1.97-5.27 1.32-11.2-3.95-15.81-.67-1.98-7.25.66-7.25-2.63 1.97-.66 3.29-1.98 5.27-1.98 7.9 3.29 15.15 10.54 17.12 17.79-3.95 6.58-5.27 15.15-6.58 23.05-2.64 7.24-11.2 0-15.81 4.61-1.32 4.61-3.96 8.57-5.27 13.18h595.49c1.31-9.88 1.97-19.11 1.97-28.99 0-11.85 1.32-22.4 1.32-33.59 4.61 2.63 7.25 7.9 4.61 13.17-7.9 9.88 7.91 20.42 2.64 30.96 1.31 7.25 6.58 12.52 9.22 18.45h91.56c1.98-7.25 2.64-13.84 0-21.08-1.97-2.64-1.97-6.59-5.93-6.59-7.9 3.29-15.81 13.83-23.05 7.25-1.98-7.91-3.3-17.13-11.2-20.42-.66-5.28-.66-12.52 1.98-15.16 3.95-4.61 8.56-8.56 13.83-8.56 2.63 1.98 5.92 4.61 5.92 7.25-3.29 3.95-5.92-3.96-9.21-2.64-3.3 1.32-4.62 4.61-5.94 6.59-.65 3.95 0 9.88 3.96 13.17 3.29 2.64 8.56 0 11.86-3.29 2.63-3.95 4.61-9.88 3.95-16.47-1.98-2.63-4.62-6.58-8.57-7.9-7.24-1.98-12.51 3.29-18.44 6.58-3.3 0-3.3-3.29-3.3-5.26 1.98-7.25 11.21-1.98 15.16-5.28 15.15-5.92 19.76-21.73 19.76-36.23 1.98-6.58-4.61-8.56-7.25-11.85 12.52-7.25 25.69-19.76 27.01-34.26-10.54-7.24 7.25-10.54 1.32-17.12-7.91-1.98-16.47 0-23.72 1.97-12.51-2.63 4.62-7.9 0-13.83 4.62-8.56 15.81-17.13 9.89-27.01 3.29-11.86 1.31-25.69-2.64-36.23 1.32-7.9 4.61-17.78-.66-25.03-7.9-2.63-10.54 4.61-15.81 7.25-3.29 2.63-8.56 1.31-9.88-2.64-3.95-1.32-7.24 1.32-11.2 2.64-3.95-3.3-5.27-9.88-7.9-14.5 5.92-5.92 1.31 6.59 7.24 6.59 3.95 2.64 9.22.66 13.18-1.32.66-2.63 2.63-6.58 1.98-9.88-1.32-4.61-5.27-7.9-8.57-9.88h-10.54c0 1.32-1.31 1.32-2.63 1.98-.66 0-1.98-.66-1.98-1.98h.66-48.75c4.61 5.27 9.88 11.2 4.61 17.79-10.54 3.29-3.29 15.15-10.54 19.76.66 6.59 3.3 11.2 3.96 17.13-3.3 15.15-11.86 35.57 0 48.74 3.29 3.96 7.9 6.59 11.19 10.54-1.31 5.27.66 10.54 1.98 15.81-4.61 0-9.88-3.29-12.51 1.98 1.31 7.24 3.29 16.47 0 22.39-3.3-.65-6.59 1.32-8.57-1.31l-1.32-152.83zm-26.35 13.18c-1.97 1.31-2.63 2.63-5.27 1.97 1.98-1.31 3.3-1.97 5.27-1.97zm-13.17 1.97c-1.98.66-3.3 3.96-5.93 2.64l-1.32-7.91c1.98 1.98 6.59 2.64 7.25 5.27zm-15.81-.66-.66 1.32c-.66 0-4.61 0-1.98-2.63.66 0 1.98.66 2.64 1.31zm55.99 78.39c1.32 15.81 1.32 30.96.66 46.11-6.59 13.18-20.42 9.89-28.99 18.45-3.95.66-4.61-1.98-5.27-4.61.66-11.2 1.32-23.06 12.52-28.99 2.64-.65 6.58-1.97 6.58 1.98 1.32 2.63 0 5.27-2.63 6.59-2.63 0-7.24-1.32-8.56 2.63s1.98 5.27 3.95 5.93c5.93 1.98 9.22-1.98 13.18-5.93 2.63-4.61 2.63-10.54 0-13.83-3.3-6.59-9.88-6.59-15.15-5.27-1.98 1.32-3.3 3.95-5.93 3.29-2.64-1.97-2.64-5.27-2.64-7.25 6.59-1.97 14.49-1.97 20.42-7.24 4.61-3.29 8.57-8.56 11.86-11.86zm-42.16 28.99c1.98 4.61.66 10.54 0 15.15-5.27-.66-11.86-6.59-17.79-1.98-3.95 0-4.6-4.61-7.9-7.24 10.54.65 17.78-1.98 25.69-5.93zm43.48 115.27c0 1.98-2.64 2.64-4.61 4.61-3.3-.65-6.59-3.29-7.25-5.26 4.61-3.3 7.25-9.88 11.86-9.23zm0-25.03c0 1.32 0 1.98-1.32 2.64-.66 0-1.32 0-1.98-1.32 0-1.32.66-2.64 1.98-3.29 1.32-.66.66.65 1.32 1.97zm-28.99 33.6c-1.97 2.63-7.25 5.27-11.19 3.95-.67-1.32-4.62-2.64-1.98-3.95 3.95 0 8.56-.66 13.17 0zm-42.15 2.63c0 2.64 0 3.96-1.98 4.61-3.3 0-5.93-4.61-7.25-7.24l1.32-1.98c3.29 0 7.24 1.32 7.91 4.61zm658.06 27.01c0 3.29-3.95 3.29-6.59 3.95-4.61-3.29.66-9.22 0-13.83 6.59-3.29 4.62 6.59 6.59 9.88zm15.81-31.62c0 1.98-.66 4.61-2.64 5.93-3.29 0-5.92-1.32-5.92-3.95l1.32-3.96zm-85.63-32.94v1.98l-1.98-1.98c.66 0 1.32 1.32 1.98 0zm36.88-71.8c-3.95 0-7.9-3.95-11.19-6.58 2.63-1.32 5.92-5.93 9.88-5.93zm24.38-11.19c-2.64 5.27-9.23 9.22-13.18 12.51-1.32-5.27-3.29-9.88-1.97-15.15 5.92.66 9.88 2.64 15.15 2.64zm8.56-116.6v1.98c-1.97-.66-3.95-1.98-3.95-3.3 1.31-1.97 3.95 0 3.95 1.32z" fill="#373435"/><path d="m1171.64 825.66c-4.61-1.97-8.57-4.61-9.88-9.22-2.64-8.56-1.98-17.78 3.95-25.03 1.97-4.61 5.93 0 9.88-1.98 5.93-6.59 13.17-17.12 23.06-15.15 2.63-5.27 3.95-13.83.66-19.76-3.3-1.32-8.57-3.29-12.52-.66-1.98 1.32-3.3 4.61-1.98 6.59 0 .66 1.32.66 1.98.66 1.97-1.98 1.97-5.93 5.27-5.93 2.63 0 4.61 1.98 4.61 3.95.66 3.96-1.98 7.9-5.93 9.88-3.29 1.32-7.25.66-11.2-1.31-3.95-2.64-4.61-7.25-3.95-11.2 1.98-3.95 5.93-9.23 11.2-11.2 5.27-2.64 11.2 3.95 15.15-1.98.66-9.88-.66-21.08-11.2-26.35-3.29-1.31-7.25 0-9.88 1.32-3.29 1.98-5.27 4.61-5.27 8.56 0 1.98 1.32 4.61 3.95 5.93 1.32 0 2.64 0 3.95-1.32 0-3.29-2.63-6.58 1.32-9.22 3.95 0 5.93 3.3 7.25 5.27 0 5.93-2.64 10.54-6.59 12.52-4.61 1.32-8.56 0-11.85-1.98-3.3-1.97-4.62-6.59-4.62-10.54.66-5.27 1.98-10.54 6.59-13.83 3.95-3.95 9.22-4.61 13.83-3.95 8.57 1.31 14.49 10.54 19.77 15.81 5.27-1.98 11.85-3.96 17.12 0 5.27 4.61 4.61 13.17 2.63 19.76-1.31 3.95-6.58 5.93-9.87 4.61-3.96-.66-5.27-4.61-6.59-7.25 0-2.63.66-4.61 2.63-5.26 2.64-1.32 4.62 2.63 7.25 3.95 2.64-2.64 0-7.25 0-9.23-2.63-1.97-4.61-3.29-7.25-.66-10.53 8.57-5.27 23.72-7.24 35.57.65 3.3 4.61 3.3 6.59 2.64 7.24-.66 14.48-12.51 21.73-6.58-1.31 9.22 1.32 15.8 5.93 22.39l1.32-1.97v-71.15l2.63-2.63 373.5-1.32 133.72-1.32 2.64 3.3c0 23.05-1.32 44.13.66 65.87 1.97 0 4.61-.66 5.92-1.98 5.93-4.61 7.25-13.17 5.93-21.08 5.27-3.29 9.22 7.25 14.49 1.32 4.62 1.98 7.91 5.93 11.86 8.57l1.98-2.64c-.66-10.54-1.98-19.1-3.95-28.99-2.64-3.29-7.25-5.27-11.2-3.29-3.3 1.98-5.27 5.27-3.96 7.91 1.32 1.97 1.98 1.97 3.3 1.32.66-1.32 1.97-3.96 2.63-5.28 3.96-.66 5.93 1.32 5.27 3.96 0 3.95-1.97 7.9-5.93 9.22-3.29 1.97-6.58 0-9.22 0-3.29-3.95-3.95-9.22-3.29-13.84 1.32-3.95 4.61-8.56 9.22-10.54 5.93-2.63 13.18 1.32 19.1 1.98 3.96-7.9 9.23-20.42 20.42-21.74 4.61-1.31 10.55 0 14.5 3.3 3.29 4.61 5.27 9.88 3.29 14.49-1.32 3.95-5.27 7.24-9.22 7.9-3.96 1.32-5.93-1.31-9.22-3.29-1.98-1.98-3.95-4.61-1.98-7.25 1.98-1.97 5.27-.65 6.59 0 .65 1.98 3.95 3.96 5.92 1.98 2.64-1.98.67-5.93 0-7.9-1.97-3.3-7.24-3.3-10.53-1.98-9.89 5.27-13.18 14.49-13.84 23.71 5.27.66 11.86 0 15.81 3.96 3.29 2.63 3.29 7.24 4.61 11.19.66 5.28-3.29 8.57-8.56 11.86h-3.95c5.27 3.96 11.19 11.86 19.1 11.2 7.25 5.27 6.59 15.15 11.86 21.08 2.63 9.22 0 19.76-6.59 27.01-1.97 1.97-5.27 3.29-7.24 5.93.65.65 1.31 1.31 1.97 1.31h-10.54c.66 0 .66-.66.66-1.31-1.97-.66-3.29.65-4.61 1.31h-48.75c-1.31-1.97-3.29-3.95-4.61-5.93-2.63-3.95-.66-10.53-6.59-11.85v17.78h-514.46v-1.31c-1.98 0-3.95.65-5.93 1.31zm646.21-80.36c0 1.97-1.32 3.29-1.98 3.95-3.29-1.98-5.93-5.27-9.88-3.95 0-1.98 1.32-3.95 3.95-5.27 2.64-.66 6.59 1.32 7.91 5.27zm-7.91 12.52c-5.27 2.63-7.24-3.96-5.27-8.57z" fill="#373435"/><path d="m1692.69 731.46-68.51 21.09-194.98 57.96c-54.02 15.15-106.06 32.28-161.39 46.11v-1.31c-1.32-40.85-1.32-81.03 0-121.21l1.98-1.32 346.49-2.63c25.03 0 51.38-1.32 76.41 1.31z" fill="#00a859"/><path d="m1732.87 736.08c1.32 34.91 1.98 67.19.66 102.76l-11.86 4.61-265.46 80.36c-61.92 17.13-123.19 36.89-185.76 54.02-3.96.66-1.32-3.29-2.64-4.61 0-34.26-1.97-67.85 0-102.11l3.95-2.63 385.36-114.62c24.37-7.9 49.4-13.83 74.43-20.42z" fill="#ed3237"/><path d="m1792.82 769.01c1.97 1.98 5.92 3.3 9.88 2.64 2.63-2.64 4.61-5.93 7.9-3.95 5.93 4.61 12.52 8.56 13.17 15.81 3.96 1.97 9.89-1.32 7.91 5.92 0 1.98-1.32 5.27 0 7.25 2.63 2.63 7.25 4.61 5.27 8.56-1.32 4.61-3.29 9.22-7.91 11.2-7.24 3.95-15.15-5.27-19.1 3.95-4.61 7.91-12.51 13.84-22.39 13.18-5.93-1.32-9.23-7.91-12.52-11.86-.66-3.29 4.61-5.93 1.32-9.88-3.3-2.63-9.22-2.63-9.88-8.56 5.93-5.27-5.27-13.84 5.27-17.79-1.32-7.25 1.31-13.83 4.61-18.45 5.27 4.62 11.2-3.94 16.47 1.98z" fill="#00a859"/><path d="m1238.83 805.24c-1.98 2.64-2.64 7.25-1.98 11.86-5.93 3.29-11.2 7.25-17.78 5.93-1.32-.66-1.32-2.64-1.32-4.61 4.61-2.64 11.19-1.98 15.15-6.59-2.64-1.32-5.27-6.59-9.22-5.27-1.32 2.64-2.64 4.61-4.61 5.27-2.64-.66-4.61-.66-5.27-1.98 1.31-9.22 13.17-1.97 17.78-9.88 1.32-.66 1.98-1.97 1.98-3.95-4.62-2.63-12.52 8.56-13.83-.66 1.97-3.95 7.9-9.88 5.27-15.15-5.27 1.98-7.25 6.59-11.2 3.3-3.3 3.95 5.93 11.85-2.64 13.17-5.27-.66-.66-14.49-7.9-6.59-3.3 5.27 7.9 15.15-1.98 13.18-6.59-.66-4.61-13.84-11.86-8.57 0 3.3 3.95 8.57-.66 9.88-5.27 1.98-11.19 3.3-13.17 8.57 7.9 1.31 15.15-9.88 23.06-1.98-1.32 7.25-9.89 8.56-16.47 9.22-6.59 1.32-11.2-.66-13.84-5.93.66-4.61-2.63-9.88 1.32-13.17 11.86 1.98 11.2-13.83 21.08-17.78 3.95-1.32 5.93 5.92 10.54 1.97 5.27-9.22 16.47-9.22 24.37-13.17h3.29z" fill="#00a859"/><path d="m1794.79 784.16c2.64-1.32 0-5.93 5.27-5.93 2.64 4.61 2.64 11.2 1.32 16.47l3.29 1.98c5.27-5.27 0-14.49 5.27-20.42 2.64-.66 3.95 1.97 6.59 3.95-.66 5.27-6.59 9.22-2.64 14.49 2.64 0 3.96-6.58 7.91-6.58 1.32 5.92-5.27 9.88-7.24 15.15 1.97 3.95 9.21 1.31 10.53 4.61-4.61 5.27-14.49-3.3-19.1 3.95-5.27 4.61-5.93 10.54-8.56 15.81-2.64-7.25-18.45.66-7.91-7.91 3.3-1.31 7.25-2.63 9.22-7.24-2.63-4.61-5.92 1.97-11.19 0-1.98 0-3.96 0-5.93-1.98 1.31-.66 1.31-1.31 1.31-2.63 4.62 0 10.54 0 13.18-4.61-3.29-3.3-5.93 0-8.56 0-5.93-.66-12.52-1.98-13.84-7.25 5.27-1.32 13.84 7.25 17.13-1.98-3.29-3.95-11.86-3.95-12.52-10.53 2.64-1.98 5.27 1.97 8.57 0 0-3.3-5.27-7.25 0-7.91 2.63 2.63 3.95 7.91 7.9 8.56z" fill="#373435"/><path d="m1212.48 818.42c0 4.61 3.29 11.85-3.29 13.17-3.3 0-7.91-1.32-9.23-5.93 0-3.95 3.3-7.24 6.59-11.2 3.29 0 4.61 1.98 5.93 3.96z" fill="#00a859"/><path d="m1800.06 853.33c5.27-3.95 9.88 1.32 15.81 0 .66 1.98.66 3.95.66 6.59-4.61 0-10.54-2.64-13.83 2.63-1.32-2.63 2.63-7.24-1.32-9.22-2.64 1.32-2.64 5.27-6.59 6.59-4.61-1.32-5.93-14.5-11.86-9.23-1.31 3.96 5.93 7.91 1.98 9.88-3.95-1.97-8.56 3.96-9.88-1.97-1.32-3.29 3.95-3.95 3.95-7.91 1.32-3.29.66-7.24 3.95-9.22 7.25 1.32 9.89 11.86 17.13 11.86z" fill="#00a859"/><path d="m1231.58 855.31c5.93 3.29 8.57 9.88 6.59 16.46-.66 3.96-4.61 6.59-6.59 8.57-9.88-5.93-4.61-23.06-19.1-24.38-3.96 0-10.54 6.59-13.17-.65.65-1.98 2.63-4.62 4.6-4.62 10.55 5.27 15.82-9.88 27.01-7.24 2.64 3.29-.66 7.9.66 11.86z" fill="#00a859"/><path d="m1734.85 853.33 1.32 124.5c-1.32 1.97-4.62.66-6.59.66-51.38-9.22-108.03-19.76-160.73-5.27-34.91 5.93-69.17 13.83-108.03 10.54-44.14-6.59-90.9-15.81-138.99-7.91h-1.98c23.71-9.88 50.72-15.15 75.75-24.37l299.73-90.25c12.51-2.63 24.37-7.9 38.2-9.88z" fill="#fff212"/><path d="m1858.69 859.92c-.66 4.61-.66 8.56-4.61 11.85-4.62 1.98 0-8.56-7.25-5.27-6.58 5.93-9.88 13.84-15.15 20.42-1.32-2.63 2.63-7.9 2.63-12.51-3.95-4.61-6.58 1.97-10.54 1.97-1.97 6.59 3.3 13.18 0 19.77-5.26 1.32-1.97-9.23-7.24-5.93-1.97 4.61 1.32 9.88-.66 14.49-9.22-4.61-8.56-15.15-11.2-23.71-5.93 3.95-.66 12.51 0 17.78.66 2.64 3.3 7.9.66 9.88-10.54-1.98-9.22-13.17-13.83-19.76-1.98.66-4.61 2.63-7.91 0-2.63-1.32-1.97-3.95-.66-4.61.66-5.27 6.59-3.95 9.89-3.95 4.61-3.3 9.88-9.23 15.15-6.59 1.97.66 5.92 2.63 6.59 0 3.95-3.95 9.21-11.2 17.12-11.2 6.59 5.93 13.83 0 20.42-2.63 1.98-1.32 7.25-6.59 6.59 0z" fill="#00a859"/><path d="m1201.28 867.82c4.61.66 9.22-2.63 14.49-.66 1.98 6.59 1.98 13.84 7.91 19.76 0 1.98 1.97 4.61 3.95 5.93 3.95 0 9.88-3.29 9.88 2.64 1.32 13.17-2.63 25.03-13.83 31.62-3.95.66-9.22 1.97-13.84.66-3.29-1.98-3.95-5.28-3.29-9.23 3.29-3.95 7.91-5.93 12.52-6.58 3.29.65 6.58 6.58 9.87 3.95-1.97-3.3-1.31-7.25 3.96-9.23 0 0 0 0 0-1.31-3.96-3.95-9.22 3.29-13.83-1.32-1.32-6.58 6.58-12.52 0-16.47-5.93 5.93-3.3 19.1-14.49 21.08-2.64 0-2.64-3.29-2.64-5.92-.66-7.91 7.9-15.16 2.64-22.4-5.93 1.98-2.64 9.88-7.91 14.49-5.93-1.98.66-10.54-1.98-14.49-1.32-1.32-3.95-1.98-3.95 0-1.98.66-1.32 4.61-3.95 3.95-5.27-3.29-7.25-9.88-11.2-11.86-4.61 5.93 5.93 10.54 6.59 16.47-4.61 1.32-7.25-4.61-10.54 0 5.93 6.59 17.78 4.61 19.1 15.81-5.93 3.95-13.83-1.97-20.42-1.97-1.32 0-3.95 0-1.98 2.63 7.25 8.56 22.4 1.98 28.99 11.2 0 3.95-2.64 5.27-5.27 5.92-7.25 3.3-14.49-2.63-20.42 1.32 0 3.96 14.49 3.3 3.95 9.23-.66 0 0 1.31 0 2.63 3.3 1.32 3.3 3.29 5.27 5.27 4.61-5.27 7.9-15.81 17.79-13.17 3.95 3.95 0 7.9-.66 10.54-3.3 4.61-8.57 7.24-14.5 7.24-7.9 0-15.15-5.27-21.08-12.51-.65-2.64-2.63-3.96-1.97-5.93 3.29-3.3 7.9-3.3 8.56-7.25 0-5.93-7.24-7.9-9.22-13.18-.66-3.94-7.25-11.19-.66-15.15 13.83 0 2.64-13.83 5.27-21.73 1.32-3.3-.66-8.57 1.98-9.88 11.2 5.27 24.37 1.31 34.91 7.9z" fill="#00a859"/><path d="m1784.91 865.84c0 5.27-5.27 8.57-8.56 11.86-2.64-1.97-3.3-3.95-3.3-6.59 3.3-3.95 5.93-8.56 11.86-5.27z" fill="#00a859"/><path d="m1860.67 900.76c2.63 9.22-19.11 15.15-3.96 21.08 0 3.29-4.61 5.93-7.25 7.9-2.63 0-5.92.66-6.58 3.95 3.95 4.62-1.32 7.91-4.61 9.23-13.18 3.95-28.33 3.95-36.89-7.25-5.27-15.15-17.79 1.32-25.03-7.9-9.88-7.25-8.57-22.4-5.93-32.28 2.63-3.96 7.24-2.64 10.54-3.96l11.86 13.18c-1.98 3.95-7.25.66-9.89 0l-4.61-3.95c-3.29 0-3.29 3.29-3.95 5.92 0 1.98 3.29 1.98 4.61 1.98 4.61 2.64 13.84 1.32 14.49 7.25-.65.66-5.92 0-4.61 3.95 1.98 2.63 5.93.66 9.88.66 7.91 3.29 8.57 19.76 19.11 12.52 2.63.65 7.24 2.63 9.88.65-.66-5.92-7.25-3.29-11.2-6.58-2.64-2.64-5.93-3.95-6.59-6.59 0-1.98.66-3.95 3.95-3.95 7.91-.66 13.18 10.54 21.74 10.54 2.64-3.95-3.95-4.62-5.27-7.25 3.3-3.95 11.2-1.98 12.52-7.9-5.93-3.3-12.52 4.61-19.11 0 1.98-11.2 19.11-4.61 22.4-15.16-3.29-3.29-7.9 3.96-9.22-1.31 3.3-3.96 13.83-3.96 9.88-9.88 0-3.29 3.3-5.27 5.27-7.91 6.59 5.27 10.54 15.15 8.57 23.06z" fill="#00a859"/><path d="m1794.79 942.92s0 1.31 1.32 1.31c-4.61-2.63-8.56 6.59-11.2.66 0-3.29 2.64-5.93 4.61-7.25 3.3-1.97 5.27 1.98 5.27 5.28z" fill="#00a859"/><path d="m1867.25 955.43c0 5.27-10.54 7.91-5.27 13.18 1.98 2.63 7.25 1.31 5.27 5.93-4.61 5.26-10.54 16.46-19.1 15.15-1.98-2.64-4.61-5.27-4.61-8.57 5.92-3.95 13.83 0 19.1-3.95-1.97-5.27-14.49.66-9.88-7.25 1.98-1.97 5.93-2.63 5.93-5.27-1.32-1.97-3.95-2.63-5.93-1.97-5.93 5.27-9.22 13.17-15.81 14.49-1.32-3.29 5.93-8.56 0-9.22-3.29 7.9-9.22 0-15.15 5.27-1.32 0-3.29 0-3.95-1.32 0-3.29 2.63-5.27 5.27-7.25 9.88 9.89 13.83-9.22 22.39-7.9.66 1.98 2.64 5.27 5.93 5.27 5.27-1.32 9.23-9.88 15.81-6.59z" fill="#00a859"/><path d="m1175.59 966.63c1.32 1.32 1.98 4.61 5.27 4.61 4.61 0 7.9-4.61 11.86-1.97 1.97 4.61 9.88 6.58 8.56 11.85-5.27-3.95-9.22 4.61-14.49 0-4.61-3.95-9.88-7.24-15.15-7.9-1.32 1.32-2.64 2.63-1.98 5.27 3.96 3.95 13.83.66 13.83 8.56-3.95 5.93-9.87 5.93-15.15 3.95-1.97 0-2.63-1.31-3.95-1.31-1.98-2.64 3.95-5.27 1.32-8.57-6.59-3.95-8.56-11.2-8.56-19.1 4.61-1.98 8.56 2.63 11.85 4.61z" fill="#00a859"/><path d="m1811.92 983.1c1.97-3.95 8.56-1.98 11.85-.66 6.59 1.32 7.91 12.52 16.48 10.54 3.29 5.93 2.63 13.17 2.63 19.76.66 3.29 6.58-.66 8.56 3.29-.66 6.59-1.98 13.84-8.56 17.79-3.95-4.61-12.52-1.98-15.15-9.22 5.27-5.93 12.52-12.52 12.52-21.74-1.32-.66-1.98-1.98-3.3-.66-3.95 3.95-3.29 10.54-9.22 12.52 0-5.93 5.27-14.49 0-20.42-4.61 3.29-1.98 10.54-4.61 16.46-1.32 3.3-4.61 7.91-9.23 7.91 0-6.59 6.59-11.2 7.91-17.79-7.91-1.97-2.64-11.19-7.91-13.17-3.29 8.56.67 21.08-7.24 26.35-6.59-7.91 1.97-16.47-1.32-25.03-.66-1.98-2.63-1.98-4.61 0v5.27c-3.29 0-3.95-4.61-5.93-7.25 0-1.98 2.64-5.93-1.32-5.93-5.92 1.98-9.88-15.15-12.51-2.63 0 2.63 2.63 5.27 0 6.58-1.98-.65-5.93-.65-5.93-3.95 5.27-5.27-5.27-23.05 7.9-16.47 10.54 4.62 15.81 20.42 28.99 18.45z" fill="#00a859"/><path d="m1736.17 989.03c.65 2.63-2.64 2.63-4.62 2.63-47.43-6.59-97.49-19.76-146.23-8.56-46.11 6.59-90.25 21.74-138.99 12.51-38.87-6.58-82.34-11.85-123.19-5.92-18.44 3.29-36.88 7.9-55.33 9.22-2.63-1.32-1.32-3.3 0-4.61l5.27-2.64c42.16-7.9 88.27-15.81 132.41-9.22 38.86 6.59 81.02 13.17 121.86 6.59 55.99-14.49 121.87-21.74 180.49-7.91 9.22 2.64 18.44 3.3 28.33 7.91z" fill="#fefefe"/><path d="m1244.76 979.8c3.95 9.89-11.2 16.47 0 23.06 1.97 11.2 0 20.42-7.25 27.01-8.57 0-13.83-7.91-23.05-8.57-.66-1.31.65-3.29 1.31-3.95 5.93-2.63 11.86-5.27 19.11-4.61 3.29-1.98 0-3.95-1.98-5.27-2.64-2.63-9.22 3.29-9.22-2.63 1.97-1.98 5.26-3.96 6.58-7.91-5.26-1.97-8.56 7.91-14.49 3.95-5.27 3.3 1.98 11.86-5.93 13.18-3.95-5.27-1.32-13.18-3.95-18.45-5.93.66-1.31 8.57-3.29 11.86-1.32 6.59 3.95 14.49 0 19.76-7.91-1.97-11.86-11.2-13.84-18.44 0-1.32.66-4.61-1.97-5.93-3.3 3.29-.66 11.2-7.25 7.9l-1.97 1.32c1.32 6.59 11.19 3.95 9.22 10.54-1.98 1.98-7.25-.66-7.25 4.61 5.93 0 12.52 0 16.47 6.59 1.32 2.63-2.64 5.93-5.27 6.59-7.25 2.63-15.81 2.63-23.06 0-5.92-2.64-5.92-11.2-5.27-15.81 3.3-8.57 8.57-14.49 11.21-22.4 1.31-1.97 5.27 0 5.92-1.97 5.27-3.3 9.22-11.2 15.15-8.57 4.62 7.25 9.89-1.97 15.81 1.98 11.86-2.64 21.08-12.52 32.94-15.15z" fill="#00a859"/><path d="m1733.53 1000.88c2.64 1.98 1.32 3.3 1.32 3.96l-1.32 1.97c-48.09-6.58-98.15-19.76-147.55-9.22-50.72 9.88-106.06 22.4-159.42 9.88-52.03-11.2-108.69-3.29-158.75 6.59-1.97-1.32-1.97-3.3 0-5.27 42.16-11.2 89.59-17.13 136.36-11.86 55.33 15.15 121.86 9.22 175.22-5.27 52.04-10.54 106.05-.66 154.14 9.22z" fill="#fefefe"/><path d="m1791.5 997.59c0 1.32 0 2.64-1.32 2.64-2.63.65-5.27-3.3-8.56 0 1.97 7.24 18.44 1.97 15.81 13.83-4.61 1.97-9.88-9.22-13.84-2.64l1.32 2.64c-5.27 1.97-8.56-9.22-13.17-3.3 4.61 10.54 17.12 11.86 27 13.84 1.32 2.63-2.63 6.58-5.92 8.56-1.98 1.32-5.27 1.32-7.25-1.32-1.98-.66-3.95-4.61-6.59-4.61-1.32 1.32-.66 3.95-.66 4.61-1.97 0-3.95 0-4.61 1.98.66 2.63 4.61 5.27 6.59 6.59 10.54 2.63 18.44-4.61 24.37-11.2 1.32 0 3.3.66 3.3 1.97-1.98 6.59-5.27 13.18-11.86 13.84-2.64 0-5.27-.66-8.56 0 1.97 9.22-9.23 1.97-9.23 9.22 5.27 1.98 12.52 0 19.11 0 3.29 3.29 1.31 8.56 0 12.52-10.54 2.63-22.4-3.96-28.99-12.52-.66-2.64-3.95-3.95-1.97-6.59 1.97-1.31 5.27-2.63 5.93-5.27-.66-6.58-6.59-11.2-8.57-17.78 2.64-2.64 6.59-.66 8.57-4.61-2.64-8.57-8.57-17.13-6.59-27.01 7.9-7.25 21.74-3.95 25.69 4.61z" fill="#00a859"/><path d="m1734.85 1018.01c1.32 0 0 .66 0 1.98-24.37-2.64-47.43-8.57-73.12-11.2-69.83-9.88-129.77 22.39-199.59 15.81-51.38-8.57-110.01-14.49-162.71-3.3-10.54 1.32-21.74 3.96-31.62 3.3l1.98-1.98c40.18-8.56 82.34-16.47 125.16-11.86 42.81 6.59 89.58 14.5 133.72 6.59 63.23-18.44 142.94-19.76 206.18.66z" fill="#fefefe"/><path d="m1734.85 1029.87 1.97 3.95c2.64 55.99 0 112.64-26.34 158.1-37.55 65.87-106.06 109.34-180.49 111.98-3.96-3.95 1.31-6.59 1.31-10.54 2.64-3.3 8.57-5.93 9.88-11.2 0-5.93-5.92-13.83 1.98-18.44-1.98-11.86 11.2-8.57 15.15-15.15 0-4.62-5.27-11.86 1.98-13.84 1.31-1.32 3.95-2.63 5.92-1.98 2.64 2.64 4.62 7.25 9.89 5.28 5.27-3.96 11.19-9.23 15.8-15.15 1.32-5.28-9.88-7.25-4.61-13.18 1.32-1.97 1.98-4.61 4.61-6.59 5.27-.66 7.91 5.93 12.52 1.98 5.27-5.93 9.88-14.49 9.88-23.06-3.29-3.95-11.2-4.61-7.9-11.2 1.97-1.97 0-5.92 3.95-7.24 3.95 1.32 10.54 3.29 11.86-1.98-.66-6.58 5.92-19.1-3.96-21.73-3.29 0-5.93.65-7.24-3.3 1.31-9.88-3.95-21.74 3.95-28.98-2.64-9.22-13.83-15.81-23.06-18.45-15.15-4.61-32.93-1.31-46.76 5.27-16.47-7.9-35.57-13.17-55.34-6.58-5.27-9.23-1.97-22.4-7.24-30.31-1.32-3.29 1.97-6.58 5.27-8.56 11.85 0 20.42 6.59 30.95 9.22 19.11 5.93 38.21.66 55.34-7.24 9.22-.66 19.76 0 28.98 3.29 9.22-3.29 3.3-17.79 3.96-24.37-8.57-7.91-25.04-5.27-34.92-2.64-20.42 15.15-50.06 15.15-74.43 8.57-12.52 0-24.38 5.27-30.96 16.47-4.61 11.19-3.3 23.05-7.25 34.25l-1.98 1.98c-21.07-5.27-46.11-.66-59.94 17.12-1.98 1.32-3.29 3.95-2.63 5.93 2.63 1.98 8.56 1.98 6.58 6.59 0 8.56.66 17.12-1.97 23.71-4.61.66-11.86-3.29-13.18 3.29 1.32 8.57 0 17.13 5.93 23.72h8.56c1.32 3.29 3.3 6.59 3.3 10.54-3.3 3.29-11.2 5.27-7.25 11.2 3.95 5.27 4.61 18.44 14.49 16.46 1.32-1.97 3.96-1.97 6.59-.65 2.64 3.29 7.25 6.59 6.59 11.85-2.64 1.98-6.59 5.93-2.64 9.89l15.81 13.83c5.27.66 5.27-6.59 9.88-7.25 2.64 1.32 5.93 3.3 8.57 5.27.66 4.61-1.98 7.25-.66 10.54 6.59 5.27 15.15 9.22 24.37 9.22-1.32 9.23 10.54 13.84 5.93 23.06 1.98 11.2 19.1 7.24 16.47 19.76-86.95 8.56-167.32-36.23-209.48-113.3-26.35-44.14-25.03-101.44-25.03-153.48 50.06-12.52 111.33-19.77 165.34-6.59 64.56 17.13 123.84-10.54 187.74-13.18 40.18-1.31 77.73 5.27 113.96 13.84z" fill="#00afef"/><path d="m1841.56 1035.8c-1.31 3.95-6.58 4.61-9.88 4.61-8.56 1.31-9.88-6.59-13.83-11.2.66-1.98 3.95-1.98 5.27 0 4.61 3.95 11.19 8.56 18.44 6.59z" fill="#00a859"/><path d="m1230.92 1033.82c0 1.98-3.95 3.95-1.98 6.59l7.25 7.24c-7.25 6.59-14.49 16.47-25.03 15.81-6.58.66-11.85-1.31-14.49-7.24-1.98-5.27.66-11.2 4.61-13.84 4.61.66 0 8.57 4.61 7.91.66-1.32 2.63-3.95 4.61-3.3 3.3 1.98 1.98 8.57 5.93 7.25 1.32-2.64 2.64-5.27 5.27-3.95.66.66 1.98-1.32 1.98-1.32-2.64-7.9-24.37-9.88-13.18-19.76 7.25 0 15.15-1.98 20.42 4.61z" fill="#00a859"/><path d="m1816.53 1041.72c2.63 7.25-.66 14.5-6.59 19.77-1.97 1.31-2.63 3.29-5.27 2.63l-1.97-15.15c3.95-2.63 7.9-21.74 13.83-7.25z" fill="#00a859"/><path d="m1478.6 1066.76c-1.31 9.88 7.91 21.74-1.97 28.32-3.3 1.32-5.93 0-8.57-3.29-1.97-8.56 2.64-17.79 2.64-26.35 1.97-1.98 6.59-1.32 7.9 1.32z" fill="#fefefe"/><path d="m1815.87 1089.15c-1.98 6.59-1.98 16.47-9.22 17.79-3.95-5.93 1.32-12.52 0-17.79-2.64-.65-3.95 1.98-5.93 2.64-4.61-1.98 3.95-14.5-7.25-8.56-3.29-1.98-5.92-4.62-9.88-7.91 11.2 1.97 22.4 0 30.97-5.93 3.29 4.61 1.97 13.84 1.31 19.76z" fill="#00a859"/><path d="m1783.59 1074c-1.97 1.32-5.27 0-5.93 2.64 1.32 4.61 9.23 3.95 9.89 9.88-2.64 0-7.91-1.98-9.23 1.32 1.98 5.27 9.23 3.95 14.5 5.93l1.97 3.95c-1.32 3.95-7.24 0-7.24 4.61 2.63 4.61 11.19-.66 9.88 7.24-4.61 0-8.57 9.88-14.5 5.27-1.97-3.95-6.58-6.59-5.27-9.88 1.32-1.97 3.96-2.63 3.96-5.27-2.64-7.9-11.2-11.85-9.88-21.08 2.63-1.32 4.61-4.61 5.92-7.24 1.98 0 3.3 2.63 5.93 2.63z" fill="#00a859"/><path d="m1243.44 1075.32c3.29 5.27.66 13.18 2.63 19.1l3.96 40.19c-3.3-2.64-3.96-9.89-9.88-13.84-5.27 5.93-11.21-3.95-16.47-5.27 1.97-5.93 9.88-4.61 16.47-5.93 0-1.32 1.31-1.97 1.31-3.29-6.58-3.95-16.46 1.97-20.42-3.95 5.27-2.64 9.88-6.59 15.81-5.93 1.32-.66 3.3-2.63 1.32-3.29-3.29-2.64-7.91.66-11.2-1.98 1.97-1.98 1.97-4.61 1.97-7.9l-1.31-2.64c-3.95 3.95-3.95 10.54-9.88 11.2-1.98-1.32-1.32-3.95-3.95-5.27-4.61 2.63 0 8.56-2.64 11.86-2.64 0-4.61-3.96-6.58-2.64-.67 5.93-7.91 2.64-9.89 6.59 4.62 5.27 21.08.66 17.79 14.49-1.98 1.32-3.29 5.93-6.59 3.95-4.61-5.27-9.22-12.52-17.13-15.81.66-8.56 0-17.12 7.91-21.73 4.61-.67 7.91 6.58 12.52 1.97 8.56-4.61 17.12-13.83 25.69-7.91 3.29.67 5.27-1.97 8.56-1.97z" fill="#00a859"/><path d="m1541.18 1107.6c13.84-5.93 28.99-15.81 46.11-9.22 4.61 2.63 11.86 3.95 15.81 9.22 1.32 9.88 1.32 21.74 0 30.96-17.78 1.97-36.89 3.29-55.33 1.97-5.93-3.95-13.83-6.58-20.42-3.95-5.93-2.63-11.86-5.93-19.1-4.61-7.91 6.59-16.47-3.29-25.69 1.98l-9.89 6.58c-20.42 0-42.15 1.98-61.91 0l-2.64-2.63c1.98-11.2-3.95-27.01 7.25-33.6 11.19-8.56 30.3-9.88 44.13-3.95 6.59 1.32 11.2 11.86 19.1 6.59 13.18-9.22 29.65-13.17 44.14-8.56 7.25 1.97 12.52 5.92 18.44 9.22z" fill="#fefefe"/><path d="m1854.08 1142.51c1.97 2.63 5.27 3.29 8.56 2.63 1.32 9.89-5.27 17.13-8.56 24.38 0 5.27 9.88 4.61 3.95 9.88-3.95-1.98-12.52 1.32-15.15-4.61.66-5.27 6.58-7.25 9.88-11.2 0-3.95-4.61-.66-5.93-.66-5.93 7.9-17.12 4.61-25.03 3.29 0-1.31-1.32-2.63 0-3.95 5.93-5.93 16.47-1.32 23.05-7.24 2.64-1.32 9.23 2.63 9.89-2.64-8.57-6.59-17.79 3.95-25.7 0 .67-2.63 5.27-3.95 7.91-5.27 1.32-4.61 13.83-3.29 8.56-10.54h-3.95c4.61-1.97 9.22-5.93 10.54-11.86-7.25-5.92 7.25-11.19 1.98-18.44 0-3.29 3.29-3.95 5.27-4.61 9.22 14.49-6.59 27.01-5.27 40.84z" fill="#00a859"/><path d="m1595.86 1108.25c-1.98 3.96 1.31 11.2-3.96 12.52h-38.86c-3.29-1.97-2.63-7.24-1.98-11.2l3.3-2.63c12.51-.66 27.01-.66 39.52-.66z" fill="#373435"/><path d="m1851.44 1106.28c0 3.29-.66 5.93-3.95 7.25-2.64 1.97-4.61-5.28-7.24-1.32-1.98 4.61-1.32 10.54-6.59 12.51-.66-2.63 1.32-5.27-1.98-6.58-6.59 2.63-2.64 11.2-3.95 17.12-1.98 3.3-2.64 7.25-5.93 9.23-3.29-1.98-1.32-8.57-1.32-11.2 1.32-1.98 3.29-3.95 2.64-5.93-2.64-2.64-6.59 0-7.25-4.61-1.31 0-1.98.65-1.98 1.97-1.31 11.86 9.88 31.62-5.27 38.87-4.61-9.88 7.25-16.47 1.32-25.03-1.97-1.98-1.97 1.32-3.29 1.97.66 1.98-.66 3.3-.66 4.61-5.27-2.63-1.32-10.53-1.32-14.49l-1.97-1.31c-2.64 5.27-9.23 2.63-12.52 5.27 2.64 3.95 8.56 5.27 9.88 11.19 1.32 6.59 3.95 13.84 2.64 19.11-7.91-2.64-12.52-9.88-13.84-17.79-1.31-1.98 1.32-6.59-1.97-8.56-1.32 1.32-3.3 1.32-3.3 3.29-2.63 7.91 3.3 13.83 5.27 20.42-5.27 2.64-8.56-3.95-10.54-6.59-1.97-3.95 0-8.56-4.61-10.54-5.27 3.3.66 8.57.66 13.18 1.98 1.32 3.95 3.95 3.29 6.59-7.9 0-5.92-9.88-13.17-11.2-.66-7.91 3.29-15.15 9.22-19.76 3.95-.66 5.93 4.61 9.22.66 4.62-5.27 7.91-17.13 17.13-13.84 7.25 3.95 12.52-11.2 20.42-3.29 8.56-7.91 20.42-7.91 30.96-11.2z" fill="#00a859"/><path d="m1528.67 1106.94c4.61 2.63 1.97 8.56 2.63 11.86l-3.95 1.97h-42.82c-1.97-2.63-.66-7.24-.66-11.2 5.93-3.95 15.81-1.32 23.72-2.63z" fill="#373435"/><path d="m1460.82 1109.57c1.32 3.96 2.63 7.91 0 11.2-13.18 3.95-29.64 1.98-42.82 1.98-2.63-3.3-2.63-7.25-2.63-11.2 6.58-6.59 17.78-1.98 26.35-3.95 6.58 1.97 13.83-1.98 19.1 1.97z" fill="#373435"/><path d="m1192.72 1116.16c5.27 4.61 9.88 17.79 19.76 14.49 2.63-1.97 2.63-7.25 6.59-7.9 9.87-.66 9.87 17.13 21.08 12.51 5.92 7.25-3.96 23.06 9.88 23.06 0 13.17-3.96 28.32-17.13 34.25-3.96 1.32-10.54 2.64-13.17-2.63 0-3.3-3.96-7.91 1.31-9.22 2.64-1.32 6.59-1.98 9.22 0 2.64 1.97 4.62 5.92 7.25 4.61 2.64-1.32 0-3.3-.66-4.61-7.91-4.62 6.59-6.59 1.32-11.2-4.61 2.63-11.2 3.95-15.81 1.31 3.95-7.9 1.32-18.44 7.9-25.03 0-.66 0-3.29-2.63-3.29-3.95 0-1.32 7.25-6.59 5.93-1.97-2.64.66-7.91-4.61-6.59-2.63 9.88 9.88 23.06-3.95 29.64-3.96.66-4.61-2.63-3.96-6.58 1.98-6.59 2.64-15.15 2.64-22.4-.66-2.63-1.97-1.98-3.29-.66-1.32 6.59-1.32 11.86-5.27 16.47-2.64 0-4.61-.66-4.61-3.29 0-7.91 4.61-15.15.66-21.08-3.96 1.31-.66 10.54-6.59 9.88-5.93-7.91-8.57-17.13-10.54-27.01-.66 0-2.63 0-3.95 1.98 1.97 3.95-1.98 5.92-1.98 9.88 1.98 2.63 6.59 5.27 5.93 9.88-1.98 0-4.61 1.32-3.95 3.95 3.95 3.29 11.85 3.29 11.85 9.88-2.63 7.25-11.85-.66-13.83 5.93 7.9 5.27 23.72-2.64 24.37 10.54-11.2 4.61-20.42-5.93-30.96-5.93l-1.32 1.98c.66 3.95 5.94 2.63 5.27 5.92l-2.63 3.3c4.61 4.61 9.22-5.27 15.15-1.32 5.27 3.29 12.52 4.61 20.42 5.27.66 3.95-3.29 8.56-7.24 9.88-5.93 4.61-13.84 2.64-21.74 3.29-1.32.67-1.32 2.64-1.32 2.64 5.27 2.63 17.13-1.32 13.17 8.56 0 1.98-1.31 2.64-1.31 3.96 5.92 2.63 5.27-5.93 8.56-8.57 3.95-5.27 9.88-6.59 15.15-9.22 3.95 1.32 2.64 5.27 3.3 9.22-1.32 6.59-4.62 13.84-11.86 17.13-7.91 0-15.15-1.97-21.08-5.93-4.61 0-8.57 0-12.52-3.95 1.98-18.45-14.49-32.94-10.54-52.7 1.32-3.95 7.25-2.63 9.22-6.59-5.92-10.54-1.97-25.03 3.3-34.25 8.56-.66 15.81-.66 21.74 4.61z" fill="#00a859"/><path d="m1846.83 1124.72c-1.32 1.98-1.98 4.62-3.95 5.93h-2.63c0-1.97 3.29-5.93 6.58-5.93z" fill="#00a859"/><path d="m1840.25 1138.56c-1.98 0-4.62 3.95-6.59 3.95-1.98-2.63 3.29-5.93 6.59-3.95z" fill="#00a859"/><path d="m1532.62 1144.49c4.61-.66 9.22.65 10.54 5.27 1.98 3.95-5.93 9.88.66 13.17 3.29 0 6.59-1.32 7.24 1.98 0 3.95-3.29 5.92-1.31 9.22 3.29 3.29 8.56 3.29 9.22 8.56 1.32 5.93-7.91 7.91-3.95 13.83 5.27 3.3 5.92 8.57 3.29 13.18-3.95 3.95-10.54 1.98-10.54 7.9 0 3.3 2.64 7.25-.66 10.55-3.95 2.63-9.88-1.32-13.17 3.95-.66 3.95 5.27 7.24 2.63 11.85-1.31 2.64-8.56 2.64-5.27 7.91 2.64 1.98 6.59 5.93 5.27 9.88-2.63 4.61-10.54 7.25-6.58 12.52 2.63 1.97 3.29 5.27 3.29 7.9-1.98 3.95-9.23 0-10.54 4.61 1.31 5.27 0 11.2-3.96 13.18-5.27 1.31-8.56-.66-11.19-4.62-1.98-4.61 4.61-9.22 0-13.17-5.27 0-8.56 4.61-13.18 1.98-.66-1.98-1.97-4.61-.66-7.25 1.32-1.98 5.28-.66 5.28-4.61-1.32-5.27-15.16-3.29-10.55-12.52 3.3-1.97 6.59-1.97 7.91-5.92-1.32-5.27-11.2-7.91-8.56-15.81-3.3-3.3-9.23-2.64-11.2-8.57 0-2.63 2.63-9.22-1.98-10.54-3.95 0-9.22 1.98-11.2-1.98-1.31-5.92 6.59-11.85 0-15.15-3.95 0-8.56 0-9.22-3.95 0-2.63.66-6.59 3.29-7.24 3.96-.66 9.23.65 9.88-3.96-.65-4.61-9.22-5.92-5.92-12.51 3.29-2.64 10.54-2.64 7.24-9.22-1.32-11.2 11.2-18.45 17.79-24.38 8.56-2.63 17.12 7.91 23.71-1.97 9.23-3.95 13.83 16.47 22.4 5.93z" fill="#ed3237"/><path d="m1782.93 1170.83c3.96.66.66 7.25 5.93 3.96 1.98-2.64 4.61-5.93 9.88-5.27 1.32 1.31 2.64 3.29 1.98 4.61-5.93 7.9-15.15 4.61-21.74 3.29-5.27-1.97-11.2-6.59-11.85-12.51 3.29 3.95 9.22 7.24 15.8 5.92z" fill="#00a859"/><path d="m1838.93 1179.4c-3.3 3.29-8.57 2.63-11.86 2.63-5.27-1.31-10.54-4.61-13.18-7.9 0-1.32.67-3.3 2.64-4.61 7.24 3.29 20.42 1.97 22.4 9.88z" fill="#00a859"/><path d="m1812.58 1197.84c1.31 1.32 1.98 3.3 3.95 1.32 0-3.95-1.97-9.22 0-13.83 2.63-2.64 5.27 1.31 7.24 3.95 3.96 4.61-5.26 12.51 1.32 13.83 2.64-5.27 11.86 0 13.84-5.27-3.3-2.63-8.57-1.97-9.22-7.24 0-2.64 3.95-3.96 5.92-3.96 5.27-4.61 15.81 13.18 11.2-1.31 1.32-2.64 5.27-1.32 7.25-1.32 2.63 5.93-3.3 9.88-7.25 13.83-7.9 7.25-19.1 11.2-30.3 8.57-5.93-1.98-11.86-4.62-13.83-11.2-1.32-3.29-3.96-7.25-1.32-11.2 2.63-1.98 4.61-5.27 7.24-3.29 3.3 5.92 1.32 11.85 3.96 17.12z" fill="#00a859"/><path d="m1776.35 1207.06c12.51-1.97 26.35-1.97 35.57 5.94 9.88 0 17.12 7.24 27.01 7.9 3.95 1.98 1.97 7.25 6.58 7.9 1.32 0 4.62 0 5.27 1.98-4.61 8.56-10.53 18.44-19.1 24.37-1.32 2.64 3.3 3.29 3.3 6.59-4.62 7.9-14.5 10.54-23.06 13.17-3.95 3.3 2.64 5.27 3.95 7.25-7.25 6.59-18.44 6.59-27.01 6.59-5.27 1.31-1.31 8.56-7.9 7.24-7.91-.66-16.47-1.97-22.4-7.24-5.27-5.93-6.59-10.54-5.93-17.79 0-9.88 11.86-9.22 17.13-15.81 2.64 0 3.29.66 3.95 1.98 2.64 9.88-12.51 15.15-10.54 23.71 2.64-1.31 6.59-1.31 7.25 3.3 0 1.97 0 5.27 3.29 5.27 3.95-3.3-1.31-9.23 0-13.18 5.93 0 9.88 6.59 16.47 5.93.66 0 0-1.32.66-1.98-5.93-3.95-14.49-9.22-14.49-16.46 2.63-2.64 0-7.91 3.95-10.55 7.25 5.27 17.13 11.86 14.49 23.06l1.98 1.98c4.61-1.32 1.97-8.57 5.93-8.57 4.61 1.32 9.88 1.32 13.17-2.63-1.31-4.61-5.27 0-7.25-.66-9.88-1.32-15.8-9.22-23.05-16.47 5.27-3.29 13.17 0 19.76.66 4.61 1.32 9.23 5.27 15.15 4.61-1.97-4.61-10.54-3.95-8.56-9.22 7.24-3.29 15.81-1.98 23.71-5.93-.65-4.61-5.92-1.97-7.9-3.29 1.98-3.96 11.2-1.98 11.2-5.93-7.25-3.95-15.16 1.97-21.08 3.29-1.32-3.29 5.27-7.24.66-11.19-8.57 6.58-7.91 25.69-22.4 19.76.66-7.25 6.59-14.49 12.51-19.76 0-.67 0-1.98-.65-2.64-5.27 0-7.91 8.56-13.18 2.64-7.24 5.27-1.97 21.07-13.17 19.1-5.27-12.52 11.2-19.1 7.9-28.98-2.63 1.97-3.95 6.58-6.59 9.21l-1.97 1.98c-4.61-5.27 4.61-10.54.66-14.49-9.22 7.24-6.59 22.4-7.91 32.28-3.95-1.98-5.93-6.59-6.58-11.2 1.31-5.93 2.63-13.84.65-21.08l-3.29-.66c-2.63 3.96 5.27 19.76-5.93 17.79l-7.9-6.59-1.32 1.97c1.98 3.3 7.9 6.59 6.59 11.2-3.96 2.64-9.88.66-13.18 3.3 4.61 5.93 13.84 0 19.76 2.63-.65 6.59-10.54 5.27-12.51 9.88 6.59 3.95 11.86-2.63 18.44-3.29l1.32.66c-3.95 4.61-9.22 11.85-17.13 9.22-7.9-.66-15.81-7.24-19.76-15.15-4.61-15.81 8.57-25.03 15.81-36.23 2.64-3.95 3.95 1.98 7.25.66 5.27-.66 8.56-5.27 14.49-5.27 2.63 1.97 2.63 6.59 5.93 7.24z" fill="#00a859"/><path d="m1282.3 1224.19c3.3 9.88 4.61 22.4-1.31 30.96-3.3 4.61-7.91 7.25-13.18 4.61-3.29-1.97-9.88-3.95-9.88-9.22 3.95-4.61 9.88-.66 15.15-4.61-1.32-3.95-5.27-1.32-7.24-3.95-2.64-8.57 19.76-11.2 4.61-15.15-1.32-3.95 2.63-9.23-2.64-8.57-2.63 1.32 0 6.59-3.95 7.25-2.64-.66-3.29-7.25-7.91-5.93-.65 4.61 3.3 9.22 4.62 13.83 0 5.93-2.64 11.2-7.91 13.18-5.93-1.32-2.63-9.88-2.63-13.84 0-5.92 1.97-11.85 0-15.81-5.27.66-3.3 5.94-3.96 9.89-9.22 1.32-9.22-19.77-19.1-9.89-1.97 0-7.24-1.31-9.22.66 0 3.3 4.61 2.64 7.25 4.61 6.58.67 12.51 4.62 15.15 10.54 2.63 3.3 3.95 9.23 2.63 13.18-13.84 2.64-17.13-23.05-32.28-17.78 3.3 3.95 10.54 5.92 13.18 11.85 0 1.98 0 5.27-3.95 5.27-6.59-2.63-13.18-13.17-21.08-12.52 1.31 5.28 14.49 7.25 9.22 13.18-9.22 0-18.45-1.32-26.35-3.29l-.66 1.31c5.27 2.64 3.95 9.22 0 11.86 0 0 0 1.32.66 1.32 3.95 0 5.93-5.27 9.22-6.59 7.91-.66 15.15 0 23.06.66-3.96 4.61-11.2 6.59-13.84 13.83 4.62 1.98 8.56-5.27 13.84-5.27 8.56-1.97 16.46-15.81 26.35-6.59 3.29.67 1.31 4.62 0 6.59-8.57 11.2-25.69 3.96-36.24 12.52 5.28 1.32.67 5.93 3.96 9.88 5.27-15.15 21.07-7.9 30.3-15.15h1.98c0 9.22-11.21 7.9-13.18 15.15 5.93 2.63 16.47-12.52 16.47.66 3.29 7.24-13.18 10.54-3.29 12.51 2.63-1.31 5.92-4.61 8.56-2.63 1.32 1.32 1.98 3.29 3.95 3.29 0-6.58-3.95-13.83-5.93-21.08 0-5.27 0-9.88 3.3-13.17 0-.66 1.97-.66 2.63-.66 6.59 7.25 8.56 15.81 7.91 25.69 0 .66 1.31 2.64 2.63.66 4.61-5.27 1.32-12.52.66-18.44 2.63-.66 1.98 3.95 3.95 5.92 0 7.25-1.32 15.81-6.59 21.08-6.58 6.59-16.46 6.59-25.03 9.23-4.61-2.64-2.63-9.23-7.25-9.89-9.21-3.95-19.75 9.89-22.39-2.63-6.59-6.59-24.37-3.29-17.79-17.79 0-17.12-24.37-17.78-24.37-34.91l27.67-7.25c3.95-1.97 2.63-7.24 2.63-9.87 11.2 0 19.11-5.28 24.38-15.15 9.87-3.3 19.1 3.95 28.98 3.29 1.98-1.98 1.98-5.93 4.61-5.93 12.52 0 23.72 7.91 29.64 19.1z" fill="#00a859"/><path d="m1923.9 1220.24c3.3 17.79 3.95 34.91 1.98 52.04l1.32 1.32c15.8-2.64 34.25-2.64 49.4-1.32l.66.66c-13.84 16.47-25.03 34.25-38.21 52.04-28.98 34.91-65.21 69.16-100.12 97.49 5.92 2.63 13.83 1.31 19.76 0 15.15-2.64 30.3-6.59 44.13-11.2-.66 35.57-6.58 69.17-13.83 102.76-43.48 32.94-91.56 56.65-139.65 77.07-152.17 63.9-362.96 61.92-511.17-7.24-34.91-13.84-67.19-34.92-100.13-53.36l-2.63-6.59c-5.27-30.3-9.88-61.26-13.18-92.22 10.54 0 19.11 5.93 28.33 6.59 11.85 1.32 25.03 3.95 38.2 0-24.37-19.76-52.04-38.87-75.09-62.58-23.06-23.72-47.43-48.75-62.58-75.75 11.2-5.93 22.4-10.54 35.57-11.2l1.98-2.64c-5.93-19.1-10.54-40.18-3.29-59.28h3.29c64.55 108.69 176.54 190.37 293.79 218.04 14.49 0 29.64 0 42.82 3.95 13.83.66 25.03 4.61 36.23 10.54l1.97 3.29c-5.93 21.74-11.2 44.13-13.83 66.53-5.93 2.64-12.52 1.32-19.1 0-44.14-4.61-84.32-16.47-124.5-29.64-20.42 1.97-41.5 5.27-62.58 1.97l-1.32 1.98c11.86 9.22 27.67 14.49 41.5 21.08 155.46 65.22 367.57 51.38 509.2-36.23 0-.66 0-1.98-1.98-1.98h-62.58c-46.77 20.42-96.17 34.26-147.55 42.16-5.93-10.54-7.91-21.74-10.54-33.59l-9.23-32.28c0-5.27 5.27-5.93 7.91-7.25 27.01-13.17 56.65-19.1 87.61-19.76 105.4-33.59 208.16-115.27 264.81-217.38 1.97-.66 3.95.66 2.63 1.98z" fill="#373435"/><path d="m1919.29 1255.15c-.66 11.2-3.29 21.08-5.27 30.96 0 1.32 1.98 2.64 3.29 3.3 11.86-5.27 25.04-11.2 39.53-7.25-4.61 9.88-11.86 19.1-19.76 28.98-47.43 61.92-111.99 115.94-178.52 149.53h-1.32c-3.95-9.22 11.2-13.83 3.3-22.39-1.98-.66-4.61 1.97-5.93 3.29 0 4.61-2.64 6.59-5.27 9.22-3.95.66-8.56 0-9.88-3.29-4.61-3.29-5.93-7.9-5.93-12.52.66-3.29 3.29-7.9 5.93-8.56 5.27-1.97 13.83 5.27 13.17-3.95-3.29-3.95-9.88-3.29-15.81-1.98-5.27 3.96-12.51 9.88-11.19 17.13.65 9.22 6.58 17.13 13.83 19.76 6.59 0 10.54 1.32 11.86 6.59-50.07 28.33-105.4 44.79-163.37 54.01-2.63 0-3.95-3.29-4.61-5.27-5.27-15.15-9.22-32.27-11.2-48.08 11.86-3.96 25.03-5.27 37.55-7.25 120.55-27.01 233.85-104.08 307.62-214.74 3.96 2.63 1.32 8.56 1.98 12.51z" fill="#00afef"/><path d="m1092.59 1247.25c84.98 126.47 215.4 202.23 357.03 221.33 1.32 11.86-3.95 23.72-5.27 35.57-1.32 6.59 0 13.83-5.93 17.78-146.24-17.78-279.3-90.9-372.18-215.4-.66-3.95 3.95-4.61 5.93-6.58 9.22-1.98 20.42-4.62 30.3-.66 1.98-1.98 0-5.27 0-6.59-7.9-13.17-13.17-28.98-11.2-45.45z" fill="#00afef"/><path d="m1366.62 1295.99-.66 15.15c-6.58-2.63-9.88-11.19-12.52-17.12 0-.66-1.31-.66-1.31-.66-3.29 9.22 7.25 13.83 7.25 21.74-1.98 1.97-7.25 1.31-5.94 5.27 7.91 1.97 18.45 2.63 23.72 13.17-8.56 5.93-15.15-5.27-21.74-3.95-.66 4.61 5.93 3.29 4.61 7.24l-6.59 7.25c5.94 5.27 12.52-3.95 19.77-2.64 3.29 0 7.9-1.31 10.54 0 1.32 4.62-2.64 7.91-6.59 9.89-13.17 1.97-25.03-4.62-38.21-5.93-1.97-2.64-1.97-3.96-.66-5.93 2.64-1.98 6.59 0 7.91-3.95 0-10.54-15.81-15.15-11.2-27.01 11.2-4.61 3.29-19.1 11.2-25.69 7.24 3.29 13.83 7.9 20.42 13.17z" fill="#00a859"/><path d="m1683.47 1292.04c-3.3 7.91-5.27 19.1-1.98 28.33-3.95 11.19 3.95 26.34-7.25 36.22 3.96 5.27 4.61 10.54-1.31 15.81-4.61 3.3-9.23 9.89-15.81 7.91-2.64-1.97-3.95-5.93-4.61-9.88 3.95-3.3 7.9 2.63 11.19-1.32-.65-4.61-5.27-1.98-7.24-5.27 1.97-1.98 5.27 2.64 6.59-1.32-3.96-7.24-15.15-1.97-21.74-5.27-3.95-1.97-7.25-1.97-9.22-5.92 9.88-9.23 26.34-1.98 38.2.65v-.65l-1.97-5.27c1.97-3.3 7.9-3.3 7.9-7.91-8.56 0-19.76 11.2-27.67 1.98 4.62-5.93 9.88-15.15 19.11-15.15.66-.66 1.98-2.64.66-2.64-1.32-1.97-5.27 0-5.27-3.29 3.29-3.95 8.56-7.91 11.19-12.52-1.31-1.31-2.63-1.31-3.95-1.31-9.22 7.9-13.83 17.12-21.07 25.69l-1.32-1.98c.65-8.56 6.58-16.47 11.19-23.71-2.63-3.96-5.92 1.97-6.58 1.97-3.29 1.98-3.29-3.29-6.59-.66-.66 7.25-.66 15.81-3.95 22.4-.66 3.95 3.29 10.54-2.64 11.2-5.27-1.98-5.93-7.25-7.24-11.2-.66-4.61 6.58-6.59 2.63-10.54-4.61 0-10.54 12.52-13.83 2.63 12.51-5.92 16.47-21.07 29.64-27.66 1.98 2.63 2.64 5.93 5.93 6.59 7.24-3.96 13.83-9.23 23.06-9.23 1.97-.66 3.29 0 3.95 1.32z" fill="#00a859"/><path d="m1718.38 1299.95c-1.32 0-3.95 1.31-3.95 2.63 0 4.61 7.24 5.93 7.24 11.2-1.97 1.32-7.24 1.32-5.92 3.95l5.92 2.64c-.65 5.92-7.24 10.54-4.61 15.8 4.61-2.63 5.93-9.88 12.52-11.85 3.29 2.63 5.27 9.88 9.88 9.88 3.95-4.61-5.93-5.93 0-9.22 9.88-2.64 13.17 9.88 19.1 15.15 0 2.63-1.97 3.95-3.95 2.63-7.25 3.3-15.81-13.17-17.79 1.32-5.27 2.63-15.15-11.2-17.12 1.32-3.3 2.63-7.25 0-11.2-1.32-3.29-2.64-7.9-7.25-7.25-12.52-.65-9.22 13.18-10.54 9.23-19.1-3.96-3.29-7.25-7.24-4.62-12.51 1.32-3.96 4.62-5.93 7.25-6.59 5.27-1.32 3.95 3.95 5.27 6.59z" fill="#00a859"/><path d="m1746.05 1306.53c7.24 1.98 21.73-1.31 22.39 9.88 0 .66 1.32.66 1.32 1.32 0 1.32-3.95 1.32-6.59 2.64l-2.63-1.32c.66-.66 0-2.64 0-3.95-4.61-1.98-9.88 3.95-15.15 5.27l-1.98-1.32c0-1.98 6.59-2.64 3.95-5.27-6.58-3.95-8.56 5.27-14.49 2.63-1.32-3.29 5.93-11.19-1.32-9.22-1.97 1.98-3.95 5.93-5.92 2.64-2.64-2.64-7.25-4.61-5.93-9.88 7.9 0 25.69-7.25 26.35 6.58z" fill="#00a859"/><path d="m1419.32 1317.73c5.93 4.61 2.63 17.79 15.15 15.81 0 4.61-3.29 8.56-3.95 12.52-5.27 0-9.88 1.31-13.84.65 0-4.61 5.27-6.58 6.59-9.88-5.93-3.95-7.9 5.93-12.51 7.25-4.62 2.63-9.23 3.29-13.18 2.63-1.98-1.31-.66-2.63 0-5.27 3.29-7.9 15.81-3.95 17.79-12.51-3.3-2.64-5.27 3.95-9.23 2.63-2.63-.65-6.58-.65-6.58-3.29v-7.25c-4.61 1.32-3.96 8.57-4.61 13.18-1.32 1.32-3.96 3.95-5.93 3.29-1.32-7.9 3.95-17.12-2.64-24.37h-1.31c0 5.27 1.31 15.15-3.3 17.13-10.54-7.25-13.17-19.11-10.54-30.3l.66-.66c15.81 5.93 30.3 13.17 47.43 18.44z" fill="#00a859"/><path d="m1317.22 1311.14c.65 5.93-2.64 9.88-5.93 13.84-3.3 0-5.27-.66-6.59-3.96 1.32-4.61 5.93-9.88 3.29-15.8-1.97 1.31-7.24 1.97-8.56-1.32l1.32-3.95c7.24 0 12.51 5.27 16.47 11.19z" fill="#00a859"/><path d="m1298.77 1308.51c1.98 2.63 3.29 6.59 1.98 9.22-.66 2.64-2.64 4.61-5.93 4.61-9.22 0-11.2-11.2-18.44-15.81 0-1.31 0-2.63 1.31-3.95 8.57-.66 13.18 4.61 21.08 5.93z" fill="#00a859"/><path d="m1275.06 1311.14-1.98 3.96c.66 5.27 7.91 2.63 7.91 7.24-9.23.66-17.79-1.97-25.04-7.24 0-5.27 5.93-3.96 9.89-5.93 3.29 1.97 7.24-.66 9.22 1.97z" fill="#00a859"/><path d="m1616.28 1316.41c1.31 2.64-3.3 1.32-3.3 3.96 4.61 10.54 20.42 10.54 18.45 23.71-3.3 2.63-5.93 3.29-9.88 1.32-1.98-2.64-3.3-5.93-6.59-7.91-7.9 4.61-9.88-9.22-15.81-3.95 1.98 3.95 5.93 6.59 9.22 10.54-5.27 3.29-12.51 3.29-17.78 1.98-1.32-.66-2.64-1.98-4.61-.66-.66.66 0 1.31 0 1.97 5.92 5.93 17.12 3.3 23.71 1.98l.66 1.98c-3.29 3.95-7.91 3.95-9.22 8.56 5.27 4.61 18.44-13.83 13.17 0-7.9 6.59-19.1 8.56-28.32 4.61-13.18-9.22-3.96-24.37-1.98-35.57 3.95-5.93 7.9 5.27 13.17 0 5.27-5.93 9.89-13.83 17.79-15.15z" fill="#00a859"/><path d="m1263.2 1324.98c-2.63 3.95-9.22 3.29-13.17 4.61-1.32 0-1.32 1.32-1.32 1.97 1.98 2.64 6.59 1.32 9.22 1.98 1.98 1.98-1.98 6.59 2.64 6.59 3.29-8.57 13.17-9.88 21.07-11.86 2.64 0 2.64 2.64 1.98 5.27-1.98 5.93-9.88 6.59-12.51 12.52 4.61 3.29 13.17-9.23 13.17 3.29 1.32 1.98 3.29 1.98 3.95 0-1.32-6.59-.66-14.49 1.98-20.42.66-1.98 3.95-1.98 4.61 0 4.61 3.95 1.98 11.2 7.24 13.17 3.96-2.63-3.29-17.12 7.25-10.54 3.95 1.32 3.95 5.27 5.27 8.57.66 7.9-9.88 3.95-14.49 7.9-7.91 5.27-17.13 10.54-28.33 7.25-2.63-5.93-7.24-9.88-15.15-9.22-5.92-9.23-19.1-4.62-25.69-12.52 5.93-6.59 17.13-5.27 23.72-11.2 3.29-1.97 5.93.66 8.56 2.64z" fill="#00a859"/><path d="m1875.82 1324.32c-1.98 5.93-13.18 3.95-12.52 12.51 7.9 5.93 12.52-5.92 20.42-5.27 3.95 0 7.91 3.3 9.22 6.59 1.98 5.93-1.31 11.2-3.95 15.15-5.27 3.95-9.22 7.25-15.81 5.27-1.32 0-1.98-1.98-1.32-3.29 5.27-3.3 11.86-2.63 13.84-9.22 1.31-1.98 0-5.93-1.98-5.93-8.56 1.31-16.47 12.52-25.03 3.95-3.95-3.95-3.95-9.22-.66-13.17 3.95-4.62 11.2-12.52 17.79-6.59z" fill="#373435"/><path d="m1793.47 1328.27c-9.88 5.93-25.03 3.29-36.23 3.29-1.31-1.31-4.61-3.29-3.95-5.27 5.27-3.95 11.2 5.27 16.47-1.97 4.61-1.32 11.2 3.95 15.15-1.98 3.95 0 7.91 2.64 8.56 5.93z" fill="#00a859"/><path d="m1849.46 1345.4c-2.63 5.93-11.19 7.9-10.53 14.49 7.9 7.24 12.51-10.54 19.1-4.61-.66 7.24-19.1 13.17-3.95 19.1 6.59.66 10.54-12.52 17.12-7.25-3.95 7.25-11.85 12.52-17.12 17.13-9.23-5.92-17.13-15.81-24.37-24.37 1.97-6.59 10.54-12.52 17.12-17.13.66 0 2.63 1.32 2.63 2.64z" fill="#373435"/><path d="m1436.45 1349.35c1.31 7.9-5.93 14.49-11.86 17.78-6.59 3.3-14.49 3.3-20.42 0-.66-3.29-5.27-8.56-2.64-11.85 7.91 1.31 13.84 9.22 21.74 5.27-1.98-3.3-6.59-2.64-9.22-5.27 5.27-3.3 13.83-1.32 18.44-5.93z" fill="#00a859"/><path d="m1357.4 1353.96c1.98 6.59-10.54 10.54-5.27 16.47 3.95-5.27 7.9-11.86 13.83-13.84 3.96 0 9.22-1.31 11.2 1.98-.66 5.27 3.29 12.52-2.63 15.15-4.61.66-10.54 0-13.18 4.62 5.27 3.95 13.83-5.28 17.79 3.95 11.2-8.57-1.98-23.06 9.22-30.96 5.93-.66 5.27 7.24 9.22 11.19 1.98 7.91-2.63 15.82-8.56 21.08-5.93 3.3-12.52 5.93-20.42 4.61-7.25-2.63-13.84-11.19-21.74-15.15 1.31-9.22-23.72-15.81-5.93-22.39 7.24-1.32 11.2 1.98 16.47 3.29z" fill="#00a859"/><path d="m1630.11 1373.72c-1.98 3.3-9.22 1.98-8.56 8.57 4.61 1.97 9.88-5.93 15.81-2.64 3.95 2.64 7.9 8.56 11.86 5.93v-1.98c-7.25-6.58-17.79-9.88-15.82-21.08 1.32-3.29 5.27-.66 7.91 0 7.91 7.91 9.22 19.77 19.1 27.01-7.24 5.93-15.15 7.91-24.37 4.61-5.93-1.97-8.56-14.49-17.13-5.93-3.95-1.97-3.95-5.92-3.95-8.56 1.32-9.22 0-19.1 8.56-24.37 7.91 1.97 3.96 11.85 6.59 18.44z" fill="#00a859"/><path d="m1194.69 1374.38c0 5.27-2.63 9.88-7.24 11.2-5.27 2.63-1.98 12.51-9.88 13.83-9.89 2.64-15.81-8.56-23.72-13.83v-3.29c5.93-7.91 14.49-17.13 21.74-23.72 7.9 1.98 13.83 8.56 19.1 15.81z" fill="#373435"/><path d="m1827.73 1367.13c2.63 11.21 9.22 21.08 9.22 32.28-3.29 3.3-7.91 4.61-11.2 1.98-7.9-5.93-17.78-11.86-25.03-17.79.66-3.29 1.98-5.26 3.95-5.26 7.91 3.95 13.18 9.87 21.08 12.51l1.32-1.32-6.59-22.4 3.29-3.29z" fill="#373435"/><path d="m1185.47 1374.38c.66 1.98 0 3.96-1.98 3.96-3.95 0-7.9-3.3-9.87-5.28 0-2.63 1.31-4.61 3.29-5.93 3.95 0 6.58 5.27 8.56 7.25z" fill="#00afef"/><path d="m1175.59 1385.58c1.98 2.63 0 5.93-1.97 6.59-4.62 0-7.91-3.96-11.21-7.91 1.32-1.97 3.3-4.61 5.27-5.92 3.3 0 5.94 3.95 7.91 7.24z" fill="#00afef"/><path d="m1223.68 1395.46c0 1.98-1.32 2.63-2.64 3.95-6.58 0-11.2-13.17-17.78-5.92 0 8.56 14.49 9.22 9.88 17.12-7.25 0-15.15-16.47-19.77-3.29 1.32 7.9 12.52 8.56 12.52 16.46-7.9.67-15.15-7.9-21.08-12.51v-3.95c5.93-7.91 11.86-19.11 19.77-25.03 6.58 3.29 13.17 7.24 19.1 13.17z" fill="#373435"/><path d="m1805.33 1412.59c6.59 1.97 11.2-9.88 16.47-5.27-3.29 5.93-11.2 9.88-15.81 13.83l-3.29-.66-19.11-26.35c0-.65 1.32-1.97 3.3-2.63 7.9 3.95 11.85 14.49 18.44 21.08z" fill="#373435"/><path d="m1236.85 1406c1.32 7.25-.66 16.47 1.98 23.71 5.93-3.95 7.9-11.19 13.17-16.46.66 1.31 3.3 1.31 3.3 3.95-4.61 9.22-10.54 19.1-17.13 27.67-14.49-.66-4.61-17.79-9.23-25.04-6.58 2.64-7.24 17.79-15.14 10.54 3.95-10.54 9.88-19.76 17.78-28.98 1.98.66 5.27 1.32 5.27 4.61z" fill="#373435"/><path d="m1796.11 1425.1c.66 1.98-1.32 4.61-3.29 3.3-7.25-3.95-12.52 2.63-16.47 6.58-1.32 2.64 0 6.59-3.95 7.91-3.96-.66-3.96-5.27-5.27-7.91-.66-9.88-4.62-19.1-4.62-27.66 1.98-3.3 7.25-5.27 9.89-2.64z" fill="#373435"/><path d="m1779.64 1420.49c0 1.98-.66 3.96-1.98 4.61-4.61 1.98-4.61-2.63-5.92-4.61l.66-4.61c2.63 0 5.26 3.3 7.24 4.61z" fill="#00afef"/><path d="m1286.26 1431.69c.65 1.98-1.98 3.29-3.3 3.29-3.29 0-6.58-3.95-9.22 0-4.61 7.25-7.25 16.47-13.83 22.4-1.98 0-3.3-.66-3.3-1.98 1.32-8.56 7.25-15.8 11.2-23.71 1.98-6.59-11.2-5.93-4.61-11.2 7.91 1.98 15.81 5.93 23.06 11.2z" fill="#373435"/><path d="m1892.28 1431.69c-.65 27.67-4.61 54.67-13.17 79.05-106.71 77.07-228.58 117.25-365.6 120.54-138.33 1.32-259.53-36.23-366.9-106.71-7.25-23.71-13.84-50.06-13.18-76.41h3.29c153.49 122.52 387.33 162.05 575.73 87.61 63.9-24.37 123.18-57.97 177.86-104.74.66.66 1.32 0 1.97.66z" fill="#00afef"/><path d="m1724.31 1450.79c1.32 4.61 7.24 9.23 5.27 15.81-9.88 7.25-17.13-9.22-26.35-7.9-1.32 6.59 7.25 11.86 4.61 17.78-8.56 1.32-7.24-9.88-11.2-13.83-2.63-5.27-6.58-11.2-6.58-16.47 2.63-3.95 6.58-2.63 9.22-1.31 6.58 3.95 11.2 8.56 19.1 10.53 0-6.58-5.93-11.85-7.9-19.1 1.31-2.63 3.95-2.63 5.92-1.32z" fill="#373435"/><path d="m1317.22 1448.16c2.63 6.59.65 14.49-2.64 19.76-3.29 4.61-8.56 7.9-13.83 7.9-7.91 0-14.49-4.61-18.45-11.19-2.63-7.91 0-17.13 5.27-22.4 4.61-4.61 12.52-6.59 18.45-3.95 4.61 1.97 8.56 5.27 11.2 9.88z" fill="#373435"/><path d="m1307.99 1447.5c3.96 3.95 2.64 9.22 1.98 13.17-1.98 3.96-5.93 8.57-10.54 8.57-3.95 0-8.56-2.64-10.54-6.59s0-9.22 1.98-13.17c1.97-2.64 4.61-4.61 7.9-5.93 3.29-.66 7.25 1.32 9.22 3.95z" fill="#00afef"/><path d="m1684.12 1456.72c5.94 4.61 8.57 13.84 5.94 21.74-1.98 5.27-5.94 9.22-11.21 9.88-4.61 2.64-11.85 1.98-16.46-.66-5.93-3.95-9.22-11.86-9.22-19.1 0-5.93 3.95-11.2 8.56-13.18 6.59-3.95 16.47-4.61 22.39 1.32z" fill="#373435"/><path d="m1681.49 1464.63c1.98 3.95 1.98 7.9 1.98 11.85-.66 1.98-4.62 5.93-7.25 7.25-3.95.66-8.56 0-10.54-3.29-3.29-4.62-6.59-9.23-4.61-15.15 1.32-3.96 4.61-5.93 8.57-6.59 4.6-1.32 9.21 1.32 11.85 5.93z" fill="#00afef"/><path d="m1641.31 1468.58c-1.98 9.88-9.88-3.29-15.81 1.98-5.93 3.95-6.59 9.22-4.61 15.15 1.32 3.29 3.29 7.9 8.56 9.88 4.61 0 9.22-1.98 11.86-6.59 0-1.32-1.32-2.64-2.64-4.61-2.63 0-6.58 0-6.58-2.64 3.29-3.95 9.22-5.27 13.83-3.95 2.63 5.93 7.25 12.52 3.3 19.1-9.23-1.31-14.5 7.91-23.06 4.61-6.59-1.97-11.2-7.9-11.86-13.83-1.98-5.93-1.98-13.17 1.98-17.12 5.27-6.59 13.83-9.23 21.08-6.59 1.31 1.32 3.95 2.63 3.95 4.61z" fill="#373435"/><path d="m1849.46 1500.86c1.98 2.63 1.32 8.56.67 11.85-1.98 5.27-7.25 7.25-11.2 9.22-3.95 0-9.22 0-11.86-3.95-3.3-3.29-3.95-7.24-5.27-11.2 0-5.92 5.27-9.88 9.88-13.17 7.25-2.63 13.83 1.98 17.78 7.25z" fill="#373435"/><path d="m1844.85 1504.15c0 3.95 1.32 7.25-1.97 10.54-1.98 1.98-5.93 3.29-9.22.66-3.3-2.64-5.93-4.61-5.93-9.88 0-2.64 3.95-5.93 6.58-7.91 4.62 0 8.57 3.3 10.54 6.59z" fill="#00afef"/><path d="m1813.89 1508.76c3.96 6.59 7.91 13.83 9.88 21.74-.65 1.32-1.97 1.32-3.29.66-3.95-2.64-2.63-6.59-6.59-7.25-3.29.66-5.92.66-7.9 3.95-.66 4.62 4.61 9.23.66 11.86-5.93-3.95-9.22-12.52-13.18-19.1v-2.64c6.59-3.29 6.59 8.57 13.18 3.95 1.97-1.97 3.29-1.97 5.27-5.26-1.32-2.64-5.27-9.89 1.97-7.91z" fill="#373435"/><path d="m1209.19 1519.3c-.67 7.9-.67 16.47-3.3 23.71-3.95-1.31-5.93-7.24-11.2-7.9-3.95-1.98-5.93 2.63-8.56-1.32 3.29-6.59 10.54-13.17 17.13-19.1 2.63-.66 5.26 1.32 5.93 4.61z" fill="#373435"/><path d="m1791.5 1530.5c1.32 5.27 5.93 9.22 5.27 14.49-5.93 7.9-28.33-15.81-16.47 6.59.66 1.98-1.98 3.29-2.64 1.98-4.61-7.91-9.88-13.84-10.53-22.4 7.24-4.61 12.51 5.93 19.76 4.61.66-4.61-8.57-11.2 0-13.84z" fill="#373435"/><path d="m1201.94 1530.5c-.66.66-1.98 0-3.29 0-1.98-1.98.66-3.95 2.63-4.61 1.98 0 1.32 2.63.66 4.61z" fill="#00afef"/><path d="m1252 1535.77c1.98 2.64 3.95 5.93 3.3 8.56-5.27 2.64-3.3-6.59-9.23-6.59-3.95-.65-7.9 1.98-9.88 5.94-1.31 3.29-2.63 5.92 0 9.21 1.98 7.91 12.52-1.31 13.84 5.94-3.3 3.29-8.57 3.29-12.52 1.31-4.61-1.97-7.25-6.58-7.25-11.2 0-5.26 1.32-9.22 5.93-13.17 3.96-3.95 11.86-3.95 15.81 0z" fill="#373435"/><path d="m1769.76 1558.17c-2.63 3.95-5.93 0-6.59-2.64-1.97-6.59-6.58-11.85-7.24-18.44 2.63-3.3 5.27.65 6.58 2.63 1.98 5.93 7.25 11.2 7.25 18.45z" fill="#373435"/><path d="m1751.32 1545.65c-.66 7.91 5.92 19.1-2.64 23.06-9.22-2.64-13.83-11.2-19.1-17.79-1.32-1.98 0-3.95.66-3.95 5.93 1.32 9.22 7.9 13.17 11.2 6.59-4.61-3.95-16.47 5.93-18.45z" fill="#373435"/><path d="m1275.72 1548.94c-.66 8.57 1.97 19.11-2.64 23.72-3.29-2.64-6.59-7.91-11.86-7.91-3.29 0-3.29 1.98-6.58 1.32-1.98-1.32-1.98-3.29-.66-3.95 5.27-5.27 9.22-13.18 15.81-17.79 3.29-.65 5.93 2.64 5.93 4.61z" fill="#373435"/><path d="m1306.02 1560.14c.66 4.61 0 10.54-5.27 11.2-6.59 1.32-13.84-2.63-17.79 5.27l-1.97-3.29c1.97-7.25 4.61-15.15 9.22-22.4 6.59 1.97 13.17 3.95 15.81 9.22z" fill="#373435"/><path d="m1717.06 1562.12c2.64 4.61 2.64 9.22 1.32 13.83-2.63 3.95-5.93 6.59-9.88 7.91-5.27 1.31-9.88 1.31-13.84-3.96-1.97-2.63-5.26-6.58-3.95-11.19-.65-6.59 5.93-9.23 8.57-11.86 7.24-3.29 13.83.66 17.78 5.27z" fill="#373435"/><path d="m1269.13 1560.14h-3.29c-.66-.66 0-1.97 1.97-3.29h1.32z" fill="#00afef"/><path d="m1300.09 1562.12c0 .66-.66 2.63-1.98 3.95-2.63 0-5.27.66-7.24-1.97 0-1.98 1.31-3.96 2.63-5.93 3.3 0 5.93.66 6.59 3.95z" fill="#00afef"/><path d="m1712.45 1568.71c.66 3.95 0 7.9-4.61 9.87-4.61 2.64-8.56-.65-10.54-5.26-.66-1.98-.66-6.59 0-9.22 1.98-1.98 3.95-3.3 7.25-3.96 3.29 0 7.24 4.61 7.9 8.57z" fill="#00afef"/><path d="m1317.22 1562.12c0 7.9-3.96 15.81-7.25 23.05-1.98.66-3.29 0-3.95-1.31 1.97-7.91 4.61-15.81 8.56-23.06z" fill="#373435"/><path d="m1343.56 1568.71c-1.31 4.61-4.61 1.31-6.58 3.95-5.93 4.61-3.96 13.17-8.57 18.44-1.31 0-1.97-1.31-2.63-1.97-1.32-7.91 10.54-18.45-1.32-24.38-.65-.65 1.32-.65 1.98-1.97 5.93 1.97 11.85 1.97 17.12 5.93z" fill="#373435"/><path d="m1686.1 1574.63c1.32 3.95 1.98 10.54-.66 13.84-5.27 4.61-11.2 7.24-17.78 6.58l-6.59-23.71c5.93-5.27 21.74-9.22 25.03 3.29z" fill="#373435"/><path d="m1680.17 1576.61c1.32 3.29 1.32 7.25-.65 9.88-1.32 1.98-5.28 3.3-7.25 1.98-1.98-4.61-5.93-9.89-4.61-15.15 1.98-1.98 3.95-.66 5.27-1.98 3.29-.66 5.92 1.98 7.24 5.27z" fill="#00afef"/><path d="m1360.03 1574.63 1.98 23.72-1.98 1.97c-2.63-2.63-6.59-6.58-11.19-6.58-2.64 0-6.59 4.61-9.23 1.31 3.95-8.56 7.25-17.12 14.49-22.39 3.3-1.32 5.28 0 5.93 1.97z" fill="#373435"/><path d="m1377.82 1585.17c0 4.62-5.93 13.18 1.32 15.15 2.63 1.32 4.61 1.32 7.24 2.64-3.29 3.95-9.88 0-14.49 0-4.61-2.64-1.32-9.22-.66-13.17 1.98-3.96 0-13.18 6.59-12.52z" fill="#373435"/><path d="m1636.04 1577.27c5.27 7.9 11.2 15.15 13.18 23.05-3.96 1.98-9.23-3.29-14.5-.65-1.98 1.97-3.29 6.58-7.24 4.61-1.32-8.57 1.97-17.13 2.63-25.7 1.32-1.97 3.95-1.97 5.93-1.31z" fill="#373435"/><path d="m1618.25 1585.17c2.64 5.93-5.93 13.18 1.32 17.79 0 1.32 0 2.63-1.32 3.29-5.93.66-7.9-11.2-13.17-5.93-.66 3.3 0 6.59-1.98 8.57-1.97 0-3.95-1.98-3.95-3.3-.66-7.24-3.95-14.49-1.98-21.73 5.93-2.64 17.13-7.25 21.08 1.31z" fill="#373435"/><path d="m1435.13 1589.79c0 5.26-3.95 9.88 0 15.15-.66 3.29-3.95 7.24-7.25 7.24-4.61-1.97-13.83.66-16.47-5.27l3.96-21.08c5.27-4.61 13.17-.66 19.1 1.32z" fill="#373435"/><path d="m1354.76 1588.47c-1.32 0-2.63 0-2.63-1.32-1.32-1.32 0-3.29 2.63-1.98z" fill="#00afef"/><path d="m1589.93 1588.47 1.97 20.42c-1.31 1.97-2.63 1.32-3.95 0-1.97-6.59-3.95-16.47-1.97-23.72 3.29-1.31 3.29 1.98 3.95 3.3z" fill="#373435"/><path d="m1576.1 1587.15c-1.98 5.27-11.86 0-11.86 7.9 3.95 3.96 9.88-1.97 12.51 3.3-2.63 3.95-12.51 0-12.51 7.9 3.95 5.93 10.54-.66 14.49 3.96-3.95 3.95-10.54 2.63-15.81 2.63-5.93-3.95-2.63-14.49-4.61-21.74 2.63-5.93 12.52-5.93 17.79-3.95z" fill="#373435"/><path d="m1612.32 1588.47c-1.31 2.63-3.95 4.61-7.24 3.95-1.98-1.32-1.98-3.95-1.98-5.27 3.3-1.32 7.91-1.98 9.22 1.32z" fill="#00afef"/><path d="m1463.45 1592.42c3.95 7.9-8.56 11.2-2.63 19.76.66.66 0 2.64-1.32 2.64-5.93 0-7.25-17.79-13.17-6.59 0 1.98-.66 3.95-1.98 4.61-2.63 1.32-2.63-.66-3.95-1.98 1.32-7.9-1.32-19.76 5.27-24.37 6.58.66 13.83 0 17.78 5.93z" fill="#373435"/><path d="m1514.83 1592.42c-3.29 5.27-12.51-4.61-13.17 3.29 5.93 4.61 13.83 2.64 15.81 10.54 0 4.61-2.64 9.23-7.25 9.88-5.27.66-12.51 0-15.15-3.95 0-1.97.66-3.29 2.64-3.29 3.95 1.32 9.88 3.95 12.51 0-1.97-7.25-12.51-2.64-15.15-9.88-1.32-3.96.66-9.22 5.27-10.54s11.86-1.32 14.49 3.95z" fill="#373435"/><path d="m1539.87 1595.05c1.31 5.27-1.32 13.18 3.95 15.16 1.97 1.97 9.22-1.32 7.9 2.63-3.95 1.98-12.51 3.29-16.46 0 0-7.9-1.98-17.13 0-24.37 5.92-1.32 3.95 4.61 4.61 6.58z" fill="#373435"/><path d="m1428.54 1591.1c0 1.32-.66 2.64-1.98 2.64-1.97 1.31-4.61 0-5.92-.66-1.32-1.98 0-3.95 1.31-3.95 2.64 0 4.61 0 6.59 1.97z" fill="#00afef"/><path d="m1487.83 1601.64c-1.32 4.61 5.92 10.54.65 14.49-3.95-3.29-7.24-5.92-13.17-3.95-2.64.66-3.29 3.3-6.59 3.3-2.63-4.62 1.98-9.89 1.98-13.84 2.63-3.95 2.63-10.54 7.9-12.51 6.59-.66 6.59 7.9 9.23 12.51z" fill="#373435"/><path d="m1527.35 1591.1c-.66 7.91 3.29 17.13-.66 23.72-5.27 0-4.61-5.93-4.61-9.88 1.97-5.93-3.3-15.15 3.95-15.81z" fill="#373435"/><path d="m1638.67 1592.42c-1.31.66-2.63 2.63-3.95.66-.66-.66-.66-3.29 1.32-3.95 1.32 0 1.32 1.97 2.63 3.29z" fill="#00afef"/><path d="m1456.87 1595.05c.65 1.98-.66 3.3-1.98 3.3-2.64 0-6.59.66-6.59-2.64 0-1.97 1.32-3.29 3.95-4.61 1.98 1.32 3.3 1.98 4.62 3.95z" fill="#00afef"/><path d="m1427.88 1602.96c.66 1.98-1.32 2.63-2.63 3.29-3.3.66-5.93 0-7.25-1.97-.66-1.98 0-3.96 2.64-4.61 2.63 0 5.92 0 7.24 3.29z" fill="#00afef"/><path d="m1481.24 1602.96c0 1.32 0 2.63-1.32 2.63l-1.32-.65.66-2.64c.66 0 1.98.66 1.98.66z" fill="#00afef"/><path d="m1483.87 1187.96c3.3 0 6.59 1.32 6.59 3.29 0 1.32-3.29 2.64-6.59 2.64-3.95 0-6.58-1.32-6.58-2.64 0-1.97 2.63-3.29 6.58-3.29z" fill="#373435"/><path d="m1483.87 1186.23h.01v.01c1.89 0 3.8.39 5.25 1.07 1.83.85 3.05 2.19 3.05 3.93l.01.01v.01l-.01.01c0 1.43-1.26 2.64-3.14 3.39v.01c-1.41.56-3.28.94-5.15.94v.01h-.02-.01v-.01c-2.22 0-4.1-.38-5.44-.96h-.01c-1.8-.77-2.84-2-2.85-3.38v-.01-.01c.01-1.7 1.01-3.05 2.77-3.93v.01c1.38-.69 3.29-1.09 5.52-1.09v-.01zm.01 3.46h-.01-.02c-1.69 0-3.07.26-3.98.72v.01c-.55.27-.86.56-.86.83h.01v.01h-.01c.03.06.3.02.77.22h-.01c.97.41 2.37.69 4.09.69v-.01h.01.02v.01c1.42 0 2.82-.28 3.87-.7h.01c.57-.23.95-.11.97-.21h-.01v-.01h.01c-.01-.23-.43-.53-1.06-.82-1.02-.47-2.4-.74-3.8-.74z" fill="#373435" fill-rule="nonzero"/><path d="m1491.12 1207.73c3.95 0 7.24 1.97 7.24 3.95 0 1.32-3.29 2.63-7.24 2.63-3.29 0-5.93-1.31-5.93-2.63 0-1.98 2.64-3.95 5.93-3.95z" fill="#373435"/><path d="m1491.12 1206h.01c2.28 0 4.4.58 5.94 1.45 1.85 1.05 3.01 2.58 3.02 4.22h.01v.01l-.01.01c-.01 1.43-1.26 2.66-3.26 3.41-1.49.56-3.51.93-5.69.93v.01h-.02-.01v-.01c-1.91 0-3.65-.39-4.92-.98-1.68-.78-2.71-1.99-2.72-3.36l-.01-.01v-.01h.01c0-1.57.94-3.07 2.47-4.13 1.33-.92 3.16-1.54 5.17-1.54zm.01 3.45v.01h-.01-.01v-.01c-1.28 0-2.4.37-3.21.93-.61.42-.99.9-.99 1.29h.01v.01c.03.05.29.04.72.24.87.4 2.09.67 3.47.67v-.01h.01.02v.01c1.76 0 3.35-.29 4.48-.72.62-.23 1-.09 1.02-.19h-.01v-.01h.01c0-.32-.48-.77-1.26-1.2-1.08-.61-2.59-1.02-4.25-1.02z" fill="#373435" fill-rule="nonzero"/><path d="m1506.27 1230.12c3.3 0 5.93 1.32 5.93 3.29 0 1.32-2.63 2.64-5.93 2.64-3.95 0-7.24-1.32-7.24-2.64 0-1.97 3.29-3.29 7.24-3.29z" fill="#373435"/><path d="m1506.27 1228.39h.01v.01c1.93 0 3.71.4 5.01 1.11 1.62.87 2.63 2.21 2.63 3.9h.01v.01l-.01.01c0 1.37-1.04 2.58-2.73 3.36-1.27.59-3 .98-4.9.98v.01h-.02-.01v-.01c-2.19 0-4.22-.37-5.71-.93-1.99-.75-3.24-1.98-3.25-3.41l-.01-.01v-.01h.01c.01-1.76 1.23-3.11 3.18-3.96 1.52-.67 3.56-1.05 5.77-1.05v-.01zm.01 3.45v.01h-.01-.02v-.01c-1.73.01-3.29.29-4.4.77-.67.29-1.1.58-1.1.8h.01v.01h-.01c.02.11.41-.04 1.02.19 1.14.43 2.73.72 4.49.72v-.01h.01.02v.01c1.37 0 2.59-.27 3.46-.67.42-.2.7-.19.72-.24v-.01h.01c0-.28-.32-.59-.82-.86-.83-.45-2.03-.71-3.38-.71z" fill="#373435" fill-rule="nonzero"/><path d="m1499.03 1166.22c3.95 0 7.24 1.32 7.24 3.3 0 1.97-3.29 3.29-7.24 3.29-3.3 0-6.59-1.32-6.59-3.29 0-1.98 3.29-3.3 6.59-3.3z" fill="#373435"/><path d="m1499.03 1164.49h.01v.01c2.21 0 4.26.38 5.78 1.05 1.95.85 3.17 2.21 3.17 3.95l.01.01v.01h-.01c0 1.76-1.22 3.11-3.17 3.97-1.52.66-3.57 1.04-5.77 1.05h-.02-.01c-1.89-.01-3.81-.4-5.26-1.08-1.82-.85-3.04-2.19-3.05-3.93v-.01-.01c.01-1.74 1.23-3.09 3.06-3.94 1.44-.68 3.35-1.07 5.23-1.07v-.01zm.01 3.46h-.01-.03c-1.39 0-2.76.27-3.78.74-.63.3-1.06.6-1.06.82h.01v.01h-.01c.01.23.43.53 1.06.82 1.02.47 2.4.75 3.8.75v-.01h.01.02v.01c1.73 0 3.28-.28 4.39-.77.68-.29 1.11-.58 1.11-.8h-.01v-.01h.01c-.01-.22-.43-.5-1.1-.8-1.11-.48-2.68-.76-4.41-.76z" fill="#373435" fill-rule="nonzero"/><path d="m1506.27 1197.18c3.3 0 5.93 1.98 5.93 3.3 0 1.97-2.63 3.29-5.93 3.29-3.95 0-7.24-1.32-7.24-3.29 0-1.32 3.29-3.3 7.24-3.3z" fill="#373435"/><path d="m1506.27 1195.45h.01v.01c2 0 3.8.6 5.1 1.4 1.57.97 2.54 2.36 2.54 3.61h.01v.01h-.01c0 1.69-1.01 3.03-2.63 3.91-1.31.7-3.07 1.1-5 1.11h-.02-.01c-2.21-.01-4.27-.39-5.79-1.06-1.94-.85-3.16-2.2-3.17-3.95l-.01-.01v-.01h.01c.01-1.31 1.2-2.73 3.1-3.67 1.52-.77 3.6-1.34 5.85-1.34v-.01zm.01 3.46v.01h-.01-.02v-.01c-1.68 0-3.21.42-4.32.97-.68.34-1.12.56-1.17.59v.01h-.01c.01.22.43.51 1.1.8 1.11.49 2.67.77 4.41.77v-.01h.01.02v.01c1.35 0 2.54-.26 3.36-.71.51-.27.83-.57.83-.86h-.01v-.01c-.01-.07-.36-.32-.9-.66-.84-.51-2-.9-3.29-.9z" fill="#373435" fill-rule="nonzero"/><path d="m1501.66 1267.67c3.95 0 7.24 1.32 7.24 3.29 0 1.32-3.29 2.64-7.24 2.64-3.3 0-6.59-1.32-6.59-2.64 0-1.97 3.29-3.29 6.59-3.29z" fill="#373435"/><path d="m1501.66 1265.94h.01c2.21.01 4.27.39 5.79 1.05 1.94.86 3.16 2.21 3.17 3.96h.01v.01l-.01.01c-.01 1.44-1.26 2.67-3.26 3.42-1.49.55-3.51.93-5.69.93v.01h-.02-.01v-.01c-1.87 0-3.75-.38-5.17-.95-1.87-.75-3.12-1.96-3.13-3.4h-.01v-.01-.01h.01c0-1.74 1.22-3.09 3.05-3.94 1.45-.67 3.35-1.06 5.24-1.07zm.01 3.45v.01h-.01-.02v-.01c-1.39 0-2.77.27-3.78.74-.64.3-1.06.6-1.06.82v.01.01c.02.1.4-.03.97.2 1.05.42 2.46.7 3.88.7v-.01h.01.02v.01c1.76 0 3.34-.28 4.48-.71.61-.23 1-.09 1.02-.2h-.01v-.01h.01c-.01-.21-.43-.5-1.1-.8-1.11-.48-2.67-.76-4.41-.76z" fill="#373435" fill-rule="nonzero"/><path d="m508.47 1193.74-26.1-85.33 27.65-8.45c10.49-3.2 17.46-4.86 20.89-4.99 5.28-.21 10.22 1.31 14.84 4.59 4.61 3.28 7.96 8.31 10.04 15.11 1.6 5.24 1.99 9.93 1.19 14.09-.81 4.16-2.37 7.69-4.68 10.62-2.3 2.93-4.88 5.2-7.71 6.78-3.86 2.08-9.68 4.3-17.5 6.7l-11.22 3.43 9.84 32.19zm-4.46-76.15 7.43 24.21 9.41-2.89c6.8-2.08 11.21-3.91 13.22-5.51 2.02-1.58 3.39-3.53 4.11-5.84.72-2.29.69-4.7-.08-7.24-.95-3.09-2.64-5.38-5.09-6.83-2.43-1.46-5.14-2.02-8.09-1.66-2.18.23-6.36 1.31-12.57 3.2z" fill="#fefefe" fill-rule="nonzero"/><path d="m656.13 1148.57-18.74 5.74-13.39-17.1-34.11 10.44-1.12 21.53-18.27 5.6 7.14-95.51 18.22-5.57zm-42.05-24.04-21.45-28.07-1.83 35.19z" fill="#fefefe" fill-rule="nonzero"/><path d="m657.91 1148.04-4.76-15.55 27.88-69.05-39.76 12.15-4.41-14.43 62.46-19.11 4.1 13.38-29.13 71.88 48.55-14.85 4.39 14.36z" fill="#fefefe" fill-rule="nonzero"/><path d="m804.4 1103.21-26.1-85.34 63.29-19.34 4.41 14.43-46.06 14.1 5.8 18.91 42.83-13.1 4.41 14.38-42.85 13.1 7.11 23.22 47.68-14.58 4.39 14.38z" fill="#fefefe" fill-rule="nonzero"/><path d="m2152.11 711.57-21.69-70.91-25.33 7.76-4.41-14.45 67.81-20.73 4.41 14.42-25.25 7.74 21.69 70.89z" fill="#fefefe" fill-rule="nonzero"/><path d="m2205.79 695.15-26.1-85.33 36.27-11.11c9.13-2.79 15.98-4.06 20.58-3.79 4.59.27 8.75 2 12.43 5.16s6.3 7.25 7.84 12.3c1.95 6.4 1.68 12.26-.79 17.58-2.49 5.32-7.32 9.69-14.49 13.06 4.41 1.04 8.21 2.49 11.44 4.34 3.22 1.85 7.9 5.49 14.03 10.85l15.53 13.46-20.62 6.3-18.13-14.75c-6.46-5.28-10.76-8.54-12.93-9.77-2.16-1.22-4.24-1.89-6.25-1.97-2.04-.08-5.01.48-8.98 1.71l-3.49 1.06 10.89 35.62zm2.17-54.52 12.75-3.91c8.27-2.51 13.32-4.45 15.17-5.78 1.83-1.33 3.07-3.01 3.72-5.09.64-2.06.58-4.37-.21-6.94-.87-2.87-2.35-4.95-4.43-6.24-2.08-1.31-4.57-1.76-7.5-1.37-1.48.23-5.7 1.42-12.68 3.56l-13.45 4.11z" fill="#fefefe" fill-rule="nonzero"/><path d="m2368.81 645.27-18.74 5.73-13.39-17.1-34.1 10.44-1.12 21.53-18.27 5.6 7.13-95.51 18.23-5.57zm-42.05-24.05-21.45-28.07-1.82 35.19z" fill="#fefefe" fill-rule="nonzero"/><path d="m2351.93 557.12 34.11-10.44c6.76-2.06 11.87-3.33 15.36-3.78 3.49-.44 6.82-.2 10 .8 3.16.98 6.07 2.68 8.73 5.12 2.64 2.45 4.53 5.5 5.67 9.18 1.21 4.01 1.27 8 .13 11.99s-3.28 7.4-6.46 10.19c5.65-.06 10.45 1.29 14.36 4.07 3.91 2.81 6.62 6.67 8.13 11.6 1.19 3.88 1.44 7.91.75 12.14-.68 4.22-2.24 7.91-4.72 11.06-2.44 3.13-5.88 5.67-10.3 7.58-2.79 1.19-9.65 3.5-20.6 6.93l-29.05 8.9zm21.58 8.94 6.03 19.72 11.29-3.45c6.71-2.06 10.87-3.43 12.43-4.12 2.84-1.25 4.86-3 6.02-5.2 1.19-2.2 1.33-4.67.5-7.44-.81-2.64-2.2-4.55-4.16-5.76-1.95-1.2-4.42-1.53-7.4-1.01-1.77.33-6.71 1.74-14.82 4.22zm10.38 33.92 6.99 22.81 15.94-4.86c6.21-1.91 10.1-3.29 11.66-4.14 2.41-1.25 4.15-3.04 5.21-5.32 1.06-2.31 1.13-4.97.21-7.98-.79-2.58-2.08-4.56-3.87-5.97-1.78-1.39-3.97-2.14-6.57-2.24-2.59-.11-7.81 1.04-15.67 3.45z" fill="#fefefe" fill-rule="nonzero"/><path d="m2541.06 592.57-18.75 5.74-13.39-17.11-34.11 10.45-1.11 21.53-18.27 5.59 7.13-95.5 18.23-5.58zm-42.06-24.04-21.45-28.08-1.83 35.19z" fill="#fefefe" fill-rule="nonzero"/><path d="m2550.69 589.64-25.89-84.65 17.23-5.26 21.48 70.25 42.86-13.11 4.39 14.38z" fill="#fefefe" fill-rule="nonzero"/><path d="m2623.12 567.48-26.1-85.34 17.23-5.28 10.27 33.59 33.76-10.32-10.28-33.61 17.23-5.26 26.12 85.34-17.23 5.26-11.41-37.3-33.78 10.33 11.42 37.3z" fill="#fefefe" fill-rule="nonzero"/><path d="m2692.79 500.06c-2.64-8.68-3.58-16.37-2.79-23.09.63-4.92 2.08-9.64 4.36-14.11 2.31-4.49 5.2-8.17 8.69-11.06 4.64-3.89 10.42-6.88 17.35-9 12.58-3.85 23.84-3.04 33.78 2.47 9.94 5.48 17.03 15.17 21.27 29.07 4.22 13.78 3.76 25.69-1.35 35.77-5.11 10.06-13.92 17.02-26.45 20.85-12.7 3.89-23.97 3.1-33.84-2.34-9.85-5.47-16.86-14.96-21.02-28.56zm17.59-6.01c2.95 9.67 7.42 16.3 13.41 19.94 5.98 3.61 12.43 4.38 19.28 2.26 6.88-2.1 11.77-6.28 14.65-12.58 2.89-6.3 2.83-14.4-.21-24.3-2.99-9.77-7.36-16.42-13.12-19.91-5.78-3.51-12.2-4.17-19.31-1.99-7.08 2.16-12.07 6.36-14.92 12.56-2.86 6.19-2.78 14.19.22 24.02z" fill="#fefefe" fill-rule="nonzero"/></svg>