<svg height="250" viewBox="0 0 188 250" width="188" xmlns="http://www.w3.org/2000/svg"><path d="m186.63.75c-.08.14-.73.7-1.46 1.23-.73.54-1.55 1.2-1.83 1.45-.27.26-1.86 1.59-3.52 2.95s-3.25 2.66-3.52 2.89c-.28.23-1.07.87-1.76 1.42-.7.55-1.32 1.07-1.39 1.14s-1.03.86-2.14 1.76c-1.11.89-2.07 1.69-2.14 1.76s-.69.58-1.38 1.13-1.38 1.11-1.53 1.25-1.66 1.38-3.37 2.77c-1.7 1.38-3.85 3.14-4.77 3.9s-2.18 1.8-2.8 2.3c-.62.51-2.31 1.91-3.76 3.11-1.46 1.2-2.87 2.36-3.15 2.59s-1.07.88-1.76 1.43-1.32 1.06-1.39 1.14c-.07.07-1.03.86-2.14 1.76-1.1.89-2.07 1.69-2.13 1.76-.07.07-.7.58-1.39 1.13s-1.31 1.06-1.38 1.14-1.3 1.1-2.74 2.26c-1.44 1.17-3.1 2.52-3.69 3.01-.6.48-3.33 2.72-6.08 4.98-2.74 2.26-5.21 4.29-5.49 4.53-.27.23-1.07.87-1.76 1.43-.69.55-1.43 1.16-1.63 1.36-.21.2-1.18.99-2.14 1.76-.97.77-1.82 1.46-1.89 1.53-.07.08-1.03.88-2.14 1.79s-2.7 2.21-3.54 2.89c-.84.67-2.26 1.84-3.15 2.58s-2.07 1.72-2.62 2.17c-.56.46-2.14 1.75-3.53 2.88-1.38 1.13-3.24 2.64-4.12 3.36s-1.73 1.42-1.89 1.56c-.15.14-1.18.99-2.29 1.89s-2.07 1.69-2.14 1.76c-.07.08-1.44 1.21-3.05 2.52-1.6 1.31-4.03 3.28-5.38 4.39-1.36 1.11-2.6 2.13-2.75 2.27s-.84.71-1.53 1.26-1.32 1.06-1.38 1.14c-.07.08-1.09.92-2.27 1.86-1.18.95-2.64 2.14-3.25 2.63-.61.5-1.64 1.35-2.29 1.91-.65.55-1.4 1.18-1.66 1.39-.26.2-1.21.98-2.11 1.72s-2.09 1.72-2.64 2.17c-.56.45-2.14 1.75-3.53 2.88-1.38 1.13-3.58 2.93-4.88 3.99s-2.88 2.37-3.52 2.9-1.39 1.16-1.66 1.39c-.28.23-1.68 1.38-3.11 2.55-1.42 1.18-2.95 2.42-3.39 2.76-.44.35-1.6 1.3-2.56 2.11-.97.81-1.99 1.66-2.27 1.88-.28.23-1.07.87-1.76 1.42s-1.32 1.07-1.39 1.14-1.03.87-2.14 1.76c-1.1.9-2.07 1.69-2.13 1.76-.07.08-1.44 1.21-3.05 2.52-1.6 1.31-3.68 3-4.62 3.76s-1.84 1.5-1.99 1.64c-.16.14-1.19.99-2.3 1.88-1.11.9-2.47 2.02-3.04 2.51-.56.49-1.92 1.62-3.02 2.51-1.1.88-2.14 1.79-2.31 2.01-.25.31-.32 3.98-.31 17.12 0 9.41.1 16.89.23 17.1s.38.3.56.21c.19-.09 1.53-1.15 2.98-2.35 1.46-1.19 2.87-2.36 3.15-2.59.28-.24 1.07-.88 1.75-1.43.69-.56 1.53-1.23 1.86-1.51.34-.28.74-.62.89-.76s.85-.71 1.54-1.26 1.31-1.06 1.38-1.13c.07-.08.7-.59 1.39-1.14.69-.54 1.38-1.11 1.54-1.24.15-.14 1.05-.88 2-1.64.94-.76 2.17-1.78 2.73-2.27.57-.49 1.59-1.33 2.28-1.88.7-.54 1.32-1.05 1.39-1.13s1.48-1.26 3.15-2.61c1.66-1.36 3.24-2.66 3.52-2.89s1.07-.86 1.76-1.42c.69-.55 1.32-1.06 1.38-1.14.07-.07 1.04-.86 2.14-1.75 1.11-.89 2.42-1.97 2.92-2.38.49-.42 1.17-.99 1.51-1.27.33-.28 3.08-2.54 6.11-5.03 3.02-2.49 5.86-4.81 6.3-5.15.44-.35 1.87-1.52 3.18-2.61 1.31-1.08 2.61-2.16 2.89-2.39.27-.22 1.41-1.14 2.51-2.04 1.11-.9 2.42-1.97 2.91-2.39.5-.42 1.24-1.04 1.64-1.38.41-.34 1.64-1.35 2.75-2.24s3.26-2.66 4.78-3.93c1.53-1.26 4.47-3.69 6.55-5.39 2.07-1.7 4.22-3.46 4.78-3.91.55-.46 3.1-2.55 5.66-4.64 2.56-2.1 5.38-4.41 6.26-5.12.89-.72 2.43-1.99 3.42-2.82 1-.83 2.31-1.92 2.92-2.43.62-.5 2.25-1.84 3.63-2.97 1.39-1.13 2.75-2.25 3.02-2.48.28-.23 1.07-.87 1.76-1.43.69-.55 1.54-1.24 1.89-1.54s1.16-.98 1.79-1.51c.64-.53 1.38-1.14 1.64-1.36.26-.21 1.83-1.49 3.49-2.85 1.67-1.36 3.53-2.88 4.14-3.39.61-.5 1.81-1.48 2.67-2.17.85-.7 4.49-3.68 8.07-6.63s6.74-5.56 7.02-5.79 1.86-1.54 3.52-2.89c1.66-1.36 3.25-2.66 3.53-2.89.27-.23 1.07-.87 1.76-1.42s1.38-1.12 1.54-1.26c.15-.14 1.05-.87 1.99-1.63.95-.76 2.12-1.74 2.62-2.17.49-.43 4.52-3.75 8.95-7.38s8.28-6.78 8.56-7.01c.27-.23 1.06-.87 1.75-1.43.69-.55 1.59-1.29 2-1.63.41-.35 1.01-.88 1.33-1.2l.58-.56c.01-30.01-.06-33.65-.31-33.9-.18-.17-.4-.31-.5-.31-.09 0-.24.12-.31.25z" fill="#b0000b"/><path d="m23.25 31.12c.15.09 1.73 1.33 3.49 2.75 1.77 1.43 3.2 2.74 3.2 2.91-.01.18-1.85 1.81-8.17 6.97l-1.01-.84c-.55-.45-2.14-1.71-6.04-4.76l-.12 3.75c-.07 2.06-.1 10.85 0 35.31l2.33 1.91c1.28 1.05 2.46 1.84 2.64 1.76.17-.08 2.69-2.1 10.88-8.82l.03-27.17 2.03-1.63c1.11-.9 3.07-2.48 4.34-3.52s4.21-3.44 6.52-5.35c3.74-3.08 4.24-3.42 4.64-3.12.24.19 2.22 1.8 4.41 3.59 2.19 1.78 4 3.24 4.02 3.24.03 0 .11 8.88.31 39.43l6.92-5.6-.02-26.78 8.23-6.79c4.53-3.74 8.44-6.94 8.7-7.11.41-.28.91.05 4.3 2.85 2.11 1.73 4.09 3.43 4.97 4.38v18.86l-.57.61c-.31.33-4.07 3.47-8.36 6.98-4.28 3.5-7.94 6.49-8.13 6.62-.27.2-.33 1.54-.31 12.71l-4.15 3.39c-2.28 1.87-4.27 3.34-4.4 3.27-.16-.08-.25-1.61-.24-7.54l3.1-4.15c1.7-2.29 3.34-4.52 3.64-4.97s.49-.82.42-.82-.89.59-1.83 1.31c-.93.73-5.55 4.48-10.25 8.34-4.71 3.87-9.01 7.41-9.57 7.88-.55.46-1.15.84-1.32.84-.25-.01-.33-2.71-.38-12.5-.04-8.04-.15-12.53-.31-12.59-.14-.05-1.98 1.32-4.09 3.06s-3.84 3.3-3.85 3.47c0 .17-.03 2.92-.11 11.87l-4.09 3.34c-2.25 1.84-4.21 3.28-4.35 3.22-.15-.08-.25-1.72-.25-8.18l2.34-2.83c1.29-1.55 2.88-3.54 3.53-4.4s1.12-1.57 1.05-1.57-.66.41-1.32.91-5.42 4.38-10.59 8.61c-5.17 4.24-9.56 7.71-9.76 7.71s-2.45-1.7-9.65-7.55l-.01-28.04 2.97-3.96c1.63-2.18 3.21-4.39 3.52-4.91s.5-.94.43-.94-.61.37-1.19.81c-.59.45-2.89 2.3-5.1 4.11-2.22 1.81-4.17 3.36-4.34 3.46-.23.12-.27.02-.14-.4.09-.31.97-2.57 3.72-9.48l8.53-7.03c4.69-3.87 8.66-6.96 8.81-6.88zm16.26 33.14c.14.07 2.01-1.32 4.16-3.08l3.9-3.21v-13.45c-6.15-4.89-8.02-6.31-8.12-6.3-.1 0-.19 5.84-.19 12.96 0 8.39.09 13 .25 13.08zm33.22-.13c.14 0 2.01-1.44 4.17-3.2l3.91-3.21v-13.08c-5.97-4.64-7.81-6.1-7.95-6.23-.18-.16-.28 3.95-.32 12.74-.04 8.53.03 12.98.19 12.98zm-41.77-26.39c.21-.01.38.15.38.34-.01.2-1.73 1.79-3.84 3.53-2.12 1.74-4.01 3.16-4.22 3.16s-.35-.17-.31-.37c.03-.21 1.76-1.79 3.83-3.51 2.08-1.72 3.95-3.14 4.16-3.15zm59.54 1.24c.06 0 .3.07.54.16.4.14.43.84.32 19.71l-16.99 13.97-.25 12.53-4.85 3.98c-2.66 2.19-4.95 3.92-5.09 3.85s-.25-.26-.24-.44c0-.17 2.04-1.95 9.03-7.6l.02-12.45 17.11-14.09-.02-9.12c-.01-5.01.06-9.42.15-9.8s.21-.7.27-.7zm-32.76.33c.19.07.29 5.57.33 17.93.03 11.26-.04 17.95-.19 18.15-.14.17-.36.26-.5.19-.16-.08-.26-6.4-.29-18.07-.03-9.87.05-18.02.17-18.11.12-.1.33-.13.48-.09zm-41.78 1.09c.33.13.37 2.29.33 18.29-.05 15.94-.1 18.15-.43 18.15-.34 0-.39-2.2-.45-17.99-.03-9.89-.01-18.12.05-18.29s.29-.24.5-.16zm24.68.01c.3.12.36 1.85.38 10.86.02 9.39-.02 10.77-.36 11.04-.32.26-.42.25-.52-.06-.07-.21-.14-5.17-.17-11.03-.02-5.85.04-10.71.14-10.79.1-.09.34-.09.53-.02zm32.81-.17c.09-.01.31.14.48.31.25.25.32 2.68.32 10.82-.01 9.67-.04 10.53-.45 10.91-.41.39-.45.38-.61-.06-.09-.26-.18-5.14-.19-10.85s.05-10.54.13-10.75.23-.38.32-.38zm113.86 2.68c.15.07.23 6.45.19 33.41l-31.39 25.78c-17.26 14.18-36.77 30.2-43.35 35.6s-16.16 13.26-21.28 17.47c-5.12 4.2-14.01 11.51-19.75 16.23-5.75 4.72-17.19 14.11-25.42 20.87-8.24 6.75-15.83 12.98-16.86 13.83-1.04.85-2.01 1.62-2.14 1.72-.14.09-4.79-3.55-10.32-8.09-5.54-4.53-10.09-8.41-10.12-8.61s1.16-1.34 2.64-2.53c1.48-1.2 9.21-7.53 17.17-14.07s19.45-15.98 25.54-20.98c6.09-4.99 18.72-15.36 28.06-23.04 9.35-7.67 22.37-18.37 28.95-23.77 6.57-5.39 18.63-15.3 26.8-22 8.17-6.71 20.56-16.89 27.55-22.62 6.98-5.74 15.12-12.43 18.09-14.88 2.97-2.44 5.51-4.39 5.64-4.32zm-179.37 8.89c.05 0 .02.14-.06.32-.09.17-.51.75-.94 1.3-.42.54-2.02 1.98-3.54 3.21-1.53 1.23-2.8 2.2-2.84 2.16s.07-.4.25-.81c.19-.42 1.74-1.88 3.68-3.45 1.84-1.5 3.4-2.73 3.45-2.73z" fill-rule="evenodd"/><path d="m5.91 70.3c0 7.6.03 10.77.07 7.04.04-3.74.04-9.96 0-13.83-.04-3.88-.07-.82-.07 6.79z" fill="#b0000b"/><path d="m42.97 71.12-2.96 2.45.01 12.19c-7.75 6.28-9.21 7.62-9.25 8-.04.31.03.53.15.49.12-.03 2.44-1.87 5.15-4.08l4.94-4.03.01-12.2c4.29-3.5 5.5-4.66 5.45-4.84-.05-.17-.19-.34-.31-.37-.13-.03-1.56 1.05-3.19 2.39zm21.69 8.43c-.35.3-4.29 3.55-8.75 7.22s-8.11 6.72-8.1 6.79.1.26.2.43c.12.21 2.75-1.79 7.99-6.1 4.85-3.98 8.15-6.88 8.72-7.66.51-.69.85-1.25.76-1.25-.09.01-.46.26-.82.57zm-36.11 3.51c-1.26 1-4.4 3.57-6.99 5.71-2.58 2.14-4.7 4.03-4.7 4.21s.14.33.32.34c.17 0 2.58-1.83 5.34-4.09 2.77-2.25 5.55-4.6 6.18-5.22.62-.63 1.39-1.51 1.69-1.96.31-.44.53-.81.5-.81s-1.09.82-2.34 1.82z"/><path d="m164.97 102.2c-1.38 1.13-3.93 3.23-5.66 4.66s-3.37 2.79-3.65 3.02-1.86 1.53-3.52 2.89-3.25 2.66-3.53 2.89c-.27.22-1.41 1.14-2.51 2.04-1.11.9-2.42 1.97-2.91 2.39s-1.45 1.21-2.12 1.77c-.67.55-1.98 1.62-2.91 2.39-.94.76-4.05 3.3-6.92 5.65-2.88 2.36-5.75 4.72-6.39 5.25-.63.53-1.38 1.15-1.66 1.38-.27.23-1.41 1.15-2.51 2.05-1.11.89-2.42 1.97-2.91 2.39-.5.41-1.18.98-1.51 1.26-.34.28-1.18.95-1.87 1.51-.69.55-1.53 1.23-1.86 1.51-.34.27-1.15.95-1.79 1.51-.64.55-2.22 1.85-3.51 2.89s-2.47 2-2.63 2.14c-.15.14-1.64 1.37-3.3 2.73s-3.47 2.85-4.03 3.3c-.55.46-2.14 1.75-3.52 2.88-1.39 1.13-3.24 2.65-4.12 3.36-.89.72-1.74 1.42-1.89 1.57-.16.14-1.25 1.05-2.42 2.01-1.18.96-2.88 2.36-3.78 3.1s-1.86 1.54-2.14 1.76c-.27.23-1.41 1.15-2.51 2.04-1.11.9-2.42 1.97-2.92 2.39-.49.42-1.17.99-1.51 1.26-.33.28-1.17.96-1.87 1.51-.69.56-1.31 1.07-1.38 1.15s-1.29 1.1-2.72 2.26c-1.43 1.17-3.09 2.52-3.69 3.01-.6.48-1.93 1.55-2.94 2.37-1.02.83-1.91 1.57-1.98 1.66-.06.08-1.48 1.26-3.14 2.61s-3.25 2.65-3.52 2.88c-.28.22-1.41 1.15-2.52 2.05s-2.07 1.69-2.14 1.77c-.07.07-.69.58-1.38 1.13s-1.54 1.24-1.89 1.54-2.73 2.26-5.29 4.36-4.96 4.06-5.34 4.36-.7.71-.7.92c-.01.21.53.84 1.19 1.41.66.56 2.17 1.8 3.34 2.76 1.18.95 2.37 1.92 2.65 2.16.27.23 3.27 2.69 6.66 5.47 3.4 2.77 6.31 5.05 6.49 5.05.17 0 1.64-1.09 3.27-2.41 1.62-1.33 3.18-2.6 3.46-2.83.27-.23 1.41-1.15 2.51-2.05 1.11-.9 2.07-1.7 2.14-1.78s1.49-1.25 3.15-2.6 3.25-2.65 3.52-2.88c.28-.23 1.68-1.38 3.11-2.56 1.44-1.17 3.04-2.47 3.56-2.88.51-.42 4.83-3.97 9.59-7.89s8.88-7.31 9.16-7.54 1.07-.87 1.76-1.42c.7-.56 1.32-1.07 1.39-1.14.07-.08 1.03-.87 2.14-1.76 1.1-.89 2.41-1.96 2.91-2.38.49-.42 1.17-.99 1.51-1.26.34-.28 1.52-1.24 2.62-2.14 1.11-.9 2.07-1.7 2.14-1.78s1.49-1.25 3.15-2.6 3.25-2.65 3.52-2.88c.28-.24 1.86-1.54 3.53-2.9 1.66-1.35 3.24-2.65 3.52-2.89.28-.23 1.68-1.38 3.11-2.55 1.44-1.17 3.1-2.53 3.7-3.01.6-.49 3.33-2.73 6.07-4.99s5.21-4.3 5.49-4.53 1.86-1.53 3.52-2.9c1.67-1.36 3.25-2.66 3.53-2.89s1.75-1.43 3.27-2.68c1.52-1.24 3.31-2.71 3.98-3.27.67-.55 1.71-1.4 2.31-1.88.61-.49 2.89-2.36 5.08-4.17s4.07-3.48 4.17-3.71.19-7.67.19-16.52-.06-16.26-.13-16.47-.26-.37-.44-.36c-.17 0-1.44.94-2.83 2.08z" fill="#b0000b"/><path d="m144.71 160.39c-2.84 2.33-10.93 8.98-17.99 14.78s-24.56 20.16-38.89 31.92c-14.32 11.76-27.06 22.23-28.31 23.26-1.25 1.04-2.26 2.02-2.26 2.19 0 .16 4.24 3.78 9.43 8.03s9.78 8.05 10.2 8.45c.41.4.89.72 1.07.72.17.01 2.26-1.61 4.65-3.58 2.39-1.98 7.17-5.92 10.63-8.76 3.47-2.84 9.18-7.54 12.71-10.44s14.62-12 24.65-20.23c10.02-8.22 18.54-15.27 18.94-15.65l.71-.69c-.03-25.82-.12-33.53-.21-33.78-.15-.39-.99.21-5.33 3.78z"/></svg>