<svg height="1.5625in" viewBox="0 0 39.688 39.688" width="1.5625in" xmlns="http://www.w3.org/2000/svg"><g transform="translate(-26.536 -155.45)"><path d="m130.39 130.39h306.14v306.14h-306.14z" fill="none" stroke="#fff" transform="matrix(.35278 0 0 -.35278 -603.46 -17.2584346)"/><circle cx="46.38" cy="175.3" fill="#fff" r="19.844" stroke-width=".30611"/><g fill="#d7171e" transform="matrix(.38352 0 0 .38413 13.039 119.29)"><path d="m86.936 95.003c-28.062 0-50.888 22.793-50.888 50.808 0 28.014 22.826 50.806 50.888 50.806 28.061 0 50.887-22.791 50.887-50.806 0-28.016-22.826-50.808-50.887-50.808m0 102.47c-28.534 0-51.743-23.176-51.743-51.66s23.209-51.659 51.743-51.659c28.528 0 51.74 23.174 51.74 51.659s-23.212 51.66-51.74 51.66"/><path d="m86.933 109.23c-20.208 0-36.645 16.411-36.645 36.586 0 20.172 16.437 36.584 36.645 36.584s36.645-16.412 36.645-36.584c0-20.174-16.437-36.586-36.645-36.586m0 74.021c-20.675 0-37.495-16.794-37.495-37.436 0-20.644 16.82-37.437 37.495-37.437s37.498 16.793 37.498 37.437c0 20.642-16.823 37.436-37.498 37.436"/><path d="m56.603 175.2c-.0524.0207-.17226-.051-.24943-.11713-.0772-.0661-.17639-.18604-.14056-.22325l1.6137-1.6798c.0661-.0772.14331-.1254.28111-.0537 1.1038.54708 1.6991.91915 2.6031 1.7102 2.0836 1.8259 2.5838 4.4166.52917 6.7524-2.056 2.333-4.6523 2.2049-6.8695.26183-.92053-.80615-1.5048-1.52-2.0243-2.1787-.0951-.11713-.0468-.20946.0165-.28663l1.5048-1.706c.0317-.04.16536.0413.24253.10749.0744.0675.16123.17914.14883.23151l-.79513 1.8604c.18328.59807.62701 1.0886 1.0735 1.4814 1.4359 1.2554 3.2494.91502 5.1125-1.2016 1.8604-2.1167 1.8962-3.9522.53744-5.147-.46853-.40377-.9977-.66835-1.5903-.85163z"/><path d="m53.518 167.62-2.1745.74139c-.0469.0207-.15848-.0882-.22049-.16813-.0606-.0827-.14056-.22737-.0978-.25493l2.0657-1.4194c.0799-.0593.19568-.11438.28663.006l4.3202 5.7643c.0372.0496-.011.13504-.15434.24115-.14883.11162-.24391.13229-.28112.0854l-.64079-.8971c-1.0721.74001-2.1332 1.5158-3.2673 2.3647-1.1217.83923-2.2572 1.6853-3.1929 2.4598l.68075.86541c.0372.051-.011.13367-.16261.24942-.14056.10473-.23426.12816-.27423.0772l-2.5383-3.3886c-.0372-.0482.011-.13367.15434-.23978.15158-.11162.24391-.13229.28112-.0841l.63252.88332c1.0721-.73862 2.136-1.5158 3.2577-2.3509 1.1314-.85025 2.1897-1.6509 3.1998-2.475z"/><path d="m51.398 162.08c.9095 1.972 1.1107 3.7979-1.4442 4.9596-1.5544.70142-3.3128 1.5393-4.8507 2.3151l.47266.96324c.0262.0606-.0372.12954-.20946.20946-.15985.0744-.25631.0772-.28249.0207l-1.7763-3.8433c-.0234-.0551.04-.12954.19981-.20396.17225-.0785.26872-.0813.29766-.0234l.43546 1.0087c1.6564-.71934 3.3293-1.4469 4.9292-2.2007 1.9858-.92329 2.1608-1.8948 1.5255-3.2728-.59256-1.2843-1.7914-1.9858-3.7207-1.0955-1.5393.70831-3.153 1.4648-4.735 2.2324l.46716.95223c.0275.0579-.0372.13229-.20946.20946-.16261.0744-.2577.0772-.2825.0193l-1.1851-2.5673c-.0262-.0579.0345-.12953.19706-.20394.17225-.0772.26872-.0799.2949-.0234l.42719.98668c1.6123-.70005 3.2439-1.4525 4.7253-2.136 2.2641-1.0404 3.8172-.26597 4.7239 1.6936"/><path d="m48.148 154.65-.12678-.61875c-.32246-1.5985-1.1672-1.9568-2.3826-1.7101-1.2141.24391-1.9486.95912-1.5875 2.7561l.0854.41892c1.4249-.28663 2.701-.55535 4.0115-.84611m-4.6095.56775c-.27837-1.3863-1.1644-1.8025-2.1938-1.593-.97979.19431-1.44.85439-1.2003 2.0436l.113.56774c1.1121-.19567 2.1566-.39274 3.3583-.63665zm-.1695-1.6784c-.226-1.8094.51538-3.0675 1.7777-3.3252 1.5393-.30455 2.7437.48093 3.2673 3.0675l.87781 4.345c.0124.0648-.0662.11713-.24254.15434-.18328.0372-.27836.0165-.29214-.0441l-.19155-1.0831c-1.2857.20671-2.5783.45337-3.9688.7345-1.3767.2756-2.7671.55535-3.9426.85714l.23978 1.0721c.0152.062-.0648.11713-.2508.15709-.17501.0317-.26872.011-.28112-.0496l-.8034-3.9743c-.47542-2.362-.14056-3.514 1.2967-3.8034.98116-.19706 1.848.33762 2.486 1.8948z"/><path d="m44.44 140.39c-1.3629.32384-2.0974.50436-3.474.85439l3.1791 1.6399zm.23703 2.7602 2.4377 1.2526.0799-.91088c.008-.0606.1006-.0868.28939-.0662.17501.022.25769.0689.25218.12953l-.28387 2.4212c-.008.0634-.0992.0909-.27699.0716-.18879-.0207-.27147-.0716-.2632-.13505l.11988-.82269c-2.7671-1.5586-5.3509-2.8856-8.1194-4.265-.0579-.0331-.0799-.0744-.0744-.13367l.0827-.69178c.008-.0772.0648-.10611.10335-.11438 3.0441-.77721 5.8677-1.5269 8.9008-2.4184l.0662-.76895c.005-.051.0992-.0909.28801-.0689.17501.0207.25769.0785.25218.13229l-.44648 3.8116c-.005.0496-.1006.0896-.27699.0717-.18879-.0248-.26733-.0854-.2632-.13642l.12816-.8723c-.95361.2067-1.7143.3955-2.6555.61598z"/><path d="m42.414 126.69c.0482-.14332.17501-.13092.27147-.0992l2.4005.7965c.0482.0165.0207.18053-.011.27561-.0345.0992-.10059.22049-.15709.22875l-2.3468.0882-.66146 1.9086c1.2196.45613 2.4529.87781 3.7855 1.3188 1.3422.44786 2.6072.85162 3.8571 1.2154l.46853-1.4842c.0152-.0482.113-.0661.2949-.006.16674.0565.23565.13091.22049.17777l-1.6192 4.8631c-.0193.0606-.11713.0661-.28249.0138-.18053-.062-.25494-.1254-.23289-.18465l.50987-1.4538c-1.2209-.45613-2.4639-.88332-3.8075-1.327-1.3312-.44373-2.5866-.83372-3.8351-1.2044l-.60909 1.91 1.8232 1.4842c.04.04.0193.18052-.011.27147-.0317.1006-.10335.23565-.15296.21911l-2.3978-.79788c-.0965-.0289-.20808-.0937-.15985-.23702z"/><path d="m52.373 126.24.56362-.92879c.0345-.0524.12953-.0372.28938.0662.14883.0965.20257.17501.1695.22875l-2.2862 3.565c-.0317.0524-.12678.0358-.27837-.0593-.15985-.10335-.21221-.18328-.17777-.23565l.61323-.91088c-1.0707-.74276-2.1718-1.4621-3.3652-2.2269-1.1837-.75379-2.3771-1.5172-3.4327-2.1208l-.57051.94258c-.0358.051-.13091.0372-.29076-.0634-.15159-.0992-.20395-.17502-.1695-.22876l2.2862-3.565c.0345-.0551.13092-.0358.27699.0565.16123.10335.21497.18052.18052.23564l-.60909.89987c.94396.66146 1.8769 1.243 2.9325 1.9196l2.2297-3.4795c-1.0542-.67387-2.0409-1.3353-2.971-1.8548l-.57189.9412c-.0289.04-.12815.0345-.28938-.0661-.14745-.0951-.19706-.18604-.16812-.226l2.2917-3.5746c.0262-.0455.12954-.0372.27837.0579.15709.0992.20533.1943.17914.23426l-.6146.91226c1.0721.74415 2.1718 1.4635 3.3555 2.22 1.1934.76067 2.3179 1.4676 3.4423 2.1222l.57189-.9357c.0262-.0455.12953-.04.28938.0634.14883.0951.19431.18604.17088.22738l-2.2917 3.576c-.0303.0427-.13091.0372-.27974-.0593-.16261-.10335-.20946-.19017-.18052-.23565l.61322-.91088c-1.0859-.74001-2.1635-1.4304-3.3569-2.1925l-2.2283 3.4796c1.192.76205 2.2627 1.4607 3.3982 2.1263"/><path d="m61.729 115.09-.98116-2.0753c-.0248-.0482.0661-.16812.14331-.23978.0744-.0689.20947-.16123.24391-.12402l1.6412 1.8948c.0689.0744.13505.18053.0262.28663l-5.2613 4.921c-.0482.0427-.13505.006-.25494-.12265-.13091-.14055-.16261-.23013-.11713-.27285l.81855-.73587c-.853-.98116-1.7432-1.9499-2.712-2.9793-.95911-1.0225-1.9292-2.0574-2.8071-2.8994l-.7841.77032c-.0482.0455-.13505.005-.26597-.13229-.11988-.12816-.15158-.21773-.10611-.2632l3.0923-2.8939c.0468-.0413.1323-.001.25494.12541.12954.14056.16123.22875.11713.27423l-.81441.72347c.85714.98254 1.7474 1.9485 2.7065 2.971.96876 1.0349 1.8879 1.9899 2.8153 2.9063z"/><path d="m65.229 107.35-.31006-1.4773c-.0138-.0482.10335-.14607.19154-.19982.0868-.0524.2384-.11437.26321-.0689.51814 1.0115 1.1024 1.9885 1.7515 2.9283.02617.0441-.1006.14745-.1888.19843-.0882.0496-.22048.1006-.26871.0717l-1.1562-.97151-1.4993.86265c.71796 1.2044 1.4056 2.2793 2.1001 3.3941l2.9077-1.7625-.50987-2.2366c-.01654-.051.10335-.14883.18879-.2012.0882-.051.24254-.11161.26872-.0703l1.1961 2.198c.05099.0882.09233.20946-.03721.28663l-6.4547 3.8434c-.0565.0289-.13091-.0262-.22324-.17777-.0965-.16261-.10887-.25769-.0565-.28939l.9605-.54157c-.62563-1.1438-1.2871-2.2765-2.0133-3.492-.71796-1.2058-1.4428-2.4212-2.118-3.4299l-.93293.58705c-.0565.0317-.13368-.0234-.23152-.18879-.091-.15159-.10335-.24667-.051-.27837l6.1626-3.6683c.13091-.0772.21773.0179.27148.10336l1.0611 1.7832c.0262.0427-.10197.14607-.19017.19706-.0868.0524-.23013.11162-.26734.0717l-1.4194-1.1975-2.6458 1.542c.57464 1.0115 1.119 1.9995 1.7763 3.0923z"/><path d="m75.675 98.756c.14331-.051.20808.0606.24253.15985l.80202 2.3936c.01378.0482-.13229.12127-.23151.1571-.09508.0317-.23289.0524-.27285.0124l-1.4786-1.8259-1.9279.61598c.36518 1.2499.76619 2.4901 1.2099 3.8186.452 1.3436.88332 2.599 1.345 3.8116l1.4676-.51401c.04823-.0165.1254.0524.18328.23013.0565.1695.03583.26872-.01241.28388l-4.8686 1.6275c-.06063.0193-.12678-.0537-.18328-.22049-.05788-.18052-.04961-.2756.0083-.29765l1.4731-.4644c-.36523-1.2499-.77175-2.497-1.221-3.8406-.44373-1.3298-.88746-2.5659-1.3339-3.7868l-1.9003.6587-.0937 2.3482c-.0083.0565-.13229.1254-.22875.15709-.09509.0317-.24391.0551-.2632.007l-.80202-2.3937c-.03309-.0951-.04823-.22462.09784-.27285z"/><path d="m77.817 98.993c-.06339.007-.11437-.0744-.14056-.2632-.02755-.17226-.0028-.26872.06063-.27561l4.1892-.6215c.06477-.011.113.0744.13918.24667.02893.18604.0055.27837-.05926.28939l-1.079.13229c.14056 1.2981.32246 2.599.52917 3.9839.20671 1.396.41754 2.7106.6587 3.9867l1.0749-.18603c.06063-.01.11162.0744.13781.26045.02755.17501.0028.26734-.06064.27836l-4.1892.6215c-.06201.011-.11162-.0744-.14194-.24667-.02617-.18604-.0028-.28112.06477-.28939l1.09-.1378c-.14193-1.2926-.32521-2.5935-.53192-3.9922-.20808-1.3877-.41479-2.6968-.66008-3.9784z"/><path d="m91.559 104c.02617-.051.16536-.0744.26596-.0689.10335.003.25494.0289.25218.0799l-.15709 2.322c-.0028.0978-.03172.18603-.18328.22048-1.1961.28939-1.892.38448-3.0937.3583-2.7712-.0689-4.8176-1.7363-4.746-4.8383.07717-3.1061 2.1511-4.6743 5.096-4.6026 1.2278.0289 2.1373.20119 2.9518.37482.15434.0289.17501.12678.17225.22738l-.05512 2.2751c0 .0468-.15158.0717-.25356.0717-.1006-.003-.24116-.0345-.26596-.0827l-.58704-1.9375c-.5209-.339-1.1768-.4327-1.7708-.44511-1.9086-.0455-3.0813 1.3794-3.1502 4.1934-.06615 2.8153 1.09 4.2457 2.898 4.2885.61874.0138 1.1906-.12127 1.768-.36105z"/><path d="m95.624 102.92c-.71796 2.7368-.05375 4.3739 1.4773 4.7749 1.5269.401 2.927-.69591 3.6504-3.4286.7152-2.7368.0372-4.3766-1.4938-4.7777-1.5255-.40101-2.9132.69453-3.6339 3.4313m7.1934 1.8879c-.79237 3.0041-3.1846 4.0473-5.8374 3.3514-2.6431-.69453-4.2278-2.7781-3.4382-5.7836.79238-3.0041 3.1984-4.0445 5.8415-3.3514 2.6527.69453 4.2237 2.7754 3.4341 5.7836"/><path d="m110.75 109.36c1.3105.8599 2.3206.40515 2.9614-.56637.73311-1.119.84749-1.9816-.44236-2.8291l-.52503-.34451c-.76067 1.1038-1.5765 2.2738-2.3744 3.4906zm-5.3495 1.6881c-.0524-.0345-.0372-.13092.0606-.27974.10473-.15572.18465-.20946.23702-.17501l.90675.62149c.75516-1.0597 1.4883-2.1442 2.2682-3.328.77032-1.1741 1.5462-2.3551 2.1608-3.3996l-.93017-.58429c-.0537-.0345-.0372-.13367.0662-.28663.0978-.14883.17777-.20257.23151-.16812l3.7083 2.4336c2.2118 1.4497 2.2517 2.7905 1.4524 4.0032-.92879 1.4166-2.3771 1.7033-5.1359-.10335l-.34865-.23151c-.67661 1.0253-1.1644 1.8397-1.7611 2.7933l.94396.58843c.0537.0317.0358.12953-.0661.28663-.0978.14883-.18053.19981-.23151.16398z"/><path d="m117.3 115.53c.57464-1.2788.87505-1.9692 1.4387-3.2715l-3.2439 1.5227zm-2.3358-1.4938-2.4805 1.1727.67249.61598c.0427.0427.011.13367-.12265.27147-.12264.12403-.21222.16123-.25769.11576l-1.7515-1.695c-.0455-.0427-.011-.13504.11163-.2632.13229-.13505.22323-.1695.26733-.12816l.58291.60082c2.9214-1.2499 5.5535-2.4874 8.3289-3.8406.0675-.0289.10886-.0207.15434.0234l.50022.48369c.0551.0524.0482.11576.0289.15159-1.2333 2.8842-2.3578 5.581-3.4961 8.5273l.57464.51952c.0345.0317.007.13367-.12264.26872-.12265.12677-.22324.15434-.2577.12264l-2.7616-2.6762c-.0358-.0372-.008-.13229.11299-.26045.13367-.13505.23151-.16399.26872-.12953l.61736.63389c.41479-.88332.72899-1.5999 1.1245-2.4818z"/><path d="m119.8 124.62c-1.1989-1.8149-1.6757-3.5884.67524-5.1249 1.4332-.92604 3.0427-2.0202 4.4442-3.0207l-.61323-.88056c-.0372-.0537.0179-.13505.17502-.23703.14882-.0951.24253-.11575.27698-.0634l2.3358 3.5305c.0372.0524-.0179.13229-.16399.23013-.15985.10611-.25493.12265-.28663.0689l-.58842-.93017c-1.5282.96325-3.0703 1.9361-4.5434 2.9214-1.8149 1.2127-1.848 2.2007-1.0101 3.4658.78135 1.1796 2.074 1.6867 3.8502.5209 1.4139-.93155 2.8939-1.9265 4.3381-2.9256l-.60358-.86953c-.0372-.0537.0152-.13367.175-.23978.14746-.0978.24254-.11438.27699-.0606l1.5599 2.362c.0372.0537-.0152.13091-.16399.23151-.15709.1006-.25355.11851-.29076.0661l-.56775-.91089c-1.4897.93431-2.989 1.9265-4.3491 2.8236-2.0767 1.3725-3.7331.84474-4.9265-.95773"/><path d="m125.24 134.38 2.2972-.10887c.0524-.006.12954.1254.16399.22049.0345.0923.0717.25769.0248.2756l-2.3799.78824c-.0923.0358-.22049.0537-.27423-.0868l-2.5439-6.7317c-.0234-.0579.0455-.12402.20946-.18741.17915-.0689.27423-.0675.29904-.006l.36656 1.0404c1.2333-.41479 2.4694-.86265 3.7937-1.3643 1.3133-.4961 2.6376-.99357 3.7538-1.4814l-.41479-1.0184c-.022-.0593.0455-.12541.22324-.19155.1695-.0634.26321-.0579.28664 0l1.4938 3.9564c.022.0593-.0482.1254-.21222.18879-.17776.0648-.27423.0606-.2949.003l-.36242-1.0239c-1.2361.41066-2.4722.86541-3.7855 1.3588-1.3229.49885-2.559.97703-3.7607 1.4828z"/><path d="m133.55 134.53c-.0124-.0606.0703-.11438.25632-.15159.17225-.0317.26734-.0124.27974.0482l.82269 4.1506c.0138.062-.0662.11713-.2384.14883-.18604.04-.2825.022-.2949-.0427l-.18604-1.0694c-1.2871.19982-2.5797.44649-3.9591.71658-1.3877.27699-2.6872.54433-3.9577.8475l.23565 1.0611c.0138.0606-.0689.11713-.25218.15434-.17226.0345-.26872.0124-.2825-.051l-.82131-4.1479c-.0124-.0606.0675-.11713.23978-.15158.18603-.0345.28249-.0165.29214.0455l.19155 1.0831c1.2871-.20533 2.5783-.44649 3.9688-.71934 1.378-.27423 2.6803-.54432 3.9453-.84749z"/><path d="m135.37 146.63c-.0317.15158-.11713.17776-.21773.18052l-2.2173.0165c-.0482.003-.0799-.16261-.0827-.26596-.004-.0978.0138-.25218.0634-.26596l1.7611-.61323c.28939-.38998.40928-1.1782.38723-1.7088-.0372-.93156-.53054-1.5448-1.2623-1.5186-.79789.0345-1.2816.56086-1.9113 2.2517-.73174 1.9761-1.5048 2.8787-2.9187 2.9352-1.7956.0717-2.7919-1.418-2.8718-3.4506-.0482-1.1603.0661-2.0864.30868-3.0579.0427-.15296.11989-.18328.21773-.18604l2.2517-.0896c.0482 0 .0799.16399.0882.26596 0 .0978-.0193.2384-.0689.25218l-1.9196.74552c-.2949.47956-.41203 1.3822-.38861 1.9871.0455 1.1369.56087 1.9348 1.5682 1.8976.7345-.0317 1.2182-.56775 1.8741-2.2242.81994-2.0161 1.6702-2.8718 2.9063-2.9214 1.3532-.051 2.5356 1.0266 2.621 3.1447.0372.93156-.0689 2.0726-.1888 2.6252"/><path d="m134.12 157.86c-.0234.15158-.1502.15572-.25218.14056l-2.4929-.40653c-.0537-.008-.0537-.175-.0372-.27009.0152-.1006.0634-.23564.11575-.25218l2.3055-.45889.34864-1.9885c-1.2761-.2577-2.5632-.48094-3.9481-.70556-1.396-.22325-2.712-.42444-4.0046-.58153l-.22187 1.5365c-.011.0482-.10749.0854-.29076.0565-.17777-.0289-.2577-.0937-.24667-.14056l.81855-5.0643c.011-.0606.10611-.0854.2825-.0565.18604.0303.26596.0799.2577.14332l-.27148 1.5186c1.2761.25493 2.5728.47817 3.9715.70555 1.3849.226 2.6844.40652 3.977.57878l.29765-1.9844-2.0395-1.1741c-.0441-.0345-.0441-.17501-.0289-.2756.0165-.0992.0648-.24392.11438-.23703l2.4942.40377c.10059.0138.22324.0648.19981.21222z"/><path d="m126.94 161.74c1.4001.0207 2.158.0289 3.5801.0317l-2.6789-2.3785zm.45475-2.7368-2.056-1.8094-.30041.85714c-.0234.0579-.11989.0634-.30042-.003-.16123-.0648-.23151-.13091-.20946-.19155l.8723-2.2751c.0262-.0579.11851-.0634.28663 0 .17777.0662.24392.13642.22049.1943l-.32108.76619c2.3013 2.1966 4.4759 4.1203 6.8185 6.1378.051.0469.0606.0896.0372.1502l-.24942.64768c-.0275.0717-.0854.0854-.12816.0854-3.1419 0-6.0661.0345-9.2274.15296l-.25218.72757c-.0193.0455-.11989.062-.2949-.004-.16537-.0648-.23013-.14469-.2136-.18604l1.3753-3.5884c.0179-.0455.11852-.062.28664 0 .17501.0689.24115.14607.22048.19292l-.33762.81718c.9729.0358 1.7598.0372 2.7285.0565z"/><path d="m118.07 170.16c2.9903.14332 6.6173.23289 9.7455.28387-2.1056-1.5131-4.1686-2.9297-6.3541-4.3739l-.58704.89986c-.0345.0496-.12678.0317-.28663-.0772-.14332-.0978-.19706-.18328-.15986-.23289l1.6027-2.3179c.0345-.0524.13092-.0345.27423.0661.1571.10611.20671.18879.17226.24254l-.63252.86954c2.1167 1.5186 4.4717 3.1406 6.6463 4.5737l.58842-.89711c.0345-.0538.12678-.0372.28387.0744.14883.1006.19982.18328.16537.23289l-1.9995 2.8911c-.0289.0427-.0537.0551-.0978.0551-2.4832-.11713-5.5011-.19843-8.0078-.22048 1.9113 1.3463 3.4768 2.3978 5.1649 3.5085l.58981-.89296c.0386-.0537.13091-.0358.288.0717.14332.10059.19706.18052.15848.23288l-1.5572 2.2558c-.0345.0537-.12679.0317-.27561-.0662-.15572-.10886-.20533-.18879-.17088-.24115l.59531-.81856c-2.0864-1.4993-4.5944-3.1598-6.9894-4.8107-.0496-.0344-.0579-.0882-.0152-.15158l.75241-1.0914c.0317-.0427.0606-.0662.10611-.0662"/><path d="m117.9 177.12c-1.8686-2.1249-3.6022-2.4887-4.7928-1.4483-1.1879 1.0377-1.0638 2.8098.80615 4.9389 1.8659 2.1291 3.6091 2.4846 4.7983 1.4414 1.1934-1.0377 1.0556-2.8057-.81167-4.932m-5.5948 4.8976c-2.0533-2.3358-1.5778-4.9017.48645-6.7097 2.0546-1.797 4.6729-1.9375 6.7248.39825 2.0505 2.3385 1.5696 4.9072-.48645 6.7097-2.0629 1.8038-4.6729 1.9361-6.7248-.39825"/><path d="m67.623 183.05-2.2255 1.2058-.14883 2.6486 2.4584-1.232z" fill-rule="evenodd"/><path d="m106.21 182.89-.0716 2.5301 2.2186 1.4566.16812-2.7437z" fill-rule="evenodd"/><path d="m74.959 192.19 1.2816.35277c.05374.0138.07993.0799.02341.26872-.05512.18879-.11162.23013-.16674.21222l-4.6633-1.3643c-.05374-.0165-.08268-.0799-.02617-.26872.05788-.19016.11713-.23013.16949-.21497l1.4621.44924c.678-2.158 1.4442-4.7584 1.8714-6.372-.64492-.0303-1.0501-.022-1.6881-.11713-.04961-.0165-.0758-.0799-.02066-.27423.05237-.18603.11162-.22462.16536-.21222.96463.11438 1.7267.0854 2.7878-.004l.93844.27286c-.67799 2.147-1.5365 5.0767-2.1346 7.2719"/><path d="m83.966 188.48c.13092-1.2912-.23426-1.943-.90124-2.0119-.66697-.0661-1.1451.50161-1.2761 1.7914-.12954 1.2692.22324 1.9527.89021 2.0216.55948.0565 1.1355-.28387 1.2871-1.8011m-4.152-.37483c.16261-1.5737 1.4387-2.3041 3.2425-2.1236 2.4226.24529 3.0579 1.8107 2.8608 3.7565-.34037 3.3514-2.8015 4.5089-4.6385 4.3201-.38309-.0372-.91502-.14883-1.2526-.30454-.05374-.0165-.06615-.10611-.0055-.27423.06201-.16123.14332-.19568.1943-.18052.30041.13091.76343.23151 1.1038.26871 1.2127.11851 2.1773-.45613 2.6128-3.2384-.46302.31832-1.0018.51814-1.6344.45337-1.6853-.16674-2.6403-1.1272-2.4832-2.6775"/><path d="m89.562 190.25c.29077 3.1805.99219 3.5705 1.6909 3.5057.69866-.0662 1.3188-.57189 1.0239-3.7552-.28801-3.1791-.98668-3.5691-1.6853-3.5057-.70418.0634-1.3188.57326-1.0294 3.7552m4.6895-.42719c.29214 3.2246-1.305 4.2416-2.9586 4.3932-1.6633.14745-3.4079-.56362-3.7-3.7882-.2949-3.2246 1.2885-4.2402 2.9531-4.389 1.6647-.15159 3.4079.55948 3.7055 3.7841"/><path d="m97.634 188.98c.90675 3.062 1.6647 3.3087 2.3399 3.1102.67524-.19982 1.1782-.81856.27699-3.8806-.904-3.062-1.6619-3.31-2.3399-3.1102-.67248.19844-1.181.81718-.27699 3.8806m4.5145-1.3271c.92053 3.1047-.44924 4.4111-2.045 4.8783-1.5999.46991-3.4479.11024-4.367-2.9917-.91502-3.1102.44097-4.4111 2.045-4.881 1.6027-.47267 3.452-.11438 4.367 2.9945"/><path d="m70.095 163.78c-.08268.28663-.27699.75103-.74965 1.2292-.32935.32935-.81166.61323-1.1245.76206-.12265.0661-.16536.0634-.17363.11024-.0096.0455.05375.0965.11713.16812 1.8962 2.0037 5.4184 3.0592 7.7473 3.0592 5.7506 0 9.5843-3.9963 9.5843-9.2673 0-2.7947-.80339-4.7942-2.9642-6.1764-.74001-.47266-1.8672-.71382-2.6031-.71382-.2949 0-.5774.0524-.83509.14331-.97014.34176-1.6674 1.265-1.6674 2.3537 0 1.3753 1.1203 2.4901 2.5025 2.4901 1.2099 0 2.2462-.89986 2.4502-2.0147.82682.76894.94396 2.9297.90399 3.6628-.22324 3.9591-3.3335 6.7551-7.5461 6.5898-1.9541-.0744-4.09-1.2526-5.3013-2.4019 0 0-.2136-.20946-.26045-.21773-.04547-.011-.04547.10886-.07993.22324"/><path d="m96.3 143.34c-.13643-.0744-.34038-.1943-.64079-.38309-.01654-.007.18328.022.17225.003-.22738.37758-.64354.627-1.1162.627-.72071 0-1.3078-.58429-1.3078-1.3091 0-.71933.58704-1.305 1.3078-1.305.21498 0 .46578.0951.64354.1888l.48645-2.0629c-2.4295-2.3303-4.7432-5.5452-3.5829-15.131.01238-.14193.0069-.21497.03583-.22875.0303-.0138.14883.04.3197.11989.4644.20119 1.316.68764 1.8604 1.6771 0 0 .0028-.003.0055-.011 1.7074-2.5135 4.9899-4.1768 8.2517-4.2196h.1254c4.4772 0 8.0712 2.927 9.1405 7.0652.0207.0799.04.15434.0551.226.04.17501.0744.35002.10611.52779.56913 2.6775 1.5324 4.8438 3.6449 5.7643.11989.0482.226.091.2453.11438.0344.0427.0207.1061.0207.25494v2.8512s.003.0551-.005.0689c-.01.0152-.0427.0207-.0923.0317-.34314.1061-1.9169.68764-2.8801 2.9862-.82131 1.972-.83372 4.7294-1.8659 6.7882-1.1824 2.3606-3.6766 3.6945-6.5291 3.7372-3.7593 0-6.5347-2.7285-6.4919-6.3803.01378-1.2154.87229-3.875 3.853-4.1093.86265-.0703 1.5916.18327 2.2558.76481.46578.38033.75517 1.0115.75517 1.6592 0 1.1438-.93017 2.0726-2.0781 2.0726-1.1465 0-2.0767-.92879-2.0767-2.0726 0-.10886.005-.22599.0179-.32935 0 0-.79375.18604-.93017 1.5613-.16536 1.6151.67524 3.3514 2.1911 4.1658.95636.51538 2.3151.62976 3.328.3266 2.26-.67387 3.4933-2.486 3.4933-4.5296 0-1.4814-.27699-2.4639-1.2471-3.1185-.10335-.0689-.15709-.0882-.16536-.12264-.01-.0482.0193-.12678.0427-.22325.13642-.5016.46302-1.6881.6146-2.2503.0234-.0827.0662-.22324.11162-.2384.0565-.022.17639.0413.26045.0758.35691.15985.68902.21084 1.0101.21084 1.4304 0 2.5838-1.1548 2.5838-2.5811 0-1.4276-1.1534-2.5811-2.5838-2.5811-.56086 0-1.0101.1819-1.3078.35691-.15709.0937-.19705.12816-.24666.11438-.051-.0124-.0909-.1695-.11989-.26735-.16261-.56086-.48369-1.6619-.61323-2.1056-.0303-.10886-.0482-.15434-.0331-.18328.0138-.0317.062-.0551.0978-.0841.36243-.25218 1.3877-1.1631 1.3877-3.2784 0-2.5053-2.2462-4.7487-5.745-4.7818-3.5112-.0345-5.7175 2.0905-6.0772 6.3183-.1695 1.9651-.28939 4.8976-.28939 7.7404 0 .77721-.08957 4.389-.10887 5.3799 0 .13781.0028.21773-.02341.22325-.0303.004-.15158-.0482-.26596-.11438"/><path d="m88.577 126.47c-.12127.14056-.21911.19568-.23426.24942-.01929.0551.03996.2012.06339.33211.53468 2.2586 3.3417 15.203-1.4249 21.646-2.6899-3.4258-3.2494-11.354-2.2834-15.417 1.0253-4.316-.46302-7.0128-1.6592-8.0078-.07717-.0661-.23702-.18603-.27423-.19154-.04547-.007-.02066.17087-.01516.26044.3638 4.4828.27147 10.559-3.5622 13.932-.0303.0234-.09371.0744-.09922.1006-.0083.0234.0055.0606.02893.14331l.14194.47818c.01791.0579.03447.11163.05237.12127.01654.0138.10887.0138.15985.0165 1.1355.0482 2.0423.98254 2.0423 2.1318 0 1.1755-.95774 2.1304-2.1373 2.1304-.41066 0-.79513-.11713-1.1231-.31557-.04272-.0317-.07166-.0455-.08957-.051-.01378 0-.07166.0317-.09646.0482l-.5209.29766c-.05512.0317-.10335.0579-.12402.0868-.01929.0317-.04272.16536-.05926.23702-.40928 1.8576-3.5305 13.623-17.553 17.436-.41755.12816-1.2016.27699-1.2099.42582-.008.14883.67799.71382 1.2127 1.0129 1.2623.61322 3.1929 1.1396 5.5135.43132 0 0-.14883.46165-.16261 1.0266 0 .24943-.0234.74001.13092.7593.1378.0179.17776-.14607.59255-.3266.0951-.0455.20947-.0799.34038-.10059.69315-.11162 2.6348-.63803 3.0165-2.3702.38309-1.7336.47955-2.7506 1.0349-3.2756.66697-.62564 1.8686.0289 1.7198.93155-.1006.62425-.81028 1.4842-1.1589 1.8769-.07166.0868-.11989.11851-.1254.17501-.0083.0482.07441.12126.16536.21222.54984.56775 1.6826 1.6592 3.8447 2.1924 0 0 .38171.1006.44373.0799.07166-.0193.05236-.18327.03996-.38033-.13092-2.5342-.02204-6.9798 1.0542-9.7482 1.141-2.9462 2.9325-5.6403 5.373-5.6403 1.9871 0 3.7593 1.9568 4.7542 4.3822.05237.12678.11438.28112.18328.49058.20671.60771.25494 1.0432.40928 1.0432.1571 0 .20395-.43684.40652-1.0294.05099-.1378.09784-.27285.14607-.3955.9729-2.4763 2.7836-4.4855 4.797-4.491 2.4722-.005 4.7956 2.6748 5.4915 5.8181.7717 3.4602.09095 5.3936.50022 8.6899.40377 3.3045 1.3794 4.4249 1.9141 4.7901.13504.0965.29489.17226.32659.15159.0317-.0152.0317-.12954.0427-.25218.0455-.53331.26596-1.6826 1.3394-2.2641.92053-.49885 1.8328-.31006 2.1718-.21222.051.0138.11714.0427.13367.0262.0193-.0152.0234-.0744.0234-.0744.19706-1.0666-.15709-2.096-.75516-2.858-.62977-.80615-1.6978-1.5393-1.7997-2.5246-.11713-1.1617 1.2444-1.6688 2.0106-.98943.57188.50987.58428 1.5021.97013 3.2329.3831 1.7336 2.3427 2.3013 3.0413 2.413.13092.0207.24254.0551.34038.10335l-.003-.003c.4892.21773.45751.34175.58016.32108.15434-.0207.14055-.50436.14055-.75379-.011-.56499-.15709-1.0266-.15709-1.0266 2.3124.72623 4.2512.19293 5.519-.42718.58704-.30317 1.2182-.86817 1.2099-1.017-.008-.14883-.78962-.29766-1.2099-.42168-13.957-3.7965-17.115-15.464-17.552-17.412-.03583-.14882-.0441-.23702-.06615-.26596-.01791-.0289-.04548-.0427-.10335-.0772l-.51814-.29628c-.02479-.0165-.08268-.051-.09784-.0482-.01654.003-.04547.0207-.08819.051v-.003c-.32522.19293-.7028.30731-1.1066.30731-1.1796 0-2.1373-.95498-2.1373-2.1304 0-1.1479.90675-2.0836 2.0422-2.1318.07166-.003.13505-.003.15986-.0138.02066-.01.03721-.0606.05237-.11713l.14056-.47956c.02479-.0827.03859-.11713.0303-.14331-.0083-.0262-.01379-.0372-.09647-.1006-4.8783-4.0115-3.9563-13.545-2.9669-18.163.2825-1.3298.73863-2.9008 3.0331-3.8172 1.4125-.53881 1.9541-.43822 1.0211-.94396-.72623-.42581-2.0257-.92191-3.7055-.42857 0 0 .2632-.93431-.18604-1.7377-.06477-.10336-.25493-.49886-.40652-.47818-.12265.0193-.06201.22048-.30041.49885v-.003c-.09646.11162-.22049.23151-.39412.35553-.63252.4644-1.4855.97152-1.1961 2.9807 0 0 .0689.61598-.48645.91915-.55811.30041-1.1493.0152-1.3422-.46165 0 0-.23427-.39825.1695-1.3091.40376-.90951.70418-1.0611.70418-1.961 0-1.0597-.83371-1.8535-1.3601-2.5618-.09646-.11989-.2949-.46165-.4203-.46165-.12816 0-.34038.36381-.4203.46165-.52365.70831-1.3505 1.5021-1.3505 2.5618 0 .89986.2949 1.0514.70142 1.961.40514.91088.17088 1.3091.17088 1.3091s-.2632.62288-.8723.58016c-1.0873-.0786-.94671-1.0377-.94671-1.0377.19982-2.1649-.56362-2.5163-1.1961-2.9807-.1695-.12402-.29766-.24391-.38999-.35278-.24254-.27836-.24804-.49058-.32246-.49885-.15159-.0207-.32108.37483-.38585.47818-.452.8034-.18879 1.7377-.18879 1.7377-1.6895-.4961-2.9986.008-3.7193.43821-.93293.50161-.27285.36656 1.0184.94534 1.8452.74276 2.4433 1.8659 2.7919 2.9063.01654.0496.03997.11989.05099.13229.0083.011.08681.0372.14056.0593.36656.13781 1.3822.54571 2.5576 1.3022.15158.091.22875.16812.28663.15434.06064-.0138.07717-.0854.1571-.19844.46302-.71244 1.1534-1.1369 1.9279-1.1369 1.396 0 2.5273 1.4952 2.5273 3.3362 0 .89159-.2632 1.7019-.69315 2.2986-.08268.11438-.17088.22048-.25218.30592"/><path d="m87.785 123.6c.07442-.008.22738-.0193.25218.008.03171.0345.0055.13505-.02617.25631-.2136.75104-.70004 2.8691-.60909 6.1336.09233 3.4479.71244 5.548.96187 6.2563.02204.0634.09095.22325.06063.24116-.03583.0193-.11575-.01-.32659-.0427-1.0446-.16674-2.1153-.0496-2.6128.022-.1571.0207-.19982.0345-.24529.0345-.04961-.003-.04134-.14331-.04134-.22048.0096-2.7781 1.5462-4.9706.1378-9.1832-.853-2.5397-3.667-4.2306-7.6329-4.1851-3.9688.0427-6.587 2.0988-8.4198 5.1249-1.8039 2.978-2.4901 7.768-.40928 9.2838.03996.0317.07166.0455.08268.0717.0083.0207.0083.0165-.02342.13229l-.64079 2.3385c-.0372.14332-.05925.22049-.10335.23151-.07304.0207-.11162-.0234-.35416-.18052-.61736-.37207-1.2788-.49885-1.6743-.49885-1.6302 0-2.949 1.316-2.949 2.938 0 1.6275 1.3188 2.9462 2.949 2.9462.3955 0 .77308-.0827 1.1162-.22324 0 0 .15985-.0717.19706-.0634.03721.0124.02893.0427.0689.14607l.7152 2.2393c.02617.0827.07855.23151.05512.28112-.02893.051-.0689.0648-.19155.13367-.7593.43546-3.0303 2.4198-.98806 9.8309.0069.04.03447.11438.03168.13505-.0055.0262-.10336.0854-.13781.11162-.90123.62839-1.83 1.1328-2.4488 1.4621-.11162.0579-.21911.11438-.26321.1006-.051-.0124-.14607-.16675-.19154-.23013-.70969-1.1341-1.8962-3.5994-3.0262-7.2113-1.5544-4.9692-1.2995-6.4134-3.4478-7.9471-.10886-.0799-.1378-.0951-.15434-.12679-.0124-.0345-.007-.17225-.007-.22323v-2.9972c0-.0923.001-.0978.01-.11851.0138-.022.091-.0372.13643-.0538.51538-.15296 2.2641-.81993 3.6394-3.124 1.5131-2.5315 2.5494-7.8645 5.5742-11.668 3.1778-3.9908 6.0138-5.4515 11.035-5.3151 3.4217.0923 6.0193 1.87 6.7427 2.3592.68351.46164 1.6964.94809 3.1585.79375"/><path d="m92.392 150.33c-.03996.003-.08544 0-.09509.011-.01101.0124-.0083.0441-.0083.0841v15.365c0 3.7951.59531 6.8819-1.9458 8.4749-.09922.0634-.27423.15847-.38034.2067-2.3027 1.0239-4.8659-.37758-5.2958-2.745-.39963-2.2021 1.1107-3.5691 1.881-3.9784v.011c0 .57326.21911 1.0955.58016 1.4869.36656.41341.89572.68901 1.5544.7028.01929.003.04134.003.05926.003.66697 0 1.2016-.2632 1.5792-.66835.38034-.39412.6146-.93293.6146-1.5241v-.15158c0-.52503-.23978-1.0129-.64079-1.396-.13367-.13506-.28525-.24943-.44924-.34727-.49472-.30593-1.119-.49196-1.8052-.5016-1.6027-.011-3.1213 1.2954-3.1213 1.2954-1.9706 1.5737-2.424 3.9591-2.1745 5.5783.31557 2.0409 1.3822 3.5333 2.887 4.4359 1.2416.74277 2.5342.95498 3.627.88608.8282-.051 1.2623-.1943 1.684-.33762 1.9417-.65732 2.723-2.2366 2.723-2.2366.14056.58429.42995.96877.72347 1.2182.17226.16123.6215.37621.70969.34451.10611-.0372.01241-.40652.08681-.81717.09922-1.0542.6463-1.6991.97427-1.994.07855-.0744.19017-.14469.19017-.20946 0-.0689-.11162-.19292-.16674-.27561v-.003c-1.3395-1.8576-.42857-3.3941-.42857-3.3941 3.0675 1.305 1.9844 4.3863 1.152 5.9862-.17088.38034-.50298.79513-.46026.86817.04548.0772.6463.17363 1.2526-.0551 1.9031-.75103 2.4322-3.3197 2.4322-3.3197.40927.15572 1.1134.2384 1.5792.2384 2.0753 0 3.7607-1.6826 3.7607-3.7579 0-.64492-.16123-1.2471-.44648-1.7763-.25769-.514-.69591-.89985-1.2168-1.0528-.16261-.051-.33762-.0772-.51401-.0772-.98805 0-1.7859.79788-1.7859 1.7832 0 .97703.79237 1.7749 1.768 1.7832h.0179c.14469 0 .28525-.0179.41754-.0524-.15158.27837-.64492.80891-1.243.9605-1.0721.27836-2.4763.0427-3.6821-2.2214-1.7129-3.215-1.7611-5.8071-1.7611-11.31 0-4.4194-3.0427-7.5889-4.633-7.5213"/><path d="m75.297 170.21c.07442.7345.39964 3.2591 1.4414 4.6288.14607.21221.24942.29765.22876.35002-.03721.0951-.41479.0234-.56913-.0427-1.2554-.47956-3.4961-1.7598-4.7584-4.9982 0 0-.76344.71107-1.4552 1.0652-.28112.15434-.31006.0717-.40377-.0662-.30041-.45475-1.0308-1.6853-1.09-2.9655-.02341-.34176.02893-.51126.10611-.4396.05099.0441.28526.23565.4203.32798.78961.54983 2.5521 1.4979 5.7657 1.8976.08268.008.2508.0275.27698.0537.02893.0262.02755.0689.03721.18879"/></g></g></svg>