<svg height="294.293393" viewBox="0 0 183.7 159.1" width="339.796959" xmlns="http://www.w3.org/2000/svg" xmlns:xlink="http://www.w3.org/1999/xlink"><linearGradient id="a" gradientUnits="userSpaceOnUse" x1="107.83" x2="67.12" y1="14.84" y2="85.35"><stop offset="0" stop-color="#8cbae4"/><stop offset=".11" stop-color="#6dacdf"/><stop offset=".54" stop-color="#005ca4"/><stop offset="1" stop-color="#005ca4"/></linearGradient><linearGradient id="b" gradientUnits="userSpaceOnUse" x1="120.58" x2="63.06" y1="7.68" y2="107.3"><stop offset=".05" stop-color="#8cbae4"/><stop offset=".54" stop-color="#005ca4"/><stop offset="1" stop-color="#005ca4"/></linearGradient><g fill="#005ca4"><path d="m25.8 159.1a10.2 10.2 0 0 1 -2.7-.4 6.6 6.6 0 0 1 -2.5-1.3 7.1 7.1 0 0 1 -1.8-2.5 9.2 9.2 0 0 1 -.7-3.9v-15.1a8.6 8.6 0 0 1 .6-3.1 7.3 7.3 0 0 1 4-4.2 8.2 8.2 0 0 1 6.1 0 7.3 7.3 0 0 1 2.4 1.7 7.8 7.8 0 0 1 1.6 2.6 9.1 9.1 0 0 1 .6 3.3v1.8a.4.4 0 0 1 -.4.4h-4.5a.4.4 0 0 1 -.4-.4v-1.5a3.5 3.5 0 0 0 -.7-2.2 2.1 2.1 0 0 0 -1.8-.9 2 2 0 0 0 -1.9.9 5.6 5.6 0 0 0 -.5 2.6v13.9a4.1 4.1 0 0 0 .5 2.2 2 2 0 0 0 1.9.8h.9l.8-.5a2.3 2.3 0 0 0 .6-.9 3.9 3.9 0 0 0 .2-1.5v-1.5a.4.4 0 0 1 .4-.4h4.4a.4.4 0 0 1 .4.4v1.9a8.1 8.1 0 0 1 -2.2 5.5 8 8 0 0 1 -2.4 1.7 6.9 6.9 0 0 1 -2.9.6z"/><path d="m44.4 159.1a8.1 8.1 0 0 1 -2.8-.5 7.9 7.9 0 0 1 -2.6-1.6 7.7 7.7 0 0 1 -1.8-2.6 8.9 8.9 0 0 1 -.7-3.7v-14.4a9 9 0 0 1 .7-3.6 7.7 7.7 0 0 1 1.8-2.6 7.9 7.9 0 0 1 2.6-1.6 8 8 0 0 1 5.7 0 7.9 7.9 0 0 1 2.6 1.6 7.7 7.7 0 0 1 1.8 2.6 9 9 0 0 1 .7 3.6v14.5a8.9 8.9 0 0 1 -.7 3.7 7.7 7.7 0 0 1 -1.8 2.6 7.9 7.9 0 0 1 -2.6 1.6 8.2 8.2 0 0 1 -2.9.4zm0-25.8a2.6 2.6 0 0 0 -2.7 3v14.5a2.8 2.8 0 0 0 .8 2.2 3 3 0 0 0 3.9 0 2.8 2.8 0 0 0 .8-2.2v-14.5a2.9 2.9 0 0 0 -.8-2.2 2.8 2.8 0 0 0 -2-.7z"/><path d="m71.6 158.9h-4.1a.4.4 0 0 1 -.4-.3l-5.8-15.1a.3.3 0 0 0 -.5.1v14.8a.4.4 0 0 1 -.4.4h-4.5a.4.4 0 0 1 -.4-.4v-29.7a.4.4 0 0 1 .4-.4h4.2a.4.4 0 0 1 .4.3l5.7 15.1a.3.3 0 0 0 .5-.1v-14.9a.4.4 0 0 1 .4-.4h4.4a.4.4 0 0 1 .4.4v29.7a.4.4 0 0 1 -.3.5z"/><path d="m96.7 158.9h-4.4a.4.4 0 0 1 -.4-.4v-14.8a.3.3 0 0 0 -.5-.1l-3.4 10.6-.3.2h-2.4l-.3-.2-3.3-10.6a.3.3 0 0 0 -.5.1v14.7a.4.4 0 0 1 -.4.4h-4.4a.4.4 0 0 1 -.4-.4v-29.7a.4.4 0 0 1 .4-.4h4.2a.4.4 0 0 1 .4.3l5.3 14.3a.3.3 0 0 0 .5 0l5.2-14.4a.4.4 0 0 1 .4-.3h4.3a.4.4 0 0 1 .4.4v29.7a.4.4 0 0 1 -.4.6z"/><path d="m114.8 158.9h-13.3a.4.4 0 0 1 -.4-.4v-29.8a.4.4 0 0 1 .4-.4h13.4a.4.4 0 0 1 .4.4v4.3a.4.4 0 0 1 -.4.4h-8.3a.3.3 0 0 0 -.3.3v6.9a.3.3 0 0 0 .3.3h7.1a.4.4 0 0 1 .4.4v4.3a.4.4 0 0 1 -.4.4h-7.1a.3.3 0 0 0 -.3.3v6.9a.3.3 0 0 0 .3.3h8.3a.4.4 0 0 1 .4.4v4.5a.4.4 0 0 1 -.5.5z"/><path d="m124.7 158.9h-6.1a.4.4 0 0 1 -.4-.4v-29.8a.4.4 0 0 1 .4-.4h6.5a9.4 9.4 0 0 1 3.8.7 7.4 7.4 0 0 1 2.6 1.9 9 9 0 0 1 2 5.1c.2 2.8-.4 5.6-2.7 7.3h-.1a5.3 5.3 0 0 1 2 2.2 10.5 10.5 0 0 1 .7 6 9 9 0 0 1 -2 4.9c-1.4 1.6-3.7 2.5-6.7 2.5zm-1.3-5.7a.3.3 0 0 0 .3.3h1.3a4.4 4.4 0 0 0 2-.4c2.1-1.1 2.2-4.9.6-6.5l-.3-.3c-1-.7-2.4-.5-3.6-.5a.3.3 0 0 0 -.3.3zm0-12.5a.3.3 0 0 0 .3.3h1.4c1.4 0 2.3-.3 2.8-1a5.3 5.3 0 0 0 -.1-5.6 3.5 3.5 0 0 0 -2.9-1h-1.3a.3.3 0 0 0 -.3.3z"/><path d="m144.4 159.1a8.1 8.1 0 0 1 -2.8-.5 7.9 7.9 0 0 1 -2.6-1.6 7.7 7.7 0 0 1 -1.8-2.6 8.9 8.9 0 0 1 -.7-3.7v-14.4a9 9 0 0 1 .7-3.6 7.7 7.7 0 0 1 1.8-2.6 7.9 7.9 0 0 1 2.6-1.6 8 8 0 0 1 5.7 0 7.9 7.9 0 0 1 2.6 1.6 7.7 7.7 0 0 1 1.8 2.6 9 9 0 0 1 .7 3.6v14.5a8.9 8.9 0 0 1 -.7 3.7 7.7 7.7 0 0 1 -1.8 2.6 7.9 7.9 0 0 1 -2.6 1.6 8.2 8.2 0 0 1 -2.9.4zm0-25.8a2.6 2.6 0 0 0 -2.7 3v14.5a2.8 2.8 0 0 0 .8 2.2 3 3 0 0 0 3.9 0 2.8 2.8 0 0 0 .8-2.2v-14.5a2.9 2.9 0 0 0 -.8-2.2 2.8 2.8 0 0 0 -2-.7z"/><path d="m170.1 158.9h-13.4a.4.4 0 0 1 -.4-.4v-29.8a.4.4 0 0 1 .4-.4h4.4a.4.4 0 0 1 .4.4v24.5a.3.3 0 0 0 .3.3h8.3a.4.4 0 0 1 .4.4v4.5a.4.4 0 0 1 -.4.5z"/><rect height="5.39" rx=".1" width="9.9" x="173.8" y="140.9"/><rect height="5.39" rx=".1" width="9.9" y="140.9"/></g><path d="m91.9 17.3a78.2 78.2 0 0 0 -18.1 2.1 69.1 69.1 0 0 0 -16.5 6.2 2.6 2.6 0 0 0 -1.4 2c-.2 1.7-.4 3.3-.5 4.9s-.2 3.3-.2 4.9a71.3 71.3 0 0 0 9.5 35.6 70.2 70.2 0 0 0 25.9 25.9 2.5 2.5 0 0 0 2.5 0 70.2 70.2 0 0 0 26-25.9 71.3 71.3 0 0 0 9.5-35.6c0-1.6-.1-3.2-.2-4.9s-.3-3.3-.5-4.9a2.6 2.6 0 0 0 -1.4-2 69.2 69.2 0 0 0 -16.5-6.2 78.3 78.3 0 0 0 -18.1-2.1z" fill="url(#a)"/><path d="m47.9 66.3-7.4 16.8h-.2a57.2 57.2 0 0 1 -6-25.7l12.8 6.6a1.8 1.8 0 0 1 .8 2.3zm86.6-35.5c.1 1.9.2 3.7.2 5.5a79.7 79.7 0 0 1 -2.7 20.4l15.9-12a57.1 57.1 0 0 0 -6.7-16.7l-6.9.3c.1.9.2 1.7.3 2.6zm-65.5-16.8 2.2-10.2a57.6 57.6 0 0 0 -21.3 14.4l10.4-1.3a78.4 78.4 0 0 1 8.7-2.9zm54.3 2.9 10.4 1.3a57.6 57.6 0 0 0 -21.1-14.4l2.1 10.2a78.3 78.3 0 0 1 8.7 2.9zm-18-5-4.3-11.2a57.5 57.5 0 0 0 -18.3 0l-4.3 11.3a88.7 88.7 0 0 1 26.9 0zm-56.3 24.4c0-1.8.1-3.6.2-5.5s.2-1.7.3-2.5l-7-.3a57.1 57.1 0 0 0 -6.7 16.8l15.9 12a79.7 79.7 0 0 1 -2.7-20.5zm100.4 21-12.8 6.7a1.8 1.8 0 0 0 -.8 2.3l7.4 16.8h.2a57.2 57.2 0 0 0 6-25.7zm-89.9 18.6c-1.1-1.9-2-3.8-2.9-5.7l-9.5 23.4a57.7 57.7 0 0 0 19.7 15.7l13.3-10a78.4 78.4 0 0 1 -20.6-23.4zm30.5 30.4-9.9 7.5a57.9 57.9 0 0 0 23.5 0l-9.9-7.5a3 3 0 0 0 -3.6 0zm34.1-30.4a78.5 78.5 0 0 1 -20.6 23.4l13.2 10.1a57.7 57.7 0 0 0 19.7-15.7l-9.5-23.4c-.7 1.9-1.6 3.8-2.7 5.6z" fill="url(#b)"/><path d="m112.1 50.5a.3.3 0 0 1 0 .4l-.7.9h-.4a15.3 15.3 0 0 0 -5.2-3.9 16.1 16.1 0 0 0 -6.7-1.4h-.2a16 16 0 0 0 -9 2.9 14.3 14.3 0 0 0 -5.4 6.6l-.3.2-.2-.2-.4-1.7a.6.6 0 0 1 .1-.4 15.6 15.6 0 0 1 1.5-2.3 16.5 16.5 0 0 1 3.6-3.6 17.8 17.8 0 0 1 10-3.2h.2a17.9 17.9 0 0 1 7.4 1.6 17.1 17.1 0 0 1 5.7 4.1zm.7-3.3a20.6 20.6 0 0 0 -13.8-5.2h-.3a21.1 21.1 0 0 0 -10.1 2.7 19.4 19.4 0 0 0 -7 6.7.3.3 0 0 0 0 .2v.4l.9.5h.4a17.7 17.7 0 0 1 6.4-6.1 19.4 19.4 0 0 1 9.3-2.5h.3a18.9 18.9 0 0 1 13.5 5.5h.3a.3.3 0 0 0 .2-.3v-1.5a.5.5 0 0 0 0-.4zm0-3.6a24.1 24.1 0 0 0 -13.7-4.3h-.3a24.1 24.1 0 0 0 -11.9 3.3 22.1 22.1 0 0 0 -8 8.1.3.3 0 0 0 0 .3l.3.2h1.1l.4-.2a20.5 20.5 0 0 1 7.1-6.9 22.4 22.4 0 0 1 11-3.1h.3a22.2 22.2 0 0 1 13.5 4.5h.3a.3.3 0 0 0 .2-.3v-1.2a.5.5 0 0 0 -.3-.4zm-13.7-7h-.4a27.3 27.3 0 0 0 -13.3 3.6 25.1 25.1 0 0 0 -8.8 8.5.4.4 0 0 0 0 .5l.6.8h.5a23.3 23.3 0 0 1 8.5-8.3 25.6 25.6 0 0 1 12.5-3.4h.3a25.3 25.3 0 0 1 13.5 3.7h.4l.8-.7a.3.3 0 0 0 .1-.3v-.2a27 27 0 0 0 -14.6-4.2zm15.4 1.4a30.2 30.2 0 0 0 -15.3-4.1h-.4a30.4 30.4 0 0 0 -14.3 3.7 28.2 28.2 0 0 0 -9.8 8.9.5.5 0 0 0 0 .5l.7.8h.5a26.4 26.4 0 0 1 9.4-8.7 28.7 28.7 0 0 1 13.4-3.5h.4a28.5 28.5 0 0 1 14.7 4h.3l.2-.2.3-1.1a.3.3 0 0 0 -.1-.3zm-15.9-5.1h.3a.3.3 0 0 0 0-.3l-.4-.9a.5.5 0 0 0 -.5-.3 33.7 33.7 0 0 0 -14 3.6 31.3 31.3 0 0 0 -10.8 9 .5.5 0 0 0 -.1.5l.5 1 .2.2h.3a30.7 30.7 0 0 1 24.5-12.8zm7 .6a31.2 31.2 0 0 1 8.4 3h.3a.3.3 0 0 0 .1-.3l-.3-1.3a.5.5 0 0 0 -.3-.3 33 33 0 0 0 -6.7-2.4h-.4l-1.2.8a.3.3 0 0 0 -.1.3zm-22.4.5a34.4 34.4 0 0 1 7.2-2.7 35.5 35.5 0 0 1 7.7-1.1l.3-.2a.3.3 0 0 0 0-.3l-.6-1a.5.5 0 0 0 -.5-.2 37.2 37.2 0 0 0 -7.3 1.1 36.1 36.1 0 0 0 -7.6 2.9 34.3 34.3 0 0 0 -11.7 9.9.3.3 0 0 0 0 .3l.2.2 1 .4h.4a32.6 32.6 0 0 1 10.9-9.3zm-3.8-1a37.1 37.1 0 0 1 12.6-4.9l.2-.2a.3.3 0 0 0 -.1-.3l-1-.9h-.4a38.8 38.8 0 0 0 -12.2 4.9 36.7 36.7 0 0 0 -9.3 8.1.5.5 0 0 0 -.1.4l.2 1.4.2.2h.3a34.9 34.9 0 0 1 9.6-8.8zm-9.4 3.8h.3a39.3 39.3 0 0 1 17.4-10.5l.2-.2a.3.3 0 0 0 -.1-.3l-.7-.8a.5.5 0 0 0 -.5-.1 41.1 41.1 0 0 0 -16.9 10 .5.5 0 0 0 -.1.4l.2 1.3zm.9-6.6v.2l.9.7h.4a42.3 42.3 0 0 1 10.3-6 .3.3 0 0 0 .2-.3.3.3 0 0 0 -.2-.3l-1.5-.5h-.4a44 44 0 0 0 -9.6 6zm-.7-1.2h.3a45 45 0 0 1 4.7-3.2.3.3 0 0 0 .1-.3l-.2-.2-1.3-.4h-.4l-3.4 2.4a.5.5 0 0 0 -.2.5l.2 1.1zm30.2 30a2.4 2.4 0 0 0 -1.4-.5 2.2 2.2 0 0 0 -2.3 2.2 2.4 2.4 0 0 0 .7 1.5l3.5 3.2h.4l1-.6v-.2a.3.3 0 0 0 -.1-.3c-1.4-1.2-3.7-3.3-3.7-3.3l-.2-.4a.6.6 0 0 1 .6-.5h.4l3.2 2.8h.3l.2-.2.4-1.1a.3.3 0 0 0 -.1-.3zm2.2-1.9a5.6 5.6 0 0 0 -3.6-1.4h-.2a5.4 5.4 0 0 0 -3.7 1.5 4.8 4.8 0 0 0 -1.5 3.5 4.7 4.7 0 0 0 1.1 2.9 21.9 21.9 0 0 0 6.6 5.4h.3a.3.3 0 0 0 .1-.3l-.4-1.5v-.2a20 20 0 0 1 -5.3-4.4 3.1 3.1 0 0 1 -.7-1.9 3.1 3.1 0 0 1 1-2.3 3.7 3.7 0 0 1 2.5-1h.2a3.8 3.8 0 0 1 2.5 1l2.8 2.5h.4l.9-.7v-.2a.3.3 0 0 0 -.1-.2zm1.9-2.1a7.2 7.2 0 0 0 -1.6-1.1 8.7 8.7 0 0 0 -3.9-.9h-.1a8.5 8.5 0 0 0 -5.8 2.3 7.4 7.4 0 0 0 -2.3 5.5 7.3 7.3 0 0 0 1.6 4.4 24.3 24.3 0 0 0 5.6 5.2h.3l1.2-.5.2-.2a.3.3 0 0 0 -.1-.3 22.8 22.8 0 0 1 -5.8-5.2 5.6 5.6 0 0 1 -1.2-3.4 5.7 5.7 0 0 1 1.9-4.3 6.8 6.8 0 0 1 4.6-1.8h.1a7 7 0 0 1 3.1.7l1.2.9 3 2.8h.3a.3.3 0 0 0 .2-.2v-1.5a.5.5 0 0 0 -.1-.4zm-5.5-4.7h-.2a11.5 11.5 0 0 0 -7.8 3.1 10 10 0 0 0 -3.2 7.4 9.9 9.9 0 0 0 2.1 5.9 27.1 27.1 0 0 0 6.1 5.8h.3l.2-.2.3-1.1a.3.3 0 0 0 -.1-.3 25.6 25.6 0 0 1 -5.5-5.2 8.2 8.2 0 0 1 -1.7-4.9 8.3 8.3 0 0 1 2.7-6.2 9.8 9.8 0 0 1 6.6-2.6h.2a9.8 9.8 0 0 1 7.1 3h.5l.6-.9a.4.4 0 0 0 -.1-.4 11.6 11.6 0 0 0 -8.1-3.4zm0-2.7h-.2a14.5 14.5 0 0 0 -9.9 4 12.6 12.6 0 0 0 -4 9.4 12.4 12.4 0 0 0 2.6 7.5 30.2 30.2 0 0 0 8.8 7.5h.4l.8-.8a.3.3 0 0 0 .1-.3v-.2a28.6 28.6 0 0 1 -8.5-7.5 10.8 10.8 0 0 1 -2.3-6.5 10.9 10.9 0 0 1 3.5-8.1 12.8 12.8 0 0 1 8.7-3.5 13 13 0 0 1 8.8 3.4h.4l1-.6v-.2a.3.3 0 0 0 -.1-.3 14.6 14.6 0 0 0 -10.1-3.9zm-3.8 31.1h.4l.5-.9a.3.3 0 0 0 -.1-.4 32 32 0 0 1 -9.6-8.5h-.3l-.2.2-.3 1.3a.5.5 0 0 0 .1.4 34 34 0 0 0 9.5 7.9zm1.8 4h.1v-1.5a.3.3 0 0 0 -.2-.3 35.4 35.4 0 0 1 -9.6-6.9h-.3a.3.3 0 0 0 -.2.3v1.5a.5.5 0 0 0 .2.4 37.3 37.3 0 0 0 9.8 6.6zm-7.3-2.8-.2.2-.2 1.1a.5.5 0 0 0 .2.5 41.3 41.3 0 0 0 6.1 3.5h.3v-1.4a.3.3 0 0 0 -.2-.3 39.4 39.4 0 0 1 -5.7-3.5zm8.9 9.5h.2a.3.3 0 0 0 0-.3l-.9-1.5h-.2a42.7 42.7 0 0 1 -8-4.2h-.3a.3.3 0 0 0 -.1.3v1.3a.5.5 0 0 0 .2.4 44.5 44.5 0 0 0 8.9 4.3zm-6.8-1.8h-.3a.3.3 0 0 0 -.1.3l.5 1.4.3.3a48.1 48.1 0 0 0 6.3 2.6h.4l1.4-.7a.3.3 0 0 0 0-.5 46.2 46.2 0 0 1 -8.6-3.3z" fill="#fff"/><path d="m107.6 66.9v3.9h-.9v-2.9l-.7.3a1.2 1.2 0 0 1 -.3-.8l1.2-.5z" fill="#fff"/><path d="m111.1 68.7c0 1.6-.9 2.2-2.4 2.2a1 1 0 0 1 -.1-.5 1.3 1.3 0 0 1 0-.3c.9 0 1.5-.1 1.6-.9a1 1 0 0 1 -.7.3 1.2 1.2 0 0 1 -1.3-1.3 1.4 1.4 0 0 1 1.4-1.4c1 0 1.5.8 1.5 1.9zm-1.5 0 .7-.2c0-.6-.3-1-.7-1a.5.5 0 0 0 -.6.6.5.5 0 0 0 .6.7z" fill="#fff"/><path d="m113.3 66.9v3.9h-.9v-2.9l-.7.3a1.2 1.2 0 0 1 -.3-.8l1.2-.5z" fill="#fff"/><path d="m116.9 69.5a1.3 1.3 0 0 1 -1.5 1.4 1.4 1.4 0 0 1 -1.5-1.6 2.6 2.6 0 0 1 2.3-2.6 1.3 1.3 0 0 1 .2.8 1.8 1.8 0 0 0 -1.6 1l.7-.2a1.1 1.1 0 0 1 1.4 1.2zm-.8 0a.5.5 0 0 0 -.6-.5l-.7.2c0 .5.3.8.6.8a.5.5 0 0 0 .7-.4z" fill="#fff"/></svg>