<svg enable-background="new 0 0 690 690" viewBox="0 0 690 690" xmlns="http://www.w3.org/2000/svg"><g clip-rule="evenodd" fill-rule="evenodd"><path d="m635.4 7.6v384.4c0 160.4-130 290.4-290.4 290.4s-290.4-130-290.4-290.4v-384.4z" fill="#231f20"/><g fill="#fff"><path d="m556.2 160.7v231.3c0 116.5-94.8 211.2-211.2 211.2-116.5 0-211.2-94.8-211.2-211.2 0 0 0-136.7 0-231.3h-39.6v231.3c0 138.3 112.5 250.8 250.8 250.8s250.8-112.5 250.8-250.8c0 0 0-128.4 0-231.3z"/><path d="m178.2 51.7-22.9 62.8h-18.1l-22.9-62.8h17l15.2 44.1 15.1-44.1z"/><path d="m202.7 114.5h-15.8v-16.6h15.8z"/><path d="m308.5 114.5h-19.8l-17.1-23h-7.4v23h-16.2v-62.8h27.1c3.7 0 6.9.2 9.6.6s5.2 1.3 7.5 2.7c2.4 1.4 4.2 3.2 5.6 5.5 1.4 2.2 2.1 5 2.1 8.4 0 4.6-1.1 8.4-3.2 11.4-2.1 2.9-5.2 5.4-9.2 7.3zm-25.4-43.7c0-1.6-.3-2.9-1-4-.6-1.1-1.7-2-3.3-2.6-1.1-.4-2.3-.7-3.8-.8-1.4-.1-3.1-.1-5-.1h-5.8v16.7h4.9c2.6 0 4.7-.1 6.4-.4s3.2-.8 4.3-1.7 1.9-1.8 2.4-2.9c.6-1 .9-2.4.9-4.2z"/><path d="m331.1 114.5h-15.8v-16.6h15.8z"/><path d="m421.4 63.8h-28.8v11.7h26.7v12.1h-26.7v26.9h-16.2v-62.8h45z"/><path d="m448 114.5h-15.8v-16.6h15.8z"/><path d="m521.7 115.8c-4.7 0-9-.7-12.9-2.1-4-1.4-7.3-3.4-10.2-6.2-2.8-2.7-5-6.1-6.6-10.2s-2.3-8.8-2.3-14.2c0-5 .7-9.5 2.2-13.6s3.7-7.5 6.5-10.4c2.7-2.8 6.1-4.9 10.1-6.5 4-1.5 8.4-2.3 13.2-2.3 2.6 0 5 .1 7.1.4s4.1.7 5.9 1.2c1.9.5 3.6 1.1 5.1 1.8s2.9 1.3 4 1.8v15.2h-1.9c-.8-.7-1.8-1.5-3-2.4s-2.6-1.8-4.1-2.7-3.2-1.6-5-2.3c-1.8-.6-3.7-.9-5.8-.9-2.3 0-4.4.4-6.5 1.1s-3.9 1.9-5.7 3.6c-1.7 1.6-3 3.7-4 6.4s-1.5 5.9-1.5 9.7c0 4 .6 7.3 1.7 9.9 1.1 2.7 2.5 4.7 4.2 6.3s3.6 2.7 5.7 3.3c2.1.7 4.2 1 6.2 1s3.9-.3 5.8-.9 3.7-1.4 5.3-2.4c1.4-.8 2.7-1.7 3.8-2.6 1.2-.9 2.1-1.7 2.9-2.4h1.7v15c-1.6.7-3.1 1.4-4.5 2s-2.9 1.2-4.5 1.6c-2.1.6-4 1-5.8 1.4-1.5.3-3.9.4-7.1.4z"/><path d="m571.3 114.5h-15.8v-16.6h15.8z"/></g><path d="m530.2 455.1-24.2-29.9s2.1 12.2 2.6 15c-3.5-1.4-67.5-26.3-67.5-26.3s-7.4 13.4-8.3 15c-.8-.4-33.8-14.4-70.5-30.1 31-13.3 56.5-24.3 57.1-24.6.7 2 7.5 21.7 7.5 21.7l62.6-20.1-4.2-11.8s-47.6 15.2-49.6 15.8c-.7-1.9-8.3-23.6-8.3-23.6-.6.3-32.2 13.8-68.1 29 16.7-33.4 30.8-61.7 31.3-62.6 1.9 1.3 16.5 11.7 16.5 11.7l33.1-58.2-10.8-6.4-.6 1s-24.1 43.3-25.2 45.4c-1.8-1.3-18.2-12.6-18.2-12.6s-19.7 39.2-40.3 80.1c-20.6-40.9-40.3-80.1-40.3-80.1s-16.4 11.3-18.2 12.6c-1.1-2.1-25.2-45.4-25.2-45.4l-.6-1-10.8 6.4 33.1 58.2s14.6-10.4 16.5-11.7c.5.9 14.6 29.3 31.3 62.6-35.9-15.3-67.5-28.8-68.1-29 0 0-7.7 21.7-8.3 23.6-2-.6-49.6-15.8-49.6-15.8l-4.2 11.8 62.6 20.1s6.8-19.7 7.5-21.7c.7.3 26.2 11.3 57.1 24.6-36.7 15.6-69.7 29.7-70.5 30.1-.9-1.6-8.3-15-8.3-15s-64 24.9-67.5 26.3c.5-2.8 2.6-15 2.6-15l-24.2 29.9 35.9.8s-6.7-4.9-8.8-6.4c3.7-1.3 52.4-18.7 54-19.3.8 1.5 9.2 16.7 9.2 16.7s39.5-17 80.4-34.5c-16.8 33.4-31.1 61.8-31.4 62.4-1.8-.7-31.7-12.2-31.7-12.2s-28.3 52.9-30.1 56.4c-1.3-2.5-6.2-11.8-6.2-11.8l-1 38.5 29-21.3s-8.6.2-11.1.3c1.8-3.2 24.7-43 25.6-44.6 1.7.7 31.8 13 31.8 13 .7-1.3 19.7-39.4 39.6-79.2 19.9 39.8 38.9 77.9 39.6 79.2 0 0 30.1-12.3 31.8-13 .9 1.6 23.8 41.4 25.6 44.6-2.5-.1-11.1-.3-11.1-.3l29 21.3-1-38.5s-4.9 9.3-6.2 11.8c-1.9-3.5-30.1-56.4-30.1-56.4s-29.9 11.5-31.7 12.2c-.3-.6-14.6-28.9-31.4-62.4 40.8 17.5 80.4 34.5 80.4 34.5s8.3-15.2 9.2-16.7c1.7.6 50.4 17.9 54 19.3-2.1 1.5-8.8 6.4-8.8 6.4z" fill="#fbdc2b"/></g></svg>