<svg fill-rule="evenodd" height="594.62152" viewBox="0 0 284.85639 167.81541" width="1009.3336" xmlns="http://www.w3.org/2000/svg"><g transform="translate(.0863 .087521)"><path d="m.0019.000677h284.67999v167.63901h-284.67999z" fill="#fff" stroke="#7f7f7f" stroke-width=".1764"/><path d="m.0019.000612h284.67999v12.8953h-284.67999z" fill="#00438a"/><path d="m.0019 25.791201h284.67999v12.8953h-284.67999z" fill="#00438a"/><path d="m.0019 51.581799h284.67999v12.8953h-284.67999z" fill="#00438a"/><path d="m.001964 77.372398h284.67999v12.8953h-284.67999z" fill="#00438a"/><path d="m.0019 103.163h284.67999v12.8953h-284.67999z" fill="#00438a"/><path d="m.0019 128.95399h284.67999v12.8953h-284.67999z" fill="#00438a"/><path d="m.0019 154.744h284.67999v12.8953h-284.67999z" fill="#00438a"/><g fill="#ffba00"><path d="m98.4479 84.8901 11.6571 1.881 1.229-9.6721-11.7561-1.0958z"/><circle cx="141.875" cy="84.262497" r="32.2803"/><path d="m137.427 41.2028-.395 11.8007h9.75l-.396-11.8007z"/><path d="m159.011 44.3198-5.754 10.3102 8.668 4.4638 5.051-10.6725z"/><path d="m175.766 57.1884-10.042 6.2104 5.403 8.1158 9.604-6.8693z"/><path d="m184.286 75.8666-11.74 1.2647 1.369 9.6534 11.628-2.0484z"/><path d="m183.753 96.1648-11.011-4.2614-3.212 9.2056 11.272 3.514z"/><path d="m173.54 114.187-7.603-9.034-7.245 6.525 8.191 8.504z"/><path d="m155.924 125.463-2.28-11.585-9.498 2.203 3.052 11.406z"/><path d="m136.767 127.515 2.891-11.448-9.528-2.069-2.117 11.616z"/><path d="m117.146 120.34 8.182-8.513-7.252-6.517-7.593 9.042z"/><path d="m103.397 105.099 11.157-3.865-3.499-9.1005-10.873 4.6036z"/><path d="m103.043 64.8768 9.762 6.642 5.212-8.2403-10.185-5.9731z"/><path d="m117.189 48.0878 5.273 10.5646 8.573-4.6441-5.969-10.1876z"/></g><circle cx="141.875" cy="84.262497" fill="#00438a" r="27.891199"/><path d="m146.492 63.8201-2.653 1.9423 1.016 3.1712-2.686-1.9483-2.712 1.986 1.03-3.2067-2.681-1.9445h3.305l1.071-3.1944 1.035 3.1944z" fill="#fff"/><path d="m134.75 94.741-2.652 1.9423 1.016 3.1712-2.686-1.9483-2.712 1.986 1.029-3.2067-2.68-1.9445h3.304l1.071-3.1945 1.036 3.1945z" fill="#fff"/><path d="m158.021 94.741-2.653 1.9423 1.016 3.1712-2.686-1.9483-2.712 1.986 1.029-3.2067-2.68-1.9445h3.305l1.071-3.1945 1.035 3.1945z" fill="#fff"/><path d="m113.984 84.2625c2.1962-.423 2.3778-2.3777 5.4684-3.4108 2.8578-.0905 3.776.6283 5.8241-.1178 2.7863-1.1155 1.7822-2.5012 5.2652-3.2202 2.856.2114 2.6137.966 5.1563 1.3918 3.8995-.9257 3.4203-2.6187 6.625-2.5277 4.6793.5349 2.8334 1.6684 6.7187 2.5541 2.9746-.3204 2.1341-1.1084 5.0506-1.2792 3.2577-.0869 2.4215 3.0166 6.7575 3.4952 4.2736-1.6444 7.1922.5531 8.9143 2.7525.0303 2.053-.1495 4.3626-.6461 6.3673-3.0375-3.9995-5.2477-3.3873-7.9433-2.8678-4.6865-.75-3.2116-2.8255-7.4626-3.2003-2.5835.0126-1.565.6924-4.7857.9115-5.0667-1.2339-2.4534-1.7232-6.4574-2.4456-3.6274.307-3.4989 2.0982-6.7647 2.4729-3.1834-.4832-2.3745-1.0249-5.0181-1.0223-3.2346.3387-3.3564 2.5259-6.0455 3.0974-2.9405.0811-2.819-.3523-5.3032-.1691-2.6423 1.1748-2.027 1.9369-4.7095 3.2028-.5861-2.4168-.6911-4.2086-.644-5.9847z" fill="#fff"/></g></svg>