<svg clip-rule="evenodd" fill-rule="evenodd" height="209.3mm" image-rendering="optimizeQuality" shape-rendering="geometricPrecision" text-rendering="geometricPrecision" viewBox="0 0 280 209.3" width="280mm" xmlns="http://www.w3.org/2000/svg"><path d="m0 0h280v209.3h-280z" fill="#fff" stroke="#7f7f7f" stroke-width=".1764"/><path d="m0 0h280v101.868h-280z" fill="#21307f"/><g fill="#fff"><path d="m22.218 31.0303c9.0518 6.3746 26.002 11.7326 31.6175 21.1634 10.3206 11.3498 19.1237 6.5021 33.6574 15.0438 3.8616 3.0706 7.6361 6.4499 9.8544 9.807 1.772-1.582 1.7662-1.6135 3.1588-3.0376-4.857-5.5612-15.0321-10.9755-16.5211-14.6598-.7649-2.9323 4.7831-2.3091 7.7151-5.6235-1.9603-2.1194-3.9648-2.2276-12.4583-2.1301-.1402-5.6926-.3464-5.8461 5.1914-12.0213 4.9721-5.6096 4.4621-6.3745 4.7171-11.0917-4.3347-.2569-4.5533 1.1166-7.932 1.459-3.0309.9937-6.4207 3.9276-6.7294 4.9155-3.9521.8925-7.47 2.0371-18.1036 10.0718-8.1779-1.7388-11.7968-6.7149-21.8777-11.7215-5.2761 1.8525-8.3514-3.8323-12.2896-2.175z"/><path d="m103.498 31.0303c9.0518 6.3746 26.002 11.7326 31.6175 21.1634 10.3206 11.3498 19.1237 6.5021 33.6574 15.0438 3.8616 3.0706 7.6361 6.4499 9.8544 9.807 1.772-1.582 1.7662-1.6135 3.1588-3.0376-4.857-5.5612-15.0321-10.9755-16.5211-14.6598-.7649-2.9323 4.7831-2.3091 7.7151-5.6235-1.9603-2.1194-3.9648-2.2276-12.4583-2.1301-.1402-5.6926-.3464-5.8461 5.1914-12.0213 4.9721-5.6096 4.4621-6.3745 4.7171-11.0917-4.3347-.2569-4.5533 1.1166-7.932 1.459-3.0309.9937-6.4207 3.9276-6.7294 4.9155-3.9521.8925-7.47 2.0371-18.1036 10.0718-8.1779-1.7388-11.7968-6.7149-21.8777-11.7215-5.2761 1.8525-8.3514-3.8323-12.2896-2.175z"/><path d="m184.778 31.0303c9.0518 6.3746 26.002 11.7326 31.6175 21.1634 10.3206 11.3498 19.1237 6.5021 33.6574 15.0438 3.8616 3.0706 7.6361 6.4499 9.8544 9.807 1.772-1.582 1.7662-1.6135 3.1588-3.0376-4.857-5.5612-15.0321-10.9755-16.5211-14.6598-.7649-2.9323 4.7831-2.3091 7.7151-5.6235-1.9603-2.1194-3.9648-2.2276-12.4583-2.1301-.1402-5.6926-.3464-5.8461 5.1914-12.0213 4.9721-5.6096 4.4621-6.3745 4.7171-11.0917-4.3347-.2569-4.5533 1.1166-7.932 1.459-3.0309.9937-6.4207 3.9276-6.7294 4.9155-3.9521.8925-7.47 2.0371-18.1036 10.0718-8.1779-1.7388-11.7968-6.7149-21.8777-11.7215-5.2761 1.8525-8.3514-3.8323-12.2896-2.175z"/></g><path d="m0 134.244h280v75.0565h-280z" fill="#d9261c"/></svg>