<svg clip-rule="evenodd" fill-rule="evenodd" height="800" image-rendering="optimizeQuality" shape-rendering="geometricPrecision" text-rendering="geometricPrecision" viewBox="0 0 20000000 13300000" width="1200" xml:space="preserve" xmlns="http://www.w3.org/2000/svg" xmlns:xlink="http://www.w3.org/1999/xlink"><defs><path id="a" d="m582.84375 636.29096c-12.93293.00171-23.88304 2.85468-25.75 7.375-.79542 1.92588-.34516 7.96369.96875 13.375 1.31381 5.41131 1.81216 10.36364 1.09375 11.03125-.71854.66765-11.47864-.18637-23.9375-1.84375-33.16227-4.41157-50.6814-5.67632-69.90625-4.25v.6875c-10.60639.71978-22.84862 2.10755-38.71875 4.21875-12.45888 1.65738-23.21896 2.5114-23.9375 1.84375-.71842-.66761-.22006-5.61994 1.09375-11.03125 1.3139-5.41131 1.76417-11.44912.96875-13.375-1.86697-4.52032-12.81707-7.37329-25.75-7.375-4.31079-.00058-8.8503.29646-13.34375.96875-21.90335 3.27699-27.99997 7.08147-28 17.53125.00019 9.98024-1.85914 10.25092-33.40625 4.3125-14.58034-2.74465-31.85507-3.76972-53.21875-3.1875-35.19945.95922-43.65448 4.09013-29.53125 10.875 8.10528 3.89373 8.27681 4.2494 4.46875 11.03125-2.17716 3.8775-4.02188 9.03851-4.03125 11.375-.01538 3.87281 1.28036 3.88669 14.46875.625 18.8388-4.65907 32.13747-4.44426 53.5625.78125.00926-.00312.02199.0031.03125 0 1.05872.25824 1.89878.37275 3 .65625 20.80567 5.35622 44.20588 6.57237 51 2.9375l-.25-14.75c.08511-.00872.16475-.0226.25-.03125 6.25469-.63456 12.89097-1.13572 19.90625-1.40625.21618-.00834.43897.00766.65625 0-7.01528.27055-13.65156.77172-19.90625 1.40625l27.21875-1.59375.125 20.09375c3.59476 1.75755 8.41028 3.2175 14.53125 4.46875 10.66894 2.18098 22.28672 1.65459 46.84375-2.09375 21.58605-3.29484 41.39635-4.36894 63.15625-3.1875v-.78125c10.51808.52419 21.0232 1.6418 31.96875 3.3125 24.55703 3.74834 36.1748 4.27473 46.84375 2.09375 6.12097-1.25125 10.93648-2.7112 14.53125-4.46875l.125-20.09375c2.69502.03802 5.37316.08738 7.96875.1875 7.01528.27053 13.65155.77169 19.90625 1.40625.08525.00865.16488.02253.25.03125l-.25 14.75c6.79412 3.63487 30.19432 2.41872 51-2.9375 1.10122-.2835 1.94127-.39801 3-.65625.00926.0031.02198-.00312.03125 0 21.42503-5.22551 34.72369-5.44032 53.5625-.78125 13.18839 3.26169 14.48412 3.24781 14.46875-.625-.00937-2.33649-1.8541-7.4975-4.03125-11.375-3.80806-6.78185-3.63654-7.13752 4.46875-11.03125 14.12323-6.78487 5.66819-9.91578-29.53125-10.875-21.36368-.58222-38.63842.44285-53.21875 3.1875-31.54711 5.93842-33.40645 5.66774-33.40625-4.3125-.00003-10.44978-6.09666-14.25426-28-17.53125-4.49345-.67229-9.03297-.96933-13.34375-.96875zm7.125 41.53125 27.21875 1.59375c-6.25469-.63453-12.89098-1.1357-19.90625-1.40625-2.39448-.09234-4.83357-.14793-7.3125-.1875z" fill="#00a3e4" fill-rule="evenodd" stroke="#000" stroke-width=".885825"/></defs><g fill-rule="evenodd"><path d="m-.436449-16666.961h20000000v13333334h-20000000z" fill="#fff"/><path d="m-.5083511 1266666.5v1333333.4h20000000.5083511v-1333333.4zm0 9433333.5v1333333h20000000.5083511v-1333333z" fill="#f00"/><g><g transform="matrix(16667.26 0 0 16667.26 10312772.0573834 3719998.8386362805)"><g fill-rule="evenodd"><path d="m-18.79688-24.15294c-49.98454 0-96.30736 15.75412-134.28125 42.5625 133.54038 186.43286 101.88788 142.22744 134.34375 187.53126 52.374967-73.11956.82905-1.15902 134.2812-187.46876-37.985803-26.83763-84.328033-42.625-134.3437-42.625z" fill="#f00" stroke="#000" stroke-width=".885825"/><path d="m-80.24595-34.80936c2.99199-.74543 6.00599-1.4233 9.03125-2.0625l-1.875-6.5-8.875 2.53125z" fill="#ff0" stroke="#000" stroke-width=".885825"/><path d="m-100.49595-28.80936c2.15395-.7273 4.29324-1.51589 6.46875-2.1875 1.84022-.5681 3.70751-1.03479 5.5625-1.5625l-1.71875-5.9375-12.09375 3.46875z" fill="#ff0" stroke="#000" stroke-width=".885825"/><path d="m-117.0272-22.65311c3.6465-1.51175 7.31252-2.96428 11.03125-4.3125l-2.625.75-1.84375-6.4375-8.71875 2.5z" fill="#ff0" stroke="#000" stroke-width=".885825"/><path d="m-149.8397-6.30936c2.65797-1.56256 5.34957-3.0921 8.0625-4.5625l-3.9375-6.09375-7.78125 5z" fill="#ff0" stroke="#000" stroke-width=".885825"/><path d="m-160.65628-7.33404-7.28125 4.6875c.05481.077272 3.68566 5.196173 3.8125 5.375.7418-.514194 1.46409-1.031744 2.21875-1.53125 1.5685-1.038181 3.19061-1.99485 4.78125-3z" fill="#ff0" stroke="#000" stroke-width=".885825"/><path d="m122.31247-7.20904-3.3125 5.15625c2.60241 1.661849 5.212 3.34373 7.75 5.09375.01198.00826.01928.022975.03125.03125.15392-.215611 3.54402-4.980312 3.625-5.09375z" fill="#ff0" stroke="#000" stroke-width=".885825"/><path d="m103.6915-11.12186c.5476.29908 1.1111.57211 1.6563.875 2.1532 1.19628 4.2602 2.46384 6.375 3.71875l3.4375-5.3125-7.7812-5z" fill="#ff0" stroke="#000" stroke-width=".885825"/><path d="m70.3791-26.37186c.154.05747.3148.0985.4687.15625 2.6881 1.00892 5.3247 2.12351 7.9687 3.21875l2.0313-7.0625-8.7187-2.5z" fill="#ff0" stroke="#000" stroke-width=".885825"/><path d="m50.2541-32.87186c2.8427.79903 5.6987 1.57517 8.5 2.46875 1.1997.38273 2.3705.81894 3.5624 1.21875l1.625-5.71875-12.0937-3.46875z" fill="#ff0" stroke="#000" stroke-width=".885825"/><path d="m33.0041-37.12186c.2469.05107.5033.07322.75.125 2.7762.58289 5.5084 1.29665 8.25 1.96875l1.625-5.6875-8.875-2.5625z" fill="#ff0" stroke="#000" stroke-width=".885825"/><path d="m-101.4375-19.92779c-.00357-.009695-2.78122-7.53117-2.78125-7.53125l-1.75.5h-.03125c-3.71874 1.348219-7.38475 2.80075-11.03125 4.3125l2.3125 8.09375c2.45961-1.087949 4.90596-2.18097 7.40625-3.1875 1.93364-.778421 3.91438-1.46093 5.875-2.1875z" fill="#ff0" stroke="#000" stroke-width=".885825"/><path d="m-81.625-26.33404c2.70825-.744567 5.40989-1.50554 8.15625-2.15625 1.44643-.342712 2.91912-.62162 4.375-.9375l-2.125-7.4375c-3.02525.639198-6.03926 1.31707-9.03125 2.0625l.125.4375-8.1875 2.34375-.15625-.53125c-1.85498.527708-3.72228.9944-5.5625 1.5625-2.1755.671608-4.3148 1.4602-6.46875 2.1875l.0625.25-3.78125 1.09375c.00003.000079 2.77768 7.521555 2.78125 7.53125 1.73184-.641789 3.44109-1.333106 5.1875-1.9375 3.72351-1.288632 7.48111-2.48802 11.28125-3.59375 1.10442-.321353 2.23421-.569958 3.34375-.875z" fill="#ff0" stroke="#000" stroke-width=".885825"/><path d="m-148.3125 3.54096c3.10179-2.005461 6.24281-3.946759 9.4375-5.8125.63508-.370891 1.29888-.69726 1.9375-1.0625l-4.84375-7.53125c-2.71292 1.4704-5.40453 2.99994-8.0625 4.5625l-.125.09375-7.0625 4.53125-.09375-.125c-1.59063 1.005149-3.21276 1.96182-4.78125 3-.65511.433617-1.29256.867356-1.9375 1.3125.18593.262129 5.14479 7.254849 5.5625 7.84375 3.10648-2.232732 6.25759-4.412657 9.46875-6.5.16475-.1070919.335-.2058182.5-.3125z" fill="#ff0" stroke="#000" stroke-width=".885825"/><path d="m109.5625 3.38471c.00748.004806.02377-.0048068.03125 0 3.26909 2.100499 6.49265 4.28075 9.65625 6.53125.52893.376276 1.03721.775922 1.5625 1.15625.50437-.706507 5.56991-7.785186 5.8125-8.125-2.49763-1.718332-5.06649-3.366114-7.625-5l-.3125.5-7.1875-4.625.21875-.34375c-2.11481-1.25491-4.2218-2.52247-6.375-3.71875-.54521-.30289-1.10855-.57592-1.65625-.875l-5.09375 7.875c.339491.193839.69275.36706 1.03125.5625 3.3614 1.940797 6.6756 3.967189 9.9375 6.0625z" fill="#ff0" stroke="#000" stroke-width=".885825"/><path d="m45.5-33.17779c0-.000001-1.90454 6.993771-1.90625 7 .7244.201992 1.46426.354212 2.1875.5625 3.7863 1.090428 7.5361 2.25937 11.25 3.53125 2.29391.785582 4.546441 1.674417 6.8125 2.53125 1.402749.530402 2.828545 1.008834 4.21875 1.5625 2.802202 1.115982 5.5595 2.31337 8.3125 3.53125l2.4375-8.53125c-2.643998-1.095242-5.28065-2.20983-7.96875-3.21875-.153901-.057752-.31485-.09878-.46875-.15625l-.09375.28125-8.1875-2.34375.21875-.75c-1.191898-.399812-2.3629-.83602-3.5625-1.21875-2.8013-.893582-5.6574-1.66972-8.5-2.46875l-.28125.96875z" fill="#ff0" stroke="#000" stroke-width=".885825"/><path d="m43.59375-26.17779c.00171-.006229 1.90625-7 1.90625-7l-3.71875-1.0625.21875-.78125c-2.7416-.672101-5.4739-1.38586-8.25-1.96875-.2467-.051781-.5032-.07393-.75-.125l-2.21875 7.75c1.18391.258519 2.3845.47371 3.5625.75 3.11718.731111 6.18204 1.582021 9.25 2.4375z" fill="#ff0" stroke="#000" stroke-width=".885825"/><path d="m-69.09378-29.42779c-1.45587.315881-2.92858.59479-4.375.9375-3.87151.917301-7.69986 1.92552-11.5 3.03125-3.80013 1.105731-7.55773 2.30512-11.28125 3.59375-3.72351 1.288629-7.42084 2.65899-11.0625 4.125-2.50028 1.006529-4.94663 2.09955-7.40625 3.1875l.3125 1.0625.53125-.15625 6.40625 6.96875c-9.80929 4.027379-19.286 8.69629-28.375 13.96875l-1.03125-9.3125.5625-.375-.625-.9375c-.63861.365239-1.30243.69161-1.9375 1.0625-3.36462 1.964989-6.6757 4.00474-9.9375 6.125-3.21116 2.087342-6.36228 4.267269-9.46875 6.5.45085.635622 5.16705 7.294423 6 8.46875 1.75502-1.25677 3.52525-2.506524 5.3125-3.71875 3.0802-2.089181 6.19354-4.11991 9.375-6.0625 3.18147-1.942591 6.44094-3.80314 9.71875-5.59375 3.27782-1.790611 6.59949-3.49175 9.96875-5.125 3.36927-1.633251 6.76296-3.18574 10.21875-4.65625 3.4558-1.470511 6.96258-2.85387 10.5-4.15625 3.53743-1.302381 7.10462-2.52738 10.71875-3.65625 3.61414-1.128871 7.28281-2.17503 10.96875-3.125 1.66234-.428431 3.35504-.765 5.03125-1.15625l1.53125-8.09375.625-.1875z" fill="#ff0" stroke="#000" stroke-width=".885825"/><path d="m30.78122-29.36529-.8125 2.78125.625.1875 1.5 8c-.52591-.118101-1.06665-.1979-1.59375-.3125 2.71661.618919 5.4415 1.25256 8.125 1.96875 3.64201.972029 7.2363 2.0093 10.8125 3.15625 3.5763 1.146949 7.12 2.4018 10.625 3.71875 3.5051 1.316949 6.97785 2.70546 10.40625 4.1875 3.42839 1.482039 6.80975 3.04527 10.15625 4.6875 3.34641 1.642229 6.64725 3.35875 9.90625 5.15625 3.25899 1.797499 6.49005 3.67714 9.65625 5.625 3.1663 1.947859 6.27565 3.96918 9.34375 6.0625 1.76742 1.205891 3.51313 2.432373 5.25 3.6875.91316-1.279131 5.50634-7.733468 6.03125-8.46875-.52528-.380328-1.03359-.779974-1.5625-1.15625-3.16359-2.250501-6.38715-4.43075-9.65625-6.53125-3.26911-2.100501-6.59975-4.11725-9.96875-6.0625-.33849-.195441-.69175-.36866-1.03125-.5625l-.625.96875.5625.375-1 9.125c-9.06371-5.251981-18.50355-9.92406-28.28125-13.9375l6.28125-6.8125.53125.15625.3125-1.09375c-2.75299-1.217881-5.5102-2.41527-8.3125-3.53125-3.636-1.448081-7.31735-2.82187-11.03125-4.09375-3.71391-1.271881-7.4637-2.44082-11.25-3.53125-3.78631-1.090429-7.5843-2.09626-11.4375-3-1.17801-.276289-2.3786-.49148-3.5625-.75z" fill="#ff0" stroke="#000" stroke-width=".885825"/><path d="m-130.60594 33.57765c.80092-.525013 1.5355-1.142084 2.34375-1.65625 5.5964-3.560155 11.38652-6.855274 17.3125-9.875s12.00108-5.775069 18.21875-8.21875c1.02201-.401672 2.09571-.676952 3.125-1.0625-.62094-2.851309.28567-5.718538 2.28125-7.6875-2.35024.816015-4.71736 1.603542-7.03125 2.5-3.23032 1.251505-6.40705 2.595848-9.5625 4-3.15545 1.404153-6.26786 2.885516-9.34375 4.4375-3.07589 1.551985-6.13336 3.179999-9.125 4.875-5.0563 2.864801-9.92113 6.02641-14.71875 9.28125 2.51491.100131 4.9557 1.213694 6.5 3.40625z" fill="#ff0" stroke="#000" stroke-width=".885825"/><path d="m51.70656 12.8589c4.86941 1.833225 9.74533 3.687122 14.4375 5.875 6.05478 2.823239 11.95945 5.932342 17.6875 9.3125 3.02618 1.785768 5.85386 3.848121 8.78125 5.78125 1.48384-2.199883 3.85345-3.34473 6.3125-3.53125-.72806-.494204-1.3908-1.077052-2.125-1.5625-5.72067-3.782498-11.61626-7.301442-17.6875-10.53125-3.03562-1.614903-6.13396-3.155301-9.25-4.625-3.11604-1.469698-6.2771-2.867695-9.46875-4.1875s-6.39381-2.553528-9.65625-3.71875c-.42058-.150216-.85954-.258647-1.28125-.40625 1.94421 1.958672 2.84841 4.781298 2.25 7.59375z" fill="#ff0" stroke="#000" stroke-width=".885825"/><path d="m-10.76219.01515c2.81432.1156812 5.62064.2369576 8.40625.46875 3.45893.28782 6.90186.6624285 10.3125 1.125s6.79836 1.0236633 10.15625 1.65625 6.6993 1.358384 10 2.15625c2.7004.652757 5.3406 1.395748 8 2.15625 1.19753-2.524636 3.5312-4.2460093 6.1875-4.6875-.49078-.1522791-.97657-.3199973-1.46875-.46875-3.32841-1.0059496-6.67293-1.9392612-10.0625-2.78125s-6.80409-1.6079109-10.25-2.28125-6.94006-1.2499995-10.4375-1.75c-3.49744-.5000006-7.01834-.9280269-10.5625-1.25s-7.10145-.5482432-10.6875-.6875c-1.63758-.0635921-3.29191-.0377223-4.9375-.0625 2.79817.9934216 4.82837 3.4237118 5.34375 6.40625z" fill="#ff0" stroke="#000" stroke-width=".885825"/><path d="m-126.94969 38.70265c2.70968-1.769016 5.32935-3.672765 8.125-5.3125 5.57885-3.272164 11.32361-6.270244 17.21875-9 4.46908-2.069419 9.08544-3.823376 13.71875-5.5625l-1.6875-5.09375.15625-.0625c-.01156-.033894-.05121-.05963-.0625-.09375-.08825-.268433-.06629-.542909-.125-.8125-1.02929.385549-2.10299.660828-3.125 1.0625-6.21767 2.443682-12.29277 5.199024-18.21875 8.21875-5.92598 3.019727-11.7161 6.314845-17.3125 9.875-.80825.514165-1.54283 1.131237-2.34375 1.65625.03078.043702.06369.080433.09375.125.02.029655.04291.064.0625.09375l.125-.09375z" fill="#ff0" stroke="#000" stroke-width=".885825"/><path d="m49.95656 19.01515c.96596.365354 1.97819.620027 2.9375 1 6.03993 2.392369 11.9327 5.079472 17.6875 8.03125s11.37959 6.179795 16.8125 9.65625c.56139.359224 1.06727.791628 1.625 1.15625l3.40625-5.03125.125.09375c.0196-.029752.04252-.06409.0625-.09375-2.92739-1.93313-5.75507-3.995482-8.78125-5.78125-5.72805-3.380159-11.63272-6.489261-17.6875-9.3125-4.69217-2.187877-9.56809-4.041775-14.4375-5.875-.06017.282795-.06361.561971-.15625.84375-.01128.034121-.01966.059857-.03125.09375l.125.03125z" fill="#ff0" stroke="#000" stroke-width=".885825"/><path d="m-10.41844 6.45265c1.95078.08901 3.90571.134406 5.84375.28125 3.33741.252873 6.64151.610304 9.9375 1.03125s6.59378.915324 9.84375 1.5c6.30984 1.135153 12.51408 2.615491 18.625 4.34375l1.6875-5.09375.125.0625c.01072-.033971.02003-.059793.03125-.09375.1082-.329093.29282-.601244.4375-.90625-2.6594-.760502-5.2996-1.503493-8-2.15625-3.3007-.797866-6.64211-1.5236633-10-2.15625s-6.74561-1.1936785-10.15625-1.65625-6.85357-.83718-10.3125-1.125c-2.78561-.2317924-5.59193-.3530688-8.40625-.46875.07877.4558635.21875.8948504.21875 1.375.00001.035928.00043.089179 0 .125h.125z" fill="#ff0" stroke="#000" stroke-width=".885825"/><path d="m-123.10594 44.4214c1.7299-1.128019 3.35832-2.394991 5.125-3.46875 5.33463-3.242295 10.85193-6.245146 16.5-8.96875 5.11114-2.464685 10.37664-4.644401 15.71875-6.65625l-2.125-6.5c-4.63331 1.739125-9.24967 3.493081-13.71875 5.5625-5.89514 2.729757-11.6399 5.727836-17.21875 9-2.79565 1.639734-5.41532 3.543484-8.125 5.3125z" fill="#ff0" stroke="#000" stroke-width=".885825"/><path d="m47.80031 25.5464c5.77445 2.192776 11.45341 4.654324 16.96875 7.375 5.59854 2.761719 11.04793 5.789552 16.34375 9.0625 1.36706.844878 2.62337 1.841188 3.96875 2.71875l3.9375-5.84375c-.55773-.364623-1.06361-.797026-1.625-1.15625-5.43291-3.476456-11.0577-6.704472-16.8125-9.65625-5.7548-2.951779-11.64757-5.638881-17.6875-8.03125-.95931-.379972-1.97154-.634646-2.9375-1z" fill="#ff0" stroke="#000" stroke-width=".885825"/><path d="m-10.41844 13.4214c.76913.036693 1.54533.016446 2.3125.0625 6.44946.387163 12.83428 1.094752 19.125 2.125s12.49776 2.390881 18.59375 4.03125c.69047.185798 1.34354.46286 2.03125.65625l2.1875-6.6875c-6.11092-1.728258-12.31516-3.208597-18.625-4.34375-3.24997-.584676-6.54776-1.079054-9.84375-1.5s-6.60009-.778377-9.9375-1.03125c-1.93804-.146844-3.89297-.19224-5.84375-.28125z" fill="#ff0" stroke="#000" stroke-width=".885825"/><path d="m-118.60594 51.1089c3.17733-2.074552 6.32097-4.212857 9.625-6.09375 5.18231-2.950147 10.50132-5.678684 15.96875-8.125 3.19625-1.430113 6.5276-2.563637 9.8125-3.8125l-2.5625-7.75c-5.34211 2.01185-10.60761 4.191565-15.71875 6.65625-5.64807 2.723603-11.16537 5.726455-16.5 8.96875-1.76668 1.073758-3.3951 2.340731-5.125 3.46875z" fill="#ff0" stroke="#000" stroke-width=".885825"/><path d="m45.26906 33.20265c1.39354.533648 2.8406.933391 4.21875 1.5 5.53983 2.277622 10.94847 4.835046 16.21875 7.625 5.14219 2.722149 10.14588 5.695644 15 8.875l4.375-6.5c-1.34538-.877563-2.60169-1.873872-3.96875-2.71875-5.29582-3.272949-10.74521-6.300781-16.34375-9.0625-5.51534-2.720677-11.1943-5.182224-16.96875-7.375z" fill="#ff0" stroke="#000" stroke-width=".885825"/><path d="m-10.41844 21.5464c2.35852.116169 4.75634.042453 7.09375.25 6.14765.545872 12.20899 1.406919 18.1875 2.5625 4.83711.934962 9.57468 2.216383 14.28125 3.53125l2.5-7.59375c-.68771-.193389-1.34078-.470452-2.03125-.65625-6.09599-1.640368-12.30303-3.001002-18.59375-4.03125-6.29072-1.030247-12.67554-1.737837-19.125-2.125-.76717-.046053-1.54337-.025807-2.3125-.0625z" fill="#ff0" stroke="#000" stroke-width=".885825"/><path d="m-114.07469 57.82765c3.70904-2.411555 7.41913-4.80304 11.3125-6.9375 5.03339-2.759454 10.21497-5.296746 15.53125-7.5625 2.14329-.913454 4.40772-1.576972 6.59375-2.40625l-2.5625-7.84375c-3.2849 1.248862-6.61625 2.382387-9.8125 3.8125-5.46743 2.446315-10.78644 5.174853-15.96875 8.125-3.30403 1.880892-6.44767 4.019198-9.625 6.09375z" fill="#ff0" stroke="#000" stroke-width=".885825"/><path d="m80.67531 61.26515c.90008.623032 1.73643 1.329676 2.625 1.96875.04568-.063773.048-.061138.09375-.125z" fill="#ff0" stroke="#000" stroke-width=".885825"/><path d="m42.61281 41.2964c2.21477.849343 4.48063 1.564462 6.65625 2.5 5.24992 2.257516 10.40867 4.760678 15.40625 7.5 4.41078 2.417679 8.65482 5.102853 12.84375 7.875l-1.5-1.03125 4.6875-6.9375c-4.85412-3.179357-9.85781-6.152851-15-8.875-5.27028-2.789955-10.67892-5.347378-16.21875-7.625-1.37815-.56661-2.82521-.966352-4.21875-1.5z" fill="#ff0" stroke="#000" stroke-width=".885825"/><path d="m-10.41844 29.9839c3.25157.174624 6.53593.206965 9.75.5625 5.80006.641593 11.53634 1.572599 17.1875 2.78125 3.37633.722119 6.6554 1.739818 9.96875 2.65625l2.65625-8.09375c-4.70657-1.314868-9.44414-2.596288-14.28125-3.53125-5.97851-1.15558-12.03985-2.016628-18.1875-2.5625-2.33741-.207546-4.73523-.133831-7.09375-.25z" fill="#ff0" stroke="#000" stroke-width=".885825"/><path d="m-181.03125 31.78125c-2.72871.03023-5.42131.137586-8.125.3125-5.40737.349827-10.75951.986461-16.03125 1.875-5.27174.888537-10.4877 2.038038-15.59375 3.4375-5.10605 1.39946-10.12095 3.054901-15.03125 4.9375-4.9103 1.882597-9.69051 4.005799-14.375 6.34375-4.68449 2.337949-9.25888 4.890734-13.6875 7.65625-3.08232 1.924792-6.02273 4.067001-8.96875 6.1875 1.01564 1.417733 1.03654 1.455264 2.03125 2.84375 44.8656 62.62636 69.63589 97.16956 91.8125 128.125 35.71971-49.86754 52.13752-72.7616 91.59375-127.84375.961522-1.342312 1.22839-1.742432 2.21875-3.125-3.802818-2.756681-7.68358-5.416845-11.71875-7.84375-4.48655-2.698386-9.1276-5.175341-13.875-7.4375-4.7474-2.262161-9.61328-4.297876-14.59375-6.09375-4.98047-1.795876-10.06425-3.356719-15.25-4.65625-5.18575-1.299533-10.48051-2.351872-15.84375-3.125-5.36324-.77313-10.79955-1.252084-16.3125-1.46875-2.75647-.108334-5.52129-.15523-8.25-.125z" fill="#ff0" stroke="#000" stroke-width=".885825" transform="translate(160 12.540961)"/><path d="m-181.28125 24.8125c-5.75369.07222-11.41813.468453-17.03125 1.125-5.61312.656545-11.15101 1.602192-16.59375 2.8125-5.44274 1.210306-10.78869 2.672746-16.03125 4.40625-5.24256 1.733502-10.39368 3.711364-15.40625 5.9375-5.01257 2.226134-9.90348 4.718047-14.65625 7.40625-4.75278 2.688201-9.34933 5.599044-13.8125 8.71875-.72426.506242-1.37758 1.107861-2.09375 1.625 1.02766 1.434535.96344 1.346686 1.96875 2.75 1.07225 1.496763 1.04537 1.474082 2.09375 2.9375 2.94601-2.1205 5.88644-4.262706 8.96875-6.1875 4.42861-2.765517 9.00301-5.318299 13.6875-7.65625 4.68449-2.337952 9.4647-4.461151 14.375-6.34375 4.9103-1.8826 9.9252-3.538038 15.03125-4.9375 5.10605-1.399463 10.32201-2.548961 15.59375-3.4375 5.27174-.88854 10.62388-1.525171 16.03125-1.875 5.40737-.34983 10.86205-.404166 16.375-.1875 5.51295.216665 10.94926.695622 16.3125 1.46875 5.36324.773127 10.658 1.825469 15.84375 3.125 5.18575 1.29953 10.26953 2.860376 15.25 4.65625 4.98047 1.795873 9.84635 3.831591 14.59375 6.09375 4.7474 2.262158 9.38845 4.739116 13.875 7.4375 4.035172 2.426904 7.91593 5.087071 11.71875 7.84375.844862-1.179451 1.03899-1.44553 1.90625-2.65625.927002-1.294122 1.07698-1.511557 2.03125-2.84375-1.915148-1.384584-3.7469-2.881628-5.71875-4.1875-4.540068-3.006697-9.24375-5.806941-14.0625-8.375-4.81875-2.568061-9.74563-4.900384-14.8125-7-5.06687-2.099618-10.24683-3.961134-15.53125-5.5625-5.28442-1.601368-10.68484-2.95794-16.15625-4.03125-5.47141-1.073312-11.02842-1.859553-16.65625-2.375-5.62783-.515449-11.34006-.759722-17.09375-.6875z" fill="#ff0" stroke="#000" stroke-width=".885825" transform="translate(160 12.540961)"/><path d="m-187.40625 17.375c-2.90685.131653-5.79498.093191-8.71875.375-5.99443.577774-11.89071 1.481335-17.6875 2.65625-3.60927.731537-7.10129 1.766562-10.625 2.71875l.1875.59375-16.15625 5.3125-.21875-.65625c-2.18603.829276-4.45046 1.492796-6.59375 2.40625-5.31628 2.265752-10.49786 4.803046-15.53125 7.5625-3.89338 2.134458-7.60346 4.525945-11.3125 6.9375l.125.1875-7.5 5.0625c1.35729 1.894709 1.15159 1.598843 2.46875 3.4375 1.10121 1.53721.98736 1.374206 2.0625 2.875.71616-.51714 1.3695-1.118756 2.09375-1.625 4.46316-3.119707 9.05973-6.030547 13.8125-8.71875 4.75276-2.688204 9.64368-5.180114 14.65625-7.40625 5.01257-2.226137 10.16369-4.203996 15.40625-5.9375 5.24256-1.733505 10.58851-3.195942 16.03125-4.40625 5.44274-1.210309 10.98063-2.155953 16.59375-2.8125 5.61312-.656548 11.27756-1.052778 17.03125-1.125 5.75369-.072223 11.46592.172053 17.09375.6875 5.62783.515446 11.18484 1.30169 16.65625 2.375 5.47141 1.073309 10.87183 2.429884 16.15625 4.03125 5.28442 1.601365 10.46438 3.462884 15.53125 5.5625 5.06687 2.099615 9.99375 4.431941 14.8125 7 4.818752 2.568058 9.52243 5.368305 14.0625 8.375 1.971852 1.305871 3.8036 2.802918 5.71875 4.1875 1.039592-1.451292 1.14453-1.594113 2.21875-3.09375 1.130602-1.578347 1.17201-1.61419 2.34375-3.25-.888568-.639076-1.72492-1.345718-2.625-1.96875l-3.15625-2.09375c-4.188928-2.772149-8.43297-5.457321-12.84375-7.875-4.99758-2.739324-10.15633-5.242484-15.40625-7.5-2.17562-.93554-4.44148-1.650657-6.65625-2.5l-.125.40625-16.125-5.3125.125-.40625c-3.31335-.916434-6.59242-1.934131-9.96875-2.65625-5.65116-1.208653-11.38744-2.139657-17.1875-2.78125-3.21407-.355537-6.49843-.387876-9.75-.5625v.84375h-17z" fill="#ff0" stroke="#000" stroke-width=".885825" transform="translate(160 12.540961)"/><path d="m-27.41844 21.4839c-4.41897.202462-8.84875.355312-13.1875.875-6.12803.734006-12.18471 1.786756-18.125 3.125-2.82136.635605-5.53889 1.546159-8.3125 2.3125l2.59375 7.875c3.52371-.952188 7.01573-1.987211 10.625-2.71875 5.79679-1.174915 11.69307-2.078474 17.6875-2.65625 2.92377-.281809 5.8119-.243345 8.71875-.375z" fill="#ff0" stroke="#000" stroke-width=".885825"/><path d="m-27.63719 13.32765c-3.2861.144444-6.56974.375139-9.8125.6875-3.24276.312362-6.46094.711721-9.65625 1.1875-6.39062.95156-12.66769 2.234264-18.84375 3.8125-1.23327.315153-2.40107.785721-3.625 1.125l2.53125 7.65625c2.77361-.766341 5.49114-1.676896 8.3125-2.3125 5.94029-1.338244 11.99697-2.390995 18.125-3.125 4.33875-.519688 8.76853-.672539 13.1875-.875v-8.15625c-.07323.003134-.14551-.003219-.21875 0z" fill="#ff0" stroke="#000" stroke-width=".885825"/><path d="m-27.41844 6.4214c-2.52856.105241-5.05762.204516-7.5625.40625-3.3643.270948-6.68221.621494-10 1.0625s-6.63931.95603-9.90625 1.5625-6.507 1.29516-9.71875 2.0625c-2.42161.578562-4.73694 1.426026-7.125 2.09375l2.15625 6.53125c1.22393-.339279 2.39173-.809848 3.625-1.125 6.17606-1.578236 12.45313-2.860941 18.84375-3.8125 3.19531-.475779 6.41349-.875139 9.65625-1.1875s6.5264-.543057 9.8125-.6875c.07324-.003219.14552.003133.21875 0z" fill="#ff0" stroke="#000" stroke-width=".885825"/><path d="m-27.04344.01515c-2.19348.0881183-4.38443.1532874-6.5625.3125-3.4327.2509232-6.85943.6073771-10.25 1.03125s-6.75006.9076295-10.09375 1.5-6.64542 1.2748339-9.9375 2.03125c-3.29208.756416-6.57676 1.61524-9.8125 2.53125-.10509.029749-.20747.063835-.3125.09375.13184.283848.30565.537772.40625.84375.01123.033955.05179.05977.0625.09375l.125-.03125 1.6875 5.1875c2.38806-.667724 4.70339-1.515189 7.125-2.09375 3.21175-.76734 6.45181-1.45603 9.71875-2.0625s6.58846-1.121494 9.90625-1.5625 6.6357-.791552 10-1.0625c2.50488-.201734 5.03394-.301009 7.5625-.40625v-4.90625h.15625c-.00039-.035642-.00001-.089262 0-.125 0-.4825926.13814-.9179579.21875-1.375z" fill="#ff0" stroke="#000" stroke-width=".885825"/><path d="m-21.98094-6.4536c-3.62314.0481484-7.23141.171748-10.8125.40625s-7.15315.5527097-10.6875.96875c-3.53435.4160404-7.01708.9384864-10.5 1.53125s-6.9482 1.2665784-10.375 2.03125-6.8215 1.6307355-10.1875 2.5625c-1.95829.5420883-3.87604 1.1838938-5.8125 1.78125 2.73412.3957533 5.1375 2.090505 6.34375 4.6875.10503-.029915.20741-.064001.3125-.09375 3.23574-.91601 6.52042-1.774834 9.8125-2.53125 3.29208-.7564161 6.59381-1.4388795 9.9375-2.03125s6.70318-1.0761271 10.09375-1.5 6.8173-.7803268 10.25-1.03125c2.17807-.1592126 4.36902-.2243817 6.5625-.3125.54283-3.0778296 2.73671-5.5476574 5.6875-6.46875-.20929.0021494-.4156-.0027828-.625 0z" fill="#ff0" stroke="#000" stroke-width=".885825"/><path d="m-19.84378-14.95904c-3.76759.012034-7.52418.137515-11.25.34375-3.72583.206233-7.41462.479524-11.09375.875-3.67914.395474-7.34124.888991-10.96875 1.46875-3.62751.579757-7.24153 1.272164-10.8125 2.03125-3.57097.759084-7.1155 1.597795-10.625 2.53125-3.5095.933453-6.96314 1.959633-10.40625 3.0625-3.44311 1.102865-6.87821 2.295178-10.25 3.5625-3.37179 1.26732-6.70446 2.604431-10 4.03125-3.29554 1.426817-6.53563 2.918641-9.75 4.5-3.21437 1.581357-6.40297 3.237808-9.53125 4.96875-3.12828 1.73094-6.21275 3.530682-9.25 5.40625-3.03725 1.875566-6.02744 3.828514-8.96875 5.84375-1.28023.877145-2.55489 1.784357-3.8125 2.6875.84738 1.194666 2.81018 3.954725 3.90625 5.5.16441-.130181.35414-.255538.53125-.375 1.53894-1.038033 3.3003-1.381418 5.03125-1.3125 4.79762-3.254843 9.66245-6.41645 14.71875-9.28125 2.99164-1.695002 6.04911-3.323016 9.125-4.875 3.07589-1.551985 6.1883-3.033348 9.34375-4.4375 3.15545-1.404153 6.33218-2.748495 9.5625-4 2.31389-.89646 4.68101-1.683985 7.03125-2.5.89198-.880082 1.91851-1.614022 3.1875-2.03125.82062-.269807 1.64662-.392218 2.46875-.40625.45129-.007705.87257.123821 1.3125.1875 1.93646-.597358 3.85421-1.239162 5.8125-1.78125 3.366-.931766 6.7607-1.797828 10.1875-2.5625 3.4268-.764673 6.89208-1.438486 10.375-2.03125 3.48292-.592765 6.96565-1.11521 10.5-1.53125 3.53434-.416042 7.10641-.734248 10.6875-.96875 3.58108-.234504 7.18936-.358102 10.8125-.40625.20939-.002785.41571.002149.625 0 .794-.247851 1.59424-.46875 2.46875-.46875.98537-.000002 1.90353.219638 2.78125.53125 1.64558.024776 3.29992-.001092 4.9375.0625 3.58604.139255 7.14334.365527 10.6875.6875 3.54415.321971 7.06506.749999 10.5625 1.25 3.49743.499999 6.99159 1.076661 10.4375 1.75 3.4459.673337 6.86043 1.439261 10.25 2.28125 3.38956.841987 6.73409 1.7753 10.0625 2.78125.49217.148751.97797.316471 1.46875.46875.27356-.045471.53402-.138523.8125-.15625.22061-.014045.43359-.0038.65625 0 .82213.014029 1.64814.167699 2.46875.4375 1.29236.42491 2.32212 1.190456 3.21875 2.09375.4217.147601.86067.256034 1.28125.40625 3.26243 1.16522 6.4646 2.398945 9.65625 3.71875 3.19164 1.319803 6.35271 2.717801 9.46875 4.1875 3.11603 1.469698 6.21438 3.010096 9.25 4.625 6.07123 3.229807 11.96683 6.748753 17.6875 10.53125.73419.485445 1.39694 1.068297 2.125 1.5625 1.81027-.137313 3.66174.188868 5.28125 1.28125.44524.300316.85687.635537 1.21875 1 1.10845-1.552697 3.03498-4.217049 3.90625-5.4375-1.99935-1.445785-4.01709-2.867708-6.0625-4.25-2.95413-1.996404-5.95082-3.925126-9-5.78125-3.04919-1.856126-6.14198-3.632831-9.28125-5.34375-3.13928-1.710921-6.33809-3.345461-9.5625-4.90625-3.22442-1.560791-6.47666-3.063016-9.78125-4.46875-3.3046-1.405736-6.65143-2.722998-10.03125-3.96875-3.37983-1.245754-6.79992-2.419155-10.25-3.5-3.45009-1.080847-6.92211-2.057737-10.4375-2.96875-3.5154-.911014-7.08051-1.732496-10.65625-2.46875-3.57575-.736256-7.18136-1.38093-10.8125-1.9375-3.63115-.556572-7.28717-1.03429-10.96875-1.40625-3.68159-.371962-7.36669-.661325-11.09375-.84375-3.72707-.182427-7.48242-.262036-11.25-.25z" fill="#ff0" stroke="#000" stroke-width=".885825"/><path d="m-137.625 20.32221c-.07209-.11137-5.09199-7.886509-5.125-7.9375-1.39383.908235-2.81006 1.784482-4.1875 2.71875-1.84951 1.254453-3.68519 2.541437-5.5 3.84375.76524 1.078866 4.29224 6.060061 5.46875 7.71875 1.3933-1.005419 2.79797-2.026551 4.21875-3 1.68142-1.152023 3.41197-2.235258 5.125-3.34375z" fill="#ff0" stroke="#000" stroke-width=".885825"/><path d="m-116.5 8.22846c.50436-.2525366.99423-.5324292 1.5-.78125 3.21437-1.581361 6.45446-3.073181 9.75-4.5 3.29554-1.426821 6.62821-2.763928 10-4.03125.21492-.080782.44083-.138582.65625-.21875-.04447-.120865-3.26135-8.852161-3.28125-8.90625-3.29166 1.223705-6.56165 2.504994-9.78125 3.875-3.45579 1.470507-6.84949 3.023-10.21875 4.65625-.97042.47041-1.91239.986559-2.875 1.46875.00003.000051 4.24172 8.4210667 4.25 8.4375z" fill="#ff0" stroke="#000" stroke-width=".885825"/><path d="m-116.5 8.22846c-.00828-.0164333-4.24997-8.437449-4.25-8.4375-2.37955 1.191957-4.76002 2.381374-7.09375 3.65625-3.27781 1.790605-6.53729 3.65116-9.71875 5.59375-1.75873 1.073873-3.46449 2.221018-5.1875 3.34375.03301.050991 5.05291 7.82613 5.125 7.9375 1.28357-.830596 2.54276-1.696612 3.84375-2.5 3.03725-1.87557 6.12172-3.675308 9.25-5.40625 2.63606-1.458587 5.3302-2.8350626 8.03125-4.1875z" fill="#ff0" stroke="#000" stroke-width=".885825"/><path d="m-76.71875-7.08404c-.03175-.116171-2.48629-9.074819-2.5-9.125-2.41568.667568-4.83971 1.319409-7.21875 2.0625-3.61413 1.128867-7.18133 2.35387-10.71875 3.65625-.24177.089014-.47727.191479-.71875.28125.0199.05409 3.23678 8.785385 3.28125 8.90625 3.16421-1.177533 6.37011-2.311182 9.59375-3.34375 2.74005-.877668 5.50502-1.665049 8.28125-2.4375z" fill="#ff0" stroke="#000" stroke-width=".885825"/><path d="m-51.53125-12.49029c-.00257-.017147-1.37499-9.062422-1.375-9.0625-5.91579.859846-11.76992 1.889441-17.53125 3.1875v-.0625c-1.67621.391248-3.36892.72782-5.03125 1.15625-1.25963.324642-2.49589.715929-3.75 1.0625.01371.050182 2.46825 9.008829 2.5 9.125.71235-.198201 1.40838-.434394 2.125-.625 3.5095-.933454 7.05403-1.772164 10.625-2.53125 3.57097-.759084 7.18499-1.451491 10.8125-2.03125.53746-.085898 1.08608-.136677 1.625-.21875z" fill="#ff0" stroke="#000" stroke-width=".885825"/><path d="m-29.75-24.14654c-2.87502.132283-5.71514.38474-8.5625.625l.125.25c-4.95534.402851-9.85612 1.011978-14.71875 1.71875.00001.000078 1.37243 9.045353 1.375 9.0625 3.09846-.47187 6.20973-.913119 9.34375-1.25 3.67912-.395474 7.36793-.668765 11.09375-.875.76578-.042387 1.54429-.027219 2.3125-.0625-.00547-.127888-.40381-9.411662-.40625-9.46875-.18783.0081-.37471-.008641-.5625 0z" fill="#ff0" stroke="#000" stroke-width=".885825"/><path d="m98.75 19.97846c1.50948.969777 3.0446 1.901566 4.53125 2.90625 2.0454 1.382291 4.06315 2.804215 6.0625 4.25 1.21873-1.707176 4.61593-6.474162 5.4375-7.625-1.72532-1.2463-3.46332-2.458543-5.21875-3.65625-1.87436-1.278846-3.81003-2.462733-5.71875-3.6875-.03214.049412-5.023597 7.704653-5.09375 7.8125z" fill="#ff0" stroke="#000" stroke-width=".885825"/><path d="m59.59375-10.05279c-3.34226-1.248785-6.71831-2.438695-10.125-3.53125-2.86342-.91835-5.75443-1.730721-8.65625-2.53125-.01303.047585-2.43831 8.920121-2.46875 9.03125 2.35063.645407 4.70709 1.271883 7.03125 2 3.45007 1.080848 6.87018 2.254248 10.25 3.5.24181.089127.47728.191385.71875.28125.04177-.111865 3.23167-8.700918 3.25-8.75z" fill="#ff0" stroke="#000" stroke-width=".885825"/><path d="m78.96875 8.66596c2.018757 1.0189548 4.051348 2.014693 6.03125 3.09375 3.139261 1.710917 6.23207 3.487626 9.28125 5.34375 1.514683.922033 2.978748 1.917739 4.46875 2.875.070153-.107847 5.06161-7.763088 5.09375-7.8125-1.21564-.780035-2.39305-1.61712-3.625-2.375-3.166199-1.947865-6.39725-3.8275-9.65625-5.625-2.414643-1.3317954-4.881663-2.566897-7.34375-3.8125-.000033.000064-4.241794 8.2964848-4.25 8.3125z" fill="#ff0" stroke="#000" stroke-width=".885825"/><path d="m78.96875 8.66596c.008206-.0160152 4.249967-8.312436 4.25-8.3125-.860956-.435569-1.695492-.91827-2.5625-1.34375-3.346489-1.642235-6.72785-3.20546-10.15625-4.6875-3.428409-1.48204-6.90115-2.87055-10.40625-4.1875-.16623-.062456-.3336-.125327-.5-.1875-.01833.049083-3.20823 8.638135-3.25 8.75 3.13358 1.166205 6.244336 2.382339 9.3125 3.6875 3.304581 1.405732 6.55684 2.907961 9.78125 4.46875 1.190808.5764164 2.349129 1.2158321 3.53125 1.8125z" fill="#ff0" stroke="#000" stroke-width=".885825"/><path d="m-8.84375-24.08404c-3.04304-.144347-6.08384-.262439-9.15625-.28125-3.70435-.022687-7.45032.057563-11.1875.21875.00244.057087.40078 9.340861.40625 9.46875 2.96942-.136375 5.94428-.271688 8.9375-.28125 3.5479-.011333 7.08094.089466 10.59375.25.0055-.122438.40382-9.320823.40625-9.375z" fill="#ff0" stroke="#000" stroke-width=".885825"/><path d="m17.46875-21.11529c0 .000002-1.49746 9.078379-1.5 9.09375 2.78293.459426 5.56292.933854 8.3125 1.5 3.57573.736256 7.14086 1.557737 10.65625 2.46875 1.14723.297306 2.26751.65609 3.40625.96875.03044-.111128 2.45572-8.983666 2.46875-9.03125-.72234-.199271-1.43036-.431263-2.15625-.625-2.68349-.716191-5.4084-1.34983-8.125-1.96875-4.3105-.936994-8.67098-1.70185-13.0625-2.40625z" fill="#ff0" stroke="#000" stroke-width=".885825"/><path d="m-8.84375-24.08404c-.00243.054176-.40075 9.252562-.40625 9.375.21749.00994.43895-.010636.65625 0 3.72705.182427 7.41217.47179 11.09375.84375 3.68157.371963 7.33761.84968 10.96875 1.40625.83896.128594 1.66382.299457 2.5.4375.00254-.015371 1.5-9.093748 1.5-9.09375-5.79805-.930008-11.65701-1.70891-17.59375-2.1875l.09375-.15625c-2.1222-.183938-4.23956-.40746-6.375-.53125-.80993-.046955-1.62721-.055314-2.4375-.09375z" fill="#ff0" stroke="#000" stroke-width=".885825"/><path d="m-25.5272-34.74686c-4.10462.10833-8.16455.30614-12.21875.625-1.80162.1417-3.58408.38002-5.375.5625v1.5625h.5625l4.21875 8.46875c2.84736-.24026 5.68749-.49271 8.5625-.625 3.92406-.18056 7.85948-.24257 11.75-.21875s7.74215.15172 11.59375.375c2.13544.12379 4.25281.34732 6.375.53125l4.25-8.53125h.65625v-1.53125c-1.99243-.20631-3.96417-.43808-5.96875-.59375-4.02062-.31222-8.09087-.52043-12.15625-.625s-8.14538-.10833-12.25 0z" fill="#ff0" stroke="#000" stroke-width=".885825"/><path d="m-29.96875-42.11529c-.46712.021487-.93958.007564-1.40625.03125-3.92788.199359-7.85801.4964-11.75.875v7.65625c1.79093-.182481 3.57338-.4208 5.375-.5625 2.69573-.212018 5.41275-.29199 8.125-.40625-.00041-.009511-.34374-7.593599-.34375-7.59375z" fill="#ff0" stroke="#000" stroke-width=".885825"/><path d="m-7.5-42.14654s-.3434 7.679808-.34375 7.6875c2.24328.109081 4.49659.171188 6.71875.34375 2.00459.155668 3.97632.38744 5.96875.59375v-7.75c-3.40069-.313562-6.80179-.63676-10.1875-.8125-.72172-.037461-1.43569-.031138-2.15625-.0625z" fill="#ff0" stroke="#000" stroke-width=".885825"/><path d="m-18.40625-42.42779c-3.87054-.001482-7.72128.135806-11.5625.3125.00001.00015.34334 7.584239.34375 7.59375 1.3668-.057581 2.71838-.182451 4.09375-.21875 4.10463-.108332 8.18462-.10457 12.25 0 1.81848.046774 3.62195.192968 5.4375.28125.00035-.007692.34375-7.6875.34375-7.6875-3.64428-.158615-7.28168-.279864-10.90625-.28125z" fill="#ff0" stroke="#000" stroke-width=".885825"/><path d="m-43.12095-49.34061v8.125c3.89199-.3786 7.82211-.67564 11.75-.875 4.30421-.21846 8.62752-.34541 12.96875-.34375s8.69062.11683 13.0625.34375c3.38571.17574 6.7868.49894 10.1875.8125v-8.0625h-9.25v6.71875h-8.53125v-6.71875h-12.59375v6.71875h-8.53125v-6.71875z" fill="#ff0" stroke="#000" stroke-width=".885825"/><path d="m-18.7869 51.26562c-33.99505 0-65.49964 10.71434-91.32566 28.94697 90.8218 126.79446 69.29463 96.72988 91.36809 127.54133 35.620607-49.72907.56369-.78821 91.325717-127.49883-25.8345-18.25241-57.35214-28.98946-91.368147-28.98947z" fill="#f00" stroke="#000" stroke-width=".885825"/><g transform="translate(126.30812 42.72287)"><g stroke="#000"><path d="m-254.66779 32.663532h219.18802v141.40625h-219.18802z" fill="#00a3e4" stroke-width=".885825"/><path d="m138.89598 283.5392 14.23061-47.31855-47.3875 13.9993 31.25539-38.27082-49.13764-5.20074 43.52182-23.39671-43.407016-23.60902 49.162456-4.96066-31.06808-38.42304 47.31855 14.23061-13.9993-47.3875 38.27082 31.25539 5.20075-49.137638 23.3967 43.521828 23.60903-43.407024 4.96065 49.162454 38.42304-31.068074-14.2306 47.318544 47.38749-13.9993-31.25539 38.27082 49.13764 5.20075-43.52182 23.39671 43.40702 23.60902-49.16246 4.96066 31.06808 38.42304-47.31855-14.23061 13.9993 47.3875-38.27082-31.25539-5.20075 49.13764-23.3967-43.52183-23.60902 43.40702-4.96066-49.16245z" fill="#fefb05" stroke-width=".885825" transform="matrix(.600227 -.3854912 .4018169 .5758397 -342.51034 130.78435)"/><path d="m226.77925 260.30569a47.72971 46.467018 0 1 1 -95.45941 0 47.72971 46.467018 0 1 1 95.45941 0z" fill="#fefb05" stroke-width=".885825" transform="matrix(1.0837321 0 0 1.1131819 -339.02425 -132.59475)"/><path d="m-254.66709 156.27701v27.31222 2.71873h.03131c1.4524 59.12846 49.99149 106.68642 109.57765 106.68642 59.586163 0 108.093963-47.55796 109.546353-106.68642h.03131v-2.71873-27.31222z" fill="#00a3e4" stroke-width=".886641"/></g><path d="m-213.0894 165.633c-1.10059.03766-2.22285.16916-3.375.375-.66116.11808-1.35728.28578-2.03125.46875-.0902.02421-.19085.06827-.28125.09375-.74058.21048-1.4656.4535-2.21875.75-.03415.01331-.05958.0177-.09375.03125-.26412.10526-.54706.22722-.8125.34375-.53905.23472-1.04992.49829-1.59375.78125-.18728.09788-.37473.17739-.5625.28125-.19945.10974-.39379.22715-.59375.34375-.23634.13842-.48178.25805-.71875.40625-.56773.35309-1.14806.71389-1.71875 1.125-.01322.00957-.01802.02162-.03125.03125-.39.28182-.79654.56487-1.1875.875-.20362.16212-.38995.32999-.59375.5-.11058.09178-.20167.21282-.3125.3125h-.125v.09375c-1.21119.94071-3.17462 2.30325-5.875 3.625-.78647.38495-1.64591.7196-2.53125 1.0625-.44663.17252-.90494.34424-1.375.5-.48528.16146-.96049.32986-1.46875.46875-1.94854.53256-4.02079.89943-6.25.9375-1.44922.02477-2.96379-.10054-4.5-.375-.66115-.1181-1.35728-.25454-2.03125-.4375-.03007-.00808-.06213-.02019-.09375-.03125v5.9375 2.6875h.03125c.09085 3.69503.35819 7.34292.8125 10.9375.42415.10346.83914.20787 1.25.28125 1.53621.27445 3.01954.39976 4.46875.375 2.22922-.03808 4.33271-.43616 6.28125-.96875.50826-.13889.98347-.30729 1.46875-.46875.47006-.15575.92837-.32749 1.375-.5.88534-.34291 1.74478-.67751 2.53125-1.0625 2.78864-1.36493 4.77084-2.77549 5.96875-3.71875h.125v-.03125c.09833-.08823.18329-.16868.28125-.25.2038-.17002.42138-.33788.625-.5.39096-.31015.76625-.59317 1.15625-.875.01323-.00963.01803-.05293.03125-.0625.57069-.4111 1.15102-.74064 1.71875-1.09375.23697-.1482.48241-.29907.71875-.4375.19996-.11662.39429-.20275.59375-.3125.18776-.10386.37522-.21461.5625-.3125.54383-.28299 1.0547-.54653 1.59375-.78125.26544-.11654.54837-.23847.8125-.34375.03416-.01352.05961-.01791.09375-.03125.75316-.29647 1.47817-.53951 2.21875-.75.0904-.0255.19105-.06951.28125-.09375.67397-.18298 1.3701-.3194 2.03125-.4375 1.53621-.27449 3.05079-.39977 4.5-.375 2.22922.03809 4.30146.40494 6.25.9375.50825.13886.98347.3073 1.46875.46875.47006.15575.92837.32748 1.375.5.88533.34292 1.74478.7088 2.53125 1.09375 2.66392 1.30391 4.59701 2.62362 5.8125 3.5625v.125h.09375c.11084.09968.23317.18945.34375.28125.20381.17001.39013.33787.59375.5.39096.31013.7975.5932 1.1875.875.01322.00963.01801.0217.03125.03125.57069.41111 1.15102.77193 1.71875 1.125.23698.1482.45117.29907.6875.4375.19997.1166.42555.20278.625.3125.18776.10386.37521.21461.5625.3125.54382.28296 1.0547.54651 1.59375.78125.26544.11653.51712.23848.78125.34375.03417.01355.09086.01793.125.03125.75316.2965 1.47818.53951 2.21875.75.09041.02548.19104.0695.28125.09375.67397.18297 1.3701.31941 2.03125.4375 1.53622.27446 2.98828.39981 4.4375.375 2.22921-.03808 4.36396-.40494 6.3125-.9375.50825-.13889.98346-.30731 1.46875-.46875.47006-.15576.89712-.32744 1.34375-.5.88534-.34291 1.74478-.70879 2.53125-1.09375 2.53605-1.2413 4.4024-2.47744 5.625-3.40625v.03125h.15625c.09832-.08826.21454-.16869.3125-.25.2038-.17001.39013-.33788.59375-.5.39095-.31014.76625-.59317 1.15625-.875.01322-.0096.04927-.05292.0625-.0625.57069-.41108 1.15103-.77188 1.71875-1.125.23698-.14819.45117-.26781.6875-.40625.19997-.1166.42555-.234.625-.34375.18777-.10383.37521-.18336.5625-.28125.54382-.28297 1.0547-.54653 1.59375-.78125.26543-.11652.51712-.23846.78125-.34375.03416-.01356.09086-.01792.125-.03125.75316-.2965 1.47818-.53951 2.21875-.75.09041-.02548.15979-.06951.25-.09375.67397-.18296 1.3701-.3194 2.03125-.4375 1.53621-.27446 3.05078-.39977 4.5-.375 2.22921.0381 4.33271.40494 6.28125.9375.50825.13889.98347.3073 1.46875.46875.47006.15576.89712.32748 1.34375.5.88534.34293 1.74478.67756 2.53125 1.0625 2.6655 1.30465 4.62842 2.65478 5.84375 3.59375v.125h.09375c.11084.09968.23316.18948.34375.28125.20381.17002.39013.3379.59375.5.39096.31013.76625.59317 1.15625.875.01322.00963.01802.02167.03125.03125.57069.4111 1.18227.77189 1.75 1.125.23698.1482.45117.29908.6875.4375.19997.11659.3943.20274.59375.3125.18777.10387.37521.21463.5625.3125.54382.28296 1.08595.54654 1.625.78125.26543.11653.51712.2385.78125.34375.03416.01354.05961.01795.09375.03125.75316.2965 1.50943.53953 2.25.75.09041.02547.15979.06952.25.09375.67397.18296 1.3701.31942 2.03125.4375 1.53622.27445 3.01953.39976 4.46875.375 2.22921-.03808 4.33271-.40491 6.28125-.9375.50825-.13889.98347-.30729 1.468747-.46875.47006-.15575.92837-.32749 1.375-.5.88534-.34291 1.74478-.70876 2.53125-1.09375 2.78864-1.36493 4.80209-2.74424 6-3.6875h.09375v-.0625c.09832-.08829.21453-.16868.3125-.25.2038-.17002.39013-.33788.59375-.5.39096-.31015.76625-.59317 1.15625-.875.01322-.00963.01803-.02168.03125-.03125.57069-.4111 1.18228-.77189 1.75-1.125.23697-.1482.45117-.26781.6875-.40625.19997-.11662.3943-.234.59375-.34375.18777-.10386.37521-.18336.5625-.28125.54382-.28299 1.08595-.57778 1.625-.8125.26544-.11654.51712-.20722.78125-.3125.03417-.01353.0596-.04917.09375-.0625.75316-.29653 1.50943-.53951 2.25-.75.09041-.0255.1598-.03826.25-.0625.67397-.18298 1.3701-.35065 2.03125-.46875 1.53623-.27449 3.05078-.39977 4.5-.375 2.22922.03809 4.33271.43619 6.28125.96875.50825.13886.95222.27605 1.4375.4375.47005.15575.92838.32748 1.375.5.88533.34292 1.74478.7088 2.531256 1.09375 2.66551 1.30468 4.62843 2.62352 5.84375 3.5625v.125h.09375c.11083.09968.23316.2207.34375.3125.2038.17001.39014.30662.59375.46875.39096.31013.76625.5932 1.15625.875.01322.00963.01802.05295.03125.0625.57069.41111 1.18228.77193 1.75 1.125.23698.1482.45117.26782.6875.40625.19997.1166.3943.23403.59375.34375.18777.10386.3752.18336.5625.28125.54382.28296 1.05469.54651 1.59375.78125.26544.11653.54837.23848.8125.34375.03417.01355.0596.01793.09375.03125.75315.29649 1.50943.53951 2.25.75.09041.02548.15979.0695.25.09375.67397.18297 1.3701.35066 2.03125.46875 1.53622.27446 3.01953.39981 4.46875.375.10541-.0018.20766-.02786.3125-.03125.52736-3.89723.86998-7.85813.96875-11.875h.03125v-2.6875-4.84375c-.40951.02948-.82955.05532-1.25.0625-1.44922.02478-2.96378-.10055-4.5-.375-.66115-.1181-1.35728-.25453-2.03125-.4375-.0902-.02424-.1596-.06826-.25-.09375-.74057-.21049-1.49685-.45351-2.25-.75-.03415-.01334-.05959-.01771-.09375-.03125-.26412-.10528-.54706-.22722-.8125-.34375-.53905-.23472-1.04993-.49828-1.59375-.78125-.18728-.09789-.37474-.20865-.5625-.3125-.19945-.10975-.39379-.19589-.59375-.3125-.23634-.13843-.45051-.2893-.6875-.4375-.56772-.35311-1.17931-.71388-1.75-1.125-.01322-.00957-.01804-.02163-.03125-.03125-.39-.28183-.76529-.56486-1.15625-.875-.20363-.16212-.38995-.32998-.59375-.5-.07646-.06346-.17191-.12105-.25-.1875v-.09375h-.09375c-1.19792-.94325-3.21136-2.32257-6-3.6875-.786476-.38497-1.645916-.75084-2.531256-1.09375-.44662-.17254-.90494-.34424-1.375-.5-.48528-.16145-.9605-.32986-1.46875-.46875-1.94853-.53257-4.05204-.89942-6.28125-.9375-1.44922-.02479-2.93253.10055-4.46875.375-.66115.11808-1.35728.25453-2.03125.4375-.09021.02422-.15959.06827-.25.09375-.74056.21048-1.49684.4535-2.25.75-.03413.01332-.05958.0177-.09375.03125-.26412.10526-.51581.22723-.78125.34375-.53905.23472-1.08118.49829-1.625.78125-.18729.09788-.37473.20864-.5625.3125-.19944.10974-.39378.1959-.59375.3125-.23633.13842-.45052.2893-.6875.4375-.56772.35309-1.17931.71389-1.75 1.125-.01323.00957-.01803.02162-.03125.03125-.38999.28182-.76529.56487-1.15625.875-.20363.16212-.38994.32999-.59375.5-.11058.09178-.23291.18157-.34375.28125h-.09375v.09375c-1.20981.94115-3.19525 2.29805-5.90625 3.625-.78647.38495-1.64591.75085-2.53125 1.09375-.44662.17252-.90494.34424-1.375.5-.485277.16146-.929247.29861-1.437497.4375-1.94854.53257-4.05203.93068-6.28125.96875-1.44922.02477-2.96378-.10054-4.5-.375-.66115-.1181-1.35728-.28579-2.03125-.46875-.09021-.02424-.15959-.03701-.25-.0625-.74057-.2105-1.49684-.45349-2.25-.75-.03414-.01333-.05958-.04896-.09375-.0625-.26413-.10529-.51581-.19598-.78125-.3125-.53905-.23472-1.08118-.52953-1.625-.8125-.18729-.0979-.37473-.17738-.5625-.28125-.19945-.10974-.39378-.22715-.59375-.34375-.23633-.13844-.45052-.25806-.6875-.40625-.56772-.35311-1.17931-.71389-1.75-1.125-.01322-.00958-.01803-.02161-.03125-.03125-.39-.28183-.76529-.56486-1.15625-.875-.20362-.16212-.38996-.32999-.59375-.5-.07647-.06346-.17192-.12104-.25-.1875v-.09375h-.09375c-1.19791-.94323-3.21136-2.35381-6-3.71875-.78648-.38496-1.64591-.71959-2.53125-1.0625-.44663-.17254-.90494-.34425-1.375-.5-.48528-.16146-.92925-.32986-1.4375-.46875-1.94855-.53258-4.08329-.93068-6.3125-.96875-1.44923-.02479-2.93253.10055-4.46875.375-.66115.11808-1.35728.28579-2.03125.46875-.09022.02423-.15959.06827-.25.09375-.74058.21048-1.49684.45351-2.25.75-.03415.01333-.05959.01771-.09375.03125-.26414.10529-.51582.22722-.78125.34375-.53905.23472-1.04993.49828-1.59375.78125-.18729.09788-.40599.17739-.59375.28125-.19946.10973-.39378.22716-.59375.34375-.23634.13842-.45052.25805-.6875.40625-.56773.35311-1.17931.71389-1.75 1.125-.01323.00956-.01803.02162-.03125.03125-.39001.2818-.76529.56486-1.15625.875-.20362.1621-.38994.32998-.59375.5h-.0625c-1.20482.94236-3.22189 2.31177-5.96875 3.65625-.78647.38495-1.64591.75085-2.53125 1.09375-.44662.17252-.8737.34424-1.34375.5-.48529.16145-.9605.2986-1.46875.4375-1.94854.53256-4.02078.93068-6.25.96875-1.44922.02478-2.96378-.10055-4.5-.375-.66115-.1181-1.35728-.28578-2.03125-.46875-.0902-.02424-.19084-.03701-.28125-.0625-.74057-.21049-1.4656-.45351-2.21875-.75-.03415-.01334-.05958-.04896-.09375-.0625-.26413-.10528-.54707-.19597-.8125-.3125-.53905-.23472-1.04993-.52953-1.59375-.8125-.18729-.09789-.37473-.1774-.5625-.28125-.19945-.10975-.39378-.22714-.59375-.34375-.23633-.13843-.48178-.25806-.71875-.40625-.56772-.35311-1.14806-.71388-1.71875-1.125-.01322-.00957-.01804-.02163-.03125-.03125-.39-.28183-.79654-.56486-1.1875-.875-.20362-.16212-.38995-.32999-.59375-.5-.075-.06225-.1421-.12246-.21875-.1875v-.09375h-.125c-1.19791-.94325-3.1801-2.35382-5.96875-3.71875-.78647-.38497-1.64592-.71959-2.53125-1.0625-.44663-.17254-.90493-.34424-1.375-.5-.48527-.16145-.9605-.32986-1.46875-.46875-1.94854-.53257-4.05203-.93067-6.28125-.96875-.36231-.0062-.72689-.01255-1.09375 0zm0 39.125c-1.10058.03766-2.22284.16916-3.375.375-.66115.11809-1.35728.28579-2.03125.46875-.09021.02425-.19084.06827-.28125.09375-.74057.2105-1.46559.45351-2.21875.75-.03414.01332-.05959.01771-.09375.03125-.26413.10528-.54707.22722-.8125.34375-.53905.23473-1.04993.49829-1.59375.78125-.18729.09789-.37474.17738-.5625.28125-.19945.10971-.39378.22716-.59375.34375-.23633.13844-.48177.25805-.71875.40625-.56773.35313-1.14806.7139-1.71875 1.125-.01323.00955-.01803.05287-.03125.0625-.39.28179-.79654.56487-1.1875.875-.20362.16212-.38994.29873-.59375.46875-.11058.0918-.20166.21282-.3125.3125h-.125v.09375c-1.21119.94071-3.17462 2.30326-5.875 3.625-.78647.38495-1.64591.7196-2.53125 1.0625-.44663.17252-.90494.34421-1.375.5-.48528.16145-.9605.32985-1.46875.46875-1.94854.53256-4.02079.89943-6.25.9375-.38237.00654-.76559.01434-1.15625 0 2.11679 6.3588 4.8235 12.4443 8.03125 18.21875.27033-.07905.54332-.16046.8125-.25.47006-.15576.92837-.32744 1.375-.5.88534-.34291 1.74478-.70879 2.53125-1.09375 2.78864-1.36493 4.77084-2.77551 5.96875-3.71875h.125v-.03125c.09832-.08824.18329-.16869.28125-.25.20381-.17005.42138-.33788.625-.5.39096-.31012.76625-.59317 1.15625-.875.01322-.00965.01802-.02167.03125-.03125.57069-.41112 1.15103-.77189 1.71875-1.125.23698-.14823.48242-.29906.71875-.4375.19997-.11658.3943-.20276.59375-.3125.18777-.10388.37521-.2146.5625-.3125.54382-.28295 1.0547-.54653 1.59375-.78125.26544-.11656.54837-.23846.8125-.34375.03417-.01354.05961-.01792.09375-.03125.75316-.2965 1.47818-.5395 2.21875-.75.09041-.02546.19104-.06951.28125-.09375.67397-.18294 1.3701-.3194 2.03125-.4375 1.53622-.27444 3.05078-.39977 4.5-.375 2.22922.03806 4.30146.40494 6.25.9375.50825.1389.98347.30729 1.46875.46875.47006.15578.92838.32748 1.375.5.88534.34289 1.74478.7088 2.53125 1.09375 2.66392 1.30389 4.59701 2.62362 5.8125 3.5625v.125h.09375c.11084.09968.23317.18949.34375.28125.20381.17002.39013.33792.59375.5.39096.31014.79749.59318 1.1875.875.01322.00963.01802.02168.03125.03125.57069.4111 1.15101.77191 1.71875 1.125.23698.1482.45117.2991.6875.4375.19997.11659.42555.20276.625.3125.18776.10386.37521.21458.5625.3125.54382.28296 1.05469.54655 1.59375.78125.26543.11653.51712.23845.78125.34375.03416.01354.09086.0179.125.03125.75316.29649 1.47818.53954 2.21875.75.09041.02548.19104.06954.28125.09375.67397.18296 1.3701.31938 2.03125.4375 1.53622.27445 2.98828.39978 4.4375.375 2.22921-.03808 4.36396-.40489 6.3125-.9375.50825-.13889.98346-.30727 1.46875-.46875.47006-.15575.89712-.32747 1.34375-.5.88534-.34291 1.74478-.70881 2.53125-1.09375 2.53605-1.2413 4.40241-2.47745 5.625-3.40625v.03125h.15625c.09832-.08829.21454-.16868.3125-.25.20381-.17002.39013-.33788.59375-.5.39096-.31015.76625-.59317 1.15625-.875.01322-.00963.04927-.05293.0625-.0625.57069-.4111 1.15102-.77189 1.71875-1.125.23697-.1482.45117-.26781.6875-.40625.19997-.11663.42555-.20275.625-.3125.18776-.10386.37521-.21461.5625-.3125.54381-.28299 1.0547-.54653 1.59375-.78125.26542-.11654.51712-.23847.78125-.34375.03416-.01353.09086-.01792.125-.03125.75316-.29647 1.47818-.53951 2.21875-.75.09041-.0255.15979-.06951.25-.09375.67397-.18298 1.3701-.3194 2.03125-.4375 1.53622-.27449 3.05078-.39977 4.5-.375 2.22921.03809 4.33271.40494 6.28125.9375.50825.13892.98347.3073 1.46875.46875.47006.15574.89712.32748 1.34375.5.88533.34291 1.74478.7088 2.53125 1.09375 2.6655 1.30468 4.62842 2.62353 5.84375 3.5625v.125h.09375c.11084.09968.23317.18945.34375.28125.20381.17001.39013.33787.59375.5.39096.31013.76625.5932 1.15625.875.01322.00963.01802.0217.03125.03125.57069.41111 1.18227.77192 1.75 1.125.23698.1482.45117.29906.6875.4375.19997.1166.39429.20278.59375.3125.18776.10386.37521.21461.5625.3125.54382.28296 1.08595.54651 1.625.78125.26544.11653.51712.23848.78125.34375.03416.01355.05961.01793.09375.03125.75316.29649 1.50943.5395 2.25.75.09041.02548.15979.0695.25.09375.67397.18297 1.3701.31941 2.03125.4375 1.53622.27446 3.01954.3998 4.46875.375 2.22922-.03808 4.3327-.40494 6.28125-.9375.50825-.13889.98347-.30732 1.468747-.46875.47006-.15576.92837-.32744 1.375-.5.88534-.34291 1.74478-.70879 2.53125-1.09375 2.78864-1.36493 4.80208-2.74426 6-3.6875h.09375v-.0625c.09831-.08824.21454-.16869.3125-.25.20381-.17005.39013-.33788.59375-.5.39097-.31012.76625-.59317 1.15625-.875.01322-.00965.01802-.02167.03125-.03125.57068-.41112 1.18228-.77189 1.75-1.125.23698-.14823.45117-.26781.6875-.40625.19996-.11658.3943-.234.59375-.34375.18777-.10388.37521-.18335.5625-.28125.54383-.28295 1.08595-.57778 1.625-.8125.26545-.11656.51712-.20721.78125-.3125.03417-.01354.05961-.04917.09375-.0625.75316-.29649 1.50943-.53951 2.25-.75.09041-.02546.15979-.03826.25-.0625.67396-.18294 1.3701-.35065 2.03125-.46875 1.53622-.27444 3.05078-.39977 4.5-.375 2.22922.03806 4.33271.43619 6.28125.96875.50825.1389.95222.27605 1.4375.4375.47006.15578.92838.32748 1.375.5.88534.34289 1.74478.7088 2.531256 1.09375 2.6655 1.30466 4.62843 2.62353 5.84375 3.5625v.125h.09375c.11084.09968.23317.22074.34375.3125.20381.17002.39013.33792.59375.5.39096.31014.76624.59318 1.15625.875.01322.00963.01802.02168.03125.03125.57069.4111 1.18229.77191 1.75 1.125.23698.1482.45117.26785.6875.40625.19997.11659.39429.23401.59375.34375.18777.10386.37521.18333.5625.28125.01281.00667.01847.02461.03125.03125 2.88998-5.38154 5.32688-11.02996 7.28125-16.90625-.08242-.01389-.16745-.0165-.25-.03125-.66115-.1181-1.35727-.25453-2.03125-.4375-.09021-.02424-.15959-.06825-.25-.09375-.74057-.21049-1.49684-.45354-2.25-.75-.03414-.01333-.05958-.01773-.09375-.03125-.26413-.10529-.54706-.22721-.8125-.34375-.53905-.23472-1.04993-.49826-1.59375-.78125-.18729-.0979-.37473-.20865-.5625-.3125-.19945-.10975-.39377-.19588-.59375-.3125-.23633-.13844-.45052-.28929-.6875-.4375-.56772-.35311-1.17931-.68266-1.75-1.09375-.01322-.00958-.01803-.05288-.03125-.0625-.39-.28184-.76529-.56484-1.15625-.875-.20362-.16211-.38995-.32997-.59375-.5-.07646-.06346-.17191-.12106-.25-.1875v-.09375h-.09375c-1.19791-.94324-3.21136-2.32257-6-3.6875-.786466-.38497-1.645916-.75084-2.531256-1.09375-.44664-.17255-.90494-.34425-1.375-.5-.48529-.16144-.9605-.32986-1.46875-.46875-1.94854-.53257-4.05204-.89942-6.28125-.9375-1.44922-.0248-2.93253.10055-4.46875.375-.66114.11809-1.35728.25454-2.03125.4375-.09021.02425-.15959.06827-.25.09375-.74057.2105-1.49684.45351-2.25.75-.03414.01332-.05959.01771-.09375.03125-.26413.10528-.51582.22722-.78125.34375-.53905.23474-1.08118.49829-1.625.78125-.18729.0979-.37474.20864-.5625.3125-.19945.10971-.39378.19591-.59375.3125-.23633.13844-.45052.2893-.6875.4375-.56774.35313-1.17931.7139-1.75 1.125-.01323.00955-.01803.02162-.03125.03125-.39.28179-.76529.56486-1.15625.875-.20362.16212-.38994.32998-.59375.5-.11057.0918-.23291.18157-.34375.28125h-.09375v.09375c-1.20982.94115-3.19524 2.29807-5.90625 3.625-.78647.38495-1.64591.75085-2.53125 1.09375-.44663.17253-.90494.34421-1.375.5-.485277.16145-.929247.2986-1.437497.4375-1.94854.53256-4.05204.93068-6.28125.96875-1.44922.02478-2.96378-.10056-4.5-.375-.66115-.1181-1.35728-.28575-2.03125-.46875-.09021-.02424-.15959-.03704-.25-.0625-.74057-.21049-1.49684-.45351-2.25-.75-.03414-.01334-.05959-.04896-.09375-.0625-.26413-.10528-.51582-.196-.78125-.3125-.53905-.23472-1.08118-.52956-1.625-.8125-.18729-.09789-.37474-.17738-.5625-.28125-.19945-.10975-.39378-.22717-.59375-.34375-.23633-.13843-.45052-.25802-.6875-.40625-.56773-.35311-1.17931-.71388-1.75-1.125-.01323-.00957-.01803-.0216-.03125-.03125-.39-.28183-.76529-.56489-1.15625-.875-.20362-.16212-.38994-.33001-.59375-.5-.07646-.06346-.17191-.12105-.25-.1875v-.09375h-.09375c-1.19792-.94322-3.21136-2.35382-6-3.71875-.78647-.38494-1.64591-.71959-2.53125-1.0625-.44663-.17254-.90494-.34424-1.375-.5-.48528-.16148-.92924-.32986-1.4375-.46875-1.94854-.53254-4.08328-.93067-6.3125-.96875-1.44921-.02479-2.93254.10055-4.46875.375-.66116.11811-1.35728.28578-2.03125.46875-.09021.02421-.15959.06827-.25.09375-.74057.21045-1.49684.4535-2.25.75-.03414.01335-.05959.0177-.09375.03125-.26413.10529-.51581.22723-.78125.34375-.53906.23469-1.04993.49829-1.59375.78125-.18729.09785-.40599.17739-.59375.28125-.19946.10974-.39378.22715-.59375.34375-.23634.13839-.45053.25805-.6875.40625-.56773.35309-1.17931.71389-1.75 1.125-.01323.00956-.01803.02162-.03125.03125-.39.28182-.76529.56487-1.15625.875-.20363.16208-.38995.32999-.59375.5h-.0625c-1.20483.94236-3.22189 2.31174-5.96875 3.65625-.78647.38494-1.64592.75084-2.53125 1.09375-.44663.17252-.87369.34426-1.34375.5-.48528.16145-.9605.29863-1.46875.4375-1.94854.53256-4.02078.93067-6.25.96875-1.44922.02477-2.96378-.10052-4.5-.375-.66115-.1181-1.35728-.28578-2.03125-.46875-.09021-.02424-.19084-.037-.28125-.0625-.74057-.21049-1.46559-.45354-2.21875-.75-.03414-.01333-.05958-.04898-.09375-.0625-.26413-.10529-.54707-.19596-.8125-.3125-.53906-.23472-1.04993-.52951-1.59375-.8125-.18729-.0979-.37473-.1774-.5625-.28125-.19945-.10975-.39379-.22713-.59375-.34375-.23633-.13844-.48177-.25804-.71875-.40625-.56772-.35312-1.14806-.71391-1.71875-1.125-.01323-.00958-.01803-.02163-.03125-.03125-.39-.28183-.79654-.56484-1.1875-.875-.20362-.16211-.38994-.32997-.59375-.5-.07499-.06224-.1421-.12247-.21875-.1875v-.09375h-.125c-1.19791-.94324-3.18011-2.35382-5.96875-3.71875-.78647-.38497-1.64591-.71959-2.53125-1.0625-.44663-.17255-.90494-.34425-1.375-.5-.48528-.16144-.9605-.32986-1.46875-.46875-1.94854-.53257-4.05204-.93067-6.28125-.96875-.36231-.0062-.72689-.01255-1.09375 0zm0 39.125c-1.10058.03766-2.22284.16916-3.375.375-.66115.11808-1.35728.28579-2.03125.46875-.09021.02423-.19084.06827-.28125.09375-.74057.21048-1.4656.45351-2.21875.75-.03415.0133-.05958.01771-.09375.03125-.26413.10526-.54706.22722-.8125.34375-.53905.23472-1.04993.49829-1.59375.78125-.18729.09788-.37473.17739-.5625.28125-.19945.10976-.39378.22716-.59375.34375-.23633.13842-.48177.25805-.71875.40625-.56772.35311-1.14806.7139-1.71875 1.125-.01322.00959-.01803.05287-.03125.0625-.39.28184-.79654.56486-1.1875.875-.20362.1621-.38994.32998-.59375.5-.11058.09178-.20166.18157-.3125.28125h-.125v.09375c-.19943.15489-.44736.35555-.6875.53125 3.63224 4.56637 7.62459 8.82521 11.9375 12.75.55627-.13654 1.11551-.24716 1.65625-.34375 1.53622-.27446 3.05078-.39977 4.5-.375 2.22922.0381 4.30146.40494 6.25.9375.50825.13889.98348.3073 1.46875.46875.47006.15576.92837.32748 1.375.5.88533.34293 1.74478.70881 2.53125 1.09375 2.66392 1.30388 4.59701 2.62361 5.8125 3.5625v.125h.09375c.11083.09968.23317.18947.34375.28125.2038.17002.39013.3379.59375.5.39096.31014.7975.59317 1.1875.875.01322.00963.01802.05291.03125.0625.57069.4111 1.15103.74064 1.71875 1.09375.23698.1482.45117.29908.6875.4375.19997.11659.42555.20275.625.3125.18777.10386.37521.21462.5625.3125.54382.28296 1.05469.54653 1.59375.78125.26544.11653.51713.23849.78125.34375.03417.01354.09085.01795.125.03125.75315.29649 1.47818.53952 2.21875.75.09041.02548.19105.06952.28125.09375.67397.18296 1.3701.31943 2.03125.4375 1.53622.27445 2.98828.39976 4.4375.375 2.22922-.03808 4.36396-.40491 6.3125-.9375.50826-.13889.98347-.30729 1.46875-.46875.47006-.15575.89712-.32749 1.34375-.5.88534-.34291 1.74478-.70876 2.53125-1.09375 2.53605-1.2413 4.4024-2.47742 5.625-3.40625v.03125h.15625c.09833-.08825.21454-.16868.3125-.25.20379-.16998.39013-.33788.59375-.5.39095-.31011.76625-.59317 1.15625-.875.01323-.00965.04927-.02167.0625-.03125.57068-.41111 1.15102-.77189 1.71875-1.125.23697-.14822.45116-.29906.6875-.4375.19997-.11658.42554-.20275.625-.3125.18776-.10387.37522-.2146.5625-.3125.54382-.28294 1.0547-.54653 1.59375-.78125.26543-.11649.51712-.23846.78125-.34375.03416-.01354.09086-.01792.125-.03125.75316-.29649 1.47818-.5395 2.21875-.75.09041-.02546.15979-.06951.25-.09375.67397-.18299 1.3701-.3194 2.03125-.4375 1.5362-.27443 3.05079-.39977 4.5-.375 2.22922.03807 4.33271.40494 6.28125.9375.50826.1389.98347.30729 1.46875.46875.47006.15573.89712.32748 1.34375.5.88534.3429 1.74478.7088 2.53125 1.09375 2.6655 1.30467 4.62842 2.62353 5.84375 3.5625v.125h.09375c.11084.09968.23316.1895.34375.28125.2038.17002.39013.33793.59375.5.39096.31013.76625.59318 1.15625.875.01323.00963.01802.02169.03125.03125.57068.41111 1.18227.77191 1.75 1.125.23697.1482.45116.29911.6875.4375.19996.1166.39429.20276.59375.3125.18776.10386.37522.21465.5625.3125.54383.28297 1.08595.54656 1.625.78125.26544.11653.51712.23846.78125.34375.03416.01355.05961.01791.09375.03125.75316.29649 1.50943.53955 2.25.75.09041.02548.15979.06955.25.09375.67397.18297 1.3701.31939 2.03125.4375 1.53621.27445 3.01954.39979 4.46875.375 2.22922-.03808 4.33271-.40496 6.28125-.9375.50826-.13889.98347-.30727 1.468747-.46875.47006-.15575.92837-.32746 1.375-.5.88534-.34291 1.74478-.70881 2.53125-1.09375 2.78864-1.36494 4.80209-2.74428 6-3.6875h.09375v-.0625c.09832-.08826.21454-.16869.3125-.25.20381-.17001.39013-.33789.59375-.5.39096-.31014.76625-.59317 1.15625-.875.01322-.0096.01802-.02167.03125-.03125.57069-.41107 1.18227-.77188 1.75-1.125.23696-.14819.45116-.26781.6875-.40625.19997-.1166.39429-.234.59375-.34375.18776-.10389.37521-.18335.5625-.28125.54382-.28297 1.08595-.57778 1.625-.8125.26545-.11652.51712-.20721.78125-.3125.03416-.01356.05961-.04917.09375-.0625.75316-.2965 1.50943-.53951 2.25-.75.09041-.02548.15979-.03826.25-.0625.67397-.18295 1.3701-.35065 2.03125-.46875 1.53622-.27446 3.05078-.39977 4.5-.375.36804.00629.73269.0376 1.09375.0625 4.91019-4.51113 9.39759-9.47392 13.406256-14.8125-.8586-.517-1.80207-1.0533-2.90625-1.59375-.786476-.38499-1.645916-.75084-2.531256-1.09375-.44663-.17251-.90494-.34425-1.375-.5-.48528-.16146-.96049-.32986-1.46875-.46875-1.94854-.53259-4.05203-.89942-6.28125-.9375-1.44921-.02476-2.93254.10055-4.46875.375-.66115.11808-1.35728.25454-2.03125.4375-.09021.02423-.15959.06827-.25.09375-.74056.21048-1.49684.45351-2.25.75-.03413.0133-.05959.01771-.09375.03125-.26412.10526-.51581.22722-.78125.34375-.53905.23472-1.08118.49828-1.625.78125-.18729.09788-.37474.20864-.5625.3125-.19945.10976-.39378.19591-.59375.3125-.23634.13842-.45053.2893-.6875.4375-.56773.35311-1.17932.7139-1.75 1.125-.01323.00959-.01803.02162-.03125.03125-.39.28184-.76529.56486-1.15625.875-.20363.1621-.38995.32998-.59375.5-.11058.09178-.23291.18157-.34375.28125h-.09375v.09375c-1.20982.94115-3.19525 2.29805-5.90625 3.625-.78647.38494-1.64591.75084-2.53125 1.09375-.44663.17252-.90494.34427-1.375.5-.485277.16145-.929237.29858-1.437497.4375-1.94854.53256-4.05203.93066-6.28125.96875-1.44921.02478-2.96379-.10057-4.5-.375-.66115-.1181-1.35728-.28577-2.03125-.46875-.09021-.02425-.15959-.037-.25-.0625-.74057-.21049-1.49684-.45353-2.25-.75-.03414-.01334-.05959-.04897-.09375-.0625-.26413-.10529-.51581-.19596-.78125-.3125-.53905-.23472-1.08118-.5295-1.625-.8125-.18729-.09789-.37474-.17739-.5625-.28125-.19946-.10975-.39378-.22712-.59375-.34375-.23634-.13843-.45053-.25804-.6875-.40625-.56773-.35312-1.17931-.7139-1.75-1.125-.01323-.00957-.01803-.02162-.03125-.03125-.39-.28183-.76529-.56484-1.15625-.875-.20362-.16212-.38995-.32997-.59375-.5-.07646-.06346-.17191-.12105-.25-.1875v-.09375h-.09375c-1.19791-.94324-3.21136-2.35382-6-3.71875-.78648-.38496-1.64591-.71959-2.53125-1.0625-.44663-.17256-.90494-.34425-1.375-.5-.48528-.1615-.92924-.32985-1.4375-.46875-1.94854-.53256-4.08328-.93067-6.3125-.96875-1.44922-.0248-2.93254.10055-4.46875.375-.66115.11809-1.35728.28579-2.03125.46875-.0902.02426-.15959.06827-.25.09375-.74058.2105-1.49684.4535-2.25.75-.03415.01333-.05959.0177-.09375.03125-.26414.10527-.51581.22723-.78125.34375-.53905.23474-1.04992.49829-1.59375.78125-.18728.09789-.40599.17739-.59375.28125-.19947.10972-.39379.22716-.59375.34375-.23635.13844-.45053.25805-.6875.40625-.56773.35308-1.17931.7139-1.75 1.125-.01322.00955-.01802.05287-.03125.0625-.39.2818-.76529.53362-1.15625.84375-.20362.16213-.38995.32998-.59375.5h-.0625c-1.20483.94236-3.22189 2.31179-5.96875 3.65625-.78647.38495-1.64591.75082-2.53125 1.09375-.44663.17252-.8737.34424-1.34375.5-.48528.16146-.96049.29862-1.46875.4375-1.94854.53256-4.02079.93065-6.25.96875-1.44922.02477-2.96379-.10054-4.5-.375-.66115-.1181-1.35728-.28579-2.03125-.46875-.0902-.02424-.19084-.03702-.28125-.0625-.74057-.21049-1.4656-.45348-2.21875-.75-.03415-.01333-.05958-.04894-.09375-.0625-.26412-.10529-.54706-.19598-.8125-.3125-.53906-.23472-1.04993-.52953-1.59375-.8125-.18728-.0979-.37473-.17741-.5625-.28125-.19945-.10975-.39379-.22715-.59375-.34375-.23634-.13844-.48178-.25806-.71875-.40625-.56772-.35311-1.14806-.71392-1.71875-1.125-.01322-.00958-.01803-.02164-.03125-.03125-.39-.28183-.79655-.56486-1.1875-.875-.20363-.16212-.38995-.32999-.59375-.5-.075-.06224-.1421-.12245-.21875-.1875v-.09375h-.125c-1.19791-.94326-3.18011-2.35382-5.96875-3.71875-.78647-.38498-1.64591-.71959-2.53125-1.0625-.44662-.17251-.90494-.34425-1.375-.5-.48528-.16146-.9605-.32986-1.46875-.46875-1.94854-.53259-4.05203-.93067-6.28125-.96875-.36231-.00619-.72689-.01255-1.09375 0z" fill="#fff"/><path d="m-181.77972 116.00147v47.36073h.07325v3.18185.91056h.01046c.48558 19.80396 16.71257 35.73253 36.63272 35.73253 19.92006 0 36.13662-15.92857 36.62219-35.73253h.01043v-.91056-3.18185h.06283v-47.36073z" fill="#ff0" stroke="#f00" stroke-width="2.140744"/><path d="m-150.37065 129.4062v.03125h-4.4375l4.4375 9.6875v9.53125h-9.4375l-9.78125-4.4375v4.4375 10.59375h.03125v4.40625l9.6875-4.40625h9.5v9.5l-4.4375 9.6875h4.4375v.03125h10.5625 4.46875l-4.46875-9.78125v-9.4375h9.53125l9.6875 4.40625v-4.40625h.03125v-10.59375-4.4375l-9.78125 4.4375h-9.46875v-9.46875l4.46875-9.78125h-4.46875z" fill="#ff0" stroke="#f00" stroke-width="2.140744"/></g></g><path d="m-287 1.7499037c3.5 6.5000001 3.5 6.5000001 3.5 6.5000001" fill="none" stroke="#000" stroke-width=".59055" transform="translate(160 12.540961)"/><path d="m-266-9.7500964c3 8.0000001 3 8.0000001 3 8.0000001" fill="none" stroke="#000" stroke-width=".59055" transform="translate(160 12.540961)"/><path d="m-246-16.750097c2 7.0000006 2 7.0000006 2 7.0000006" fill="none" stroke="#000" stroke-width=".59055" transform="translate(160 12.540961)"/><path d="m-224.5-23.250097c1.5 8.500001 1.5 8.500001 1.5 8.500001" fill="none" stroke="#000" stroke-width=".59055" transform="translate(160 12.540961)"/><path d="m-201.5-26.750097c1 9 1 9 1 9" fill="none" stroke="#000" stroke-width=".59055" transform="translate(160 12.540961)"/><path d="m-178.5-27.250097v8" fill="none" stroke="#000" stroke-width=".59055" transform="translate(160 12.540961)"/><path d="m-157-26.250097c-1 8-1.5 8-1.5 8" fill="none" stroke="#000" stroke-width=".59055" transform="translate(160 12.540961)"/><path d="m-134-22.250097c-1.5 8.000001-1.5 8.000001-1.5 8.000001" fill="none" stroke="#000" stroke-width=".59055" transform="translate(160 12.540961)"/><path d="m-113.5-16.750097c-2 6.500001-2 6.500001-2 6.500001" fill="none" stroke="#000" stroke-width=".59055" transform="translate(160 12.540961)"/><path d="m-92.500001-10.250096c-4 7.9999996-4 7.9999996-4 7.9999996" fill="none" stroke="#000" stroke-width=".59055" transform="translate(160 12.540961)"/><path d="m-72.500001.74990368c-4.5 6.50000002-4.5 6.50000002-4.5 6.50000002" fill="none" stroke="#000" stroke-width=".59055" transform="translate(160 12.540961)"/><path d="m-273 2.7499037c3 5.5000001 3 5.0000001 3 5.0000001" fill="none" stroke="#000" stroke-width=".59055" transform="translate(160 12.540961)"/><path d="m-210.5-17.250097c1 6.500001 1 6.500001 1 6.500001" fill="none" stroke="#000" stroke-width=".59055" transform="translate(160 12.540961)"/><path d="m-145-15.750096c-1 5.5-1 5.5-1 5.5" fill="none" stroke="#000" stroke-width=".59055" transform="translate(160 12.540961)"/><path d="m-84.500001 3.7499037c-2.5 5.5000001-2.5 5.5000001-2.5 5.5000001" fill="none" stroke="#000" stroke-width=".59055" transform="translate(160 12.540961)"/><path d="m-81.000001 13.749904c-3 4.5-3 4.5-3 4.5" fill="none" stroke="#000" stroke-width=".59055" transform="translate(160 12.540961)"/><path d="m-99.000001 4.2499037c-2.999999 5.0000001-2.999999 5.0000001-2.999999 5.0000001" fill="none" stroke="#000" stroke-width=".59055" transform="translate(160 12.540961)"/><path d="m-136.5-8.2500964c-1.5 6-1.5 6-1.5 6" fill="none" stroke="#000" stroke-width=".59055" transform="translate(160 12.540961)"/><path d="m-159.5-11.750096c-1 6.4999996-1 6.4999996-1 6.4999996" fill="none" stroke="#000" stroke-width=".59055" transform="translate(160 12.540961)"/><path d="m-199.5-11.750096c.5 5.9999996.5 5.9999996.5 5.9999996" fill="none" stroke="#000" stroke-width=".59055" transform="translate(160 12.540961)"/><path d="m-222-8.2500964c1 6 1 6 1 6" fill="none" stroke="#000" stroke-width=".59055" transform="translate(160 12.540961)"/><path d="m-100.72985 17.360151c2.458422 5.827189 1.959922 5.865891 1.959922 5.865891" fill="none" stroke="#000" stroke-width=".59055"/><path d="m-281 13.749904c3.5 6 3.5 6 3.5 6" fill="none" stroke="#000" stroke-width=".59055" transform="translate(160 12.540961)"/><path d="m-267.5 14.249904c3 6 3 6 3 6" fill="none" stroke="#000" stroke-width=".59055" transform="translate(160 12.540961)"/><path d="m-261 28.249904c3.5 6.5 3.5 6.5 3.5 6.5" fill="none" stroke="#000" stroke-width=".59055" transform="translate(160 12.540961)"/><path d="m-208.5-3.7500964c.5 6.5000001.5 6.5000001.5 6.5000001" fill="none" stroke="#000" stroke-width=".59055" transform="translate(160 12.540961)"/><path d="m-207.5 10.249904c1 8.5 1 8.5 1 8.5" fill="none" stroke="#000" stroke-width=".59055" transform="translate(160 12.540961)"/><path d="m-147.5-3.2500964c-1 6.5000001-1 6.5000001-1 6.5000001" fill="none" stroke="#000" stroke-width=".59055" transform="translate(160 12.540961)"/><path d="m-150 10.749904-1.5 8" fill="none" stroke="#000" stroke-width=".59055" transform="translate(160 12.540961)"/><path d="m-90.000001 15.749904-2.5 6" fill="none" stroke="#000" stroke-width=".59055" transform="translate(160 12.540961)"/><path d="m-96.000001 29.749904-3.5 6.5" fill="none" stroke="#000" stroke-width=".59055" transform="translate(160 12.540961)"/><path d="m-87.000001 25.749904-3.5 5.5" fill="none" stroke="#000" stroke-width=".59055" transform="translate(160 12.540961)"/><path d="m-103.5 17.249904-2 6.5" fill="none" stroke="#000" stroke-width=".59055" transform="translate(160 12.540961)"/><path d="m-139.5 5.2499037c-1.5 8.0000003-1.5 7.5000003-1.5 7.5000003" fill="none" stroke="#000" stroke-width=".59055" transform="translate(160 12.540961)"/><path d="m-161 1.2499037-.5 8.5000001" fill="none" stroke="#000" stroke-width=".59055" transform="translate(160 12.540961)"/><path d="m-198.5 1.7499037 1 8.0000001" fill="none" stroke="#000" stroke-width=".59055" transform="translate(160 12.540961)"/><path d="m-219.5 5.2499037 1 7.5000003" fill="none" stroke="#000" stroke-width=".59055" transform="translate(160 12.540961)"/><path d="m-256.5 16.749904 3.5 7.5" fill="none" stroke="#000" stroke-width=".59055" transform="translate(160 12.540961)"/><path d="m-275 26.249904 3.5 7" fill="none" stroke="#000" stroke-width=".59055" transform="translate(160 12.540961)"/><path d="m-271 41.749904c4.5 7 4.5 7 4.5 7" fill="none" stroke="#000" stroke-width=".59055" transform="translate(160 12.540961)"/><path d="m-247 30.749904 3.5 6.5" fill="none" stroke="#000" stroke-width=".59055" transform="translate(160 12.540961)"/><path d="m-217.5 22.249904 1 7" fill="none" stroke="#000" stroke-width=".59055" transform="translate(160 12.540961)"/><path d="m-196 18.749904.5 6.5" fill="none" stroke="#000" stroke-width=".59055" transform="translate(160 12.540961)"/><path d="m-161.5 18.749904-1 7.5" fill="none" stroke="#000" stroke-width=".59055" transform="translate(160 12.540961)"/><path d="m-142.5 20.749904-2 7.5" fill="none" stroke="#000" stroke-width=".59055" transform="translate(160 12.540961)"/><path d="m-109 32.249904-3.5 6" fill="none" stroke="#000" stroke-width=".59055" transform="translate(160 12.540961)"/><path d="m-90.000001 41.249904-4.5 6.5" fill="none" stroke="#000" stroke-width=".59055" transform="translate(160 12.540961)"/><path d="m-102.5 43.749904-3.5 5.5" fill="none" stroke="#000" stroke-width=".59055" transform="translate(160 12.540961)"/><path d="m-128.5 32.749904-2 6" fill="none" stroke="#000" stroke-width=".59055" transform="translate(160 12.540961)"/><path d="m-180 25.249904v7" fill="none" stroke="#000" stroke-width=".59055" transform="translate(160 12.540961)"/><path d="m-153.5 26.749904-1 6.5" fill="none" stroke="#000" stroke-width=".59055" transform="translate(160 12.540961)"/><path d="m-205 26.749904 1 6" fill="none" stroke="#000" stroke-width=".59055" transform="translate(160 12.540961)"/><path d="m-230 32.749904 2 5.5" fill="none" stroke="#000" stroke-width=".59055" transform="translate(160 12.540961)"/><path d="m-255.5 42.249904 4 6" fill="none" stroke="#000" stroke-width=".59055" transform="translate(160 12.540961)"/><path d="m-263.5 56.249904 2.5 4" fill="none" stroke="#000" stroke-width=".59055" transform="translate(160 12.540961)"/><path d="m-240.5 43.749904 3 4.5" fill="none" stroke="#000" stroke-width=".59055" transform="translate(160 12.540961)"/><path d="m-215.5 35.749904 1 5.5" fill="none" stroke="#000" stroke-width=".59055" transform="translate(160 12.540961)"/><path d="m-194.5 32.249904v6.5" fill="none" stroke="#000" stroke-width=".59055" transform="translate(160 12.540961)"/><path d="m-163 33.249904-.5 6" fill="none" stroke="#000" stroke-width=".59055" transform="translate(160 12.540961)"/><path d="m-146.5 35.749904-1.5 6" fill="none" stroke="#000" stroke-width=".59055" transform="translate(160 12.540961)"/><path d="m-116 45.749904-2 5" fill="none" stroke="#000" stroke-width=".59055" transform="translate(160 12.540961)"/><path d="m-98.500001 54.249904-2.499999 4.5" fill="none" stroke="#000" stroke-width=".59055" transform="translate(160 12.540961)"/></g><g stroke="#000" stroke-width=".885825" transform="matrix(16667.26 0 0 16667.26 1984610.4520513206 -1463168.1588734596)"><path d="m582.84375 636.29096c-12.93293.00171-23.88304 2.85468-25.75 7.375-.79542 1.92588-.34516 7.96369.96875 13.375 1.31381 5.41131 1.81216 10.36364 1.09375 11.03125-.71854.66765-11.47864-.18637-23.9375-1.84375-33.16227-4.41157-50.6814-5.67632-69.90625-4.25v.6875c-10.60639.71978-22.84862 2.10755-38.71875 4.21875-12.45888 1.65738-23.21896 2.5114-23.9375 1.84375-.71842-.66761-.22006-5.61994 1.09375-11.03125 1.3139-5.41131 1.76417-11.44912.96875-13.375-1.86697-4.52032-12.81707-7.37329-25.75-7.375-4.31079-.00058-8.8503.29646-13.34375.96875-21.90335 3.27699-27.99997 7.08147-28 17.53125.00019 9.98024-1.85914 10.25092-33.40625 4.3125-14.58034-2.74465-31.85507-3.76972-53.21875-3.1875-35.19945.95922-43.65448 4.09013-29.53125 10.875 8.10528 3.89373 8.27681 4.2494 4.46875 11.03125-2.17716 3.8775-4.02188 9.03851-4.03125 11.375-.01538 3.87281 1.28036 3.88669 14.46875.625 18.8388-4.65907 32.13747-4.44426 53.5625.78125.00926-.00312.02199.0031.03125 0 1.05872.25824 1.89878.37275 3 .65625 20.80567 5.35622 44.20588 6.57237 51 2.9375l-.25-14.75c.08511-.00872.16475-.0226.25-.03125 6.25469-.63456 12.89097-1.13572 19.90625-1.40625.21618-.00834.43897.00766.65625 0-7.01528.27055-13.65156.77172-19.90625 1.40625l27.21875-1.59375.125 20.09375c3.59476 1.75755 8.41028 3.2175 14.53125 4.46875 10.66894 2.18098 22.28672 1.65459 46.84375-2.09375 21.58605-3.29484 41.39635-4.36894 63.15625-3.1875v-.78125c10.51808.52419 21.0232 1.6418 31.96875 3.3125 24.55703 3.74834 36.1748 4.27473 46.84375 2.09375 6.12097-1.25125 10.93648-2.7112 14.53125-4.46875l.125-20.09375c2.69502.03802 5.37316.08738 7.96875.1875 7.01528.27053 13.65155.77169 19.90625 1.40625.08525.00865.16488.02253.25.03125l-.25 14.75c6.79412 3.63487 30.19432 2.41872 51-2.9375 1.10122-.2835 1.94127-.39801 3-.65625.00926.0031.02198-.00312.03125 0 21.42503-5.22551 34.72369-5.44032 53.5625-.78125 13.18839 3.26169 14.48412 3.24781 14.46875-.625-.00937-2.33649-1.8541-7.4975-4.03125-11.375-3.80806-6.78185-3.63654-7.13752 4.46875-11.03125 14.12323-6.78487 5.66819-9.91578-29.53125-10.875-21.36368-.58222-38.63842.44285-53.21875 3.1875-31.54711 5.93842-33.40645 5.66774-33.40625-4.3125-.00003-10.44978-6.09666-14.25426-28-17.53125-4.49345-.67229-9.03297-.96933-13.34375-.96875zm7.125 41.53125 27.21875 1.59375c-6.25469-.63453-12.89098-1.1357-19.90625-1.40625-2.39448-.09234-4.83357-.14793-7.3125-.1875z" fill="#00a3e4" fill-rule="evenodd"/><g fill="none"><path d="m333.13188 663.46415c21.13693 1.33324 4.39024-11.31299 4.39024-11.31299"/><path d="m404.62983 646.20507c-1.14185.44015-71.94238 27.82043-.79963 22.86303"/><path d="m343.81322 660.31706-.10072 20.30507"/><path d="m371.91398 698.83223.32231-33.60006"/><path d="m628.65222 662.79819c-21.13693 1.33324-4.39024-11.31299-4.39024-11.31299"/><path d="m557.15427 645.53911c1.14185.44015 71.94238 27.82043.79963 22.86303"/><path d="m617.97088 659.6511.10072 20.30507"/><path d="m589.87012 698.16627-.32231-33.60006"/></g></g><text fill="#fff" font-family="Arial" font-size="22" font-weight="bold" transform="matrix(16667.26 0 0 16667.26 2092048.4767088406 -1613581.413394699)" xml:space="preserve"><textPath xlink:href="#a"><tspan fill="#fff" font-family="Arial" font-size="22" font-weight="bold">                                                                                      1726                        FLORIANPOLIS                1823</tspan></textPath></text></g></g></svg>