<svg height="257.33334" viewBox="0 0 257.33334 257.33334" width="257.33334" xmlns="http://www.w3.org/2000/svg"><g fill-rule="evenodd" transform="matrix(.13333333 0 0 -.13333333 0 257.33333)"><path d="m0 1927.56h1927.56v-1927.56h-1927.56z" fill="#fff"/><path d="m963.781 85.0391c-43.277 70.4959-87.242 139.5939-134.703 207.9959-31.414-5.586-63.519-13.965-95.625-16.055-25.129-1.398-49.558 2.79-71.89 15.356-33.508 18.844-63.516 42.574-90.043 69.797-27.915 30.711-55.137 67.703-71.891 106.09-47.461-17.45-96.316-30.016-146.566-32.805-60.032-2.793-104 10.465-152.161 41.18 36.297 21.636 70.496 44.672 100.508 77.472-27.219 18.153-48.855 38.387-64.914 65.614-16.051 25.82-23.726 55.832-32.101 85.152 13.261-7.68 22.335-13.266 35.593-20.246 27.227-13.957 51.653-19.539 80.969-18.145 48.156 1.395 93.523 18.145 136.797 36.293-37.691 29.317-76.082 56.532-115.863 80.266-46.762 28.617-94.926 52.348-144.477 76.078 39.082 26.527 79.566 53.043 115.164 86.551 43.274 42.574 70.492 94.227 75.379 155.647 4.188 56.53-15.355 99.11-46.066 133.31-32.106 34.2-75.379 60.03-119.356 82.36v525.57c127.735-43.97 254.063-82.36 386.68-106.79 117.953-21.64 234.515-32.8 354.566-32.8 120.049 0 236.609 11.16 354.569 32.8 132.61 24.43 258.95 62.82 386.67 106.79v-525.57c-43.97-22.33-87.25-48.16-119.35-82.36-30.71-34.2-50.25-76.78-46.06-133.31 4.88-61.42 32.1-113.073 75.37-155.647 34.9-33.508 75.38-60.024 115.16-86.551-49.55-23.73-97.71-47.461-144.47-76.078-39.78-23.734-78.87-50.949-115.87-80.266 43.28-18.148 88.65-34.898 136.11-36.293 30.01-1.394 54.44 4.188 80.97 18.145 13.95 6.98 23.03 12.566 36.29 20.246-8.38-29.32-16.06-59.332-32.11-85.152-16.75-27.227-38.38-47.461-64.91-65.614 30.01-32.8 64.21-55.836 100.51-77.472-48.16-30.715-92.13-43.973-152.16-41.18-50.25 2.789-97.71 15.355-145.18 32.805-25.82-38.387-48.85-73.289-77.47-103.301-25.83-28.613-51.65-53.742-85.15-72.586-21.64-12.566-48.16-16.754-72.59-15.356-32.11 2.09-64.21 10.469-95.62 16.055-47.46-68.402-91.44-137.5-134.709-207.9959" fill="#fff"/><path d="m963.781 116.445c-195.429 316.875-409.707 596.067-732.867 745.43 84.453 59.328 175.891 123.543 174.496 263.835-13.265 108.18-73.988 155.64-166.121 201.71v492.07c499.047-176.59 949.231-176.59 1448.981 0v-492.07c-92.13-46.07-153.55-93.53-166.12-201.71-1.39-140.292 89.34-204.507 174.49-263.835-323.16-149.363-537.43-428.555-732.859-745.43" fill="#db1f26"/><path d="m293.73 1357.43v385.98c218.469-69.8 440.422-110.98 670.051-110.98s451.589 41.18 670.049 110.98v-385.98c-205.9-115.86-218.46-338.51-38.39-487.176-272.9-157.047-464.15-391.563-631.659-652.606-164.718 256.856-359.453 503.235-631.66 652.606 77.477 52.348 130.52 159.136 124.938 252.666-4.891 90.73-60.032 181.47-163.329 234.51" fill="#fff"/><path d="m325.84 1381.16v317.58c204.5-67.7 420.875-101.21 637.941-101.21 217.059 0 433.439 33.51 637.939 101.21v-317.58c-187.05-106.78-231.72-363.64-57.93-506.023-242.89-137.504-435.53-360.149-580.009-593.274-147.968 238.012-336.422 448.094-580.011 593.274 166.816 136.103 136.105 409.713-57.93 506.023" fill="#231f20"/><path d="m1573.8 1661.05v-265.93c-196.82-67-403.42-88.64-610.019-88.64-203.109 0-417.383 18.85-610.023 88.64v265.93c196.828-60.73 404.121-90.04 610.023-90.04 205.899 0 412.499 29.31 610.019 90.04" fill="#fff"/><path d="m1458.64 1437v31.41c6.28.7 11.86 2.79 18.15 4.19-6.29 27.92-11.87 55.83-18.15 84.45v35.6c9.77 2.09 18.84 4.88 27.22 6.98 15.35-62.12 30.71-123.54 46.07-185.66-13.96-4.19-27.92-7.68-41.88-11.87-2.1 13.26-4.89 27.22-6.98 41.18-8.38-2.09-16.06-4.89-24.43-6.28zm0 155.65c-8.38-2.1-17.44-4.19-26.52-6.29-15.35-69.09-30.71-137.49-46.07-206.59v-2.1c13.26 2.8 27.22 5.59 40.48 9.08 2.79 13.95 5.59 29.31 8.38 43.97 8.38 2.09 16.05 4.19 23.73 6.28v31.41c-5.59-2.1-10.47-2.79-16.75-4.89 5.59 32.11 11.16 64.21 16.75 96.32 0-.7 0-2.09 0-2.79zm-72.59-46.07v30.01h.7c0-9.77 0-20.23 0-30.01zm0 30.01v-30.01c-13.96-2.79-27.22-5.58-41.17-8.38 0-55.83 0-112.37 0-168.21-14.67-2.09-29.32-4.88-42.58-6.97v168.21c-14.66-2.1-28.62-3.5-42.58-5.59v30.01c42.58 6.29 84.45 12.57 126.33 20.94zm0-196.82v-2.1c0-.7 0-.7 0-.7zm-772.652 28.61v30.71c5.582-.7 11.172-1.39 17.454-2.79-6.282 30.72-11.872 60.72-17.454 91.43v34.9c9.079-1.4 17.454-2.79 26.528-4.18 15.355-67.71 30.707-134.71 46.062-201.72-13.957 1.4-27.918 2.79-41.879 4.89-2.789 14.65-5.578 28.61-7.675 43.27-7.68 1.4-15.356 2.09-23.036 3.49zm228.934-2.09c0-23.03-5.578-39.09-16.051-48.86-10.468-10.47-27.914-13.95-50.254-12.56-23.73 1.4-39.785 7.68-50.949 18.84-10.473 11.87-16.055 28.62-16.055 51.65v134.01c14.657-.69 29.313-2.79 43.274-3.49 0-46.76 0-93.52 0-140.29 0-11.17 2.094-18.14 5.582-23.04 3.488-4.18 9.074-6.97 17.449-7.67 8.379-.7 14.66 1.39 18.145 5.59 3.496 4.18 4.894 11.86 4.894 23.03v138.89c15.356-1.39 29.309-1.39 43.965-2.79 0-44.67 0-89.34 0-133.31zm43.277-62.81v194.72c13.961 0 28.614-.69 41.879-.69 0-55.14 0-109.58 0-164.03h78.172c0-10.46 0-20.93 0-30.71-39.785 0-79.57 0-120.051.71zm147.271-.71v195.43c14.66 0 28.62.7 42.58 1.4 0-64.91 0-130.52 0-195.43-13.96 0-27.92-.69-42.58-1.4zm76.78 53.75c13.26 2.79 26.52 4.88 39.78 6.98 1.4-9.77 5.59-16.75 9.77-21.64 4.89-4.89 10.47-6.28 18.85-5.59 7.68 0 13.26 2.8 18.14 6.28 3.49 4.2 6.29 9.08 6.29 15.36 0 20.25-40.49 39.79-56.54 50.26-16.75 10.47-30.71 27.92-30.71 48.85 0 13.96 6.28 25.83 17.45 35.6 12.56 9.77 27.22 15.36 45.37 16.75 17.45 2.1 32.11-.69 42.57-7.68 10.48-6.97 16.75-17.44 19.55-32.8-13.26-2.79-25.83-5.59-38.39-8.37-2.1 7.67-4.89 13.25-8.38 16.75-4.89 4.18-9.77 5.58-16.05 4.88-6.98 0-12.56-2.79-16.05-6.28-4.89-4.19-6.28-9.07-6.28-15.35 0-16.06 18.14-25.83 30.01-32.81 16.75-10.47 33.5-20.94 46.07-35.6 8.37-9.77 11.85-19.54 11.85-28.61 0-14.66-5.58-27.92-18.14-38.39-11.87-10.47-27.92-17.45-46.76-18.15-19.54-2.09-34.9 2.09-46.77 10.47-12.56 9.08-19.54 21.64-21.63 39.09zm-642.832 106.78c6.281 0 12.563 0 17.445 2.8 6.282 3.49 9.778 11.17 9.778 23.03 0 9.77-3.496 18.85-9.074 25.13-5.586 4.88-11.164 8.37-18.149 11.17v26.52c23.031-7.68 39.785-15.36 50.254-25.83 13.258-11.86 19.543-27.92 19.543-48.85 0-18.85-6.285-31.41-19.543-38.39-11.867-6.28-28.617-7.68-50.254-2.79zm146.57 59.33-173.789-52.34v30.71 30.71c9.075-1.4 18.145-3.49 27.219-6.28v26.52c-4.187.7-9.074 2.09-13.265 2.79-18.84 5.58-37.684 11.17-56.536 16.75 0-66.31 0-132.61 0-198.22 13.961-4.19 28.621-8.38 42.582-12.57v41.19 40.48c7.676-2.1 14.657-3.49 21.633-5.58 2.102-.7 4.192-.7 5.586-.7v27.21c-9.074.71-19.543 3.5-27.219 6.99l173.789 52.34c-9.773 1.4-18.144 2.8-27.214 4.19-16.059-62.81-31.414-125.63-46.77-188.45 13.965-2.1 27.223-4.89 41.18-6.98 2.797 13.26 5.59 26.52 8.379 40.48 8.375-.69 16.054-2.09 24.425-3.49v30.71c-6.277.7-11.859 2.1-17.449 2.1 5.59 30.01 10.473 59.33 16.754 89.33 0-.69 0-2.09.695-2.79z" fill="#db1f26"/><path d="m1437 1247.15-4.88-11.16c-18.85-50.96-26.53-99.81-24.43-154.26l1.4-6.28-237.31-242.891v141.687zm-265.22 10.48v-141.7l191.94 196.84c-53.75-9.78-107.49-18.15-161.93-23.74zm0-651.907c95.61 106.09 203.1 199.613 326.65 274.297-23.74 25.828-43.98 54.445-58.63 85.156l-268.02-274.305zm0 226.836v141.687l-16.06-15.351c-2.09 34.894-12.56 76.075-34.9 105.395l50.96 51.64v141.7l-127.03-129.83c-37.7 18.84-84.461 24.43-124.941 13.26l134.011 138.2c-46.07-2.09-92.828-2.09-138.199-.7l-274.301-281.279v-140.988l134.008 136.801c-9.769-39.09-1.39-88.645 16.758-124.239l-147.273-150.761c24.425-22.332 48.156-45.367 71.191-69.098l141.684 145.18c34.207-21.637 65.609-30.711 106.093-32.809l-180.074-185.66c21.637-24.43 42.574-50.254 62.816-76.773zm0-141.688v-85.148c-76.08-83.758-144.48-175.196-206.6-270.114l-1.399-2.789-2.093 2.789c-18.149 27.918-36.293 55.84-55.836 83.059zm-530.46 448.089v142.39l15.356 16.06c41.875-6.28 83.058-9.78 124.937-13.27zm0-282.667-72.586-73.988c-18.148 14.66-36.296 27.918-55.14 41.179v43.274l127.726 130.523zm0 425.057v-142.39l-127.726-130.51v33.5c6.976 36.99 7.679 74.69 3.488 112.37zm-127.726 11.17v30.71c8.375-1.39 16.746-3.49 25.125-5.58zm0-469.036v43.274l-25.129-25.125c8.379-5.586 16.75-11.867 25.129-18.149zm0 499.746v-281.28c-3.492-16.06-7.684-31.41-13.262-47.462l13.262 13.962v33.5 281.28c-31.41 6.98-62.817 15.36-93.531 23.73 24.425-27.22 45.371-54.44 62.816-85.85l30.715 31.41z" fill="#fff"/><path d="m963.781 1124.31c93.529 0 170.309-77.47 170.309-170.306 0-93.527-76.78-171-170.309-171-94.226 0-170.308 77.473-170.308 171 0 92.836 76.082 170.306 170.308 170.306" fill="#db1f26"/><path d="m1043.35 832.559c-23.03-15.356-50.256-24.43-79.569-24.43-29.316 0-57.929 9.777-80.965 25.133 53.043 24.426 106.094 25.82 160.534-.703" fill="#fff"/><path d="m1043.35 1075.45c-52.354-23.73-104.698-25.82-158.44.7 23.031 14.66 50.254 23.03 78.871 23.03 29.313 0 56.539-8.37 79.569-23.73" fill="#fff"/><path d="m887.008 1008.45h-21.645c2.797 15.35 8.379 30.71 16.059 46.07-4.883 1.39-10.473 4.18-15.356 6.98-28.617-27.23-47.464-65.617-47.464-107.496 0-41.176 18.152-79.566 46.761-106.09 5.586 2.094 11.176 4.191 16.059 6.984-6.981 15.356-11.867 30.711-16.059 46.762h20.246c3.489-13.262 8.375-26.523 14.657-39.785 41.875 13.262 83.757 16.055 125.634 2.098 6.28 12.562 11.16 25.125 14.65 37.687h21.65c-2.8-15.355-9.08-30.711-16.76-46.066 5.59-2.793 11.17-4.887 16.76-8.375 28.61 26.523 46.76 64.906 46.76 106.785s-18.15 80.966-47.46 107.496c-5.59-2.1-11.17-4.2-16.06-6.29 5.59-16.05 11.17-31.41 15.36-46.76h-20.25c-2.78 13.26-8.37 26.52-13.25 39.78-41.882-13.96-83.761-16.75-126.335-2.09-5.586-12.57-10.469-25.13-13.957-37.69" fill="#fff"/><g fill="#231f20"><path d="m985.418 1000.07c9.773 0 17.452-3.488 22.332-10.468 4.19-6.981 6.28-18.848 6.28-34.895 0-16.75-2.09-28.621-6.28-36.297-4.88-6.285-12.559-10.469-22.332-10.469v13.262c3.492 0 6.281 2.094 7.676 6.981 1.394 4.183 2.097 13.257 2.097 26.523 0 11.863-.703 20.934-2.097 25.824-1.395 4.184-4.184 6.977-7.676 6.977zm-27.918-45.363c0-17.453 2.094-28.621 6.281-36.297 3.492-6.976 11.168-10.469 21.637-10.469v13.262c-4.188 0-6.98 2.094-7.68 6.981-2.097 4.183-2.097 13.257-2.097 26.523 0 11.863 0 20.934 2.097 25.824.7 4.184 3.492 6.977 7.68 6.977v12.562c-10.469 0-18.145-3.488-21.637-10.468-4.187-6.981-6.281-18.848-6.281-34.895"/><path d="m930.281 950.516c-2.793-2.793-5.586-3.485-7.679-4.883 0 0-.7 0-1.395-.699v12.566c1.395 0 2.09.691 3.488 1.395 2.09 0 3.489 1.394 5.586 2.789v2.789 5.59c0 6.281 0 11.164-2.097 13.96-1.399 2.79-3.489 4.184-6.977 4.184v12.563c9.77 0 17.445-4.188 21.637-10.469 4.187-6.981 6.281-18.844 6.281-35.594s-2.094-28.621-6.281-35.598c-4.192-6.281-11.867-9.773-21.637-10.468v12.562c3.488 0 6.281 2.094 6.977 4.883 2.097 3.492 2.097 11.871 2.097 24.43zm-9.074-5.582v-36.293 12.562h-.703c-3.488 0-5.578 1.399-6.281 3.488-2.09 2.098-2.793 4.887-2.793 9.774h-16.746v-.703c0-7.676 2.093-13.957 6.281-18.145 4.887-4.887 11.168-6.976 19.539-6.976h.703v36.293 12.566c-3.492 0-5.586 1.395-6.984 3.488-2.09 2.09-2.793 4.883-2.793 10.469 0 5.582.703 10.469 2.793 13.258.703 2.793 2.793 3.492 6.281 3.492h.703v12.563h-.703c-9.074 0-15.356-2.793-20.238-7.676-4.887-5.586-7.68-13.266-7.68-23.735 0-6.972 2.793-13.257 6.281-18.144 3.496-4.184 9.074-6.281 15.356-6.281z"/><path d="m883.516 910.039h-17.45v70.492h-16.058v8.371c3.5 1.399 6.984 2.098 10.472 4.192 3.489 2.09 6.981 3.488 10.469 6.281h12.567z"/><path d="m1059.4 950.516c-2.79-2.793-5.58-3.485-8.37-4.883 0 0-.7 0-1.4-.699v12.566c1.4 0 2.09.691 4.19 1.395 1.39 0 2.79 1.394 4.89 2.789.69 1.394.69 2.097.69 2.789v5.59c0 6.281-.69 11.164-2.79 13.96-1.4 2.79-3.49 4.184-6.98 4.184v12.563c9.77 0 17.45-4.188 21.64-10.469 4.19-6.981 6.98-18.844 6.98-35.594s-2.79-28.621-6.98-35.598c-4.19-6.281-11.87-9.773-21.64-10.468v12.562c3.49 0 6.28 2.094 6.98 4.883 2.1 3.492 2.79 11.871 2.79 24.43zm-9.77-5.582v-36.293 12.562h-.7c-3.49 0-5.58 1.399-6.28 3.488-2.1 2.098-2.1 4.887-2.1 9.774h-17.44v-.703c0-7.676 2.09-13.957 6.28-18.145 5.58-4.887 11.16-6.976 19.54-6.976h.7v36.293 12.566c-3.49 0-5.58 1.395-6.98 3.488-2.1 2.09-2.1 4.883-2.1 10.469 0 5.582 0 10.469 2.1 13.258.7 2.793 2.79 3.492 6.28 3.492h.7v12.563h-.7c-8.38 0-15.35-2.793-20.24-7.676-4.19-5.586-6.98-13.266-6.98-23.735 0-6.972 2.09-13.257 5.59-18.144 3.48-4.184 9.07-6.281 16.05-6.281z"/><path d="m963.082 519.172c109.578 0 219.158-23.727 265.228-32.801 36.3-8.379 74.68-15.355 115.17-15.355 27.91 0 57.93 9.074 69.09 37.687 0-.699 8.38-3.488 8.38-3.488 69.1-29.317 186.35-56.539 261.04-20.242 3.49-2.094 5.58-4.188 11.87-6.981-76.09-48.859-200.32-18.844-277.8 11.867-13.95-24.429-48.15-32.109-73.98-32.109-42.58 0-83.06 6.984-119.35 14.66 0 0-164.72 32.805-259.648 32.805-95.621 0-259.641-32.805-259.641-32.805-37.695-7.676-77.476-14.66-119.351-14.66-26.527 0-60.031 7.68-74.684 32.109-77.476-30.711-201.019-60.726-277.093-11.867 6.281 2.793 7.675 4.887 11.859 6.981 73.988-36.297 191.246-9.075 261.043 20.242 0 0 6.984 2.789 8.379 3.488 11.168-28.613 40.48-37.687 68.398-37.687 40.485 0 79.571 6.976 115.863 15.355 46.067 9.074 154.95 32.801 265.227 32.801"/><path d="m471.715 691.57c-32.106-14.656-62.117-27.218-92.133-33.5-52.348-12.566-100.508-13.961-147.973 12.563 2.797-9.074 4.887-16.754 7.68-21.637 49.563-20.242 89.344-18.848 143.086-6.281 33.504 8.375 67.703 21.637 102.602 37.691z"/></g><path d="m498.934 667.84c-41.18-18.844-95.621-37.692-154.25-46.762-56.536-9.074-95.621 9.77-95.621 9.77s23.031-43.973 78.171-72.586c-20.238-25.129-42.578-44.672-69.093-63.52 9.765-3.488 32.8-12.562 73.281-12.562 54.441 0 118.656 12.562 183.562 42.578 0 0 6.985 26.519 72.594 61.418-27.223 28.621-57.933 55.84-88.644 81.664" fill="#db1f26"/><path d="m600.836 572.914c-32.102-14.652-71.191-37.684-68.398-63.512 2.093-19.543 24.429-23.734 53.042-23.734 28.622 0 61.426 6.285 85.153 11.172-23.031 25.824-45.363 51.648-69.797 76.074" fill="#231f20"/><path d="m1455.15 690.176c30.71-13.961 61.42-25.824 91.43-32.106 52.35-12.566 99.81-13.961 147.28 11.864-2.8-8.375-4.89-14.657-7.68-19.543-48.86-20.942-89.34-20.243-142.39-7.676-33.5 8.375-67 20.937-101.21 36.992z" fill="#231f20"/><path d="m1427.93 667.141c41.18-18.145 95.62-37.692 153.55-46.063 56.54-9.074 94.92 9.77 94.92 9.77s-23.03-45.368-78.86-71.891c20.23-25.125 43.27-45.367 69.09-64.215-8.37-3.488-31.41-12.562-71.89-12.562-55.13 0-118.65 12.562-182.87 42.578 0 0-7.67 26.519-73.28 60.722 28.62 28.614 58.63 55.836 89.34 81.661" fill="#db1f26"/><path d="m1326.73 572.914c31.4-14.652 69.79-36.988 67-62.113-2.79-20.242-24.43-24.43-53.75-24.43-27.21 0-59.32 5.582-83.05 10.469 23.03 26.519 45.37 51.648 69.8 76.074" fill="#231f20"/><path d="m509.406 489.164c6.977-30.711 71.891-137.5 160.535-182.871v.699s9.075-3.492 36.289-3.492c40.485 0 115.864 31.41 257.551 31.41 141.689 0 217.059-31.41 257.549-31.41 27.22 0 36.3 3.492 36.3 3.492l11.86 7.68c54.44 37.687 136.8 152.152 147.28 175.187s-.71 0-.71-.695c-14.65-23.734-48.15-31.414-73.98-31.414-42.58 0-83.06 6.984-119.35 14.66 0 0-164.72 32.805-259.648 32.805-95.621 0-259.641-32.805-259.641-32.805-37.695-7.676-77.476-14.66-119.351-14.66-26.527 0-59.328 7.68-74.684 31.414" fill="#fff"/><path d="m686.691 318.855c54.438 0 155.641 34.899 274.301 34.899 117.258 0 219.158-34.899 273.608-34.899 18.84 0 43.27.7 57.22 13.965 37.7 34.895 80.97 89.336 105.4 125.633v.695c-6.98-6.98-24.43-16.753-57.24-16.753-138.89 0-202.41 45.371-378.988 45.371-177.285 0-241.5-45.371-379.695-45.371-29.317 0-47.461 8.378-57.934 15.355 20.242-36.992 60.028-91.43 110.973-129.82 14.66-10.465 34.902-9.075 52.355-9.075" fill="#db1f26"/><path d="m963.781 334.91c-141.687 0-217.066-31.41-257.551-31.41-27.214 0-36.289 3.492-36.289 3.492s17.446-13.262 55.137-13.262c38.387 0 123.535 27.918 238.703 27.918 115.169 0 199.619-27.918 238.709-27.918 37.69 0 55.14 13.262 55.14 13.262s-9.08-3.492-36.3-3.492c-40.49 0-115.86 31.41-257.549 31.41" fill="#231f20"/><path d="m1219.93 340.496v96.317l21.64-2.094v-97.016zm-65.6 32.801v15.355l9.07-2.089-9.07 45.363v16.75l13.96-2.09 23.03-100.508-21.64 3.488-2.79 21.641zm65.6 69.801v13.257c6.99-2.093 14.67-2.792 21.64-4.187v-11.863zm-65.6 5.578-13.26 2.793-23.04-92.828 20.24-3.493 4.89 20.243 11.17-2.094v15.355l-8.38.7 8.38 43.968v-1.394zm-156.346-76.778v14.665h2.086c2.1 0 3.5 1.394 4.89 2.789 2.79 2.097 4.19 5.582 5.59 10.464.7 5.59 1.39 11.172 1.39 19.547 0 7.676-.69 14.66-1.39 19.543-1.4 4.887-2.8 9.074-5.59 11.168-1.39 1.395-2.79 2.793-4.89 3.489-.691 0-1.394 0-2.086.699v13.261c4.886 0 8.366-.699 11.856-2.093 4.89-1.399 9.08-3.489 12.57-6.977 4.19-4.191 6.98-9.777 9.77-16.058 1.4-6.282 2.79-13.957 2.79-23.727 0-9.777-1.39-18.148-2.79-24.43-2.79-5.586-5.58-10.468-9.77-14.66-3.49-2.793-7.68-4.883-12.57-6.281-3.49-.695-6.97-1.399-11.856-1.399zm70.496-6.976v97.019l21.63-2.793v-97.015zm-70.496 102.601c-2.793.7-5.589.7-9.074 1.399l-25.828.695v-96.32l25.828-1.399h9.074v14.665c-2.093-.704-4.89-.704-9.074 0h-4.887v68.394l4.887-.695h9.074zm-140.296-101.203v97.016l20.246 1.398c8.371-16.058 16.75-32.109 25.125-48.859 2.793-4.887 3.488-7.676 4.882-12.562-.695 5.578-1.394 9.074-1.394 14.652v49.558l19.543 2.094v-97.015l-18.149-2.098c-9.074 18.148-18.148 35.598-27.222 53.742-2.09 4.887-4.18 6.984-4.883 12.567.703-6.977.703-11.168.703-18.145v-50.953zm-37.688 23.731c0-11.168-2.793-19.547-8.375-25.129-5.582-6.281-13.961-11.168-25.828-12.563-11.859-2.093-20.238-.695-25.125 3.493-5.586 4.183-8.375 11.863-8.375 23.031v67l21.641 2.793v-69.098c0-5.582 1.39-9.074 2.785-10.469 2.097-1.394 4.89-2.089 9.074-1.394 4.191 0 6.984 2.098 9.773 4.887 1.399 2.093 2.094 6.281 2.094 11.863v69.098l22.336 2.792v-66.304l-103.996-21.637c0-6.984-.699-12.562-1.399-16.055-1.394-3.492-3.488-6.281-6.98-9.074-2.094-1.394-5.578-2.789-9.074-4.887-3.488-.695-8.375-2.089-13.258-2.789-1.398-.699-4.191-.699-7.676-.699-.699 0-.699 0-.699 0v14.656h1.395 2.789c4.886 1.399 9.074 2.098 10.472 4.188 1.395 2.098 2.797 5.586 2.797 11.168v70.496l21.633 2.789v-69.793z" fill="#fff"/></g></svg>