<svg enable-background="new 0 0 4000 3000" height="3000" viewBox="0 0 4000 3000" width="4000" xmlns="http://www.w3.org/2000/svg"><path d="m0 0h4000v3000h-4000z" fill="#007736"/><path d="m0 1516.438h4000v753.123h-4000z" fill="#008acd"/><path d="m1393.043 661.537c-1.647-28.695-5.562-57.571-11.635-85.825-6.073-28.256-14.369-56.19-24.657-83.027-1.48-3.86-5.173-6.308-9.168-6.308-.684 0-1.377.071-2.069.22l-36.212 7.783c-27.534-65.864-67.763-124.094-119.732-173.304l20.104-31.112c2.627-4.065 1.901-9.439-1.71-12.662-43.275-38.61-92.082-70.148-145.065-93.738-1.292-.575-2.65-.851-3.991-.851-3.249 0-6.396 1.615-8.255 4.493l-20.105 31.113c-61.73-25.31-126.748-38.137-193.387-38.137-4.579 0-9.197.063-13.806.188l-7.784-36.215c-.978-4.548-4.998-7.759-9.598-7.759-.188 0-.378.005-.568.016-28.691 1.646-57.567 5.561-85.827 11.634-28.26 6.075-56.194 14.37-83.026 24.658-4.521 1.733-7.105 6.502-6.088 11.237l7.783 36.212c-65.863 27.534-124.092 67.763-173.304 119.732l-31.113-20.104c-1.638-1.059-3.489-1.573-5.326-1.573-2.721 0-5.411 1.128-7.335 3.284-38.611 43.277-70.15 92.083-93.739 145.065-1.969 4.422-.423 9.619 3.643 12.247l31.113 20.104c-27.16 66.218-39.911 135.835-37.951 207.195l-36.213 7.783c-4.733 1.018-8.02 5.333-7.742 10.167 1.646 28.691 5.561 57.568 11.634 85.826 6.074 28.26 14.37 56.194 24.657 83.026 1.48 3.86 5.173 6.309 9.168 6.308.684 0 1.377-.071 2.069-.22l36.213-7.783c27.533 65.863 67.763 124.092 119.731 173.304l-20.105 31.112c-2.627 4.065-1.901 9.439 1.71 12.662 43.277 38.612 92.085 70.151 145.067 93.738 1.292.576 2.65.851 3.99.851 3.249 0 6.396-1.615 8.256-4.493l20.105-31.112c61.734 25.31 126.753 38.137 193.39 38.137 4.578 0 9.196-.063 13.804-.188l7.784 36.215c.978 4.547 4.998 7.759 9.598 7.759.188 0 .379-.005.569-.016 28.698-1.648 57.574-5.562 85.824-11.634 28.252-6.072 56.187-14.368 83.027-24.658 4.521-1.734 7.105-6.503 6.088-11.237l-7.784-36.214c65.862-27.531 124.091-67.76 173.304-119.73l31.112 20.103c1.638 1.059 3.489 1.573 5.327 1.573 2.72 0 5.411-1.127 7.334-3.284 38.612-43.274 70.15-92.082 93.739-145.066 1.969-4.422.423-9.619-3.643-12.246l-31.112-20.104c27.16-66.218 39.91-135.835 37.95-207.195l36.213-7.783c4.735-1.017 8.022-5.332 7.744-10.167zm-141.784 107.129c-.869 4.737-5 8.053-9.651 8.053-.586 0-1.182-.053-1.779-.162l-381.613-69.831 220.463 319.218c3.082 4.462 1.964 10.579-2.498 13.663-45.576 31.503-96.371 53.427-150.974 65.164-29.297 6.296-59.215 9.49-88.922 9.49-25.253 0-50.654-2.311-75.496-6.867-5.335-.978-8.868-6.095-7.891-11.43l69.829-381.604-319.214 220.456c-1.704 1.177-3.648 1.741-5.573 1.741-3.117 0-6.183-1.481-8.09-4.239-31.504-45.578-53.429-96.374-65.165-150.976-11.736-54.603-12.618-109.921-2.623-164.419.869-4.737 5-8.053 9.651-8.053.586 0 1.182.053 1.779.163l381.603 69.83-220.457-319.213c-3.083-4.462-1.965-10.579 2.497-13.663 45.58-31.506 96.376-53.431 150.978-65.167 29.297-6.297 59.215-9.489 88.922-9.489 25.253 0 50.653 2.31 75.495 6.866 5.335.979 8.867 6.095 7.891 11.43l-69.83 381.611 319.218-220.461c1.704-1.176 3.648-1.741 5.574-1.741 3.118 0 6.183 1.48 8.09 4.238 31.503 45.577 53.427 96.372 65.164 150.975 11.734 54.603 12.617 109.92 2.622 164.417z" fill="#cc2b00" stroke="#000" stroke-miterlimit="10" stroke-width="4"/><path d="m738.191 1388.465h-18.797v-70.841c-6.868 6.421-14.962 11.171-24.283 14.249v-17.058c4.905-1.605 10.235-4.649 15.988-9.131 5.753-4.481 9.7-9.71 11.84-15.687h15.252z"/><path d="m829.971 1314.413-18.195 2.007c-.446-3.746-1.605-6.511-3.479-8.295-1.873-1.783-4.304-2.676-7.292-2.676-3.97 0-7.325 1.784-10.068 5.352-2.742 3.568-4.471 10.994-5.184 22.276 4.683-5.529 10.502-8.295 17.459-8.295 7.849 0 14.571 2.988 20.169 8.964 5.596 5.977 8.395 13.691 8.395 23.146 0 10.034-2.943 18.085-8.83 24.148-5.887 6.066-13.446 9.098-22.677 9.098-9.9 0-18.04-3.846-24.417-11.539-6.378-7.692-9.566-20.303-9.566-37.828 0-17.972 3.322-30.928 9.967-38.866s15.274-11.907 25.888-11.907c7.447 0 13.613 2.085 18.496 6.255 4.885 4.168 7.996 10.222 9.334 18.16zm-42.612 41.006c0 6.11 1.405 10.826 4.214 14.148s6.021 4.983 9.633 4.983c3.479 0 6.377-1.359 8.696-4.08 2.318-2.72 3.479-7.18 3.479-13.379 0-6.377-1.249-11.049-3.746-14.015-2.498-2.966-5.619-4.448-9.365-4.448-3.612 0-6.667 1.416-9.165 4.247-2.498 2.834-3.746 7.015-3.746 12.544z"/><path d="m842.748 1363.246 18.73-1.94c.535 4.237 2.118 7.593 4.75 10.067 2.631 2.476 5.663 3.713 9.098 3.713 3.924 0 7.247-1.594 9.967-4.783 2.72-3.188 4.081-7.994 4.081-14.416 0-6.02-1.35-10.535-4.047-13.546-2.699-3.01-6.211-4.515-10.536-4.515-5.396 0-10.235 2.386-14.516 7.157l-15.252-2.208 9.633-51.04h49.703v17.593h-35.454l-2.943 16.657c4.191-2.096 8.473-3.144 12.844-3.144 8.339 0 15.408 3.033 21.206 9.098 5.797 6.065 8.696 13.937 8.696 23.613 0 8.072-2.341 15.275-7.024 21.607-6.378 8.652-15.23 12.977-26.557 12.977-9.054 0-16.434-2.43-22.142-7.291-5.712-4.86-9.123-11.393-10.237-19.599z"/><path d="m918.94 1363.246 18.73-1.94c.535 4.237 2.118 7.593 4.75 10.067 2.631 2.476 5.663 3.713 9.098 3.713 3.924 0 7.247-1.594 9.967-4.783 2.72-3.188 4.081-7.994 4.081-14.416 0-6.02-1.35-10.535-4.047-13.546-2.699-3.01-6.21-4.515-10.536-4.515-5.396 0-10.235 2.386-14.516 7.157l-15.252-2.208 9.633-51.04h49.703v17.593h-35.454l-2.943 16.657c4.191-2.096 8.473-3.144 12.844-3.144 8.339 0 15.408 3.033 21.206 9.098 5.797 6.065 8.696 13.937 8.696 23.613 0 8.072-2.341 15.275-7.024 21.607-6.378 8.652-15.23 12.977-26.557 12.977-9.054 0-16.434-2.43-22.142-7.291-5.711-4.86-9.122-11.393-10.237-19.599z"/><path d="m478.631 928.92c-21.783-.053-8.248-22.188-2.757-32.605 37.792-71.714 58.507-157.88 63.588-237.823.284-10.325 3.446-26.573.284-36.215-2.074-4.796-2.904-8.688-7.848-10.341-3.021-1.757-5.096-1.612-8.665-2.035-5.101-.703-10.062-1.249-15.146-1.393-1.106-.664-1.106-.664-10.176-2.335-10.467-5.896-7.583-40.466-1.937-49.842 11.29-7.154 43.488-35.519 50.24-11.831 1.515 2.916 2.742 4.274 5.363 6.205 1.796 2.884 12.664 2.625 14.457-.262 3.023-4.151 5.79-16.125 10.322-17.197 7.987-.727 15.404-2.943 23.955-3.061 1.368 0 2.742 0 4.114-.142 12.254.724 26.571-.671 37.178 5.678 1.775 3.41 3.57 8.493 5.641 12.38 4.944 5.627 15.143 8.089 22.284 5.083 17.216-1.807 7.035-23.684 27.117-23.14 6.189.724 6.189.724 11.446.724 11.257 2.194 25.712 1.066 37.142 1.066 7.423 2.89 7.563 16.268 13.1 21.755 3.151 4.817 17.204 2.887 21.735 2.602.55-.119 1.234-.261 1.901-.527 2.48 0 8.145.122 9.092-2.741 12.788-12.801-1.474-17.341 22.016-23.145 9.092-9.088 9.092-94.862-2.217-102.97-22.14-2.212-48.977 4.963-71.255 7.297-33.87 1.936-60.848 8.635-90.987 24.357-26.149 7.83-27.947-.686-23.267-24.634 1.371-39.918-.97-87.563 27.119-119.339 34.273-11.449 70.886-17.886 102.261-37.454 17.866-5.628 38.95-4.382 57.259-6.577 6.17-5.085 1.668-32.785 24.091-21.616 6.752 6.173 6.171 9.636 2.881 17.887 0 69.901 0 69.901.55 102.541v18.413c.261 20.132.577 40.344.981 60.603 0 8.65 0 49.702.144 58.526.526 26.695-.548 23.089 24.762 24.76 8.403 4.555 4.133 17.463 11.568 21.881 6.753 3.024 21.876 6.753 26.818.137 3.87-4.956 4.15-8.83 4.958-15.265 5.082-13.765 58.069-11.026 65.227.808 3.056 11.027 4.29 15.269 15.987 16.94 22.42-.686 10.899-20.083 27.097-25.446 20.665 0 52.863-8.283 66.894 10.321 2.077 5.344 2.077 10.565 8.162 12.908 3.149 3.202 16.198 2.476 21.017 1.808 15.035-2.885 7.7-18.322 24.815-16.246 40.425 15.435 54.604 12.959 47.585 62.078-5.101 11.976-24.234 12.379-26.432 23.542 4.147 97.145 32.499 188.998 77.658 274.71 6.752 21.873 21.032 31.745-5.681 31.633zm0 0" fill="#2c2c2b"/><g fill="#f7f7f7"><path d="m994.775 916.136c-17.461 0-35.118-.142-52.722-.279-6.753 0-13.504-.122-20.205-.267h-19.713c-6.171 0-8.654-2.333-11.538-7.159-.844-36.59 6.84-67.577-14.579-97.066-26.168-20.208 4.943-31.924 16.917-53.925 10.992-14.595 52.549-70.322 31.515-79.815-3.327 0-37.862-.866-29.759-11.027 12.382-1.815 25.625-1.353 38.129-1.669 20.681-12.93-8.952-51.339 25.074-53.129 26.292-4.24 56.962.262 83.656.582 13.91 7.434 9.641 62.214 10.885 80.102 6.224 47.354 13.384 100.872 33.044 144.904 5.91 26.43 24.357 49.579 29.051 75.462-4.413 2.886-6.485 3.008-11.449 3.287h-108.306zm0 0"/><path d="m786.506 853.64c0 6.349.14 12.655.284 19.132 0 15.722 7.016 35.805-9.778 41.96-45.109-.409-92.465 1.807-137.629-.528-13.063 0-51.472 6.872-47.476-15 12.797-29.986 26.432-63.171 32.62-95.525 10.462-21.072 9.636-53.267 15.684-76.095-1.228-21.191 5.1-42.802 3.451-64.152.543-14.842-4.54-39.519 7.841-50.506 19.412-2.747 78.203-9.902 84.236 10.987 1.794 41.191-1.935 41.59 39.799 41.59 15.387 9.777-18.33 8.376-22.195 8.653-20.75 10.341 24.67 64.96 30.564 74.896 5.081 6.459 42.908 45.483 32.905 51.738-23.763 14.898-29.758 25.204-30.306 52.85zm0 0"/><path d="m1156.755 906.216c18.874 0 37.862.14 56.858.288 2.745 1.123 3.462 2.738 3.462 5.626-3.324 4.409-69.816 4.814-75.727 1.93-7.277-9.229 10.045-8.372 15.407-7.844zm0 0"/><path d="m550.208 913.111c-6.328-.141-61.671 5.486-53.267-8.549 5.785-3.428 62.2-2.621 66.332 2.889 0 7.281-7.42 5.519-13.065 5.66zm0 0"/><path d="m804.708 911.039c-16.529-4.132-7.702-56.855-7.031-71.715 8.248-28.893 37.734-33.452 64.026-25.48 6.559 5.675 11.38 12.833 15.673 20.395 1.384 12.243 6.345 72.265-1.956 76.672-12.096-2.333-7.685-63.624-9.759-76.672-14.579-24.761-48.046-20.663-54.92 7.16-.406 11.834 3.462 64.956-6.033 69.64zm0 0"/><path d="m1140.949 894.121c-4.677-2.889-5.487-5.772-.53-8.691 6.157 0 74.862-7.297 59.688 7.877-15.794 3.82-42.226.814-59.158.814zm0 0"/><path d="m504.785 891.501c-4.679-2.342-4.134-5.083-1.375-8.405 14.722-.827 66.475-6.178 70.47.98 0 13.051-65.246 7.425-69.095 7.425zm0 0"/><path d="m1129.521 872.914c-3.871-1.67-4.135-3.148-2.888-7.021 6.895-5.225 52.46-1.495 63.027-1.495 5.821 1.354 4.958 4.964 1.532 7.97-1.532.404-1.532.404-61.671.546zm0 0"/><path d="m517.165 867.689c-3.994-2.342-3.712-6.088.278-8.55 10.185-.278 56.438-6.718 61.937.721 0 12.643-52.297 7.563-62.215 7.829zm0 0"/><path d="m1159.55 852.562c-8.828-.141-41.319 4.823-43.083-5.943 4.677-7.703 60.142-4.416 65.084-.265.001 9.762-14.842 6.067-22.001 6.208zm0 0"/><path d="m581.862 839.729c-17.077-4.276-49.133 11.025-58.367-4.418 0-11.834 64.98-4.361 66.614-2.74 0 6.889-1.634 7.158-8.247 7.158zm0 0"/><path d="m1161.894 832.849c-5.942-.141-67.177 6.067-56.589-9.053 7.016-2.343 60.808-3.874 66.227 2.881-.001 6.172-3.888 6.172-9.638 6.172zm0 0"/><path d="m566.72 816.059c-4.416 0-46.794 5.136-34.959-8.658 2.744-.404 2.744-.404 62.216.41 4.682 2.335 3.17 6.033-.14 8.248zm0 0"/><path d="m1100.342 810.291c-2.602-2.604-4.273-5.896-.122-8.424 10.022-.127 57.926-7.425 59.863 4.41-1.127 1.938-1.127 1.938-2.342 2.936-7.28.533-7.28.533-57.399 1.078zm0 0"/><path d="m1098.007 791.96c-17.326-17.317 48.038-9.899 54.391-9.899 4.218 1.938 3.815 6.208.263 8.285-17.92.265-36.912-.719-54.654 1.614zm0 0"/><path d="m580.071 790.89c-5.93 0-11.839 0-17.906.122 0 0-33.996 4.555-24.356-7.556 1.512-.673 75.163-10.166 65.244 6.309-7.564 1.125-15.279.987-22.982 1.125zm0 0"/><path d="m1092.379 771.62c-4.823-1.125-4.684-5.223-1.936-8.425 5.888-.527 65.222-7.969 62.758 4.551-4.814 7.304-50.645 3.733-60.822 3.874zm0 0"/><path d="m594.102 770.225c-5.766 0-67.02 5.663-48.853-9.51 0 0 61.107-7.565 64.416 6.082-3.446 5.082-9.354 3.428-15.563 3.428zm0 0"/></g><path d="m691.138 759.374c-8.949-3.199-12.114-1.26-16.231-10.901-.422-18.555-11.852-104.301 27.666-82.021 14.031 10.569 8.949 39.393 8.122 54.52 4.822 24.089 4.414 36.733-19.557 38.402zm0 0" fill="#2c2c2b"/><path d="m965.882 678.029c2.337-3.149 3.993-6.494 6.469-9.644.545-.259 1.096-.544 1.621-.984 10.906-2.039 13.913 2.203 22.016 4.134 8.973 13.505 8.828 67.444.459 80.811-4.555 1.089-6.892 2.879-12.696 3.165-2.884.118-5.626.259-8.371.405-18.61-4.555-10.907-62.225-9.498-77.887zm0 0" fill="#2c2c2b"/><path d="m599.747 751.093c-45.969-.547-45.969-.547-51.753-1.091-4.113-3.285-3.291-6.068.963-8.106 46.677.285 46.677.285 61.254.812 9.917 7.434-6.875 8.385-10.464 8.385zm0 0" fill="#f7f7f7"/><path d="m1086.307 749.052c-4.553-2.654-4.148-6.752.408-8.54 60.263 0 60.263 0 61.672.398 2.887 3.465 3.147 6.207-1.409 7.968-20.204 0-40.409 0-60.671.174zm0 0" fill="#f7f7f7"/><path d="m611.722 730.061c-19.132-.436-38.386-.858-57.666-1.266-4.536-1.935-6.189-6.208-.967-8.813 41.575.723 41.575.723 61.534 1.535 5.364 3.145 2.202 8.226-2.901 8.544zm0 0" fill="#f7f7f7"/><path d="m1137.483 730.061c-9.902-.142-53.934 3.431-59.014-3.729 0-13.186 62.48-5.626 65.363-1.669-.546 4.131-2.742 4.962-6.349 5.398zm0 0" fill="#f7f7f7"/><path d="m867.331 718.084c-6.346-15.839 28.771-9.357 16.651-.313-5.483.001-11.024.176-16.651.313zm0 0" fill="#f7f7f7"/><path d="m837.874 712.548c-14.031-10.448 2.765-47.62 11.134-15.269-.406 8.248-1.762 14.597-11.134 15.269zm0 0" fill="#f7f7f7"/><path d="m804.708 712.422c-13.102-7.031 5.223-7.843 5.223-.686-1.091.544-1.091.544-5.223.686zm0 0" fill="#f7f7f7"/><path d="m609.382 710.348c-17.881-.805-35.926-1.754-53.951-2.745-9.095-1.758-2.342-7.838 3.588-8.653 6.051.286 70.04-4.273 55.04 10.709-1.512.143-3.019.405-4.677.689zm0 0" fill="#f7f7f7"/><path d="m1080.396 708.324c-3.599-2.074-4.006-2.216-3.599-6.486 3.166-3.467 63.165-9.5 64.957 3.028-10.018 7.155-58.067 3.458-61.358 3.458zm0 0" fill="#f7f7f7"/><path d="m1077.343 687.788c-3.554-2.479-4.098-5.492-.545-8.406 12.381-2.48 51.506-2.883 56.321-.549 10.85 14.455-49.432 8.829-55.776 8.955zm0 0" fill="#f7f7f7"/><path d="m608.698 687.118c-5.923-.142-62.362 5.365-53.125-8.562 7.156-3.552 59.174-3.147 62.619 3.16 0 6.072-4.677 5.14-9.494 5.402zm0 0" fill="#f7f7f7"/><path d="m1074.594 666.716c-2.619-1.612-3.689-4.134-1.928-7.158 5.258-3.812 56.992-2.479 60-1.353 12.115 15.263-51.173 8.511-58.072 8.511zm0 0" fill="#f7f7f7"/><path d="m558.456 655.022h58.774c3.866 2.462 3.729 6.066-.405 8.55h-57.806c-4.27-2.484-5.523-6.088-.563-8.55zm0 0" fill="#f7f7f7"/><path d="m927.476 618.813c-2.943-5.446-13.277-9.02-20.42-7.447-22.772.366-123.673 4.182-130.044 3.491-26.781-2.909-36.336 32.321-20.893 36.194 5.485-.253 139.563-2.253 157.086-.204.558.128 1.138.244 1.746.345 18.872-2.602 12.788-15.582 12.525-32.379z" fill="#f7f7f7"/><path d="m1104.493 644.298c-5.941-.126-38.672 4.821-32.235-8.147 4.818-2.883 55.187-2.301 60.004.586 8.017 12.112-22.826 7.561-27.769 7.561zm0 0" fill="#f7f7f7"/><path d="m604.161 643.044c-.825 0-48.871 6.753-47.356-7.027 2.075-2.029 71.167-10.979 61.247 5.675-3.847 1.934-9.633 1.212-13.891 1.352zm0 0" fill="#f7f7f7"/><path d="m559.425 624.04c-3.716-3.697-4.399-6.299.542-8.779 9.089 0 57.54-5.222 61.534 1.672.001 12.096-52.581 6.98-62.076 7.107zm0 0" fill="#f7f7f7"/><path d="m1071.715 622.012c-2.887-1.385-3.728-2.794-3.728-5.803 3.057-6.171 55.761-4.547 60.983-1.927 2.357 3.054 1.355 6.201-2.197 7.591-18.323 0-36.596 0-55.058.139zm0 0" fill="#f7f7f7"/><path d="m827.533 513.248c-4.695-18.994-1.35-82.75-1.494-102.832 0-15.574-.139-31.108-.261-46.69-.459-59.015-.459-59.015-.139-81.435 2.74-3.732 4.502-.58 4.957 2.62.121 6.295.267 12.64.404 18.988v8.248c0 6.614.122 13.191.267 19.944 0 17.055.14 34.17.261 51.229.139 18.146.284 36.327.423 54.604v.453c0 8.372.123 16.917.26 25.434.143 5.359.267 42.999.406 48.484-1.756 1.532-2.619 1.94-5.084.953zm0 0" fill="#fff"/><path d="m635.812 448.95c-3.302-3.271.83-54.92 1.114-66.211 4.677-23.11 4.677-42.101 22.84-59.882 25.187-9.778 54.625-13.734 78.309-26.835 11.03-3.958 75.583-29.697 64.013 2.341-1.937 21.615-4.818 43.083-8.406 64.837 0 17.923 16.109 35.241 16.109 53.11-55.607 9.638-114.92 3.2-165.992 31.974-2.621.137-5.241.399-7.987.666zm0 0" fill="#fff"/><path d="m689.768 410.156c-7.442-7.038 1.512-17.923-9.499-22.28-30.703 5.629-20.096-4.695-15.419-36.791 4.552-10.588 23.684-1.071 24.373-11.114-14.594-31.974 17.604-22.596 43.224-24.097 13.051 5.771-4.151 24.764 16.917 17.344 21.21-12.699 8.513 30.507 7.3 40.463-3.729 5.626-19.94.544-26.293 6.84-1.388 6.634 2.482 16.129-3.462 20.665-12.381 2.88-24.761 5.942-37.141 8.97zm0 0" fill="#e11c2d"/><path d="m703.537 396.365c-12.66-3.691.688-20.925-13.361-20.925-21.191 6.087-16.234 2.918-13.209-17.462 18.446-6.894 30.001 1.246 21.474-23.423 0-9.624 23.248-6.562 25.463-4.399 1.531 21.648.842 19.455 19.798 16.971 5.948 1.071 3.203 13.593.583 16.199-25.748 6.752-24.532 1.93-27.556 25.074-3.555 5.908-6.034 7.299-13.192 7.965zm0 0" fill="#fff"/><path d="m817.089 324.794c0 6.612 0 13.239.12 19.993v.931c-.399 0-.399 21.07 0 21.07 0 34.806-1.933 31.249-13.36 1.354 0-9.232 3.056-16.651 4.549-25.57.126-9.354-3.689-31.375 5.949-36.19 3.146 6.032 2.602 11.834 2.742 18.412zm0 0" fill="#e11c2d"/><path d="m817.209 345.718v21.07c-.399 0-.399-21.07 0-21.07zm0 0" fill="#d2202f"/><path d="m770.575 688.508c5.767-7.336 123.979-9.355 134.162-.846 11.66 9.813-31.604 68.254-54.833 97.322-4.642 5.822-17.604 4.872-22.281-.847-23.6-28.682-62.799-88.195-57.048-95.629zm0 0" fill="#f7f7f7"/><path d="m833.691 769.368h11.342v10.583c-.353 7.602-10.887 7.367-11.342 0zm-5.032-21.523c-6.578-15.306-24.636-19.454-35.435-9.185 1.936-21.386 22.685-29.083 35.121-15.178-2.567-15.067 1.125-28.717 11.024-40.95 9.903 12.233 13.594 25.883 11.03 40.95 12.431-13.905 33.184-6.208 35.115 15.178-10.796-10.269-28.856-6.121-35.434 9.185zm-2.651 7.028h26.726v10.623h-26.726zm0 0" fill="#e21c2a"/><path d="m1169.188 566.07c-25.356-12.513-31.244-26.653-44.736 4.695-13.168 6.279-28.539-1.05-42.571-4.795-13.334-9.702-38.842-21.56-42.804-22.966-10.168 0-15.672-1.935-18.677 7.963-3.059 24.238-19.735 17.075-41.47 15.989-15.122-3.469-11.517-8.829-16.477-22.198-5.275-3.412-33.764-4.936-40.204 3.47-5.36 27.236-20.396 20.082-48.571 20.082-27.696-11.98.532-25.71-42.679-25.71-17.657 3.69-19.678-1.254-23 17.194-5.102 14.317-53.128 11.395-64.297 5.223-7.419-16.514-5.89-25.073-28.911-20.259-13.875-.662-18.553 1.672-20.482 16.252-5.911 14.856-27.121 2.072-33.996 8.969-.373 0-.725.015-1.085.025l.001-.009s-.025.004-.075.011c-1.861.054-3.557.236-5.08.528-7.768.586-21.804.68-23.996-5.965l-.005.004c-.063-2.522-.253-5.294-.588-8.383-7.983-21.467-41.574-19.939-44.736 4.695-7.986 14.723-31.659 11.43-45.691 7.685-15.824-11.513-6.47-21.735-28.225-7.685-3.446 5.663-1.231 13.635-1.086 20.117 4.677 12.245 63.851 3.694 78.59 6.84 5.608 0 10.657.127 15.155.123h.199.269l52.587.001v-.003c.679.166 1.378.322 2.115.461 30.968-1.385 75-2.457 106.25 2.22 3.465-2.94 63.608-1.816 66.615-.32 33.874 0 73.79-4.357 106.798 1.124 30.768-1.328 71.25 3.809 100.959-2.703 15.363 7.378 75.498-.092 88.755 2.737l13.52 2.08c30.825.001 31.483 8.035 27.629-27.492z" fill="#f7f7f7"/><path d="m803.77 646.465h-6.253v-20.684c-2.285 1.875-4.977 3.262-8.077 4.16v-4.98c1.631-.469 3.404-1.357 5.318-2.666s3.227-2.835 3.938-4.58h5.074z" fill="#2c2c2b"/><path d="m834.299 624.844-6.052.586c-.148-1.094-.534-1.901-1.157-2.422s-1.432-.781-2.425-.781c-1.321 0-2.437.521-3.349 1.563s-1.487 3.21-1.724 6.504c1.558-1.614 3.493-2.422 5.808-2.422 2.611 0 4.847.872 6.708 2.617s2.793 3.997 2.793 6.758c0 2.93-.979 5.28-2.938 7.051-1.958 1.771-4.473 2.656-7.543 2.656-3.293 0-6.001-1.123-8.122-3.369-2.122-2.246-3.182-5.928-3.182-11.045 0-5.247 1.104-9.03 3.315-11.348 2.21-2.317 5.081-3.477 8.611-3.477 2.477 0 4.528.608 6.152 1.826s2.66 2.985 3.105 5.303zm-14.174 11.972c0 1.784.468 3.161 1.402 4.131.935.97 2.003 1.455 3.205 1.455 1.157 0 2.121-.397 2.893-1.191.771-.794 1.157-2.097 1.157-3.906 0-1.862-.416-3.226-1.246-4.092-.831-.866-1.869-1.299-3.115-1.299-1.202 0-2.218.413-3.049 1.24-.832.827-1.247 2.048-1.247 3.662z" fill="#2c2c2b"/><path d="m854.459 646.465h-6.253v-20.684c-2.285 1.875-4.977 3.262-8.077 4.16v-4.98c1.631-.469 3.404-1.357 5.318-2.666s3.227-2.835 3.939-4.58h5.073z" fill="#2c2c2b"/><path d="m863.894 639.102 6.23-.566c.178 1.237.704 2.217 1.58 2.939s1.884 1.084 3.026 1.084c1.305 0 2.411-.466 3.315-1.396s1.357-2.334 1.357-4.209c0-1.758-.449-3.076-1.346-3.955-.898-.879-2.066-1.318-3.504-1.318-1.795 0-3.405.696-4.829 2.09l-5.074-.645 3.205-14.902h16.533v5.137h-11.793l-.979 4.863c1.394-.612 2.818-.918 4.272-.918 2.773 0 5.125.886 7.054 2.656 1.928 1.771 2.893 4.069 2.893 6.895 0 2.356-.779 4.46-2.336 6.309-2.122 2.526-5.066 3.789-8.833 3.789-3.012 0-5.467-.71-7.366-2.129s-3.035-3.329-3.405-5.724z" fill="#2c2c2b"/></svg>