<svg clip-rule="evenodd" fill-rule="evenodd" height="700" image-rendering="optimizeQuality" shape-rendering="geometricPrecision" text-rendering="geometricPrecision" viewBox="0 0 26479.284 18535.504" width="1000" xmlns="http://www.w3.org/2000/svg"><g transform="matrix(1.1250682 0 0 1.1250682 -12901.213 -5512.8127)"><path d="m2718.6 6191.7c-297.88-65.28-505.65-113.48-780.93-216.14-130.45-54.86-296.42-116.05-471.29-207.77-12.11-9.26-71.64-54.37-65.49-59.39-51.55-41.13-26.2-110.4-21.75-161.17-170.68 23.02-305.04 74.21-445.52 126.96-33.79 41.37-65.53 89.64-103.38 126.92-41.58.67-149.13 9.18-183.59.78 35.38-80.22 60.73-121.5 89-176.99 56.17-3.74 108.61 12.92 154.82.99 28.66-33.34 238.91-252.44 235.98-265.64-90.13-30.61-223.41-74.04-325.06-85.8-41.13 44.95-97.9 80.32-97.9 81.31-53.21-.39-101.01 13.09-147.16-13.38 3.88-77.18 36.26-156.09 95.15-168.34 37.04 1.84 82.66 18.39 133.92 34 129.71-60.87 278.07-120.5 431.08-157.03 132.04-31.53 267.55-45.8 397.47-28.77.03-3.07-197.57-96.82-214.98-102.28-11.33-3.57-28.45-17.23-28.34-28.14.07-13.17 3.1-16.63 16.52-23.2 1.12-18.25 3.28-32.52 5.43-51.79 1.02-1.06 2.04-2.05 3.07-3.03 1.06-3.04 2.08-6.07 3.14-10.14 4.09-5.04 8.23-11.12 12.32-17.19 3.07-3 7.13-6.03 11.23-10.06 5.11-3 10.2-6 16.31-9.01 9.14-.92 18.28-1.9 27.43-2.82 2.04-.99 4.05-2.01 7.13-3 40.81-31.17 58.08-71.5 59.42-110.09 1.2-155.3-92.32-229.3-140.05-353.55-30.96-64.22-16.91-172.75-4.2-243.74.07-5.08-.92-11.16-1.87-17.23l-484.99-829.69c-36.58 6.07-73.4 12.61-100.48-25.21-5.86-28.45-21.22-29.47-32.31-38.69-34.88-3.18-20.2-10.56-45.05-25.03-10.92-32.59-37.22-61.65-37.54-147.97.64-83.26 26.45-103.34 55.36-169.11 0-1.03 25.53-74.68 33.33-108.64 42.37-203.68 128.02-378.13 206.89-448.1 31.14-85.02 54.69-187.68 134.13-275.81 9.96-73.44 44.98-140.97 94.91-197.68 41.34-47.03 92.88-86.64 148.81-116.05 32.56-9.92 73.51-33.89 139.88-63.12.29-35.52-14.51-64.61-13.69-103.83-3.39-27.01 20.9-76.23 44.49-97.56 28.98-54.05 36.12-91.82 57.69-127.2 45.37-70.97 87.91-69.77 115.62-83.51 27.89-7.41 88.59-13.52 139.39 22.18 31.99-5.65 67.04-25.84 113.83-18.74 74.85 12.46 132.49 58.75 144 144.15 15.89 47.84 39.05 67.29 49.01 94.8 10.28 10.03 7.95 152.13 7.77 173.49 23.94 11.97 65.74 57.27 81.59 80.04 132.65-8.13 279.34 54.75 371.27 153.19 12.15.07 52.85-11.8 75.24-17.72l-103.09-385.86-92.01 17.19c-32.48 10.66-44.09 12.04-60.8-30.4l-41.55-101.99c-23.37-43.78-21.71-61.3 22.18-75.56l104.92-30.5c33.16-13.17 46.71-4.27 54.26 21.22l20.63 50.03 16.52-2.01 60.41-15.11 4.97-14.4 1.09-50.63c1.41-22.39.43-34.14 44.53-43.1l100.02-20.38c35.45-8.48 36.01 7.98 37.04 25.14l15.14 146.49c1.17 34.53 5.01 42.15-20.16 48.68l-43.92 11.97 9.75 48.16c186.45-45.65 303.13-53.03 457.91-60.41l-.56-45.58-111.89 3.38c-26.34 5.51-51.4 7.88-58.33-22.77l-40.35-143.65c-7.17-32.03-9.01-44.64 25.6-48.55 28.2-3.21 56.84-4.52 85.4-6.1l62.18-3.46c54.54-.99 59-16.7 68.13 36.82l8.09 44.13 95.05.71 6.89-53.38c5.47-42.51 28.91-34.43 56.34-34.64l157.81-1.41c49.5 1.02 49.4 10.48 49.15 47.84l8.02 45.02 108.53 5.61 7.74-51.37c2.75-23.98 11.9-46.68 62.03-30.86l129.15 18.75c20.37 5.04 43.31 6.5 27.64 55.67l-37.18 116.68c-13.87 43.53-24.29 41.98-54.65 40.85l-127.98-7.56c-3.53 17.44-.99 18.85.57 42.36 169.49 2.37 323.15 31.96 441.64 57.94 6.03 4.13 9.11 3.14 17.22 3.21l14.76-35.3-37.78-17.09c-12.57-1.34-22.25-10.8-20.34-40.39l9.01-139.52c3.14-48.69 19.63-45.45 45.83-34.04l119.54 30.01c36.82 9.25 37.53 18.1 34.46 42.25l-2.47 33.16c-4.06 12.6.77 20.87 14.51 24.75l43.35 10.87c11.51 3.18 18.71-.35 21.5-10.55l12.4-31.64c11.72-25.42 25.13-33.55 67.21-20.55l76.9 31.78c23.06 10.59 28.31 15.88 13.8 54.5l-53.2 113.02c-20.76 40.7-40 34.92-57.31 35.27l-45.44-13.1c-94.05 169.11-119.05 265.71-142.1 389.43 47.84-58.76 103.51-93.24 162.16-112.38 70.86-23.16 146.06-23.98 217.2-18.11 32.66-31.85 78.06-58.89 111.74-67.15 20.31-11.61 15.85-35.62 17.93-44.77 4.84-96.39-2.43-65.95 3.92-101.47-1.27-24.4 3.24-40.56 19.77-67.57 13.63-42.68 38.98-76.65 57.45-104.36 33.33-82.05 80.28-119.54 152.42-136.81 52.63-9.89 95.18 9.11 117.95 13.77 23.3-4.7 63.72-30.82 119.22-19.18 55.43 11.62 114.22 53.94 145.71 112.84 28.49 53.27 35.8 94.68 51.76 128.33 5.04 6.1 6.92 24.4 9.92 31.52 1.7 41.66 7.25 107.87 5.86 151.5.25 14.51 8.3 16.24 29.3 24.72 147.02 66.79 202.58 104.85 263.42 299.64 56.84 56.41 102.81 142.31 146.1 318.28 11.15 3.14 67 68.77 95.19 98.43 46.6 61.4 72.13 120.54 88.61 184.62 21.26 82.41 27.54 173 44.49 287 20.59 53.42 59.81 142.85 40.53 236.8-15.6 95.54-36.19 115.94-73.12 154.81-20.51 21.51-42.33 47.7-64.64 67.79-19.67 17.72-39.68 30.74-59.53 31.64-19.74-.18-34.39-6.72-46.11 16.3l-417.56 676.5c5.61 78.1 12.46 150.69 10.06 211.24-1.41 36.33-6.21 70.37-16.55 103.23-18.15 45.44-43.46 101.43-83.75 179.28-29.8 45.44-73.41 105.88-85.3 199.2-13.28 65.91 57.48 117.39 113.82 122.37 43.28 5.89 40.64 57.77 38.2 78.48 7.1.07 37.57.32 40.6 1.34 22.25-3.31 26.55 41.49 5.89 45.48-74.88 28.7-184.26 52.01-272.46 89.29 133.99 1.09 337.32 34.46 467.98 65.95 94.19 23.09 269.13 94.61 313.62 118.3 48.37 3.57 131.37 3.29 171.8 3.6 34.29 22.25 95.58 85.94 119.69 131.3 5.57 20.55 3.56 17.44-19.74 22.95-48.52 9.25-142.46-2.96-185.19-3.35-24.25-30.18-64.11-72.2-77.6-83.4-16.02-6.57-41.62-4.16-58.18-6.13-87.77 18.67-172.26 39.61-243.5 64.92-18.61 5.15-33.23 20.38-60.7 1.55-38.16-20.23-79.61-25.38-83.22 8.87-1.02 44.35 69.6 28.49 99.25 11.54 28.42-2.89 52.14 32 78.9 56.17 39.44 42.19 83.79 85.58 112.38 121.42 15.08 22.46 68.95 85.83 83.01 105.24 56.88 3.67 97.55 2.97 142.03 7.21 53.63 54.51 109.98 129.61 111.01 150.44-.67 17.08-114.11.35-187.23 6.21-46.57-38.84-83.01-77.67-113.97-128.9-205.44-68.31-331.27-80.88-459.32-95.89 2.75 36.22 6.36 76.01 3.14 89.28-10.17 25.53-31.96 50.42-63.59 69.49-183.73 138.72-674.51 305.85-808.89 342.01-310.06 83.25-643.44 142.24-894.26 163.64-316.83 23.94-732.63-1.73-1093.42-65.49zm2921.26-2610.05c19.64-87.17 30.47-185.47 24.72-274.86 1.06-2.05 3.1-4.02 5.15-6.03 14.23-8.02 35.94-32.49 40.14-48.73 16.34-16.09 7.07-28.77 19.35-45.93.21-24.36-7.84-91.65-7.63-117.04-4.83-34.99-26.55-88.19-39.93-132.72-17.82-58.01-59.03-153.93-100.27-272.99.25-32.97 7.46-78.94-4.09-103.76 4.38-40.56 1.13-41.2 18.67-75.62 35.63-55.5 86.93-162.37 87.95-161.35 24.19 20.52 69.52 61.89 90.66 80.88 1.94 8.12 17.94 49.22 19.92 57.34 3.78 66.83 27.96 108.01 47.38 139.81 37.11 46.29 129.93 141.26 159.34 188.75 17.09 36.54-3.07 50.48-25.14 74.67-16.8 20.34-29.68 51.23-41.37 82.76-3.7 68.63-14.23 94.4-4.48 165.62l-255.01 437.86c-11.34 17.65-19.78 26.87-25.7 30.29-9.86 5.68-12.61-4.69-9.65-18.96zm-396.3 634.76c.53-64.96-14.93-83.65-25.7-129.43-21.96-32.49-29.23-62.81-20.94-83.01 16.13-65.77 26.48-107.86 23.94-174.87.6-73.12-9.04-114.14-8.48-188.29.5-62.07 5.22-163.25 12.85-224.05 5.08 1.06 4.76-43.6 23.69-42.43 35.49 31.1 26.8 64.57 33.87 167.45-3.74 60.97 3.98 116.29 4.26 209.72 5.75 34.18 14.69 58.26 21.01 92.99 18.71 38.13 14.02 52.29 12.11 91.09-5.11 33.96-17.54 44.77-27.96 95.89-12.67 29.48-14.4 121.49-15.81 169.18-1.98 25.85-22.88 35.03-32.84 15.75zm-899.41 694.46c-2.01-3.03-2.01-3.03-4.94-17.3-5.04-5.08-5.04-5.08-15.14-10.27-246.94-.92-493.89-1.8-740.83-2.72 537.26-50.63 1134.7-402.38 1141.36-1129.35 1.98-466.75 6.75-1123.61 8.69-1590.32 12.11 40.36 30.78 74.01 58.4 105.07-22.03 22.14-46.68 43.28-45.09 68.88 5.54 19.77 3.11 46.43 8.97 56.66 18.57 22.63 36.93 39.61 64.93 49.18 15.21 1.16 23.3-.85 39.5 1.31 5.97 18.32 34.68 112.34 41.7 119.5-.04 4.06 2.61 16.27 2.57 21.36-14.4 14.23-18.81 11.73-23.76 30.79-.25 32.13 1.09 58.96.81 90.87-10.38 30.43-43.91 143.87-73.15 184.2-23.55 46-18.29 151.39-25.78 198.03 2.68 65.17 4.77 146.24 5.86 181.01 6 11.23 6.36 5.29 16.2 45.02 6.25 119.68 17.79 267.26 52.85 403.47 21.75 84.46 61.79 163.4 92.18 229.63 13.95 37.39 10.53 70.16 12.47 85.41-84.85 149.73-52.15 259.92-41.84 372.69-21.18-.18-29.65 1.37-47.8 15.78-36.3 52.18-62.21 82.93-78.95 104.43-14.33 23.55-19.95 57.06 10.92 86.36 44.94 59.63 80.17 99.91 134.06 150.89-11.16 40.6-41.59 51.52-71.86 64.05-34.28 14.12-68.41 30.29-74.14 93.94-144.39-2.82-303.77-5.75-448.2-8.58zm-941.22 870.99c-6.14-39.93 7.45-66.37-5.36-105.8-40.6-.32-113.33 5.22-129.22-57.59-10.59-72.17 42.01-95.01 84.67-100.77 53.31.43 85.86 19.25 131.93 48.48 29.62-17.86 39.68-53.38 128.19-52.71 89.36-2.33 76.9 144.4 37.25 154.25-36.65 12.92-39.96 4.87-75.48 6.64-33.26 4.48-55.64 13.7-60.8 25.85-.32 40.07 4.06 42.85-4.59 80.45-30.43-.24-76.15.43-106.58 1.2zm688.17-90.17c-23.3-87.24 30.01-213.74 150.16-263.55 30.5-6.86 70.72-2.83 93.2-24.97 6.25-22.31 1.42-37.24 14.72-53.41 10.17-1.91 24.51-26.83 34.68-29.8 194.42-72.62 350.73-107.25 548.08-172.71 49.04-12.01 64.78-7.63 65.74 5.57 1.55 22.07-38.03 68.7-33.26 104.92 11.33 86.22 59.35 116.55 74.74 194.68-114.18 67.14-300.35 121.56-444.82 166.11-145.46 45.58-291.69 92.88-503.25 73.15zm-2830.03-375.33c11.4 32.76-53.38 36.71-111.39 39.33 34.99-36.27 89.11-86.65 111.39-39.33zm1059.21 272.24c-73.9-23.9-215.86-70.97-294.77-104.04-63.3-22.63-116.65-30.36-119.78-82.41.52-68.03 59.66-98.36 83.39-148.96 13.45-28.45-3.7-43.24-16.02-64.32-15.82-27.12-19.75-44.81 9.85-44.88 37.99 10.03 86.85 29.55 138.61 52.22h.03c26.62 8.97 55.61 19.03 86.12 29.68 223.84 77.85 548.68 185.22 573.43 269.07 15.46 31.55 6.64 97.62-8.9 134.83l-.04.11c-.53 1.2-.99 2.33-1.48 3.49-40.95 41.27-100.27 33.86-174.87 30.36-99.56-15.85-192.59-42.05-275.56-75.17zm-17.69-309.92c.99.43 1.91.85 2.9 1.31zm482.45 272.07c.04.64.04 1.27.04 1.87 0-.6 0-1.27-.04-1.87zm-1098.08-1521.63c3-64.96 13.14-130.88 8.34-196.94 1.02-.99 6.17-100.48 7.31-117.71.43-54.82 15.22-99.35 11.44-166.04.11-12.18 8.3-33.47 8.41-46.68 6.85-29.09 17.72-16.62 18.67 9.64.71 19.15-.92 54.02-4.13 90.63-.46 57.91-1.13 144.4-1.58 202.27 3.88 70.26 61.18 130.84 61.29 189.98-.11 46.08-23.76 80.03-34.64 134.83-9.5 27.89 5.61 69.23-31.14 70.44-23.33 1.06-23.79-17.75-32.87-51.72-11.54-28.28-10.2-104.89-11.09-118.69zm-372.97-509.53-225.57-380.77c3.67-180.52-19.28-263.56-84.35-301.09 7.35-28.38-16.27-67.4 22.21-106.9 62.42-66.16 120.93-124.88 152.94-154.25 30.05-44.74 55.04-93.91 78.38-184.34 12.61-45.58 34.18-84.77 42.58-97.2 7.38-10.52 31.13 3.25 29.83 15.89 14.68 28.56 55.07 138.93 65.77 144.08 3 7.13 6.99 14.26 10.98 22.42.99 6.1 1.9 13.24 3.92 20.37 1.41 33.13-15.96 52.47-16.07 65.67-.38 27.4 12.89 43.49 13.35 69.02-.04 4.09 1.9 52.85-2.93 67.18-6.28 26.38-6.21 18.32-10.38 28.46-7.21 15.18-19.56 65.49-37.81 121.7-35.35 94.98-52.32 137.76-75.66 235.1-9.68 34.43-16.66 63.62-17.44 119.05-.57 26.23 11.09 63.06 55.6 67.96 5.43 80.28 9.33 180.69 19.92 252.9.99 17.96-22.25 9.71-25.28-5.26zm838.12 1353.16c2.33-73.51-21.51-73.08-30.04-90.1-13.88-7.8-41.2-19-75.77-26.09-2.01 0-2.33-17.61.14-32.17 49.43-29.9 91.44-73.33 115.49-115.3 8.3-18.89-3.6-47.35-10.77-57.2-14.9-36.23-34.29-72.38-61.97-114.99-12.57-17.09-28.17-35.28-40.77-36.62-4.09 1.94-19.46 1.63-24.58 3.57.08-6.11 2.44-18.89 1.49-26.02 19.49-26.23 30.36-64.58 39.78-105.14 15.04-126.29 7.18-175.26-35.8-288.63-.81-23.34-1.66-46.74-2.47-71.11 1.17-20.3 2.33-40.6 3.5-60.9 31.78-53.98 62.8-132.57 85.05-215.22 19.67-72.91 32.52-151.5 32.73-182.88-.84-18.32 2.4-45.69.53-65 .14-18.28.28-36.54.42-54.83 4.8-18.7 19.46-108.78 20.34-125.37.43-50.77 1.98-104.92 2.4-155.69-1.58-72.73 2.65-144.43-4.65-217.34-9.54-76.23-46.64-134.41-46.47-155.73 1.02-3.04 2.08-6.07 3.11-10.1-.5-9.57 1.55-58.26.56-71.11-.95-6.07-1.94-13.2-2.89-20.34 3.35-13.2 4.97-60.8 6.39-82.66 11.13-11.61 23.31-29.93 22.74-64.85 26.41-8.58 66.23-22.85 87.56-39.68-2.5 451.17-9.6 904.57-12.11 1355.7-4.2 539.15 526.17 1113.96 1196.83 1133.39-176.6-1.38-235.42-4.84-413.04.84-279.76-3.53-578-4.94-857.72-8.44zm609.23-2795.19c19.07-32.98 150.72-49.25 236.38-61.92 175.29-25.99 368.9-23.7 517.54-23.87 227.83 4.55 728.54 18.78 737.89 96.95z" fill="#231f20"/><path d="m684.26 5309.67c25.53-15.56 43.95-34.03 64.47-58.96-37.95-13.56-61.19-28.38-85.48-28.56-15.14 11.72-41.12 45.48-67.67 77.99 26.72.21 63.97 9.32 88.68 9.53z" fill="#00a551"/><path d="m811.07 5761c12.4-16.66 40.11-62.18 58.16-87.24-43.53-4.03-70.37-6.75-101.51-3.32-24.39 33.19-44.02 68.24-58.89 91.05 29.72-3.56 63.02 3.56 102.24-.49z" fill="#00a551"/><path d="m2828.31 5707.01c152.13 1.16 368.52-1.2 520.3 5.39-.07 10.14 5.65 41.8 6.57 55.01-67.18-.85-488.81-27.26-526.87-60.41z" fill="#e6e7e8"/><path d="m3565.51 5776.03c.24-12.46 1.02-43.18 2.47-56.85 0 0 26.97-.81 27.99-1.8 142.1 1.1 303.63-5.5 445.7-4.37-46.89 31.74-219.53 49.6-225.08 50.13-91.19 8.51-185.43 11.9-251.09 12.89z" fill="#e6e7e8"/><path d="m5097.71 4654.67c-62.7-45.8-133.6-104.05-176.88-168.02-6-8.83-19.78-26.44-18.11-37.88 1.69-11.48 14.58-11.13 37.74-2.83 34.53 9.54 85.87 48.55 126.57 81.34-18.11 41.52-6.57 66.94 7.56 78.87 51.62 43.57 94.58 63.06 94.58 62.07 38.45 15.54 49.61 1.24 64.26-13.06 36.26 36.82 112.69 108.11 98.11 125.83-58.68 14.47-186.03-91.44-233.83-126.32z" fill="#e6e7e8"/><path d="m5552.06 4866.52c5.47 6.89 6.79 21.51.35 37.01-14.26.24-25.34 1.44-30.07.81-4.31-12.82-10.03-30.68-4.31-39.16 9.61-12.07 28.78-12.92 34.04 1.34z" fill="#fddab4"/><path d="m5042.98 4915c-16.3 3.46-23.47-5.71-21.43-27.5 2.36-38.48 15.39-40.67 39.01-6.57 16.21 4.66 27.01 3.85 40.5 8.44 16.98 11.09 14.05 23.84-8.73 27.4-16.45-.6-32.91-1.17-49.36-1.77z" fill="#fddab4"/><path d="m4847.84 4914.14c-2.22-15.39-1.8-29.37 9.57-44.66l41.2-22.95c26.83-5.97 36.93-13.91 60.27-34.46 17.97-5.86 41.31 1.02 37.39 20.34-9.82 27.57-14.65 55.14-17.22 82.76l-57.91-.43c-.92-25.13-4.34-39.11-15.25-42.57-10.98-3.49-22.67 3.53-26.83 42.22l-31.21-.25z" fill="#fddab4"/><path d="m4362.66 5159.63-17.16-14.01-4.16-112.03 17.26-18.92 27.47-1.83 394.68.95 250.35 1.98c14.9-.89 28.42-7.49 29.55-14.62.74-4.9-3.91-12.81-18.53-13.73l-105.81-5.93-538.91-1.3-32.48.74-18.5-7.1 7.7-19.14 936.31 6.28c62.98.42 101.04 3.17 69.23 15l-1002.79 300.52 1.7-33.68 677.41-192.98 7.53-6 .84-4.23-2.4-8.41c-8.08-5.96-13.91-3.84-23.86-3.28l-24.05 3.67-635.82 186.24.08-21.29 401.74-117.74c29.8-30.54 12.18-24.72-30.08-22.88l-367.28 103.72z" fill="#e6e7e8"/><path d="m6273.45 5337.85c-8.44-11.01-38.52-38.34-53.24-58.82 44.39-4.37 68.28-4.52 95.37-6.07 20.9 24.72 48.83 48.65 60.09 66.83-33.01 3.14-75.66.39-102.21-1.94z" fill="#00a551"/><path d="m5553.68 5534.61c-45.44-89.29-35.27-157.49-30.92-191.95 8.54-71.04 25.63-129.22 1.06-165.2-11.2-16.41-32.63-28.2-71.25-34.64-49.72-.38-78.84-.7-129.72 14.16-70.15 17.72-105.34 41.8-150.4 92.25-47.42 33.3-128.4 82.73-161.03 19.53-8.09-37.64 11.16-68.63 54.12-107.51 60.09-61.01 310.48-61.57 414.99-60.8 178.5 18.85 272.7 33.55 388.43 68.95 40.53 7.42 163.04 50.98 200.47 69.52-68.49 23.9-148.61 47.88-249.51 67.18-28.28-15.46-49.57-20.79-82.01-27.11-103.55 9.54-91.05 100.62-58.01 130.88 76.12 59.77 121.21-.64 130.27 8.58 38.73 28.63 134.35 161.7 186.81 201.7-136.07-38.41-322.45-66.94-443.3-85.55z" fill="#00a551"/><path d="m6186.74 5774.24c-19.64-23.84-34.18-31.49-57.63-58.93 26.09 1.02 59.95-1.34 85.41.84 27.01 25.11 41.8 38.77 59.49 57.13-33.93 3.78-59.07 1.56-87.27.96z" fill="#00a551"/><path d="m2025.79 5938.28c-151.81-51.96-453.08-193.89-576.4-256.77-33.3-23.62-33.09-71.32-16.42-128.05 37.89-61.58 51.83-170.38 48.44-258.26 7.53-54.79 52.61-.07 74.82 12.32 33.36 18.5 104.99 72.88 153.43 104.75 234.54 119.58 454.35 173.11 715.34 280.75 344.33 93.03 640.23 152.2 943.72 147.48 352.99 24.07 787.85-42.51 1147.86-135.16 159.69-48.3 400.02-135.93 587.35-208.59 132.4-59.92 246.3-106.62 365.88-215.33-2.72 25.95-5.58 84.56-8.02 143.52-2.26 47.24 22.28 109.16 47.1 180.37 29.41 69.34 10.56 77.28-44.6 124.6-655.09 321.84-1249.78 451.24-1876.11 468.68-307.51-2.37-551.44-17.65-857.16-69.88-226.98-44.38-436.13-86.99-705.23-190.44z" fill="#00a551"/><path d="m4989.23 1499.32c-4.3 5.29-8.54 10.56-12.81 15.85-5.01 15.67-5.47 15.28-18.85 24.96-15.39 2.26-8.34 5.43-18.53-3.64-.18-7.73 1.23-9.57 5.01-17.01 11.51-3.88 16.7-7.24 25.88-15.78 2.29-1.2 4.58-2.4 6.89-3.63 4.12-.25 8.26-.5 12.42-.74z" fill="#fff100"/><path d="m5413.13 1561.88c17.65-2.15 24.65 5.61 23.87 14.76-1.44 16.52-19.21 21.5-28.98 32.66-13.49 15.39-21.01 23.62-40.81 40.53-9.75 9-6.72 31.48 12.35 30.74 33.87-10.55 17.05-30.64 33.16-32.69 8.12-1.06 25.28-5.86 35.66 6.46 9.15 10.84-.25 33.69 13.88 40.32 8.47 2.36.88-47.42 20.09-46.78 15.85.49 24.22 35.06 36.72 51.08 10.27 13.17 3.7 31.1-12.04 24.58-20.2-8.37-17.51 18.42 6.43 24.43 13.73 7.7 2.26 28.77-13.31 30.5-15.96-3.6-26.62-12.43-34.5-22.18-16.09-19.98-20.41-43.63-34.21-33.86-7.84 3.28-5.26 15.96-1.03 23.8 6.18 13.27 20.77 31.67 25.11 34.71 10.34 7.2 10.98 6.89 22.59 12.07 4.59 9.4 4.41 14.65-3.45 22.39-5.4 6.54-11.44 5.68-24.72 4.2-3.6 6.06-1.9 30.39 17.02 35.34 19.67 7.24 22.07 3.77 34.85 16.98 13.55 15.99-3 31.71-28.07 31.49-25.91-2.93-39.08-6.96-60.83-18.08-8.59 33.55 4.76 24.61 24.78 38.45 13.81 8.23 19.78 14.23 27.68 18.92 23.66 14.05 13.91 28.74-14.65 32.63-2.01-2.01-10.49 2.93-36.23-10.91-4.62-2.37-22.95-10.46-25.31-15.25-15.5-6.14-34.11 2.25-10.7 19.7 4.83 8.27 25.7 16.56 33.79 21.72 29.48 17.4-10.87 30.29-23.72 26.37-29.16-9.96-45.41-24.26-70.23-34.85-5.12 3-53.35-28.56-81.48-48.97-23.8 24.5-69.3 44.67-91.51 51.69-27.58 11.93-41.13 8.3-61.12 23.19-32.34 22.28-42.12 25.64-58.33 23.48-12.57-.1-10.27-14.29-7.56-25.17-17.08 4.98-22.67 4.13-36.33-.42-9.29-16.31 41.62-48.23 37.36-59.25-1.03-2.01-14.06-2.04-23.27-.95-10.17 4.41-26.48 4.51-19.81-30.39 10.1-20.34 15.25-39.58 17.05-55.25-19.39 1.94-25 .67-39.4-4.27-13-8.34-4.24-27.08 6.67-31.07 15.29-8.9 12.68-25.28 1.27-20.94-11.08 4.24-32.02 1.94-20.41-20.06 7.17-6.03 12.78-16.83 18.92-21.85 17.69-1.38 20.48-19.88 31.28-37.64 5.89-9.64 9.89-15.92 10.27-17.36-2.04-2.05-5.25-4.73-6.24-6.75-3.07.98-8.16 3.17-10.21 4.2-2.04 5.04-13.31 12.67-15.35 16.73-1.02.98-40.39 38.16-41.41 38.13-13.21.91-21.54 4.51-33.72 5.43-19.92-6.4-20.24-13.31-19-20.41 1.59-9.22 10.06-18.67 28.91-27.47 8.86-4.76 27.82-1.69 35.27-5.71 18.97-10.31 9.22-19.64 40.18-38.17-.95-10.17-4.62-11.19-4.52-20.34-2.82-1.83-11.37-.7-17.5 2.93-36.44 15.32-50.03-3.14-62.6 13.28-8.41 6.13-26.48 6.43-35.27 10.91-28.56 21.15-38.31 26.47-62.39 47.24-20.55 16.24-50.06 22-68.95 21.4-71.95 2.71-131.15 1.27-174.37 19.07-35.84 14.75-66.27 25.24-101.16 58.15-20.76 16.84-31.95 44.09-42.18 85.3-12.22 26.55-27.36 41.55-30.01 58.36-4.94 32.14 13.77 55.15 37.28 71.78 18.71 15.47 60.2 43.5 100.7 48.52 70.54 8.79 121.17 3.17 185.74-1.59 8.13 1.09 16.24 2.15 23.34 2.18 22.53 2.4 25.95-30 26.02-39.71 8.51-16.28 43.46-45.16 54.37 10.63-12.96 43.59-10.7 6.57-27.5 49.78-13.88 60.23 29.23 108.21 51.51 123.32 22.35 29.37 19.88 56.31 17.58 86.89-3.18 41.62-32.42 30.61-38.59 7.07-12.64-13.63-34.36-15.32-34.64 16.27-1.59 21.08 24.15 43.56 54.23 46.11 48.72.43 50.59-16.76 93.34-35.69 28.88-40.92 42.36 14.82 11.19 36.86-21.32 14.75-29.26 44.12 30.43 12.81 20.03-29.51 29.09-62.31 20.24-93.02-8.76-45.76-20.34-102.28-30.11-147.06-27.93-91.19-52.61-121.56-90.31-174.27-86.36-110.05-155.38-129.81-255.16-157.14-3-4.06-40.03-13.8-42.04-16.87 13.55-43.56 50.84-25.99 79.19-17.65 198.49 58.43 300.7 167.31 346.9 357.54 6.25 20.41 8.98 68.31 32.38 68.49 22.28.17 106.09.81 127.42.98 5.54-48.54-2.61-173.14-2.54-182.45 5.75-18.07 45.62-22.1 47.98 21.64 1.63 29.98 7.71 99.18 6.51 156.26 93.8-.42 137.41-1.34 234.08-7.49 35.41-2.22 24.82-8.08 41.73-40.42 17.04-32.59 34.67-57.94 49.46-77 52.92-67.99 88.23-55.21 81.13-1.23 70.83 98.15 85.16 103.48 87.59 158.28 27.82 46.43 60.48 89.46 77.29 108.92 26.65 31.1 42.5 32.52 148 50.49.18-23.34 4.83-46.72 9.25-62.07 13.95-20.41 27.33 4.9 31.85 21.78-.21 27.51 4.06 56.49-.98 83.01-4.77 14.55-20.1 18.29-38.38 8.48-32.56-18.71-62.88-14.12-94.16-22.28 5.01 46.36 15.46 53.63 16.31 76.36 14.44 101.65 166.5 197.79 206.22 311.83 2.93 16.27 2.93 16.27 2.82 30.5-18.46 23.19-64.75 73.4-84.38 116.89-17.55 39.47-12.68 84.53 12.92 57.55 12.67-20.19 28.52-38.65 44.52-41.65 29.2-8.34 65.92 63.44 76.76 141.54 2.61 31.27 4.02 60.16-10.45 91.51-13.07 29.33 1.23 49.21 26.83 18.7 9.43-8.61 19.14-30.04 26.9-64.99 1.97-38.38-5.36-93.28 19.6-93.77 20.13 2.68 14.12 39.29 13.7 94.26 47.03-25.17 36.5-53.1 42.32-67.92 20.27-55.39 18.18-112.42 12.11-149.17-7.1-1.1-32.73-98.75-34.6-116.05-34.71-104.82-32.77-221.58-68.42-332.54-8.09-7.17-16.94-42.79-19.91-53.98-16.98-33.62-116.37-170.45-152.91-170.75 1.06-8.12 1.13-16.27 1.2-24.36-5.89-27.46-56.38-211.45-110.72-274.85-15.64 3.38-58.09 23.33-49.29-31.03-16.98-219.21-174.38-284.25-225.5-297.88-17.58-2.86-54.09-10.21-57.66-20.06-15.21-9.25-6.99-35.45-27.5-58.12-8.02-8.86-26.23-11.51-40.39-23.72-8.69-19.25-19.81-12.43-25.45-19.71-4.03-4.09 2.64-13.59-16.95-27.18-5.22-4.73-2.33-9.71-2.22-17.48.18-10.31-12.11-19.17-11.86-29.9.24-13.87 13.77-15.42 6.78-26.3-8.55-10.03-19.63-5.96-25-10.2-8.93-7-12.32-20.38-17.5-34.89-2.19-7.13-15.04-23.94-38.17-22.45-36.19 2.29-54.68-6.07-71.57-34.08-4.51-8.4-8.3-22.1-12.35-22.1-9.12-4.16-26.91 24.11-29.73 36.26-19.39 19.14-9.39 9.29-29.51 15.04-16.27 2.89-49.71-1.41-64.96.49-17.26-.28-22.07 2.86-31.35 1.98-17.79-1.8 1.66 10.52-23.62 20.16-29.23 6.28-26.12 22.88-16.7 32.42 4.56 16.16-.52 21.54-17.01 38.34-5.71 5.78-34.46 31.56-13.98 34.46 13.91.1 15.18 12.99 6.4 24.29-2.54 17.19-27.33 22.99-32 38.34-5.01 18.07-25.03 4.59-25.1 15.39-6.21 20.41 12.43 31 31.85 16.59 10.17-3.95-2.68 30.12-6.43 43.35.32 22.28 9.78 16.98 17.62 6.72 5.6-7.35 6.2-17.02 19.42-17.65 12.67-.64 10.91 14.58 34.42 41.34 6 6.85 13.63 14.44 23.59 22.67 13.31-.14 24.57-22.78 15.04-26.98-21.12-12.42-64.54-42.54-49.47-56.91 6.33-6.4 14.55-6 30.36 11.12 13.95 15.11 29.3 27.11 44.6 25.07 8.4-7.35 10.13-14.94 14.83-26.55 4.05 1.06 3.49-8.34 16.9-7.49 25 4.76-2.64 29.93 7.84 41.94 3.81 7.7 22.57 1.16 32.1-.25 16.8-3.21 14.3 6.89 32.14 6.64 14.86 2.26 19.42-4.93 30.57-6.89 7.59.53 17.36 2.09 23.48 2.12 8.23 2.22 9.57-7.95 11.61-9.96.04-3.07-.67-5.29-12.71-25.66-7.06-16.49 2.51-25.78 14.76-28.35 7.91-1.62 17.82-.46 20.55 7.95 3.6 11.72 7.21 27.78 19.07 21.18 8.97-.91 22.99-11.08 37.64-22.1 16.59-12.46 29.37-26.09 41.05-28.49z" fill="#fddab4"/><path d="m5281.44 1716.68c-6.64-.07-13.24-.14-19.88-.21-3.5-3.07-7-6.17-10.49-9.22.18-4.83.32-9.67.49-14.51 21.12-14.29 28.74-14.72 54.34-14.12 7.84 2.65 15.7 5.29 23.55 7.95 2.99 4.76 5.99 9.53 9 14.26 16.06 9.25 19.32 18.97 34.82 28.35 17.64 19.78 30.42 40.07 46.64 56.56 5.22 8.44 10.48 16.87 15.74 25.27-14.9 13.49-17.72 14.02-38.41 14.34-23.97 7.56-22.35 19.98-18.14 42.85 2.82 5.37 5.64 10.74 8.51 16.14-5.43-1.73-10.88-3.46-16.31-5.19-10.03-11.16-15.5-21.22-31.03-19.21-12.39 17.08-11.19 21.43-8.05 42.4 5.96 6.6 11.93 13.24 17.89 19.88 1.73 3.88 3.42 7.77 5.15 11.65-3.07 1.38-6.1 2.79-9.18 4.2-22.53.03-32.1-1.52-52.85-11.72-19-17.65-24.57-39.69-42.61-59.71-4.13-1.23-8.3-2.43-12.5-3.63-3.95 1.66-7.95 3.35-11.9 5.01-11.93 26.48-20.9 40-44.35 55.25-2.5 3.74-5.04 7.45-7.56 11.16-42.39-2.79-58.57 6.74-95.89 22.49-10.73 5.08-45.69 47.38-29.37-1.2 10.84-9.22 18.88-14.97 31.42-21.72 24.5-12.25 34.81-22.53 50.45-45.79-5.08-17.97-8.62-22.11-29.13-16.03-2.85 4.97-13.83 10.91-16.73 15.89-4.87 3.66-21.01 22.49-25.84 26.16-12.01 10.73-15.11 15.63-28.77 5.61 5.57-6.96 22.42-29.02 28.03-35.98 6.61-14.94 13.2-20.48 8.37-36.55-3.14-1.65-6.33-3.35-9.5-5-17.26 14.08-12.78 27.14-30.82 37.81-1.73-15.11-5.68-17.33 1.87-36.12 1.87-5.96 3.71-11.94 5.61-17.9 18.92-31.81 32.84-41.73 46.82-76.29 17.4-12.82 40-31.56 54.01-47.74 14.97-7.06 27.19-16.27 42.16-23.09 27.46 2.96 28.63 13.38 19.38 37.11-19.49 7.52-38.76 19.6-58.96 29.02-14.19 21.43-29.69 40.81-49.29 57.44-14.72 6.68-15.53 3.74-18.78 19.64 1.77 3.6 3.57 7.2 5.37 10.8 6.99 1.48 14.01 2.97 21.04 4.48 4.98-1.48 10-2.93 15-4.41 5.23-2.64 10.46-5.32 15.71-8.02 3.39-3.7 6.79-7.41 10.21-11.08 2.82-4.13 5.64-8.23 8.48-12.32 2.82-4.24 5.68-8.52 8.51-12.79 6.1-3.77 12.18-7.52 18.28-11.29 23.09-16.98 34.6-14.58 62.28-10.7 28.42-2.97 45.2-.64 72.66 3.28 7.67 16.73 6.43 16.66 23.02 24.39 7.6 17.3 11.94 19.92 31.24 19.18 14.51-2.5 18.85-3.46 20.24-18.81-15.67-9.89-11.9-18.29-22.03-33.23-4.84-2.96-9.68-5.93-14.48-8.9-13.73-20.13-40.6-26.76-63.44-36.12z" fill="#fff"/><path d="m3903.09 3035.06c-14.13-9.93-28.25-19.85-42.4-29.76-31.85 50.84-63.69 101.71-95.54 152.55-20.17-19.42-40.29-38.9-60.45-58.33-67.08 96.6-134.13 193.23-201.17 289.83-60.48-96.25-120.96-192.48-181.47-288.77-20.76 18.15-41.52 36.23-62.32 54.37-29.37-52.04-58.75-104.04-88.08-156.05-14.62 9.01-29.23 18.04-43.85 27.08 42.68 77.14 85.41 154.32 128.09 231.46 20.13-22.17 40.28-44.38 60.41-66.51 40.42 64.25 80.84 128.55 121.28 192.84-147.09-52.25-294.17-104.51-441.25-156.76-4.59 27.36-9.22 54.76-13.84 82.16-46.57-16.97-93.1-33.89-139.67-50.87-5.5 16.55-11.09 33.08-16.59 49.64 72.52 27.29 145.03 54.58 217.55 81.9 1.9-29.76 3.84-59.56 5.75-89.32 134.27 47.77 268.53 95.54 402.8 143.27-90.52 26.69-181.04 53.41-271.57 80.14-.5-27.43-.96-54.86-1.41-82.27-90.88 29.06-181.75 58.15-272.67 87.21-5.61-15.25-11.27-30.54-16.88-45.83-29.02 33.96-58.08 67.92-87.06 101.89 43.17 14.23 86.36 28.42 129.57 42.64-3.6-16.62-7.21-33.22-10.77-49.81 63.72-19.81 127.49-39.65 191.25-59.46.46 26.73.95 53.49 1.41 80.21 102.38-30.01 204.77-59.99 307.16-89.99-41.73 59.24-83.44 118.48-125.16 177.73l-57.49-50.21c-44.12 61.93-88.23 123.86-132.35 185.82-14.16-8.27-28.28-16.49-42.44-24.72-.35 44.67-.7 89.36-1.02 134.03 42.4-16.59 84.81-33.19 127.21-49.78-13.45-10.6-26.91-21.19-40.32-31.78 29.41-42.4 58.86-84.85 88.26-127.28 16.06 23.16 32.14 46.29 48.16 69.44 71.85-102.35 143.69-204.66 215.51-307.01 68.52 108.85 137.02 217.69 205.51 326.54 17.12-22.21 34.18-44.42 51.26-66.62 27.4 44.21 54.83 88.44 82.2 132.65-13.95 9.71-27.89 19.42-41.83 29.12 41.48 18.57 82.93 37.22 124.38 55.78 1.73-44.63 3.42-89.32 5.11-133.99-14.58 7.7-29.19 15.36-43.77 23.02-40.81-64.29-81.55-128.54-122.34-192.87-20.09 16.1-40.17 32.21-60.27 48.27-46.78-74.46-93.55-148.96-140.34-223.46 106.94 38.06 213.89 76.16 320.82 114.18 1.91-26.72 3.78-53.41 5.72-80.14 62.7 23.16 125.48 46.33 188.21 69.49-4.86 16.55-9.74 33.08-14.61 49.64 44.09-11.83 88.16-23.69 132.21-35.52-27.11-35.41-54.22-70.83-81.37-106.23-6.54 14.83-13.1 29.69-19.64 44.52-89.35-34.18-178.75-68.41-268.14-102.59-1.91 27.36-3.81 54.79-5.68 82.19-66.13-23.19-132.29-46.39-198.39-69.59 113.58-33.61 227.16-67.25 340.78-100.9.1 29.79.21 59.56.31 89.35 74.29-23.44 148.54-46.92 222.82-70.36-4.62-16.63-9.25-33.23-13.84-49.86-47.49 14.16-94.94 28.35-142.42 42.54-3.14-27.78-6.32-55.56-9.5-83.32-156.65 46.15-313.3 92.32-469.95 138.5 52.36-74.78 104.71-149.48 157.03-224.19 19.46 22.81 38.88 45.65 58.33 68.45 46.26-74.78 92.5-149.55 138.76-224.33z" fill="#fff100"/><path d="m2467.3 2349.65c67.68.53 135.33 1.06 202.98 1.55-2.79 441.71-5.54 883.39-8.3 1325.03-4.41 435.6 450.75 762.04 826.22 764.97 364.32 2.83 792.89-296.38 796.46-751.26 3.42-442.03 6.85-884.02 10.31-1326.05 77.14.6 154.25 1.2 231.39 1.83-3.49 449.77-7.03 899.59-10.52 1349.36-12.57 441.63-434.58 938.91-1011.02 934.43-516.52-5.04-1054.01-442.8-1048.08-943.37 3.49-452.16 7.03-904.33 10.55-1356.48z" fill="#fff"/><path d="m3153.69 1268.53-31.49-130.2 128.97-7.99 15.18 45.48c6.89 21.65 12.92 36.4 44.88 32.98l98.01-.11c26.83 2.69 28.17-3.28 40.7-25.63l9.29-54.29 166.22 1.3 6.67 47.38c2.97 28.81-.21 35.88 39.51 36.58l126.22 2.19c29.58 2.33 40.88-9.82 43.67-40.42l6.36-38.91 122.62 21.26-2.08 10.13-39.55 113.4c-256.84-34.28-517.9-36.86-775.16-13.13z" fill="#fff100"/><path d="m5059.65 1353.07c2.18 10.17-18.46 20.98-21.19 20.06-19.07 3.11-18.46.6-24.65 23.23.68 5.19 1.35 10.39 2.05 15.57-23.09 11.05-30.68 14.62-47.49 35.66-11.37 16.84-34.78 27.01-29.72-2.64 15.04-20.98 25.95-38.1 37.11-61.37 7.73-14.96 20.48-18.74 28.1-23.58 17.12-2.3 28.49-24.36 63.9-39.61 2.54-4.2 5.11-8.45 7.66-12.64-.84-4.06-1.72-8.16-2.61-12.26-2.18-1.65-4.37-3.35-6.6-5.04-2.15.56-4.27 1.06-6.43 1.59-2.19 2.5-4.38 4.94-6.58 7.42-2.68 3.14-5.39 6.32-8.12 9.5-9.57 2.96-15.11 7.8-22.46.1 0-10.56 13.88-19.24 21.65-28.17 5.5-33.76 24.4-39.26 55.32-50.31 29.3-2.79 60.45-4.38 89.04 3.42 18 13.7 27.25 34.43 22.03 56.7-13.2 18.88-31.48 17.12-34.92 38.55-3.14 1.02-6.28 1.98-9.39 3-14.3-.35-57.62-3.21-83.61 3.56-15.57 4.09-26.09 3.14-23.12 17.26z" fill="#fff100"/><path d="m1670.36 1329.21c3.06-4.02-1.8-12.35 2.25-17.4 11.48-3.74 10.28.28 17.86-9.04-3.03-5.08-5.5-10.17-9.53-13.24-6.1-.04-15.74-1.41-22.85-1.45-5.22 5.12 1.66 3.92-5.64 6.33-5.64-.07-20.3 15.85-24.15 11.93-19.6-7.1 5.57-16.31 5.93-16.69-2.01-2.01 1.09-12.64-1.91-15.71 2.44-2.4 39.3-9.96 42.93-10.84 1.06-6.07 2.08-5.58 1.69-20.31 3.07-4.02-12.04-14.26 7.28-19.21 4.73 6.33 25.95 5.15 34.88-14.54 12.54-12.54 50.81-5.72 62-4.62 31.38 21.32 15.53 26.37 21.61 31.52.95 4.09-2.54 16.94-.56 21.04 3.84 20.17-14.23 68.46-23.55 59.04-20.06 15.46-28.92 18.39-63.13 13.66-4.66 1.52-23.8 8.48-45.12-.46z" fill="#fff100"/><path d="m1599.65 1347.2c.14-5.96 9.29-9.85 16.09-9.78 5.83-.18 10.35-.39 17.94-.11 12.07-.39 23.69 1.94 23.72 9.43-2.22 5.54-10.41 6.64-16.52 8.41-5.78.21-11.61 1.13-19.21.88-7.06-1.84-21.26-2.12-22.03-8.83z" fill="#fff100"/><path d="m5471.22 1406.42c-4.87-5.39-9.74-10.8-14.61-16.23-14.37-17.26-21.36-20.31-42.54-27.26-5.89-.77-11.76-1.62-17.62-2.4-7.48-1.16-13.83-5.11-21.32-6.28-5.65-4.37-12.47-5.92-18.08-10.27-4.79-1.55-9.53-3.14-14.33-4.69-4.27.14-8.55.24-12.81.42-6.65-.71-13.28-1.38-19.89-2.08-13.94-2.82-15.39-3.18-25.84-12.61l-3.46-13.69c-.07-24.72-20.65-34.04-16.37-49.04 1.79-4.34 7.55-9.79 9.35-14.09 13.03-33.47 55.85-21.75 85.62-20.34 26.41 5.36 47 4.62 44.39 36.9 8.83 20.79 8.58 28.63 32.24 33.54 8.51 1.48 16.97 3 25.49 4.55 1.65 1.94 3.31 3.92 4.97 5.86-.63 2.25-1.23 4.51-1.83 6.78l-21.9-.64c-15.92 2.72-19.74 2.58-17.68 19.39 3.63 2.65 7.31 5.29 10.95 7.95 3.66.99 7.31 1.97 10.98 3 6.96 16.09 8.16 19.17 26.02 20.02 10.41 9.36 17.08 17.83 25.52 29.02 13.66 19.99 17.23 24.5 18.46 48.37 2.47 20.16 3.18 32.41-16.62 38.52-23.62.99-19.85-8.9-32.91-24.15-19.04-6.68-21.89-12.29-37.11-24.65-11.23-9.67-14.44-19.74 2.65-23.72 14.68 1.69 14.58 2.33 22.31 15.53 13.31 6.43 25.28 7.98 25.25-9.85-3.07-2.65-6.18-5.22-9.26-7.85z" fill="#fff100"/><path d="m4375.92 1225.26-2.06 4.03-3.49 54.83 2.86 26.41 3.99 7.13 137.95 34.39 42.53-74.61 67.22 19.07-56.8 125.2-304.72-89.65 1.06-131.02z" fill="#fff100"/><path d="m2432.88 1299.46.15-20.3 2.04-2.01 75.27-19.74 16.24.14 46.78 65.56 145.33-33.33 1.55-83.54 91.97-22.46 9.11 134.98c-111.74 13.77-227.58 45.34-339.57 90.73l-48.87-110.05z" fill="#fff100"/><path d="m1649.31 1395.07c3.78 11.68-27.67 33.86-76.33 51.15-16.13 9.54-27.46 20.2-44.63 15.78.04-6.07-10.1-3.14-11.05-10.27 9.18-8.06 33.9-26.83 40.07-37.99 13.13-6.11 60.97-16.45 67.68-23.09 9.29-8.59 16.83-.46 24.25 4.41z" fill="#fff100"/><path d="m1996.33 1386.99c35.42 11.65 49.08-14.55 36.09-23.55-15.01-3.21-35.7-15.89-62.43-13.59-31.67-.32-59.06-15.36-69.66-21.02-4.02-4.09-3-9.46-7.03-14.54.04-6.07-12.53-11.02-13.52-18.14-1.52 0-.81-.95-.25-1.87.57-.95 1.03-1.91-.98-1.91 0-2.04-2.3-1.3-3.29-4.34.08-11.19 1.49-31.2 1.59-42.36 12.36-23.27 45.09-18.21 67.4-20.06 65.98.04 65.06 20.55 83.39 53.24 1.03 1.55 31.31 21.01 34.04 22.56 2.68 1.56 5.5 6.89 7 8.41-5.12 6.07-14.69-.07-25.85-.14-27.32-9.39-13.87-17.9-43.24-23.2-6.11-.07-18.78 7.17-22.92 16.27 2.61 24.12 13.45 29.55 27.68 27.89 12.15 3.14 24.33 6.28 37.5 10.46 0 0-.04 1.02.95 2.04-4.09 5.05 1.13 10.31 7.2 13.42 13.17.1 10.42 6 21.54 10.13 22.57-.03 10.03 42.44 20.13 46.89 6.93 21.36-6.43-3.31 7.35 10.67 5.08.07 12.07 14.54 12.22 16.55 9.85 36.37 4.44 66.13-1.2 99.85-19.88-.07-17.19-12.61-24.72-15.57-6.07-15.99-14.75-14.83-28.84-23.45 8.19-7.03 20.59-3.52 26.2-8.01 24.92-11.41 9.92-35.14-2.16-45.2-7.98-.07-21.78-3.53-26.05-7.84-8.87-8.94-2.51-21.08-18.53-18.81-8.51-9.43-20.31-24.97-39.58-34.78z" fill="#fff100"/><path d="m1591.21 1777.45c10.95-19.7 1.63-36.86 21.08-56.52 10.88-12.46 3.99-4.9 19.53-20.2 10.88-7.13 51.9-25.17 48.41-24.61 20.3.18 25.7-4.33 75.41-1.19 14.19.1 31.31-7.49 39.58 3.91-2.12 12.18 2.54 16.77.42 28.91-.21 26.06-14.44 22.6-22.31 26.45-21.23-11.3-14.69.67-40.07 4.55-22.39 6.92-42.12 17.51-61.51 30.57-9.22 14.12-20.41 23.16-28.1 35.73-2.15 12.18-14.72 20.52-16.84 33.72-5.64 5.57-11.89 13.2-16.34 22.14-9.89 5.64-16.48 15.64-25.14 25.7-5.04 5.86-12.95-9.29-10.27-14.05 4.09-10.03 8.51-18.81 15.28-25.31 15.82-30.86 22.39-43.85 53.31-70.58 5.79-9.12 5.93-28.56.28-36.58-12.28-8.27-32.24 15.99-52.71 37.35z" fill="#fff"/><path d="m2007.56 1746.23c19.17 39.89-3.21 14.79-10.1 44.38 3.28 20.66 20.62 32.8 15.56 49.89-8.58 1.37-14.72-9.33-28.84-19.57-.28-11.26-11.26-25.56-22.21-40.56-14.05-19.32-15.46-29.44-38.2-42.36-13.73-7.85-34.95-7.53-58.01-8.27-14.23-.46-14.93-17.4-22.77-18.92-20.13-4.51 6.92-28.8 17.43-34.07 8.16-4.09 26.17-.11 33.09-1.59 33.72-2.33 47.66 20.31 64.71 23.73 8.45 1.73 20.48 13.66 27.43 18.92 10.21 7.7 17.23 20.27 21.9 28.42z" fill="#fff"/><path d="m1977.58 1595.68c-10.41-17.93-28.98-2.51-34.95 3.35-6.11-.07-13.63-.14-20.73-.18.11-12.18-5.22-22.38-19.85-38.27-9.11-3.1-21.22-10.56-28.24-15.67 7.7-7.63 14.05-9.82 18.74-15.46 29.8-16.91 40.25-30.93 30.26-39.23-13.77-.98-33.05-.77-41.48-6.03-18.5-11.51-40.53-22.63-62.46-21.93-34.53-.28-36.51 8.83-58.93 19.57-7.14-.07-25.28 4.51-48.69 11.08-10.56 7.63 17.09 24.37 25.77 40.89 6.54 5.11 13.98 7.1 20.03 12.21-6.11 4.02-15.25 6.75-22.42 11.76-7.07 19.92-29.38 29.94-49.4 5.43-14.22-1.13-6.24-9-24.01-7.03-3.03-2.04-14.26-4.76-20.55 7.28-7.73 26.58 31.61 34.67 33.55 53.73-3.39 2.89-10.35 17.62-20.84 9.11-5.29-3.31-8.55-2.54-15.67-14.58-32.35-17.75-16.17 40.6-25.6 52.68-19.67 21.5-16.48 30.18-25.95 35.06-2.47 1.23-4.87-6.4-5.47-9.43-3.7-17.93.22-54.01-.28-74.57-1.97-4.09 14.86-17.47 11.87-21.57 4.09-.99 4.37-8.94 9.46-9.92 2.75-2.69 22.1-11.51 32.56-26.62 15-21.65-5.44-19.43-1.66-19.92-15.64.85-25.77 19.46-22.67 15.39-6.24 3-13.38 3.28-21.5 3.32-3.04-.04-14.65 15.78-18.71 15.74-31.92 9.25 12.5-37.64 5.36-31.6 22.92-7 27.82-23.62 44.16-23.98 12.64-1.83 40.78-18.92 15.36-29.37-7.07-5.54-16.49-2.47-22.99-2.29-19.53.6-33.15 19.39-40.88 30.18-7.17 8.09-17.44 10.45-23.05 17.02-10.17 7.41-17.02-11.9-9.68-15.36 4.09-3-.28-8.62 4.83-12.64 3.42-6.71 6.4-13.06 25.28-20.9 32.56-9.4 58.05-16.45 79.82-36.33 21.68-5.26 31.75-48.09 29.38-63.03 23.48-.6 39.47-1.2 73.36-5.43 3.07-3.03 10.74-13.06 17.9-16.06 23.3.18 33.08-11.44 51.44-25.53 6.89-13.48-1.45-15.46 12.36-22.24 12.46 7.63 40.1 43.32 49.81 55.99 9.15 1.09 17.79 10.91 35.87 2.96 8.38-1.41 20.87 1.17 28.56 3.21 42.93 3.21 25.32 46.43 58.83 44.39-4.77 21.93-4.66 37.88-.71 44.66 9.04 9.22 50.77 12.89 22.07 26.73-10.17-.07-15.88-.42-20.69 5.4-2.9 6.64 2.68 15.67 8.26 24.43 6.36 9.89 13.52 19.28 23.24 21.5 24.25 11.48 64.07 16.91 53.45 31.61-11.8 16.34-31.42 1.55-37.04-1.27-3.74-10.74-20.27-23.13-42.86-19.39-11.86 1.97-19.35 2.75-19.53 18.74 2.86 8.9 9.57 17.86 17.93 17.58 14.76-7.84 18.04 21.05 54.69 18.64 20.66.17 20.3 32.76 35.73 40.28 14.33 6.96 30.82-9.32 45.48-11.69 16.52 4.27 4.41 25.85 13.48 35.06 2.54 5.96 9.79 1.87 13.77 4.98 3.78 2.92 4.8 21.25 12.85 23.65 15.75-.53 27.05 1.03 30.22 7.49 26.27 16.45 14.86 36.76 45.34 37 11.72-3.42 14.12-16.02 17.19-23.12 119.05.95 187.09 45.37 279.8 120.25 33.61 24.26 53.73 59.32 67.14 91.72 14.3 34.46 14.48 68.53-4.97 91.34-16.45 23.19-29.62 30-53.1 46.11-6.1 1.94-32.66-.78-39.79 1.2-84.24-.71-160.36-1.27-250.63-1.98-1.45-8.23-10.28-29.37-24.75-28.34-15.99.17-32.21 18.39-23.13 32.9 8.48 14.44 6.82 29.8 11.76 48.13-.14 18.28 2.82 29.48-7.46 44.63-20.37 13.03-27.67 37.35-48.15 56.48-1.03 3.04-2.05 6.07-3.11 10.1-5.08 4.06-11.23 9.08-17.37 14.12-1.02 4.06-3.1 8.09-5.15 13.14-.1 12.18 5.72 32.91 9.75 39.01 20.9 35.73 39.15 2.08 57.8 11.16-.11 13.17-2.4 30.96-3.53 45.16-32.87 33.86-94.87 54.93-121.1 4.13-23.59-19.07-45.34-10.32-43.21 11.68-2.08 3.04 16.38 22.28 12.14 28.6-12.49 4.83-39.82 17.65-51.86-12.89-7.03-10.2-17.08-37.35-13.34-64.82 6.24-66.76 32.38-136.07 52.95-173.49 60.87-104.19 116.51-152.42 195.35-221.87 39.89-40.32 110.29-85.44 163.18-104.33 10.28-9.04 11.33-18.17 3.28-28.38-5.01-6.17-11.12-7.21-17.23-2.15-67.18 26.87-145.67 66.87-193.79 124.38-10.17-.1-20.3-1.2-30.42-2.25-14.23.91-19.25-.57-34.5 1.37-20.83 5.01-25.17 22.42-35.84 34.64-.14 21.33-.21 30.04-1.41 52.39-10.73 15.96-29.23 32.87-46.99 58.19-14.23 18.42-50.42 63.58-72 141.18-53.55-.24-94.54.57-137.09 1.84-8.72-5.12-24.33-9.04-22.67-24.29.67-89.11.04-152.91-14.82-142.28-.99-2.05-.74.53-2.76-2.54-30.35-8.83-20.23 70.86-24.07 126.64-7.39 37.53.74 26.13-2.4 33.19-41.24 8.3-159.91 8.37-234.47.11-34.43-30.08-74.29-95.37-92.32-122.91-22.74-26.58-13.77-79.75-43.5-63.62-37.25 43.07-82.16 61.33-130.91 85.52-11.33 7.03-.14 25.7 15.29 24.78 12.21-2.96 16.38-2.54 28.45-8.83 8.44.07 24.5-8.97 36.16-7.24-6.96 24.86-27.33 54.65-37.75 71.43-11.19 25.66-37.21 56.16-69.15 59.98 3.03 1.06-35.24 10.81-31.21 12.86-13.63 13.45-22.49 16.62-42.15 18.35 0-.71-23.27-4.16.28-52.25 4.48-15.5-24.5-22.14-39.89-4.59-7.03 18.15-15.75 30.26-14.44 67.05 5.64 9.42 4.16 37.91 42.36 43.38 37.6-.46 34.04-40.56 73.19-26.79.99.98 2.01 3.03 3 5.08-2.05 4.02-4.09 8.08-6.17 12.14-1.03 0-2.01-.03-4.02-1.06-2.12 8.09-5.23 17.19-8.34 26.34-37.07 93.1-56.13 182.49-125.27 245.69-51.68 62.45-107.75 98.04-141.68 151.6-5.36 39.54-3.84 97.13-2.99 119.44 61.22 30.71 74.32 89.18 81.79 111.85-.14 31.74 1.56 75.73-17.12 55.21-22.56-28.35-38.2-72.24-79.22-88.05-42.79 22-33.44 61.64-45.9 100.13-12.67 28.84-27.32 90.16-31.81 141.92-46.08 2.82-44.6-62.21-40.32-91.58-.85-19.32 3.07-38.55 1.16-57.87-.92-8.16 9.33-26.76-6.99-31.24-29.34-.21-41.94 61.79-49.15 93.06-15.36 20.2-30.36-30-35.34-41.2-5.82-30.07-19.67-74.63-.43-135.61 41.73-89.96 69.53-160.82 72.38-203.01 50.7-148.32 92.57-322.2 211.31-433.94 14.58-50.66 69.3-169 98.19-229.73 30.96-65.73 68.21-157.84 133.88-247.74 65.39-58.37 121.42-102.11 213.07-141.01 9.61-.71 37.11-18.18 43.88-5.47 4.2 3.07 4.77 7.77 11.97 16.1 5.22 28.87 1.52 16.24 9.18 38.87 4.13 9.5 25.18 18.71 34.32 16.77 4.45 8.58 8.8 32.76 2.65 42.01-13.24 15.28-16.52 26.09-13.34 31.06 3.17 4.9 12.78 3.99 25.35-4.16-16.7 16.34-41.13 57.06-52.29 73.72-.04 5.04-1.27 16.87-2.33 22.95 2.61 8.19 14.65 16.87 28.98 11.3 11.34-2.47 15.36-1.87 16.21 1.83 1.44 6.17-.04 16.31-14.69 28.7 5.05 10.21 27.61 16.38 37.14 16.45 5.08-3.03 21.51-3.63 27.61-7.66 16.77-11.37 41.45-20.73 42.26-11.8-.11 12.18-27.93 26.91-40.88 41.63-18.43 27.74 8.3 32.76 32.09 20.58 18.29-7.2 11.62-23.34 55.08-23.19 12.39-5.54 12.71-25.78 43.31-19.82 15.71 3.07 34.15-16.44 56.24-16.27 17.54-2.71 49.61 30.08 64.4 34.43 59.98-6.54 82.3 27.57 116.4 47.8 30.6 7.99 26.58-12.92 21.5-28.56-.81-2.5-13.13-30.71-12.5-33.22 5.33-21.68 34.39-10.49 47.39-7.1 10.31 5.39 38.87 2.01 44.19-8.44 1.03-.99 2.01-2.02 4.1-3 1.02-2.01 2.04-4.06 3.07-7.07-11.41-6.54-13.14-14.93-22.67-20.97-2.12-.46-25.88-14.41-28.81-16.35 3.07-2.01 14.23-11.97 18.28-13.98 6.72.07 38.45 10.77 41.8 7.46 12.57 5.22 24.22-22 9.43-33.83 0-2.05-11.26-7.59-12.28-10.63-5.05-3.1-18.01-3.95-24.05-8.09-25.21 9.47-27.22-19.17-36.19-41.58 24.19-2.19 31.99-14.2 30.25-22.32-1.65-8.12-12.85-12.36-23.3-21.68-12.53-9.61-19.81-23.48-24.33-38.66.18-23.37-.59-40.14.43-56.63.92-13.98-5.19-19.49-7.6-22.38-3.7-4.48-18.92 4.44-21.78 23.48-18.82-1.48-35.73 5.82-33.16-13.21-1.45-12.56 27.19-25.56 15.39-38.3z" fill="#fddab4"/><path d="m1782.91 1517.38c.74-6.75 3.11-19.78 12.53-12.96 2.9 16.91 42.69 22.21 53 .53 10.24-13.03 16.94 4.73 13.84 15.57 3.66 13.24-21.33 8.97-38.7 10.87-13.24 1.45-45.83 10.63-40.67-14.01z" fill="#fff"/><path d="m5221.25 1450.91c-27.04 3.95-42.25-4.41-68.87 21.82-6.14 7.06-25.28 16.34-34.39 4.37-4.7-7.56 5.71-36.89 19.28-43.03 17.33-9.99 50.59-11.93 87.91-10.84 24.36.21 42.75.28 65.95 1.2 15.28 3.24 58.96 29.69 35.27 49.15-36.86.07-90.87-29.66-105.14-22.67z" fill="#231f20"/><path d="m5272.18 1495.23c14.37 5.18 28.52 14.15 31.06 24.67 3.07 22.18-35.34 61.97-73.22 64.47-17.69-.53-40.14-10.17-49.86-21.11-15.53-11.69-42.39-20.56-42.36-39.4 2.4-12.33 29.2-15.78 38.27-22.6 18.11-13.56 26.41-26.69 51.23-26.62 23.16-1.27 34.21 13.38 44.88 20.59z" fill="#231f20"/><path d="m4344.16 1403.14 116.26 38.2-70.39 110.9-110.37-29.44z" fill="#fff100"/><path d="m4366.28 1589-14.94 39.9-39.76-11.55 14.73-39.36z" fill="#fff100"/><path d="m4292.78 1569.73-13.24 39.92-54.48-11.67 29.41-38.71z" fill="#fff100"/><path d="m4339.34 1655.72-11.55 47.07-154.36-31.6 23.76-43.21 50.7 8.54z" fill="#fff100"/><path d="m4312.01 1744.59-13.74 54.19-54.47-7.62 7.38-60.34z" fill="#fff100"/><path d="m4212.27 1721.1-5.52 68.92-136.81-19.95 61.05-60.73z" fill="#fff100"/><path d="m4028.05 1691-43.96 44.55-38.73-49.27z" fill="#fff100"/><path d="m4118.09 1607.32-28.94 44.53-175.58-14.72-27.15-52.69z" fill="#fff100"/><path d="m4174.9 1536.1-28.36 38.02-105.52-14.97 3.28-40.36z" fill="#fff100"/><path d="m4206.88 1506.63-49.21-10.34 6.78-48.29 68.38 14.37z" fill="#fff100"/><path d="m4119.84 1439.14-2.61 45.76-169.11-14.28 4.94-51.51z" fill="#fff100"/><path d="m3905.21 1463.26-71.81-3.17-18.15-45.27 92.36.74z" fill="#fff100"/><path d="m3989.87 1554.57-117.07-5.5-15.68-38.45 2.05-2.02 132.22 5.41z" fill="#fff100"/><path d="m3830.81 1632.32-247-11.87-.49-47.16 224.87 5.65z" fill="#fff100"/><path d="m3860.94 1673.09 44.69 70.44-175.58-18.64 4.42-56.53z" fill="#fff100"/><path d="m3698.61 1666.58.25 51.9-114.95.63-.5-55.28z" fill="#fff100"/><path d="m3781.32 1502.24 9.75 31.74-60.48-1.41-2.37-30.33z" fill="#fff100"/><path d="m3676 1493.11 1.65 38.24-91.47-1.8-.21-38.84z" fill="#fff100"/><path d="m3592.12 1397.06 146.94 4.26 25.6 53.38-160.29-3.7-15.71-10.56 1.76-31.63z" fill="#fff100"/><path d="m3744.72 1326.1.36 29.79-33.83-1.2-1.87-29.62z" fill="#fff100"/><path d="m3427.28 1319.69 10.25-13.04 220.52 6.36-.25 34.6-258.65-3.68.35-21.31z" fill="#fff100"/><path d="m3231.52 1730.91-66.9 1.27 52.57-66.8 97.12.92.92 56.03z" fill="#fff100"/><path d="m3449.22 1663.1 3.03 56.66-100.37-.6-1.38-53.1z" fill="#fff100"/><path d="m3449.94 1571.07 1.48 44.53-217.8 7.09 22.53-48.96z" fill="#fff100"/><path d="m3339.94 1533.01-61.56 1.39 7.72-28.25 7.67-13.98 46.42-.57z" fill="#fff100"/><path d="m3453.44 1489.99.86 41.16-77.79.78-.88-40.29z" fill="#fff100"/><path d="m3456.61 1398.23-1.27 42.65-156.66 5.83 21.5-48.52z" fill="#fff100"/><path d="m3363.4 1323.3.46 23.87-35.47-.78 1.09-23.34z" fill="#fff100"/><path d="m3255.06 1408.84-19.07 40.91-37.85 3.6-2.36-41.55z" fill="#fff100"/><path d="m3143.98 1414.25-.91 41.87-171.49 16.39-.31-43.25z" fill="#fff100"/><path d="m2921.27 1475.07-52.53 9.67-19.2-31.32 69.09-16.38z" fill="#fff100"/><path d="m2708.67 1512.32-30.15-34.68-42.47-11.12-4.69-49.85c31.1-12.25 72.17-26.09 111.5-28.35l42.5 108.43-76.68 15.57z" fill="#fff100"/><path d="m2892.5 1522.66 135.68-16.96 1.56 40.71-109.63 13.88z" fill="#fff100"/><path d="m3210.65 1499.38-10.17 42.72-117 7.59-2.71-42.09z" fill="#fff100"/><path d="m3151.55 1630.4-163.29 11.58-45.09-45.33 108.5-16.42 134.37-5.57z" fill="#fff100"/><path d="m3131.24 1672.91-53.6 72.02-61.64-63.69z" fill="#fff100"/><path d="m2924.45 1700.84 53.21 56.73-123.57 14.65-8.8-63.05z" fill="#fff100"/><path d="m2802.24 1719.01 11.76 60.66-48.23 4.02-6.54-61.72z" fill="#fff100"/><path d="m2749.52 1675.54-12.71-9.36-1.31-23.73 31.38-25.91 83.79-6.47 33.28 40.4-20.96 18.64z" fill="#fff100"/><path d="m2809.77 1542.46 21.29 34.96-52.78 4.66-8.54-32.59z" fill="#fff100"/><path d="m2741.18 1553.86 10.73 31.5-31 6.84-9.67-35.52z" fill="#fff100"/><path d="m1911.08 1455.8c8.09.07 25.42-18.81 23.45-24.93-2.72-14.43-21.96-25.34-43.85-22.91-17.12-12.82-51.47-18.96-78.9-13.24-29.44-.25-24.89-5.08-62.49-1.31-27.93 5.37-46.96 11.59-44.13 37.99 3.03 2.05-4.09 11.62-.07 14.69 17.26.14 68.8-9.11 112.45-8.76 36.54 1.31 47.91 14.05 93.55 18.46z" fill="#231f20"/><path d="m1816.88 1646.26c-12.93 1.13-17.44-19-24.54-18.85-2.01-2.05-4.02-4.09-6.04-6.14-22.7-5.5-45.79 4.94-49.32-3.49-5.11-12.61 12.11-12.78 18.53-24.36 6.89-12.36 19.6-22.18 23.69-24.22 10.95-7.11 28.1-5.75 42.44-5.65 15.11-1.3 41.55-1.8 42.15 12.22 6 9.21 5.93 24.15 17.58 25.63 5.71 5.15 10.45 7.24 6.71 18.39-8.9 4.62-31.74 3.98-39.86 4.94-10.56.99-17.72 21.25-31.34 21.54z" fill="#fddab4"/><path d="m4997.02 1804.48c-6.43 3.43-10.35 1.98-11.83-4.34.7-4.37 1.37-8.75 2.08-13.16 2.5-4.66 5.04-9.33 7.56-13.98 2.43-3.71 4.9-7.42 7.35-11.13.63-5.75 1.34-11.54 1.97-17.29 5.47-6.61 12.29-8.94 19.35-10.63 2.76-4.38 5.47-8.76 8.23-13.13 2.61-2.76 5.97-3.07 10.17-.92 4.59 1.94 5.9 4.62 3.99 8.12-3.81 5.4-7.63 10.81-11.47 16.2-3.85 5.12-7.74 10.21-11.59 15.29-1.34 6.61-2.64 13.17-3.95 19.78-2.15 4.37-4.3 8.79-6.43 13.2-5.15 3.99-10.27 8.02-15.42 12z" fill="#fff"/><path d="m2031.5 1870.18c-.99-1.02-6.89-3.56-5.92-6.96-2.51-1.69-3.43-10.21 2.15-8.55 7.06 1.06 8.72 2.65 15.78 4.76-.99.99-1.84 4.63-3.88 6.61-3.04 1.02-4.03 2.12-8.13 4.13z" fill="#fff"/><path d="m3636.66 1801.31c-23.34-.17-135.97-3.07-249.69 3.14-136.99-1.06-205.16 19.71-343.17 18.64-143.2 13.1-238.88 47.91-379.01 57.98.04-4.06-.95-9.15-1.9-14.23 5.11-4.02 4.13-8.13 2.15-15.22 30.47-5.85 88.41-15.56 111.82-26.55 11.19-.91 164.38-22.45 163.39-24.5 224.51-31.95 376.93-39.19 598.18-44.45 129.85 6.06 378.44 31.13 498.09 45.26 82.08 14.87 201.7 34.08 324.29 58.4-5.12 8.09-6.18 14.16-12.36 28.32-76.01-16.84-201.7-37.11-340.59-56.45-138.86-19.39-238.28-25.21-371.2-30.33z" fill="#fff100"/><path d="m2773.63 1950.94c-.95-7.1-6.78-11.23-11.72-28.52 167.67-25.11 252.09-48.8 444.99-60.48 207.14-11.62 433.84-12.08 552.51-3.36 164.52 7.85 353.48 21.86 505.04 80.11-1.51 2.01-1.83 3.77-5.71 8.97-3.88 5.19-7.88 10.35-9.92 12.36-165.27-50.14-352.04-60.1-504.24-71.57-209.97-13.8-388.65-5.05-558.22 3.77-70.05 4.52-235.88 27.61-412.73 58.72z" fill="#fff100"/><path d="m1843.68 1884.66c-5.47-4.52-11.09-21.33-22.67-29.55-14.89-10.63-30.18-8.2-33.86 27.89-13.31 19.21-20.51 17.08-42.93 28.1-26.33-4.3-20.44.18-48.9 4.02-4.05 3-4.05 3-7.13 3-4.66-37.85 17.61-7.77 39.68-57.45 9.43-19.63-22.07-23.72-34.74-9.92-6.65 19.21-27.01 29.79-48.62 41.87-11.44-.99-3.92-24.72.99-29.58 24.36-2.08 8.26-30.22 42.82-37.08 4.13-8.08 4.2-19.52 24.33-36.64 31.2-8.66 60.41-24.26 63.4-21.19 14.37 13.34 23.31 27.68 30.36 32.8 17.58 3.46 37.6 8.62 52.36-.14 5.79-3.42 10.73-8.97 14.47-17.58 10.42.07 7.03 1.34 15.92 1.41 55.85 10.6 26.17 40.82 45.41 44.03 1.02 1.02 11.05 3.14 13.06 5.18-1.02.99 5.97 3.18 4.94 5.22 2.23 6.43.46 12.57 14.16 17.23 24.22 16.55 36.05 24.36 36.08 25.81.85 17.19-41.44-1.84-48.3-12.29-17.79-4.73-28.52 3.49-29.01 13.1 5.99 16.87 31.06 31.1 41.34 31.13 4.97 9.15 6.85 27.36-1.91 27.15-19.63-1.3-28.81-19.6-41.13-23.55-15.78-5.08-31.38-2.08-41.44-3.91-10.07-1.87-14.58-8.69-17.41-19.74-2.15-8.52-18.24-3.32-21.29-9.36z" fill="#fff"/><path d="m2640.16 2078.38c9.89-23.8 33.76-46.43 53.38-59.31 2.19-20.31 1.27-46.4 1.13-66.69 6.07-45.55 20.55-10.81 25.07 5.64 6.89 11.9 13.91 21.4 21.72 36.47 127.34-26.51 241.52-47.42 334.84-56.06 97.2-11.02 226.56-15.46 360.51-18.49 127.91-3.07 253.71 2.36 378.48 11.72 140.94 15.32 309.95 23.72 442.56 68.42 49.18 11.86 48.01-16.28 58.43-51.73 13.28-7.17 23.38-3.24 30.43.39-8.44 42.58-11.83 104.08 31.14 139.35h-61.44c-7.98-22.77-17.29-46.96-54.33-60.94-146.88-32.62-277.68-48.47-406.47-60.65-113.58-10.03-210.99-14.23-311.47-15.01-188.75-1.48-342.96 4.17-463.85 15.39-78.49 7.74-189.35 16.88-276.45 44.1-41.02 12.81-75.69 19.45-104.08 45.69-.98 1.02-12.5 20.16-14.51 22.17z" fill="#fff100"/><path d="m5785.97 2151.1c-8.93-13.09-7.94-13.13-6.88-29.01.49-12.61 1.83-21.65 4.83-33.97 15.14-8.37 11.97-6.28 25.84 3.81 5.33 14.19 6.43 18 5.33 33.01-1.2 10.74-2.15 15.85-6.57 25.64-12.11 7.2-9.64 6.57-22.57.52z" fill="#231f20"/><path d="m4952.95 2583.28c-.96-6.1-1.94-13.24-2.9-20.34-5.96-16.31-12.92-33.62-19.88-50.95.21-29.44-10.94-32.55-10.77-50.8 32.45.21 56.92-9.08 79.44-39.37 8.37-31.41 54.22-57.09 44.35-88.61.14-17.97-.74-42.93-5.61-66.76 47.73-2.68 71.46-3.18 111 1.2.74 33.5 1.13 72.45 2.89 106.97.99 3.07 3 6.14 4.98 10.2 7.03 8.2-7 20.91 42.78 18.22 31.21-4.87 63.66-4.48 91.83-2.23 82.76 39.3 144.5 85.97 204.38 111.18 5.08-.95 11.2-1.94 17.27-2.89 1.02-1.02 2.08-3.03 4.12-5.04.04-4.06.11-16.28.14-21.37-58.18-43.81-101.89-61.4-124.98-80.6-47.31-39.33-78.31-46.39-184.58-41.58.25-31.28-3.56-66.66 2.79-97.1 90.8.71 181.11-4.37 272.35-3.67 26.44-5.89 58.26-60.37 91.01-94.61 12.15-9.22 71.85 72.52 75.59 114.21-9.32 24.26-14.75 71.64-30.14 91.83-5.82 15.21-71.01 152.38-86.19 158.74-6.24 21.29-15.74 32.7-28.17 59.35-209.05 1.41-365.1 7.67-551.72-5.96z" fill="#fddab4"/><path d="m5285.12 3212.4c.1-15.29 4.69-33.83 12.42-50 7.18-7.03 23.17-34.99 45.13-49.28 31.49-4.66 50.7-3.5 83.18-2.23 20.66-4.9 37-14.15 41.34-46.64-9.88-36.61-23.97-15.11-40.98-37.49-9.47-38.24-46.96-99.99-52.96-112.21-20.73-41.72-26.58-64.92-51.26-106.65-14.87-21.68-16.66-41.02-29.3-62.56-10.88-14.62 47.52-13.17 52.78-15.46 19.17-13.03 12.53-40.14-31.89-38.2-9.92.45-25.31 7.41-49.36 5.53-21.18-1.62-50.94-12.04-62.67-12.56-65.35-3-79.4 5.99-148.07-4.31-29.48-4.41-6.03-16.87-42.82-19.24-36.3-2.37-86.33-2.65-96.43-18.89 2.72-19.17 20.52-19.49 59.25-22.6 34.53-2.71 83.61-1.48 124.1.43 27.71 1.27 42.51 6.5 69.09 7.84 18.5.92 40.18-14.93 61.89-14.19 31.78 1.09 54.65 15.53 74.96 14.93 23.72-.74 13.59-15.14 98.11-11.93 17.41.67 78.03-2.9 107.08 3.84 8.12 1.87 20.59 4.98 20.62 6.64.07 2.4 2.9 29.83-14.22 29.83-33.02 0-92.82-5.04-129.54-1.02-26.83 2.96-14.23 33.83 12.82 32.06 35.62-6.07 91.97-1.94 129.53.36 40 119.36 76.61 271.21 100.27 355.35 11.9 47.87 5.36 82.23 27.33 91.96 4.23 37.46 40.49 81.03 23.12 101.72-15.32 5.15-25.42-32.73-44.16-38.84-20.41 1.49-44.16-2.82-70.62.71-21.43-2.01-29.37-26.58-57.97-23.23-43.56-9.47-61.19-38.59-98.37-6.04-17.15-1.79-26.83 12.15-23.12 36.02-2.82 19.28-5.51 32.13-23.83 35.02-.99 1.03-20.34-10.38-22.39-9.39-18.6-19.78-31.24-16.73-53.06-19.28z" fill="#fff"/><path d="m4834.96 3223.9c7.53-91.02-3.38-164.91 3.67-299.36 6.96-44.17 41.87-52.68 45.38-84.77 6.24-57.17 26.19-83.22 29.51-133.99 15.57-1.31 23.51-7.95 34.21-12.75s22.92-9.04 39.68-7.98c1.31 41.69 18.89 46.96 63.87 46.64 2.44 25.42-1.76 92.92-1.94 116.33-.07 4.06 4.66 55.78 9.68 71.92-5.54 26.97-2.97 77.28 14.05 108.39 7.38 20.8 25.07 14.34 32.03-3.28 5.08-12.85-2.86-31.71-9.93-50.13-5.47-15.85-.21-34.67-3.42-49.75.14-12-5.89-27.53-5.71-47.94 2.54-35.14-.75-82.24 1.55-118.8.56-24.9 26.83-14.48 24.01 6.57.63 47.77-.57 66.44 3.49 90.1 13.63 23.93 35.84 25.98 33.44-9.68-1.34-20.06-2.47-66.9.7-93.1 1.7-13.7 9.29-19.35 13.7-19.1 3.81.31 3.88 20.37 4.9 32.84 4.7 56.23 5.4 102.52-.03 144.07-8.16 15.36-23.34-6.92-30.22-8.37-15.92-3.31-12.14 33.72 17.58 53.38.14 2.19-6.85 27.75 11.93 45.73.71 26.72-1.58 53.45-.88 54.51 5.86 33.26 28.07 31.34 37.28 13.06 13.56-24.33 13.46-76.23 12.54-101.5 2.22-23.34 2.57-126.4 1.73-228.04 6.67-7.32 11.05.56 22.88 6.85 27 79.33 95.68 199.9 128.4 243.96 10.7 19.67 18.92 37.88 9.85 44.91-5.04.99-23.62.39-28.73 2.4-12.43 4.98-30.29 10.31-41.73 27.36-17.16 7.07-28.77 22.88-44.53 75.66-5.75 23.13-12.28 35.59-21.75 43.39-16.9 13.84-43.14 8.93-90.98 5.57-36.29-30.6-36.33-63.3-72.02-39.5-1.77 22.07-28.42 27.32-66.62 63.37-38.42-.28-30.68-45.19-65.56-51.16-.18-59.98 3.91-118.9 7.27-177.44 15.43-19.25 16.35-70.83 18.78-126.64.21-27.93-10.77-33.34-24.25-28.99-13.49 4.34-29.55 18.46-29.73 44.35-.49 34.89-2.33 85.73-6.68 114.43-4.19 68.98-9.81 161.28-10.1 198.38-.03 33.86-23.86 19.57-21.89 6.36-5.82-49.46-.77-150.58 3.92-204.34 3.56-39.97.53-41.98-14.02-39.26-2.89.49-11.72 6.24-11.9 16.2-1.27 66.27.89 199.76-1.83 256.49-1.48 31.03-22.21 48.97-21.58 2.65z" fill="#fff"/><path d="m1666.17 2611.74c6.07 1.06 24.65.95 31.75 3 1.97 8.16 1.48 16.27-.11 24.4-.07 13.48 8.94 18.46 25.28 18.99 33.68 1.1 24.08-24.78 29.83-50.02 3.53-10.67 11.97-15.39 28.45-11.97-.14 18.53 20.7 22.81 26.23 38.83 16.42 4.55 27.19 8.34 45.66-3.7 8.65-16.91 8.19-17.65 21.89-32.66 48.72.38 37.04-.85 94.84 1.62 14.54.14 78.23.35 92.04.46 29.68-4.31 20.41 49.43 2.01 39.26-16.95-.14-36.79-5.4-53.67 1.2-17.93 15.39-3.98 12.99 9.33 29.9 16.31 8.9 19.99 13.02 57.09 11.86 12.61 29.23 40.25 76.26 51.97 136.25.92 11.19 9.64 66.09 10.56 78.27-.18 23.34-.39 46.71-.57 71.07.96 7.14 1.91 15.25 2.86 23.38-.28 33.5-.28 33.5 3.18 111.74-.21 30.43-6.04 40.21-6.28 70.69-3.78 16.55-26.45 29.05-39.26 5.5-9.64-17.68-52.39-16.13-55.82-19.67.29-39.61-2.71-160.43 25.74-165.27 2.01 1.03 8.73 111.47 4.66 112.45 2.57 23.48 26.62 21.01 27.36 7.32.46-61.93 4.55-111.25 5.04-174.17-18.28-22.98-12.07-9.92-37.74-23.02 4.09-3 4.98-9.36-9.18-16.59-22.67-.18-13.1-10.95-26.2 6.24-1.3 63.34-14.86 77.71-18.35 106.9-6.68 55.75-4.06 91.48-4.45 142.04-8.23 25.24-24.82 26.23-37.88 13.52.04-5.68-3.6-81.34-4.3-83.93-10-6.74-11.83-63.62-8.8-111.39 1.45-36.65-16.45-28.45-23.51-34.18-4.27-3.45-5.43-11.97 1.97-38.16 2.86-21.47 20.41-43.64 25.18-66.62 3.24-15.6 9.5-45.34 10.94-83.15-1.37-19.53.92-52.04-7.77-56.31-8.12-.07-27.64-7.1-35.8-6.14-24.86 12.18-13.56 33.48-13.87 72.98 7.63 100.73-15.11 78.8-18.39 105.17-1.38 39.09-1.52 45.06-3.81 62.39-.11 16.27-22.04 32.24-16.56 66.69 6.85 20.23 28.95-1.98 35.59-8.51 3.39 0 6.33 7.84 6.96 19-3.24 31.42-3.28 90.06 6.75 98.47 9.32 7.8 13.13 57.69 4.8 78.27-36.72 10.2-49.29-3.56-64.96-26.9-3.07-.04-7.03-17.48-50.24-17.76-30.75 2.54-44.42 6-66.52 5.82-1.2-26.93-20.3-52.71-29.44-71.42-10.35-21.23-10.28-37.82-23.34-51.73-52.11-27.29-52.04-17.89-42.54-64.53 1.02-.99 2.05-2.01 3.07-3.04 1.02-3.03 2.08-6.07 3.14-10.13 13.8-9.75 56.34-90.84 71.43-146.74 18.25-21.08 13.41-27.32 20.76-64.61 13.35-11.68 21.33-27.53 19.81-35.94-11.9-37.63-71.46-27.57-72.55 2.89-1.13 12.19-2.23 24.33-3.32 37.54-2.22 64.96-72.98 173.35-71.22 205.44-10.27 15.14-16.16 25.88-21.39 43.1-9.96 3.99-18.01 8.51-26.31 29.76-2.01-1.02-4.02-3.07-7.06-5.12 1.13 1.8-3.85-60.58.32-91.26 12.39-19.67 23.79-95.61 18.49-155.09 2.08-7.07 1.02-50.74 4.13-58.83 10.03-.91 22.99 1.27 28.17-9.21 32.1-23.41-12.5-58.58-52.81-34.43-8.2 9.08-20.87 7.56-33.05 10.52-15.5 4.91-31.28 38.59-40.64 67.96 3.53 37.6-23.97 61.22-14.72 92.01 4.55 10.34 27.47 6.46 37.04-4.27 9.43-29.16 3.52-71.92 31.6-56.85-7.74 78.13-4.8 162.06-13.52 239.16-1.8 20.31 1.59 24.89 4.55 32.06 19.77 20.42 19.53-10.66 31.6.64-.24 28.98 12.25 39.12 30.04 39.54 29.76 1.24 58.65 7.1 54.51 17.19 40.88.42 27.5 32.31 45.69 64.57-.28 37.99-36.43 78.31-81.41 69.74-23.27-28.74-21.64-40.43-15-52.99 5.15-9.72 13.38-19.96 15.28-39.05-2.04-25.95-34.63-25.42-44.8-25.49-28.07 9.32-42.08 30.04-38.52 84.98-34.46-6.5-87.35 22.28-110.93-29.19-19.39-12.5-44.88-11.34-57.59 8.05-30.93 4.55-34.75-17.79-48.44-25.7 23.02-18.97 16.87-35.45 25.13-63.48-1.69-17.19 13.81-32.2 20.49-42.05.1-10.2 1.3-18.03 1.37-28.17 3.18-17.26 10.1-21.79 14.23-31.92 3.95-5.43 3.17-21.93 7.56-33.72 5.61-15.14 20.55-26.3 20.87-36.4.1-16.2 5.01-64.4 18.96-107.48 4.83-14.82 17.23-120.64 24.86-126.67 12.14.07 29.02-12.26 41.2-13.17 9.43-9.29 15.32-34.11 5.15-43-15.22-1.13-28-4.55-44.21-5.68-2.96-14.23-18.07-13.38-17.97-27.61 68.67-1.34 158.64 7.42 227.44 16.24z" fill="#fff"/><path d="m1479.19 2555.77c1.45-7.48 1.45-14.79 2.3-26.97-2.93-13.24-5.89-26.44-9.82-40.7-24.19-24.58-94.51-180.45-99.56-183.56-8.87-24.93-33.62-45.09-7.07-71.11 33.37-23.8 51.34-64.19 60.24-94.16 26.05 27.61 49.99 56.49 64.32 77.96 18 8.68 21.75 29.65 98.89 27.22 24.44-2.05 78.03-6.86 199.48-8.13-.28 31.85-.49 49.01-5.85 80.6-79.08 6.57-151.25 69.41-200.12 87.31-11.23 11.05-37.95 10.07-38.02 29.37-1.8 12.29-2.01 25.78 23.83 20.84 31.17-18.07 78.59-28.88 133.92-66.3 22.21-14.97 55.74-20.34 80.78-17.58 3.24 24.11-4.48 64.57 18.28 64.25 23.87.18 19.49-21.11 20.45-37.99 4.05-34.25 2.04-82.97 4.97-119.4 1.69-21.32 9.71-37.07 23.59-41.16 35.8-.88 72.94 3.67 116.64 1.69-14.47 80.25-15.85 150.55 22.67 184.2 25.7 33.44 50.56 30.18 105.28 13.45 20.13 6 3.32 34.46-10.49 42.36-6.46 13.84-9.11 79.86-21.11 80.71-60.31 4.51-133.04 3.98-230.94 1.97-124.87-2.57-256.45 2.61-352.67-4.87z" fill="#fddab4"/><path d="m1433.57 3652.7c-10.45-25.98-18.85-47.56-24.51-67.29-2.82-9.92-2.57-34.81-4.55-42.89-5.75-22.95-15.85-29.23-21.85-50.87-13.35-27.19-17.93-76.62-19-105.46.21-29.83-3.25-117.6-1.41-142.7 4.94-13.35 26.47-12.32 38.97-6.57-1.48 18.6 4.84 31.88 29.44 27.36 10.17-1.94 25.25-5.19 44.74-8.9 5.58-17.58 34.89-8.2 85.69-16.91 12.43-1.2 28.38 2.01 25.95 24.29-2.54 13.1 10.98 28.49 27.75 29.09 16.69-.53 27.32-5.82 38.52-22.49 5.08-.99 11.19-2.97 17.29-4.98 5.36-.6 25.07.99 44.09-11.08-.17 21.32.36 62.7.18 83.99-12.22 16.06-12.96 21.68-13.03 29.8-4.05 22.42-1.41 52.95-6.28 65.35-18.28 9.6-25.87 41.48-31.17 67.11-10.7 5.47-14.58 23.8-23.62 33.08-13.27 6.07-23.48 1.42-26.48-5.71-3.98-10.21-4.16-27.22-5.5-43.67.21-27.04-.7-36.93-13.24-39.61.21-26.13-3.84-76.83-22.21-76.97-21.22 1.2-15.99 27.79-14.75 48.16-.07 10.17-.67 45.09 15.49 78.31 2.19 29.37.39 52.11 5.26 77.53-.46 8.62 15.11 10.66 17.19 24.43 4.55 30.29-1.38 82.66.46 114.81.42 7-11.62 20.24-14.9 36.76-11.86 58.96-3.21 141.64-34.99 137.16-7.88-4.13-73.97-112.48-88.83-138.36-21.61-37.57-.63-49.99-24.71-92.75z" fill="#fddab4"/><path d="m4978.94 4408.17c-32.31-70.68-27.29-136.7-26.76-201.66 9.85-36.79 9.99-63.59 19.32-95.58 7.38-25.42 29.23-16.73 31.34 5.36.78 8.13 1.03 18 4.48 26.83-.14 19.32 1.2 24.58 23.45 38.98 23.37-4.9 17.82-68.88 8.9-93.34.21-26.41-5.47-35.31-5.22-62.71-8.73-36.12-21.79-34.56-43.07-28.17-4.06-163.5-25.21-146.84-72.17-265.11-43.67-110.09-74.18-282.69-76.79-424.66-1.02-24.29 34.75-10.35 46.47-36.05 11.01-19.92 67.43-5.19 98.36-9.22 13.06 14.3 16.94 32.59 33.09 47.95 12.07 10.84 27.43-1.62 40.7-11.86.07-7.14.35-12.47.78-17.9.21-2.72.46-5.47.74-8.51.7-8.44-5.19-27.26 13.13-27.93 14.19-.88 68.42-4.09 107.48 4.34 5.47 33.62 4.16 99.6-.43 138.76-6.5 50.8-17.01 87.84-40.07 115.97-1.09 10.14-2.18 20.31-3.28 30.43 2.58 26.48 32.63 5.93 41.56-22.49 2.5 73.12-5.54 163.18-2.3 241.56-5.61 70.02-4.23 154.85-19.35 218.72-13.77 24.85-4.23 81.05-22.99 78.09-13.59 7.07-16.34-52.43-8.61-64.32 31.85-48.94 1.16-62.43-14.09-54.76-22.99 13.45-12.43 34.95-19.6 62.74-4.3 39.64-13.27 47.13-22.21 81.66-.32 38.62-1.76 42.89-2.08 81.48 1.13 38.55 26.76 42.18 36.12-5.58 29.37-100.69 28.45-9.57 45.19-11.16 17.05-1.65 8.55-26.69 24.93-27.71 21.82.18 25.28 57.77 27.89 106.66 2.15 15.67 7.38 31.34.64 64.75-21.33 47.91-37.15 77.84-77.11 134.51-3.81-60.76-.11-88.75 1.97-166.74-3.06-18.89-35.69-28.88-36.01 8.69 5.29 41.23-3.1 172.36-9 224.51-36.86-20.38-79.65-56.31-105.39-76.55z" fill="#fddab4"/><path d="m1881.54 4436.1c-31.64-77.32-61.36-100.76-95.44-155.2-7.56-54.58-9.5-67.79 6.75-75.2 16.06-7.39 13.42-45.87 14.93-74.92 4.03.07 20.91-25.18 25.95-24.12 19.18 14.33 40.74 25.53 35.49-21.33-1.66-14.01-7.91-124.03-8.9-124.59-6.89-33.37-2.61-25.84-16.17-53.49-11.05-16.31-29.02-49.18-42.05-74.99-14.72-18.25-16.87-41.02-15.7-60.3-.89-15.22-1.8-30.43-2.68-46.71.03-132.01 2.11-269.07 3.1-400.06-2.86-20.34-15.92-67.14-11.26-84.13 11.15.1 45.26-3.07 57.44-2.97 18.6 6.93 31.17-5.68 78.41 10 26.98.21 45.98-9.96 60.24-16.73 16.31-8.2 59.21-4.77 80.53-4.59 23.23 7.49 33.22 17.9 69.19 18.78-3.35 36.54-7.63 66.97-5.89 102.52-1.2 25.39-10.31 151.22-18.53 165.37-5.57 65.95-34.71 157.11-48.19 195.59-27.93 66.8-53.67 113.55-73.44 176.36-11.27 11.05-17.23 22.98-10.49 41.27 4.97 12.25 13.77 14.08 17.05 26.54-.11 12.22-.18 24.4-.32 37.61-1.16 20.58 13.63 51.61 12.54 60.69 7.73 39.75 35.41 79.47 35.87 147.47-.88 88.51-43.28 127.84-56.56 173.64-3.67 18.21-18.96 28.38-25.17 47.35-2.72 19-42.47 29.47-66.69 16.13z" fill="#fddab4"/><path d="m1828.88 4654.91c-21.47 13.06-42.33 24.71-63.27 35.52-32.7 16.8-65.7 31.55-101.96 46.32-38.8 2.15-39.44-1.48-27.72-34.71 26.2-27.25 54.44-50.7 83.12-75.34 15.35 35.1 22.24 32.59 59.6 25.56 49.42-24.96 92.74-51.3 136-85.83 21.08-23.2 28.59-34.28 2.99-56.27l-9-11.2c31.45-18.81 65.84-41.62 98.75-47.34 40.6-7.1 35.91 9.88 20.69 36.01-24.82 31.42-48.01 55.81-74.7 78.84-25.28 21.89-52.04 42.18-79.86 60.76-14.58 9.71-29.48 18.96-44.63 27.68z" fill="#e6e7e8"/><path d="m1765.73 4599.05-824.67-1430.84c-4.97-13.24-18.35-39.61-19.25-57.9 4.24-25.35 7.85-75.27 27.19-85.06 29.93 5.72 38.16 48.09 56.27 61.4l869.93 1438.15c.85 35.55-73.57 85.93-109.48 74.25z" fill="#e6e7e8"/><path d="m5147.99 4624.28c-2.08 3.04-32.38-22.56-52.74-37.63-17.72-22.32 8.3-42.9 15.39-56.06l924.41-1460.64c21.08 31.67 24.71 87.52 24.5 114.92-11.33 22.24-12.5 40.53-31.95 64.75l-829.48 1368.13c-11.44 14.19-27.61 20.3-50.14 6.53z" fill="#e6e7e8"/><path d="m1579.27 4696.42c2.61-72.07-1.02-127.95-39.82-226.77-15.61-33.41-51.51-86.86-86.36-159.62-34.11-71.11-38.13-111.78-29.52-191.68 2.01.53 3.21 4.62 4.55 8.73 1.31 4.05 9.15 11.4 11.66 11.93l242.02 409.47c-.07 8.09 19.1 34.15 4.86 41.17-34.14 30.11-85.86 69.55-107.4 106.76z" fill="#fddab4"/><path d="m1692.18 4823.23c-9.14-14.58-17.64-29.09-24.04-38.98-6.82-5.89-.46-12.5 11.69-16.45 60.87-20.13 140.27-66.37 211.73-113.4 62.53-41.17 116.58-86.4 160.04-131.05 21.33-21.9 23.38-10.21 31.78 2.11 12.36 19.57 22.18 36.58 30.64 53 6.28 10.06 13.84 25.59-1.65 37.53-52.68 50.34-95.12 96.42-162.91 138.47-43.28 26.86-114.46 65.73-169.95 90.2-44.25 16.34-53.14 27.54-87.32-21.43z" fill="#e6e7e8"/><path d="m5337.33 4874.77c10.91-21.93 29.3-43.67 50.31-77.95 4.41-14.27-19.53-69.91-72.91-124.18-24.32-22.81-10.17-128.4 6.07-161.66 98.72-164.07 147.65-229.7 246.37-393.73 3.03-.99 6.1-2.01 10.17-2.96 37.25 168.82-58.08 291.94-150.86 472.98-29.27 73.55-36.9 150.12-20.98 191.89 9.15 23.48 23.48 47.84 59.64 71.63 12.32 16.14 12.88 32.63 9.32 46.47-5.08 19.81-41.87 26.58-49.11-5.57-2.29-10.31-1.23-21.23-1.69-28.81-3-5.12-7.03-10.24-11.06-15.32-6.1-.04-13.2-.11-20.3-.18-2.05 1.03-4.09 3.04-7.17 5.01-5.47 19-6.75 32.95-5.36 48.97 1.3 15.5-13.21 17.44-28.35 16.91-8.41-.95-30.08-11.37-14.09-43.49z" fill="#fddab4"/><path d="m5228.1 4902.73c-80.74-41.8-127.66-64.43-205.58-129.61-97.87-73.89-140.16-132-188.07-195.27-8.87-10.59-3.78-25.28-3.78-30.36 12.39-16.87 20.73-28.84 30.89-41.27 10.13-12.42 15.99-15.32 24.64-3.38 40.81 51.51 87.84 96.74 197.68 177.76 93.49 74.18 137.03 104.01 205.52 131.76 20.02 8.12 21.08 18.78 21.08 20.51-2.05 1.03-28.88 50.84-39.12 61.93-5.75 14.09-21.01 17.26-43.25 7.95z" fill="#e6e7e8"/><path d="m1506.6 5636.25 5.47-10.98c1.2-2.33 2.65-4.02 4.41-4.94 1.73-1.02 3.71-1.3 5.96-1.05l5.33.49c2.89.21 5.08-.14 6.68-1.13 1.55-.95 3.21-3.21 4.94-6.64l79.61-158.92c1.87-3.81 2.79-6.57 2.75-8.33-.11-1.77-.92-3.57-2.54-5.33l-2.93-3.81c-1.37-1.87-2.08-3.63-2.19-5.4-.03-1.8.57-3.88 1.77-6.36l5.47-10.91 124.24 63.94c4.16 2.19 8.97 4.44 14.51 6.89 5.47 2.36 11.44 4.87 17.89 7.45l-27.39 54.69-6.96-3.57c-3.56-1.83-5.79-3.7-6.82-5.53-1.02-1.91-1.41-5.05-1.16-9.33.49-9.67-.71-17.01-3.71-22.14-3.07-5.08-8.72-9.74-17.12-14.05l-48.44-24.96-37.04 73.86 25.67 13.21c3.35 1.76 6.4 2.71 9.25 3 2.83.31 5.33-.11 7.49-1.2l7-3.71c.46-.21 1.06-.49 1.69-.77 4.83-2.47 8.55-3.04 11.23-1.66l9.68 4.97-30.54 60.94-9.68-4.97c-2.75-1.45-4.55-4.91-5.5-10.49-.14-.71-.25-1.13-.32-1.27l-.95-8.3c-.42-2.33-1.59-4.55-3.53-6.71-1.87-2.19-4.48-4.1-7.84-5.82l-25.63-13.24-35.03 69.91c-1.69 3.38-2.43 5.99-2.32 7.84.14 1.87 1.23 3.98 3.24 6.46l3.11 3.81c1.69 1.91 2.68 3.81 2.92 5.75.29 2.05-.17 4.17-1.3 6.47l-5.5 10.95-75.88-39.09zm190.44 98.83 4.91-11.27c1.05-2.43 2.47-4.16 4.12-5.18 1.7-1.1 3.67-1.52 5.93-1.38l5.33.25c2.89.1 5.08-.39 6.6-1.45 1.52-1.09 3.07-3.39 4.63-6.96l71.53-162.83c1.55-3.6 2.22-6.36 2.01-8.19-.28-1.8-1.41-3.74-3.42-5.86l-3.81-4.09c-1.63-1.55-2.61-3.32-2.93-5.33-.28-1.9.07-4.09 1.16-6.5l4.91-11.26 80.63 36.19-4.94 11.19c-1.06 2.43-2.5 4.13-4.34 5.15-1.83.99-4.16 1.34-6.96 1.06l-5.89-.5c-3.35-.38-5.89-.03-7.59 1.06-1.73 1.1-3.32 3.35-4.8 6.82l-75.34 171.52 57.55 25.81c5.61 2.5 11.37 3.21 17.37 2.15 5.96-1.02 11.3-3.77 16.02-8.19 1.03-1.03 2.44-2.33 4.24-4.06 6.36-6.14 11.86-8.12 16.66-5.96l9.32 4.2-26.23 59.77c-1.77-.78-4.41-2.12-7.95-3.84-15.78-7.85-26.9-13.21-33.23-16.03l-125.51-56.27zm237.65-131.05c.03-2.69-.21-5.08-.88-7.18-.6-2.01-1.49-3.74-2.65-5.18l-3.28-3.81c-.32-.39-.64-.78-.92-1.1-2.75-2.99-3.46-6.03-2.26-9.07l5.26-13.24 79.12 32.13-4.77 11.94c-.84 2.15-1.94 3.81-3.1 4.9-1.27 1.13-2.72 1.76-4.41 1.87l-8.83.56c-.81-.03-1.69.43-2.64 1.24-.99.77-1.66 1.73-2.05 2.68-.49 1.27-.92 2.61-1.24 4.13-.31 1.58-.45 3.1-.56 4.65l-.18 127.99c-.03 4.44-.17 8.44-.28 12.03-.21 3.64-.49 7.11-.92 10.39 1.87-2.68 3.99-5.47 6.36-8.3 2.33-2.9 5.05-6 8.13-9.4l87.52-91.58c1.17-1.16 2.12-2.33 2.97-3.56.84-1.2 1.48-2.4 1.9-3.49.56-1.31.74-2.72.56-4.17-.17-1.44-.67-2.61-1.41-3.52l-4.09-4.52c-.18-.18-.35-.42-.56-.78-2.83-3.28-3.67-6.32-2.61-9.04l5.39-13.55 61.05 24.78-4.76 11.97c-.89 2.26-1.94 3.99-3.18 5.19-1.23 1.13-2.57 1.76-4.09 1.83l-7.52.21c-2.58.11-5.76 1.55-9.4 4.27-3.67 2.82-8.69 7.53-14.97 14.44l-148.28 155.24-18.57-7.53.18-233.43zm138.4 288.27 3.98-11.62c.85-2.47 2.08-4.37 3.67-5.5 1.59-1.31 3.49-1.87 5.79-1.91l5.36-.28c2.89-.18 5.04-.88 6.46-2.08 1.42-1.16 2.76-3.63 4.03-7.28l57.51-168.4c1.38-3.92 1.87-6.82 1.59-8.51-.32-1.8-1.37-3.43-3.21-5.01l-3.42-3.28c-1.66-1.66-2.58-3.25-2.93-4.98-.25-1.8.04-3.95.88-6.54l3.99-11.61 72.27 24.89-3 177.2 109.53-140.55 70.75 24.36-3.98 11.62c-.85 2.57-1.98 4.44-3.28 5.68-1.31 1.12-3.04 1.87-5.3 2.15l-4.44.56c-2.44.25-4.38.92-5.72 2.19-1.37 1.16-2.71 3.7-3.98 7.45l-57.56 168.41c-1.23 3.53-1.62 6.24-1.23 8.09.42 1.76 1.76 3.74 4.09 5.85l3.78 3.39c1.73 1.45 2.85 3.07 3.31 5.04.5 1.87.32 4.1-.56 6.58l-3.95 11.61-76.4-26.26 3.98-11.62c.85-2.51 2.05-4.34 3.57-5.5 1.55-1.13 3.49-1.8 5.89-1.94l5.36-.25c2.89-.18 5.04-.88 6.47-2.05 1.41-1.16 2.75-3.67 3.98-7.28l49.78-145.71c1.17-3.35 2.72-7.59 4.8-12.78 2.08-5.22 4.41-10.8 7-16.8-1.77 2.29-5.15 6.78-10.07 13.35-4.9 6.57-8.83 11.89-11.93 15.85l-120.93 156.78-15.74-5.43 3.24-203.22c-.07-1.83.29-7.13.99-15.78.42-4.27.71-7.66.92-10.13-1.73 6.92-3.04 12.14-3.95 15.46-.92 3.39-1.7 5.93-2.3 7.74l-51.01 149.31c-1.24 3.63-1.66 6.43-1.31 8.23.46 1.79 1.73 3.7 3.88 5.6l4.06 3.5c1.76 1.44 2.93 3.1 3.42 5.04.53 1.94.35 4.16-.49 6.68l-3.95 11.58zm278.59 94.22 3.18-11.86c.67-2.54 1.76-4.51 3.28-5.78 1.52-1.34 3.39-2.09 5.64-2.33l5.33-.6c2.89-.36 4.97-1.2 6.32-2.47 1.35-1.38 2.51-3.85 3.5-7.56l46.07-171.87c1.03-3.92 1.24-6.68.75-8.44-.53-1.73-1.94-3.43-4.24-5.19l-4.41-3.42c-1.87-1.31-3.1-2.86-3.7-4.77-.6-1.83-.57-4.05.1-6.64l3.18-11.86 128.09 34c3.49.92 8.37 2.01 14.58 3.35 6.17 1.27 12.88 2.61 20.2 3.85l-15.71 58.64-8.2-2.15c-3.42-.91-5.82-2.15-7.27-3.74-1.42-1.55-2.44-4.44-3.07-8.58-1.2-9.11-3.81-15.92-7.95-20.44-4.13-4.52-10.84-8.02-20.13-10.46l-43.03-11.44-21.4 79.93 20.62 5.47c3.56.95 6.78 1.27 9.64.92 2.86-.29 5.22-1.24 7.1-2.79l5.96-4.97c.53-.39 1.1-.82 1.66-1.27 4.13-3.46 7.67-4.8 10.67-3.99l10.55 2.79-17.64 65.87-10.53-2.78c-3.1-.81-5.61-3.81-7.56-9.01-.28-.67-.46-1.06-.53-1.2l-2.68-7.73c-.95-2.4-2.5-4.41-4.76-6.07-2.29-1.59-5.22-2.89-8.83-3.85l-20.62-5.43-22.7 84.77 60.83 16.13c6 1.59 11.86 1.38 17.61-.63s10.6-5.57 14.65-10.7c.85-1.09 2.05-2.65 3.57-4.66 5.32-7.06 10.52-9.88 15.6-8.54l9.89 2.61-16.56 61.85-177.06-46.96zm195.92 57.91 2.36-12.04c.53-2.61 1.45-4.62 2.93-6 1.38-1.44 3.25-2.36 5.47-2.71l5.26-1.03c2.85-.6 4.9-1.62 6.17-2.96 1.2-1.38 2.22-4.02 2.96-7.77l34.32-174.59c.81-4.09.95-6.99.43-8.65-.57-1.73-1.84-3.18-3.85-4.48l-3.88-2.72c-1.83-1.37-3-2.86-3.56-4.55-.5-1.69-.5-3.88 0-6.54l2.36-12.04 65.81 12.47 65.45 170.67c.21-2.65.5-5.57.99-8.9.46-3.25 1.34-8.05 2.61-14.47l18.36-93.35c.74-3.67.77-6.43.17-8.26-.67-1.8-2.29-3.46-4.9-5.12l-4.02-2.75c-2.15-1.34-3.6-2.93-4.48-4.83-.78-1.87-.96-4.1-.5-6.54l2.37-12 65.56 12.39-2.4 12.04c-.5 2.54-1.45 4.55-2.79 6-1.37 1.41-3.17 2.25-5.4 2.64l-5.18 1.2c-2.93.64-5.08 1.59-6.36 3-1.34 1.48-2.37 4.02-3.07 7.7l-41.38 210.53-22.21-4.2-84.8-221.51c-.81 7.17-1.41 12.53-1.87 15.92-.46 3.49-.89 6.17-1.24 8.12l-27.22 138.37c-.74 3.74-.81 6.57-.21 8.3.71 1.73 2.19 3.42 4.62 5.01l4.48 2.86c2.05 1.3 3.42 2.85 4.2 4.58.71 1.77.85 3.95.32 6.54l-2.37 12.07-65.52-12.39zm322.13 60.13 1.77-12.15c.35-2.61 1.2-4.65 2.57-6.14 1.34-1.51 3.14-2.47 5.37-2.99l5.22-1.27c2.78-.75 4.79-1.87 5.99-3.32 1.13-1.45 2.01-4.09 2.58-7.91l25.42-175.97c.56-4.16.56-7.06-.04-8.69-.63-1.65-1.97-3.06-4.09-4.19l-3.99-2.58c-1.94-1.27-3.13-2.72-3.81-4.34-.56-1.66-.7-3.84-.31-6.53l1.73-12.15 138.47 18.57c4.65.6 9.95 1.16 15.99 1.55 5.96.39 12.42.74 19.42 1.02l-8.76 60.59-7.77-1.02c-3.95-.57-6.68-1.52-8.27-2.93-1.55-1.48-2.89-4.31-4.02-8.44-2.57-9.22-6.07-15.71-10.56-19.53-4.51-3.74-11.37-6.25-20.72-7.49l-54.02-7.24-11.83 81.79 28.6 3.81c3.74.53 6.99.43 9.78-.24s5.01-1.91 6.75-3.67l5.47-5.82c.38-.35.84-.78 1.34-1.31 3.84-3.88 7.17-5.68 10.13-5.29l10.84 1.45-9.74 67.46-10.81-1.41c-3.1-.42-5.89-3.1-8.58-8.02-.36-.63-.57-.98-.67-1.12l-3.57-7.49c-1.12-2.05-2.92-3.78-5.43-5.12-2.5-1.41-5.57-2.33-9.36-2.86l-28.56-3.81-11.19 77.39c-.53 3.78-.42 6.47.28 8.16.74 1.7 2.44 3.32 5.12 4.94l4.16 2.58c2.22 1.2 3.78 2.68 4.62 4.44.92 1.8 1.13 3.95.78 6.47l-1.73 12.11-84.6-11.3zm249.16-184.87c-.74-2.54-1.73-4.69-2.96-6.46-1.2-1.73-2.58-3.07-4.1-4.09l-4.3-2.54c-.42-.29-.85-.5-1.2-.75-3.56-1.97-5.15-4.62-4.9-7.91l1.09-14.15 85.34 5.22-.96 12.81c-.17 2.33-.7 4.24-1.51 5.65-.88 1.48-2.08 2.5-3.67 3.14l-8.27 3.35c-.81.21-1.51.92-2.18 2.01-.67 1.02-1.03 2.12-1.13 3.21-.07 1.34-.07 2.75.07 4.3.17 1.59.46 3.07.88 4.55l38.31 121.04c1.3 4.23 2.36 8.05 3.31 11.51.92 3.45 1.7 6.85 2.26 10.06 1.02-3.1 2.19-6.43 3.6-9.89 1.37-3.42 3.03-7.24 4.94-11.44l56.16-114.32c.78-1.48 1.34-2.92 1.77-4.37.42-1.38.7-2.72.81-3.88.11-1.41-.14-2.82-.74-4.16-.64-1.27-1.45-2.19-2.44-2.86l-5.25-2.96c-.21-.15-.46-.29-.78-.53-3.67-2.23-5.4-4.8-5.18-7.74l1.12-14.51 65.81 4.02-.99 12.82c-.14 2.47-.63 4.37-1.48 5.89-.81 1.48-1.94 2.51-3.35 3.07l-7.1 2.57c-2.43.92-5.04 3.32-7.77 7.07-2.61 3.78-6 9.85-9.92 18.35l-95.23 193.87-19.98-1.24-70.09-220.73zm202.51 229.21.32-12.25c.07-2.65.67-4.8 1.87-6.43 1.13-1.7 2.79-2.86 4.94-3.64l5.08-1.94c2.68-1.02 4.51-2.36 5.54-3.91.98-1.66 1.55-4.34 1.66-8.2l4.37-177.48c.11-3.95-.32-6.75-1.2-8.3-.95-1.52-2.75-2.86-5.4-3.99l-5.08-2.15c-2.11-.85-3.7-2.01-4.76-3.74-.99-1.62-1.48-3.77-1.41-6.43l.32-12.22 88.51.64-.28 12.25c-.07 2.61-.78 4.76-2.09 6.43-1.34 1.66-3.35 2.89-6.06 3.74l-5.61 1.94c-3.28.99-5.51 2.33-6.64 4.02-1.2 1.7-1.84 4.38-1.91 8.16l-4.62 186.91 63.16.43c6.17.07 11.83-1.59 16.94-4.98 5.12-3.35 9.05-8.02 11.76-13.94.6-1.31 1.41-3.11 2.4-5.4 3.53-8.16 7.91-12.18 13.17-12.15l10.24.07-1.59 65.18c-1.94-.04-4.87-.14-8.83-.36-17.61-.77-29.97-1.23-36.93-1.27l-137.87-.98zm198.78.77-.11-12.21c-.03-2.68.49-4.8 1.62-6.47 1.1-1.76 2.72-2.96 4.84-3.84l5.01-2.09c2.64-1.19 4.44-2.61 5.43-4.19.92-1.63 1.37-4.38 1.34-8.23l-1.62-177.41c-.04-4.17-.53-7.03-1.38-8.52-.85-1.58-2.4-2.75-4.66-3.56l-4.34-1.83c-2.11-.96-3.56-2.16-4.44-3.64-.81-1.55-1.31-3.7-1.31-6.43l-.1-12.21 76.65-2.19 56.13 166.46 56.8-169.67 75.03-2.15.1 12.25c.04 2.68-.39 4.83-1.2 6.43-.84 1.59-2.29 2.86-4.27 3.91l-4.05 2.09c-2.23 1.09-3.81 2.39-4.66 4.02-.92 1.59-1.34 4.44-1.31 8.37l1.63 177.44c.03 3.67.56 6.4 1.51 7.92.99 1.58 2.93 2.92 5.86 4.12l4.66 1.8c2.15.74 3.74 1.87 4.87 3.53 1.05 1.59 1.58 3.71 1.62 6.4l.1 12.21-80.98 2.33-.11-12.25c-.03-2.65.49-4.8 1.52-6.43 1.09-1.62 2.71-2.89 4.97-3.85l4.98-2.11c2.64-1.2 4.48-2.61 5.39-4.2.96-1.62 1.41-4.41 1.38-8.23l-1.41-153.47c-.04-3.53.03-8.06.25-13.63.24-5.61.59-11.65 1.05-18.11-.91 2.75-2.61 8.13-5.08 15.96-2.43 7.95-4.37 14.22-6.03 19l-62.17 188.88-16.7.46-64.57-190.82c-.67-1.73-2.08-6.75-4.31-15.08-1.05-4.16-1.9-7.42-2.5-9.82.67 7.11 1.16 12.43 1.41 15.85.25 3.53.39 6.14.39 8.02l1.44 157.32c.04 3.81.57 6.54 1.52 8.09.99 1.55 2.82 2.86 5.5 3.91l5.01 1.8c2.16.78 3.78 1.87 4.91 3.57 1.16 1.58 1.73 3.67 1.76 6.36l.11 12.21-67.5 1.94zm297.2-14.08-.7-12.22c-.18-2.61.25-4.83 1.3-6.54.99-1.76 2.54-3.13 4.63-4.05l4.55-2.33c2.71-1.48 4.51-3.03 5.43-4.69.95-1.66 1.27-4.41 1.06-8.13l-10.7-176.88c-.21-3.74-.85-6.39-2.01-8.02-1.06-1.55-3.07-2.71-5.93-3.59l-4.62-1.59c-2.4-.74-4.16-1.84-5.36-3.35-1.13-1.59-1.8-3.71-1.98-6.28l-.74-12.22 86.18-7.06.74 12.18c.15 2.47-.31 4.65-1.37 6.46-1.09 1.73-2.72 3.18-4.9 4.27l-4.52 2.33c-2.72 1.34-4.59 2.86-5.47 4.59-.92 1.79-1.23 4.51-1.02 8.23l10.66 176.91c.21 3.71.88 6.36 2.01 7.84 1.1 1.52 3.07 2.76 5.93 3.74l4.8 1.59c2.29.74 4.05 1.84 5.36 3.35 1.23 1.59 1.98 3.6 2.12 6.14l.74 12.18zm113.65-11.69-1.16-12.18c-.25-2.61.11-4.83 1.09-6.61.96-1.8 2.47-3.17 4.52-4.2l4.76-2.54c2.58-1.44 4.27-2.99 5.08-4.65.81-1.7 1.02-4.48.67-8.3l-16.69-176.32c-.39-4.16-1.1-6.96-2.05-8.37-1.02-1.48-2.65-2.47-4.98-3.1l-4.51-1.45c-2.15-.74-3.7-1.8-4.69-3.21-.99-1.48-1.63-3.56-1.87-6.25l-1.13-12.14 66.79-7.91 111.54 142.63c-.57-2.58-1.1-5.47-1.59-8.76-.49-3.25-.99-8.09-1.59-14.58l-8.93-94.3c-.36-3.67-1.1-6.28-2.19-7.87-1.13-1.52-3.18-2.61-6.17-3.39l-4.63-1.45c-2.47-.63-4.33-1.69-5.68-3.24-1.3-1.55-2.11-3.57-2.32-6.07l-1.17-12.11 66.55-7.91 1.16 12.18c.25 2.54-.1 4.73-1.02 6.53-.88 1.77-2.36 3.14-4.44 4.17l-4.59 2.71c-2.68 1.45-4.44 3-5.29 4.73-.88 1.8-1.13 4.55-.74 8.27l20.13 212.57-22.6 2.65-144.57-185.08c1.27 7.03 2.22 12.33 2.75 15.71.56 3.42.92 6.07 1.09 8.06l13.24 139.77c.35 3.77 1.09 6.5 2.19 7.98 1.13 1.45 3.03 2.54 5.82 3.35l5.15 1.38c2.33.63 4.09 1.66 5.29 3.1 1.2 1.42 1.94 3.5 2.19 6.14l1.16 12.15-66.55 7.91zm240.44-33.93-1.77-12.08c-.39-2.61-.17-4.83.74-6.64.85-1.83 2.3-3.28 4.31-4.48l4.3-2.72c2.61-1.69 4.27-3.38 5.01-5.11.81-1.76.92-4.48.39-8.2l-25.63-175.01c-.57-3.63-1.45-6.24-2.72-7.73-1.2-1.45-3.28-2.44-6.21-3.04l-4.76-1.23c-2.44-.46-4.31-1.41-5.61-2.82-1.27-1.49-2.15-3.5-2.51-6.07l-1.76-12.01 85.37-14.79 1.77 12.01c.35 2.5.07 4.69-.85 6.53-.92 1.91-2.4 3.46-4.48 4.77l-4.38 2.71c-2.57 1.59-4.26 3.25-5 5.05-.82 1.8-.89 4.58-.36 8.26l25.63 175.01c.57 3.64 1.45 6.25 2.69 7.63 1.23 1.38 3.31 2.44 6.24 3.21l4.9 1.1c2.37.49 4.2 1.48 5.65 2.86 1.37 1.48 2.26 3.42 2.64 5.92l1.77 12.08zm200.82-36.65-2.54-11.83c-.57-2.61-.5-4.8.31-6.71.71-1.91 2.05-3.46 3.95-4.73l4.45-3.14c2.4-1.69 3.88-3.45 4.51-5.25.57-1.73.46-4.55-.35-8.27l-37.49-172.47c-.89-4.09-1.91-6.82-3.04-8.09-1.16-1.27-2.93-2.08-5.29-2.36l-4.66-.92c-2.25-.49-3.91-1.34-5.08-2.65-1.12-1.3-2.01-3.28-2.61-5.92l-2.57-11.87 136.63-33.82c4.63-1.13 9.79-2.61 15.57-4.41 5.75-1.8 11.97-3.88 18.64-6.21l12.88 59.35-7.63 1.91c-3.91.95-6.85 1.05-8.79.35-1.98-.81-4.27-2.89-6.75-6.33-5.68-7.63-11.19-12.32-16.73-14.22-5.54-1.8-12.89-1.59-22.1.67l-53.31 13.2 17.4 80.21 28.24-6.96c3.67-.95 6.68-2.22 9.08-3.91 2.4-1.63 4.05-3.57 5.04-5.86l3.11-7.42c.24-.42.53-1.02.81-1.69 2.26-5.05 4.8-7.91 7.73-8.65l10.67-2.65 14.37 66.13-10.67 2.64c-3.03.78-6.64-.67-10.84-4.27-.56-.39-.88-.67-1.02-.74l-5.96-5.64c-1.8-1.45-4.06-2.4-6.93-2.75-2.82-.36-6.07-.07-9.74.81l-28.21 6.96 16.48 75.9c.78 3.67 1.84 6.11 3.07 7.46 1.31 1.3 3.5 2.18 6.57 2.68l4.84.85c2.47.28 4.44 1.05 5.85 2.36 1.49 1.41 2.47 3.28 3 5.78l2.58 11.87-83.5 20.62zm191.28-49.57-2.79-11.83c-.6-2.57-.56-4.8.18-6.68.67-1.9 2.01-3.49 3.92-4.79l4.41-3.21c2.36-1.73 3.81-3.5 4.41-5.26.52-1.83.38-4.59-.5-8.3l-40.42-171.77c-.88-3.81-2.01-6.36-3.28-7.66-1.31-1.2-3.35-1.98-6.21-2.37l-5.5-.74c-2.26-.21-4.1-.95-5.54-2.32-1.38-1.31-2.4-3.25-3-5.79l-2.79-11.83 86.11-22.91 2.79 11.82c.6 2.54.49 4.8-.39 6.72-.88 1.97-2.54 3.7-4.94 5.25l-4.97 3.36c-2.93 1.83-4.73 3.7-5.43 5.57-.74 1.94-.64 4.73.21 8.41l42.57 180.86 61.44-16.38c6.03-1.58 11.08-4.69 15.21-9.32 4.13-4.59 6.75-10.1 7.88-16.55.25-1.38.6-3.32.95-5.83 1.41-8.75 4.66-13.76 9.78-15.14l9.96-2.65 14.83 63.06c-1.84.46-4.76 1.17-8.66 2.01-17.29 3.92-29.4 6.79-36.15 8.55l-134.06 35.73zm192.34-53.63-3.59-11.58c-.78-2.54-.89-4.73-.25-6.68.53-1.97 1.76-3.59 3.56-5.08l4.2-3.49c2.22-1.9 3.56-3.77 4.06-5.57.38-1.87.07-4.59-1.06-8.23l-52.04-168.19c-1.2-3.85-2.44-6.21-3.81-7.42-1.38-1.13-3.49-1.73-6.4-1.94l-5.54-.36c-2.25-.03-4.12-.63-5.67-1.9-1.45-1.17-2.62-3-3.39-5.54l-3.56-11.58 126.71-43.53c3.45-1.2 8.16-3 14.12-5.43 5.89-2.36 12.32-5.01 19.17-8.09l17.76 57.45-8.09 2.75c-3.39 1.16-6.07 1.52-8.16.99-1.97-.5-4.41-2.33-7.17-5.4-5.82-6.85-11.69-11.05-17.54-12.5-5.89-1.45-13.45-.56-22.64 2.61l-42.57 14.62 24.22 78.23 20.37-7.06c3.53-1.2 6.44-2.72 8.69-4.59 2.26-1.83 3.78-3.99 4.55-6.32l2.4-7.46c.25-.6.5-1.27.74-1.97 1.7-5.15 3.95-8.27 6.96-9.26l10.42-3.59 19.95 64.46-10.41 3.6c-3.07 1.02-6.79-.03-11.2-3.28-.56-.39-.92-.64-1.06-.71l-6.39-4.86c-2.08-1.45-4.48-2.26-7.28-2.37-2.79-.03-5.96.53-9.53 1.73l-20.41 7.03 25.7 82.97 60.2-20.69c5.89-2.04 10.8-5.47 14.58-10.38 3.81-4.87 6.06-10.56 6.78-17.01.14-1.45.35-3.39.53-5.9.81-8.83 3.7-14.12 8.76-15.81l9.74-3.35 18.75 60.55-175.16 60.16zm181.15-62.1-3.98-12.18c-.5-1.52-.5-3.28.07-5.22.53-1.94 1.48-3.64 2.86-5.05l7.17-7.66c2.25-2.12 4.41-4.8 6.39-8.13 1.98-3.35 3.35-6.57 4.13-9.67l29.65-100.2-81.09-65.28c-2.47-2.05-4.97-3.49-7.56-4.37-2.57-.92-5.47-1.45-8.72-1.56h-7.67c-2.54-.03-4.41-.42-5.61-1.27-1.23-.81-2.18-2.25-2.85-4.3l-4.41-13.38 86.67-31.52 3.28 9.96c.67 2.04.92 3.81.67 5.22-.17 1.41-.95 2.92-2.22 4.51l-2.79 4.16c-.7.85-1.16 1.94-1.3 3.29-.11 1.27.07 2.64.49 3.98.28.85.67 1.59 1.13 2.33.46.64.92 1.27 1.48 1.55l46.65 39.19 16.94-57.94c.6-1.73.92-3.32 1.06-4.87s0-2.89-.32-3.88c-.39-1.16-.95-2.15-1.66-2.96-.77-.85-1.45-1.34-2.19-1.41l-5.08-1.06c-.14-.07-.63-.14-1.48-.18-3.74-.39-6.1-2.15-7.13-5.22l-4.06-12.46 63.94-23.24 3.98 12.12c.67 2.04.78 3.98.39 5.78-.46 1.76-1.44 3.42-3 4.87l-5.46 5.18c-1.66 1.59-3.22 3.99-4.7 7.11-1.51 3.1-2.92 7.1-4.34 12.14l-24.53 82.73 93.48 74.21c2.47 1.98 4.98 3.56 7.53 4.76 2.54 1.17 4.93 1.87 7.34 2.19l7.77 1.16c.25 0 .71.11 1.42.22 3.95.53 6.39 2.25 7.38 5.18l4.37 13.38-87.03 31.61-3.67-11.2c-.7-2.18-.98-4.05-.81-5.46.25-1.45 1.03-3.04 2.26-4.7l3.28-3.91c.78-1.03 1.31-2.26 1.52-3.71.21-1.51.07-2.85-.35-4.19-.36-1.06-.96-2.12-1.84-3.22-.85-1.02-1.97-2.15-3.28-3.13l-55.64-44.74-20.23 71.25c-.07.14-.18.42-.28.81-.81 3.32-1.03 5.75-.53 7.17.46 1.38 1.13 2.54 1.94 3.56.81 1.03 1.55 1.63 2.18 1.7l4.98 1.16c.21.04.7.07 1.45.18 3.88.46 6.27 2.19 7.27 5.22l4.62 13.98-69.91 25.42zm226.46-88.9-4.17-11.37c-.91-2.43-1.13-4.66-.63-6.61.49-2.01 1.62-3.7 3.35-5.25l3.67-3.6c2.19-2.22 3.53-4.27 3.91-6.07.43-1.87-.03-4.55-1.3-8.05l-60.59-165.06c-1.3-3.38-2.68-5.75-4.23-6.92-1.48-1.13-3.74-1.69-6.75-1.69l-4.87-.14c-2.5.07-4.55-.43-6.14-1.56-1.51-1.16-2.78-2.96-3.66-5.36l-4.17-11.33 80.85-32.67 4.16 11.34c.85 2.33 1.02 4.51.53 6.57-.56 2.01-1.73 3.85-3.49 5.54l-3.71 3.6c-2.22 2.11-3.56 4.09-3.95 5.96-.39 1.98.07 4.69 1.34 8.16l60.63 165.02c1.27 3.45 2.64 5.78 4.16 6.85 1.44 1.09 3.74 1.69 6.78 1.8l5.05.07c2.39 0 4.41.46 6.1 1.55 1.66 1.13 2.93 2.86 3.81 5.19l4.16 11.37zm152.83-65.35-4.34-11.3c-.95-2.47-1.2-4.62-.7-6.6.39-2.02 1.55-3.78 3.35-5.37l4.3-4.12c2.26-1.91 3.6-3.89 3.99-5.93.35-2.08-.11-4.73-1.41-8.13l-66.94-173-19.31 8.2c-8.06 3.42-13.91 7.31-17.58 11.65-3.64 4.34-5.82 9.92-6.47 16.87-.21 1.59-.39 3.74-.49 6.4-.25 6.57-2.68 10.87-7.39 12.85l-9.28 3.99-21.65-55.96c7.14-2.29 13.66-4.59 19.67-6.78 5.96-2.19 10.66-3.99 14.09-5.44l123.43-52.35c3.31-1.41 7.8-3.53 13.41-6.28 5.65-2.75 11.9-5.86 18.6-9.5l21.69 55.95-8.98 3.85c-2.99 1.23-5.39 1.66-7.1 1.23-1.76-.46-4.09-2.22-7.13-5.18-6.68-6.47-12.96-10.24-18.78-11.16-5.82-.95-13.17.46-22 4.2l-19.46 8.26 66.94 172.97c1.31 3.39 2.75 5.61 4.48 6.82 1.66 1.2 4.02 1.62 7.03 1.44l5.65-.28c2.54-.07 4.55.39 6.13 1.41 1.52 1.06 2.79 2.79 3.74 5.26l4.38 11.26-81.91 34.78z" fill="#fff100"/><path d="m2091.51 1720.52c-2.32-2.36-22.45-.74-20.23-8.61-5.79-3.92-1.52-26.84 11.4-22.95 4.73-8.34 9.54-3.6 25.95 1.27-2.36 2.32 10.84 7.59 2.79 19.74-5.01 15.17-10.49 5.92-19.92 10.55z" fill="#231f20"/><path d="m5349.18 4063.36c-3-36.3-5.47-68.56 3.77-104.15 26.62 18.85 28.77 30.54 31.24 61.93-11.51 13.31-23.19 29.23-35.02 42.22z" fill="#fddab4"/><path d="m4989.87 3798.36c6.25-23.3 24.54-43.84 32.84-69.16 9.71-22.95 16.03-46.46 20.59-77.53 3.49-24.11 5.93-52.81 7.95-89.39.45-57.87.53-114.11.95-170.99 1.87-20.83 30.99-22.81 36.75 2.4.04 54.61-2.93 195.66-1.3 213.78-1.13 81.86-29.55 134.62-41.31 168.47-20.87 71.67-69.33 55.14-56.45 22.42z" fill="#231f20"/><path d="m5405.34 3911.9c-22.07-31.64-45.59-60.62-56.49-95.23-13.91-14.89-24.15-56.09-18.92-78.37.75-94.4.78-154.5 1.45-241.84 2.86-24.51-27.92-158.96-29.09-157.78-5.96-19.32-34.81-59.71-9.64-68.38 51.97-1.84 85.9 21.01 123.47 16.23 34.53.25 23.05-57.02 86.67-22.7 38.95 4.37 68.18-.32 108.79 1.02 5.22 31.78 6.32 78.06 6.24 83.12 3.7 47.77.53 88.12-2.72 139.1-7.63 66.83-26.05 170.35-46.74 219.95 0 2.05-60.7 116.68-97.56 170.64-13.91 23.97-24.22 39.61-31.95 49.29-27.61 34.56-22.53-6.72-33.51-15.04z" fill="#fddab4"/><path d="m5409.06 3766.74c18.46-29.9 19.14-40.46 23.55-75.45 25.98-40.03 21.86-43.49 19.28-91.23-19.17-53.06-27.99-81.97-20.66-140.16-5.39-20.97-10.84-41.94-16.27-62.91-.21-33.48 16.49-30.33 44.81-25.95 10.49 25.49 11.23 42.68 13.48 70.4 20.31 49.01 13.42 95.9 13.74 148.89 18 27.32 33.65 54.61 44.09 81.9.21 24.65 7.95 59-30.36 45.3-4.27-9.43-8.55-18.84-12.78-28.24-6.07 7.88-12.11 15.78-18.21 23.69-1.2 5.97-2.44 11.97-3.71 17.97-1.23 13.1-2.47 26.23-3.7 39.33-7.63 9.85-15.18 19.7-22.78 29.51-16.37 27.22-40.56 12.78-30.46-33.05z" fill="#231f20"/><path d="m1920.26 3396.27c-7.98-19.74-4.87-24.18-4.69-47.2 9.18-7.21 16.27-8.83 29.44-3.67 8.9 33.19 2.93 18.53-2.36 43.17-2.05 2.26-4.1 5.01-7.18 7.81-10.2 6.1-7.13 2.19-15.21-.11z" fill="#231f20"/><path d="m1895.97 4158.65c-5.22-9.46-9.11-39.75 5.08-70.08 8.16-17.44 9.07-64.4 15.07-76.62 14.97-14.12 40.81-13.31 44.32 3.28 1.34 5.19 3.31 20.31-.5 27.82-22.17 43.35-13.13 94.19-17.54 114.96-15.75 39.68-46.36.63-46.36.63h-.07z" fill="#231f20"/><path d="m1884.45 3843.08c-6.21-18.68-13.03-29.73-19.18-38.28-10.27-14.26-18.63-21.71-19.17-46.32.25-30.46-2.89-66.65-2.68-97.13.17-19.07 32.38-42.43 6.85-63.55-5.68-24.71-6.85-48.51-8.86-49.53-15.96-33.65-16.52-76.41-35.52-114.57.14-16.24-7.1-62.88 27.82-36.93 0 30.68 32.52 59.35 26.37 62.35 8.97 22.14-1.02 54.47 22.03 90.2 5.12-2.99 8.55-2.96 11.62-6.99 1.06-4.06-2.44-13.87-1.38-18.96.18-24.37-4.16-70.02 14.3-74.43 29.83-10.45 24.26 78.45 11.72 124.03-10.49 21.86-13.98 35.41-22.28 57.69-2.22 22.32-15.88 45.69-18.07 69.02-.18 20.34 18.04 38.49 17.86 58.79 3.35 37.07 27.47 41.8 29.3 69.02-.11 11.16-4.8 25.74-4.87 36.89-15.49 28.07-28.84 3.92-35.87-21.32z" fill="#231f20"/><path d="m1633.19 4018.85c-19.14-15.4-13.77-26.69-37.95-47.21-12.4-16.34-13.53-50.59.31-62.03 1.03-2.05 2.08-4.03 4.1-6.07 10.09-10.91 5.99-20.27 6.1-30.4 2.11-21.61 7.73-39.92 4.76-61.92 16.7-57.73 10.74-36.47 33.3-66.73 1.16-19.31-2.4-44.98-1.24-64.25-6.57-32.28-10.31-9.64-11.54-102.88 8.72 1.94 27.22-4.48 48.44-36.69-4.83 57.73-9.61 149-14.76 220.2-.32 37.6-3.63 74.6-6.28 108.04-.7 20.8-3.49 32.2-9.57 42.29-9.36 25.28-2.43 68.46-4.9 99.6-4.09 2.01-5.65 5.05-10.77 8.06z" fill="#fddab4"/><path d="m1784.62 3072.92c-.5-17.05-4.41-118.27-4.13-214.7.14-51.33-3.49-134.2 10.63-172.15 6.99-18.78 43.21-19.5 48.93 9.81 3.43 19.36-5.89 41.13-18.07 45.94-.56 72.66-1.87 127.98.99 177.31 3.46 59.45 19.49 102.21 15.71 169.64-2.89 12.81-15.85 21.99-26.73 19.49-13.98-3.18-28.34-19.67-27.32-35.34z" fill="#231f20"/><path d="m5450.2 2788.72c-6.43 10.8-12.89 25.66-9.54 39.78 6.68 48.76 19.32 66.77 25.95 85.16-.28 19.5 2.08 28.46-14.79 39.48-19.99-6.44-21.47-32.88-26.83-51.94-3.88-32.38-5.36-65.98-10.21-99.17-12.74-15.78-17.29-35.98-20.97-70.87-5.22-2.96-9.22-3.49-14.4-6.43-1.45-4.23-2.93-8.44-4.38-12.67 3.07-12.53 23.55-9.57 43.28-6.36 2.75 3.91 1.8 5.33 4.55 9.22 1.24 16.66 4.94 32.09 6.18 48.79 2.75-14.12 5.46-28.21 8.19-42.29 11.02-16.59 13.52-21.82 29.16-5.54 7.63 22 5.54 42.86 15.71 62.24 4.2 21.68 12.22 36.33-10.06 46.89-13.03-14.54-6.72-25.52-21.86-36.29z" fill="#231f20"/><path d="m5486.94 3109.69c-.63-21.33-3.28-37.99.67-59 3.74-10 7.99-13.17 20.27-13.42 17.26.6 21.82 5.37 24.5 26.16-.38 15.99-1.27 27.58-3.1 43.07-1.34 7.32-6.99 18.15-19.28 20.17-14.76-.25-21.26-6.36-23.06-16.98z" fill="#231f20"/><path d="m5480.43 1539.4c-.63-3.21-1.23-6.43-1.83-9.61-.85-3.03-1.66-6.07-2.51-9.14-3.24-1.38-6.5-2.79-9.75-4.2-4.72-.64-9.46-1.27-14.15-1.91-14.55-4.16-8.9-15.32.28-21.18 11.09-1.31 19.6-1.56 30.57 2.29 9.11 8.26 10.84 14.54 11.79 23.16 10.53 5.96 12.96 8.62 20.34 18.32.96 10.35.14 14.02-2.71 24.01-5.4 2.15-4.8 1.87-10.7-.78l-11.44-12.71c-3.28-2.75-6.61-5.5-9.89-8.26z" fill="#fff100"/><path d="m5230.51 1562.29c-20.51.74-42.15-13.94-49.57-40l15.01-7.17c15.1 25.6 41.27 26.41 62.03 2.19l13.94 7.45c-8.16 10.49-17.86 36.65-41.41 37.53z" fill="#fff"/><path d="m5280.32 1810.54c-22.7 2.76-37.99 2.79-60.87 2.62-9.71-.85-17.15-1.94-22.88-3.64-12.67-10.2-4.73-23.48 10.31-26.19 15.75-2.72 29.51-2.61 45.59-2.61 14.36.77 24.78 2.82 35.55 7.98 8.94 6.14 6.5 18.56-7.7 21.85z" fill="#231f20"/><path d="m1849 4863.05 44.81-24.05c16.91-10.06 33.86-20.16 50.81-30.25h14.96c12.19.03 10.07 1.34 10.42 14.05-.14 8.05-.25 13.06-.39 21.12 9.5 12.28 19.14 12.42 28.81.45 0-8.12.04-16.2.04-24.32-1.8-4.62-3.64-9.25-5.47-13.91-5.15-2.51-10.35-4.98-15.53-7.42 3.42-17.44 11.61-12.92 28.27-16.59 22 1.38 35.13.42 35.06 23.87-.03 13.8-.07 26.26-.07 39.12 7.46 8.58 14.94 9.07 22.53 1.48-.28-7.32-.6-14.65-.92-21.97 14.37-26.65 36.26-29.12 42.19 5.9l1.76 34.56-257.27-2.04z" fill="#fddab4"/><path d="m1661.28 4861.6-63.87-105.17c-8.26 7.91-22.38 24.25-23.97 59.77 0 8.02-2.37 16.59-2.37 24.61-9.67 12.15-19.28 12.15-28.8 0 .21-14.75 1.66-26.34-3.42-40.56-2.58-14.02-8.94-17.93-14.76-20.66-18.43-3.1-22.74 7.07-23.59 22.17-.74 13.84-.31 26.31-.49 39.16-7.59 8.44-15.11 8.83-22.56 1.09-3.14-6.71-6.28-14.65-5.89-22-7.42-26.79-28.67-29.62-35.14 5.33l-2.29 34.46 227.16 1.8z" fill="#fddab4"/><path d="m3694.53 5680.49c13.45-23.51 25.42-23.79 29.16-58.57 7.98-35.8 1.62-96.67-43.74-129.29-76.86-49.32-166.96-3.99-200.01 32.34-28.2-86.64-342.78-57.34-228.39 142.46-117.63-.74-293.39-1.48-406.72-8.72-27.78-22.57-10.7-75.24-13.41-117.89-23.13-156.57-203.43-188.53-316.13-231.92-113.16-44.19-990.39-355.03-1084.56-417.7 697.29 19.5 2139.17 14.05 2869.47 30.47 1.2 143.55-1.37 294.02-2.5 436.66-5.15 19.99-32.63 19.46-48.55 20.94-201.38 80.74-202.76 130.56-213 306.14l-341.62-4.91z" fill="#e6e7e8"/><path d="m950.09 5622.33c32.73-32.24 153.72-156.44 215.29-222.72 261.69 26.27 119.23-265.21-25.98-88.26-76.79-31.49-188.85-53.7-278.91-76.75 89.67-44.99 257.69-104.47 345.18-132.25 123-26.48 207.38-44.64 339.32-43.6 112.59 8.02 208.52 12.07 307.55 66.65 31.31 16.49 75.27 55.29 74.99 93.88-16.52 36.43-63.41 41.9-102.85 22.28-19.24-4.2-98.15-39.33-161.88-68.28-31.38-8.37-120.57-24.29-149.13-5.22-49.82 9.92-62.91 55.92-73.61 127.38-4.52 53.66-32.35 170.57-42.19 201.45-166.61 23.91-275.6 58.05-447.78 125.45z" fill="#00a551"/><g fill="#231f20"><path d="m1554.64 4941.5-5.11-.03.28-37.71 5.15.04z"/><path d="m1590.29 4952.87-5.11-.07.39-48.76 5.11.03z"/><path d="m1626.41 4966.91-5.13-.03.5-62.56 5.12.07z"/><path d="m1662.52 4981.17-5.12-.04.6-76.54 5.12.07z"/><path d="m1698.62 4996.03-5.13-.03.71-91.1 5.16.04z"/><path d="m1734.76 5008.67-5.15-.07.81-103.42 5.15.03z"/><path d="m1770.88 5022.36h-5.16l.92-116.91 5.15.04z"/><path d="m1806.99 5034.95-5.11-.03.98-129.19 5.15.03z"/><path d="m1843.14 5046.46-5.15-.04 1.09-140.42 5.12.07z"/><path d="m1879.22 5062.41-5.16-.04 1.23-156.08 5.16.07z"/><path d="m1915.33 5072.78-5.12-.03 1.3-166.15 5.13.03z"/><path d="m1951.47 5085.24-5.16-.04 1.41-178.33 5.16.04z"/><path d="m1987.61 5097.27-5.15-.04 1.48-190.08 5.16.03z"/><path d="m2023.72 5111.24-5.15-.03 1.59-203.79 5.15.04z"/><path d="m2059.87 5121.33-5.15-.03 1.66-213.57h5.15z"/><path d="m2095.99 5131.38-5.12-.03 1.73-223.34 5.15.03z"/><path d="m2132.1 5145.39-5.16-.03 1.88-237.07 5.15.03z"/><path d="m2168.18 5163.33-5.12-.07 1.97-254.7 5.13.04z"/><path d="m2204.3 5175.32h-5.13l2.08-266.48 5.13.07z"/><path d="m2240.44 5187.36-5.15-.04 2.18-278.21 5.16.07z"/><path d="m2276.55 5203.31-5.15-.04 2.29-293.85 5.12.04z"/><path d="m1518.56 4925.63-5.15-.04.18-22.1 5.15.03z"/><path d="m2312.67 5215.34-5.12-.04 2.37-305.6 5.11.03z"/><path d="m2348.77 5231.32-5.16-.07 2.51-321.28 5.15.04z"/><path d="m2384.88 5243.32h-5.12l2.58-333.07 5.15.03z"/><path d="m2420.99 5257.29-5.16-.03 2.73-346.7h5.15z"/><path d="m2457.11 5269.33-5.13-.04 2.79-358.49 5.16.07z"/><path d="m2493.21 5281.36-5.11-.04 2.89-370.21 5.16.04z"/><path d="m2529.37 5295.37-5.16-.04 3-383.94 5.13.03z"/><path d="m2565.48 5305.43-5.12-.04 3.07-393.73 5.15.07z"/><path d="m2601.63 5315.52-5.12-.04 3.14-403.54 5.15.03z"/><path d="m2637.76 5327.55-5.12-.03 3.22-415.27h5.15z"/><path d="m2673.89 5339.62-5.12-.07 3.33-427.03 5.11.04z"/><path d="m2709.99 5355.53-5.16-.03 3.46-442.7 5.16.03z"/><path d="m2746.06 5371.48-5.11-.03 3.56-458.38 5.16.04z"/><path d="m2782.07 5399.2-5.12-.04 3.78-485.81 5.16.04z"/><path d="m2818.01 5434.74-5.12-.08 4.06-521.03 5.15.07z"/><path d="m2852.57 5650.41-5.16-.07 5.76-736.4 5.15.03z"/><path d="m2888.79 5650.69-5.16-.04 5.76-736.44 5.12.04z"/><path d="m2925.01 5650.96-5.16-.03 5.76-736.44 5.12.03z"/><path d="m2961.21 5651.24-5.16-.04 5.77-736.44 5.15.04z"/><path d="m2997.44 5651.56-5.15-.07 5.75-736.45 5.13.04z"/><path d="m3033.67 5651.83-5.15-.07 5.75-736.41 5.12.04z"/><path d="m3069.89 5652.11-5.15-.04 5.75-736.44 5.12.03z"/><path d="m3106.09 5652.39-5.11-.04 5.71-736.45 5.15.04z"/><path d="m3142.31 5652.66-5.16-.04 5.76-736.44 5.15.03z"/><path d="m3178.53 5652.97-5.16-.07 5.76-736.45 5.15.07z"/><path d="m3214.72 5653.25-5.13-.07 5.76-736.42 5.15.04z"/><path d="m3252.14 5502.73-5.16-.04 4.58-585.65 5.13.03z"/><path d="m3288.52 5481.47-5.15-.04 4.41-564.12 5.16.04z"/><path d="m3324.85 5464.09h-5.12l4.27-546.5 5.13.03z"/><path d="m3361.09 5464.37h-5.12l4.24-546.51 5.15.04z"/><path d="m3397.26 5468.63-5.12-.07 4.31-550.42 5.11.07z"/><path d="m3433.46 5474.77-5.16-.04 4.35-556.28 5.15.03z"/><path d="m3469.59 5484.82-5.12-.04 4.42-566.05 5.11.03z"/><path d="m3505.83 5485.13-5.16-.07 4.42-566.05 5.15.04z"/><path d="m3542.15 5469.77-5.15-.07 4.3-550.41 5.16.03z"/><path d="m3578.44 5462.21-5.15-.07 4.23-542.58 5.16.04z"/><path d="m3614.63 5462.49-5.12-.07 4.23-542.55 5.13.04z"/><path d="m3650.91 5456.86-5.15-.04 4.2-536.67 5.15.03z"/><path d="m3687.03 5466.92h-5.12l4.27-546.5 5.12.04z"/><path d="m3723.11 5490.74-5.16-.03 4.45-570.01 5.12.03z"/><path d="m3757.94 5665.32-5.13-.07 5.8-744.28 5.15.07z"/><path d="m3794.15 5665.6-5.12-.04 5.79-744.28 5.16.04z"/><path d="m3830.37 5665.87-5.11-.03 5.78-744.28 5.16.03z"/><path d="m3866.59 5666.15-5.12-.03 5.79-744.28 5.16.03z"/><path d="m3902.81 5666.46-5.12-.07 5.79-744.28 5.16.04z"/><path d="m3939.03 5666.74-5.11-.04 5.78-744.31 5.12.03z"/><path d="m3975.25 5667.01-5.12-.03 5.79-744.28h5.15z"/><path d="m4011.44 5667.29-5.09-.04 5.79-744.28 5.15.04z"/><path d="m4048.82 5522.66-5.16-.03 4.7-599.38 5.12.03z"/><path d="m4085.54 5456.36-5.13-.04 4.16-532.8 5.13.04z"/><path d="m4121.98 5427.26-5.12-.04 3.92-503.42 5.16.07z"/><path d="m4158.38 5407.94-5.16-.04 3.78-483.83 5.16.07z"/><path d="m4194.7 5390.6-5.11-.04 3.63-466.18 5.15.04z"/><path d="m4231.06 5375.23-5.11-.03 3.49-450.54 5.15.03z"/><path d="m4267.42 5357.89-5.11-.04 3.35-432.92 5.15.04z"/></g></g><path d="m0 0h26479.287v18535.502h-26479.287z" fill="#fff100" stroke-width="93.2079"/><g clip-rule="evenodd"><path d="m0 2647.9287h26479.287v2647.9287h-26479.287z" style="fill:#fff;fill-rule:evenodd;stroke-width:26.4969;image-rendering:optimizeQuality;shape-rendering:geometricPrecision;text-rendering:geometricPrecision"/><path d="m0 7943.7866h26479.287v2647.9287h-26479.287z" style="fill:#fff;fill-rule:evenodd;stroke-width:26.4969;image-rendering:optimizeQuality;shape-rendering:geometricPrecision;text-rendering:geometricPrecision"/><path d="m0 13239.644h26479.287v2647.9287h-26479.287z" style="fill:#fff;fill-rule:evenodd;stroke-width:26.4969;image-rendering:optimizeQuality;shape-rendering:geometricPrecision;text-rendering:geometricPrecision"/></g><path d="m0 0h8605.7686v7943.7861h-8605.7686z" stroke-width="22.4211"/><path d="m6305.6608 1767.2914c-69.924-49.139-139.797-98.2287-209.819-147.2687-157.611 251.5838-315.173 503.3163-472.784 754.9004-99.812-96.1005-199.377-192.4981-299.14-288.6485-331.948 478.0297-663.748 956.2075-995.499 1434.237-299.288-476.2975-598.576-952.496-898.012-1428.9919-102.732 89.8164-205.464 179.2862-308.393 269.0528-145.339-257.5222-290.728-514.8468-435.868-772.2207-72.348 44.5866-144.647 89.272-216.994 134.0068 211.204 381.7307 422.655 763.6596 633.859 1145.3901 99.614-109.7089 199.328-219.6163 298.942-329.1273 200.02 317.9438 400.04 636.1355 600.159 954.2773-727.881-258.5615-1455.713-517.1725-2183.545-775.7342-22.714 135.3924-45.626 270.9823-68.488 406.5726-230.454-83.9768-460.71-167.7064-691.164-251.7324-27.216 81.8984-54.879 163.6977-82.09602 245.646 358.86902 135.0456 717.68802 270.0915 1076.55602 405.2855 9.403-147.2688 19.003-294.7352 28.454-442.0039 664.442 236.392 1328.833 472.784 1993.274 708.9782-447.942 132.0764-895.884 264.3019-1343.876 396.5762-2.474-135.7386-4.751-271.4771-6.978-407.1167-449.724 143.8049-899.398 287.758-1349.319 431.5627-27.762-75.4652-55.77-151.1286-83.532-226.7919-143.606 168.0526-287.411 336.1051-430.82002 504.2074 213.62802 70.4177 427.35602 140.6375 641.18302 211.0059-17.815-82.2448-35.68-164.3908-53.296-246.4872 315.321-98.0309 630.89-196.2097 946.409-294.2403 2.277 132.2746 4.701 264.6976 6.978 396.9227 506.632-148.5059 1013.313-296.8631 1519.995-445.3197-206.503 293.1521-412.907 586.3038-619.36 879.5052l-284.492-248.4666c-218.33 306.4635-436.61 612.9266-654.94 919.5389-70.071-40.9244-139.945-81.6017-210.016-122.3281-1.732 221.0515-3.464 442.2021-5.048 663.2537 209.819-82.0966 419.687-164.2423 629.505-246.3387-66.558-52.4545-133.165-104.8597-199.526-157.2649 145.537-209.8185 291.272-419.884 436.759-629.8511 79.474 114.6084 159.046 229.0682 238.322 343.6273 355.553-506.484 711.056-1012.7695 1066.461-1519.2531 339.075 538.6493 678.05 1077.249 1016.976 1615.8979 84.719-109.907 169.141-219.8143 253.662-329.672 135.59 218.7755 271.329 437.6493 406.771 656.4246-69.032 48.0504-138.015 96.1007-206.998 144.1018 205.266 91.8944 410.383 184.1848 615.5 276.0299 8.561-220.8536 16.924-442.0042 25.287-663.0558-72.15 38.1038-144.448 76.0095-216.598 113.9158-201.95-318.1424-403.554-636.0864-605.405-954.4261-99.416 79.6716-198.783 159.3925-298.249 238.8662-231.493-368.4685-462.936-737.1353-694.479-1105.802 529.198 188.3417 1058.445 376.8813 1587.593 565.025 9.452-132.225 18.706-264.3018 28.306-396.5766 310.274 114.6084 620.943 229.2661 931.366 343.8746-24.051 81.8984-48.2 163.6981-72.299 245.6458 218.182-58.5415 436.264-117.2312 654.247-175.7722-134.155-175.2282-268.31-350.5057-402.663-525.6842-32.363 73.3867-64.826 146.9225-97.189 220.3092-442.153-169.1412-884.553-338.53-1326.903-507.6712-9.452 135.392-18.854 271.131-28.108 406.7209-327.248-114.7568-654.643-229.5632-981.742-344.3693 562.056-166.3206 1124.112-332.7896 1686.365-499.3081.495 147.4168 1.04 294.7352 1.534 442.1525 367.628-115.9939 735.057-232.1859 1102.635-348.1798-22.862-82.2943-45.774-164.4402-68.488-246.7344-235.006 70.0715-469.814 140.2913-704.772 210.5111-15.538-137.4706-31.274-274.9413-47.011-412.313-775.189 228.3754-1550.379 456.8498-2325.569 685.3739 259.106-370.0522 518.163-739.7087 777.071-1109.4143 96.298 112.8764 192.399 225.9008 288.648 338.7278 228.92-370.0522 457.741-740.0551 686.661-1110.1075z" style="clip-rule:evenodd;fill:#fff100;fill-rule:evenodd;stroke-width:4.94856;image-rendering:optimizeQuality;shape-rendering:geometricPrecision;text-rendering:geometricPrecision"/></svg>