<svg clip-rule="evenodd" fill-rule="evenodd" height="120mm" image-rendering="optimizeQuality" shape-rendering="geometricPrecision" text-rendering="geometricPrecision" viewBox="0 0 200 120" width="200mm" xmlns="http://www.w3.org/2000/svg"><path d="m0 0h200v120h-200z" fill="#0f2ea1"/><path d="m90 0h20v120h-20z" fill="#fff"/><path d="m0 49.8335h200v20h-200z" fill="#fff"/><path d="m96 0h8v120h-8z" fill="#3cc864"/><path d="m0 55.8335h200v8h-200z" fill="#3cc864"/><path d="m35 60 65-42 65 42-65 42z" fill="#fff"/><path d="m110.793 51.6245h-22.0661l.0929 13.6673c-.031.031 15.519-.0171 21.9112.031z" fill="#fff"/><path d="m88.7268 45.6586v18.9204c-.0155 3.4401 2.0299 3.4401 4.0289 3.4401h4.2459c.8367.0155 2.3708-.1549 2.8822 2.03.2014-.9143.7903-2.03 2.2004-2.03h6.0744c1.2242 0 2.5723-1.3636 2.5723-2.9907v-19.4938" fill="none" stroke="#1f1a17" stroke-width=".4317"/><path d="m88.7323 45.7099.459-.2149 21.5706.0086.0092 6.1012h-22.0683z" fill="#0071b6"/><path d="m81.4003 53.3517c-.483.1608-.6568.2875-.7419.6106.3025.3987.6831.7482 1.0715 1.1926.5114-.1986.7029-.463.7786-.909 0-.4649-.5968-.8942-1.1082-.8942z" fill="#fff500"/><path d="m89.8012 72.3398c-.2556-.241-.4545-.5104-.7102-.7514.0457-.4674.2144-.8403.3641-1.2604.1289-.1823.3038-.9022.3348-.9022-.031 0 .0712-.2713-.1187-.8859-.0465 0-.5442-.9762-.5132-.9762-.031 0-.4725-.8045-.4415-.8045-.031 0-.2322.2626-.1857.2626-.0465 0-.5823-1.3891-.5513-1.3891-.031 0-.3537 1.1158-.3227 1.1158-.031 0-.3436 1.248-.2559 1.6735-.0309 0 .8809 1.3999.9119 1.3999.1771.3214.4379 1.2405.5033 1.4768-.0465 0-.8746-1.1601-.8436-1.1601-.031 0-1.2024-1.8251-1.1559-1.8251-.0887 0-1.776-3.1777-1.8501-3.3539.1789-.1954.5001-.3257.5466-.3257-.0465 0 1.0873-.3664 1.1338-.3664-.0465 0 .7732-.3335.9744-.447.2842-.1932.5583-.4713.6338-.7291.1013-.3592.0517-1.1096.0982-1.1096-.0465 0-.0347-.7116-.0699-1.0519-.031 0-.7835.7585-1.3954.8909-.031 0-.1705-2.1385-.1395-2.1385-.031 0-1.1212 1.0598-1.3773 1.5987-.0465 0-.3832.6454-.3461.9857-.0465 0-.1174 1.8737-.2566 2.1574-.031 0-.5424-1.3138-.5114-1.3138-.031 0-.55-1.7631-.519-1.7631-.031 0 .4567-.7304.6829-.9668.4452-.1513 1.2846-.428 1.6276-.6455.2593-.1899.5686-.4176.8342-.7189-.0465 0 .2221-.7593.2686-.7593-.0465 0 .3709-1.7891.3796-2.016-.0465 0-.9868.4281-1.1956.6266-.264.1608-.7078.7118-.6768.7118-.031 0-.2729-1.7862-.2419-1.7862-.031 0-1.07.9875-.9668 1.0537-.0465 0-.5772 1.1906-.5462 1.1906-.031 0-.137.2304-.1821.9323.0278.3977.0849 1.2451-.0968 1.7049-.0465 0-.492-2.0458-.4611-2.0458-.0309 0-.2018-2.3655-.1553-2.3655-.0465 0-.0359-1.338-.0049-1.338-.031 0 .0056-1.1084.0366-1.1084-.031 0 1.3889-.7718 1.4199-.7718-.031 0 .9248-.7989.9558-.7989.1177-.1245.3426-.5093.3977-.668.0465-.093.3339-1.2983.3804-1.2983-.0465 0 .5945-1.1261.641-1.1261-.0465 0-1.2375.5184-1.7944.9057-.7094.5221-1.0196.8835-1.214 1.1532-.031 0-.3491.717-.4081 1.0524-.1486.4046-.4562.8855-.4252.8855-.031 0 .1306-1.8978.1616-1.8978-.031 0 .2669-1.8627.2979-1.8627-.031 0 1.214-.2124 1.245-.2124-.031 0 1.0758-.5097 1.1222-.5097.3517-.29.4854-.4602.6405-.6917.007-.0865.3807-.9229.4117-.9229-.031 0 .4118-1.5875.4428-1.5875-.031 0-.799.2754-.7681.2754-.0309 0-1.0321.6729-1.0011.6729-.031 0 .2153-.9128.1896-1.3477-.031 0-.015-.8391-.2582-1.5293-.031 0-.2445.545-.406.7718-.0465 0-1.001 1.1278-1.1213 1.2791-.031 0-.3147-.9171-.6335-1.4466-.031 0-.6534-.8462-.6224-.8462-.031 0 .2287.9523-.3549 1.9262-.0309 0-.4984-.8072-1.0571-1.261-.0748.2458-.2616 1.7839-.1395 2.0203.067.4727.0849.7375.4718 1.1346-.0465 0 1.4894 1.4482 1.5359 1.4482-.3334 1.1814-.6435 4.7683-.6398 4.7683-.0688-.3404-.2926-1.6258-.2642-2.1101-.0095-.6734-.3462-1.2707-.3152-1.2707-.031 0-.7333-.9478-.6868-.9478-.0465 0-.4667-.4665-.4357-.4665-.031 0-.222 1.0172-.087 1.4143-.031 0-.9788-.5654-.9478-.5654-.031 0 .012 1.7896.0585 1.7896-.0465 0 .3814 1.2491.4124 1.2491-.031 0 .7399.7543 1.0072.8205.3629.2508 1.2321.9133 1.2302.8825-.0465 0-.0076 2.6264.0234 2.6264-.031 0-.6269-1.2869-.5959-1.2869-.031 0-.5676-1.0172-.8048-1.1969-.0465 0-.4572-.4186-.9935-.6266-.031 0-.6969-.2979-1.3878-.3452-.0465 0 .271 1.3808.7748 2.1088-.3714-.1608-1.4982-.2033-2.2519-.0709-.031 0 1.3205 1.341 1.367 1.341.3182.2431 1.0508.7391 1.4789.799-.0309 0 2.42.0827 2.451.0827.0416 1.0739.6241 4.3503.6585 4.3157-.031 0-.8746-1.4327-.8281-1.4327-.0465 0-.5676-.6174-.5366-.6174-.031 0-1.2316-.6078-1.2006-.6078-.031 0-.8307-.572-1.1719-.9691-.0464 0-.0155 1.5301.5072 2.4-.031 0-1.6223.0775-1.5758.0775.3128.1229.9644.4228 1.4363.9617-.0465 0 1.2242.8936 1.2707.8936.7004.1418 1.3111.0265 1.3576.0265-.0465 0 .9859 1.0477 1.3983 1.5007.1063.4281.7984 2.3875 1.3986 3.2452-.727-.63-1.444-1.2139-1.413-1.2139-.031 0-.8061-.4533-.7751-.4533-.031 0-.3126-.1135-.7827-.0946-.031 0-1.3119.1631-1.9651-.2246-.0465 0 .5274 1.0751.5739 1.0751-.0465 0 .9429.9694.9739.9694-.031 0-.8938.0643-.8628.0643-.031 0 .8885 1.0934.9195 1.0934-.0155 0 .2071.2662.5225.4377s.7238.2486.7393.2486c-.031 0 .7519-.052.7984-.052-.0465 0 1.9049-.8347 1.9514-.8347.3683.5996 1.4641 2.3271 2.2123 3.0929-.031 0-1.3755-.2193-1.3445-.2193-.031 0-.9668.0189-.9358.0189-.031 0-1.3962.1791-1.3652.1791-.031 0 2.0959 1.4259 2.4199 1.5874.8105-.3317 1.4918-.9195 1.5967-1.1157.1142.1159.3112.3152.4556.5043-.031 0-.7969.2164-1.683.8189-.031.031.6711.3635 1.0438.4914.3254-.124.7424-.3517.7424-.3517s.799-1.1427.7215-1.0343z" fill="#07a971"/><path d="m82.4974 47.9409.6448.6574-.2196 1.0677c-.0155.0619-.4331.006-.5371-.0715 0 .0775-.4304-.2789-.3685-.3409-.2132-.3067-.0937-.7257-.0937-.7162.1157-.265.3355-.4166.5741-.5965z" fill="#fff500"/><path d="m84.4722 49.4947-.4872.0715-.3622.3296-.1431.5019c-.0877.093.285.841.3469.779-.0619.062.4086-.5712 1.2586-1.138-.0945-.2889-.613-.544-.613-.544z" fill="#fff500"/><path d="m86.3756 69.0098-.5931.001-.4864.3039c-.0774.0465-.2505.4037-.1885.3417-.062.062-.0697.6784-.0077.6164-.062.062.4967.5983.5587.5364-.062.0619.711.0801.8039.0491.32-.1161.6845-.6327.6165-.7231z" fill="#fff500"/><path d="m101.124 63.8693-2.6246-.0463.7095-.2487c.1909-1.0928.0982-2.8536.1447-2.8536-.4102-.0302-.8195-.1927-.98-.3437-.0485.0322-.5968.1821-.5658.1821-.242.0101-.6416-.1545-.7553-.2068-.0692.0583-.4739.1442-.6017.1503-.2159-.0383-.65-.2972-.619-.2972-.031 0-.9054-.095-.8744-.095-.031 0-.3077-.3027-.3327-.3769-.0775-.1299.0663-.8203.0973-.8203-.031 0-.1453-.6557-.1143-.6557.1616-.3473.4929-.4561.5394-.4561-.0465 0-.1814-.6356-.1504-.6356.1122-.2577.6727-.4058.7036-.4058-.0587-.2655.0868-.6387.1178-.6387.2972-.2176.7326-.2898.7636-.2898.0537-.3581.4668-.6011.4978-.6011-.031 0 .4047-.1273.4357-.1273.294-.2702.6411-.3887.6876-.3887.314-.037.6445.0123.691.0123-.0465 0 .6726-.2556.7191-.2556.3941.0571.6593.2088.6903.2088.2386-.0648.4136-.1141.7512-.0663-.031 0 .5399.3674.5399.3674l.5827.1053c.219.1526.4178.3252.5551.5873l.5451.1287c.2239.2036.3184.3965.3944.7081l.4207.2263c.1723.2258.2799.484.2997.8024.2068.1153.3812.2385.4817.4387.0715.2095.0845.4421.025.6932.0898.2855.1796.5709.2694.8564-.0454.2385-.1338.4045-.3547.575-.3571.0974-.6432.1484-1.1019.1223l-.5889.2046-.7236-.156c-.2275.1299-.4719.2351-.7379.2601l-.575-.22c-.3453.2963-.5273.3715-.8507.4194-.2251 1.102-.0257 2.53.0298 2.8727z" fill="#07a971"/><path d="m104.238 83.2825 1.7706.6779.2123.3426c0 .0885-.1093.3424-.2922.4266-.0941.0415-.7335.0567-.7335.0257 0 .031-.4458-.2021-.4458-.2331 0 .031-1.3327-.7438-1.3327-.7438z" fill="#07a971"/><path d="m101.267 80.3058 2.0786-.1904-2.1758 1.3851c-.0309.031 1.5341.9453 1.5341.9143 0 .031-.8618.5241-.8618.4776 0 .0465-1.2042-.7361-1.5372-.9726-.0464.0464.0043-1.0298.0043-1.0298z" fill="#07a971"/><path d="m99.372 82.3088.0213-2.0044-1.7638-.0896c-.031 0 1.6295 1.158 1.6605 1.158-.031 0-2.1456 1.0177-2.0991 1.0177-.0465 0 .9134.4887.9134.4887 0-.0155 1.2987-.6479 1.2677-.5704z" fill="#07a971"/><path d="m95.5998 83.1035-2.5033.9537-.4646.2013c-.031.0465-.264.5359-.233.4894-.031.0465.419.4802.4654.4492-.0464.031.7126-.0165.7436-.063.4912-.1956 3.5402-1.4715 3.6259-1.5492 0 .0465-.6583-.3726-.6583-.4191 0 .0465-.4104.4191-.4104.4191z" fill="#07a971"/><path d="m110.899 72.8099.953-1.5581 1.2635-2.4579.7396-1.6777.7015-1.8554-.773-2.1694-.8102-1.9687-.5471.9985-.4696 1.4514-.0036-1.4685.1974-1.9707.42-.7868.4367-.2539.2948.1617.6004 1.4352 1.0458 3.3252.5585-2.0081.4725-2.2117.3243-2.5145.1347-2.061.0357-1.7074-2.5664-3.9331-.5209 1.2423-.7652.9475.3409-1.5324.0268-1.0985.0273-.6388c.1766-.5395.5849-.6449.9103-.397l2.4905 3.197c-.0637-.9983-.1543-2.0145-.2628-3.0217-.6522-.8233-1.3043-1.6019-2.0103-2.3894.5537.2678 1.0447.7446 1.5538 1.1713-.2577-.9294-.6675-1.7604-1.113-2.6272.5303.5961.9443 1.1655 1.3943 1.8063l-.0006-2.5817.5692 2.6828.8725-1.8653c-.1262.6847-.315 1.3514-.3784 2.0539.3514-.5792.7386-1.0153 1.1885-1.4782-.5246 1.0049-1.0313 1.9382-1.3321 3.0415l.3527 3.4623.0525 3.5109-.1997 3.6725-.6567 3.7125-1.189 4.0361c-.5404 1.2752-1.0807 2.5147-1.7552 3.772.5731-.1327 1.1463-.2654 1.7194-.3981.6851-.0543 1.3435-.0997 2.0555-.0288l-.8334.7367-1.0183.1169-1.813.3874-.7431.3081-1.7466 2.4556-.2323.0893s.0079-1.0684.0079-1.1149z" fill="#07a971"/><path d="m111.955 44.4344h.5113l.031-.4339-.6818-.5423c-.0465 0-3.6105-1.3017-3.564-1.3017-.0465 0-2.5414-.7283-2.5104-.7283-.031 0-2.8667-.5888-2.8357-.5888-.031 0-2.5878-.279-2.5413-.279-.0465 0-1.4257.062-1.3792.062-.0465 0-3.533.4029-3.502.4029-.031 0-3.7036.8678-3.6571.8678-.0465 0-3.2386 1.2396-3.2076 1.2396-.031 0-1.5186.7284-1.4876.7284-.031 0-.186.3873-.1395.3873-.0465 0 .1085.186.1395.186h.4029c-.0465 0 .062.1859.1084.1395-.0464.0464.5114.4029.5424.3719-.031.031-.1859.3564-.1395.3254-.0464.031.1705.4029.217.3564-.0465.0465.4339.0465.4649 0-.031.0465 1.813-.7903 1.8595-.8368-.0465.0465 3.1921-1.0382 3.2231-1.0382-.031 0 3.3471-.6973 3.3936-.6973-.0465 0 2.1694-.1395 2.2159-.1395-.0465 0 3.0062.1705 3.0527.1705-.0465 0 2.2934.3719 2.3244.3719-.031 0 3.9979 1.1931 4.0289 1.1621-.031.031 2.4329 1.0848 2.4793 1.0538-.0464.031.3255.031.3564 0-.0309.031.155-.2945.186-.3254-.031.0309-.1395-.3719-.1085-.4029-.031.031.217-.155.217-.155z" fill="#fff"/><path d="m78.7474 65.6792 1.579 1.8729 2.1369 2.1958c0 .0465 2.1896 1.8492 2.1896 1.8182 0 .031 2.3827 1.5379 2.3827 1.5069 0 .031 2.0426 1.043 2.0426 1.012 0 .031-.0132-2.0513-.0132-2.0823 0 .031 1.7125.7903 1.7125.7593 0 .031 2.4212.9207 2.4212.8742 0 .0465 3.0693.7868 3.8584.8099.1754.0295 3.1056.1912 3.1056.1602 0 .031 2.5419-.0926 3.719-.3578 0 .0464 2.689-.5685 2.8048-.6509 1.6981-.3999 4.2198-1.5574 4.2198-1.5884 0 .031.0034 1.948.0034 1.917 0 .031 2.3733-1.1391 2.3733-1.17 0 .0309 2.3983-1.4852 2.7785-1.8906 0 .031 2.1384-1.8702 2.1384-1.9167.3868-.2622 3.0729-3.4433 3.0729-3.4433l.1324 4.5007c0 .0465 2.7368.5815 2.7368.5505 0 .031-2.7106 2.9729-3.5712 3.5832-.2503.3068-2.7821 2.2026-2.9228 2.2684-.5727.5267-4.031 2.3662-4.1136 2.3828-.9035.5492-4.6856 1.8416-4.6856 1.8106 0 .031.0131-1.8178.0131-1.8488-1.7496.5906-4.2428 1.1798-4.2428 1.1488-1.7367.3462-4.4099.4597-4.4099.4132 0 .0465-2.9287-.1109-2.9287-.1419-1.5051-.1041-3.8895-.7233-3.8895-.7543 0 .031-2.2752-.6722-2.2752-.7032 0 .031.0369 2.0814.0369 2.0349 0 .0465-2.4858-.8172-2.4858-.8482 0 .031-2.8128-1.2295-2.8128-1.276 0 .0465-2.5877-1.4203-2.5877-1.4513 0 .031-2.029-1.2979-3.4631-2.5339 0 .0465-2.5777-2.2105-3.9691-3.9257-.031.031 2.7834-.5572 2.7834-.5572z" fill="#da251d"/><path d="m110.886 65.3134-8.4025.0323-.3616-.6897c-.0917-.0826-.4624-.5872-1.1121-.8782-.031 0-.764-.1638-.733-.1638-.3973-.0934-.6786-.0918-1.0942-.0028-.031 0-.9387.2983-.9077.2983-.031 0-.8239.592-.7929.592-.031 0-.5756.8923-.5446.8614-.031.0309-8.1864.0235-8.1554-.0075-.031.031.0818.9747.1128.9437-.031.031.7406 1.4535.7716 1.4225-.031.031 2.0047.5764 2.0357.5454-.031.031 6.5392.2325 6.5702.2015-.031.031.9142.4887.9452.4577-.031.031.6566 1.3095.6876 1.2785-.031.031.6141-1.2403.6451-1.2713-.031.031.9453-.7283.9762-.7593-.0309.031 1.5961 0 1.6271-.031-.031.031 5.749 0 5.78-.031-.031.031.9452-.6818.9762-.7128-.031.031.8058-1.0692.8058-1.0692z" fill="#0071b6"/><path d="m100.039 47.5646-.0601-.7302-.4995-.7849c-.031 0-.4631.7868-.4321.7868-.031 0-.0638.6964-.0328.6964-.031 0-.6062-.2699-.5753-.2699-.0309 0-.4976-.062-.4666-.062-.031 0-.5569.3136-.5259.3136-.031 0-.4083.8251-.3773.7941-.031.031.5195-.2881.535-.3191.1393-.0329.4632-.0931.6526-.0839.0583.0346.6009.4546.7448.6973-.031.031-.2798.7238-.2488.6928-.031.031.2025.8766.2335.8456-.031.031-.4172 0-.3863-.031-.0309.031-.6166-.5157-.6221-.5467.0055.031.1185.7283.1495.6973-.031.031.311.4296.342.3986-.031.031.6573.0852.6397.0663.0298.0189.1915.3692.2225.3382-.031.031.4357.0238.4667-.0072-.031.031.1294-.3019.1604-.3329-.031.031.5332-.0109.5332-.0419 0 .031.4175-.2406.4175-.2716 0 .031.1822-.8413.1822-.8723 0 .031-.5578.5551-.5578.5241 0 .031-.4302.1022-.4302.0712 0 .031.1895-.475.1895-.506 0 .031-.0218-.5286-.0218-.5596 0 .031-.1768-.4631-.1768-.4786 0 .0155.4302-.5013.4302-.5323 0 .031.4578-.1514.6272-.1313.0655.0037.4806.1457.8394.3519 0 .031-.2169-.5889-.2169-.6199 0 .031-.3719-.2944-.3719-.2944l-.3874-.1549-.5269.0929s-.4494.248-.4494.2635z" fill="#07a971"/><path d="m93.6413 79.5197 1.7797.378.5076 1.1534c0 .031.7242.9248.7242.8939 0 .0309 1.2779.9162 1.2779.8852 0 .031 1.43.4313 1.43.4003 0 .031.0246-2.8989.0246-2.9299 0 .031.9312.017.9312-.014 0 .031.0012 3.0111.0012 2.9801 0 .031.9452-.1535.9452-.1844 0 .0309 1.0356-.3824 1.0356-.4134 0 .031 1.0786-.7886 1.0786-.8196 0 .031.6429-.7982.6429-.8292 0 .031.5035-1.0838.5035-1.1148 0 .031 1.8829-.423 1.8829-.423l-.3243 1.0622c0 .031-.6081-.0837-.6081-.1147 0 .031-.3602.8149-.3602.7839 0 .031.4415.438.4415.407 0 .031-.6199.923-.6199.892 0 .031-.5388-.3046-.5388-.3356 0 .031-.5614.6672-.5614.6362 0 .031.3047.5248.3047.4938 0 .031-.7143.5579-.7143.5269 0 .031-.4596-.4316-.4596-.4626 0 .031-.6324.3988-.6324.3678 0 .031.2476.5839.2476.5529 0 .031-1.0405.4082-1.0405.3772 0 .031-.2468-.5927-.2468-.6237 0 .031-.8663.1907-.8663.1597 0 .031-.0321.6733-.0321.6423 0 .031-1.0564.0023-1.0564-.0286 0 .0309.014-.5754.014-.6064 0 .031-1.0072-.2342-1.0072-.2652 0 .031-.2959.6482-.2959.6172 0 .031-.9745-.3882-.9745-.4192 0 .031.2269-.4769.2269-.5079 0 .031-.7426-.4362-.7426-.4672 0 .031-.3088.3485-.3795.3882-.0837-.0204-.7926-.5961-.7926-.6271 0 .031.3186-.3076.3186-.3385-.0772-.1106-.5052-.6833-.5052-.7143 0 .031-.4619.2418-.4619.2108 0 .031-.5243-.7687-.5243-.7997 0 .031.3936-.2748.3936-.3058 0 .031-.2269-.6043-.2269-.6353 0 .031-.4947.1912-.4947.1912l-.2456-1.0201z" fill="#fff"/><path d="m95.6821 74.2163 1.8127.2631.7309-.4117 1.05-.2727.0128.7979c0 .031.999.031.999 0 0 .031.0041-.8403.0041-.8403l.8783.1432 1.2224.5439c0 .031 1.8613-.2532 1.8613-.2532l-.5046-.3497.3625-.4149-.9271-.6392-.3485.4661-.7324-.4157.1549-.4892-1.0242-.328-.1894.5613-.766-.1286-.0129-.4731-1.1066.0053-.0012.545-.909.1667-.1579-.4585-.7897.2801.1676.4534-.6377.3357-.2637-.3719-.7605.5461.2684.3758z" fill="#fff"/><path d="m83.3962 39.3053.8368-.4649.4183.4959c0 .0309.8058-.279.8058-.279l-.2169-.6663 1.0382-.5578-.031.9452.6354-.3254.5268.8523 1.2552-.6819-.248-.7283.6509-.2789-.5269-.6973 1.3481-.3719.31.7128.6353-.1549-.2014-.8368 1.2551-.3254.2015.7593.5578-.124.031-.9453 1.0692-.0929-.1549.7593.8522-.1705.155.9143 1.4411-.186-.1549-.9762.9917-.031-.3719-.7903 1.1932.0155.1239.6508h.8523v-.9452l1.3481.062v.9452l.5889-.031.3254-.8213 1.0847.093-.2169.7593.9142.062-.062.9142 1.4412.062.0929-.8522.8523.0929-.1859-.8058 1.2551.186-.062.8523.7438.1859.155-.6663 1.2242.1859-.093.7593.4494.217.6198-.6818 1.0072.3409-.4803.5578.7903.2944-.217.8678 1.1002.5734.3719-.8213 1.0692.3409.093-.8678 1.0382.4959-.3099.7593.5889.2789.4339-.5578 1.0382.4958-3.2851 4.6178c0 .031-1.1312-.3719-1.1312-.4029 0 .031-3.1767-1.1932-3.1767-1.2242 0 .031-2.3554-.6353-2.3554-.6663 0 .031-2.4173-.4649-2.4173-.4959 0 .031-2.8513-.2014-2.8513-.2324 0 .0155-2.2314-.031-2.2314-.062 0 .031-2.1229.2635-2.1229.2325 0 .031-2.1384.5268-2.1384.4958 0 .031-3.3936 1.1312-3.3936 1.1002 0 .031-3.5331 1.4412-3.5331 1.4412z" fill="#fff"/><path d="m112.377 43.839 3.22-4.8746-.946-.4649-.449.6508-.511-.2324.248-.7283-1.039-.4959-.248 1.8595-3.331 2.8048-.558-4.029 1.441-1.6735-1.131-.3564-.403.6353-.635-.2014.139-.7129-1.24-.2789-.185.7128-.651-.1239v-.8213l-1.163-.2015.326 2.1075-2.232 3.3006-1.735-3.843.79-1.8905h-1.131l-.217.7283h-.728v-.8368h-1.2709v.8368h-.9143l-.1549-.6818h-1.1157l.7128 1.751-1.2862 3.967-2.4793-3.1767.2324-2.1074-1.1157.2169.0775.8523-.5733.124-.217-.7593-1.2706.3564.2169.7593-.5888.1704-.4029-.6973-1.3017.4649 1.1777 1.3791-.1085 4.2924-3.3006-2.6343-.031-2.1075-1.1622.5424.3099.5888-.7283.4649-.4029-.6353-.7593.4804 3.5176 4.5248" fill="none" stroke="#1f1a17" stroke-width=".4317"/><path d="m86.3016 38.6906.6276-.2841.4184.7593 1.3637-.5269-.3564-.8057.7372-.2583" fill="none" stroke="#1f1a17" stroke-width=".4317"/><path d="m93.6454 36.2229.8768-.1408.1395.8988 1.3481-.1705-.0775-.8987.9388-.0917" fill="none" stroke="#1f1a17" stroke-width=".4317"/><path d="m101.774 35.7722.961.0465-.108.8988 1.456.1084.124-.8832.828.0929" fill="none" stroke="#1f1a17" stroke-width=".4317"/><path d="m109.724 37.1823.836.3719-.387.8058 1.162.4649.465-.8213 1.002.4933" fill="none" stroke="#1f1a17" stroke-width=".4317"/><path d="m112.002 44.4654c.4028.2634.7747-.4184.3874-.6353-9.8244-4.2769-16.0073-4.2149-25.1963-.0155-.5269.3254.0465.9607.5578.6508 8.1973-4.2149 16.2552-3.9824 24.2511 0z" fill="none" stroke="#1f1a17" stroke-width=".4317"/><path d="m111.862 44.3908c.2971.4267-.093.7564-.4184.6014-7.7014-3.657-15.4339-3.9204-23.1043-.0619-.4959.3099-.8161-.2578-.4287-.5522" fill="none" stroke="#1f1a17" stroke-width=".4317"/><path d="m88.3298 44.939c-.4761.4082.0251 1.014.5519.6886 7.438-3.781 14.8761-3.3781 22.3451.062.5645.2791.818-.3118.3804-.6565" fill="none" stroke="#1f1a17" stroke-width=".4317"/><path d="m87.3166 40.7619 2.3799-.9736" fill="none" stroke="#1f1a17" stroke-width=".4317"/><path d="m94.2433 38.546 2.5413-.2635" fill="none" stroke="#1f1a17" stroke-width=".4317"/><path d="m101.883 38.0811 2.737.2789" fill="none" stroke="#1f1a17" stroke-width=".4317"/><path d="m108.865 39.3402 2.745 1.095" fill="none" stroke="#1f1a17" stroke-width=".4317"/><path d="m110.56 41.3507-1.487-.6198" fill="none" stroke="#1f1a17" stroke-width=".4317"/><path d="m103.793 39.5687-1.328-.124" fill="none" stroke="#1f1a17" stroke-width=".4317"/><path d="m96.4179 39.3827-1.3378.155" fill="none" stroke="#1f1a17" stroke-width=".4317"/><path d="m89.672 41.0253-1.3326.5579" fill="none" stroke="#1f1a17" stroke-width=".4317"/><path d="m98.3187 40.6844.6508-2.6963h.7903l.6973 2.6653c-.7283-.0465-1.4566-.031-2.1384.031z" fill="#1f1a17"/><path d="m106.47 38.6854.712.1395.124 3.063-2.367-.6198z" fill="#1f1a17" stroke="#1f1a17" stroke-width=".0762"/><path d="m92.1668 38.8404-.8057.2169v3.0449l2.3837-.7244z" fill="#1f1a17" stroke="#1f1a17" stroke-width=".0762"/><path d="m85.4327 41.6774 2.3488 1.8427-.7283.3255z" fill="#1f1a17" stroke="#1f1a17" stroke-width=".0762"/><path d="m111.382 43.3342 2.634-2.092-1.642 2.5259z" fill="#1f1a17" stroke="#1f1a17" stroke-width=".0762"/><path d="m89.1017 45.5191h21.6853" fill="none" stroke="#1f1a17" stroke-width=".4317"/><path d="m88.7268 51.609h22.0592" fill="none" stroke="#1f1a17" stroke-width=".4317"/><path d="m99.6049 55.266c.1859 0 .3254.1395.3254.3099 0 .1705-.1395.3254-.3254.3254-.1705 0-.31-.1549-.31-.3254 0-.1704.1395-.3099.31-.3099z" fill="#1f1a17"/><path d="m100.891 55.3435c.1705 0 .3099.1395.3099.3254 0 .1705-.1394.3099-.3099.3099-.1704 0-.3254-.1394-.3254-.3099 0-.1859.155-.3254.3254-.3254z" fill="#1f1a17"/><path d="m98.4427 55.3435c-.186 0-.3254.1395-.3254.3254 0 .1705.1394.3099.3254.3099.1704 0 .3099-.1394.3099-.3099 0-.1859-.1395-.3254-.3099-.3254z" fill="#1f1a17"/><path d="m100.891 56.2113c.1705 0 .3099.1394.3099.3254 0 .1704-.1394.3099-.3099.3099-.1704 0-.3254-.1395-.3254-.3099 0-.186.155-.3254.3254-.3254z" fill="#1f1a17"/><path d="m98.4427 56.2113c-.186 0-.3254.1394-.3254.3254 0 .1704.1394.3099.3254.3099.1704 0 .3099-.1395.3099-.3099 0-.186-.1395-.3254-.3099-.3254z" fill="#1f1a17"/><path d="m100.891 57.079c.1705 0 .3099.1395.3099.3254 0 .1705-.1394.31-.3099.31-.1704 0-.3254-.1395-.3254-.31 0-.1859.155-.3254.3254-.3254z" fill="#1f1a17"/><path d="m98.4427 57.079c-.186 0-.3254.1395-.3254.3254 0 .1705.1394.31.3254.31.1704 0 .3099-.1395.3099-.31 0-.1859-.1395-.3254-.3099-.3254z" fill="#1f1a17"/><path d="m100.891 58.0553c.1705 0 .3099.1394.3099.3254 0 .1704-.1394.3099-.3099.3099-.1704 0-.3254-.1395-.3254-.3099 0-.186.155-.3254.3254-.3254z" fill="#1f1a17"/><path d="m98.4427 58.0553c-.186 0-.3254.1394-.3254.3254 0 .1704.1394.3099.3254.3099.1704 0 .3099-.1395.3099-.3099 0-.186-.1395-.3254-.3099-.3254z" fill="#1f1a17"/><path d="m100.891 59.078c.1705 0 .3099.1395.3099.3099 0 .1705-.1394.3099-.3099.3099-.1704 0-.3254-.1394-.3254-.3099 0-.1704.155-.3099.3254-.3099z" fill="#1f1a17"/><path d="m98.4737 59.078c-.1705 0-.31.1395-.31.3099 0 .1705.1395.3099.31.3099.1704 0 .3099-.1394.3099-.3099 0-.1704-.1395-.3099-.3099-.3099z" fill="#1f1a17"/><path d="m101.898 58.6441c.1705 0 .3255.1395.3255.3099 0 .1705-.155.3099-.3255.3099-.1704 0-.3099-.1394-.3099-.3099 0-.1704.1395-.3099.3099-.3099z" fill="#1f1a17"/><path d="m101.96 57.6679c.186 0 .3254.1394.3254.3099 0 .1704-.1394.3099-.3254.3099-.1704 0-.3099-.1395-.3099-.3099 0-.1705.1395-.3099.3099-.3099z" fill="#1f1a17"/><path d="m101.945 56.8311c.1705 0 .31.1395.31.3099 0 .1705-.1395.3254-.31.3254-.1859 0-.3254-.1549-.3254-.3254 0-.1704.1395-.3099.3254-.3099z" fill="#1f1a17"/><path d="m102.007 55.9478c.1705 0 .3254.1395.3254.3254 0 .1705-.1549.31-.3254.31-.1704 0-.3099-.1395-.3099-.31 0-.1859.1395-.3254.3099-.3254z" fill="#1f1a17"/><path d="m102.952 56.2113c.1704 0 .3099.1394.3099.3254 0 .1704-.1395.3099-.3099.3099-.1705 0-.3099-.1395-.3099-.3099 0-.186.1394-.3254.3099-.3254z" fill="#1f1a17"/><path d="m96.3507 56.2732c.1705 0 .3099.1395.3099.3255 0 .1704-.1394.3099-.3099.3099-.1704 0-.3099-.1395-.3099-.3099 0-.186.1395-.3255.3099-.3255z" fill="#1f1a17"/><path d="m96.2732 57.1255c.1705 0 .31.1395.31.3099 0 .1705-.1395.31-.31.31-.1859 0-.3254-.1395-.3254-.31 0-.1704.1395-.3099.3254-.3099z" fill="#1f1a17"/><path d="m96.3817 58.0553c.1705 0 .3099.1394.3099.3254 0 .1704-.1394.3099-.3099.3099-.1859 0-.3254-.1395-.3254-.3099 0-.186.1395-.3254.3254-.3254z" fill="#1f1a17"/><path d="m96.3817 59.109c.1705 0 .3099.1394.3099.3099s-.1394.3254-.3099.3254c-.1859 0-.3254-.1549-.3254-.3254s.1395-.3099.3254-.3099z" fill="#1f1a17"/><path d="m97.389 58.892c.1704 0 .3099.1395.3099.31 0 .1859-.1395.3254-.3099.3254-.1705 0-.31-.1395-.31-.3254 0-.1705.1395-.31.31-.31z" fill="#1f1a17"/><path d="m97.389 57.8073c.1704 0 .3099.1395.3099.31 0 .1704-.1395.3254-.3099.3254-.1705 0-.31-.155-.31-.3254 0-.1705.1395-.31.31-.31z" fill="#1f1a17"/><path d="m97.4664 56.8311c.186 0 .3254.1395.3254.3099 0 .1705-.1394.3254-.3254.3254-.1704 0-.3099-.1549-.3099-.3254 0-.1704.1395-.3099.3099-.3099z" fill="#1f1a17"/><path d="m97.5284 55.9323c.186 0 .3254.1395.3254.31 0 .1704-.1394.3099-.3254.3099-.1704 0-.3099-.1395-.3099-.3099 0-.1705.1395-.31.3099-.31z" fill="#1f1a17"/><path d="m102.952 57.1255c.1704 0 .3099.1395.3099.3099 0 .1705-.1395.31-.3099.31-.1705 0-.3099-.1395-.3099-.31 0-.1704.1394-.3099.3099-.3099z" fill="#1f1a17"/><path d="m102.952 57.9468c.1704 0 .3099.1395.3099.3254 0 .1705-.1395.3099-.3099.3099-.1705 0-.3099-.1394-.3099-.3099 0-.1859.1394-.3254.3099-.3254z" fill="#1f1a17"/><path d="m102.952 58.923c.1704 0 .3099.1395.3099.3254 0 .1705-.1395.31-.3099.31-.1705 0-.3099-.1395-.3099-.31 0-.1859.1394-.3254.3099-.3254z" fill="#1f1a17"/><path d="m103.928 58.5976c.1705 0 .3099.1395.3099.3254 0 .1705-.1394.31-.3099.31-.1704 0-.3099-.1395-.3099-.31 0-.1859.1395-.3254.3099-.3254z" fill="#1f1a17"/><path d="m95.5294 58.5976c-.1704 0-.3099.1395-.3099.3254 0 .1705.1395.31.3099.31.1705 0 .31-.1395.31-.31 0-.1859-.1395-.3254-.31-.3254z" fill="#1f1a17"/><path d="m103.959 57.7763c.1859 0 .3254.1395.3254.31 0 .1704-.1395.3099-.3254.3099-.1705 0-.3099-.1395-.3099-.3099 0-.1705.1394-.31.3099-.31z" fill="#1f1a17"/><path d="m95.4985 57.7763c-.186 0-.3255.1395-.3255.31 0 .1704.1395.3099.3255.3099.1704 0 .3099-.1395.3099-.3099 0-.1705-.1395-.31-.3099-.31z" fill="#1f1a17"/><path d="m99.6049 56.1648c.1859 0 .3254.1394.3254.3254 0 .1704-.1395.3099-.3254.3099-.1705 0-.31-.1395-.31-.3099 0-.186.1395-.3254.31-.3254z" fill="#1f1a17"/><path d="m99.6049 57.048c.1859 0 .3254.1395.3254.31 0 .1704-.1395.3254-.3254.3254-.1705 0-.31-.155-.31-.3254 0-.1705.1395-.31.31-.31z" fill="#1f1a17"/><path d="m99.6049 57.9158c.1859 0 .3254.1395.3254.3099 0 .1705-.1395.3254-.3254.3254-.1705 0-.31-.1549-.31-.3254 0-.1704.1395-.3099.31-.3099z" fill="#1f1a17"/><path d="m99.6049 58.9695c.1859 0 .3254.1395.3254.3099 0 .1705-.1395.31-.3254.31-.1705 0-.31-.1395-.31-.31 0-.1704.1395-.3099.31-.3099z" fill="#1f1a17"/><path d="m99.4809 48.5253c-.7438-1.0227-.5734-1.7665 0-2.5103.6818.8677.8213 1.4876 0 2.5103z" fill="none" stroke="#1f1a17" stroke-width=".4317"/><path d="m99.4809 46.0711v1.6794" fill="none" stroke="#1f1a17" stroke-width=".2793"/><path d="m99.4809 48.7113c-.2479.5268-.2479 1.0692 0 1.627.2944-.5268.2789-1.0847 0-1.627z" fill="none" stroke="#1f1a17" stroke-width=".2793"/><path d="m99.016 47.5491c-1.0072-.6664-1.6425-.3409-1.9835.8212.8523-.7128 1.4876-.5578 1.9525.2325-.2789.4959-.3099 1.0072 0 1.5341-.3254.0775-.6508-.124-.9917-.5734.093.5269-.0465 1.2242 1.1467 1.1622.0155.2789.1549.3719.3874.3874.2479-.0155.3874-.1085.4029-.3874 1.1932.062 1.0382-.6198 1.1467-1.1622-.3564.4494-.6664.6509-.9918.5734.3099-.5269.279-1.0382 0-1.5341.4649-.7903 1.1002-.9453 1.9525-.2325-.3409-1.1621-.9762-1.4876-1.9835-.8212" fill="none" stroke="#1f1a17" stroke-width=".4317"/><path d="m89.0832 72.017c7.2055 3.5021 14.4731 3.3936 21.8181 0v5.904c-7.2675 3.2076-14.5196 3.1921-21.8181 0z" fill="none" stroke="#1f1a17" stroke-width=".4317"/><path d="m110.929 73.9183c4.3544-1.875 7.6121-4.9229 10.3549-8.456l.1085 4.5558 2.7737.5423c-4.3698 5.0207-9.499 8.3058-15.3254 10.0569v-1.8596" fill="none" stroke="#1f1a17" stroke-width=".4317"/><path d="m89.08 74.0765c-4.3698-1.875-7.6208-4.9417-10.3481-8.4747l-.1239 4.5557-2.7738.5579c4.3698 5.0052 9.499 8.3058 15.3254 10.0413l-.045-1.9624" fill="none" stroke="#1f1a17" stroke-width=".4317"/><path d="m89.0427 77.9555 2.095 2.8182.0374-2.0314z" fill="#1f1a17"/><path d="m110.953 77.9509-2.061 2.677-.005-1.9166z" fill="#1f1a17"/><path d="m104.202 74.1967-.4441-.3666.3719-.4029c-.31-.248-.6354-.4804-.9608-.6509l-.3409.4804-.7128-.4184.1549-.4958c-.3254-.1085-.6663-.217-1.0537-.3255l-.1704.5424-.7748-.124v-.4648c-.2789 0-.8523-.0155-1.1157.0155v.5423l-.8988.155-.1704-.4804c-.279.093-.5269.2014-.7748.3099l.1549.4649-.6353.3254-.2634-.3874c-.279.1705-.5269.3564-.7593.5424l.2789.3874-.4336.3678" fill="none" stroke="#1f1a17" stroke-width=".4317"/><path d="m93.6544 79.517c.0465.31.1395.7129.248 1.0228l.4804-.186.2324.6354-.3874.2944c.1395.2789.3254.5733.5269.8368l.4493-.248.5114.7283-.3099.3254c.2324.2325.4804.4494.7593.6509l.4029-.4029.7438.4803-.2325.4959c.31.155.6199.2944.9608.4029l.3099-.5888.9917.2479v.6198c.217.0155.4339.031.6509.031.1394 0 .2789 0 .4183-.0155l.0155-.6508.8678-.1395.2324.6199c.4959-.155.7748-.248 1.0538-.3719l-.248-.5579.6354-.3719.4493.4649c.2945-.1705.5424-.3409.7438-.5269l-.3409-.5113.5579-.6199.5578.3409c.2325-.2634.4494-.6043.6199-.8832l-.4494-.4184.3719-.7903.6043.124c.1395-.3254.2389-.6985.2854-1.0239" fill="none" stroke="#1f1a17" stroke-width=".4317"/><path d="m102.394 74.4499c-.6198-.3874-1.3481-.6353-2.1074-.6818v.8236" fill="none" stroke="#1f1a17" stroke-width=".4317"/><path d="m104.533 79.8735c-.5578 1.8595-2.2314 3.2386-4.2303 3.3935v-2.9272" fill="none" stroke="#1f1a17" stroke-width=".4317"/><path d="m95.4017 79.8968c.5424 1.7356 2.1112 3.1068 3.9707 3.3393l.0155-2.9133" fill="none" stroke="#1f1a17" stroke-width=".4317"/><path d="m97.4328 74.4835c.5424-.3409 1.1648-.5915 1.8466-.6844v.7952" fill="none" stroke="#1f1a17" stroke-width=".4317"/><path d="m110.909 72.7913c5.1756-8.3058 6.1912-16.4716 5.2614-24.5139l.7284-.2015c1.3326 10.5217-.5847 19.0825-5.7758 25.7612" fill="none" stroke="#1f1a17" stroke-width=".4317"/><path d="m116.371 50.2299.742-.0465" fill="none" stroke="#1f1a17" stroke-width=".4317"/><path d="m116.464 54.6927.849.0155" fill="none" stroke="#1f1a17" stroke-width=".4317"/><path d="m116.402 56.1028.822.0155" fill="none" stroke="#1f1a17" stroke-width=".4317"/><path d="m116.294 57.6679.806.0465" fill="none" stroke="#1f1a17" stroke-width=".4317"/><path d="m115.597 61.7588.948.1728" fill="none" stroke="#1f1a17" stroke-width=".4317"/><path d="m113.97 66.9034.888.543" fill="none" stroke="#1f1a17" stroke-width=".4317"/><path d="m113.055 68.9799.856.503" fill="none" stroke="#1f1a17" stroke-width=".4317"/><path d="m112.321 72.1882-.681-.5634" fill="none" stroke="#1f1a17" stroke-width=".4317"/><path d="m116.166 48.2774c-.7438-1.0228-1.499-1.813-2.2583-2.5723.7748.5423 1.5496.8677 2.5724 2.4483" fill="none" stroke="#1f1a17" stroke-width=".4317"/><path d="m116.356 47.983c.5269-1.4412 1.2397-2.3244 2.0145-3.0837-.5734.9607-1.1491 2.0216-1.49 3.1683" fill="none" stroke="#1f1a17" stroke-width=".4317"/><path d="m116.077 47.5491c.3719-1.1312.8832-2.2004 1.4721-3.3007-.2325.6974-.4959 1.6408-.5114 2.2917" fill="none" stroke="#1f1a17" stroke-width=".4317"/><path d="m115.705 47.1152c-.2635-.9763-.6973-1.875-1.1932-2.7583.7128.7748 1.3058 1.5514 1.8017 2.5276" fill="none" stroke="#1f1a17" stroke-width=".4317"/><path d="m116 46.3249-.047-2.9907.58 2.999" fill="none" stroke="#1f1a17" stroke-width=".4317"/><path d="m111.196 64.7185c.9762 1.6271 1.3791 3.688 1.5341 6.1209l-.9143.3874c-.0465-1.7356-.3099-3.4401-.8988-5.1757z" fill="#07a971" stroke="#1f1a17" stroke-width=".4317"/><path d="m99.8993 70.452c-.4649-1.1622-1.0227-1.6736-2.4794-1.6581l-5.1911-.0155c-3.0062 0-3.502-1.968-3.502-3.626 0 .6663.2479 2.8977 3.533 2.8822h5.3926c1.3171-.3099 2.2469 1.4876 2.2469 2.0145.3099-1.2707.9917-2.03 2.1539-2.0145h6.1364c1.3016 0 2.5258-1.5651 2.5413-3.0992v-19.3853h.2014l.3564.1705v19.2303c.0155 1.5961-.9452 3.688-3.3935 3.6726h-5.7955c-1.1002-.0155-1.8285.9762-2.2004 1.8285z" fill="#1f1a17"/><g stroke="#1f1a17"><path d="m114.698 65.1679c1.4876-1.6581 3.0062-3.2852 4.8038-4.5868.4493-.2169.7593-.155.7283.5114.0155 1.2861-.124 2.4948-.3255 3.657-.0929-.9763-.2014-1.9215-.3873-2.7273l-4.1219 4.1219z" fill="#07a971" stroke-width=".4317"/><path d="m119.314 62.2237.558-.5269" fill="none" stroke-width=".4317"/><path d="m112.327 57.7454c.1394-1.3792.2169-2.8978 1.1157-4.0445.9452-.8213 2.2665 3.4401 3.4752 5.9504l-.9143.0775c-.6508-1.751-1.9721-5.0671-2.3285-4.7572-.6508.4339-.9607 1.72-1.3481 2.7738z" fill="#07a971" stroke-width=".4317"/><path d="m117.224 57.3425c.9297-1.0848 1.844-2.1695 2.7737-3.2542.4649-.1239.8678-.1239.8213.6973l-.4804 4.2769-.5268-3.5486-2.7893 3.8275z" fill="#07a971" stroke-width=".4317"/><path d="m119.703 55.6689.527-.7593" fill="none" stroke-width=".4317"/><path d="m114.955 64.0015c-.7283-1.6735-1.3261-5.5588-2.1629-4.815-1.1931.9452-.6198 3.1611-.9142 4.8502.3254-1.3327.6818-2.4639 1.1157-2.8978.5423 1.2397 1.0382 2.6653 1.5496 4.1839" fill="none" stroke-width=".4317"/><path d="m112.978 61.0925-.279-.4959" fill="none" stroke-width=".4317"/><path d="m116.511 53.0501c.8987-1.782 1.813-3.564 2.7427-5.3616.4184-.3099.8523-.7128 1.3172.2635.0465 1.7045-.1395 3.0217-.4804 4.0909-.0155-1.2242-.062-2.4484-.5888-3.3161l-2.1695 4.7727z" fill="#07a971" stroke-width=".4317"/><path d="m119.409 48.9234.449-1.0537" fill="none" stroke-width=".4317"/><path d="m116.421 51.3288c-.8523-1.1002-1.6151-2.0907-2.4674-3.2064-.4803-.3874-.7748-.1085-.9762.4804.0465 1.3326-.0775 2.3554-.3564 3.1456.5269-.4958.9762-1.1776 1.2552-2.2314l2.6074 4.0241" fill="none" stroke-width=".4317"/><path d="m113.865 49.4958-.341-.4803" fill="none" stroke-width=".4317"/><path d="m113.505 70.2505c1.3326-.4339 2.5723-.5268 3.7809-.4339" fill="none" stroke-width=".4317"/><path d="m112.807 71.3907c1.1467-.4649 2.4525-.7528 3.6147-.8303" fill="none" stroke-width=".4317"/><path d="m101.356 80.2763-1.037.6194" fill="none" stroke-width=".4317"/><path d="m103.346 80.0962-2.208 1.411" fill="none" stroke-width=".4317"/><path d="m99.3888 81.3141-2.1393 1.0542" fill="none" stroke-width=".4317"/><path d="m99.3897 82.259-1.3232.6336" fill="none" stroke-width=".4317"/><path d="m95.6069 83.1121-2.6807 1.0378" fill="none" stroke-width=".4317"/><path d="m97.2342 83.6078-3.6189 1.5113" fill="none" stroke-width=".4317"/><path d="m94.7547 83.4685.3873.9762" fill="none" stroke-width=".4317"/><path d="m98.2722 81.8414.5114.6973" fill="none" stroke-width=".4317"/><path d="m101.108 80.3848.542.8523" fill="none" stroke-width=".4317"/><path d="m93.1896 84.1193c.4339 0 .7748.248.7748.5579 0 .2944-.3409.5423-.7748.5423-.4184 0-.7593-.2479-.7593-.5423 0-.3099.3409-.5579.7593-.5579z" fill="none" stroke-width=".4622"/><path d="m105.54 83.8404c.3719 0 .6663.2169.6663.4804 0 .2634-.2944.4803-.6663.4803s-.6818-.2169-.6818-.4803c0-.2635.3099-.4804.6818-.4804z" fill="none" stroke-width=".4088"/><path d="m97.623 80.2009 1.6744 1.1597" fill="none" stroke-width=".4317"/><path d="m100.302 81.9189 1.503.9608" fill="none" stroke-width=".4317"/><path d="m103.479 83.7881 1.725.9506" fill="none" stroke-width=".4317"/><path d="m100.306 81.0297 2.383 1.3696" fill="none" stroke-width=".4317"/><path d="m104.083 83.2053 1.638.6506" fill="none" stroke-width=".4317"/><path d="m89.7899 72.3493-.6912-.7506c.0464-.9918.6818-1.5341.6973-2.4639-.0775-.7748-.7903-1.72-1.0847-2.3863-.4959.4648-.6199 1.72-.5269 2.4173.031.6663.4959 1.3946.5734 2.061-.9298-1.2087-1.832-2.6601-2.6688-4.1942" fill="none" stroke-width=".4317"/><path d="m85.3022 65.5708-.3409-.6199c.3409-.8367 1.2861-.9917 1.689-1.844.4029-1.1002.0775-2.2779.1085-3.4401-.6199.5734-1.1932 1.2087-1.6116 2.0455-.2944.8833-.093 2.1229-.4029 2.6963-.4494-1.0537-.7438-2.061-.9917-3.0682.4029-.9298 1.2242-1.3791 1.72-2.3709.4804-1.1002-.062-2.1074-.0775-3.1766-.8677.6818-1.3791 1.5341-1.596 2.5413-.2325.8523.1704 1.6116-.2015 2.3554-.6198-2.2934-.6973-4.5713-.5578-6.8647.7438-.5888 1.4876-.6198 2.3244-1.5651.6353-.4959.6508-2.3244 1.5031-3.1147-1.0073.3719-1.968.8523-2.9598 1.937-.4183.4959-.5113 1.6271-.9452 2.061.0775-1.2707.2479-2.5104.4959-3.75.8987-.0775 1.8285-.3409 2.6033-.9298.6508-.6043.8987-1.8285 1.2396-2.9907-.8367.1395-1.782.8678-2.4328 1.6271-.5579.6818-.7128 1.2706-1.2087 1.813" fill="none" stroke-width=".4317"/><path d="m83.0802 62.5c-.7748-.279-1.7295-.4623-2.3493-.8652-.7283-.6198-1.2707-1.6271-1.2862-3.4091.6199.6508 1.3482 1.1777 2.2314 1.5031.3874.217.9143 1.0073 1.5341 2.2004-.2789-1.4256-.5423-2.8667-.6818-4.3698-.7748-.7438-1.7665-.8213-2.4638-1.4721-.6354-.6973-1.1312-1.5496-1.3637-2.8048.9298.1085 1.7666.4339 2.4949 1.0848.4803.6198.8987 1.5185 1.3016 2.4018l-.031-2.6498c-.8213-.7438-2.0299-1.1622-2.2779-1.844-.3719-.8833-.5268-1.844-.4184-2.8822.5889.2789 1.1312.6198 1.5341 1.3326.4959.8213.8678 1.7356 1.2242 2.6498.093-1.7975.2944-3.3781.6044-4.8037-.5424-.6198-1.3327-1.1002-1.7821-1.844-.3409-.6044-.2479-1.7665-.0775-2.8048.4649.4804.8988.9763 1.3017 1.7201.5114.8522.5424 1.813.8213 2.6653.031-.7903.031-1.4721.3099-2.3089.6818-1.2087 1.4101-1.3792 1.751-2.5103.3254 1.0227.3564 2.0144.0465 2.9597" fill="none" stroke-width=".4317"/><path d="m83.8611 64.0832c.3099 1.2086.7747 2.1694 1.4101 3.3006-.7903-.6353-1.4411-1.3637-2.2624-1.7201-1.0072-.2789-1.7201.279-2.7118-.3409.4649 1.1467 1.1932 1.9835 2.2159 2.4639.8833.3099 2.2314.2944 3.3471.4494.9298 1.5495 2.0213 3.013 3.2145 4.2836" fill="none" stroke-width=".4317"/><path d="m84.4344 71.4437c1.4411-.2789 2.7464-.3727 3.7537.0767" fill="none" stroke-width=".4317"/><path d="m88.5269 71.9225c-.5424.5268-1.1483.9778-1.6287 1.0708" fill="none" stroke-width=".4317"/><path d="m88.9626 72.4199c-.3409.0465-.915.3478-1.6123.8127" fill="none" stroke-width=".4317"/><path d="m88.2782 73.7337.7895-.3685" fill="none" stroke-width=".4317"/><path d="m88.4013 70.0336c-.3409-.6663-.6043-.8368-.9452-1.5031-.2324-.6044.1859-1.6736.5114-2.9287.1704.4493.3692.9804.5397 1.4143" fill="none" stroke-width=".4317"/><path d="m81.9086 67.4148c-.2944.0155-.5889.0465-.8833.062.6198.7283 1.1312 1.6115 1.999 1.7355 1.0537.2479 1.906-.5424 2.8667-.8213" fill="none" stroke-width=".4317"/><path d="m86.888 61.8181c.4959-.1394.878-.4157 1.3894-.9116.1239 1.5186.062 2.2934-.2789 2.6033-1.0228.8988-1.8233.6569-2.9855 1.3387" fill="none" stroke-width=".4317"/><path d="m84.3724 60.4106c.8058-.3254 1.5961-.4029 2.4639-1.3636.3409-.6663.5113-1.751.7128-2.8202-.8678.3099-1.5538.8444-1.8792 1.4022" fill="none" stroke-width=".4317"/><path d="m79.9406 60.6431c-.5114.0155-1.0382.0465-1.5651.0775.9298.3099 1.2087.8832 2.3244 1.6425.5269.3719 1.1932.2789 1.8595.2325" fill="none" stroke-width=".4317"/><path d="m79.512 55.3771c-.7128-.1704-1.4309-.1731-2.2677-.0336.7593.7128 1.3792 1.6271 2.6498 2.0764.8678.1705 1.7458.093 2.6136.124" fill="none" stroke-width=".4317"/><path d="m80.7275 49.9864c-.124-.5114-.0586-.9342.0654-1.4766.6198.7128 1.2396 1.4101 1.3636 2.0765.1059.7593.2177 1.7549.2729 2.5142" fill="none" stroke-width=".4317"/><path d="m82.3167 45.2134c.3564-.5733.5061-1.2749.3357-1.9722.5578.6663 1.0072 1.4256 1.2861 2.3399" fill="none" stroke-width=".4317"/><path d="m86.2164 65.0284c.6044 0 1.0847.4494 1.0847.9917 0 .5579-.4803 1.0073-1.0847 1.0073-.5888 0-1.0847-.4494-1.0847-1.0073 0-.5423.4959-.9917 1.0847-.9917z" fill="#fff500" stroke-width=".3936"/><path d="m82.9468 62.4871c.6043 0 1.0847.4494 1.0847.9917 0 .5579-.4804 1.0073-1.0847 1.0073-.5888 0-1.0847-.4494-1.0847-1.0073 0-.5423.4959-.9917 1.0847-.9917z" fill="#fff500" stroke-width=".3936"/><path d="m83.7526 56.0253c.5888 0 1.0847.4494 1.0847 1.0072 0 .5424-.4959.9918-1.0847.9918-.6044 0-1.0847-.4494-1.0847-.9918 0-.5578.4803-1.0072 1.0847-1.0072z" fill="#fff500" stroke-width=".3936"/><path d="m86.6968 65.5243c.2324.4184.1705.7748-.1859 1.0847" fill="none" stroke-width=".4317"/><path d="m83.4272 62.983c.2324.4338.1704.7902-.186 1.1002" fill="none" stroke-width=".4317"/><path d="m84.233 56.5677c.2324.4184.1704.7903-.186 1.0847" fill="none" stroke-width=".4317"/></g><path d="m84.047 48.9592.6973-.5889.1705-.8057-.0155.6508.4184-.4649.1859-.9607.031.6353.3099-.4339.062-.4959.062.3874.7128-.7128-.8368 1.1467.5889-.2169-.6509.4184-.6508.7438.9298-.4804-1.1312.6973z" fill="#1f1a17"/><path d="m83.8301 47.766.3099-.7438v-1.0537l.1239.7748.2325-.3874.1549-.8988v.6818s.6509-1.0537.6664-1.5805c.0155-.5114-.0144.9478-.248 1.0692.1198-.0577.2945-.1395.2945-.1395l-.7129 1.0072.6819-.3719-.8058.6199s-.6199.8213-.6973 1.0227z" fill="#1f1a17"/><path d="m83.1637 46.6348-.1239-1.0847-.3254-.6043c-.0155 0 .3254.3564.3254.3564s.0155-.7283-.0155-1.0073c-.031-.2789.1085.8523.1085.8523s.2324-.3099.2324-.3099l-.186.4959.031.6508s.3254-.3564.2945-.6198c-.031-.2635.1394.4338-.186.8212.3254-.3874-.155.4494-.155.4494z" fill="#1f1a17"/><path d="m82.9933 48.1379-1.2707-1.751.3874.3564c-.0155 0-.1704-.7748-.1704-.7748s-.4184-.3564-.4029-.3564c-.0155 0 .3564.124.3564.124s-.2634-.8213-.2634-.8213.4493.9452.4493.9452.124-.3719.124-.3719-.062.7438-.062.7438.093.4494.093.4494.124.3719.124.3719.0464-1.0537.0464-1.0537.093 1.1467.093 1.1467z" fill="#1f1a17"/><path d="m83.2722 53.2361.6508-.7438.0465-.9298.1085.7283.2169-.4339.186-.8058.0465.6044.9762-1.2552-.4804.7748.4184-.155-.5733.3564-.3254.5579.7748-.4339-.9143.7283z" fill="#1f1a17"/><path d="m82.265 53.5305-.7438-1.0382-.2944-1.2862c-.0155 0 .0464 1.0692.0464 1.0692s-.4648-.6818-.4648-.6818 0-1.0692.0155-1.0692c-.0155 0-.1395.8058-.124.8058-.0155 0-.3874-1.1157-.3719-1.1157-.0155 0 .155.8832.1705.8832-.0155 0-.5269-.3564-.5114-.3564-.0155 0 .5733.6353.5888.6353-.0155 0 .2945.6974.2945.6974s-.4649-.217-.4649-.217 1.0537.7903 1.0537.7903z" fill="#1f1a17"/><path d="m81.9086 51.2836-.093-.9298-.0775.248c-.0155 0-.6818-1.1157-.6818-1.1157z" fill="#1f1a17"/><path d="m82.234 56.9396-.6818-.5269-.7438-.155c-.0155 0 .5578.031.5578.031s-.4958-.3874-.4958-.3874-.9143-.4493-.9143-.4493.6043.1549.6198.1549c-.0155 0-1.2086-1.4566-1.2086-1.4566s.9607.8523.9762.8523c-.0155 0-.0775-.8678-.0775-.8678s.2634 1.1002.2634 1.1002.7438.7283.7593.7283c-.0155 0-.1859-1.1622-.1859-1.1622 0-.0155.4649 1.3792.4649 1.3792s.6818.8058.6663.7593z" fill="#1f1a17"/><path d="m81.0517 56.6828-.3604-.0311-.978.0223c-.0154.0014.7666-.1284.7666-.1284s-.5013-.2211-.4858-.2225c-.0155.0014-.978.0223-.9625.021-.0155.0013.5981-.0983.6135-.0997-.0154.0014-1.0917-.5744-1.0763-.5758-.0154.0014 1.228.5316 1.2434.5303-.0154.0013-.4715-.597-.4715-.597s.7715.6488.7715.6488z" fill="#1f1a17"/><path d="m82.8383 61.9447-.7438-.6818-.3719-.8987c-.0155 0 .062.7747.062.7747s-.4184-.3099-.4184-.3099-.2479-.8522-.2324-.8522c-.0155 0 .0465.7283.062.7283-.0155 0-.9143-1.0693-.8988-1.0693-.0155 0 .3254.5889.3409.5889-.0155 0-.5578-.186-.5423-.186-.0155 0 .9607.6974.9607.6974s-.6663-.031-.6663-.031.9142.2634.9142.2634.7748.4649.7903.4649c-.0155 0-.9762-.0465-.9607-.0465-.0155 0 1.1622.2789 1.1622.2789z" fill="#1f1a17"/><path d="m84.0005 60.4881.4339-.8213.8988-.8987-.7748.6043.1704-.5733.6509-.7593-.5424.3719.093-.5579.3099-.7903-.4804.9453-.2169.8832-.279-.3719.1705.7438s-.4184 1.2242-.4339 1.2242z" fill="#1f1a17"/><path d="m85.2825 59.3475 1.2087-.7903-.8058.3719.2479-.3254.8678-.6199-.6199.248.6819-1.1002-.6509.8987-.062-.5733-.0619.7438-.155-.3874v.6043z" fill="#1f1a17"/><path d="m85.3022 63.9747.5888-.9762.7283-.9453-.7283.7593.1085-.5424.5423-.9452-.4183.5888.3874-1.4256-.6354 1.7046-.3254-.4959.2634.7438-.0774.4804-.1705.2789-.2169-.8833s.1704 1.2242-.0465 1.6581z" fill="#1f1a17"/><path d="m86.5883 63.9282.3874-.5269.9608-.7283-.8368.4804.8833-1.0072-.6974.6508.6044-1.1777-.6818 1.1002s-.6199 1.0382-.6199 1.2087z" fill="#1f1a17"/><path d="m84.8683 67.6007-1.1002-.6043-.4649-.6973c-.0155 0 .2789.7438.2789.7438s-.5888-.1085-.5733-.1085c-.0155 0-.4959-.6818-.4804-.6818-.0155 0 .2789.5888.2789.5888s-.5113-.1859-.5113-.1859-.3409-.4804-.3254-.4804c-.0155 0 .1704.4649.1859.4649-.0155 0-.9607-.5424-.9607-.5424s1.3171.8368 1.3326.8368c-.0155 0-.4649.093-.4649.093s1.4257.1394 1.4412.1394c-.0155 0-.8523.1395-.8523.1395s1.751-.0775 2.2159.2944z" fill="#1f1a17"/><path d="m84.5274 68.4685h-.7593l-.3564-.2944c-.0155 0 .1239.2324.1239.2324s-.4493-.062-.4338-.062c-.0155 0-.4184-.3409-.4184-.3409s.2169.3254.2324.3254c-.0155 0-.8988-.3254-.8988-.3254s.7748.4029.7903.4029c-.0155 0-.5113.031-.4958.031-.0155 0 1.2551.124 1.2551.124s-.5423.3099-.5423.3099z" fill="#1f1a17"/><path d="m87.9365 71.9086-.7283.1549-1.0228-.1549s.6509.2169.6664.2014c-.0155.0155-.8833.2015-.8833.186 0 .0155 1.1157-.0155 1.1312-.031-.0155.0155-.4804.4494-.4804.4339 0 .0155.7593-.4494.7593-.4494s.5734-.3719.5579-.3409z" fill="#1f1a17"/><path d="m88.6958 67.7712.2324 1.0227-.4029-.4649s.3874.6509.3874.6354c0 .0155-.3564.0155-.3409 0-.0155.0155.3564.3719.3564.3719s.062 1.4721.062 1.4566c0 .0155.124-1.2087.124-1.2087s.3254-.6818.3254-.6973c0 .0155-.3564.4339-.3564.4339s.2479-1.0073.2479-1.0073-.2789.3719-.2789.3719z" fill="#1f1a17"/><path d="m82.4827 47.9606c-1.0545.539-.5242 1.8086.4158 1.7579" fill="none" stroke="#1f1a17" stroke-width=".4317"/><path d="m82.4044 48.4168c-.1549.279-.1549.5579.1085.8678" fill="none" stroke="#1f1a17" stroke-width=".4317"/><path d="m85.0852 50.0284c-.1394-.3099-.4339-.5423-.7593-.5423-.4493 0-.8367.4338-.8367.9607 0 .2944.1394.5578.3254.7438" fill="none" stroke="#1f1a17" stroke-width=".4317"/><path d="m84.2949 49.8734c-.2169.1395-.3564.31-.4029.5734" fill="none" stroke="#1f1a17" stroke-width=".4317"/><path d="m81.398 53.3721c-.3823.028-.6332.1814-.7681.6079" fill="none" stroke="#1f1a17" stroke-width=".4317"/><path d="m82.4793 54.5282c-.1939.387-.4469.5674-.7722.6293" fill="none" stroke="#1f1a17" stroke-width=".4317"/><path d="m82.1255 54.1038c-.0775.2325-.2014.4029-.4494.4959" fill="none" stroke="#1f1a17" stroke-width=".4317"/><path d="m87.0687 70.142c-.093.4494-.5114.7748-.9917.7748-.5579 0-1.0228-.4338-1.0228-.9607s.4029-.9607 1.0228-.9607c.0774 0 .1704.0154.2479.0309" fill="none" stroke="#1f1a17" stroke-width=".4317"/><path d="m85.4261 70.0491c.3409.4184.7438.5733 1.2397.1704" fill="none" stroke="#1f1a17" stroke-width=".4317"/><path d="m91.2681 74.047c.3099.093.6198.186.9142.2634v1.1157 1.1002c.4184.1085.8368.2015 1.2552.2945v.6663c-.7128-.155-1.4411-.3409-2.1694-.5579 0-.4803 0-.9607 0-1.4411s0-.9607 0-1.4411zm2.5723.6663c.3099.062.6198.124.9297.1705v1.4256 1.4411c-.3099-.062-.6198-.1085-.9297-.1704 0-.4804 0-.9608 0-1.4412 0-.4648 0-.9452 0-1.4256zm2.5723.4029c.0775.3099.1705.6044.2479.9143.0775.2944.155.6043.2325.9142.093-.2944.1704-.5733.2479-.8677.0775-.279.1705-.5734.248-.8678.3719.031.7438.0465 1.1002.0775v1.4256 1.4256c-.2635-.031-.5424-.031-.8213-.0465 0-.1859 0-.3409 0-.5268 0-.1705.0155-.3254.0155-.4494 0-.1395 0-.2479 0-.3409.0155-.186.031-.3409.0465-.5269-.093.3099-.1705.6044-.2635.8988-.0774.2944-.1704.6043-.2479.9142-.2169-.031-.4184-.0465-.6198-.0774-.093-.31-.1705-.6199-.2635-.9453-.0929-.3099-.1704-.6353-.2634-.9452 0 0 0 0-.0155 0 .0155.1394.0465.2789.062.4183v.3255.4803.6199c-.2634-.031-.5269-.0775-.8058-.1085 0-.4649 0-.9453 0-1.4256 0-.4804 0-.9608 0-1.4256.3719.0464.7283.0929 1.1002.1394zm2.5878.186c.7593.0155 1.5186.0155 2.2779-.0155v.6663c-.4494.0155-.9142.0155-1.3636.0155v.4184c.3874 0 .7593 0 1.1467-.0155v.6663c-.3874.0155-.7593.0155-1.1467.0155v.4494c.4803-.0155.9452-.0155 1.4101-.031v.6663c-.7748.0155-1.5496.0155-2.3244.0155 0-.4804 0-.9607 0-1.4256 0-.4804 0-.9608 0-1.4256zm2.8048-.031c.2944-.031.6043-.0465.9142-.0775v1.4411 1.4256c-.3099.0155-.6198.031-.9142.0465 0-.4649 0-.9452 0-1.4101 0-.4804 0-.9607 0-1.4256zm2.3708.4339v.5578c.124-.0155.248-.031.3719-.0465.279-.031.4029-.1549.4029-.3409 0-.062-.031-.1549-.0929-.1859-.062-.031-.155-.0465-.2635-.0465-.1239.031-.2789.0465-.4184.062zm-.9142-.5424c.4339-.062.8987-.124 1.3326-.1704.4804-.0775.8058-.062.9763.0464.1549.1085.2479.2945.2479.5579 0 .1859-.062.3564-.155.4959-.0774.1084-.1859.2169-.3409.2789.186.031.31.1085.3719.1704.062.0775.124.248.124.5114v.2169c0 .186.0155.279.0775.248v.1085c-.3099.0464-.6044.1084-.9143.1549-.031-.093-.0465-.2169-.0465-.3874 0-.1704-.031-.2944-.031-.3874-.0154-.062-.0774-.1394-.1394-.1394-.093-.031-.2634 0-.4649.0154-.0465 0-.0775.0155-.124.0155v.4959.5114c-.3099.031-.6198.062-.9297.093.0155-.4804 0-.9453 0-1.4257.0155-.4648 0-.9452.0155-1.4101zm3.812-.6663c.3099-.0775.6198-.155.9297-.2479.1705.4338.3409.8677.4959 1.3016.1704.4184.3409.8523.5114 1.2862-.3255.0929-.6354.1859-.9298.2789-.0465-.124-.0775-.2325-.093-.3564-.3099.0775-.6198.1549-.9142.2169-.031.155-.0775.279-.1085.4184-.2944.062-.6043.1395-.8833.2015.155-.5114.3254-1.0383.4959-1.5496.155-.4959.3254-1.0228.4959-1.5496zm.1704 1.844c.186-.0465.3719-.1085.5734-.1395-.0465-.1704-.1085-.3254-.155-.4803-.0465-.155-.093-.31-.1395-.4804-.0464.1859-.0929.3719-.1394.5578-.0465.1705-.093.3564-.1395.5424z" fill="#fff"/><path d="m79.8631 73.3497 1.0227-1.5496-.5423-.3564.2169-.3099c.3719.2789.6664.2944.8678.031l.3719.2324-1.4876 2.2624zm1.4566.2169c.0155-.031.031-.0774.062-.1394.186-.248.4339-.3564.7283-.3099-.1239-.2015-.1239-.4184 0-.6354.0155 0 .0465-.031.062-.062.1085-.1394.2634-.2169.4649-.2324.2014-.031.4029.031.6198.1705.217.1549.3564.3254.3874.5423.0465.186 0 .3564-.1085.5269-.1394.1859-.3254.2789-.5268.2479.1549.2479.124.4959-.0465.7593-.031.0465-.062.093-.0775.1085-.1394.1704-.3099.2634-.5113.2944-.2015.031-.4339-.031-.6509-.1705-.2324-.1394-.3874-.3254-.4494-.5268-.0619-.217-.0464-.4029.0465-.5734zm1.2862-.3254c.093.062.1859.1085.2789.093.093-.031.155-.0775.217-.155.0619-.0774.0774-.1704.0619-.2634-.0309-.093-.0619-.155-.1549-.2169-.0775-.0465-.155-.062-.248-.062-.0774.0155-.1394.062-.2014.1239-.062.062-.093.1395-.0775.2325-.0155.093.031.1704.124.2479zm-.7438.4804c-.0775.1085-.093.2169-.093.3099.0155.093.062.1705.1395.2324.0775.0775.2014.1085.3099.1085.1085-.0155.2169-.0775.2944-.2014.062-.1085.093-.2015.0775-.3099-.031-.1085-.093-.2015-.2015-.2635-.0929-.062-.1859-.0775-.2789-.062-.093.031-.1859.093-.2479.186zm.8523 1.5186c.1394-.2325.2944-.3564.4803-.4184.1705-.0775.3874-.124.6354-.1395.2169-.0155.3874-.0155.5113-.0155.093-.0155.2015-.0464.279-.0929.0774-.031.1549-.093.2169-.1705.0465-.062.062-.1704.062-.2634s-.0465-.186-.1705-.2634c-.0775-.0465-.1549-.0775-.2169-.0775-.062.0155-.124.0155-.1705.062-.062.0464-.1084.0929-.1394.1239-.0155.031-.062.062-.0775.1085l-.4184-.2944c.1395-.217.3254-.3719.5424-.4494.2169-.0775.4648-.031.6973.124.1394.0929.2634.2169.3409.3254.093.1394.1239.2944.1239.4339-.0155.1549-.0464.3254-.1394.4803-.1395.186-.2944.2944-.4649.3564-.2014.0465-.4494.062-.7283.062s-.4649.031-.5424.0775l.9608.6508-.2634.3874zm2.6807-.1705c.4339-.5423.8988-.6818 1.4102-.3719.1859.124.3099.2635.3409.4184.0775.186.062.3874-.0465.6044l-.4494-.2945c.0465-.0464.062-.0929.062-.1239-.0155-.062-.0155-.093-.0465-.155-.031-.031-.0775-.0775-.124-.1085-.0774-.0464-.1549-.0619-.2169-.0619-.093 0-.1705.0464-.2634.1239-.093.0775-.2015.186-.2945.3254.155-.0464.341-.031.5269.0775.2015.124.3254.3099.3719.5424.031.2324-.0155.4494-.1395.6353-.0929.1395-.2014.2479-.3254.3409-.1394.093-.2944.124-.4493.1395-.1705 0-.341-.0465-.5114-.155-.5269-.3409-.5424-.9142-.0465-1.6425.031-.062.0775-.1085.1085-.155.0465-.062.0775-.124.0929-.1395zm-.0309.9763c-.062.1239-.0775.2479-.062.3409.031.1085.0929.1859.1859.2479.0775.062.186.062.2944.0465.093-.0465.186-.124.279-.2479.0774-.124.1239-.248.1084-.3409-.031-.1085-.0774-.2015-.1704-.2635-.124-.0929-.2325-.0929-.3564-.0465-.124.062-.2015.1395-.2789.2635z" fill="#fff"/><path d="m114.698 76.5418-1.0382-1.5341-.5423.372-.217-.31c.4029-.2479.5269-.5268.3564-.8058l.3719-.2479 1.5031 2.2314zm.7438-1.2396c-.031-.0465-.0619-.062-.1084-.1085-.1705-.2789-.1705-.5424-.0155-.8058-.2325.0465-.4339-.0465-.5734-.2479 0-.0155-.0155-.0465-.0465-.0775-.0774-.155-.0929-.3254-.031-.5269.0465-.1859.186-.3564.4029-.4958.217-.1395.4339-.2015.6354-.155.2014.031.3409.1395.4648.3099.1085.2015.124.4029.031.5889.279-.062.4959.062.6664.3099.0464.0465.0619.1085.0929.124.093.2014.1085.3874.062.5888-.0465.186-.1859.3719-.3874.5269-.2479.1704-.4804.2324-.6818.2169-.2169-.0155-.3874-.1085-.5114-.2479zm.186-1.3327c.093-.0465.1704-.1239.1859-.2169s0-.1705-.0464-.248c-.062-.0929-.124-.1394-.217-.1549s-.1704 0-.2634.062c-.062.0465-.124.1084-.155.1859-.0155.0775 0 .155.031.248.0465.0774.1085.1239.2015.1549.0774.031.1704.031.2634-.031zm.1704.8833c.0775.1085.155.1704.248.2014.093.0155.1859 0 .2634-.0465.093-.0464.1705-.1394.2169-.2324.031-.124.0155-.2324-.0774-.3564-.062-.1085-.1395-.155-.248-.1859-.1239-.0155-.2169 0-.3254.0774-.093.062-.1394.1395-.1549.248-.0155.0929.0155.1859.0774.2944zm.8523-1.5806c-.3564-.5888-.2789-1.0692.186-1.4256.1859-.124.3564-.186.5113-.1705.2015.0155.3874.1085.5424.2945l-.4339.2789c-.031-.0465-.062-.0775-.1085-.093-.0465 0-.0929-.0155-.1394 0-.0465 0-.1085.0155-.155.062-.062.0465-.1085.1085-.1395.1859-.0309.0775-.0154.155.0155.279.0465.1084.093.2479.186.3874l.0155.0155c0-.1705.093-.3255.2634-.4494.186-.155.4029-.2015.6353-.155.2325.062.4029.186.5424.3874.093.124.1395.2789.186.4184.0309.155.0155.3254-.031.4649-.0775.1549-.1705.2944-.3564.4184-.5114.3409-1.0383.1549-1.5496-.5889-.0155-.0465-.062-.1084-.093-.1549-.0465-.062-.0775-.1085-.093-.1395zm.8988.4184c.0775.093.1859.1705.2789.186.1085 0 .2014-.0155.2944-.0775.0775-.062.1395-.1395.155-.248 0-.1084-.0465-.2169-.1085-.3564-.093-.1239-.1859-.2169-.2944-.2324-.1085-.031-.2015-.0155-.3099.0465-.124.093-.1705.1859-.1705.3254.0155.124.062.2479.155.3564zm1.2551-.9143.4184-.2789c.1085.1395.2015.217.3099.2325.093.0155.2015-.0155.2945-.0775.0929-.062.1394-.1395.1704-.2325.0155-.0929 0-.2014-.062-.3099-.0774-.1239-.1704-.2014-.2944-.2014-.1085 0-.2479.062-.4184.1704l-.031.0155-.2169-.3099c.2944-.1704.3874-.3564.2944-.5423-.062-.1085-.1394-.186-.2479-.2015-.0775-.031-.1705-.0155-.2634.031-.093.062-.155.155-.1705.2479-.0155.1085.0155.217.1085.3254l-.4184.279c-.124-.186-.186-.3874-.1705-.6199.031-.2324.1705-.4184.4184-.5888.1705-.1085.3254-.1705.4959-.186.1394 0 .2944.0465.4029.1085.1239.0775.2014.2015.2789.3254.0775.1705.062.3409-.0155.5114.1395-.031.2789-.031.3874.031.124.0775.2169.1704.3099.2944.124.186.155.4029.124.6198-.0465.248-.2015.4494-.4649.6199-.1859.1239-.3564.1549-.5268.1704-.155 0-.2945-.0465-.4029-.1239-.124-.0775-.2325-.186-.31-.31z" fill="#fff"/><path d="m91.4695 78.4788.3409-1.0227.7283.2634-.0619.1705-.5114-.1705-.0775.2325.4339.1549-.0465.1705-.4494-.155-.1549.4339zm.8523.2944.2789-1.0227.7593.2015-.0465.1859-.5578-.1549-.0465.2169.4959.1395-.0465.1859-.5114-.1395-.0775.2635.5889.1704-.0465.1705zm1.0072-1.1621-.2634.1549-.155-.0465.2015-.1704zm.3564 1.5495.217-1.0537.2169.031-.0775.4029.4184.093.093-.4029.2015.0465-.217 1.0537-.2169-.031.0929-.4804-.4183-.0929-.093.4648zm1.1157-.2634c.0155-.124.0465-.2324.093-.3099.0465-.093.124-.1395.2015-.186.0929-.0464.2014-.0464.3254-.0309.062.0154.1239.0309.1704.0619.062.031.1085.0775.1395.124.0465.062.0775.124.093.2014.0155.0775.0155.1705 0 .2635-.031.1239-.062.2169-.124.2944-.0465.062-.124.124-.2169.155-.0775.031-.1705.031-.2635.0155-.1084-.0155-.2014-.062-.2634-.1085-.062-.062-.124-.124-.1395-.217-.0155-.0774-.0465-.1704-.0155-.2634zm.2325-.0465c-.031.062-.031.1395-.0155.2015 0 .0465.031.1084.062.1704.0465.031.0929.0775.1704.0775.062.0155.124 0 .1705-.031.0465-.0155.093-.062.1084-.1085.0465-.0619.062-.1084.062-.1549.0465-.2634-.031-.4184-.2169-.4339-.0465-.0155-.093-.0155-.1395 0s-.093.031-.1084.093c-.0465.0465-.0775.1084-.093.1859zm.8523.7128.1394-1.0692.2325.0155.3409.8058.0929-.7438.2015.0155-.1395 1.0847-.2169-.031-.3409-.8058h-.0155l-.093.7438zm1.0847.1395.0774-1.0692.5424.031c.1085.0155.1859.0465.2479.1084.0465.062.0775.1395.0775.217-.0155.062-.031.124-.062.1704-.031.031-.0775.0775-.1394.0775.0619.031.1084.062.1084.093.0155.0465.0155.093.0155.1705v.0309c0 .0155 0 .0465-.0155.062.0155.031.0155.0775.0155.1085 0 .0155.0155.031.031.0465v.031l-.2479-.031c-.0155-.0155-.0155-.0465-.0155-.062 0-.031 0-.0465 0-.062 0-.031 0-.0465 0-.0775s0-.0464 0-.0619c.0155-.062 0-.093-.0155-.124-.0155-.0155-.062-.031-.1395-.031l-.2479-.0155-.0155.4184zm.2634-.5888.2789.0309c.1085 0 .1705-.0464.1705-.1394 0-.031-.0155-.0775-.031-.1085-.0155-.0155-.062-.0465-.124-.0465l-.2789-.0155zm.7593.6818.3874-1.0692h.2634l.3719 1.0847-.2479-.0155-.0775-.217h-.3874l-.0775.217zm.5114-.8213-.1395.4184h.2789zm1.0692.8523-.031-1.0847.8058-.0155v.1859l-.5734.0155v.2324l.5269-.0155v.186l-.5269.0155v.2789l.6044-.0155v.186zm1.6425-.062-.062-.8833-.3254.031-.0155-.2014.8833-.062.0155.2014-.3254.0155.062.8833zm.6818-.0465-.1084-1.0692.5423-.062c.093-.0155.2015.0155.248.062.062.062.1084.1239.1239.2014 0 .062-.0155.124-.031.1705s-.0774.0775-.1239.1085c.062.0154.1084.0309.1239.0619.031.0465.031.1085.0465.155v.062.0465c.0155.0465.0155.0774.031.0929 0 .031.0155.0465.0465.0465v.031l-.2479.031c-.0155-.031-.0155-.062-.031-.0775 0-.031-.0155-.0465-.0155-.062 0-.0154 0-.0464 0-.0774 0-.0155-.0155-.0465-.0155-.062 0-.0465-.0155-.0775-.031-.1085-.031-.0155-.0775-.0155-.1395-.0155l-.2479.0155.0465.4184zm.155-.6353.2789-.0155c.1085-.0155.155-.0775.1395-.1705 0-.0465-.0155-.0775-.0465-.093-.0155-.031-.062-.031-.124-.031l-.2789.031zm.8368.5423.2169-1.1312.2635-.031.5268 1.0228-.2479.0309-.093-.2014-.3874.0465-.062.2324zm.3719-.8987-.0775.4338.2944-.0309-.2014-.4029zm1.2552.6508-.4804.0775-.186-1.0538.5114-.0929c.1085-.0155.1859-.0155.2479.031.062.031.1085.0929.124.1549s.0155.1085 0 .155-.0465.093-.0775.1084c.0465 0 .1085.0465.1395.0775.031.062.062.1085.062.1705.0155.1859-.093.3254-.3409.3719zm-.4184-.8368.031.2324.2789-.0464c.0465-.0155.0775-.031.093-.062.0309-.0155.0309-.0465.0309-.0775-.0154-.0465-.0309-.0775-.0464-.093-.031 0-.0775 0-.1395 0zm.1084.6973.2945-.0465c.0929-.0155.1394-.0774.1239-.1859 0-.0155-.0155-.062-.031-.0775s-.0465-.0155-.062-.0155c-.0309-.0155-.0464-.0155-.0774 0l-.2945.031zm.8213.062.1395-1.1467.2634-.0465.5889.9763-.248.0465-.1085-.2015-.3874.0775-.0154.2324zm.3254-.9297-.062.4493.279-.062zm.8213.6818-.2479-1.0537.2169-.0465.2015.8522.5268-.1239.031.2014zm.8833-.217-.279-1.0382.2015-.062.124.3874.4183-.093-.1239-.4028.2169-.062.279 1.0382-.2015.062-.1395-.4649-.4029.1085.124.4648zm.8987-.7438c-.0465-.1239-.0619-.2169-.0465-.3254 0-.093.0465-.1704.1085-.2479.0465-.0775.1395-.1395.2634-.1705.062-.0155.124-.0155.186-.0155s.1395.0155.1859.0465c.062.031.124.0775.1705.1395.0465.0775.0775.1549.1085.2479.031.1085.0465.2015.0155.3099-.0155.0775-.0465.1705-.124.2325-.0465.062-.124.1084-.2324.1394-.093.031-.2015.031-.279 0-.0929-.0155-.1704-.062-.2169-.1239-.062-.062-.1085-.1395-.1395-.2325zm.186-.1394c.0155.0774.0465.1394.0775.1859.0465.0465.0774.0775.1394.124.0465.0155.1085.0155.186 0 .062-.0155.1084-.0465.1394-.1085.031-.031.0465-.093.0465-.1395.0155-.0619 0-.1239-.0155-.1704-.062-.2479-.1859-.3564-.3874-.2944-.0465 0-.0774.0155-.1239.062-.0155.0309-.062.0774-.062.1239-.0155.062-.0155.1395 0 .217z" fill="#fff"/><path d="m88.8042 65.3538h8.1354c.4339-.9452 1.0692-1.4876 2.2624-1.782.1394-.9453.1549-1.906.1239-2.8667-.4493 0-.7748-.124-.9452-.3409-.4029.2169-.8368.2634-1.3172-.031-.5578.2634-.9297.1549-1.2241-.1395-1.1002.062-1.4721-.3564-1.1157-1.2862-.248-.5733-.124-.9297.4029-1.1157-.4184-.9452.1859-.8367.5578-1.0382-.0775-.5578.2169-.8523.8988-.9297.0465-.4184.4184-.6199.9297-.7283.3254-.3255.7283-.4959 1.3792-.3564.4648-.279.9142-.3565 1.4101-.0465.6043-.217.9917-.031 1.2861.2944.6354.0155.9763.2789 1.1467.7128.5114-.0155.8523.2169.9298.8058.6353.2169.7128.6198.7128 1.0382.4494.186.6818.5114.5268 1.1157.5269 1.0847.2325 1.6736-1.1776 1.5496-.4649.2944-.8988.2479-1.3327.0465-.4029.3409-.8523.3564-1.3171.031-.2015.2324-.4494.4339-.8523.4339-.1395.8522-.1001 1.8085.0393 2.8622 1.1157.2014 1.8512.8103 2.2076 1.74h8.3902" fill="none" stroke="#1f1a17" stroke-width=".4317"/></svg>