<svg enable-background="new -0.3779297 -0.3779297 301 301" height="301" viewBox="-.3779297 -.3779297 301 301" width="301" xmlns="http://www.w3.org/2000/svg"><path d="m39.089355 128.78516c15.970732 48.52286 40.846765 90.10137 40.846765 90.10137l28.07438 31.6281 22.03306 18.47934 19.95351 11.49626 23.75723-13.98386 30.20661-28.42975 24.67386-32.16667 17.97077-34.64325 9.95041-29.1405 6.75207-19.90082-226.3719-1.06612z" fill="#fff" stroke="#fff"/><g clip-rule="evenodd" fill-rule="evenodd"><path d="m0 0h300v300h-300z" fill="#fff" opacity="0"/><path d="m90.739258 128.78516v103.62207l-19.373535-23.50684v-80.11523z" fill="#fe1108" transform="matrix(1 0 0 1.0761576 0 -17.699588)"/><path d="m137.46484 128.78516v146.63769l-20.51367-15.0039v-131.63379z" fill="#fe1108" transform="matrix(1 0 0 1.0322256 0 -8.875661)"/><path d="m183.0498 128.78516v130.63379l-20.51367 16.50585v-147.13964z" fill="#fe1108" transform="matrix(1 0 0 1.0292276 0 -8.064612)"/><path d="m228.63477 128.78516v78.11523l-19.37207 26.00879v-104.12402z" fill="#fe1108" transform="matrix(1 0 0 1.038081 0 -8.869418)"/><path d="m27.9526367 39.4331055c42.5961914 18.9643555 83.1640625 10.0737305 122.0483398-21.8964844 36.6601563 32.6108398 77.0332031 40.375 121.1191406 23.2929688 1.0449219 27.9990234-3.0546875 57.472168-10.671875 87.9555664h-221.3588866c-7.7734375-29.1049805-10.7895508-59.0058594-11.1367188-89.3520508z" fill="#fe1108"/><path d="m149.9257813 41.7612305c22.1943359 0 40.296875 18.1030273 40.296875 40.2988281s-18.1025391 40.2973633-40.296875 40.2973633c-22.1962891 0-40.2988281-18.1015625-40.2988281-40.2973633s18.102539-40.2988281 40.2988281-40.2988281z" fill="#fff"/><path d="m146.3540039 63.2817383h19.0288086c-.2519531 4.4594727-1.8632813 8.1245117-4.8183594 10.9892578-2.9541016 2.8642578-6.5898438 4.296875-10.8925781 4.296875-4.4145508 0-8.1132813-1.5439453-11.0898438-4.6210938-2.9770508-3.0830078-4.4702148-6.9165039-4.4702148-11.4819336 0-2.1430664.4082031-4.1791992 1.2197266-6.0981445.8110352-1.918457 2.003418-3.6538086 3.5693359-5.1977539 1.5107422-1.4995117 3.1894531-2.6137695 5.0249023-3.3408203 1.8354492-.7275391 3.8833008-1.0966797 6.1264648-1.0966797 2.9663086 0 5.6333008.722168 7.9956055 2.1542969 2.3603516 1.4379883 4.2636719 3.4912109 5.6953125 6.1547852h-3.6982422c-1.4433594-1.8349609-2.9941406-3.1948242-4.6386719-4.0678711-1.6445313-.878418-3.4902344-1.3198242-5.5219727-1.3198242-3.519043 0-6.5009766 1.2583008-8.9301758 3.7758789-2.4277344 2.5180664-3.6474609 5.5449219-3.6474609 9.0756836 0 3.7539063 1.2143555 6.887207 3.6362305 9.394043 2.4233398 2.5063477 5.4223633 3.765625 8.980957 3.765625 2.8027344 0 5.3193359-.8950195 7.5361328-2.6855469 2.2216797-1.7905273 3.6767578-4.1235352 4.3476563-6.9829102h-15.4589844z" fill="#fe1108"/><path d="m175.8623047 88.4892578c-1.3769531-1.9033203-2.9150391-3.3076172-4.609375-4.2026367-1.6962891-.8950195-3.6308594-1.3481445-5.8027344-1.3481445-3.4082031 0-6.3232422 1.2646484-8.7402344 3.7822266-2.4160156 2.5239258-3.625 5.5268555-3.625 9.0024414 0 3.6977539 1.203125 6.8203125 3.6025391 9.3549805 2.40625 2.5341797 5.3271484 3.8046875 8.7626953 3.8046875 2.1152344 0 4.0283203-.4418945 5.734375-1.3203125 1.7128906-.8842773 3.2001953-2.2050781 4.4648438-3.9555664h3.5751953c-1.3984375 2.6069336-3.2832031 4.6269531-5.6347656 6.0483398-2.3535156 1.4208984-5 2.1313477-7.9335938 2.1313477-4.4970703 0-8.2509766-1.5385742-11.2558594-4.6044922-3.0058594-3.0664063-4.5107422-6.9047852-4.5107422-11.4985352 0-2.1430664.4091797-4.1791992 1.2143555-6.0976563.8110352-1.9199219 2.0083008-3.6542969 3.5756836-5.1992188 1.4550781-1.4545898 3.0996094-2.5561523 4.9121094-3.3061523 1.8134766-.7504883 3.7832031-1.1303711 5.8974609-1.1303711 3.0439453 0 5.7851563.7441406 8.2138672 2.2275391 2.4287109 1.487793 4.3583984 3.5913086 5.7734375 6.3115234z" fill="#fe1108"/><path d="m124.5297852 111.1767578v-30.6171875h15.118164v3.0048828h-12.152832v10.7260742h12.152832v3.0268555h-12.152832v13.859375z" fill="#fe1108"/></g><path d="m45.503418 48.4853516c-4.847168-1.2841797-9.7167969-2.9038086-14.6010742-4.8623047 1.4257813 78.1791992 23.2080078 142.0810547 63.7128906 189.4257813 7.9814453 9.3291016 16.7202148 18.0380859 26.2011719 26.1083984 9.1025391 7.7490234 18.8330078 14.8642578 29.1806641 21.3330078 55.2050781-34.5009766 92.0292969-86.6757813 108.7861328-154.1875 3.2910156-13.2543945 5.8095703-27.1196289 7.5449219-41.5776367 1.5869141-13.2124023 2.5136719-26.9189453 2.7724609-41.1049805-30.4423828 12.2026367-60.2929688 11.3300781-88.2060547-2.2348633-5.6308594-2.7368164-11.1826172-5.9936523-16.6484375-9.7675781-4.8369141-3.3408203-9.5888672-7.0737305-14.2475586-11.1958008-26.6113282 23.5546875-55.8310547 34.1333008-86.2451172 31.3261719-6.0629883-.5595703-12.1508789-1.6459961-18.25-3.2626953zm-16.2368164-11.3359375c.0292969.0136719.0800781.0356445.0986328.0439453l-.0014648.0024414c5.8569336 2.5449219 11.6933594 4.5854492 17.4985352 6.1245117 5.8476563 1.5493164 11.6420898 2.5874023 17.3730469 3.1157227 29.5498047 2.7270508 58.0205078-7.9384766 83.9667969-31.581543l1.7773438-1.6191406 1.6894531 1.5014648c.0029297.0024414.0048828.0039063.0078125.0063477l.0439453.0395508.0576172.0512695c.0048828.0039063.0039063.0039063-.0009766 0v.0009766l.0253906.0234375c5.0820313 4.6303711 10.2451172 8.7548828 15.4765625 12.3676758 5.2275391 3.6103516 10.5439453 6.7275391 15.9384766 9.3496094 27.6279297 13.4267578 57.2919922 13.7519531 87.5488281.5639648l3.78125-1.6484375-.0380859 4.1157227c0 .0288086-.0009766.0571289-.0009766.0859375-.1474609 15.7724609-1.1083984 30.9995117-2.8681641 45.659668-1.7578125 14.6430664-4.3183594 28.7246094-7.6699219 42.2250977-17.2460938 69.4829102-55.3554688 123.074707-112.5683594 158.3237305l-1.4013672.8632813-1.4013672-.8632813-.0600586-.0361328c-11.1616211-6.8818359-21.5634766-14.4296875-31.1943359-22.6289063-9.6455078-8.2099609-18.5786133-17.1230469-26.7875977-26.7158203-42.043457-49.1445313-64.3188477-115.5986328-65.065918-196.9135742l-.0385742-4.1904297z" fill="#fe1108"/></svg>