<svg enable-background="new 0 0 488 518" height="325.802917" viewBox="0 0 488 518" width="306.934023" xmlns="http://www.w3.org/2000/svg"><g clip-rule="evenodd" fill-rule="evenodd"><path d="m243.468 517.922c16.542-24.814 30.327-41.945 53.957-41.945h68.926c42.733 0 92.557-48.053 92.557-90.98v-331.236c0-8.271 0-15.164 11.028-15.755 22.252-1.574 26.782-38.006-11.029-38.006h-430.881c-37.81 0-33.083 36.432-11.028 38.006 11.028.591 11.028 7.68 11.028 15.755v331.235c0 42.732 50.021 90.98 92.557 90.98h68.926c23.633.001 37.613 17.131 53.959 41.946z"/><path d="m433.503 384.996-.197-359.593h-381.254v357.769c0 27.373 27.571 54.943 52.187 63.607 31.507 11.225 70.502.051 104.175 7.732 14.965 5.514 23.238 12.209 34.461 22.842 14.968-15.951 31.312-24.813 53.171-25.4h68.926c29.934 0 68.531-35.055 68.531-66.957z" fill="#ff0"/><path d="m85.136 419.012c4.728 3.746 10.241 8.078 15.951 11.227 36.63 16.938 80.347-1.326 118.158 13.441 8.272 4.137 16.149 8.861 23.238 14.77 14.177-12.207 29.539-18.51 48.444-20.482 25.404-.982 52.776 1.973 77.788-.588 24.418-3.744 48.639-28.359 51.003-53.172v-345.216h-354.078v343.786c.788 14.572 9.848 25.601 19.496 36.234z"/><path d="m144.806 425.365c9.453-.197 18.906-.785 28.556-1.18v-221.152h-46.673v221.35c5.908.588 11.816.982 18.117.982zm75.62-222.332v226.467c8.47 2.563 17.134 6.502 22.057 11.422 8.466-5.514 16.936-9.252 25.403-11.814v-226.075zm94.526 0v220.954c14.376.199 28.949.984 43.914.199.788-.199 1.773-.199 2.757-.199v-220.954zm91.178-14.768-.197-135.685h-326.113v135.685z" fill="#fff"/><path d="m405.933 188.265v-135.685h-326.113v135.685z" fill="#f00"/><path d="m254.494 66.167 3.35.395 3.148.984 2.954 1.183 2.562 1.574 2.364 1.772 2.166 1.969 1.969 2.363 1.77 2.364 1.381 2.561 1.181 2.756.985 2.954.786 2.758.395 3.149.393 2.954v2.954l-.195 3.152-.395 2.954-.59 2.953-.788 2.954-.987 2.758-1.378 2.756-1.377 2.561-1.771 2.362-1.972 2.364-2.166 1.969-2.361 1.773-2.562 1.575-2.954 1.182-2.954.984-3.149.592-3.35.196h-26.188v38.007h5.906v2.955h-5.906-20.877-5.513v-2.955h5.513v-99.252l-9.453-4.726h9.453 47.065z"/><path d="m116.448 116.384h25.404v20.875h-25.404v32.69h5.909v2.955h-32.296v-2.955h5.513v-99.252l-9.453-4.923c27.963 0 56.124-.198 84.089-.198l10.436 33.084h-23.63l-4.333-12.21h-36.235z"/><path d="m330.115 116.384h25.404v20.875h-25.404v32.69h5.909v2.955h-32.299v-2.955h5.517v-99.252l-9.453-4.923c28.16 0 56.123-.198 84.284-.198l10.24 33.084h-23.63l-4.333-12.21h-36.235z"/><path d="m160.362 153.21 2.166.788 2.167 1.182 1.773 1.378 1.379 1.97 1.18 1.969.788 2.363.198 2.559-.198 2.364-.788 2.166-1.18 2.167-1.379 1.771-1.773 1.379-2.167 1.182-2.166.788-2.361.196-2.562-.196-2.36-.788-1.972-1.182-1.968-1.379-1.378-1.771-1.184-2.167-.785-2.166-.198-2.364.198-2.559.785-2.363 1.184-1.969 1.378-1.97 1.968-1.378 1.972-1.182 2.36-.788 2.562-.196z"/><path d="m262.766 153.21 2.167.788 2.166 1.182 1.773 1.378 1.378 1.97 1.181 1.969.59 2.363.396 2.559-.396 2.364-.59 2.166-1.181 2.167-1.378 1.771-1.773 1.379-2.166 1.182-2.167.788-2.364.196-2.558-.196-2.365-.788-1.968-1.182-1.969-1.379-1.381-1.771-1.181-2.167-.788-2.166-.197-2.364.197-2.559.788-2.363 1.181-1.969 1.381-1.97 1.771-1.378 2.166-1.182 2.365-.788 2.558-.196z"/><path d="m375.016 153.21 2.166.788 2.167 1.182 1.772 1.378 1.379 1.97 1.181 1.969.59 2.363.395 2.559-.395 2.364-.59 2.166-1.181 2.167-1.379 1.771-1.971 1.379-1.968 1.182-2.166.788-2.559.196-2.364-.196-2.364-.788-2.166-1.182-1.774-1.379-1.378-1.771-1.181-2.167-.788-2.166-.197-2.364.197-2.559.788-2.363.986-1.969 1.573-1.97 1.774-1.378 2.166-1.182 2.364-.788 2.364-.196z"/><g fill="#ff0"><path d="m250.755 68.137c37.02 0 34.658 61.443 0 61.443h-28.16v41.158h-16.347v-102.601z"/><path d="m114.084 84.284h39.978l4.529 12.211h18.906l-8.863-28.555h-54.55-14.57-1.774v102.6h16.344v-35.448h25.602v-16.541h-25.602z"/><path d="m327.949 84.284h39.978l4.332 12.211h18.906l-8.863-28.555h-54.353-14.77-1.574v102.6h16.344v-35.448h25.405v-16.541h-25.405z"/><path d="m158.001 155.18c5.315 0 9.647 4.528 9.647 10.239 0 5.318-4.333 9.65-9.647 9.65-5.711 0-10.241-4.332-10.241-9.65.001-5.711 4.531-10.239 10.241-10.239z"/><path d="m260.402 155.18c5.317 0 9.65 4.528 9.65 10.239 0 5.318-4.333 9.65-9.65 9.65-5.711 0-10.241-4.332-10.241-9.65 0-5.711 4.53-10.239 10.241-10.239z"/><path d="m372.457 155.18c5.513 0 9.845 4.528 9.845 10.239 0 5.318-4.332 9.65-9.845 9.65-5.516 0-10.046-4.332-10.046-9.65 0-5.711 4.53-10.239 10.046-10.239z"/></g><path d="m246.026 84.482c22.253 0 14.376 29.736.396 29.736h-23.632v-29.736z"/><path d="m224.956 86.648v25.404h21.269l2.166-.394 1.968-.788 1.774-1.182 1.575-1.574 1.379-1.97 1.181-2.166.788-2.364.59-2.559v-2.364l-.198-2.362-.591-1.97-1.18-1.773-1.575-1.574-1.969-1.182-2.757-.788-3.547-.394z" fill="#f00"/></g></svg>