<svg clip-rule="evenodd" fill-rule="evenodd" height="133.333mm" image-rendering="optimizeQuality" shape-rendering="geometricPrecision" text-rendering="geometricPrecision" viewBox="0 0 200 133.333" width="200mm" xmlns="http://www.w3.org/2000/svg"><path d="m0-.000075h200v133.333h-200z" fill="none" stroke="#373435" stroke-width=".2"/><path d="m0-.000101h200v40h-200z" fill="#1a7a5d"/><path d="m0 93.333h200v40h-200z" fill="#1a7a5d"/><path d="m0 46.6665h200v40h-200z" fill="#d9c527"/><circle cx="100" cy="66.6665" fill="#d9c527" r="37.5" stroke="#fefefe" stroke-width=".75"/><circle cx="100" cy="66.6665" fill="#fefefe" r="32"/><path d="m106.351 59.8873c.0179.1321.0406.2638.0681.3947h-.1923v-.3947z" fill="#d5d6e6"/><path d="m99.1243 83.1686v-.3946h.3947v-1.1837h.3946v-.3947h-.7893v-.7891h.3947v-.7892h-.7892v-.3947h.3945v-.3945h.3947v-.3946h-.7892v.3946h-.3946v-.7892h.3946v-.3946h-.3946v-.7892h.3946v-.3946h.3945v-.7893h-.3945v.3947h-.3946v-.7892h.3946v-.3946h.3945v-.3946h-.7891v-.3946h.3946v-.7892h-.3946v-.7892h.3946v-.3946h-.3946v-.7892h.3946v-.7892h-.7892v-.7892h-.3946v-1.973h-.3945v-1.5783h.3945v-.7893h-.7892v-1.1837h-.3946v1.5783h.3946v4.7352h-.7892v5.1297h-.3946v1.9731h-.3945v1.973h-.3947v.3946h.3947v.7891h-.3947v.7893h-.3946v.7892h.3946v.7891z" fill="#52383f"/><path d="m107.923 73.6982h-.1172v.7893h-.3946v.7892h-.3946v-.3946h-.3947v.3946h-.7891v.3945h1.1838v.3947h.7892v.7892h.3748l.0197-.0918v-1.4866h.3703c.0079-.0331.0158-.0661.0243-.099v-.1297c-.0409-.0774-.0798-.1555-.117-.2342-.1249-.2357-.2317-.4783-.3204-.7261-.0832-.1263-.1615-.2562-.2345-.3895z" fill="#525866"/><path d="m84.1297 70.1469v-.7892h.3946v-1.5784h1.1838v.7892h.7892v1.5784h.3945v.3946h-2.3675v.7892h1.5784v.3947h.3946v.7891h.3945v.7892h-.3945v-.3946h-1.1839v.3946h-.3946v1.1838h.3946v-.3946h1.1839v.3946h.3945v.3946h.3946v.3946h-1.5783v.3945h-.3947v.7893h.3947v-.3946h.7892v.3946h.3945v.3946h.3946v.3945h.3947v1.5785h-.3947v.7892h.7893v.7892h.3945v-.3946h.7892v-.3946h-.3946v-.7892h-.3946v-3.1569h-.3945v-1.1837h.3945v-.3946h1.5785v.3946h.3945v1.973h.7892v-2.7623h-.3946v-.3945h-.3946v-.3946h-1.5784v-.3946h.3946v-.3946h1.1838v.3946h.7892v.3946h.7892v-.3946h-.3945v-.3946h-.3947v-.3945h-.7892v-.3947h-1.1838v.3947h-.7892v.3945h-.3945v-1.973h1.973v-.7892h-1.1839v-.7892h.7893v-.3945h-1.5784v.3945h-.7893v-.3945h-.3946v-.3947h-.3945v-.3946h-.3946v-.7892h-1.5784v.3946h-.3946v.7892h-.3946v2.3676z" fill="#4f6d70"/><path d="m96.7568 58.7036h.3947v2.7621h-1.973v.3946h-.7893v.3947h.3946v.3946h-1.1837v.3945h.3945v.3946h.7892v.3946h.7892v.7893h-.3945v1.1837h.3945v1.1838h.3946v-.7891h.3946v3.5513h.3946v-3.946h-.3946v-1.5783h.3946v1.1837h1.973v.3946h.3945v.3947h.7893v-.3947h-.3946v-.3946h-.3947v-.3946h-.3945v-.3945h.7892v-.3946h-.7892v-.3947h-.3946v-.3946h.7891v-.3946h.7893v-.3945h3.9464v-.3946h-.395v-2.3677h-.395v-.3946h-.789v.3946h-.394v.7893h-.395v.7891h-.395v.3946h-.789v.3947h-.789v.3946h-1.5784v-.3946h-.3946v-3.1568h.3946v-.7893h.7892v-.3946h.3945v-.3945h.3947v-.3946h.3946v-.3946h.3944v-.3947h-1.1837v.7893h-.3945v-.3946h-.3946v-.3947h-.7892v.7893h-.7892v-.3946h-.3946v1.1837h.3946z" fill="#4f6d70"/><path d="m86.9263 82.774h1.1494v.3946h1.973v.3947h4.3405v-.3947h-.3946v-2.3676h.3946v-.3945h-.3946v-.7892h-.3945v.3946h-.7893v-1.1838h-1.1837v.7892h-.3947v-.3947h-.3946v1.1839h-.3946v-.3946h-.3945v.3946h-.3946v-.3946h-1.1839v.3946h-.3945v-.7892h-1.1839v2.3676h-.3945v.2298c.1564.1792.2993.3661.429.5593z" fill="#34736c"/><path d="m101.887 70.9361v.3946h-.395v.3947h-.395v.7891h-.394v1.1837h.394v-.7891h.395v-.3946h.395v-.3946h1.183v.3946h.395v1.5784h-.395v.7892h-.394v.3946h1.578v.3945h-.394v.3947h.789v-.3947h1.184v-.3945h.789v-.3946h-.789v-.7892h.394v-.7892h.395v.3945h.789v-.3945h-.395v-.3946h-.394v-.7892h-1.579v.3946h-.394v.7892h-.395v-2.3676h.395v-.3946h1.578v.3946h.789v-.3946h-.394v-.7892h-.789v-.3946h-1.184v.3946h-.395v.3946h-.789v-.7892h-.395v1.5784z" fill="#4f6d70"/><path d="m90.8378 79.6173v-.3947h.3946v.3947h.3947v-.7892h1.1837v.3945h.7893v-.3945h-.3947v-.3946h1.1838v-.7892h.3946v.7892h.3947v-.7892h.3945v-1.5784h-1.1838v-.3947h-2.7621v.3947h-.3947v.3946h-.7892v-.3946h-.3945v-.3947h-.3946v-.3945h-.3947v3.1568h.3947v.7891h.3946v-.3945h.3945v.7892z" fill="#b6a777"/><path d="m103.465 79.6173v1.5783h-.395v-.7891h-1.578v-.3946h-.395v.3946h-.394v-.3946h-.395v.7891h-.789v-.3945h-.3947v.7891h.7893v.7893h.3944v-.3946h.395v1.5783h-.395v.3947h3.552v-.3947h2.762v-.3946h-.395v-.7891h-.394v-.3946h-.395v-1.1838h-.395v-1.5784h-.394v.7892h-.395v1.1837h-.394v-1.1837z" fill="#34736c"/><path d="m98.7298 76.8551h-.3946v.7892h.3946v.3946h-.3946v.7892h.3946v-.3946h.7892v.3946h-.3947v.3945h.7893v.3947h1.9734v.3946h.394v-.3946h.789v-2.3677h-.394v-1.1837h-.395v-.3947h-.789v.3947h-.395v-.7892h-.394v1.1838h-.395v.7891h-.3944v.3947h-.3946v-.7892h-.3947v.3945h-.3945z" fill="#b6a777"/><path d="m86.1027 81.3803v-.1847h-.093l.0299.0623c.0216.0406.0426.0814.0631.1224z" fill="#525866"/><path d="m97.9406 65.4117v.3946h.3946v.7892h.3946v.7892h.3945v.7893h.3947v-.3947h.3946v-.7892h.3944v-.3946h.789v.3946h.79v-1.1838h-.79v-.3946h-.789v-.3946h1.579v.3946h.394v-.7891h-1.184v-.3946h-.789v-.3947h.789v-.3946h-1.578v-.3946h-.3947v.3946h-.7891v.3946h.3946v.3947h.7892v.3946h-.7892v.3945h.3945v.3946h.3947v.3946h.3946v.3947h-.7893v-.3947h-.3945v-.3946z" fill="#92adb1"/><path d="m101.097 75.2767v.7892h.395v-.3947h.789v.3947h.395v1.1837h.789v2.3677h.395v1.1837h.394v-1.1837h.395v-.7892h.394v-.3946h.395v-.3946h-.395v-.3946h-.394v-1.1838h.394v-.3946h.395v-.3947h-.789v.3947h-.789v-.3947h.394v-.3945h-1.578v-.3946h-1.184v.3946z" fill="#4b6852"/><path d="m92.8108 65.0171h.7893v.3946h-.3947v.7893h.3947v.3945h.3945v-.3945h.7892v.3945h-.3946v.3946h-.3946v1.1839h.7892v-.3947h.3947v.7892h.3945v-.3945h.3946v-1.1839h-.3946v-1.1838h-.3945v-1.1837h.3945v-.7893h-.7892v-.3946h-.3946v.3946h-1.973v.3947h1.1839v.3946h-.7893z" fill="#8a97a5"/><path d="m89.6541 68.174v.3945h-.7893v.3946h2.3676v.3946h.7892v.3946h1.1838v-.7892h-.3946v-.3946h-.3946v-1.1838h-.3946v-.3946h1.1838v-.3946h.3947v-.3945h-2.3677v.3945h-.3946v.3946h-.3946v1.1839z" fill="#738b91"/><path d="m102.281 59.4927h.789v.3946h.395v2.3677h.395v.3946h-.79v.3945h1.184v.3946h1.184v-1.1837h-.395v-1.973h-.394v-.3947h-.395v-.7891h-.394v-.3946h-.395v-.3947h-.789v.7893h-.395z" fill="#88949b"/><path d="m101.492 70.9361v-1.1838h.395v-.3946h.394v-.3946h.395v-.7891h1.184v-.7893h-.79v-.3946h-1.973v-.3946h-.789v.3946h.395v2.7622h.394v1.1838z" fill="#577b83"/><path d="m89.2594 60.6766v.7891h-.3946v2.3676h.7893v-.3946h.7891v-.3946h-.3945v-.3945h.3945v-.7893h-.3945v-.3946h1.1837v-.3945h-.3946v-.3946h.3946v-.3946h-.3946v-.3947h-.3946v-.3946h-.7891v1.1839z" fill="#8a97a5"/><path d="m93.9946 79.6173v.7892h.3946v.3945h-.3946v2.3676h.3946v.3947h5.9188v-.3947h-5.5242v-.7891h-.3946v-.7892h.3946v-.7893h.3947v-.7891h-.3947v-.3946h.3947v-.7892h-.3947v.3945h-.3946v.3947z" fill="#a39daa"/><path d="m92.0216 61.4657v.3946h.3946v.3947h-.7891v.3946h-.7893v.3945h1.1838v-.3945h.7892v.3945h.7893v-.3945h1.1837v-.3946h-.3946v-.3947h.7893v-.7891h-1.5784v.3945h-.3947v-.7891h-.3946v.7891z" fill="#6f949b"/><path d="m95.573 59.4927h-.3945v.3946h-.3947v1.1839h.3947v.3945h1.973v-2.7621h-.3947v.7891h-.3946v-.7891h-.3946v1.1837h-.3946z" fill="#8a97a5"/><path d="m103.07 77.2496v2.3677h-.789v.3946h-.394v-.3946h-1.9734v-.3947h-1.1838v.3947h.7892v1.1837h.789v-.7891h.395v.3946h.394v-.3946h.395v.3946h1.578v.7891h.395v-3.946z" fill="#918b8f"/><path d="m90.8378 58.3089v.7893h.3946v.3945h.3947v-.3945h1.1837v-.3946h.3946v-1.1838h.3947v.3945h.3945v-1.1837h-1.1838v.3946h-.7892v.3946h-.3945v.3945h-.3947v.3946z" fill="#6f949b"/><path d="m91.6271 59.4927h.3945v.3946h.7892v.3947h.7893v.3946h.3945v.3946h.7892v-.7892h-.3946v-.7893h-.3946v-1.5784h-.3945v-.3945h-.3947v1.1838h-.3946v.3946h-1.1837z" fill="#577b83"/><path d="m89.2594 80.0119h.3947v.3946h.3946v-.3946h.3945v.3946h.3946v-.7892h-.3946v-.7892h-.3945v.3945h-.3946v-.7891h-.3947v-2.3676h-.7892v2.7622h.3946v.7892h.3946z" fill="#a6a5ab"/><path d="m96.3622 57.1252v-.3946h.3946v.3946h.7892v-.7893h.7892v.3947h.3946v.3946h.3945v-.7893h.3947v-.3946h-.7892v-.3945h-3.1568v.3945h.3946v1.1839z" fill="#738b91"/><path d="m105.438 78.4335h1.184v.3946h.789v1.1838h.395v.3946h.261v-1.1839h-.261v-.7891h-.395v-.7892h-.789v-.3947h-1.973v.3947h.394v.3946h.395z" fill="#577b83"/><path d="m93.9946 68.174v-1.1839h.3946v-.3946h.3946v-.3945h-.7892v.3945h-.7892v.3946h-1.1838v.3946h.3946v1.1838h.3946v.3946h.7893v-.7891z" fill="#4f6d70"/><path d="m97.546 60.6766v1.5784h.3946v.3946h1.1837v-.3946h-.3945v-.7893h.3945v-.7891h-.3945v.3946h-.3946v-.7892h.3946v-1.1838h-.3946v.7891h-.3946v.7893z" fill="#8a97a5"/><path d="m97.546 67.7793v-.3946h.3946v.7893h1.1837v-.7893h-.3945v-.7892h-.3946v-.7892h-.3946v-.3946h-.3946v.7893h-.3945v1.5783z" fill="#88949b"/><path d="m90.8378 63.0441v-.3945h.7893v-.3946h.7891v-.3947h-.3946v-.7891h-.3945v-.3946h-.7893v.3946h.3946v.3945h-1.1837v.3946h.3945v.7893h-.3945v.3945z" fill="#4f6d70"/><path d="m101.492 70.9361h.789v-.7892h.789v-.7892h.395v-.7892h.395v-.3945h-1.184v.7891h-.395v.3946h-.394v.3946h-.395z" fill="#6f949b"/><path d="m100.703 75.6712h-.395v.3947h-.3944v-.3947h-.3946v-.3945h-.3947v1.1838h-.3945v.7891h.3945v-.3945h.3947v.7892h.3946v-.3947h.3944v-.7891h.395z" fill="#c7baac"/><path d="m92.8108 79.2226v.7893h.7893v-.3946h.7891v-.3947h.3946v-.3945h.3947v-.3946h-.3947v-.7892h-.3946v.7892h-1.1838v.3946h.3947v.3945z" fill="#b5aa8f"/><path d="m99.1243 83.1686h1.5787v-1.5783h-.395v.3946h-.3944v-.3946h-.3946v1.1837h-.3947z" fill="#375c62"/><path d="m90.0487 69.3577v1.1838h1.1837v-.3946h-.3946v-.3946h-.3946v-.3946z" fill="#738b91"/><path d="m100.308 60.6766h-.3944v.3946h-.3946v.3945h.789v-.3945h.395v-.7892h-.395z" fill="#9697ac"/><path d="m103.07 70.1469h-.789v.7892h.789z" fill="#9bb2c2"/><path d="m98.7298 72.5145h.3945v-.7891h-.7891v.3945h.3946z" fill="#847b88"/><path d="m77.4195 74.4471c-7.1733-4.6918-5.8581-3.7932-6.7595-10.3105l3.9326.0271.0144-5.8899c3.5462-.3259 9.5364-2.6245 6.752-7.9561 3.2949 1.9956 7.9099 3.5766 11.2586 3.4589l1.672-2.1721c.5202.2895 1.0474.2539 1.4099-.425 9.8741 5.956 19.2253 5.0287 26.1624-.3693l4.6781 2.4622c-2.5365 1.9364-3.3982 5.2303-3.3914 9.6936l-4.674 4.2177c-.8996.8639-1.4088.5939-2.2757-.3693l-1.108-1.2311c-.9511-1.0568-1.6836-1.0618-1.9698.2462-.1184.5412-.1648 1.0435-.7386 1.2311-.7454.088-.8999.3909-1.108 1.2311-.0951.7-.7556 1.1089-1.8466.9848-.7652-.087-1.4923.3309-1.108 1.3542.4089 1.0888.5196 2.1339.1231 3.2009-.2101.671.0283.8.6155.3077.3312-.2775.7257-.4141.9334-.0046.332.6544.4332.3333.8409-.4262.8235-1.5342 1.4469-1.4657 1.1507.1238-.3076 1.6508.1367 1.5686 1.1376.1224 1.0594-1.5308 1.9001-1.0893 1.7514 1.3542-.2233 3.669-1.4674 6.7311-2.7084 9.126-.8457 1.632-2.046 2.8424-3.4631 3.6891-.9043.5403-1.9048.9604-3.0061 1.6443-1.6103 1.083-1.6339 1.8051.0439 1.624 1.6143-.1741 1.5665.4016-.3019 1.9343-1.3892 1.1397-2.588 1.1336-3.2725-.4131-.3988-.9013-1.1327-1.2237-2.2159-.9849-1.1958.2637-2.4065-.5757-4.6344-2.2994-2.454-1.8988-3.7836-2.6215-4.4166-2.0442-1.2269.7239-2.269-2.439-3.8198-3.3052-.2276-2.0971-1.1086-3.7122-2.2716-3.9235-2.4509-.4451-4.8822-1.7962-7.2635-4.3088z" fill="none" stroke="#373435" stroke-width=".5"/></svg>