<svg height="300" viewBox="0 0 221.974 300" width="221.97" xmlns="http://www.w3.org/2000/svg"><g fill="#ffca07"><path d="m111.07 299.2c-13.183-10.883-35.715-18.395-56.201-26.814-49.219-20.16-64.006-49.3-47.189-96.11 5.127-14.25 11.14-29.001 11.98-45.778.956-14.506-6.189-29.005-18.843-43.524 9.073-9.802 18.137-19.636 27.2-29.455 31.601 15.304 58.178 7.64 82.961-8.314 24.8 15.954 51.381 23.619 82.974 8.314 9.065 9.819 18.133 19.653 27.203 29.453-12.653 14.519-19.794 29.019-18.839 43.524.837 16.777 6.833 31.528 11.975 45.778 16.804 46.811 2.055 75.951-47.197 96.113-20.48 8.42-42.84 15.93-56.01 26.81" fill="#070606"/><path d="m111.07 300-.39-.332c-10.546-8.703-27.527-15.396-43.951-21.873-3.983-1.574-8.106-3.203-12.089-4.836-49.64-20.335-64.299-50.226-47.528-96.883.547-1.536 1.111-3.076 1.673-4.623 4.685-12.834 9.521-26.108 10.27-40.979.889-13.551-5.219-27.655-18.692-43.108l-.363-.414.375-.41c8.058-8.703 16.113-17.434 24.171-26.166l3.335-3.608.404.193c11.449 5.546 22.465 8.243 33.679 8.243 15.708 0 31.177-5.248 48.678-16.521l.336-.214.327.214c17.524 11.273 32.995 16.521 48.702 16.521 11.215 0 22.23-2.697 33.683-8.243l.406-.193 3.023 3.272c8.159 8.849 16.319 17.688 24.482 26.502l.372.41-.357.409c-13.474 15.453-19.582 29.557-18.687 43.093.742 14.993 5.633 28.349 10.356 41.274.531 1.451 1.061 2.888 1.579 4.343 16.763 46.68 2.099 76.558-47.543 96.883-3.885 1.604-7.898 3.18-11.781 4.717-16.462 6.518-33.484 13.242-44.082 21.992l-.39.34zm-109.43-213.02c13.438 15.558 19.528 29.812 18.631 43.567-.758 15.055-5.629 28.41-10.34 41.335-.565 1.543-1.124 3.082-1.674 4.599-8.405 23.39-8.794 42.225-1.197 57.578 7.556 15.273 23.269 27.625 48.038 37.771 3.975 1.636 8.096 3.256 12.077 4.825 16.312 6.434 33.172 13.09 43.89 21.766 10.77-8.729 27.677-15.411 44.021-21.875 3.881-1.528 7.894-3.113 11.773-4.716 24.785-10.146 40.497-22.489 48.055-37.771 7.587-15.346 7.19-34.178-1.202-57.578-.521-1.427-1.045-2.88-1.574-4.317-4.757-13.005-9.678-26.457-10.438-41.63-.901-13.741 5.188-27.996 18.627-43.553-8.037-8.674-16.073-17.383-24.11-26.098l-2.41-2.605c-11.471 5.5-22.533 8.167-33.802 8.167-15.851 0-31.441-5.255-49.029-16.515-17.585 11.249-33.169 16.504-49.026 16.504-11.269 0-22.328-2.667-33.804-8.167l-2.714 2.936c-7.931 8.59-15.866 17.207-23.804 25.767" fill="#fff"/><path d="m47.45 89.673 1.736 4.882h5.562l-4.5 3.004 1.717 4.871-4.515-3.02-4.51 3.02 1.739-4.871-4.52-3.004h5.583z"/><path d="m67.323 89.673 1.709 4.882h5.567l-4.502 3.004 1.714 4.871-4.488-3.02-4.529 3.02 1.71-4.871-4.499-3.004h5.573z"/><path d="m87.165 89.673 1.709 4.882h5.582l-4.524 3.004 1.725 4.871-4.492-3.02-4.507 3.02 1.702-4.871-4.497-3.004h5.56z"/><path d="m107.01 89.673 1.72 4.882h5.57l-4.5 3.004 1.71 4.871-4.5-3.02-4.52 3.02 1.72-4.871-4.5-3.004h5.58z"/><path d="m151.58 199.22 3.88 10.95h12.57l-10.16 6.77 3.87 10.99-10.16-6.8-10.16 6.8 3.89-10.99-10.17-6.77h12.55z"/><path d="m110.98 0 5.58 15.753h18.06l-14.6 9.724 5.56 15.794-14.6-9.771-14.619 9.771 5.609-15.794-14.622-9.724h18.052z"/><path d="m18.019 184.77 1.393-4.118.457-1.261.494-1.329.487-1.337.486-1.339.496-1.37.502-1.355.489-1.405.499-1.382.501-1.429.51-1.427.479-1.421.497-1.455.475-1.435.451-1.476.46-1.474.473-1.506.447-1.518.402-1.525.424-1.554.396-1.541.388-1.588.365-1.568.352-1.613.322-1.608.307-1.627.257-1.654.24-1.673.26-1.677.18-1.69.165-1.705.14-1.732.104-1.685.054-1.586.02-1.657-.02-1.688-.104-1.658-.138-1.688-.202-1.673-.238-1.63-.312-1.641-.342-1.65-.416-1.613-.456-1.625-.5-1.622-.538-1.614-.619-1.581-.628-1.603-.678-1.569-.73-1.578-.759-1.569-.813-1.554-.84-1.534-.891-1.543-.935-1.503-.951-1.538-.987-1.498-1.023-1.501-1.075-1.494-1.104-1.515-.554-.718.302-.328.841-.925.858-.935 1.71-1.817.841-.942.853-.919 1.712-1.836.831-.92.856-.905 2.549-2.762.853-.92 1.696-1.855.852-.911.836-.924.535-.58 1.808.71 3.26 1.091 3.237 1.005 3.24.839 3.238.716 3.203.588 3.194.455 3.147.313 3.166.202 3.119.065 3.104-.039 3.073-.134 3.031-.297 3.014-.379 2.954-.478 2.938-.605 2.91-.657 2.876-.816 2.83-.852 2.802-.951 2.761-1.023 2.722-1.112 2.697-1.16 2.672-1.252 2.604-1.311 2.606-1.361 2.571-1.42 1.264-.762 1.26.762 2.587 1.42 2.589 1.361 2.629 1.311 2.671 1.252 2.683 1.16 2.706 1.112 2.774 1.023 2.8.95 2.827.852 2.874.816 2.911.657 2.931.605 2.953.478 3.019.379 3.058.297 3.067.134 3.075.039 3.139-.065 3.154-.202 3.164-.313 3.182-.455 3.22-.588 3.22-.716 3.239-.839 3.255-1.005 3.241-1.091 1.811-.71 1.371 1.504.852.911 2.554 2.775.854.911 2.543 2.756.833.92 2.569 2.755.843.942 2.552 2.751.861.925.297.328-.56.718-1.086 1.515-1.064 1.494-1.053 1.501-.974 1.498-.976 1.538-.9 1.521-.891 1.543-.842 1.534-.824 1.554-.739 1.598-.741 1.549-.676 1.569-.654 1.603-.583 1.581-.568 1.614-.483 1.622-.472 1.625-.386 1.613-.37 1.65-.303 1.641-.245 1.63-.199 1.673-.148 1.688-.103 1.658-.022 1.688.022 1.657.082 1.586.078 1.665.145 1.752.164 1.705.227 1.69.195 1.677.261 1.673.274 1.654.306 1.627.306 1.608.361 1.613.366 1.586.375 1.57.396 1.541.418 1.563.428 1.516.424 1.518.453 1.483.485 1.496.448 1.476.479 1.435.498 1.455.494 1.421.491 1.427.5 1.429.494 1.382.496 1.405.483 1.355.519 1.362.476 1.347.502 1.337.479 1.329.45 1.261 1.421 4.118 1.195 3.905 1.026 3.834.85 3.677.665 3.564.505 3.424.302 3.312.146 3.183v3.085l-.168 2.967-.343 2.835-.486 2.752-.646 2.663-.8 2.569-.938 2.483-1.086 2.432-1.282 2.335-1.397 2.315-1.626 2.266-1.734 2.201-1.981 2.165-2.136 2.155-2.321 2.119-2.534 2.045-2.747 2.067-2.935 2.005-3.155 1.991-3.382 1.949-3.578 1.905-3.801 1.885-4.026 1.832-4.301 1.835-1.818.737-1.914.747-1.912.764-1.93.787-1.918.766-1.952.772-1.963.783-1.959.759-1.952.77-1.955.801-1.955.792-1.955.773-1.959.837-1.936.794-1.938.833-1.927.802-1.917.861-1.894.863-1.875.877-1.858.89-1.845.909-1.811.925-1.822.928-1.756.972-1.741 1.007-1.728.988-1.699 1.055-.612.392-.644-.418-1.697-1.028-1.73-1.029-1.743-.966-1.787-.981-1.811-.957-1.835-.896-1.831-.92-1.88-.868-1.87-.877-1.917-.883-1.91-.842-1.937-.826-1.938-.809-1.944-.803-1.966-.828-1.952-.79-1.963-.775-1.978-.801-1.953-.77-1.953-.759-1.961-.783-1.949-.772-1.935-.766-1.941-.787-1.91-.764-1.898-.747-1.833-.737-4.298-1.835-4.011-1.832-3.815-1.885-3.582-1.905-3.358-1.949-3.17-1.991-2.945-2.005-2.727-2.067-2.548-2.045-2.322-2.119-2.152-2.155-1.938-2.165-1.779-2.201-1.589-2.266-1.42-2.315-1.247-2.335-1.124-2.432-.936-2.483-.799-2.569-.646-2.663-.479-2.752-.362-2.835-.144-2.967-.021-3.085.15-3.183.322-3.312.489-3.424.669-3.564.839-3.677 1.03-3.834 1.271-3.91zm171.67-68.1-165.82 116.77.366.579 1.445 2.043 1.629 2.067 1.782 1.972 1.996 1.99 2.168 1.969 2.383 1.958 2.593 1.925 2.807 1.917 3.014 1.883 3.246 1.882 3.44 1.848 3.667 1.813 3.909 1.781 4.217 1.796 1.778.717 1.879.768 1.915.76 1.931.789 1.929.732 1.951.778 1.963.787 1.956.762 1.965.768 1.975.797 1.976.797 1.989.79 1.974.818 1.975.816 1.96.851 1.952.842 1.96.847 1.932.876 1.937.914 1.921.891 1.874.927 1.91.965 1.851.959 1.848.998 1.819 1.021 1.737 1.025 1.698-1.002 1.807-1.026 1.854-1.017 1.843-.959 1.886-.965 1.877-.911 1.909-.906 1.932-.902 1.942-.888 1.931-.847 1.957-.842 1.953-.831 1.969-.813 1.975-.82 1.955-.811 1.97-.797 1.974-.782 1.976-.782 1.972-.762 1.938-.772 1.959-.793 1.936-.732 1.913-.789 1.895-.76 1.894-.768 1.792-.717 4.201-1.796 3.892-1.781 3.71-1.813 3.451-1.848 3.224-1.882 3.016-1.883 2.795-1.917 2.6-1.925 2.368-1.958 2.176-1.969 1.983-1.99 1.812-1.972 1.61-2.067 1.456-2.043 1.296-2.107 1.14-2.144.995-2.17.882-2.274.709-2.336.592-2.42.445-2.53.322-2.658.153-2.759.012-2.855-.161-3.012-.29-3.131-.481-3.271-.631-3.406-.81-3.522-.984-3.71-1.159-3.808-1.397-4.012-.427-1.219-.501-1.332-.478-1.336-.478-1.341-.5-1.367-.513-1.39-.491-1.396-.51-1.387-.49-1.438-.513-1.447-.515-1.456-.473-1.457-.501-1.465-.465-1.53-.494-1.503-.446-1.532-.449-1.547-.445-1.544-.41-1.602-.424-1.589-.395-1.627-.355-1.628-.361-1.667-.349-1.643-.296-1.705-.28-1.713-.272-1.725-.243-1.749-.197-1.747-.171-1.798-.146-1.792-.104-1.732-.076-1.654-.037-1.786.037-1.807.12-1.81.149-1.794.208-1.777.264-1.767.337-1.766.37-1.64zm-168.17 71.5 153.6-108.1-3.37.475-3.355.333-3.322.221-3.309.054-3.303-.011-3.241-.182-3.218-.287-3.178-.403-3.138-.515-3.098-.616-3.06-.722-3.013-.844-2.97-.903-2.919-.985-2.886-1.084-2.857-1.121-2.797-1.249-2.759-1.297-2.725-1.336-2.702-1.42-1.603-.874-1.615.874-2.697 1.42-2.704 1.336-2.762 1.297-2.814 1.249-2.821 1.12-2.901 1.084-2.929.985-2.96.903-3.013.844-3.064.722-3.088.616-3.158.515-3.183.403-3.21.287-3.262.182-3.256.011-3.307-.054-3.334-.221-3.367-.333-3.389-.475-3.371-.644-3.398-.742-3.387-.891-3.431-1.025-2.321-.786-.177.197-1.698 1.828-.855.93-2.545 2.773-.841.92-.847.927-1.704 1.814-.868.942-.837.897-1.539 1.693.906 1.276 1.064 1.559 1.044 1.584.999 1.59.955 1.594.923 1.621.894 1.604.83 1.66.82 1.622.77 1.657.741 1.664.645 1.688.629 1.683.592 1.701.536 1.743.482 1.697.443 1.732.359 1.758.341 1.766.259 1.767.206 1.777.176 1.794.09 1.81.02 1.807-.02 1.786-.083 1.654-.091 1.732-.155 1.828-.166 1.762-.195 1.747-.221 1.749-.267 1.725-.296 1.713-.309 1.705-.332 1.643-.341 1.667-.398 1.628-.384 1.627-.421 1.589-.414 1.577-.451 1.568-.438 1.547-.478 1.532-.453 1.533-.483 1.5-.494 1.465-.484 1.457-.506 1.456-.511 1.447-.488 1.438-.514 1.403-.495 1.379-.502 1.39-.478 1.367-.499 1.341-.491 1.336-.49 1.312-.442 1.239-1.39 4.012-.666 2.24z" fill="#141011"/><path d="m16.691 183.5 1.411-4.108.445-1.258.484-1.341.493-1.33.487-1.352.513-1.381.502-1.346.496-1.381.488-1.428.499-1.416.486-1.408.504-1.416.476-1.46.478-1.459.471-1.46.448-1.473.479-1.533.436-1.502.431-1.527.4-1.521.397-1.564.396-1.579.369-1.591.324-1.581.338-1.631.303-1.626.258-1.634.258-1.68.232-1.675.188-1.697.17-1.718.129-1.699.108-1.722.07-1.573.014-1.667-.014-1.663-.09-1.698-.154-1.643-.198-1.655-.243-1.65-.316-1.661-.355-1.644-.408-1.62-.443-1.631-.51-1.625-.528-1.599-.614-1.599-.638-1.583-.695-1.569-.721-1.572-.768-1.561-.806-1.575-.837-1.544-.896-1.529-.912-1.534-.963-1.53-.998-1.5-1.013-1.497-1.082-1.52-1.1-1.501-.556-.708.309-.333.836-.923.866-.928 1.697-1.832.847-.928.866-.909 1.702-1.843.827-.915.852-.941 2.553-2.732.845-.942 1.709-1.814.844-.945.863-.905.515-.584 1.807.72 3.256 1.106 3.232.983 3.242.834 3.241.714 3.206.586 3.191.438 3.145.314 3.173.213 3.116.084 3.107-.039 3.083-.159 3.026-.263 3.007-.394 2.976-.473 2.93-.606 2.917-.689 2.852-.8 2.854-.856 2.773-.932 2.759-1.04 2.74-1.101 2.689-1.146 2.665-1.287 2.61-1.292 2.602-1.375 2.566-1.417 1.267-.731 1.28.731 2.566 1.417 2.587 1.375 2.632 1.292 2.675 1.287 2.694 1.146 2.722 1.101 2.746 1.04 2.81.932 2.81.856 2.896.8 2.89.689 2.937.606 2.978.473 3.005.394 3.045.263 3.066.159 3.103.039 3.124-.084 3.144-.213 3.165-.314 3.183-.438 3.22-.586 3.231-.714 3.219-.834 3.262-.983 3.244-1.106 1.838-.72 1.356 1.49.84.945 2.551 2.756.846.907 2.551 2.767.85.912 2.565 2.755.842.928 2.546 2.76.855.923.312.333-.559.708-1.099 1.501-1.054 1.52-1.039 1.497-1.001 1.5-.96 1.53-.91 1.534-.904 1.529-.834 1.544-.815 1.575-.753 1.561-.744 1.572-.674 1.562-.643 1.59-.587 1.599-.548 1.599-.519 1.625-.441 1.631-.404 1.62-.363 1.644-.312 1.661-.24 1.65-.213 1.655-.141 1.643-.088 1.698-.02 1.663.02 1.667.088 1.573.085 1.682.133 1.739.17 1.718.19 1.697.228 1.675.233 1.68.307 1.634.281 1.626.338 1.631.341 1.581.37 1.611.377 1.559.396 1.564.399 1.521.437 1.527.423 1.502.47 1.515.468 1.491.467 1.46.469 1.444.491 1.475.485 1.416.491 1.408.511 1.427.509 1.417.492 1.381.484 1.346.51 1.381.466 1.352.515 1.33.471 1.341.449 1.258 1.421 4.108 1.194 3.916 1.043 3.817.826 3.687.676 3.537.492 3.441.313 3.296.16 3.213-.009 3.063-.173 2.96-.352 2.86-.474 2.771-.635 2.639-.802 2.565-.955 2.485-1.097 2.411-1.259 2.331-1.416 2.335-1.612 2.234-1.75 2.254-1.967 2.152-2.129 2.16-2.346 2.09-2.524 2.082-2.736 2.041-2.93 2.03-3.169 1.967-3.374 1.944-3.572 1.915-3.816 1.884-4.028 1.834-4.295 1.826-1.822.742-1.887.767-1.938.762-1.919.757-1.924.78-1.973.779-1.932.772-1.948.749-1.982.795-1.962.777-1.95.804-1.96.79-1.952.801-1.931.816-1.938.82-1.938.841-1.891.831-1.893.862-1.89.894-1.86.87-1.836.925-1.834.92-1.809.936-1.756.943-1.753 1.002-1.715 1.019-1.704 1.045-.633.392-.635-.41-1.672-1.026-1.723-1.039-1.761-.981-1.79-.973-1.792-.933-1.849-.914-1.848-.904-1.849-.892-1.896-.872-1.911-.862-1.899-.831-1.939-.841-1.941-.82-1.953-.816-1.966-.801-1.953-.818-1.961-.775-1.949-.777-1.975-.795-1.963-.749-1.952-.772-1.955-.779-1.935-.78-1.916-.757-1.945-.762-1.87-.767-1.832-.742-4.311-1.826-4.01-1.834-3.794-1.884-3.613-1.915-3.36-1.944-3.163-1.967-2.934-2.03-2.747-2.041-2.523-2.082-2.341-2.09-2.129-2.16-1.975-2.152-1.756-2.254-1.578-2.234-1.437-2.335-1.263-2.331-1.085-2.411-.962-2.485-.808-2.565-.629-2.639-.5-2.771-.326-2.86-.166-2.96-.017-3.063.149-3.213.321-3.296.496-3.441.664-3.537.84-3.687 1.044-3.817 1.151-3.93zm171.68-68.13-165.82 116.79.354.58 1.443 2.042 1.631 2.052 1.788 1.972 2.004 2.021 2.17 1.957 2.373 1.968 2.594 1.92 2.806 1.928 3.005 1.875 3.251 1.868 3.449 1.835 3.681 1.816 3.909 1.795 4.216 1.792 1.772.724 1.858.763 1.929.76 1.919.766 1.937.747 1.949.788 1.962.785 1.963.753 1.96.771 1.986.807 1.989.807 1.953.783 1.984.815 1.981.81 1.949.858 1.96.814 1.949.888 1.937.852 1.941.925 1.932.904 1.876.907 1.895.96 1.862.97 1.846.985 1.811 1.023 1.714 1.04 1.729-1.002 1.792-1.045 1.863-1.002 1.846-.957 1.89-.955 1.886-.925 1.891-.904 1.935-.9 1.927-.876 1.938-.866 1.96-.836 1.949-.832 1.984-.836 1.967-.784 1.974-.814 1.961-.807 1.969-.782 1.965-.796 1.979-.753 1.961-.785 1.935-.788 1.93-.747 1.921-.766 1.9-.76 1.885-.763 1.797-.724 4.191-1.792 3.914-1.795 3.681-1.816 3.469-1.835 3.205-1.868 3.028-1.875 2.807-1.928 2.593-1.92 2.373-1.968 2.18-1.957 1.979-2.021 1.805-1.972 1.631-2.052 1.439-2.042 1.294-2.095 1.132-2.152.998-2.188.881-2.248.733-2.355.569-2.431.445-2.509.318-2.652.172-2.75v-2.88l-.155-3.002-.296-3.142-.464-3.261-.659-3.401-.789-3.536-.977-3.676-1.179-3.817-1.381-4.033-.456-1.223-.484-1.328-.478-1.345-.485-1.34-.491-1.361-.51-1.386-.512-1.38-.498-1.42-.495-1.417-.501-1.431-.5-1.45-.483-1.463-.491-1.488-.479-1.499-.477-1.518-.464-1.525-.456-1.548-.439-1.559-.416-1.594-.43-1.61-.387-1.607-.367-1.658-.346-1.662-.341-1.639-.298-1.697-.291-1.706-.268-1.724-.233-1.742-.208-1.771-.178-1.768-.138-1.801-.104-1.747-.08-1.638-.02-1.816.036-1.797.104-1.792.15-1.821.206-1.757.271-1.77.341-1.749.35-1.66zm-168.18 71.5 153.6-108.07-3.365.474-3.343.331-3.334.203-3.331.091-3.28-.042-3.215-.166-3.239-.292-3.157-.406-3.162-.509-3.092-.619-3.065-.74-2.994-.818-2.967-.888-2.938-1.005-2.895-1.089-2.849-1.157-2.793-1.195-2.765-1.31-2.715-1.353-2.685-1.409-1.631-.889-1.611.889-2.688 1.409-2.711 1.353-2.772 1.31-2.811 1.195-2.828 1.157-2.887 1.089-2.943 1.005-2.951.888-3.013.818-3.066.74-3.085.619-3.162.509-3.175.406-3.223.292-3.24.166-3.257.042-3.321-.091-3.33-.203-3.375-.331-3.37-.474-3.375-.618-3.392-.771-3.409-.883-3.414-1.035-2.315-.789-.195.199-1.691 1.838-.857.93-2.545 2.757-.845.942-.846.889-1.698 1.851-.867.921-.84.915-1.548 1.698.918 1.262 1.06 1.566 1.039 1.571 1.001 1.604.976 1.599.909 1.605.892 1.629.848 1.625.806 1.63.764 1.673.736 1.644.647 1.69.634 1.674.595 1.73.539 1.716.474 1.719.451 1.728.357 1.767.34 1.749.268 1.77.213 1.757.163 1.821.088 1.792.036 1.797-.036 1.816-.078 1.638-.084 1.747-.144 1.801-.192 1.768-.191 1.771-.255 1.742-.229 1.724-.301 1.706-.303 1.697-.336 1.639-.358 1.662-.365 1.658-.384 1.607-.431 1.61-.415 1.56-.441 1.593-.454 1.548-.464 1.525-.478 1.518-.479 1.499-.488 1.488-.487 1.463-.5 1.45-.498 1.431-.506 1.417-.49 1.425-.524 1.375-.474 1.386-.491 1.361-.51 1.348-.495 1.337-.481 1.328-.435 1.223-1.388 4.033-.69 2.19z" fill="#fff"/><path d="m64.791 196.78-5.414 3.771-6.41-3.617-9.888 6.884 2.257 6.554-5.295 3.69-9.15-29.369 5.256-3.671 28.644 15.77zm-16.607-2.55-10.334-6.044 3.616 10.739 6.718-4.7zm.577-21.88 9.854-6.893c1.964-1.366 3.476-2.305 4.568-2.816 1.083-.524 2.199-.792 3.345-.866 1.153-.064 2.302.138 3.46.559 1.163.44 2.133 1.161 2.964 2.128.867 1.074 1.366 2.253 1.478 3.576.098 1.329-.186 2.588-.885 3.759 1.822-.628 3.557-.787 5.158-.366 1.612.399 2.97 1.261 4.045 2.561.854 1.037 1.419 2.214 1.726 3.564.262 1.324.193 2.618-.213 3.801-.44 1.228-1.233 2.368-2.465 3.456-.748.656-2.711 2.093-5.865 4.325l-8.413 5.88-18.757-22.67zm8.106.29 4.34 5.25 3.281-2.275c1.91-1.38 3.104-2.228 3.521-2.608.789-.692 1.225-1.436 1.344-2.203.136-.791-.119-1.573-.73-2.291-.594-.702-1.244-1.111-2.042-1.287-.773-.11-1.611.031-2.533.527-.536.292-1.965 1.268-4.321 2.888l-2.86 1.99zm7.471 9.01 5.016 6.059 4.598-3.22c1.801-1.241 2.902-2.086 3.3-2.522.629-.618.987-1.35 1.067-2.166.062-.816-.22-1.61-.899-2.425-.558-.671-1.211-1.12-1.974-1.317-.758-.247-1.565-.231-2.415.018-.847.275-2.408 1.176-4.669 2.76l-4.024 2.81zm36.772-23.61 5.976-1.964c1.299 2.988 1.584 5.681.878 8.066-.717 2.423-2.411 4.548-5.078 6.38-3.262 2.301-6.805 3.153-10.61 2.567-3.826-.578-7.195-2.651-10.16-6.216-3.125-3.771-4.465-7.447-4.082-11.016.386-3.551 2.32-6.543 5.764-8.975 3.034-2.09 6.133-2.987 9.389-2.659 1.921.186 3.911.993 5.992 2.398l-4.056 4.519c-1.255-.975-2.63-1.48-4.119-1.497-1.478-.049-2.91.403-4.23 1.34-1.811 1.262-2.808 2.923-2.955 4.899-.129 2.01.91 4.369 3.147 7.081 2.396 2.863 4.61 4.505 6.757 4.93 2.142.444 4.091.017 5.888-1.223 1.321-.938 2.147-2.108 2.475-3.568.29-1.43-.04-3.12-.98-5.06m25.55-4.82-18.771-22.659 16.925-11.821 3.178 3.844-11.933 8.33 4.43 5.366 10.303-7.191 3.173 3.837-10.318 7.188 8.019 9.62-5.01 3.48zm17.14-12.02-3.594-4.367 4.737-3.299 3.58 4.356-4.73 3.31zm18.61-25.94 5.982-1.96c1.306 2.991 1.609 5.693.89 8.094-.742 2.37-2.425 4.528-5.078 6.376-3.272 2.275-6.823 3.14-10.635 2.556-3.811-.582-7.188-2.687-10.144-6.205-3.124-3.775-4.485-7.451-4.074-11.026.362-3.572 2.301-6.543 5.757-8.987 3.043-2.074 6.135-2.985 9.378-2.638 1.929.174 3.932.97 5.994 2.398l-4.045 4.498c-1.252-.952-2.623-1.461-4.123-1.477-1.49-.055-2.872.405-4.227 1.332-1.828 1.272-2.804 2.928-2.949 4.924-.133 1.965.906 4.335 3.147 7.038 2.371 2.875 4.629 4.503 6.75 4.932 2.142.435 4.1.033 5.897-1.226 1.304-.927 2.11-2.101 2.437-3.542.3-1.42-.03-3.12-.97-5.07m15.79 1.76-3.606-4.331 4.732-3.304 3.592 4.333-4.71 3.3z" fill="#141011"/></g></svg>