<svg height="524.12885" width="800.25568" xmlns="http://www.w3.org/2000/svg"><path d="m.0625.175743h800.13068v523.89062h-800.13068z" fill="none" stroke="#000" stroke-width=".099567"/><path d="m.61181126 16.140134-.0048214-15.42020925 25.05009614-.21773356 773.983254 335.50478881-.034 187.47767-214.96429.0308z" fill="#f00" stroke="#f00"/><path d="m25.791496.5 773.832724.25333447.01523 334.16513553z" fill="#00911a" stroke="#00911a" stroke-linecap="square"/><path d="m.61562524 17.4647-.00477 506.04309 582.50458476.006z" fill="#ff0" stroke="#ff0"/><path d="m477.27274 419.45456a106.06061 274.24243 0 1 1 -.00024-.5806" fill="#fff" stroke="#fff" stroke-linecap="square" stroke-width="4.038651" transform="matrix(1.2359059 0 0 .47637229 -58.314653 62.426596)"/><g fill-rule="evenodd" transform="matrix(7.2760575 0 0 7.2139687 305.85978 158.42646)"><path d="m15.809 3.29241-7.40274.10253-.44555-1.84587 3.22159-.581104 2.4676.102534 3.29.5811z" fill="#fff500" stroke="#1f1a17" stroke-linecap="round" stroke-linejoin="round" stroke-width=".152891" transform="translate(.490844 -.245422)"/><path d="m7.86178 1.50894.32069-.01487.0149.13391.22375-.06695.00746-.14132.28342-.07441.05217.16364.17153-.02232.01491-.23055.32814.02973" fill="none" stroke="#1f1a17" stroke-linecap="round" stroke-linejoin="round" stroke-width=".152891" transform="translate(.490844 -.245422)"/><path d="m10.2677.988334.3196.029296-.0036.13465.2595.02847-.0018-.20299.2909-.034756.0292.169226.1729.00148.0415-.189514.3261.037703" fill="none" stroke="#1f1a17" stroke-linecap="round" stroke-linejoin="round" stroke-width=".152891" transform="translate(.490844 -.245422)"/><path d="m12.7962.950978.3107.080432-.0255.13231.2515.06994.0311-.20065.2928.01257.0013.17174.1705.0293.0827-.21586.3031.05473" fill="none" stroke="#1f1a17" stroke-linecap="round" stroke-linejoin="round" stroke-width=".152891" transform="translate(.490844 -.245422)"/><path d="m15.2156 1.21433.296.12386-.0441.12732.2389.10505.0595-.19419.288.05417-.0233.17014.1645.0533.1275-.12897.3079.04711" fill="none" stroke="#1f1a17" stroke-linecap="round" stroke-linejoin="round" stroke-width=".152891" transform="translate(.490844 -.245422)"/><path d="m7.0271242 1.1611975-.156618-.27518698c.096944-.089273.1938881-.089273.298329-.052091l.082036.096684.149121-.074366-.059631-.141321c.074539-.0967273.171526-.13391.290832-.0967273l.082036.119046.164072-.0744089v-.148774c.1267601-.0966839.2087961-.104094.3281451 0l-.00745.193411.022362.0595011-1.14101.48350598-.052221-.089273z" fill="#fff500" stroke="#1f1a17" stroke-linecap="round" stroke-linejoin="round" stroke-width=".152891"/><path d="m9.5910943.41338052-.083986-.305176c.116012-.0627514.209966-.0389596.302013.0227084l.055687.113845.1629017-.035536-.02301-.151635c.09612-.075449.199262-.0877132.305783-.022405l.05018.13547.177376-.0318524.03666-.144181c.146694-.0626647.22808-.0497504.318047.0804327l-.05491.185654.007.0631414-1.225169.188861-.028602-.0993274z" fill="#fff500" stroke="#1f1a17" stroke-linecap="round" stroke-linejoin="round" stroke-width=".152891"/><path d="m12.155044.16410852-.03523-.314494c.124376-.0439433.213476-.00585.294732.0693385l.03723.121126.166456-.009751.000997-.153325c.106738-.0595878.210529-.0556875.305523.0253952l.02839.141624.180194-.0039.05876-.136727c.154712-.0390896.233064-.0136944.301579.128926l-.08325.17482-.0029.0634881-1.23973-.003987-.0127-.102534z" fill="#fff500" stroke="#1f1a17" stroke-linecap="round" stroke-linejoin="round" stroke-width=".152891"/><path d="m14.701244.34217852-.02046-.315794c.126283-.0381362.213519.004074.291179.0830329l.03146.122686.16676-.001993.0082-.153108c.109425-.0545174.212913-.0457634.304006.039653l.02171.142794.18015.004507.06514-.133867c.156358-.0318091.233411-.002774.295209.142881l-.09135.170746-.0059.0632714-1.23821-.061798-.0079-.103011z" fill="#fff500" stroke="#1f1a17" stroke-linecap="round" stroke-linejoin="round" stroke-width=".152891"/><path d="m17.104944.78728752.05356-.311893c.1317-.007844.206716.0533907.26392.148124l.0021.126629.162686.0366627.04355-.147041c.119089-.0277354.217766.004724.286498.108861l-.01209.143921.174213.046067.09443-.115145c.159522.00524.227734.051311.253952.20727898l-.12858.144961-.02046.060194-1.19002-.34656298.01625-.102058z" fill="#fff500" stroke="#1f1a17" stroke-linecap="round" stroke-linejoin="round" stroke-width=".152891"/><path d="m7.9870742 3.7172775-.9398399-2.55881 1.16324-.44627998.624003 1.74801998 1.03999-.245502-.26964-1.80006998 1.2787797-.148774.154105 1.77779998 1.117-.044637.0231-1.85215998 1.2942.0371828-.01538 1.82983998.978323.059501.261926-1.75542998 1.24029.13391-.238828 1.87443998.947554.230594.516139-1.74056998 1.17095.36446098-.61629 1.74057.292739.096727-.431416.810741c-3.11226-1.09343-6.54031-1.11574-9.5909499-.111548z" fill="#fff500" stroke="#1f1a17" stroke-linecap="round" stroke-linejoin="round" stroke-width=".152891"/><path d="m7.8760042 2.7310175.6786511-.238048-.343052-.855421c-.275924-.438826-.7234181-.260323-.633928.267777z" fill="#fff500" stroke="#1f1a17" stroke-linecap="round" stroke-linejoin="round" stroke-width=".152891"/><path d="m10.104504 2.1694675.71735-.054171-.108688-.914879c-.152241-.49529398-.630851-.43873998-.681858.094474l.0732.874576z" fill="#fff500" stroke="#1f1a17" stroke-linecap="round" stroke-linejoin="round" stroke-width=".152891"/><path d="m12.401944 1.9770475.719084.021148-.01192-.921249c-.09941-.50842498-.581274-.50222798-.688055.022708l-.01911.877392z" fill="#fff500" stroke="#1f1a17" stroke-linecap="round" stroke-linejoin="round" stroke-width=".152891"/><path d="m14.681144 2.1240875.709333.119522.115189-.914142c-.028385-.51722198-.506561-.57715698-.684631-.0718521l-.13989.866472z" fill="#fff500" stroke="#1f1a17" stroke-linecap="round" stroke-linejoin="round" stroke-width=".152891"/><path d="m16.888544 2.5735775.687405.211569.234754-.891087c.04009-.516442-.425999-.638608-.669204-.161082l-.252956.8406z" fill="#fff500" stroke="#1f1a17" stroke-linecap="round" stroke-linejoin="round" stroke-width=".152891"/><path d="m4.267284 21.441477 19.002261-14.91387" fill="none" stroke="#1f1a17" stroke-linecap="round" stroke-linejoin="round" stroke-width=".152891"/><path d="m2.379934 17.791378 21.910712-10.01945" fill="none" stroke="#1f1a17" stroke-linecap="round" stroke-linejoin="round" stroke-width=".152891"/><path d="m1.388345 7.654538 20.911401 10.525239" fill="none" stroke="#1f1a17" stroke-linecap="round" stroke-linejoin="round" stroke-width=".152891"/><path d="m1.929484 6.502168 18.539861 14.64601" fill="none" stroke="#1f1a17" stroke-linecap="round" stroke-linejoin="round" stroke-width=".152891"/><ellipse fill="#fff500" rx="7.55114" ry=".858584" stroke="#1f1a17" stroke-linecap="round" stroke-linejoin="round" stroke-width=".152891" transform="matrix(.677382 .0138829 -.024655 1.30214 12.779744 4.039928)"/><ellipse fill="#fff500" rx="7.55114" ry=".858584" stroke="#1f1a17" stroke-linecap="round" stroke-linejoin="round" stroke-width=".152891" transform="matrix(.677382 .0138829 -.024655 1.30214 12.779744 4.200178)"/><path d="m7.3832243 3.0677075c-.119306.014908-.149165-.08923-.067128-.163639 3.6542707-1.45789 7.2265507-1.21243 10.8883007.111592.08204.104138.03727.171093-.08949.171093-3.579689-1.36125-7.15942-1.56948-10.7316997-.119046z" fill="#fff500" stroke="#1f1a17" stroke-linecap="round" stroke-linejoin="round" stroke-width=".152891"/><path d="m6.0879342 16.741878 8.9411598-10.4042005 1.66243-.627427c1.83465.44069.688922 2.65151 3.32483 2.6291v2.8606005l-9.68248 11.0839c-4.2833898-1.69546-1.9694698-2.65151-4.2459498-5.54197z" fill="#da251d" stroke="#1f1a17" stroke-linecap="round" stroke-linejoin="round" stroke-width=".152891"/><path d="m10.303334 22.261678 9.69985-11.2416v4.0576c-.584394 1.66542-1.85949 2.68739-2.0948 4.29223-.500928 1.7563-1.62421 2.74043-3.3699 2.95239-1.48761.227084-2.74754.181667-4.23515-.06058z" fill="#fff500" stroke="#1f1a17" stroke-linecap="round" stroke-linejoin="round" stroke-width=".152891"/><rect fill="#0093dd" height="6.58382" rx="3.76456" stroke="#1f1a17" stroke-linecap="round" stroke-linejoin="round" stroke-width=".152891" width="4.52668" x="10.338915" y="11.185577"/><path d="m12.1023 13.3718 1.4021 1.391-1.4021 1.3612-1.3647-1.3761z" fill="#fff500" stroke="#1f1a17" stroke-linecap="round" stroke-linejoin="round" stroke-width=".152891" transform="translate(.490844 -.245422)"/><path d="m11.923545 13.856378h1.34985v1.34091h-1.34985z" fill="#fff500" stroke="#1f1a17" stroke-linecap="round" stroke-linejoin="round" stroke-width=".152891"/><path d="m12.183 13.8395.0523.1291-.1059-.0901-.1058.0901.0523-.1291-.1186-.0729.1392.0111.0329-.1361.033.1361.1391-.0111z" fill="#fff" stroke="#1f1a17" stroke-linecap="round" stroke-linejoin="round" stroke-width=".152891" transform="translate(.490844 -.245422)"/><path d="m12.1652 15.7446.0522.1292-.1058-.0901-.1058.0901.0523-.1292-.1186-.0729.1392.0112.0329-.1362.033.1362.1391-.0112z" fill="#fff" stroke="#1f1a17" stroke-linecap="round" stroke-linejoin="round" stroke-width=".152891" transform="translate(.490844 -.245422)"/><path d="m12.3311 15.0044.0821-.0595v-.0967h.0969l-.0298-.1339.0745-.0297-.0372-.186.1118-.0892.0671.0892.0373.0967-.0596.0818.0223.134-.1044.052.0075.0967-.1193.0521-.015.1488-.1044.0148.0075.119-.1417-.0074-.2461.1488h-.0969l.3356-.2009v-.119h.1044z" fill="#1f1a17" stroke="#1f1a17" stroke-linecap="round" stroke-linejoin="round" stroke-width=".152891" transform="translate(.490844 -.245422)"/><path d="m11.9766 15.0044-.0821-.0595v-.0967h-.0969l.0298-.1339-.0745-.0297.0373-.186-.1119-.0892-.0671.0892-.0373.0967.0596.0818-.0223.134.1044.052-.0075.0967.1193.0521.015.1488.1044.0148-.0075.119.1417-.0074.2461.1488h.097l-.3356-.2009v-.119h-.1045z" fill="#1f1a17" stroke="#1f1a17" stroke-linecap="round" stroke-linejoin="round" stroke-width=".152891" transform="translate(.490844 -.245422)"/><path d="m10.434644 16.021178c1.27527-.104138 1.41698-.02973 1.17087.342186.551891-.446323 1.13356-.513235 1.76003-.03718-.07458-.587644.954575-.21573 1.43188-.319867-.507125 1.32402-1.26036 1.74802-2.1329 1.74802-.969526.08182-1.88683-.595098-2.22988-1.73316z" fill="#00923f" stroke="#1f1a17" stroke-linecap="round" stroke-linejoin="round" stroke-width=".152891"/><path d="m10.762644 16.768778c.402727-.290095.71592-.297506 1.34985-.0595" fill="none" stroke="#1f1a17" stroke-linecap="round" stroke-linejoin="round" stroke-width=".152891"/><path d="m11.435844 17.427578c.544437-.974423 1.27527-.944651 2.02104-.699192" fill="none" stroke="#1f1a17" stroke-linecap="round" stroke-linejoin="round" stroke-width=".152891"/><path d="m13.009744 17.168178c.425089-.58019.917305-.699192 1.4841-.483463" fill="none" stroke="#1f1a17" stroke-linecap="round" stroke-linejoin="round" stroke-width=".152891"/><path d="m10.0842 13.83h.1119v1.7703l-.1418.1265v.1265h.0672v.2528h-.1119l-.0074.1339.5966-.0297.0074-.1042-.0745-.0074v-.2454h.0745v-.1191l-.1789-.1339v-1.7852h.1193v-.1487h-.1417v-.1042h.1342v-.1413h-.1118v-.1116h.1118l-.0373-.1413-.1939-.0892-.164.0892-.0373.1413.0969.0075v.1041h-.1118l-.0075.1413h.1342v.1042h-.1342z" fill="#1f1a17" stroke="#1f1a17" stroke-linecap="round" stroke-linejoin="round" stroke-width=".152891" transform="translate(.490844 -.245422)"/><path d="m14.675944 16.003678v-.178503l-.07458-.0075v-.245458h.07458v-.119002l-.17898-.13391v-1.78521h.119306v-.148774h-.141667v-.104138h.134213v-.141321h-.111852v-.111548h.111852l-.03727-.141321-.193888-.08927-.164072.08927-.03731.141321.09694.0074v.104138h-.111852l-.0075.141321h.134213v.104138h-.134213v.163682h.111852v1.7703l-.141667.126456v.126456h.06709v.252912h-.111852l-.0075.156185c.223747.01486.387776.04464.604069.02232z" fill="#1f1a17" stroke="#1f1a17" stroke-linecap="round" stroke-linejoin="round" stroke-width=".152891"/><path d="m2.3633342 8.1782975c-.462358 1.10833-.454904 2.2092105-.2087959 3.5257805l.313237-1.24965.4474499 1.3017c-.141711-1.26447-.0223616-2.2984005.611523-2.9901805-.492217.0148644-.8874469-.178503-1.1634099-.587644z" fill="#fff500" stroke="#1f1a17" stroke-linecap="round" stroke-linejoin="round" stroke-width=".152891"/><path d="m22.739444 8.5376075c.387689 1.13646.30704 2.2343905-.02604 3.5318005l-.229424-1.2676-.53304 1.26924c.225437-1.25234.175123-2.2919005-.411394-3.0240705.490137.04741.897414-.119436 1.1999-.509378z" fill="#da251d" stroke="#1f1a17" stroke-linecap="round" stroke-linejoin="round" stroke-width=".152891"/><path d="m1.6309042 20.638878.171526 1.4207-.7159199.565326c1.13356.952105 2.2000199 1.62157 3.3410299 2.11249v1.14552l1.9390101.676874v.788466c3.9675097 1.50998 8.0766797 1.93398 12.5065997-.04464v-.80333c.648792-.02232 1.25286-.208276 1.96882-.595055v-.93724c1.24545-.416551 2.35664-1.0042 3.16205-1.99348l-.738282-.342142.372868-1.76289c-1.32749 1.23475-2.12544 1.81494-3.45293 2.40258-.604069.30496-.02236.394233.134257.431416 1.08883.0595.05963.282641.119306.394233l-2.05086.728965c-.678651.200822-.298329.312413.02236.431416 1.04411-.05209.328145.22314.290875.334732-3.81834 1.63643-7.78585 1.68107-11.9025.126456-.335599-.223183-.723374-.401687.082036-.446323.902398-.133867.096944-.498371-.171526-.476052-.604069-.208276-1.21559-.364461-1.82716-.624827-1.02916-.498371-.067085-.342142.17157-.401643.290832-.05209.75319-.208276 0-.624827-1.2529-.572736-2.46854-1.33147-3.42311-2.50672z" fill="#fff" stroke="#1f1a17" stroke-linecap="round" stroke-linejoin="round" stroke-width=".152891"/><path d="m20.861845 23.791779v2.127298" fill="none" stroke="#1f1a17" stroke-linecap="round" stroke-linejoin="round" stroke-width=".152891"/><path d="m18.867645 27.281578.104399-1.963701" fill="none" stroke="#1f1a17" stroke-linecap="round" stroke-linejoin="round" stroke-width=".152891"/><path d="m6.386134 25.376377v1.934" fill="none" stroke="#1f1a17" stroke-linecap="round" stroke-linejoin="round" stroke-width=".152891"/><path d="m4.426324 23.867477.05222 2.023201" fill="none" stroke="#1f1a17" stroke-linecap="round" stroke-linejoin="round" stroke-width=".152891"/><path d="m5.442434 23.560278-.022359.022299" fill="none" stroke="#1f1a17" stroke-linecap="round" stroke-linejoin="round" stroke-width=".152891"/><path d="m5.460254 23.542479v.833099" fill="none" stroke="#1f1a17" stroke-linecap="round" stroke-linejoin="round" stroke-width=".152891"/><path d="m7.294214 25.073677v.781101" fill="none" stroke="#1f1a17" stroke-linecap="round" stroke-linejoin="round" stroke-width=".152891"/><path d="m11.067344 28.349878h-.104918v-.320561c-.0384.02917-.08355.05062-.135557.06449v-.07718c.02726-.0072.05712-.02097.08923-.04121.03216-.02032.05421-.04399.06609-.07107h.08516v.445543z" fill="#1f1a17" fill-rule="nonzero"/><path d="m11.450644 28.349878h-.104918v-.320561c-.0384.02917-.08355.05062-.135557.06449v-.07718c.02726-.0072.05712-.02097.08923-.04121.03216-.02032.05421-.04399.06609-.07107h.08516v.445543z" fill="#1f1a17" fill-rule="nonzero"/><path d="m11.1272 28.4769v-.0849h.2062v.0849z" fill="#1f1a17" fill-rule="nonzero" transform="translate(.490844 -.245422)"/><path d="m12.130944 28.349878h-.104918v-.320561c-.0384.02917-.08355.05062-.135557.06449v-.07718c.02726-.0072.05712-.02097.08923-.04121.03216-.02032.05421-.04399.06609-.07107h.08516v.445543z" fill="#1f1a17" fill-rule="nonzero"/><path d="m12.642444 28.270878v.07905h-.368058c.0041-.02986.01595-.05816.03597-.0849.01989-.02678.05928-.06219.117962-.106435.04745-.03562.0764-.05989.08711-.07259.01439-.0176.02167-.03493.02167-.05209 0-.0189-.0062-.03346-.0189-.04368-.01261-.01023-.02994-.0153-.05213-.0153-.02193 0-.03926.0054-.05226.01603-.01291.01075-.02041.02852-.02245.0533l-.104571-.0085c.0062-.0468.02574-.08035.05864-.100801.03294-.02037.07398-.0306.123336-.0306.05408 0 .09651.01187.127366.03545.03085.02366.04633.053.04633.0881 0 .01993-.0045.03896-.01326.05703-.0088.01807-.02284.03697-.04199.05673-.01274.01309-.03567.03198-.06873.0566-.03315.02457-.05417.041-.06297.04906-.0088.0081-.01608.0159-.02154.02353h.208492z" fill="#1f1a17" fill-rule="nonzero"/><path d="m12.2331 28.4769v-.0849h.2062v.0849z" fill="#1f1a17" fill-rule="nonzero" transform="translate(.490844 -.245422)"/><path d="m13.236744 28.349878h-.104918v-.320561c-.0384.02917-.08355.05062-.135557.06449v-.07718c.02726-.0072.05712-.02097.08923-.04121.03216-.02032.05421-.04399.06609-.07107h.08516v.445543z" fill="#1f1a17" fill-rule="nonzero"/><path d="m13.395944 28.247378.101624-.0091c.0026.01673.0091.02912.01954.03718.01044.0081.02423.01209.04143.01209.02167 0 .04004-.0081.05521-.02414.0153-.01612.02501-.04962.02921-.100541-.02639.02492-.05941.03731-.09894.03731-.04312 0-.08035-.01356-.111592-.04039-.03125-.02696-.04693-.06201-.04693-.105178 0-.04503.0166-.0813.04962-.108861.03289-.02748.07497-.04134.125979-.04134.0556 0 .101104.01746.136814.05226.03558.03484.05343.09205.05343.1717 0 .08121-.01863.139674-.05573.1756-.0371.03584-.08542.05382-.144961.05382-.04286 0-.0774-.0092-.103834-.02769-.02639-.01846-.04334-.04607-.05088-.08273zm.237701-.185827c0-.02747-.0078-.04875-.02332-.06384-.01556-.01521-.03367-.02275-.05408-.02275-.01937 0-.03558.0062-.04832.01859-.01287.01239-.01924.03276-.01924.06106 0 .0286.007.04971.02089.06301.01391.01343.03138.02015.05231.02015.02015 0 .03723-.0064.05101-.01933.01387-.01291.02076-.0319.02076-.0569z" fill="#1f1a17" fill-rule="nonzero"/><path d="m13.815644 28.232178.101494-.0099c.0033.02097.012.03697.02626.04802.01417.01118.03138.01673.05153.01673.02167 0 .03991-.0067.05469-.02002.01482-.01335.02219-.0312.02219-.05382 0-.02136-.007-.03831-.02128-.05083-.01413-.01261-.03151-.01881-.05192-.01881-.01335 0-.02943.0021-.04819.0063l.01161-.06921c.02843.00052.0501-.0045.06505-.01499.01491-.01062.02245-.0247.02245-.04225 0-.01499-.0055-.02687-.01647-.03575-.01096-.0089-.02561-.0133-.04373-.0133-.01798 0-.03328.0051-.04594.01517-.01274.01005-.0205.02479-.02318.04412l-.09677-.01322c.0067-.02687.01682-.04836.03047-.06435.01352-.01599.0325-.0286.05673-.03779.02435-.0092.05153-.01387.0816-.01387.05166 0 .09296.01335.124116.04.02561.0218.03848.04637.03848.07384 0 .03896-.02626.07003-.07879.09317.03133.0055.05634.01768.07523.03666.01872.01889.02817.04186.02817.06869 0 .03896-.01759.07211-.05265.09959-.03506.02739-.07883.04113-.131093.04113-.04962 0-.09066-.01157-.123336-.03458-.03263-.02314-.05148-.05335-.05673-.0907z" fill="#1f1a17" fill-rule="nonzero"/><path d="m14.450644 28.349878v-.08927h-.22418v-.07445l.237658-.281818h.08815v.281514h.06795v.07476h-.06795v.08927h-.101624zm0-.164029v-.151678l-.125893.151678z" fill="#1f1a17" fill-rule="nonzero"/><path d="m9.50553 27.4737-.05274.2743-.1307-.0249.12416-.6457.44385.085-.02102.1091-.31302-.0599-.02951.1529.27033.0517-.02101.1092z" fill="#1f1a17" fill-rule="nonzero" transform="translate(.490844 -.245422)"/><path d="m10.904144 27.657678-.143097-.02227-.0338-.156315-.26028-.04052-.07675.139197-.139544-.02176.355316-.610049.138937.02158.159219.690135zm-.201905-.294645-.05205-.254992-.125676.22743.177723.02756z" fill="#1f1a17" fill-rule="nonzero"/><path d="m10.975644 27.661278.07887-.652822.278091.03341c.07003.0084.119999.02041.150421.03593.03025.01565.05313.03952.06852.07168.01538.03233.02084.06773.01608.106435-.0058.04897-.02514.08763-.0579.116142-.03276.02834-.07835.04334-.136814.04464.02665.02015.04793.04117.06418.06336.01625.02206.03697.06041.06249.115015l.06444.13703-.157919-.01911-.07844-.153412c-.02778-.05491-.04719-.08975-.05811-.104354-.01088-.01482-.02305-.02544-.0364-.03194-.01348-.0066-.03523-.0117-.0657-.01539l-.02678-.0033-.03285.27263-.132177-.01595zm.177723-.360777.09772.0117c.0634.0076.103358.0098.119696.0062.01638-.0034.0299-.01118.04039-.02318.01053-.01196.01694-.02773.01933-.04737.0026-.02197-.0011-.04043-.01122-.05521-.01014-.01495-.0257-.02553-.04667-.03172-.01049-.0027-.04251-.0073-.09625-.01369l-.103097-.0124-.01989.165632z" fill="#1f1a17" fill-rule="nonzero"/><path d="m11.633644 27.736678.04442-.655856.279521.01885c.07025.0047.120952.014.151938.02791.03112.01395.05521.03662.07228.06812.01703.03138.02431.06643.02171.105221-.0033.04923-.02063.08893-.05183.118959-.0312.03016-.07597.04741-.134257.05196.02774.01859.05005.03853.06739.05976.01746.02124.04013.05846.06838.111678l.07172.133347-.158829-.01083-.08633-.149121c-.03068-.0533-.05179-.08706-.06357-.101191-.01162-.01404-.02427-.02401-.03805-.0299-.01361-.006-.0358-.0098-.06626-.012l-.02691-.0018-.01863.273887-.132697-.009zm.158352-.369574.09824.0066c.06379.0042.103704.0044.119912.000087.01616-.0043.02921-.01283.03909-.02527.0099-.01261.01556-.02865.01686-.04828.0014-.0221-.0032-.04035-.01413-.05469-.01088-.01434-.02704-.02414-.04832-.02921-.01066-.0021-.04282-.0052-.09677-.0087l-.103618-.007-.01127.166412z" fill="#1f1a17" fill-rule="nonzero"/><path d="m12.282744 27.441778c.0022-.06696.01413-.122773.03567-.167626.01608-.03294.03744-.06227.06427-.0881.02683-.02579.05577-.04455.08715-.05638.0416-.01595.08923-.02319.142837-.02132.09712.0031.173736.03562.230117.09759.05634.06197.08273.146434.07918.253432-.0034.106175-.03515.188124-.09495.246238-.05963.05798-.138027.08542-.234798.0823-.09785-.0031-.17482-.03545-.230681-.09699-.0559-.06154-.08212-.144614-.07879-.249142zm.137247-.000087c-.0023.07445.01287.13144.0462.170919.0332.03961.07627.0602.129316.06193.053.0017.09716-.01603.13235-.053.03536-.03701.05421-.09356.05668-.169749.0025-.07536-.01231-.132047-.04407-.170183-.03194-.03809-.07532-.05807-.13014-.05989-.05486-.0017-.09967.0156-.134387.05196-.03476.03636-.05343.09244-.05595.168016z" fill="#1f1a17" fill-rule="nonzero"/><path d="m13.013544 27.120978.133087-.000347.00091.356053c.000043.05651.0019.09304.0051.109858.0057.02683.01937.04845.04087.0647.02154.01612.0507.02427.08802.02414.03775-.00013.06617-.0078.08537-.02323.01902-.01539.03064-.03432.03432-.05673.0039-.02245.0057-.05972.0056-.111765l-.00078-.363681.132957-.000346.000867.345306c.000173.07905-.0033.13469-.01036.167279-.0072.03263-.02028.06015-.03965.08256-.0192.02258-.04511.04043-.0774.05391-.03228.01335-.07454.02002-.126716.02011-.06297.000173-.110682-.0068-.143227-.02136-.0325-.01439-.05837-.03315-.07727-.05638-.01889-.02305-.03151-.04728-.03753-.07276-.0087-.03766-.01317-.09313-.01343-.166629l-.000781-.35068z" fill="#1f1a17" fill-rule="nonzero"/><path d="m13.681044 27.769678-.0475-.655683.213086-.01539c.08065-.0059.133607-.0063.158569-.0016.0384.0072.07146.02631.09924.05746.02782.03099.04351.07281.04732.124939.0029.04022-.0019.07463-.01456.103054-.01261.02856-.02969.0514-.05114.06869-.02145.01725-.04364.02934-.06669.03606-.03112.0086-.07675.01499-.136857.01924l-.08663.0063.01794.247409-.132783.0095zm.0933-.554362.01348.186131.07268-.0053c.05231-.0038.08702-.0097.104224-.01781.01703-.0081.03016-.01989.03905-.03523.0091-.01534.01274-.03272.01144-.05213-.0017-.02384-.01023-.04299-.02544-.05755-.01517-.01439-.03359-.02293-.05543-.02522-.01603-.0018-.0481-.001-.09595.0025l-.06405.0046z" fill="#1f1a17" fill-rule="nonzero"/><path d="m13.7995 27.9644-.0706-.6538.1324-.0141.0704.6538z" fill="#1f1a17" fill-rule="nonzero" transform="translate(.490844 -.245422)"/><path d="m14.5092 27.7715.0137.11-.4606.0575-.0811-.6471.1322-.0165.0673.5372z" fill="#1f1a17" fill-rule="nonzero" transform="translate(.490844 -.245422)"/><path d="m14.9377 27.4173-.0456-.2547.131-.0234.116.6471-.1311.0235-.0506-.2831-.2567.0458.0506.283-.131.0233-.116-.6471.1311-.0235.0456.2549z" fill="#1f1a17" fill-rule="nonzero" transform="translate(.490844 -.245422)"/><path d="m16.345244 27.392678-.141581.03038-.08771-.133953-.257593.05512-.02176.157398-.13807.02969.112545-.696679.137594-.02951.396573.587557zm-.294342-.202902-.140237-.219586-.03575.257203.17599-.03762z" fill="#1f1a17" fill-rule="nonzero"/><g stroke="#1f1a17" stroke-linecap="round" stroke-linejoin="round" stroke-width=".152891"><path d="m18.336344 14.912778c.05967-.119002.126803-.22314.164072-.379368.104398.08182.253562.13391.447494.156228-.119349.252912.02982.386779.04472.587601l-.604069.01491-.05222-.379368z" fill="#00923f"/><path d="m17.688944 14.881378c-.133217.007-.255773.02678-.414211-.0015.0335.128146.02176.285328-.03515.471545.280084-.0081.343572.181797.522249.275621l.254953-.546405-.327841-.199262z" fill="#00923f"/><path d="m18.226644 15.013778c0-.156185-.17898-.111592-.275924-.111592l-.0075-.104138.238655-.01486c.134213.07441.05222.163639.04472.230594z" fill="#aaa9a9"/><ellipse cx="17.891343" cy="15.143078" fill="#aaa9a9" rx=".145425" ry=".111575"/><ellipse cx="17.820144" cy="15.285578" fill="#aaa9a9" rx=".145425" ry=".111575"/><ellipse cx="17.802345" cy="15.463578" fill="#aaa9a9" rx=".145425" ry=".111575"/><ellipse cx="17.998143" cy="15.374578" fill="#aaa9a9" rx=".145425" ry=".111575"/><ellipse cx="18.087243" cy="15.160878" fill="#aaa9a9" rx=".145425" ry=".111575"/><ellipse cx="18.336444" cy="15.071878" fill="#aaa9a9" rx=".145425" ry=".111575"/><ellipse cx="18.478944" cy="15.249978" fill="#aaa9a9" rx=".145425" ry=".111575"/><ellipse cx="18.425544" cy="15.410178" fill="#aaa9a9" rx=".145425" ry=".111575"/><ellipse cx="18.247443" cy="15.285578" fill="#aaa9a9" rx=".145425" ry=".111575"/><ellipse cx="18.247443" cy="15.499178" fill="#aaa9a9" rx=".145425" ry=".111575"/><ellipse cx="17.998143" cy="15.606078" fill="#aaa9a9" rx=".145425" ry=".111575"/><ellipse cx="18.176244" cy="15.712878" fill="#aaa9a9" rx=".145425" ry=".111575"/><ellipse cx="18.425544" cy="15.623878" fill="#aaa9a9" rx=".145425" ry=".111575"/><ellipse cx="18.318645" cy="15.801878" fill="#aaa9a9" rx=".145425" ry=".111575"/><ellipse cx="18.158445" cy="15.962178" fill="#aaa9a9" rx=".145425" ry=".111575"/><ellipse cx="18.336444" cy="16.015578" fill="#aaa9a9" rx=".145425" ry=".111575"/><ellipse cx="18.336444" cy="16.175778" fill="#aaa9a9" rx=".145425" ry=".111575"/><path d="m16.484644 17.779478c.05963-.119046.12676-.223183.164072-.379368.104398.08182.253562.133867.44745.156185-.119306.252912.02982.386822.04472.587644l-.604069.01486-.05218-.379325z" fill="#00923f"/><path d="m15.837144 17.748078c-.133217.007-.255729.02678-.414211-.0015.0335.128146.0218.285328-.03515.471545.280128-.0081.343616.181754.522249.275621l.254953-.546448z" fill="#00923f"/><path d="m16.357144 17.880378c0-.156228-.17898-.111592-.275924-.111592l-.0075-.104138.238655-.01486c.134213.07436.05218.163639.04472.230594z" fill="#aaa9a9"/><ellipse cx="16.039544" cy="18.009777" fill="#aaa9a9" rx=".145425" ry=".111575"/><ellipse cx="15.968344" cy="18.152178" fill="#aaa9a9" rx=".145425" ry=".111575"/><ellipse cx="15.950544" cy="18.330279" fill="#aaa9a9" rx=".145425" ry=".111575"/><ellipse cx="16.146444" cy="18.223479" fill="#aaa9a9" rx=".145425" ry=".111575"/><ellipse cx="16.235444" cy="18.027579" fill="#aaa9a9" rx=".145425" ry=".111575"/><ellipse cx="16.484744" cy="17.938578" fill="#aaa9a9" rx=".145425" ry=".111575"/><ellipse cx="16.627143" cy="18.098778" fill="#aaa9a9" rx=".145425" ry=".111575"/><ellipse cx="16.573743" cy="18.276879" fill="#aaa9a9" rx=".145425" ry=".111575"/><ellipse cx="16.377844" cy="18.134379" fill="#aaa9a9" rx=".145425" ry=".111575"/><ellipse cx="16.377844" cy="18.365878" fill="#aaa9a9" rx=".145425" ry=".111575"/><ellipse cx="16.146444" cy="18.454878" fill="#aaa9a9" rx=".145425" ry=".111575"/><ellipse cx="16.324444" cy="18.579579" fill="#aaa9a9" rx=".145425" ry=".111575"/><ellipse cx="16.573743" cy="18.490479" fill="#aaa9a9" rx=".145425" ry=".111575"/><ellipse cx="16.466944" cy="18.668578" fill="#aaa9a9" rx=".145425" ry=".111575"/><ellipse cx="16.306644" cy="18.810978" fill="#aaa9a9" rx=".145425" ry=".111575"/><ellipse cx="16.466944" cy="18.882279" fill="#aaa9a9" rx=".145425" ry=".111575"/><ellipse cx="16.484744" cy="19.042479" fill="#aaa9a9" rx=".145425" ry=".111575"/><path d="m14.437044 19.933878c.05963-.119002.12676-.22314.164072-.379368.104398.08182.253562.13391.44745.156228-.119306.252869.02982.386779.04472.587601l-.604069.01486-.05218-.379325z" fill="#00923f"/><path d="m13.789544 19.902478c-.133217.007-.255729.02678-.414211-.0015.0335.128146.0218.285328-.03515.471545.280128-.0081.343616.181754.522249.275621l.254953-.546405-.327841-.199262z" fill="#00923f"/><path d="m14.309444 20.034878c0-.156228-.17898-.111592-.275924-.111592l-.0075-.104138.238655-.01486c.134213.07437.05218.163639.04472.230594z" fill="#aaa9a9"/><ellipse cx="13.974144" cy="20.181979" fill="#aaa9a9" rx=".145425" ry=".111575"/><ellipse cx="13.920744" cy="20.306677" fill="#aaa9a9" rx=".145425" ry=".111575"/><ellipse cx="13.885144" cy="20.502478" fill="#aaa9a9" rx=".145425" ry=".111575"/><ellipse cx="14.081044" cy="20.395678" fill="#aaa9a9" rx=".145425" ry=".111575"/><ellipse cx="14.187844" cy="20.181979" fill="#aaa9a9" rx=".145425" ry=".111575"/><ellipse cx="14.419344" cy="20.092978" fill="#aaa9a9" rx=".145425" ry=".111575"/><ellipse cx="14.561744" cy="20.271078" fill="#aaa9a9" rx=".145425" ry=".111575"/><ellipse cx="14.526144" cy="20.449078" fill="#aaa9a9" rx=".145425" ry=".111575"/><ellipse cx="14.330244" cy="20.306677" fill="#aaa9a9" rx=".145425" ry=".111575"/><ellipse cx="14.330244" cy="20.538079" fill="#aaa9a9" rx=".145425" ry=".111575"/><ellipse cx="14.098844" cy="20.627179" fill="#aaa9a9" rx=".145425" ry=".111575"/><ellipse cx="14.276844" cy="20.733979" fill="#aaa9a9" rx=".145425" ry=".111575"/><ellipse cx="14.508344" cy="20.644978" fill="#aaa9a9" rx=".145425" ry=".111575"/><ellipse cx="14.401544" cy="20.840779" fill="#aaa9a9" rx=".145425" ry=".111575"/><ellipse cx="14.259044" cy="20.983279" fill="#aaa9a9" rx=".145425" ry=".111575"/><ellipse cx="14.419344" cy="21.036679" fill="#aaa9a9" rx=".145425" ry=".111575"/><ellipse cx="14.419344" cy="21.214678" fill="#aaa9a9" rx=".145425" ry=".111575"/><path d="m1.40853 7.08388.35796-.47605-.74574-.18596z" fill="#fff" transform="translate(.490844 -.245422)"/><path d="m22.9526 6.99487-.358-.47605.7458-.18596z" fill="#fff" transform="translate(.490844 -.245422)"/><path d="m1.73715 7.2223.21473-.31037.08485.06465-.22201.30873z" fill="#fff" transform="translate(.490844 -.245422)"/><path d="m22.624 7.15106-.2148-.31034-.0848.06466.222.30873z" fill="#fff" transform="translate(.490844 -.245422)"/><path d="m.788076 8.06377.17898-.2901.156574.08182-.186433.27523z" fill="#fff" transform="translate(.490844 -.245422)"/><path d="m23.9648 8.1172-.179-.29009-.1566.08182.1864.27518z" fill="#fff" transform="translate(.490844 -.245422)"/><path d="m.56789665 7.2486875c.17898.072502.35796.08546.54439395.03948l.268513.369098-.49221695-.013391c-.0447667-.1520254-.149165-.2860654-.320691-.3951864z" fill="#fff"/><path d="m25.184444 7.2843075c-.17898.072459-.35796.08546-.544394.03948l-.26847.369054.492217-.013391c.04472-.151981.149121-.286021.320647-.395143z" fill="#fff"/><path d="m1.42179 6.92878-.32069-.43141.44745.26777" fill="none" transform="translate(.490844 -.245422)"/><path d="m22.9394 6.85758.3206-.43141-.4474.26777" fill="none" transform="translate(.490844 -.245422)"/><path d="m1.620104 6.253508.49963.15623" fill="none"/><path d="m23.722744 6.164488-.499699.15623" fill="none"/><path d="m2.326534 7.019128.05964.1711" fill="none"/><path d="m23.016245 6.947928-.059601.1711" fill="none"/><path d="m2.362114 6.965738.12789.12863" fill="none"/><path d="m22.980644 6.876728-.1278.12862" fill="none"/><path d="m2.451174 6.894498.14362.11085" fill="none"/><path d="m22.891645 6.823298-.1436.11085" fill="none"/><path d="m2.468984 6.805488.16087.08398" fill="none"/><path d="m22.873844 6.734278-.1609.08399" fill="none"/><path d="m2.540184 6.734278.17066.06189" fill="none"/><path d="m22.802645 6.663038-.1707.06193" fill="none"/><path d="m5.2822243 8.5148075c.9918439.074366 1.75999-.595055 2.29697-2.03812.641338-1.02647 2.03595-.617373 2.08813.706646l5.0265197-.483506-8.5614498 10.1087005c-.3952729-.513235-.790546-.781012-.8501769-1.86703v-6.4266905z" fill="#00923f"/><path d="m5.2999942 14.958978v-.706646c.4996711-.461145 1.0068-1.10084 1.5064701-1.91162.2610159-1.04883.805454-1.51743 1.4915599-1.71825.3877761-.185957.6711971-.513235.8501771-.9818775.082036-.483463.529486-.862831 1.3274897-1.34634l.633884-.319824.797957-1.29429.372911.022318-.507125 1.16783c-.328145.357007-.753233.66201-1.22309.952105-.544394.238005-.8799928.58019-1.0067498 1.03392l-1.03665 1.1603805c-.604069.133867-.991844.513235-1.16337 1.13806-.335599 1.04879-1.14105 1.97116-2.04345 2.80422z" fill="#00923f"/><path d="m9.5604943 7.2506375c2.4535897-.334732 4.3776897-.260366 6.2197497 0l-.231201-.334732c-.08949-.364504.04477-.721511.402727-1.08601-2.37155.66201-4.55667.609962-6.6149797.059501.320647.342186.8128637.79592.223703 1.36125z" fill="#00923f"/><path d="m15.769544 7.2862175c-.0615-.891304.4842-1.46291 1.22972-1.42976-.199825-.052827-.44576-.421535-1.09906.046717-.476529.267343-.522639.725714-.13066 1.38304z" fill="#00923f"/><path d="m9.6089043 7.3040275c.019545-.875052-.565629-1.42863-1.32558-1.38651.201558-.054387.434883-.419195 1.12497.031679.499714.256076.569096.705043.200605 1.35483z" fill="#00923f"/></g></g></svg>