<svg enable-background="new 0 0 2300 1610" height="1610" viewBox="0 0 2300 1610" width="2300" xmlns="http://www.w3.org/2000/svg"><path d="m0 0h2300v1610h-2300z" fill="#fff"/><path d="m0 0h2300v536.667h-2300z" fill="#006b3e"/><path d="m0 1073.333h2300v536.667h-2300z" fill="#0098da"/><path d="m2240 689.671c-82.321 0-139.045 40.363-184.623 72.79-38.389 27.314-63.423 44.058-93.075 44.058-29.653 0-54.688-16.743-93.076-44.058-45.578-32.427-102.301-72.79-184.623-72.79-41.229 0-75.989 10.164-106.188 24.351 6.202 29.351 9.473 59.782 9.473 90.979 0 12.059-.495 24.001-1.452 35.814 30.938-21.164 60.407-37.333 98.167-37.333 45.965 0 79.642 23.96 118.64 51.71 42.905 30.533 91.542 65.139 159.06 65.139 67.517 0 116.153-34.605 159.06-65.139 38.998-27.75 72.674-51.71 118.639-51.71 22.207 0 41.543 5.603 60 14.514v-120.801c-18.401-4.72-38.313-7.524-60.002-7.524z" fill="#ea2432"/><path d="m712.112 805c0-10.138.353-20.194 1.031-30.16-28.962 19.903-50.582 31.678-75.445 31.678-29.652 0-54.687-16.743-93.075-44.058-45.578-32.427-102.302-72.79-184.623-72.79-82.324 0-139.045 40.363-184.623 72.79-38.387 27.314-63.42 44.058-93.076 44.058-26.787 0-49.807-13.665-82.301-36.439v132.109c24.306 10.841 51.31 18.143 82.301 18.143 67.521 0 116.152-34.605 159.061-65.139 38.996-27.75 72.674-51.71 118.639-51.71s79.641 23.96 118.639 51.71c42.906 30.533 91.543 65.139 159.06 65.139 32.13 0 59.979-7.845 84.974-19.351-6.909-30.889-10.562-63.007-10.562-95.98z" fill="#ea2432"/><circle cx="1150" cy="805" fill="#fff" r="437.888"/><path d="m1206.022 1094c-1.9 9-10.338 9.75-16.494 9.75 0 0-28.069-13.625-41.656-27.25h18.25s20.801 12 39.9 17.5z" fill="#008400" stroke="#000" stroke-miterlimit="10" stroke-width="2"/><path d="m1199.622 1095c-4.5.25-10.094 5.25-10.094 5.25" fill="none" stroke="#000" stroke-miterlimit="10" stroke-width="2"/><path d="m1093.978 1094c1.9 9 10.339 9.75 16.495 9.75 0 0 28.069-13.625 41.656-27.25h-18.25c-.001 0-20.802 12-39.901 17.5z" fill="#008400" stroke="#000" stroke-miterlimit="10" stroke-width="2"/><path d="m1100.378 1095c4.5.25 10.094 5.25 10.094 5.25" fill="none" stroke="#000" stroke-miterlimit="10" stroke-width="2"/><path d="m1007.789 1015c-6.258-11.227-27.981-25.995-40.616-13.867-4.527 4.346-5.273 14.76-7.384 26.367 0 0-8.888-20.112 1.779-33.921 2.883-3.732 9.976-3.297 15.721-6.329 0 0-19.25-12.75-26-6-1.532 1.532-4.807 2.566-5.861 4.796-3.593 7.594-2.639 19.454-2.639 19.454s-8.511-14.276-3.576-25.723c2.037-4.727 8.854-8.971 15.576-11.527 0 0-17.25-10.25-19.75-5.75s-4.5 19.5-4.5 19.5-2.75-23.75 5.25-24.5 19.5 5 19.5 5-22-10.5-43.25-9.25c0 0 27-2.5 31.75-4.75 0 0-25.75-.75-31.75-3.25l17.75-5s-15.25-3.5-17.75-8.25c0 0 10.75-1.5 12.25-3.5s-18-4.75-21-7l12.5-2s-16.25-7.75-20.25-4.5-6 3.75-6 3.75 1.5-7.5 11-7.75 15 1 15 1l-22.75-8.5 21 1.25-16.5-8h14.5l-8-3 8.25-3.25-14.75-2.75 18-2.833-16.25-3 15.5-1-17-1.667 16-2.75-12.5-1.5 10.5-3-13.75-2 16.5-3-18.5-1 7.5-3.5-5.75-3 8-2.916-8-4.584 12.75-1.25-9-5.5 5.625.75-3.25-4.25 15.375-.875-16.875-9.75 11.5-2.5-14.25-5 13.875-1.625-11.875-3.875 2.875-2.5-4.25-3.875 6.5-2.125-12.625-7.125 12 .875-16.375-10.25 17.25 1-12.25-7.25 7.875-4.25-8.875-4.5 8.375.75-8.75-5.5 9.125 1-6.875-4.75 7.125-2.375-8.25-3.875 7.25-1.25-7.25-2.875 7.625-1.25-8.125-2.25 8.125-2.125-9.25-2.125 11.25-1-12.375-2.25 12.875-3.125-14.875-5.625 9-3.5-5.125-4.75 7.5-1.375-3.125-3.5h5.5l-3.125-3.375 6.75 1.125-10.875-6.375 13.625 2.625-11.875-11.625 11.25 1.75-10.875-8.625 13.625 2-15.625-10.375 15.125 2.875-14.625-7.75 15 1.5-15.125-10.75 17.375 2.375-11.875-9.75 13.875 3.375-9.625-8.875 11.25 1.375-10.875-9.625 12.75 3-10.875-10.539s9.75 1.789 9.75 2.164-8-11.115-7.375-10.808 11.875 4.433 11.875 4.433l-4.25-10.196 7 6.696-1.75-8.5 7.125 5.875-5.375-12.375 14.75 14.067 5-27.317 1.25 28.25 8.625-8-4.75 12.527 5.75-4.277-5.75 12.125 11.75-12.5-8.875 17.875 13.125-10.722-9.244 12.972 12.494-7.75-7.375 8.5 7.625-.875-13.375 8.5 15.75-2.75-10.375 5.875h10l-9.875 4.125 13.872-1.125-9.747 8h9.25l-10.75 5 7.25 1-6.75 3.625 6.25 2.5-6.25 2.75 7.25 2s-10.375 4.75-8.25 6.875 8.375-2.75 8.375-2.75l-4 8.625 7.375-3.625-8.125 8.75 9-4.75-9.75 13.625 7.125 4.125-6.5 3.25h4.875l-4.75 1.625 7 1.25-6.5 3.625 10.75 2.125-14.625 3 13.875 1.375-15.625 7.125 11.125-.5-5.375 5.25 9.5-1.25-10.5 6.375 9.25-.625-10.25 5.125 3.875 1.625-7.125 3 7.875-.125-8.125 8 10.125-3.5-7.125 13.125 13-5.125-12.625 14.375 13.5-5-13 12.625 7.5.25-9.375 3.625 14.125-.25-10.375 5.75 4.125.375s-12.75 15.875-8.125 17.75 13.375-13.375 13.375-13.375l-7.75 32.875 8.875-5.5-2.125 8.25 6.25-3.166-9.375 20.916 9.625-3.75-3.5 3.125 5-1.125-7.5 12.375 10.75-3.375-10.75 15.875 13.625-1.5-10.125 14.292h12.375l-4.875 15.583 8.75-4.25-7 12.875 7 .875-2.875 7.875 6-1.625-5.5 8.875 7.625-1.875-9.75 5.625 9.625.5-7.875 1.25 6.25 1.875-3.5 5.125 11.25-2.125-8.63 10.375 14.38-4.125-12.5 11.75 12.5-6.25-7.875 10.75 10.875-4.375s-6.209 6.342-7.423 11.936c-1.479 6.818-.48 12.496 6.798 17.439" fill="#006b3e" stroke="#000" stroke-miterlimit="10" stroke-width="2"/><path d="m1292.211 1015c6.258-11.227 27.981-25.995 40.616-13.867 4.528 4.346 5.274 14.76 7.384 26.367 0 0 8.888-20.112-1.779-33.921-2.883-3.732-9.975-3.297-15.721-6.329 0 0 19.25-12.75 26-6 1.532 1.532 4.807 2.566 5.861 4.796 3.594 7.594 2.639 19.454 2.639 19.454s8.511-14.276 3.576-25.723c-2.037-4.727-8.854-8.971-15.576-11.527 0 0 17.25-10.25 19.75-5.75s4.5 19.5 4.5 19.5 2.75-23.75-5.25-24.5-19.5 5-19.5 5 22-10.5 43.25-9.25c0 0-27-2.5-31.75-4.75 0 0 25.75-.75 31.75-3.25l-17.75-5s15.25-3.5 17.75-8.25c0 0-10.75-1.5-12.25-3.5s18-4.75 21-7l-12.5-2s16.25-7.75 20.25-4.5 6 3.75 6 3.75-1.5-7.5-11-7.75-15 1-15 1l22.75-8.5-21 1.25 16.5-8h-14.5l8-3-8.25-3.25 14.75-2.75-18-2.833 16.25-3-15.5-1 17-1.667-16-2.75 12.5-1.5-10.5-3 13.75-2-16.5-3 18.5-1-7.5-3.5 5.75-3-8-2.916 8-4.584-12.75-1.25 9-5.5-5.625.75 3.25-4.25-15.375-.875 16.875-9.75-11.5-2.5 14.25-5-13.875-1.625 11.875-3.875-2.875-2.5 4.25-3.875-6.5-2.125 12.625-7.125-12 .875 16.375-10.25-17.25 1 12.25-7.25-7.875-4.25 8.875-4.5-8.375.75 8.75-5.5-9.125 1 6.875-4.75-7.125-2.375 8.25-3.875-7.25-1.25 7.25-2.875-7.625-1.25 8.125-2.25-8.125-2.125 9.25-2.125-11.25-1 12.375-2.25-12.875-3.125 14.875-5.625-9-3.5 5.125-4.75-7.5-1.375 3.125-3.5h-5.5l3.125-3.375-6.75 1.125 10.875-6.375-13.625 2.625 11.875-11.625-11.25 1.75 10.875-8.625-13.625 2 15.625-10.375-15.125 2.875 14.625-7.75-15 1.5 15.125-10.75-17.375 2.375 11.875-9.75-13.875 3.375 9.625-8.875-11.25 1.375 10.875-9.625-12.75 3 10.875-10.539s-9.75 1.789-9.75 2.164 8-11.115 7.375-10.808-11.875 4.433-11.875 4.433l4.25-10.196-7 6.696 1.75-8.5-7.125 5.875 5.375-12.375-14.75 14.067-5-27.317-1.25 28.25-8.625-8 4.75 12.527-5.75-4.277 5.75 12.125-11.75-12.5 8.875 17.875-13.125-10.722 9.244 12.972-12.494-7.75 7.375 8.5-7.625-.875 13.375 8.5-15.75-2.75 10.375 5.875h-10l9.875 4.125-13.872-1.125 9.747 8h-9.25l10.75 5-7.25 1 6.75 3.625-6.25 2.5 6.25 2.75-7.25 2s10.375 4.75 8.25 6.875-8.375-2.75-8.375-2.75l4 8.625-7.375-3.625 8.125 8.75-9-4.75 9.75 13.625-7.125 4.125 6.5 3.25h-4.875l4.75 1.625-7 1.25 6.5 3.625-10.75 2.125 14.625 3-13.875 1.375 15.625 7.125-11.125-.5 5.375 5.25-9.5-1.25 10.5 6.375-9.25-.625 10.25 5.125-3.875 1.625 7.125 3-7.875-.125 8.125 8-10.125-3.5 7.125 13.125-13-5.125 12.625 14.375-13.5-5 13 12.625-7.5.25 9.375 3.625-14.125-.25 10.375 5.75-4.125.375s12.75 15.875 8.125 17.75-13.375-13.375-13.375-13.375l7.75 32.875-8.875-5.5 2.125 8.25-6.25-3.166 9.375 20.916-9.625-3.75 3.5 3.125-5-1.125 7.5 12.375-10.75-3.375 10.75 15.875-13.625-1.5 10.125 14.292h-12.375l4.875 15.583-8.75-4.25 7 12.875-7 .875 2.875 7.875-6-1.625 5.5 8.875-7.625-1.875 9.75 5.625-9.625.5 7.875 1.25-6.25 1.875 3.5 5.125-11.25-2.125 8.63 10.375-14.38-4.125 12.5 11.75-12.5-6.25 7.875 10.75-10.875-4.375s6.209 6.342 7.424 11.936c1.479 6.818.48 12.496-6.799 17.439" fill="#006b3e" stroke="#000" stroke-miterlimit="10" stroke-width="2"/><path d="m1150 1080c-77.5 0-114.5-35-114.5-35 4.75 5.25-.25 20.75-13.188 14.5-19.344-9.345-45.563-8.875-45.563-8.875 1.813-17 12.5-19.375 16.75-20.563s.25-1.063 2-4.813 27.25-43.25 31.75-39 43 56.25 122.75 56.25 118.25-52 122.75-56.25 30 35.25 31.75 39-2.25 3.625 2 4.813 14.938 3.563 16.75 20.563c0 0-26.219-.47-45.563 8.875-12.938 6.25-17.938-9.25-13.188-14.5.002 0-36.998 35-114.498 35z" fill="#0098da" stroke="#000" stroke-miterlimit="10" stroke-width="2"/><path d="m1030.914 1035.84 13.147-21.604 4.067 2.476 2.23 19.254 17.901-7.002 4.026 2.45-13.147 21.604-4.66-2.836 8.122-13.347c.157-.259.373-.575.648-.95.274-.374.588-.79.941-1.247-.613.393-1.131.707-1.555.944-.424.236-.788.421-1.093.553l-14.682 5.854-1.001-.609-1.542-15.782c-.051-.592-.073-1.132-.064-1.622.008-.489.048-.945.12-1.369-.233.475-.451.901-.654 1.282-.204.38-.409.741-.616 1.081l-8.122 13.347z" fill="#fff"/><path d="m1075.355 1060.319 21.04-20.039 5.426 1.647 6.523 28.412-6.318-1.919-1.301-6.172-15.338-4.659-4.422 4.434zm13.763-6.371 10.6 3.219-2.229-11.429z" fill="#fff"/><path d="m1147.745 1053.4-15.836-.914-.923 15.979 15.836.915.313-5.423 5.805 1.558-.172 2.986c-.134 2.309-.659 3.856-1.575 4.643-.916.785-2.592 1.108-5.028.967l-15.072-.87c-2.452-.142-4.084-.655-4.896-1.541s-1.151-2.483-1.018-4.792l.769-13.305c.132-2.293.653-3.837 1.562-4.631s2.589-1.121 5.042-.979l15.072.871c2.437.141 4.064.658 4.883 1.553.819.894 1.162 2.487 1.03 4.78l-.139 2.389-5.929.592z" fill="#fff"/><path d="m1218.791 1061.798-9.004-23.633 5.5-2.096 9.004 23.633z" fill="#fff"/><path d="m1233.833 1034.905c-1.219-1.946-1.688-3.507-1.406-4.681.281-1.173 1.463-2.412 3.546-3.715l15.777-9.877c2.082-1.303 3.713-1.825 4.892-1.565s2.377 1.362 3.596 3.31l7.071 11.296c1.227 1.961 1.697 3.524 1.412 4.691-.286 1.166-1.47 2.401-3.552 3.705l-15.778 9.876c-2.082 1.304-3.71 1.829-4.885 1.576-1.174-.253-2.375-1.359-3.603-3.32zm12.707 9.208 16.447-10.296-8.493-13.567-16.447 10.296zm-6.082-21.947-.255-4.606 4.502-2.818-1.59 5.762z" fill="#fff"/><path d="m1035.5 1045c-6-5-27.75-17.75-35.5-17.75" fill="none" stroke="#000" stroke-miterlimit="10" stroke-width="2"/><path d="m1264.5 1045c6-5 27.75-17.75 35.5-17.75" fill="none" stroke="#000" stroke-miterlimit="10" stroke-width="2"/><path d="m1179.383 1067.104-1.144-6.164 19.812-3.675-.848-4.223-19.749 3.664-1.029-5.553 19.667-3.646-.786-4.236-25.453 4.721 4.611 24.866 25.689-4.764-.869-4.682z" fill="#fff"/><path d="m1150 644.667c-82.516 0-147.25 27.052-147.25 27.052v6.948h294.5v-6.948s-64.734-27.052-147.25-27.052z" fill="#353535"/><g stroke="#000" stroke-miterlimit="10"><path d="m1003.5 885.75c0 80.909 65.59 146.5 146.5 146.5s146.5-65.591 146.5-146.5v-209.696h-293z" fill="#006b3e" stroke-width="2"/><path d="m1003.5 800.083v85.667c0 80.909 65.59 146.5 146.5 146.5s146.5-65.591 146.5-146.5v-85.667z" fill="#fff" stroke-width="2"/><path d="m1006.121 913.417c12.937 67.68 72.43 118.833 143.879 118.833 71.45 0 130.942-51.153 143.88-118.833z" fill="#0098da" stroke-width="2"/><path d="m1296.5 866.501v-29.337c-6.903-3.408-14.904-5.914-24.5-5.914-18.083 0-30.543 8.866-40.555 15.989-8.433 6-13.932 9.678-20.445 9.678s-12.013-3.678-20.445-9.678c-10.012-7.123-22.472-15.989-40.555-15.989s-30.543 8.866-40.555 15.989c-8.432 6-13.931 9.678-20.445 9.678s-12.013-3.678-20.445-9.678c-10.012-7.123-22.471-15.989-40.555-15.989-9.596 0-17.597 2.506-24.5 5.914v29.337c7.921-5.612 15.021-10.251 24.5-10.251 10.097 0 17.495 5.264 26.061 11.359 9.425 6.706 20.108 14.308 34.939 14.308s25.514-7.602 34.939-14.308c8.566-6.096 15.964-11.359 26.061-11.359s17.494 5.264 26.061 11.359c9.425 6.706 20.108 14.308 34.939 14.308s25.515-7.602 34.939-14.308c8.566-6.096 15.964-11.359 26.061-11.359 9.479 0 16.579 4.639 24.5 10.251z" fill="#ea2432" stroke-width="2"/><path d="m1214.166 779.75v-7.333h-5.666v-2.833h-5.833v2.833h-8.834v-2.833h-9.833v2.833h-9.667v-10h46.167c1.833 0 1.5-2.333 0-2.333s-99.333 3.833-81.333-64.833c-36.167 6.167-46 34.167-46 46.167v21h-6.833v7.167s-6-1.333-12.5-1.333l5 11.167h124.5s3.667 5.833 7.5 5.833h3.333v-3h12.001v-2.5h-12.002zm-44.333-7.333h-11v-4.5h11zm-55.666-10h55.667v2.5h-14v7.5h-41.667z" fill="#fff" stroke-width="1.5"/><path d="m1204.167 976.25c-65.167 0-66.167-54-66.167-54-42.936 42.935-39.246 63.14-23.44 80.001-2.688 0-4.53 0-5.227 0-5.667 0-13.5-6.334-13.5-6.334s1 15.5 13.333 15.5h90.167v-9.166s-49.855 0-74.219 0z" fill="#fff" stroke-width="1.5"/><path d="m1107.525 544.177.958 9.954-11.878 1.144-.959-9.954-19.811 2.912 6.598 68.517 51.693-4.978-6.597-68.516z" fill="#ffe000" stroke-width="2"/><path d="m1076.746 557.689 51.457-4.954"/><path d="m1077.704 567.644 51.457-4.956"/><path d="m1078.663 577.597 51.457-4.954"/><path d="m1079.621 587.551 51.457-4.954"/><path d="m1080.58 597.505 51.457-4.955"/><path d="m1081.538 607.459 51.457-4.955"/><path d="m1102.592 555.201.959 9.954" fill="none"/><path d="m1110.021 564.532.958 9.954" fill="none"/><path d="m1104.509 575.108.959 9.955" fill="none"/><path d="m1111.938 584.439.958 9.955" fill="none"/><path d="m1106.426 595.017.959 9.954" fill="none"/><path d="m1113.854 604.348.896 9.29" fill="none"/><path d="m1089.652 556.447.959 9.953" fill="none"/><path d="m1097.081 565.778.958 9.953" fill="none"/><path d="m1091.569 576.354.959 9.955" fill="none"/><path d="m1098.998 585.686.958 9.954" fill="none"/><path d="m1093.486 596.263.958 9.953" fill="none"/><path d="m1100.915 605.593.894 9.291" fill="none"/><path d="m1115.533 553.955.958 9.954" fill="none"/><path d="m1122.961 563.286.958 9.954" fill="none"/><path d="m1117.449 573.863.959 9.953" fill="none"/><path d="m1124.878 583.193.958 9.954" fill="none"/><path d="m1119.366 593.771.959 9.954" fill="none"/><path d="m1126.795 603.102.894 9.29" fill="none"/><path d="m1084.141 567.023.958 9.955" fill="none"/><path d="m1086.058 586.932.958 9.954" fill="none"/><path d="m1087.975 606.839.894 9.291" fill="none"/><path d="m1012.456 560.277 2.84 9.588-11.442 3.389-2.84-9.588-18.891 6.639 19.549 65.999 49.794-14.749-19.549-65.999z" fill="#ffe000" stroke-width="2"/><path d="m984.82 579.414 49.567-14.682"/><path d="m987.661 589.002 49.567-14.683"/><path d="m990.501 598.59 49.566-14.682"/><path d="m993.341 608.178 49.566-14.682"/><path d="m996.181 617.767 49.567-14.683"/><path d="m999.021 627.355 49.567-14.683"/><path d="m1009.717 572.039 2.841 9.588" fill="none"/><path d="m1018.79 579.781 2.84 9.588" fill="none"/><path d="m1015.398 591.215 2.84 9.589" fill="none"/><path d="m1024.471 598.958 2.84 9.588" fill="none"/><path d="m1021.078 610.392 2.84 9.588" fill="none"/><path d="m1030.151 618.134 2.65 8.949" fill="none"/><path d="m997.253 575.731 2.84 9.588" fill="none"/><path d="m1006.325 583.474 2.84 9.588" fill="none"/><path d="m1002.934 594.908 2.839 9.588" fill="none"/><path d="m1012.005 602.65 2.841 9.588" fill="none"/><path d="m1008.613 614.084 2.841 9.588" fill="none"/><path d="m1017.686 621.826 2.651 8.949" fill="none"/><path d="m1022.183 568.347 2.84 9.588" fill="none"/><path d="m1031.254 576.089 2.841 9.588" fill="none"/><path d="m1027.862 587.523 2.84 9.588" fill="none"/><path d="m1036.935 595.265 2.84 9.589" fill="none"/><path d="m1033.542 606.7 2.841 9.588" fill="none"/><path d="m1042.616 614.442 2.65 8.949" fill="none"/><path d="m993.861 587.166 2.84 9.588" fill="none"/><path d="m999.542 606.342 2.839 9.589" fill="none"/><path d="m1005.221 625.519 2.652 8.949" fill="none"/><path d="m990.351 650.028 33.069-13.361-37.261-70.869 3.372-9.451-10.565-21.257-13.26 5.357 5.458 11.816-8.963 3.622-6.83-11.262-6.539 2.642z" fill="#ffe000" stroke-width="2"/></g><path d="m975.474 574.037h10.167v19.417h-10.167z" transform="matrix(-.9272 .3746 -.3746 -.9272 2108.3882 757.6675)"/><path d="m1010.285 641.974c-10.177-25.188-31.194-48.514-41.162-44.486" fill="none" stroke="#000" stroke-miterlimit="10"/><path d="m984.957 547.23-31.068 12.552" fill="none" stroke="#000" stroke-miterlimit="10"/><path d="m986.159 565.798-25.652 10.365" fill="none" stroke="#000" stroke-miterlimit="10"/><path d="m989.531 556.347-31.833 12.861" fill="none" stroke="#000" stroke-miterlimit="10"/><path d="m953.889 559.782 3.809 9.426" fill="none" stroke="#000" stroke-miterlimit="10"/><path d="m970.115 553.226 3.809 9.427" fill="none" stroke="#000" stroke-miterlimit="10"/><path d="m1021.935 633.84-5.19 2.097-3.308-8.188 4.367-1.765-.468-.89-11.229 4.537-3.308-8.188 10.405-4.204-.467-.89-3.359 1.357-3.309-8.188 2.537-1.025-.468-.89-9.397 3.797-3.309-8.188 8.576-3.464-.468-.89-1.529.617-3.308-8.188.706-.285-.468-.89-7.567 3.058-3.308-8.188 6.745-2.725-3.607-6.86 2.515 6.223-26.193 10.583-3.308-8.188 25.996-10.503-.467-.89-5.737 2.318-2.996-7.416-.927.375 2.996 7.415-12.981 5.245-2.996-7.416-.927.375 2.996 7.416-5.795 2.341 4.058 10.042 5.795-2.341 3.069 7.596.927-.375-3.069-7.596 12.98-5.244 3.308 8.188-12.533 5.063.375.927 5.58-2.254 3.308 8.188-.344.139.375.927 7.298-2.948 3.308 8.188-4.046 1.635.374.927 11.001-4.445 3.308 8.188-8.787 3.55.375.927 1.833-.741 3.309 8.188-.433.175.375.927 7.386-2.984 3.309 8.188-6.754 2.729.188.463-.2.081 1.003 2.483.927-.375-.815-2.02 12.236-4.944zm-33.83-28.745-3.308-8.188 12.98-5.244 3.309 8.188z"/><path d="m990.351 650.028 17.617-7.117c-8.993-22.26-29.066-46.581-37.875-43.022z"/><path d="m1080.433 543.62 5.113-8.634-6.315-22.882-14.038 2.728 3.103 12.64-9.49 1.845-4.555-12.358-13.846 2.691.406 13.165-9.489 1.844-1.858-12.882-14.039 2.729 2.717 23.582 7.975 6.09 7.348 79.729 70.022-13.611z" fill="#ffe000" stroke="#000" stroke-miterlimit="10" stroke-width="2"/><path d="m1035.506 556.47h10.166v19.417h-10.166z" transform="matrix(.9816 -.1908 .1908 .9816 -88.9177 208.9697)"/><path d="m1066.426 550.46h10.167v19.417h-10.167z" transform="matrix(-.9816 .1908 -.1908 -.9816 2230.2158 905.598)"/><path d="m1089.581 623c-5.184-26.667-21.365-53.574-31.917-51.523s-15.476 33.06-10.292 59.728" fill="none" stroke="#000" stroke-miterlimit="10"/><path d="m1058.158 574.018c-9.325 1.813-12.914 33.143-8.333 56.709l37.302-7.25c-4.581-23.567-19.644-51.271-28.969-49.459z"/><path d="m1082.795 525.163-65.782 12.787" fill="none" stroke="#000" stroke-miterlimit="10"/><path d="m1080.433 543.62-54.316 10.558" fill="none" stroke="#000" stroke-miterlimit="10"/><path d="m1085.546 534.986-67.404 13.102" fill="none" stroke="#000" stroke-miterlimit="10"/><path d="m1102.568 617.237-5.495 1.068-1.685-8.669 4.625-.899-.29-.962-11.888 2.311-1.685-8.668 11.017-2.142-.289-.962-3.557.691-1.685-8.668 2.686-.522-.29-.962-9.949 1.934-1.685-8.669 9.079-1.765-.29-.962-1.618.314-1.685-8.669.748-.145-.29-.962-8.011 1.557-1.685-8.669 7.141-1.388-2.232-7.423 1.281 6.589-27.731 5.39-1.685-8.668 27.522-5.35-.289-.962-6.074 1.181-1.526-7.851-.982.19 1.526 7.851-13.743 2.671-1.526-7.851-.981.191 1.526 7.851-6.135 1.193-6.135 1.192-1.526-7.851-.981.191 1.526 7.851-13.743 2.671-1.526-7.851-.981.191 1.526 7.851-6.073 1.181.093 1.001 27.522-5.35 1.685 8.669-27.731 5.39-1.281-6.588.711 7.718 7.141-1.388 1.685 8.669-8.011 1.557.092 1 .748-.145 1.685 8.668-1.618.315.092 1 9.079-1.765 1.685 8.669-9.949 1.934.092 1.001 2.686-.522 1.685 8.669-3.556.691.092 1.001 11.017-2.142 1.685 8.669-11.888 2.311.093 1.001 4.624-.899 1.685 8.669-5.495 1.068.092 1.001 12.955-2.519.416 2.138.982-.19-.511-2.629-.212.042-.095-.491-7.15 1.39-1.685-8.669 7.819-1.52-.19-.981-.458.089-1.685-8.669 1.941-.377-.191-.982-9.303 1.809-1.685-8.669 11.646-2.264-.191-.982-4.284.833-1.685-8.669 7.726-1.501-.19-.982-.364.071-1.685-8.669 5.907-1.148-.191-.982-13.269 2.58-1.685-8.669 13.743-2.671 1.563 8.042.981-.191-1.563-8.042 6.135-1.192 6.135-1.192 1.563 8.042.981-.19-1.563-8.042 13.743-2.671 1.685 8.669-13.269 2.579.19.981 5.907-1.148 1.685 8.669-.364.071.191.981 7.726-1.502 1.685 8.669-4.284.833.19.982 11.646-2.264 1.685 8.669-9.303 1.809.19.981 1.941-.377 1.685 8.669-.458.089.191.981 7.819-1.52 1.685 8.668-7.15 1.39.095.491-.212.041.511 2.629.981-.191-.416-2.138 12.955-2.518zm-58.366-37.711 1.685 8.669-13.743 2.671-1.685-8.669zm30.643 3.04-1.685-8.669 13.743-2.671 1.685 8.669z"/><path d="m1049.904 531.557 1.94 9.98" fill="none" stroke="#000" stroke-miterlimit="10"/><path d="m1032.726 534.896 1.94 9.98" fill="none" stroke="#000" stroke-miterlimit="10"/><path d="m1067.083 528.217 1.939 9.981" fill="none" stroke="#000" stroke-miterlimit="10"/><path d="m1192.475 544.177-.958 9.954 11.878 1.144.959-9.954 19.811 2.912-6.598 68.517-51.693-4.978 6.597-68.516z" fill="#ffe000" stroke="#000" stroke-miterlimit="10" stroke-width="2"/><path d="m1223.254 557.689-51.457-4.954" stroke="#000" stroke-miterlimit="10"/><path d="m1222.296 567.644-51.457-4.956" stroke="#000" stroke-miterlimit="10"/><path d="m1221.338 577.597-51.457-4.954" stroke="#000" stroke-miterlimit="10"/><path d="m1220.379 587.551-51.457-4.954" stroke="#000" stroke-miterlimit="10"/><path d="m1219.42 597.505-51.457-4.955" stroke="#000" stroke-miterlimit="10"/><path d="m1218.462 607.459-51.457-4.955" stroke="#000" stroke-miterlimit="10"/><path d="m1197.408 555.201-.959 9.954" fill="none" stroke="#000" stroke-miterlimit="10"/><path d="m1189.979 564.532-.958 9.954" fill="none" stroke="#000" stroke-miterlimit="10"/><path d="m1195.49 575.108-.958 9.955" fill="none" stroke="#000" stroke-miterlimit="10"/><path d="m1188.063 584.439-.959 9.955" fill="none" stroke="#000" stroke-miterlimit="10"/><path d="m1193.574 595.017-.959 9.954" fill="none" stroke="#000" stroke-miterlimit="10"/><path d="m1186.146 604.348-.896 9.29" fill="none" stroke="#000" stroke-miterlimit="10"/><path d="m1210.348 556.447-.959 9.953" fill="none" stroke="#000" stroke-miterlimit="10"/><path d="m1202.92 565.778-.959 9.953" fill="none" stroke="#000" stroke-miterlimit="10"/><path d="m1208.431 576.354-.958 9.955" fill="none" stroke="#000" stroke-miterlimit="10"/><path d="m1201.002 585.686-.958 9.954" fill="none" stroke="#000" stroke-miterlimit="10"/><path d="m1206.514 596.263-.958 9.953" fill="none" stroke="#000" stroke-miterlimit="10"/><path d="m1199.086 605.593-.895 9.291" fill="none" stroke="#000" stroke-miterlimit="10"/><path d="m1184.467 553.955-.958 9.954" fill="none" stroke="#000" stroke-miterlimit="10"/><path d="m1177.039 563.286-.959 9.954" fill="none" stroke="#000" stroke-miterlimit="10"/><path d="m1182.551 573.863-.959 9.953" fill="none" stroke="#000" stroke-miterlimit="10"/><path d="m1175.122 583.193-.958 9.954" fill="none" stroke="#000" stroke-miterlimit="10"/><path d="m1180.634 593.771-.958 9.954" fill="none" stroke="#000" stroke-miterlimit="10"/><path d="m1173.205 603.102-.894 9.29" fill="none" stroke="#000" stroke-miterlimit="10"/><path d="m1215.859 567.023-.959 9.955" fill="none" stroke="#000" stroke-miterlimit="10"/><path d="m1213.942 586.932-.958 9.954" fill="none" stroke="#000" stroke-miterlimit="10"/><path d="m1212.025 606.839-.894 9.291" fill="none" stroke="#000" stroke-miterlimit="10"/><path d="m1287.544 560.277-2.841 9.588 11.443 3.389 2.84-9.588 18.891 6.639-19.549 65.999-49.794-14.749 19.55-65.999z" fill="#ffe000" stroke="#000" stroke-miterlimit="10" stroke-width="2"/><path d="m1315.18 579.414-49.567-14.682" stroke="#000" stroke-miterlimit="10"/><path d="m1312.34 589.002-49.568-14.683" stroke="#000" stroke-miterlimit="10"/><path d="m1309.499 598.59-49.566-14.682" stroke="#000" stroke-miterlimit="10"/><path d="m1306.659 608.178-49.566-14.682" stroke="#000" stroke-miterlimit="10"/><path d="m1303.818 617.767-49.566-14.683" stroke="#000" stroke-miterlimit="10"/><path d="m1300.979 627.355-49.567-14.683" stroke="#000" stroke-miterlimit="10"/><path d="m1290.283 572.039-2.841 9.588" fill="none" stroke="#000" stroke-miterlimit="10"/><path d="m1281.21 579.781-2.841 9.588" fill="none" stroke="#000" stroke-miterlimit="10"/><path d="m1284.602 591.215-2.84 9.589" fill="none" stroke="#000" stroke-miterlimit="10"/><path d="m1275.529 598.958-2.84 9.588" fill="none" stroke="#000" stroke-miterlimit="10"/><path d="m1278.922 610.392-2.84 9.588" fill="none" stroke="#000" stroke-miterlimit="10"/><path d="m1269.85 618.134-2.651 8.949" fill="none" stroke="#000" stroke-miterlimit="10"/><path d="m1302.747 575.731-2.841 9.588" fill="none" stroke="#000" stroke-miterlimit="10"/><path d="m1293.675 583.474-2.84 9.588" fill="none" stroke="#000" stroke-miterlimit="10"/><path d="m1297.066 594.908-2.839 9.588" fill="none" stroke="#000" stroke-miterlimit="10"/><path d="m1287.994 602.65-2.84 9.588" fill="none" stroke="#000" stroke-miterlimit="10"/><path d="m1291.387 614.084-2.84 9.588" fill="none" stroke="#000" stroke-miterlimit="10"/><path d="m1282.314 621.826-2.651 8.949" fill="none" stroke="#000" stroke-miterlimit="10"/><path d="m1277.817 568.347-2.84 9.588" fill="none" stroke="#000" stroke-miterlimit="10"/><path d="m1268.746 576.089-2.841 9.588" fill="none" stroke="#000" stroke-miterlimit="10"/><path d="m1272.138 587.523-2.84 9.588" fill="none" stroke="#000" stroke-miterlimit="10"/><path d="m1263.064 595.265-2.839 9.589" fill="none" stroke="#000" stroke-miterlimit="10"/><path d="m1266.457 606.7-2.84 9.588" fill="none" stroke="#000" stroke-miterlimit="10"/><path d="m1257.385 614.442-2.651 8.949" fill="none" stroke="#000" stroke-miterlimit="10"/><path d="m1306.139 587.166-2.84 9.588" fill="none" stroke="#000" stroke-miterlimit="10"/><path d="m1300.459 606.342-2.84 9.589" fill="none" stroke="#000" stroke-miterlimit="10"/><path d="m1294.779 625.519-2.652 8.949" fill="none" stroke="#000" stroke-miterlimit="10"/><path d="m1122.334 537.417-6.667-7.5 1.833-23.667h14.301l-.634 13h9.667l2.113-13h14.106l2.113 13h9.667l-.634-13h14.301l1.833 23.667-6.667 7.5 8 79.666h-71.332z" fill="#ffe000" stroke="#000" stroke-miterlimit="10" stroke-width="2"/><path d="m1160.666 542.25h10.167v19.417h-10.167z"/><path d="m1129.167 542.25h10.167v19.417h-10.167z"/><path d="m1128.5 617.083c0-27.167 10.75-56.667 21.5-56.667s21.5 29.5 21.5 56.667" fill="none" stroke="#000" stroke-miterlimit="10"/><path d="m1150 563.006c9.5 0 19 30.069 19 54.077h-38c0-24.007 9.5-54.077 19-54.077z"/><path d="m1116.493 519.75h67.014" fill="none" stroke="#000" stroke-miterlimit="10"/><path d="m1122.334 537.417h55.332" fill="none" stroke="#000" stroke-miterlimit="10"/><path d="m1115.667 529.917h68.666" fill="none" stroke="#000" stroke-miterlimit="10"/><path d="m1114.652 613.905h5.598v-8.831h-4.711l.101-1h12.11v-8.831h-11.223l.1-1h3.623v-8.831h-2.736l.101-1h10.136v-8.831h-9.249l.101-1h1.648v-8.831h-.762l.101-1h8.161v-8.831h-7.274l.774-7.712v6.712h28.25v-8.831h-28.037l.1-1h6.188v-7.998h1v7.998h14v-7.998h1v7.998h6.25 6.25v-7.998h1v7.998h14v-7.998h1v7.998h6.188l.1 1h-28.04v8.831h28.25v-6.712l.774 7.712h-7.274v8.831h8.161l.101 1h-.762v8.831h1.648l.101 1h-9.249v8.831h10.136l.101 1h-2.736v8.831h3.623l.1 1h-11.223v8.831h12.11l.101 1h-4.711v8.831h5.598l.1 1h-13.197v2.178h-1v-2.678h.216v-.5h7.284v-8.831h-7.966v-1h.466v-8.831h-1.978v-1h9.478v-8.831h-11.864v-1h4.364v-8.831h-7.871v-1h.371v-8.831h-6.018v-1h13.518v-8.831h-14v8.192h-1v-8.192h-6.252-6.25v8.192h-1v-8.192h-14v8.831h13.518v1h-6.018v8.831h.371v1h-7.871v8.831h4.364v1h-11.864v8.831h9.478v1h-1.978v8.831h.466v1h-7.966v8.831h7.284v.5h.216v2.678h-1v-2.178h-13.197zm50.098-48.155v8.831h14v-8.831zm-29.5 8.831v-8.831h-14v8.831z"/><path d="m1150 519.75v10.167" fill="none" stroke="#000" stroke-miterlimit="10"/><path d="m1167.5 519.75v10.167" fill="none" stroke="#000" stroke-miterlimit="10"/><path d="m1132.5 519.75v10.167" fill="none" stroke="#000" stroke-miterlimit="10"/><path d="m1309.648 650.028-33.068-13.361 37.261-70.869-3.372-9.451 10.565-21.257 13.26 5.357-5.458 11.816 8.963 3.622 6.83-11.262 6.539 2.642z" fill="#ffe000" stroke="#000" stroke-miterlimit="10" stroke-width="2"/><path d="m1314.359 574.037h10.168v19.417h-10.168z" transform="matrix(.9272 .3746 -.3746 .9272 314.7083 -451.724)"/><path d="m1289.715 641.974c10.177-25.188 31.194-48.514 41.162-44.486" fill="none" stroke="#000" stroke-miterlimit="10"/><path d="m1315.043 547.23 31.068 12.552" fill="none" stroke="#000" stroke-miterlimit="10"/><path d="m1313.841 565.798 25.651 10.365" fill="none" stroke="#000" stroke-miterlimit="10"/><path d="m1310.469 556.347 31.834 12.861" fill="none" stroke="#000" stroke-miterlimit="10"/><path d="m1346.111 559.782-3.808 9.426" fill="none" stroke="#000" stroke-miterlimit="10"/><path d="m1329.885 553.226-3.809 9.427" fill="none" stroke="#000" stroke-miterlimit="10"/><path d="m1278.065 633.84 5.19 2.097 3.308-8.188-4.367-1.765.468-.89 11.229 4.537 3.308-8.188-10.405-4.204.467-.89 3.359 1.357 3.309-8.188-2.537-1.025.468-.89 9.397 3.797 3.309-8.188-8.576-3.464.468-.89 1.529.617 3.308-8.188-.706-.285.468-.89 7.566 3.058 3.309-8.188-6.745-2.725 3.607-6.86-2.515 6.223 26.193 10.583 3.309-8.188-25.996-10.503.467-.89 5.737 2.318 2.995-7.416.928.375-2.996 7.415 12.98 5.245 2.996-7.416.928.375-2.996 7.416 5.795 2.341-4.058 10.042-5.795-2.341-3.069 7.596-.927-.375 3.069-7.596-12.98-5.244-3.309 8.188 12.533 5.063-.375.927-5.579-2.254-3.308 8.188.344.139-.375.927-7.298-2.948-3.308 8.188 4.046 1.635-.374.927-11.001-4.445-3.308 8.188 8.787 3.55-.375.927-1.833-.741-3.309 8.188.433.175-.375.927-7.386-2.984-3.309 8.188 6.754 2.729-.188.463.2.081-1.003 2.483-.927-.375.815-2.02-12.236-4.944zm33.83-28.745 3.309-8.188-12.98-5.244-3.309 8.188z"/><path d="m1309.648 650.028-17.616-7.117c8.993-22.26 29.065-46.581 37.874-43.022z"/><path d="m1219.567 543.62-5.114-8.634 6.317-22.882 14.037 2.728-3.103 12.64 9.489 1.845 4.555-12.358 13.848 2.691-.407 13.165 9.489 1.844 1.858-12.882 14.038 2.729-2.716 23.582-7.975 6.09-7.348 79.729-70.021-13.611z" fill="#ffe000" stroke="#000" stroke-miterlimit="10" stroke-width="2"/><path d="m1254.328 556.47h10.166v19.417h-10.166z" transform="matrix(-.9816 -.1908 .1908 -.9816 2387.6409 1362.2749)"/><path d="m1223.407 550.46h10.167v19.417h-10.167z" transform="matrix(.9816 .1908 -.1908 .9816 129.451 -224.1082)"/><path d="m1210.419 623c5.184-26.667 21.364-53.574 31.917-51.523s15.477 33.06 10.293 59.728" fill="none" stroke="#000" stroke-miterlimit="10"/><path d="m1241.842 574.018c9.326 1.813 12.914 33.143 8.333 56.709l-37.302-7.25c4.58-23.567 19.644-51.271 28.969-49.459z"/><path d="m1217.205 525.163 65.782 12.787" fill="none" stroke="#000" stroke-miterlimit="10"/><path d="m1219.567 543.62 54.316 10.558" fill="none" stroke="#000" stroke-miterlimit="10"/><path d="m1214.453 534.986 67.405 13.102" fill="none" stroke="#000" stroke-miterlimit="10"/><path d="m1197.432 617.237 5.495 1.068 1.685-8.669-4.624-.899.29-.962 11.888 2.311 1.685-8.668-11.016-2.142.288-.962 3.557.691 1.685-8.668-2.686-.522.289-.962 9.949 1.934 1.686-8.669-9.079-1.765.29-.962 1.617.314 1.686-8.669-.748-.145.29-.962 8.011 1.557 1.686-8.669-7.141-1.388 2.231-7.423-1.28 6.589 27.73 5.39 1.686-8.668-27.522-5.35.288-.962 6.074 1.181 1.525-7.851.982.19-1.525 7.851 13.742 2.671 1.525-7.851.982.191-1.526 7.851 6.136 1.193 6.135 1.192 1.525-7.851.982.191-1.526 7.851 13.743 2.671 1.525-7.851.982.191-1.526 7.851 6.073 1.181-.093 1.001-27.522-5.35-1.685 8.669 27.731 5.39 1.28-6.588-.711 7.718-7.142-1.388-1.685 8.669 8.011 1.557-.092 1-.748-.145-1.685 8.668 1.618.315-.092 1-9.079-1.765-1.685 8.669 9.949 1.934-.092 1.001-2.687-.522-1.685 8.669 3.556.691-.093 1.001-11.017-2.142-1.685 8.669 11.888 2.311-.093 1.001-4.624-.899-1.685 8.669 5.494 1.068-.092 1.001-12.955-2.519-.416 2.138-.982-.19.512-2.629.212.042.095-.491 7.15 1.39 1.686-8.669-7.819-1.52.19-.981.457.089 1.686-8.669-1.941-.377.191-.982 9.303 1.809 1.686-8.669-11.646-2.264.191-.982 4.283.833 1.686-8.669-7.727-1.501.191-.982.363.071 1.686-8.669-5.907-1.148.19-.982 13.27 2.58 1.686-8.669-13.743-2.671-1.563 8.042-.981-.191 1.563-8.042-6.136-1.192-6.135-1.192-1.563 8.042-.981-.19 1.563-8.042-13.743-2.671-1.685 8.669 13.269 2.579-.19.981-5.907-1.148-1.685 8.669.363.071-.19.981-7.726-1.502-1.686 8.669 4.283.833-.189.982-11.646-2.264-1.686 8.669 9.303 1.809-.189.981-1.941-.377-1.686 8.669.457.089-.19.981-7.819-1.52-1.686 8.668 7.15 1.39-.096.491.213.041-.512 2.629-.981-.191.415-2.138-12.954-2.518zm58.366-37.711-1.685 8.669 13.742 2.671 1.686-8.669zm-30.644 3.04 1.686-8.669-13.743-2.671-1.685 8.669z"/><path d="m1250.096 531.557-1.94 9.98" fill="none" stroke="#000" stroke-miterlimit="10"/><path d="m1267.274 534.896-1.94 9.98" fill="none" stroke="#000" stroke-miterlimit="10"/><path d="m1232.918 528.217-1.94 9.981" fill="none" stroke="#000" stroke-miterlimit="10"/><path d="m1150 647.417c80.03 0 132.844 20.183 151.826 28.637l10.572-26.168.055-.236c-14.474-6.825-75.668-30.65-162.453-30.65s-147.979 23.825-162.453 30.649l.055.236 10.573 26.168c18.982-8.453 71.795-28.636 151.825-28.636z" fill="#ffe000" stroke="#000" stroke-miterlimit="10" stroke-width="2"/><path d="m1150 643c86.75 0 141.521 23.638 155.889 30.422l5.564-13.773c-14.474-6.824-74.668-31.649-161.453-31.649s-146.979 24.825-161.453 31.649l5.564 13.773c14.368-6.784 69.139-30.422 155.889-30.422z" fill="#ffe000" stroke="#000" stroke-miterlimit="10" stroke-width="2"/><path d="m1150 625c86.75 0 141.521 23.638 162.771 31.388l5.564-13.773c-21.356-7.79-81.55-32.615-168.335-32.615s-146.979 24.825-168.336 32.615l5.564 13.773c21.251-7.75 76.022-31.388 162.772-31.388z" fill="#ffe000" stroke="#000" stroke-miterlimit="10" stroke-width="2"/><path d="m1162.75 536.625c0 7.042-5.708 12.75-12.75 12.75s-12.75-5.708-12.75-12.75v-16.875h25.5z" fill="#fff" stroke="#000" stroke-miterlimit="10"/><path d="m1160.264 540.227c-1.515-2.446-2.693-7.405-3.028-9.668-1.049-7.064-17.124-11.765-17.124-4.193 0 3.611 3.014 2.885 3.728 3.029-4.12 1.481-5.358 10.833-2.563 9.668 0 0 6.523-2.796 10.367-1.515 3.843 1.282 2.096 2.679 8.62 2.679z" fill="#ea2432" stroke="#000" stroke-miterlimit="10"/></svg>