<svg enable-background="new -0.1240234 -0.1240234 251 251" height="251" viewBox="-.1240234 -.1240234 251 251" width="251" xmlns="http://www.w3.org/2000/svg"><g clip-rule="evenodd" fill-rule="evenodd"><path d="m125 0c69.0244141 0 125 55.9760742 125 125 0 69.0244141-55.9755859 125-125 125-69.0239258 0-125-55.9755859-125-125 0-69.0239258 55.9760742-125 125-125z" fill="#ed1c24"/><path d="m125 7.9609375c64.6289063 0 117.0400391 52.4106445 117.0400391 117.0390625 0 64.6289063-52.4111328 117.0400391-117.0400391 117.0400391-64.628418 0-117.0390625-52.4111328-117.0390625-117.0400391 0-64.628418 52.4106445-117.0390625 117.0390625-117.0390625zm-.003418 194.3486328 3.6303711 10.3398438 10.7695313.1230469-8.7138672 6.6425781 3.2128906 10.2773438-9.0078125-6.2324219-8.7866211 6.2324219 3.1420898-10.4912109-8.6396484-6.4287109 10.9555664-.2539063zm-20.1567382-2.5029297c-.0810547-.3623047-.1264648-3.5917969-.1513672-4.1083984-.137207-3.0087891-.1020508-8.9873047-.1020508-11.9257813 0-3.0078125.0356445-4.3642578.1723633-5.7636719 0-.1445313-.3725586-.3662109-.5058594-.2929688-1.5498047.6650391-4.3056641 1.6923828-6.9628906 1.8710938-.1298828.1113281-.2319336 1.1005859-.1015625 1.2861328.5024414.0732422 1.2827148.1855469 1.75.2919922.5024414.1123047.8085938.6279297.840332 1.2509766.1054688.9873047.1054688 3.5996094.1054688 6.5302734-.0356445 3.0478516-.0390625 5.3955078-.1054688 6.8994141-.0175781.4248047-.0385742 3.6132813-.1162109 3.9609375zm7.349121.3017578c8.1435547-2.0976563 12.175293-6.8671875 12.175293-13.5097656 0-4.6259766-2.3554688-8.8828125-7.1953125-8.8828125-1.3808594 0-2.8608398.4404297-3.8696289 1.0273438-2.5229492 1.4726563-3.9995117 3.9257813-3.9995117 7.1210938 0 6.6982422 5.2617188 7.7207031 9.5141602 4.9169922.105957-.0742188.1865234.0322266.1337891.1865234-1.1879883 3.5527344-2.4145508 5.4267578-7.2612305 7.8554688-.1020508.2919921.302246 1.211914.5024413 1.2851561zm3.9716797-20.9257812c2.4882813 0 3.4970703 3.3076172 3.4970703 7.0859375 0 .734375-.0703125 1.4296875-.2705078 2.4951172-.0317383.2216797-.2670898.5136719-.3691406.5869141-.3691406.1835938-.980957.3691406-1.3813477.3691406-2.0771484 0-4.034668-1.8066406-4.034668-6.0556641.0000001-2.9667969 1.279297-4.4814453 2.5585938-4.4814453zm19.2993164-1.4667969c-1.6132813 0-3.3916016.5175781-4.7099609 1.7265625-2.3154297 2.0527344-3.2265625 5.8378906-3.2265625 9.2822266 0 4.0390625.6748047 8.0039063 3.2265625 10.0556641 1.1103516.9248047 2.4599609 1.2548828 4.1367188 1.2548828 1.3496094 0 2.7939453-.4462891 3.8730469-1.2158203 2.8896484-2.1269531 3.7998047-6.1660156 3.7998047-10.4599609 0-3.7822266-.8408203-6.5664063-2.1542969-8.2167969-.9746094-1.4316407-2.6572266-2.4267579-4.9453126-2.4267579zm-.5732421 1.4316406c1.8564453 0 2.9628906 3.3779297 2.9628906 9.8769531 0 6.34375-.6748047 8.3251953-1.3769531 9.0605469-.2041016.2207031-.5732422.4423828-1.0410156.4423828-1.7851563 0-3.0615234-3.0859375-3.0615234-10.5371094 0-4.4736328.6367188-7.4472656 1.578125-8.4384766.236328-.2568358.6083983-.4042968.9384765-.4042968zm17.9814453 20.6591797c-.0878906-.3623047-.1337891-3.5917969-.1513672-4.1083984-.1367188-3.0058594-.1015625-8.9873047-.1015625-11.9257813 0-3.0078125.03125-4.3642578.1689453-5.7636719 0-.1445313-.3691406-.3662109-.5029297-.2929688-1.5507813.6650391-4.3085938 1.6923828-6.9628906 1.8710938-.1376953.1113281-.2353516 1.1005859-.1015625 1.2861328.5019531.0732422 1.2792969.1855469 1.75.2919922.5029297.1123047.8056641.6279297.8398438 1.2509766.1015625.9873047.1015625 3.5996094.1015625 6.5302734-.0341797 3.0478516-.0410156 5.3955078-.1015625 6.8994141-.0205078.4248047-.0380859 3.6132813-.1220703 3.9609375zm-18.7441407-183.4741211 3.1845703 2.5732422 3.7675781-1.8422852-1.4619141 3.8242188 2.9169922 3.015625-4.0878906-.2104492-1.9677734 3.7075195-1.0654297-3.9541016-4.1289063-.7236328 3.4296875-2.2353516zm-18.2480468 0-3.1845703 2.5732422-3.7675781-1.8422852 1.4619141 3.8242188-2.9169922 3.015625 4.0878906-.2104492 1.9677734 3.7075195 1.0654297-3.9541016 4.1293945-.7236328-3.4301758-2.2353516zm-47.3427735 15.1870118-1.4726563 3.8203125-4.1826172.2919922 3.1772461 2.5795898-1.019043 4.0668945 3.4370117-2.2246094 3.5571289 2.2246094-1.0546875-3.9541016 3.2124023-2.6923828-4.0874023-.2211914zm23.2070313-10.2734375-2.4106445 3.3076172-4.1196289-.8017578 2.4042969 3.3149414-2.0351563 3.6655273 3.8945313-1.2617188 2.8574219 3.0717773.003418-4.0947266 3.8027344-1.7680664-3.890625-1.2719727zm89.7265625 10.2734375 1.4726563 3.8203125 4.1826172.2919922-3.1767578 2.5795898 1.0195313 4.0668945-3.4375-2.2246094-3.5576172 2.2246094 1.0546875-3.9541016-3.2128906-2.6923828 4.0878906-.2211914zm-23.2070313-10.2734375 2.4111328 3.3076172 4.1191406-.8017578-2.4042969 3.3149414 2.0351563 3.6655273-3.8945313-1.2617188-2.8574219 3.0717773-.0039063-4.0947266-3.8027344-1.7680664 3.890625-1.2719727zm-94.4331054 66.6245117 1.3920898-1.5498047-2.4428711-2.4814453-2.5761719-.4355469-1.5327148 1.465332-.3652344-.0175781c.2880859.309082.5942383.6044922.9208984.8823242 1.4902344 1.2651367 3.2333984 2.0771484 5.0961914 2.456543zm62.3549804-18.3183594c5.0361328-1.3393555 24.7080078-6.2983398 28.2998047-3.2197266 4.1259766 3.5361328-4.1259766 14.1503906 8.8427734 12.3828125 11.7255859-1.5991211 47.0400391-12.3442383 53.7333984-14.3999023-3.7792969-5.7148438-8.0703125-11.0576172-12.8154297-15.9638672-10.1503906 3.2827148-45.4697266 14.3505859-47.9931641 10.3154297-2.9492188-4.7167969 1.7714844-10.0239258-2.9492188-12.3823242-3.7216795-1.862793-20.2998045 2.5239258-27.1181639 4.453125zm99.7041016 10.9199219c2.5302734 5.722168 4.5869141 11.6972656 6.1230469 17.8793945-19.5908203 5.5742188-59.578125 16.7753906-69.2714844 18.097168-12.9726563 1.7709961-4.7167969-8.8432617-8.8466797-12.3789063-3.4648438-2.9697266-21.8857422 1.5361328-27.7089844 3.0615234v-18.824707c7.140625-2.003418 22.9111328-6.0947266 26.5322266-4.284668 4.7167969 2.3583984 0 7.6655273 2.9443359 12.3823242 2.4394532 3.8979493 52.8476563-10.7441405 70.2275391-15.9321288zm9.0224609 35.7026367c.2285156 2.9130859.3515625 5.8554688.3515625 8.8251953 0 3.5390625-.1767578 7.0390625-.4990234 10.4941406-22.7724609 5.7373047-65.0185547 16.234375-74.3818359 17.5136719-12.9726563 1.7685547-4.7207031-8.8466797-8.8466797-12.3808594-3.2333984-2.7734375-18.7783203.9697266-25.3505859 2.7197266v-18.8105469c7.5664063-2.0844727 21.9199219-5.6728516 25.3505859-3.9575195 4.7167969 2.3583984 0 7.6655273 2.9492188 12.3823242 2.5908202 4.1445313 65.2392577-12.6425781 80.4267577-16.7861328zm-2.8046875 37.4697266c-12.6318359 47.3291015-55.7988281 82.2060546-107.1035156 82.2060546-40.4399414 0-75.8222656-21.671875-95.1850586-54.0283203 30.6938477-7.1699219 119.1801758-27.5097656 121.1274414-24.0976563 2.3574219 4.1259766-1.7685547 11.2021484 4.1298828 14.1513672 4.0205078 2.0097657 48.8886719-10.2382812 77.03125-18.2314452zm-169.2924804 5.4755859s-5.2475586 4.8652344-5.1171875.7666016c.1264648-4.0947266 0-25.4746094 0-25.4746094s-3.3320313-3.328125 2.175293-3.9677734c5.5043945-.6435547 5.1210938 1.7890625 5.1210938 1.7890625l13.4399414 13.9570313v-15.6201172s-4.480957-2.0488281-1.2792969-2.9453125c3.2021484-.8964844 4.3515625-1.2792969 5.6342773-1.5361328 1.2792969-.2563477-.7695313 3.3291016-.7695313 3.3291016v24.4511719s-2.0493164 3.2021484-5.1210938-.3828125c-3.0722656-3.5849609-14.4667969-15.8759766-14.4667969-15.8759766v19.2041016c.0000001-.0000002 1.5361329 1.1533201.3833009 2.3056639zm51.8735351-67.6396484.6640625-5.5214844c-12.0869141-3.0615234-22.574707 5.8164063-22.8984375 18.4448242-.4106445 16.0551758 20.0375977 15.6015625 23.5595703 6.0771484.6079102-1.434082-1.7646484-2.7099609-2.7070313-1.0512695-2.2880859 3.8486328-15.6962891 10.8256836-14.7436523-7.5634766.9521485-18.3925781 17.0073243-14.5825195 16.1254883-10.3857421zm-71.9350586 16.2167968.6635742-5.5253906c-12.0869141-3.0576172-22.5742188 5.8203125-22.8979492 18.4453125-.4077148 16.0576172 20.0410156 15.6054688 23.559082 6.0761719.6079102-1.4331055-1.7646484-2.7055664-2.706543-1.046875-2.2841797 3.8457031-15.6962891 10.8212891-14.7436523-7.5668945.9521485-18.3925782 17.0107422-14.5791016 16.1254883-10.3823243zm-10.0239258 39.7509766c-3.4833984 4.2451172.3476563 6.2207031.3583984 6.2275391l.0419922.0214844c2.3833008 1.0898438 3.8452148-.9140625 4.0136719-1.1591797l33.5058594-40.2612305 32.637207 25.5014648c.2177734.2011719 2.0561523 1.8242188 4.1298828.2646484l.0351563-.0253906c.0068359-.0097656 3.2929688-2.7333984-.9770508-6.0966797-2.0913086-1.6484375-18.800293-14.5371094-31.7587891-24.5297852l12.3930664-14.8950195c6.6147461-3.3076172 9.9848633-6.8081055 9.9956055-6.8149414l.0317383-.0385742 11.7285156-13.7075195c1.3178711-1.5463867 1.4545898-2.9067383.8325195-4.2211914-.5620117-1.1914063-1.7714844-2.2705078-3.2719727-3.4018555-1.722168-1.2973633-3.1982422-2.1054688-4.597168-2.2041016-1.4833984-.1054688-2.7978516.5449219-4.0947266 2.1860352l-9.647949 11.9960938c-3.0927734 3.9082031-5.1625977 10.7299805-5.46875 11.7705078-.6328125.7553711-5.9853516 7.1176758-12.9692383 15.4223633l-10.3012695-7.9428711c-.5170898-.9423828-3.9682617-7.0961914-7.7851563-10.2172852l-9.7397461-7.9677734c-1.6025391-1.3076172-3.0083008-1.6591797-4.4174805-1.2441406-1.3325195.3930664-2.590332 1.4863281-3.9785156 3.1069336-1.2089844 1.4125977-2.1508789 2.7128906-2.4428711 3.9853516-.3232422 1.4023438.0986328 2.6884766 1.7011719 3.9013672l12.1079102 9.1801758.0419922.0283203c.0107422.0068359 4.0141602 2.6748047 11.1069336 4.4707031l9.644043 7.5317383c-13.794922 16.4106444-31.178711 37.0917968-32.8549806 39.1328124zm73.8857422-10.4238281c.0561523-.0498047.2988281-.2744141.4814453-.6396484l-72.7363281-56.260254c-1.0654297 1.2441406-1.8842773 2.3686523-2.112793 3.3666992-.2036133.8862305.1020508 1.7329102 1.2163086 2.5766602l12.1010742 9.1728516c.3652344.2358398 4.1962891 2.6577148 10.8217773 4.3129883l.1298828.0351563.1123048.0839843 47.4980469 37.1152344.0454102.0351563.0141602.0136719c.0034179.0039061 1.1352538 1.1357421 2.4287108.1874999zm-36.9990234-25.5561524-1.5400391-1.2016602-34.9921875 41.71875c.2568359.3242188.5449219.4921875.6118164.53125 1.4833984.6533203 2.3549805-.7070313 2.3583984-.7109375l.0102539-.0175781.0390625-.0449219zm2.5302734-6.055664 1.5322266 1.1772461 12.5126953-15.0395508.0913086-.1083984.1225586-.0600586c6.1791992-3.0717773 9.4370117-6.2910156 9.7431641-6.6040039l11.7211914-13.6967773c.9174805-1.0751953 1.0371094-1.9750977.6430664-2.8046875-.4423828-.9384766-1.4936523-1.8696289-2.8149414-2.8681641zm-15.4648437-20.7016602c-.0527344-.0698242-.1020508-.140625-.1542969-.2104492l-.0634766-.0883789c-.0458984-.0668945-.0913086-.1298828-.137207-.1967773l-.0805664-.1225586-.1162109-.1796875-.0805664-.1298828-.1088867-.1757813-.0703125-.1230469-.1264648-.2211914-.0424805-.0737305c-.0419922-.0849609-.0878906-.1689453-.1298828-.253418l-.0419922-.0805664-.1054688-.2075195-.0844727-.1791992-.0561523-.1269531c-.0317383-.0664063-.0600586-.1298828-.0878906-.1967773l-.0527344-.1191406c-.0317383-.0771484-.0634766-.1582031-.0952148-.2353516l-.0493164-.1196289c-.03125-.0805664-.0595703-.1582031-.0878906-.2392578l-.003418-.003418-.0419922-.1191406-.0771484-.2216797-.0175781-.0527344c-.2670898-.8046875-.4643555-1.6450195-.5874023-2.5058594l-.0170898-.1333008-.0317383-.25-.0039063-.03125c-.03125-.2568359-.0556641-.5097656-.0732422-.7666016v-.0244141c-.0073242-.0844727-.0107422-.1650391-.0146484-.2495117v-.0073242c-.1826172-3.6337891.840332-7.5668945 3.0581055-11.1201172l.0249023-.0385742c.2177734-.3447266.4458008-.6855469.6850586-1.0229492l.0283203-.0385742.0244141-.0385742.0283203-.0356445.0419922-.0595703.0844727-.1162109.027832-.0385742.0141602-.0170898.140625-.1899414.1020508-.137207.027832-.0351563c.0566406-.0742188.1162109-.1474609.1723633-.2182617v-.0029297l.0317383-.0356445.0170898-.0244141c.0776367-.0981445.1586914-.2006836.2431641-.2988281l.03125-.0419922c.0703125-.0844727.144043-.168457.2143555-.2495117l.0703125-.0844727.0703125-.0805664c.0776367-.0878906.1547852-.1757813.2358398-.2641602l.0102539-.0102539.0458984-.0527344c.0878906-.0947266.171875-.1860352.2563477-.2773438l.003418-.0039063.0351563-.0385742c.0878906-.0913086.1757813-.1826172.2641602-.2739258l.0454102-.0458984c.0913086-.0913086.1791992-.1791992.2705078-.2709961l.0141602-.0136719.0102539-.0068359.0107422-.0141602c.0913086-.0844727.1791992-.1723633.2705078-.2568359l.0737305-.0703125c.0844727-.0771484.1655273-.1542969.2495117-.2319336l.0668945-.0561523c.0810547-.0737305.1655273-.1474609.2495117-.2211914l.0952148-.0810547.0771484-.0703125h.003418l.1196289-.1020508.1933594-.1582031.144043-.1191406.2075195-.1616211.137207-.105957.1577148-.1225586.1547852-.1162109c.0917969-.0664063.1831055-.1333008.2744141-.1967773.1015625-.0737305.2036133-.1474609.309082-.2177734l.0664063-.0458984c.2075195-.140625.421875-.2807617.6333008-.4145508l.003418-.003418c3.7182617-2.3300781 7.8901367-3.2407227 11.6230469-2.5585938h.0068359c.4672852.0878906.9243164.1962891 1.3745117.3300781l.0068359.003418c1.3779297.4116211 2.6713867 1.0581055 3.8378906 1.9472656l.0039063.003418.0141602.0107422.03125.0244141.0102539.0073242.0141602.0136719h.003418l.0107422.0068359.003418.0039063.0141602.0107422.0039063.003418.0205078.0175781.0634766.0454102.0039063.0039063.0351563.03125.0102539.0073242.0209961.0175781c.0561523.0454102.112793.0908203.1689453.1367188l.0102539.0073242.0068359.0107422.0107422.0068359.0107422.0068359.027832.0249023.0385742.03125.0175781.0141602v.0039063l.0141602.0102539.0107422.0107422.1298828.1123047.1298828.1191406.0107422.0107422.003418.0039063.0180664.0141602v.003418l.0102539.0102539.0141602.0102539.0102539.0107422c.1020508.0952148.2041016.1933594.3022461.2919922 5.3564453 5.3564453 4.9736328 15.1552734-1.0473633 22.409668-1.746582 2.1049805-3.7851563 3.7709961-5.9433594 4.9731445l-.0068359.003418h-.003418l-.0107422.0068359-.0068359.0039063-.0073242.003418-.0776367.0424805-.0068359.003418-.0102539.0068359-.0068359.003418-.0073242.003418c-.0878906.0493164-.175293.0947266-.2636719.140625l-.0068359.0039063c-5.5073242 2.8886719-11.7495117 2.769043-16.0341797-.8754883-.6816415-.5795905-1.2827157-1.2192389-1.8066415-1.915528zm-1.5922852-9.7705078.0458984-.0913086 1.7573242.9907227 2.875-3.3071289-.3583984-4.175293-2.5058594.5092773.0454102-.703125c-1.0859375 2.2148438-1.7075195 4.5307617-1.859375 6.7768555zm10.6640625-15.7636719c.0175781.0317383.0175781.0703125-.0073242.1162109l-.1962891 2.3964844 3.8833008.7875977 3.4692383-2.4848633-.6679688-2.4956055.2602539-.0732422c-2.2358398.0488282-4.5483398.6464844-6.7412109 1.753418zm16.8564453 3.3813477.2353516.9208984-2.6855469.4951172-.1894531 4.84375 1.887207 1.2792969 2.0209961-1.5361328.7768555 1.1489258c-.0249024-2.6181641-.703125-5.0957032-2.0454102-7.1518555zm-.7172851 16.7192383-1.7011719.9555664-.5273438-1.4301758-3.1523438.8012695-2.3657227 4.7978516 1.6240234.6181641-.2988281.8125c1.6977539-1.0688477 3.293457-2.4536133 4.6884766-4.1337891.6469728-.7802735 1.2231447-1.5917969 1.7329103-2.4213867zm-15.503418 6.3579101c1.269043-.0209961 3.6835938-.2177734 6.3022461-1.2192383l2.5693359-5.2197266-3.1811523-1.8974609-4.7128906 1.6870117-3.3706055 4.2241211zm6.2773438-9.5141601 3.4301758 2.0493164-.1191406.2104492 3.6376953-.9243164c.5375977-.7592773 1.6132813-2.6884766 1.7431641-6.1118164l-2.4106445-1.6308594-.1196289-.0810547-4.2705078 1.578125zm1.4238281-6.1401368 4.6040039-1.6977539.1860352-4.7695313c-2.0839844-1.5463867-4.0698242-2.2597656-5.074707-2.5512695l-3.574707 2.5585938v4.6181641zm-5.159668-1.2373047v-5.0224609l-3.6240234-.734375c-.6113281.4428711-3.0224609 2.2495117-4.6845703 4.2524414l.3896484 4.5800781 3.7504883.3476563zm-7.9575195 4.3935547-.0493164.0527344-3.1137695 3.5844727c.0703125.9321289.3974609 3.2094727 1.8276367 5.1987305l3.2651367.5517578-.0175781-.0141602 3.6694336-4.6005859-2.6640625-4.5024414z" fill="#fff"/></g></svg>