<svg height="234" viewBox="13.4975586 9 185 234" width="185" xmlns="http://www.w3.org/2000/svg" xmlns:xlink="http://www.w3.org/1999/xlink"><clipPath id="a"><path d="m0 0h212v254h-212z"/></clipPath><g fill="#00544d"><path clip-path="url(#a)" d="m106 242.31c50.814 0 92.041-41.177 92.041-91.94 0-50.714-41.227-91.89-92.041-91.89s-92.042 41.176-92.042 91.89c-.002 50.77 41.225 91.94 92.042 91.94"/><path clip-path="url(#a)" d="m106 238.58c48.695 0 88.206-39.511 88.206-88.206 0-48.645-39.511-88.156-88.206-88.156-48.694 0-88.206 39.511-88.206 88.156-.002 48.7 39.509 88.21 88.206 88.21" fill="#fff"/><path clip-path="url(#a)" d="m106 235.1c46.777 0 84.674-37.946 84.674-84.724 0-46.728-37.896-84.624-84.674-84.624s-84.674 37.896-84.674 84.624c-.002 46.77 37.894 84.72 84.674 84.72"/><path clip-path="url(#a)" d="m106 212.74c34.415 0 62.37-27.905 62.37-62.37 0-34.415-27.955-62.32-62.37-62.32-34.414 0-62.37 27.905-62.37 62.32-.003 34.47 27.953 62.37 62.37 62.37" fill="#fff"/><path clip-path="url(#a)" d="m106 209.61c32.699 0 59.241-26.492 59.241-59.241 0-32.649-26.542-59.191-59.241-59.191s-59.241 26.542-59.241 59.191c-.003 32.75 26.54 59.24 59.241 59.24"/></g><g fill="#fff"><path clip-path="url(#a)" d="m144.8 146.13c-.050781-5.7012-2.2207-8.8301-6.1055-8.8301-4.29 0-6.5098 4.541-6.5098 13.473 0 4.0371.35352 8.5283 2.7246 10.95 1.0596 1.0596 2.4727 1.6152 4.1895 1.6152 3.3301 0 5.7012-2.9268 6.2559-7.7207l6.0059.40332c-.75684 8.2754-5.501 13.17-12.666 13.17-3.2803 0-6.1064-1.1094-8.377-3.3799-3.2793-3.2803-5.1973-8.9316-5.1973-15.441 0-6.46 1.918-12.061 5.1973-15.391 2.3213-2.2705 5.1973-3.4316 8.6289-3.4316 7.3672 0 11.556 4.6934 12.414 14.028l-6.55.55z"/><path clip-path="url(#a)" d="m104.38 141.95v5.6h7.98v4.64h-7.98v9.64h-4.892v-24.68h14.882v4.8z"/><path clip-path="url(#a)" d="m80.312 146.13c-.10059-5.7012-2.2197-8.8301-6.106-8.8301-4.2881 0-6.5088 4.541-6.5088 13.473 0 4.0371.35303 8.5283 2.7246 10.95 1.0601 1.0596 2.4727 1.6152 4.1885 1.6152 3.3301 0 5.7017-2.9268 6.2573-7.7207l6.0049.40332c-.80762 8.2754-5.5005 13.17-12.667 13.17-3.2793 0-6.105-1.1094-8.376-3.3799-3.2803-3.2803-5.1973-8.9316-5.1973-15.441 0-6.46 1.917-12.061 5.1973-15.391 2.3213-2.2705 5.1973-3.4316 8.6289-3.4316 7.3677 0 11.505 4.6934 12.414 14.028l-6.56.55z"/><path clip-path="url(#a)" d="m180.98 175.91v-1.918c.4043-.10059.75684-.30273 1.1104-.65527.55469-.50488.70703-1.2109.9082-1.918l.90918-3.2793-2.9277-.80762v-1.9688l4.8945 1.3125-1.4629 5.5508c-.30273 1.1104-.60547 2.0186-1.5137 2.8262-.55.46-1.21.76-1.92.87m0-15.95v-1.6143l6.0557.40332-.10059 1.5645-5.96-.35zm0-8.58v-1.917l6.6104.40332-.15137 1.918-6.46-.4zm0-12.36v-1.917l5.3496-.70703.25195 1.9189-5.6.71zm0-6.51v-2.2207c1.2109-.95898 1.9678-2.2705 1.4131-4.0366-.30273-.85791-.80762-1.4634-1.4131-1.8667v-2.0693c1.3125.65625 2.3721 1.8169 2.9775 3.583.91 2.89-.5 5.21-2.98 6.62m0-10.19v2.0693c-1.6143-1.0093-3.9863-.75732-5.7529-.15186-.25195.050781-.55469.15186-.80664.25244v-2.1699c.10059-.050781.20117-.10059.30273-.15088 2.18-.66 4.45-.71 6.26.15m0 7.97v2.2207l-.85742-1.6143c.31-.16.56-.36.86-.61m0 6.81v1.917l-6.5596.80762v-1.917l6.56-.81zm0 12.36v1.917l-3.0781-.20117c-.9082-.050781-2.1699-.10156-2.9775.40332-.20117.10059-.35254.25293-.50391.40332v-2.2705c1.1094-.50488 2.3213-.50488 3.583-.40332l2.98.15zm0 8.89v1.6143l-3.6328-.20117c-1.0596-.10156-2.0186-.20215-2.9268-.60547v-1.9678l.050781.049805c.80664.80762 1.9678.8584 2.9766.9082l3.53.21zm0 7.01v1.9688l-1.8672-.50488-.75586 2.8262c-.25293.9082-.55566 1.917-.15234 2.8252.25195.70703.95898 1.2617 1.665 1.4131.4043.15137.75684.15137 1.1104.10059v1.918c-.4541.050781-.9082 0-1.3623-.10156-1.665-.4541-2.6748-1.7656-2.624-3.4814-.55469 1.0596-1.5137 1.8174-2.5732 2.0693v-1.8164c.40332-.10156.80664-.25293 1.1602-.50488.75684-.55469 1.0098-1.4639 1.2109-2.3213l.9082-3.3301-3.2793-.8584v-2.0176l6.56 1.8zm-6.56-31.08v-1.7148c.25195 0 .55469 0 .85742-.050781l.15137 1.7656c-.35.04-.7.04-1.01-.01m0-11.96v2.1699c-.95898.40332-1.918.9082-2.624 1.5137-1.0596.95898-1.7666 2.4219-1.2617 3.9355.60547 1.918 2.1699 2.5742 3.8857 2.625v1.7148c-2.5234-.049805-4.542-1.1602-5.3994-3.835-1.32-4.09 1.91-6.96 5.39-8.12m0 15.59v1.917l-1.2617.15137.9082 7.0146-1.7158.20215-1.0596-8.8809 3.13-.4zm0 11.81v2.2705c-.60547.65625-.80762 1.665-.8584 2.4727-.049805.95898.15234 2.0186.8584 2.7256v1.9678c-.4043-.20215-.75684-.4541-1.1104-.75684-1.1611-1.1104-1.5137-2.624-1.4131-4.1885.10059-1.4629.50488-3.0273 1.7158-3.9863.25-.2.5-.35.8-.5m0 13.82v2.0176l-2.1191-.60547-.95898 3.583c-.20215.80664-.4043 1.7666-.050781 2.5225.30273.75781.95898 1.2617 1.7158 1.4639.4541.10156.95898.15137 1.4131.050781v1.8164c-.60547.15137-1.3125.10059-1.9688-.050781-1.2607-.35352-2.2197-1.0596-2.7246-2.2705-.60547-1.3623-.35352-2.5234.050781-3.835l1.4629-5.5508 3.18.87zm-12.92 35.83v-5.5498c.15234-.050781.30371-.050781.50488-.050781 1.5645 0 2.8262 1.2617 2.8262 2.8262s-1.2617 2.8262-2.8262 2.8262c-.19-.01-.34-.01-.5-.06m0-85.33v-3.0273l3.8359 5.7021-1.4131.95898-2.43-3.63zm0-3.23v-2.271l9.9922-6.7617 1.1104 1.5645-11.1 7.47zm0-15.289v-2.624l1.2119-1.1606 1.3115 1.3628-2.52 2.422zm0-2.624v2.624l-7.3164 6.8633 4.8447 5.0962-1.2109 1.1606-4.1377-4.3901v-3.9868l7.83-7.363zm0 15.643-2.5732 1.7158 2.5732 3.7847v-3.0273l-.10059-.15137.10059-.050781v-2.27zm0 85.28v5.5498c-1.3115-.25195-2.3213-1.4121-2.3213-2.7744 0-1.42 1.01-2.53 2.32-2.78m-7.82-102.28v-6.9639l.20117-.20166 1.7656 1.312-1.97 5.854zm0-6.964v6.9639l-1.1104 3.2793v-5.7515l.85742-2.5229-.85742.65625v-1.8679l1.11-.75712zm0 15.689v3.9868l-1.1104-1.2114v-1.7153l1.11-1.06zm-1.11-14.932v1.8677l-2.2715 1.564v-1.8164l2.27-1.616zm0 3.734v5.752l-2.0693 6.0054-.20215-.20166v-5.147l.10156-.30273-.10156-.050781v-1.8164l.60645.4541 1.66-4.695zm0 12.258v1.7153l-.9082-.90771.91-.81zm-2.27-14.377v1.8164l-3.1279 2.2202 3.1279 2.3213v1.8164l-4.3896-3.2798-2.9775 2.1196v-1.8154l7.37-5.1976zm0 8.528v5.147l-1.3623-.95898 1.36-4.19zm-7.36 124.84v-2.7764l3.7344 3.9365-1.7666.80762-1.96-1.97zm0-14.58v-1.3623l.75684.55469-.76.81zm0-121.46v-2.5732c.20215-.55518.20215-1.0596 0-1.5645v-2.4727c.60547.40332 1.1611.80762 1.5645 1.5137.60547 1.0601.65625 2.271.15137 3.3813-.4.806-1.01 1.412-1.71 1.715m0-6.611v2.4727c-.049805-.15186-.15137-.30322-.25195-.4541-.4043-.65576-1.0596-.95898-1.7158-1.2617l-3.0781-1.5132-1.3125 2.6743v-4.3398l.25293-.55518 5.1475 2.5229c.35.151.65.303.96.454m0 4.037v2.5732c-.65625.30273-1.4131.35352-2.2197.20215v.050293c1.5137 1.1606 2.0186 3.0781 1.1602 4.7939-.55469 1.1602-1.4629 1.9673-2.7246 2.27-.95898.20215-1.7666.05127-2.5742-.25146v-1.7163c.60547.20166 1.2617.35352 1.8682.20166.80664-.15088 1.4121-.65576 1.7656-1.4121.35352-.80762.40332-1.8169 0-2.5737-.40332-.85791-1.2617-1.2617-2.0186-1.665l-1.6152-.75732v-1.6147l1.7666.85791c.85742.40332 1.8164.85791 2.7754.65576.75684-.10059 1.4131-.70605 1.7158-1.3623.03-.051.03-.152.08-.253m0 10.446v1.8169l-.76.604-1.3115-.9585 2.07-1.463zm0 112.23v1.3623l-2.6748 3.0791-.75684-.60645 2.877-4.2891.55.46zm0 13.17v2.7725l-1.3115-1.3633-5.0469 2.4229v-1.6152l4.0371-1.917-4.0371-4.2891v-2.6748l6.36 6.67zm-6.36 8.73v-4.6934l.65625 4.3906-.66.3zm0-151.03v4.3398l-.85742 1.7661.85742.45361v1.6147l-1.5137-.75684-2.4219 5.0459 3.3301 1.6152c.20215.10107.4043.20166.60547.30225v1.7163c-.40332-.10156-.80664-.30322-1.2109-.50488l-5.1465-2.4727 6.35-13.119zm0 135.64v2.6748l-1.2109-1.2617 1.0605 7.5684.15039-.10059v1.6152h-.049805l.049805.20117v4.6934l-.75684.35352-2.1191-15.795 1.9678-.95898.91 1.02zm-26.8 16.65v-1.4639l2.3223-.10059-2.3223-6.207v-3.0273h.80762l5.7021 14.886-1.917.10156-1.7666-4.3398-2.82.15zm0-147.4v-7.5186c.45508 1.0596.65625 2.2705.70703 3.4814 0 1.313-.2 2.726-.71 4.038m6.21 4.592 2.2705-13.321-4.2881-.75732.30176-1.6147 10.345 1.7158-.25195 1.665-4.2393-.70605-2.2705 13.321-1.87-.303zm13.82 143.87-10.747-10.95 3.2285 12.817-1.5137.40332-3.7344-14.685 2.3213-.60449 9.9912 10.243-3.0273-12.01 1.5645-.40332 3.6836 14.734-1.76.45zm-20.03-155.98v7.5186c-.85742 2.2202-2.5732 3.9863-5.2979 4.0371h-.20166v-1.5142h.15088c3.2305-.10059 4.1387-3.835 4.0371-6.4082 0-1.3628-.25195-2.9272-.95898-4.1382-.70605-1.1606-1.8164-1.9678-3.229-1.9678v-1.5645c2.78-.001 4.59 1.765 5.5 4.036m0 144.12v3.0273l-.35254-.95801-1.9678 7.417 2.3203-.15137v1.4639l-2.7744.15137-1.0601 4.4404-1.6147.10059 4.0879-15.391 1.35-.1zm-5.5-148.16v1.5645h-.050781c-3.3809.10059-4.2388 3.7339-4.188 6.459.049805 2.5732 1.1602 6.0049 4.2388 6.0552v1.5142c-4.189 0-6.1567-3.7847-6.207-7.519-.10107-3.7847 1.6655-7.9727 6.0557-8.0737h.15223zm-7.87 156.28v-1.5645c.9585.15234 1.7656.15234 2.624-.50391.55469-.4541.90771-1.1104 1.0093-1.8672.15088-.8584-.10156-1.6152-.75684-2.2207-.60596-.55469-1.2114-.65625-2.0186-.75684l-.85791-.10059v-1.666l1.0596.15137c1.2617.15234 2.4219.50488 3.3306 1.3633.9082.9082 1.312 2.2705 1.1099 3.5322-.20166 1.7656-1.5137 3.2295-3.3301 3.4814l2.0181 7.3672-1.9678-.25195-1.8672-6.9131-.355-.05zm0-8.68v1.666l-2.8765-.4043-.75684 5.3496 3.5322.50391h.10107v1.5645l-3.8354-.50391-.9082 6.5088-1.8672-.25293 2.0693-15.036 4.541.6zm-7.771-129.98v-1.6147c.4541.050781.95801.050781 1.4629-.10059 3.1797-.75684 3.2803-4.5923 2.6748-7.1152-.35352-1.312-.9082-2.7754-1.8672-3.7847-.60547-.70654-1.4126-1.1606-2.2705-1.312v-1.614c3.1787.20215 5.2983 3.0786 6.0557 6.1562.85742 3.583 0 8.1748-4.1885 9.1841-.658.152-1.263.202-1.869.202m0-15.542v1.6147c-.45459-.050293-.9082-.050293-1.3623.050293-3.3311.80762-3.3813 4.5928-2.7251 7.2158.50439 2.1196 1.8667 4.6431 4.0874 5.0464v1.6147c-3.1792-.20166-5.2988-3.0776-6.0557-6.207-.85742-3.6836 0-8.124 4.2388-9.1836.656-.151 1.262-.201 1.817-.151m-7.115 153.05v-1.5645l2.1694.75684.10107-7.6201-2.2705 3.0283v-2.4727l2.0684-2.7754 2.0688.70605-.15137 15.945-1.8667-.65527-.050781-4.6426-2.068-.71zm0-7.87v2.4727l-2.271 3.0781 2.271.75684v1.5645l-3.23-1.1104-2.1191 2.9775v-2.5234l5.349-7.22zm-5.349 1.62c.60547-.40332 1.1104-1.0088 1.4629-1.665.60596-1.1104.75684-2.624.30322-3.835-.4043-.8584-1.0093-1.5137-1.7661-2.0186v2.4219c.25195.70703.20166 1.4131 0 2.0693v3.0255zm0-126.51v-3.2798l1.2109 2.7251-1.211.555zm0-7.872v-1.6646l3.2295-1.4634.60547 1.4131-3.834 1.715zm0-6.963v-1.7661l1.7153-.80713.70654 1.5137-2.422 1.059zm0-1.766v1.7658l-3.583 1.6147v-1.8164l3.583-1.564zm0 7.065v1.6646l-1.7158.75732 1.7158 3.835v3.2798l-.50488.25293-3.0781-6.7622v-4.6426l1.2114 2.6748 2.372-1.06zm0 128.53v2.4219c-.050781 0-.050781-.049805-.050781-.049805-.35303-.75684-.85742-1.1104-1.564-1.4639l-1.9683-1.0596v-1.77l2.5732 1.3115c.354.2.657.4 1.01.61m0 4.49v3.0273c-.40381.25293-.80762.45508-1.2114.55566-.80713.25195-1.6147.20117-2.3716 0v-1.666c.50439.15234 1.0596.20215 1.6147.050781.75684-.25195 1.3628-.80664 1.7158-1.4629.101-.16.151-.36.252-.51m0 8.63v2.5234l-.55518.75684-1.514-.51 2.069-2.77zm-3.583-147.15v1.8164l-.75684.35303.75684 1.7158v4.6426l-3.1787-7.0645 3.179-1.464zm0 132.11v1.7656l-.95898-.50391-2.7246 5.1465 2.8262 1.5137c.30273.15137.60498.30273.85742.40332v1.666c-.4541-.15137-.95898-.35352-1.4126-.60547l-3.0278-1.5645-2.876 5.4492-1.6655-.9082 7.0645-13.422 1.92 1.05zm-16.652-101.38v-4.7432c.50488.65576.80811 1.4629.75684 2.3213 0 .96-.303 1.72-.757 2.42m0-11.502 3.1289 7.8716 1.2109-1.0088-1.7656-4.2383 4.3389-3.5825 3.9868 2.4214 1.5137-1.2617-12.414-7.8213v2.1699l5.6519 3.6333-3.5825 2.9775-2.0693-5.1475v3.9877zm0-7.62v2.1699l-.75684-.50488.75684 1.9683v3.9863l-1.0093-2.4727v-5.8032l1.009.657zm0 14.382v4.7432c-.25195.35303-.55518.70654-.85742 1.1104l-.15186.20166v-7.0649c.10107.050781.15186.15186.25244.20215.253.25.555.51.757.81m-1.009-15.038v5.8032l-.9082-2.3213v-2.8257l.80762-.70654.1.051zm0 14.028v7.0649l-.9082 1.1099v-2.5732c.45459-.55469.80762-1.2617.80762-1.9678.050293-.75732-.25244-1.4131-.80762-1.918v-2.2197c.303.16.605.31.908.51m-.909-13.372v2.8257l-.85791-2.1191.858-.707zm0 12.872v2.2197c-.050293-.050293-.10059-.10059-.15088-.10059-.70703-.60547-1.6655-.85791-2.5234-.65625-.9082.20215-1.5142.9082-2.0688 1.6147l-.9082 1.1099v-2.3213c.40381-.55469.75684-1.1602.75684-1.8159.050293-.70654-.25244-1.4131-.75684-1.8677v-2.27c.30273.10059.60547.30225.85791.50391 1.312 1.1104 1.665 2.7251.9082 4.2393l.050293.050293c1.161-.96 2.574-1.158 3.835-.7m0 6.1v2.5732l-2.5229 3.0786-3.1284-2.5234v-2.4722l3.0781 2.5225 2.3213-2.876c.102-.1.152-.2.252-.3m-5.651 92.95v-5.6523h.15137c1.564 0 2.8257 1.2617 2.8257 2.8262s-1.2617 2.8262-2.8257 2.8262h-.15091zm0-82.7v-2.2202l1.2612.75635-1.0093 1.6655-.252-.21zm-7.721 48.19c.70605.65625 1.2109 1.5146 1.5142 2.624.65576 2.2715-.10107 4.1377-1.5142 5.5518v-3.4316c.15137-.50488.15137-1.0596 0-1.6152v-3.1247zm7.721-68.631v2.27c-.050781-.050293-.10107-.10059-.15137-.15088-.70654-.55518-1.4126-.70654-2.271-.4043-.70605.25244-1.1602.80762-1.6152 1.3633l-2.1689 2.6743 3.8345 3.1284 1.8672-2.271c.15186-.20166.35352-.40332.50488-.65625v2.3213l-1.2617 1.5649 1.2617 1.0093v2.4722l-7.7207-6.3076v-1.905l2.7251-3.2798c.75684-.9082 1.3623-1.6152 2.5229-1.9683.857-.252 1.715-.202 2.472.152m0 18.221v2.2202l-7.7207-4.6431v-2.2197l7.721 4.64zm0 79.27v5.6523c-1.5142-.10156-2.6743-1.3125-2.6743-2.8262s1.16-2.77 2.674-2.82m-7.721-56.97v-1.8672l.55469-.15137-.30273 1.9678-.252.05zm0-5.1v-1.9678l2.0181.60547-.50391 1.8164-1.514-.46zm0-9.23v-2.0688l5.0464 2.2207-.80811 1.7153-4.238-1.87zm-4.743 40.97c1.8672-.050781 3.5835.35254 4.7437 1.4629v3.1289-.049805c-.60547-2.2715-2.5732-2.8262-4.6426-2.7764l-.101-1.76zm4.743 9.64c-1.1602 1.21-2.8257 2.0684-4.4912 2.5225-1.312.35352-2.6743.50488-3.936.35352v-2.0125c1.1606.10156 2.4727-.099609 3.5327-.40234 1.1602-.30273 2.5229-.8584 3.4312-1.666.70605-.60547 1.2612-1.3623 1.4634-2.2197v3.4311zm0-71.7v1.9175l-.9082-.75684.908-1.16zm0 8.47v2.2197l-4.9956-3.0273.95898-1.6143 4.037 2.42zm0 10.55v2.0688l-8.0737-3.5825-.35352.70605v-4.0874l1.3125-2.9766 1.5137.65527-1.7158 3.9365 7.318 3.27zm0 9.33v1.9678l-8.4272-2.5234v-1.9678l8.427 2.52zm0 5.2v1.8672l-6.6606 1.7656-.60596 4.1895 6.5093.9082-.25195 1.917-7.418-1.1104v-4.3896l.15137-1.1104c.15186-.80762.20215-1.5137-.15137-2.2207v-2.6748c.8584.60645 1.4634 1.5146 1.6152 2.625l6.813-1.79zm-8.427 26.14v-2.0176h.40381c2.5737-.15234 6.0552-1.4131 5.854-4.6426-.20215-3.0781-3.6841-3.9365-6.2578-3.8359v-1.9668c3.583-.050781 7.519 1.6143 7.7715 5.7012.30273 4.3398-3.4819 6.5098-7.2666 6.7119-.201.06-.352.06-.504.06m0 14.89c-2.3716-.30273-4.3901-1.666-5.1465-4.4404-.80762-2.9268.70605-5.1982 3.2295-6.5098l.80713 1.6143c-1.7163 1.0098-3.0781 2.3721-2.4727 4.542.50439 1.8672 1.9678 2.5732 3.5825 2.7744v2.027zm0-60.46v4.0874l-1.4126 3.2295-1.5137-.65527 2.927-6.66zm0 11.71v1.9678l-4.6426-1.3613.556-1.82 4.087 1.21zm0 6.86v2.6748c-.049805-.15137-.15088-.30273-.30273-.4541-.4541-.60547-1.1099-.95898-1.8667-1.0596-.85791-.15137-1.6147.10059-2.2207.75684-.55518.55566-.65576 1.2119-.75635 2.0186l-.55518 3.7344 5.3486.75684.35303-2.4219v4.3896l-7.6196-1.1104.85791-5.6006c.15137-1.2109.50439-2.3721 1.4131-3.2803.9082-.9082 2.2202-1.3115 3.4819-1.1104.706.1 1.362.35 1.867.7m0 14.54v1.9668h-.30273c-1.3623.10156-2.9263.4043-4.0874 1.1611-1.1602.75684-1.9175 1.9678-1.8164 3.3809.15137 3.2295 3.5327 4.0371 6.2065 3.9365v2.0176c-3.6328.050781-7.5186-1.6143-7.771-5.8027-.050781 0-.050781-.050781-.050781-.10059v-.55469c.15186-3.8359 3.7344-5.8037 7.2671-6.0049h.55414z"/><path clip-path="url(#a)" d="m93.635 97.994c-9.9912 5.8032-19.932 22.657-20.941 24.373-1.0601 1.7158-9.9917-6.6611-8.8315-8.3765 4.3398-6.5601 13.12-13.019 20.639-15.744 6.762-2.421 11.556-1.967 9.134-.252"/><path clip-path="url(#a)" d="m98.328 101.27c-5.9038 8.1245-10.345 25.281-10.85 27.199-.50439 1.9678-12.414-2.4727-11.656-4.5918.80762-2.1699 3.5327-7.3169 7.8721-13.12 2.5732-3.4814 7.8218-9.4868 11.959-11.505 2.119-1.059 4.747-.756 2.675 2.015"/><path clip-path="url(#a)" d="m104.84 130.54c0 2.2197-14.634.85742-14.281-1.666.35352-2.4722 4.2393-20.083 10.547-27.854.40381-.50488.60547-.75684 1.1602-1.1606.90869-.70654 2.3218-.050781 2.271 1.1606.3 10.3.3 27.25.3 29.52"/><path clip-path="url(#a)" d="m93.635 202.35c-9.9912-5.8535-19.932-22.657-20.941-24.372-1.0601-1.7158-9.9917 6.6104-8.8315 8.3252 4.3398 6.5605 13.12 13.02 20.639 15.744 6.762 2.47 11.556 1.96 9.134.3"/><path clip-path="url(#a)" d="m98.328 199.07c-5.9038-8.125-10.345-25.332-10.85-27.3-.50439-1.917-12.414 2.5732-11.656 4.6924.80762 2.1201 3.5327 7.3174 7.8721 13.12 2.5732 3.4824 7.8218 9.4873 11.959 11.506 2.119 1.06 4.747.75 2.675-2.02"/><path clip-path="url(#a)" d="m104.84 169.75c0-2.2705-14.634-.85742-14.281 1.6152.35352 2.5225 4.2393 20.184 10.547 27.955.40381.4541.60547.75684 1.1602 1.1602.90869.65625 2.3721.20215 2.271-.60547.3-10.29.3-27.9.3-30.12"/><path clip-path="url(#a)" d="m118.51 202.35c9.9912-5.8535 19.933-22.657 20.941-24.372 1.0596-1.7158 9.9912 6.6104 8.8809 8.3252-4.3398 6.5605-13.171 13.02-20.639 15.744-6.81 2.47-11.6 1.96-9.18.3"/><path clip-path="url(#a)" d="m113.82 199.07c5.9541-8.125 10.345-25.332 10.85-27.3.50488-1.917 12.413 2.5732 11.656 4.6924-.75684 2.1201-3.5322 7.3174-7.8711 13.12-2.5742 3.4824-7.8223 9.4873-11.96 11.506-2.13 1.06-4.75.75-2.68-2.02"/><path clip-path="url(#a)" d="m107.31 169.75c0-2.2705 14.634-.85742 14.28 1.6152-.35352 2.5225-4.2393 20.184-10.547 27.955-.35254.4541-.60547.75684-1.1104 1.1602-.95801.65625-2.3711.20215-2.3203-.60547-.3-10.29-.3-27.9-.3-30.12"/><path clip-path="url(#a)" d="m118.26 97.994c9.9414 5.8032 19.933 22.657 20.941 24.373 1.0596 1.7158 9.9912-6.6611 8.8311-8.3765-4.3398-6.5601-13.12-13.019-20.639-15.744-6.76-2.421-11.55-1.967-9.13-.252"/><path clip-path="url(#a)" d="m113.57 101.27c5.9033 8.1245 10.344 25.281 10.849 27.199.50488 1.9678 12.414-2.4727 11.657-4.5918-.80762-2.1699-3.5322-7.3169-7.8721-13.12-2.5732-3.4814-7.8213-9.4868-11.959-11.505-2.13-1.059-4.75-.756-2.68 2.015"/><path clip-path="url(#a)" d="m107.06 130.54c0 2.2197 14.634.85742 14.28-1.666-.35254-2.4722-4.2383-20.083-10.546-27.854-.40332-.50488-.60547-.75684-1.1611-1.1606-.9082-.70654-2.3203-.050781-2.2705 1.1606-.3 10.3-.3 27.25-.3 29.52"/><path clip-path="url(#a)" d="m106 9.687 4.89 13.877 14.69.353-11.71 8.932 4.19 14.079-12.06-8.326-12.062 8.326 4.187-14.079-11.707-8.932 14.682-.353z" fill="#fad716"/></g></svg>