<svg height="237.78" viewBox="0 0 200 237.777" width="200" xmlns="http://www.w3.org/2000/svg"><path d="m-34.517 58.935a19.724 30.155 0 1 1 -39.448 0 19.724 30.155 0 1 1 39.448 0z" fill="#fff" transform="matrix(4.9685352 0 0 3.2498595 369.39656 -52.890882)"/><path d="m19.636 66.393c-3.405-1.27-6.07-3.462-7.923-6.223-1.825-2.713-2.8549-5.965-3.0265-9.41-.2906-5.865 1.9145-12.334 6.9515-17.638l.04682-.04961.15116-.12323.01753-.01386s30.043-19.722 46.148-24.654c41.808-12.628 87.508-3.5314 123.46 25.832l.016.007c6.4208 5.3365 8.5818 11.389 7.8542 16.858-.39289 2.9602-1.6432 5.7328-3.5253 8.1173-1.8645 2.3643-4.3512 4.3433-7.2407 5.7402-6.1029 2.9519-14.046 1.7494-21.297 1.5583z" fill="#fff"/><g fill="#fe1108"><path d="m100 39.55c27.531 0 52.529 11.13 70.647 29.085 18.12 17.955 29.35 42.735 29.35 70.025v.001c0 27.296-11.233 52.075-29.353 70.029-18.118 17.953-43.116 29.085-70.646 29.085h-.001c-27.53 0-52.528-11.132-70.646-29.085-18.119-17.96-29.353-42.74-29.353-70.04v-.003c0-27.293 11.234-52.072 29.353-70.027 18.118-17.952 43.115-29.082 70.647-29.083zm0 4.166h-.002c-26.398 0-50.358 10.664-67.716 27.864-17.356 17.198-28.115 40.94-28.115 67.08v.003c0 26.147 10.759 49.883 28.115 67.082 17.358 17.21 41.318 27.87 67.717 27.87h.003c26.399 0 50.359-10.664 67.716-27.863s28.116-40.937 28.116-67.084v-.001c0-26.147-10.76-49.883-28.116-67.082-17.36-17.208-41.32-27.872-67.72-27.872z"/><path d="m6.769 143.18c.552 59.901 127.62 94.023 139.99 20.494l41.663 14.639c-22.133 51.133-81.746 70.86-131.24 47.681-46.003-22.794-68.987-74.657-47.08-126.73l64.101-4.183c-4.93 20.356-13.202 34.577-23.688 46.007l-43.744 2.1z"/><path d="m190.5 176.22c-18.887-8.854-37.774-16.383-56.661-23.005-7.499-17.427-7.221-34.854.833-52.282 20.415 4.949 40.83 10.944 61.243 19.239 3.76 20.9 1.95 39.59-5.41 56.04z"/><path d="m121.34 44.051c13.887 3.485 27.22 9.759 39.996 18.821-28.748 19.937-42.913 50.609-29.998 91.18-12.352 7.545-25.422 8.956-39.995 9.473-6.685-43 2.239-84.315 29.995-119.47z"/><path d="m75.888 44.062v.003c1.054 5.268 1.774 10.423 2.168 15.46.394 5.051.464 10.032.216 14.94-1.25 24.658-10.596 46.952-27.487 66.284 4.813 5.924 10.51 10.378 17.208 13.464 7.24 3.338 15.692 5.097 25.499 5.403l-.131 3.901c-.808-.025-1.608.205-2.4.16-9.347-.525-17.542-2.386-24.709-5.689-7.821-3.604-14.377-8.91-19.829-16.062l-1.049-1.375 1.146-1.277c16.974-18.911 26.358-40.784 27.586-65.005.238-4.705.167-9.518-.216-14.436-.385-4.931-1.08-9.918-2.087-14.956v-.003l4.085-.798z"/><path d="m92.985 51.681c2.213 0 4.016 1.804 4.016 4.017s-1.803 4.017-4.016 4.017c-2.212 0-4.017-1.804-4.017-4.017s1.805-4.017 4.017-4.017z"/><path d="m86.214 76.397c2.212 0 4.017 1.805 4.017 4.017s-1.804 4.016-4.017 4.016-4.017-1.804-4.017-4.016 1.805-4.017 4.017-4.017z"/><path d="m79.905 109.77c2.212 0 4.017 1.804 4.017 4.016 0 2.213-1.804 4.017-4.017 4.017-2.212 0-4.017-1.804-4.017-4.017.001-2.22 1.805-4.02 4.017-4.02z"/></g><g fill="#fff"><path d="m113.14 111c2.213 0 4.016 1.804 4.016 4.017 0 2.211-1.803 4.016-4.016 4.016-2.212 0-4.017-1.805-4.017-4.016.01-2.21 1.81-4.02 4.02-4.02z"/><path d="m127.61 79.797c2.211 0 4.016 1.803 4.016 4.016 0 2.212-1.805 4.017-4.016 4.017-2.213 0-4.018-1.805-4.018-4.017s1.81-4.016 4.02-4.016z"/><path d="m133.92 58.324c2.212 0 4.017 1.804 4.017 4.017 0 2.211-1.805 4.016-4.017 4.016-2.211 0-4.016-1.804-4.016-4.016 0-2.213 1.81-4.017 4.02-4.017z"/><path d="m95.277 57.552c12.452-1.442 24.171 1.029 35.392 6.179l2.309-4.325c-12.322-6.25-25.018-8.58-38.161-6.18l.458 4.326z"/><path d="m89.195 82.123c12.309-2.374 24.181-.791 35.758 3.5l1.975-4.486c-12.757-5.306-25.591-6.675-38.518-3.292l.793 4.278z"/><path d="m80.886 116.26c12.46.755 20.488.716 31.91 1.029l.283-4.951c-13.861-.323-19.976-.379-32.055-.82l-.139 4.74z"/></g><g fill="#fe1108"><path d="m88.031 77.72c4.326-1.235 9.233-1.819 13.953-1.868l-2.325 5.368c-3.49-.046-7.519.419-11.009 1.008l-.615-4.508z"/><path d="m91.184 111.75-.723 4.967-9.854-.353.165-5.118c.001 0 10.378.47 10.412.5z"/><path d="m94.755 53.175c6.516-1.177 13.25-1.288 20.011-.142l-3.247 4.819c-5.436-.818-10.871-.736-16.307-.086l-.458-4.591z"/><path d="m35.873 68.146c-7.306 2.946-13.455 2.959-18.225 1.073-3.492-1.381-6.224-3.765-8.125-6.767-1.871-2.951-2.927-6.487-3.103-10.233-.298-6.378 1.963-13.412 7.128-19.18l.048-.054.155-.134.018-.015c7.309-6.285 14.971-11.654 22.886-16.116 7.912-4.459 16.093-8.02 24.436-10.693 42.87-13.733 89.733-3.841 126.6 28.089l.016.007c6.584 5.803 8.8 12.385 8.054 18.332-.403 3.219-1.685 6.234-3.615 8.827-1.912 2.571-4.462 4.723-7.425 6.242-6.258 3.21-14.39 3.641-22.303-.736l2.001-3.646c6.574 3.637 13.281 3.304 18.414.672 2.401-1.231 4.452-2.957 5.977-5.004 1.508-2.024 2.505-4.368 2.816-6.859.587-4.671-1.253-9.931-6.669-14.702l.004-.003c-35.74-30.949-81.12-40.552-122.6-27.265-8.059 2.582-15.983 6.034-23.673 10.37-7.639 4.306-15.031 9.478-22.08 15.524-4.361 4.898-6.272 10.818-6.023 16.166.142 3.028.978 5.856 2.451 8.182 1.443 2.276 3.507 4.081 6.141 5.124 3.84 1.519 8.931 1.45 15.149-1.057l1.547 3.856z"/><path d="m58.261 34.745-1.653-4.543 9.619-3.5 3.911 10.744c-.555 1.493-1.572 2.979-3.052 4.442-1.477 1.469-3.114 2.531-4.899 3.181-2.184.794-4.308.958-6.361.496-2.054-.465-3.967-1.593-5.72-3.378-1.752-1.784-3.159-4.127-4.212-7.019-1.081-2.967-1.51-5.687-1.292-8.15.221-2.469.928-4.517 2.126-6.128 1.196-1.617 2.896-2.828 5.088-3.626 2.634-.958 4.992-1.057 7.066-.293s3.821 2.367 5.218 4.803l-4.048 2.614c-.831-1.26-1.829-2.1-2.977-2.513-1.148-.414-2.341-.401-3.565.045-1.898.691-3.171 1.992-3.81 3.892-.637 1.906-.408 4.377.695 7.407 1.183 3.251 2.72 5.491 4.606 6.716 1.622 1.062 3.373 1.255 5.233.579.87-.317 1.701-.853 2.487-1.603.79-.754 1.422-1.622 1.898-2.598l-1.246-3.422zm22.291 4.691-2.002-28.625 16.088-1.125.338 4.842-11.364.796.474 6.775 9.821-.688.338 4.844-9.821.687.85 12.164zm29.338-29.408 9.296 1.478c2.537.402 4.286.916 5.241 1.542s1.7 1.583 2.225 2.868c.523 1.286.667 2.674.432 4.156-.215 1.363-.713 2.55-1.49 3.555-.78 1.004-1.698 1.703-2.749 2.075 1.302.706 2.249 1.716 2.837 3.023.595 1.306.757 2.82.486 4.518-.325 2.063-1.101 3.733-2.314 4.997-1.216 1.263-2.535 1.961-3.941 2.082-.971.078-3.182-.152-6.609-.694l-7.907-1.252 4.48-28.348zm3.93 5.458-1.039 6.56 3.092.49c1.853.293 3.012.439 3.459.446.815.004 1.498-.242 2.033-.716.538-.474.884-1.188 1.031-2.125.134-.838.058-1.553-.226-2.129-.282-.578-.68-.979-1.179-1.185-.505-.211-1.997-.516-4.466-.907l-2.69-.434zm-1.79 11.272-1.2 7.584 4.347.689c1.904.3 3.149.392 3.721.283.572-.11 1.093-.434 1.551-.962.457-.529.761-1.246.903-2.146.147-.925.073-1.729-.223-2.387s-.761-1.16-1.374-1.483c-.611-.33-1.932-.654-3.938-.972l-3.79-.606zm24.18 8.495 4.431 1.468c-1.078 3.543-.299 5.929 2.325 7.154 1.303.608 2.487.746 3.544.411 1.063-.331 1.832-1.007 2.3-2.008.274-.59.378-1.157.314-1.687-.065-.536-.308-1.063-.715-1.574-.403-.511-1.487-1.567-3.244-3.146-1.572-1.412-2.632-2.642-3.181-3.684-.545-1.048-.832-2.222-.84-3.513-.007-1.291.271-2.552.838-3.769.662-1.417 1.586-2.548 2.757-3.382s2.466-1.281 3.867-1.329c1.402-.048 2.944.316 4.612 1.093 2.506 1.168 4.148 2.762 4.921 4.778s.614 4.315-.486 6.883l-4.416-1.784c.461-1.48.502-2.651.136-3.494-.363-.848-1.13-1.545-2.287-2.084-1.161-.542-2.173-.714-3.021-.523-.848.192-1.447.653-1.781 1.37-.331.708-.33 1.445.013 2.189.343.746 1.403 1.896 3.178 3.425 1.873 1.631 3.129 3.028 3.772 4.166.64 1.139.958 2.379.96 3.708 0 1.333-.367 2.783-1.093 4.341-1.053 2.256-2.639 3.833-4.742 4.721-2.105.891-4.641.646-7.597-.732-5.226-2.437-6.751-6.769-4.567-12.993l.01-.005z"/></g></svg>